<?xml version="1.0" encoding="utf-8"?>
<!-- Generator: Adobe Illustrator 24.1.0, SVG Export Plug-In . SVG Version: 6.00 Build 0)  -->
<svg version="1.1" id="Layer_1" xmlns="http://www.w3.org/2000/svg" xmlns:xlink="http://www.w3.org/1999/xlink" x="0px" y="0px"
	 viewBox="0 0 1000 1000" style="enable-background:new 0 0 1000 1000;" xml:space="preserve">
<style type="text/css">
	.st0{opacity:0.25;}
	.st1{opacity:0.25;enable-background:new    ;}
</style>
<g class="st0">
	<path d="M782.2,530.4c-4.9-77.1-20.8-129.1-86.7-177.1c7.9-21.6,12.3-44.8,12.3-69.1c0-110.5-89.9-200.4-200.4-200.4
		C396.9,83.8,307,173.7,307,284.2s89.9,200.4,200.4,200.4c72.9,0,136.9-39.2,171.9-97.6c46,34.9,61.5,70.6,66.2,146.5
		c0,0.5,0.1,1.1,0.2,1.7c0.6,4.1,0.6,9.7,0.6,14.6v71c-25.7-28.3-62.7-46.1-103.9-46.1c-77.5,0-140.6,63.1-140.6,140.6
		c0,41.2,17.9,78.1,46.1,103.9H371.4c-41.1,0-74.4-31.7-74.4-70.8l0,0c5.5,0,9.2-2.8,9.2-6.4v-4.6c1.8-3.7,2.8-10.1,3.7-13.8
		c1.8-9.2,2.8-18.4,2.8-27.6v-66.2c0.9-13.8-3.7-25.7-10.1-35.8c-2.8-5.5-4.6-11-4.6-17.5v-30.3c0-3.7-2.8-6.4-6.4-6.4h-24.8
		c-3.7,0-6.4,2.8-6.4,6.4v30.3c0,6.4-1.8,11.9-4.6,17.5c-6.4,11-11,23-11,34.9V695c0,9.2,0.9,18.4,2.8,27.6
		c0.9,3.7,1.8,10.1,3.7,13.8v5.5c0,3.7,4.6,6.4,9.2,6.4l0,0l0,0c0,59.3,49.9,107.5,111.2,107.5h271.1c77.5,0,140.6-63.1,140.6-140.6
		V549.8C783.1,544.1,783.1,537.1,782.2,530.4z M507.4,447.8c-90.2,0-163.6-73.4-163.6-163.6s73.4-163.6,163.6-163.6
		S671,193.9,671,284.2S597.6,447.8,507.4,447.8z M642.5,819.1c-57.3,0-103.9-46.6-103.9-103.9s46.6-103.9,103.9-103.9
		S746.4,658,746.4,715.2S699.8,819.1,642.5,819.1z"/>
	<path d="M273,478.1c-0.9,0-1.8,0.9-1.8,1.8v39.5c0,0.9,0.9,1.8,1.8,1.8h12.9c0.9,0,1.8-0.9,1.8-1.8v-39.5c0,0-0.9-1.8-1.8-1.8
		L273,478.1L273,478.1z"/>
	<path d="M287.7,473.5c2.8-13.8,0-22.1-8.3-26.7c-8.3,6.4-11,14.7-8.3,26.7H287.7z"/>
	<path d="M507.4,296.1c6.4,0,11.9-5.5,11.9-11.9s-5.5-11.9-11.9-11.9s-11.9,5.5-11.9,11.9C495.4,290.6,501,296.1,507.4,296.1z"/>
	<path d="M605.4,174.8L468.5,241c-3.2,1.5-5.2,4.7-5.2,8.3v69.9c0,5.1,4.1,9.2,9.2,9.2h69.9c3.5,0,6.7-2,8.2-5.1l67.1-136
		c1.7-3.5,1.1-7.8-1.7-10.5C613.2,173.8,609,173.1,605.4,174.8z M536.6,309.9h-54.9V255l107.7-52L536.6,309.9z"/>
</g>
<path class="st1" d="M636.9,1000H363.4C163.1,1000,0.1,839.7,0.1,642.7V357.3C0.1,160.3,163.1,0,363.4,0h273.5
	c200.3,0,363.2,160.3,363.2,357.3v285.3C1000.1,839.7,837.2,1000,636.9,1000z M363.4,34.3C182.3,34.3,35,179.2,35,357.3v285.3
	c0,178.1,147.3,323,328.4,323h273.5c181.1,0,328.4-144.9,328.4-323V357.3c0-178.1-147.3-323.1-328.4-323.1H363.4V34.3z"/>
</svg>
