<?xml version="1.0" encoding="utf-8"?>
<!-- Generator: Adobe Illustrator 24.1.0, SVG Export Plug-In . SVG Version: 6.00 Build 0)  -->
<svg version="1.1" id="Layer_1" xmlns="http://www.w3.org/2000/svg" xmlns:xlink="http://www.w3.org/1999/xlink" x="0px" y="0px"
	 viewBox="0 0 119.7 120.9" style="enable-background:new 0 0 119.7 120.9;" xml:space="preserve">
<style type="text/css">
	.st0{fill:#191919;stroke:#EB0029;stroke-width:4;stroke-linecap:round;stroke-linejoin:round;stroke-miterlimit:10;}
	.st1{fill:none;stroke:#FFFFFF;stroke-width:4;stroke-linecap:round;stroke-linejoin:round;stroke-miterlimit:10;}
	.st2{fill:#FFFFFF;stroke:#FFFFFF;stroke-miterlimit:10;}
	.st3{fill:none;stroke:#FFFFFF;stroke-width:2;stroke-linecap:round;stroke-linejoin:round;stroke-miterlimit:10;}
</style>
<path class="st0" d="M76,5.2H44.8C23,5.2,5.4,22.6,5.4,44v32.5c0,21.4,17.7,38.7,39.4,38.7H76c21.7,0,39.4-17.4,39.4-38.7V44
	C115.4,22.6,97.7,5.2,76,5.2z"/>
<path class="st1" d="M88.6,84V66c0-0.6,0-1.3-0.1-1.9c-0.6-8.9-2.6-13.7-10.2-18.5"/>
<path class="st1" d="M35.6,87.6L35.6,87.6c0,5.4,4.6,9.7,10.1,9.7h29.5"/>
<ellipse class="st1" cx="75.2" cy="84" rx="13.3" ry="13.3"/>
<circle class="st1" cx="60.5" cy="37.1" r="19.8"/>
<g>
	<path class="st2" d="M36.4,58.2H35c-0.1,0-0.2,0.1-0.2,0.2v4.3c0,0.1,0.1,0.2,0.2,0.2h1.4c0.1,0,0.2-0.1,0.2-0.2v-4.3
		C36.6,58.4,36.5,58.2,36.4,58.2z"/>
	<path class="st2" d="M36.6,56.7c0.3-1.5,0-2.4-0.9-2.9c-0.9,0.7-1.2,1.6-0.9,2.9H36.6z"/>
	<path class="st2" d="M38.2,70.8c-0.3-0.6-0.5-1.2-0.5-1.9l0,0v-3.3c0-0.4-0.3-0.7-0.7-0.7h-2.7c-0.4,0-0.7,0.3-0.7,0.7v3.3l0,0
		c0,0.7-0.2,1.3-0.5,1.9c-0.7,1.2-1.2,2.5-1.2,3.8v7.2c0,1,0.1,2,0.3,3c0.1,0.4,0.2,1.1,0.4,1.5v0.6c0,0.4,0.5,0.7,1,0.7h4
		c0.6,0,1-0.3,1-0.7v-0.5c0.2-0.4,0.3-1.1,0.4-1.5c0.2-1,0.3-2,0.3-3v-7.2C39.4,73.2,38.9,71.9,38.2,70.8z"/>
</g>
<path class="st2" d="M60.5,38.4c0.7,0,1.3-0.6,1.3-1.3s-0.6-1.3-1.3-1.3s-1.3,0.6-1.3,1.3S59.8,38.4,60.5,38.4z"/>
<polygon class="st3" points="56.7,33.3 56.7,40.9 64.3,40.9 71.6,26.1 "/>
</svg>
