<?xml version="1.0" encoding="utf-8"?>
<!-- Generator: Adobe Illustrator 24.1.0, SVG Export Plug-In . SVG Version: 6.00 Build 0)  -->
<svg version="1.1" id="Layer_1" xmlns="http://www.w3.org/2000/svg" xmlns:xlink="http://www.w3.org/1999/xlink" x="0px" y="0px"
	 viewBox="0 0 122 1000" style="enable-background:new 0 0 122 1000;" xml:space="preserve">
<style type="text/css">
	.st0{fill:#DFEAE2;}
	.st1{fill:#B4D6C1;}
	.st2{fill:#8DC3A7;}
	.st3{fill:#4E9C81;}
	.st4{fill:#207567;}
	.st5{fill:none;stroke:#000000;stroke-miterlimit:10;}
	.st6{fill:none;stroke:#FFFFFF;stroke-miterlimit:10;}
	.st7{enable-background:new    ;}
	.st8{fill:#FFFFFF;}
</style>
<g id="Layer_2_1_">
	<g id="Layer_1-2">
		<rect y="800" class="st0" width="50" height="200"/>
		<rect y="600" class="st1" width="50" height="200"/>
		<rect y="400" class="st2" width="50" height="200"/>
		<rect y="200" class="st3" width="50" height="200"/>
		<rect y="0" class="st4" width="50" height="200"/>
		<line class="st5" x1="24.5" y1="0" x2="24.5" y2="1000"/>
		<line class="st6" x1="0.7" y1="999.5" x2="89" y2="999.5"/>
		<line class="st6" x1="0.7" y1="799.5" x2="89" y2="799.5"/>
		<line class="st6" x1="0.7" y1="599.5" x2="89" y2="599.5"/>
		<line class="st6" x1="0.7" y1="400.5" x2="89" y2="400.5"/>
		<line class="st6" x1="0.7" y1="200.5" x2="89" y2="200.5"/>
		<line class="st6" x1="0" y1="0.5" x2="88.3" y2="0.5"/>
		<g class="st7">
			<path class="st8" d="M65.7,12.3L65.7,12.3L62.5,15l-0.9-1.2l4.4-3.6h1.3v17.7h-1.5V12.3z"/>
			<path class="st8" d="M72.8,19.1c0-0.6,0-1.3,0.1-2s0.2-1.4,0.3-2.1c0.2-0.7,0.4-1.3,0.6-1.9c0.3-0.6,0.6-1.1,1.1-1.6
				s1-0.8,1.6-1.1c0.6-0.3,1.3-0.4,2.2-0.4c0.8,0,1.6,0.1,2.2,0.4c0.6,0.3,1.1,0.6,1.6,1.1s0.8,1,1.1,1.6c0.3,0.6,0.5,1.2,0.7,1.9
				c0.2,0.7,0.3,1.4,0.3,2.1c0.1,0.7,0.1,1.4,0.1,2c0,0.6,0,1.3-0.1,2c-0.1,0.7-0.2,1.4-0.3,2.1c-0.2,0.7-0.4,1.3-0.7,1.9
				c-0.3,0.6-0.6,1.1-1.1,1.6s-1,0.8-1.6,1.1c-0.6,0.3-1.3,0.4-2.2,0.4c-0.8,0-1.6-0.1-2.2-0.4c-0.6-0.3-1.1-0.6-1.6-1.1
				s-0.8-1-1.1-1.6c-0.3-0.6-0.5-1.2-0.6-1.9c-0.2-0.7-0.3-1.4-0.3-2.1S72.8,19.7,72.8,19.1z M74.5,19.1c0,0.5,0,1,0,1.5
				s0.1,1.1,0.2,1.7s0.2,1.1,0.4,1.7s0.4,1,0.8,1.5c0.3,0.4,0.7,0.8,1.1,1c0.5,0.3,1,0.4,1.6,0.4c0.6,0,1.2-0.1,1.6-0.4
				c0.5-0.3,0.8-0.6,1.2-1c0.3-0.4,0.6-0.9,0.8-1.5c0.2-0.5,0.3-1.1,0.4-1.7c0.1-0.6,0.2-1.1,0.2-1.7s0.1-1.1,0.1-1.5
				c0-0.5,0-1-0.1-1.5s-0.1-1.1-0.2-1.7c-0.1-0.6-0.2-1.1-0.4-1.7c-0.2-0.5-0.4-1-0.8-1.5c-0.3-0.4-0.7-0.8-1.2-1
				c-0.5-0.3-1-0.4-1.6-0.4c-0.6,0-1.2,0.1-1.6,0.4c-0.5,0.3-0.8,0.6-1.2,1s-0.6,0.9-0.8,1.5c-0.2,0.6-0.3,1.1-0.4,1.7
				c-0.1,0.6-0.2,1.1-0.2,1.7S74.5,18.6,74.5,19.1z"/>
			<path class="st8" d="M85.8,19.1c0-0.6,0-1.3,0.1-2s0.2-1.4,0.3-2.1c0.2-0.7,0.4-1.3,0.6-1.9c0.3-0.6,0.6-1.1,1.1-1.6
				s1-0.8,1.6-1.1c0.6-0.3,1.3-0.4,2.2-0.4c0.8,0,1.6,0.1,2.2,0.4c0.6,0.3,1.1,0.6,1.6,1.1s0.8,1,1.1,1.6c0.3,0.6,0.5,1.2,0.7,1.9
				c0.2,0.7,0.3,1.4,0.3,2.1c0.1,0.7,0.1,1.4,0.1,2c0,0.6,0,1.3-0.1,2c-0.1,0.7-0.2,1.4-0.3,2.1c-0.2,0.7-0.4,1.3-0.7,1.9
				c-0.3,0.6-0.6,1.1-1.1,1.6s-1,0.8-1.6,1.1c-0.6,0.3-1.3,0.4-2.2,0.4c-0.8,0-1.6-0.1-2.2-0.4c-0.6-0.3-1.1-0.6-1.6-1.1
				s-0.8-1-1.1-1.6c-0.3-0.6-0.5-1.2-0.6-1.9c-0.2-0.7-0.3-1.4-0.3-2.1S85.8,19.7,85.8,19.1z M87.5,19.1c0,0.5,0,1,0,1.5
				s0.1,1.1,0.2,1.7s0.2,1.1,0.4,1.7s0.4,1,0.8,1.5c0.3,0.4,0.7,0.8,1.1,1c0.5,0.3,1,0.4,1.6,0.4c0.6,0,1.2-0.1,1.6-0.4
				c0.5-0.3,0.8-0.6,1.2-1c0.3-0.4,0.6-0.9,0.8-1.5c0.2-0.5,0.3-1.1,0.4-1.7c0.1-0.6,0.2-1.1,0.2-1.7s0.1-1.1,0.1-1.5
				c0-0.5,0-1-0.1-1.5s-0.1-1.1-0.2-1.7c-0.1-0.6-0.2-1.1-0.4-1.7c-0.2-0.5-0.4-1-0.8-1.5c-0.3-0.4-0.7-0.8-1.2-1
				c-0.5-0.3-1-0.4-1.6-0.4c-0.6,0-1.2,0.1-1.6,0.4c-0.5,0.3-0.8,0.6-1.2,1s-0.6,0.9-0.8,1.5c-0.2,0.6-0.3,1.1-0.4,1.7
				c-0.1,0.6-0.2,1.1-0.2,1.7S87.5,18.6,87.5,19.1z"/>
			<path class="st8" d="M99.1,14.2c0-0.6,0.1-1.2,0.3-1.7c0.2-0.5,0.5-1,0.9-1.4s0.8-0.7,1.4-0.9c0.5-0.2,1.1-0.3,1.7-0.3
				c0.6,0,1.2,0.1,1.7,0.3c0.5,0.2,1,0.5,1.4,0.9c0.4,0.4,0.7,0.8,0.9,1.4c0.2,0.5,0.3,1.1,0.3,1.7c0,0.6-0.1,1.2-0.3,1.7
				c-0.2,0.5-0.5,1-0.9,1.4c-0.4,0.4-0.8,0.7-1.4,0.9c-0.5,0.2-1.1,0.3-1.7,0.3c-0.6,0-1.2-0.1-1.7-0.3c-0.5-0.2-1-0.5-1.4-0.9
				s-0.7-0.8-0.9-1.4C99.2,15.4,99.1,14.8,99.1,14.2z M100.5,14.2c0,0.4,0.1,0.8,0.2,1.2c0.2,0.4,0.4,0.7,0.6,0.9s0.6,0.5,0.9,0.6
				c0.4,0.1,0.7,0.2,1.1,0.2c0.4,0,0.8-0.1,1.1-0.2c0.4-0.2,0.7-0.4,0.9-0.6s0.5-0.6,0.6-0.9c0.2-0.4,0.2-0.7,0.2-1.2
				c0-0.4-0.1-0.8-0.2-1.2c-0.2-0.4-0.4-0.7-0.6-0.9s-0.6-0.5-0.9-0.6c-0.4-0.2-0.7-0.2-1.1-0.2c-0.4,0-0.8,0.1-1.1,0.2
				c-0.4,0.1-0.7,0.4-0.9,0.6s-0.5,0.6-0.6,0.9C100.5,13.4,100.5,13.8,100.5,14.2z M113.5,9.4l1.1,0.7l-11.4,18.7l-1.1-0.7
				L113.5,9.4z M109,23.9c0-0.6,0.1-1.2,0.3-1.7c0.2-0.5,0.5-1,0.9-1.4s0.8-0.7,1.4-0.9c0.5-0.2,1.1-0.3,1.7-0.3
				c0.6,0,1.2,0.1,1.7,0.3c0.5,0.2,1,0.5,1.4,0.9c0.4,0.4,0.7,0.8,0.9,1.4c0.2,0.5,0.3,1.1,0.3,1.7s-0.1,1.2-0.3,1.7
				c-0.2,0.5-0.5,1-0.9,1.4c-0.4,0.4-0.8,0.7-1.4,0.9c-0.5,0.2-1.1,0.3-1.7,0.3c-0.6,0-1.2-0.1-1.7-0.3c-0.5-0.2-1-0.5-1.4-0.9
				c-0.4-0.4-0.7-0.8-0.9-1.4C109.1,25.1,109,24.5,109,23.9z M110.3,23.9c0,0.4,0.1,0.8,0.2,1.2c0.2,0.4,0.4,0.7,0.6,0.9
				c0.3,0.3,0.6,0.5,0.9,0.6c0.4,0.2,0.7,0.2,1.1,0.2c0.4,0,0.8-0.1,1.1-0.2c0.4-0.1,0.7-0.4,0.9-0.6c0.3-0.3,0.5-0.6,0.6-0.9
				c0.2-0.4,0.2-0.7,0.2-1.2c0-0.4-0.1-0.8-0.2-1.2c-0.2-0.4-0.4-0.7-0.6-0.9s-0.6-0.5-0.9-0.6c-0.4-0.2-0.7-0.2-1.1-0.2
				c-0.4,0-0.8,0.1-1.1,0.2c-0.4,0.1-0.7,0.4-0.9,0.6s-0.5,0.6-0.6,0.9C110.4,23.1,110.3,23.5,110.3,23.9z"/>
		</g>
		<g class="st7">
			<path class="st8" d="M67.3,212.5c0-0.7,0.1-1.3,0.4-1.9c0.2-0.6,0.6-1,1-1.4c0.4-0.4,0.9-0.7,1.5-0.9c0.6-0.2,1.2-0.3,1.9-0.3
				s1.3,0.1,1.9,0.3c0.6,0.2,1.1,0.5,1.5,0.9c0.4,0.4,0.8,0.9,1,1.4c0.2,0.6,0.4,1.2,0.4,1.9c0,0.4-0.1,0.8-0.2,1.2
				c-0.1,0.4-0.3,0.8-0.6,1.1c-0.2,0.4-0.5,0.7-0.9,0.9s-0.7,0.5-1.2,0.6v0c0.6,0.1,1.1,0.3,1.5,0.6s0.8,0.6,1.1,1
				c0.3,0.4,0.5,0.9,0.7,1.3c0.2,0.5,0.2,1,0.2,1.5c0,0.8-0.1,1.5-0.4,2.2c-0.3,0.6-0.7,1.2-1.1,1.6c-0.5,0.5-1.1,0.8-1.7,1
				c-0.7,0.2-1.4,0.4-2.2,0.4s-1.5-0.1-2.2-0.4c-0.7-0.2-1.2-0.6-1.7-1c-0.5-0.5-0.9-1-1.2-1.6c-0.3-0.6-0.4-1.4-0.4-2.2
				c0-0.5,0.1-1,0.2-1.5c0.2-0.5,0.4-0.9,0.7-1.3c0.3-0.4,0.6-0.8,1.1-1c0.4-0.3,0.9-0.5,1.5-0.6v0c-0.4-0.1-0.8-0.3-1.2-0.6
				c-0.3-0.3-0.6-0.6-0.9-0.9c-0.2-0.4-0.4-0.7-0.6-1.1C67.4,213.4,67.3,213,67.3,212.5z M68.3,221c0,0.5,0.1,1,0.3,1.5
				s0.4,0.9,0.8,1.2c0.3,0.4,0.7,0.6,1.2,0.8s1,0.3,1.6,0.3s1.1-0.1,1.6-0.3s0.9-0.5,1.2-0.8c0.3-0.3,0.6-0.8,0.8-1.2s0.3-1,0.3-1.5
				c0-0.6-0.1-1.1-0.3-1.6c-0.2-0.5-0.5-0.9-0.8-1.2c-0.3-0.3-0.7-0.6-1.2-0.8c-0.5-0.2-1-0.3-1.5-0.3s-1,0.1-1.5,0.3
				c-0.5,0.2-0.9,0.4-1.2,0.8c-0.3,0.3-0.6,0.8-0.8,1.2C68.4,219.9,68.3,220.4,68.3,221z M69,212.5c0,0.5,0.1,0.9,0.2,1.3
				c0.2,0.4,0.4,0.7,0.6,1c0.3,0.3,0.6,0.5,1,0.7c0.4,0.2,0.8,0.3,1.3,0.3c0.5,0,0.9-0.1,1.3-0.3c0.4-0.2,0.7-0.4,1-0.7
				c0.3-0.3,0.5-0.6,0.7-1c0.2-0.4,0.2-0.8,0.2-1.3c0-1-0.3-1.8-0.9-2.4c-0.6-0.6-1.4-0.9-2.3-0.9s-1.7,0.3-2.3,0.9
				C69.3,210.8,69,211.6,69,212.5z"/>
			<path class="st8" d="M79.3,217.1c0-0.6,0-1.3,0.1-2s0.2-1.4,0.3-2.1c0.2-0.7,0.4-1.3,0.6-1.9c0.3-0.6,0.6-1.1,1.1-1.6
				s1-0.8,1.6-1.1c0.6-0.3,1.3-0.4,2.2-0.4c0.8,0,1.6,0.1,2.2,0.4c0.6,0.3,1.1,0.6,1.6,1.1s0.8,1,1.1,1.6c0.3,0.6,0.5,1.2,0.7,1.9
				c0.2,0.7,0.3,1.4,0.3,2.1c0.1,0.7,0.1,1.4,0.1,2c0,0.6,0,1.3-0.1,2c-0.1,0.7-0.2,1.4-0.3,2.1c-0.2,0.7-0.4,1.3-0.7,1.9
				c-0.3,0.6-0.6,1.1-1.1,1.6s-1,0.8-1.6,1.1c-0.6,0.3-1.3,0.4-2.2,0.4c-0.8,0-1.6-0.1-2.2-0.4c-0.6-0.3-1.1-0.6-1.6-1.1
				s-0.8-1-1.1-1.6c-0.3-0.6-0.5-1.2-0.6-1.9c-0.2-0.7-0.3-1.4-0.3-2.1S79.3,217.7,79.3,217.1z M81,217.1c0,0.5,0,1,0,1.5
				s0.1,1.1,0.2,1.7s0.2,1.1,0.4,1.7s0.4,1,0.8,1.5c0.3,0.4,0.7,0.8,1.1,1c0.5,0.3,1,0.4,1.6,0.4c0.6,0,1.2-0.1,1.6-0.4
				c0.5-0.3,0.8-0.6,1.2-1c0.3-0.4,0.6-0.9,0.8-1.5c0.2-0.5,0.3-1.1,0.4-1.7c0.1-0.6,0.2-1.1,0.2-1.7s0.1-1.1,0.1-1.5
				c0-0.5,0-1-0.1-1.5s-0.1-1.1-0.2-1.7c-0.1-0.6-0.2-1.1-0.4-1.7c-0.2-0.5-0.4-1-0.8-1.5c-0.3-0.4-0.7-0.8-1.2-1
				c-0.5-0.3-1-0.4-1.6-0.4c-0.6,0-1.2,0.1-1.6,0.4c-0.5,0.3-0.8,0.6-1.2,1s-0.6,0.9-0.8,1.5c-0.2,0.6-0.3,1.1-0.4,1.7
				c-0.1,0.6-0.2,1.1-0.2,1.7S81,216.6,81,217.1z"/>
			<path class="st8" d="M92.6,212.2c0-0.6,0.1-1.2,0.3-1.7c0.2-0.5,0.5-1,0.9-1.4s0.8-0.7,1.4-0.9c0.5-0.2,1.1-0.3,1.7-0.3
				c0.6,0,1.2,0.1,1.7,0.3c0.5,0.2,1,0.5,1.4,0.9s0.7,0.8,0.9,1.4c0.2,0.5,0.3,1.1,0.3,1.7c0,0.6-0.1,1.2-0.3,1.7
				c-0.2,0.5-0.5,1-0.9,1.4s-0.8,0.7-1.4,0.9c-0.5,0.2-1.1,0.3-1.7,0.3c-0.6,0-1.2-0.1-1.7-0.3c-0.5-0.2-1-0.5-1.4-0.9
				s-0.7-0.8-0.9-1.4C92.7,213.4,92.6,212.8,92.6,212.2z M94,212.2c0,0.4,0.1,0.8,0.2,1.2s0.4,0.7,0.6,0.9s0.6,0.5,0.9,0.6
				c0.4,0.1,0.7,0.2,1.1,0.2c0.4,0,0.8-0.1,1.1-0.2c0.4-0.2,0.7-0.4,0.9-0.6c0.3-0.3,0.5-0.6,0.6-0.9s0.2-0.7,0.2-1.2
				c0-0.4-0.1-0.8-0.2-1.2s-0.4-0.7-0.6-0.9c-0.3-0.3-0.6-0.5-0.9-0.6c-0.4-0.2-0.7-0.2-1.1-0.2c-0.4,0-0.8,0.1-1.1,0.2
				c-0.4,0.1-0.7,0.4-0.9,0.6s-0.5,0.6-0.6,0.9S94,211.8,94,212.2z M107,207.4l1.2,0.7l-11.4,18.7l-1.1-0.7L107,207.4z M102.5,221.9
				c0-0.6,0.1-1.2,0.3-1.7c0.2-0.5,0.5-1,0.9-1.4s0.8-0.7,1.4-0.9c0.5-0.2,1.1-0.3,1.7-0.3c0.6,0,1.2,0.1,1.7,0.3
				c0.5,0.2,1,0.5,1.4,0.9s0.7,0.8,0.9,1.4c0.2,0.5,0.3,1.1,0.3,1.7s-0.1,1.2-0.3,1.7c-0.2,0.5-0.5,1-0.9,1.4
				c-0.4,0.4-0.8,0.7-1.4,0.9c-0.5,0.2-1.1,0.3-1.7,0.3c-0.6,0-1.2-0.1-1.7-0.3c-0.5-0.2-1-0.5-1.4-0.9c-0.4-0.4-0.7-0.8-0.9-1.4
				C102.6,223.1,102.5,222.5,102.5,221.9z M103.8,221.9c0,0.4,0.1,0.8,0.2,1.2c0.2,0.4,0.4,0.7,0.6,0.9c0.3,0.3,0.6,0.5,0.9,0.6
				c0.4,0.2,0.7,0.2,1.1,0.2c0.4,0,0.8-0.1,1.1-0.2c0.4-0.1,0.7-0.4,0.9-0.6c0.3-0.3,0.5-0.6,0.6-0.9c0.2-0.4,0.2-0.7,0.2-1.2
				c0-0.4-0.1-0.8-0.2-1.2s-0.4-0.7-0.6-0.9c-0.3-0.3-0.6-0.5-0.9-0.6c-0.4-0.2-0.7-0.2-1.1-0.2c-0.4,0-0.8,0.1-1.1,0.2
				c-0.4,0.1-0.7,0.4-0.9,0.6s-0.5,0.6-0.6,0.9S103.8,221.5,103.8,221.9z"/>
		</g>
		<g class="st7">
			<path class="st8" d="M70.9,416L70.9,416c0.3-0.2,0.8-0.4,1.3-0.6c0.5-0.1,1-0.2,1.4-0.2c0.8,0,1.5,0.1,2.2,0.4
				c0.7,0.3,1.2,0.7,1.7,1.2c0.5,0.5,0.9,1.1,1.1,1.7c0.3,0.7,0.4,1.4,0.4,2.1c0,0.8-0.1,1.5-0.4,2.2c-0.3,0.7-0.7,1.3-1.2,1.7
				s-1.1,0.9-1.8,1.1c-0.7,0.3-1.5,0.4-2.3,0.4s-1.6-0.1-2.3-0.4c-0.7-0.3-1.3-0.7-1.8-1.1c-0.5-0.5-0.9-1.1-1.2-1.7
				c-0.3-0.7-0.4-1.4-0.4-2.2c0-0.5,0-0.9,0.2-1.3c0.1-0.4,0.2-0.8,0.4-1.2s0.3-0.7,0.5-1.1c0.2-0.3,0.4-0.6,0.5-0.9l4.8-8h1.9
				L70.9,416z M73.2,416.6c-0.6,0-1.1,0.1-1.6,0.3c-0.5,0.2-0.9,0.5-1.3,0.9s-0.7,0.8-0.9,1.3c-0.2,0.5-0.3,1-0.3,1.6
				c0,0.6,0.1,1.2,0.3,1.7c0.2,0.5,0.5,0.9,0.8,1.3c0.4,0.4,0.8,0.7,1.3,0.9c0.5,0.2,1.1,0.3,1.7,0.3s1.2-0.1,1.7-0.3
				c0.5-0.2,0.9-0.5,1.3-0.9c0.4-0.4,0.7-0.8,0.9-1.3c0.2-0.5,0.3-1.1,0.3-1.7c0-0.6-0.1-1.1-0.3-1.6c-0.2-0.5-0.5-1-0.9-1.3
				s-0.8-0.7-1.3-0.9C74.3,416.7,73.7,416.6,73.2,416.6z"/>
			<path class="st8" d="M80.3,417.1c0-0.6,0-1.3,0.1-2s0.2-1.4,0.3-2.1c0.2-0.7,0.4-1.3,0.6-1.9c0.3-0.6,0.6-1.1,1.1-1.6
				s1-0.8,1.6-1.1c0.6-0.3,1.3-0.4,2.2-0.4c0.8,0,1.6,0.1,2.2,0.4c0.6,0.3,1.1,0.6,1.6,1.1s0.8,1,1.1,1.6c0.3,0.6,0.5,1.2,0.7,1.9
				c0.2,0.7,0.3,1.4,0.3,2.1c0.1,0.7,0.1,1.4,0.1,2c0,0.6,0,1.3-0.1,2c-0.1,0.7-0.2,1.4-0.3,2.1c-0.2,0.7-0.4,1.3-0.7,1.9
				c-0.3,0.6-0.6,1.1-1.1,1.6s-1,0.8-1.6,1.1c-0.6,0.3-1.3,0.4-2.2,0.4c-0.8,0-1.6-0.1-2.2-0.4c-0.6-0.3-1.1-0.6-1.6-1.1
				s-0.8-1-1.1-1.6c-0.3-0.6-0.5-1.2-0.6-1.9c-0.2-0.7-0.3-1.4-0.3-2.1S80.3,417.7,80.3,417.1z M82,417.1c0,0.5,0,1,0,1.5
				s0.1,1.1,0.2,1.7s0.2,1.1,0.4,1.7s0.4,1,0.8,1.5c0.3,0.4,0.7,0.8,1.1,1c0.5,0.3,1,0.4,1.6,0.4c0.6,0,1.2-0.1,1.6-0.4
				c0.5-0.3,0.8-0.6,1.2-1c0.3-0.4,0.6-0.9,0.8-1.5c0.2-0.5,0.3-1.1,0.4-1.7c0.1-0.6,0.2-1.1,0.2-1.7s0.1-1.1,0.1-1.5
				c0-0.5,0-1-0.1-1.5s-0.1-1.1-0.2-1.7c-0.1-0.6-0.2-1.1-0.4-1.7c-0.2-0.5-0.4-1-0.8-1.5c-0.3-0.4-0.7-0.8-1.2-1
				c-0.5-0.3-1-0.4-1.6-0.4c-0.6,0-1.2,0.1-1.6,0.4c-0.5,0.3-0.8,0.6-1.2,1s-0.6,0.9-0.8,1.5c-0.2,0.6-0.3,1.1-0.4,1.7
				c-0.1,0.6-0.2,1.1-0.2,1.7S82,416.6,82,417.1z"/>
			<path class="st8" d="M93.6,412.2c0-0.6,0.1-1.2,0.3-1.7c0.2-0.5,0.5-1,0.9-1.4s0.8-0.7,1.4-0.9c0.5-0.2,1.1-0.3,1.7-0.3
				c0.6,0,1.2,0.1,1.7,0.3c0.5,0.2,1,0.5,1.4,0.9s0.7,0.8,0.9,1.4c0.2,0.5,0.3,1.1,0.3,1.7c0,0.6-0.1,1.2-0.3,1.7
				c-0.2,0.5-0.5,1-0.9,1.4s-0.8,0.7-1.4,0.9c-0.5,0.2-1.1,0.3-1.7,0.3c-0.6,0-1.2-0.1-1.7-0.3c-0.5-0.2-1-0.5-1.4-0.9
				s-0.7-0.8-0.9-1.4C93.7,413.4,93.6,412.8,93.6,412.2z M95,412.2c0,0.4,0.1,0.8,0.2,1.2s0.4,0.7,0.6,0.9s0.6,0.5,0.9,0.6
				c0.4,0.1,0.7,0.2,1.1,0.2c0.4,0,0.8-0.1,1.1-0.2c0.4-0.2,0.7-0.4,0.9-0.6c0.3-0.3,0.5-0.6,0.6-0.9s0.2-0.7,0.2-1.2
				c0-0.4-0.1-0.8-0.2-1.2s-0.4-0.7-0.6-0.9c-0.3-0.3-0.6-0.5-0.9-0.6c-0.4-0.2-0.7-0.2-1.1-0.2c-0.4,0-0.8,0.1-1.1,0.2
				c-0.4,0.1-0.7,0.4-0.9,0.6s-0.5,0.6-0.6,0.9S95,411.8,95,412.2z M108,407.4l1.2,0.7l-11.4,18.7l-1.1-0.7L108,407.4z M103.5,421.9
				c0-0.6,0.1-1.2,0.3-1.7c0.2-0.5,0.5-1,0.9-1.4s0.8-0.7,1.4-0.9c0.5-0.2,1.1-0.3,1.7-0.3c0.6,0,1.2,0.1,1.7,0.3
				c0.5,0.2,1,0.5,1.4,0.9s0.7,0.8,0.9,1.4c0.2,0.5,0.3,1.1,0.3,1.7s-0.1,1.2-0.3,1.7c-0.2,0.5-0.5,1-0.9,1.4
				c-0.4,0.4-0.8,0.7-1.4,0.9c-0.5,0.2-1.1,0.3-1.7,0.3c-0.6,0-1.2-0.1-1.7-0.3c-0.5-0.2-1-0.5-1.4-0.9c-0.4-0.4-0.7-0.8-0.9-1.4
				C103.6,423.1,103.5,422.5,103.5,421.9z M104.8,421.9c0,0.4,0.1,0.8,0.2,1.2c0.2,0.4,0.4,0.7,0.6,0.9c0.3,0.3,0.6,0.5,0.9,0.6
				c0.4,0.2,0.7,0.2,1.1,0.2c0.4,0,0.8-0.1,1.1-0.2c0.4-0.1,0.7-0.4,0.9-0.6c0.3-0.3,0.5-0.6,0.6-0.9c0.2-0.4,0.2-0.7,0.2-1.2
				c0-0.4-0.1-0.8-0.2-1.2s-0.4-0.7-0.6-0.9c-0.3-0.3-0.6-0.5-0.9-0.6c-0.4-0.2-0.7-0.2-1.1-0.2c-0.4,0-0.8,0.1-1.1,0.2
				c-0.4,0.1-0.7,0.4-0.9,0.6s-0.5,0.6-0.6,0.9S104.8,421.5,104.8,421.9z"/>
		</g>
		<g class="st7">
			<path class="st8" d="M73.9,588.6h-7.7v-1.8l7.1-11.6h2.1v12h2.7v1.4h-2.7v4.3h-1.5V588.6z M73.9,576.9L73.9,576.9l-6.3,10.3h6.3
				V576.9z"/>
			<path class="st8" d="M79.3,584.1c0-0.6,0-1.3,0.1-2s0.2-1.4,0.3-2.1c0.2-0.7,0.4-1.3,0.6-1.9c0.3-0.6,0.6-1.1,1.1-1.6
				s1-0.8,1.6-1.1c0.6-0.3,1.3-0.4,2.2-0.4c0.8,0,1.6,0.1,2.2,0.4c0.6,0.3,1.1,0.6,1.6,1.1s0.8,1,1.1,1.6c0.3,0.6,0.5,1.2,0.7,1.9
				c0.2,0.7,0.3,1.4,0.3,2.1c0.1,0.7,0.1,1.4,0.1,2c0,0.6,0,1.3-0.1,2c-0.1,0.7-0.2,1.4-0.3,2.1c-0.2,0.7-0.4,1.3-0.7,1.9
				c-0.3,0.6-0.6,1.1-1.1,1.6s-1,0.8-1.6,1.1c-0.6,0.3-1.3,0.4-2.2,0.4c-0.8,0-1.6-0.1-2.2-0.4c-0.6-0.3-1.1-0.6-1.6-1.1
				s-0.8-1-1.1-1.6c-0.3-0.6-0.5-1.2-0.6-1.9c-0.2-0.7-0.3-1.4-0.3-2.1S79.3,584.7,79.3,584.1z M81,584.1c0,0.5,0,1,0,1.5
				s0.1,1.1,0.2,1.7s0.2,1.1,0.4,1.7s0.4,1,0.8,1.5c0.3,0.4,0.7,0.8,1.1,1c0.5,0.3,1,0.4,1.6,0.4c0.6,0,1.2-0.1,1.6-0.4
				c0.5-0.3,0.8-0.6,1.2-1c0.3-0.4,0.6-0.9,0.8-1.5c0.2-0.5,0.3-1.1,0.4-1.7c0.1-0.6,0.2-1.1,0.2-1.7s0.1-1.1,0.1-1.5
				c0-0.5,0-1-0.1-1.5s-0.1-1.1-0.2-1.7c-0.1-0.6-0.2-1.1-0.4-1.7c-0.2-0.5-0.4-1-0.8-1.5c-0.3-0.4-0.7-0.8-1.2-1
				c-0.5-0.3-1-0.4-1.6-0.4c-0.6,0-1.2,0.1-1.6,0.4c-0.5,0.3-0.8,0.6-1.2,1s-0.6,0.9-0.8,1.5c-0.2,0.6-0.3,1.1-0.4,1.7
				c-0.1,0.6-0.2,1.1-0.2,1.7S81,583.6,81,584.1z"/>
			<path class="st8" d="M92.6,579.2c0-0.6,0.1-1.2,0.3-1.7c0.2-0.5,0.5-1,0.9-1.4s0.8-0.7,1.4-0.9c0.5-0.2,1.1-0.3,1.7-0.3
				c0.6,0,1.2,0.1,1.7,0.3c0.5,0.2,1,0.5,1.4,0.9s0.7,0.8,0.9,1.4c0.2,0.5,0.3,1.1,0.3,1.7c0,0.6-0.1,1.2-0.3,1.7
				c-0.2,0.5-0.5,1-0.9,1.4s-0.8,0.7-1.4,0.9c-0.5,0.2-1.1,0.3-1.7,0.3c-0.6,0-1.2-0.1-1.7-0.3c-0.5-0.2-1-0.5-1.4-0.9
				s-0.7-0.8-0.9-1.4C92.7,580.4,92.6,579.8,92.6,579.2z M94,579.2c0,0.4,0.1,0.8,0.2,1.2s0.4,0.7,0.6,0.9s0.6,0.5,0.9,0.6
				c0.4,0.1,0.7,0.2,1.1,0.2c0.4,0,0.8-0.1,1.1-0.2c0.4-0.2,0.7-0.4,0.9-0.6c0.3-0.3,0.5-0.6,0.6-0.9s0.2-0.7,0.2-1.2
				c0-0.4-0.1-0.8-0.2-1.2s-0.4-0.7-0.6-0.9c-0.3-0.3-0.6-0.5-0.9-0.6c-0.4-0.2-0.7-0.2-1.1-0.2c-0.4,0-0.8,0.1-1.1,0.2
				c-0.4,0.1-0.7,0.4-0.9,0.6s-0.5,0.6-0.6,0.9S94,578.8,94,579.2z M107,574.4l1.2,0.7l-11.4,18.7l-1.1-0.7L107,574.4z M102.5,588.9
				c0-0.6,0.1-1.2,0.3-1.7c0.2-0.5,0.5-1,0.9-1.4s0.8-0.7,1.4-0.9c0.5-0.2,1.1-0.3,1.7-0.3c0.6,0,1.2,0.1,1.7,0.3
				c0.5,0.2,1,0.5,1.4,0.9s0.7,0.8,0.9,1.4c0.2,0.5,0.3,1.1,0.3,1.7s-0.1,1.2-0.3,1.7c-0.2,0.5-0.5,1-0.9,1.4
				c-0.4,0.4-0.8,0.7-1.4,0.9c-0.5,0.2-1.1,0.3-1.7,0.3c-0.6,0-1.2-0.1-1.7-0.3c-0.5-0.2-1-0.5-1.4-0.9c-0.4-0.4-0.7-0.8-0.9-1.4
				C102.6,590.1,102.5,589.5,102.5,588.9z M103.8,588.9c0,0.4,0.1,0.8,0.2,1.2c0.2,0.4,0.4,0.7,0.6,0.9c0.3,0.3,0.6,0.5,0.9,0.6
				c0.4,0.2,0.7,0.2,1.1,0.2c0.4,0,0.8-0.1,1.1-0.2c0.4-0.1,0.7-0.4,0.9-0.6c0.3-0.3,0.5-0.6,0.6-0.9c0.2-0.4,0.2-0.7,0.2-1.2
				c0-0.4-0.1-0.8-0.2-1.2s-0.4-0.7-0.6-0.9c-0.3-0.3-0.6-0.5-0.9-0.6c-0.4-0.2-0.7-0.2-1.1-0.2c-0.4,0-0.8,0.1-1.1,0.2
				c-0.4,0.1-0.7,0.4-0.9,0.6s-0.5,0.6-0.6,0.9S103.8,588.5,103.8,588.9z"/>
		</g>
		<g class="st7">
			<path class="st8" d="M64.7,791.2l6.6-7c0.3-0.3,0.6-0.6,0.9-1s0.6-0.7,0.8-1.1c0.2-0.4,0.4-0.8,0.6-1.2c0.1-0.4,0.2-0.9,0.2-1.3
				c0-1-0.3-1.8-1-2.4c-0.7-0.6-1.5-0.9-2.5-0.9c-0.9,0-1.7,0.3-2.3,0.8c-0.6,0.5-1,1.2-1.2,2.1L65,779c0.3-1.4,0.9-2.4,1.9-3.1
				s2.1-1,3.5-1c0.7,0,1.3,0.1,2,0.3c0.6,0.2,1.2,0.5,1.6,0.9s0.8,0.9,1.1,1.4c0.3,0.6,0.4,1.2,0.4,1.9c0,0.7-0.1,1.3-0.3,1.9
				c-0.2,0.6-0.5,1.1-0.8,1.7c-0.3,0.5-0.7,1-1.2,1.5c-0.4,0.5-0.9,0.9-1.3,1.4l-5.5,5.7h9.3v1.3h-11V791.2z"/>
			<path class="st8" d="M77.3,784.1c0-0.6,0-1.3,0.1-2s0.2-1.4,0.3-2.1c0.2-0.7,0.4-1.3,0.6-1.9c0.3-0.6,0.6-1.1,1.1-1.6
				s1-0.8,1.6-1.1c0.6-0.3,1.3-0.4,2.2-0.4c0.8,0,1.6,0.1,2.2,0.4c0.6,0.3,1.1,0.6,1.6,1.1s0.8,1,1.1,1.6c0.3,0.6,0.5,1.2,0.7,1.9
				c0.2,0.7,0.3,1.4,0.3,2.1c0.1,0.7,0.1,1.4,0.1,2c0,0.6,0,1.3-0.1,2c-0.1,0.7-0.2,1.4-0.3,2.1c-0.2,0.7-0.4,1.3-0.7,1.9
				c-0.3,0.6-0.6,1.1-1.1,1.6s-1,0.8-1.6,1.1c-0.6,0.3-1.3,0.4-2.2,0.4c-0.8,0-1.6-0.1-2.2-0.4c-0.6-0.3-1.1-0.6-1.6-1.1
				s-0.8-1-1.1-1.6c-0.3-0.6-0.5-1.2-0.6-1.9c-0.2-0.7-0.3-1.4-0.3-2.1S77.3,784.7,77.3,784.1z M79,784.1c0,0.5,0,1,0,1.5
				s0.1,1.1,0.2,1.7s0.2,1.1,0.4,1.7s0.4,1,0.8,1.5c0.3,0.4,0.7,0.8,1.1,1c0.5,0.3,1,0.4,1.6,0.4c0.6,0,1.2-0.1,1.6-0.4
				c0.5-0.3,0.8-0.6,1.2-1c0.3-0.4,0.6-0.9,0.8-1.5c0.2-0.5,0.3-1.1,0.4-1.7c0.1-0.6,0.2-1.1,0.2-1.7s0.1-1.1,0.1-1.5
				c0-0.5,0-1-0.1-1.5s-0.1-1.1-0.2-1.7c-0.1-0.6-0.2-1.1-0.4-1.7c-0.2-0.5-0.4-1-0.8-1.5c-0.3-0.4-0.7-0.8-1.2-1
				c-0.5-0.3-1-0.4-1.6-0.4c-0.6,0-1.2,0.1-1.6,0.4c-0.5,0.3-0.8,0.6-1.2,1s-0.6,0.9-0.8,1.5c-0.2,0.6-0.3,1.1-0.4,1.7
				c-0.1,0.6-0.2,1.1-0.2,1.7S79,783.6,79,784.1z"/>
			<path class="st8" d="M90.6,779.2c0-0.6,0.1-1.2,0.3-1.7c0.2-0.5,0.5-1,0.9-1.4s0.8-0.7,1.4-0.9c0.5-0.2,1.1-0.3,1.7-0.3
				c0.6,0,1.2,0.1,1.7,0.3c0.5,0.2,1,0.5,1.4,0.9s0.7,0.8,0.9,1.4c0.2,0.5,0.3,1.1,0.3,1.7c0,0.6-0.1,1.2-0.3,1.7
				c-0.2,0.5-0.5,1-0.9,1.4s-0.8,0.7-1.4,0.9c-0.5,0.2-1.1,0.3-1.7,0.3c-0.6,0-1.2-0.1-1.7-0.3c-0.5-0.2-1-0.5-1.4-0.9
				s-0.7-0.8-0.9-1.4C90.7,780.4,90.6,779.8,90.6,779.2z M92,779.2c0,0.4,0.1,0.8,0.2,1.2s0.4,0.7,0.6,0.9s0.6,0.5,0.9,0.6
				c0.4,0.1,0.7,0.2,1.1,0.2c0.4,0,0.8-0.1,1.1-0.2c0.4-0.2,0.7-0.4,0.9-0.6c0.3-0.3,0.5-0.6,0.6-0.9s0.2-0.7,0.2-1.2
				c0-0.4-0.1-0.8-0.2-1.2s-0.4-0.7-0.6-0.9c-0.3-0.3-0.6-0.5-0.9-0.6c-0.4-0.2-0.7-0.2-1.1-0.2c-0.4,0-0.8,0.1-1.1,0.2
				c-0.4,0.1-0.7,0.4-0.9,0.6s-0.5,0.6-0.6,0.9S92,778.8,92,779.2z M105,774.4l1.2,0.7l-11.4,18.7l-1.1-0.7L105,774.4z M100.5,788.9
				c0-0.6,0.1-1.2,0.3-1.7c0.2-0.5,0.5-1,0.9-1.4s0.8-0.7,1.4-0.9c0.5-0.2,1.1-0.3,1.7-0.3c0.6,0,1.2,0.1,1.7,0.3
				c0.5,0.2,1,0.5,1.4,0.9s0.7,0.8,0.9,1.4c0.2,0.5,0.3,1.1,0.3,1.7s-0.1,1.2-0.3,1.7c-0.2,0.5-0.5,1-0.9,1.4
				c-0.4,0.4-0.8,0.7-1.4,0.9c-0.5,0.2-1.1,0.3-1.7,0.3c-0.6,0-1.2-0.1-1.7-0.3c-0.5-0.2-1-0.5-1.4-0.9c-0.4-0.4-0.7-0.8-0.9-1.4
				C100.6,790.1,100.5,789.5,100.5,788.9z M101.8,788.9c0,0.4,0.1,0.8,0.2,1.2c0.2,0.4,0.4,0.7,0.6,0.9c0.3,0.3,0.6,0.5,0.9,0.6
				c0.4,0.2,0.7,0.2,1.1,0.2c0.4,0,0.8-0.1,1.1-0.2c0.4-0.1,0.7-0.4,0.9-0.6c0.3-0.3,0.5-0.6,0.6-0.9c0.2-0.4,0.2-0.7,0.2-1.2
				c0-0.4-0.1-0.8-0.2-1.2s-0.4-0.7-0.6-0.9c-0.3-0.3-0.6-0.5-0.9-0.6c-0.4-0.2-0.7-0.2-1.1-0.2c-0.4,0-0.8,0.1-1.1,0.2
				c-0.4,0.1-0.7,0.4-0.9,0.6s-0.5,0.6-0.6,0.9S101.8,788.5,101.8,788.9z"/>
		</g>
		<g class="st7">
			<path class="st8" d="M72.8,984.1c0-0.6,0-1.3,0.1-2s0.2-1.4,0.3-2.1s0.4-1.3,0.7-1.9c0.3-0.6,0.6-1.1,1.1-1.6
				c0.4-0.5,1-0.8,1.6-1.1c0.6-0.3,1.3-0.4,2.2-0.4s1.6,0.1,2.2,0.4c0.6,0.3,1.1,0.6,1.6,1.1c0.4,0.5,0.8,1,1.1,1.6
				c0.3,0.6,0.5,1.2,0.6,1.9s0.3,1.4,0.3,2.1s0.1,1.4,0.1,2c0,0.6,0,1.3-0.1,2s-0.2,1.4-0.3,2.1s-0.4,1.3-0.6,1.9
				c-0.3,0.6-0.6,1.1-1.1,1.6c-0.4,0.5-1,0.8-1.6,1.1c-0.6,0.3-1.3,0.4-2.2,0.4s-1.6-0.1-2.2-0.4c-0.6-0.3-1.1-0.6-1.6-1.1
				c-0.4-0.5-0.8-1-1.1-1.6c-0.3-0.6-0.5-1.2-0.7-1.9s-0.3-1.4-0.3-2.1S72.8,984.7,72.8,984.1z M74.5,984.1c0,0.5,0,1,0.1,1.5
				c0,0.6,0.1,1.1,0.2,1.7c0.1,0.6,0.2,1.1,0.4,1.7s0.4,1,0.8,1.5c0.3,0.4,0.7,0.8,1.1,1c0.5,0.3,1,0.4,1.6,0.4
				c0.6,0,1.2-0.1,1.6-0.4c0.5-0.3,0.8-0.6,1.2-1c0.3-0.4,0.6-0.9,0.8-1.5s0.3-1.1,0.4-1.7s0.2-1.1,0.2-1.7c0-0.6,0-1.1,0-1.5
				c0-0.5,0-1,0-1.5c0-0.6-0.1-1.1-0.2-1.7c-0.1-0.6-0.2-1.1-0.4-1.7c-0.2-0.5-0.4-1-0.8-1.5s-0.7-0.8-1.2-1c-0.5-0.3-1-0.4-1.6-0.4
				s-1.2,0.1-1.6,0.4c-0.5,0.3-0.8,0.6-1.2,1s-0.6,0.9-0.8,1.5c-0.2,0.6-0.3,1.1-0.4,1.7c-0.1,0.6-0.2,1.1-0.2,1.7
				C74.5,983.1,74.5,983.6,74.5,984.1z"/>
			<path class="st8" d="M86.1,979.2c0-0.6,0.1-1.2,0.3-1.7c0.2-0.5,0.5-1,0.9-1.4s0.8-0.7,1.4-0.9c0.5-0.2,1.1-0.3,1.7-0.3
				c0.6,0,1.2,0.1,1.7,0.3c0.5,0.2,1,0.5,1.4,0.9s0.7,0.8,0.9,1.4c0.2,0.5,0.3,1.1,0.3,1.7c0,0.6-0.1,1.2-0.3,1.7
				c-0.2,0.5-0.5,1-0.9,1.4s-0.8,0.7-1.4,0.9c-0.5,0.2-1.1,0.3-1.7,0.3c-0.6,0-1.2-0.1-1.7-0.3c-0.5-0.2-1-0.5-1.4-0.9
				s-0.7-0.8-0.9-1.4C86.2,980.4,86.1,979.8,86.1,979.2z M87.5,979.2c0,0.4,0.1,0.8,0.2,1.2s0.4,0.7,0.6,0.9s0.6,0.5,0.9,0.6
				c0.4,0.1,0.7,0.2,1.1,0.2c0.4,0,0.8-0.1,1.1-0.2c0.4-0.2,0.7-0.4,0.9-0.6c0.3-0.3,0.5-0.6,0.6-0.9s0.2-0.7,0.2-1.2
				c0-0.4-0.1-0.8-0.2-1.2s-0.4-0.7-0.6-0.9c-0.3-0.3-0.6-0.5-0.9-0.6c-0.4-0.2-0.7-0.2-1.1-0.2c-0.4,0-0.8,0.1-1.1,0.2
				c-0.4,0.1-0.7,0.4-0.9,0.6s-0.5,0.6-0.6,0.9S87.5,978.8,87.5,979.2z M100.5,974.4l1.2,0.7l-11.4,18.7l-1.1-0.7L100.5,974.4z
				 M96,988.9c0-0.6,0.1-1.2,0.3-1.7c0.2-0.5,0.5-1,0.9-1.4s0.8-0.7,1.4-0.9c0.5-0.2,1.1-0.3,1.7-0.3c0.6,0,1.2,0.1,1.7,0.3
				c0.5,0.2,1,0.5,1.4,0.9s0.7,0.8,0.9,1.4c0.2,0.5,0.3,1.1,0.3,1.7s-0.1,1.2-0.3,1.7c-0.2,0.5-0.5,1-0.9,1.4
				c-0.4,0.4-0.8,0.7-1.4,0.9c-0.5,0.2-1.1,0.3-1.7,0.3c-0.6,0-1.2-0.1-1.7-0.3c-0.5-0.2-1-0.5-1.4-0.9c-0.4-0.4-0.7-0.8-0.9-1.4
				C96.1,990.1,96,989.5,96,988.9z M97.3,988.9c0,0.4,0.1,0.8,0.2,1.2c0.2,0.4,0.4,0.7,0.6,0.9c0.3,0.3,0.6,0.5,0.9,0.6
				c0.4,0.2,0.7,0.2,1.1,0.2c0.4,0,0.8-0.1,1.1-0.2c0.4-0.1,0.7-0.4,0.9-0.6c0.3-0.3,0.5-0.6,0.6-0.9c0.2-0.4,0.2-0.7,0.2-1.2
				c0-0.4-0.1-0.8-0.2-1.2s-0.4-0.7-0.6-0.9c-0.3-0.3-0.6-0.5-0.9-0.6c-0.4-0.2-0.7-0.2-1.1-0.2c-0.4,0-0.8,0.1-1.1,0.2
				c-0.4,0.1-0.7,0.4-0.9,0.6s-0.5,0.6-0.6,0.9S97.3,988.5,97.3,988.9z"/>
		</g>
	</g>
</g>
</svg>
