<svg fill="none" height="208" viewBox="0 0 208 208" width="208" xmlns="http://www.w3.org/2000/svg"><rect fill="#ec8539" height="208" rx="20" width="208"/><path d="m139.311 68.6876c-5.238-5.2859-11.597-9.3275-18.607-11.8264-7.01-2.4988-14.492-3.3912-21.8928-2.6111-22.9375 2.3125-41.8125 20.9375-44.375 43.875-3.4375 30.3129 20 55.8749 49.5628 55.8749 9.438 0 18.682-2.678 26.659-7.723s14.358-12.249 18.403-20.777c2-4.187-1-9-5.625-9-2.312 0-4.5 1.25-5.5 3.313-3.628 7.806-9.835 14.124-17.575 17.892-7.741 3.768-16.542 4.755-24.9248 2.795-13.875-3.062-25.0625-14.375-28-28.25-1.2348-5.486-1.2205-11.179.0419-16.6587 1.2623-5.4796 3.7404-10.6053 7.2509-14.998 3.5106-4.3927 7.9638-7.9399 13.0302-10.3794 5.0664-2.4394 10.6164-3.7087 16.2398-3.7138 10.375 0 19.625 4.3125 26.375 11.125l-9.438 9.4375c-3.937 3.9375-1.187 10.6875 4.375 10.6875h22.438c3.437 0 6.25-2.8125 6.25-6.25v-22.4375c0-5.5625-6.75-8.375-10.688-4.4375z" fill="#fbfbfb"/></svg>