<svg fill="none" height="211" viewBox="0 0 211 211" width="211" xmlns="http://www.w3.org/2000/svg"><path d="m191 0h-171c-11.0457 0-20 8.9543-20 20v171c0 11.046 8.9543 20 20 20h171c11.046 0 20-8.954 20-20v-171c0-11.0457-8.954-20-20-20z" fill="#034ea2"/><path d="m87.25 161.25c0 3.438 2.8125 6.25 6.25 6.25h25c3.438 0 6.25-2.812 6.25-6.25v-6.25h-37.5zm18.75-118.75c-24.125 0-43.75 19.625-43.75 43.75 0 14.875 7.4375 27.938 18.75 35.875v14.125c0 3.438 2.8125 6.25 6.25 6.25h37.5c3.438 0 6.25-2.812 6.25-6.25v-14.125c11.313-7.937 18.75-21 18.75-35.875 0-24.125-19.625-43.75-43.75-43.75zm17.813 69.375-5.313 3.75v14.375h-25v-14.375l-5.3125-3.75c-4.1407-2.871-7.5254-6.7-9.8653-11.162-2.3399-4.4626-3.5655-9.4246-3.5722-14.463 0-17.25 14-31.25 31.25-31.25s31.25 14 31.25 31.25c0 10.1875-5 19.75-13.437 25.625z" fill="#fbfbfb"/></svg>