<svg fill="none" height="215" viewBox="0 0 215 215" width="215" xmlns="http://www.w3.org/2000/svg"><path d="m195 0h-175c-11.0457 0-20 8.9543-20 20v175c0 11.046 8.9543 20 20 20h175c11.046 0 20-8.954 20-20v-175c0-11.0457-8.954-20-20-20z" fill="#034ea2"/><g fill="#fbfbfb"><path d="m164.25 44.5h-112.4995c-6.875 0-12.5 5.625-12.5 12.5v75c0 6.875 5.625 12.5 12.5 12.5h43.75l-12.5 18.75v6.25h49.9995v-6.25l-12.5-18.75h43.75c6.875 0 12.5-5.625 12.5-12.5v-75c0-6.875-5.625-12.5-12.5-12.5zm0 75h-112.4995v-62.5h112.4995z"/><path d="m66.625 79.4167h27.9583v5.0833h-27.9583zm0-5.0834h27.9583v-5.0833h-27.9583zm0 20.3334h17.7917v-5.0834h-17.7917zm38.15-7.9555 1.805-1.8045c.235-.2357.514-.4226.822-.5501.307-.1276.637-.1932.97-.1932s.662.0656.97.1932c.307.1275.587.3144.822.5501l1.804 1.8045c.992.9913.992 2.5925 0 3.5838l-1.804 1.8046zm-1.804 1.8046-13.471 13.4712v5.388h5.3883l13.4707-13.4708z"/><path d="m92.9568 69.0466h-24.8066c-1.4599 0-2.6434 1.1835-2.6434 2.6434 0 1.4598 1.1835 2.6433 2.6434 2.6433h24.8066c1.4599 0 2.6433-1.1835 2.6433-2.6433 0-1.4599-1.1834-2.6434-2.6433-2.6434z"/><path d="m92.9568 79.2134h-24.8066c-1.4599 0-2.6434 1.1834-2.6434 2.6433s1.1835 2.6433 2.6434 2.6433h24.8066c1.4599 0 2.6433-1.1834 2.6433-2.6433s-1.1834-2.6433-2.6433-2.6433z"/><path d="m82.7902 89.3799h-14.64c-1.4599 0-2.6434 1.1835-2.6434 2.6433 0 1.4599 1.1835 2.6434 2.6434 2.6434h14.64c1.4599 0 2.6433-1.1835 2.6433-2.6434 0-1.4598-1.1834-2.6433-2.6433-2.6433z"/></g></svg>