<svg xmlns="http://www.w3.org/2000/svg" viewBox="0 0 1288.47 1288.46"><defs><style>.cls-1{fill:#1d4e9b;}.cls-2,.cls-3{fill:none;}.cls-2{stroke:#1d4e9b;stroke-linecap:round;stroke-linejoin:round;stroke-width:25px;}.cls-4{font-size:100px;fill:#fff;font-family:FreightSansProBold-Regular;}.cls-5{letter-spacing:-0.02em;}.cls-6{letter-spacing:-0.01em;}</style></defs><g id="Layer_2" data-name="Layer 2"><g id="Layer_1-2" data-name="Layer 1"><circle class="cls-1" cx="637.98" cy="650.48" r="481.25"/><path class="cls-2" d="M638,12.5c283.53,0,523.86,185,606.93,440.78"/><path class="cls-2" d="M1244.91,453.28A637.61,637.61,0,0,1,1276,650.48c0,212.19-103.6,400.19-263,516.17"/><path class="cls-3" d="M1013,1166.65a638.2,638.2,0,0,1-750,0"/><path class="cls-3" d="M263,1166.65c-159.37-116-263-304-263-516.17a637.61,637.61,0,0,1,31.06-197.2"/><text class="cls-4" transform="translate(377.84 678.62)">2. <tspan class="cls-5" x="100.6" y="0">R</tspan><tspan x="160.7" y="0">esea</tspan><tspan class="cls-6" x="361.39" y="0">r</tspan><tspan x="400.49" y="0">ch</tspan></text></g></g></svg>