<svg fill="none" height="215" viewBox="0 0 215 215" width="215" xmlns="http://www.w3.org/2000/svg"><rect fill="#034ea2" height="215" rx="20" width="215"/><g fill="#fbfbfb"><path d="m83.7106 44.0147c1.5609-6.8792 7.7131-12.0147 15.0647-12.0147h10.2987c7.351 0 13.503 5.1355 15.064 12.0147h20.98c7.583 0 13.731 6.1477 13.731 13.7311v109.8492c0 7.583-6.148 13.731-13.731 13.731h-82.3869c-7.5835 0-13.7311-6.148-13.7311-13.731v-109.8492c0-7.5834 6.1476-13.7311 13.7311-13.7311zm-.3828 13.7311h-20.5967v109.8492h82.3869v-109.8492h-20.597v12.0148h-41.1932zm30.8952 1.7164v-12.0147c0-2.8438-2.306-5.1492-5.149-5.1492h-10.2987c-2.8438 0-5.1492 2.3054-5.1492 5.1492v12.0147z"/><path clip-rule="evenodd" d="m73.0293 78.3425h37.7607v10.2983h-37.7607z" fill-rule="evenodd"/><path clip-rule="evenodd" d="m73.0293 98.9392h54.9247v10.2988h-54.9247z" fill-rule="evenodd"/><path clip-rule="evenodd" d="m73.0293 119.536h54.9247v10.298h-54.9247z" fill-rule="evenodd"/><path clip-rule="evenodd" d="m73.0293 140.132h54.9247v10.299h-54.9247z" fill-rule="evenodd"/></g></svg>