<?xml version="1.0" encoding="UTF-8"?>
<svg data-bbox="1.562 11.65 96.863 76.625" viewBox="0 0 100 125" xmlns="http://www.w3.org/2000/svg" data-type="shape">
    <g>
        <path d="M64.4 47.9c1.8-1.1 4.8-1.1 6.7 0 1.9 1.1 1.9 2.8 0 3.9-1.8 1.1-4.8 1.1-6.7 0-1.9-1.1-1.9-2.9 0-3.9zM29.1 31.4c1.9 1.1 4.9 1.1 6.7 0s1.8-2.8 0-3.9c-1.9-1.1-4.9-1.1-6.7 0-1.9 1.1-1.8 2.8 0 3.9zM4 29.4L32.3 13c3-1.8 8-1.8 11 0l52.8 30.5c3.1 1.8 3.1 4.6 0 6.4L67.9 66.3c-3 1.8-8 1.8-11 0L4 35.8c-3-1.8-3-4.6 0-6.4zm11.5 6.4c-.4.2-.7.4-1.1.5l41 23.7c.2-.1.4-.3.6-.4 3.1-1.8 8.1-1.8 11.2 0 .5.3.9.6 1.2.9l17.1-9.9c-.6-.2-1.1-.4-1.6-.7-3.1-1.8-3.1-4.7 0-6.5.5-.3 1-.5 1.5-.7L44.3 19c-.3.2-.6.4-.9.7-3.1 1.8-8.1 1.8-11.2 0l-.9-.6-16.9 9.8c.4.2.7.3 1.1.5 3.1 1.7 3.1 4.6 0 6.4zM2.6 44.7l55.3 31.9.8.5 1.1.6c1.6.9 4.1.9 5.6 0l31.7-18.4c1.3-.8 1.3-2 0-2.7-1.3-.8-3.4-.7-4.7 0L62.6 73.9 7.4 42c-1.3-.7-3.4-.8-4.7-.2-1.5.8-1.5 2.1-.1 2.9zm94.6 21.8c-1.3-.8-3.4-.8-4.7 0L62.6 83.9 7.4 52c-1.3-.7-3.4-.9-4.7-.2-1.4.7-1.5 2-.1 2.8l55.3 31.9.8.5 1.1.6c1.6.9 4.1.9 5.6 0l31.7-18.4c1.4-.7 1.4-1.9.1-2.7zM38 32.6c6.6-3.9 17.5-3.9 24.2 0s6.7 10.1.1 14-17.5 3.9-24.2 0c-6.8-3.8-6.8-10.1-.1-14zm13.7 5l-3.2-1.8c-.9.4-1.9.8-2.8 1.3-.9.5-1.7 1.1-2.3 1.6l3.2 1.8 5.1-2.9zm-3.2 4l3.2 1.8c.9-.4 1.9-.8 2.8-1.3.9-.5 1.7-1.1 2.3-1.6l-3.2-1.8-5.1 2.9zm-6.4-1.5c-1.3 1.6-1.5 3-1.5 4l4.2-2.5-2.7-1.5zm.3 5c1.8 0 4.3-.2 7-.9l-2.7-1.6-4.3 2.5zm11.3 1.6l-2.4-1.4c-2.1.6-4.1 1-5.8 1.1 2.5.7 5.5.8 8.2.3zm7.6-3.6l-2.7-1.6c-.7.5-1.4 1.1-2.3 1.6-.9.5-1.8 1-2.8 1.4l2.7 1.6c1.1-.3 2-.7 2.9-1.3.9-.5 1.6-1 2.2-1.7zM60 40.3l2.4 1.4c.8-1.6.6-3.2-.4-4.8-.4 1-.9 2.2-2 3.4zm-.4-5.1l-4.2 2.5 2.7 1.6c1.2-1.7 1.5-3.1 1.5-4.1zm-1.8-1.1c-1.8 0-4.3.2-7 .9l2.7 1.6 4.3-2.5zm-11.3-1.6l2.4 1.4c2.1-.6 4.1-1 5.8-1.1-2.6-.6-5.5-.7-8.2-.3zm-7.6 3.6l2.7 1.6c.7-.5 1.4-1.1 2.3-1.6.9-.5 1.8-1 2.8-1.4L44 33.1c-1 .3-2 .8-2.9 1.3-.9.5-1.7 1.1-2.2 1.7zm-.6 6.2c.3-1 .9-2.2 2-3.4l-2.4-1.4c-.8 1.6-.7 3.3.4 4.8z"/>
    </g>
</svg>
