<?xml version="1.0" encoding="UTF-8"?>
<svg data-bbox="1 1 48 48" viewBox="0 0 50 62.5" xmlns="http://www.w3.org/2000/svg" data-type="shape">
    <g>
        <path d="M16.4 26.8l2.7-4.4c-.6-.3-1.1-.7-1.7-1.1l-3.1 4.9c.8.2 1.4.4 2.1.6z"/>
        <path d="M30.9 22.4l2.7 4.4c.6-.3 1.3-.5 2-.6l-3.1-4.9c-.4.4-1 .8-1.6 1.1z"/>
        <path d="M23.9 36.6c.1.5.1.9.1 1.4v.6h2V38c0-.5 0-.9.1-1.4h-2.2z"/>
        <path d="M38 27c-6.1 0-11 4.9-11 11s4.9 11 11 11 11-4.9 11-11-4.9-11-11-11zm5.9 15.6H33.1c-1.9 0-3.5-1.6-3.5-3.5 0-1.8 1.4-3.3 3.1-3.5-.5-4.1 4.8-5.9 7-2.6 2.8-.9 5.2 1.9 4.2 4.5 1.4 0 2.5 1.1 2.5 2.5 0 1.5-1.1 2.6-2.5 2.6z"/>
        <path d="M38.4 34.6c-.1-.1-.1-.1-.2-.1-.1-.1-.3-.1-.5 0-.1 0-.1.1-.2.1l-2 2c-.2.2-.2.6 0 .9.2.2.6.2.9 0l.9-.9v4.1c0 .3.3.6.6.6s.6-.3.6-.6v-4.1l.9.9c.2.2.6.2.9 0 .2-.2.2-.6 0-.9l-1.9-2z"/>
        <path d="M25 23c6.1 0 11-4.9 11-11S31.1 1 25 1 14 5.9 14 12s4.9 11 11 11zM22.2 4.3c-.2-.1-.3-.8-.3-.8.8.3 2.6-.4 2.6-.4 2.7-.8 3.4 1.2 3.4 1.2 2.8 1.2.9 4.1.8 4.3-.2 1.1-.8 2.3-1.5 3.1v1.4l1.1.5c-.5.9-1.8 1.6-3.2 1.6-1.4 0-2.7-.7-3.2-1.6l1.1-.5v-1.4c-.8-.8-1.3-2-1.5-3.1-1.8-3.2.7-4.3.7-4.3zM20.9 14c.1.1 1.1 2.2 4.1 2.2 2.9 0 4-2.1 4.1-2.2 1.8 1 3.3 1 3.8 2.6-1.8 2.5-4.7 4.1-7.9 4.1-3.3 0-6.2-1.6-8-4.1.6-1.6 2.1-1.6 3.9-2.6z"/>
        <path d="M12 27C5.9 27 1 31.9 1 38s4.9 11 11 11 11-4.9 11-11-4.9-11-11-11zm8 12.6l-1.9.3c-.1.4-.3.7-.4 1l1.1 1.6-2.2 2.3-1.6-1.1c-.3.2-.6.3-1 .4l-.4 1.9h-3.2l-.3-1.9c-.3-.1-.7-.3-1-.4l-1.6 1.1-2.2-2.3 1.1-1.6c-.2-.3-.3-.6-.4-1l-2-.3v-3.2l1.9-.3c.1-.3.3-.7.4-1l-1.1-1.6 2.2-2.2L9 32.4c.3-.2.6-.3 1-.4l.3-1.9h3.2l.4 1.9c.3.1.7.2 1 .4l1.6-1.1 2.2 2.2-1.1 1.6c.2.3.3.7.4 1l1.9.3v3.2h.1z"/>
        <path d="M12 34.6c-1.9 0-3.4 1.5-3.4 3.4s1.5 3.4 3.4 3.4 3.4-1.5 3.4-3.4-1.5-3.4-3.4-3.4z"/>
    </g>
</svg>
