<svg width="879" height="123" viewBox="0 0 879 123" fill="none" xmlns="http://www.w3.org/2000/svg">
<path d="M17.09 112.925H14.78L14.24 116H13.28L13.82 112.925H11.9V112.025H13.97L14.39 109.505H12.485V108.605H14.555L15.08 105.53H16.04L15.515 108.605H17.825L18.35 105.53H19.31L18.785 108.605H20.705V109.505H18.62L18.2 112.025H20.12V112.925H18.05L17.51 116H16.55L17.09 112.925ZM17.24 112.025L17.66 109.505H15.35L14.93 112.025H17.24ZM23.0884 116V105.53H29.4784V106.64H24.3484V110.15H29.1784V111.26H24.3484V114.89H29.4784V116H23.0884ZM37.9085 106.64H33.3185L33.0185 110.63H33.1235C33.3735 110.28 33.6535 110 33.9635 109.79C34.2835 109.58 34.7185 109.475 35.2685 109.475C35.7185 109.475 36.1335 109.55 36.5135 109.7C36.8935 109.85 37.2235 110.065 37.5035 110.345C37.7835 110.615 37.9985 110.95 38.1485 111.35C38.3085 111.75 38.3885 112.205 38.3885 112.715C38.3885 113.225 38.3085 113.695 38.1485 114.125C37.9885 114.545 37.7535 114.91 37.4435 115.22C37.1435 115.52 36.7735 115.755 36.3335 115.925C35.9035 116.095 35.4135 116.18 34.8635 116.18C34.4235 116.18 34.0335 116.13 33.6935 116.03C33.3635 115.93 33.0685 115.795 32.8085 115.625C32.5485 115.455 32.3185 115.265 32.1185 115.055C31.9285 114.845 31.7535 114.625 31.5935 114.395L32.5385 113.675C32.6685 113.885 32.8035 114.075 32.9435 114.245C33.0935 114.415 33.2535 114.56 33.4235 114.68C33.6035 114.8 33.8085 114.895 34.0385 114.965C34.2685 115.025 34.5435 115.055 34.8635 115.055C35.5835 115.055 36.1285 114.865 36.4985 114.485C36.8685 114.105 37.0535 113.57 37.0535 112.88V112.73C37.0535 112.04 36.8685 111.505 36.4985 111.125C36.1285 110.745 35.5835 110.555 34.8635 110.555C34.3835 110.555 34.0035 110.645 33.7235 110.825C33.4535 110.995 33.2085 111.2 32.9885 111.44L31.9235 111.29L32.2985 105.53H37.9085V106.64ZM43.3476 109.97C44.0576 109.97 44.5876 109.81 44.9376 109.49C45.2976 109.16 45.4776 108.74 45.4776 108.23V108.125C45.4776 107.575 45.3026 107.165 44.9526 106.895C44.6126 106.615 44.1626 106.475 43.6026 106.475C43.0626 106.475 42.6226 106.595 42.2826 106.835C41.9426 107.065 41.6626 107.38 41.4426 107.78L40.5126 107.06C40.6426 106.85 40.7976 106.645 40.9776 106.445C41.1676 106.235 41.3876 106.05 41.6376 105.89C41.8876 105.73 42.1776 105.6 42.5076 105.5C42.8376 105.4 43.2126 105.35 43.6326 105.35C44.0726 105.35 44.4876 105.41 44.8776 105.53C45.2676 105.64 45.6026 105.81 45.8826 106.04C46.1726 106.26 46.3976 106.535 46.5576 106.865C46.7276 107.195 46.8126 107.57 46.8126 107.99C46.8126 108.33 46.7576 108.635 46.6476 108.905C46.5476 109.175 46.4076 109.41 46.2276 109.61C46.0476 109.81 45.8326 109.98 45.5826 110.12C45.3426 110.26 45.0826 110.365 44.8026 110.435V110.495C45.0826 110.555 45.3526 110.655 45.6126 110.795C45.8826 110.925 46.1176 111.1 46.3176 111.32C46.5276 111.53 46.6926 111.79 46.8126 112.1C46.9426 112.4 47.0076 112.745 47.0076 113.135C47.0076 113.585 46.9226 114 46.7526 114.38C46.5826 114.75 46.3426 115.07 46.0326 115.34C45.7226 115.6 45.3476 115.805 44.9076 115.955C44.4676 116.105 43.9826 116.18 43.4526 116.18C43.0026 116.18 42.6026 116.13 42.2526 116.03C41.9026 115.93 41.5926 115.795 41.3226 115.625C41.0526 115.455 40.8126 115.265 40.6026 115.055C40.4026 114.845 40.2226 114.625 40.0626 114.395L41.0076 113.675C41.1376 113.885 41.2776 114.075 41.4276 114.245C41.5876 114.415 41.7626 114.56 41.9526 114.68C42.1426 114.8 42.3576 114.895 42.5976 114.965C42.8376 115.025 43.1176 115.055 43.4376 115.055C44.1776 115.055 44.7376 114.89 45.1176 114.56C45.4976 114.22 45.6876 113.74 45.6876 113.12V113C45.6876 112.38 45.4976 111.905 45.1176 111.575C44.7376 111.235 44.1776 111.065 43.4376 111.065H42.2076V109.97H43.3476ZM49.8218 105.53H54.1268C54.9968 105.53 55.6768 105.775 56.1668 106.265C56.6668 106.755 56.9168 107.41 56.9168 108.23C56.9168 108.62 56.8618 108.95 56.7518 109.22C56.6418 109.49 56.5018 109.715 56.3318 109.895C56.1618 110.065 55.9768 110.195 55.7768 110.285C55.5768 110.365 55.3918 110.42 55.2218 110.45V110.54C55.4118 110.55 55.6218 110.6 55.8518 110.69C56.0918 110.78 56.3168 110.925 56.5268 111.125C56.7368 111.315 56.9118 111.565 57.0518 111.875C57.2018 112.175 57.2768 112.54 57.2768 112.97C57.2768 113.4 57.2068 113.8 57.0668 114.17C56.9368 114.54 56.7518 114.86 56.5118 115.13C56.2718 115.4 55.9868 115.615 55.6568 115.775C55.3268 115.925 54.9668 116 54.5768 116H49.8218V105.53ZM51.0818 114.89H54.1868C54.7268 114.89 55.1518 114.755 55.4618 114.485C55.7718 114.205 55.9268 113.8 55.9268 113.27V112.76C55.9268 112.23 55.7718 111.83 55.4618 111.56C55.1518 111.28 54.7268 111.14 54.1868 111.14H51.0818V114.89ZM51.0818 110.06H53.9768C54.4768 110.06 54.8668 109.935 55.1468 109.685C55.4268 109.435 55.5668 109.075 55.5668 108.605V108.095C55.5668 107.625 55.4268 107.265 55.1468 107.015C54.8668 106.765 54.4768 106.64 53.9768 106.64H51.0818V110.06ZM66.2216 116H59.3516V114.71L62.7716 111.56C63.2616 111.11 63.6716 110.635 64.0016 110.135C64.3316 109.625 64.4966 109.115 64.4966 108.605V108.425C64.4966 107.845 64.3366 107.375 64.0166 107.015C63.6966 106.655 63.2116 106.475 62.5616 106.475C62.2416 106.475 61.9616 106.52 61.7216 106.61C61.4816 106.7 61.2716 106.825 61.0916 106.985C60.9216 107.145 60.7766 107.335 60.6566 107.555C60.5466 107.765 60.4566 107.995 60.3866 108.245L59.2616 107.81C59.3616 107.5 59.4966 107.2 59.6666 106.91C59.8466 106.61 60.0666 106.345 60.3266 106.115C60.5966 105.885 60.9166 105.7 61.2866 105.56C61.6666 105.42 62.1116 105.35 62.6216 105.35C63.1316 105.35 63.5866 105.425 63.9866 105.575C64.3866 105.725 64.7216 105.935 64.9916 106.205C65.2616 106.475 65.4666 106.795 65.6066 107.165C65.7566 107.535 65.8316 107.945 65.8316 108.395C65.8316 108.805 65.7716 109.185 65.6516 109.535C65.5416 109.885 65.3866 110.22 65.1866 110.54C64.9866 110.85 64.7416 111.155 64.4516 111.455C64.1716 111.755 63.8666 112.055 63.5366 112.355L60.7166 114.89H66.2216V116ZM74.6907 106.64H70.1007L69.8007 110.63H69.9057C70.1557 110.28 70.4357 110 70.7457 109.79C71.0657 109.58 71.5007 109.475 72.0507 109.475C72.5007 109.475 72.9157 109.55 73.2957 109.7C73.6757 109.85 74.0057 110.065 74.2857 110.345C74.5657 110.615 74.7807 110.95 74.9307 111.35C75.0907 111.75 75.1707 112.205 75.1707 112.715C75.1707 113.225 75.0907 113.695 74.9307 114.125C74.7707 114.545 74.5357 114.91 74.2257 115.22C73.9257 115.52 73.5557 115.755 73.1157 115.925C72.6857 116.095 72.1957 116.18 71.6457 116.18C71.2057 116.18 70.8157 116.13 70.4757 116.03C70.1457 115.93 69.8507 115.795 69.5907 115.625C69.3307 115.455 69.1007 115.265 68.9007 115.055C68.7107 114.845 68.5357 114.625 68.3757 114.395L69.3207 113.675C69.4507 113.885 69.5857 114.075 69.7257 114.245C69.8757 114.415 70.0357 114.56 70.2057 114.68C70.3857 114.8 70.5907 114.895 70.8207 114.965C71.0507 115.025 71.3257 115.055 71.6457 115.055C72.3657 115.055 72.9107 114.865 73.2807 114.485C73.6507 114.105 73.8357 113.57 73.8357 112.88V112.73C73.8357 112.04 73.6507 111.505 73.2807 111.125C72.9107 110.745 72.3657 110.555 71.6457 110.555C71.1657 110.555 70.7857 110.645 70.5057 110.825C70.2357 110.995 69.9907 111.2 69.7707 111.44L68.7057 111.29L69.0807 105.53H74.6907V106.64Z" fill="white"/>
<rect width="88" height="88" rx="15" fill="#E53B25"/>
<path d="M808.09 112.925H805.78L805.24 116H804.28L804.82 112.925H802.9V112.025H804.97L805.39 109.505H803.485V108.605H805.555L806.08 105.53H807.04L806.515 108.605H808.825L809.35 105.53H810.31L809.785 108.605H811.705V109.505H809.62L809.2 112.025H811.12V112.925H809.05L808.51 116H807.55L808.09 112.925ZM808.24 112.025L808.66 109.505H806.35L805.93 112.025H808.24ZM817.193 116.18C815.943 116.18 815.028 115.705 814.448 114.755C813.878 113.805 813.593 112.475 813.593 110.765C813.593 109.055 813.878 107.725 814.448 106.775C815.028 105.825 815.943 105.35 817.193 105.35C818.443 105.35 819.353 105.825 819.923 106.775C820.503 107.725 820.793 109.055 820.793 110.765C820.793 112.475 820.503 113.805 819.923 114.755C819.353 115.705 818.443 116.18 817.193 116.18ZM817.193 115.085C817.603 115.085 817.953 115 818.243 114.83C818.533 114.66 818.768 114.42 818.948 114.11C819.128 113.8 819.258 113.435 819.338 113.015C819.428 112.595 819.473 112.13 819.473 111.62V109.91C819.473 109.4 819.428 108.935 819.338 108.515C819.258 108.095 819.128 107.73 818.948 107.42C818.768 107.11 818.533 106.87 818.243 106.7C817.953 106.53 817.603 106.445 817.193 106.445C816.783 106.445 816.433 106.53 816.143 106.7C815.853 106.87 815.618 107.11 815.438 107.42C815.258 107.73 815.123 108.095 815.033 108.515C814.953 108.935 814.913 109.4 814.913 109.91V111.62C814.913 112.13 814.953 112.595 815.033 113.015C815.123 113.435 815.258 113.8 815.438 114.11C815.618 114.42 815.853 114.66 816.143 114.83C816.433 115 816.783 115.085 817.193 115.085ZM826.188 116.18C824.938 116.18 824.023 115.705 823.443 114.755C822.873 113.805 822.588 112.475 822.588 110.765C822.588 109.055 822.873 107.725 823.443 106.775C824.023 105.825 824.938 105.35 826.188 105.35C827.438 105.35 828.348 105.825 828.918 106.775C829.498 107.725 829.788 109.055 829.788 110.765C829.788 112.475 829.498 113.805 828.918 114.755C828.348 115.705 827.438 116.18 826.188 116.18ZM826.188 115.085C826.598 115.085 826.948 115 827.238 114.83C827.528 114.66 827.763 114.42 827.943 114.11C828.123 113.8 828.253 113.435 828.333 113.015C828.423 112.595 828.468 112.13 828.468 111.62V109.91C828.468 109.4 828.423 108.935 828.333 108.515C828.253 108.095 828.123 107.73 827.943 107.42C827.763 107.11 827.528 106.87 827.238 106.7C826.948 106.53 826.598 106.445 826.188 106.445C825.778 106.445 825.428 106.53 825.138 106.7C824.848 106.87 824.613 107.11 824.433 107.42C824.253 107.73 824.118 108.095 824.028 108.515C823.948 108.935 823.908 109.4 823.908 109.91V111.62C823.908 112.13 823.948 112.595 824.028 113.015C824.118 113.435 824.253 113.8 824.433 114.11C824.613 114.42 824.848 114.66 825.138 114.83C825.428 115 825.778 115.085 826.188 115.085ZM835.182 116.18C833.932 116.18 833.017 115.705 832.437 114.755C831.867 113.805 831.582 112.475 831.582 110.765C831.582 109.055 831.867 107.725 832.437 106.775C833.017 105.825 833.932 105.35 835.182 105.35C836.432 105.35 837.342 105.825 837.912 106.775C838.492 107.725 838.782 109.055 838.782 110.765C838.782 112.475 838.492 113.805 837.912 114.755C837.342 115.705 836.432 116.18 835.182 116.18ZM835.182 115.085C835.592 115.085 835.942 115 836.232 114.83C836.522 114.66 836.757 114.42 836.937 114.11C837.117 113.8 837.247 113.435 837.327 113.015C837.417 112.595 837.462 112.13 837.462 111.62V109.91C837.462 109.4 837.417 108.935 837.327 108.515C837.247 108.095 837.117 107.73 836.937 107.42C836.757 107.11 836.522 106.87 836.232 106.7C835.942 106.53 835.592 106.445 835.182 106.445C834.772 106.445 834.422 106.53 834.132 106.7C833.842 106.87 833.607 107.11 833.427 107.42C833.247 107.73 833.112 108.095 833.022 108.515C832.942 108.935 832.902 109.4 832.902 109.91V111.62C832.902 112.13 832.942 112.595 833.022 113.015C833.112 113.435 833.247 113.8 833.427 114.11C833.607 114.42 833.842 114.66 834.132 114.83C834.422 115 834.772 115.085 835.182 115.085ZM844.176 116.18C842.926 116.18 842.011 115.705 841.431 114.755C840.861 113.805 840.576 112.475 840.576 110.765C840.576 109.055 840.861 107.725 841.431 106.775C842.011 105.825 842.926 105.35 844.176 105.35C845.426 105.35 846.336 105.825 846.906 106.775C847.486 107.725 847.776 109.055 847.776 110.765C847.776 112.475 847.486 113.805 846.906 114.755C846.336 115.705 845.426 116.18 844.176 116.18ZM844.176 115.085C844.586 115.085 844.936 115 845.226 114.83C845.516 114.66 845.751 114.42 845.931 114.11C846.111 113.8 846.241 113.435 846.321 113.015C846.411 112.595 846.456 112.13 846.456 111.62V109.91C846.456 109.4 846.411 108.935 846.321 108.515C846.241 108.095 846.111 107.73 845.931 107.42C845.751 107.11 845.516 106.87 845.226 106.7C844.936 106.53 844.586 106.445 844.176 106.445C843.766 106.445 843.416 106.53 843.126 106.7C842.836 106.87 842.601 107.11 842.421 107.42C842.241 107.73 842.106 108.095 842.016 108.515C841.936 108.935 841.896 109.4 841.896 109.91V111.62C841.896 112.13 841.936 112.595 842.016 113.015C842.106 113.435 842.241 113.8 842.421 114.11C842.601 114.42 842.836 114.66 843.126 114.83C843.416 115 843.766 115.085 844.176 115.085ZM853.17 116.18C851.92 116.18 851.005 115.705 850.425 114.755C849.855 113.805 849.57 112.475 849.57 110.765C849.57 109.055 849.855 107.725 850.425 106.775C851.005 105.825 851.92 105.35 853.17 105.35C854.42 105.35 855.33 105.825 855.9 106.775C856.48 107.725 856.77 109.055 856.77 110.765C856.77 112.475 856.48 113.805 855.9 114.755C855.33 115.705 854.42 116.18 853.17 116.18ZM853.17 115.085C853.58 115.085 853.93 115 854.22 114.83C854.51 114.66 854.745 114.42 854.925 114.11C855.105 113.8 855.235 113.435 855.315 113.015C855.405 112.595 855.45 112.13 855.45 111.62V109.91C855.45 109.4 855.405 108.935 855.315 108.515C855.235 108.095 855.105 107.73 854.925 107.42C854.745 107.11 854.51 106.87 854.22 106.7C853.93 106.53 853.58 106.445 853.17 106.445C852.76 106.445 852.41 106.53 852.12 106.7C851.83 106.87 851.595 107.11 851.415 107.42C851.235 107.73 851.1 108.095 851.01 108.515C850.93 108.935 850.89 109.4 850.89 109.91V111.62C850.89 112.13 850.93 112.595 851.01 113.015C851.1 113.435 851.235 113.8 851.415 114.11C851.595 114.42 851.83 114.66 852.12 114.83C852.41 115 852.76 115.085 853.17 115.085ZM862.164 116.18C860.914 116.18 859.999 115.705 859.419 114.755C858.849 113.805 858.564 112.475 858.564 110.765C858.564 109.055 858.849 107.725 859.419 106.775C859.999 105.825 860.914 105.35 862.164 105.35C863.414 105.35 864.324 105.825 864.894 106.775C865.474 107.725 865.764 109.055 865.764 110.765C865.764 112.475 865.474 113.805 864.894 114.755C864.324 115.705 863.414 116.18 862.164 116.18ZM862.164 115.085C862.574 115.085 862.924 115 863.214 114.83C863.504 114.66 863.739 114.42 863.919 114.11C864.099 113.8 864.229 113.435 864.309 113.015C864.399 112.595 864.444 112.13 864.444 111.62V109.91C864.444 109.4 864.399 108.935 864.309 108.515C864.229 108.095 864.099 107.73 863.919 107.42C863.739 107.11 863.504 106.87 863.214 106.7C862.924 106.53 862.574 106.445 862.164 106.445C861.754 106.445 861.404 106.53 861.114 106.7C860.824 106.87 860.589 107.11 860.409 107.42C860.229 107.73 860.094 108.095 860.004 108.515C859.924 108.935 859.884 109.4 859.884 109.91V111.62C859.884 112.13 859.924 112.595 860.004 113.015C860.094 113.435 860.229 113.8 860.409 114.11C860.589 114.42 860.824 114.66 861.114 114.83C861.404 115 861.754 115.085 862.164 115.085Z" fill="white"/>
<rect x="791" width="88" height="88" rx="15" fill="black"/>
<path d="M695.16 112.925H692.85L692.31 116H691.35L691.89 112.925H689.97V112.025H692.04L692.46 109.505H690.555V108.605H692.625L693.15 105.53H694.11L693.585 108.605H695.895L696.42 105.53H697.38L696.855 108.605H698.775V109.505H696.69L696.27 112.025H698.19V112.925H696.12L695.58 116H694.62L695.16 112.925ZM695.31 112.025L695.73 109.505H693.42L693 112.025H695.31ZM701.159 116V105.53H707.549V106.64H702.419V110.15H707.249V111.26H702.419V114.89H707.549V116H701.159ZM713.594 116.18C712.264 116.18 711.229 115.73 710.489 114.83C709.749 113.92 709.379 112.585 709.379 110.825C709.379 109.065 709.749 107.715 710.489 106.775C711.229 105.825 712.264 105.35 713.594 105.35C714.474 105.35 715.209 105.55 715.799 105.95C716.399 106.35 716.864 106.915 717.194 107.645L716.174 108.26C715.964 107.72 715.644 107.29 715.214 106.97C714.784 106.64 714.244 106.475 713.594 106.475C713.144 106.475 712.739 106.56 712.379 106.73C712.029 106.9 711.729 107.145 711.479 107.465C711.239 107.775 711.054 108.15 710.924 108.59C710.794 109.02 710.729 109.505 710.729 110.045V111.605C710.729 112.685 710.979 113.53 711.479 114.14C711.979 114.75 712.684 115.055 713.594 115.055C714.264 115.055 714.824 114.885 715.274 114.545C715.724 114.195 716.054 113.735 716.264 113.165L717.269 113.795C716.939 114.535 716.464 115.12 715.844 115.55C715.224 115.97 714.474 116.18 713.594 116.18ZM719.22 105.53H723.525C724.395 105.53 725.075 105.775 725.565 106.265C726.065 106.755 726.315 107.41 726.315 108.23C726.315 108.62 726.26 108.95 726.15 109.22C726.04 109.49 725.9 109.715 725.73 109.895C725.56 110.065 725.375 110.195 725.175 110.285C724.975 110.365 724.79 110.42 724.62 110.45V110.54C724.81 110.55 725.02 110.6 725.25 110.69C725.49 110.78 725.715 110.925 725.925 111.125C726.135 111.315 726.31 111.565 726.45 111.875C726.6 112.175 726.675 112.54 726.675 112.97C726.675 113.4 726.605 113.8 726.465 114.17C726.335 114.54 726.15 114.86 725.91 115.13C725.67 115.4 725.385 115.615 725.055 115.775C724.725 115.925 724.365 116 723.975 116H719.22V105.53ZM720.48 114.89H723.585C724.125 114.89 724.55 114.755 724.86 114.485C725.17 114.205 725.325 113.8 725.325 113.27V112.76C725.325 112.23 725.17 111.83 724.86 111.56C724.55 111.28 724.125 111.14 723.585 111.14H720.48V114.89ZM720.48 110.06H723.375C723.875 110.06 724.265 109.935 724.545 109.685C724.825 109.435 724.965 109.075 724.965 108.605V108.095C724.965 107.625 724.825 107.265 724.545 107.015C724.265 106.765 723.875 106.64 723.375 106.64H720.48V110.06ZM735.62 116H728.75V114.71L732.17 111.56C732.66 111.11 733.07 110.635 733.4 110.135C733.73 109.625 733.895 109.115 733.895 108.605V108.425C733.895 107.845 733.735 107.375 733.415 107.015C733.095 106.655 732.61 106.475 731.96 106.475C731.64 106.475 731.36 106.52 731.12 106.61C730.88 106.7 730.67 106.825 730.49 106.985C730.32 107.145 730.175 107.335 730.055 107.555C729.945 107.765 729.855 107.995 729.785 108.245L728.66 107.81C728.76 107.5 728.895 107.2 729.065 106.91C729.245 106.61 729.465 106.345 729.725 106.115C729.995 105.885 730.315 105.7 730.685 105.56C731.065 105.42 731.51 105.35 732.02 105.35C732.53 105.35 732.985 105.425 733.385 105.575C733.785 105.725 734.12 105.935 734.39 106.205C734.66 106.475 734.865 106.795 735.005 107.165C735.155 107.535 735.23 107.945 735.23 108.395C735.23 108.805 735.17 109.185 735.05 109.535C734.94 109.885 734.785 110.22 734.585 110.54C734.385 110.85 734.14 111.155 733.85 111.455C733.57 111.755 733.265 112.055 732.935 112.355L730.115 114.89H735.62V116ZM741.704 116.18C740.374 116.18 739.339 115.73 738.599 114.83C737.859 113.92 737.489 112.585 737.489 110.825C737.489 109.065 737.859 107.715 738.599 106.775C739.339 105.825 740.374 105.35 741.704 105.35C742.584 105.35 743.319 105.55 743.909 105.95C744.509 106.35 744.974 106.915 745.304 107.645L744.284 108.26C744.074 107.72 743.754 107.29 743.324 106.97C742.894 106.64 742.354 106.475 741.704 106.475C741.254 106.475 740.849 106.56 740.489 106.73C740.139 106.9 739.839 107.145 739.589 107.465C739.349 107.775 739.164 108.15 739.034 108.59C738.904 109.02 738.839 109.505 738.839 110.045V111.605C738.839 112.685 739.089 113.53 739.589 114.14C740.089 114.75 740.794 115.055 741.704 115.055C742.374 115.055 742.934 114.885 743.384 114.545C743.834 114.195 744.164 113.735 744.374 113.165L745.379 113.795C745.049 114.535 744.574 115.12 743.954 115.55C743.334 115.97 742.584 116.18 741.704 116.18ZM750.436 116.18C749.836 116.18 749.311 116.105 748.861 115.955C748.411 115.795 748.031 115.58 747.721 115.31C747.421 115.04 747.191 114.72 747.031 114.35C746.881 113.98 746.806 113.58 746.806 113.15C746.806 112.43 747.001 111.86 747.391 111.44C747.781 111.02 748.291 110.725 748.921 110.555V110.435C748.371 110.245 747.931 109.94 747.601 109.52C747.281 109.09 747.121 108.575 747.121 107.975C747.121 107.175 747.411 106.54 747.991 106.07C748.571 105.59 749.386 105.35 750.436 105.35C751.486 105.35 752.301 105.59 752.881 106.07C753.461 106.54 753.751 107.175 753.751 107.975C753.751 108.575 753.586 109.09 753.256 109.52C752.936 109.94 752.501 110.245 751.951 110.435V110.555C752.581 110.725 753.091 111.02 753.481 111.44C753.871 111.86 754.066 112.43 754.066 113.15C754.066 113.58 753.986 113.98 753.826 114.35C753.676 114.72 753.446 115.04 753.136 115.31C752.836 115.58 752.461 115.795 752.011 115.955C751.561 116.105 751.036 116.18 750.436 116.18ZM750.436 115.085C751.166 115.085 751.731 114.925 752.131 114.605C752.531 114.275 752.731 113.81 752.731 113.21V112.895C752.731 112.295 752.531 111.835 752.131 111.515C751.731 111.185 751.166 111.02 750.436 111.02C749.706 111.02 749.141 111.185 748.741 111.515C748.341 111.835 748.141 112.295 748.141 112.895V113.21C748.141 113.81 748.341 114.275 748.741 114.605C749.141 114.925 749.706 115.085 750.436 115.085ZM750.436 109.97C751.096 109.97 751.596 109.83 751.936 109.55C752.276 109.27 752.446 108.86 752.446 108.32V108.095C752.446 107.555 752.276 107.145 751.936 106.865C751.596 106.585 751.096 106.445 750.436 106.445C749.776 106.445 749.276 106.585 748.936 106.865C748.596 107.145 748.426 107.555 748.426 108.095V108.32C748.426 108.86 748.596 109.27 748.936 109.55C749.276 109.83 749.776 109.97 750.436 109.97Z" fill="white"/>
<rect x="678" width="88" height="88" rx="15" fill="#ECB2C8"/>
<path d="M469.09 112.925H466.78L466.24 116H465.28L465.82 112.925H463.9V112.025H465.97L466.39 109.505H464.485V108.605H466.555L467.08 105.53H468.04L467.515 108.605H469.825L470.35 105.53H471.31L470.785 108.605H472.705V109.505H470.62L470.2 112.025H472.12V112.925H470.05L469.51 116H468.55L469.09 112.925ZM469.24 112.025L469.66 109.505H467.35L466.93 112.025H469.24ZM476.318 116L480.323 106.61H475.853V108.56H474.728V105.53H481.598V106.64L477.668 116H476.318ZM484.083 116V105.53H490.473V106.64H485.343V110.15H490.173V111.26H485.343V114.89H490.473V116H484.083ZM496.518 116.18C495.188 116.18 494.153 115.73 493.413 114.83C492.673 113.92 492.303 112.585 492.303 110.825C492.303 109.065 492.673 107.715 493.413 106.775C494.153 105.825 495.188 105.35 496.518 105.35C497.398 105.35 498.133 105.55 498.723 105.95C499.323 106.35 499.788 106.915 500.118 107.645L499.098 108.26C498.888 107.72 498.568 107.29 498.138 106.97C497.708 106.64 497.168 106.475 496.518 106.475C496.068 106.475 495.663 106.56 495.303 106.73C494.953 106.9 494.653 107.145 494.403 107.465C494.163 107.775 493.978 108.15 493.848 108.59C493.718 109.02 493.653 109.505 493.653 110.045V111.605C493.653 112.685 493.903 113.53 494.403 114.14C494.903 114.75 495.608 115.055 496.518 115.055C497.188 115.055 497.748 114.885 498.198 114.545C498.648 114.195 498.978 113.735 499.188 113.165L500.193 113.795C499.863 114.535 499.388 115.12 498.768 115.55C498.148 115.97 497.398 116.18 496.518 116.18ZM502.069 116V114.89H504.994V106.46H504.889L502.249 108.92L501.514 108.125L504.289 105.53H506.254V114.89H508.954V116H502.069ZM511.138 105.53H514.648C515.298 105.53 515.888 105.64 516.418 105.86C516.948 106.08 517.398 106.41 517.768 106.85C518.148 107.28 518.438 107.825 518.638 108.485C518.838 109.135 518.938 109.895 518.938 110.765C518.938 111.635 518.838 112.4 518.638 113.06C518.438 113.71 518.148 114.255 517.768 114.695C517.398 115.125 516.948 115.45 516.418 115.67C515.888 115.89 515.298 116 514.648 116H511.138V105.53ZM514.648 114.89C515.078 114.89 515.473 114.82 515.833 114.68C516.193 114.53 516.503 114.315 516.763 114.035C517.023 113.755 517.223 113.415 517.363 113.015C517.513 112.605 517.588 112.14 517.588 111.62V109.91C517.588 109.39 517.513 108.93 517.363 108.53C517.223 108.12 517.023 107.775 516.763 107.495C516.503 107.215 516.193 107.005 515.833 106.865C515.473 106.715 515.078 106.64 514.648 106.64H512.398V114.89H514.648ZM527.277 106.64H522.687L522.387 110.63H522.492C522.742 110.28 523.022 110 523.332 109.79C523.652 109.58 524.087 109.475 524.637 109.475C525.087 109.475 525.502 109.55 525.882 109.7C526.262 109.85 526.592 110.065 526.872 110.345C527.152 110.615 527.367 110.95 527.517 111.35C527.677 111.75 527.757 112.205 527.757 112.715C527.757 113.225 527.677 113.695 527.517 114.125C527.357 114.545 527.122 114.91 526.812 115.22C526.512 115.52 526.142 115.755 525.702 115.925C525.272 116.095 524.782 116.18 524.232 116.18C523.792 116.18 523.402 116.13 523.062 116.03C522.732 115.93 522.437 115.795 522.177 115.625C521.917 115.455 521.687 115.265 521.487 115.055C521.297 114.845 521.122 114.625 520.962 114.395L521.907 113.675C522.037 113.885 522.172 114.075 522.312 114.245C522.462 114.415 522.622 114.56 522.792 114.68C522.972 114.8 523.177 114.895 523.407 114.965C523.637 115.025 523.912 115.055 524.232 115.055C524.952 115.055 525.497 114.865 525.867 114.485C526.237 114.105 526.422 113.57 526.422 112.88V112.73C526.422 112.04 526.237 111.505 525.867 111.125C525.497 110.745 524.952 110.555 524.232 110.555C523.752 110.555 523.372 110.645 523.092 110.825C522.822 110.995 522.577 111.2 522.357 111.44L521.292 111.29L521.667 105.53H527.277V106.64Z" fill="white"/>
<rect x="452" width="88" height="88" rx="15" fill="#7EC1D5"/>
<path d="M130.09 112.925H127.78L127.24 116H126.28L126.82 112.925H124.9V112.025H126.97L127.39 109.505H125.485V108.605H127.555L128.08 105.53H129.04L128.515 108.605H130.825L131.35 105.53H132.31L131.785 108.605H133.705V109.505H131.62L131.2 112.025H133.12V112.925H131.05L130.51 116H129.55L130.09 112.925ZM130.24 112.025L130.66 109.505H128.35L127.93 112.025H130.24ZM136.088 116V105.53H142.478V106.64H137.348V110.15H142.178V111.26H137.348V114.89H142.478V116H136.088ZM147.953 116.18C147.413 116.18 146.923 116.09 146.483 115.91C146.053 115.72 145.683 115.455 145.373 115.115C145.073 114.765 144.843 114.34 144.683 113.84C144.523 113.34 144.443 112.78 144.443 112.16C144.443 111.38 144.558 110.65 144.788 109.97C145.018 109.28 145.313 108.655 145.673 108.095C146.043 107.525 146.448 107.025 146.888 106.595C147.328 106.155 147.758 105.8 148.178 105.53H149.798C149.238 105.94 148.738 106.34 148.298 106.73C147.858 107.12 147.473 107.53 147.143 107.96C146.813 108.38 146.533 108.835 146.303 109.325C146.073 109.805 145.888 110.35 145.748 110.96L145.823 110.99C146.073 110.56 146.393 110.205 146.783 109.925C147.183 109.635 147.703 109.49 148.343 109.49C148.793 109.49 149.208 109.565 149.588 109.715C149.968 109.865 150.293 110.08 150.563 110.36C150.833 110.64 151.043 110.98 151.193 111.38C151.353 111.78 151.433 112.225 151.433 112.715C151.433 113.225 151.348 113.695 151.178 114.125C151.018 114.545 150.783 114.91 150.473 115.22C150.173 115.52 149.808 115.755 149.378 115.925C148.948 116.095 148.473 116.18 147.953 116.18ZM147.938 115.085C148.628 115.085 149.163 114.895 149.543 114.515C149.933 114.135 150.128 113.59 150.128 112.88V112.76C150.128 112.05 149.933 111.505 149.543 111.125C149.163 110.745 148.628 110.555 147.938 110.555C147.248 110.555 146.708 110.745 146.318 111.125C145.938 111.505 145.748 112.05 145.748 112.76V112.88C145.748 113.59 145.938 114.135 146.318 114.515C146.708 114.895 147.248 115.085 147.938 115.085ZM155.058 116L159.063 106.61H154.593V108.56H153.468V105.53H160.338V106.64L156.408 116H155.058ZM165.942 116.18C165.402 116.18 164.912 116.09 164.472 115.91C164.042 115.72 163.672 115.455 163.362 115.115C163.062 114.765 162.832 114.34 162.672 113.84C162.512 113.34 162.432 112.78 162.432 112.16C162.432 111.38 162.547 110.65 162.777 109.97C163.007 109.28 163.302 108.655 163.662 108.095C164.032 107.525 164.437 107.025 164.877 106.595C165.317 106.155 165.747 105.8 166.167 105.53H167.787C167.227 105.94 166.727 106.34 166.287 106.73C165.847 107.12 165.462 107.53 165.132 107.96C164.802 108.38 164.522 108.835 164.292 109.325C164.062 109.805 163.877 110.35 163.737 110.96L163.812 110.99C164.062 110.56 164.382 110.205 164.772 109.925C165.172 109.635 165.692 109.49 166.332 109.49C166.782 109.49 167.197 109.565 167.577 109.715C167.957 109.865 168.282 110.08 168.552 110.36C168.822 110.64 169.032 110.98 169.182 111.38C169.342 111.78 169.422 112.225 169.422 112.715C169.422 113.225 169.337 113.695 169.167 114.125C169.007 114.545 168.772 114.91 168.462 115.22C168.162 115.52 167.797 115.755 167.367 115.925C166.937 116.095 166.462 116.18 165.942 116.18ZM165.927 115.085C166.617 115.085 167.152 114.895 167.532 114.515C167.922 114.135 168.117 113.59 168.117 112.88V112.76C168.117 112.05 167.922 111.505 167.532 111.125C167.152 110.745 166.617 110.555 165.927 110.555C165.237 110.555 164.697 110.745 164.307 111.125C163.927 111.505 163.737 112.05 163.737 112.76V112.88C163.737 113.59 163.927 114.135 164.307 114.515C164.697 114.895 165.237 115.085 165.927 115.085ZM171.741 116V114.89H174.666V106.46H174.561L171.921 108.92L171.186 108.125L173.961 105.53H175.926V114.89H178.626V116H171.741ZM180.81 116V105.53H187.2V106.64H182.07V110.15H186.9V111.26H182.07V114.89H187.2V116H180.81Z" fill="white"/>
<rect x="113" width="88" height="88" rx="15" fill="#E6761E"/>
<path d="M355.09 112.925H352.78L352.24 116H351.28L351.82 112.925H349.9V112.025H351.97L352.39 109.505H350.485V108.605H352.555L353.08 105.53H354.04L353.515 108.605H355.825L356.35 105.53H357.31L356.785 108.605H358.705V109.505H356.62L356.2 112.025H358.12V112.925H356.05L355.51 116H354.55L355.09 112.925ZM355.24 112.025L355.66 109.505H353.35L352.93 112.025H355.24ZM364.193 116.18C362.943 116.18 362.028 115.705 361.448 114.755C360.878 113.805 360.593 112.475 360.593 110.765C360.593 109.055 360.878 107.725 361.448 106.775C362.028 105.825 362.943 105.35 364.193 105.35C365.443 105.35 366.353 105.825 366.923 106.775C367.503 107.725 367.793 109.055 367.793 110.765C367.793 112.475 367.503 113.805 366.923 114.755C366.353 115.705 365.443 116.18 364.193 116.18ZM364.193 115.085C364.603 115.085 364.953 115 365.243 114.83C365.533 114.66 365.768 114.42 365.948 114.11C366.128 113.8 366.258 113.435 366.338 113.015C366.428 112.595 366.473 112.13 366.473 111.62V109.91C366.473 109.4 366.428 108.935 366.338 108.515C366.258 108.095 366.128 107.73 365.948 107.42C365.768 107.11 365.533 106.87 365.243 106.7C364.953 106.53 364.603 106.445 364.193 106.445C363.783 106.445 363.433 106.53 363.143 106.7C362.853 106.87 362.618 107.11 362.438 107.42C362.258 107.73 362.123 108.095 362.033 108.515C361.953 108.935 361.913 109.4 361.913 109.91V111.62C361.913 112.13 361.953 112.595 362.033 113.015C362.123 113.435 362.258 113.8 362.438 114.11C362.618 114.42 362.853 114.66 363.143 114.83C363.433 115 363.783 115.085 364.193 115.085ZM370.083 105.53H373.593C374.243 105.53 374.833 105.64 375.363 105.86C375.893 106.08 376.343 106.41 376.713 106.85C377.093 107.28 377.383 107.825 377.583 108.485C377.783 109.135 377.883 109.895 377.883 110.765C377.883 111.635 377.783 112.4 377.583 113.06C377.383 113.71 377.093 114.255 376.713 114.695C376.343 115.125 375.893 115.45 375.363 115.67C374.833 115.89 374.243 116 373.593 116H370.083V105.53ZM373.593 114.89C374.023 114.89 374.418 114.82 374.778 114.68C375.138 114.53 375.448 114.315 375.708 114.035C375.968 113.755 376.168 113.415 376.308 113.015C376.458 112.605 376.533 112.14 376.533 111.62V109.91C376.533 109.39 376.458 108.93 376.308 108.53C376.168 108.12 375.968 107.775 375.708 107.495C375.448 107.215 375.138 107.005 374.778 106.865C374.418 106.715 374.023 106.64 373.593 106.64H371.343V114.89H373.593ZM386.746 109.37C386.746 110.15 386.631 110.885 386.401 111.575C386.171 112.255 385.871 112.88 385.501 113.45C385.141 114.01 384.741 114.51 384.301 114.95C383.861 115.38 383.431 115.73 383.011 116H381.391C381.951 115.59 382.451 115.19 382.891 114.8C383.331 114.41 383.716 114.005 384.046 113.585C384.376 113.155 384.656 112.7 384.886 112.22C385.116 111.73 385.301 111.18 385.441 110.57L385.366 110.54C385.116 110.97 384.791 111.33 384.391 111.62C384.001 111.9 383.486 112.04 382.846 112.04C382.396 112.04 381.981 111.965 381.601 111.815C381.221 111.665 380.896 111.45 380.626 111.17C380.356 110.89 380.141 110.555 379.981 110.165C379.831 109.765 379.756 109.315 379.756 108.815C379.756 108.305 379.836 107.84 379.996 107.42C380.166 106.99 380.401 106.625 380.701 106.325C381.011 106.015 381.376 105.775 381.796 105.605C382.226 105.435 382.706 105.35 383.236 105.35C383.776 105.35 384.261 105.445 384.691 105.635C385.131 105.815 385.501 106.08 385.801 106.43C386.111 106.77 386.346 107.19 386.506 107.69C386.666 108.19 386.746 108.75 386.746 109.37ZM383.251 110.975C383.941 110.975 384.476 110.785 384.856 110.405C385.246 110.025 385.441 109.48 385.441 108.77V108.65C385.441 107.94 385.246 107.395 384.856 107.015C384.476 106.635 383.941 106.445 383.251 106.445C382.561 106.445 382.021 106.635 381.631 107.015C381.251 107.395 381.061 107.94 381.061 108.65V108.77C381.061 109.48 381.251 110.025 381.631 110.405C382.021 110.785 382.561 110.975 383.251 110.975ZM391.66 109.97C392.37 109.97 392.9 109.81 393.25 109.49C393.61 109.16 393.79 108.74 393.79 108.23V108.125C393.79 107.575 393.615 107.165 393.265 106.895C392.925 106.615 392.475 106.475 391.915 106.475C391.375 106.475 390.935 106.595 390.595 106.835C390.255 107.065 389.975 107.38 389.755 107.78L388.825 107.06C388.955 106.85 389.11 106.645 389.29 106.445C389.48 106.235 389.7 106.05 389.95 105.89C390.2 105.73 390.49 105.6 390.82 105.5C391.15 105.4 391.525 105.35 391.945 105.35C392.385 105.35 392.8 105.41 393.19 105.53C393.58 105.64 393.915 105.81 394.195 106.04C394.485 106.26 394.71 106.535 394.87 106.865C395.04 107.195 395.125 107.57 395.125 107.99C395.125 108.33 395.07 108.635 394.96 108.905C394.86 109.175 394.72 109.41 394.54 109.61C394.36 109.81 394.145 109.98 393.895 110.12C393.655 110.26 393.395 110.365 393.115 110.435V110.495C393.395 110.555 393.665 110.655 393.925 110.795C394.195 110.925 394.43 111.1 394.63 111.32C394.84 111.53 395.005 111.79 395.125 112.1C395.255 112.4 395.32 112.745 395.32 113.135C395.32 113.585 395.235 114 395.065 114.38C394.895 114.75 394.655 115.07 394.345 115.34C394.035 115.6 393.66 115.805 393.22 115.955C392.78 116.105 392.295 116.18 391.765 116.18C391.315 116.18 390.915 116.13 390.565 116.03C390.215 115.93 389.905 115.795 389.635 115.625C389.365 115.455 389.125 115.265 388.915 115.055C388.715 114.845 388.535 114.625 388.375 114.395L389.32 113.675C389.45 113.885 389.59 114.075 389.74 114.245C389.9 114.415 390.075 114.56 390.265 114.68C390.455 114.8 390.67 114.895 390.91 114.965C391.15 115.025 391.43 115.055 391.75 115.055C392.49 115.055 393.05 114.89 393.43 114.56C393.81 114.22 394 113.74 394 113.12V113C394 112.38 393.81 111.905 393.43 111.575C393.05 111.235 392.49 111.065 391.75 111.065H390.52V109.97H391.66ZM401.254 116.18C400.714 116.18 400.224 116.09 399.784 115.91C399.354 115.72 398.984 115.455 398.674 115.115C398.374 114.765 398.144 114.34 397.984 113.84C397.824 113.34 397.744 112.78 397.744 112.16C397.744 111.38 397.859 110.65 398.089 109.97C398.319 109.28 398.614 108.655 398.974 108.095C399.344 107.525 399.749 107.025 400.189 106.595C400.629 106.155 401.059 105.8 401.479 105.53H403.099C402.539 105.94 402.039 106.34 401.599 106.73C401.159 107.12 400.774 107.53 400.444 107.96C400.114 108.38 399.834 108.835 399.604 109.325C399.374 109.805 399.189 110.35 399.049 110.96L399.124 110.99C399.374 110.56 399.694 110.205 400.084 109.925C400.484 109.635 401.004 109.49 401.644 109.49C402.094 109.49 402.509 109.565 402.889 109.715C403.269 109.865 403.594 110.08 403.864 110.36C404.134 110.64 404.344 110.98 404.494 111.38C404.654 111.78 404.734 112.225 404.734 112.715C404.734 113.225 404.649 113.695 404.479 114.125C404.319 114.545 404.084 114.91 403.774 115.22C403.474 115.52 403.109 115.755 402.679 115.925C402.249 116.095 401.774 116.18 401.254 116.18ZM401.239 115.085C401.929 115.085 402.464 114.895 402.844 114.515C403.234 114.135 403.429 113.59 403.429 112.88V112.76C403.429 112.05 403.234 111.505 402.844 111.125C402.464 110.745 401.929 110.555 401.239 110.555C400.549 110.555 400.009 110.745 399.619 111.125C399.239 111.505 399.049 112.05 399.049 112.76V112.88C399.049 113.59 399.239 114.135 399.619 114.515C400.009 114.895 400.549 115.085 401.239 115.085ZM413.683 116L412.633 112.91H408.403L407.353 116H406.078L409.738 105.53H411.343L415.003 116H413.683ZM410.548 106.7H410.473L408.703 111.8H412.318L410.548 106.7Z" fill="white"/>
<rect x="339" width="88" height="88" rx="15" fill="#0D936A"/>
<path d="M581.09 112.925H578.78L578.24 116H577.28L577.82 112.925H575.9V112.025H577.97L578.39 109.505H576.485V108.605H578.555L579.08 105.53H580.04L579.515 108.605H581.825L582.35 105.53H583.31L582.785 108.605H584.705V109.505H582.62L582.2 112.025H584.12V112.925H582.05L581.51 116H580.55L581.09 112.925ZM581.24 112.025L581.66 109.505H579.35L578.93 112.025H581.24ZM589.608 109.97C590.318 109.97 590.848 109.81 591.198 109.49C591.558 109.16 591.738 108.74 591.738 108.23V108.125C591.738 107.575 591.563 107.165 591.213 106.895C590.873 106.615 590.423 106.475 589.863 106.475C589.323 106.475 588.883 106.595 588.543 106.835C588.203 107.065 587.923 107.38 587.703 107.78L586.773 107.06C586.903 106.85 587.058 106.645 587.238 106.445C587.428 106.235 587.648 106.05 587.898 105.89C588.148 105.73 588.438 105.6 588.768 105.5C589.098 105.4 589.473 105.35 589.893 105.35C590.333 105.35 590.748 105.41 591.138 105.53C591.528 105.64 591.863 105.81 592.143 106.04C592.433 106.26 592.658 106.535 592.818 106.865C592.988 107.195 593.073 107.57 593.073 107.99C593.073 108.33 593.018 108.635 592.908 108.905C592.808 109.175 592.668 109.41 592.488 109.61C592.308 109.81 592.093 109.98 591.843 110.12C591.603 110.26 591.343 110.365 591.063 110.435V110.495C591.343 110.555 591.613 110.655 591.873 110.795C592.143 110.925 592.378 111.1 592.578 111.32C592.788 111.53 592.953 111.79 593.073 112.1C593.203 112.4 593.268 112.745 593.268 113.135C593.268 113.585 593.183 114 593.013 114.38C592.843 114.75 592.603 115.07 592.293 115.34C591.983 115.6 591.608 115.805 591.168 115.955C590.728 116.105 590.243 116.18 589.713 116.18C589.263 116.18 588.863 116.13 588.513 116.03C588.163 115.93 587.853 115.795 587.583 115.625C587.313 115.455 587.073 115.265 586.863 115.055C586.663 114.845 586.483 114.625 586.323 114.395L587.268 113.675C587.398 113.885 587.538 114.075 587.688 114.245C587.848 114.415 588.023 114.56 588.213 114.68C588.403 114.8 588.618 114.895 588.858 114.965C589.098 115.025 589.378 115.055 589.698 115.055C590.438 115.055 590.998 114.89 591.378 114.56C591.758 114.22 591.948 113.74 591.948 113.12V113C591.948 112.38 591.758 111.905 591.378 111.575C590.998 111.235 590.438 111.065 589.698 111.065H588.468V109.97H589.608ZM596.083 105.53H599.593C600.243 105.53 600.833 105.64 601.363 105.86C601.893 106.08 602.343 106.41 602.713 106.85C603.093 107.28 603.383 107.825 603.583 108.485C603.783 109.135 603.883 109.895 603.883 110.765C603.883 111.635 603.783 112.4 603.583 113.06C603.383 113.71 603.093 114.255 602.713 114.695C602.343 115.125 601.893 115.45 601.363 115.67C600.833 115.89 600.243 116 599.593 116H596.083V105.53ZM599.593 114.89C600.023 114.89 600.418 114.82 600.778 114.68C601.138 114.53 601.448 114.315 601.708 114.035C601.968 113.755 602.168 113.415 602.308 113.015C602.458 112.605 602.533 112.14 602.533 111.62V109.91C602.533 109.39 602.458 108.93 602.308 108.53C602.168 108.12 601.968 107.775 601.708 107.495C601.448 107.215 601.138 107.005 600.778 106.865C600.418 106.715 600.023 106.64 599.593 106.64H597.343V114.89H599.593ZM609.251 116.18C608.651 116.18 608.126 116.105 607.676 115.955C607.226 115.795 606.846 115.58 606.536 115.31C606.236 115.04 606.006 114.72 605.846 114.35C605.696 113.98 605.621 113.58 605.621 113.15C605.621 112.43 605.816 111.86 606.206 111.44C606.596 111.02 607.106 110.725 607.736 110.555V110.435C607.186 110.245 606.746 109.94 606.416 109.52C606.096 109.09 605.936 108.575 605.936 107.975C605.936 107.175 606.226 106.54 606.806 106.07C607.386 105.59 608.201 105.35 609.251 105.35C610.301 105.35 611.116 105.59 611.696 106.07C612.276 106.54 612.566 107.175 612.566 107.975C612.566 108.575 612.401 109.09 612.071 109.52C611.751 109.94 611.316 110.245 610.766 110.435V110.555C611.396 110.725 611.906 111.02 612.296 111.44C612.686 111.86 612.881 112.43 612.881 113.15C612.881 113.58 612.801 113.98 612.641 114.35C612.491 114.72 612.261 115.04 611.951 115.31C611.651 115.58 611.276 115.795 610.826 115.955C610.376 116.105 609.851 116.18 609.251 116.18ZM609.251 115.085C609.981 115.085 610.546 114.925 610.946 114.605C611.346 114.275 611.546 113.81 611.546 113.21V112.895C611.546 112.295 611.346 111.835 610.946 111.515C610.546 111.185 609.981 111.02 609.251 111.02C608.521 111.02 607.956 111.185 607.556 111.515C607.156 111.835 606.956 112.295 606.956 112.895V113.21C606.956 113.81 607.156 114.275 607.556 114.605C607.956 114.925 608.521 115.085 609.251 115.085ZM609.251 109.97C609.911 109.97 610.411 109.83 610.751 109.55C611.091 109.27 611.261 108.86 611.261 108.32V108.095C611.261 107.555 611.091 107.145 610.751 106.865C610.411 106.585 609.911 106.445 609.251 106.445C608.591 106.445 608.091 106.585 607.751 106.865C607.411 107.145 607.241 107.555 607.241 108.095V108.32C607.241 108.86 607.411 109.27 607.751 109.55C608.091 109.83 608.591 109.97 609.251 109.97ZM621.215 106.64H616.625L616.325 110.63H616.43C616.68 110.28 616.96 110 617.27 109.79C617.59 109.58 618.025 109.475 618.575 109.475C619.025 109.475 619.44 109.55 619.82 109.7C620.2 109.85 620.53 110.065 620.81 110.345C621.09 110.615 621.305 110.95 621.455 111.35C621.615 111.75 621.695 112.205 621.695 112.715C621.695 113.225 621.615 113.695 621.455 114.125C621.295 114.545 621.06 114.91 620.75 115.22C620.45 115.52 620.08 115.755 619.64 115.925C619.21 116.095 618.72 116.18 618.17 116.18C617.73 116.18 617.34 116.13 617 116.03C616.67 115.93 616.375 115.795 616.115 115.625C615.855 115.455 615.625 115.265 615.425 115.055C615.235 114.845 615.06 114.625 614.9 114.395L615.845 113.675C615.975 113.885 616.11 114.075 616.25 114.245C616.4 114.415 616.56 114.56 616.73 114.68C616.91 114.8 617.115 114.895 617.345 114.965C617.575 115.025 617.85 115.055 618.17 115.055C618.89 115.055 619.435 114.865 619.805 114.485C620.175 114.105 620.36 113.57 620.36 112.88V112.73C620.36 112.04 620.175 111.505 619.805 111.125C619.435 110.745 618.89 110.555 618.17 110.555C617.69 110.555 617.31 110.645 617.03 110.825C616.76 110.995 616.515 111.2 616.295 111.44L615.23 111.29L615.605 105.53H621.215V106.64ZM624.134 105.53H628.439C629.309 105.53 629.989 105.775 630.479 106.265C630.979 106.755 631.229 107.41 631.229 108.23C631.229 108.62 631.174 108.95 631.064 109.22C630.954 109.49 630.814 109.715 630.644 109.895C630.474 110.065 630.289 110.195 630.089 110.285C629.889 110.365 629.704 110.42 629.534 110.45V110.54C629.724 110.55 629.934 110.6 630.164 110.69C630.404 110.78 630.629 110.925 630.839 111.125C631.049 111.315 631.224 111.565 631.364 111.875C631.514 112.175 631.589 112.54 631.589 112.97C631.589 113.4 631.519 113.8 631.379 114.17C631.249 114.54 631.064 114.86 630.824 115.13C630.584 115.4 630.299 115.615 629.969 115.775C629.639 115.925 629.279 116 628.889 116H624.134V105.53ZM625.394 114.89H628.499C629.039 114.89 629.464 114.755 629.774 114.485C630.084 114.205 630.239 113.8 630.239 113.27V112.76C630.239 112.23 630.084 111.83 629.774 111.56C629.464 111.28 629.039 111.14 628.499 111.14H625.394V114.89ZM625.394 110.06H628.289C628.789 110.06 629.179 109.935 629.459 109.685C629.739 109.435 629.879 109.075 629.879 108.605V108.095C629.879 107.625 629.739 107.265 629.459 107.015C629.179 106.765 628.789 106.64 628.289 106.64H625.394V110.06ZM640.534 116H633.664V114.71L637.084 111.56C637.574 111.11 637.984 110.635 638.314 110.135C638.644 109.625 638.809 109.115 638.809 108.605V108.425C638.809 107.845 638.649 107.375 638.329 107.015C638.009 106.655 637.524 106.475 636.874 106.475C636.554 106.475 636.274 106.52 636.034 106.61C635.794 106.7 635.584 106.825 635.404 106.985C635.234 107.145 635.089 107.335 634.969 107.555C634.859 107.765 634.769 107.995 634.699 108.245L633.574 107.81C633.674 107.5 633.809 107.2 633.979 106.91C634.159 106.61 634.379 106.345 634.639 106.115C634.909 105.885 635.229 105.7 635.599 105.56C635.979 105.42 636.424 105.35 636.934 105.35C637.444 105.35 637.899 105.425 638.299 105.575C638.699 105.725 639.034 105.935 639.304 106.205C639.574 106.475 639.779 106.795 639.919 107.165C640.069 107.535 640.144 107.945 640.144 108.395C640.144 108.805 640.084 109.185 639.964 109.535C639.854 109.885 639.699 110.22 639.499 110.54C639.299 110.85 639.054 111.155 638.764 111.455C638.484 111.755 638.179 112.055 637.849 112.355L635.029 114.89H640.534V116Z" fill="white"/>
<rect x="565" width="88" height="88" rx="15" fill="#3D85B2"/>
<path d="M243.09 112.925H240.78L240.24 116H239.28L239.82 112.925H237.9V112.025H239.97L240.39 109.505H238.485V108.605H240.555L241.08 105.53H242.04L241.515 108.605H243.825L244.35 105.53H245.31L244.785 108.605H246.705V109.505H244.62L244.2 112.025H246.12V112.925H244.05L243.51 116H242.55L243.09 112.925ZM243.24 112.025L243.66 109.505H241.35L240.93 112.025H243.24ZM249.088 116V105.53H255.478V106.64H250.348V110.15H255.178V111.26H250.348V114.89H255.478V116H249.088ZM257.833 116V105.53H264.223V106.64H259.093V110.15H263.923V111.26H259.093V114.89H264.223V116H257.833ZM273.134 116L272.084 112.91H267.854L266.804 116H265.529L269.189 105.53H270.794L274.454 116H273.134ZM269.999 106.7H269.924L268.154 111.8H271.769L269.999 106.7ZM279.293 116.18C278.693 116.18 278.168 116.105 277.718 115.955C277.268 115.795 276.888 115.58 276.578 115.31C276.278 115.04 276.048 114.72 275.888 114.35C275.738 113.98 275.663 113.58 275.663 113.15C275.663 112.43 275.858 111.86 276.248 111.44C276.638 111.02 277.148 110.725 277.778 110.555V110.435C277.228 110.245 276.788 109.94 276.458 109.52C276.138 109.09 275.978 108.575 275.978 107.975C275.978 107.175 276.268 106.54 276.848 106.07C277.428 105.59 278.243 105.35 279.293 105.35C280.343 105.35 281.158 105.59 281.738 106.07C282.318 106.54 282.608 107.175 282.608 107.975C282.608 108.575 282.443 109.09 282.113 109.52C281.793 109.94 281.358 110.245 280.808 110.435V110.555C281.438 110.725 281.948 111.02 282.338 111.44C282.728 111.86 282.923 112.43 282.923 113.15C282.923 113.58 282.843 113.98 282.683 114.35C282.533 114.72 282.303 115.04 281.993 115.31C281.693 115.58 281.318 115.795 280.868 115.955C280.418 116.105 279.893 116.18 279.293 116.18ZM279.293 115.085C280.023 115.085 280.588 114.925 280.988 114.605C281.388 114.275 281.588 113.81 281.588 113.21V112.895C281.588 112.295 281.388 111.835 280.988 111.515C280.588 111.185 280.023 111.02 279.293 111.02C278.563 111.02 277.998 111.185 277.598 111.515C277.198 111.835 276.998 112.295 276.998 112.895V113.21C276.998 113.81 277.198 114.275 277.598 114.605C277.998 114.925 278.563 115.085 279.293 115.085ZM279.293 109.97C279.953 109.97 280.453 109.83 280.793 109.55C281.133 109.27 281.303 108.86 281.303 108.32V108.095C281.303 107.555 281.133 107.145 280.793 106.865C280.453 106.585 279.953 106.445 279.293 106.445C278.633 106.445 278.133 106.585 277.793 106.865C277.453 107.145 277.283 107.555 277.283 108.095V108.32C277.283 108.86 277.453 109.27 277.793 109.55C278.133 109.83 278.633 109.97 279.293 109.97ZM291.782 116H284.912V114.71L288.332 111.56C288.822 111.11 289.232 110.635 289.562 110.135C289.892 109.625 290.057 109.115 290.057 108.605V108.425C290.057 107.845 289.897 107.375 289.577 107.015C289.257 106.655 288.772 106.475 288.122 106.475C287.802 106.475 287.522 106.52 287.282 106.61C287.042 106.7 286.832 106.825 286.652 106.985C286.482 107.145 286.337 107.335 286.217 107.555C286.107 107.765 286.017 107.995 285.947 108.245L284.822 107.81C284.922 107.5 285.057 107.2 285.227 106.91C285.407 106.61 285.627 106.345 285.887 106.115C286.157 105.885 286.477 105.7 286.847 105.56C287.227 105.42 287.672 105.35 288.182 105.35C288.692 105.35 289.147 105.425 289.547 105.575C289.947 105.725 290.282 105.935 290.552 106.205C290.822 106.475 291.027 106.795 291.167 107.165C291.317 107.535 291.392 107.945 291.392 108.395C291.392 108.805 291.332 109.185 291.212 109.535C291.102 109.885 290.947 110.22 290.747 110.54C290.547 110.85 290.302 111.155 290.012 111.455C289.732 111.755 289.427 112.055 289.097 112.355L286.277 114.89H291.782V116ZM294.176 105.53H298.481C299.351 105.53 300.031 105.775 300.521 106.265C301.021 106.755 301.271 107.41 301.271 108.23C301.271 108.62 301.216 108.95 301.106 109.22C300.996 109.49 300.856 109.715 300.686 109.895C300.516 110.065 300.331 110.195 300.131 110.285C299.931 110.365 299.746 110.42 299.576 110.45V110.54C299.766 110.55 299.976 110.6 300.206 110.69C300.446 110.78 300.671 110.925 300.881 111.125C301.091 111.315 301.266 111.565 301.406 111.875C301.556 112.175 301.631 112.54 301.631 112.97C301.631 113.4 301.561 113.8 301.421 114.17C301.291 114.54 301.106 114.86 300.866 115.13C300.626 115.4 300.341 115.615 300.011 115.775C299.681 115.925 299.321 116 298.931 116H294.176V105.53ZM295.436 114.89H298.541C299.081 114.89 299.506 114.755 299.816 114.485C300.126 114.205 300.281 113.8 300.281 113.27V112.76C300.281 112.23 300.126 111.83 299.816 111.56C299.506 111.28 299.081 111.14 298.541 111.14H295.436V114.89ZM295.436 110.06H298.331C298.831 110.06 299.221 109.935 299.501 109.685C299.781 109.435 299.921 109.075 299.921 108.605V108.095C299.921 107.625 299.781 107.265 299.501 107.015C299.221 106.765 298.831 106.64 298.331 106.64H295.436V110.06Z" fill="white"/>
<rect x="226" width="88" height="88" rx="15" fill="#EEA82B"/>
</svg>
