<svg width="365" height="230" viewBox="0 0 365 230" fill="none" xmlns="http://www.w3.org/2000/svg">
<path d="M1.484 29V26.032H4.06V12.424H1.484V9.456H10.36V12.424H7.756V26.032H10.36V29H1.484ZM14.1358 9.456H23.1798C23.9825 9.456 24.7012 9.57733 25.3358 9.82C25.9892 10.0627 26.5398 10.3987 26.9878 10.828C27.4358 11.2573 27.7718 11.7893 27.9958 12.424C28.2385 13.04 28.3598 13.7213 28.3598 14.468C28.3598 15.2147 28.2572 15.8493 28.0518 16.372C27.8652 16.876 27.6038 17.296 27.2678 17.632C26.9505 17.968 26.5772 18.22 26.1478 18.388C25.7372 18.556 25.3078 18.6493 24.8598 18.668V18.836C25.2892 18.836 25.7465 18.92 26.2318 19.088C26.7358 19.256 27.1932 19.5267 27.6038 19.9C28.0332 20.2547 28.3878 20.7213 28.6678 21.3C28.9478 21.86 29.0878 22.56 29.0878 23.4C29.0878 24.184 28.9572 24.9213 28.6958 25.612C28.4532 26.284 28.1078 26.872 27.6598 27.376C27.2118 27.88 26.6798 28.2813 26.0638 28.58C25.4478 28.86 24.7758 29 24.0478 29H14.1358V9.456ZM17.8318 25.864H22.9838C23.6932 25.864 24.2438 25.6867 24.6358 25.332C25.0278 24.9587 25.2238 24.4267 25.2238 23.736V22.784C25.2238 22.0933 25.0278 21.5613 24.6358 21.188C24.2438 20.8147 23.6932 20.628 22.9838 20.628H17.8318V25.864ZM17.8318 17.604H22.3958C23.0678 17.604 23.5905 17.4267 23.9638 17.072C24.3372 16.6987 24.5238 16.1853 24.5238 15.532V14.664C24.5238 14.0107 24.3372 13.5067 23.9638 13.152C23.5905 12.7787 23.0678 12.592 22.3958 12.592H17.8318V17.604ZM47.4583 14.972H47.3463L45.8342 18.08L41.8303 25.472L37.8263 18.08L36.3143 14.972H36.2023V29H32.7023V9.456H36.8743L41.8863 19.004H41.9983L46.9543 9.456H50.9583V29H47.4583V14.972ZM62.1788 29V9.456H70.9708C71.8668 9.456 72.6695 9.60533 73.3788 9.904C74.1068 10.184 74.7228 10.5947 75.2268 11.136C75.7308 11.6587 76.1135 12.2933 76.3748 13.04C76.6361 13.7867 76.7668 14.608 76.7668 15.504C76.7668 16.4187 76.6361 17.2493 76.3748 17.996C76.1135 18.724 75.7308 19.3587 75.2268 19.9C74.7228 20.4227 74.1068 20.8333 73.3788 21.132C72.6695 21.412 71.8668 21.552 70.9708 21.552H65.8748V29H62.1788ZM65.8748 18.36H70.6348C71.3441 18.36 71.9041 18.1733 72.3148 17.8C72.7255 17.408 72.9308 16.8573 72.9308 16.148V14.86C72.9308 14.1507 72.7255 13.6093 72.3148 13.236C71.9041 12.8627 71.3441 12.676 70.6348 12.676H65.8748V18.36ZM83.4763 29C82.2443 29 81.339 28.692 80.7603 28.076C80.1816 27.46 79.8923 26.592 79.8923 25.472V8.28H83.4763V26.144H85.4083V29H83.4763ZM94.0308 29.336C92.9481 29.336 91.9774 29.1587 91.1188 28.804C90.2788 28.4307 89.5601 27.9173 88.9628 27.264C88.3841 26.592 87.9361 25.7893 87.6188 24.856C87.3014 23.904 87.1428 22.84 87.1428 21.664C87.1428 20.5067 87.2921 19.4613 87.5908 18.528C87.9081 17.5947 88.3561 16.8013 88.9348 16.148C89.5134 15.476 90.2228 14.9627 91.0628 14.608C91.9028 14.2347 92.8548 14.048 93.9188 14.048C95.0574 14.048 96.0468 14.244 96.8868 14.636C97.7268 15.028 98.4174 15.56 98.9588 16.232C99.5001 16.904 99.9014 17.688 100.163 18.584C100.443 19.4613 100.583 20.404 100.583 21.412V22.588H90.8668V22.952C90.8668 24.016 91.1654 24.8747 91.7628 25.528C92.3601 26.1627 93.2468 26.48 94.4228 26.48C95.3188 26.48 96.0468 26.2933 96.6068 25.92C97.1854 25.5467 97.6988 25.0707 98.1468 24.492L100.079 26.648C99.4814 27.488 98.6601 28.1507 97.6148 28.636C96.5881 29.1027 95.3934 29.336 94.0308 29.336ZM93.9748 16.736C93.0228 16.736 92.2668 17.0533 91.7068 17.688C91.1468 18.3227 90.8668 19.144 90.8668 20.152V20.376H96.8588V20.124C96.8588 19.116 96.6068 18.304 96.1028 17.688C95.6174 17.0533 94.9081 16.736 93.9748 16.736ZM101.786 29L106.77 21.58L101.898 14.384H105.986L109.01 19.228H109.122L112.118 14.384H115.926L110.97 21.636L115.954 29H111.866L108.786 23.96H108.674L105.594 29H101.786ZM131.474 29.336C129.794 29.336 128.366 29.0373 127.19 28.44C126.032 27.8427 125.034 27.0587 124.194 26.088L126.686 23.68C127.358 24.464 128.104 25.0613 128.926 25.472C129.766 25.8827 130.69 26.088 131.698 26.088C132.836 26.088 133.695 25.8453 134.274 25.36C134.852 24.856 135.142 24.184 135.142 23.344C135.142 22.6907 134.955 22.1587 134.582 21.748C134.208 21.3373 133.508 21.0387 132.482 20.852L130.634 20.572C126.732 19.956 124.782 18.0613 124.782 14.888C124.782 14.0107 124.94 13.2173 125.258 12.508C125.594 11.7987 126.07 11.192 126.686 10.688C127.302 10.184 128.039 9.80133 128.898 9.54C129.775 9.26 130.764 9.12 131.866 9.12C133.34 9.12 134.628 9.36267 135.73 9.848C136.831 10.3333 137.774 11.052 138.558 12.004L136.038 14.384C135.552 13.7867 134.964 13.3013 134.274 12.928C133.583 12.5547 132.715 12.368 131.67 12.368C130.606 12.368 129.803 12.5733 129.262 12.984C128.739 13.376 128.478 13.936 128.478 14.664C128.478 15.4107 128.692 15.9613 129.122 16.316C129.551 16.6707 130.242 16.932 131.194 17.1L133.014 17.436C134.992 17.7907 136.448 18.4253 137.382 19.34C138.334 20.236 138.81 21.496 138.81 23.12C138.81 24.0533 138.642 24.9027 138.306 25.668C137.988 26.4147 137.512 27.068 136.878 27.628C136.262 28.1693 135.496 28.5893 134.582 28.888C133.686 29.1867 132.65 29.336 131.474 29.336ZM153.043 29C152.259 29 151.633 28.776 151.167 28.328C150.719 27.8613 150.439 27.2453 150.327 26.48H150.159C149.916 27.432 149.421 28.1507 148.675 28.636C147.928 29.1027 147.004 29.336 145.903 29.336C144.409 29.336 143.261 28.944 142.459 28.16C141.656 27.376 141.255 26.3307 141.255 25.024C141.255 23.512 141.796 22.392 142.879 21.664C143.961 20.9173 145.501 20.544 147.499 20.544H149.991V19.48C149.991 18.6587 149.776 18.024 149.347 17.576C148.917 17.128 148.227 16.904 147.275 16.904C146.435 16.904 145.753 17.0907 145.231 17.464C144.727 17.8187 144.297 18.248 143.943 18.752L141.815 16.848C142.356 16.008 143.075 15.336 143.971 14.832C144.867 14.3093 146.052 14.048 147.527 14.048C149.505 14.048 151.008 14.496 152.035 15.392C153.061 16.288 153.575 17.576 153.575 19.256V26.144H155.031V29H153.043ZM147.107 26.732C147.909 26.732 148.591 26.5547 149.151 26.2C149.711 25.8453 149.991 25.3227 149.991 24.632V22.7H147.695C145.828 22.7 144.895 23.2973 144.895 24.492V24.968C144.895 25.5653 145.081 26.0133 145.455 26.312C145.847 26.592 146.397 26.732 147.107 26.732ZM157.931 29V14.384H161.515V16.82H161.655C161.954 16.036 162.421 15.3827 163.055 14.86C163.709 14.3187 164.605 14.048 165.743 14.048C167.255 14.048 168.413 14.5427 169.215 15.532C170.018 16.5213 170.419 17.9307 170.419 19.76V29H166.835V20.124C166.835 19.0787 166.649 18.2947 166.275 17.772C165.902 17.2493 165.286 16.988 164.427 16.988C164.054 16.988 163.69 17.044 163.335 17.156C162.999 17.2493 162.691 17.3987 162.411 17.604C162.15 17.7907 161.935 18.0333 161.767 18.332C161.599 18.612 161.515 18.948 161.515 19.34V29H157.931ZM179.18 29.336C177.78 29.336 176.604 29.1027 175.652 28.636C174.7 28.1507 173.86 27.488 173.132 26.648L175.316 24.52C175.858 25.136 176.446 25.6213 177.08 25.976C177.734 26.3307 178.48 26.508 179.32 26.508C180.179 26.508 180.795 26.3587 181.168 26.06C181.56 25.7613 181.756 25.3507 181.756 24.828C181.756 24.3987 181.616 24.0627 181.336 23.82C181.075 23.5587 180.618 23.3813 179.964 23.288L178.508 23.092C176.922 22.8867 175.708 22.4387 174.868 21.748C174.047 21.0387 173.636 20.012 173.636 18.668C173.636 17.9587 173.767 17.324 174.028 16.764C174.29 16.1853 174.663 15.7 175.148 15.308C175.634 14.8973 176.212 14.5893 176.884 14.384C177.575 14.16 178.34 14.048 179.18 14.048C179.89 14.048 180.515 14.104 181.056 14.216C181.616 14.3093 182.12 14.4587 182.568 14.664C183.016 14.8507 183.427 15.0933 183.8 15.392C184.174 15.672 184.538 15.9893 184.892 16.344L182.792 18.444C182.363 17.996 181.85 17.6227 181.252 17.324C180.655 17.0253 180.002 16.876 179.292 16.876C178.508 16.876 177.939 17.016 177.584 17.296C177.248 17.576 177.08 17.94 177.08 18.388C177.08 18.8733 177.22 19.2467 177.5 19.508C177.799 19.7507 178.294 19.928 178.984 20.04L180.468 20.236C183.623 20.684 185.2 22.1213 185.2 24.548C185.2 25.2573 185.051 25.9107 184.752 26.508C184.472 27.0867 184.071 27.5907 183.548 28.02C183.026 28.4307 182.391 28.7573 181.644 29C180.916 29.224 180.095 29.336 179.18 29.336ZM201.282 29.336C199.602 29.336 198.174 29.0373 196.998 28.44C195.841 27.8427 194.842 27.0587 194.002 26.088L196.494 23.68C197.166 24.464 197.913 25.0613 198.734 25.472C199.574 25.8827 200.498 26.088 201.506 26.088C202.645 26.088 203.503 25.8453 204.082 25.36C204.661 24.856 204.95 24.184 204.95 23.344C204.95 22.6907 204.763 22.1587 204.39 21.748C204.017 21.3373 203.317 21.0387 202.29 20.852L200.442 20.572C196.541 19.956 194.59 18.0613 194.59 14.888C194.59 14.0107 194.749 13.2173 195.066 12.508C195.402 11.7987 195.878 11.192 196.494 10.688C197.11 10.184 197.847 9.80133 198.706 9.54C199.583 9.26 200.573 9.12 201.674 9.12C203.149 9.12 204.437 9.36267 205.538 9.848C206.639 10.3333 207.582 11.052 208.366 12.004L205.846 14.384C205.361 13.7867 204.773 13.3013 204.082 12.928C203.391 12.5547 202.523 12.368 201.478 12.368C200.414 12.368 199.611 12.5733 199.07 12.984C198.547 13.376 198.286 13.936 198.286 14.664C198.286 15.4107 198.501 15.9613 198.93 16.316C199.359 16.6707 200.05 16.932 201.002 17.1L202.822 17.436C204.801 17.7907 206.257 18.4253 207.19 19.34C208.142 20.236 208.618 21.496 208.618 23.12C208.618 24.0533 208.45 24.9027 208.114 25.668C207.797 26.4147 207.321 27.068 206.686 27.628C206.07 28.1693 205.305 28.5893 204.39 28.888C203.494 29.1867 202.458 29.336 201.282 29.336ZM218.007 29.336C216.925 29.336 215.954 29.1587 215.095 28.804C214.255 28.4307 213.537 27.9173 212.939 27.264C212.361 26.592 211.913 25.7893 211.595 24.856C211.278 23.904 211.119 22.84 211.119 21.664C211.119 20.5067 211.269 19.4613 211.567 18.528C211.885 17.5947 212.333 16.8013 212.911 16.148C213.49 15.476 214.199 14.9627 215.039 14.608C215.879 14.2347 216.831 14.048 217.895 14.048C219.034 14.048 220.023 14.244 220.863 14.636C221.703 15.028 222.394 15.56 222.935 16.232C223.477 16.904 223.878 17.688 224.139 18.584C224.419 19.4613 224.559 20.404 224.559 21.412V22.588H214.843V22.952C214.843 24.016 215.142 24.8747 215.739 25.528C216.337 26.1627 217.223 26.48 218.399 26.48C219.295 26.48 220.023 26.2933 220.583 25.92C221.162 25.5467 221.675 25.0707 222.123 24.492L224.055 26.648C223.458 27.488 222.637 28.1507 221.591 28.636C220.565 29.1027 219.37 29.336 218.007 29.336ZM217.951 16.736C216.999 16.736 216.243 17.0533 215.683 17.688C215.123 18.3227 214.843 19.144 214.843 20.152V20.376H220.835V20.124C220.835 19.116 220.583 18.304 220.079 17.688C219.594 17.0533 218.885 16.736 217.951 16.736ZM227.713 29V14.384H231.297V16.82H231.437C231.717 16.0547 232.165 15.4013 232.781 14.86C233.397 14.3187 234.255 14.048 235.357 14.048C236.365 14.048 237.233 14.2907 237.961 14.776C238.689 15.2613 239.23 15.9987 239.585 16.988H239.641C239.902 16.1667 240.415 15.476 241.181 14.916C241.965 14.3373 242.945 14.048 244.121 14.048C245.558 14.048 246.659 14.5427 247.425 15.532C248.209 16.5213 248.601 17.9307 248.601 19.76V29H245.017V20.124C245.017 18.0333 244.233 16.988 242.665 16.988C242.31 16.988 241.965 17.044 241.629 17.156C241.311 17.2493 241.022 17.3987 240.761 17.604C240.518 17.7907 240.322 18.0333 240.173 18.332C240.023 18.612 239.949 18.948 239.949 19.34V29H236.365V20.124C236.365 18.0333 235.581 16.988 234.013 16.988C233.677 16.988 233.341 17.044 233.005 17.156C232.687 17.2493 232.398 17.3987 232.137 17.604C231.894 17.7907 231.689 18.0333 231.521 18.332C231.371 18.612 231.297 18.948 231.297 19.34V29H227.713ZM254.36 12.256C253.613 12.256 253.072 12.088 252.736 11.752C252.419 11.416 252.26 10.9867 252.26 10.464V9.904C252.26 9.38133 252.419 8.952 252.736 8.616C253.072 8.28 253.613 8.112 254.36 8.112C255.088 8.112 255.62 8.28 255.956 8.616C256.292 8.952 256.46 9.38133 256.46 9.904V10.464C256.46 10.9867 256.292 11.416 255.956 11.752C255.62 12.088 255.088 12.256 254.36 12.256ZM252.568 14.384H256.152V29H252.568V14.384ZM260.53 9.456H269.574C270.377 9.456 271.096 9.57733 271.73 9.82C272.384 10.0627 272.934 10.3987 273.382 10.828C273.83 11.2573 274.166 11.7893 274.39 12.424C274.633 13.04 274.754 13.7213 274.754 14.468C274.754 15.2147 274.652 15.8493 274.446 16.372C274.26 16.876 273.998 17.296 273.662 17.632C273.345 17.968 272.972 18.22 272.542 18.388C272.132 18.556 271.702 18.6493 271.254 18.668V18.836C271.684 18.836 272.141 18.92 272.626 19.088C273.13 19.256 273.588 19.5267 273.998 19.9C274.428 20.2547 274.782 20.7213 275.062 21.3C275.342 21.86 275.482 22.56 275.482 23.4C275.482 24.184 275.352 24.9213 275.09 25.612C274.848 26.284 274.502 26.872 274.054 27.376C273.606 27.88 273.074 28.2813 272.458 28.58C271.842 28.86 271.17 29 270.442 29H260.53V9.456ZM264.226 25.864H269.378C270.088 25.864 270.638 25.6867 271.03 25.332C271.422 24.9587 271.618 24.4267 271.618 23.736V22.784C271.618 22.0933 271.422 21.5613 271.03 21.188C270.638 20.8147 270.088 20.628 269.378 20.628H264.226V25.864ZM264.226 17.604H268.79C269.462 17.604 269.985 17.4267 270.358 17.072C270.732 16.6987 270.918 16.1853 270.918 15.532V14.664C270.918 14.0107 270.732 13.5067 270.358 13.152C269.985 12.7787 269.462 12.592 268.79 12.592H264.226V17.604ZM284.669 29.336C283.623 29.336 282.681 29.1587 281.841 28.804C281.019 28.4493 280.31 27.936 279.713 27.264C279.134 26.592 278.686 25.7893 278.369 24.856C278.051 23.904 277.893 22.84 277.893 21.664C277.893 20.488 278.051 19.4333 278.369 18.5C278.686 17.5667 279.134 16.7733 279.713 16.12C280.31 15.448 281.019 14.9347 281.841 14.58C282.681 14.2253 283.623 14.048 284.669 14.048C285.714 14.048 286.657 14.2253 287.497 14.58C288.337 14.9347 289.046 15.448 289.625 16.12C290.222 16.7733 290.679 17.5667 290.997 18.5C291.314 19.4333 291.473 20.488 291.473 21.664C291.473 22.84 291.314 23.904 290.997 24.856C290.679 25.7893 290.222 26.592 289.625 27.264C289.046 27.936 288.337 28.4493 287.497 28.804C286.657 29.1587 285.714 29.336 284.669 29.336ZM284.669 26.452C285.621 26.452 286.367 26.1627 286.909 25.584C287.45 25.0053 287.721 24.156 287.721 23.036V20.32C287.721 19.2187 287.45 18.3787 286.909 17.8C286.367 17.2213 285.621 16.932 284.669 16.932C283.735 16.932 282.998 17.2213 282.457 17.8C281.915 18.3787 281.645 19.2187 281.645 20.32V23.036C281.645 24.156 281.915 25.0053 282.457 25.584C282.998 26.1627 283.735 26.452 284.669 26.452ZM298.234 29C297.002 29 296.097 28.692 295.518 28.076C294.939 27.46 294.65 26.592 294.65 25.472V8.28H298.234V26.144H300.166V29H298.234ZM311.953 26.564H311.813C311.551 27.404 311.057 28.076 310.329 28.58C309.601 29.084 308.751 29.336 307.781 29.336C305.933 29.336 304.514 28.6733 303.525 27.348C302.554 26.0227 302.069 24.128 302.069 21.664C302.069 19.2187 302.554 17.3427 303.525 16.036C304.514 14.7107 305.933 14.048 307.781 14.048C308.751 14.048 309.601 14.3 310.329 14.804C311.057 15.2893 311.551 15.952 311.813 16.792H311.953V8.28H315.537V29H311.953V26.564ZM308.929 26.368C309.787 26.368 310.506 26.1627 311.085 25.752C311.663 25.3413 311.953 24.7533 311.953 23.988V19.34C311.953 18.6307 311.663 18.0613 311.085 17.632C310.506 17.2027 309.787 16.988 308.929 16.988C307.995 16.988 307.239 17.3053 306.661 17.94C306.101 18.556 305.821 19.3867 305.821 20.432V22.952C305.821 23.9973 306.101 24.828 306.661 25.444C307.239 26.06 307.995 26.368 308.929 26.368ZM1.68 65V63.04H4.424V47.416H1.68V45.456H9.52V47.416H6.776V63.04H9.52V65H1.68ZM13.8149 45.456H21.8509C23.4749 45.456 24.7443 45.9133 25.6589 46.828C26.5923 47.7427 27.0589 48.9653 27.0589 50.496C27.0589 51.224 26.9563 51.84 26.7509 52.344C26.5456 52.848 26.2843 53.268 25.9669 53.604C25.6496 53.9213 25.3043 54.164 24.9309 54.332C24.5576 54.4813 24.2123 54.584 23.8949 54.64V54.808C24.2496 54.8267 24.6416 54.92 25.0709 55.088C25.5189 55.256 25.9389 55.5267 26.3309 55.9C26.7229 56.2547 27.0496 56.7213 27.3109 57.3C27.5909 57.86 27.7309 58.5413 27.7309 59.344C27.7309 60.1467 27.6003 60.8933 27.3389 61.584C27.0963 62.2747 26.7509 62.872 26.3029 63.376C25.8549 63.88 25.3229 64.2813 24.7069 64.58C24.0909 64.86 23.4189 65 22.6909 65H13.8149V45.456ZM16.1669 62.928H21.9629C22.9709 62.928 23.7643 62.676 24.3429 62.172C24.9216 61.6493 25.2109 60.8933 25.2109 59.904V58.952C25.2109 57.9627 24.9216 57.216 24.3429 56.712C23.7643 56.1893 22.9709 55.928 21.9629 55.928H16.1669V62.928ZM16.1669 53.912H21.5709C22.5043 53.912 23.2323 53.6787 23.7549 53.212C24.2776 52.7453 24.5389 52.0733 24.5389 51.196V50.244C24.5389 49.3667 24.2776 48.6947 23.7549 48.228C23.2323 47.7613 22.5043 47.528 21.5709 47.528H16.1669V53.912ZM47.3399 48.536H47.1999L45.5479 51.812L40.8719 60.324L36.1959 51.812L34.5439 48.536H34.4039V65H32.1079V45.456H35.2439L40.8439 55.984H40.9839L46.6119 45.456H49.6359V65H47.3399V48.536ZM61.4478 65V45.456H69.2318C70.9864 45.456 72.3304 45.96 73.2638 46.968C74.2158 47.9573 74.6918 49.32 74.6918 51.056C74.6918 52.792 74.2158 54.164 73.2638 55.172C72.3304 56.1613 70.9864 56.656 69.2318 56.656H63.7998V65H61.4478ZM63.7998 54.584H69.2318C70.1651 54.584 70.8838 54.3413 71.3878 53.856C71.9104 53.3707 72.1718 52.68 72.1718 51.784V50.328C72.1718 49.432 71.9104 48.7413 71.3878 48.256C70.8838 47.7707 70.1651 47.528 69.2318 47.528H63.7998V54.584ZM80.5842 65C79.8002 65 79.2029 64.7853 78.7922 64.356C78.4002 63.908 78.2042 63.348 78.2042 62.676V44.28H80.4442V63.04H82.5722V65H80.5842ZM91.2651 65.336C90.2758 65.336 89.3798 65.1587 88.5771 64.804C87.7931 64.4493 87.1118 63.9453 86.5331 63.292C85.9731 62.62 85.5345 61.8267 85.2171 60.912C84.9185 59.9787 84.7691 58.9333 84.7691 57.776C84.7691 56.6373 84.9185 55.6013 85.2171 54.668C85.5345 53.7347 85.9731 52.9413 86.5331 52.288C87.1118 51.616 87.7931 51.1027 88.5771 50.748C89.3798 50.3933 90.2758 50.216 91.2651 50.216C92.2358 50.216 93.1038 50.3933 93.8691 50.748C94.6345 51.1027 95.2878 51.5973 95.8291 52.232C96.3705 52.848 96.7811 53.5853 97.0611 54.444C97.3598 55.3027 97.5091 56.2453 97.5091 57.272V58.336H87.1211V59.008C87.1211 59.624 87.2145 60.2027 87.4011 60.744C87.6065 61.2667 87.8865 61.724 88.2411 62.116C88.6145 62.508 89.0625 62.816 89.5851 63.04C90.1265 63.264 90.7331 63.376 91.4051 63.376C92.3198 63.376 93.1131 63.1613 93.7851 62.732C94.4758 62.3027 95.0078 61.6867 95.3811 60.884L96.9771 62.032C96.5105 63.0213 95.7825 63.824 94.7931 64.44C93.8038 65.0373 92.6278 65.336 91.2651 65.336ZM91.2651 52.092C90.6491 52.092 90.0891 52.204 89.5851 52.428C89.0811 52.6333 88.6425 52.932 88.2691 53.324C87.9145 53.716 87.6345 54.1827 87.4291 54.724C87.2238 55.2467 87.1211 55.8253 87.1211 56.46V56.656H95.1011V56.348C95.1011 55.06 94.7465 54.0333 94.0371 53.268C93.3465 52.484 92.4225 52.092 91.2651 52.092ZM99.0802 65L104.428 57.72L99.3042 50.552H101.936L105.604 55.928H105.688L109.496 50.552H111.988L106.892 57.552L112.1 65H109.468L105.716 59.344H105.632L101.572 65H99.0802ZM127.393 65.336C125.806 65.336 124.453 65.0373 123.333 64.44C122.213 63.824 121.261 62.984 120.477 61.92L122.213 60.464C122.903 61.3787 123.669 62.0787 124.509 62.564C125.349 63.0307 126.338 63.264 127.477 63.264C128.877 63.264 129.941 62.928 130.669 62.256C131.415 61.584 131.789 60.688 131.789 59.568C131.789 58.6347 131.509 57.916 130.949 57.412C130.389 56.908 129.465 56.5067 128.177 56.208L126.581 55.844C124.789 55.4333 123.417 54.8173 122.465 53.996C121.531 53.156 121.065 51.98 121.065 50.468C121.065 49.6093 121.223 48.844 121.541 48.172C121.858 47.5 122.297 46.94 122.857 46.492C123.435 46.044 124.117 45.708 124.901 45.484C125.703 45.2413 126.581 45.12 127.533 45.12C129.007 45.12 130.267 45.3907 131.313 45.932C132.377 46.4733 133.273 47.2667 134.001 48.312L132.237 49.6C131.695 48.8533 131.042 48.2653 130.277 47.836C129.511 47.4067 128.559 47.192 127.421 47.192C126.17 47.192 125.181 47.4627 124.453 48.004C123.743 48.5267 123.389 49.32 123.389 50.384C123.389 51.3173 123.687 52.0267 124.285 52.512C124.901 52.9787 125.825 53.352 127.057 53.632L128.653 53.996C130.575 54.4253 131.966 55.0787 132.825 55.956C133.683 56.8333 134.113 58 134.113 59.456C134.113 60.352 133.954 61.164 133.637 61.892C133.338 62.62 132.899 63.236 132.321 63.74C131.742 64.244 131.033 64.636 130.193 64.916C129.371 65.196 128.438 65.336 127.393 65.336ZM148.45 65C147.61 65 147.004 64.776 146.63 64.328C146.276 63.88 146.052 63.32 145.958 62.648H145.818C145.501 63.544 144.978 64.216 144.25 64.664C143.522 65.112 142.654 65.336 141.646 65.336C140.116 65.336 138.921 64.944 138.062 64.16C137.222 63.376 136.802 62.312 136.802 60.968C136.802 59.6053 137.297 58.56 138.286 57.832C139.294 57.104 140.853 56.74 142.962 56.74H145.818V55.312C145.818 54.2853 145.538 53.5013 144.978 52.96C144.418 52.4187 143.56 52.148 142.402 52.148C141.525 52.148 140.788 52.344 140.19 52.736C139.612 53.128 139.126 53.6507 138.734 54.304L137.39 53.044C137.782 52.26 138.408 51.5973 139.266 51.056C140.125 50.496 141.208 50.216 142.514 50.216C144.269 50.216 145.632 50.6453 146.602 51.504C147.573 52.3627 148.058 53.5573 148.058 55.088V63.04H149.71V65H148.45ZM142.01 63.432C142.57 63.432 143.084 63.3667 143.55 63.236C144.017 63.1053 144.418 62.9187 144.754 62.676C145.09 62.4333 145.352 62.1533 145.538 61.836C145.725 61.5187 145.818 61.1733 145.818 60.8V58.42H142.85C141.562 58.42 140.62 58.6067 140.022 58.98C139.444 59.3533 139.154 59.8947 139.154 60.604V61.192C139.154 61.9013 139.406 62.452 139.91 62.844C140.433 63.236 141.133 63.432 142.01 63.432ZM152.907 65V50.552H155.147V52.904H155.259C155.614 52.0827 156.109 51.4293 156.743 50.944C157.397 50.4587 158.265 50.216 159.347 50.216C160.841 50.216 162.017 50.7013 162.875 51.672C163.753 52.624 164.191 53.9773 164.191 55.732V65H161.951V56.124C161.951 53.5293 160.859 52.232 158.675 52.232C158.227 52.232 157.789 52.288 157.359 52.4C156.949 52.512 156.575 52.68 156.239 52.904C155.903 53.128 155.633 53.4173 155.427 53.772C155.241 54.108 155.147 54.5093 155.147 54.976V65H152.907ZM173.161 65.336C171.817 65.336 170.688 65.084 169.773 64.58C168.877 64.0573 168.103 63.3667 167.449 62.508L169.045 61.22C169.605 61.9293 170.231 62.48 170.921 62.872C171.612 63.2453 172.415 63.432 173.329 63.432C174.281 63.432 175.019 63.2267 175.541 62.816C176.083 62.4053 176.353 61.8267 176.353 61.08C176.353 60.52 176.167 60.044 175.793 59.652C175.439 59.2413 174.785 58.9613 173.833 58.812L172.685 58.644C172.013 58.5507 171.397 58.4107 170.837 58.224C170.277 58.0187 169.783 57.7573 169.353 57.44C168.943 57.104 168.616 56.6933 168.373 56.208C168.149 55.7227 168.037 55.144 168.037 54.472C168.037 53.7627 168.168 53.1467 168.429 52.624C168.691 52.0827 169.045 51.6347 169.493 51.28C169.96 50.9253 170.511 50.664 171.145 50.496C171.78 50.3093 172.461 50.216 173.189 50.216C174.365 50.216 175.345 50.4213 176.129 50.832C176.932 51.2427 177.632 51.812 178.229 52.54L176.745 53.884C176.428 53.436 175.961 53.0347 175.345 52.68C174.729 52.3067 173.955 52.12 173.021 52.12C172.088 52.12 171.379 52.3253 170.893 52.736C170.427 53.128 170.193 53.6693 170.193 54.36C170.193 55.0693 170.427 55.5827 170.893 55.9C171.379 56.2173 172.069 56.4507 172.965 56.6L174.085 56.768C175.691 57.0107 176.829 57.4773 177.501 58.168C178.173 58.84 178.509 59.7267 178.509 60.828C178.509 62.228 178.033 63.3293 177.081 64.132C176.129 64.9347 174.823 65.336 173.161 65.336ZM191.659 65H189.307V45.456H197.091C198.808 45.456 200.143 45.932 201.095 46.884C202.066 47.836 202.551 49.208 202.551 51C202.551 52.4373 202.215 53.6227 201.543 54.556C200.89 55.4707 199.919 56.0773 198.631 56.376L203.111 65H200.451L196.223 56.6H191.659V65ZM197.091 54.584C198.024 54.584 198.743 54.3413 199.247 53.856C199.77 53.3707 200.031 52.68 200.031 51.784V50.328C200.031 49.432 199.77 48.7413 199.247 48.256C198.743 47.7707 198.024 47.528 197.091 47.528H191.659V54.584H197.091ZM212.015 65.336C211.026 65.336 210.13 65.1587 209.327 64.804C208.543 64.4493 207.862 63.9453 207.283 63.292C206.723 62.62 206.284 61.8267 205.967 60.912C205.668 59.9787 205.519 58.9333 205.519 57.776C205.519 56.6373 205.668 55.6013 205.967 54.668C206.284 53.7347 206.723 52.9413 207.283 52.288C207.862 51.616 208.543 51.1027 209.327 50.748C210.13 50.3933 211.026 50.216 212.015 50.216C212.986 50.216 213.854 50.3933 214.619 50.748C215.384 51.1027 216.038 51.5973 216.579 52.232C217.12 52.848 217.531 53.5853 217.811 54.444C218.11 55.3027 218.259 56.2453 218.259 57.272V58.336H207.871V59.008C207.871 59.624 207.964 60.2027 208.151 60.744C208.356 61.2667 208.636 61.724 208.991 62.116C209.364 62.508 209.812 62.816 210.335 63.04C210.876 63.264 211.483 63.376 212.155 63.376C213.07 63.376 213.863 63.1613 214.535 62.732C215.226 62.3027 215.758 61.6867 216.131 60.884L217.727 62.032C217.26 63.0213 216.532 63.824 215.543 64.44C214.554 65.0373 213.378 65.336 212.015 65.336ZM212.015 52.092C211.399 52.092 210.839 52.204 210.335 52.428C209.831 52.6333 209.392 52.932 209.019 53.324C208.664 53.716 208.384 54.1827 208.179 54.724C207.974 55.2467 207.871 55.8253 207.871 56.46V56.656H215.851V56.348C215.851 55.06 215.496 54.0333 214.787 53.268C214.096 52.484 213.172 52.092 212.015 52.092ZM234.13 66.596C234.13 68.0893 233.542 69.1813 232.366 69.872C231.209 70.5813 229.464 70.936 227.13 70.936C224.872 70.936 223.248 70.628 222.258 70.012C221.269 69.396 220.774 68.5187 220.774 67.38C220.774 66.596 220.98 65.98 221.39 65.532C221.801 65.1027 222.361 64.7853 223.07 64.58V64.272C222.212 63.8613 221.782 63.1893 221.782 62.256C221.782 61.528 222.016 60.9773 222.482 60.604C222.949 60.212 223.546 59.9227 224.274 59.736V59.624C223.416 59.2133 222.744 58.6253 222.258 57.86C221.792 57.0947 221.558 56.208 221.558 55.2C221.558 54.472 221.689 53.8 221.95 53.184C222.212 52.568 222.576 52.0453 223.042 51.616C223.528 51.168 224.097 50.8227 224.75 50.58C225.422 50.3373 226.169 50.216 226.99 50.216C228.017 50.216 228.932 50.4027 229.734 50.776V50.524C229.734 49.964 229.865 49.5067 230.126 49.152C230.388 48.7787 230.817 48.592 231.414 48.592H233.57V50.552H230.826V51.476C231.349 51.924 231.75 52.4653 232.03 53.1C232.329 53.716 232.478 54.416 232.478 55.2C232.478 55.928 232.348 56.6 232.086 57.216C231.825 57.832 231.452 58.364 230.966 58.812C230.5 59.2413 229.93 59.5773 229.258 59.82C228.586 60.0627 227.84 60.184 227.018 60.184C226.552 60.184 226.085 60.1373 225.618 60.044C225.133 60.1747 224.694 60.3707 224.302 60.632C223.91 60.8747 223.714 61.22 223.714 61.668C223.714 62.0973 223.92 62.3867 224.33 62.536C224.741 62.6853 225.273 62.76 225.926 62.76H229.006C230.798 62.76 232.096 63.1053 232.898 63.796C233.72 64.468 234.13 65.4013 234.13 66.596ZM232.03 66.764C232.03 66.1853 231.806 65.7187 231.358 65.364C230.929 65.028 230.154 64.86 229.034 64.86H224.218C223.322 65.2707 222.874 65.924 222.874 66.82C222.874 67.4547 223.108 67.996 223.574 68.444C224.06 68.892 224.872 69.116 226.01 69.116H228.082C229.333 69.116 230.304 68.92 230.994 68.528C231.685 68.136 232.03 67.548 232.03 66.764ZM227.018 58.392C227.97 58.392 228.726 58.168 229.286 57.72C229.846 57.2533 230.126 56.544 230.126 55.592V54.808C230.126 53.856 229.846 53.156 229.286 52.708C228.726 52.2413 227.97 52.008 227.018 52.008C226.066 52.008 225.31 52.2413 224.75 52.708C224.19 53.156 223.91 53.856 223.91 54.808V55.592C223.91 56.544 224.19 57.2533 224.75 57.72C225.31 58.168 226.066 58.392 227.018 58.392ZM245.538 62.648H245.426C245.277 62.984 245.09 63.32 244.866 63.656C244.661 63.9733 244.399 64.2627 244.082 64.524C243.765 64.7667 243.382 64.9627 242.934 65.112C242.486 65.2613 241.963 65.336 241.366 65.336C239.873 65.336 238.687 64.86 237.81 63.908C236.933 62.9373 236.494 61.5747 236.494 59.82V50.552H238.734V59.428C238.734 62.0227 239.835 63.32 242.038 63.32C242.486 63.32 242.915 63.264 243.326 63.152C243.755 63.04 244.129 62.872 244.446 62.648C244.782 62.424 245.043 62.144 245.23 61.808C245.435 61.4533 245.538 61.0333 245.538 60.548V50.552H247.778V65H245.538V62.648ZM254.928 65C254.144 65 253.547 64.7853 253.136 64.356C252.744 63.908 252.548 63.348 252.548 62.676V44.28H254.788V63.04H256.916V65H254.928ZM270.677 65C269.837 65 269.23 64.776 268.857 64.328C268.502 63.88 268.278 63.32 268.185 62.648H268.045C267.728 63.544 267.205 64.216 266.477 64.664C265.749 65.112 264.881 65.336 263.873 65.336C262.342 65.336 261.148 64.944 260.289 64.16C259.449 63.376 259.029 62.312 259.029 60.968C259.029 59.6053 259.524 58.56 260.513 57.832C261.521 57.104 263.08 56.74 265.189 56.74H268.045V55.312C268.045 54.2853 267.765 53.5013 267.205 52.96C266.645 52.4187 265.786 52.148 264.629 52.148C263.752 52.148 263.014 52.344 262.417 52.736C261.838 53.128 261.353 53.6507 260.961 54.304L259.617 53.044C260.009 52.26 260.634 51.5973 261.493 51.056C262.352 50.496 263.434 50.216 264.741 50.216C266.496 50.216 267.858 50.6453 268.829 51.504C269.8 52.3627 270.285 53.5573 270.285 55.088V63.04H271.937V65H270.677ZM264.237 63.432C264.797 63.432 265.31 63.3667 265.777 63.236C266.244 63.1053 266.645 62.9187 266.981 62.676C267.317 62.4333 267.578 62.1533 267.765 61.836C267.952 61.5187 268.045 61.1733 268.045 60.8V58.42H265.077C263.789 58.42 262.846 58.6067 262.249 58.98C261.67 59.3533 261.381 59.8947 261.381 60.604V61.192C261.381 61.9013 261.633 62.452 262.137 62.844C262.66 63.236 263.36 63.432 264.237 63.432ZM275.134 65V50.552H277.374V53.212H277.514C277.775 52.5213 278.242 51.9053 278.914 51.364C279.586 50.8227 280.51 50.552 281.686 50.552H282.554V52.792H281.238C280.025 52.792 279.073 53.0253 278.382 53.492C277.71 53.94 277.374 54.5093 277.374 55.2V65H275.134Z" fill="white"/>
<path d="M18.18 118.38H7.704V129H2.952V103.872H7.704V114.168H18.18V103.872H22.932V129H18.18V118.38ZM36.135 129.432C34.743 129.432 33.495 129.204 32.391 128.748C31.311 128.268 30.387 127.608 29.619 126.768C28.875 125.904 28.299 124.872 27.891 123.672C27.483 122.448 27.279 121.08 27.279 119.568C27.279 118.08 27.471 116.736 27.855 115.536C28.263 114.336 28.839 113.316 29.583 112.476C30.327 111.612 31.239 110.952 32.319 110.496C33.399 110.016 34.623 109.776 35.991 109.776C37.455 109.776 38.727 110.028 39.807 110.532C40.887 111.036 41.775 111.72 42.471 112.584C43.167 113.448 43.683 114.456 44.019 115.608C44.379 116.736 44.559 117.948 44.559 119.244V120.756H32.067V121.224C32.067 122.592 32.451 123.696 33.219 124.536C33.987 125.352 35.127 125.76 36.639 125.76C37.791 125.76 38.727 125.52 39.447 125.04C40.191 124.56 40.851 123.948 41.427 123.204L43.911 125.976C43.143 127.056 42.087 127.908 40.743 128.532C39.423 129.132 37.887 129.432 36.135 129.432ZM36.063 113.232C34.839 113.232 33.867 113.64 33.147 114.456C32.427 115.272 32.067 116.328 32.067 117.624V117.912H39.771V117.588C39.771 116.292 39.447 115.248 38.799 114.456C38.175 113.64 37.263 113.232 36.063 113.232ZM62.4372 129C61.4292 129 60.6252 128.712 60.0252 128.136C59.4492 127.536 59.0892 126.744 58.9452 125.76H58.7292C58.4172 126.984 57.7812 127.908 56.8212 128.532C55.8612 129.132 54.6732 129.432 53.2572 129.432C51.3372 129.432 49.8612 128.928 48.8292 127.92C47.7972 126.912 47.2812 125.568 47.2812 123.888C47.2812 121.944 47.9772 120.504 49.3692 119.568C50.7612 118.608 52.7412 118.128 55.3092 118.128H58.5132V116.76C58.5132 115.704 58.2372 114.888 57.6852 114.312C57.1332 113.736 56.2452 113.448 55.0212 113.448C53.9412 113.448 53.0652 113.688 52.3932 114.168C51.7452 114.624 51.1932 115.176 50.7372 115.824L48.0012 113.376C48.6972 112.296 49.6212 111.432 50.7732 110.784C51.9252 110.112 53.4492 109.776 55.3452 109.776C57.8892 109.776 59.8212 110.352 61.1412 111.504C62.4612 112.656 63.1212 114.312 63.1212 116.472V125.328H64.9932V129H62.4372ZM54.8052 126.084C55.8372 126.084 56.7132 125.856 57.4332 125.4C58.1532 124.944 58.5132 124.272 58.5132 123.384V120.9H55.5612C53.1612 120.9 51.9612 121.668 51.9612 123.204V123.816C51.9612 124.584 52.2012 125.16 52.6812 125.544C53.1852 125.904 53.8932 126.084 54.8052 126.084ZM80.3866 125.868H80.2066C79.8706 126.948 79.2346 127.812 78.2986 128.46C77.3626 129.108 76.2706 129.432 75.0226 129.432C72.6466 129.432 70.8226 128.58 69.5506 126.876C68.3026 125.172 67.6786 122.736 67.6786 119.568C67.6786 116.424 68.3026 114.012 69.5506 112.332C70.8226 110.628 72.6466 109.776 75.0226 109.776C76.2706 109.776 77.3626 110.1 78.2986 110.748C79.2346 111.372 79.8706 112.224 80.2066 113.304H80.3866V102.36H84.9946V129H80.3866V125.868ZM76.4986 125.616C77.6026 125.616 78.5266 125.352 79.2706 124.824C80.0146 124.296 80.3866 123.54 80.3866 122.556V116.58C80.3866 115.668 80.0146 114.936 79.2706 114.384C78.5266 113.832 77.6026 113.556 76.4986 113.556C75.2986 113.556 74.3266 113.964 73.5826 114.78C72.8626 115.572 72.5026 116.64 72.5026 117.984V121.224C72.5026 122.568 72.8626 123.636 73.5826 124.428C74.3266 125.22 75.2986 125.616 76.4986 125.616ZM92.6125 107.472C91.6525 107.472 90.9565 107.256 90.5245 106.824C90.1165 106.392 89.9125 105.84 89.9125 105.168V104.448C89.9125 103.776 90.1165 103.224 90.5245 102.792C90.9565 102.36 91.6525 102.144 92.6125 102.144C93.5485 102.144 94.2325 102.36 94.6645 102.792C95.0965 103.224 95.3125 103.776 95.3125 104.448V105.168C95.3125 105.84 95.0965 106.392 94.6645 106.824C94.2325 107.256 93.5485 107.472 92.6125 107.472ZM90.3085 110.208H94.9165V129H90.3085V110.208ZM100.258 129V110.208H104.866V113.34H105.046C105.43 112.332 106.03 111.492 106.846 110.82C107.686 110.124 108.838 109.776 110.302 109.776C112.246 109.776 113.734 110.412 114.766 111.684C115.798 112.956 116.314 114.768 116.314 117.12V129H111.706V117.588C111.706 116.244 111.466 115.236 110.986 114.564C110.506 113.892 109.714 113.556 108.61 113.556C108.13 113.556 107.662 113.628 107.206 113.772C106.774 113.892 106.378 114.084 106.018 114.348C105.682 114.588 105.406 114.9 105.19 115.284C104.974 115.644 104.866 116.076 104.866 116.58V129H100.258ZM138.378 130.584C138.378 131.568 138.198 132.432 137.838 133.176C137.502 133.944 136.938 134.58 136.146 135.084C135.354 135.588 134.334 135.972 133.086 136.236C131.838 136.5 130.314 136.632 128.514 136.632C126.93 136.632 125.586 136.524 124.482 136.308C123.378 136.116 122.466 135.828 121.746 135.444C121.05 135.084 120.546 134.628 120.234 134.076C119.922 133.524 119.766 132.9 119.766 132.204C119.766 131.148 120.054 130.32 120.63 129.72C121.23 129.144 122.058 128.772 123.114 128.604V128.208C122.346 128.016 121.746 127.644 121.314 127.092C120.906 126.516 120.702 125.844 120.702 125.076C120.702 124.596 120.798 124.176 120.99 123.816C121.182 123.432 121.434 123.108 121.746 122.844C122.082 122.58 122.454 122.364 122.862 122.196C123.27 122.004 123.702 121.86 124.158 121.764V121.62C123.006 121.092 122.142 120.36 121.566 119.424C121.014 118.488 120.738 117.396 120.738 116.148C120.738 114.228 121.398 112.692 122.718 111.54C124.038 110.364 125.97 109.776 128.514 109.776C129.09 109.776 129.654 109.812 130.206 109.884C130.782 109.956 131.31 110.076 131.79 110.244V109.632C131.79 107.808 132.678 106.896 134.454 106.896H137.37V110.424H133.374V110.928C134.358 111.48 135.09 112.2 135.57 113.088C136.05 113.976 136.29 114.996 136.29 116.148C136.29 118.044 135.63 119.568 134.31 120.72C133.014 121.872 131.082 122.448 128.514 122.448C127.41 122.448 126.45 122.34 125.634 122.124C125.274 122.292 124.962 122.52 124.698 122.808C124.434 123.072 124.302 123.408 124.302 123.816C124.302 124.752 125.118 125.22 126.75 125.22H131.79C134.094 125.22 135.762 125.7 136.794 126.66C137.85 127.596 138.378 128.904 138.378 130.584ZM134.058 131.124C134.058 130.524 133.818 130.056 133.338 129.72C132.858 129.384 132.03 129.216 130.854 129.216H124.446C123.798 129.696 123.474 130.344 123.474 131.16C123.474 131.88 123.774 132.444 124.374 132.852C124.974 133.26 125.994 133.464 127.434 133.464H129.738C131.25 133.464 132.342 133.272 133.014 132.888C133.71 132.504 134.058 131.916 134.058 131.124ZM128.514 119.316C130.77 119.316 131.898 118.356 131.898 116.436V115.824C131.898 113.904 130.77 112.944 128.514 112.944C126.258 112.944 125.13 113.904 125.13 115.824V116.436C125.13 118.356 126.258 119.316 128.514 119.316ZM148.971 120.324V115.752H159.267V120.324H148.971ZM179.307 114.024C180.747 114.024 181.803 113.736 182.475 113.16C183.171 112.56 183.519 111.804 183.519 110.892V110.64C183.519 109.608 183.183 108.804 182.511 108.228C181.863 107.628 180.963 107.328 179.811 107.328C178.707 107.328 177.723 107.592 176.859 108.12C176.019 108.648 175.287 109.392 174.663 110.352L171.639 107.616C172.071 107.04 172.539 106.5 173.043 105.996C173.571 105.468 174.171 105.024 174.843 104.664C175.515 104.28 176.271 103.98 177.111 103.764C177.951 103.548 178.899 103.44 179.955 103.44C181.227 103.44 182.379 103.596 183.411 103.908C184.467 104.196 185.367 104.628 186.111 105.204C186.879 105.78 187.467 106.476 187.875 107.292C188.283 108.084 188.487 108.984 188.487 109.992C188.487 110.808 188.355 111.54 188.091 112.188C187.851 112.836 187.503 113.4 187.047 113.88C186.615 114.36 186.099 114.756 185.499 115.068C184.923 115.356 184.311 115.572 183.663 115.716V115.932C184.383 116.076 185.067 116.304 185.715 116.616C186.363 116.928 186.915 117.348 187.371 117.876C187.851 118.38 188.223 118.98 188.487 119.676C188.775 120.372 188.919 121.164 188.919 122.052C188.919 123.156 188.691 124.164 188.235 125.076C187.803 125.988 187.179 126.768 186.363 127.416C185.547 128.064 184.575 128.568 183.447 128.928C182.319 129.264 181.059 129.432 179.667 129.432C178.443 129.432 177.363 129.3 176.427 129.036C175.491 128.796 174.663 128.46 173.943 128.028C173.247 127.596 172.635 127.104 172.107 126.552C171.579 125.976 171.123 125.376 170.739 124.752L174.231 122.088C174.519 122.592 174.831 123.06 175.167 123.492C175.503 123.9 175.887 124.26 176.319 124.572C176.751 124.884 177.243 125.124 177.795 125.292C178.347 125.46 178.971 125.544 179.667 125.544C181.059 125.544 182.127 125.208 182.871 124.536C183.615 123.864 183.987 122.94 183.987 121.764V121.512C183.987 120.36 183.579 119.484 182.763 118.884C181.971 118.284 180.819 117.984 179.307 117.984H176.823V114.024H179.307ZM202.369 129.432C200.929 129.432 199.645 129.204 198.517 128.748C197.389 128.268 196.429 127.608 195.637 126.768C194.845 125.904 194.245 124.872 193.837 123.672C193.429 122.448 193.225 121.08 193.225 119.568C193.225 117.768 193.489 116.076 194.017 114.492C194.569 112.884 195.277 111.42 196.141 110.1C197.005 108.756 197.965 107.568 199.021 106.536C200.101 105.48 201.169 104.592 202.225 103.872H208.633C207.145 104.928 205.813 105.948 204.637 106.932C203.485 107.916 202.465 108.912 201.577 109.92C200.713 110.928 199.993 111.984 199.417 113.088C198.865 114.168 198.445 115.344 198.157 116.616L198.445 116.688C198.685 116.208 198.961 115.752 199.273 115.32C199.609 114.864 200.005 114.468 200.461 114.132C200.917 113.772 201.445 113.496 202.045 113.304C202.645 113.088 203.341 112.98 204.133 112.98C205.165 112.98 206.125 113.16 207.013 113.52C207.925 113.88 208.705 114.408 209.353 115.104C210.025 115.776 210.541 116.592 210.901 117.552C211.285 118.512 211.477 119.58 211.477 120.756C211.477 122.028 211.261 123.192 210.829 124.248C210.397 125.304 209.785 126.216 208.993 126.984C208.201 127.752 207.241 128.352 206.113 128.784C205.009 129.216 203.761 129.432 202.369 129.432ZM202.369 125.688C203.689 125.688 204.721 125.328 205.465 124.608C206.233 123.864 206.617 122.808 206.617 121.44V120.9C206.617 119.532 206.233 118.488 205.465 117.768C204.721 117.024 203.689 116.652 202.369 116.652C201.025 116.652 199.981 117.024 199.237 117.768C198.493 118.488 198.121 119.532 198.121 120.9V121.44C198.121 122.808 198.493 123.864 199.237 124.608C199.981 125.328 201.025 125.688 202.369 125.688ZM224.219 110.208H228.827V113.304H228.971C229.307 112.224 229.943 111.372 230.879 110.748C231.815 110.1 232.907 109.776 234.155 109.776C236.555 109.776 238.379 110.628 239.627 112.332C240.899 114.012 241.535 116.424 241.535 119.568C241.535 122.736 240.899 125.172 239.627 126.876C238.379 128.58 236.555 129.432 234.155 129.432C232.907 129.432 231.815 129.108 230.879 128.46C229.967 127.812 229.331 126.948 228.971 125.868H228.827V136.2H224.219V110.208ZM232.679 125.616C233.879 125.616 234.851 125.22 235.595 124.428C236.339 123.636 236.711 122.568 236.711 121.224V117.984C236.711 116.64 236.339 115.572 235.595 114.78C234.851 113.964 233.879 113.556 232.679 113.556C231.575 113.556 230.651 113.832 229.907 114.384C229.187 114.936 228.827 115.668 228.827 116.58V122.556C228.827 123.54 229.187 124.296 229.907 124.824C230.651 125.352 231.575 125.616 232.679 125.616ZM243.297 129L249.705 119.46L243.441 110.208H248.697L252.585 116.436H252.729L256.581 110.208H261.477L255.105 119.532L261.513 129H256.257L252.297 122.52H252.153L248.193 129H243.297ZM5.083 158.204C4.063 158.204 3.196 158.023 2.482 157.66C1.77933 157.297 1.173 156.821 0.663 156.232L2.176 154.77C2.584 155.246 3.03733 155.609 3.536 155.858C4.046 156.107 4.607 156.232 5.219 156.232C5.91033 156.232 6.43167 156.085 6.783 155.79C7.13433 155.484 7.31 155.076 7.31 154.566C7.31 154.169 7.19667 153.846 6.97 153.597C6.74333 153.348 6.31833 153.166 5.695 153.053L4.573 152.883C2.20433 152.509 1.02 151.359 1.02 149.432C1.02 148.899 1.11633 148.418 1.309 147.987C1.513 147.556 1.802 147.188 2.176 146.882C2.55 146.576 2.99767 146.344 3.519 146.185C4.05167 146.015 4.65233 145.93 5.321 145.93C6.21633 145.93 6.99833 146.077 7.667 146.372C8.33567 146.667 8.908 147.103 9.384 147.681L7.854 149.126C7.55933 148.763 7.20233 148.469 6.783 148.242C6.36367 148.015 5.83667 147.902 5.202 147.902C4.556 147.902 4.06867 148.027 3.74 148.276C3.42267 148.514 3.264 148.854 3.264 149.296C3.264 149.749 3.39433 150.084 3.655 150.299C3.91567 150.514 4.335 150.673 4.913 150.775L6.018 150.979C7.21933 151.194 8.10333 151.58 8.67 152.135C9.248 152.679 9.537 153.444 9.537 154.43C9.537 154.997 9.435 155.512 9.231 155.977C9.03833 156.43 8.74933 156.827 8.364 157.167C7.99 157.496 7.52533 157.751 6.97 157.932C6.426 158.113 5.797 158.204 5.083 158.204ZM15.2376 158.204C14.5802 158.204 13.9909 158.096 13.4696 157.881C12.9596 157.654 12.5232 157.343 12.1606 156.946C11.8092 156.538 11.5372 156.051 11.3446 155.484C11.1519 154.906 11.0556 154.26 11.0556 153.546C11.0556 152.843 11.1462 152.209 11.3276 151.642C11.5202 151.075 11.7922 150.594 12.1436 150.197C12.4949 149.789 12.9256 149.477 13.4356 149.262C13.9456 149.035 14.5236 148.922 15.1696 148.922C15.8609 148.922 16.4616 149.041 16.9716 149.279C17.4816 149.517 17.9009 149.84 18.2296 150.248C18.5582 150.656 18.8019 151.132 18.9606 151.676C19.1306 152.209 19.2156 152.781 19.2156 153.393V154.107H13.3166V154.328C13.3166 154.974 13.4979 155.495 13.8606 155.892C14.2232 156.277 14.7616 156.47 15.4756 156.47C16.0196 156.47 16.4616 156.357 16.8016 156.13C17.1529 155.903 17.4646 155.614 17.7366 155.263L18.9096 156.572C18.5469 157.082 18.0482 157.484 17.4136 157.779C16.7902 158.062 16.0649 158.204 15.2376 158.204ZM15.2036 150.554C14.6256 150.554 14.1666 150.747 13.8266 151.132C13.4866 151.517 13.3166 152.016 13.3166 152.628V152.764H16.9546V152.611C16.9546 151.999 16.8016 151.506 16.4956 151.132C16.2009 150.747 15.7702 150.554 15.2036 150.554ZM24.6321 158.204C23.9747 158.204 23.3911 158.096 22.8811 157.881C22.3711 157.666 21.9404 157.354 21.5891 156.946C21.2491 156.538 20.9884 156.051 20.8071 155.484C20.6257 154.906 20.5351 154.26 20.5351 153.546C20.5351 152.832 20.6257 152.192 20.8071 151.625C20.9884 151.058 21.2491 150.577 21.5891 150.18C21.9404 149.772 22.3711 149.46 22.8811 149.245C23.3911 149.03 23.9747 148.922 24.6321 148.922C25.5274 148.922 26.2641 149.12 26.8421 149.517C27.4314 149.914 27.8564 150.463 28.1171 151.166L26.3321 151.965C26.2301 151.591 26.0374 151.285 25.7541 151.047C25.4821 150.798 25.1081 150.673 24.6321 150.673C24.0201 150.673 23.5611 150.866 23.2551 151.251C22.9604 151.636 22.8131 152.141 22.8131 152.764V154.379C22.8131 155.002 22.9604 155.507 23.2551 155.892C23.5611 156.266 24.0201 156.453 24.6321 156.453C25.1534 156.453 25.5557 156.323 25.8391 156.062C26.1224 155.79 26.3434 155.456 26.5021 155.059L28.1681 155.858C27.8734 156.64 27.4257 157.229 26.8251 157.626C26.2244 158.011 25.4934 158.204 24.6321 158.204ZM32.6169 158C31.8689 158 31.2966 157.807 30.8999 157.422C30.5146 157.025 30.3219 156.464 30.3219 155.739V150.86H29.0129V149.126H29.6929C30.0216 149.126 30.2426 149.052 30.3559 148.905C30.4806 148.746 30.5429 148.514 30.5429 148.208V146.695H32.4979V149.126H34.3169V150.86H32.4979V156.266H34.1809V158H32.6169ZM37.2923 147.834C36.839 147.834 36.5103 147.732 36.3063 147.528C36.1136 147.324 36.0173 147.063 36.0173 146.746V146.406C36.0173 146.089 36.1136 145.828 36.3063 145.624C36.5103 145.42 36.839 145.318 37.2923 145.318C37.7343 145.318 38.0573 145.42 38.2613 145.624C38.4653 145.828 38.5673 146.089 38.5673 146.406V146.746C38.5673 147.063 38.4653 147.324 38.2613 147.528C38.0573 147.732 37.7343 147.834 37.2923 147.834ZM36.2043 149.126H38.3803V158H36.2043V149.126ZM44.4215 158.204C43.7869 158.204 43.2145 158.096 42.7045 157.881C42.2059 157.666 41.7752 157.354 41.4125 156.946C41.0612 156.538 40.7892 156.051 40.5965 155.484C40.4039 154.906 40.3075 154.26 40.3075 153.546C40.3075 152.832 40.4039 152.192 40.5965 151.625C40.7892 151.058 41.0612 150.577 41.4125 150.18C41.7752 149.772 42.2059 149.46 42.7045 149.245C43.2145 149.03 43.7869 148.922 44.4215 148.922C45.0562 148.922 45.6285 149.03 46.1385 149.245C46.6485 149.46 47.0792 149.772 47.4305 150.18C47.7932 150.577 48.0709 151.058 48.2635 151.625C48.4562 152.192 48.5525 152.832 48.5525 153.546C48.5525 154.26 48.4562 154.906 48.2635 155.484C48.0709 156.051 47.7932 156.538 47.4305 156.946C47.0792 157.354 46.6485 157.666 46.1385 157.881C45.6285 158.096 45.0562 158.204 44.4215 158.204ZM44.4215 156.453C44.9995 156.453 45.4529 156.277 45.7815 155.926C46.1102 155.575 46.2745 155.059 46.2745 154.379V152.73C46.2745 152.061 46.1102 151.551 45.7815 151.2C45.4529 150.849 44.9995 150.673 44.4215 150.673C43.8549 150.673 43.4072 150.849 43.0785 151.2C42.7499 151.551 42.5855 152.061 42.5855 152.73V154.379C42.5855 155.059 42.7499 155.575 43.0785 155.926C43.4072 156.277 43.8549 156.453 44.4215 156.453ZM50.4816 158V149.126H52.6576V150.605H52.7426C52.924 150.129 53.2073 149.732 53.5926 149.415C53.9893 149.086 54.5333 148.922 55.2246 148.922C56.1426 148.922 56.8453 149.222 57.3326 149.823C57.82 150.424 58.0636 151.279 58.0636 152.39V158H55.8876V152.611C55.8876 151.976 55.7743 151.5 55.5476 151.183C55.321 150.866 54.947 150.707 54.4256 150.707C54.199 150.707 53.978 150.741 53.7626 150.809C53.5586 150.866 53.3716 150.956 53.2016 151.081C53.043 151.194 52.9126 151.342 52.8106 151.523C52.7086 151.693 52.6576 151.897 52.6576 152.135V158H50.4816ZM71.8204 152.985H66.8734V158H64.6294V146.134H66.8734V150.996H71.8204V146.134H74.0644V158H71.8204V152.985ZM80.2991 158.204C79.6418 158.204 79.0524 158.096 78.5311 157.881C78.0211 157.654 77.5848 157.343 77.2221 156.946C76.8708 156.538 76.5988 156.051 76.4061 155.484C76.2134 154.906 76.1171 154.26 76.1171 153.546C76.1171 152.843 76.2078 152.209 76.3891 151.642C76.5818 151.075 76.8538 150.594 77.2051 150.197C77.5564 149.789 77.9871 149.477 78.4971 149.262C79.0071 149.035 79.5851 148.922 80.2311 148.922C80.9224 148.922 81.5231 149.041 82.0331 149.279C82.5431 149.517 82.9624 149.84 83.2911 150.248C83.6198 150.656 83.8634 151.132 84.0221 151.676C84.1921 152.209 84.2771 152.781 84.2771 153.393V154.107H78.3781V154.328C78.3781 154.974 78.5594 155.495 78.9221 155.892C79.2848 156.277 79.8231 156.47 80.5371 156.47C81.0811 156.47 81.5231 156.357 81.8631 156.13C82.2144 155.903 82.5261 155.614 82.7981 155.263L83.9711 156.572C83.6084 157.082 83.1098 157.484 82.4751 157.779C81.8518 158.062 81.1264 158.204 80.2991 158.204ZM80.2651 150.554C79.6871 150.554 79.2281 150.747 78.8881 151.132C78.5481 151.517 78.3781 152.016 78.3781 152.628V152.764H82.0161V152.611C82.0161 151.999 81.8631 151.506 81.5571 151.132C81.2624 150.747 80.8318 150.554 80.2651 150.554ZM92.7196 158C92.2436 158 91.8639 157.864 91.5806 157.592C91.3086 157.309 91.1386 156.935 91.0706 156.47H90.9686C90.8213 157.048 90.5209 157.484 90.0676 157.779C89.6143 158.062 89.0533 158.204 88.3846 158.204C87.4779 158.204 86.7809 157.966 86.2936 157.49C85.8063 157.014 85.5626 156.379 85.5626 155.586C85.5626 154.668 85.8913 153.988 86.5486 153.546C87.2059 153.093 88.1409 152.866 89.3536 152.866H90.8666V152.22C90.8666 151.721 90.7363 151.336 90.4756 151.064C90.2149 150.792 89.7956 150.656 89.2176 150.656C88.7076 150.656 88.2939 150.769 87.9766 150.996C87.6706 151.211 87.4099 151.472 87.1946 151.778L85.9026 150.622C86.2313 150.112 86.6676 149.704 87.2116 149.398C87.7556 149.081 88.4753 148.922 89.3706 148.922C90.5719 148.922 91.4843 149.194 92.1076 149.738C92.7309 150.282 93.0426 151.064 93.0426 152.084V156.266H93.9266V158H92.7196ZM89.1156 156.623C89.6029 156.623 90.0166 156.515 90.3566 156.3C90.6966 156.085 90.8666 155.767 90.8666 155.348V154.175H89.4726C88.3393 154.175 87.7726 154.538 87.7726 155.263V155.552C87.7726 155.915 87.8859 156.187 88.1126 156.368C88.3506 156.538 88.6849 156.623 89.1156 156.623ZM101.196 156.521H101.111C100.952 157.031 100.652 157.439 100.21 157.745C99.7677 158.051 99.252 158.204 98.6627 158.204C97.5407 158.204 96.6794 157.802 96.0787 156.997C95.4894 156.192 95.1947 155.042 95.1947 153.546C95.1947 152.061 95.4894 150.922 96.0787 150.129C96.6794 149.324 97.5407 148.922 98.6627 148.922C99.252 148.922 99.7677 149.075 100.21 149.381C100.652 149.676 100.952 150.078 101.111 150.588H101.196V145.42H103.372V158H101.196V156.521ZM99.3597 156.402C99.881 156.402 100.317 156.277 100.669 156.028C101.02 155.779 101.196 155.422 101.196 154.957V152.135C101.196 151.704 101.02 151.359 100.669 151.098C100.317 150.837 99.881 150.707 99.3597 150.707C98.793 150.707 98.334 150.9 97.9827 151.285C97.6427 151.659 97.4727 152.163 97.4727 152.798V154.328C97.4727 154.963 97.6427 155.467 97.9827 155.841C98.334 156.215 98.793 156.402 99.3597 156.402ZM106.969 147.834C106.516 147.834 106.187 147.732 105.983 147.528C105.79 147.324 105.694 147.063 105.694 146.746V146.406C105.694 146.089 105.79 145.828 105.983 145.624C106.187 145.42 106.516 145.318 106.969 145.318C107.411 145.318 107.734 145.42 107.938 145.624C108.142 145.828 108.244 146.089 108.244 146.406V146.746C108.244 147.063 108.142 147.324 107.938 147.528C107.734 147.732 107.411 147.834 106.969 147.834ZM105.881 149.126H108.057V158H105.881V149.126ZM110.579 158V149.126H112.755V150.605H112.84C113.022 150.129 113.305 149.732 113.69 149.415C114.087 149.086 114.631 148.922 115.322 148.922C116.24 148.922 116.943 149.222 117.43 149.823C117.918 150.424 118.161 151.279 118.161 152.39V158H115.985V152.611C115.985 151.976 115.872 151.5 115.645 151.183C115.419 150.866 115.045 150.707 114.523 150.707C114.297 150.707 114.076 150.741 113.86 150.809C113.656 150.866 113.469 150.956 113.299 151.081C113.141 151.194 113.01 151.342 112.908 151.523C112.806 151.693 112.755 151.897 112.755 152.135V158H110.579ZM128.58 158.748C128.58 159.213 128.495 159.621 128.325 159.972C128.167 160.335 127.9 160.635 127.526 160.873C127.152 161.111 126.671 161.292 126.081 161.417C125.492 161.542 124.772 161.604 123.922 161.604C123.174 161.604 122.54 161.553 122.018 161.451C121.497 161.36 121.066 161.224 120.726 161.043C120.398 160.873 120.16 160.658 120.012 160.397C119.865 160.136 119.791 159.842 119.791 159.513C119.791 159.014 119.927 158.623 120.199 158.34C120.483 158.068 120.874 157.892 121.372 157.813V157.626C121.01 157.535 120.726 157.36 120.522 157.099C120.33 156.827 120.233 156.51 120.233 156.147C120.233 155.92 120.279 155.722 120.369 155.552C120.46 155.371 120.579 155.218 120.726 155.093C120.885 154.968 121.061 154.866 121.253 154.787C121.446 154.696 121.65 154.628 121.865 154.583V154.515C121.321 154.266 120.913 153.92 120.641 153.478C120.381 153.036 120.25 152.52 120.25 151.931C120.25 151.024 120.562 150.299 121.185 149.755C121.809 149.2 122.721 148.922 123.922 148.922C124.194 148.922 124.461 148.939 124.721 148.973C124.993 149.007 125.243 149.064 125.469 149.143V148.854C125.469 147.993 125.889 147.562 126.727 147.562H128.104V149.228H126.217V149.466C126.682 149.727 127.028 150.067 127.254 150.486C127.481 150.905 127.594 151.387 127.594 151.931C127.594 152.826 127.283 153.546 126.659 154.09C126.047 154.634 125.135 154.906 123.922 154.906C123.401 154.906 122.948 154.855 122.562 154.753C122.392 154.832 122.245 154.94 122.12 155.076C121.996 155.201 121.933 155.359 121.933 155.552C121.933 155.994 122.319 156.215 123.089 156.215H125.469C126.557 156.215 127.345 156.442 127.832 156.895C128.331 157.337 128.58 157.955 128.58 158.748ZM126.54 159.003C126.54 158.72 126.427 158.499 126.2 158.34C125.974 158.181 125.583 158.102 125.027 158.102H122.001C121.695 158.329 121.542 158.635 121.542 159.02C121.542 159.36 121.684 159.626 121.967 159.819C122.251 160.012 122.732 160.108 123.412 160.108H124.5C125.214 160.108 125.73 160.017 126.047 159.836C126.376 159.655 126.54 159.377 126.54 159.003ZM123.922 153.427C124.988 153.427 125.52 152.974 125.52 152.067V151.778C125.52 150.871 124.988 150.418 123.922 150.418C122.857 150.418 122.324 150.871 122.324 151.778V152.067C122.324 152.974 122.857 153.427 123.922 153.427ZM133.583 153.903V151.744H138.445V153.903H133.583ZM145.001 158V156.181H148.265V147.749H148.112L145.528 150.809L144.134 149.636L147.075 146.134H150.458V156.181H153.178V158H145.001ZM156.52 158L160.651 147.953H156.554V150.129H154.65V146.134H162.878V148.055L158.866 158H156.52ZM165.099 149.126H167.275V150.588H167.343C167.501 150.078 167.802 149.676 168.244 149.381C168.686 149.075 169.201 148.922 169.791 148.922C170.924 148.922 171.785 149.324 172.375 150.129C172.975 150.922 173.276 152.061 173.276 153.546C173.276 155.042 172.975 156.192 172.375 156.997C171.785 157.802 170.924 158.204 169.791 158.204C169.201 158.204 168.686 158.051 168.244 157.745C167.813 157.439 167.513 157.031 167.343 156.521H167.275V161.4H165.099V149.126ZM169.094 156.402C169.66 156.402 170.119 156.215 170.471 155.841C170.822 155.467 170.998 154.963 170.998 154.328V152.798C170.998 152.163 170.822 151.659 170.471 151.285C170.119 150.9 169.66 150.707 169.094 150.707C168.572 150.707 168.136 150.837 167.785 151.098C167.445 151.359 167.275 151.704 167.275 152.135V154.957C167.275 155.422 167.445 155.779 167.785 156.028C168.136 156.277 168.572 156.402 169.094 156.402ZM174.108 158L177.134 153.495L174.176 149.126H176.658L178.494 152.067H178.562L180.381 149.126H182.693L179.684 153.529L182.71 158H180.228L178.358 154.94H178.29L176.42 158H174.108ZM1.581 175.134H6.46C7.446 175.134 8.21667 175.412 8.772 175.967C9.33867 176.522 9.622 177.265 9.622 178.194C9.622 178.636 9.55967 179.01 9.435 179.316C9.31033 179.622 9.15167 179.877 8.959 180.081C8.76633 180.274 8.55667 180.421 8.33 180.523C8.10333 180.614 7.89367 180.676 7.701 180.71V180.812C7.91633 180.823 8.15433 180.88 8.415 180.982C8.687 181.084 8.942 181.248 9.18 181.475C9.418 181.69 9.61633 181.974 9.775 182.325C9.945 182.665 10.03 183.079 10.03 183.566C10.03 184.053 9.95067 184.507 9.792 184.926C9.64467 185.345 9.435 185.708 9.163 186.014C8.891 186.32 8.568 186.564 8.194 186.745C7.82 186.915 7.412 187 6.97 187H1.581V175.134ZM3.009 185.742H6.528C7.14 185.742 7.62167 185.589 7.973 185.283C8.32433 184.966 8.5 184.507 8.5 183.906V183.328C8.5 182.727 8.32433 182.274 7.973 181.968C7.62167 181.651 7.14 181.492 6.528 181.492H3.009V185.742ZM3.009 180.268H6.29C6.85667 180.268 7.29867 180.126 7.616 179.843C7.93333 179.56 8.092 179.152 8.092 178.619V178.041C8.092 177.508 7.93333 177.1 7.616 176.817C7.29867 176.534 6.85667 176.392 6.29 176.392H3.009V180.268ZM15.8664 187.204C15.2771 187.204 14.7388 187.096 14.2514 186.881C13.7641 186.666 13.3448 186.36 12.9934 185.963C12.6534 185.555 12.3871 185.073 12.1944 184.518C12.0018 183.951 11.9054 183.317 11.9054 182.614C11.9054 181.923 12.0018 181.294 12.1944 180.727C12.3871 180.16 12.6534 179.679 12.9934 179.282C13.3448 178.874 13.7641 178.562 14.2514 178.347C14.7388 178.132 15.2771 178.024 15.8664 178.024C16.4558 178.024 16.9884 178.132 17.4644 178.347C17.9518 178.562 18.3711 178.874 18.7224 179.282C19.0738 179.679 19.3458 180.16 19.5384 180.727C19.7311 181.294 19.8274 181.923 19.8274 182.614C19.8274 183.317 19.7311 183.951 19.5384 184.518C19.3458 185.073 19.0738 185.555 18.7224 185.963C18.3711 186.36 17.9518 186.666 17.4644 186.881C16.9884 187.096 16.4558 187.204 15.8664 187.204ZM15.8664 185.997C16.6031 185.997 17.2038 185.77 17.6684 185.317C18.1331 184.864 18.3654 184.172 18.3654 183.243V181.985C18.3654 181.056 18.1331 180.364 17.6684 179.911C17.2038 179.458 16.6031 179.231 15.8664 179.231C15.1298 179.231 14.5291 179.458 14.0644 179.911C13.5998 180.364 13.3674 181.056 13.3674 181.985V183.243C13.3674 184.172 13.5998 184.864 14.0644 185.317C14.5291 185.77 15.1298 185.997 15.8664 185.997ZM27.6741 185.572H27.6061C27.0735 186.66 26.2178 187.204 25.0391 187.204C24.4951 187.204 24.0021 187.096 23.5601 186.881C23.1181 186.666 22.7385 186.36 22.4211 185.963C22.1151 185.566 21.8771 185.085 21.7071 184.518C21.5485 183.951 21.4691 183.317 21.4691 182.614C21.4691 181.911 21.5485 181.277 21.7071 180.71C21.8771 180.143 22.1151 179.662 22.4211 179.265C22.7385 178.868 23.1181 178.562 23.5601 178.347C24.0021 178.132 24.4951 178.024 25.0391 178.024C25.6511 178.024 26.1725 178.16 26.6031 178.432C27.0451 178.693 27.3795 179.101 27.6061 179.656H27.6741V174.42H29.0341V187H27.6741V185.572ZM25.4131 185.98C25.7191 185.98 26.0081 185.94 26.2801 185.861C26.5635 185.782 26.8071 185.668 27.0111 185.521C27.2151 185.362 27.3738 185.175 27.4871 184.96C27.6118 184.733 27.6741 184.478 27.6741 184.195V180.931C27.6741 180.693 27.6118 180.472 27.4871 180.268C27.3738 180.053 27.2151 179.871 27.0111 179.724C26.8071 179.577 26.5635 179.463 26.2801 179.384C26.0081 179.293 25.7191 179.248 25.4131 179.248C24.6425 179.248 24.0361 179.492 23.5941 179.979C23.1521 180.455 22.9311 181.084 22.9311 181.866V183.362C22.9311 184.144 23.1521 184.779 23.5941 185.266C24.0361 185.742 24.6425 185.98 25.4131 185.98ZM37.3315 178.228H38.6745L34.7475 189.04C34.6455 189.301 34.5435 189.516 34.4415 189.686C34.3395 189.867 34.2148 190.009 34.0675 190.111C33.9201 190.213 33.7331 190.287 33.5065 190.332C33.2911 190.377 33.0248 190.4 32.7075 190.4H32.0105V189.21H33.3875L34.0505 187.34L30.7695 178.228H32.1295L34.2375 184.195L34.6455 185.623H34.7305L35.2065 184.195L37.3315 178.228ZM44.1544 182.563V181.101H48.5914V182.563H44.1544ZM55.2851 187V185.742H58.6001V176.188H58.4811L55.4891 178.976L54.6561 178.075L57.8011 175.134H60.0281V185.742H63.0881V187H55.2851ZM69.0824 187.204C67.6658 187.204 66.6288 186.666 65.9714 185.589C65.3254 184.512 65.0024 183.005 65.0024 181.067C65.0024 179.129 65.3254 177.622 65.9714 176.545C66.6288 175.468 67.6658 174.93 69.0824 174.93C70.4991 174.93 71.5304 175.468 72.1764 176.545C72.8338 177.622 73.1624 179.129 73.1624 181.067C73.1624 183.005 72.8338 184.512 72.1764 185.589C71.5304 186.666 70.4991 187.204 69.0824 187.204ZM69.0824 185.963C69.5471 185.963 69.9438 185.867 70.2724 185.674C70.6011 185.481 70.8674 185.209 71.0714 184.858C71.2754 184.507 71.4228 184.093 71.5134 183.617C71.6154 183.141 71.6664 182.614 71.6664 182.036V180.098C71.6664 179.52 71.6154 178.993 71.5134 178.517C71.4228 178.041 71.2754 177.627 71.0714 177.276C70.8674 176.925 70.6011 176.653 70.2724 176.46C69.9438 176.267 69.5471 176.171 69.0824 176.171C68.6178 176.171 68.2211 176.267 67.8924 176.46C67.5638 176.653 67.2974 176.925 67.0934 177.276C66.8894 177.627 66.7364 178.041 66.6344 178.517C66.5438 178.993 66.4984 179.52 66.4984 180.098V182.036C66.4984 182.614 66.5438 183.141 66.6344 183.617C66.7364 184.093 66.8894 184.507 67.0934 184.858C67.2974 185.209 67.5638 185.481 67.8924 185.674C68.2211 185.867 68.6178 185.963 69.0824 185.963ZM79.6384 178.228H80.9984V179.656H81.0664C81.293 179.101 81.6217 178.693 82.0524 178.432C82.4944 178.16 83.0214 178.024 83.6334 178.024C84.1774 178.024 84.6704 178.132 85.1124 178.347C85.5544 178.562 85.9284 178.868 86.2344 179.265C86.5517 179.662 86.7897 180.143 86.9484 180.71C87.1184 181.277 87.2034 181.911 87.2034 182.614C87.2034 183.317 87.1184 183.951 86.9484 184.518C86.7897 185.085 86.5517 185.566 86.2344 185.963C85.9284 186.36 85.5544 186.666 85.1124 186.881C84.6704 187.096 84.1774 187.204 83.6334 187.204C82.4434 187.204 81.5877 186.66 81.0664 185.572H80.9984V190.4H79.6384V178.228ZM83.2594 185.98C84.03 185.98 84.6364 185.742 85.0784 185.266C85.5204 184.779 85.7414 184.144 85.7414 183.362V181.866C85.7414 181.084 85.5204 180.455 85.0784 179.979C84.6364 179.492 84.03 179.248 83.2594 179.248C82.9534 179.248 82.6587 179.293 82.3754 179.384C82.1034 179.463 81.8654 179.577 81.6614 179.724C81.4574 179.871 81.293 180.053 81.1684 180.268C81.055 180.472 80.9984 180.693 80.9984 180.931V184.195C80.9984 184.478 81.055 184.733 81.1684 184.96C81.293 185.175 81.4574 185.362 81.6614 185.521C81.8654 185.668 82.1034 185.782 82.3754 185.861C82.6587 185.94 82.9534 185.98 83.2594 185.98ZM88.2125 187L91.4595 182.58L88.3485 178.228H89.9465L92.1735 181.492H92.2245L94.5365 178.228H96.0495L92.9555 182.478L96.1175 187H94.5195L92.2415 183.566H92.1905L89.7255 187H88.2125ZM4.93 216.204C4.352 216.204 3.81933 216.102 3.332 215.898C2.84467 215.694 2.41967 215.394 2.057 214.997C1.70567 214.589 1.428 214.096 1.224 213.518C1.03133 212.929 0.935 212.249 0.935 211.478C0.935 210.447 1.071 209.478 1.343 208.571C1.615 207.653 2.00033 206.854 2.499 206.174C2.99767 205.483 3.59833 204.939 4.301 204.542C5.00367 204.134 5.78567 203.93 6.647 203.93C7.61033 203.93 8.40933 204.151 9.044 204.593C9.69 205.035 10.1603 205.715 10.455 206.633L9.214 207.194C8.99867 206.525 8.68133 206.021 8.262 205.681C7.84267 205.341 7.259 205.171 6.511 205.171C6.05767 205.171 5.627 205.256 5.219 205.426C4.82233 205.596 4.45967 205.84 4.131 206.157C3.81367 206.463 3.536 206.837 3.298 207.279C3.07133 207.71 2.907 208.197 2.805 208.741L2.414 210.696C2.36867 210.911 2.34033 211.11 2.329 211.291C2.31767 211.472 2.312 211.648 2.312 211.818C2.312 212.283 2.37433 212.708 2.499 213.093C2.62367 213.478 2.79933 213.813 3.026 214.096C3.25267 214.368 3.53033 214.583 3.859 214.742C4.199 214.889 4.58433 214.963 5.015 214.963C5.423 214.963 5.78567 214.912 6.103 214.81C6.43167 214.708 6.72067 214.566 6.97 214.385C7.23067 214.192 7.463 213.96 7.667 213.688C7.88233 213.405 8.08633 213.093 8.279 212.753L9.435 213.331C8.91367 214.317 8.296 215.042 7.582 215.507C6.868 215.972 5.984 216.204 4.93 216.204ZM17.4895 216C17.1042 216 16.8152 215.904 16.6225 215.711C16.4412 215.518 16.3505 215.263 16.3505 214.946C16.3505 214.81 16.3675 214.657 16.4015 214.487L16.4865 214.096H16.4355C16.0729 214.833 15.6705 215.371 15.2285 215.711C14.7865 216.04 14.2425 216.204 13.5965 216.204C12.7919 216.204 12.1459 215.909 11.6585 215.32C11.1712 214.719 10.9275 213.898 10.9275 212.855C10.9275 212.209 11.0125 211.546 11.1825 210.866C11.3639 210.175 11.6302 209.546 11.9815 208.979C12.3329 208.401 12.7749 207.931 13.3075 207.568C13.8515 207.205 14.4862 207.024 15.2115 207.024C15.4722 207.024 15.7272 207.058 15.9765 207.126C16.2259 207.194 16.4525 207.296 16.6565 207.432C16.8605 207.568 17.0362 207.738 17.1835 207.942C17.3309 208.146 17.4385 208.384 17.5065 208.656H17.5745L17.8635 207.228H19.1725L17.6425 214.844H18.8835L18.6625 216H17.4895ZM13.9365 215.014C14.3219 215.014 14.6619 214.94 14.9565 214.793C15.2512 214.634 15.5289 214.419 15.7895 214.147C16.0842 213.852 16.3165 213.535 16.4865 213.195C16.6679 212.855 16.8039 212.47 16.8945 212.039L17.2515 210.254C17.3082 209.982 17.3139 209.727 17.2685 209.489C17.2232 209.24 17.1212 209.024 16.9625 208.843C16.8039 208.65 16.5885 208.497 16.3165 208.384C16.0445 208.271 15.7159 208.214 15.3305 208.214C14.6165 208.214 14.0272 208.446 13.5625 208.911C13.0979 209.376 12.7805 210.033 12.6105 210.883L12.3555 212.158C12.2989 212.475 12.2705 212.764 12.2705 213.025C12.2705 213.626 12.4122 214.107 12.6955 214.47C12.9789 214.833 13.3925 215.014 13.9365 215.014ZM22.3517 207.228H23.6607L23.2697 209.132H23.3207C23.6833 208.395 24.0857 207.863 24.5277 207.534C24.9697 207.194 25.5137 207.024 26.1597 207.024C26.9643 207.024 27.6103 207.324 28.0977 207.925C28.585 208.514 28.8287 209.33 28.8287 210.373C28.8287 211.019 28.738 211.688 28.5567 212.379C28.3867 213.059 28.126 213.688 27.7747 214.266C27.4233 214.833 26.9757 215.297 26.4317 215.66C25.899 216.023 25.27 216.204 24.5447 216.204C24.284 216.204 24.029 216.17 23.7797 216.102C23.5303 216.034 23.3037 215.932 23.0997 215.796C22.8957 215.66 22.72 215.49 22.5727 215.286C22.4253 215.082 22.3177 214.844 22.2497 214.572H22.1817L21.2127 219.4H19.9037L22.3517 207.228ZM24.4257 215.014C25.1397 215.014 25.729 214.782 26.1937 214.317C26.6583 213.852 26.9757 213.195 27.1457 212.345L27.4007 211.07C27.4573 210.753 27.4857 210.464 27.4857 210.203C27.4857 209.625 27.3497 209.149 27.0777 208.775C26.817 208.401 26.392 208.214 25.8027 208.214C25.4173 208.214 25.0773 208.293 24.7827 208.452C24.4993 208.611 24.2273 208.82 23.9667 209.081C23.6833 209.364 23.451 209.676 23.2697 210.016C23.0883 210.356 22.9523 210.747 22.8617 211.189L22.5047 212.974C22.448 213.246 22.4423 213.507 22.4877 213.756C22.533 214.005 22.635 214.226 22.7937 214.419C22.9523 214.6 23.162 214.748 23.4227 214.861C23.6947 214.963 24.029 215.014 24.4257 215.014ZM31.9292 216C31.5325 216 31.2322 215.904 31.0282 215.711C30.8355 215.507 30.7392 215.246 30.7392 214.929C30.7392 214.827 30.7562 214.691 30.7902 214.521L32.0312 208.384H30.7392L30.9602 207.228H31.6232C31.9405 207.228 32.1502 207.166 32.2522 207.041C32.3655 206.916 32.4505 206.701 32.5072 206.395L32.8302 204.797H34.0372L33.5612 207.228H35.4142L35.1932 208.384H33.3402L32.0312 214.844H33.7482L33.5272 216H31.9292ZM38.5645 205.171C38.3038 205.171 38.1168 205.114 38.0035 205.001C37.9015 204.876 37.8505 204.735 37.8505 204.576C37.8505 204.542 37.8505 204.497 37.8505 204.44C37.8618 204.372 37.8845 204.259 37.9185 204.1C37.9638 203.885 38.0545 203.72 38.1905 203.607C38.3378 203.482 38.5532 203.42 38.8365 203.42C39.0972 203.42 39.2785 203.482 39.3805 203.607C39.4938 203.72 39.5505 203.856 39.5505 204.015C39.5505 204.049 39.5448 204.1 39.5335 204.168C39.5335 204.225 39.5165 204.332 39.4825 204.491C39.4372 204.706 39.3408 204.876 39.1935 205.001C39.0575 205.114 38.8478 205.171 38.5645 205.171ZM37.1195 216C36.7228 216 36.4225 215.904 36.2185 215.711C36.0258 215.507 35.9295 215.246 35.9295 214.929C35.9295 214.827 35.9465 214.691 35.9805 214.521L37.4425 207.228H38.7515L37.2215 214.844H38.4625L38.2415 216H37.1195ZM43.5399 216.204C43.0753 216.204 42.6503 216.13 42.2649 215.983C41.8796 215.824 41.5453 215.598 41.2619 215.303C40.9899 214.997 40.7746 214.623 40.6159 214.181C40.4573 213.728 40.3779 213.201 40.3779 212.6C40.3779 211.863 40.4856 211.161 40.7009 210.492C40.9276 209.812 41.2393 209.217 41.6359 208.707C42.0326 208.197 42.5086 207.789 43.0639 207.483C43.6193 207.177 44.2313 207.024 44.8999 207.024C45.3533 207.024 45.7726 207.103 46.1579 207.262C46.5546 207.409 46.8889 207.636 47.1609 207.942C47.4443 208.237 47.6653 208.611 47.8239 209.064C47.9826 209.517 48.0619 210.039 48.0619 210.628C48.0619 211.365 47.9486 212.073 47.7219 212.753C47.5066 213.422 47.2006 214.011 46.8039 214.521C46.4073 215.031 45.9313 215.439 45.3759 215.745C44.8206 216.051 44.2086 216.204 43.5399 216.204ZM43.7099 215.031C44.3446 215.031 44.9113 214.799 45.4099 214.334C45.9086 213.869 46.2486 213.189 46.4299 212.294L46.6849 211.019C46.7416 210.736 46.7699 210.481 46.7699 210.254C46.7699 209.642 46.5943 209.149 46.2429 208.775C45.9029 208.39 45.3986 208.197 44.7299 208.197C44.0953 208.197 43.5286 208.429 43.0299 208.894C42.5313 209.359 42.1913 210.039 42.0099 210.934L41.7549 212.209C41.6983 212.492 41.6699 212.747 41.6699 212.974C41.6699 213.586 41.8399 214.085 42.1799 214.47C42.5313 214.844 43.0413 215.031 43.7099 215.031ZM49.5036 216L51.2716 207.228H52.5806L52.2236 208.962H52.3086C52.6146 208.305 52.9773 207.817 53.3966 207.5C53.8273 207.183 54.3599 207.024 54.9946 207.024C55.7539 207.024 56.3206 207.239 56.6946 207.67C57.0686 208.101 57.2556 208.696 57.2556 209.455C57.2556 209.614 57.2443 209.789 57.2216 209.982C57.2103 210.175 57.1819 210.379 57.1366 210.594L56.2866 214.844H57.5276L57.3066 216H56.0656C55.7369 216 55.4706 215.921 55.2666 215.762C55.0739 215.603 54.9776 215.354 54.9776 215.014C54.9776 214.957 54.9776 214.906 54.9776 214.861C54.9776 214.816 54.9889 214.748 55.0116 214.657L55.8276 210.594C55.8616 210.424 55.8843 210.26 55.8956 210.101C55.9069 209.931 55.9126 209.795 55.9126 209.693C55.9126 209.194 55.8049 208.826 55.5896 208.588C55.3856 208.339 55.0456 208.214 54.5696 208.214C53.9576 208.214 53.4193 208.446 52.9546 208.911C52.6599 209.206 52.4106 209.557 52.2066 209.965C52.0026 210.373 51.8666 210.753 51.7986 211.104L50.8126 216H49.5036ZM63.6945 211.529L63.9665 210.135H68.2335L67.9615 211.529H63.6945ZM73.8273 216L74.0653 214.776H77.4653L79.3863 205.188H79.2503L75.7313 207.976L75.0343 207.075L78.7233 204.134H80.9673L78.8423 214.776H82.0043L81.7663 216H73.8273ZM87.6416 216.204C87.109 216.204 86.6386 216.108 86.2306 215.915C85.834 215.711 85.5053 215.433 85.2446 215.082C84.984 214.719 84.7856 214.289 84.6496 213.79C84.525 213.291 84.4626 212.736 84.4626 212.124C84.4626 211.523 84.508 210.9 84.5986 210.254C84.6893 209.608 84.8253 208.985 85.0066 208.384C85.1993 207.772 85.4373 207.2 85.7206 206.667C86.004 206.123 86.3383 205.653 86.7236 205.256C87.109 204.848 87.5453 204.525 88.0326 204.287C88.52 204.049 89.064 203.93 89.6646 203.93C90.1973 203.93 90.662 204.032 91.0586 204.236C91.4553 204.429 91.784 204.706 92.0446 205.069C92.3166 205.42 92.515 205.845 92.6396 206.344C92.7756 206.843 92.8436 207.398 92.8436 208.01C92.8436 208.611 92.7983 209.234 92.7076 209.88C92.617 210.526 92.4753 211.155 92.2826 211.767C92.1013 212.368 91.869 212.94 91.5856 213.484C91.3023 214.017 90.968 214.487 90.5826 214.895C90.1973 215.292 89.7553 215.609 89.2566 215.847C88.7693 216.085 88.231 216.204 87.6416 216.204ZM87.8116 214.997C88.2196 214.997 88.5936 214.901 88.9336 214.708C89.2736 214.515 89.574 214.249 89.8346 213.909C90.0953 213.569 90.3163 213.161 90.4976 212.685C90.6903 212.198 90.8433 211.665 90.9566 211.087L91.3136 209.302C91.3703 209.041 91.41 208.781 91.4326 208.52C91.4553 208.259 91.4666 208.01 91.4666 207.772C91.4666 206.956 91.3023 206.316 90.9736 205.851C90.645 205.375 90.152 205.137 89.4946 205.137C89.0866 205.137 88.7126 205.233 88.3726 205.426C88.0326 205.619 87.7323 205.885 87.4716 206.225C87.211 206.565 86.9843 206.979 86.7916 207.466C86.6103 207.942 86.463 208.469 86.3496 209.047L85.9926 210.832C85.936 211.093 85.8963 211.353 85.8736 211.614C85.851 211.875 85.8396 212.124 85.8396 212.362C85.8396 213.178 86.004 213.824 86.3326 214.3C86.6613 214.765 87.1543 214.997 87.8116 214.997ZM99.8976 207.228H101.207L100.816 209.132H100.867C101.229 208.395 101.632 207.863 102.074 207.534C102.516 207.194 103.06 207.024 103.706 207.024C104.51 207.024 105.156 207.324 105.644 207.925C106.131 208.514 106.375 209.33 106.375 210.373C106.375 211.019 106.284 211.688 106.103 212.379C105.933 213.059 105.672 213.688 105.321 214.266C104.969 214.833 104.522 215.297 103.978 215.66C103.445 216.023 102.816 216.204 102.091 216.204C101.83 216.204 101.575 216.17 101.326 216.102C101.076 216.034 100.85 215.932 100.646 215.796C100.442 215.66 100.266 215.49 100.119 215.286C99.9712 215.082 99.8636 214.844 99.7956 214.572H99.7276L98.7586 219.4H97.4496L99.8976 207.228ZM101.972 215.014C102.686 215.014 103.275 214.782 103.74 214.317C104.204 213.852 104.522 213.195 104.692 212.345L104.947 211.07C105.003 210.753 105.032 210.464 105.032 210.203C105.032 209.625 104.896 209.149 104.624 208.775C104.363 208.401 103.938 208.214 103.349 208.214C102.963 208.214 102.623 208.293 102.329 208.452C102.045 208.611 101.773 208.82 101.513 209.081C101.229 209.364 100.997 209.676 100.816 210.016C100.634 210.356 100.498 210.747 100.408 211.189L100.051 212.974C99.9939 213.246 99.9882 213.507 100.034 213.756C100.079 214.005 100.181 214.226 100.34 214.419C100.498 214.6 100.708 214.748 100.969 214.861C101.241 214.963 101.575 215.014 101.972 215.014ZM106.388 216L110.366 211.461L108.224 207.228H109.652L111.233 210.594H111.318L114.174 207.228H115.67L111.862 211.58L114.174 216H112.746L110.995 212.43H110.91L107.884 216H106.388Z" fill="white"/>
</svg>
