<svg width="1004" height="913" viewBox="0 0 1004 913" fill="none" xmlns="http://www.w3.org/2000/svg">
<path d="M601.667 103.286C601.667 35.8845 534.27 35.8845 534.27 103.286L534.27 170.687C534.269 238.089 601.667 238.089 601.667 170.687L601.667 136.987" stroke="#0A95C8" stroke-width="10" stroke-miterlimit="10"/>
<path d="M950.715 343.248C950.715 305.828 988.133 305.828 988.133 343.248L988.133 380.668C988.133 418.088 950.715 418.088 950.715 380.668L950.715 361.958" stroke="#ED1C4E" stroke-width="10" stroke-miterlimit="10"/>
<path d="M144.423 512.991C144.423 475.571 181.841 475.571 181.841 512.991L181.841 550.411C181.841 587.831 144.423 587.831 144.423 550.411L144.423 531.701" stroke="#10A79B" stroke-width="10" stroke-miterlimit="10"/>
<path d="M623.758 411.776C623.758 440.292 595.244 440.292 595.244 411.776L595.244 383.26C595.244 354.744 623.758 354.744 623.758 383.26L623.758 397.462" stroke="#ED1C4E" stroke-width="10" stroke-miterlimit="10"/>
<path d="M841.729 480.531L731.616 678.34C711.442 714.52 724.628 760.845 760.807 781.02C789.772 797.138 840.94 792.179 863.481 751.828C883.655 715.648 870.469 669.323 834.29 649.148" stroke="white" stroke-width="10" stroke-miterlimit="10"/>
<path d="M912.507 377.625L912.507 499.128C912.507 521.332 930.766 539.592 952.968 539.592C970.776 539.592 993.429 523.812 993.429 499.128C993.429 476.924 975.171 458.665 952.968 458.665" stroke="#E18C42" stroke-width="10" stroke-miterlimit="10"/>
<path d="M895.827 337.05C894.475 313.718 874.414 295.91 851.985 297.15C830.571 298.39 813.102 316.424 812.989 338.29C812.877 360.156 830.346 378.753 852.436 379.88L897.18 379.88" stroke="white" stroke-width="10" stroke-miterlimit="10"/>
<path d="M719.331 175.984C748.747 177.675 771.288 203.035 769.71 231.438C768.245 258.489 745.253 280.58 717.641 280.693C689.915 280.806 666.472 258.827 665.007 230.875L665.007 174.293" stroke="#E18C42" stroke-width="10" stroke-miterlimit="10"/>
<path d="M658.922 50.8742C660.95 27.6556 681.688 10.5235 704.116 12.5523C725.418 14.4684 742.323 33.1785 741.647 55.0445C740.971 76.9106 722.938 94.8317 700.848 95.2825C685.971 94.8317 671.094 94.2681 656.104 93.8173" stroke="#10A79B" stroke-width="10" stroke-miterlimit="10"/>
<path d="M149.156 786.543C147.128 763.324 126.39 746.192 103.962 748.221C82.6603 750.137 65.7545 768.847 66.4307 790.713C67.107 812.579 85.1398 830.5 107.23 830.951C122.107 830.5 136.984 829.937 151.974 829.486" stroke="white" stroke-width="10" stroke-miterlimit="10"/>
<path d="M80.4061 122.897C39.156 122.334 5.56994 155.471 5.00641 194.695C4.44287 236.06 40.9593 267.844 80.4061 267.957C119.966 268.07 154.002 236.285 156.595 195.484L156.595 5.001" stroke="#EABB65" stroke-width="10" stroke-miterlimit="10"/>
<path d="M969.424 273.48L860.438 273.48C832.713 273.592 807.467 287.681 795.633 310.449C780.08 340.43 789.998 380.894 821.442 403.549" stroke="#EABB65" stroke-width="10" stroke-miterlimit="10"/>
<path d="M659.935 143.861L768.921 143.861C796.646 143.748 821.892 129.659 833.726 106.891C849.28 76.91 839.361 36.4466 807.917 13.7915" stroke="#EABB65" stroke-width="10" stroke-miterlimit="10"/>
<path d="M797.436 887.306L906.421 887.306C934.147 887.194 959.393 873.105 971.227 850.337C986.78 820.356 976.862 779.892 945.417 757.237" stroke="#0A95C8" stroke-width="10" stroke-miterlimit="10"/>
<path d="M288.009 893.055L396.995 893.055C424.72 892.943 449.966 878.854 461.8 856.086C477.353 826.105 467.435 785.641 435.991 762.986" stroke="#EABB65" stroke-width="10" stroke-miterlimit="10"/>
<path d="M792.702 238.313L952.969 238.314" stroke="white" stroke-width="10" stroke-miterlimit="10"/>
<path d="M835.53 584.112L995.909 584.112" stroke="white" stroke-width="10" stroke-miterlimit="10"/>
<path d="M175.417 5L513.306 5.00006" stroke="#10A79B" stroke-width="10" stroke-miterlimit="10"/>
<path d="M119.064 893.055L277.64 893.055" stroke="#10A79B" stroke-width="10" stroke-miterlimit="10"/>
<path d="M981.821 97.1987L981.821 257.587" stroke="#0A95C8" stroke-width="10" stroke-miterlimit="10"/>
<path d="M350.899 101.707L350.899 262.096" stroke="#E18C42" stroke-width="10" stroke-miterlimit="10"/>
<path d="M836.545 616.235C889.741 636.185 917.129 696.148 897.631 749.122C877.907 802.773 817.272 829.711 764.413 810.325C710.878 790.713 682.589 729.961 702.538 675.747" stroke="#EABB65" stroke-width="10" stroke-miterlimit="10"/>
<path d="M243.49 581.295L246.533 493.944C247.097 477.939 260.734 465.315 276.626 465.879C289.361 466.329 305.365 478.164 304.689 495.973C304.126 511.978 290.488 524.601 274.597 524.038" stroke="#0A95C8" stroke-width="10" stroke-miterlimit="10"/>
<path d="M266.595 549.172C297.026 554.808 326.667 534.633 332.528 504.426C338.388 473.881 317.763 444.238 287.671 438.377C257.128 432.403 226.923 452.804 220.95 483.687" stroke="#ED1C4E" stroke-width="10" stroke-miterlimit="10"/>
<path d="M108.47 893.055C51.6669 892.717 5.11971 846.055 5.00702 789.586C4.89432 732.441 52.3432 686.117 108.696 685.891C165.724 685.666 213.286 732.78 213.399 790.601" stroke="#E18C42" stroke-width="10" stroke-miterlimit="10"/>
<path d="M417.62 109.822C435.652 108.244 448.952 92.2389 447.374 74.7686C445.909 58.2 431.37 45.1254 414.464 45.5763C397.445 46.0271 383.583 60.116 383.245 77.2482C383.583 88.8575 384.034 100.354 384.372 111.963" stroke="white" stroke-width="10" stroke-miterlimit="10"/>
<path d="M61.8096 387.093C36.5637 384.839 17.9673 362.41 20.1087 338.064C22.1374 314.845 42.5371 296.586 66.3178 297.262C90.0986 297.939 109.597 317.55 110.047 341.558C109.484 357.788 108.92 373.906 108.469 390.137" stroke="white" stroke-width="10" stroke-miterlimit="10"/>
<path d="M203.932 91.5633C205.848 146.792 279.557 144.2 277.641 88.971C275.725 33.7423 349.434 31.15 351.35 86.3786" stroke="#0A95C8" stroke-width="10" stroke-miterlimit="10"/>
<path d="M248.901 702.234L248.901 862.51" stroke="#ED1C4E" stroke-width="10" stroke-miterlimit="10"/>
<path d="M112.415 410.762C114.331 465.99 188.04 463.398 186.124 408.169C184.208 352.941 257.917 350.348 259.833 405.577" stroke="#EABB65" stroke-width="10" stroke-miterlimit="10"/>
<path d="M531.452 844.025C506.206 841.771 487.609 819.341 489.751 794.996C491.78 771.777 512.179 753.518 535.96 754.194C559.741 754.87 579.239 774.482 579.689 798.49C579.126 814.72 578.562 830.838 578.112 847.068" stroke="#E18C42" stroke-width="10" stroke-miterlimit="10"/>
<path d="M582.057 867.582C583.973 922.811 657.682 920.218 655.766 864.99C653.85 809.761 727.559 807.168 729.475 862.397" stroke="#ED1C4E" stroke-width="10" stroke-miterlimit="10"/>
<path d="M946.545 176.435C947.334 121.093 873.625 120.079 872.836 175.42C872.047 230.762 798.338 229.747 799.127 174.406" stroke="#10A79B" stroke-width="10" stroke-miterlimit="10"/>
<path d="M915.663 107.456C936.017 107.456 952.518 90.9542 952.518 70.5989C952.518 50.2435 936.017 33.7422 915.663 33.7422C895.309 33.7422 878.809 50.2435 878.809 70.5989C878.809 90.9542 895.309 107.456 915.663 107.456Z" stroke="#ED1C4E" stroke-width="10" stroke-miterlimit="10"/>
<path d="M398.235 863.637C418.589 863.637 435.089 847.136 435.089 826.78C435.089 806.425 418.589 789.924 398.235 789.924C377.881 789.924 361.38 806.425 361.38 826.78C361.38 847.136 377.881 863.637 398.235 863.637Z" stroke="#0A95C8" stroke-width="10" stroke-miterlimit="10"/>
<path d="M82.8858 230.875C103.24 230.875 119.74 214.373 119.74 194.018C119.74 173.662 103.24 157.161 82.8858 157.161C62.5316 157.161 46.0312 173.662 46.0312 194.018C46.0312 214.373 62.5316 230.875 82.8858 230.875Z" stroke="#ED1C4E" stroke-width="10" stroke-miterlimit="10"/>
<path d="M908 5C908 5 981.709 5.00001 981.709 78.7134" stroke="white" stroke-width="10" stroke-miterlimit="10"/>
<path d="M203.819 648.921L43.4395 648.921" stroke="white" stroke-width="10" stroke-miterlimit="10"/>
<path d="M14.6992 507.919L14.6992 668.195" stroke="#EABB65" stroke-width="10" stroke-miterlimit="10"/>
<path d="M49.8632 587.155C49.0743 531.814 122.783 530.8 123.572 586.141C124.361 641.482 198.07 640.468 197.281 585.127" stroke="#ED1C4E" stroke-width="10" stroke-miterlimit="10"/>
<path d="M433.286 674.733L515.11 674.733" stroke="white" stroke-width="10" stroke-miterlimit="10"/>
<path d="M308.521 636.071C271.103 635.508 270.427 685.439 307.845 686.002C345.263 686.566 344.587 736.384 307.169 735.934" stroke="#E18C42" stroke-width="10" stroke-miterlimit="10"/>
<path d="M298.828 285.652C261.41 285.089 260.734 335.02 298.152 335.583C335.57 336.147 334.894 385.965 297.476 385.515" stroke="white" stroke-width="10" stroke-miterlimit="10"/>
<path d="M80.7447 518.065C101.099 518.065 117.599 501.564 117.599 481.208C117.599 460.853 101.099 444.352 80.7447 444.352C60.3905 444.352 43.8901 460.853 43.8901 481.208C43.8901 501.564 60.3905 518.065 80.7447 518.065Z" stroke="#E18C42" stroke-width="10" stroke-miterlimit="10"/>
<path d="M88.4083 415.722C88.4083 415.722 14.6992 415.722 14.6992 489.435" stroke="#10A79B" stroke-width="10" stroke-miterlimit="10"/>
<path d="M634.577 99.3403C634.577 99.3403 634.577 6.01515 541.257 6.01514" stroke="#ED1C4E" stroke-width="10" stroke-miterlimit="10"/>
<path d="M545.652 616.686C545.652 549.284 613.05 549.284 613.05 616.686L613.05 684.087C613.05 751.489 545.652 751.489 545.652 684.087L545.652 650.387" stroke="#ED1C4E" stroke-width="10" stroke-miterlimit="10"/>
<path d="M488.398 564.275C486.37 541.057 465.632 523.924 443.204 525.953C421.902 527.869 404.997 546.579 405.673 568.445C406.349 590.311 424.382 608.233 446.472 608.683C461.349 608.233 476.226 607.669 491.216 607.218" stroke="#10A79B" stroke-width="10" stroke-miterlimit="10"/>
<path d="M512.743 612.74C512.743 612.74 512.743 519.415 606.063 519.415" stroke="#0A95C8" stroke-width="10" stroke-miterlimit="10"/>
<path d="M829.106 408.733C829.106 408.733 872.272 436.122 847.139 473.317" stroke="#ED1C4E" stroke-width="10" stroke-miterlimit="10"/>
<path d="M428.214 754.983C428.214 754.983 385.048 727.594 410.181 690.399" stroke="#ED1C4E" stroke-width="10" stroke-miterlimit="10"/>
<path d="M685.294 484.25L415.591 483.235C390.007 483.235 366.677 496.535 355.745 517.5C341.318 545.114 350.56 582.534 379.525 603.611" stroke="#EABB65" stroke-width="10" stroke-miterlimit="10"/>
<path d="M715.612 483.235C764.864 483.235 764.864 433.981 715.612 433.981C666.36 433.981 666.36 384.726 715.612 384.726C764.864 384.726 764.864 335.471 715.612 335.471L617.22 335.471" stroke="white" stroke-width="10" stroke-miterlimit="10"/>
<path d="M222.978 335.921C173.726 335.921 173.726 286.666 222.978 286.666C272.23 286.666 272.23 237.411 222.978 237.411C173.726 237.411 173.726 188.156 222.978 188.156L321.37 188.156" stroke="#10A79B" stroke-width="10" stroke-miterlimit="10"/>
<path d="M61.8098 87.0552C34.7606 87.0552 34.7606 60.0044 61.8098 60.0044C88.8591 60.0044 88.8591 32.9536 61.8098 32.9536C34.7606 32.9536 34.7606 5.90283 61.8099 5.90284L115.908 5.90285" stroke="#0A95C8" stroke-width="10" stroke-miterlimit="10"/>
<path d="M376.821 355.195C365.438 355.308 356.309 364.438 356.196 375.822C356.196 388.445 367.692 396.448 376.821 396.448C388.204 396.448 397.334 387.205 397.446 375.822L397.446 314.056" stroke="#10A79B" stroke-width="10" stroke-miterlimit="10"/>
<path d="M436.104 222.984C457.067 223.21 474.198 206.416 474.424 186.579C474.649 165.614 456.166 149.384 436.104 149.384C416.043 149.384 398.686 165.502 397.446 186.24L397.446 283.06" stroke="#ED1C4E" stroke-width="10" stroke-miterlimit="10"/>
<path d="M636.38 741.796C624.997 741.796 615.868 751.038 615.755 762.422C615.755 775.046 627.251 783.048 636.38 783.048C647.763 783.048 656.892 773.806 657.005 762.422L657.005 700.656" stroke="#E18C42" stroke-width="10" stroke-miterlimit="10"/>
<path d="M298.152 814.382C286.769 814.495 277.64 823.624 277.527 835.008C277.527 847.632 289.023 855.634 298.152 855.634C309.536 855.634 318.665 846.392 318.777 835.008L318.777 773.242" stroke="white" stroke-width="10" stroke-miterlimit="10"/>
<path d="M695.663 609.584C716.626 609.809 733.758 593.015 733.983 573.178C734.321 552.214 715.725 535.983 695.663 535.983C675.602 535.983 658.245 552.101 657.005 572.84L657.005 669.659" stroke="#0A95C8" stroke-width="10" stroke-miterlimit="10"/>
<path d="M969.536 679.918C985.202 680.143 998.051 667.519 998.163 652.641C998.389 636.975 984.526 624.802 969.536 624.802C954.547 624.802 941.586 636.862 940.571 652.416L940.571 724.89" stroke="#ED1C4E" stroke-width="10" stroke-miterlimit="10"/>
<path d="M473.184 356.66C447.487 336.823 442.641 299.516 462.251 273.93C482.087 248.006 519.618 243.498 545.202 262.997C571.124 282.722 576.309 320.593 556.247 346.742" stroke="#E18C42" stroke-width="10" stroke-miterlimit="10"/>
<path d="M548.696 354.068L494.71 397.575C484.792 405.578 483.327 420.117 491.216 430.036C497.64 437.926 512.743 442.434 523.675 433.53C533.593 425.528 535.059 410.988 527.169 401.069" stroke="white" stroke-width="10" stroke-miterlimit="10"/>
</svg>
