<?xml version="1.0" encoding="utf-8"?>
<!-- Generator: Adobe Illustrator 24.2.0, SVG Export Plug-In . SVG Version: 6.00 Build 0)  -->
<svg version="1.1" id="Layer_1" xmlns="http://www.w3.org/2000/svg" xmlns:xlink="http://www.w3.org/1999/xlink" x="0px" y="0px"
	 viewBox="0 0 82.7 86.7" style="enable-background:new 0 0 82.7 86.7;" xml:space="preserve">
<style type="text/css">
	.st0{fill:none;}
	.st1{fill:#EB0029;}
</style>
<path class="st0" d="M66.2,13l0.6-0.2c0.1,0,0.1-0.1,0.1-0.2v-0.1c0-0.1,0-0.2-0.1-0.2l-0.6-0.2c-0.3-0.1-0.5,0-0.5,0.3v0.4
	C65.6,13,65.9,13.1,66.2,13z"/>
<circle class="st0" cx="67.4" cy="12.5" r="0.4"/>
<path class="st0" d="M68.6,13c0.3,0.1,0.5,0,0.5-0.3v-0.4c0-0.2-0.2-0.3-0.3-0.3c-0.1,0-0.1,0-0.2,0L68,12.2c-0.1,0-0.1,0.1-0.1,0.2
	v0.1c0,0.1,0,0.2,0.1,0.2L68.6,13z"/>
<path class="st0" d="M74.5,24.6c0,0.1,0.1,0.2,0.1,0.3v0.2l0,0v1.1l0,0c0.9-2.3,1.9-4.5,3.1-6.6c-0.5-0.2-1-0.4-1.5-0.6
	c-0.8-0.4-2.4-1.2-3.5-1.8l1.6,6.9C74.4,24.3,74.4,24.4,74.5,24.6z"/>
<path class="st0" d="M35.4,25l1-1l-0.2-11.1c0.1-0.1,0.1-0.3,0.1-0.4c0-0.5-0.4-0.9-0.9-0.9s-0.9,0.4-0.9,0.9l0,0
	c0,0.1,0,0.3,0.1,0.4L34.5,24L35.4,25z"/>
<path class="st0" d="M28,26.4c0-0.4,0-0.8,0.1-1.2l0,0v-0.1c0-0.2,0.1-0.5,0.2-0.7l1.6-7.1c-1.1,0.6-2.7,1.5-3.5,1.9
	c-0.5,0.2-1,0.4-1.5,0.6C26.1,21.9,27.1,24.1,28,26.4z"/>
<path class="st0" d="M42.8,25.2v0.1l0,0c0.1,0.4,0.1,0.7,0.1,1.1l0,0c0.9-2.3,1.9-4.6,3.2-6.7c-0.5-0.1-1-0.3-1.5-0.6
	c-0.8-0.4-2.4-1.2-3.5-1.9l1.6,7C42.6,24.5,42.7,24.9,42.8,25.2z"/>
<path class="st0" d="M65.3,9.3c0,0.1,0.1,0.2,0.1,0.3c0.1,0.1,0.3,0.1,0.4,0c0,0,0,0,0-0.1l0.3-0.3h0.2c0.4-0.1,0.7-0.3,0.9-0.6
	c0.1-0.1,0.1-0.3,0.2-0.4c0.1,0.1,0.1,0.3,0.2,0.4c0.2,0.3,0.5,0.6,0.9,0.6h0.2L69,9.5c0,0.1,0.2,0.2,0.3,0.1h0.1
	c0.1,0,0.1-0.2,0.1-0.3V9l0,0V8c-0.1-0.7-0.8-1.2-1.5-1.1c-0.2,0-0.4,0.1-0.6,0.2C67.2,7,67,6.9,66.8,6.9c-0.7-0.1-1.4,0.4-1.5,1.1
	c-0.1,0.3-0.1,0.7,0,1l0,0V9.3z"/>
<path class="st0" d="M39.2,77.4c-0.1,0-0.3,0.1-0.3,0.2c0,0,0,0,0,0.1v3.2l-2.6,2.6c-0.1,0.1-0.1,0.3,0,0.4s0.1,0.1,0.2,0.1
	s0.1,0,0.2-0.1l2.8-2.8v-3.4C39.5,77.5,39.4,77.4,39.2,77.4z"/>
<path class="st1" d="M39.2,74.9c-3.3,0-5.9,2.6-5.9,5.9s2.6,5.9,5.9,5.9c3.3,0,5.9-2.6,5.9-5.9l0,0C45.1,77.5,42.5,74.9,39.2,74.9z
	 M39.5,81.1l-2.8,2.8C36.6,84,36.6,84,36.5,84s-0.1,0-0.2-0.1c-0.1-0.1-0.1-0.3,0-0.4l2.6-2.6v-3.2c0-0.1,0.1-0.3,0.2-0.3
	c0,0,0,0,0.1,0c0.2,0,0.3,0.1,0.3,0.2C39.5,77.6,39.5,81.1,39.5,81.1z"/>
<polygon class="st1" points="75.3,69 0,69 0,70.7 75.3,70.7 75.3,74.2 82.7,69.9 75.3,65.6 "/>
<path class="st1" d="M67.4,10.5c2.8,0,5.1-2.3,5.1-5.1s-2.3-5.1-5.1-5.1c-2.8,0-5.1,2.3-5.1,5.1l0,0C62.3,8.2,64.6,10.5,67.4,10.5z
	 M65.3,9V8c0.1-0.7,0.8-1.2,1.5-1.1c0.2,0,0.4,0.1,0.6,0.2C67.6,7,67.8,6.9,68,6.9c0.7-0.1,1.4,0.4,1.5,1.1c0.1,0.3,0.1,0.7,0,1l0,0
	v0.3c0,0.1-0.1,0.2-0.1,0.3c-0.1,0.1-0.3,0.1-0.4,0c0,0,0,0,0-0.1l-0.3-0.3h-0.2c-0.4-0.1-0.7-0.3-0.9-0.6c-0.1-0.1-0.1-0.3-0.2-0.4
	c-0.1,0.1-0.1,0.3-0.2,0.4c-0.2,0.3-0.5,0.6-0.9,0.6h-0.2l-0.3,0.3c0,0.1-0.2,0.2-0.3,0.1h-0.1c-0.1,0-0.1-0.2-0.1-0.3V9z"/>
<path class="st1" d="M58.1,37c0.3,0.3,0.4,0.8,0.4,1.2h0.9c0-0.9-0.4-1.7-1.1-2.2C58.3,36.3,58.2,36.7,58.1,37z"/>
<path class="st1" d="M53.8,64h0.9V38.2l0,0c0-0.7,0.3-1.3,0.9-1.6l-0.3-0.9c-0.9,0.4-1.6,1.4-1.6,2.4l0,0v0.1l0,0
	C53.8,38.2,53.8,64,53.8,64z"/>
<path class="st1" d="M56.9,37.6c1.7,0,1.8-10.5,1.8-10.5c0-0.4-0.1-0.7-0.3-1c0.3-0.6,0.5-1.1,0.7-1.5c0.5-1.3,2.6-6.9,2.7-7.5H62
	l-1.6,7.2c0,0.1,0,0.2-0.1,0.2c0,0.2-0.1,0.3-0.1,0.5l0,0v0.1l0,0v0.1c0,0.2,0,0.3-0.1,0.5v0.7c0,1.5,0.5,3,1.3,4.2
	c0,0.2-0.1,0.3-0.1,0.5c-0.5,1.7-1.5,7.9,0.1,30.1c0.1,0.1,0.1,0.1,0.2,0.1v0.5c-0.1,1.2,0.8,2.3,2,2.4l0,0c1.2-0.1,2.1-1.2,2-2.4
	v-0.4c0.1-0.1,0.3-0.2,0.4-0.3c0.4-10.1-0.4-21.7,1.3-25.9c0.4,1.1,0.6,2.3,0.8,3.5c0.1,0.9,0.1,1.8,0.2,2.4c0,0.3,0.1,0.7,0.1,1.2
	c0.2,5.3,0,12.4,0.3,18.8c0.1,0.1,0.2,0.1,0.3,0.2v0.4c-0.1,1.2,0.8,2.3,2,2.4l0,0c1.2-0.1,2.1-1.2,2-2.4v-0.4l0.4-0.2
	c1.8-24.8,0.3-29.6-0.1-30.5c0.3-0.4,0.6-0.9,0.8-1.4c0,0.2,0.1,0.3,0.2,0.4c1.5,0.8,6.8-8.3,6.8-8.3c0.3-0.4,0.3-0.9,0.1-1.4
	c0-0.2,0-0.3-0.1-0.5c-1.1-3.1-4.9-5.2-7.7-6.2c-4.9-3.2-11.4-2-14.9,2.6c-0.3,0.4-0.6,0.8-0.8,1.3c0,0.1,0,0.1-0.1,0.2l0,0
	c-1.2,2.2-2.8,6.2-2.3,9.5c-0.1,0.2-0.1,0.4-0.1,0.6C55.1,27.1,55.2,37.6,56.9,37.6z M76.3,19.1c0.5,0.2,1,0.4,1.5,0.6
	c-1.2,2.1-2.2,4.3-3.1,6.6l0,0v-1.1l0,0V25c0-0.1,0-0.2-0.1-0.3c0-0.2-0.1-0.3-0.1-0.5l-1.6-6.9C73.9,17.8,75.5,18.7,76.3,19.1z
	 M67.8,12.5c0-0.1,0-0.2,0.1-0.2l0.6-0.2c0.3-0.1,0.5,0,0.5,0.3v0.4c0,0.2-0.2,0.3-0.3,0.3c-0.1,0-0.1,0-0.2,0l-0.6-0.2
	c-0.1,0-0.1-0.1-0.1-0.2V12.5z M67.4,12.1c0.2,0,0.4,0.2,0.4,0.4s-0.2,0.4-0.4,0.4c-0.2,0-0.4-0.2-0.4-0.4S67.2,12.1,67.4,12.1z
	 M65.6,12.4c0-0.2,0.2-0.3,0.3-0.3c0.1,0,0.1,0,0.2,0l0.6,0.2c0.1,0,0.1,0.1,0.1,0.2v0.1c0,0.1,0,0.2-0.1,0.2L66.1,13
	c-0.3,0.1-0.5,0-0.5-0.3V12.4z"/>
<circle class="st1" cx="35.4" cy="5.2" r="5.2"/>
<path class="st1" d="M21.5,21.3c0,0,5.4,9.3,6.9,8.4c0.1-0.1,0.2-0.2,0.2-0.4c0.1,0.1,0.1,0.3,0.2,0.4v2.6l0,0
	c-0.5,3.1-0.9,10.7,0.4,29.2c0.1,0.1,0.2,0.1,0.3,0.2v0.8c-0.1,1.2,0.8,2.3,2,2.4l0,0c1.2-0.1,2.1-1.2,2-2.4v-0.7
	c0.1-0.1,0.2-0.1,0.3-0.2c0.3-6.7,0-14.1,0.3-19.6v-0.4c0-0.5,0.1-1.2,0.1-2c0.1-1.5,0.4-2.9,0.9-4.3c1.7,4.2,0.9,16.1,1.3,26.4
	c0.1,0.1,0.2,0.2,0.4,0.2v0.6c-0.1,1.2,0.8,2.3,2,2.4l0,0c1.2-0.1,2.1-1.2,2-2.4v-0.7c0.1-0.1,0.2-0.1,0.3-0.2
	c1.3-18.7,0.9-26.2,0.4-29.3l0,0v-2.1c0.2-0.2,0.3-0.5,0.4-0.8c0,0.2,0.1,0.3,0.2,0.4c1.5,0.9,6.9-8.4,6.9-8.4
	c0.3-0.5,0.3-1,0.1-1.5c0-0.2,0-0.3-0.1-0.5c-1.8-5-10.6-7.4-11-7.2l0,0l-0.5-1.1l-2.2,0.2h-0.4l-2.2-0.2l-0.2,1l0,0
	c-0.5-0.2-9.2,2.2-11,7.2c-0.1,0.2-0.1,0.3-0.1,0.5C21.2,20.3,21.2,20.8,21.5,21.3z M44.5,19.1c0.5,0.2,1,0.4,1.5,0.6
	c-0.5,1-2.2,4.2-3.2,6.7l0,0c0-0.4,0-0.7-0.1-1.1l0,0v-0.1c-0.1-0.3-0.1-0.6-0.2-1l-1.6-7C42.1,17.9,43.7,18.7,44.5,19.1z
	 M34.6,12.5c0-0.5,0.4-0.9,0.9-0.9s0.9,0.4,0.9,0.9l0,0c0,0.1,0,0.3-0.1,0.4L36.5,24l-1,1l-1-1l0.2-11.1
	C34.6,12.8,34.6,12.6,34.6,12.5z M26.4,19.1c0.8-0.4,2.4-1.2,3.5-1.9l-1.6,7.1c-0.1,0.2-0.1,0.5-0.2,0.7v0.1l0,0
	C28,25.5,28,25.9,28,26.3l0,0c-0.9-2.3-1.9-4.6-3.2-6.7C25.4,19.5,25.9,19.4,26.4,19.1z"/>
<path class="st1" d="M0.8,48.7c0.1,0.1,0.3,0.1,0.4,0.1c0.5,0,0.9-0.3,1.1-0.8l3.6-9.3v23.1l0,0v1.7c0,0.8,0.6,1.4,1.3,1.4
	c0,0,0,0,0.1,0h0.3c0.8,0,1.4-0.6,1.4-1.3c0,0,0,0,0-0.1V62l0,0V49.1h1.7v3.1l0,0v11.2c0,0.8,0.6,1.4,1.3,1.4c0,0,0,0,0.1,0h0.4
	c0.8,0,1.4-0.6,1.4-1.3c0,0,0,0,0-0.1v-1.5l0,0v-23l3.6,9.3c0.2,0.5,0.6,0.8,1.1,0.8c0.1,0,0.3,0,0.4-0.1c0.6-0.2,0.9-0.9,0.7-1.5
	L14.9,35c-0.2-0.4-0.6-0.7-1-0.7h-2.4v-1.2c1.2-0.5,2.2-1.5,2.6-2.8l0,0c0.5-0.8,0.7-1.7,0.7-2.6c0-1.6-0.8-3.1-2.1-4
	c0.8-0.2,0.5-1.1,0-1.3c0,0.8-2.1,0.4-2.1,0.4l0,0c-0.2,0-0.5-0.1-0.7-0.1c-2.7,0-4.9,2.2-4.9,4.9c0,0.9,0.2,1.8,0.7,2.6l0,0
	C6.1,31.5,7,32.5,8.3,33v1.2H5.9c-0.4,0-0.8,0.3-1,0.7L0.1,47.2C-0.1,47.8,0.2,48.5,0.8,48.7z"/>
</svg>
