<svg xmlns="http://www.w3.org/2000/svg" viewBox="0 0 541 130.61">
  <defs>
    <style>
      .cls-1 {
        fill: #fff;
      }

      .cls-2 {
        fill: #191919;
        stroke: #fff;
        stroke-miterlimit: 10;
        stroke-width: 2px;
      }

      .cls-3 {
        fill: #eb0029;
      }

      .cls-4 {
        fill: #3867bb;
      }

      .cls-5 {
        fill: #4c8674;
      }
    </style>
  </defs>
  <g id="Layer_2" data-name="Layer 2">
    <g id="Layer_1-2" data-name="Layer 1">
      <g>
        <path class="cls-1" d="M20.08,126.16H18.14v-.86h2.07l.39-2.81H18.66v-.86h2.07l.54-4.09h.94l-.56,4.09h2.5l.56-4.09h.93l-.55,4.09H27v.86H25l-.38,2.81h2v.86H24.46l-.54,4.13H23l.54-4.13H21l-.54,4.13h-.94ZM24,122.49H21.54l-.38,2.81h2.49Z"/>
        <path class="cls-1" d="M32,119.05h0l-2.3,1.89-.67-.82,3.15-2.58H33v12.75H32Z"/>
        <path class="cls-1" d="M43,124.67h0a2.07,2.07,0,0,1-.87.4,4.37,4.37,0,0,1-1,.14,3.86,3.86,0,0,1-3.9-3.92,4,4,0,0,1,.31-1.6,3.68,3.68,0,0,1,.88-1.25,4,4,0,0,1,1.32-.82,4.49,4.49,0,0,1,1.66-.29,4.55,4.55,0,0,1,1.67.29,4,4,0,0,1,1.32.82,3.8,3.8,0,0,1,.87,1.25,4,4,0,0,1,.32,1.6,4.19,4.19,0,0,1-.11.95,4.73,4.73,0,0,1-.29.85c-.12.27-.25.53-.38.77l-.39.68-3.46,5.75H39.49Zm-1.66-.4a2.83,2.83,0,0,0,1.16-.23,3,3,0,0,0,1-.64,3.2,3.2,0,0,0,.64-.94,3,3,0,0,0,.23-1.17,3.4,3.4,0,0,0-.21-1.22,2.79,2.79,0,0,0-.62-.95,2.88,2.88,0,0,0-.94-.61,3.4,3.4,0,0,0-1.22-.21,3.34,3.34,0,0,0-1.21.21,2.93,2.93,0,0,0-1,.61,2.77,2.77,0,0,0-.61.95,3.4,3.4,0,0,0-.21,1.22,2.84,2.84,0,0,0,.23,1.17,3.2,3.2,0,0,0,.64.94,3.07,3.07,0,0,0,.94.64A2.84,2.84,0,0,0,41.3,124.27Z"/>
        <path class="cls-1" d="M50.68,119.05h0l-2.3,1.89-.67-.82,3.15-2.58h.92v12.75H50.68Z"/>
        <path class="cls-1" d="M61.68,124.67h0a2.13,2.13,0,0,1-.87.4,4.37,4.37,0,0,1-1,.14,4,4,0,0,1-2.81-1.14,3.89,3.89,0,0,1-1.09-2.78,4,4,0,0,1,.31-1.6,3.8,3.8,0,0,1,.87-1.25,4.19,4.19,0,0,1,1.33-.82,4.49,4.49,0,0,1,1.66-.29,4.55,4.55,0,0,1,1.67.29,4,4,0,0,1,1.32.82,3.8,3.8,0,0,1,.87,1.25,4,4,0,0,1,.32,1.6,4.19,4.19,0,0,1-.11.95,4.73,4.73,0,0,1-.29.85c-.12.27-.25.53-.38.77l-.39.68-3.46,5.75H58.2Zm-1.66-.4a2.83,2.83,0,0,0,1.16-.23,3,3,0,0,0,1-.64,3.2,3.2,0,0,0,.64-.94,3,3,0,0,0,.23-1.17,3.19,3.19,0,0,0-.22-1.22,2.63,2.63,0,0,0-.61-.95,2.88,2.88,0,0,0-.94-.61A3.4,3.4,0,0,0,60,118.3a3.34,3.34,0,0,0-1.21.21,2.93,2.93,0,0,0-1,.61,2.77,2.77,0,0,0-.61.95,3.4,3.4,0,0,0-.22,1.22,2.85,2.85,0,0,0,.24,1.17,3,3,0,0,0,.64.94,3.07,3.07,0,0,0,.94.64A2.84,2.84,0,0,0,60,124.27Z"/>
        <path class="cls-1" d="M69.4,119.05h0l-2.3,1.89-.67-.82,3.15-2.58h.92v12.75H69.4Z"/>
        <path class="cls-1" d="M80.4,124.67h0a2.19,2.19,0,0,1-.87.4,4.37,4.37,0,0,1-1,.14,3.89,3.89,0,0,1-1.57-.31,3.8,3.8,0,0,1-1.24-.83,3.74,3.74,0,0,1-.81-1.25,4.17,4.17,0,0,1,0-3.13,3.8,3.8,0,0,1,.87-1.25,4.08,4.08,0,0,1,1.33-.82,4.49,4.49,0,0,1,1.66-.29,4.55,4.55,0,0,1,1.67.29,4,4,0,0,1,1.32.82,3.8,3.8,0,0,1,.87,1.25,4,4,0,0,1,.32,1.6,4.19,4.19,0,0,1-.11.95,4.73,4.73,0,0,1-.29.85,7.91,7.91,0,0,1-.39.77l-.38.68-3.46,5.75H76.92Zm-1.66-.4A2.83,2.83,0,0,0,79.9,124a3,3,0,0,0,1-.64,3,3,0,0,0,.63-.94,2.85,2.85,0,0,0,.24-1.17,3.19,3.19,0,0,0-.22-1.22,2.77,2.77,0,0,0-.61-.95,2.88,2.88,0,0,0-.94-.61,3.43,3.43,0,0,0-1.22-.21,3.34,3.34,0,0,0-1.21.21,2.82,2.82,0,0,0-1,.61,2.77,2.77,0,0,0-.61.95,3.19,3.19,0,0,0-.22,1.22,2.85,2.85,0,0,0,.24,1.17,3,3,0,0,0,.64.94,3.07,3.07,0,0,0,.94.64A2.84,2.84,0,0,0,78.74,124.27Z"/>
      </g>
      <g>
        <path class="cls-1" d="M128.93,126.16H127v-.86h2.07l.4-2.81h-2v-.86h2.07l.54-4.09h.94l-.56,4.09H133l.56-4.09h.94l-.56,4.09h1.94v.86h-2.07l-.38,2.81h1.95v.86h-2.07l-.54,4.13h-.94l.54-4.13h-2.5l-.54,4.13h-.94Zm3.95-3.67h-2.49L130,125.3h2.49Z"/>
        <path class="cls-1" d="M137.86,117.54h7.8v1.08h-6.61v4.54h6.19v1.08h-6.19v5h6.89v1.08h-8.08Z"/>
        <path class="cls-1" d="M148.54,117.54h3.67a9.17,9.17,0,0,1,1.46.12,3.6,3.6,0,0,1,1.32.48,2.78,2.78,0,0,1,.95,1,3.51,3.51,0,0,1,.37,1.74,2.64,2.64,0,0,1-.57,1.69,2.83,2.83,0,0,1-1.71,1v0a3.1,3.1,0,0,1,1.15.3,2.72,2.72,0,0,1,1.48,1.61,3.87,3.87,0,0,1-.21,3,3.19,3.19,0,0,1-1.07,1.09,3.76,3.76,0,0,1-1.38.54,7.11,7.11,0,0,1-1.4.15h-4.06Zm1.18,5.51h2.47a4.13,4.13,0,0,0,1.49-.23,2.56,2.56,0,0,0,.9-.54,1.72,1.72,0,0,0,.44-.7,2.65,2.65,0,0,0-.12-1.78,1.87,1.87,0,0,0-.6-.7,2.36,2.36,0,0,0-.89-.37,5.14,5.14,0,0,0-1.06-.11h-2.63Zm0,6.16h2.72a4.55,4.55,0,0,0,1.68-.26,2.42,2.42,0,0,0,1-.63,2.11,2.11,0,0,0,.46-.8,3.17,3.17,0,0,0,.11-.76,2.54,2.54,0,0,0-.27-1.21,2.43,2.43,0,0,0-.7-.82,3,3,0,0,0-1-.46,4.69,4.69,0,0,0-1.11-.14h-2.9Z"/>
        <path class="cls-1" d="M158.6,123.91c0-.45,0-.94.06-1.45a10.5,10.5,0,0,1,.23-1.49,8.73,8.73,0,0,1,.47-1.39,4.6,4.6,0,0,1,.77-1.16,3.52,3.52,0,0,1,1.12-.8,4.34,4.34,0,0,1,3.12,0,3.63,3.63,0,0,1,1.12.8,4.6,4.6,0,0,1,.77,1.16,7.08,7.08,0,0,1,.46,1.39,9.26,9.26,0,0,1,.24,1.49c0,.51.06,1,.06,1.45s0,1-.06,1.46a9.26,9.26,0,0,1-.24,1.49,7.21,7.21,0,0,1-.46,1.38,4.27,4.27,0,0,1-.77,1.16,3.33,3.33,0,0,1-1.12.8,4.21,4.21,0,0,1-3.12,0,3.23,3.23,0,0,1-1.12-.8,4.27,4.27,0,0,1-.77-1.16,9,9,0,0,1-.47-1.38,10.5,10.5,0,0,1-.23-1.49C158.62,124.87,158.6,124.38,158.6,123.91Zm1.19,0q0,.51,0,1.11a10.41,10.41,0,0,0,.15,1.22,7.27,7.27,0,0,0,.31,1.22,4.16,4.16,0,0,0,.54,1,2.63,2.63,0,0,0,.82.74,2.25,2.25,0,0,0,1.17.28,2.29,2.29,0,0,0,1.16-.28,2.56,2.56,0,0,0,.83-.74,4.16,4.16,0,0,0,.54-1,7.27,7.27,0,0,0,.31-1.22,10.41,10.41,0,0,0,.15-1.22q0-.6,0-1.11c0-.32,0-.69,0-1.1a10.85,10.85,0,0,0-.15-1.23,7.16,7.16,0,0,0-.31-1.21,4.22,4.22,0,0,0-.54-1.06,2.53,2.53,0,0,0-.83-.73,2.54,2.54,0,0,0-2.32,0,2.53,2.53,0,0,0-.83.73,4.22,4.22,0,0,0-.54,1.06,7.16,7.16,0,0,0-.31,1.21,10.85,10.85,0,0,0-.15,1.23C159.8,123.22,159.79,123.59,159.79,123.91Z"/>
        <path class="cls-1" d="M168,123.91c0-.45,0-.94.06-1.45a10.5,10.5,0,0,1,.23-1.49,7.83,7.83,0,0,1,.47-1.39,4.34,4.34,0,0,1,.77-1.16,3.52,3.52,0,0,1,1.12-.8,4.34,4.34,0,0,1,3.12,0,3.63,3.63,0,0,1,1.12.8,4.6,4.6,0,0,1,.77,1.16,7.81,7.81,0,0,1,.46,1.39,9.26,9.26,0,0,1,.24,1.49c0,.51.06,1,.06,1.45s0,1-.06,1.46a9.26,9.26,0,0,1-.24,1.49,8,8,0,0,1-.46,1.38,4.27,4.27,0,0,1-.77,1.16,3.33,3.33,0,0,1-1.12.8,4.21,4.21,0,0,1-3.12,0,3.23,3.23,0,0,1-1.12-.8,4,4,0,0,1-.77-1.16,8,8,0,0,1-.47-1.38,10.5,10.5,0,0,1-.23-1.49C168,124.87,168,124.38,168,123.91Zm1.19,0q0,.51,0,1.11a10.41,10.41,0,0,0,.15,1.22,7.27,7.27,0,0,0,.31,1.22,4.16,4.16,0,0,0,.54,1,2.53,2.53,0,0,0,.82.74,2.25,2.25,0,0,0,1.17.28,2.29,2.29,0,0,0,1.16-.28,2.56,2.56,0,0,0,.83-.74,4.16,4.16,0,0,0,.54-1,7.27,7.27,0,0,0,.31-1.22c.07-.41.12-.82.15-1.22s0-.77,0-1.11,0-.69,0-1.1-.08-.81-.15-1.23a7.16,7.16,0,0,0-.31-1.21,4.22,4.22,0,0,0-.54-1.06,2.53,2.53,0,0,0-.83-.73,2.54,2.54,0,0,0-2.32,0,2.53,2.53,0,0,0-.83.73,4.22,4.22,0,0,0-.54,1.06,7.16,7.16,0,0,0-.31,1.21,10.85,10.85,0,0,0-.15,1.23C169.16,123.22,169.15,123.59,169.15,123.91Z"/>
        <path class="cls-1" d="M177.59,129l4.78-5.06c.22-.22.44-.45.65-.7a6.28,6.28,0,0,0,.59-.77,4.48,4.48,0,0,0,.42-.85,2.84,2.84,0,0,0,.16-1,2.19,2.19,0,0,0-.72-1.74,2.65,2.65,0,0,0-1.82-.63,2.52,2.52,0,0,0-1.67.57,2.61,2.61,0,0,0-.88,1.52l-1.26-.13a3.4,3.4,0,0,1,1.35-2.21,4.7,4.7,0,0,1,3.92-.5,3.48,3.48,0,0,1,1.17.64,2.86,2.86,0,0,1,.8,1,3,3,0,0,1,.3,1.37,4,4,0,0,1-.22,1.37,5.61,5.61,0,0,1-.6,1.2,7.75,7.75,0,0,1-.84,1.07l-1,1-4,4.08h6.7v1h-7.88Z"/>
        <path class="cls-1" d="M192.54,124.67h0a2.18,2.18,0,0,1-.88.4,4.22,4.22,0,0,1-1,.14,3.86,3.86,0,0,1-1.57-.31,3.8,3.8,0,0,1-1.24-.83,3.74,3.74,0,0,1-.81-1.25,4.17,4.17,0,0,1,0-3.13,3.8,3.8,0,0,1,.87-1.25,4,4,0,0,1,1.32-.82,4.55,4.55,0,0,1,1.67-.29,4.49,4.49,0,0,1,1.66.29,4.19,4.19,0,0,1,1.33.82,3.8,3.8,0,0,1,.87,1.25,4,4,0,0,1,.31,1.6,4.19,4.19,0,0,1-.1.95,5.66,5.66,0,0,1-.29.85,7.91,7.91,0,0,1-.39.77l-.39.68-3.45,5.75h-1.37Zm-1.65-.4a2.86,2.86,0,0,0,1.16-.23,3,3,0,0,0,1.59-1.58,2.85,2.85,0,0,0,.24-1.17,3.4,3.4,0,0,0-.22-1.22,2.77,2.77,0,0,0-.61-.95,2.93,2.93,0,0,0-1-.61,3.34,3.34,0,0,0-1.21-.21,3.4,3.4,0,0,0-1.22.21,2.88,2.88,0,0,0-.94.61,2.63,2.63,0,0,0-.61.95,3.19,3.19,0,0,0-.22,1.22,3,3,0,0,0,.23,1.17,3.2,3.2,0,0,0,.64.94,3.12,3.12,0,0,0,.95.64A2.84,2.84,0,0,0,190.89,124.27Z"/>
      </g>
      <g>
        <path class="cls-1" d="M239.1,126.16h-1.94v-.86h2.07l.39-2.81h-1.94v-.86h2.07l.54-4.09h.94l-.56,4.09h2.5l.56-4.09h.93l-.55,4.09h1.94v.86H244l-.38,2.81h2v.86h-2.07l-.54,4.13H242l.54-4.13H240l-.54,4.13h-.94Zm3.94-3.67h-2.48l-.38,2.81h2.49Z"/>
        <path class="cls-1" d="M248.19,127.62a3.33,3.33,0,0,0,1,1.41,2.67,2.67,0,0,0,1.7.5,3.28,3.28,0,0,0,1.25-.22,2.43,2.43,0,0,0,.89-.59,2.62,2.62,0,0,0,.53-.88,3.22,3.22,0,0,0,.18-1.08,2.34,2.34,0,0,0-.3-1.21,2.63,2.63,0,0,0-.77-.82,3.49,3.49,0,0,0-1.08-.46,5.64,5.64,0,0,0-1.22-.14h-.47v-1.08h.54a4,4,0,0,0,1-.14,2.86,2.86,0,0,0,.92-.42,2.18,2.18,0,0,0,.66-.75,2.32,2.32,0,0,0,.25-1.1,2.35,2.35,0,0,0-.64-1.69,2.32,2.32,0,0,0-1.72-.65,2.56,2.56,0,0,0-1.42.4,2.89,2.89,0,0,0-1,1.09l-1-.57a3.26,3.26,0,0,1,1.43-1.44,4.74,4.74,0,0,1,3.38-.25,3.33,3.33,0,0,1,1.13.61,2.81,2.81,0,0,1,.77,1,3.56,3.56,0,0,1,.28,1.44,3.13,3.13,0,0,1-.58,1.85,3,3,0,0,1-1.69,1.1v0a3.37,3.37,0,0,1,1.1.4,3.58,3.58,0,0,1,.86.73,3.17,3.17,0,0,1,.56,1,3.35,3.35,0,0,1,.2,1.15,4.16,4.16,0,0,1-.25,1.42,3.15,3.15,0,0,1-.74,1.16,3.5,3.5,0,0,1-1.23.78,4.78,4.78,0,0,1-1.73.29,4.67,4.67,0,0,1-2.44-.6A3.73,3.73,0,0,1,247,128Z"/>
        <path class="cls-1" d="M256.83,120.64a3.32,3.32,0,0,1,.27-1.35,3.17,3.17,0,0,1,.74-1.05,3.43,3.43,0,0,1,1.11-.67,3.83,3.83,0,0,1,1.37-.24,3.93,3.93,0,0,1,1.38.24,3.66,3.66,0,0,1,1.11.67,3.14,3.14,0,0,1,.73,1.05,3.32,3.32,0,0,1,.27,1.35,2.76,2.76,0,0,1-.14.89,3.73,3.73,0,0,1-.4.83,3.13,3.13,0,0,1-.64.67,2.7,2.7,0,0,1-.85.42h0a2.94,2.94,0,0,1,1.07.44,3.13,3.13,0,0,1,.78.76,3.63,3.63,0,0,1,.47,1,3.77,3.77,0,0,1,.16,1.11,3.94,3.94,0,0,1-.29,1.56,3.55,3.55,0,0,1-.83,1.18,3.82,3.82,0,0,1-1.25.75,4.67,4.67,0,0,1-3.13,0,3.82,3.82,0,0,1-1.25-.75,3.41,3.41,0,0,1-.83-1.18,3.94,3.94,0,0,1-.3-1.56,3.77,3.77,0,0,1,.16-1.11,3.38,3.38,0,0,1,.48-1,3.27,3.27,0,0,1,.77-.76,3.1,3.1,0,0,1,1.07-.44h0A2.55,2.55,0,0,1,258,123a2.9,2.9,0,0,1-.64-.67,3.77,3.77,0,0,1-.41-.83A3.06,3.06,0,0,1,256.83,120.64Zm.74,6.1a2.8,2.8,0,0,0,.2,1.08,2.57,2.57,0,0,0,.55.88,2.76,2.76,0,0,0,2,.83,2.72,2.72,0,0,0,2-.83,2.6,2.6,0,0,0,.56-.88,3,3,0,0,0,.2-1.08,3,3,0,0,0-.22-1.14,2.74,2.74,0,0,0-.58-.89,2.6,2.6,0,0,0-.88-.56,2.92,2.92,0,0,0-1.08-.2,3,3,0,0,0-1.08.2,2.65,2.65,0,0,0-.87.56,2.77,2.77,0,0,0-.59.89A3,3,0,0,0,257.57,126.74Zm.45-6.1a2.53,2.53,0,0,0,.17.91,2.23,2.23,0,0,0,.47.73,2.22,2.22,0,0,0,1.66.7,2.43,2.43,0,0,0,.94-.19,2.28,2.28,0,0,0,.73-.51,2.41,2.41,0,0,0,.47-.73,2.53,2.53,0,0,0,.17-.91,2.31,2.31,0,1,0-4.61,0Z"/>
        <path class="cls-1" d="M268,123.16h0a2.2,2.2,0,0,1,.87-.41,4.32,4.32,0,0,1,1-.13,3.83,3.83,0,0,1,2.81,1.14,3.7,3.7,0,0,1,.81,1.24,4.14,4.14,0,0,1,.29,1.54,3.93,3.93,0,0,1-.32,1.59,3.74,3.74,0,0,1-.87,1.26,4,4,0,0,1-1.32.81,4.55,4.55,0,0,1-1.67.3,4.49,4.49,0,0,1-1.66-.3,4.17,4.17,0,0,1-1.33-.81,3.74,3.74,0,0,1-.87-1.26,3.92,3.92,0,0,1-.31-1.59,4.19,4.19,0,0,1,.1-1,5.79,5.79,0,0,1,.29-.86c.12-.27.25-.52.38-.76s.26-.47.4-.69l3.45-5.74h1.37Zm1.65.39a2.85,2.85,0,0,0-1.17.24,2.9,2.9,0,0,0-.94.64,3,3,0,0,0-.88,2.11,3.4,3.4,0,0,0,.22,1.22,2.73,2.73,0,0,0,.61.94,2.63,2.63,0,0,0,1,.61,3.14,3.14,0,0,0,1.21.22,3.19,3.19,0,0,0,1.22-.22,2.69,2.69,0,0,0,1.55-1.55,3.19,3.19,0,0,0,.22-1.22,3,3,0,0,0-.23-1.16,3,3,0,0,0-.64-.95,2.89,2.89,0,0,0-1-.64A2.83,2.83,0,0,0,269.68,123.55Z"/>
        <path class="cls-1" d="M282.33,118.51l-5.07,11.78h-1.21l5.17-11.78H275.1v-1h7.23Z"/>
        <path class="cls-1" d="M285.47,117.54h3.67a9.17,9.17,0,0,1,1.46.12,3.6,3.6,0,0,1,1.32.48,2.78,2.78,0,0,1,.95,1,3.51,3.51,0,0,1,.37,1.74,2.64,2.64,0,0,1-.57,1.69,2.83,2.83,0,0,1-1.71,1v0a3.1,3.1,0,0,1,1.15.3,2.72,2.72,0,0,1,1.48,1.61,3.87,3.87,0,0,1-.21,3,3.26,3.26,0,0,1-1.06,1.09,3.87,3.87,0,0,1-1.39.54,7.09,7.09,0,0,1-1.39.15h-4.07Zm1.18,5.51h2.47a4.13,4.13,0,0,0,1.49-.23,2.56,2.56,0,0,0,.9-.54,1.72,1.72,0,0,0,.44-.7,2.65,2.65,0,0,0-.12-1.78,1.87,1.87,0,0,0-.6-.7,2.36,2.36,0,0,0-.89-.37,5.14,5.14,0,0,0-1.06-.11h-2.63Zm0,6.16h2.72a4.65,4.65,0,0,0,1.69-.26,2.45,2.45,0,0,0,1-.63,2.11,2.11,0,0,0,.46-.8,3.17,3.17,0,0,0,.11-.76,2.54,2.54,0,0,0-.27-1.21,2.43,2.43,0,0,0-.7-.82,3,3,0,0,0-1-.46,4.69,4.69,0,0,0-1.11-.14h-2.9Z"/>
        <path class="cls-1" d="M296.81,117.54h3.67a9.17,9.17,0,0,1,1.46.12,3.6,3.6,0,0,1,1.32.48,2.78,2.78,0,0,1,.95,1,3.51,3.51,0,0,1,.37,1.74,2.64,2.64,0,0,1-.57,1.69,2.83,2.83,0,0,1-1.71,1v0a3.1,3.1,0,0,1,1.15.3,2.72,2.72,0,0,1,1.48,1.61,3.87,3.87,0,0,1-.21,3,3.26,3.26,0,0,1-1.06,1.09,3.87,3.87,0,0,1-1.39.54,7.11,7.11,0,0,1-1.4.15h-4.06Zm1.18,5.51h2.47a4.13,4.13,0,0,0,1.49-.23,2.56,2.56,0,0,0,.9-.54,1.72,1.72,0,0,0,.44-.7,2.65,2.65,0,0,0-.12-1.78,1.87,1.87,0,0,0-.6-.7,2.36,2.36,0,0,0-.89-.37,5.14,5.14,0,0,0-1.06-.11H298Zm0,6.16h2.72a4.65,4.65,0,0,0,1.69-.26,2.45,2.45,0,0,0,1-.63,2.11,2.11,0,0,0,.46-.8,3.17,3.17,0,0,0,.11-.76,2.54,2.54,0,0,0-.27-1.21,2.43,2.43,0,0,0-.7-.82,3,3,0,0,0-1-.46,4.69,4.69,0,0,0-1.11-.14H298Z"/>
      </g>
      <g>
        <path class="cls-1" d="M348.93,126.16H347v-.86h2.07l.4-2.81H347.5v-.86h2.07l.54-4.09h.94l-.56,4.09H353l.56-4.09h.94l-.56,4.09h1.94v.86H353.8l-.37,2.81h1.94v.86H353.3l-.54,4.13h-.94l.54-4.13h-2.5l-.54,4.13h-.93Zm3.94-3.67h-2.49L350,125.3h2.48Z"/>
        <path class="cls-1" d="M362,127.15h-5.51v-1.27l5.1-8.34h1.49v8.64h1.94v1h-1.94v3.14H362Zm0-8.42h0l-4.5,7.45H362Z"/>
        <path class="cls-1" d="M377.71,128.29a5.4,5.4,0,0,1-2.13,1.78,6.29,6.29,0,0,1-2.61.54,7,7,0,0,1-2.67-.5,6.1,6.1,0,0,1-2.08-1.38,6.25,6.25,0,0,1-1.35-2.13,7.6,7.6,0,0,1,0-5.37,6.26,6.26,0,0,1,1.35-2.11,6.15,6.15,0,0,1,2.08-1.4,7,7,0,0,1,2.67-.5,6.25,6.25,0,0,1,2.42.46,4.82,4.82,0,0,1,2,1.54l-1,.81a3.52,3.52,0,0,0-1.52-1.32,4.71,4.71,0,0,0-1.9-.41,5.56,5.56,0,0,0-2.24.43,5,5,0,0,0-1.7,1.19A5.19,5.19,0,0,0,368,121.7a6.65,6.65,0,0,0,0,4.43,5,5,0,0,0,2.78,3,5.56,5.56,0,0,0,2.24.43,4.49,4.49,0,0,0,1-.12,4.77,4.77,0,0,0,1-.36,4.57,4.57,0,0,0,.94-.61,3.76,3.76,0,0,0,.79-.89Z"/>
        <path class="cls-1" d="M379.33,120.64a3.32,3.32,0,0,1,.27-1.35,3.14,3.14,0,0,1,.73-1.05,3.66,3.66,0,0,1,1.11-.67,4.09,4.09,0,0,1,2.76,0,3.49,3.49,0,0,1,1.1.67,3.17,3.17,0,0,1,.74,1.05,3.32,3.32,0,0,1,.27,1.35,3.06,3.06,0,0,1-.14.89,3.38,3.38,0,0,1-.41.83,2.9,2.9,0,0,1-.64.67,2.55,2.55,0,0,1-.84.42h0a3.1,3.1,0,0,1,1.07.44,3.27,3.27,0,0,1,.77.76,3.38,3.38,0,0,1,.48,1,3.77,3.77,0,0,1,.16,1.11,3.94,3.94,0,0,1-.3,1.56,3.39,3.39,0,0,1-.82,1.18,4,4,0,0,1-1.26.75,4.67,4.67,0,0,1-3.13,0,3.93,3.93,0,0,1-1.25-.75,3.55,3.55,0,0,1-.83-1.18,4.13,4.13,0,0,1-.29-1.56,3.77,3.77,0,0,1,.16-1.11,3.38,3.38,0,0,1,.48-1,3.09,3.09,0,0,1,.77-.76,3,3,0,0,1,1.07-.44h0a2.7,2.7,0,0,1-.85-.42,2.86,2.86,0,0,1-.63-.67,3.38,3.38,0,0,1-.41-.83A2.76,2.76,0,0,1,379.33,120.64Zm.73,6.1a3,3,0,0,0,.2,1.08,2.6,2.6,0,0,0,.56.88,2.72,2.72,0,0,0,2,.83,2.76,2.76,0,0,0,2-.83,2.57,2.57,0,0,0,.55-.88,2.8,2.8,0,0,0,.2-1.08,3,3,0,0,0-.21-1.14,2.77,2.77,0,0,0-.59-.89,2.55,2.55,0,0,0-.87-.56,3,3,0,0,0-1.08-.2,2.92,2.92,0,0,0-1.08.2,2.46,2.46,0,0,0-.87.56,2.61,2.61,0,0,0-.59.89A3,3,0,0,0,380.06,126.74Zm.45-6.1a2.34,2.34,0,0,0,.18.91,2.38,2.38,0,0,0,.46.73,2.35,2.35,0,0,0,.72.51,2.44,2.44,0,0,0,.95.19,2.38,2.38,0,0,0,.93-.19,2.17,2.17,0,0,0,.73-.51,2.23,2.23,0,0,0,.47-.73,2.34,2.34,0,0,0,.17-.91,2.34,2.34,0,0,0-3.95-1.7A2.24,2.24,0,0,0,380.51,120.64Z"/>
        <path class="cls-1" d="M390.52,123.16h0a2.08,2.08,0,0,1,.87-.41,4.32,4.32,0,0,1,1-.13,3.8,3.8,0,0,1,3.62,2.38,4.13,4.13,0,0,1,.28,1.54,3.92,3.92,0,0,1-.31,1.59,3.74,3.74,0,0,1-.87,1.26,4.17,4.17,0,0,1-1.33.81,4.49,4.49,0,0,1-1.66.3,4.55,4.55,0,0,1-1.67-.3,4,4,0,0,1-1.32-.81,3.74,3.74,0,0,1-.87-1.26,3.93,3.93,0,0,1-.32-1.59,4.19,4.19,0,0,1,.11-1,4.83,4.83,0,0,1,.29-.86,7.69,7.69,0,0,1,.38-.76l.39-.69,3.46-5.74H394Zm1.66.39a2.85,2.85,0,0,0-1.17.24,3,3,0,0,0-.95.64,3,3,0,0,0-.64.95,3,3,0,0,0-.23,1.16,3.19,3.19,0,0,0,.22,1.22,2.69,2.69,0,0,0,1.55,1.55,3.19,3.19,0,0,0,1.22.22,3.14,3.14,0,0,0,1.21-.22,2.63,2.63,0,0,0,.95-.61,2.73,2.73,0,0,0,.61-.94,3.4,3.4,0,0,0,.22-1.22,3,3,0,0,0-3-3Z"/>
        <path class="cls-1" d="M404.83,118.51l-5.07,11.78h-1.21l5.17-11.78H397.6v-1h7.23Z"/>
        <path class="cls-1" d="M412.14,127.15h-5.51v-1.27l5.09-8.34h1.5v8.64h1.94v1h-1.94v3.14h-1.08Zm0-8.42h0l-4.5,7.45h4.54Z"/>
      </g>
      <g>
        <path class="cls-1" d="M458.64,126.16h-1.95v-.86h2.07l.4-2.81h-2v-.86h2.08l.54-4.09h.93l-.56,4.09h2.51l.55-4.09h.94l-.56,4.09h1.94v.86h-2.07l-.37,2.81h1.94v.86H463l-.54,4.13h-.93l.54-4.13h-2.51l-.54,4.13h-.93Zm3.94-3.67h-2.49l-.37,2.81h2.48Z"/>
        <path class="cls-1" d="M467.56,117.54h7.64v1.08h-6.45v4.54h6v1.08h-6v6h-1.19Z"/>
        <path class="cls-1" d="M477.57,117.54h7.63v1.08h-6.44v4.54h6v1.08h-6v6h-1.19Z"/>
        <path class="cls-1" d="M487.58,117.54h7.63v1.08h-6.44v4.54h6v1.08h-6v6h-1.19Z"/>
        <path class="cls-1" d="M497.59,117.54h7.63v1.08h-6.44v4.54h6v1.08h-6v6h-1.19Z"/>
        <path class="cls-1" d="M507.6,117.54h7.63v1.08h-6.45v4.54h6v1.08h-6v6H507.6Z"/>
        <path class="cls-1" d="M517.6,117.54h7.64v1.08h-6.45v4.54h6v1.08h-6v6H517.6Z"/>
      </g>
      <rect class="cls-2" x="1" y="1" width="100" height="100" rx="12"/>
      <rect class="cls-3" x="111" y="1" width="100" height="100" rx="12"/>
      <rect class="cls-4" x="221" y="1" width="100" height="100" rx="12"/>
      <rect class="cls-5" x="331" y="1" width="100" height="100" rx="12"/>
      <rect class="cls-1" x="441" y="1" width="100" height="100" rx="12"/>
    </g>
  </g>
</svg>
