<svg fill="none" height="100" viewBox="0 0 100 100" width="100" xmlns="http://www.w3.org/2000/svg"><g clip-rule="evenodd" fill="#eb0029" fill-rule="evenodd"><path d="m43 52c0-2.1818 1.8182-4 4-4s4 1.8182 4 4-1.8182 4-4 4-4-1.8182-4-4z"/><path d="m47 21.5c0-1.9091 1.8182-3.5 4-3.5s4 1.5909 4 3.5-1.8182 3.5-4 3.5-4-1.5909-4-3.5z"/><path d="m14.4205 29.1136c-1.3523 0-2.3864 1.0341-2.3864 2.3864s1.0341 2.3864 2.3864 2.3864c1.3522 0 2.3863-1.0341 2.3863-2.3864s-1.0341-2.3864-2.3863-2.3864zm.0795-1.1136c1.9091 0 3.5 1.5909 3.5 3.5s-1.5909 3.5-3.5 3.5-3.5-1.5909-3.5-3.5 1.5909-3.5 3.5-3.5z"/><path d="m68 15.0341c-1.5455 0-2.7273 1.0341-2.7273 2.3864 0 1.3522 1.1818 2.3863 2.7273 2.3863s2.7273-1.0341 2.7273-2.3863c0-1.3523-1.2728-2.3864-2.7273-2.3864zm0-1.0341c2.1818 0 4 1.5909 4 3.5s-1.8182 3.5-4 3.5-4-1.5909-4-3.5 1.7273-3.5 4-3.5z"/><path d="m30 76c0-2.1818 1.8182-4 4-4s4 1.8182 4 4-1.8182 4-4 4-4-1.7273-4-4z"/><path d="m40 14.1136c-1.5455 0-2.7273 1.0341-2.7273 2.3864s1.1818 2.3864 2.7273 2.3864 2.7273-1.0341 2.7273-2.3864-1.1818-2.3864-2.7273-2.3864zm0-1.1136c2.1818 0 4 1.5909 4 3.5s-1.8182 3.5-4 3.5-4-1.5909-4-3.5 1.8182-3.5 4-3.5z"/><path d="m17 66.2727c-1.5455 0-2.7273 1.1818-2.7273 2.7273s1.1818 2.7273 2.7273 2.7273 2.7273-1.1818 2.7273-2.7273c0-1.4545-1.2728-2.7273-2.7273-2.7273zm0-1.2727c2.1818 0 4 1.8182 4 4s-1.8182 4-4 4-4-1.8182-4-4 1.8182-4 4-4z"/><path d="m86 36.2727c-1.5455 0-2.7273 1.1818-2.7273 2.7273s1.1818 2.7273 2.7273 2.7273 2.7273-1.1818 2.7273-2.7273c.0909-1.5455-1.1818-2.7273-2.7273-2.7273zm0-1.2727c2.1818 0 4 1.8182 4 4s-1.8182 4-4 4-4-1.8182-4-4c.0909-2.2727 1.8182-4 4-4z"/><path d="m44 31.1818c-1.5455 0-2.7273 1.1818-2.7273 2.7273 0 1.5454 1.1818 2.7273 2.7273 2.7273s2.7273-1.1819 2.7273-2.7273c0-1.4546-1.1818-2.7273-2.7273-2.7273zm0-1.1818c2.1818 0 4 1.8182 4 4s-1.8182 4-4 4-4-1.8182-4-4 1.8182-4 4-4z"/><path d="m77.1453 50.0715c1.9597.4614 3.1846 2.5838 2.7763 4.7063-.4083 2.1224-2.2863 3.5989-4.1644 3.1375-1.1432-.2769-2.0414-1.1074-2.6129-2.5838-.1634-.4614-.49-.7383-.9799-1.0151-.4899-.2769-1.2248-.3691-1.8781-.4614l-.1633 1.3842-2.123-2.953 2.9396-1.8456-.245 1.1997c.3266.2768 1.4698.4614 1.9597.3691s.8982-.3691 1.2248-.7383c.8982-.9228 1.8781-1.4764 3.2662-1.1996z"/><path d="m30.5927 60.571c-1.8432.9621-4.213.2624-5.1785-1.6617-.9655-1.8367-.1755-4.1981 1.6677-5.1601 1.0532-.5248 2.3698-.5248 3.6864.1749.4388.1749.8777.2624 1.4043.0875.5266-.175 1.2288-.5248 1.8432-.9621l-.5266-1.0495 3.5108.7871-1.4043 3.3235-.5267-1.0495c-.4388 0-1.4921.6122-1.9309 1.0495-.4389.4373-.5267.8746-.5267 1.3119-.0877 1.3993-.6143 2.4488-2.0187 3.1485z"/><path d="m18.8763 42.846c-2.0425-.4754-3.2857-2.3773-2.7529-4.2792.5328-1.8227 2.7529-2.9322 4.7954-2.4567 1.1545.317 2.1313 1.1095 2.6641 2.3774.1777.3962.4441.7132.9769.951.5328.2377 1.2433.3962 2.0425.4754l.2664-1.0302 2.1313 2.6944-3.3746 1.3472.2665-1.0302c-.3553-.2377-1.5985-.4755-2.1313-.4755-.5329 0-.9769.2378-1.3321.5547-.888.8717-2.0425 1.268-3.5522.8717z"/><path d="m23.8227 16.052c-1.3496-1.6493-.9897-4.0799.7198-5.2952s4.2288-.95488 5.4884.6945c.7198.9548.9897 2.2569.5398 3.6458-.1799.4341-.0899.8681.18 1.3889.2699.5209.8097 1.1285 1.3496 1.6494l.8997-.6945-.1799 3.5591-3.599-.7813.8998-.6944c-.09-.434-.8998-1.3889-1.4396-1.6493-.5398-.2605-.9897-.3473-1.4396-.3473-1.2596.0868-2.4293-.2604-3.419-1.4757z"/><path d="m33.8659 27.0166c-1.4454.0934-2.6199 1.4012-2.5295 2.9891.0903 1.588 1.3551 2.7089 2.8909 2.6155s2.6199-1.4012 2.5295-2.9891c-.0903-1.588-1.3551-2.7089-2.8909-2.6155zm-6.8659-4.0166 3.704.2802-.8131.9341c.1807.4671 1.1744 1.3078 1.6261 1.588.5421.2802.9938.1868 1.5358.0934 1.2648-.3736 2.4392-.1868 3.704 1.0275 1.6262 1.588 1.6262 4.11.1807 5.7914-1.5358 1.6814-4.0653 1.6814-5.6011.1868-.9034-.9341-1.3552-2.2418-1.0841-3.8298.0903-.467 0-.9341-.3614-1.4945-.3614-.4671-.9034-1.0275-1.5358-1.588l-.8131.9341z"/><path d="m59.2607 32.3656c-.4418-1.403-1.9439-2.1045-3.2694-1.666-1.4138.4384-2.1207 1.9291-1.6789 3.2443.4418 1.3153 1.944 2.1045 3.2694 1.6661 1.4139-.3508 2.1208-1.8414 1.6789-3.2444zm2.1208-7.3656.6185 3.5951-.972-.5261c-.3534.2631-.8836 1.3153-1.0604 1.9291-.0883.5261 0 1.0522.2651 1.403.6186 1.1399.7953 2.2798 0 3.6828-1.0603 1.8414-3.4461 2.4552-5.3018 1.4029-1.8556-1.0522-2.4741-3.4197-1.4138-5.2611.6186-1.0522 1.7673-1.7537 3.1811-1.9291.4418-.0877.8836-.2631 1.2371-.7015.3534-.4384.7069-1.1399 1.0603-1.8414l-.9719-.5261z"/><path d="m65.6821 46.0909c.947-.9545.8609-2.4659-.1722-3.3409s-2.6688-.7955-3.6159.1591c-.947.9545-.8609 2.4659.1722 3.3409s2.6689.7955 3.6159-.1591zm7.3179-1.6704-2.755 2.0681v-1.0341c-.3443-.159-1.6357-.0795-2.1523.0796-.5165.1591-.8609.4773-1.1192.875-.6887.9545-1.5497 1.5909-3.1854 1.5909-2.0662 0-3.7881-1.5909-3.7881-3.5s1.7219-3.5 3.7881-3.5c1.2053 0 2.3245.5568 3.1854 1.6705.2583.3181.6027.5568 1.2053.7159.5166.0795 1.2914.0795 2.0662 0v-1.1137z"/><path d="m49.1818 76.7682c1.0909.947 2.8182.8609 3.8182-.1722s.9091-2.6688-.1818-3.6159c-1.0909-.947-2.8182-.8609-3.8182.1722s-.9091 2.6689.1818 3.6159zm1.9091 7.2318-2.3636-2.755h1.1818c.1818-.3443.0909-1.6357-.0909-2.1523-.1818-.5165-.5455-.8609-1-1.1192-1.0909-.6887-1.8182-1.5497-1.8182-3.1854 0-2.0662 1.8182-3.7881 4-3.7881s4 1.7219 4 3.7881c0 1.2053-.6364 2.3245-1.9091 3.1854-.3636.2583-.6364.6027-.8182 1.2053-.0909.5166-.0909 1.2914 0 2.0662h1.1818z"/><path d="m40.6636 65.3561c.9057 1.1422 2.536 1.4057 3.7134.615 1.1775-.8786 1.4492-2.4601.634-3.6023-.9057-1.1422-2.5359-1.4058-3.7134-.6151-1.268.7908-1.4491 2.3723-.634 3.6024zm.3623 7.6439-1.7208-3.2509 1.1774.2636c.2717-.3514.4528-1.5815.4528-2.1087 0-.5271-.3622-.9664-.7245-1.3179-.9963-.8786-1.4492-1.9329-1.0869-3.5144.4529-2.1087 2.536-3.4266 4.7097-2.9873s3.5323 2.5479 3.0794 4.5688c-.2717 1.23-1.0868 2.1965-2.536 2.8115-.4528.1757-.7245.5272-.9962 1.0544-.2717.5271-.3623 1.3179-.4529 2.0208l1.1774.2636z"/><path d="m87.0288 77.3656c1.3759 1.6371 1.2899 4.1837-.2579 5.6389s-3.9555 1.2733-5.3313-.2729c-.7739-.9095-1.1179-2.2737-.7739-3.7289.0859-.4548 0-.9095-.258-1.4552s-.7739-1.0914-1.3758-1.6371l-.8599.8185-.172-3.7289 3.5255.5457-.8598.8185c.0859.4548.9458 1.3643 1.4618 1.6371.5159.2729.9458.2729 1.4618.1819 1.2898-.2728 2.4077 0 3.4395 1.1824z"/><path d="m23.8754 85.6471c-1.4284 1.5787-3.8388 1.8418-5.535.4386-1.607-1.4033-1.7855-3.8589-.4464-5.4375.8035-.9647 2.0533-1.4032 3.571-1.2278.4464 0 .8927-.0877 1.3391-.4386.4464-.3508.8927-.9647 1.4284-1.5786l-.8928-.7893 3.6603-.6139-.0893 3.5958-.8927-.7894c-.3571.1754-1.1606 1.1402-1.4284 1.6664s-.1786.9647 0 1.4909c.4464 1.2278.3571 2.4556-.7142 3.6834z"/><path d="m36.3648 44.7549c-1.0397.9531-1.0397 2.3828 0 3.3359 1.0398.9531 2.5994.9531 3.6391 0s1.0397-2.3828 0-3.3359c-.9531-.8737-2.5993-.8737-3.6391 0zm-7.3648 1.3502 2.8593-1.9856-.0867 1.0325c.3466.1589 1.5596.1589 2.1662.0794.5198-.1588.8664-.4765 1.1263-.7942.6932-.9531 1.6463-1.5091 3.2925-1.4297 2.0795.0794 3.7258 1.7474 3.6391 3.6536-.0866 1.9062-1.9062 3.4153-3.9856 3.3359-1.2131-.0794-2.3394-.7148-3.1192-1.8268-.26-.3971-.6066-.556-1.1264-.7148-.5199-.1589-1.2997-.1589-2.0795-.0795l-.0867 1.0326z"/><path d="m71.7949 84.8596c.6929 2.0778-.433 4.3363-2.4251 4.9686-1.992.6324-4.1573-.542-4.7635-2.5295-.3465-1.1744-.1732-2.5295.7795-3.7039.2598-.3614.3464-.8131.3464-1.4454 0-.6324-.3464-1.3551-.6063-2.0779l-1.1259.3614 1.2992-3.4329 3.0313 1.9875-1.1259.3613c-.0866.4517.3464 1.6261.6929 2.0778.3464.4517.7794.6324 1.2125.8131 1.2125.3614 2.1652 1.0841 2.6849 2.6199z"/><path d="m58.8368 64.8954c.6028 2.0635-.5167 4.3065-2.4974 4.9346-1.9808.628-4.1337-.5383-4.7366-2.6019-.3444-1.1664-.0861-2.5122.7751-3.6785.2584-.3589.4306-.8075.3445-1.4355 0-.5384-.3445-1.3459-.6029-2.0636l-1.1195.3589 1.3779-3.4094 3.0142 2.0636-1.1196.3588c-.0861.4486.3445 1.615.689 2.1533.3444.4486.775.7178 1.2056.8075 1.2057.2692 2.153.9869 2.6697 2.5122z"/><path d="m62.1523 58.4128c1.4229-.175 2.4901-1.3999 2.4012-2.7998-.1779-1.3999-1.4229-2.4499-2.8458-2.3624-1.4229.175-2.4901 1.3999-2.4011 2.7998.0889 1.4874 1.3339 2.5374 2.8457 2.3624zm6.8477 3.5872-3.6462-.175.8004-.8749c-.1778-.4375-1.1561-1.1374-1.6897-1.3999-.5335-.2625-.9782-.175-1.5118-.0875-1.245.35-2.4011.2625-3.6461-.7875-1.6008-1.3999-1.7787-3.8497-.2668-5.4246 1.5118-1.5748 4.0018-1.6623 5.5137-.2624.8893.7874 1.3339 2.0123 1.1561 3.4997-.089.4375.0889.8749.3557 1.3999.3557.4375.9782.9624 1.6007 1.3999l.8004-.8749z"/><path d="m50 43c0-2.1818 1.8182-4 4-4s4 1.8182 4 4-1.8182 4-4 4-4-1.8182-4-4z"/><path d="m69.5971 25.9273c1.5913-1.4231 4.0667-1.1563 5.4812.4448 1.4145 1.601 1.1493 4.1805-.442 5.5147-.9725.8006-2.2102 1.0674-3.7131.7116-.442-.0889-.884-.0889-1.4145.1779-.5304.2669-1.0609.8005-1.5913 1.3342l.7073.8895h-3.6247l.6188-3.6469.7073.8895c.442 0 1.3261-.8895 1.6797-1.3342s.3536-.9784.2652-1.4232c-.1768-1.3342.0884-2.4905 1.3261-3.5579z"/><path d="m83.2928 23.6037c1.6802-1.0915 3.9486-.6717 5.1247 1.0075 1.0922 1.6793.5881 4.0303-1.0081 5.1218-1.0082.6717-2.1843.7557-3.5285.2519-.4201-.1679-.8402-.1679-1.3442 0-.5041.1679-1.0922.6717-1.6803 1.0915l.5881.9236-3.4445-.3359 1.0081-3.3585.5881.9236c.4201-.084 1.3442-.7557 1.6803-1.1755.336-.4198.42-.8396.42-1.3434 0-1.2594.3361-2.267 1.5963-3.1066z"/><path d="m81 63.1136c-1.5455 0-2.7273 1.0341-2.7273 2.3864s1.1818 2.3864 2.7273 2.3864 2.7273-1.0341 2.7273-2.3864-1.1818-2.3864-2.7273-2.3864zm0-1.1136c2.1818 0 4 1.5909 4 3.5s-1.8182 3.5-4 3.5-4-1.5909-4-3.5 1.8182-3.5 4-3.5z"/><path d="m15.5148 57.9416c-2.0994.363-4.1113-.9985-4.4612-3.177s1.0497-4.3569 3.1491-4.72c1.2247-.1816 2.4493.1815 3.499 1.2708.3499.363.7873.5446 1.3122.5446.5248 0 1.3121-.1816 2.0994-.3631l-.2624-1.18 3.1491 1.8154-2.3618 2.9046-.175-1.18c-.4374-.0908-1.662.1816-2.0994.4539-.5249.2723-.7873.7261-.9623 1.18-.5248 1.18-1.3121 2.0877-2.8867 2.4508z"/><path d="m76.6478 13.1119c1.4422-1.4254 3.8176-1.5093 5.2597-.0838 1.4422 1.4254 1.4422 3.7732.0849 5.1987-.8484.8385-2.036 1.1739-3.4782.9223-.4242-.0838-.8484 0-1.3574.3354s-.9331.8385-1.4421 1.4255l.7635.7546-3.4782.3354.3393-3.4378.7635.7546c.4242-.1677 1.1877-1.0062 1.4422-1.5093s.1697-.9223.0848-1.4254c-.2545-1.0062-.0848-2.1801 1.018-3.2702z"/><path d="m11.4367 19.3604c-1.65188-1.2374-1.9127-3.4646-.6086-5.0319s3.7384-1.7322 5.3902-.5774c.9564.7424 1.3911 1.8972 1.3041 3.2171 0 .4124.087.8249.4347 1.2373.3478.4125.9564.8249 1.6519 1.2373l.6955-.8248.6955 3.382h-3.5645l.6955-.8249c-.1739-.3299-1.2172-1.0723-1.7388-1.2373s-.9563-.0825-1.478 0c-1.1302.4124-2.2604.4124-3.4775-.5774z"/></g></svg>