<?xml version="1.0" encoding="utf-8"?>
<!-- Generator: Adobe Illustrator 25.4.1, SVG Export Plug-In . SVG Version: 6.00 Build 0)  -->
<svg version="1.1" id="Layer_1" xmlns="http://www.w3.org/2000/svg" xmlns:xlink="http://www.w3.org/1999/xlink" x="0px" y="0px"
	 viewBox="0 0 100 100" style="enable-background:new 0 0 100 100;" xml:space="preserve">
<style type="text/css">
	.st0{fill:#DB2C47;stroke:#DB2C47;stroke-width:0.5;stroke-miterlimit:10;}
</style>
<g>
	<path class="st0" d="M19,44.9c-3.4-4.2-3.1-9.5-0.6-13.2c2.3-3.5,7.1-6.2,12.8-4.6c0.9-4.5,3.4-7.6,8-8.6c4.5-1,8.1,0.7,10.8,4.4
		c2.7-3.8,6.3-5.6,10.9-4.5c4.6,1,7.1,4.2,8,8.7c5.2-1.2,9.6,0,12.6,4.5c3.1,4.4,2.7,9-0.4,13.4c4,2.3,6.3,5.7,6.3,10.3
		c0,4.7-2.3,8.1-6.3,10.3c3.3,4.9,3.6,9.9-0.4,14.6c-3.1,3.7-7.2,4.6-11.9,3.4c-0.8,4.5-3.4,7.7-8,8.7c-4.6,1-8.2-0.7-10.9-4.5
		c-2.7,3.7-6.3,5.4-10.9,4.4c-4.5-1-7.1-4.1-8-8.6c-5.2,1.2-9.6,0-12.7-4.5c-3.1-4.5-2.6-9.1,0.5-13.6C10.4,61.3,10.5,49.3,19,44.9z
		 M48.5,51.5c0-0.2,0-0.4,0-0.5c0-7.3,0-14.7,0-22c0-0.6,0-1.1-0.1-1.7c-0.7-4.6-5.6-7.3-9.9-5.5c-2.8,1.2-4.7,4.3-4.3,7.2
		c0.1,0.7,0,1.3-0.6,1.7c-0.6,0.4-1.2,0.3-1.8,0c-3.9-2.2-8.7-0.9-11.1,2.9c-2,3.3-1.5,7.5,1.2,10c0.3,0.3,0.5,0.4,0.9,0.4
		c1,0,1.9,0,2.9,0c0.6,0,1.2,0.1,1.7,0.3c5.1,1.5,5.9,7.2,3.8,10.5c-1.4,2.3-3.6,3.2-6.3,3.1c-0.9,0-1.5-0.6-1.6-1.5
		c0-0.8,0.6-1.5,1.5-1.6c0.3,0,0.5,0,0.8,0c0.8,0,1.5-0.3,2.1-0.8c1.1-0.9,1.4-2.1,1.4-3.5c-0.1-1.9-1.6-3.5-3.6-3.5
		c-1.1,0-2.2,0-3.3,0c-0.2,0-0.5,0-0.7,0.1c-3.7,1.1-6.1,4.6-6,8.5c0.1,3.8,2.6,6.9,6.4,7.9c0.7,0.2,1.1,0.5,1.3,1.2
		c0.1,0.7-0.1,1.2-0.6,1.6c-2.4,2-3.4,4.5-3.1,7.5c0.4,4.1,4.3,7.5,8.5,7.3c1.4-0.1,2.7-0.4,4-1.2c0.6-0.3,1.1-0.3,1.7,0.1
		c0.5,0.4,0.7,0.9,0.6,1.5c0,0.2-0.1,0.3-0.1,0.5c-0.1,3,1.2,5.3,3.9,6.6c2.7,1.4,5.3,1.1,7.7-0.8c2-1.6,2.7-3.7,2.7-6.2
		c0-8.8,0-17.7,0-26.5c0-0.2,0-0.3,0-0.6c-0.3,0-0.6,0-0.9,0.1c-2.3,0.4-3.8,2.1-3.9,4.4c0,1-0.7,1.6-1.6,1.6
		c-0.9,0-1.5-0.7-1.5-1.7c0.1-3,1.5-5.1,4.1-6.6C45.9,51.7,47.1,51.5,48.5,51.5z M51.5,63.7c0,0.2,0,0.3,0,0.5c0,6.1,0,12.2,0,18.3
		c0,3.8,3.1,6.9,6.9,7c4.8,0.1,8-4.1,7.3-8.2c-0.1-0.7,0.3-1.4,1.1-1.7c0.5-0.2,1,0,1.4,0.3c2,1.1,4,1.3,6.2,0.7
		c3.2-0.9,5.2-3,5.9-6.2c0.7-3.3-0.3-6.1-2.9-8.2c-0.5-0.4-0.9-0.9-0.7-1.6c0.2-0.7,0.7-1.1,1.3-1.2c0.4-0.1,0.9-0.2,1.3-0.4
		c3.3-1.5,5.1-4.1,5.1-7.6c0-3.6-1.8-6.3-5-7.9c-0.7-0.3-1.4-0.5-2.2-0.5c-0.9,0-1.8,0-2.7,0c-1,0-1.8,0.4-2.5,1
		c-0.9,0.9-1.1,2-1.1,3.2c0.1,1.7,1.2,3.1,2.8,3.5c0.5,0.1,1,0.1,1.5,0.1c0.8,0.1,1.5,0.7,1.5,1.5c0,0.7-0.6,1.5-1.3,1.5
		c-2.1,0.2-4-0.4-5.6-1.9c-1.5-1.5-2-3.3-2-5.4c0.1-3.2,2.5-6.1,5.7-6.5c1.2-0.2,2.5-0.1,3.7-0.1c0.4,0,0.6-0.1,0.9-0.4
		c1.9-1.9,2.7-4.1,2.4-6.7c-0.5-4.1-4.3-7.4-8.5-7.2c-1.4,0.1-2.7,0.5-3.9,1.2c-0.6,0.3-1.1,0.3-1.7-0.1c-0.5-0.4-0.7-0.9-0.6-1.5
		c0.4-3.1-1.2-6.1-4.1-7.5c-2.8-1.3-6.3-0.5-8.3,1.8c-1.4,1.6-1.8,3.4-1.8,5.4c0,10.4,0,20.7,0,31.1c0,0.2,0,0.3,0,0.5
		c0.6,0,1.2,0,1.7,0c4,0.1,7.3,3.4,7.4,7.4c0,1-0.6,1.7-1.5,1.7c-0.9,0-1.5-0.6-1.6-1.6c0-1.3-0.6-2.4-1.5-3.3
		C54.8,63.6,53.2,63.6,51.5,63.7z"/>
	<path class="st0" d="M82,13.7c-0.1,0.2-0.2,0.6-0.5,0.9c-1.5,1.5-3,3-4.5,4.5c-0.6,0.6-1.6,0.6-2.2,0c-0.6-0.6-0.6-1.5,0-2.2
		c1.5-1.5,3-3,4.5-4.5c0.5-0.5,1.1-0.6,1.7-0.4C81.6,12.4,81.9,12.9,82,13.7z"/>
	<path class="st0" d="M69.8,12c0-1,0-1.9,0-2.9c0-1,0.6-1.6,1.5-1.6c0.9,0,1.5,0.7,1.5,1.7c0,1.9,0,3.9,0,5.8c0,1-0.6,1.7-1.5,1.7
		c-0.9,0-1.5-0.7-1.5-1.7C69.8,13.9,69.8,13,69.8,12z"/>
	<path class="st0" d="M82,24.2c-1,0-1.9,0-2.9,0c-1,0-1.7-0.6-1.7-1.5c0-0.9,0.7-1.5,1.6-1.5c1.9,0,3.9,0,5.8,0c1,0,1.6,0.6,1.6,1.5
		c0,0.9-0.7,1.5-1.7,1.5C83.9,24.2,82.9,24.2,82,24.2z"/>
	<path class="st0" d="M40.4,75.1c-4.6,0-8.1-2.4-9.6-6.2c-0.5-1.4-1-2.7-1.5-4.1c-0.3-0.9,0-1.8,0.8-2.1c0.8-0.3,1.6,0.1,2,1
		c0.5,1.3,1,2.7,1.5,4c1.2,3.1,4.2,4.8,7.5,4.2c1.5-0.3,3-0.5,4.4-0.7c0.9-0.1,1.7,0.4,1.8,1.2c0.1,0.9-0.4,1.6-1.3,1.8
		C44,74.5,41.9,74.8,40.4,75.1z"/>
	<path class="st0" d="M45.8,46.3c0.1,1.2-0.6,2-1.7,1.9c-0.8-0.1-1.3-0.6-1.4-1.4c-0.1-0.5-0.1-1-0.3-1.5c-0.6-1.7-2-2.8-3.8-2.9
		c-0.9,0-1.9,0-2.8-0.1c-3.7-0.3-6.6-3.4-6.7-7.1c0-1,0.6-1.7,1.5-1.7c0.9,0,1.5,0.6,1.6,1.6c0.1,2.4,1.9,4.2,4.3,4.2
		c1.2,0,2.4,0,3.5,0.2C43.4,40.2,45.6,43,45.8,46.3z"/>
	<path class="st0" d="M68.9,66.9c0,2.1-0.9,4.3-2.6,6.1c-1.2,1.2-2.4,2.4-3.6,3.6c-0.7,0.6-1.6,0.6-2.2,0c-0.6-0.6-0.6-1.5,0.1-2.2
		c1.1-1.1,2.2-2.2,3.2-3.3c2.4-2.4,2.7-5.7,0.8-8.5c-0.8-1.2-1.5-2.3-2.3-3.5c-0.6-0.9-0.4-1.8,0.3-2.3c0.7-0.5,1.6-0.3,2.2,0.6
		c0.9,1.3,1.7,2.5,2.5,3.8C68.4,62.9,68.9,64.6,68.9,66.9z"/>
	<path class="st0" d="M62.6,39.3c0.5,0,1.2,0,1.9-0.1c1.9-0.4,3.3-2.1,3.4-4.1c0-0.9,0.5-1.5,1.3-1.6c1-0.1,1.8,0.6,1.8,1.6
		c0,2.9-1.9,5.7-4.6,6.7c-0.9,0.3-1.8,0.4-2.8,0.5c-0.7,0.1-1.4,0-2.1,0c-2.1,0.1-3.8,1.8-4,3.9c0,0.1,0,0.3,0,0.4
		c-0.1,0.9-0.8,1.5-1.6,1.4c-0.9,0-1.5-0.7-1.4-1.6c0.1-2.3,1-4.2,2.9-5.7C58.7,39.6,60.4,39.2,62.6,39.3z"/>
</g>
</svg>
