<?xml version="1.0" encoding="utf-8"?>
<!-- Generator: Adobe Illustrator 24.2.0, SVG Export Plug-In . SVG Version: 6.00 Build 0)  -->
<svg version="1.1" id="Layer_1" xmlns="http://www.w3.org/2000/svg" xmlns:xlink="http://www.w3.org/1999/xlink" x="0px" y="0px"
	 viewBox="0 0 100 100" style="enable-background:new 0 0 100 100;" xml:space="preserve">
<style type="text/css">
	.st0{fill-rule:evenodd;clip-rule:evenodd;fill:#EB0029;}
</style>
<g>
	<path class="st0" d="M42.1,52.5c0-2.4,2-4.4,4.4-4.4s4.4,2,4.4,4.4c0,2.4-2,4.4-4.4,4.4C44.1,56.9,42.1,54.9,42.1,52.5L42.1,52.5z"
		/>
	<path class="st0" d="M46.7,17.4c0-2.4,2-4.4,4.4-4.4s4.4,2,4.4,4.4s-2,4.4-4.4,4.4S46.7,19.8,46.7,17.4L46.7,17.4z"/>
	<path class="st0" d="M9.3,25.8c-1.7,0-3,1.3-3,3s1.3,3,3,3s3-1.3,3-3S11,25.8,9.3,25.8L9.3,25.8z M9.4,24.4c2.4,0,4.4,2,4.4,4.4
		s-2,4.4-4.4,4.4s-4.4-2-4.4-4.4S7,24.4,9.4,24.4L9.4,24.4z"/>
	<path class="st0" d="M70.8,9.8c-1.7,0-3,1.3-3,3s1.3,3,3,3c1.7,0,3-1.3,3-3S72.4,9.8,70.8,9.8L70.8,9.8z M70.8,8.5
		c2.4,0,4.4,2,4.4,4.4s-2,4.4-4.4,4.4c-2.4,0-4.4-2-4.4-4.4S68.3,8.5,70.8,8.5L70.8,8.5z"/>
	<path class="st0" d="M27.7,79.9c0-2.4,2-4.4,4.4-4.4s4.4,2,4.4,4.4s-2,4.4-4.4,4.4C29.7,84.3,27.7,82.4,27.7,79.9L27.7,79.9z"/>
	<path class="st0" d="M38.6,8.9c-1.7,0-3,1.3-3,3s1.3,3,3,3c1.7,0,3-1.3,3-3S40.3,8.9,38.6,8.9L38.6,8.9z M38.6,7.5
		c2.4,0,4.4,2,4.4,4.4s-2,4.4-4.4,4.4s-4.4-2-4.4-4.4S36.2,7.5,38.6,7.5L38.6,7.5z"/>
	<path class="st0" d="M12.1,69c-1.7,0-3,1.3-3,3c0,1.7,1.3,3,3,3s3-1.3,3-3C15.1,70.4,13.7,69,12.1,69L12.1,69z M12.1,67.6
		c2.4,0,4.4,2,4.4,4.4s-2,4.4-4.4,4.4s-4.4-2-4.4-4.4S9.7,67.6,12.1,67.6L12.1,67.6z"/>
	<path class="st0" d="M91.5,34.6c-1.7,0-3,1.3-3,3s1.3,3,3,3c1.7,0,3-1.3,3-3C94.6,35.9,93.2,34.6,91.5,34.6L91.5,34.6z M91.5,33.2
		c2.4,0,4.4,2,4.4,4.4s-2,4.4-4.4,4.4c-2.4,0-4.4-2-4.4-4.4C87.2,35.1,89.1,33.2,91.5,33.2L91.5,33.2z"/>
	<path class="st0" d="M43,28.5c-1.7,0-3,1.3-3,3c0,1.7,1.3,3,3,3c1.7,0,3-1.3,3-3C46,29.9,44.7,28.5,43,28.5L43,28.5z M43,27.2
		c2.4,0,4.4,2,4.4,4.4s-2,4.4-4.4,4.4s-4.4-2-4.4-4.4S40.6,27.2,43,27.2L43,27.2z"/>
	<path class="st0" d="M81.2,50.4c2.4,0.5,3.9,2.8,3.4,5.1s-2.8,3.9-5.1,3.4c-1.4-0.3-2.5-1.2-3.2-2.8c-0.2-0.5-0.6-0.8-1.2-1.1
		c-0.6-0.3-1.5-0.4-2.3-0.5L72.6,56L70,52.8l3.6-2l-0.3,1.3c0.4,0.3,1.8,0.5,2.4,0.4s1.1-0.4,1.5-0.8C78.3,50.7,79.5,50.1,81.2,50.4
		L81.2,50.4z"/>
	<path class="st0" d="M28.2,62.4c-2.1,1.1-4.8,0.3-5.9-1.9c-1.1-2.1-0.2-4.8,1.9-5.9c1.2-0.6,2.7-0.6,4.2,0.2c0.5,0.2,1,0.3,1.6,0.1
		s1.4-0.6,2.1-1.1l-0.6-1.2l4,0.9l-1.6,3.8l-0.6-1.2c-0.5,0-1.7,0.7-2.2,1.2c-0.5,0.5-0.6,1-0.6,1.5C30.4,60.4,29.8,61.6,28.2,62.4
		L28.2,62.4z"/>
	<path class="st0" d="M14.8,42.2c-2.3-0.6-3.7-3-3.1-5.4c0.6-2.3,3.1-3.7,5.4-3.1c1.3,0.4,2.4,1.4,3,3c0.2,0.5,0.5,0.9,1.1,1.2
		c0.6,0.3,1.4,0.5,2.3,0.6l0.3-1.3l2.4,3.4l-3.8,1.7l0.3-1.3c-0.4-0.3-1.8-0.6-2.4-0.6s-1.1,0.3-1.5,0.7
		C17.8,42.2,16.5,42.7,14.8,42.2L14.8,42.2z"/>
	<path class="st0" d="M20.4,11.3c-1.5-1.9-1.1-4.7,0.8-6.1s4.7-1.1,6.1,0.8c0.8,1.1,1.1,2.6,0.6,4.2c-0.2,0.5-0.1,1,0.2,1.6
		c0.3,0.6,0.9,1.3,1.5,1.9l1-0.8L30.4,17l-4-0.9l1-0.8c-0.1-0.5-1-1.6-1.6-1.9s-1.1-0.4-1.6-0.4C22.8,13.1,21.5,12.7,20.4,11.3
		L20.4,11.3z"/>
	<path class="st0" d="M31.2,23.9c-1.6,0.1-2.9,1.5-2.8,3.2s1.5,2.9,3.2,2.8s2.9-1.5,2.8-3.2C34.3,25,32.9,23.8,31.2,23.9L31.2,23.9z
		 M23.6,19.6l4.1,0.3l-0.9,1c0.2,0.5,1.3,1.4,1.8,1.7c0.6,0.3,1.1,0.2,1.7,0.1c1.4-0.4,2.7-0.2,4.1,1.1c1.8,1.7,1.8,4.4,0.2,6.2
		c-1.7,1.8-4.5,1.8-6.2,0.2c-1-1-1.5-2.4-1.2-4.1c0.1-0.5,0-1-0.4-1.6c-0.4-0.5-1-1.1-1.7-1.7l-0.9,1L23.6,19.6L23.6,19.6z"/>
	<path class="st0" d="M60.9,29.7c-0.5-1.6-2.2-2.4-3.7-1.9c-1.6,0.5-2.4,2.2-1.9,3.7s2.2,2.4,3.7,1.9C60.6,33,61.4,31.3,60.9,29.7
		L60.9,29.7z M63.3,21.3l0.7,4.1l-1.1-0.6c-0.4,0.3-1,1.5-1.2,2.2c-0.1,0.6,0,1.2,0.3,1.6c0.7,1.3,0.9,2.6,0,4.2
		c-1.2,2.1-3.9,2.8-6,1.6s-2.8-3.9-1.6-6c0.7-1.2,2-2,3.6-2.2c0.5-0.1,1-0.3,1.4-0.8c0.4-0.5,0.8-1.3,1.2-2.1l-1.1-0.6L63.3,21.3
		L63.3,21.3z"/>
	<path class="st0" d="M67.8,45.8c1.1-1.2,1-3.1-0.2-4.2s-3.1-1-4.2,0.2s-1,3.1,0.2,4.2C64.8,47.1,66.7,47,67.8,45.8L67.8,45.8z
		 M76.3,43.7l-3.2,2.6V45c-0.4-0.2-1.9-0.1-2.5,0.1c-0.6,0.2-1,0.6-1.3,1.1c-0.8,1.2-1.8,2-3.7,2c-2.4,0-4.4-2-4.4-4.4
		c0-2.4,2-4.4,4.4-4.4c1.4,0,2.7,0.7,3.7,2.1c0.3,0.4,0.7,0.7,1.4,0.9c0.6,0.1,1.5,0.1,2.4,0V41L76.3,43.7L76.3,43.7z"/>
	<path class="st0" d="M49.4,80.8c1.2,1.1,3.1,1,4.2-0.2c1.1-1.2,1-3.1-0.2-4.2c-1.2-1.1-3.1-1-4.2,0.2
		C48.1,77.8,48.2,79.7,49.4,80.8L49.4,80.8z M51.5,89.2L48.9,86h1.3c0.2-0.4,0.1-1.9-0.1-2.5c-0.2-0.6-0.6-1-1.1-1.3
		c-1.2-0.8-2-1.8-2-3.7c0-2.4,2-4.4,4.4-4.4s4.4,2,4.4,4.4c0,1.4-0.7,2.7-2.1,3.7c-0.4,0.3-0.7,0.7-0.9,1.4c-0.1,0.6-0.1,1.5,0,2.4
		h1.3L51.5,89.2L51.5,89.2z"/>
	<path class="st0" d="M39.7,67.8c1,1.3,2.8,1.6,4.1,0.7c1.3-1,1.6-2.8,0.7-4.1c-1-1.3-2.8-1.6-4.1-0.7C39,64.6,38.8,66.4,39.7,67.8
		L39.7,67.8z M40.1,76.5l-1.9-3.7l1.3,0.3c0.3-0.4,0.5-1.8,0.5-2.4s-0.4-1.1-0.8-1.5c-1.1-1-1.6-2.2-1.2-4c0.5-2.4,2.8-3.9,5.2-3.4
		c2.4,0.5,3.9,2.9,3.4,5.2c-0.3,1.4-1.2,2.5-2.8,3.2c-0.5,0.2-0.8,0.6-1.1,1.2c-0.3,0.6-0.4,1.5-0.5,2.3l1.3,0.3L40.1,76.5
		L40.1,76.5z"/>
	<path class="st0" d="M92.6,81.4c1.6,1.8,1.5,4.6-0.3,6.2c-1.8,1.6-4.6,1.4-6.2-0.3c-0.9-1-1.3-2.5-0.9-4.1c0.1-0.5,0-1-0.3-1.6
		c-0.3-0.6-0.9-1.2-1.6-1.8l-1,0.9l-0.2-4.1l4.1,0.6l-1,0.9c0.1,0.5,1.1,1.5,1.7,1.8c0.6,0.3,1.1,0.3,1.7,0.2
		C90.1,79.8,91.4,80.1,92.6,81.4L92.6,81.4z"/>
	<path class="st0" d="M20.1,91.1c-1.6,1.8-4.3,2.1-6.2,0.5c-1.8-1.6-2-4.4-0.5-6.2c0.9-1.1,2.3-1.6,4-1.4c0.5,0,1-0.1,1.5-0.5
		s1-1.1,1.6-1.8l-1-0.9l4.1-0.7l-0.1,4.1l-1-0.9c-0.4,0.2-1.3,1.3-1.6,1.9s-0.2,1.1,0,1.7C21.4,88.3,21.3,89.7,20.1,91.1L20.1,91.1z
		"/>
	<path class="st0" d="M34.9,43.9c-1.2,1.2-1.2,3,0,4.2s3,1.2,4.2,0s1.2-3,0-4.2C38,42.8,36.1,42.8,34.9,43.9L34.9,43.9z M26.4,45.6
		l3.3-2.5l-0.1,1.3c0.4,0.2,1.8,0.2,2.5,0.1c0.6-0.2,1-0.6,1.3-1c0.8-1.2,1.9-1.9,3.8-1.8c2.4,0.1,4.3,2.2,4.2,4.6
		c-0.1,2.4-2.2,4.3-4.6,4.2c-1.4-0.1-2.7-0.9-3.6-2.3c-0.3-0.5-0.7-0.7-1.3-0.9s-1.5-0.2-2.4-0.1l-0.1,1.3L26.4,45.6L26.4,45.6z"/>
	<path class="st0" d="M74.7,90c0.8,2.3-0.5,4.8-2.8,5.5s-4.8-0.6-5.5-2.8c-0.4-1.3-0.2-2.8,0.9-4.1c0.3-0.4,0.4-0.9,0.4-1.6
		s-0.4-1.5-0.7-2.3l-1.3,0.4l1.5-3.8l3.5,2.2l-1.3,0.4c-0.1,0.5,0.4,1.8,0.8,2.3s0.9,0.7,1.4,0.9C73,87.5,74.1,88.3,74.7,90L74.7,90
		z"/>
	<path class="st0" d="M60.6,66.6c0.7,2.3-0.6,4.8-2.9,5.5s-4.8-0.6-5.5-2.9c-0.4-1.3-0.1-2.8,0.9-4.1c0.3-0.4,0.5-0.9,0.4-1.6
		c0-0.6-0.4-1.5-0.7-2.3l-1.3,0.4l1.6-3.8l3.5,2.3l-1.3,0.4c-0.1,0.5,0.4,1.8,0.8,2.4c0.4,0.5,0.9,0.8,1.4,0.9
		C58.9,64.1,60,64.9,60.6,66.6L60.6,66.6z"/>
	<path class="st0" d="M63.9,59.9c1.6-0.2,2.8-1.6,2.7-3.2c-0.2-1.6-1.6-2.8-3.2-2.7c-1.6,0.2-2.8,1.6-2.7,3.2
		C60.8,58.9,62.2,60.1,63.9,59.9L63.9,59.9z M71.6,64l-4.1-0.2l0.9-1c-0.2-0.5-1.3-1.3-1.9-1.6c-0.6-0.3-1.1-0.2-1.7-0.1
		c-1.4,0.4-2.7,0.3-4.1-0.9c-1.8-1.6-2-4.4-0.3-6.2s4.5-1.9,6.2-0.3c1,0.9,1.5,2.3,1.3,4c-0.1,0.5,0.1,1,0.4,1.6
		c0.4,0.5,1.1,1.1,1.8,1.6l0.9-1L71.6,64L71.6,64z"/>
	<path class="st0" d="M50.1,41.9c0-2.4,2-4.4,4.4-4.4c2.4,0,4.4,2,4.4,4.4c0,2.4-2,4.4-4.4,4.4S50.1,44.3,50.1,41.9L50.1,41.9z"/>
	<path class="st0" d="M72.2,22.9c1.8-1.6,4.6-1.3,6.2,0.5c1.6,1.8,1.3,4.7-0.5,6.2c-1.1,0.9-2.5,1.2-4.2,0.8c-0.5-0.1-1-0.1-1.6,0.2
		c-0.6,0.3-1.2,0.9-1.8,1.5l0.8,1l-4.1,0l0.7-4.1l0.8,1C69,30,70,29,70.4,28.5c0.4-0.5,0.4-1.1,0.3-1.6
		C70.5,25.4,70.8,24.1,72.2,22.9L72.2,22.9z"/>
	<path class="st0" d="M87.8,19.7c2-1.3,4.7-0.8,6.1,1.2c1.3,2,0.7,4.8-1.2,6.1c-1.2,0.8-2.6,0.9-4.2,0.3c-0.5-0.2-1-0.2-1.6,0
		s-1.3,0.8-2,1.3l0.7,1.1l-4.1-0.4l1.2-4l0.7,1.1c0.5-0.1,1.6-0.9,2-1.4c0.4-0.5,0.5-1,0.5-1.6C85.9,21.9,86.3,20.7,87.8,19.7
		L87.8,19.7z"/>
	<path class="st0" d="M85.5,64.8c-1.7,0-3,1.3-3,3s1.3,3,3,3s3-1.3,3-3S87.2,64.8,85.5,64.8L85.5,64.8z M85.5,63.4
		c2.4,0,4.4,2,4.4,4.4s-2,4.4-4.4,4.4s-4.4-2-4.4-4.4S83.1,63.4,85.5,63.4L85.5,63.4z"/>
	<path class="st0" d="M10.9,59.3c-2.4,0.4-4.7-1.1-5.1-3.5C5.4,53.4,7,51,9.4,50.6c1.4-0.2,2.8,0.2,4,1.4c0.4,0.4,0.9,0.6,1.5,0.6
		s1.5-0.2,2.4-0.4L17,50.9l3.6,2l-2.7,3.2l-0.2-1.3c-0.5-0.1-1.9,0.2-2.4,0.5c-0.6,0.3-0.9,0.8-1.1,1.3
		C13.6,57.9,12.7,58.9,10.9,59.3L10.9,59.3z"/>
	<path class="st0" d="M80.7,7.5c1.7-1.7,4.5-1.8,6.2-0.1s1.7,4.5,0.1,6.2c-1,1-2.4,1.4-4.1,1.1c-0.5-0.1-1,0-1.6,0.4s-1.1,1-1.7,1.7
		l0.9,0.9l-4.1,0.4l0.4-4.1l0.9,0.9c0.5-0.2,1.4-1.2,1.7-1.8c0.3-0.6,0.2-1.1,0.1-1.7C79.2,10.2,79.4,8.8,80.7,7.5L80.7,7.5z"/>
	<path class="st0" d="M5.7,15.1C3.8,13.6,3.5,10.9,5,9s4.3-2.1,6.2-0.7c1.1,0.9,1.6,2.3,1.5,3.9c0,0.5,0.1,1,0.5,1.5
		c0.4,0.5,1.1,1,1.9,1.5l0.8-1l0.8,4.1l-4.1,0l0.8-1c-0.2-0.4-1.4-1.3-2-1.5c-0.6-0.2-1.1-0.1-1.7,0C8.4,16.3,7.1,16.3,5.7,15.1
		L5.7,15.1z"/>
</g>
</svg>
