<svg width="100" height="100" viewBox="0 0 100 100" fill="none" xmlns="http://www.w3.org/2000/svg">
<path fill-rule="evenodd" clip-rule="evenodd" d="M43 52C43 49.8182 44.8182 48 47 48C49.1818 48 51 49.8182 51 52C51 54.1818 49.1818 56 47 56C44.8182 56 43 54.1818 43 52Z" fill="#EB0029"/>
<path fill-rule="evenodd" clip-rule="evenodd" d="M47 21.5C47 19.5909 48.8182 18 51 18C53.1818 18 55 19.5909 55 21.5C55 23.4091 53.1818 25 51 25C48.8182 25 47 23.4091 47 21.5Z" fill="#EB0029"/>
<path fill-rule="evenodd" clip-rule="evenodd" d="M14.4205 29.1136C13.0682 29.1136 12.0341 30.1477 12.0341 31.5C12.0341 32.8523 13.0682 33.8864 14.4205 33.8864C15.7727 33.8864 16.8068 32.8523 16.8068 31.5C16.8068 30.1477 15.7727 29.1136 14.4205 29.1136ZM14.5 28C16.4091 28 18 29.5909 18 31.5C18 33.4091 16.4091 35 14.5 35C12.5909 35 11 33.4091 11 31.5C11 29.5909 12.5909 28 14.5 28Z" fill="#EB0029"/>
<path fill-rule="evenodd" clip-rule="evenodd" d="M68 15.0341C66.4545 15.0341 65.2727 16.0682 65.2727 17.4205C65.2727 18.7727 66.4545 19.8068 68 19.8068C69.5455 19.8068 70.7273 18.7727 70.7273 17.4205C70.7273 16.0682 69.4545 15.0341 68 15.0341ZM68 14C70.1818 14 72 15.5909 72 17.5C72 19.4091 70.1818 21 68 21C65.8182 21 64 19.4091 64 17.5C64 15.5909 65.7273 14 68 14Z" fill="#EB0029"/>
<path fill-rule="evenodd" clip-rule="evenodd" d="M30 76C30 73.8182 31.8182 72 34 72C36.1818 72 38 73.8182 38 76C38 78.1818 36.1818 80 34 80C31.8182 80 30 78.2727 30 76Z" fill="#EB0029"/>
<path fill-rule="evenodd" clip-rule="evenodd" d="M40 14.1136C38.4545 14.1136 37.2727 15.1477 37.2727 16.5C37.2727 17.8523 38.4545 18.8864 40 18.8864C41.5455 18.8864 42.7273 17.8523 42.7273 16.5C42.7273 15.1477 41.5455 14.1136 40 14.1136ZM40 13C42.1818 13 44 14.5909 44 16.5C44 18.4091 42.1818 20 40 20C37.8182 20 36 18.4091 36 16.5C36 14.5909 37.8182 13 40 13Z" fill="#EB0029"/>
<path fill-rule="evenodd" clip-rule="evenodd" d="M17 66.2727C15.4545 66.2727 14.2727 67.4545 14.2727 69C14.2727 70.5455 15.4545 71.7273 17 71.7273C18.5455 71.7273 19.7273 70.5455 19.7273 69C19.7273 67.5455 18.4545 66.2727 17 66.2727ZM17 65C19.1818 65 21 66.8182 21 69C21 71.1818 19.1818 73 17 73C14.8182 73 13 71.1818 13 69C13 66.8182 14.8182 65 17 65Z" fill="#EB0029"/>
<path fill-rule="evenodd" clip-rule="evenodd" d="M86 36.2727C84.4545 36.2727 83.2727 37.4545 83.2727 39C83.2727 40.5455 84.4545 41.7273 86 41.7273C87.5455 41.7273 88.7273 40.5455 88.7273 39C88.8182 37.4545 87.5455 36.2727 86 36.2727ZM86 35C88.1818 35 90 36.8182 90 39C90 41.1818 88.1818 43 86 43C83.8182 43 82 41.1818 82 39C82.0909 36.7273 83.8182 35 86 35Z" fill="#EB0029"/>
<path fill-rule="evenodd" clip-rule="evenodd" d="M44 31.1818C42.4545 31.1818 41.2727 32.3636 41.2727 33.9091C41.2727 35.4545 42.4545 36.6364 44 36.6364C45.5455 36.6364 46.7273 35.4545 46.7273 33.9091C46.7273 32.4545 45.5455 31.1818 44 31.1818ZM44 30C46.1818 30 48 31.8182 48 34C48 36.1818 46.1818 38 44 38C41.8182 38 40 36.1818 40 34C40 31.8182 41.8182 30 44 30Z" fill="#EB0029"/>
<path fill-rule="evenodd" clip-rule="evenodd" d="M77.1453 50.0715C79.105 50.5329 80.3299 52.6553 79.9216 54.7778C79.5133 56.9002 77.6353 58.3767 75.7572 57.9153C74.614 57.6384 73.7158 56.8079 73.1443 55.3315C72.9809 54.8701 72.6543 54.5932 72.1644 54.3164C71.6745 54.0395 70.9396 53.9473 70.2863 53.855L70.123 55.2392L68 52.2862L70.9396 50.4406L70.6946 51.6403C71.0212 51.9171 72.1644 52.1017 72.6543 52.0094C73.1442 51.9171 73.5525 51.6403 73.8791 51.2711C74.7773 50.3483 75.7572 49.7947 77.1453 50.0715Z" fill="#EB0029"/>
<path fill-rule="evenodd" clip-rule="evenodd" d="M30.5927 60.571C28.7495 61.5331 26.3797 60.8334 25.4142 58.9093C24.4487 57.0726 25.2387 54.7112 27.0819 53.7492C28.1351 53.2244 29.4517 53.2244 30.7683 53.9241C31.2071 54.099 31.646 54.1865 32.1726 54.0116C32.6992 53.8366 33.4014 53.4868 34.0158 53.0495L33.4892 52L37 52.7871L35.5957 56.1106L35.069 55.0611C34.6302 55.0611 33.5769 55.6733 33.1381 56.1106C32.6992 56.5479 32.6114 56.9852 32.6114 57.4225C32.5237 58.8218 31.9971 59.8713 30.5927 60.571Z" fill="#EB0029"/>
<path fill-rule="evenodd" clip-rule="evenodd" d="M18.8763 42.846C16.8338 42.3706 15.5906 40.4687 16.1234 38.5668C16.6562 36.7441 18.8763 35.6346 20.9188 36.1101C22.0733 36.4271 23.0501 37.2196 23.5829 38.4875C23.7606 38.8837 24.027 39.2007 24.5598 39.4385C25.0926 39.6762 25.8031 39.8347 26.6023 39.9139L26.8687 38.8837L29 41.5781L25.6254 42.9253L25.8919 41.8951C25.5366 41.6574 24.2934 41.4196 23.7606 41.4196C23.2277 41.4196 22.7837 41.6574 22.4285 41.9743C21.5405 42.846 20.386 43.2423 18.8763 42.846Z" fill="#EB0029"/>
<path fill-rule="evenodd" clip-rule="evenodd" d="M23.8227 16.052C22.4731 14.4027 22.833 11.9721 24.5425 10.7568C26.252 9.5415 28.7713 9.80192 30.0309 11.4513C30.7507 12.4061 31.0206 13.7082 30.5707 15.0971C30.3908 15.5312 30.4808 15.9652 30.7507 16.486C31.0206 17.0069 31.5604 17.6145 32.1003 18.1354L33 17.4409L32.8201 21L29.2211 20.2187L30.1209 19.5243C30.0309 19.0903 29.2211 18.1354 28.6813 17.875C28.1415 17.6145 27.6916 17.5277 27.2417 17.5277C25.9821 17.6145 24.8124 17.2673 23.8227 16.052Z" fill="#EB0029"/>
<path fill-rule="evenodd" clip-rule="evenodd" d="M33.8659 27.0166C32.4205 27.11 31.246 28.4178 31.3364 30.0057C31.4267 31.5937 32.6915 32.7146 34.2273 32.6212C35.7631 32.5278 36.8472 31.22 36.7568 29.6321C36.6665 28.0441 35.4017 26.9232 33.8659 27.0166ZM27 23L30.704 23.2802L29.8909 24.2143C30.0716 24.6814 31.0653 25.5221 31.517 25.8023C32.0591 26.0825 32.5108 25.9891 33.0528 25.8957C34.3176 25.5221 35.492 25.7089 36.7568 26.9232C38.383 28.5112 38.383 31.0332 36.9375 32.7146C35.4017 34.396 32.8722 34.396 31.3364 32.9014C30.433 31.9673 29.9812 30.6596 30.2523 29.0716C30.3426 28.6046 30.2523 28.1375 29.8909 27.5771C29.5295 27.11 28.9875 26.5496 28.3551 25.9891L27.542 26.9232L27 23Z" fill="#EB0029"/>
<path fill-rule="evenodd" clip-rule="evenodd" d="M59.2607 32.3656C58.8189 30.9626 57.3168 30.2611 55.9913 30.6996C54.5775 31.138 53.8706 32.6287 54.3124 33.9439C54.7542 35.2592 56.2564 36.0484 57.5818 35.61C58.9957 35.2592 59.7026 33.7686 59.2607 32.3656ZM61.3815 25L62 28.5951L61.028 28.069C60.6746 28.3321 60.1444 29.3843 59.9676 29.9981C59.8793 30.5242 59.9676 31.0503 60.2327 31.4011C60.8513 32.541 61.028 33.6809 60.2327 35.0839C59.1724 36.9253 56.7866 37.5391 54.9309 36.4868C53.0753 35.4346 52.4568 33.0671 53.5171 31.2257C54.1357 30.1735 55.2844 29.472 56.6982 29.2966C57.14 29.2089 57.5818 29.0335 57.9353 28.5951C58.2887 28.1567 58.6422 27.4552 58.9956 26.7537L58.0237 26.2276L61.3815 25Z" fill="#EB0029"/>
<path fill-rule="evenodd" clip-rule="evenodd" d="M65.6821 46.0909C66.6291 45.1364 66.543 43.625 65.5099 42.75C64.4768 41.875 62.8411 41.9545 61.894 42.9091C60.947 43.8636 61.0331 45.375 62.0662 46.25C63.0993 47.125 64.7351 47.0455 65.6821 46.0909ZM73 44.4205L70.245 46.4886V45.4545C69.9007 45.2955 68.6093 45.375 68.0927 45.5341C67.5762 45.6932 67.2318 46.0114 66.9735 46.4091C66.2848 47.3636 65.4238 48 63.7881 48C61.7219 48 60 46.4091 60 44.5C60 42.5909 61.7219 41 63.7881 41C64.9934 41 66.1126 41.5568 66.9735 42.6705C67.2318 42.9886 67.5762 43.2273 68.1788 43.3864C68.6954 43.4659 69.4702 43.4659 70.245 43.3864V42.2727L73 44.4205Z" fill="#EB0029"/>
<path fill-rule="evenodd" clip-rule="evenodd" d="M49.1818 76.7682C50.2727 77.7152 52 77.6291 53 76.596C54 75.5629 53.9091 73.9272 52.8182 72.9801C51.7273 72.0331 50 72.1192 49 73.1523C48 74.1854 48.0909 75.8212 49.1818 76.7682ZM51.0909 84L48.7273 81.245H49.9091C50.0909 80.9007 50 79.6093 49.8182 79.0927C49.6364 78.5762 49.2727 78.2318 48.8182 77.9735C47.7273 77.2848 47 76.4238 47 74.7881C47 72.7219 48.8182 71 51 71C53.1818 71 55 72.7219 55 74.7881C55 75.9934 54.3636 77.1126 53.0909 77.9735C52.7273 78.2318 52.4545 78.5762 52.2727 79.1788C52.1818 79.6954 52.1818 80.4702 52.2727 81.245H53.4545L51.0909 84Z" fill="#EB0029"/>
<path fill-rule="evenodd" clip-rule="evenodd" d="M40.6636 65.3561C41.5693 66.4983 43.1996 66.7618 44.377 65.9711C45.5545 65.0925 45.8262 63.511 45.011 62.3688C44.1053 61.2266 42.4751 60.963 41.2976 61.7537C40.0296 62.5445 39.8485 64.126 40.6636 65.3561ZM41.0259 73L39.3051 69.7491L40.4825 70.0127C40.7542 69.6613 40.9353 68.4312 40.9353 67.904C40.9353 67.3769 40.5731 66.9376 40.2108 66.5861C39.2145 65.7075 38.7616 64.6532 39.1239 63.0717C39.5768 60.963 41.6599 59.6451 43.8336 60.0844C46.0073 60.5237 47.3659 62.6323 46.913 64.6532C46.6413 65.8832 45.8262 66.8497 44.377 67.4647C43.9242 67.6404 43.6525 67.9919 43.3808 68.5191C43.1091 69.0462 43.0185 69.837 42.9279 70.5399L44.1053 70.8035L41.0259 73Z" fill="#EB0029"/>
<path fill-rule="evenodd" clip-rule="evenodd" d="M87.0288 77.3656C88.4047 79.0027 88.3187 81.5493 86.7709 83.0045C85.2231 84.4597 82.8154 84.2778 81.4396 82.7316C80.6657 81.8221 80.3217 80.4579 80.6657 79.0027C80.7516 78.5479 80.6657 78.0932 80.4077 77.5475C80.1497 77.0018 79.6338 76.4561 79.0319 75.9104L78.172 76.7289L78 73L81.5255 73.5457L80.6657 74.3642C80.7516 74.819 81.6115 75.7285 82.1275 76.0013C82.6434 76.2742 83.0733 76.2742 83.5893 76.1832C84.8791 75.9104 85.997 76.1832 87.0288 77.3656Z" fill="#EB0029"/>
<path fill-rule="evenodd" clip-rule="evenodd" d="M23.8754 85.6471C22.447 87.2258 20.0366 87.4889 18.3404 86.0857C16.7334 84.6824 16.5549 82.2268 17.894 80.6482C18.6975 79.6835 19.9473 79.245 21.465 79.4204C21.9114 79.4204 22.3577 79.3327 22.8041 78.9818C23.2505 78.631 23.6968 78.0171 24.2325 77.4032L23.3397 76.6139L27 76L26.9107 79.5958L26.018 78.8064C25.6609 78.9818 24.8574 79.9466 24.5896 80.4728C24.3218 80.999 24.411 81.4375 24.5896 81.9637C25.036 83.1915 24.9467 84.4193 23.8754 85.6471Z" fill="#EB0029"/>
<path fill-rule="evenodd" clip-rule="evenodd" d="M36.3648 44.7549C35.3251 45.708 35.3251 47.1377 36.3648 48.0908C37.4046 49.0439 38.9642 49.0439 40.0039 48.0908C41.0436 47.1377 41.0436 45.708 40.0039 44.7549C39.0508 43.8812 37.4046 43.8812 36.3648 44.7549ZM29 46.1051L31.8593 44.1195L31.7726 45.152C32.1192 45.3109 33.3322 45.3109 33.9388 45.2314C34.4586 45.0726 34.8052 44.7549 35.0651 44.4372C35.7583 43.4841 36.7114 42.9281 38.3576 43.0075C40.4371 43.0869 42.0834 44.7549 41.9967 46.6611C41.9101 48.5673 40.0905 50.0764 38.0111 49.997C36.798 49.9176 35.6717 49.2822 34.8919 48.1702C34.6319 47.7731 34.2853 47.6142 33.7655 47.4554C33.2456 47.2965 32.4658 47.2965 31.686 47.3759L31.5993 48.4085L29 46.1051Z" fill="#EB0029"/>
<path fill-rule="evenodd" clip-rule="evenodd" d="M71.7949 84.8596C72.4878 86.9374 71.3619 89.1959 69.3698 89.8282C67.3778 90.4606 65.2125 89.2862 64.6063 87.2987C64.2598 86.1243 64.4331 84.7692 65.3858 83.5948C65.6456 83.2334 65.7322 82.7817 65.7322 82.1494C65.7322 81.517 65.3858 80.7943 65.1259 80.0715L64 80.4329L65.2992 77L68.3305 78.9875L67.2046 79.3488C67.118 79.8005 67.551 80.9749 67.8975 81.4266C68.2439 81.8783 68.6769 82.059 69.11 82.2397C70.3225 82.6011 71.2752 83.3238 71.7949 84.8596Z" fill="#EB0029"/>
<path fill-rule="evenodd" clip-rule="evenodd" d="M58.8368 64.8954C59.4396 66.9589 58.3201 69.2019 56.3394 69.83C54.3586 70.458 52.2057 69.2917 51.6028 67.2281C51.2584 66.0617 51.5167 64.7159 52.3779 63.5496C52.6363 63.1907 52.8085 62.7421 52.7224 62.1141C52.7224 61.5757 52.3779 60.7682 52.1195 60.0505L51 60.4094L52.3779 57L55.3921 59.0636L54.2725 59.4224C54.1864 59.871 54.617 61.0374 54.9615 61.5757C55.3059 62.0243 55.7365 62.2935 56.1671 62.3832C57.3728 62.6524 58.3201 63.3701 58.8368 64.8954Z" fill="#EB0029"/>
<path fill-rule="evenodd" clip-rule="evenodd" d="M62.1523 58.4128C63.5752 58.2378 64.6424 57.0129 64.5535 55.613C64.3756 54.2131 63.1306 53.1631 61.7077 53.2506C60.2848 53.4256 59.2176 54.6505 59.3066 56.0504C59.3955 57.5378 60.6405 58.5878 62.1523 58.4128ZM69 62L65.3538 61.825L66.1542 60.9501C65.9764 60.5126 64.9981 59.8127 64.4645 59.5502C63.931 59.2877 63.4863 59.3752 62.9527 59.4627C61.7077 59.8127 60.5516 59.7252 59.3066 58.6752C57.7058 57.2753 57.5279 54.8255 59.0398 53.2506C60.5516 51.6758 63.0416 51.5883 64.5535 52.9882C65.4428 53.7756 65.8874 55.0005 65.7096 56.4879C65.6206 56.9254 65.7985 57.3628 66.0653 57.8878C66.421 58.3253 67.0435 58.8502 67.666 59.2877L68.4664 58.4128L69 62Z" fill="#EB0029"/>
<path fill-rule="evenodd" clip-rule="evenodd" d="M50 43C50 40.8182 51.8182 39 54 39C56.1818 39 58 40.8182 58 43C58 45.1818 56.1818 47 54 47C51.8182 47 50 45.1818 50 43Z" fill="#EB0029"/>
<path fill-rule="evenodd" clip-rule="evenodd" d="M69.5971 25.9273C71.1884 24.5042 73.6638 24.771 75.0783 26.3721C76.4928 27.9731 76.2276 30.5526 74.6363 31.8868C73.6638 32.6874 72.4261 32.9542 70.9232 32.5984C70.4812 32.5095 70.0392 32.5095 69.5087 32.7763C68.9783 33.0432 68.4478 33.5768 67.9174 34.1105L68.6247 35H65L65.6188 31.3531L66.3261 32.2426C66.7681 32.2426 67.6522 31.3531 68.0058 30.9084C68.3594 30.4637 68.3594 29.93 68.271 29.4852C68.0942 28.151 68.3594 26.9947 69.5971 25.9273Z" fill="#EB0029"/>
<path fill-rule="evenodd" clip-rule="evenodd" d="M83.2928 23.6037C84.973 22.5122 87.2414 22.932 88.4175 24.6112C89.5097 26.2905 89.0056 28.6415 87.4094 29.733C86.4012 30.4047 85.2251 30.4887 83.8809 29.9849C83.4608 29.817 83.0407 29.817 82.5367 29.9849C82.0326 30.1528 81.4445 30.6566 80.8564 31.0764L81.4445 32L78 31.6641L79.0081 28.3056L79.5962 29.2292C80.0163 29.1452 80.9404 28.4735 81.2765 28.0537C81.6125 27.6339 81.6965 27.2141 81.6965 26.7103C81.6965 25.4509 82.0326 24.4433 83.2928 23.6037Z" fill="#EB0029"/>
<path fill-rule="evenodd" clip-rule="evenodd" d="M81 63.1136C79.4545 63.1136 78.2727 64.1477 78.2727 65.5C78.2727 66.8523 79.4545 67.8864 81 67.8864C82.5455 67.8864 83.7273 66.8523 83.7273 65.5C83.7273 64.1477 82.5455 63.1136 81 63.1136ZM81 62C83.1818 62 85 63.5909 85 65.5C85 67.4091 83.1818 69 81 69C78.8182 69 77 67.4091 77 65.5C77 63.5909 78.8182 62 81 62Z" fill="#EB0029"/>
<path fill-rule="evenodd" clip-rule="evenodd" d="M15.5148 57.9416C13.4154 58.3046 11.4035 56.9431 11.0536 54.7646C10.7037 52.5861 12.1033 50.4077 14.2027 50.0446C15.4274 49.863 16.652 50.2261 17.7017 51.3154C18.0516 51.6784 18.489 51.86 19.0139 51.86C19.5387 51.86 20.326 51.6784 21.1133 51.4969L20.8509 50.3169L24 52.1323L21.6382 55.0369L21.4632 53.8569C21.0258 53.7661 19.8012 54.0385 19.3638 54.3108C18.8389 54.5831 18.5765 55.0369 18.4015 55.4908C17.8767 56.6708 17.0894 57.5785 15.5148 57.9416Z" fill="#EB0029"/>
<path fill-rule="evenodd" clip-rule="evenodd" d="M76.6478 13.1119C78.09 11.6865 80.4654 11.6026 81.9075 13.0281C83.3497 14.4535 83.3497 16.8013 81.9924 18.2268C81.144 19.0653 79.9564 19.4007 78.5142 19.1491C78.09 19.0653 77.6658 19.1491 77.1568 19.4845C76.6478 19.8199 76.2237 20.323 75.7147 20.91L76.4782 21.6646L73 22L73.3393 18.5622L74.1028 19.3168C74.527 19.1491 75.2905 18.3106 75.545 17.8075C75.7995 17.3044 75.7147 16.8852 75.6298 16.3821C75.3753 15.3759 75.545 14.202 76.6478 13.1119Z" fill="#EB0029"/>
<path fill-rule="evenodd" clip-rule="evenodd" d="M11.4367 19.3604C9.78482 18.123 9.524 15.8958 10.8281 14.3285C12.1322 12.7612 14.5665 12.5963 16.2183 13.7511C17.1747 14.4935 17.6094 15.6483 17.5224 16.9682C17.5224 17.3806 17.6094 17.7931 17.9571 18.2055C18.3049 18.618 18.9135 19.0304 19.609 19.4428L20.3045 18.618L21 22H17.4355L18.131 21.1751C17.9571 20.8452 16.9138 20.1028 16.3922 19.9378C15.8706 19.7728 15.4359 19.8553 14.9142 19.9378C13.784 20.3502 12.6538 20.3502 11.4367 19.3604Z" fill="#EB0029"/>
</svg>
