<svg enable-background="new 0 0 100 100" viewBox="0 0 100 100" xmlns="http://www.w3.org/2000/svg"><g fill="#eb0029"><path d="m27.5 50.5c0-5.5-4.5-10-10-10s-10 4.5-10 10 4.5 10 10 10 10-4.5 10-10zm-10 7c-3.9 0-7-3.1-7-7s3.1-7 7-7 7 3.1 7 7-3.1 7-7 7z"/><path d="m65.5 31.5c5.5 0 10-4.5 10-10s-4.5-10-10-10-10 4.5-10 10 4.5 10 10 10zm0-17c3.9 0 7 3.1 7 7s-3.1 7-7 7-7-3.1-7-7 3.1-7 7-7z"/><path d="m66.5 67.5c-5.5 0-10 4.5-10 10s4.5 10 10 10 10-4.5 10-10-4.5-10-10-10zm0 17c-3.9 0-7-3.1-7-7s3.1-7 7-7 7 3.1 7 7-3.1 7-7 7z"/><path d="m82.5 39.5c-5 0-9.2 3.7-9.9 8.5h-10.2c-.7-6.5-6.2-11.5-12.9-11.5-2.2 0-4.3.6-6.1 1.5l-5-8.4c2.5-1.8 4.2-4.8 4.2-8.1 0-5.5-4.5-10-10-10s-10 4.5-10 10 4.5 10 10 10c1.1 0 2.2-.2 3.1-.5l5.3 8.8c-2.7 2.4-4.4 5.9-4.4 9.7 0 4.4 2.2 8.2 5.5 10.6l-5.5 8.9c-1-.3-2-.5-3.1-.5-5.5 0-10 4.5-10 10s4.5 10 10 10 10-4.5 10-10c0-3.3-1.7-6.3-4.2-8.1l5.3-8.8c1.5.6 3.2 1 4.9 1 6.7 0 12.2-5 12.9-11.5h10.2c.7 4.8 4.9 8.5 9.9 8.5 5.5 0 10-4.5 10-10 0-5.6-4.5-10.1-10-10.1zm-57-18c0-3.9 3.1-7 7-7s7 3.1 7 7-3.1 7-7 7-7-3.1-7-7zm8 64c-3.9 0-7-3.1-7-7s3.1-7 7-7 7 3.1 7 7-3.1 7-7 7zm16-26c-5.5 0-10-4.5-10-10s4.5-10 10-10 10 4.5 10 10-4.5 10-10 10zm33-3c-3.9 0-7-3.1-7-7s3.1-7 7-7 7 3.1 7 7-3.1 7-7 7z"/></g></svg>