<?xml version="1.0" encoding="utf-8"?>
<!-- Generator: Adobe Illustrator 24.2.0, SVG Export Plug-In . SVG Version: 6.00 Build 0)  -->
<svg version="1.1" id="Layer_1" xmlns="http://www.w3.org/2000/svg" xmlns:xlink="http://www.w3.org/1999/xlink" x="0px" y="0px"
	 viewBox="0 0 64.2 64.2" style="enable-background:new 0 0 64.2 64.2;" xml:space="preserve">
<style type="text/css">
	.st0{fill:#EB0029;}
</style>
<g id="Layer_2_1_">
	<g id="Layer_1-2">
		<path class="st0" d="M62.2,21.7c1,0.4,1.5,1.6,1.1,2.6c-0.2,0.5-0.6,0.9-1.1,1.1l-7.8,3.3l-1.3,0.5l-1,0.4l-20.9,8.6
			c-0.5,0.2-1.1,0.2-1.6,0l-18.2-7.7l-1-0.4l-3.9-1.7l-4.8-2c-1-0.5-1.5-1.7-1-2.7c0.2-0.4,0.5-0.8,0.9-1l9.7-4.8l6.1-3l12.1-6
			c0.5-0.3,1.1-0.3,1.7-0.1l14.5,6.1l7.3,3L62.2,21.7z"/>
		<path class="st0" d="M30.5,38.9c-0.3,0-0.7-0.1-1-0.2L1.7,26.9c-0.9-0.4-1.5-1.2-1.5-2.2s0.5-1.9,1.4-2.3L29.4,8.6
			c0.7-0.3,1.4-0.3,2.1-0.1l30.9,12.8c1.3,0.5,1.9,1.9,1.4,3.1c-0.2,0.7-0.8,1.2-1.4,1.4L31.5,38.7C31.2,38.8,30.9,38.9,30.5,38.9z
			 M30.6,9.3c-0.2,0-0.5,0.1-0.7,0.2L2.1,23.3c-0.5,0.3-0.8,0.8-0.8,1.4c0.1,0.6,0.4,1.1,0.9,1.4L30,37.9c0.4,0.2,0.8,0.2,1.2,0
			l31-12.8c0.8-0.4,1.1-1.3,0.8-2c-0.2-0.3-0.4-0.6-0.8-0.8L31.1,9.4C31,9.3,30.8,9.3,30.6,9.3z"/>
		<path class="st0" d="M52.1,32.6v7c0,8.8-7.1,15.9-15.9,15.9h-9.8c-8.8,0-15.9-7.1-15.9-15.9V33l1,0.4l19,8L52.1,32.6z"/>
		<path class="st0" d="M36.3,55.8h-9.8c-9,0-16.4-7.3-16.4-16.4v-7.3l1.7,0.7l18.8,7.9l22-9.1v7.6c0.1,9-7.1,16.4-16.1,16.5
			C36.4,55.8,36.4,55.8,36.3,55.8z M11.1,33.7v5.8c0,8.5,6.9,15.4,15.4,15.4h9.8c8.5,0,15.4-6.9,15.4-15.4v-6.2L30.5,42L11.1,33.7z"
			/>
		<path class="st0" d="M57.3,50.5c-0.8,0-1.5-0.7-1.5-1.5l-0.1-15.8c0-0.8,0.7-1.5,1.5-1.5l0,0c0.8,0,1.5,0.7,1.5,1.5V49
			C58.7,49.8,58.1,50.5,57.3,50.5L57.3,50.5z"/>
		<circle class="st0" cx="57.2" cy="52" r="3.6"/>
	</g>
</g>
</svg>
