<svg xmlns="http://www.w3.org/2000/svg" viewBox="0 0 288.8 273.89">
  <defs>
    <style>
      .cls-1 {
        fill: #fff;
      }
    </style>
  </defs>
  <g id="Layer_2" data-name="Layer 2">
    <g id="Layer_1-2" data-name="Layer 1">
      <g>
        <path class="cls-1" d="M3.36,34.16H0L12.32,5.84h2.8L27.44,34.16H24.08L21,26.72H6.48Zm4.2-10.08H19.84L13.72,9.2Z" transform="translate(0 -3.92)"/>
        <path class="cls-1" d="M37.84,34.16h-3l-7.6-18.72H30.4l6,15.76h.08l6-15.76h3Z" transform="translate(0 -3.92)"/>
        <path class="cls-1" d="M50.72,25.52a8.16,8.16,0,0,0,.68,2.64A6.9,6.9,0,0,0,55,31.72a6.42,6.42,0,0,0,2.6.52,6.72,6.72,0,0,0,3.66-1A7.26,7.26,0,0,0,63.6,29l2,1.68a10.12,10.12,0,0,1-3.7,3,10.4,10.4,0,0,1-4.34.92,10,10,0,0,1-3.86-.74,8.93,8.93,0,0,1-3.06-2.06,9.76,9.76,0,0,1-2-3.12,10.29,10.29,0,0,1-.74-3.92,10.47,10.47,0,0,1,.72-3.92,9.54,9.54,0,0,1,2-3.12,9.08,9.08,0,0,1,3-2.06A9.39,9.39,0,0,1,57.36,15a9.08,9.08,0,0,1,3.8.76,8.48,8.48,0,0,1,2.82,2,8.68,8.68,0,0,1,1.74,3,10.78,10.78,0,0,1,.6,3.62v1.2Zm12.72-2.16a5.62,5.62,0,0,0-6.08-6,6.46,6.46,0,0,0-2.48.5,6.92,6.92,0,0,0-2.1,1.34,6.72,6.72,0,0,0-1.44,1.92,5,5,0,0,0-.54,2.24Z" transform="translate(0 -3.92)"/>
        <path class="cls-1" d="M73.64,15.44c0,.51.09,1,.1,1.5s0,1,0,1.5h.08A6.16,6.16,0,0,1,75,17a7.29,7.29,0,0,1,1.52-1.1,7.91,7.91,0,0,1,1.78-.72A7.13,7.13,0,0,1,80.12,15q3.6,0,5.32,1.9a7.79,7.79,0,0,1,1.72,5.42V34.16H84.52V23.8A8.79,8.79,0,0,0,83.44,19c-.72-1.11-2-1.66-4-1.66a9.31,9.31,0,0,0-1.12.16,4.94,4.94,0,0,0-1.94.88,6.32,6.32,0,0,0-1.82,2.16,8.33,8.33,0,0,0-.8,4v9.6H71.12V19.56q0-.76-.06-1.92c0-.77-.09-1.51-.14-2.2Z" transform="translate(0 -3.92)"/>
        <path class="cls-1" d="M97.2,8.24a1.77,1.77,0,0,1-.6,1.38,1.88,1.88,0,0,1-2.64,0,1.77,1.77,0,0,1-.6-1.38A1.77,1.77,0,0,1,94,6.86a1.88,1.88,0,0,1,2.64,0A1.77,1.77,0,0,1,97.2,8.24Zm-.6,25.92H94V15.44H96.6Z" transform="translate(0 -3.92)"/>
        <path class="cls-1" d="M103.24,21.28q0-1.25-.06-2.52c0-.85-.07-2-.1-3.32h2.6v3.48h.08a5.82,5.82,0,0,1,.8-1.46,6.27,6.27,0,0,1,1.26-1.26,6.37,6.37,0,0,1,1.72-.9,6.64,6.64,0,0,1,2.22-.34,7.15,7.15,0,0,1,2,.24l-.52,2.6a4.53,4.53,0,0,0-1.52-.2,5.4,5.4,0,0,0-2.6.58,5.81,5.81,0,0,0-1.8,1.48,6.25,6.25,0,0,0-1.06,1.94,6.32,6.32,0,0,0-.34,2V34.16h-2.64Z" transform="translate(0 -3.92)"/>
        <path class="cls-1" d="M128.32,5.84h8.44a15.88,15.88,0,0,1,3.4.36,8.65,8.65,0,0,1,2.92,1.2,6.25,6.25,0,0,1,2,2.2,6.79,6.79,0,0,1,.76,3.36,6.3,6.3,0,0,1-1.3,4,6.32,6.32,0,0,1-3.7,2.22v.08a6.84,6.84,0,0,1,4.7,2.1,7.11,7.11,0,0,1,1.7,5,8.64,8.64,0,0,1-.34,2,6.86,6.86,0,0,1-1.42,2.62,8.87,8.87,0,0,1-3.12,2.26,12.91,12.91,0,0,1-5.44,1h-8.64Zm2.88,12.4H137a8.49,8.49,0,0,0,2.06-.26,5.27,5.27,0,0,0,1.84-.86,4.77,4.77,0,0,0,1.34-1.54,4.66,4.66,0,0,0,.52-2.3,6.08,6.08,0,0,0-.18-1.24,4.15,4.15,0,0,0-.8-1.6A5,5,0,0,0,140,9.06a7.49,7.49,0,0,0-3.24-.58H131.2Zm0,13.28h5.52a12.94,12.94,0,0,0,2.92-.32,7.2,7.2,0,0,0,2.36-1,4.91,4.91,0,0,0,1.58-1.66,4.69,4.69,0,0,0,.58-2.4,4.88,4.88,0,0,0-1.8-4.16,8.64,8.64,0,0,0-5.28-1.36H131.2Z" transform="translate(0 -3.92)"/>
        <path class="cls-1" d="M171.48,24.8a10.29,10.29,0,0,1-.74,3.92,9.53,9.53,0,0,1-2.06,3.12,9.36,9.36,0,0,1-3.14,2.06,10.69,10.69,0,0,1-4,.74,10.52,10.52,0,0,1-4-.74,9.27,9.27,0,0,1-3.14-2.06,9.38,9.38,0,0,1-2.06-3.12,10.75,10.75,0,0,1,0-7.84,9.38,9.38,0,0,1,2.06-3.12,9.27,9.27,0,0,1,3.14-2.06,10.52,10.52,0,0,1,4-.74,10.69,10.69,0,0,1,4,.74,9.36,9.36,0,0,1,3.14,2.06,9.53,9.53,0,0,1,2.06,3.12A10.29,10.29,0,0,1,171.48,24.8Zm-2.88,0a8.49,8.49,0,0,0-.5-2.92,7.19,7.19,0,0,0-1.42-2.36,6.81,6.81,0,0,0-2.22-1.58,7.74,7.74,0,0,0-5.88,0,6.42,6.42,0,0,0-2.2,1.58,7.14,7.14,0,0,0-1.4,2.36,8.78,8.78,0,0,0,0,5.84,7.14,7.14,0,0,0,1.4,2.36,6.42,6.42,0,0,0,2.2,1.58,7.74,7.74,0,0,0,5.88,0,6.81,6.81,0,0,0,2.22-1.58,7.19,7.19,0,0,0,1.42-2.36A8.49,8.49,0,0,0,168.6,24.8Z" transform="translate(0 -3.92)"/>
        <path class="cls-1" d="M195.2,24.8a10.29,10.29,0,0,1-.74,3.92,9.53,9.53,0,0,1-2.06,3.12,9.36,9.36,0,0,1-3.14,2.06,10.69,10.69,0,0,1-4,.74,10.52,10.52,0,0,1-4-.74,9.27,9.27,0,0,1-3.14-2.06,9.38,9.38,0,0,1-2.06-3.12,10.75,10.75,0,0,1,0-7.84,9.38,9.38,0,0,1,2.06-3.12,9.27,9.27,0,0,1,3.14-2.06,10.52,10.52,0,0,1,4-.74,10.69,10.69,0,0,1,4,.74,9.36,9.36,0,0,1,3.14,2.06,9.53,9.53,0,0,1,2.06,3.12A10.29,10.29,0,0,1,195.2,24.8Zm-2.88,0a8.49,8.49,0,0,0-.5-2.92,7.19,7.19,0,0,0-1.42-2.36,6.81,6.81,0,0,0-2.22-1.58,7.74,7.74,0,0,0-5.88,0,6.42,6.42,0,0,0-2.2,1.58,7.14,7.14,0,0,0-1.4,2.36,8.78,8.78,0,0,0,0,5.84,7.14,7.14,0,0,0,1.4,2.36,6.42,6.42,0,0,0,2.2,1.58,7.74,7.74,0,0,0,5.88,0,6.81,6.81,0,0,0,2.22-1.58,7.19,7.19,0,0,0,1.42-2.36A8.49,8.49,0,0,0,192.32,24.8Z" transform="translate(0 -3.92)"/>
        <path class="cls-1" d="M202.64,23.88l8.84-8.44h4L206.12,24l10.32,10.16h-4.08l-9.72-9.84v9.84H200V3.92h2.64Z" transform="translate(0 -3.92)"/>
        <path class="cls-1" d="M12.56,45.84h2.72L27.2,74.16h-3l-3.08-7.52h-15L3,74.16H.2Zm1.24,2.88L7.2,64.24h13Z" transform="translate(0 -3.92)"/>
        <path class="cls-1" d="M27.28,55.68H30l6.16,15.88,6-15.88H44.6L37.32,74.16H34.84Z" transform="translate(0 -3.92)"/>
        <path class="cls-1" d="M64.72,70.68a8.09,8.09,0,0,1-3.46,3,11.06,11.06,0,0,1-4.54.92,9.88,9.88,0,0,1-3.84-.72,8.61,8.61,0,0,1-3-2A8.82,8.82,0,0,1,48,68.82a11.27,11.27,0,0,1-.66-3.94A10.61,10.61,0,0,1,48,61,9.13,9.13,0,0,1,50,58a8.94,8.94,0,0,1,2.92-2,9.18,9.18,0,0,1,3.72-.74,9,9,0,0,1,3.74.74,8.15,8.15,0,0,1,2.72,2,8.26,8.26,0,0,1,1.66,2.78,9.36,9.36,0,0,1,.56,3.16v1.68H49.76a8.21,8.21,0,0,0,.3,1.94,6.94,6.94,0,0,0,3.24,4.22,6.71,6.71,0,0,0,3.46.8,7.68,7.68,0,0,0,3.56-.88A6.42,6.42,0,0,0,63,69.2Zm-1.84-7.32a5.49,5.49,0,0,0-.5-2.32,6.26,6.26,0,0,0-3.4-3.2,6.58,6.58,0,0,0-2.5-.48,6.15,6.15,0,0,0-3.26.8A7.24,7.24,0,0,0,50.08,62a5.48,5.48,0,0,0-.32,1.34Z" transform="translate(0 -3.92)"/>
        <path class="cls-1" d="M70.64,60.88c0-.35,0-.77,0-1.26s0-1-.06-1.5,0-1-.06-1.42,0-.78,0-1h2.4c0,.69,0,1.36.06,2a6.31,6.31,0,0,0,.1,1.24h.12a6.48,6.48,0,0,1,2.4-2.62,7,7,0,0,1,3.92-1.1,7.94,7.94,0,0,1,3.52.68,5.64,5.64,0,0,1,2.14,1.78,6.67,6.67,0,0,1,1.08,2.54,14.5,14.5,0,0,1,.3,3v11h-2.4V63.28a12,12,0,0,0-.2-2.18,5.75,5.75,0,0,0-.7-1.9,3.61,3.61,0,0,0-1.4-1.34,4.83,4.83,0,0,0-2.34-.5,6.77,6.77,0,0,0-2.5.46,5.33,5.33,0,0,0-2,1.4,6.78,6.78,0,0,0-1.36,2.36,10.16,10.16,0,0,0-.5,3.34v9.24h-2.4Z" transform="translate(0 -3.92)"/>
        <path class="cls-1" d="M92.68,48.36a1.78,1.78,0,1,1,.52,1.28A1.73,1.73,0,0,1,92.68,48.36Zm.6,7.32h2.4V74.16h-2.4Z" transform="translate(0 -3.92)"/>
        <path class="cls-1" d="M102.48,60.88c0-.35,0-.77,0-1.26s0-1-.06-1.5,0-1-.06-1.42,0-.78,0-1h2.4c0,.69,0,1.36.06,2a6.31,6.31,0,0,0,.1,1.24,8.16,8.16,0,0,1,2.36-2.68,5.87,5.87,0,0,1,3.52-1,4,4,0,0,1,.7.06l.7.14-.28,2.36a2.83,2.83,0,0,0-.92-.16,6.74,6.74,0,0,0-2.7.5,5,5,0,0,0-1.88,1.38,5.83,5.83,0,0,0-1.1,2.06,8.66,8.66,0,0,0-.36,2.54V74.16h-2.4Z" transform="translate(0 -3.92)"/>
        <path class="cls-1" d="M126.88,45.84h2.64V71.76h13.2v2.4H126.88Z" transform="translate(0 -3.92)"/>
        <path class="cls-1" d="M146,48.36a1.78,1.78,0,1,1,.52,1.28A1.73,1.73,0,0,1,146,48.36Zm.6,7.32H149V74.16h-2.4Z" transform="translate(0 -3.92)"/>
        <path class="cls-1" d="M174.36,73a13.23,13.23,0,0,1-1,5.56,8.81,8.81,0,0,1-2.5,3.28,8.37,8.37,0,0,1-3.22,1.56,13.75,13.75,0,0,1-3.12.4,14.63,14.63,0,0,1-2.74-.26,13.12,13.12,0,0,1-2.54-.76,10.23,10.23,0,0,1-2.18-1.22,8.83,8.83,0,0,1-1.7-1.64l1.88-1.76a7.62,7.62,0,0,0,3.2,2.64,10.07,10.07,0,0,0,4.08.84,8.74,8.74,0,0,0,3.1-.48,6.18,6.18,0,0,0,2.08-1.26A6,6,0,0,0,171,78.14a8.88,8.88,0,0,0,.68-1.88,9.94,9.94,0,0,0,.26-1.78c0-.56,0-1,0-1.36V70.56h-.08a7.32,7.32,0,0,1-2.82,2.64,8.69,8.69,0,0,1-4.18,1,10.06,10.06,0,0,1-3.84-.74,9.68,9.68,0,0,1-3.14-2,9.87,9.87,0,0,1-2.12-3,9.07,9.07,0,0,1,0-7.36,9.55,9.55,0,0,1,2.12-3A10.38,10.38,0,0,1,161,56a9.71,9.71,0,0,1,3.84-.76,8.69,8.69,0,0,1,4.18,1,7.32,7.32,0,0,1,2.82,2.64H172V55.68h2.4ZM172,64.68a7.07,7.07,0,0,0-.58-2.86,7.27,7.27,0,0,0-3.88-3.88,7.34,7.34,0,0,0-5.72,0A7.27,7.27,0,0,0,158,61.82a7.34,7.34,0,0,0,0,5.72,7.27,7.27,0,0,0,3.88,3.88,7.34,7.34,0,0,0,5.72,0,7.27,7.27,0,0,0,3.88-3.88A7.07,7.07,0,0,0,172,64.68Z" transform="translate(0 -3.92)"/>
        <path class="cls-1" d="M180.24,43.92h2.4v15h.08a6.48,6.48,0,0,1,2.4-2.62A7,7,0,0,1,189,55.2a7.94,7.94,0,0,1,3.52.68,5.72,5.72,0,0,1,2.14,1.78,6.67,6.67,0,0,1,1.08,2.54,14.5,14.5,0,0,1,.3,3v11h-2.4V63.28a12,12,0,0,0-.2-2.18,5.75,5.75,0,0,0-.7-1.9,3.68,3.68,0,0,0-1.4-1.34,4.83,4.83,0,0,0-2.34-.5,6.73,6.73,0,0,0-2.5.46,5.33,5.33,0,0,0-2,1.4,6.78,6.78,0,0,0-1.36,2.36,10.16,10.16,0,0,0-.5,3.34v9.24h-2.4Z" transform="translate(0 -3.92)"/>
        <path class="cls-1" d="M211.52,57.84h-5.28v12a2.6,2.6,0,0,0,.68,1.92,2.55,2.55,0,0,0,1.88.68,5.57,5.57,0,0,0,1.38-.18,8.46,8.46,0,0,0,1.34-.46l.2,2.16a13.62,13.62,0,0,1-1.56.44,7.4,7.4,0,0,1-1.56.2,5.78,5.78,0,0,1-2.2-.38,3.76,3.76,0,0,1-1.48-1,4.06,4.06,0,0,1-.82-1.5,6.48,6.48,0,0,1-.26-1.86v-12h-4V55.68h4V50.36h2.4v5.32h5.28Z" transform="translate(0 -3.92)"/>
        <path class="cls-1" d="M3.64,125.84H7.48V137.6H22.16V125.84H26v28.32H22.16v-13H7.48v13H3.64Z" transform="translate(0 -3.92)"/>
        <path class="cls-1" d="M35.08,146a4.74,4.74,0,0,0,.54,2.26A5.58,5.58,0,0,0,37,150a6.72,6.72,0,0,0,2,1.12,7.2,7.2,0,0,0,2.4.4,5.38,5.38,0,0,0,2.92-.78,9.35,9.35,0,0,0,2.28-2.06l2.72,2.08a10,10,0,0,1-8.4,3.88,10.38,10.38,0,0,1-4.06-.76,9,9,0,0,1-3.08-2.1,9.26,9.26,0,0,1-1.94-3.16,11.24,11.24,0,0,1-.68-3.94,10.43,10.43,0,0,1,.74-3.94,9.66,9.66,0,0,1,2-3.16,9.44,9.44,0,0,1,3.1-2.1,9.93,9.93,0,0,1,3.92-.76,9.32,9.32,0,0,1,4.26.88,8.45,8.45,0,0,1,2.86,2.3,9,9,0,0,1,1.62,3.2,13.46,13.46,0,0,1,.5,3.62V146Zm11.36-2.88a7.61,7.61,0,0,0-.38-2.2,4.88,4.88,0,0,0-1-1.74,4.71,4.71,0,0,0-1.7-1.16A6.21,6.21,0,0,0,41,137.6a5.82,5.82,0,0,0-2.42.5,5.9,5.9,0,0,0-3,3.08,4.88,4.88,0,0,0-.42,1.94Z" transform="translate(0 -3.92)"/>
        <path class="cls-1" d="M54.68,137.52a10.12,10.12,0,0,1,3.52-2.1,12,12,0,0,1,4-.7,10.86,10.86,0,0,1,3.58.52,7,7,0,0,1,2.46,1.4,5.59,5.59,0,0,1,1.42,2,6.23,6.23,0,0,1,.46,2.38v9.68c0,.67,0,1.28,0,1.84s.07,1.09.12,1.6h-3.2q-.12-1.44-.12-2.88h-.08a6.92,6.92,0,0,1-2.84,2.6,8.89,8.89,0,0,1-3.8.76,8.72,8.72,0,0,1-2.52-.36,6.15,6.15,0,0,1-2.1-1.08,5.16,5.16,0,0,1-1.42-1.78,5.5,5.5,0,0,1-.52-2.46,5.44,5.44,0,0,1,.82-3.08,6.18,6.18,0,0,1,2.24-2,10.9,10.9,0,0,1,3.32-1.12,22.76,22.76,0,0,1,4.06-.34h2.64v-.8a3.88,3.88,0,0,0-.28-1.44,4,4,0,0,0-.84-1.3,4,4,0,0,0-1.4-.92,5.27,5.27,0,0,0-2-.34,7.56,7.56,0,0,0-1.82.2,7.89,7.89,0,0,0-1.42.5,6.06,6.06,0,0,0-1.16.7l-1,.76ZM64.84,145a26.17,26.17,0,0,0-2.62.14,9.93,9.93,0,0,0-2.44.54,4.8,4.8,0,0,0-1.8,1.12,2.51,2.51,0,0,0-.7,1.84,2.62,2.62,0,0,0,1.1,2.36,5.39,5.39,0,0,0,3,.72,5.8,5.8,0,0,0,2.52-.5,4.8,4.8,0,0,0,1.68-1.3,5,5,0,0,0,.92-1.78,6.9,6.9,0,0,0,.28-1.94V145Z" transform="translate(0 -3.92)"/>
        <path class="cls-1" d="M94.36,154.16h-3.6v-2.72h-.08a6.88,6.88,0,0,1-2.86,2.36,8.82,8.82,0,0,1-3.74.84,10,10,0,0,1-4-.76,8.76,8.76,0,0,1-3-2.12,9.56,9.56,0,0,1-1.94-3.16,11.09,11.09,0,0,1-.68-3.92,11.24,11.24,0,0,1,.68-3.94,9.26,9.26,0,0,1,1.94-3.16,9,9,0,0,1,3-2.1,10,10,0,0,1,4-.76,8.84,8.84,0,0,1,3.84.86,6.52,6.52,0,0,1,2.76,2.34h.08v-14h3.6Zm-9.84-2.88a6.55,6.55,0,0,0,2.6-.5,5.74,5.74,0,0,0,2-1.36,6,6,0,0,0,1.24-2.08,8.26,8.26,0,0,0,0-5.32,6,6,0,0,0-1.24-2.08,5.74,5.74,0,0,0-2-1.36,7,7,0,0,0-5.2,0,5.74,5.74,0,0,0-2,1.36A6,6,0,0,0,78.72,142a8.26,8.26,0,0,0,0,5.32A6,6,0,0,0,80,149.42a5.74,5.74,0,0,0,2,1.36A6.55,6.55,0,0,0,84.52,151.28Z" transform="translate(0 -3.92)"/>
        <path class="cls-1" d="M99.24,128.4a2.66,2.66,0,1,1,.78,1.86A2.54,2.54,0,0,1,99.24,128.4Zm.84,6.8h3.6v19h-3.6Z" transform="translate(0 -3.92)"/>
        <path class="cls-1" d="M109.4,135.2H113v2.92h.08a5.32,5.32,0,0,1,2.36-2.46,7.77,7.77,0,0,1,3.88-.94,8.22,8.22,0,0,1,2.62.42,5.89,5.89,0,0,1,2.2,1.3,6.21,6.21,0,0,1,1.5,2.26,8.72,8.72,0,0,1,.56,3.26v12.2h-3.6V143a6.34,6.34,0,0,0-.36-2.26,4.13,4.13,0,0,0-1-1.52,3.52,3.52,0,0,0-1.38-.84,5.18,5.18,0,0,0-1.62-.26,5.86,5.86,0,0,0-2.08.36,4.33,4.33,0,0,0-1.68,1.14,5.43,5.43,0,0,0-1.12,2,8.93,8.93,0,0,0-.4,2.84v9.76h-3.6Z" transform="translate(0 -3.92)"/>
        <path class="cls-1" d="M150.64,154a10.24,10.24,0,0,1-.74,3.94,8.88,8.88,0,0,1-2.1,3.08,9.5,9.5,0,0,1-3.28,2,12,12,0,0,1-4.24.72,15.48,15.48,0,0,1-5-.76,12.08,12.08,0,0,1-4.3-2.64l2.44-3a10,10,0,0,0,3,2.3,8.54,8.54,0,0,0,3.72.78,8.23,8.23,0,0,0,3.32-.58,5.78,5.78,0,0,0,2.1-1.5,5.3,5.3,0,0,0,1.1-2.1,9.22,9.22,0,0,0,.32-2.38V151h-.12a6.3,6.3,0,0,1-2.82,2.54,8.79,8.79,0,0,1-3.74.82,10,10,0,0,1-3.86-.74,9,9,0,0,1-3.06-2,9.37,9.37,0,0,1-2-3.08,10.2,10.2,0,0,1-.72-3.86,11.1,11.1,0,0,1,.68-3.9,9.55,9.55,0,0,1,1.94-3.18,8.76,8.76,0,0,1,3-2.12,10,10,0,0,1,4-.76,8.82,8.82,0,0,1,3.74.84,6.88,6.88,0,0,1,2.86,2.36H147V135.2h3.6Zm-9.84-15.92a6.55,6.55,0,0,0-2.6.5,5.74,5.74,0,0,0-2,1.36A6,6,0,0,0,135,142a7.85,7.85,0,0,0-.44,2.66,6.37,6.37,0,0,0,1.68,4.62,6.85,6.85,0,0,0,9.12,0,6.37,6.37,0,0,0,1.68-4.62,7.85,7.85,0,0,0-.44-2.66,6,6,0,0,0-1.24-2.08,5.74,5.74,0,0,0-2-1.36A6.55,6.55,0,0,0,140.8,138.08Z" transform="translate(0 -3.92)"/>
        <path class="cls-1" d="M175.72,146.16h-9.84V142.8h9.84Z" transform="translate(0 -3.92)"/>
        <path class="cls-1" d="M201.68,147.92H189.6V144l11.28-18.16h4.64v18.72h4v3.36h-4v6.24h-3.84Zm0-17.52h-.08L193,144.56h8.72Z" transform="translate(0 -3.92)"/>
        <path class="cls-1" d="M211.84,140c0-1,0-2.12.16-3.24a21.49,21.49,0,0,1,.58-3.3,17.34,17.34,0,0,1,1.12-3.1,9.18,9.18,0,0,1,1.8-2.58,8.46,8.46,0,0,1,2.6-1.76,9.61,9.61,0,0,1,7,0,8.46,8.46,0,0,1,2.6,1.76,9.18,9.18,0,0,1,1.8,2.58,17.34,17.34,0,0,1,1.12,3.1,21.49,21.49,0,0,1,.58,3.3c.11,1.12.16,2.2.16,3.24a30.84,30.84,0,0,1-.4,4.8,16.62,16.62,0,0,1-1.48,4.76,10,10,0,0,1-3,3.64,9.06,9.06,0,0,1-9.8,0,10,10,0,0,1-3-3.64,16.62,16.62,0,0,1-1.48-4.76A30.84,30.84,0,0,1,211.84,140Zm3.84,0c0,.93.06,2,.18,3.32a16.35,16.35,0,0,0,.78,3.7,8,8,0,0,0,1.78,3,4.7,4.7,0,0,0,6.36,0,8.12,8.12,0,0,0,1.78-3,16.35,16.35,0,0,0,.78-3.7c.12-1.28.18-2.39.18-3.32,0-.64,0-1.37-.06-2.18a19.62,19.62,0,0,0-.28-2.48,16.45,16.45,0,0,0-.62-2.44,8.41,8.41,0,0,0-1.06-2.12,5,5,0,0,0-1.62-1.5,4.92,4.92,0,0,0-4.56,0,5,5,0,0,0-1.62,1.5,8.09,8.09,0,0,0-1.06,2.12,16.45,16.45,0,0,0-.62,2.44,19.62,19.62,0,0,0-.28,2.48C215.7,138.63,215.68,139.36,215.68,140Z" transform="translate(0 -3.92)"/>
        <path class="cls-1" d="M246.56,135.2h3.6v2.72h.08a6.88,6.88,0,0,1,2.86-2.36,8.82,8.82,0,0,1,3.74-.84,10,10,0,0,1,4,.76,8.76,8.76,0,0,1,3,2.12,9.55,9.55,0,0,1,1.94,3.18,11.1,11.1,0,0,1,.68,3.9,11.24,11.24,0,0,1-.68,3.94,9.26,9.26,0,0,1-1.94,3.16,9,9,0,0,1-3,2.1,10,10,0,0,1-4,.76,8.84,8.84,0,0,1-3.84-.86,6.52,6.52,0,0,1-2.76-2.34h-.08v14h-3.6Zm9.84,2.88a6.55,6.55,0,0,0-2.6.5,5.74,5.74,0,0,0-2,1.36A6,6,0,0,0,250.6,142a8.26,8.26,0,0,0,0,5.32,6,6,0,0,0,1.24,2.08,5.74,5.74,0,0,0,2,1.36,7,7,0,0,0,5.2,0,5.74,5.74,0,0,0,2-1.36,6,6,0,0,0,1.24-2.08,8.26,8.26,0,0,0,0-5.32,6,6,0,0,0-1.24-2.08,5.74,5.74,0,0,0-2-1.36A6.55,6.55,0,0,0,256.4,138.08Z" transform="translate(0 -3.92)"/>
        <path class="cls-1" d="M276.2,144l-6.72-8.84h4.64l4.6,6.72,4.52-6.72h4.36L281.12,144l7.68,10.12h-4.64l-5.6-8-5.6,8h-4.44Z" transform="translate(0 -3.92)"/>
        <path class="cls-1" d="M2.69,190.61A3.84,3.84,0,0,0,4.28,192a4.89,4.89,0,0,0,2,.44,4.06,4.06,0,0,0,1.17-.18,3.64,3.64,0,0,0,1.1-.54,3,3,0,0,0,.8-.89,2.33,2.33,0,0,0,.31-1.22,1.84,1.84,0,0,0-.62-1.5,5.44,5.44,0,0,0-1.55-.86c-.62-.24-1.29-.46-2-.68a7.77,7.77,0,0,1-2-.9,5,5,0,0,1-1.55-1.54,4.81,4.81,0,0,1-.62-2.63,4.33,4.33,0,0,1,.32-1.59,4.46,4.46,0,0,1,1-1.53,5.62,5.62,0,0,1,1.79-1.17,6.69,6.69,0,0,1,2.63-.46,9.05,9.05,0,0,1,2.66.38A4.62,4.62,0,0,1,12,178.68l-1.87,1.7a3.3,3.3,0,0,0-1.22-1.08,3.91,3.91,0,0,0-1.8-.4,4.33,4.33,0,0,0-1.6.25,2.89,2.89,0,0,0-1,.65,2.12,2.12,0,0,0-.54.85,2.7,2.7,0,0,0-.16.84,2.11,2.11,0,0,0,.63,1.65,4.66,4.66,0,0,0,1.55.94,17.6,17.6,0,0,0,2,.65,8.77,8.77,0,0,1,2,.8,4.9,4.9,0,0,1,1.55,1.39,4.17,4.17,0,0,1,.62,2.42,5.07,5.07,0,0,1-.47,2.2,4.85,4.85,0,0,1-1.26,1.66,5.56,5.56,0,0,1-1.87,1,7.24,7.24,0,0,1-2.3.36,8.49,8.49,0,0,1-3.1-.57,5.14,5.14,0,0,1-2.33-1.78Z" transform="translate(0 -3.92)"/>
        <path class="cls-1" d="M25.06,194.16H22.9v-1.75h0a3.14,3.14,0,0,1-1.42,1.47,4.65,4.65,0,0,1-2.33.57,5.13,5.13,0,0,1-1.58-.25,3.63,3.63,0,0,1-1.31-.78,4,4,0,0,1-.9-1.36,5.26,5.26,0,0,1-.33-2v-7.32h2.16v6.72a3.93,3.93,0,0,0,.21,1.36,2.5,2.5,0,0,0,.58.91,2.22,2.22,0,0,0,.83.51,3.12,3.12,0,0,0,1,.15,3.64,3.64,0,0,0,1.25-.21,2.65,2.65,0,0,0,1-.69,3.21,3.21,0,0,0,.68-1.19,5.36,5.36,0,0,0,.24-1.7v-5.86h2.16Z" transform="translate(0 -3.92)"/>
        <path class="cls-1" d="M28.32,176h2.16v8.4h.05A3.89,3.89,0,0,1,32.18,183a5.34,5.34,0,0,1,2.31-.51,6.13,6.13,0,0,1,2.39.45,5.49,5.49,0,0,1,1.82,1.26,5.65,5.65,0,0,1,1.16,1.9,6.5,6.5,0,0,1,.41,2.36,6.41,6.41,0,0,1-.41,2.35,5.75,5.75,0,0,1-1.16,1.9A5.24,5.24,0,0,1,36.88,194a6,6,0,0,1-2.39.46,5.27,5.27,0,0,1-2.25-.51,4,4,0,0,1-1.71-1.41h-.05v1.63H28.32Zm5.9,16.41a3.88,3.88,0,0,0,1.56-.3,3.44,3.44,0,0,0,1.18-.81,3.55,3.55,0,0,0,.74-1.25,4.59,4.59,0,0,0,.27-1.6,4.54,4.54,0,0,0-.27-1.59,3.46,3.46,0,0,0-.74-1.25,3.33,3.33,0,0,0-1.18-.82,3.88,3.88,0,0,0-1.56-.3,3.94,3.94,0,0,0-1.56.3,3.39,3.39,0,0,0-1.17.82,3.63,3.63,0,0,0-.75,1.25,4.78,4.78,0,0,0-.26,1.59,4.84,4.84,0,0,0,.26,1.6,3.72,3.72,0,0,0,.75,1.25,3.5,3.5,0,0,0,1.17.81A3.94,3.94,0,0,0,34.22,192.43Z" transform="translate(0 -3.92)"/>
        <path class="cls-1" d="M50.21,177.17h2.3v7.05h8.81v-7.05h2.3v17h-2.3v-7.78H52.51v7.78h-2.3Z" transform="translate(0 -3.92)"/>
        <path class="cls-1" d="M69.07,189.26a2.82,2.82,0,0,0,.33,1.36,3.19,3.19,0,0,0,.85,1,3.92,3.92,0,0,0,1.22.68,4.44,4.44,0,0,0,1.44.24,3.22,3.22,0,0,0,1.75-.47A5.49,5.49,0,0,0,76,190.87l1.63,1.25a6,6,0,0,1-5,2.33,6.16,6.16,0,0,1-2.43-.46,5.15,5.15,0,0,1-1.85-1.26,5.6,5.6,0,0,1-1.16-1.89,6.56,6.56,0,0,1-.41-2.37,6.31,6.31,0,0,1,.44-2.36,6,6,0,0,1,1.23-1.9A5.77,5.77,0,0,1,70.3,183a6,6,0,0,1,2.35-.45,5.6,5.6,0,0,1,2.55.52,5.24,5.24,0,0,1,1.72,1.38,5.44,5.44,0,0,1,1,1.92,8.07,8.07,0,0,1,.3,2.18v.76Zm6.82-1.72a4.56,4.56,0,0,0-.23-1.32,3.05,3.05,0,0,0-.61-1.05,2.75,2.75,0,0,0-1-.69,3.72,3.72,0,0,0-1.43-.26,3.45,3.45,0,0,0-1.45.3,3.62,3.62,0,0,0-1.12.78,3.77,3.77,0,0,0-.71,1.07,3.08,3.08,0,0,0-.25,1.17Z" transform="translate(0 -3.92)"/>
        <path class="cls-1" d="M80.83,184.18a6,6,0,0,1,2.11-1.26,7.22,7.22,0,0,1,2.4-.42,6.51,6.51,0,0,1,2.15.31,4.31,4.31,0,0,1,1.48.84,3.25,3.25,0,0,1,.85,1.21,3.87,3.87,0,0,1,.28,1.43v5.81c0,.4,0,.76,0,1.1s0,.66.07,1H88.27c0-.58-.07-1.15-.07-1.73h0a4.11,4.11,0,0,1-1.7,1.56,5.31,5.31,0,0,1-2.28.46,5,5,0,0,1-1.51-.22,3.59,3.59,0,0,1-1.26-.65,3.07,3.07,0,0,1-.86-1.06,3.46,3.46,0,0,1-.31-1.48,3.35,3.35,0,0,1,.49-1.85A3.78,3.78,0,0,1,82.07,188a6.39,6.39,0,0,1,2-.67,13.44,13.44,0,0,1,2.44-.21h1.58v-.48a2.44,2.44,0,0,0-.17-.86,2.31,2.31,0,0,0-.5-.78,2.45,2.45,0,0,0-.84-.55,3.14,3.14,0,0,0-1.2-.21,4.37,4.37,0,0,0-1.09.12,4.81,4.81,0,0,0-.86.3,4,4,0,0,0-.69.42l-.6.46Zm6.1,4.51c-.51,0-1,0-1.57.08a6.35,6.35,0,0,0-1.47.33,2.8,2.8,0,0,0-1.08.67,1.51,1.51,0,0,0-.42,1.1,1.57,1.57,0,0,0,.66,1.42,3.23,3.23,0,0,0,1.79.43,3.44,3.44,0,0,0,1.51-.3,2.85,2.85,0,0,0,1-.78,3,3,0,0,0,.55-1.07,4.29,4.29,0,0,0,.17-1.16v-.72Z" transform="translate(0 -3.92)"/>
        <path class="cls-1" d="M104.64,194.16h-2.16v-1.63h0a4,4,0,0,1-1.71,1.41,5.27,5.27,0,0,1-2.25.51,6,6,0,0,1-2.39-.46,5.24,5.24,0,0,1-1.82-1.27,5.75,5.75,0,0,1-1.16-1.9,6.41,6.41,0,0,1-.41-2.35,6.5,6.5,0,0,1,.41-2.36,5.65,5.65,0,0,1,1.16-1.9A5.49,5.49,0,0,1,96.08,183a6.13,6.13,0,0,1,2.39-.45,5.34,5.34,0,0,1,2.31.51,3.89,3.89,0,0,1,1.65,1.41h0V176h2.16Zm-5.9-1.73a3.94,3.94,0,0,0,1.56-.3,3.5,3.5,0,0,0,1.17-.81,3.72,3.72,0,0,0,.75-1.25,4.84,4.84,0,0,0,.26-1.6,4.78,4.78,0,0,0-.26-1.59,3.63,3.63,0,0,0-.75-1.25,3.39,3.39,0,0,0-1.17-.82,3.94,3.94,0,0,0-1.56-.3,3.88,3.88,0,0,0-1.56.3,3.33,3.33,0,0,0-1.18.82,3.46,3.46,0,0,0-.74,1.25,4.54,4.54,0,0,0-.27,1.59,4.59,4.59,0,0,0,.27,1.6,3.55,3.55,0,0,0,.74,1.25,3.44,3.44,0,0,0,1.18.81A3.88,3.88,0,0,0,98.74,192.43Z" transform="translate(0 -3.92)"/>
        <path class="cls-1" d="M107.57,178.7a1.48,1.48,0,0,1,.47-1.11,1.52,1.52,0,0,1,1.11-.47,1.54,1.54,0,0,1,1.12.47,1.56,1.56,0,0,1,0,2.23,1.54,1.54,0,0,1-1.12.47,1.52,1.52,0,0,1-1.11-.47A1.49,1.49,0,0,1,107.57,178.7Zm.5,4.08h2.16v11.38h-2.16Z" transform="translate(0 -3.92)"/>
        <path class="cls-1" d="M113.66,182.78h2.16v1.76h.05a3.21,3.21,0,0,1,1.42-1.48,4.65,4.65,0,0,1,2.33-.56,4.91,4.91,0,0,1,1.57.25,3.67,3.67,0,0,1,1.32.78,3.89,3.89,0,0,1,.9,1.35,5.33,5.33,0,0,1,.33,2v7.32h-2.16v-6.72a3.93,3.93,0,0,0-.21-1.36,2.59,2.59,0,0,0-.58-.91,2.08,2.08,0,0,0-.83-.5,2.86,2.86,0,0,0-1-.16,3.42,3.42,0,0,0-1.25.22,2.51,2.51,0,0,0-1,.68,3.21,3.21,0,0,0-.68,1.19,5.41,5.41,0,0,0-.24,1.7v5.86h-2.16Z" transform="translate(0 -3.92)"/>
        <path class="cls-1" d="M138.41,194.06a6,6,0,0,1-.45,2.37,5.25,5.25,0,0,1-1.26,1.85,5.74,5.74,0,0,1-2,1.21,7.18,7.18,0,0,1-2.55.43,9.19,9.19,0,0,1-3-.46,7.24,7.24,0,0,1-2.58-1.58l1.47-1.82a6.31,6.31,0,0,0,1.82,1.38,5.17,5.17,0,0,0,2.23.46,5.06,5.06,0,0,0,2-.34,3.77,3.77,0,0,0,1.26-.9,3.31,3.31,0,0,0,.66-1.26,5.85,5.85,0,0,0,.19-1.43v-1.68h-.07a3.84,3.84,0,0,1-1.7,1.52,5.26,5.26,0,0,1-2.24.49,6,6,0,0,1-2.32-.44,5.54,5.54,0,0,1-1.83-1.22,5.68,5.68,0,0,1-1.2-1.85,6.1,6.1,0,0,1-.43-2.32,6.69,6.69,0,0,1,.4-2.34,5.82,5.82,0,0,1,1.17-1.91,5.37,5.37,0,0,1,1.82-1.27,6.1,6.1,0,0,1,2.39-.45,5.19,5.19,0,0,1,2.24.5,4.16,4.16,0,0,1,1.72,1.42h.05v-1.64h2.16Zm-5.91-9.55a3.94,3.94,0,0,0-1.56.3,3.39,3.39,0,0,0-1.17.82,3.63,3.63,0,0,0-.75,1.25,4.78,4.78,0,0,0-.26,1.59,3.82,3.82,0,0,0,1,2.77,4.09,4.09,0,0,0,5.47,0,3.82,3.82,0,0,0,1-2.77,4.54,4.54,0,0,0-.27-1.59,3.46,3.46,0,0,0-.74-1.25,3.33,3.33,0,0,0-1.18-.82A3.88,3.88,0,0,0,132.5,184.51Z" transform="translate(0 -3.92)"/>
        <path class="cls-1" d="M153.46,189.36h-5.91v-2h5.91Z" transform="translate(0 -3.92)"/>
        <path class="cls-1" d="M162.07,191.71l6.82-6.77a6.89,6.89,0,0,0,.69-.73,5.29,5.29,0,0,0,.6-.83,3.76,3.76,0,0,0,.42-.91,3.05,3.05,0,0,0,.16-1,2.7,2.7,0,0,0-.23-1.12,2.56,2.56,0,0,0-.62-.86,3,3,0,0,0-.94-.54,3.59,3.59,0,0,0-1.14-.19,3,3,0,0,0-2.06.7,3.13,3.13,0,0,0-1,1.92l-2.49-.22a5.23,5.23,0,0,1,.66-2,4.66,4.66,0,0,1,1.22-1.38,5.06,5.06,0,0,1,1.68-.82,7.55,7.55,0,0,1,2.06-.26,7,7,0,0,1,2.07.3,5.13,5.13,0,0,1,1.71.88,4.28,4.28,0,0,1,1.15,1.47,4.69,4.69,0,0,1,.42,2.05A5,5,0,0,1,173,183a6.74,6.74,0,0,1-.66,1.38,10,10,0,0,1-.94,1.23c-.35.38-.72.76-1.1,1.12l-5.6,5.4h8.55v2H162.07Z" transform="translate(0 -3.92)"/>
        <path class="cls-1" d="M182.38,190.42h-7.25v-2.36l6.77-10.89h2.78V188.4h2.4v2h-2.4v3.74h-2.3Zm0-10.52h0l-5.19,8.5h5.24Z" transform="translate(0 -3.92)"/>
        <path class="cls-1" d="M196,182.78h2.16v1.64h0a4.07,4.07,0,0,1,1.71-1.42,5.26,5.26,0,0,1,2.25-.5,6.13,6.13,0,0,1,2.39.45,5.47,5.47,0,0,1,1.82,1.27,5.79,5.79,0,0,1,1.16,1.91,6.69,6.69,0,0,1,.41,2.34,6.78,6.78,0,0,1-.41,2.37,5.6,5.6,0,0,1-1.16,1.89,5.31,5.31,0,0,1-1.82,1.26,6,6,0,0,1-2.39.46,5.21,5.21,0,0,1-2.31-.52,3.87,3.87,0,0,1-1.65-1.4h0v8.4H196Zm5.9,1.73a3.94,3.94,0,0,0-1.56.3,3.39,3.39,0,0,0-1.17.82,3.63,3.63,0,0,0-.75,1.25,4.78,4.78,0,0,0-.26,1.59,4.84,4.84,0,0,0,.26,1.6,3.72,3.72,0,0,0,.75,1.25,3.5,3.5,0,0,0,1.17.81,3.94,3.94,0,0,0,1.56.3,3.88,3.88,0,0,0,1.56-.3,3.44,3.44,0,0,0,1.18-.81,3.55,3.55,0,0,0,.74-1.25,4.59,4.59,0,0,0,.27-1.6,4.54,4.54,0,0,0-.27-1.59,3.46,3.46,0,0,0-.74-1.25,3.33,3.33,0,0,0-1.18-.82A3.88,3.88,0,0,0,201.86,184.51Z" transform="translate(0 -3.92)"/>
        <path class="cls-1" d="M213.74,188.09l-4-5.31h2.78l2.76,4,2.72-4h2.61l-3.89,5.31,4.61,6.07h-2.78l-3.36-4.78-3.36,4.78h-2.67Z" transform="translate(0 -3.92)"/>
        <path class="cls-1" d="M1.55,222.83H4.82a8.12,8.12,0,0,1,1.29.11,3.09,3.09,0,0,1,1.18.43,2.49,2.49,0,0,1,.85.91,3.12,3.12,0,0,1,.32,1.54A2.36,2.36,0,0,1,8,227.33a2.56,2.56,0,0,1-1.52.85v0a3.06,3.06,0,0,1,1,.26,2.74,2.74,0,0,1,.8.58,2.7,2.7,0,0,1,.52.85A3.2,3.2,0,0,1,9,231a2.93,2.93,0,0,1-.38,1.59,2.82,2.82,0,0,1-.94,1,3.43,3.43,0,0,1-1.23.48,6.23,6.23,0,0,1-1.24.13H1.55Zm1.06,4.9H4.8a3.8,3.8,0,0,0,1.33-.2,2.43,2.43,0,0,0,.8-.49,1.41,1.41,0,0,0,.38-.62,1.89,1.89,0,0,0,.1-.6,2.19,2.19,0,0,0-.2-1,1.63,1.63,0,0,0-.54-.62,2,2,0,0,0-.78-.33,4.19,4.19,0,0,0-.95-.1H2.61Zm0,5.47H5a4.4,4.4,0,0,0,1.5-.22,2.3,2.3,0,0,0,.87-.56,1.76,1.76,0,0,0,.41-.72,2.49,2.49,0,0,0,.1-.68A2.25,2.25,0,0,0,7.66,230a2.1,2.1,0,0,0-.62-.73,2.66,2.66,0,0,0-.87-.4,3.69,3.69,0,0,0-1-.13H2.61Z" transform="translate(0 -3.92)"/>
        <path class="cls-1" d="M10.94,230.46a4.2,4.2,0,0,1,.29-1.56,3.6,3.6,0,0,1,2-2,4.25,4.25,0,0,1,1.57-.28,4.13,4.13,0,0,1,1.56.28,3.76,3.76,0,0,1,1.23.81,3.66,3.66,0,0,1,.81,1.23,4.2,4.2,0,0,1,.29,1.56,4.13,4.13,0,0,1-.29,1.56,3.57,3.57,0,0,1-2,2,3.94,3.94,0,0,1-1.56.29,4.06,4.06,0,0,1-1.57-.29,3.59,3.59,0,0,1-1.23-.8,3.73,3.73,0,0,1-.8-1.24A4.13,4.13,0,0,1,10.94,230.46Zm1,0a3.29,3.29,0,0,0,.21,1.18,2.6,2.6,0,0,0,.58,1,2.73,2.73,0,0,0,.93.65,2.94,2.94,0,0,0,1.21.24,3,3,0,0,0,1.22-.24,2.94,2.94,0,0,0,.93-.65,2.74,2.74,0,0,0,.58-1,3.55,3.55,0,0,0,0-2.35,2.74,2.74,0,0,0-.58-1,2.94,2.94,0,0,0-.93-.65,3,3,0,0,0-1.22-.24,2.94,2.94,0,0,0-1.21.24,2.73,2.73,0,0,0-.93.65,2.6,2.6,0,0,0-.58,1A3.28,3.28,0,0,0,11.9,230.46Z" transform="translate(0 -3.92)"/>
        <path class="cls-1" d="M27.33,232.86h0a2.6,2.6,0,0,1-.56.67A3.73,3.73,0,0,1,26,234a3.36,3.36,0,0,1-.83.27,4.07,4.07,0,0,1-.84.09,4,4,0,0,1-1.57-.29,3.52,3.52,0,0,1-2-2,3.94,3.94,0,0,1-.29-1.56,4,4,0,0,1,.29-1.56,3.63,3.63,0,0,1,.8-1.23,3.76,3.76,0,0,1,1.23-.81,4.21,4.21,0,0,1,1.57-.28,4.87,4.87,0,0,1,.84.08,3.38,3.38,0,0,1,.83.28,3.31,3.31,0,0,1,.73.46,2.73,2.73,0,0,1,.56.66h0v-6h1v12.1h-1Zm.09-2.4a3,3,0,0,0-.89-2.13,3.16,3.16,0,0,0-1-.65,3,3,0,0,0-1.21-.24,3,3,0,0,0-1.22.24,2.94,2.94,0,0,0-.93.65,2.74,2.74,0,0,0-.58,1,3.55,3.55,0,0,0,0,2.35,2.74,2.74,0,0,0,.58,1,2.94,2.94,0,0,0,.93.65,3,3,0,0,0,1.22.24,3,3,0,0,0,1.21-.24,3.16,3.16,0,0,0,1-.65,3,3,0,0,0,.89-2.14Z" transform="translate(0 -3.92)"/>
        <path class="cls-1" d="M32.72,236.45a2.67,2.67,0,0,1-.75,1.13,1.88,1.88,0,0,1-1.28.42,2.59,2.59,0,0,1-.48,0l-.47-.1.1-.9.42.12a1.67,1.67,0,0,0,.44.06.88.88,0,0,0,.46-.12,1.16,1.16,0,0,0,.34-.28,1.8,1.8,0,0,0,.25-.4c.07-.14.13-.29.19-.44l.67-1.71-3-7.42h1.07L33.12,233l2.38-6.22h1Z" transform="translate(0 -3.92)"/>
        <path class="cls-1" d="M51.81,232.38A4.86,4.86,0,0,1,49.92,234a5.6,5.6,0,0,1-2.32.48,6.34,6.34,0,0,1-2.38-.44,5.39,5.39,0,0,1-3-3.12,6.71,6.71,0,0,1,0-4.78,5.5,5.5,0,0,1,1.2-1.88A5.38,5.38,0,0,1,45.22,223a6.15,6.15,0,0,1,2.38-.45,5.64,5.64,0,0,1,2.15.41,4.23,4.23,0,0,1,1.75,1.37l-.86.72a3.17,3.17,0,0,0-1.35-1.17,4.19,4.19,0,0,0-1.69-.37,4.87,4.87,0,0,0-2,.39,4.4,4.4,0,0,0-1.51,1.05,4.58,4.58,0,0,0-1,1.59,5.51,5.51,0,0,0-.34,2,5.46,5.46,0,0,0,.34,2,4.58,4.58,0,0,0,1,1.59,4.27,4.27,0,0,0,1.51,1,4.87,4.87,0,0,0,2,.39,4.1,4.1,0,0,0,.9-.11,3.72,3.72,0,0,0,.9-.32,4.27,4.27,0,0,0,.84-.54,3.33,3.33,0,0,0,.7-.79Z" transform="translate(0 -3.92)"/>
        <path class="cls-1" d="M53.06,230.46a4.2,4.2,0,0,1,.28-1.56,4,4,0,0,1,.8-1.23,3.81,3.81,0,0,1,1.24-.81,4.2,4.2,0,0,1,1.56-.28,4.13,4.13,0,0,1,1.56.28,3.92,3.92,0,0,1,1.24.81,3.79,3.79,0,0,1,.8,1.23,4,4,0,0,1,.29,1.56,3.94,3.94,0,0,1-.29,1.56,3.5,3.5,0,0,1-2,2,3.94,3.94,0,0,1-1.56.29,4,4,0,0,1-1.56-.29,3.63,3.63,0,0,1-1.24-.8,3.89,3.89,0,0,1-.8-1.24A4.13,4.13,0,0,1,53.06,230.46Zm1,0a3.29,3.29,0,0,0,.2,1.18,2.6,2.6,0,0,0,.58,1,2.83,2.83,0,0,0,.93.65,3.2,3.2,0,0,0,2.43,0,2.94,2.94,0,0,0,.93-.65,2.74,2.74,0,0,0,.58-1,3.55,3.55,0,0,0,0-2.35,2.74,2.74,0,0,0-.58-1,2.94,2.94,0,0,0-.93-.65,3.2,3.2,0,0,0-2.43,0,2.83,2.83,0,0,0-.93.65,2.6,2.6,0,0,0-.58,1A3.27,3.27,0,0,0,54,230.46Z" transform="translate(0 -3.92)"/>
        <path class="cls-1" d="M63,228.85c0-.14,0-.31,0-.51s0-.39,0-.6,0-.39,0-.56,0-.32,0-.41h1c0,.28,0,.54,0,.8a3,3,0,0,0,0,.49h0a2.56,2.56,0,0,1,1-1,2.75,2.75,0,0,1,1.57-.44,3.15,3.15,0,0,1,1.4.27,2.25,2.25,0,0,1,.86.71,2.6,2.6,0,0,1,.43,1,5.69,5.69,0,0,1,.12,1.18v4.4h-1v-4.35a4.94,4.94,0,0,0-.08-.87,2,2,0,0,0-.28-.76,1.39,1.39,0,0,0-.56-.54,1.94,1.94,0,0,0-.93-.2,2.73,2.73,0,0,0-1,.18,2.22,2.22,0,0,0-.82.56,2.66,2.66,0,0,0-.54.95,3.84,3.84,0,0,0-.2,1.33v3.7H63Z" transform="translate(0 -3.92)"/>
        <path class="cls-1" d="M75.49,227.63H73.38v4.82a1.06,1.06,0,0,0,.27.77,1,1,0,0,0,.75.27,2.59,2.59,0,0,0,.55-.07,3.13,3.13,0,0,0,.54-.19l.08.87a5.6,5.6,0,0,1-.63.17,2.45,2.45,0,0,1-.62.08,2.35,2.35,0,0,1-.88-.15,1.52,1.52,0,0,1-.59-.41,1.6,1.6,0,0,1-.33-.6,2.55,2.55,0,0,1-.1-.74v-4.82h-1.6v-.86h1.6v-2.13h1v2.13h2.11Z" transform="translate(0 -3.92)"/>
        <path class="cls-1" d="M83.73,232.77A3.21,3.21,0,0,1,82.34,234a4.31,4.31,0,0,1-1.81.37,3.81,3.81,0,0,1-1.54-.29,3.41,3.41,0,0,1-1.94-2,4.38,4.38,0,0,1-.27-1.57,4.06,4.06,0,0,1,.28-1.54,3.55,3.55,0,0,1,.76-1.22,3.59,3.59,0,0,1,1.17-.82,3.64,3.64,0,0,1,1.49-.29,3.55,3.55,0,0,1,1.5.29,3.22,3.22,0,0,1,1.08.79,3.15,3.15,0,0,1,.67,1.11A3.68,3.68,0,0,1,84,230v.67H77.74a3.23,3.23,0,0,0,.12.78,2.87,2.87,0,0,0,.44.92,2.93,2.93,0,0,0,.86.77,2.71,2.71,0,0,0,1.38.32,3.18,3.18,0,0,0,1.43-.35,2.58,2.58,0,0,0,1-1ZM83,229.84a2.1,2.1,0,0,0-.2-.93,2.4,2.4,0,0,0-.54-.76,2.55,2.55,0,0,0-.82-.52,2.58,2.58,0,0,0-1-.19,2.48,2.48,0,0,0-1.3.32,2.86,2.86,0,0,0-.83.74,3,3,0,0,0-.43.8,2.55,2.55,0,0,0-.13.54Z" transform="translate(0 -3.92)"/>
        <path class="cls-1" d="M86.1,228.85c0-.14,0-.31,0-.51s0-.39,0-.6,0-.39,0-.56,0-.32,0-.41h1c0,.28,0,.54,0,.8a3,3,0,0,0,0,.49h0a2.56,2.56,0,0,1,1-1,2.75,2.75,0,0,1,1.57-.44,3.15,3.15,0,0,1,1.4.27,2.25,2.25,0,0,1,.86.71,2.6,2.6,0,0,1,.43,1,5.69,5.69,0,0,1,.12,1.18v4.4h-1v-4.35a4.14,4.14,0,0,0-.08-.87,2,2,0,0,0-.28-.76,1.39,1.39,0,0,0-.56-.54,1.94,1.94,0,0,0-.93-.2,2.77,2.77,0,0,0-1,.18,2.22,2.22,0,0,0-.82.56,2.66,2.66,0,0,0-.54.95,3.84,3.84,0,0,0-.2,1.33v3.7h-1Z" transform="translate(0 -3.92)"/>
        <path class="cls-1" d="M98.61,227.63H96.5v4.82a1.06,1.06,0,0,0,.27.77,1,1,0,0,0,.75.27,2.59,2.59,0,0,0,.55-.07,3.13,3.13,0,0,0,.54-.19l.08.87a5.6,5.6,0,0,1-.63.17,2.45,2.45,0,0,1-.62.08,2.35,2.35,0,0,1-.88-.15,1.54,1.54,0,0,1-.92-1,2.55,2.55,0,0,1-.1-.74v-4.82h-1.6v-.86h1.6v-2.13h1v2.13h2.11Z" transform="translate(0 -3.92)"/>
        <path class="cls-1" d="M103.89,229.94h4v.86h-4Z" transform="translate(0 -3.92)"/>
        <path class="cls-1" d="M116.87,224.18h0l-2,1.68-.59-.74,2.8-2.29h.82v11.33h-1Z" transform="translate(0 -3.92)"/>
        <path class="cls-1" d="M123.7,227.82h0a1.89,1.89,0,0,1,.78-.36,3.72,3.72,0,0,1,.9-.12,3.35,3.35,0,0,1,1.39.28,3.43,3.43,0,0,1,1.11.74,3.28,3.28,0,0,1,.72,1.1,3.66,3.66,0,0,1,.25,1.37,3.49,3.49,0,0,1-.28,1.42,3.21,3.21,0,0,1-.77,1.11,3.73,3.73,0,0,1-1.18.73,4.34,4.34,0,0,1-3,0,3.84,3.84,0,0,1-1.18-.73,3.21,3.21,0,0,1-.77-1.11,3.49,3.49,0,0,1-.28-1.42,3.89,3.89,0,0,1,.09-.85,4.86,4.86,0,0,1,.26-.76c.11-.24.22-.46.34-.68s.23-.41.35-.6l3.07-5.11h1.22Zm1.47.36a2.75,2.75,0,0,0-1,.2,2.71,2.71,0,0,0-.84.57,2.65,2.65,0,0,0-.57.85,2.56,2.56,0,0,0-.21,1,2.85,2.85,0,0,0,.2,1.08,2.29,2.29,0,0,0,.54.84,2.4,2.4,0,0,0,.84.55,3.16,3.16,0,0,0,2.16,0,2.4,2.4,0,0,0,1.38-1.39,2.85,2.85,0,0,0,.2-1.08,2.56,2.56,0,0,0-.21-1,2.65,2.65,0,0,0-1.42-1.42A2.74,2.74,0,0,0,125.17,228.18Z" transform="translate(0 -3.92)"/>
        <path class="cls-1" d="M134.56,226.77h1v1.29h0a2.48,2.48,0,0,1,.55-.66,3.31,3.31,0,0,1,.73-.46,3.38,3.38,0,0,1,.83-.28,4.89,4.89,0,0,1,.85-.08,4.11,4.11,0,0,1,1.55.28,3.92,3.92,0,0,1,1.24.81,3.79,3.79,0,0,1,.8,1.23,4,4,0,0,1,.29,1.56,3.94,3.94,0,0,1-.29,1.56,3.5,3.5,0,0,1-2,2,3.93,3.93,0,0,1-1.55.29,4.09,4.09,0,0,1-.85-.09,3.36,3.36,0,0,1-.83-.27,3.73,3.73,0,0,1-.73-.46,2.38,2.38,0,0,1-.55-.67h0v4.95h-1Zm.87,3.69a2.93,2.93,0,0,0,.24,1.18,3.07,3.07,0,0,0,.65,1,3.29,3.29,0,0,0,1,.65,3.05,3.05,0,0,0,1.22.24,3,3,0,0,0,1.21-.24,2.94,2.94,0,0,0,.93-.65,2.74,2.74,0,0,0,.58-1,3.55,3.55,0,0,0,0-2.35,2.74,2.74,0,0,0-.58-1,2.94,2.94,0,0,0-.93-.65,3,3,0,0,0-1.21-.24,3.05,3.05,0,0,0-1.22.24,3.29,3.29,0,0,0-1,.65,3.07,3.07,0,0,0-.65,1A2.92,2.92,0,0,0,135.43,230.46Z" transform="translate(0 -3.92)"/>
        <path class="cls-1" d="M146.43,230.16l-2.64-3.39H145l2,2.8,2-2.8h1.2l-2.61,3.39,3.17,4h-1.25L147,230.82l-2.53,3.34h-1.15Z" transform="translate(0 -3.92)"/>
        <path class="cls-1" d="M1.55,262.83H4.82a8.12,8.12,0,0,1,1.29.11,3.09,3.09,0,0,1,1.18.43,2.49,2.49,0,0,1,.85.91,3.12,3.12,0,0,1,.32,1.54A2.36,2.36,0,0,1,8,267.33a2.56,2.56,0,0,1-1.52.85v0a3.06,3.06,0,0,1,1,.26,2.74,2.74,0,0,1,.8.58,2.7,2.7,0,0,1,.52.85A3.2,3.2,0,0,1,9,271a2.93,2.93,0,0,1-.38,1.59,2.82,2.82,0,0,1-.94,1,3.43,3.43,0,0,1-1.23.48,6.23,6.23,0,0,1-1.24.13H1.55Zm1.06,4.9H4.8a3.8,3.8,0,0,0,1.33-.2,2.43,2.43,0,0,0,.8-.49,1.41,1.41,0,0,0,.38-.62,1.89,1.89,0,0,0,.1-.6,2.19,2.19,0,0,0-.2-1,1.63,1.63,0,0,0-.54-.62,2,2,0,0,0-.78-.33,4.19,4.19,0,0,0-.95-.1H2.61Zm0,5.47H5a4.4,4.4,0,0,0,1.5-.22,2.3,2.3,0,0,0,.87-.56,1.76,1.76,0,0,0,.41-.72,2.49,2.49,0,0,0,.1-.68A2.25,2.25,0,0,0,7.66,270a2.1,2.1,0,0,0-.62-.73,2.66,2.66,0,0,0-.87-.4,3.69,3.69,0,0,0-1-.13H2.61Z" transform="translate(0 -3.92)"/>
        <path class="cls-1" d="M19.68,269.82a7.17,7.17,0,0,1-.21,1.75,4.15,4.15,0,0,1-.69,1.47,3.49,3.49,0,0,1-1.28,1,4.4,4.4,0,0,1-1.95.39,4.36,4.36,0,0,1-1.94-.39,3.34,3.34,0,0,1-1.28-1,4,4,0,0,1-.7-1.47,7.17,7.17,0,0,1-.21-1.75v-7h1.06v6.72a8.66,8.66,0,0,0,.11,1.3,4,4,0,0,0,.44,1.28,2.7,2.7,0,0,0,.93,1,2.88,2.88,0,0,0,1.59.39,2.94,2.94,0,0,0,1.6-.39,2.75,2.75,0,0,0,.92-1,3.81,3.81,0,0,0,.44-1.28,7.52,7.52,0,0,0,.11-1.3v-6.72h1.06Z" transform="translate(0 -3.92)"/>
        <path class="cls-1" d="M25.09,263.79H21.22v-1H30v1H26.14v10.37H25.09Z" transform="translate(0 -3.92)"/>
        <path class="cls-1" d="M34.27,263.79H30.4v-1h8.8v1H35.33v10.37H34.27Z" transform="translate(0 -3.92)"/>
        <path class="cls-1" d="M40.21,268.5a6.39,6.39,0,0,1,.43-2.39,5.82,5.82,0,0,1,1.2-1.88A5.42,5.42,0,0,1,43.69,263a6.49,6.49,0,0,1,4.75,0,5.52,5.52,0,0,1,1.85,1.24,5.82,5.82,0,0,1,1.2,1.88,6.86,6.86,0,0,1,0,4.78,5.76,5.76,0,0,1-1.2,1.89A5.65,5.65,0,0,1,48.44,274a6.63,6.63,0,0,1-4.75,0,5.55,5.55,0,0,1-1.85-1.23,5.76,5.76,0,0,1-1.2-1.89A6.43,6.43,0,0,1,40.21,268.5Zm1,0a5.68,5.68,0,0,0,.34,2,4.58,4.58,0,0,0,1,1.59,4.36,4.36,0,0,0,1.51,1.05,5.3,5.3,0,0,0,4,0,4.36,4.36,0,0,0,1.51-1.05,4.9,4.9,0,0,0,1-1.59,5.68,5.68,0,0,0,.33-2,5.74,5.74,0,0,0-.33-2,4.9,4.9,0,0,0-1-1.59,4.5,4.5,0,0,0-1.51-1.05,5.3,5.3,0,0,0-4,0,4.5,4.5,0,0,0-1.51,1.05,4.58,4.58,0,0,0-1,1.59A5.74,5.74,0,0,0,41.26,268.5Z" transform="translate(0 -3.92)"/>
        <path class="cls-1" d="M54.29,262.83h1.36l6.89,9.92h0v-9.92h1.06v11.33H62.27l-6.9-9.92h0v9.92H54.29Z" transform="translate(0 -3.92)"/>
        <path class="cls-1" d="M70,269.94h4v.86H70Z" transform="translate(0 -3.92)"/>
        <path class="cls-1" d="M83,264.18h0l-2,1.68-.59-.74,2.8-2.29H84v11.33H83Z" transform="translate(0 -3.92)"/>
        <path class="cls-1" d="M89.84,267.82h0a1.89,1.89,0,0,1,.78-.36,3.72,3.72,0,0,1,.9-.12,3.35,3.35,0,0,1,1.39.28,3.43,3.43,0,0,1,1.11.74,3.28,3.28,0,0,1,.72,1.1,3.66,3.66,0,0,1,.25,1.37,3.49,3.49,0,0,1-.28,1.42,3.21,3.21,0,0,1-.77,1.11,3.73,3.73,0,0,1-1.18.73,4.34,4.34,0,0,1-3,0,3.84,3.84,0,0,1-1.18-.73,3.21,3.21,0,0,1-.77-1.11,3.49,3.49,0,0,1-.28-1.42,3.89,3.89,0,0,1,.09-.85,4.86,4.86,0,0,1,.26-.76c.11-.24.22-.46.34-.68s.23-.41.35-.6l3.07-5.11h1.22Zm1.47.36a2.75,2.75,0,0,0-1,.2,2.71,2.71,0,0,0-.84.57,2.65,2.65,0,0,0-.57.85,2.56,2.56,0,0,0-.21,1,2.85,2.85,0,0,0,.2,1.08,2.43,2.43,0,0,0,.54.84,2.5,2.5,0,0,0,.84.55,3.14,3.14,0,0,0,1.08.19,3.1,3.1,0,0,0,1.08-.19,2.32,2.32,0,0,0,.84-.55,2.17,2.17,0,0,0,.54-.84,2.85,2.85,0,0,0,.2-1.08,2.56,2.56,0,0,0-.21-1,2.65,2.65,0,0,0-1.42-1.42A2.74,2.74,0,0,0,91.31,268.18Z" transform="translate(0 -3.92)"/>
        <path class="cls-1" d="M100.7,266.77h1v1.29h0a2.34,2.34,0,0,1,.56-.66,3,3,0,0,1,.72-.46,3.38,3.38,0,0,1,.83-.28,5,5,0,0,1,.85-.08,4.2,4.2,0,0,1,1.56.28,3.65,3.65,0,0,1,2,2,4.2,4.2,0,0,1,.28,1.56,4.13,4.13,0,0,1-.28,1.56,3.92,3.92,0,0,1-.81,1.24,3.79,3.79,0,0,1-1.23.8,4,4,0,0,1-1.56.29,4.17,4.17,0,0,1-.85-.09,3.41,3.41,0,0,1-1.55-.73,2.25,2.25,0,0,1-.56-.67h0v4.95h-1Zm.87,3.69a2.93,2.93,0,0,0,.24,1.18,3.07,3.07,0,0,0,.65,1,3.29,3.29,0,0,0,1,.65,3.05,3.05,0,0,0,1.22.24,3,3,0,0,0,1.21-.24,2.94,2.94,0,0,0,.93-.65,2.6,2.6,0,0,0,.58-1,3.55,3.55,0,0,0,0-2.35,2.6,2.6,0,0,0-.58-1,2.94,2.94,0,0,0-.93-.65,3,3,0,0,0-1.21-.24,3.05,3.05,0,0,0-1.22.24,3.29,3.29,0,0,0-1,.65,3.07,3.07,0,0,0-.65,1A2.92,2.92,0,0,0,101.57,270.46Z" transform="translate(0 -3.92)"/>
        <path class="cls-1" d="M112.57,270.16l-2.63-3.39h1.23l2,2.8,2-2.8h1.2l-2.61,3.39,3.17,4h-1.25l-2.58-3.34-2.53,3.34H109.5Z" transform="translate(0 -3.92)"/>
      </g>
    </g>
  </g>
</svg>
