<svg fill="none" height="128" viewBox="0 0 563 128" width="563" xmlns="http://www.w3.org/2000/svg"><g fill="#fff"><path d="m3.36 44.24h-3.36l12.32-28.32h2.8l12.32 28.32h-3.36l-3.08-7.44h-14.52zm4.2-10.08h12.28l-6.12-14.88z"/><path d="m37.84 44.24h-3l-7.6-18.72h3.16l6 15.76h.08l6-15.76h3z"/><path d="m50.7199 35.6c.077.9119.3069 1.8043.68 2.64.7056 1.5999 1.9923 2.8724 3.6 3.56.8211.3523 1.7066.5295 2.6.52 1.2907.0251 2.5614-.322 3.66-1 .9388-.5609 1.7387-1.3266 2.34-2.24l2 1.68c-.977 1.2801-2.2455 2.3086-3.7 3-1.3636.6152-2.844.929-4.34.92-1.3229.0111-2.6349-.2404-3.86-.74-1.1522-.4662-2.1945-1.1679-3.06-2.06-.8598-.9027-1.5387-1.9618-2-3.12-.5-1.2459-.7514-2.5776-.74-3.92-.0132-1.3407.2312-2.6715.72-3.92.4563-1.1607 1.1358-2.2207 2-3.12.8508-.8821 1.8713-1.5828 3-2.06 1.1887-.4725 2.4614-.697 3.74-.66 1.3066-.0231 2.6028.2362 3.8.76 1.0674.4659 2.0273 1.1467 2.82 2 .7759.8728 1.3677 1.8931 1.74 3 .4054 1.1635.6084 2.3879.6 3.62v1.2zm12.72-2.16c.0578-.8097-.0605-1.6223-.3468-2.3819-.2862-.7596-.7336-1.4482-1.3114-2.0183-.5778-.5702-1.2722-1.0084-2.0355-1.2846s-1.5774-.3837-2.3863-.3152c-.8515.0016-1.6943.1715-2.48.5-.7753.3159-1.4868.77-2.1 1.34-.5913.5484-1.0791 1.1988-1.44 1.92-.3519.6944-.5368 1.4615-.54 2.24z"/><path d="m73.6399 25.52c0 .51.09 1 .1 1.5s0 1 0 1.5h.08c.3181-.537.716-1.0226 1.18-1.44.4572-.4306.9681-.8003 1.52-1.1.5619-.3114 1.1597-.5532 1.78-.72.5965-.1379 1.2081-.1984 1.82-.18 2.4 0 4.1734.6333 5.32 1.9 1.2358 1.5254 1.8501 3.4611 1.72 5.42v11.84h-2.64v-10.36c.1043-1.6702-.2704-3.3354-1.08-4.8-.72-1.11-2-1.66-4-1.66-.3762.0306-.7502.084-1.12.16-.7029.1487-1.365.4491-1.94.88-.7618.5735-1.384 1.3119-1.82 2.16-.594 1.2464-.8689 2.621-.8 4v9.6h-2.64v-14.58c0-.5067-.02-1.1467-.06-1.92 0-.77-.09-1.51-.14-2.2z"/><path d="m97.2001 18.32c.0075.26-.0423.5184-.146.757-.1037.2385-.2587.4512-.454.623-.3518.3469-.8259.5414-1.32.5414-.494 0-.9682-.1945-1.32-.5414-.1952-.1718-.3502-.3845-.4539-.623-.1037-.2386-.1536-.497-.1461-.757-.0026-.2631.0535-.5235.1642-.7622.1107-.2388.2733-.4498.4758-.6178.3518-.3469.826-.5413 1.32-.5413.4941 0 .9682.1944 1.32.5413.188.1755.3355.3899.4322.6283.0967.2383.1403.4948.1278.7517zm-.6 25.92h-2.6v-18.72h2.6z"/><path d="m103.24 31.36c0-.8333-.02-1.6733-.06-2.52 0-.85-.07-2-.1-3.32h2.6v3.48h.08c.195-.5224.465-1.0141.8-1.46.358-.4778.782-.9021 1.26-1.26.524-.3861 1.104-.6896 1.72-.9.715-.2385 1.466-.3535 2.22-.34.675-.0147 1.348.0661 2 .24l-.52 2.6c-.492-.1525-1.006-.2201-1.52-.2-.901-.0268-1.795.1726-2.6.58-.694.3668-1.306.8702-1.8 1.48-.466.5786-.825 1.2355-1.06 1.94-.22.6441-.335 1.3194-.34 2v10.56h-2.64z"/><path d="m128.32 15.92h8.44c1.143-.0027 2.283.118 3.4.36 1.039.2175 2.029.6242 2.92 1.2.834.5617 1.52 1.3164 2 2.2.538 1.036.8 2.1933.76 3.36.038 1.4429-.421 2.8549-1.3 4-.935 1.1511-2.244 1.9369-3.7 2.22v.08c1.78.0612 3.467.8146 4.7 2.1 1.188 1.3866 1.796 3.1769 1.7 5-.034.6777-.148 1.349-.34 2-.276.9668-.76 1.8612-1.42 2.62-.862.9728-1.927 1.7443-3.12 2.26-1.72.7224-3.576 1.0636-5.44 1h-8.64zm2.88 12.4h5.8c.695-.0021 1.387-.0894 2.06-.26.663-.1647 1.288-.4568 1.84-.86.553-.4107 1.01-.936 1.34-1.54.368-.7094.547-1.5015.52-2.3-.017-.4185-.077-.834-.18-1.24-.147-.5852-.42-1.1312-.8-1.6-.481-.5894-1.089-1.0614-1.78-1.38-1.024-.4312-2.13-.6293-3.24-.58h-5.56zm0 13.28h5.52c.982.0045 1.962-.1029 2.92-.32.84-.1895 1.64-.5282 2.36-1 .65-.421 1.192-.9898 1.58-1.66.404-.7339.605-1.5626.58-2.4.059-.7873-.074-1.5771-.388-2.3017-.313-.7246-.798-1.3622-1.412-1.8583-1.567-1.0114-3.419-1.4885-5.28-1.36h-5.88z"/><path d="m171.48 34.88c.011 1.3424-.24 2.6741-.74 3.92-.474 1.1658-1.174 2.2262-2.06 3.12-.897.8918-1.965 1.5925-3.14 2.06-1.274.5004-2.632.7517-4 .74-1.369.0159-2.727-.2354-4-.74-1.176-.4652-2.245-1.1663-3.14-2.06-.889-.8912-1.59-1.9523-2.06-3.12-.987-2.5201-.987-5.3198 0-7.84.47-1.1677 1.171-2.2288 2.06-3.12.895-.8937 1.964-1.5947 3.14-2.06 1.273-.5045 2.631-.7559 4-.74 1.368-.0116 2.726.2396 4 .74 1.175.4675 2.243 1.1683 3.14 2.06.886.8938 1.586 1.9542 2.06 3.12.5 1.2459.751 2.5776.74 3.92zm-2.88 0c.006-.9951-.163-1.9835-.5-2.92-.317-.8708-.799-1.6722-1.42-2.36-.626-.6708-1.381-1.2083-2.22-1.58-1.884-.7735-3.996-.7735-5.88 0-.837.3642-1.587.9029-2.2 1.58-.615.6888-1.09 1.4902-1.4 2.36-.666 1.8897-.666 3.9504 0 5.84.31.8698.785 1.6713 1.4 2.36.613.6771 1.363 1.2158 2.2 1.58 1.884.7735 3.996.7735 5.88 0 .839-.3717 1.594-.9091 2.22-1.58.621-.6878 1.103-1.4892 1.42-2.36.337-.9365.506-1.9249.5-2.92z"/><path d="m195.2 34.88c.011 1.3424-.24 2.6741-.74 3.92-.474 1.1658-1.174 2.2262-2.06 3.12-.897.8918-1.965 1.5925-3.14 2.06-1.274.5004-2.632.7517-4 .74-1.369.0159-2.727-.2354-4-.74-1.176-.4652-2.245-1.1663-3.14-2.06-.889-.8912-1.59-1.9523-2.06-3.12-.987-2.5201-.987-5.3198 0-7.84.47-1.1677 1.171-2.2288 2.06-3.12.895-.8937 1.964-1.5947 3.14-2.06 1.273-.5045 2.631-.7559 4-.74 1.368-.0116 2.726.2396 4 .74 1.175.4675 2.243 1.1683 3.14 2.06.886.8938 1.586 1.9542 2.06 3.12.5 1.2459.751 2.5776.74 3.92zm-2.88 0c.006-.9951-.163-1.9835-.5-2.92-.317-.8708-.799-1.6722-1.42-2.36-.626-.6708-1.381-1.2083-2.22-1.58-1.884-.7735-3.996-.7735-5.88 0-.837.3642-1.587.9029-2.2 1.58-.615.6888-1.09 1.4902-1.4 2.36-.666 1.8897-.666 3.9504 0 5.84.31.8698.785 1.6713 1.4 2.36.613.6771 1.363 1.2158 2.2 1.58 1.884.7735 3.996.7735 5.88 0 .839-.3717 1.594-.9091 2.22-1.58.621-.6878 1.103-1.4892 1.42-2.36.337-.9365.506-1.9249.5-2.92z"/><path d="m202.64 33.96 8.84-8.44h4l-9.36 8.56 10.32 10.16h-4.08l-9.72-9.84v9.84h-2.64v-30.24h2.64z"/><path d="m12.56 76.6407h2.72l11.92 28.3203h-3l-3.08-7.5203h-15.00005l-3.12 7.5203h-2.799999zm1.24 2.88-6.60005 15.52h13.00005z"/><path d="m27.28 86.4807h2.72l6.16 15.8803 6-15.8803h2.44l-7.28 18.4803h-2.48z"/><path d="m64.7201 101.481c-.8403 1.312-2.0418 2.354-3.46 3-1.4314.623-2.9787.937-4.54.92-1.3152.018-2.6207-.227-3.84-.72-1.1299-.448-2.1523-1.129-3-2-.8299-.881-1.4698-1.922-1.88-3.0603-.4529-1.2636-.6764-2.5979-.66-3.94-.0239-1.3232.2-2.6392.66-3.88.4606-1.123 1.1406-2.1429 2-3 .8303-.8546 1.8231-1.5346 2.92-2 1.175-.503 2.442-.755 3.72-.74 1.2852-.0233 2.5605.2291 3.74.74 1.0363.4695 1.9629 1.1508 2.72 2 .7313.8081 1.2955 1.7529 1.66 2.78.3672 1.0132.5567 2.0823.56 3.16v1.68h-15.56c.0221.6563.1228 1.3076.3 1.94.236.8819.6436 1.7083 1.1996 2.4323.5559.725 1.2493 1.332 2.0404 1.788 1.0606.572 2.2558.849 3.46.8 1.2403-.002 2.4618-.304 3.56-.88 1.1173-.556 2.0486-1.424 2.68-2.5zm-1.84-7.3203c.0045-.8006-.1662-1.5924-.5-2.32-.6782-1.4652-1.8964-2.6117-3.4-3.2-.7941-.3212-1.6434-.4843-2.5-.48-1.1398-.0408-2.2685.2362-3.26.8-1.4662.8703-2.5781 2.2302-3.14 3.84-.1626.4314-.2701.8816-.32 1.34z"/><path d="m70.6401 91.6807c0-.35 0-.77 0-1.26s0-1-.06-1.5 0-1-.06-1.42 0-.78 0-1h2.4c0 .69 0 1.36.06 2-.0076.4156.0259.8309.1 1.24h.12c.5402-1.0799 1.3715-1.9874 2.4-2.62 1.1688-.747 2.5332-1.1299 3.92-1.1 1.2098-.0447 2.4138.1879 3.52.68.8508.4052 1.5866 1.0172 2.14 1.78.5331.7621.901 1.6273 1.08 2.54.204.9868.3045 1.9923.3 3v11.0003h-2.4v-10.9403c-.0001-.7313-.0671-1.461-.2-2.18-.1191-.6698-.3561-1.3131-.7-1.9-.3358-.566-.8199-1.0293-1.4-1.34-.7257-.3603-1.5304-.5323-2.34-.5-.8549-.0059-1.7032.1502-2.5.46-.766.3056-1.4507.7848-2 1.4-.6083.6865-1.071 1.4894-1.36 2.36-.3519 1.0776-.5209 2.2065-.5 3.34v9.2403h-2.4z"/><path d="m92.68 79.1608c.0052-.4109.1524-.8073.4166-1.122.2642-.3148.6292-.5283 1.033-.6046.4038-.0762.8215-.0104 1.1823.1863s.6424.5122.797.8929c.1547.3807.1729.8032.0515 1.1957-.1214.3926-.3749.7311-.7174.9581-.3426.2269-.7531.3284-1.1619.2871-.4089-.0412-.7908-.2227-1.0811-.5135-.17-.1662-.3039-.3656-.3933-.5859-.0895-.2202-.1326-.4565-.1267-.6941zm.6 7.32h2.4v18.4802h-2.4z"/><path d="m102.48 91.6807c0-.35 0-.7701 0-1.2601s0-1-.06-1.5 0-1-.06-1.42 0-.78 0-1h2.4c0 .69 0 1.36.06 2-.008.4157.026.831.1 1.24.579-1.0566 1.385-1.9718 2.36-2.68 1.037-.6998 2.27-1.0502 3.52-1 .235-.0005.469.0196.7.06l.7.14-.28 2.36c-.296-.1039-.607-.1579-.92-.16-.925-.0203-1.844.1499-2.7.5-.727.3054-1.371.7783-1.88 1.3801-.502.6054-.876 1.3061-1.1 2.0599-.246.8241-.367 1.6802-.36 2.54v10.0204h-2.4z"/><path d="m126.88 76.6407h2.64v25.9203h13.2v2.4h-15.84z"/><path d="m146 79.1608c.005-.4109.152-.8073.417-1.122.264-.3148.629-.5283 1.033-.6046.403-.0762.821-.0104 1.182.1863s.642.5122.797.8929.173.8032.051 1.1957c-.121.3926-.374.7311-.717.9581-.342.2269-.753.3284-1.162.2871-.409-.0412-.791-.2227-1.081-.5135-.17-.1662-.304-.3656-.393-.5859-.09-.2202-.133-.4565-.127-.6941zm.6 7.32h2.4v18.4802h-2.4z"/><path d="m174.36 103.801c.071 1.903-.27 3.8-1 5.56-.562 1.275-1.419 2.4-2.5 3.28-.948.746-2.047 1.278-3.22 1.56-1.021.252-2.068.386-3.12.4-.919-.001-1.837-.088-2.74-.26-.87-.167-1.721-.422-2.54-.76-.774-.316-1.506-.726-2.18-1.22-.637-.468-1.209-1.02-1.7-1.64l1.88-1.76c.802 1.159 1.91 2.073 3.2 2.64 1.287.561 2.676.847 4.08.84 1.054.028 2.104-.135 3.1-.48.77-.278 1.477-.707 2.08-1.26.538-.502.978-1.099 1.3-1.76.297-.599.525-1.23.68-1.88.14-.585.227-1.18.26-1.78 0-.56 0-1 0-1.36v-2.56h-.08c-.687 1.116-1.661 2.028-2.82 2.64-1.288.678-2.725 1.022-4.18 1-1.316.007-2.621-.245-3.84-.74-1.166-.458-2.233-1.137-3.14-2-.888-.859-1.607-1.876-2.12-3.0003-.514-1.1587-.78-2.4123-.78-3.68s.266-2.5214.78-3.68c.506-1.1278 1.226-2.1467 2.12-3 .904-.8842 1.961-1.5959 3.12-2.1 1.215-.5114 2.522-.77 3.84-.76 1.455-.022 2.892.3219 4.18 1 1.16.6116 2.133 1.5233 2.82 2.64h.16v-3.2h2.4zm-2.36-8.3203c.008-.9833-.19-1.9574-.58-2.86-.737-1.7505-2.129-3.1432-3.88-3.88-.905-.3829-1.877-.5802-2.86-.5802-.982 0-1.955.1973-2.86.5802-1.728.7496-3.097 2.1406-3.82 3.88-.383.9049-.58 1.8774-.58 2.86 0 .9825.197 1.9551.58 2.86.737 1.7503 2.13 3.1433 3.88 3.8803.905.383 1.878.58 2.86.58.983 0 1.955-.197 2.86-.58 1.751-.737 3.143-2.13 3.88-3.8803.37-.9071.547-1.881.52-2.86z"/><path d="m180.24 74.7207h2.4v15h.08c.54-1.0799 1.371-1.9873 2.4-2.62 1.157-.7394 2.507-1.1219 3.88-1.1 1.21-.0446 2.414.1879 3.52.68.849.4081 1.584 1.0195 2.14 1.78.533.7621.901 1.6273 1.08 2.54.204.9869.304 1.9923.3 3v11.0003h-2.4v-10.9203c0-.7312-.067-1.4609-.2-2.18-.119-.6698-.356-1.3131-.7-1.9-.339-.5637-.822-1.0264-1.4-1.34-.726-.3603-1.53-.5322-2.34-.5-.855-.0069-1.703.1493-2.5.46-.766.3057-1.451.7849-2 1.4-.608.6866-1.071 1.4894-1.36 2.36-.352 1.0776-.521 2.2066-.5 3.34v9.2403h-2.4z"/><path d="m211.52 88.6406h-5.28v12.0004c-.022.349.027.699.144 1.029s.299.633.536.891c.251.234.548.415.871.532.323.116.666.167 1.009.148.466-.002.929-.063 1.38-.18.459-.116.907-.27 1.34-.46l.2 2.16c-.511.177-1.032.324-1.56.44-.511.122-1.034.189-1.56.2-.751.017-1.498-.112-2.2-.38-.566-.21-1.074-.553-1.48-1-.377-.436-.656-.948-.82-1.5-.176-.604-.264-1.231-.26-1.86v-12.0004h-4v-2.18h4v-5.32h2.4v5.32h5.28z"/><path d="m277 1.92004h3.84v11.76006h14.68v-11.76006h3.84v28.32006h-3.84v-13h-14.68v13h-3.84z"/><path d="m308.44 22.08c-.01.7865.175 1.5631.54 2.26.339.6666.808 1.2583 1.38 1.74.597.4851 1.274.864 2 1.12.771.2685 1.583.4038 2.4.4 1.028.0244 2.041-.2463 2.92-.78.868-.5562 1.639-1.2523 2.28-2.06l2.72 2.08c-.984 1.2755-2.262 2.2944-3.724 2.97-1.463.6755-3.067.9877-4.676.91-1.391.0212-2.771-.2372-4.06-.76-1.162-.4774-2.211-1.1927-3.08-2.1-.853-.9118-1.513-1.9866-1.94-3.16-.46-1.2621-.691-2.5966-.68-3.94-.011-1.3488.241-2.6869.74-3.94.454-1.1735 1.134-2.247 2-3.16.883-.9 1.937-1.614 3.1-2.1 1.242-.5161 2.575-.7747 3.92-.76 1.469-.0468 2.929.2548 4.26.88 1.11.5479 2.087 1.3331 2.86 2.3.749.9472 1.3 2.0355 1.62 3.2.33 1.1783.499 2.3962.5 3.62v1.28zm11.36-2.88c-.018-.748-.146-1.4893-.38-2.2-.209-.643-.55-1.2355-1-1.74-.474-.5073-1.055-.9034-1.7-1.16-.752-.2919-1.554-.4346-2.36-.42-.833-.0085-1.659.162-2.42.5-1.352.6128-2.423 1.7125-3 3.08-.272.6111-.415 1.2714-.42 1.94z"/><path d="m328.04 13.6c1.018-.9328 2.216-1.6474 3.52-2.1 1.284-.4589 2.636-.6956 4-.7 1.214-.028 2.424.1478 3.58.52.907.2943 1.744.7707 2.46 1.4.615.5533 1.1 1.2364 1.42 2 .308.7556.464 1.5642.46 2.38v9.68 1.84c0 .56.07 1.09.12 1.6h-3.2c-.08-.96-.12-1.92-.12-2.88h-.08c-.682 1.1179-1.667 2.0195-2.84 2.6-1.196.5297-2.493.7892-3.8.76-.853.0039-1.702-.1174-2.52-.36-.763-.221-1.476-.5877-2.1-1.08-.6-.4802-1.085-1.0883-1.42-1.78-.361-.7688-.539-1.6108-.52-2.46-.04-1.0855.245-2.1582.82-3.08.571-.8407 1.34-1.5276 2.24-2 1.039-.5499 2.16-.9281 3.32-1.12 1.34-.2345 2.699-.3483 4.06-.34h2.64v-.8c-.001-.4934-.096-.9822-.28-1.44-.193-.4839-.478-.9255-.84-1.3-.397-.402-.874-.7156-1.4-.92-.639-.2418-1.318-.3572-2-.34-.613-.0073-1.224.0599-1.82.2-.488.121-.964.2885-1.42.5-.412.1893-.801.4241-1.16.7l-1 .76zm10.16 7.48c-.875.0028-1.75.0496-2.62.14-.833.0765-1.653.258-2.44.54-.676.2345-1.291.6172-1.8 1.12-.235.2437-.418.5323-.538.8485s-.176.6535-.162.9915c-.038.4551.043.9124.236 1.3263.193.414.491.7703.864 1.0337.908.5272 1.951.7775 3 .72.867.0238 1.728-.147 2.52-.5.65-.3024 1.224-.7466 1.68-1.3.423-.5252.736-1.1307.92-1.78.185-.63.279-1.2833.28-1.94v-1.2z"/><path d="m367.72 30.24h-3.6v-2.72h-.08c-.72 1.0336-1.709 1.8499-2.86 2.36-1.17.5508-2.447.8376-3.74.84-1.372.0237-2.733-.235-4-.76-1.139-.4867-2.161-1.2092-3-2.12-.847-.9166-1.506-1.9901-1.94-3.16-.461-1.255-.692-2.583-.68-3.92-.011-1.3434.219-2.6779.68-3.94.427-1.1733 1.087-2.2482 1.94-3.16.845-.8982 1.866-1.613 3-2.1 1.267-.525 2.628-.7837 4-.76 1.328-.0055 2.641.2885 3.84.86 1.122.504 2.079 1.3152 2.76 2.34h.08v-14h3.6zm-9.84-2.88c.891.0121 1.776-.1581 2.6-.5.755-.3061 1.437-.7698 2-1.36.55-.6019.972-1.3096 1.24-2.08.586-1.7248.586-3.5952 0-5.32-.268-.7704-.69-1.4781-1.24-2.08-.563-.5902-1.245-1.0539-2-1.36-1.669-.6677-3.531-.6677-5.2 0-.756.3061-1.438.7698-2 1.36-.534.5995-.942 1.3-1.2 2.06-.587 1.7248-.587 3.5952 0 5.32.277.7809.713 1.4959 1.28 2.1.562.5902 1.244 1.0539 2 1.36.799.3314 1.655.5013 2.52.5z"/><path d="m372.6 4.47999c-.005-.61626.204-1.21516.591-1.69439.388-.47922.93-.80902 1.533-.93307.604-.12404 1.232-.03461 1.777.253.545.2876.973.75554 1.212 1.32388.238.56833.272 1.20179.095 1.79214-.177.59036-.554 1.10098-1.065 1.44463-.512.34365-1.127.49899-1.74.4395-.614-.05949-1.187-.33014-1.623-.76569-.25-.24034-.449-.52936-.583-.84926-.134-.31989-.201-.66388-.197-1.01074zm.84 6.80001h3.6v19h-3.6z"/><path d="m382.76 11.28h3.6v2.92h.08c.496-1.0567 1.325-1.9211 2.36-2.46 1.19-.6459 2.527-.9699 3.88-.94.891-.0028 1.775.139 2.62.42.82.2671 1.571.7109 2.2 1.3.661.6336 1.173 1.4053 1.5 2.26.393 1.041.583 2.1476.56 3.26v12.2h-3.6v-11.16c.018-.7689-.104-1.5347-.36-2.26-.216-.5747-.558-1.094-1-1.52-.388-.3832-.861-.6708-1.38-.84-.523-.1722-1.069-.26-1.62-.26-.709-.0069-1.414.1151-2.08.36-.642.2415-1.218.6322-1.68 1.14-.511.5794-.893 1.2612-1.12 2-.285.9189-.42 1.878-.4 2.84v9.76h-3.6z"/><path d="m424 30.0799c.015 1.3493-.236 2.6883-.74 3.9401-.474 1.1636-1.19 2.2134-2.1 3.08-.946.883-2.062 1.5636-3.28 2-1.358.4933-2.795.7372-4.24.72-1.697.0224-3.386-.2343-5-.7601-1.603-.5675-3.069-1.4671-4.3-2.64l2.44-3c.845.9505 1.863 1.7311 3 2.3 1.166.5362 2.437.8028 3.72.78 1.135.0378 2.265-.1597 3.32-.58.804-.3353 1.522-.8481 2.1-1.5.52-.6079.897-1.3259 1.1-2.0999.21-.776.318-1.5762.32-2.3801v-2.86h-.12c-.657 1.1165-1.641 2.0034-2.82 2.54-1.171.5449-2.448.8249-3.74.82-1.323.0111-2.635-.2404-3.86-.74-1.146-.4503-2.188-1.131-3.06-2-.863-.8847-1.543-1.9314-2-3.08-.488-1.2279-.732-2.5388-.72-3.86-.009-1.3302.221-2.6512.68-3.9.432-1.177 1.091-2.2576 1.94-3.1799.839-.9108 1.861-1.6334 3-2.1201 1.267-.5249 2.629-.7836 4-.76 1.293.0025 2.57.2893 3.74.84 1.151.5101 2.141 1.3265 2.86 2.36h.12v-2.72h3.6zm-9.84-15.9199c-.892-.0121-1.776.158-2.6.5-.756.3061-1.438.7697-2 1.36-.534.5994-.942 1.2999-1.2 2.0599-.299.8547-.448 1.7546-.44 2.6601-.04.8429.088 1.6854.376 2.4785.289.7932.732 1.521 1.304 2.1414 1.255 1.1197 2.878 1.7384 4.56 1.7384s3.305-.6187 4.56-1.7384c.572-.6204 1.015-1.3482 1.304-2.1414.288-.7931.416-1.6356.376-2.4785.008-.9055-.141-1.8054-.44-2.6601-.268-.7704-.69-1.4781-1.24-2.08-.563-.5902-1.244-1.0538-2-1.36-.813-.3297-1.683-.4929-2.56-.4799z"/><path d="m449.08 22.24h-9.84v-3.36h9.84z"/><path d="m475.04 24h-12.08v-3.92l11.28-18.15996h4.64v18.71996h4v3.36h-4v6.2401h-3.84zm0-17.51996h-.08l-8.6 14.15996h8.72z"/><path d="m485.2 16.08c0-1 0-2.12.16-3.24.107-1.1135.301-2.2168.58-3.30003.274-1.06655.649-2.10458 1.12-3.1.447-.95717 1.056-1.82998 1.8-2.58.749-.74376 1.631-1.34071 2.6-1.76001 2.25-.88003 4.75-.88003 7 0 .969.4193 1.851 1.01625 2.6 1.76001.744.75002 1.353 1.62283 1.8 2.58.471.99542.846 2.03345 1.12 3.1.279 1.08323.473 2.18653.58 3.30003.11 1.12.16 2.2.16 3.24-.008 1.6079-.142 3.2128-.4 4.8-.251 1.652-.75 3.2567-1.48 4.76-.696 1.4352-1.724 2.6832-3 3.64-1.462.9397-3.163 1.4394-4.9 1.4394-1.738 0-3.439-.4997-4.9-1.4394-1.276-.9568-2.305-2.2048-3-3.64-.73-1.5033-1.229-3.108-1.48-4.76-.245-1.5882-.365-3.1931-.36-4.8zm3.84 0c0 .93.06 2 .18 3.32.116 1.2593.378 2.501.78 3.7.365 1.1187.973 2.1431 1.78 3 .867.7969 2.002 1.2391 3.18 1.2391s2.313-.4422 3.18-1.2391c.804-.8593 1.411-1.8829 1.78-3 .402-1.199.664-2.4407.78-3.7.12-1.28.18-2.39.18-3.32 0-.64 0-1.37-.06-2.18-.041-.8318-.134-1.6601-.28-2.48-.144-.828-.351-1.64374-.62-2.44004-.252-.75316-.608-1.46691-1.06-2.11999-.422-.61447-.975-1.12696-1.62-1.5-.704-.36799-1.486-.56018-2.28-.56018s-1.576.19219-2.28.56018c-.645.37304-1.199.88553-1.62 1.5-.456.65079-.813 1.36512-1.06 2.11999-.269.7963-.476 1.61204-.62 2.44004-.146.8199-.24 1.6482-.28 2.48-.04.81-.06 1.54-.06 2.18z"/><path d="m519.92 11.2799h3.6v2.72h.08c.719-1.0335 1.709-1.8499 2.86-2.36 1.17-.5507 2.447-.8375 3.74-.84 1.371-.0236 2.733.2351 4 .76 1.139.4867 2.161 1.2093 3 2.1201.849.9223 1.508 2.0029 1.94 3.1799.458 1.2488.689 2.5698.68 3.9.011 1.3435-.22 2.6779-.68 3.94-.427 1.1734-1.087 2.2483-1.94 3.16-.846.8982-1.867 1.613-3 2.1001-1.267.5249-2.629.7836-4 .7599-1.328.0055-2.641-.2884-3.84-.86-1.122-.5039-2.079-1.3152-2.76-2.3399h-.08v14h-3.6zm9.84 2.8801c-.892-.0121-1.776.158-2.6.5-.756.3061-1.438.7697-2 1.36-.534.5994-.942 1.2999-1.2 2.0599-.587 1.7249-.587 3.5952 0 5.3201.268.7704.69 1.4781 1.24 2.0799.562.5903 1.244 1.0539 2 1.36 1.669.6677 3.531.6677 5.2 0 .756-.3061 1.437-.7697 2-1.36.55-.6018.972-1.3095 1.24-2.0799.587-1.7249.587-3.5952 0-5.3201-.268-.7704-.69-1.4781-1.24-2.08-.563-.5902-1.244-1.0538-2-1.36-.838-.3404-1.736-.5038-2.64-.4799z"/><path d="m549.56 20.08-6.72-8.84h4.64l4.6 6.72 4.52-6.72h4.36l-6.48 8.84 7.68 10.12h-4.64l-5.6-8-5.6 8h-4.44z"/><path d="m275.86 66.1299c.39.6028.941 1.0844 1.59 1.39.628.2862 1.31.4361 2 .44.397-.0025.791-.0632 1.17-.18.395-.1165.766-.2991 1.1-.54.324-.2399.596-.5426.8-.89.213-.3705.321-.7926.31-1.22.018-.2808-.028-.562-.136-.822-.107-.2601-.273-.492-.484-.678-.466-.3695-.99-.66-1.55-.86-.62-.24-1.29-.46-2-.68-.706-.2039-1.379-.5069-2-.9-.624-.3928-1.153-.9187-1.55-1.54-.454-.7994-.669-1.7121-.62-2.63.006-.5454.114-1.0849.32-1.59.224-.5736.565-1.0945 1-1.53.516-.501 1.124-.8981 1.79-1.17.837-.3285 1.731-.4849 2.63-.46.901-.0064 1.797.1217 2.66.38.9.2726 1.695.8133 2.28 1.55l-1.87 1.7c-.31-.4563-.729-.8276-1.22-1.08-.56-.2749-1.177-.4121-1.8-.4-.544-.018-1.087.0668-1.6.25-.375.1448-.715.3662-1 .65-.246.2359-.431.5274-.54.85-.098.2697-.152.5533-.16.84-.02.3042.025.6093.134.8941s.278.5427.496.7559c.45.4118.977.7312 1.55.94.653.2563 1.321.4734 2 .65.697.1835 1.369.4522 2 .8.61.347 1.139.821 1.55 1.39.449.7244.665 1.5689.62 2.42.01.7593-.151 1.5111-.47 2.2-.295.6381-.725 1.2045-1.26 1.66-.553.4502-1.188.7897-1.87 1-.742.2433-1.519.3649-2.3.36-1.06.0052-2.111-.1882-3.1-.57-.933-.3545-1.743-.973-2.33-1.78z"/><path d="m298.23 69.68h-2.16v-1.75c-.296.6347-.796 1.1521-1.42 1.47-.713.3905-1.517.587-2.33.57-.536-.0002-1.069-.0846-1.58-.25-.487-.1643-.933-.4302-1.31-.78-.39-.3867-.696-.8497-.9-1.36-.238-.639-.351-1.3182-.33-2v-7.32h2.16v6.72c-.01.4622.061.9226.21 1.36.125.342.323.6525.58.91.236.2294.519.4036.83.51.323.1041.661.1547 1 .15.426.0036.849-.0674 1.25-.21.382-.1495.725-.3857 1-.69.31-.3431.542-.749.68-1.19.171-.5501.252-1.1241.24-1.7v-5.86h2.16z"/><path d="m301.49 51.5199h2.16v8.4h.05c.407-.6133.979-1.0988 1.65-1.4.722-.3406 1.512-.5148 2.31-.51.819-.0111 1.632.1419 2.39.45.686.2921 1.305.7208 1.82 1.26.509.5501.903 1.196 1.16 1.9.282.7545.421 1.5547.41 2.36.012.8021-.127 1.5992-.41 2.35-.259.7028-.653 1.3483-1.16 1.9-.507.5557-1.128.9956-1.82 1.29-.757.315-1.57.4716-2.39.46-.778-.0017-1.547-.1759-2.25-.51-.691-.2996-1.284-.7883-1.71-1.41h-.05v1.63h-2.16zm5.9 16.41c.535.0087 1.066-.0935 1.56-.3.446-.1843.848-.4603 1.18-.81.33-.3612.582-.7868.74-1.25.185-.5131.276-1.0549.27-1.6.006-.5419-.086-1.0804-.27-1.59-.155-.4643-.407-.8904-.74-1.25-.329-.356-.731-.6358-1.18-.82-.494-.2065-1.025-.3087-1.56-.3-.535-.007-1.066.0951-1.56.3-.444.1871-.842.4667-1.17.82-.332.3617-.587.7869-.75 1.25-.176.5115-.264 1.0491-.26 1.59-.004.5442.084 1.0851.26 1.6.165.4621.42.8869.75 1.25.331.3473.729.623 1.17.81.493.2117 1.024.3206 1.56.32z"/><path d="m323.38 52.6899h2.3v7.05h8.81v-7.05h2.3v17h-2.3v-7.78h-8.81v7.78h-2.3z"/><path d="m342.24 64.78c-.006.4739.108.9416.33 1.36.211.3886.501.7292.85 1 .363.2979.776.5282 1.22.68.464.1589.95.24 1.44.24.617.0141 1.224-.149 1.75-.47.51-.3236.963-.729 1.34-1.2l1.63 1.25c-.586.76-1.346 1.3682-2.216 1.7737-.87.4054-1.825.5962-2.784.5563-.833.0125-1.659-.144-2.43-.46-.701-.2793-1.333-.7094-1.85-1.26-.509-.5464-.903-1.189-1.16-1.89-.281-.758-.42-1.5615-.41-2.37-.005-.8076.144-1.6087.44-2.36.286-.7056.703-1.3504 1.23-1.9.533-.5188 1.161-.9297 1.85-1.21.745-.3062 1.545-.4593 2.35-.45.879-.0293 1.753.1488 2.55.52.665.3328 1.251.8032 1.72 1.38.459.5665.799 1.2195 1 1.92.199.7096.3 1.4431.3 2.18v.76zm6.82-1.72c-.011-.4489-.088-.8937-.23-1.32-.131-.3873-.338-.7444-.61-1.05-.277-.3017-.619-.5374-1-.69-.455-.1798-.941-.2682-1.43-.26-.499-.0061-.994.0962-1.45.3-.419.1866-.799.4513-1.12.78-.296.3134-.536.6754-.71 1.07-.159.3699-.244.7674-.25 1.17z"/><path d="m354 59.7c.609-.5611 1.327-.9901 2.11-1.26.77-.2749 1.582-.417 2.4-.42.729-.0178 1.456.087 2.15.31.544.1789 1.047.4644 1.48.84.372.3327.663.7467.85 1.21.183.4546.278.9399.28 1.43v5.81 1.1c0 .34 0 .66.07 1h-1.9c0-.58-.07-1.15-.07-1.73-.406.6717-.996 1.213-1.7 1.56-.717.32-1.496.4771-2.28.46-.512.0044-1.021-.0698-1.51-.22-.459-.1307-.888-.3517-1.26-.65-.363-.2843-.657-.6466-.86-1.06-.211-.4644-.317-.9698-.31-1.48-.02-.6512.15-1.2941.49-1.85.328-.5081.774-.93 1.3-1.23.625-.3326 1.301-.559 2-.67.805-.1441 1.622-.2144 2.44-.21h1.58v-.48c-.004-.2946-.062-.5859-.17-.86-.112-.2911-.283-.5564-.5-.78-.239-.2393-.525-.4266-.84-.55-.383-.1477-.79-.219-1.2-.21-.367-.0059-.733.0344-1.09.12-.296.0726-.584.173-.86.3-.244.1164-.475.2571-.69.42l-.6.46zm6.1 4.51c-.51 0-1 0-1.57.08-.502.0513-.995.1621-1.47.33-.407.1376-.776.3668-1.08.67-.14.1459-.25.3184-.322.5074-.072.1889-.105.3905-.098.5926-.024.2738.024.549.14.7982.116.2491.295.4636.52.6218.542.3139 1.164.4633 1.79.43.519.0154 1.036-.0872 1.51-.3.388-.1816.729-.4482 1-.78.254-.3159.441-.6798.55-1.07.109-.377.167-.7674.17-1.16v-.72z"/><path d="m377.81 69.6799h-2.16v-1.63c-.426.6217-1.019 1.1104-1.71 1.41-.703.3341-1.472.5083-2.25.51-.82.0115-1.633-.145-2.39-.46-.691-.2885-1.311-.7216-1.82-1.27-.507-.5517-.901-1.1971-1.16-1.9-.283-.7508-.422-1.5479-.41-2.35-.011-.8053.128-1.6055.41-2.36.257-.704.651-1.3499 1.16-1.9.505-.5157 1.106-.9269 1.77-1.21.758-.3081 1.571-.4611 2.39-.45.798-.0048 1.588.1694 2.31.51.672.3039 1.245.793 1.65 1.41v-8.47h2.16zm-5.9-1.73c.535.0069 1.066-.0951 1.56-.3.441-.187.839-.4627 1.17-.81.33-.3631.585-.7879.75-1.25.176-.5149.264-1.0558.26-1.6.004-.5409-.084-1.0785-.26-1.59-.163-.4631-.418-.8883-.75-1.25-.327-.3533-.726-.6329-1.17-.82-.494-.2049-1.025-.307-1.56-.3-.535-.0087-1.066.0935-1.56.3-.448.1842-.851.4641-1.18.82-.332.3596-.585.7857-.74 1.25-.184.5096-.276 1.0481-.27 1.59-.006.5451.086 1.0869.27 1.6.158.4632.41.8888.74 1.25.332.3497.734.6257 1.18.81.494.2065 1.025.3087 1.56.3z"/><path d="m380.74 54.2199c-.004-.2076.036-.4137.117-.605.081-.1912.201-.3633.353-.505.143-.1498.316-.2689.507-.3497.19-.0808.396-.1217.603-.1203.209-.0016.416.0392.608.12.193.0808.367.1999.512.35.149.1453.267.3188.347.5103.081.1914.122.397.122.6047 0 .2078-.041.4134-.122.6048-.08.1915-.198.365-.347.5103-.145.1501-.319.2692-.512.35-.192.0808-.399.1216-.608.1199-.207.0015-.413-.0394-.603-.1202-.191-.0808-.364-.1999-.507-.3497-.152-.1433-.273-.317-.354-.51s-.121-.4008-.116-.6101zm.5 4.08h2.16v11.3801h-2.16z"/><path d="m386.83 58.3h2.16v1.76h.05c.299-.6354.797-1.1553 1.42-1.48.714-.387 1.518-.5801 2.33-.56.533-.0025 1.064.0819 1.57.25.49.1641.94.4299 1.32.78.391.3817.698.8417.9 1.35.237.6394.349 1.3183.33 2v7.32h-2.16v-6.72c.01-.4622-.061-.9226-.21-1.36-.127-.3407-.325-.6508-.58-.91-.234-.2297-.518-.401-.83-.5-.321-.1124-.66-.1666-1-.16-.427-.0053-.851.0693-1.25.22-.384.1418-.727.3752-1 .68-.31.3431-.542.749-.68 1.19-.17.5503-.251 1.1241-.24 1.7v5.86h-2.16z"/><path d="m411.58 69.5799c.012.8124-.141 1.6186-.45 2.37-.282.7001-.712 1.3311-1.26 1.85-.577.5363-1.257.9482-2 1.21-.817.2965-1.681.4422-2.55.43-1.019.014-2.032-.1414-3-.46-.962-.3391-1.841-.8775-2.58-1.58l1.47-1.82c.518.5669 1.134 1.0346 1.82 1.38.7.3172 1.462.4743 2.23.46.683.0229 1.363-.0928 2-.34.478-.2096.907-.516 1.26-.9.309-.3672.534-.7971.66-1.26.122-.467.186-.9473.19-1.43v-1.68h-.07c-.4.6671-.993 1.1972-1.7 1.52-.702.3261-1.466.4934-2.24.49-.795.0085-1.583-.1411-2.32-.44-.685-.2802-1.308-.6951-1.83-1.22-.517-.5323-.925-1.1608-1.2-1.85-.293-.7379-.439-1.526-.43-2.32-.007-.7976.128-1.59.4-2.34.263-.7064.66-1.3551 1.17-1.91.512-.5454 1.132-.978 1.82-1.27.758-.3089 1.571-.4619 2.39-.45.775-.0026 1.54.1683 2.24.5.692.308 1.287.799 1.72 1.42h.05v-1.64h2.16zm-5.91-9.55c-.535-.0069-1.066.0952-1.56.3-.444.1871-.843.4667-1.17.82-.332.3617-.587.7869-.75 1.25-.176.5115-.264 1.0491-.26 1.59-.025.505.051 1.0098.222 1.4853.172.4755.436.9122.778 1.2847.751.6754 1.725 1.049 2.735 1.049s1.984-.3736 2.735-1.049c.342-.3725.606-.8092.778-1.2847.171-.4755.247-.9803.222-1.4853.006-.5418-.086-1.0803-.27-1.59-.155-.4643-.408-.8903-.74-1.25-.329-.3559-.732-.6358-1.18-.82-.488-.2038-1.012-.3059-1.54-.3z"/><path d="m426.63 64.8799h-5.91v-2h5.91z"/><path d="m435.24 67.2299 6.82-6.77c.248-.2262.478-.4702.69-.73.227-.2566.428-.5345.6-.83.18-.2832.321-.5892.42-.91.109-.322.163-.66.16-1 .004-.3854-.074-.7673-.23-1.12-.144-.3267-.355-.6197-.62-.86-.278-.2355-.596-.4185-.94-.54-.367-.1244-.752-.1886-1.14-.19-.75-.0326-1.485.2172-2.06.7-.551.5007-.905 1.1815-1 1.92l-2.49-.22c.082-.7045.307-1.3849.66-2 .311-.5365.726-1.0057 1.22-1.38.504-.3753 1.074-.6533 1.68-.82.672-.1811 1.365-.2686 2.06-.26.701-.0042 1.399.0969 2.07.3.621.183 1.201.4815 1.71.88.487.3995.88.9014 1.15 1.47.293.643.436 1.3438.42 2.05.004.5434-.08 1.0838-.25 1.6-.167.4836-.388.9466-.66 1.38-.281.4337-.595.8449-.94 1.23-.35.38-.72.76-1.1 1.12l-5.6 5.4h8.55v2h-11.18z"/><path d="m455.55 65.9399h-7.25v-2.36l6.77-10.89h2.78v11.23h2.4v2h-2.4v3.74h-2.3zm0-10.52-5.19 8.5h5.24z"/><path d="m469.17 58.3h2.16v1.64c.427-.6229 1.019-1.1145 1.71-1.42.704-.331 1.472-.5018 2.25-.5.819-.0111 1.631.1419 2.39.45.687.2945 1.306.7267 1.82 1.27.507.5553.901 1.204 1.16 1.91.275.7493.414 1.5418.41 2.34.006.8081-.133 1.6107-.41 2.37-.257.701-.651 1.3436-1.16 1.89-.511.5432-1.132.9725-1.82 1.26-.757.315-1.57.4715-2.39.46-.8.0062-1.59-.1717-2.31-.52-.672-.3003-1.244-.786-1.65-1.4v8.4h-2.16zm5.9 1.73c-.535-.007-1.066.0951-1.56.3-.444.1871-.843.4666-1.17.82-.332.3616-.587.7869-.75 1.25-.176.5115-.264 1.0491-.26 1.59-.004.5441.084 1.0851.26 1.6.165.462.42.8869.75 1.25.33.3473.729.6229 1.17.81.494.2049 1.025.3069 1.56.3.535.0086 1.066-.0935 1.56-.3.446-.1843.848-.4603 1.18-.81.33-.3612.582-.7868.74-1.25.184-.5131.276-1.0549.27-1.6.006-.5419-.086-1.0804-.27-1.59-.156-.4644-.408-.8904-.74-1.25-.329-.356-.732-.6358-1.18-.82-.506-.212-1.052-.3143-1.6-.3z"/><path d="m486.91 63.6099-4-5.31h2.78l2.76 4 2.72-4h2.61l-3.89 5.31 4.61 6.07h-2.78l-3.36-4.78-3.36 4.78h-2.67z"/><path d="m275 87.17h3.27c.432.0023.864.0391 1.29.11.419.0611.82.2074 1.18.43.356.2265.648.5396.85.91.236.4776.347 1.0078.32 1.54.025.5413-.138 1.0744-.46 1.51-.392.4523-.93.753-1.52.85.346.0294.684.1173 1 .26.3.1433.571.3398.8.58.225.2487.401.5369.52.85.134.3616.202.7444.2 1.13.027.5554-.105 1.1068-.38 1.59-.226.4057-.549.7492-.94 1-.375.2382-.793.4012-1.23.48-.408.0847-.823.1283-1.24.13h-3.66zm1.06 4.9h2.19c.452.013.902-.0547 1.33-.2.296-.1098.568-.2762.8-.49.179-.1699.31-.3836.38-.62.066-.1932.099-.3959.1-.6.013-.3444-.056-.687-.2-1-.124-.2494-.31-.4628-.54-.62-.233-.1644-.499-.2769-.78-.33-.312-.0694-.631-.1029-.95-.1h-2.33zm0 5.47h2.39c.509.014 1.016-.0604 1.5-.22.329-.1181.626-.3096.87-.56.192-.2039.333-.4508.41-.72.065-.2209.098-.4498.1-.68.008-.3525-.068-.7019-.22-1.02-.148-.2878-.36-.5376-.62-.73-.263-.1848-.558-.3204-.87-.4-.326-.0889-.662-.1326-1-.13h-2.56z"/><path d="m284.39 94.8c-.004-.5337.095-1.0632.29-1.56.181-.4512.451-.8609.795-1.2047.344-.3437.754-.6143 1.205-.7953.501-.1916 1.033-.2866 1.57-.28.533-.0083 1.063.0868 1.56.28.459.1862.877.4615 1.23.81.35.3509.626.7693.81 1.23.195.4968.293 1.0263.29 1.56.005.5338-.094 1.0636-.29 1.56-.18.452-.45.8626-.794 1.2065s-.754.6139-1.206.7935c-.495.2014-1.026.3001-1.56.29-.538.0082-1.071-.0904-1.57-.29-.461-.1792-.88-.4515-1.23-.8-.347-.356-.619-.7775-.8-1.24-.2-.4957-.302-1.0255-.3-1.56zm1 0c-.003.4029.068.8028.21 1.18.116.3726.314.7144.58 1 .261.2794.578.5008.93.65.382.1646.794.2464 1.21.24.419.006.834-.0757 1.22-.24.349-.1543.665-.375.93-.65.262-.2883.46-.6292.58-1 .267-.7606.267-1.5894 0-2.35-.12-.3708-.318-.7117-.58-1-.265-.275-.581-.4958-.93-.65-.386-.1643-.801-.2461-1.22-.24-.416-.0065-.828.0753-1.21.24-.352.1491-.669.3706-.93.65-.266.2856-.464.6273-.58 1-.155.3713-.239.768-.25 1.17z"/><path d="m300.78 97.2c-.148.2533-.337.4798-.56.6699-.237.1873-.496.3451-.77.4701-.264.1257-.543.2164-.83.27-.276.059-.558.0892-.84.09-.538.0098-1.072-.0889-1.57-.29-.454-.177-.866-.4461-1.21-.7903-.344-.3443-.613-.7562-.79-1.2097-.202-.495-.3-1.0258-.29-1.5601-.009-.5341.09-1.0645.29-1.56.18-.4601.452-.8787.8-1.2299.352-.3485.77-.6238 1.23-.81.5-.1926 1.033-.2876 1.57-.28.281.0023.562.029.84.08.287.0569.566.151.83.28.262.1208.507.2754.73.4599.22.1889.409.4117.56.6601v-6h1v12.1h-1zm.09-2.4c-.001-.3963-.08-.7885-.232-1.1541-.153-.3656-.377-.6973-.658-.9759-.289-.2782-.629-.4988-1-.6501-.383-.1629-.795-.2446-1.21-.2399-.419-.0061-.835.0756-1.22.2399-.35.1543-.665.3751-.93.6501-.263.2882-.46.6292-.58 1-.267.7606-.267 1.5893 0 2.3499.12.3708.317.7118.58 1 .265.275.58.4958.93.6501.385.1643.801.246 1.22.24.415.0046.827-.0771 1.21-.24.371-.1513.711-.3719 1-.6501.283-.2798.507-.6131.66-.9805.152-.3674.231-.7616.23-1.1595z"/><path d="m306.17 100.79c-.149.435-.407.824-.75 1.13-.36.293-.816.443-1.28.42-.16.015-.32.015-.48 0l-.47-.1.1-.9.42.12c.143.039.291.06.44.06.161.003.321-.039.46-.12.13-.071.246-.166.34-.28.101-.122.185-.256.25-.4.07-.14.13-.29.19-.44l.67-1.71-3-7.42h1.07l2.44 6.19 2.38-6.22h1z"/><path d="m325.26 96.72c-.479.695-1.13 1.2533-1.89 1.62-.73.3237-1.521.4873-2.32.48-.814.0076-1.622-.1418-2.38-.44-.688-.2845-1.311-.7086-1.827-1.2456s-.916-1.1752-1.173-1.8744c-.587-1.5393-.587-3.2406 0-4.78.267-.702.676-1.3418 1.2-1.88.507-.5393 1.12-.9683 1.8-1.26.756-.3062 1.565-.4592 2.38-.45.737-.005 1.467.1343 2.15.41.695.2926 1.299.7656 1.75 1.37l-.86.72c-.328-.5113-.797-.9174-1.35-1.17-.531-.2395-1.107-.3655-1.69-.37-.687-.0124-1.368.1205-2 .39-.572.2398-1.086.5976-1.51 1.05-.44.4553-.78.9966-1 1.59-.236.6399-.351 1.3181-.34 2-.013.6821.103 1.3605.34 2 .22.5934.56 1.1348 1 1.59.426.4375.941.7785 1.51 1 .632.2696 1.313.4025 2 .39.303-.0032.605-.0401.9-.11.313-.0675.615-.1751.9-.32.3-.1465.582-.3277.84-.54.274-.2244.51-.4911.7-.79z"/><path d="m326.51 94.8001c-.007-.5331.088-1.0625.28-1.5601.188-.4558.459-.8728.8-1.23.356-.3485.777-.6237 1.24-.81.497-.1914 1.027-.2865 1.56-.2799.533-.0083 1.063.0868 1.56.2799.461.1888.881.4637 1.24.81.344.354.616.7718.8 1.23.199.4955.298 1.0259.29 1.5601.01.5342-.089 1.065-.29 1.56-.176.4541-.445.8666-.789 1.211-.345.3444-.757.6131-1.211.789-.495.2014-1.026.3001-1.56.2899-.535.0085-1.065-.0901-1.56-.2899-.464-.179-.886-.4513-1.24-.8-.344-.3586-.615-.7795-.8-1.2401-.202-.4818-.311-.9976-.32-1.5199zm1 0c-.006.4022.061.8022.2 1.1799.115.3727.314.7145.58 1 .263.2773.579.4984.93.65.778.3196 1.651.3196 2.43 0 .349-.1542.665-.375.93-.65.262-.2882.46-.6292.58-1 .266-.7606.266-1.5893 0-2.35-.12-.3707-.318-.7117-.58-1-.265-.275-.581-.4957-.93-.65-.779-.3195-1.652-.3195-2.43 0-.351.1517-.667.3728-.93.65-.266.2856-.465.6274-.58 1-.158.3707-.247.7674-.26 1.1701z"/><path d="m336.45 93.19c0-.14 0-.31 0-.51s0-.39 0-.6 0-.39 0-.56 0-.32 0-.41h1v.8c-.014.1631-.014.327 0 .49.233-.4206.579-.7672 1-1 .467-.302 1.014-.4554 1.57-.44.481-.0182.96.0742 1.4.27.341.1608.637.4049.86.71.212.2993.359.6401.43 1 .081.3881.121.7836.12 1.18v4.4h-1v-4.35c-.001-.2918-.028-.5829-.08-.87-.041-.2698-.136-.5284-.28-.76-.132-.2296-.326-.417-.56-.54-.289-.1428-.609-.2115-.93-.2-.342-.0031-.681.058-1 .18-.312.1224-.593.3138-.82.56-.244.2759-.428.5994-.54.95-.145.4281-.212.8784-.2 1.33v3.7h-.97z"/><path d="m348.94 91.97h-2.11v4.82c-.008.1398.012.2798.058.412s.118.2538.212.358c.1.094.218.1665.347.2129.129.0465.266.0659.403.0571.185-.0036.37-.0271.55-.07.185-.0467.366-.1103.54-.19l.08.87c-.206.0689-.417.1256-.63.17-.202.053-.411.0799-.62.08-.3.0067-.599-.0443-.88-.15-.227-.0876-.429-.2282-.59-.41-.152-.1739-.265-.3785-.33-.6-.069-.2404-.103-.4898-.1-.74v-4.82h-1.6v-.86h1.6v-2.13h1v2.13h2.11z"/><path d="m357.18 97.11c-.332.5379-.816.9658-1.39 1.23-.57.2527-1.187.3789-1.81.3699-.528.0111-1.052-.0876-1.54-.2899-.446-.178-.849-.4482-1.184-.7929-.334-.3446-.592-.756-.756-1.2071-.185-.5025-.277-1.0346-.27-1.5701-.008-.5266.088-1.0496.28-1.5399.167-.4543.426-.8695.76-1.22.331-.349.729-.6279 1.17-.8201.471-.2003.978-.2991 1.49-.2899.515-.0134 1.027.0856 1.5.2899.411.1848.779.454 1.08.7901.298.3195.526.6975.67 1.11.153.3725.245.7678.27 1.17v.6699h-6.26c.008.264.048.5259.12.78.09.3305.239.6421.44.92.233.3112.525.573.86.7701.423.2271.9.3375 1.38.32.497-.0032.987-.1231 1.43-.35.42-.2337.766-.5801 1-1zm-.73-2.9301c.005-.3212-.063-.6393-.2-.9299-.129-.2862-.312-.5445-.54-.7601-.238-.2242-.516-.4007-.82-.5199-.318-.1292-.657-.1937-1-.19-.455-.0146-.904.0961-1.3.3199-.323.19-.605.4415-.83.7401-.183.2432-.328.513-.43.8-.063.1747-.107.3558-.13.5399z"/><path d="m359.55 93.19c0-.14 0-.31 0-.51s0-.39 0-.6 0-.39 0-.56 0-.32 0-.41h1v.8c-.013.1631-.013.327 0 .49.233-.4206.579-.7672 1-1 .467-.302 1.014-.4554 1.57-.44.481-.0182.96.0742 1.4.27.342.1608.637.4049.86.71.212.2993.359.6401.43 1 .081.3881.121.7836.12 1.18v4.4h-1v-4.35c.004-.292-.023-.5836-.08-.87-.041-.2698-.136-.5284-.28-.76-.131-.2296-.326-.417-.56-.54-.289-.1428-.608-.2115-.93-.2-.342-.0021-.681.0589-1 .18-.312.1224-.592.3138-.82.56-.244.2759-.428.5994-.54.95-.144.4281-.212.8784-.2 1.33v3.7h-1z"/><path d="m372.06 91.97h-2.11v4.82c-.008.1398.011.2798.058.412.046.1322.118.2539.212.358.099.094.218.1665.347.2129.129.0465.266.0659.403.0571.185-.0036.369-.0271.55-.07.185-.0467.366-.1103.54-.19l.08.87c-.207.0689-.417.1256-.63.17-.203.053-.411.0799-.62.08-.301.0067-.599-.0442-.88-.15-.22-.0852-.417-.2197-.577-.393-.159-.1734-.277-.3811-.343-.607-.07-.2404-.104-.4898-.1-.74v-4.82h-1.6v-.86h1.6v-2.13h1v2.13h2.11z"/><path d="m377.34 94.28h4v.86h-4z"/><path d="m390.32 88.52-2 1.68-.59-.74 2.8-2.29h.82v11.33h-1z"/><path d="m397.15 92.16c.229-.1782.496-.3014.78-.36.294-.0765.596-.1169.9-.12.478-.0069.952.0886 1.39.28.415.1717.792.4231 1.11.74.311.3144.556.6885.72 1.1.17.4365.255.9016.25 1.37.007.4877-.089.9715-.28 1.42-.175.4205-.438.7989-.77 1.11-.345.315-.745.5627-1.18.73-.968.3566-2.032.3566-3 0-.435-.1696-.835-.417-1.18-.73-.333-.3111-.595-.6895-.77-1.11-.192-.4485-.287-.9323-.28-1.42-.002-.2857.029-.5708.09-.85.065-.26.152-.5142.26-.76.11-.24.22-.46.34-.68s.23-.41.35-.6l3.07-5.11h1.22zm1.47.36c-.343.0038-.682.0716-1 .2-.314.1354-.599.3288-.84.57-.244.2436-.437.5324-.57.85-.137.3159-.208.656-.21 1-.004.3696.064.7364.2 1.08.116.3164.3.6032.54.84.238.2406.524.428.84.55.697.2538 1.462.2538 2.16 0 .315-.1216.6-.3083.838-.5478s.422-.5265.542-.8422c.136-.3436.204-.7104.2-1.08-.002-.344-.074-.6841-.21-1-.269-.6413-.779-1.1512-1.42-1.42-.34-.1375-.704-.2055-1.07-.2z"/><path d="m408.01 91.11h1v1.29c.143-.2504.329-.4737.55-.66.222-.1846.467-.3392.73-.46.263-.129.542-.2231.83-.28.28-.0514.565-.0782.85-.08.53-.0075 1.056.0876 1.55.28.461.1887.882.4636 1.24.81.344.3539.616.7718.8 1.23.2.4954.298 1.0258.29 1.56.01.5343-.089 1.065-.29 1.56-.176.4541-.445.8666-.789 1.211-.345.3444-.757.6131-1.211.789-.492.2004-1.019.299-1.55.29-.286-.0003-.571-.0304-.85-.09-.287-.0536-.566-.1443-.83-.27-.261-.1246-.506-.279-.73-.46-.223-.1878-.409-.4149-.55-.67v4.95h-1zm.87 3.69c-.003.4057.079.8075.24 1.18.149.3726.37.7123.65 1 .291.2757.63.496 1 .65.386.1629.801.2446 1.22.24.415.0046.827-.0771 1.21-.24.349-.1543.665-.375.93-.65.262-.2883.46-.6293.58-1 .267-.7607.267-1.5894 0-2.35-.12-.3708-.318-.7118-.58-1-.265-.275-.581-.4958-.93-.65-.383-.163-.795-.2447-1.21-.24-.419-.0047-.834.077-1.22.24-.37.1539-.709.3742-1 .65-.28.2876-.501.6273-.65 1-.16.3693-.242.7676-.24 1.17z"/><path d="m419.88 94.5-2.64-3.39h1.21l2 2.8 2-2.8h1.2l-2.61 3.39 3.17 4h-1.25l-2.51-3.34-2.53 3.34h-1.15z"/><path d="m275 112.631h3.27c.432.002.864.039 1.29.11.419.061.82.208 1.18.43.356.227.648.54.85.91.236.478.347 1.008.32 1.54.025.541-.138 1.075-.46 1.51-.392.452-.93.753-1.52.85.346.03.684.118 1 .26.3.143.571.34.8.58.225.249.401.537.52.85.134.362.202.745.2 1.13.027.556-.105 1.107-.38 1.59-.226.406-.549.749-.94 1-.375.238-.793.401-1.23.48-.408.085-.823.128-1.24.13h-3.66zm1.06 4.9h2.19c.452.013.902-.055 1.33-.2.296-.11.568-.276.8-.49.179-.17.31-.383.38-.62.066-.193.099-.396.1-.6.013-.344-.056-.687-.2-1-.124-.249-.31-.463-.54-.62-.233-.164-.499-.277-.78-.33-.312-.069-.631-.103-.95-.1h-2.33zm0 5.47h2.39c.509.014 1.016-.06 1.5-.22.329-.118.626-.309.87-.56.192-.204.333-.451.41-.72.065-.221.098-.45.1-.68.008-.352-.068-.702-.22-1.02-.148-.288-.36-.537-.62-.73-.263-.185-.558-.32-.87-.4-.326-.089-.662-.132-1-.13h-2.56z"/><path d="m293.13 119.621c.002.59-.069 1.178-.21 1.75-.131.531-.366 1.031-.69 1.47-.342.43-.781.772-1.28 1-.612.277-1.279.411-1.95.39-.668.021-1.332-.113-1.94-.39-.503-.223-.942-.566-1.28-1-.332-.436-.57-.937-.7-1.47-.142-.572-.213-1.16-.21-1.75v-7h1.06v6.72c.004.436.04.87.11 1.3.073.449.221.882.44 1.28.219.408.539.752.93 1 .481.281 1.033.417 1.59.39.559.025 1.114-.11 1.6-.39.385-.251.701-.595.92-1 .222-.397.371-.83.44-1.28.074-.429.111-.864.11-1.3v-6.72h1.06z"/><path d="m298.54 113.591h-3.87v-1h8.78v1h-3.86v10.37h-1.05z"/><path d="m307.72 113.591h-3.87v-1h8.8v1h-3.87v10.37h-1.06z"/><path d="m313.66 118.301c-.011-.816.135-1.628.43-2.39.275-.698.682-1.336 1.2-1.88.525-.533 1.155-.952 1.85-1.23 1.526-.6 3.223-.6 4.75 0 .694.284 1.324.706 1.85 1.24.517.544.925 1.182 1.2 1.88.573 1.542.573 3.239 0 4.78-.273.703-.681 1.345-1.2 1.89-.531.522-1.16.933-1.85 1.21-1.529.587-3.221.587-4.75 0-.694-.281-1.323-.699-1.85-1.23-.52-.545-.928-1.187-1.2-1.89-.293-.759-.439-1.566-.43-2.38zm1 0c-.008.682.107 1.36.34 2 .22.594.56 1.135 1 1.59.423.454.937.812 1.51 1.05 1.282.523 2.718.523 4 0 .572-.238 1.087-.596 1.51-1.05.432-.46.772-1 1-1.59.229-.641.341-1.319.33-2 .009-.681-.102-1.358-.33-2-.228-.589-.568-1.129-1-1.59-.426-.45-.94-.807-1.51-1.05-1.282-.522-2.718-.522-4 0-.571.243-1.085.6-1.51 1.05-.44.456-.78.997-1 1.59-.214.645-.313 1.322-.29 2z"/><path d="m327.74 112.631h1.36l6.89 9.92v-9.92h1.06v11.33h-1.33l-6.9-9.92v9.92h-1.08z"/><path d="m343.45 119.741h4v.86h-4z"/><path d="m356.45 113.981-2 1.68-.59-.74 2.8-2.29h.79v11.33h-1z"/><path d="m363.29 117.621c.229-.178.496-.301.78-.36.294-.076.596-.117.9-.12.478-.007.952.089 1.39.28.415.172.792.423 1.11.74.312.315.557.689.72 1.1.17.437.255.902.25 1.37.007.488-.089.972-.28 1.42-.175.421-.438.799-.77 1.11-.344.315-.745.563-1.18.73-.968.357-2.032.357-3 0-.435-.169-.834-.417-1.18-.73-.333-.311-.595-.689-.77-1.11-.192-.448-.287-.932-.28-1.42-.001-.286.029-.571.09-.85.065-.26.152-.514.26-.76.11-.24.22-.46.34-.68s.23-.41.35-.6l3.07-5.11h1.22zm1.47.36c-.343.004-.682.072-1 .2-.314.136-.599.329-.84.57-.244.244-.437.533-.57.85-.137.316-.208.656-.21 1-.004.37.064.737.2 1.08.12.315.304.601.54.84.24.238.526.426.84.55.346.126.711.191 1.08.19.368.002.734-.063 1.08-.19.317-.12.603-.307.84-.55.243-.234.428-.522.54-.84.136-.343.204-.71.2-1.08-.002-.344-.074-.684-.21-1-.269-.641-.779-1.151-1.42-1.42-.34-.137-.704-.205-1.07-.2z"/><path d="m374.15 116.571h1v1.29c.144-.253.334-.476.56-.66.217-.187.459-.341.72-.46.263-.129.542-.223.83-.28.28-.051.565-.077.85-.08.533-.006 1.062.089 1.56.28.45.184.858.455 1.201.799.344.343.615.752.799 1.201.191.498.286 1.027.28 1.56.008.534-.087 1.063-.28 1.56-.189.461-.464.882-.81 1.24-.354.345-.772.616-1.23.8-.496.2-1.026.299-1.56.29-.286 0-.571-.031-.85-.09-.571-.107-1.104-.358-1.55-.73-.229-.184-.419-.412-.56-.67v4.95h-1zm.87 3.69c-.003.406.079.808.24 1.18.149.373.37.713.65 1 .291.276.63.496 1 .65.386.163.801.245 1.22.24.415.005.828-.077 1.21-.24.349-.154.665-.375.93-.65.266-.285.464-.627.58-1 .267-.76.267-1.589 0-2.35-.116-.372-.314-.714-.58-1-.265-.275-.581-.495-.93-.65-.382-.163-.795-.244-1.21-.24-.419-.004-.834.077-1.22.24-.37.154-.709.375-1 .65-.28.288-.501.628-.65 1-.16.37-.242.768-.24 1.17z"/><path d="m386.02 119.961-2.63-3.39h1.23l2 2.8 2-2.8h1.2l-2.61 3.39 3.17 4h-1.25l-2.58-3.34-2.53 3.34h-1.07z"/></g></svg>