<svg width="563" height="128" viewBox="0 0 563 128" fill="none" xmlns="http://www.w3.org/2000/svg">
<path d="M3.36 44.24H0L12.32 15.92H15.12L27.44 44.24H24.08L21 36.8H6.48L3.36 44.24ZM7.56 34.16H19.84L13.72 19.28L7.56 34.16Z" fill="white"/>
<path d="M37.84 44.24H34.84L27.24 25.52H30.4L36.4 41.28H36.48L42.48 25.52H45.48L37.84 44.24Z" fill="white"/>
<path d="M50.7199 35.6C50.7969 36.5119 51.0268 37.4043 51.3999 38.24C52.1055 39.8399 53.3922 41.1124 54.9999 41.8C55.821 42.1523 56.7065 42.3295 57.5999 42.32C58.8906 42.3451 60.1613 41.998 61.2599 41.32C62.1987 40.7591 62.9986 39.9934 63.5999 39.08L65.5999 40.76C64.6229 42.0401 63.3544 43.0686 61.8999 43.76C60.5363 44.3752 59.0559 44.689 57.5599 44.68C56.237 44.6911 54.925 44.4396 53.6999 43.94C52.5477 43.4738 51.5054 42.7721 50.6399 41.88C49.7801 40.9773 49.1012 39.9182 48.6399 38.76C48.1399 37.5141 47.8885 36.1824 47.8999 34.84C47.8867 33.4993 48.1311 32.1685 48.6199 30.92C49.0762 29.7593 49.7557 28.6993 50.6199 27.8C51.4707 26.9179 52.4912 26.2172 53.6199 25.74C54.8086 25.2675 56.0813 25.043 57.3599 25.08C58.6665 25.0569 59.9627 25.3162 61.1599 25.84C62.2273 26.3059 63.1872 26.9867 63.9799 27.84C64.7558 28.7128 65.3476 29.7331 65.7199 30.84C66.1253 32.0035 66.3283 33.2279 66.3199 34.46V35.66L50.7199 35.6ZM63.4399 33.44C63.4977 32.6303 63.3794 31.8177 63.0931 31.0581C62.8069 30.2985 62.3595 29.6099 61.7817 29.0398C61.2039 28.4696 60.5095 28.0314 59.7462 27.7552C58.9829 27.479 58.1688 27.3715 57.3599 27.44C56.5084 27.4416 55.6656 27.6115 54.8799 27.94C54.1046 28.2559 53.3931 28.71 52.7799 29.28C52.1886 29.8284 51.7008 30.4788 51.3399 31.2C50.988 31.8944 50.8031 32.6615 50.7999 33.44H63.4399Z" fill="white"/>
<path d="M73.6399 25.52C73.6399 26.03 73.7299 26.52 73.7399 27.02C73.7499 27.52 73.7399 28.02 73.7399 28.52H73.8199C74.138 27.983 74.5359 27.4974 74.9999 27.08C75.4571 26.6494 75.968 26.2797 76.5199 25.98C77.0818 25.6686 77.6796 25.4268 78.2999 25.26C78.8964 25.1221 79.508 25.0616 80.1199 25.08C82.5199 25.08 84.2933 25.7133 85.4399 26.98C86.6757 28.5054 87.29 30.4411 87.1599 32.4V44.24H84.5199V33.88C84.6242 32.2098 84.2495 30.5446 83.4399 29.08C82.7199 27.97 81.4399 27.42 79.4399 27.42C79.0637 27.4506 78.6897 27.504 78.3199 27.58C77.617 27.7287 76.9549 28.0291 76.3799 28.46C75.6181 29.0335 74.9959 29.7719 74.5599 30.62C73.9659 31.8664 73.691 33.241 73.7599 34.62V44.22H71.1199V29.64C71.1199 29.1333 71.0999 28.4933 71.0599 27.72C71.0599 26.95 70.9699 26.21 70.9199 25.52H73.6399Z" fill="white"/>
<path d="M97.2001 18.32C97.2076 18.58 97.1578 18.8384 97.0541 19.077C96.9504 19.3155 96.7954 19.5282 96.6001 19.7C96.2483 20.0469 95.7742 20.2414 95.2801 20.2414C94.7861 20.2414 94.3119 20.0469 93.9601 19.7C93.7649 19.5282 93.6099 19.3155 93.5062 19.077C93.4025 18.8384 93.3526 18.58 93.3601 18.32C93.3575 18.0569 93.4136 17.7965 93.5243 17.5578C93.635 17.319 93.7976 17.108 94.0001 16.94C94.3519 16.5931 94.8261 16.3987 95.3201 16.3987C95.8142 16.3987 96.2883 16.5931 96.6401 16.94C96.8281 17.1155 96.9756 17.3299 97.0723 17.5683C97.169 17.8066 97.2126 18.0631 97.2001 18.32V18.32ZM96.6001 44.24H94.0001V25.52H96.6001V44.24Z" fill="white"/>
<path d="M103.24 31.36C103.24 30.5267 103.22 29.6867 103.18 28.84C103.18 27.99 103.11 26.84 103.08 25.52H105.68V29H105.76C105.955 28.4776 106.225 27.9859 106.56 27.54C106.918 27.0622 107.342 26.6379 107.82 26.28C108.344 25.8939 108.924 25.5904 109.54 25.38C110.255 25.1415 111.006 25.0265 111.76 25.04C112.435 25.0253 113.108 25.1061 113.76 25.28L113.24 27.88C112.748 27.7275 112.234 27.6599 111.72 27.68C110.819 27.6532 109.925 27.8526 109.12 28.26C108.426 28.6268 107.814 29.1302 107.32 29.74C106.854 30.3186 106.495 30.9755 106.26 31.68C106.04 32.3241 105.925 32.9994 105.92 33.68V44.24H103.28L103.24 31.36Z" fill="white"/>
<path d="M128.32 15.92H136.76C137.903 15.9173 139.043 16.038 140.16 16.28C141.199 16.4975 142.189 16.9042 143.08 17.48C143.914 18.0417 144.6 18.7964 145.08 19.68C145.618 20.716 145.88 21.8733 145.84 23.04C145.878 24.4829 145.419 25.8949 144.54 27.04C143.605 28.1911 142.296 28.9769 140.84 29.26V29.34C142.62 29.4012 144.307 30.1546 145.54 31.44C146.728 32.8266 147.336 34.6169 147.24 36.44C147.206 37.1177 147.092 37.789 146.9 38.44C146.624 39.4068 146.14 40.3012 145.48 41.06C144.618 42.0328 143.553 42.8043 142.36 43.32C140.64 44.0424 138.784 44.3836 136.92 44.32H128.28L128.32 15.92ZM131.2 28.32H137C137.695 28.3179 138.387 28.2306 139.06 28.06C139.723 27.8953 140.348 27.6032 140.9 27.2C141.453 26.7893 141.91 26.264 142.24 25.66C142.608 24.9506 142.787 24.1585 142.76 23.36C142.743 22.9415 142.683 22.526 142.58 22.12C142.433 21.5348 142.16 20.9888 141.78 20.52C141.299 19.9306 140.691 19.4586 140 19.14C138.976 18.7088 137.87 18.5107 136.76 18.56H131.2V28.32ZM131.2 41.6H136.72C137.702 41.6045 138.682 41.4971 139.64 41.28C140.48 41.0905 141.28 40.7518 142 40.28C142.65 39.859 143.192 39.2902 143.58 38.62C143.984 37.8861 144.185 37.0574 144.16 36.22C144.219 35.4327 144.086 34.6429 143.772 33.9183C143.459 33.1937 142.974 32.5561 142.36 32.06C140.793 31.0486 138.941 30.5715 137.08 30.7H131.2V41.6Z" fill="white"/>
<path d="M171.48 34.88C171.491 36.2224 171.24 37.5541 170.74 38.8C170.266 39.9658 169.566 41.0262 168.68 41.92C167.783 42.8118 166.715 43.5125 165.54 43.98C164.266 44.4804 162.908 44.7317 161.54 44.72C160.171 44.7359 158.813 44.4846 157.54 43.98C156.364 43.5148 155.295 42.8137 154.4 41.92C153.511 41.0288 152.81 39.9677 152.34 38.8C151.353 36.2799 151.353 33.4802 152.34 30.96C152.81 29.7923 153.511 28.7312 154.4 27.84C155.295 26.9463 156.364 26.2453 157.54 25.78C158.813 25.2755 160.171 25.0241 161.54 25.04C162.908 25.0284 164.266 25.2796 165.54 25.78C166.715 26.2475 167.783 26.9483 168.68 27.84C169.566 28.7338 170.266 29.7942 170.74 30.96C171.24 32.2059 171.491 33.5376 171.48 34.88ZM168.6 34.88C168.606 33.8849 168.437 32.8965 168.1 31.96C167.783 31.0892 167.301 30.2878 166.68 29.6C166.054 28.9292 165.299 28.3917 164.46 28.02C162.576 27.2465 160.464 27.2465 158.58 28.02C157.743 28.3842 156.993 28.9229 156.38 29.6C155.765 30.2888 155.29 31.0902 154.98 31.96C154.314 33.8497 154.314 35.9104 154.98 37.8C155.29 38.6698 155.765 39.4713 156.38 40.16C156.993 40.8371 157.743 41.3758 158.58 41.74C160.464 42.5135 162.576 42.5135 164.46 41.74C165.299 41.3683 166.054 40.8309 166.68 40.16C167.301 39.4722 167.783 38.6708 168.1 37.8C168.437 36.8635 168.606 35.8751 168.6 34.88V34.88Z" fill="white"/>
<path d="M195.2 34.88C195.211 36.2224 194.96 37.5541 194.46 38.8C193.986 39.9658 193.286 41.0262 192.4 41.92C191.503 42.8118 190.435 43.5125 189.26 43.98C187.986 44.4804 186.628 44.7317 185.26 44.72C183.891 44.7359 182.533 44.4846 181.26 43.98C180.084 43.5148 179.015 42.8137 178.12 41.92C177.231 41.0288 176.53 39.9677 176.06 38.8C175.073 36.2799 175.073 33.4802 176.06 30.96C176.53 29.7923 177.231 28.7312 178.12 27.84C179.015 26.9463 180.084 26.2453 181.26 25.78C182.533 25.2755 183.891 25.0241 185.26 25.04C186.628 25.0284 187.986 25.2796 189.26 25.78C190.435 26.2475 191.503 26.9483 192.4 27.84C193.286 28.7338 193.986 29.7942 194.46 30.96C194.96 32.2059 195.211 33.5376 195.2 34.88V34.88ZM192.32 34.88C192.326 33.8849 192.157 32.8965 191.82 31.96C191.503 31.0892 191.021 30.2878 190.4 29.6C189.774 28.9292 189.019 28.3917 188.18 28.02C186.296 27.2465 184.184 27.2465 182.3 28.02C181.463 28.3842 180.713 28.9229 180.1 29.6C179.485 30.2888 179.01 31.0902 178.7 31.96C178.034 33.8497 178.034 35.9104 178.7 37.8C179.01 38.6698 179.485 39.4713 180.1 40.16C180.713 40.8371 181.463 41.3758 182.3 41.74C184.184 42.5135 186.296 42.5135 188.18 41.74C189.019 41.3683 189.774 40.8309 190.4 40.16C191.021 39.4722 191.503 38.6708 191.82 37.8C192.157 36.8635 192.326 35.8751 192.32 34.88V34.88Z" fill="white"/>
<path d="M202.64 33.96L211.48 25.52H215.48L206.12 34.08L216.44 44.24H212.36L202.64 34.4V44.24H200V14H202.64V33.96Z" fill="white"/>
<path d="M12.56 76.6407H15.28L27.2 104.961H24.2L21.12 97.4407H6.11995L2.99995 104.961H0.199951L12.56 76.6407ZM13.8 79.5207L7.19995 95.0407H20.2L13.8 79.5207Z" fill="white"/>
<path d="M27.28 86.4807H30L36.16 102.361L42.16 86.4807H44.6L37.32 104.961H34.84L27.28 86.4807Z" fill="white"/>
<path d="M64.7201 101.481C63.8798 102.793 62.6783 103.835 61.2601 104.481C59.8287 105.104 58.2814 105.418 56.7201 105.401C55.4049 105.419 54.0994 105.174 52.8801 104.681C51.7502 104.233 50.7278 103.552 49.8801 102.681C49.0502 101.8 48.4103 100.759 48.0001 99.6207C47.5472 98.3571 47.3237 97.0228 47.3401 95.6807C47.3162 94.3575 47.5401 93.0415 48.0001 91.8007C48.4607 90.6777 49.1407 89.6578 50.0001 88.8007C50.8304 87.9461 51.8232 87.2661 52.9201 86.8007C54.0951 86.2977 55.3621 86.0457 56.6401 86.0607C57.9253 86.0374 59.2006 86.2898 60.3801 86.8007C61.4164 87.2702 62.343 87.9515 63.1001 88.8007C63.8314 89.6088 64.3956 90.5536 64.7601 91.5807C65.1273 92.5939 65.3168 93.663 65.3201 94.7407V96.4207H49.7601C49.7822 97.077 49.8829 97.7283 50.0601 98.3607C50.2961 99.2426 50.7037 100.069 51.2597 100.793C51.8156 101.518 52.509 102.125 53.3001 102.581C54.3607 103.153 55.5559 103.43 56.7601 103.381C58.0004 103.379 59.2219 103.077 60.3201 102.501C61.4374 101.945 62.3687 101.077 63.0001 100.001L64.7201 101.481ZM62.8801 94.1607C62.8846 93.3601 62.7139 92.5683 62.3801 91.8407C61.7019 90.3755 60.4837 89.229 58.9801 88.6407C58.186 88.3195 57.3367 88.1564 56.4801 88.1607C55.3403 88.1199 54.2116 88.3969 53.2201 88.9607C51.7539 89.831 50.642 91.1909 50.0801 92.8007C49.9175 93.2321 49.81 93.6823 49.7601 94.1407L62.8801 94.1607Z" fill="white"/>
<path d="M70.6401 91.6807C70.6401 91.3307 70.6401 90.9107 70.6401 90.4207C70.6401 89.9307 70.6401 89.4207 70.5801 88.9207C70.5201 88.4207 70.5801 87.9207 70.5201 87.5007C70.4601 87.0807 70.5201 86.7207 70.5201 86.5007H72.9201C72.9201 87.1907 72.9201 87.8607 72.9801 88.5007C72.9725 88.9163 73.006 89.3316 73.0801 89.7407H73.2001C73.7403 88.6608 74.5716 87.7533 75.6001 87.1207C76.7689 86.3737 78.1333 85.9908 79.5201 86.0207C80.7299 85.976 81.9339 86.2086 83.0401 86.7007C83.8909 87.1059 84.6267 87.7179 85.1801 88.4807C85.7132 89.2428 86.0811 90.108 86.2601 91.0207C86.4641 92.0075 86.5646 93.013 86.5601 94.0207V105.021H84.1601V94.0807C84.16 93.3494 84.093 92.6197 83.9601 91.9007C83.841 91.2309 83.604 90.5876 83.2601 90.0007C82.9243 89.4347 82.4402 88.9714 81.8601 88.6607C81.1344 88.3004 80.3297 88.1284 79.5201 88.1607C78.6652 88.1548 77.8169 88.3109 77.0201 88.6207C76.2541 88.9263 75.5694 89.4055 75.0201 90.0207C74.4118 90.7072 73.9491 91.5101 73.6601 92.3807C73.3082 93.4583 73.1392 94.5872 73.1601 95.7207V104.961H70.7601L70.6401 91.6807Z" fill="white"/>
<path d="M92.68 79.1608C92.6852 78.7499 92.8324 78.3535 93.0966 78.0388C93.3608 77.724 93.7258 77.5105 94.1296 77.4342C94.5334 77.358 94.9511 77.4238 95.3119 77.6205C95.6727 77.8172 95.9543 78.1327 96.1089 78.5134C96.2636 78.8941 96.2818 79.3166 96.1604 79.7091C96.039 80.1017 95.7855 80.4402 95.443 80.6672C95.1004 80.8941 94.6899 80.9956 94.2811 80.9543C93.8722 80.9131 93.4903 80.7316 93.2 80.4408C93.03 80.2746 92.8961 80.0752 92.8067 79.8549C92.7172 79.6347 92.6741 79.3984 92.68 79.1608ZM93.28 86.4808H95.68V104.961H93.28V86.4808Z" fill="white"/>
<path d="M102.48 91.6807C102.48 91.3307 102.48 90.9106 102.48 90.4206C102.48 89.9306 102.48 89.4206 102.42 88.9206C102.36 88.4206 102.42 87.9206 102.36 87.5006C102.3 87.0806 102.36 86.7206 102.36 86.5006H104.76C104.76 87.1906 104.76 87.8606 104.82 88.5006C104.812 88.9163 104.846 89.3316 104.92 89.7406C105.499 88.684 106.305 87.7688 107.28 87.0606C108.317 86.3608 109.55 86.0104 110.8 86.0606C111.035 86.0601 111.269 86.0802 111.5 86.1206L112.2 86.2606L111.92 88.6206C111.624 88.5167 111.313 88.4627 111 88.4606C110.075 88.4403 109.156 88.6105 108.3 88.9606C107.573 89.266 106.929 89.7389 106.42 90.3407C105.918 90.9461 105.544 91.6468 105.32 92.4006C105.074 93.2247 104.953 94.0808 104.96 94.9406V104.961H102.56L102.48 91.6807Z" fill="white"/>
<path d="M126.88 76.6407H129.52V102.561H142.72V104.961H126.88V76.6407Z" fill="white"/>
<path d="M146 79.1608C146.005 78.7499 146.152 78.3535 146.417 78.0388C146.681 77.724 147.046 77.5105 147.45 77.4342C147.853 77.358 148.271 77.4238 148.632 77.6205C148.993 77.8172 149.274 78.1327 149.429 78.5134C149.584 78.8941 149.602 79.3166 149.48 79.7091C149.359 80.1017 149.106 80.4402 148.763 80.6672C148.421 80.8941 148.01 80.9956 147.601 80.9543C147.192 80.9131 146.81 80.7316 146.52 80.4408C146.35 80.2746 146.216 80.0752 146.127 79.8549C146.037 79.6347 145.994 79.3984 146 79.1608V79.1608ZM146.6 86.4808H149V104.961H146.6V86.4808Z" fill="white"/>
<path d="M174.36 103.801C174.431 105.704 174.09 107.601 173.36 109.361C172.798 110.636 171.941 111.761 170.86 112.641C169.912 113.387 168.813 113.919 167.64 114.201C166.619 114.453 165.572 114.587 164.52 114.601C163.601 114.6 162.683 114.513 161.78 114.341C160.91 114.174 160.059 113.919 159.24 113.581C158.466 113.265 157.734 112.855 157.06 112.361C156.423 111.893 155.851 111.341 155.36 110.721L157.24 108.961C158.042 110.12 159.15 111.034 160.44 111.601C161.727 112.162 163.116 112.448 164.52 112.441C165.574 112.469 166.624 112.306 167.62 111.961C168.39 111.683 169.097 111.254 169.7 110.701C170.238 110.199 170.678 109.602 171 108.941C171.297 108.342 171.525 107.711 171.68 107.061C171.82 106.476 171.907 105.881 171.94 105.281C171.94 104.721 171.94 104.281 171.94 103.921V101.361H171.86C171.173 102.477 170.199 103.389 169.04 104.001C167.752 104.679 166.315 105.023 164.86 105.001C163.544 105.008 162.239 104.756 161.02 104.261C159.854 103.803 158.787 103.124 157.88 102.261C156.992 101.402 156.273 100.385 155.76 99.2607C155.246 98.102 154.98 96.8484 154.98 95.5807C154.98 94.313 155.246 93.0593 155.76 91.9007C156.266 90.7729 156.986 89.754 157.88 88.9007C158.784 88.0165 159.841 87.3048 161 86.8007C162.215 86.2893 163.522 86.0307 164.84 86.0407C166.295 86.0187 167.732 86.3626 169.02 87.0407C170.18 87.6523 171.153 88.564 171.84 89.6807H172V86.4807H174.4L174.36 103.801ZM172 95.4807C172.008 94.4974 171.81 93.5233 171.42 92.6207C170.683 90.8702 169.291 89.4775 167.54 88.7407C166.635 88.3578 165.663 88.1605 164.68 88.1605C163.698 88.1605 162.725 88.3578 161.82 88.7407C160.092 89.4903 158.723 90.8813 158 92.6207C157.617 93.5256 157.42 94.4981 157.42 95.4807C157.42 96.4632 157.617 97.4358 158 98.3407C158.737 100.091 160.13 101.484 161.88 102.221C162.785 102.604 163.758 102.801 164.74 102.801C165.723 102.801 166.695 102.604 167.6 102.221C169.351 101.484 170.743 100.091 171.48 98.3407C171.85 97.4336 172.027 96.4597 172 95.4807Z" fill="white"/>
<path d="M180.24 74.7207H182.64V89.7207H182.72C183.26 88.6408 184.091 87.7334 185.12 87.1007C186.277 86.3613 187.627 85.9788 189 86.0007C190.21 85.9561 191.414 86.1886 192.52 86.6807C193.369 87.0888 194.104 87.7002 194.66 88.4607C195.193 89.2228 195.561 90.088 195.74 91.0007C195.944 91.9876 196.044 92.993 196.04 94.0007V105.001H193.64V94.0807C193.64 93.3495 193.573 92.6198 193.44 91.9007C193.321 91.2309 193.084 90.5876 192.74 90.0007C192.401 89.437 191.918 88.9743 191.34 88.6607C190.614 88.3004 189.81 88.1285 189 88.1607C188.145 88.1538 187.297 88.31 186.5 88.6207C185.734 88.9264 185.049 89.4056 184.5 90.0207C183.892 90.7073 183.429 91.5101 183.14 92.3807C182.788 93.4583 182.619 94.5873 182.64 95.7207V104.961H180.24V74.7207Z" fill="white"/>
<path d="M211.52 88.6406H206.24V100.641C206.218 100.99 206.267 101.34 206.384 101.67C206.501 102 206.683 102.303 206.92 102.561C207.171 102.795 207.468 102.976 207.791 103.093C208.114 103.209 208.457 103.26 208.8 103.241C209.266 103.239 209.729 103.178 210.18 103.061C210.639 102.945 211.087 102.791 211.52 102.601L211.72 104.761C211.209 104.938 210.688 105.085 210.16 105.201C209.649 105.323 209.126 105.39 208.6 105.401C207.849 105.418 207.102 105.289 206.4 105.021C205.834 104.811 205.326 104.468 204.92 104.021C204.543 103.585 204.264 103.073 204.1 102.521C203.924 101.917 203.836 101.29 203.84 100.661V88.6606H199.84V86.4806H203.84V81.1606H206.24V86.4806H211.52V88.6406Z" fill="white"/>
<path d="M277 1.92004H280.84V13.6801H295.52V1.92004H299.36V30.2401H295.52V17.2401H280.84V30.2401H277V1.92004Z" fill="white"/>
<path d="M308.44 22.08C308.43 22.8665 308.615 23.6431 308.98 24.34C309.319 25.0066 309.788 25.5983 310.36 26.08C310.957 26.5651 311.634 26.944 312.36 27.2C313.131 27.4685 313.943 27.6038 314.76 27.6C315.788 27.6244 316.801 27.3537 317.68 26.82C318.548 26.2638 319.319 25.5677 319.96 24.76L322.68 26.84C321.696 28.1155 320.418 29.1344 318.956 29.81C317.493 30.4855 315.889 30.7977 314.28 30.72C312.889 30.7412 311.509 30.4828 310.22 29.96C309.058 29.4826 308.009 28.7673 307.14 27.86C306.287 26.9482 305.627 25.8734 305.2 24.7C304.74 23.4379 304.509 22.1034 304.52 20.76C304.509 19.4112 304.761 18.0731 305.26 16.82C305.714 15.6465 306.394 14.573 307.26 13.66C308.143 12.76 309.197 12.046 310.36 11.56C311.602 11.0439 312.935 10.7853 314.28 10.8C315.749 10.7532 317.209 11.0548 318.54 11.68C319.65 12.2279 320.627 13.0131 321.4 13.98C322.149 14.9272 322.7 16.0155 323.02 17.18C323.35 18.3583 323.519 19.5762 323.52 20.8V22.08H308.44ZM319.8 19.2C319.782 18.452 319.654 17.7107 319.42 17C319.211 16.357 318.87 15.7645 318.42 15.26C317.946 14.7527 317.365 14.3566 316.72 14.1C315.968 13.8081 315.166 13.6654 314.36 13.68C313.527 13.6715 312.701 13.842 311.94 14.18C310.588 14.7928 309.517 15.8925 308.94 17.26C308.668 17.8711 308.525 18.5314 308.52 19.2H319.8Z" fill="white"/>
<path d="M328.04 13.6C329.058 12.6672 330.256 11.9526 331.56 11.5C332.844 11.0411 334.196 10.8044 335.56 10.8C336.774 10.772 337.984 10.9478 339.14 11.32C340.047 11.6143 340.884 12.0907 341.6 12.72C342.215 13.2733 342.7 13.9564 343.02 14.72C343.328 15.4756 343.484 16.2842 343.48 17.1V26.78C343.48 27.45 343.48 28.06 343.48 28.62C343.48 29.18 343.55 29.71 343.6 30.22H340.4C340.32 29.26 340.28 28.3 340.28 27.34H340.2C339.518 28.4579 338.533 29.3595 337.36 29.94C336.164 30.4697 334.867 30.7292 333.56 30.7C332.707 30.7039 331.858 30.5826 331.04 30.34C330.277 30.119 329.564 29.7523 328.94 29.26C328.34 28.7798 327.855 28.1717 327.52 27.48C327.159 26.7112 326.981 25.8692 327 25.02C326.96 23.9345 327.245 22.8618 327.82 21.94C328.391 21.0993 329.16 20.4124 330.06 19.94C331.099 19.3901 332.22 19.0119 333.38 18.82C334.72 18.5855 336.079 18.4717 337.44 18.48H340.08V17.68C340.079 17.1866 339.984 16.6978 339.8 16.24C339.607 15.7561 339.322 15.3145 338.96 14.94C338.563 14.538 338.086 14.2244 337.56 14.02C336.921 13.7782 336.242 13.6628 335.56 13.68C334.947 13.6727 334.336 13.7399 333.74 13.88C333.252 14.001 332.776 14.1685 332.32 14.38C331.908 14.5693 331.519 14.8041 331.16 15.08L330.16 15.84L328.04 13.6ZM338.2 21.08C337.325 21.0828 336.45 21.1296 335.58 21.22C334.747 21.2965 333.927 21.478 333.14 21.76C332.464 21.9945 331.849 22.3772 331.34 22.88C331.105 23.1237 330.922 23.4123 330.802 23.7285C330.682 24.0447 330.626 24.382 330.64 24.72C330.602 25.1751 330.683 25.6324 330.876 26.0463C331.069 26.4603 331.367 26.8166 331.74 27.08C332.648 27.6072 333.691 27.8575 334.74 27.8C335.607 27.8238 336.468 27.653 337.26 27.3C337.91 26.9976 338.484 26.5534 338.94 26C339.363 25.4748 339.676 24.8693 339.86 24.22C340.045 23.59 340.139 22.9367 340.14 22.28V21.08H338.2Z" fill="white"/>
<path d="M367.72 30.24H364.12V27.52H364.04C363.32 28.5536 362.331 29.3699 361.18 29.88C360.01 30.4308 358.733 30.7176 357.44 30.72C356.068 30.7437 354.707 30.485 353.44 29.96C352.301 29.4733 351.279 28.7508 350.44 27.84C349.593 26.9234 348.934 25.8499 348.5 24.68C348.039 23.425 347.808 22.097 347.82 20.76C347.809 19.4166 348.039 18.0821 348.5 16.82C348.927 15.6467 349.587 14.5718 350.44 13.66C351.285 12.7618 352.306 12.047 353.44 11.56C354.707 11.035 356.068 10.7763 357.44 10.8C358.768 10.7945 360.081 11.0885 361.28 11.66C362.402 12.164 363.359 12.9752 364.04 14H364.12V0H367.72V30.24ZM357.88 27.36C358.771 27.3721 359.656 27.2019 360.48 26.86C361.235 26.5539 361.917 26.0902 362.48 25.5C363.03 24.8981 363.452 24.1904 363.72 23.42C364.306 21.6952 364.306 19.8248 363.72 18.1C363.452 17.3296 363.03 16.6219 362.48 16.02C361.917 15.4298 361.235 14.9661 360.48 14.66C358.811 13.9923 356.949 13.9923 355.28 14.66C354.524 14.9661 353.842 15.4298 353.28 16.02C352.746 16.6195 352.338 17.32 352.08 18.08C351.493 19.8048 351.493 21.6752 352.08 23.4C352.357 24.1809 352.793 24.8959 353.36 25.5C353.922 26.0902 354.604 26.5539 355.36 26.86C356.159 27.1914 357.015 27.3613 357.88 27.36Z" fill="white"/>
<path d="M372.6 4.47999C372.595 3.86373 372.804 3.26483 373.191 2.7856C373.579 2.30638 374.121 1.97658 374.724 1.85253C375.328 1.72849 375.956 1.81792 376.501 2.10553C377.046 2.39313 377.474 2.86107 377.713 3.42941C377.951 3.99774 377.985 4.6312 377.808 5.22155C377.631 5.81191 377.254 6.32253 376.743 6.66618C376.231 7.00983 375.616 7.16517 375.003 7.10568C374.389 7.04619 373.816 6.77554 373.38 6.33999C373.13 6.09965 372.931 5.81063 372.797 5.49073C372.663 5.17084 372.596 4.82685 372.6 4.47999ZM373.44 11.28H377.04V30.28H373.44V11.28Z" fill="white"/>
<path d="M382.76 11.28H386.36V14.2H386.44C386.936 13.1433 387.765 12.2789 388.8 11.74C389.99 11.0941 391.327 10.7701 392.68 10.8C393.571 10.7972 394.455 10.939 395.3 11.22C396.12 11.4871 396.871 11.9309 397.5 12.52C398.161 13.1536 398.673 13.9253 399 14.78C399.393 15.821 399.583 16.9276 399.56 18.04V30.24H395.96V19.08C395.978 18.3111 395.856 17.5453 395.6 16.82C395.384 16.2453 395.042 15.726 394.6 15.3C394.212 14.9168 393.739 14.6292 393.22 14.46C392.697 14.2878 392.151 14.2 391.6 14.2C390.891 14.1931 390.186 14.3151 389.52 14.56C388.878 14.8015 388.302 15.1922 387.84 15.7C387.329 16.2794 386.947 16.9612 386.72 17.7C386.435 18.6189 386.3 19.578 386.32 20.54V30.3H382.72L382.76 11.28Z" fill="white"/>
<path d="M424 30.0799C424.015 31.4292 423.764 32.7682 423.26 34.02C422.786 35.1836 422.07 36.2334 421.16 37.1C420.214 37.983 419.098 38.6636 417.88 39.1C416.522 39.5933 415.085 39.8372 413.64 39.82C411.943 39.8424 410.254 39.5857 408.64 39.0599C407.037 38.4924 405.571 37.5928 404.34 36.4199L406.78 33.4199C407.625 34.3704 408.643 35.151 409.78 35.7199C410.946 36.2561 412.217 36.5227 413.5 36.4999C414.635 36.5377 415.765 36.3402 416.82 35.9199C417.624 35.5846 418.342 35.0718 418.92 34.4199C419.44 33.812 419.817 33.094 420.02 32.32C420.23 31.544 420.338 30.7438 420.34 29.9399V27.0799H420.22C419.563 28.1964 418.579 29.0833 417.4 29.6199C416.229 30.1648 414.952 30.4448 413.66 30.4399C412.337 30.451 411.025 30.1995 409.8 29.6999C408.654 29.2496 407.612 28.5689 406.74 27.6999C405.877 26.8152 405.197 25.7685 404.74 24.6199C404.252 23.392 404.008 22.0811 404.02 20.7599C404.011 19.4297 404.241 18.1087 404.7 16.8599C405.132 15.6829 405.791 14.6023 406.64 13.68C407.479 12.7692 408.501 12.0466 409.64 11.5599C410.907 11.035 412.269 10.7763 413.64 10.7999C414.933 10.8024 416.21 11.0892 417.38 11.6399C418.531 12.15 419.521 12.9664 420.24 13.9999H420.36V11.2799H423.96L424 30.0799ZM414.16 14.16C413.268 14.1479 412.384 14.318 411.56 14.66C410.804 14.9661 410.122 15.4297 409.56 16.02C409.026 16.6194 408.618 17.3199 408.36 18.0799C408.061 18.9346 407.912 19.8345 407.92 20.74C407.88 21.5829 408.008 22.4254 408.296 23.2185C408.585 24.0117 409.028 24.7395 409.6 25.3599C410.855 26.4796 412.478 27.0983 414.16 27.0983C415.842 27.0983 417.465 26.4796 418.72 25.3599C419.292 24.7395 419.735 24.0117 420.024 23.2185C420.312 22.4254 420.44 21.5829 420.4 20.74C420.408 19.8345 420.259 18.9346 419.96 18.0799C419.692 17.3095 419.27 16.6018 418.72 15.9999C418.157 15.4097 417.476 14.9461 416.72 14.6399C415.907 14.3102 415.037 14.147 414.16 14.16V14.16Z" fill="white"/>
<path d="M449.08 22.24H439.24V18.88H449.08V22.24Z" fill="white"/>
<path d="M475.04 24H462.96V20.08L474.24 1.92004H478.88V20.64H482.88V24H478.88V30.2401H475.04V24ZM475.04 6.48004H474.96L466.36 20.64H475.08L475.04 6.48004Z" fill="white"/>
<path d="M485.2 16.08C485.2 15.08 485.2 13.96 485.36 12.84C485.467 11.7265 485.661 10.6232 485.94 9.53997C486.214 8.47342 486.589 7.43539 487.06 6.43997C487.507 5.4828 488.116 4.60999 488.86 3.85997C489.609 3.11621 490.491 2.51926 491.46 2.09996C493.71 1.21993 496.21 1.21993 498.46 2.09996C499.429 2.51926 500.311 3.11621 501.06 3.85997C501.804 4.60999 502.413 5.4828 502.86 6.43997C503.331 7.43539 503.706 8.47342 503.98 9.53997C504.259 10.6232 504.453 11.7265 504.56 12.84C504.67 13.96 504.72 15.04 504.72 16.08C504.712 17.6879 504.578 19.2928 504.32 20.88C504.069 22.532 503.57 24.1367 502.84 25.64C502.144 27.0752 501.116 28.3232 499.84 29.28C498.378 30.2197 496.677 30.7194 494.94 30.7194C493.202 30.7194 491.501 30.2197 490.04 29.28C488.764 28.3232 487.735 27.0752 487.04 25.64C486.31 24.1367 485.811 22.532 485.56 20.88C485.315 19.2918 485.195 17.6869 485.2 16.08V16.08ZM489.04 16.08C489.04 17.01 489.1 18.08 489.22 19.4C489.336 20.6593 489.598 21.901 490 23.1C490.365 24.2187 490.973 25.2431 491.78 26.1C492.647 26.8969 493.782 27.3391 494.96 27.3391C496.138 27.3391 497.273 26.8969 498.14 26.1C498.944 25.2407 499.551 24.2171 499.92 23.1C500.322 21.901 500.584 20.6593 500.7 19.4C500.82 18.12 500.88 17.01 500.88 16.08C500.88 15.44 500.88 14.71 500.82 13.9C500.779 13.0682 500.686 12.2399 500.54 11.42C500.396 10.592 500.189 9.77626 499.92 8.97996C499.668 8.2268 499.312 7.51305 498.86 6.85997C498.438 6.2455 497.885 5.73301 497.24 5.35997C496.536 4.99198 495.754 4.79979 494.96 4.79979C494.166 4.79979 493.384 4.99198 492.68 5.35997C492.035 5.73301 491.481 6.2455 491.06 6.85997C490.604 7.51076 490.247 8.22509 490 8.97996C489.731 9.77626 489.524 10.592 489.38 11.42C489.234 12.2399 489.14 13.0682 489.1 13.9C489.06 14.71 489.04 15.44 489.04 16.08Z" fill="white"/>
<path d="M519.92 11.2799H523.52V13.9999H523.6C524.319 12.9664 525.309 12.15 526.46 11.6399C527.63 11.0892 528.907 10.8024 530.2 10.7999C531.571 10.7763 532.933 11.035 534.2 11.5599C535.339 12.0466 536.361 12.7692 537.2 13.68C538.049 14.6023 538.708 15.6829 539.14 16.8599C539.598 18.1087 539.829 19.4297 539.82 20.7599C539.831 22.1034 539.6 23.4378 539.14 24.6999C538.713 25.8733 538.053 26.9482 537.2 27.8599C536.354 28.7581 535.333 29.4729 534.2 29.96C532.933 30.4849 531.571 30.7436 530.2 30.7199C528.872 30.7254 527.559 30.4315 526.36 29.8599C525.238 29.356 524.281 28.5447 523.6 27.52H523.52V41.52H519.92V11.2799ZM529.76 14.16C528.868 14.1479 527.984 14.318 527.16 14.66C526.404 14.9661 525.722 15.4297 525.16 16.02C524.626 16.6194 524.218 17.3199 523.96 18.0799C523.373 19.8048 523.373 21.6751 523.96 23.4C524.228 24.1704 524.65 24.8781 525.2 25.4799C525.762 26.0702 526.444 26.5338 527.2 26.8399C528.869 27.5076 530.731 27.5076 532.4 26.8399C533.156 26.5338 533.837 26.0702 534.4 25.4799C534.95 24.8781 535.372 24.1704 535.64 23.4C536.227 21.6751 536.227 19.8048 535.64 18.0799C535.372 17.3095 534.95 16.6018 534.4 15.9999C533.837 15.4097 533.156 14.9461 532.4 14.6399C531.562 14.2995 530.664 14.1361 529.76 14.16Z" fill="white"/>
<path d="M549.56 20.08L542.84 11.24H547.48L552.08 17.96L556.6 11.24H560.96L554.48 20.08L562.16 30.2H557.52L551.92 22.2L546.32 30.2H541.88L549.56 20.08Z" fill="white"/>
<path d="M275.86 66.1299C276.25 66.7327 276.801 67.2143 277.45 67.5199C278.078 67.8061 278.76 67.956 279.45 67.9599C279.847 67.9574 280.241 67.8967 280.62 67.7799C281.015 67.6634 281.386 67.4808 281.72 67.2399C282.044 67 282.316 66.6973 282.52 66.3499C282.733 65.9794 282.841 65.5573 282.83 65.1299C282.848 64.8491 282.802 64.5679 282.694 64.3079C282.587 64.0478 282.421 63.8159 282.21 63.6299C281.744 63.2604 281.22 62.9699 280.66 62.7699C280.04 62.5299 279.37 62.3099 278.66 62.0899C277.954 61.886 277.281 61.583 276.66 61.1899C276.036 60.7971 275.507 60.2712 275.11 59.6499C274.656 58.8505 274.441 57.9378 274.49 57.0199C274.496 56.4745 274.604 55.935 274.81 55.4299C275.034 54.8563 275.375 54.3354 275.81 53.8999C276.326 53.3989 276.934 53.0018 277.6 52.7299C278.437 52.4014 279.331 52.245 280.23 52.2699C281.131 52.2635 282.027 52.3916 282.89 52.6499C283.79 52.9225 284.585 53.4632 285.17 54.1999L283.3 55.8999C282.99 55.4436 282.571 55.0723 282.08 54.8199C281.52 54.545 280.903 54.4078 280.28 54.4199C279.736 54.4019 279.193 54.4867 278.68 54.6699C278.305 54.8147 277.965 55.0361 277.68 55.3199C277.434 55.5558 277.249 55.8473 277.14 56.1699C277.042 56.4396 276.988 56.7232 276.98 57.0099C276.96 57.3141 277.005 57.6192 277.114 57.904C277.223 58.1888 277.392 58.4467 277.61 58.6599C278.06 59.0717 278.587 59.3911 279.16 59.5999C279.813 59.8562 280.481 60.0733 281.16 60.2499C281.857 60.4334 282.529 60.7021 283.16 61.0499C283.77 61.3969 284.299 61.8709 284.71 62.4399C285.159 63.1643 285.375 64.0088 285.33 64.8599C285.34 65.6192 285.179 66.371 284.86 67.0599C284.565 67.698 284.135 68.2644 283.6 68.7199C283.047 69.1701 282.412 69.5096 281.73 69.7199C280.988 69.9632 280.211 70.0848 279.43 70.0799C278.37 70.0851 277.319 69.8917 276.33 69.5099C275.397 69.1554 274.587 68.5369 274 67.7299L275.86 66.1299Z" fill="white"/>
<path d="M298.23 69.68H296.07V67.93C295.774 68.5647 295.274 69.0821 294.65 69.4C293.937 69.7905 293.133 69.987 292.32 69.97C291.784 69.9698 291.251 69.8854 290.74 69.72C290.253 69.5557 289.807 69.2898 289.43 68.94C289.04 68.5533 288.734 68.0903 288.53 67.58C288.292 66.941 288.179 66.2618 288.2 65.58V58.26H290.36V64.98C290.35 65.4422 290.421 65.9026 290.57 66.34C290.695 66.682 290.893 66.9925 291.15 67.25C291.386 67.4794 291.669 67.6536 291.98 67.76C292.303 67.8641 292.641 67.9147 292.98 67.91C293.406 67.9136 293.829 67.8426 294.23 67.7C294.612 67.5505 294.955 67.3143 295.23 67.01C295.54 66.6669 295.772 66.261 295.91 65.82C296.081 65.2699 296.162 64.6959 296.15 64.12V58.26H298.31L298.23 69.68Z" fill="white"/>
<path d="M301.49 51.5199H303.65V59.9199H303.7C304.107 59.3066 304.679 58.8211 305.35 58.5199C306.072 58.1793 306.862 58.0051 307.66 58.0099C308.479 57.9988 309.292 58.1518 310.05 58.4599C310.736 58.752 311.355 59.1807 311.87 59.7199C312.379 60.27 312.773 60.9159 313.03 61.6199C313.312 62.3744 313.451 63.1746 313.44 63.9799C313.452 64.782 313.313 65.5791 313.03 66.3299C312.771 67.0327 312.377 67.6782 311.87 68.2299C311.363 68.7856 310.742 69.2255 310.05 69.5199C309.293 69.8349 308.48 69.9915 307.66 69.9799C306.882 69.9782 306.113 69.804 305.41 69.4699C304.719 69.1703 304.126 68.6816 303.7 68.0599H303.65V69.6899H301.49V51.5199ZM307.39 67.9299C307.925 67.9386 308.456 67.8364 308.95 67.6299C309.396 67.4456 309.798 67.1696 310.13 66.8199C310.46 66.4587 310.712 66.0331 310.87 65.5699C311.055 65.0568 311.146 64.515 311.14 63.9699C311.146 63.428 311.054 62.8895 310.87 62.3799C310.715 61.9156 310.463 61.4895 310.13 61.1299C309.801 60.7739 309.399 60.4941 308.95 60.3099C308.456 60.1034 307.925 60.0012 307.39 60.0099C306.855 60.0029 306.324 60.105 305.83 60.3099C305.386 60.497 304.988 60.7766 304.66 61.1299C304.328 61.4916 304.073 61.9168 303.91 62.3799C303.734 62.8914 303.646 63.429 303.65 63.9699C303.646 64.5141 303.734 65.055 303.91 65.5699C304.075 66.032 304.33 66.4568 304.66 66.8199C304.991 67.1672 305.389 67.4429 305.83 67.6299C306.323 67.8416 306.854 67.9505 307.39 67.9499V67.9299Z" fill="white"/>
<path d="M323.38 52.6899H325.68V59.7399H334.49V52.6899H336.79V69.6899H334.49V61.9099H325.68V69.6899H323.38V52.6899Z" fill="white"/>
<path d="M342.24 64.78C342.234 65.2539 342.348 65.7216 342.57 66.14C342.781 66.5286 343.071 66.8692 343.42 67.14C343.783 67.4379 344.196 67.6682 344.64 67.82C345.104 67.9789 345.59 68.06 346.08 68.06C346.697 68.0741 347.304 67.911 347.83 67.59C348.34 67.2664 348.793 66.861 349.17 66.39L350.8 67.64C350.214 68.4 349.454 69.0082 348.584 69.4137C347.714 69.8191 346.759 70.0099 345.8 69.97C344.967 69.9825 344.141 69.826 343.37 69.51C342.669 69.2307 342.037 68.8006 341.52 68.25C341.011 67.7036 340.617 67.061 340.36 66.36C340.079 65.602 339.94 64.7985 339.95 63.99C339.945 63.1824 340.094 62.3813 340.39 61.63C340.676 60.9244 341.093 60.2796 341.62 59.73C342.153 59.2112 342.781 58.8003 343.47 58.52C344.215 58.2138 345.015 58.0607 345.82 58.07C346.699 58.0407 347.573 58.2188 348.37 58.59C349.035 58.9228 349.621 59.3932 350.09 59.97C350.549 60.5365 350.889 61.1895 351.09 61.89C351.289 62.5996 351.39 63.3331 351.39 64.07V64.83L342.24 64.78ZM349.06 63.06C349.049 62.6111 348.972 62.1663 348.83 61.74C348.699 61.3527 348.492 60.9956 348.22 60.69C347.943 60.3883 347.601 60.1526 347.22 60C346.765 59.8202 346.279 59.7318 345.79 59.74C345.291 59.7339 344.796 59.8362 344.34 60.04C343.921 60.2266 343.541 60.4913 343.22 60.82C342.924 61.1334 342.684 61.4954 342.51 61.89C342.351 62.2599 342.266 62.6574 342.26 63.06H349.06Z" fill="white"/>
<path d="M354 59.7C354.609 59.1389 355.327 58.7099 356.11 58.44C356.88 58.1651 357.692 58.023 358.51 58.02C359.239 58.0022 359.966 58.107 360.66 58.33C361.204 58.5089 361.707 58.7944 362.14 59.17C362.512 59.5027 362.803 59.9167 362.99 60.38C363.173 60.8346 363.268 61.3199 363.27 61.81V67.62C363.27 68.02 363.27 68.38 363.27 68.72C363.27 69.06 363.27 69.38 363.34 69.72H361.44C361.44 69.14 361.37 68.57 361.37 67.99C360.964 68.6617 360.374 69.203 359.67 69.55C358.953 69.87 358.174 70.0271 357.39 70.01C356.878 70.0144 356.369 69.9402 355.88 69.79C355.421 69.6593 354.992 69.4383 354.62 69.14C354.257 68.8557 353.963 68.4934 353.76 68.08C353.549 67.6156 353.443 67.1102 353.45 66.6C353.43 65.9488 353.6 65.3059 353.94 64.75C354.268 64.2419 354.714 63.82 355.24 63.52C355.865 63.1874 356.541 62.961 357.24 62.85C358.045 62.7059 358.862 62.6356 359.68 62.64H361.26V62.16C361.256 61.8654 361.198 61.5741 361.09 61.3C360.978 61.0089 360.807 60.7436 360.59 60.52C360.351 60.2807 360.065 60.0934 359.75 59.97C359.367 59.8223 358.96 59.751 358.55 59.76C358.183 59.7541 357.817 59.7944 357.46 59.88C357.164 59.9526 356.876 60.053 356.6 60.18C356.356 60.2964 356.125 60.4371 355.91 60.6L355.31 61.06L354 59.7ZM360.1 64.21C359.59 64.21 359.1 64.21 358.53 64.29C358.028 64.3413 357.535 64.4521 357.06 64.62C356.653 64.7576 356.284 64.9868 355.98 65.29C355.84 65.4359 355.73 65.6084 355.658 65.7974C355.586 65.9863 355.553 66.1879 355.56 66.39C355.536 66.6638 355.584 66.939 355.7 67.1882C355.816 67.4373 355.995 67.6518 356.22 67.81C356.762 68.1239 357.384 68.2733 358.01 68.24C358.529 68.2554 359.046 68.1528 359.52 67.94C359.908 67.7584 360.249 67.4918 360.52 67.16C360.774 66.8441 360.961 66.4802 361.07 66.09C361.179 65.713 361.237 65.3226 361.24 64.93V64.21H360.1Z" fill="white"/>
<path d="M377.81 69.6799H375.65V68.0499C375.224 68.6716 374.631 69.1603 373.94 69.4599C373.237 69.794 372.468 69.9682 371.69 69.9699C370.87 69.9814 370.057 69.8249 369.3 69.5099C368.609 69.2214 367.989 68.7883 367.48 68.2399C366.973 67.6882 366.579 67.0428 366.32 66.3399C366.037 65.5891 365.898 64.792 365.91 63.9899C365.899 63.1846 366.038 62.3844 366.32 61.6299C366.577 60.9259 366.971 60.28 367.48 59.7299C367.985 59.2142 368.586 58.803 369.25 58.5199C370.008 58.2118 370.821 58.0588 371.64 58.0699C372.438 58.0651 373.228 58.2393 373.95 58.5799C374.622 58.8838 375.195 59.3729 375.6 59.9899V51.5199H377.76L377.81 69.6799ZM371.91 67.9499C372.445 67.9568 372.976 67.8548 373.47 67.6499C373.911 67.4629 374.309 67.1872 374.64 66.8399C374.97 66.4768 375.225 66.052 375.39 65.5899C375.566 65.075 375.654 64.5341 375.65 63.9899C375.654 63.449 375.566 62.9114 375.39 62.3999C375.227 61.9368 374.972 61.5116 374.64 61.1499C374.313 60.7966 373.914 60.517 373.47 60.3299C372.976 60.125 372.445 60.0229 371.91 60.0299C371.375 60.0212 370.844 60.1234 370.35 60.3299C369.902 60.5141 369.499 60.794 369.17 61.1499C368.838 61.5095 368.585 61.9356 368.43 62.3999C368.246 62.9095 368.154 63.448 368.16 63.9899C368.154 64.535 368.246 65.0768 368.43 65.5899C368.588 66.0531 368.84 66.4787 369.17 66.8399C369.502 67.1896 369.904 67.4656 370.35 67.6499C370.844 67.8564 371.375 67.9586 371.91 67.9499V67.9499Z" fill="white"/>
<path d="M380.74 54.2199C380.736 54.0123 380.776 53.8062 380.857 53.6149C380.938 53.4237 381.058 53.2516 381.21 53.1099C381.353 52.9601 381.526 52.841 381.717 52.7602C381.907 52.6794 382.113 52.6385 382.32 52.6399C382.529 52.6383 382.736 52.6791 382.928 52.7599C383.121 52.8407 383.295 52.9598 383.44 53.1099C383.589 53.2552 383.707 53.4287 383.787 53.6202C383.868 53.8116 383.909 54.0172 383.909 54.2249C383.909 54.4327 383.868 54.6383 383.787 54.8297C383.707 55.0212 383.589 55.1947 383.44 55.34C383.295 55.4901 383.121 55.6092 382.928 55.69C382.736 55.7708 382.529 55.8116 382.32 55.8099C382.113 55.8114 381.907 55.7705 381.717 55.6897C381.526 55.6089 381.353 55.4898 381.21 55.34C381.058 55.1967 380.937 55.023 380.856 54.83C380.775 54.637 380.735 54.4292 380.74 54.2199V54.2199ZM381.24 58.2999H383.4V69.68H381.24V58.2999Z" fill="white"/>
<path d="M386.83 58.3H388.99V60.06H389.04C389.339 59.4246 389.837 58.9047 390.46 58.58C391.174 58.193 391.978 57.9999 392.79 58.02C393.323 58.0175 393.854 58.1019 394.36 58.27C394.85 58.4341 395.3 58.6999 395.68 59.05C396.071 59.4317 396.378 59.8917 396.58 60.4C396.817 61.0394 396.929 61.7183 396.91 62.4V69.72H394.75V63C394.76 62.5378 394.689 62.0774 394.54 61.64C394.413 61.2993 394.215 60.9892 393.96 60.73C393.726 60.5003 393.442 60.329 393.13 60.23C392.809 60.1176 392.47 60.0634 392.13 60.07C391.703 60.0647 391.279 60.1393 390.88 60.29C390.496 60.4318 390.153 60.6652 389.88 60.97C389.57 61.3131 389.338 61.719 389.2 62.16C389.03 62.7103 388.949 63.2841 388.96 63.86V69.72H386.8L386.83 58.3Z" fill="white"/>
<path d="M411.58 69.5799C411.592 70.3923 411.439 71.1985 411.13 71.9499C410.848 72.65 410.418 73.281 409.87 73.7999C409.293 74.3362 408.613 74.7481 407.87 75.0099C407.053 75.3064 406.189 75.4521 405.32 75.4399C404.301 75.4539 403.288 75.2985 402.32 74.9799C401.358 74.6408 400.479 74.1024 399.74 73.3999L401.21 71.5799C401.728 72.1468 402.344 72.6145 403.03 72.9599C403.73 73.2771 404.492 73.4342 405.26 73.4199C405.943 73.4428 406.623 73.3271 407.26 73.0799C407.738 72.8703 408.167 72.5639 408.52 72.1799C408.829 71.8127 409.054 71.3828 409.18 70.9199C409.302 70.4529 409.366 69.9726 409.37 69.4899V67.8099H409.3C408.9 68.477 408.307 69.0071 407.6 69.3299C406.898 69.656 406.134 69.8233 405.36 69.8199C404.565 69.8284 403.777 69.6788 403.04 69.3799C402.355 69.0997 401.732 68.6848 401.21 68.1599C400.693 67.6276 400.285 66.9991 400.01 66.3099C399.717 65.572 399.571 64.7839 399.58 63.9899C399.573 63.1923 399.708 62.3999 399.98 61.6499C400.243 60.9435 400.64 60.2948 401.15 59.7399C401.662 59.1945 402.282 58.7619 402.97 58.4699C403.728 58.161 404.541 58.008 405.36 58.0199C406.135 58.0173 406.9 58.1882 407.6 58.5199C408.292 58.8279 408.887 59.3189 409.32 59.9399H409.37V58.2999H411.53L411.58 69.5799ZM405.67 60.0299C405.135 60.023 404.604 60.1251 404.11 60.3299C403.666 60.517 403.267 60.7966 402.94 61.1499C402.608 61.5116 402.353 61.9368 402.19 62.3999C402.014 62.9114 401.926 63.449 401.93 63.9899C401.905 64.4949 401.981 64.9997 402.152 65.4752C402.324 65.9507 402.588 66.3874 402.93 66.7599C403.681 67.4353 404.655 67.8089 405.665 67.8089C406.675 67.8089 407.649 67.4353 408.4 66.7599C408.742 66.3874 409.006 65.9507 409.178 65.4752C409.349 64.9997 409.425 64.4949 409.4 63.9899C409.406 63.4481 409.314 62.9096 409.13 62.3999C408.975 61.9356 408.722 61.5096 408.39 61.1499C408.061 60.794 407.658 60.5141 407.21 60.3299C406.722 60.1261 406.198 60.024 405.67 60.0299V60.0299Z" fill="white"/>
<path d="M426.63 64.8799H420.72V62.8799H426.63V64.8799Z" fill="white"/>
<path d="M435.24 67.2299L442.06 60.4599C442.308 60.2337 442.538 59.9897 442.75 59.7299C442.977 59.4733 443.178 59.1954 443.35 58.8999C443.53 58.6167 443.671 58.3107 443.77 57.9899C443.879 57.6679 443.933 57.3299 443.93 56.9899C443.934 56.6045 443.856 56.2226 443.7 55.8699C443.556 55.5432 443.345 55.2502 443.08 55.0099C442.802 54.7744 442.484 54.5914 442.14 54.4699C441.773 54.3455 441.388 54.2813 441 54.2799C440.25 54.2473 439.515 54.4971 438.94 54.9799C438.389 55.4806 438.035 56.1614 437.94 56.8999L435.45 56.6799C435.532 55.9754 435.757 55.295 436.11 54.6799C436.421 54.1434 436.836 53.6742 437.33 53.2999C437.834 52.9246 438.404 52.6466 439.01 52.4799C439.682 52.2988 440.375 52.2113 441.07 52.2199C441.771 52.2157 442.469 52.3168 443.14 52.5199C443.761 52.7029 444.341 53.0014 444.85 53.3999C445.337 53.7994 445.73 54.3013 446 54.8699C446.293 55.5129 446.436 56.2137 446.42 56.9199C446.424 57.4633 446.34 58.0037 446.17 58.5199C446.003 59.0035 445.782 59.4665 445.51 59.8999C445.229 60.3336 444.915 60.7448 444.57 61.1299C444.22 61.5099 443.85 61.8899 443.47 62.2499L437.87 67.6499H446.42V69.6499H435.24V67.2299Z" fill="white"/>
<path d="M455.55 65.9399H448.3V63.5799L455.07 52.6899H457.85V63.9199H460.25V65.9199H457.85V69.6599H455.55V65.9399ZM455.55 55.4199L450.36 63.9199H455.6L455.55 55.4199Z" fill="white"/>
<path d="M469.17 58.3H471.33V59.94C471.757 59.3171 472.349 58.8255 473.04 58.52C473.744 58.189 474.512 58.0182 475.29 58.02C476.109 58.0089 476.921 58.1619 477.68 58.47C478.367 58.7645 478.986 59.1967 479.5 59.74C480.007 60.2953 480.401 60.944 480.66 61.65C480.935 62.3993 481.074 63.1918 481.07 63.99C481.076 64.7981 480.937 65.6007 480.66 66.36C480.403 67.061 480.009 67.7036 479.5 68.25C478.989 68.7932 478.368 69.2225 477.68 69.51C476.923 69.825 476.11 69.9815 475.29 69.97C474.49 69.9762 473.7 69.7983 472.98 69.45C472.308 69.1497 471.736 68.664 471.33 68.05V68.05V76.45H469.17V58.3ZM475.07 60.03C474.535 60.023 474.004 60.1251 473.51 60.33C473.066 60.5171 472.667 60.7966 472.34 61.15C472.008 61.5116 471.753 61.9369 471.59 62.4C471.414 62.9115 471.326 63.4491 471.33 63.99C471.326 64.5341 471.414 65.0751 471.59 65.59C471.755 66.052 472.01 66.4769 472.34 66.84C472.67 67.1873 473.069 67.4629 473.51 67.65C474.004 67.8549 474.535 67.9569 475.07 67.95C475.605 67.9586 476.136 67.8565 476.63 67.65C477.076 67.4657 477.478 67.1897 477.81 66.84C478.14 66.4788 478.392 66.0532 478.55 65.59C478.734 65.0769 478.826 64.5351 478.82 63.99C478.826 63.4481 478.734 62.9096 478.55 62.4C478.394 61.9356 478.142 61.5096 477.81 61.15C477.481 60.794 477.078 60.5142 476.63 60.33C476.124 60.118 475.578 60.0157 475.03 60.03H475.07Z" fill="white"/>
<path d="M486.91 63.6099L482.91 58.2999H485.69L488.45 62.2999L491.17 58.2999H493.78L489.89 63.6099L494.5 69.6799H491.72L488.36 64.8999L485 69.6799H482.33L486.91 63.6099Z" fill="white"/>
<path d="M275 87.17H278.27C278.702 87.1723 279.134 87.2091 279.56 87.28C279.979 87.3411 280.38 87.4874 280.74 87.71C281.096 87.9365 281.388 88.2496 281.59 88.62C281.826 89.0976 281.937 89.6278 281.91 90.16C281.935 90.7013 281.772 91.2344 281.45 91.67C281.058 92.1223 280.52 92.423 279.93 92.52C280.276 92.5494 280.614 92.6373 280.93 92.78C281.23 92.9233 281.501 93.1198 281.73 93.36C281.955 93.6087 282.131 93.8969 282.25 94.21C282.384 94.5716 282.452 94.9544 282.45 95.34C282.477 95.8954 282.345 96.4468 282.07 96.93C281.844 97.3357 281.521 97.6792 281.13 97.93C280.755 98.1682 280.337 98.3312 279.9 98.41C279.492 98.4947 279.077 98.5383 278.66 98.54H275V87.17ZM276.06 92.07H278.25C278.702 92.083 279.152 92.0153 279.58 91.87C279.876 91.7602 280.148 91.5938 280.38 91.38C280.559 91.2101 280.69 90.9964 280.76 90.76C280.826 90.5668 280.859 90.3641 280.86 90.16C280.873 89.8156 280.804 89.473 280.66 89.16C280.536 88.9106 280.35 88.6972 280.12 88.54C279.887 88.3756 279.621 88.2631 279.34 88.21C279.028 88.1406 278.709 88.1071 278.39 88.11H276.06V92.07ZM276.06 97.54H278.45C278.959 97.554 279.466 97.4796 279.95 97.32C280.279 97.2019 280.576 97.0104 280.82 96.76C281.012 96.5561 281.153 96.3092 281.23 96.04C281.295 95.8191 281.328 95.5902 281.33 95.36C281.338 95.0075 281.262 94.6581 281.11 94.34C280.962 94.0522 280.75 93.8024 280.49 93.61C280.227 93.4252 279.932 93.2896 279.62 93.21C279.294 93.1211 278.958 93.0774 278.62 93.08H276.06V97.54Z" fill="white"/>
<path d="M284.39 94.8C284.386 94.2663 284.485 93.7368 284.68 93.24C284.861 92.7888 285.131 92.3791 285.475 92.0353C285.819 91.6916 286.229 91.421 286.68 91.24C287.181 91.0484 287.713 90.9534 288.25 90.96C288.783 90.9517 289.313 91.0468 289.81 91.24C290.269 91.4262 290.687 91.7015 291.04 92.05C291.39 92.4009 291.666 92.8193 291.85 93.28C292.045 93.7768 292.143 94.3063 292.14 94.84C292.145 95.3738 292.046 95.9036 291.85 96.4C291.67 96.852 291.4 97.2626 291.056 97.6065C290.712 97.9504 290.302 98.2204 289.85 98.4C289.355 98.6014 288.824 98.7001 288.29 98.69C287.752 98.6982 287.219 98.5996 286.72 98.4C286.259 98.2208 285.84 97.9485 285.49 97.6C285.143 97.244 284.871 96.8225 284.69 96.36C284.49 95.8643 284.388 95.3345 284.39 94.8V94.8ZM285.39 94.8C285.387 95.2029 285.458 95.6028 285.6 95.98C285.716 96.3526 285.914 96.6944 286.18 96.98C286.441 97.2594 286.758 97.4808 287.11 97.63C287.492 97.7946 287.904 97.8764 288.32 97.87C288.739 97.876 289.154 97.7943 289.54 97.63C289.889 97.4757 290.205 97.255 290.47 96.98C290.732 96.6917 290.93 96.3508 291.05 95.98C291.317 95.2194 291.317 94.3906 291.05 93.63C290.93 93.2592 290.732 92.9183 290.47 92.63C290.205 92.355 289.889 92.1342 289.54 91.98C289.154 91.8157 288.739 91.7339 288.32 91.74C287.904 91.7335 287.492 91.8153 287.11 91.98C286.758 92.1291 286.441 92.3506 286.18 92.63C285.914 92.9156 285.716 93.2573 285.6 93.63C285.445 94.0013 285.361 94.398 285.35 94.8H285.39Z" fill="white"/>
<path d="M300.78 97.2C300.632 97.4533 300.443 97.6798 300.22 97.8699C299.983 98.0572 299.724 98.215 299.45 98.34C299.186 98.4657 298.907 98.5564 298.62 98.61C298.344 98.669 298.062 98.6992 297.78 98.7C297.242 98.7098 296.708 98.6111 296.21 98.41C295.756 98.233 295.344 97.9639 295 97.6197C294.656 97.2754 294.387 96.8635 294.21 96.41C294.008 95.915 293.91 95.3842 293.92 94.8499C293.911 94.3158 294.01 93.7854 294.21 93.2899C294.39 92.8298 294.662 92.4112 295.01 92.06C295.362 91.7115 295.78 91.4362 296.24 91.25C296.74 91.0574 297.273 90.9624 297.81 90.97C298.091 90.9723 298.372 90.999 298.65 91.05C298.937 91.1069 299.216 91.201 299.48 91.33C299.742 91.4508 299.987 91.6054 300.21 91.7899C300.43 91.9788 300.619 92.2016 300.77 92.45V92.45V86.45H301.77V98.55H300.77L300.78 97.2ZM300.87 94.8C300.869 94.4037 300.79 94.0115 300.638 93.6459C300.485 93.2803 300.261 92.9486 299.98 92.67C299.691 92.3918 299.351 92.1712 298.98 92.0199C298.597 91.857 298.185 91.7753 297.77 91.78C297.351 91.7739 296.935 91.8556 296.55 92.0199C296.2 92.1742 295.885 92.395 295.62 92.67C295.357 92.9582 295.16 93.2992 295.04 93.67C294.773 94.4306 294.773 95.2593 295.04 96.0199C295.16 96.3907 295.357 96.7317 295.62 97.0199C295.885 97.2949 296.2 97.5157 296.55 97.67C296.935 97.8343 297.351 97.916 297.77 97.91C298.185 97.9146 298.597 97.8329 298.98 97.67C299.351 97.5187 299.691 97.2981 299.98 97.0199C300.263 96.7401 300.487 96.4068 300.64 96.0394C300.792 95.672 300.871 95.2778 300.87 94.8799V94.8Z" fill="white"/>
<path d="M306.17 100.79C306.021 101.225 305.763 101.614 305.42 101.92C305.06 102.213 304.604 102.363 304.14 102.34C303.98 102.355 303.82 102.355 303.66 102.34L303.19 102.24L303.29 101.34L303.71 101.46C303.853 101.499 304.001 101.52 304.15 101.52C304.311 101.523 304.471 101.481 304.61 101.4C304.74 101.329 304.856 101.234 304.95 101.12C305.051 100.998 305.135 100.864 305.2 100.72C305.27 100.58 305.33 100.43 305.39 100.28L306.06 98.57L303.06 91.15H304.13L306.57 97.34L308.95 91.12H309.95L306.17 100.79Z" fill="white"/>
<path d="M325.26 96.72C324.781 97.415 324.13 97.9733 323.37 98.34C322.64 98.6637 321.849 98.8273 321.05 98.82C320.236 98.8276 319.428 98.6782 318.67 98.38C317.982 98.0955 317.359 97.6714 316.843 97.1344C316.327 96.5974 315.927 95.9592 315.67 95.26C315.083 93.7207 315.083 92.0194 315.67 90.48C315.937 89.778 316.346 89.1382 316.87 88.6C317.377 88.0607 317.99 87.6317 318.67 87.34C319.426 87.0338 320.235 86.8808 321.05 86.89C321.787 86.885 322.517 87.0243 323.2 87.3C323.895 87.5926 324.499 88.0656 324.95 88.67L324.09 89.39C323.762 88.8787 323.293 88.4726 322.74 88.22C322.209 87.9805 321.633 87.8545 321.05 87.85C320.363 87.8376 319.682 87.9705 319.05 88.24C318.478 88.4798 317.964 88.8376 317.54 89.29C317.1 89.7453 316.76 90.2866 316.54 90.88C316.304 91.5199 316.189 92.1981 316.2 92.88C316.187 93.5621 316.303 94.2405 316.54 94.88C316.76 95.4734 317.1 96.0148 317.54 96.47C317.966 96.9075 318.481 97.2485 319.05 97.47C319.682 97.7396 320.363 97.8725 321.05 97.86C321.353 97.8568 321.655 97.8199 321.95 97.75C322.263 97.6825 322.565 97.5749 322.85 97.43C323.15 97.2835 323.432 97.1023 323.69 96.89C323.964 96.6656 324.2 96.3989 324.39 96.1L325.26 96.72Z" fill="white"/>
<path d="M326.51 94.8001C326.503 94.267 326.598 93.7376 326.79 93.24C326.978 92.7842 327.249 92.3672 327.59 92.01C327.946 91.6615 328.367 91.3863 328.83 91.2C329.327 91.0086 329.857 90.9135 330.39 90.9201C330.923 90.9118 331.453 91.0069 331.95 91.2C332.411 91.3888 332.831 91.6637 333.19 92.01C333.534 92.364 333.806 92.7818 333.99 93.24C334.189 93.7355 334.288 94.2659 334.28 94.8001C334.29 95.3343 334.191 95.8651 333.99 96.3601C333.814 96.8142 333.545 97.2267 333.201 97.5711C332.856 97.9155 332.444 98.1842 331.99 98.3601C331.495 98.5615 330.964 98.6602 330.43 98.65C329.895 98.6585 329.365 98.5599 328.87 98.3601C328.406 98.1811 327.984 97.9088 327.63 97.5601C327.286 97.2015 327.015 96.7806 326.83 96.32C326.628 95.8382 326.519 95.3224 326.51 94.8001V94.8001ZM327.51 94.8001C327.504 95.2023 327.571 95.6023 327.71 95.98C327.825 96.3527 328.024 96.6945 328.29 96.98C328.553 97.2573 328.869 97.4784 329.22 97.63C329.998 97.9496 330.871 97.9496 331.65 97.63C331.999 97.4758 332.315 97.255 332.58 96.98C332.842 96.6918 333.04 96.3508 333.16 95.98C333.426 95.2194 333.426 94.3907 333.16 93.63C333.04 93.2593 332.842 92.9183 332.58 92.63C332.315 92.355 331.999 92.1343 331.65 91.98C330.871 91.6605 329.998 91.6605 329.22 91.98C328.869 92.1317 328.553 92.3528 328.29 92.63C328.024 92.9156 327.825 93.2574 327.71 93.63C327.552 94.0007 327.463 94.3974 327.45 94.8001H327.51Z" fill="white"/>
<path d="M336.45 93.19C336.45 93.05 336.45 92.88 336.45 92.68C336.45 92.48 336.45 92.29 336.45 92.08C336.45 91.87 336.45 91.69 336.45 91.52C336.45 91.35 336.45 91.2 336.45 91.11H337.45C337.45 91.39 337.45 91.65 337.45 91.91C337.436 92.0731 337.436 92.237 337.45 92.4C337.683 91.9794 338.029 91.6328 338.45 91.4C338.917 91.098 339.464 90.9446 340.02 90.96C340.501 90.9418 340.98 91.0342 341.42 91.23C341.761 91.3908 342.057 91.6349 342.28 91.94C342.492 92.2393 342.639 92.5801 342.71 92.94C342.791 93.3281 342.831 93.7236 342.83 94.12V98.52H341.83V94.17C341.829 93.8782 341.802 93.5871 341.75 93.3C341.709 93.0302 341.614 92.7716 341.47 92.54C341.338 92.3104 341.144 92.123 340.91 92C340.621 91.8572 340.301 91.7885 339.98 91.8C339.638 91.7969 339.299 91.858 338.98 91.98C338.668 92.1024 338.387 92.2938 338.16 92.54C337.916 92.8159 337.732 93.1394 337.62 93.49C337.475 93.9181 337.408 94.3684 337.42 94.82V98.52H336.45V93.19Z" fill="white"/>
<path d="M348.94 91.97H346.83V96.79C346.822 96.9298 346.842 97.0698 346.888 97.202C346.934 97.3342 347.006 97.4558 347.1 97.56C347.2 97.654 347.318 97.7265 347.447 97.7729C347.576 97.8194 347.713 97.8388 347.85 97.83C348.035 97.8264 348.22 97.8029 348.4 97.76C348.585 97.7133 348.766 97.6497 348.94 97.57L349.02 98.44C348.814 98.5089 348.603 98.5656 348.39 98.61C348.188 98.663 347.979 98.6899 347.77 98.69C347.47 98.6967 347.171 98.6457 346.89 98.54C346.663 98.4524 346.461 98.3118 346.3 98.13C346.148 97.9561 346.035 97.7515 345.97 97.53C345.901 97.2896 345.867 97.0402 345.87 96.79V91.97H344.27V91.11H345.87V88.98H346.87V91.11H348.98L348.94 91.97Z" fill="white"/>
<path d="M357.18 97.11C356.848 97.6479 356.364 98.0758 355.79 98.34C355.22 98.5927 354.603 98.7189 353.98 98.7099C353.452 98.721 352.928 98.6223 352.44 98.42C351.994 98.242 351.591 97.9718 351.256 97.6271C350.922 97.2825 350.664 96.8711 350.5 96.42C350.315 95.9175 350.223 95.3854 350.23 94.8499C350.222 94.3233 350.318 93.8003 350.51 93.31C350.677 92.8557 350.936 92.4405 351.27 92.09C351.601 91.741 351.999 91.4621 352.44 91.2699C352.911 91.0696 353.418 90.9708 353.93 90.98C354.445 90.9666 354.957 91.0656 355.43 91.2699C355.841 91.4547 356.209 91.7239 356.51 92.06C356.808 92.3795 357.036 92.7575 357.18 93.17C357.333 93.5425 357.425 93.9378 357.45 94.34V95.0099H351.19C351.198 95.2739 351.238 95.5358 351.31 95.7899C351.4 96.1204 351.549 96.432 351.75 96.7099C351.983 97.0211 352.275 97.2829 352.61 97.48C353.033 97.7071 353.51 97.8175 353.99 97.8C354.487 97.7968 354.977 97.6769 355.42 97.45C355.84 97.2163 356.186 96.8699 356.42 96.45L357.18 97.11ZM356.45 94.1799C356.455 93.8587 356.387 93.5406 356.25 93.25C356.121 92.9638 355.938 92.7055 355.71 92.4899C355.472 92.2657 355.194 92.0892 354.89 91.97C354.572 91.8408 354.233 91.7763 353.89 91.78C353.435 91.7654 352.986 91.8761 352.59 92.0999C352.267 92.2899 351.985 92.5414 351.76 92.84C351.577 93.0832 351.432 93.353 351.33 93.64C351.267 93.8147 351.223 93.9958 351.2 94.1799H356.45Z" fill="white"/>
<path d="M359.55 93.19C359.55 93.05 359.55 92.88 359.55 92.68C359.55 92.48 359.55 92.29 359.55 92.08C359.55 91.87 359.55 91.69 359.55 91.52C359.55 91.35 359.55 91.2 359.55 91.11H360.55C360.55 91.39 360.55 91.65 360.55 91.91C360.537 92.0731 360.537 92.237 360.55 92.4C360.783 91.9794 361.129 91.6328 361.55 91.4C362.017 91.098 362.564 90.9446 363.12 90.96C363.601 90.9418 364.08 91.0342 364.52 91.23C364.862 91.3908 365.157 91.6349 365.38 91.94C365.592 92.2393 365.739 92.5801 365.81 92.94C365.891 93.3281 365.931 93.7236 365.93 94.12V98.52H364.93V94.17C364.934 93.878 364.907 93.5864 364.85 93.3C364.809 93.0302 364.714 92.7716 364.57 92.54C364.439 92.3104 364.244 92.123 364.01 92C363.721 91.8572 363.402 91.7885 363.08 91.8C362.738 91.7979 362.399 91.8589 362.08 91.98C361.768 92.1024 361.488 92.2938 361.26 92.54C361.016 92.8159 360.832 93.1394 360.72 93.49C360.576 93.9181 360.508 94.3684 360.52 94.82V98.52H359.52L359.55 93.19Z" fill="white"/>
<path d="M372.06 91.97H369.95V96.79C369.942 96.9298 369.961 97.0698 370.008 97.202C370.054 97.3342 370.126 97.4559 370.22 97.56C370.319 97.654 370.438 97.7265 370.567 97.7729C370.696 97.8194 370.833 97.8388 370.97 97.83C371.155 97.8264 371.339 97.8029 371.52 97.76C371.705 97.7133 371.886 97.6497 372.06 97.57L372.14 98.44C371.933 98.5089 371.723 98.5656 371.51 98.61C371.307 98.663 371.099 98.6899 370.89 98.69C370.589 98.6967 370.291 98.6458 370.01 98.54C369.79 98.4548 369.593 98.3203 369.433 98.147C369.274 97.9736 369.156 97.7659 369.09 97.54C369.02 97.2996 368.986 97.0502 368.99 96.8V91.98H367.39V91.12H368.99V88.99H369.99V91.12H372.1L372.06 91.97Z" fill="white"/>
<path d="M377.34 94.28H381.34V95.14H377.34V94.28Z" fill="white"/>
<path d="M390.32 88.52L388.32 90.2L387.73 89.46L390.53 87.17H391.35V98.5H390.35L390.32 88.52Z" fill="white"/>
<path d="M397.15 92.16C397.379 91.9818 397.646 91.8586 397.93 91.8C398.224 91.7235 398.526 91.6831 398.83 91.68C399.308 91.6731 399.782 91.7686 400.22 91.96C400.635 92.1317 401.012 92.3831 401.33 92.7C401.641 93.0144 401.886 93.3885 402.05 93.8C402.22 94.2365 402.305 94.7016 402.3 95.17C402.307 95.6577 402.211 96.1415 402.02 96.59C401.845 97.0105 401.582 97.3889 401.25 97.7C400.905 98.015 400.505 98.2627 400.07 98.43C399.102 98.7866 398.038 98.7866 397.07 98.43C396.635 98.2604 396.235 98.013 395.89 97.7C395.557 97.3889 395.295 97.0105 395.12 96.59C394.928 96.1415 394.833 95.6577 394.84 95.17C394.838 94.8843 394.869 94.5992 394.93 94.32C394.995 94.06 395.082 93.8058 395.19 93.56C395.3 93.32 395.41 93.1 395.53 92.88C395.65 92.66 395.76 92.47 395.88 92.28L398.95 87.17H400.17L397.15 92.16ZM398.62 92.52C398.277 92.5238 397.938 92.5916 397.62 92.72C397.306 92.8554 397.021 93.0488 396.78 93.29C396.536 93.5336 396.343 93.8224 396.21 94.14C396.073 94.4559 396.002 94.796 396 95.14C395.996 95.5096 396.064 95.8764 396.2 96.22C396.316 96.5364 396.5 96.8232 396.74 97.06C396.978 97.3006 397.264 97.488 397.58 97.61C398.277 97.8638 399.042 97.8638 399.74 97.61C400.055 97.4884 400.34 97.3017 400.578 97.0622C400.816 96.8227 401 96.5357 401.12 96.22C401.256 95.8764 401.324 95.5096 401.32 95.14C401.318 94.796 401.246 94.4559 401.11 94.14C400.841 93.4987 400.331 92.9888 399.69 92.72C399.35 92.5825 398.986 92.5145 398.62 92.52V92.52Z" fill="white"/>
<path d="M408.01 91.11H409.01V92.4C409.153 92.1496 409.339 91.9263 409.56 91.74C409.782 91.5554 410.027 91.4008 410.29 91.28C410.553 91.151 410.832 91.0569 411.12 91C411.4 90.9486 411.685 90.9218 411.97 90.92C412.5 90.9125 413.026 91.0076 413.52 91.2C413.981 91.3887 414.402 91.6636 414.76 92.01C415.104 92.3639 415.376 92.7818 415.56 93.24C415.76 93.7354 415.858 94.2658 415.85 94.8C415.86 95.3343 415.761 95.865 415.56 96.36C415.384 96.8141 415.115 97.2266 414.771 97.571C414.426 97.9154 414.014 98.1841 413.56 98.36C413.068 98.5604 412.541 98.659 412.01 98.65C411.724 98.6497 411.439 98.6196 411.16 98.56C410.873 98.5064 410.594 98.4157 410.33 98.29C410.069 98.1654 409.824 98.011 409.6 97.83C409.377 97.6422 409.191 97.4151 409.05 97.16V97.16V102.11H408.05L408.01 91.11ZM408.88 94.8C408.877 95.2057 408.959 95.6075 409.12 95.98C409.269 96.3526 409.49 96.6923 409.77 96.98C410.061 97.2557 410.4 97.476 410.77 97.63C411.156 97.7929 411.571 97.8746 411.99 97.87C412.405 97.8746 412.817 97.7929 413.2 97.63C413.549 97.4757 413.865 97.255 414.13 96.98C414.392 96.6917 414.59 96.3507 414.71 95.98C414.977 95.2193 414.977 94.3906 414.71 93.63C414.59 93.2592 414.392 92.9182 414.13 92.63C413.865 92.355 413.549 92.1342 413.2 91.98C412.817 91.817 412.405 91.7353 411.99 91.74C411.571 91.7353 411.156 91.817 410.77 91.98C410.4 92.1339 410.061 92.3542 409.77 92.63C409.49 92.9176 409.269 93.2573 409.12 93.63C408.96 93.9993 408.878 94.3976 408.88 94.8V94.8Z" fill="white"/>
<path d="M419.88 94.5L417.24 91.11H418.45L420.45 93.91L422.45 91.11H423.65L421.04 94.5L424.21 98.5H422.96L420.45 95.16L417.92 98.5H416.77L419.88 94.5Z" fill="white"/>
<path d="M275 112.631H278.27C278.702 112.633 279.134 112.67 279.56 112.741C279.979 112.802 280.38 112.949 280.74 113.171C281.096 113.398 281.388 113.711 281.59 114.081C281.826 114.559 281.937 115.089 281.91 115.621C281.935 116.162 281.772 116.696 281.45 117.131C281.058 117.583 280.52 117.884 279.93 117.981C280.276 118.011 280.614 118.099 280.93 118.241C281.23 118.384 281.501 118.581 281.73 118.821C281.955 119.07 282.131 119.358 282.25 119.671C282.384 120.033 282.452 120.416 282.45 120.801C282.477 121.357 282.345 121.908 282.07 122.391C281.844 122.797 281.521 123.14 281.13 123.391C280.755 123.629 280.337 123.792 279.9 123.871C279.492 123.956 279.077 123.999 278.66 124.001H275V112.631ZM276.06 117.531H278.25C278.702 117.544 279.152 117.476 279.58 117.331C279.876 117.221 280.148 117.055 280.38 116.841C280.559 116.671 280.69 116.458 280.76 116.221C280.826 116.028 280.859 115.825 280.86 115.621C280.873 115.277 280.804 114.934 280.66 114.621C280.536 114.372 280.35 114.158 280.12 114.001C279.887 113.837 279.621 113.724 279.34 113.671C279.028 113.602 278.709 113.568 278.39 113.571H276.06V117.531ZM276.06 123.001H278.45C278.959 123.015 279.466 122.941 279.95 122.781C280.279 122.663 280.576 122.472 280.82 122.221C281.012 122.017 281.153 121.77 281.23 121.501C281.295 121.28 281.328 121.051 281.33 120.821C281.338 120.469 281.262 120.119 281.11 119.801C280.962 119.513 280.75 119.264 280.49 119.071C280.227 118.886 279.932 118.751 279.62 118.671C279.294 118.582 278.958 118.539 278.62 118.541H276.06V123.001Z" fill="white"/>
<path d="M293.13 119.621C293.132 120.211 293.061 120.799 292.92 121.371C292.789 121.902 292.554 122.402 292.23 122.841C291.888 123.271 291.449 123.613 290.95 123.841C290.338 124.118 289.671 124.252 289 124.231C288.332 124.252 287.668 124.118 287.06 123.841C286.557 123.618 286.118 123.275 285.78 122.841C285.448 122.405 285.21 121.904 285.08 121.371C284.938 120.799 284.867 120.211 284.87 119.621V112.621H285.93V119.341C285.934 119.777 285.97 120.211 286.04 120.641C286.113 121.09 286.261 121.523 286.48 121.921C286.699 122.329 287.019 122.673 287.41 122.921C287.891 123.202 288.443 123.338 289 123.311C289.559 123.336 290.114 123.201 290.6 122.921C290.985 122.67 291.301 122.326 291.52 121.921C291.742 121.524 291.891 121.091 291.96 120.641C292.034 120.212 292.071 119.777 292.07 119.341V112.621H293.13V119.621Z" fill="white"/>
<path d="M298.54 113.591H294.67V112.591H303.45V113.591H299.59V123.961H298.54V113.591Z" fill="white"/>
<path d="M307.72 113.591H303.85V112.591H312.65V113.591H308.78V123.961H307.72V113.591Z" fill="white"/>
<path d="M313.66 118.301C313.649 117.485 313.795 116.673 314.09 115.911C314.365 115.213 314.772 114.575 315.29 114.031C315.815 113.498 316.445 113.079 317.14 112.801C318.666 112.201 320.363 112.201 321.89 112.801C322.584 113.085 323.214 113.507 323.74 114.041C324.257 114.585 324.665 115.223 324.94 115.921C325.513 117.463 325.513 119.16 324.94 120.701C324.667 121.404 324.259 122.046 323.74 122.591C323.209 123.113 322.58 123.524 321.89 123.801C320.361 124.388 318.669 124.388 317.14 123.801C316.446 123.52 315.817 123.102 315.29 122.571C314.77 122.026 314.362 121.384 314.09 120.681C313.797 119.922 313.651 119.115 313.66 118.301ZM314.66 118.301C314.652 118.983 314.767 119.661 315 120.301C315.22 120.895 315.56 121.436 316 121.891C316.423 122.345 316.937 122.703 317.51 122.941C318.792 123.464 320.228 123.464 321.51 122.941C322.082 122.703 322.597 122.345 323.02 121.891C323.452 121.431 323.792 120.891 324.02 120.301C324.249 119.66 324.361 118.982 324.35 118.301C324.359 117.62 324.248 116.943 324.02 116.301C323.792 115.712 323.452 115.172 323.02 114.711C322.594 114.261 322.08 113.904 321.51 113.661C320.228 113.139 318.792 113.139 317.51 113.661C316.939 113.904 316.425 114.261 316 114.711C315.56 115.167 315.22 115.708 315 116.301C314.786 116.946 314.687 117.623 314.71 118.301H314.66Z" fill="white"/>
<path d="M327.74 112.631H329.1L335.99 122.551V112.631H337.05V123.961H335.72L328.82 114.041V123.961H327.74V112.631Z" fill="white"/>
<path d="M343.45 119.741H347.45V120.601H343.45V119.741Z" fill="white"/>
<path d="M356.45 113.981L354.45 115.661L353.86 114.921L356.66 112.631H357.45V123.961H356.45V113.981Z" fill="white"/>
<path d="M363.29 117.621C363.519 117.443 363.786 117.32 364.07 117.261C364.364 117.185 364.666 117.144 364.97 117.141C365.448 117.134 365.922 117.23 366.36 117.421C366.775 117.593 367.152 117.844 367.47 118.161C367.782 118.476 368.027 118.85 368.19 119.261C368.36 119.698 368.445 120.163 368.44 120.631C368.447 121.119 368.351 121.603 368.16 122.051C367.985 122.472 367.722 122.85 367.39 123.161C367.046 123.476 366.645 123.724 366.21 123.891C365.242 124.248 364.178 124.248 363.21 123.891C362.775 123.722 362.376 123.474 362.03 123.161C361.697 122.85 361.435 122.472 361.26 122.051C361.068 121.603 360.973 121.119 360.98 120.631C360.979 120.345 361.009 120.06 361.07 119.781C361.135 119.521 361.222 119.267 361.33 119.021C361.44 118.781 361.55 118.561 361.67 118.341C361.79 118.121 361.9 117.931 362.02 117.741L365.09 112.631H366.31L363.29 117.621ZM364.76 117.981C364.417 117.985 364.078 118.053 363.76 118.181C363.446 118.317 363.161 118.51 362.92 118.751C362.676 118.995 362.483 119.284 362.35 119.601C362.213 119.917 362.142 120.257 362.14 120.601C362.136 120.971 362.204 121.338 362.34 121.681C362.46 121.996 362.644 122.282 362.88 122.521C363.12 122.759 363.406 122.947 363.72 123.071C364.066 123.197 364.431 123.262 364.8 123.261C365.168 123.263 365.534 123.198 365.88 123.071C366.197 122.951 366.483 122.764 366.72 122.521C366.963 122.287 367.148 121.999 367.26 121.681C367.396 121.338 367.464 120.971 367.46 120.601C367.458 120.257 367.386 119.917 367.25 119.601C366.981 118.96 366.471 118.45 365.83 118.181C365.49 118.044 365.126 117.976 364.76 117.981V117.981Z" fill="white"/>
<path d="M374.15 116.571H375.15V117.861C375.294 117.608 375.484 117.385 375.71 117.201C375.927 117.014 376.169 116.86 376.43 116.741C376.693 116.612 376.972 116.518 377.26 116.461C377.54 116.41 377.825 116.384 378.11 116.381C378.643 116.375 379.172 116.47 379.67 116.661C380.12 116.845 380.528 117.116 380.871 117.46C381.215 117.803 381.486 118.212 381.67 118.661C381.861 119.159 381.956 119.688 381.95 120.221C381.958 120.755 381.863 121.284 381.67 121.781C381.481 122.242 381.206 122.663 380.86 123.021C380.506 123.366 380.088 123.637 379.63 123.821C379.134 124.021 378.604 124.12 378.07 124.111C377.784 124.111 377.499 124.08 377.22 124.021C376.649 123.914 376.116 123.663 375.67 123.291C375.441 123.107 375.251 122.879 375.11 122.621V122.621V127.571H374.11L374.15 116.571ZM375.02 120.261C375.017 120.667 375.099 121.069 375.26 121.441C375.409 121.814 375.63 122.154 375.91 122.441C376.201 122.717 376.54 122.937 376.91 123.091C377.296 123.254 377.711 123.336 378.13 123.331C378.545 123.336 378.958 123.254 379.34 123.091C379.689 122.937 380.005 122.716 380.27 122.441C380.536 122.156 380.734 121.814 380.85 121.441C381.117 120.681 381.117 119.852 380.85 119.091C380.734 118.719 380.536 118.377 380.27 118.091C380.005 117.816 379.689 117.596 379.34 117.441C378.958 117.278 378.545 117.197 378.13 117.201C377.711 117.197 377.296 117.278 376.91 117.441C376.54 117.595 376.201 117.816 375.91 118.091C375.63 118.379 375.409 118.719 375.26 119.091C375.1 119.461 375.018 119.859 375.02 120.261V120.261Z" fill="white"/>
<path d="M386.02 119.961L383.39 116.571H384.62L386.62 119.371L388.62 116.571H389.82L387.21 119.961L390.38 123.961H389.13L386.55 120.621L384.02 123.961H382.95L386.02 119.961Z" fill="white"/>
</svg>
