<?xml version="1.0" encoding="utf-8"?>
<!-- Generator: Adobe Illustrator 24.2.0, SVG Export Plug-In . SVG Version: 6.00 Build 0)  -->
<svg version="1.1" id="Layer_1" xmlns="http://www.w3.org/2000/svg" xmlns:xlink="http://www.w3.org/1999/xlink" x="0px" y="0px"
	 viewBox="0 0 90 90" style="enable-background:new 0 0 90 90;" xml:space="preserve">
<style type="text/css">
	.st0{fill:#EB0029;}
</style>
<g id="Layer_2_1_">
	<g id="Layer_1-2">
		<path class="st0" d="M69.9,0c-1.7,0-3,1.3-3,3s1.3,3,3,3h9.8L66.9,18.8C59,11.8,47.7,10,38,14.3C24.4,8.2,8.5,14.4,2.4,28
			s0.1,29.6,13.7,35.6c2.5,1.1,5.2,1.8,7.9,2.2V73h-8c-1.7,0-3,1.3-3,3s1.3,3,3,3h8v8c0,1.7,1.3,3,3,3s3-1.3,3-3v-8h8
			c1.7,0,3-1.3,3-3s-1.3-3-3-3h-8v-7.2c2.8-0.3,5.5-1.1,8-2.2c13.7,6,29.7-0.2,35.7-13.9c1.5-3.4,2.3-7.1,2.3-10.8
			c0-5.6-1.8-11.1-5.1-15.7l13-13V20h6V3c0-1.7-1.3-3-3-3H69.9z M89.9,20h-6c0,1.7,1.3,3,3,3S89.9,21.7,89.9,20z M27,18
			c1.5,0,3,0.2,4.5,0.5C20.1,28.1,18.7,45,28.3,56.4c1,1.1,2,2.2,3.1,3.1C30,59.8,28.5,60,27,60C15.4,60,6,50.6,6,39S15.4,18,27,18z
			 M49,18c11.6,0,21,9.4,21,21s-9.4,21-21,21l0,0c-1.5,0-3-0.2-4.5-0.5c11.3-9.6,12.7-26.5,3.1-37.9c-1-1.1-2-2.2-3.1-3.1
			C45.9,18.1,47.4,18,49,18z M38,21.1c9.9,6.1,13,19,6.9,28.9c-1.7,2.8-4.1,5.2-6.9,6.9c-9.9-6.1-13-19-6.9-28.9
			C32.8,25.2,35.1,22.8,38,21.1z"/>
	</g>
</g>
</svg>
