<svg xmlns="http://www.w3.org/2000/svg" viewBox="0 0 197.13 197.13">
  <defs>
    <style>
      .cls-1, .cls-2, .cls-4 {
        fill: none;
      }

      .cls-1 {
        stroke: #d63737;
        stroke-miterlimit: 10;
      }

      .cls-1, .cls-2 {
        stroke-width: 10px;
      }

      .cls-2, .cls-4 {
        stroke: #fff;
        stroke-linecap: round;
        stroke-linejoin: round;
      }

      .cls-3 {
        fill: #fff;
      }

      .cls-4 {
        stroke-width: 4px;
      }
    </style>
  </defs>
  <g id="Layer_2" data-name="Layer 2">
    <g id="Layer_1-2" data-name="Layer 1">
      <g>
        <circle class="cls-1" cx="98.57" cy="98.57" r="93.57"/>
        <path class="cls-2" d="M150,140.35V108.21a21.41,21.41,0,0,0-.18-3.39c-1.07-15.9-4.64-24.47-18.21-33"/>
        <path class="cls-2" d="M55.35,146.78h0c0,9.64,8.22,17.32,18,17.32h52.68"/>
        <circle class="cls-2" cx="126.07" cy="140.35" r="23.75"/>
        <circle class="cls-2" cx="99.82" cy="56.6" r="35.36"/>
        <g>
          <path class="cls-3" d="M58.05,83.67H54.79a.49.49,0,0,0-.46.46v10a.5.5,0,0,0,.46.47h3.26a.5.5,0,0,0,.46-.47v-10S58.28,83.67,58.05,83.67Z"/>
          <path class="cls-3" d="M58.51,82.51c.7-3.49,0-5.58-2.09-6.75-2.09,1.63-2.79,3.72-2.09,6.75Z"/>
          <path class="cls-3" d="M62.23,113a9.6,9.6,0,0,1-1.16-4.42h0v-7.67a1.59,1.59,0,0,0-1.63-1.63H53.16a1.59,1.59,0,0,0-1.62,1.63v7.67h0A9.61,9.61,0,0,1,50.37,113a18,18,0,0,0-2.79,8.83v16.74a35.92,35.92,0,0,0,.7,7,19.5,19.5,0,0,0,.93,3.48v1.4c0,.93,1.16,1.63,2.33,1.63h9.3c1.39,0,2.32-.7,2.32-1.63v-1.16a18.79,18.79,0,0,0,.93-3.49,35.16,35.16,0,0,0,.7-7V122A14.83,14.83,0,0,0,62.23,113Z"/>
        </g>
        <path class="cls-3" d="M99.82,60.37a3.77,3.77,0,1,0-3.77-3.77A3.84,3.84,0,0,0,99.82,60.37Z"/>
        <polygon class="cls-4" points="93.03 49.82 93.03 63.39 106.6 63.39 119.64 36.96 93.03 49.82"/>
      </g>
    </g>
  </g>
</svg>
