<svg viewBox="0 0 197.13 197.13" xmlns="http://www.w3.org/2000/svg"><g fill="none"><circle cx="98.57" cy="98.57" r="93.57" stroke="#d63737" stroke-miterlimit="10" stroke-width="10"/><path d="m150 140.35v-32.14a21.41 21.41 0 0 0 -.18-3.39c-1.07-15.9-4.64-24.47-18.21-33" stroke="#fff" stroke-linecap="round" stroke-linejoin="round" stroke-width="10"/><path d="m55.35 146.78c0 9.64 8.22 17.32 18 17.32h52.68" stroke="#fff" stroke-linecap="round" stroke-linejoin="round" stroke-width="10"/><circle cx="126.07" cy="140.35" r="23.75" stroke="#fff" stroke-linecap="round" stroke-linejoin="round" stroke-width="10"/><circle cx="99.82" cy="56.6" r="35.36" stroke="#fff" stroke-linecap="round" stroke-linejoin="round" stroke-width="10"/></g><path d="m58.05 83.67h-3.26a.49.49 0 0 0 -.46.46v10a.5.5 0 0 0 .46.47h3.26a.5.5 0 0 0 .46-.47v-10s-.23-.46-.46-.46z" fill="#fff"/><path d="m58.51 82.51c.7-3.49 0-5.58-2.09-6.75-2.09 1.63-2.79 3.72-2.09 6.75z" fill="#fff"/><path d="m62.23 113a9.6 9.6 0 0 1 -1.16-4.42v-7.67a1.59 1.59 0 0 0 -1.63-1.63h-6.28a1.59 1.59 0 0 0 -1.62 1.63v7.67a9.61 9.61 0 0 1 -1.17 4.42 18 18 0 0 0 -2.79 8.83v16.74a35.92 35.92 0 0 0 .7 7 19.5 19.5 0 0 0 .93 3.48v1.4c0 .93 1.16 1.63 2.33 1.63h9.3c1.39 0 2.32-.7 2.32-1.63v-1.16a18.79 18.79 0 0 0 .93-3.49 35.16 35.16 0 0 0 .7-7v-16.8a14.83 14.83 0 0 0 -2.56-9z" fill="#fff"/><path d="m99.82 60.37a3.77 3.77 0 1 0 -3.77-3.77 3.84 3.84 0 0 0 3.77 3.77z" fill="#fff"/><path d="m93.03 49.82v13.57h13.57l13.04-26.43z" fill="none" stroke="#fff" stroke-linecap="round" stroke-linejoin="round" stroke-width="4"/></svg>