<?xml version="1.0" encoding="utf-8"?>
<!-- Generator: Adobe Illustrator 24.2.0, SVG Export Plug-In . SVG Version: 6.00 Build 0)  -->
<svg version="1.1" id="Layer_1" xmlns="http://www.w3.org/2000/svg" xmlns:xlink="http://www.w3.org/1999/xlink" x="0px" y="0px"
	 viewBox="0 0 100 100" style="enable-background:new 0 0 100 100;" xml:space="preserve">
<style type="text/css">
	.st0{fill:#EB0029;}
</style>
<path class="st0" d="M61.3,52.1c1.2,0,2.3-1,2.3-2.3V32.1c0-7.1-6-12.9-13.5-12.9S36.5,25,36.5,32.1v17.7c0,7.1,6,12.9,13.5,12.9
	c1.2,0,2.3-1,2.3-2.3c0-1.2-1-2.3-2.3-2.3c-5,0-9-3.7-9-8.4V32.1c-0.1-4.6,4-8.4,9-8.4s9,3.7,9,8.4v17.7C59,51,59.9,52.1,61.3,52.1z
	"/>
<path class="st0" d="M34.4,60.8c-1,0.7-1.2,2.1-0.6,3.1c3,4.2,8.1,7.1,13.9,7.7v4.7h-8c-1.2,0-2.3,1-2.3,2.3s1,2.3,2.3,2.3h20.4
	c1.2,0,2.3-1,2.3-2.3s-1.1-2.3-2.3-2.3h-8v-4.7c5.7-0.6,10.9-3.4,13.9-7.7c0.7-1,0.4-2.4-0.6-3.1c-1-0.7-2.4-0.4-3.1,0.6
	c-2.6,3.6-7.4,5.8-12.5,5.8s-9.9-2.3-12.5-5.8C36.8,60.4,35.4,60.1,34.4,60.8z"/>
</svg>
