<svg enable-background="new 0 0 100 100" viewBox="0 0 100 100" xmlns="http://www.w3.org/2000/svg"><g fill="#eb0029"><path d="m61.3 52.1c1.2 0 2.3-1 2.3-2.3v-17.7c0-7.1-6-12.9-13.5-12.9s-13.6 5.8-13.6 12.9v17.7c0 7.1 6 12.9 13.5 12.9 1.2 0 2.3-1 2.3-2.3 0-1.2-1-2.3-2.3-2.3-5 0-9-3.7-9-8.4v-17.6c-.1-4.6 4-8.4 9-8.4s9 3.7 9 8.4v17.7c0 1.2.9 2.3 2.3 2.3z"/><path d="m34.4 60.8c-1 .7-1.2 2.1-.6 3.1 3 4.2 8.1 7.1 13.9 7.7v4.7h-8c-1.2 0-2.3 1-2.3 2.3s1 2.3 2.3 2.3h20.4c1.2 0 2.3-1 2.3-2.3s-1.1-2.3-2.3-2.3h-8v-4.7c5.7-.6 10.9-3.4 13.9-7.7.7-1 .4-2.4-.6-3.1s-2.4-.4-3.1.6c-2.6 3.6-7.4 5.8-12.5 5.8s-9.9-2.3-12.5-5.8c-.5-1-1.9-1.3-2.9-.6z"/></g></svg>