<?xml version="1.0" encoding="utf-8"?>
<!-- Generator: Adobe Illustrator 24.2.0, SVG Export Plug-In . SVG Version: 6.00 Build 0)  -->
<svg version="1.1" id="Layer_1" xmlns="http://www.w3.org/2000/svg" xmlns:xlink="http://www.w3.org/1999/xlink" x="0px" y="0px"
	 viewBox="0 0 64 64" style="enable-background:new 0 0 64 64;" xml:space="preserve">
<style type="text/css">
	.st0{fill:#EB0029;}
</style>
<path class="st0" d="M39.5,33.4c0.8,0,1.5-0.7,1.5-1.5V20.1c0-4.7-4-8.6-9-8.6s-9,3.9-9,8.6v11.8c0,4.7,4,8.6,9,8.6
	c0.8,0,1.5-0.7,1.5-1.5s-0.7-1.5-1.5-1.5c-3.3,0-6-2.5-6-5.6V20.1c0-3.1,2.7-5.6,6-5.6c3.3,0,6,2.5,6,5.6v11.8
	C38,32.7,38.6,33.4,39.5,33.4z"/>
<path class="st0" d="M21.6,39.2c-0.7,0.5-0.8,1.4-0.4,2.1c2,2.8,5.4,4.7,9.3,5.1v3.1h-5.3c-0.8,0-1.5,0.7-1.5,1.5s0.7,1.5,1.5,1.5
	h13.6c0.8,0,1.5-0.7,1.5-1.5s-0.7-1.5-1.5-1.5h-5.3v-3.1c3.8-0.4,7.3-2.3,9.3-5.1c0.5-0.7,0.3-1.6-0.4-2.1c-0.7-0.5-1.6-0.3-2.1,0.4
	c-1.7,2.4-4.9,3.9-8.3,3.9s-6.6-1.5-8.3-3.9C23.2,38.9,22.3,38.7,21.6,39.2z"/>
</svg>
