<svg enable-background="new 0 0 100 100" viewBox="0 0 100 100" xmlns="http://www.w3.org/2000/svg"><g fill="#eb0029"><path d="m5273.1 2387.6v-2c0-2.8-5-4-9.7-4s-9.7 1.3-9.7 4v2c0 1.8.7 3.6 2 4.9l5 4.9c.3.3.4.6.4 1v6.4c0 .4.2.7.6.8l2.9.9c.5.1 1-.2 1-.8v-7.2c0-.4.2-.7.4-1l5.1-5c1.3-1.3 2-3.1 2-4.9zm-9.7-.1c-4.8 0-7.4-1.3-7.5-1.8.1-.5 2.7-1.8 7.5-1.8s7.3 1.3 7.5 1.8c-.2.5-2.7 1.8-7.5 1.8z"/><path d="m5268.4 2397.8c-.6 0-1 .4-1 1s.4 1 1 1h4.3c.6 0 1-.4 1-1s-.4-1-1-1z"/><path d="m5272.7 2401.2h-4.3c-.6 0-1 .4-1 1s.4 1 1 1h4.3c.6 0 1-.4 1-1s-.4-1-1-1z"/><path d="m5272.7 2404.5h-4.3c-.6 0-1 .4-1 1s.4 1 1 1h4.3c.6 0 1-.4 1-1 0-.5-.4-1-1-1z"/><path d="m16.3 23.5c-7.6 0-13.8 6.2-13.8 13.8s6.2 13.8 13.8 13.8 13.8-6.2 13.8-13.8-6.1-13.8-13.8-13.8zm0 24.6c-5.9 0-10.8-4.8-10.8-10.8 0-5.9 4.8-10.8 10.8-10.8 5.9 0 10.8 4.8 10.8 10.8 0 5.9-4.8 10.8-10.8 10.8z"/><path d="m19.2 40.2s-1 1.2-2.9 1.2c-1.8 0-2.8-1.2-2.9-1.2-.5-.7-1.5-.8-2.1-.2-.7.5-.8 1.5-.2 2.1.1.1 1.9 2.3 5.2 2.3s5.2-2.2 5.2-2.3c.5-.6.4-1.6-.2-2.1s-1.6-.4-2.1.2z"/><circle cx="11.9" cy="34.2" r="2"/><circle cx="20.8" cy="34.2" r="2"/><circle cx="79.2" cy="34.2" r="2"/><circle cx="88.1" cy="34.2" r="2"/><path d="m83.7 51.1c7.6 0 13.8-6.2 13.8-13.8s-6.2-13.8-13.8-13.8-13.8 6.2-13.8 13.8 6.1 13.8 13.8 13.8zm0-24.6c5.9 0 10.8 4.8 10.8 10.8 0 5.9-4.8 10.8-10.8 10.8-5.9 0-10.8-4.8-10.8-10.8 0-5.9 4.8-10.8 10.8-10.8z"/><path d="m78.4 41.2c-.5.6-.4 1.6.2 2.1s1.6.4 2.1-.2c0 0 1-1.2 2.9-1.2 1.8 0 2.8 1.2 2.9 1.2.3.4.7.6 1.2.6.3 0 .7-.1 1-.3.7-.5.8-1.5.2-2.1-.1-.1-1.9-2.3-5.2-2.3-3.4-.2-5.2 2.1-5.3 2.2z"/><circle cx="45.6" cy="34.2" r="2"/><circle cx="54.4" cy="34.2" r="2"/><path d="m50 23.5c-7.6 0-13.8 6.2-13.8 13.8s6.2 13.8 13.8 13.8 13.8-6.2 13.8-13.8-6.2-13.8-13.8-13.8zm0 24.6c-5.9 0-10.8-4.8-10.8-10.8 0-5.9 4.8-10.8 10.8-10.8 5.9 0 10.8 4.8 10.8 10.8 0 5.9-4.9 10.8-10.8 10.8z"/><path d="m53.7 39.7h-7.4c-.8 0-1.5.7-1.5 1.5s.7 1.5 1.5 1.5h7.4c.8 0 1.5-.7 1.5-1.5s-.7-1.5-1.5-1.5z"/><path d="m22.2 56.4h-11.8c-2.3 0-4.2 1.9-4.2 4.2v11.8c0 2.3 1.9 4.2 4.2 4.2h11.8c2.3 0 4.2-1.9 4.2-4.2v-11.8c0-2.3-1.9-4.2-4.2-4.2zm1.1 16c0 .6-.5 1.1-1.1 1.1h-11.8c-.6 0-1.1-.5-1.1-1.1v-11.8c0-.6.5-1.1 1.1-1.1h11.8c.6 0 1.1.5 1.1 1.1z"/><path d="m55.9 56.4h-11.8c-2.3 0-4.2 1.9-4.2 4.2v11.8c0 2.3 1.9 4.2 4.2 4.2h11.8c2.3 0 4.2-1.9 4.2-4.2v-11.8c0-2.3-1.9-4.2-4.2-4.2zm1.1 16c0 .6-.5 1.1-1.1 1.1h-11.8c-.6 0-1.1-.5-1.1-1.1v-11.8c0-.6.5-1.1 1.1-1.1h11.8c.6 0 1.1.5 1.1 1.1z"/><path d="m89.6 56.4h-11.8c-2.3 0-4.2 1.9-4.2 4.2v11.8c0 2.3 1.9 4.2 4.2 4.2h11.8c2.3 0 4.2-1.9 4.2-4.2v-11.8c-.1-2.3-1.9-4.2-4.2-4.2zm1.1 16c0 .6-.5 1.1-1.1 1.1h-11.8c-.6 0-1.1-.5-1.1-1.1v-11.8c0-.6.5-1.1 1.1-1.1h11.8c.6 0 1.1.5 1.1 1.1z"/></g></svg>