<svg fill="none" height="300" viewBox="0 0 300 300" width="300" xmlns="http://www.w3.org/2000/svg"><path d="m288 0h-276c-6.62742 0-12 5.37258-12 12v276c0 6.627 5.37258 12 12 12h276c6.627 0 12-5.373 12-12v-276c0-6.62742-5.373-12-12-12z" fill="#fff"/><path d="m289.92 178.24h-198.83c-.4048.003-.8062-.075-1.181-.228s-.7156-.379-1.0028-.664-.5151-.625-.6706-.999c-.1555-.373-.2356-.774-.2356-1.179v-109.4001c.0026-.8134.3269-1.5927.9021-2.1679.5752-.5751 1.3545-.8994 2.1679-.902h198.85c.815-.0001 1.597.3231 2.174.8985.578.5755.903 1.3563.906 2.1714v109.4001c0 .404-.08.804-.235 1.177s-.382.712-.668.997c-.286.286-.625.511-.999.665s-.774.232-1.178.231z" fill="#e5e5e5"/><path d="m285.73 174.05h-190.44c-.8109-.003-1.5883-.324-2.1645-.894-.5762-.571-.905-1.345-.9155-2.156v-101.0001c.0026-.816.3279-1.5979.905-2.1749.577-.5771 1.3589-.9024 2.175-.9051h190.44c.816.0027 1.598.328 2.175.9051.577.577.902 1.3589.905 2.1749v101.0001c-.011.811-.339 1.585-.916 2.156-.576.57-1.353.891-2.164.894z" fill="#fff"/><path d="m148.58 129.21h-35.83c-.395 0-.774-.157-1.054-.437-.279-.279-.436-.658-.436-1.053v-37.3101c0-.3961.157-.7761.436-1.0571.279-.2811.658-.4402 1.054-.4429h35.83c.396.0027.775.1618 1.054.4429.279.281.436.661.436 1.0571v37.3101c0 .395-.157.774-.436 1.053-.28.28-.659.437-1.054.437zm-35.83-39.7001c-.118 0-.234.0233-.343.0687-.109.0453-.207.1118-.29.1955s-.148.183-.192.2921c-.044.1092-.066.226-.065.3437v37.3101c-.001.118.021.234.065.344.044.109.109.208.192.292.083.083.181.15.29.195.109.046.225.069.343.069h35.83c.118 0 .234-.023.343-.069.109-.045.207-.112.29-.195.083-.084.148-.183.192-.292.044-.11.066-.226.065-.344v-37.3101c.001-.1177-.021-.2345-.065-.3437-.044-.1091-.109-.2084-.192-.2921s-.181-.1502-.29-.1955c-.109-.0454-.225-.0687-.343-.0687z" fill="#3f3e54"/><path d="m208.42 129.21h-35.82c-.196.001-.391-.036-.573-.111-.182-.074-.348-.183-.487-.322-.139-.138-.25-.303-.326-.485-.075-.181-.114-.376-.114-.572v-37.3101c0-.3978.158-.7793.439-1.0606.282-.2814.663-.4394 1.061-.4394h35.82c.398 0 .779.158 1.061.4394.281.2813.439.6628.439 1.0606v37.3101c0 .196-.039.391-.114.572-.076.182-.186.347-.326.485-.139.139-.305.248-.487.322-.182.075-.376.112-.573.111zm-35.82-39.7001c-.239 0-.468.0948-.636.2636-.169.1688-.264.3977-.264.6364v37.3101c0 .239.095.468.264.636.168.169.397.264.636.264h35.82c.239 0 .468-.095.636-.264.169-.168.264-.397.264-.636v-37.3101c0-.1182-.023-.2352-.068-.3444-.046-.1092-.112-.2084-.196-.292-.083-.0836-.182-.1499-.291-.1951-.11-.0452-.227-.0685-.345-.0685z" fill="#3f3e54"/><path d="m268.27 129.21h-35.83c-.395 0-.774-.157-1.054-.437-.279-.279-.436-.658-.436-1.053v-37.3101c0-.3961.157-.7761.436-1.0571.279-.2811.658-.4402 1.054-.4429h35.83c.396.0027.775.1618 1.054.4429.279.281.436.661.436 1.0571v37.3101c0 .395-.157.774-.436 1.053-.28.28-.659.437-1.054.437zm-35.83-39.7001c-.239 0-.468.0948-.636.2636-.169.1688-.264.3977-.264.6364v37.3101c0 .239.095.468.264.636.168.169.397.264.636.264h35.83c.118 0 .234-.023.343-.069.109-.045.207-.112.29-.195.083-.084.148-.183.192-.292.044-.11.066-.226.065-.344v-37.3101c.001-.1177-.021-.2345-.065-.3437-.044-.1091-.109-.2084-.192-.2921s-.181-.1502-.29-.1955c-.109-.0454-.225-.0687-.343-.0687z" fill="#3f3e54"/><g fill="#e5e5e5"><path d="m123.75 152c.265 0 .519-.105.707-.293.188-.187.293-.442.293-.707s-.105-.52-.293-.707c-.188-.188-.442-.293-.707-.293h-9.1c-.265 0-.52.105-.707.293-.188.187-.293.442-.293.707s.105.52.293.707c.187.188.442.293.707.293z"/><path d="m146.68 146.06c.265 0 .519-.105.707-.293.188-.187.293-.442.293-.707s-.105-.52-.293-.707c-.188-.188-.442-.293-.707-.293h-32c-.265 0-.52.105-.707.293-.188.187-.293.442-.293.707s.105.52.293.707c.187.188.442.293.707.293z"/><path d="m183.59 152c.265 0 .52-.105.707-.293.188-.187.293-.442.293-.707s-.105-.52-.293-.707c-.187-.188-.442-.293-.707-.293h-9.09c-.265 0-.52.105-.707.293-.188.187-.293.442-.293.707s.105.52.293.707c.187.188.442.293.707.293z"/><path d="m206.52 146.06c.265 0 .52-.105.707-.293.188-.187.293-.442.293-.707s-.105-.52-.293-.707c-.187-.188-.442-.293-.707-.293h-32c-.265 0-.52.105-.707.293-.188.187-.293.442-.293.707s.105.52.293.707c.187.188.442.293.707.293z"/><path d="m243.44 152c.265 0 .52-.105.707-.293.188-.187.293-.442.293-.707s-.105-.52-.293-.707c-.187-.188-.442-.293-.707-.293h-9.1c-.265 0-.519.105-.707.293-.188.187-.293.442-.293.707s.105.52.293.707c.188.188.442.293.707.293z"/><path d="m266.37 146.06c.265 0 .52-.105.707-.293.188-.187.293-.442.293-.707s-.105-.52-.293-.707c-.187-.188-.442-.293-.707-.293h-32c-.265 0-.519.105-.707.293-.188.187-.293.442-.293.707s.105.52.293.707c.188.188.442.293.707.293z"/></g><path d="m146.68 140.18c.265 0 .519-.105.707-.293.188-.187.293-.442.293-.707s-.105-.52-.293-.707c-.188-.188-.442-.293-.707-.293h-32c-.265 0-.52.105-.707.293-.188.187-.293.442-.293.707s.105.52.293.707c.187.188.442.293.707.293z" fill="#eb0029"/><path d="m206.52 140.18c.265 0 .52-.105.707-.293.188-.187.293-.442.293-.707s-.105-.52-.293-.707c-.187-.188-.442-.293-.707-.293h-32c-.265 0-.52.105-.707.293-.188.187-.293.442-.293.707s.105.52.293.707c.187.188.442.293.707.293z" fill="#eb0029"/><path d="m266.37 140.18c.265 0 .52-.105.707-.293.188-.187.293-.442.293-.707s-.105-.52-.293-.707c-.187-.188-.442-.293-.707-.293h-32c-.265 0-.519.105-.707.293-.188.187-.293.442-.293.707s.105.52.293.707c.188.188.442.293.707.293z" fill="#eb0029"/><path d="m140.94 122c.265 0 .519-.105.707-.293.188-.187.293-.442.293-.707s-.105-.52-.293-.707c-.188-.188-.442-.293-.707-.293h-20.55c-.265 0-.52.105-.707.293-.188.187-.293.442-.293.707s.105.52.293.707c.187.188.442.293.707.293h20.56z" fill="#e5e5e5"/><path d="m140.94 116c.265 0 .519-.105.707-.293.188-.187.293-.442.293-.707s-.105-.52-.293-.707c-.188-.188-.442-.293-.707-.293h-20.55c-.265 0-.52.105-.707.293-.188.187-.293.442-.293.707s.105.52.293.707c.187.188.442.293.707.293h20.56z" fill="#e5e5e5"/><path d="m130.66 109.01c3.551 0 6.43-2.879 6.43-6.43 0-3.5513-2.879-6.4301-6.43-6.4301s-6.43 2.8788-6.43 6.4301c0 3.551 2.879 6.43 6.43 6.43z" fill="#eb0029"/><path d="m200.79 122c.265 0 .52-.105.707-.293.188-.187.293-.442.293-.707s-.105-.52-.293-.707c-.187-.188-.442-.293-.707-.293h-20.56c-.265 0-.52.105-.707.293-.188.187-.293.442-.293.707s.105.52.293.707c.187.188.442.293.707.293z" fill="#e5e5e5"/><path d="m200.79 116c.265 0 .52-.105.707-.293.188-.187.293-.442.293-.707s-.105-.52-.293-.707c-.187-.188-.442-.293-.707-.293h-20.56c-.265 0-.52.105-.707.293-.188.187-.293.442-.293.707s.105.52.293.707c.187.188.442.293.707.293z" fill="#e5e5e5"/><path d="m190.51 109.01c3.551 0 6.43-2.879 6.43-6.43 0-3.5513-2.879-6.4301-6.43-6.4301s-6.43 2.8788-6.43 6.4301c0 3.551 2.879 6.43 6.43 6.43z" fill="#eb0029"/><path d="m260.63 122c.265 0 .52-.105.707-.293.188-.187.293-.442.293-.707s-.105-.52-.293-.707c-.187-.188-.442-.293-.707-.293h-20.56c-.265 0-.52.105-.707.293-.188.187-.293.442-.293.707s.105.52.293.707c.187.188.442.293.707.293z" fill="#e5e5e5"/><path d="m260.63 116c.265 0 .52-.105.707-.293.188-.187.293-.442.293-.707s-.105-.52-.293-.707c-.187-.188-.442-.293-.707-.293h-20.56c-.265 0-.52.105-.707.293-.188.187-.293.442-.293.707s.105.52.293.707c.187.188.442.293.707.293z" fill="#e5e5e5"/><path d="m250.35 109.01c3.551 0 6.43-2.879 6.43-6.43 0-3.5513-2.879-6.4301-6.43-6.4301s-6.43 2.8788-6.43 6.4301c0 3.551 2.879 6.43 6.43 6.43z" fill="#eb0029"/><path d="m55.1401 212.15 3.44 1.88-2.19 7.21-3.44.31-1.89-4.07z" fill="#f4bbb9"/><path d="m44.4899 226.56v3.45l-5.33-.32.08-2.83z" fill="#f4bbb9"/><path d="m56.3899 170.8-1.88 23.5-5.95 34.45-9.4-1.25 3.13-27.25-1.25-25.06z" fill="#2f2e40"/><path d="m31.3299 153.26 22.55.31 2.51 17.23-15.39 7.2-3.76 13.78 19.11 20.36-7.52 9.4s-10.61-14.4-18.44-22.54-4.07-32.9-4.07-32.9z" fill="#2f2e40"/><path d="m44.7999 108.78c3.8053 0 6.89-3.085 6.89-6.89 0-3.8052-3.0847-6.89-6.89-6.89-3.8052 0-6.89 3.0848-6.89 6.89 0 3.805 3.0848 6.89 6.89 6.89z" fill="#f4bbb9"/><path d="m47.31 106.59v6.89l-4.7 7.52s-7.21-5.33-5.64-6.58 1.88-11 1.88-11z" fill="#f4bbb9"/><path d="m47.3099 112.22 4.7 5.64-1.88 39.16-14.73-.31-2.5-34.15 3.13-8.77 2.15-2.92 3.8 5.74z" fill="#fff"/><path d="m54.8201 132.59 3.45 13.15-3.45 13.16 5.64 7.52 5-23.81s-3.74-19.42-4.06-21.61-.94-2.51-.94-2.51l-2.5.31z" fill="#2f2e40"/><path d="m29.7599 137.6-2.19 4.07-.62 6.89 1.25 7.83-4.39 7.21-4.38-19.74 4.7-25.37h1.87z" fill="#2f2e40"/><path d="m56.3901 211.84s4.39 1.25 6 1.57-.94 6.26-.94 6.26-1.56 8.15-1.88 9.71-2.5 6.89-5.32 7.52-.94-11-.94-11c-.5672-1.625-.9856-3.299-1.25-5 0-1.25 1.87-.62 1.87-.62 4.97-.61 2.46-8.44 2.46-8.44z" fill="#2f2e40"/><path d="m46.0499 236c-.31 1.88.32 1.88-4.7 2.51s-3.75-3.51-3.75-3.51c.2059-1.921.6251-3.812 1.25-5.64.94-2.5 5.95.63 5.95.63s1.57 4.09 1.25 6.01z" fill="#2f2e40"/><path d="m38.8399 103.67-.16 2.79c-1.2445-2.954-2.0334-6.079-2.34-9.2699-.31-4.7 5-5.64 8.15-6s8.45 1.88 8.45 4.38-5.63 1.88-7.83 1.26-3.11 4.7399-3.11 4.7399l-1.25.32z" fill="#2f2e40"/><path d="m49.16 114.44-1.85-2.22-5.33 4.39 5.33 3.76z" fill="#fff"/><path d="m36.03 113.79 2.19-2.82 3.76 5.64-4.7 3.45z" fill="#fff"/><path d="m55.7601 137-1.25 11.91 2.51 7.2 1.56 6.89s0 6.58-6.26 6.89-11.59-19.73-11.59-19.73-.94 4.38-1.57 6.89-11.28 12.53-11.28 12.53-2.5-.31-4.69-5.32 4.38-9.72 4.38-9.72l1.88-6.57-.63-8.15-4.38-21.3 13-6.73-1.41 18 4.7 14.09 7.05-31.17 2.35 1.73 10 4.07z" fill="#2f2e40"/><path d="m87.3501 238.73h-80v-.66h80.12z" fill="#3f3e54"/></svg>