<svg width="300" height="300" viewBox="0 0 300 300" fill="none" xmlns="http://www.w3.org/2000/svg">
<path d="M288 0H12C5.37258 0 0 5.37258 0 12V288C0 294.627 5.37258 300 12 300H288C294.627 300 300 294.627 300 288V12C300 5.37258 294.627 0 288 0Z" fill="white"/>
<path d="M231.49 249.17C258.441 249.17 280.29 245.288 280.29 240.5C280.29 235.712 258.441 231.83 231.49 231.83C204.538 231.83 182.69 235.712 182.69 240.5C182.69 245.288 204.538 249.17 231.49 249.17Z" fill="#3F3E54"/>
<path d="M219.43 79.4099H16.78V206.06H219.43V79.4099Z" fill="#F1F1F1"/>
<path d="M45.7 84.8799H22.24V87.5499H45.7V84.8799Z" fill="#EB0029"/>
<path d="M211.02 84.8799H187.56V87.5499H211.02V84.8799Z" fill="white"/>
<path d="M61.7 89.4099H22.24V91.0099H61.7V89.4099Z" fill="#3F3E54"/>
<path d="M59.57 92.8799H22.24V94.4799H59.57V92.8799Z" fill="#3F3E54"/>
<path d="M49.44 96.3501H22.24V97.9501H49.44V96.3501Z" fill="#3F3E54"/>
<path d="M208.36 106.61H106.24V178.87H208.36V106.61Z" fill="white"/>
<path d="M75 142.77C74.2812 142.782 73.5786 142.557 73 142.13C72.4196 141.664 72.0076 141.02 71.827 140.298C71.6464 139.576 71.7072 138.814 72 138.13C72.3793 137.346 73.0043 136.707 73.78 136.31C73.2751 136.061 72.7358 135.889 72.18 135.8C70.8071 135.588 69.4025 135.83 68.18 136.49C67.5138 136.842 66.7531 136.974 66.0073 136.866C65.2616 136.758 64.5692 136.416 64.03 135.89C63.8427 135.711 63.6384 135.55 63.42 135.41C62.9624 135.097 62.4075 134.96 61.8568 135.022C61.3061 135.084 60.7961 135.343 60.42 135.75C60.2688 136.011 60.1512 136.29 60.07 136.58C60 136.77 59.94 136.97 59.86 137.16C58.96 139.16 56.5 139.96 52.53 139.47C52.0555 139.459 51.5981 139.29 51.23 138.99C50.9252 138.622 50.762 138.158 50.77 137.68C50.77 137.42 50.77 137.16 50.77 136.9C50.1238 137.711 49.3165 138.379 48.3992 138.863C47.4819 139.347 46.4743 139.635 45.44 139.71C44.8298 139.784 44.213 139.639 43.7 139.3C43.418 139.035 43.1874 138.719 43.02 138.37C42.9449 138.222 42.8614 138.078 42.77 137.94C41.95 136.73 40.38 136.6 38.77 136.94C38.77 138.23 38.45 139.86 36.83 140.54C36.5719 140.658 36.289 140.713 36.0053 140.699C35.7216 140.685 35.4454 140.603 35.2 140.46C34.9781 140.312 34.7944 140.113 34.6641 139.88C34.5337 139.647 34.4603 139.387 34.45 139.12C34.38 137.77 35.94 137.21 36.53 137C37.0908 136.803 37.6616 136.636 38.24 136.5V136.21C38.3159 135.254 38.1616 134.294 37.79 133.41C37.6112 133.016 37.3045 132.694 36.9197 132.496C36.5349 132.298 36.0945 132.236 35.67 132.32L35.5 131.81C36.0477 131.685 36.6218 131.751 37.1261 131.999C37.6303 132.247 38.0342 132.66 38.27 133.17C38.6701 134.117 38.8414 135.145 38.77 136.17V136.37C40.87 136.01 42.37 136.45 43.19 137.66C43.2966 137.812 43.3902 137.972 43.47 138.14C43.6023 138.427 43.7891 138.685 44.02 138.9C44.4296 139.161 44.9201 139.264 45.4 139.19C46.4516 139.091 47.4663 138.752 48.3661 138.199C49.266 137.646 50.0268 136.893 50.59 136C50.6016 135.284 50.6583 134.569 50.76 133.86C50.7686 133.789 50.7913 133.72 50.8268 133.658C50.8623 133.595 50.9098 133.541 50.9665 133.497C51.0233 133.453 51.0882 133.421 51.1575 133.403C51.2268 133.385 51.299 133.38 51.37 133.39V133.39C51.4398 133.397 51.5074 133.419 51.5689 133.452C51.6304 133.486 51.6846 133.532 51.7283 133.587C51.7721 133.642 51.8044 133.705 51.8236 133.772C51.8428 133.84 51.8484 133.91 51.84 133.98V133.98C51.76 134.742 51.5106 135.477 51.11 136.13C51.11 136.63 51.11 137.13 51.17 137.62C51.1543 137.979 51.2638 138.333 51.48 138.62C51.7691 138.835 52.1198 138.951 52.48 138.95C56.18 139.41 58.48 138.74 59.25 136.95C59.32 136.78 59.38 136.61 59.44 136.42C59.5405 136.087 59.6815 135.768 59.86 135.47C60.3097 134.93 60.9459 134.579 61.6425 134.486C62.339 134.394 63.0449 134.566 63.62 134.97C63.8668 135.127 64.0979 135.308 64.31 135.51C64.7701 135.958 65.3601 136.25 65.9958 136.344C66.6315 136.437 67.2804 136.327 67.85 136.03C69.1898 135.311 70.7273 135.048 72.23 135.28C72.9711 135.407 73.6848 135.661 74.34 136.03C75.1755 135.692 76.0434 135.441 76.93 135.28L84.76 133.66L84.86 134.18L77 135.8C76.2764 135.939 75.5644 136.133 74.87 136.38C76.1736 137.239 77.1467 138.515 77.63 140C77.7664 140.357 77.7977 140.746 77.72 141.12C77.61 141.479 77.3938 141.796 77.1 142.03C76.5061 142.511 75.7643 142.772 75 142.77V142.77ZM74.36 136.63C73.5452 136.957 72.8794 137.573 72.49 138.36C72.2348 138.931 72.1804 139.572 72.3358 140.178C72.4911 140.784 72.847 141.319 73.3455 141.697C73.8441 142.075 74.4559 142.273 75.0813 142.259C75.7067 142.245 76.309 142.02 76.79 141.62C77.0038 141.462 77.1642 141.242 77.25 140.99C77.2953 140.707 77.2643 140.417 77.16 140.15C76.6733 138.67 75.6636 137.419 74.32 136.63H74.36ZM38.07 137C37.5592 137.128 37.0552 137.281 36.56 137.46C35.33 137.89 34.8 138.38 34.84 139.04C34.8384 139.222 34.8823 139.402 34.9679 139.562C35.0535 139.723 35.178 139.86 35.33 139.96C35.5062 140.051 35.7017 140.099 35.9 140.099C36.0984 140.099 36.2939 140.051 36.47 139.96C37.71 139.44 38.01 138.26 38.07 136.96V137ZM51.3 133.93C51.3 134.15 51.24 134.37 51.22 134.59C51.2721 134.376 51.3088 134.159 51.33 133.94L51.3 133.93Z" fill="#EB0029"/>
<path d="M236.68 123.42C235.619 122.465 234.958 121.145 234.826 119.724C234.695 118.303 235.103 116.884 235.97 115.75C235.85 115.85 235.74 115.96 235.64 116.08C235.138 116.634 234.751 117.282 234.499 117.986C234.248 118.69 234.138 119.436 234.175 120.183C234.212 120.929 234.396 121.661 234.716 122.337C235.036 123.012 235.486 123.618 236.04 124.12C236.594 124.622 237.242 125.009 237.946 125.261C238.65 125.512 239.396 125.622 240.143 125.585C240.889 125.548 241.621 125.364 242.297 125.044C242.972 124.724 243.578 124.274 244.08 123.72C244.188 123.604 244.288 123.48 244.38 123.35C243.341 124.329 241.971 124.88 240.544 124.893C239.116 124.906 237.737 124.38 236.68 123.42Z" fill="#2F2E40"/>
<path d="M231.52 127.47C237.998 127.47 243.25 122.218 243.25 115.74C243.25 109.262 237.998 104.01 231.52 104.01C225.042 104.01 219.79 109.262 219.79 115.74C219.79 122.218 225.042 127.47 231.52 127.47Z" fill="#2F2E40"/>
<path d="M226.4 132.23L226.74 131.33L220.42 136.68L212.77 141C212.77 141 208.88 126 208.6 125.71C208.32 125.42 203.32 114.86 201.1 119.87C198.88 124.88 205.41 127.79 205.41 127.79C205.41 127.79 205.62 146.07 212.29 145.93C218.96 145.79 227.23 139.75 227.37 139.19C227.51 138.63 226.4 132.23 226.4 132.23Z" fill="#F4BAB9"/>
<path d="M214.72 217.3L213.89 229.39C212.591 230.894 211.723 232.722 211.38 234.68C211.11 237.46 208.19 242.46 208.19 242.46C208.19 242.46 207.35 243.29 209.85 243.02C212.35 242.75 216.67 242.32 217.08 241.02C217.49 239.72 217.22 234.49 219.72 233.93V238.93H221L220.58 233.5C220.58 233.5 223.5 229.5 219.88 227.11L221 218L214.72 217.3Z" fill="#2F2E40"/>
<path d="M249.19 218.27L254.19 227.59C254.19 227.59 253.49 231.06 254.19 232.17C254.89 233.28 254.88 237.04 254.74 237.46C254.6 237.88 254.47 241.63 257.94 241.9C257.94 241.9 258.77 242.74 259.75 241.63C260.73 240.52 262.25 238.43 261.69 237.32C261.13 236.21 259.19 227.03 259.05 226.75C258.91 226.47 254.88 215.49 254.88 215.49L249.19 218.27Z" fill="#2F2E40"/>
<path d="M230.34 127.98C234.178 127.98 237.29 124.868 237.29 121.03C237.29 117.192 234.178 114.08 230.34 114.08C226.502 114.08 223.39 117.192 223.39 121.03C223.39 124.868 226.502 127.98 230.34 127.98Z" fill="#F4BAB9"/>
<path d="M229.59 127.23C229.59 127.23 231.4 129.59 230.84 129.87C230.28 130.15 227.09 130.28 225.15 132.65C223.21 135.02 227.51 140.99 227.51 140.99L243.91 129.99L237.24 127.76C237.24 127.76 235.07 124.38 235.24 121.76L229.59 127.23Z" fill="#F4BAB9"/>
<path d="M247.11 130.42L242.38 128.75C242.38 128.75 224.31 137.23 224.59 137.65C224.87 138.07 224.59 140.99 224.59 140.99C224.59 140.99 221.95 142.79 223.2 146.99C224.45 151.19 227.2 151.3 226.81 151.86C226.42 152.42 226.26 155.75 226.26 155.75C226.26 155.75 204.57 188.97 206.38 213.75C206.38 213.75 225.56 226.67 228.2 218.33C230.84 209.99 231.68 188.17 231.68 188.17C231.68 188.17 234.04 222.36 239.6 222.23C245.16 222.1 257.81 220.28 256.7 215.97C255.59 211.66 246.55 193.87 247.53 181.22C248.51 168.57 240.85 157.59 240.85 157.59C240.85 157.59 242.52 154.11 241.69 153.59L250.86 139.69C250.86 139.69 250.86 131.67 247.11 130.42Z" fill="#2F2E40"/>
<path d="M247.18 131.24C246.898 131.082 246.564 131.043 246.253 131.131C245.941 131.219 245.678 131.427 245.52 131.71C245.489 131.768 245.462 131.828 245.44 131.89C245.02 133.04 244.59 135.44 244.75 140.43C245.02 149.61 245.16 155.86 245.16 155.86V169.76C245.16 169.76 239.05 183.11 242.38 183.11C245.71 183.11 248.08 172.54 248.08 172.54C248.08 172.54 251.14 156.54 250.17 153.78C250.17 153.78 252.91 134.57 247.18 131.24Z" fill="#F4BAB9"/>
<path d="M229.29 118.7C232.587 118.7 235.26 116.878 235.26 114.63C235.26 112.382 232.587 110.56 229.29 110.56C225.993 110.56 223.32 112.382 223.32 114.63C223.32 116.878 225.993 118.7 229.29 118.7Z" fill="#2F2E40"/>
<path d="M238.76 111.43C241.903 111.43 244.45 108.883 244.45 105.74C244.45 102.598 241.903 100.05 238.76 100.05C235.618 100.05 233.07 102.598 233.07 105.74C233.07 108.883 235.618 111.43 238.76 111.43Z" fill="#2F2E40"/>
<path d="M242.83 109.81C241.402 109.81 240.027 109.273 238.977 108.306C237.926 107.339 237.278 106.013 237.16 104.59C237.15 104.75 237.15 104.91 237.16 105.07C237.222 106.539 237.849 107.928 238.91 108.945C239.971 109.963 241.385 110.531 242.855 110.531C244.325 110.531 245.739 109.963 246.8 108.945C247.862 107.928 248.488 106.539 248.55 105.07V105.07C248.55 104.91 248.55 104.75 248.55 104.59C248.431 106.021 247.776 107.355 246.715 108.323C245.654 109.291 244.266 109.823 242.83 109.81V109.81Z" fill="#2F2E40"/>
<path d="M237.138 119.836C237.402 119.773 237.5 119.238 237.357 118.642C237.215 118.046 236.886 117.613 236.623 117.676C236.36 117.739 236.262 118.273 236.404 118.87C236.546 119.466 236.875 119.898 237.138 119.836Z" fill="#F4BAB9"/>
<path d="M237.08 119.71C237.235 119.71 237.36 119.585 237.36 119.43C237.36 119.275 237.235 119.15 237.08 119.15C236.925 119.15 236.8 119.275 236.8 119.43C236.8 119.585 236.925 119.71 237.08 119.71Z" fill="#F1F1F1"/>
<path d="M205.42 120.88H103.3V193.14H205.42V120.88Z" fill="#3F3E54"/>
<path d="M113.7 139.01C116.351 139.01 118.5 136.861 118.5 134.21C118.5 131.559 116.351 129.41 113.7 129.41C111.049 129.41 108.9 131.559 108.9 134.21C108.9 136.861 111.049 139.01 113.7 139.01Z" fill="#EB0029"/>
<path d="M127.3 136.61C127.593 136.61 127.83 136.373 127.83 136.08C127.83 135.787 127.593 135.55 127.3 135.55C127.007 135.55 126.77 135.787 126.77 136.08C126.77 136.373 127.007 136.61 127.3 136.61Z" fill="#F1F1F1"/>
<path d="M110.77 151.27C111.063 151.27 111.3 151.033 111.3 150.74C111.3 150.447 111.063 150.21 110.77 150.21C110.477 150.21 110.24 150.447 110.24 150.74C110.24 151.033 110.477 151.27 110.77 151.27Z" fill="#F1F1F1"/>
<path d="M120.64 142.48C120.789 142.48 120.91 142.359 120.91 142.21C120.91 142.061 120.789 141.94 120.64 141.94C120.491 141.94 120.37 142.061 120.37 142.21C120.37 142.359 120.491 142.48 120.64 142.48Z" fill="#F1F1F1"/>
<path d="M148.1 165.94C148.249 165.94 148.37 165.819 148.37 165.67C148.37 165.521 148.249 165.4 148.1 165.4C147.951 165.4 147.83 165.521 147.83 165.67C147.83 165.819 147.951 165.94 148.1 165.94Z" fill="#F1F1F1"/>
<path d="M176.63 161.68C176.779 161.68 176.9 161.559 176.9 161.41C176.9 161.261 176.779 161.14 176.63 161.14C176.481 161.14 176.36 161.261 176.36 161.41C176.36 161.559 176.481 161.68 176.63 161.68Z" fill="#F1F1F1"/>
<path d="M172.36 183.81C172.509 183.81 172.63 183.689 172.63 183.54C172.63 183.391 172.509 183.27 172.36 183.27C172.211 183.27 172.09 183.391 172.09 183.54C172.09 183.689 172.211 183.81 172.36 183.81Z" fill="#F1F1F1"/>
<path d="M165.43 134.48C165.579 134.48 165.7 134.359 165.7 134.21C165.7 134.061 165.579 133.94 165.43 133.94C165.281 133.94 165.16 134.061 165.16 134.21C165.16 134.359 165.281 134.48 165.43 134.48Z" fill="#F1F1F1"/>
<path d="M159.3 150.74C159.449 150.74 159.57 150.619 159.57 150.47C159.57 150.321 159.449 150.2 159.3 150.2C159.151 150.2 159.03 150.321 159.03 150.47C159.03 150.619 159.151 150.74 159.3 150.74Z" fill="#F1F1F1"/>
<path d="M115.3 163.28C115.449 163.28 115.57 163.159 115.57 163.01C115.57 162.861 115.449 162.74 115.3 162.74C115.151 162.74 115.03 162.861 115.03 163.01C115.03 163.159 115.151 163.28 115.3 163.28Z" fill="#F1F1F1"/>
<path d="M123.3 179.28C123.449 179.28 123.57 179.159 123.57 179.01C123.57 178.861 123.449 178.74 123.3 178.74C123.151 178.74 123.03 178.861 123.03 179.01C123.03 179.159 123.151 179.28 123.3 179.28Z" fill="#F1F1F1"/>
<path d="M140.9 157.14C141.049 157.14 141.17 157.019 141.17 156.87C141.17 156.721 141.049 156.6 140.9 156.6C140.751 156.6 140.63 156.721 140.63 156.87C140.63 157.019 140.751 157.14 140.9 157.14Z" fill="#F1F1F1"/>
<path d="M185.43 131.28C185.579 131.28 185.7 131.159 185.7 131.01C185.7 130.861 185.579 130.74 185.43 130.74C185.281 130.74 185.16 130.861 185.16 131.01C185.16 131.159 185.281 131.28 185.43 131.28Z" fill="#F1F1F1"/>
<path d="M154.77 178.74C154.919 178.74 155.04 178.619 155.04 178.47C155.04 178.321 154.919 178.2 154.77 178.2C154.621 178.2 154.5 178.321 154.5 178.47C154.5 178.619 154.621 178.74 154.77 178.74Z" fill="#F1F1F1"/>
<path d="M185.7 142.75C185.849 142.75 185.97 142.629 185.97 142.48C185.97 142.331 185.849 142.21 185.7 142.21C185.551 142.21 185.43 142.331 185.43 142.48C185.43 142.629 185.551 142.75 185.7 142.75Z" fill="#F1F1F1"/>
<path opacity="0.1" d="M205.43 131.06V137.13L133.7 152.34L205.43 131.06Z" fill="#F1F1F1"/>
<path opacity="0.1" d="M166.5 156.87L149.7 164.87L166.5 157.67V156.87Z" fill="#F1F1F1"/>
<path opacity="0.1" d="M205.43 161.49L193.16 166.74L205.43 160.9V161.49Z" fill="#F1F1F1"/>
<path opacity="0.4" d="M140.23 84.66C144.83 84.66 148.56 80.9305 148.56 76.33C148.56 71.7295 144.83 68 140.23 68C135.629 68 131.9 71.7295 131.9 76.33C131.9 80.9305 135.629 84.66 140.23 84.66Z" fill="#EB0029"/>
<path opacity="0.4" d="M124.81 86.15C128.035 86.15 130.65 83.5353 130.65 80.31C130.65 77.0846 128.035 74.47 124.81 74.47C121.585 74.47 118.97 77.0846 118.97 80.31C118.97 83.5353 121.585 86.15 124.81 86.15Z" fill="#EB0029"/>
<path d="M263.12 239.33H262.59C262.8 233.403 263.431 227.498 264.48 221.66C266.79 209.16 270.62 200.95 275.88 197.26L276.19 197.7C263.91 206.31 263.13 239 263.12 239.33Z" fill="#2F2E40"/>
<path d="M269.79 239.21H269.26C269.26 238.62 269.6 224.7 275.08 220.85L275.39 221.29C270.13 225 269.79 239.07 269.79 239.21Z" fill="#2F2E40"/>
<path d="M279.22 197.74C280.695 197.74 281.89 196.545 281.89 195.07C281.89 193.595 280.695 192.4 279.22 192.4C277.745 192.4 276.55 193.595 276.55 195.07C276.55 196.545 277.745 197.74 279.22 197.74Z" fill="#EB0029"/>
<path d="M277.9 220.67C279.375 220.67 280.57 219.475 280.57 218C280.57 216.525 279.375 215.33 277.9 215.33C276.425 215.33 275.23 216.525 275.23 218C275.23 219.475 276.425 220.67 277.9 220.67Z" fill="#EB0029"/>
<path d="M268.55 199.33C268.816 201.389 268.536 203.482 267.74 205.4C266.351 203.848 265.44 201.926 265.119 199.868C264.798 197.809 265.08 195.702 265.93 193.8C267.272 195.382 268.176 197.289 268.55 199.33Z" fill="#2F2E40"/>
<path d="M277.26 207.11C275.281 207.731 273.174 207.82 271.15 207.37C272.438 205.736 274.171 204.507 276.139 203.831C278.108 203.156 280.229 203.061 282.25 203.56C280.925 205.159 279.205 206.383 277.26 207.11V207.11Z" fill="#2F2E40"/>
<path d="M277.36 227.41C275.975 227.847 274.499 227.913 273.08 227.6C273.98 226.45 275.194 225.586 276.575 225.112C277.955 224.639 279.444 224.575 280.86 224.93C279.932 226.05 278.725 226.906 277.36 227.41Z" fill="#2F2E40"/>
</svg>
