<svg fill="none" height="300" viewBox="0 0 300 300" width="300" xmlns="http://www.w3.org/2000/svg"><path d="m288 0h-276c-6.62742 0-12 5.37258-12 12v276c0 6.627 5.37258 12 12 12h276c6.627 0 12-5.373 12-12v-276c0-6.62742-5.373-12-12-12z" fill="#fff"/><path d="m231.49 249.17c26.951 0 48.8-3.882 48.8-8.67s-21.849-8.67-48.8-8.67c-26.952 0-48.8 3.882-48.8 8.67s21.848 8.67 48.8 8.67z" fill="#3f3e54"/><path d="m219.43 79.4099h-202.65v126.6501h202.65z" fill="#f1f1f1"/><path d="m45.7 84.8799h-23.46v2.67h23.46z" fill="#eb0029"/><path d="m211.02 84.8799h-23.46v2.67h23.46z" fill="#fff"/><path d="m61.7 89.4099h-39.46v1.6h39.46z" fill="#3f3e54"/><path d="m59.57 92.8799h-37.33v1.6h37.33z" fill="#3f3e54"/><path d="m49.44 96.3501h-27.2v1.6h27.2z" fill="#3f3e54"/><path d="m208.36 106.61h-102.12v72.26h102.12z" fill="#fff"/><path d="m75 142.77c-.7188.012-1.4214-.213-2-.64-.5804-.466-.9924-1.11-1.173-1.832s-.1198-1.484.173-2.168c.3793-.784 1.0043-1.423 1.78-1.82-.5049-.249-1.0442-.421-1.6-.51-1.3729-.212-2.7775.03-4 .69-.6662.352-1.4269.484-2.1727.376-.7457-.108-1.4381-.45-1.9773-.976-.1873-.179-.3916-.34-.61-.48-.4576-.313-1.0125-.45-1.5632-.388s-1.0607.321-1.4368.728c-.1512.261-.2688.54-.35.83-.07.19-.13.39-.21.58-.9 2-3.36 2.8-7.33 2.31-.4745-.011-.9319-.18-1.3-.48-.3048-.368-.468-.832-.46-1.31 0-.26 0-.52 0-.78-.6462.811-1.4535 1.479-2.3708 1.963s-1.9249.772-2.9592.847c-.6102.074-1.227-.071-1.74-.41-.282-.265-.5126-.581-.68-.93-.0751-.148-.1586-.292-.25-.43-.82-1.21-2.39-1.34-4-1 0 1.29-.32 2.92-1.94 3.6-.2581.118-.541.173-.8247.159s-.5599-.096-.8053-.239c-.2219-.148-.4056-.347-.5359-.58-.1304-.233-.2038-.493-.2141-.76-.07-1.35 1.49-1.91 2.08-2.12.5608-.197 1.1316-.364 1.71-.5v-.29c.0759-.956-.0784-1.916-.45-2.8-.1788-.394-.4855-.716-.8703-.914s-.8252-.26-1.2497-.176l-.17-.51c.5477-.125 1.1218-.059 1.6261.189.5042.248.9081.661 1.1439 1.171.4001.947.5714 1.975.5 3v.2c2.1-.36 3.6.08 4.42 1.29.1066.152.2002.312.28.48.1323.287.3191.545.55.76.4096.261.9001.364 1.38.29 1.0516-.099 2.0663-.438 2.9661-.991.8999-.553 1.6607-1.306 2.2239-2.199.0116-.716.0683-1.431.17-2.14.0086-.071.0313-.14.0668-.202.0355-.063.083-.117.1397-.161.0568-.044.1217-.076.191-.094s.1415-.023.2125-.013c.0698.007.1374.029.1989.062.0615.034.1157.08.1594.135.0438.055.0761.118.0953.185.0192.068.0248.138.0164.208-.08.762-.3294 1.497-.73 2.15 0 .5 0 1 .06 1.49-.0157.359.0938.713.31 1 .2891.215.6398.331 1 .33 3.7.46 6-.21 6.77-2 .07-.17.13-.34.19-.53.1005-.333.2415-.652.42-.95.4497-.54 1.0859-.891 1.7825-.984.6965-.092 1.4024.08 1.9775.484.2468.157.4779.338.69.54.4601.448 1.0501.74 1.6858.834.6357.093 1.2846-.017 1.8542-.314 1.3398-.719 2.8773-.982 4.38-.75.7411.127 1.4548.381 2.11.75.8355-.338 1.7034-.589 2.59-.75l7.83-1.62.1.52-7.86 1.62c-.7236.139-1.4356.333-2.13.58 1.3036.859 2.2767 2.135 2.76 3.62.1364.357.1677.746.09 1.12-.11.359-.3262.676-.62.91-.5939.481-1.3357.742-2.1.74zm-.64-6.14c-.8148.327-1.4806.943-1.87 1.73-.2552.571-.3096 1.212-.1542 1.818.1553.606.5112 1.141 1.0097 1.519.4986.378 1.1104.576 1.7358.562s1.2277-.239 1.7087-.639c.2138-.158.3742-.378.46-.63.0453-.283.0143-.573-.09-.84-.4867-1.48-1.4964-2.731-2.84-3.52zm-36.29.37c-.5108.128-1.0148.281-1.51.46-1.23.43-1.76.92-1.72 1.58-.0016.182.0423.362.1279.522.0856.161.2101.298.3621.398.1762.091.3717.139.57.139.1984 0 .3939-.048.57-.139 1.24-.52 1.54-1.7 1.6-3zm13.23-3.07c0 .22-.06.44-.08.66.0521-.214.0888-.431.11-.65z" fill="#eb0029"/><path d="m236.68 123.42c-1.061-.955-1.722-2.275-1.854-3.696-.131-1.421.277-2.84 1.144-3.974-.12.1-.23.21-.33.33-.502.554-.889 1.202-1.141 1.906-.251.704-.361 1.45-.324 2.197.037.746.221 1.478.541 2.154.32.675.77 1.281 1.324 1.783s1.202.889 1.906 1.141c.704.251 1.45.361 2.197.324.746-.037 1.478-.221 2.154-.541.675-.32 1.281-.77 1.783-1.324.108-.116.208-.24.3-.37-1.039.979-2.409 1.53-3.836 1.543-1.428.013-2.807-.513-3.864-1.473z" fill="#2f2e40"/><path d="m231.52 127.47c6.478 0 11.73-5.252 11.73-11.73s-5.252-11.73-11.73-11.73-11.73 5.252-11.73 11.73 5.252 11.73 11.73 11.73z" fill="#2f2e40"/><path d="m226.4 132.23.34-.9-6.32 5.35-7.65 4.32s-3.89-15-4.17-15.29-5.28-10.85-7.5-5.84 4.31 7.92 4.31 7.92.21 18.28 6.88 18.14 14.94-6.18 15.08-6.74-.97-6.96-.97-6.96z" fill="#f4bab9"/><path d="m214.72 217.3-.83 12.09c-1.299 1.504-2.167 3.332-2.51 5.29-.27 2.78-3.19 7.78-3.19 7.78s-.84.83 1.66.56 6.82-.7 7.23-2 .14-6.53 2.64-7.09v5h1.28l-.42-5.43s2.92-4-.7-6.39l1.12-9.11z" fill="#2f2e40"/><path d="m249.19 218.27 5 9.32s-.7 3.47 0 4.58.69 4.87.55 5.29-.27 4.17 3.2 4.44c0 0 .83.84 1.81-.27s2.5-3.2 1.94-4.31-2.5-10.29-2.64-10.57-4.17-11.26-4.17-11.26z" fill="#2f2e40"/><path d="m230.34 127.98c3.838 0 6.95-3.112 6.95-6.95s-3.112-6.95-6.95-6.95-6.95 3.112-6.95 6.95 3.112 6.95 6.95 6.95z" fill="#f4bab9"/><path d="m229.59 127.23s1.81 2.36 1.25 2.64-3.75.41-5.69 2.78 2.36 8.34 2.36 8.34l16.4-11-6.67-2.23s-2.17-3.38-2-6z" fill="#f4bab9"/><path d="m247.11 130.42-4.73-1.67s-18.07 8.48-17.79 8.9 0 3.34 0 3.34-2.64 1.8-1.39 6 4 4.31 3.61 4.87-.55 3.89-.55 3.89-21.69 33.22-19.88 58c0 0 19.18 12.92 21.82 4.58s3.48-30.16 3.48-30.16 2.36 34.19 7.92 34.06 18.21-1.95 17.1-6.26-10.15-22.1-9.17-34.75-6.68-23.63-6.68-23.63 1.67-3.48.84-4l9.17-13.9s0-8.02-3.75-9.27z" fill="#2f2e40"/><path d="m247.18 131.24c-.282-.158-.616-.197-.927-.109-.312.088-.575.296-.733.579-.031.058-.058.118-.08.18-.42 1.15-.85 3.55-.69 8.54.27 9.18.41 15.43.41 15.43v13.9s-6.11 13.35-2.78 13.35 5.7-10.57 5.7-10.57 3.06-16 2.09-18.76c0 0 2.74-19.21-2.99-22.54z" fill="#f4bab9"/><path d="m229.29 118.7c3.297 0 5.97-1.822 5.97-4.07s-2.673-4.07-5.97-4.07-5.97 1.822-5.97 4.07 2.673 4.07 5.97 4.07z" fill="#2f2e40"/><path d="m238.76 111.43c3.143 0 5.69-2.547 5.69-5.69 0-3.142-2.547-5.69-5.69-5.69-3.142 0-5.69 2.548-5.69 5.69 0 3.143 2.548 5.69 5.69 5.69z" fill="#2f2e40"/><path d="m242.83 109.81c-1.428 0-2.803-.537-3.853-1.504-1.051-.967-1.699-2.293-1.817-3.716-.01.16-.01.32 0 .48.062 1.469.689 2.858 1.75 3.875 1.061 1.018 2.475 1.586 3.945 1.586s2.884-.568 3.945-1.586c1.062-1.017 1.688-2.406 1.75-3.875 0-.16 0-.32 0-.48-.119 1.431-.774 2.765-1.835 3.733s-2.449 1.5-3.885 1.487z" fill="#2f2e40"/><path d="m237.138 119.836c.264-.063.362-.598.219-1.194-.142-.596-.471-1.029-.734-.966s-.361.597-.219 1.194c.142.596.471 1.028.734.966z" fill="#f4bab9"/><path d="m237.08 119.71c.155 0 .28-.125.28-.28s-.125-.28-.28-.28-.28.125-.28.28.125.28.28.28z" fill="#f1f1f1"/><path d="m205.42 120.88h-102.12v72.26h102.12z" fill="#3f3e54"/><path d="m113.7 139.01c2.651 0 4.8-2.149 4.8-4.8s-2.149-4.8-4.8-4.8-4.8 2.149-4.8 4.8 2.149 4.8 4.8 4.8z" fill="#eb0029"/><g fill="#f1f1f1"><path d="m127.3 136.61c.293 0 .53-.237.53-.53s-.237-.53-.53-.53-.53.237-.53.53.237.53.53.53z"/><path d="m110.77 151.27c.293 0 .53-.237.53-.53s-.237-.53-.53-.53-.53.237-.53.53.237.53.53.53z"/><path d="m120.64 142.48c.149 0 .27-.121.27-.27s-.121-.27-.27-.27-.27.121-.27.27.121.27.27.27z"/><path d="m148.1 165.94c.149 0 .27-.121.27-.27s-.121-.27-.27-.27-.27.121-.27.27.121.27.27.27z"/><path d="m176.63 161.68c.149 0 .27-.121.27-.27s-.121-.27-.27-.27-.27.121-.27.27.121.27.27.27z"/><path d="m172.36 183.81c.149 0 .27-.121.27-.27s-.121-.27-.27-.27-.27.121-.27.27.121.27.27.27z"/><path d="m165.43 134.48c.149 0 .27-.121.27-.27s-.121-.27-.27-.27-.27.121-.27.27.121.27.27.27z"/><path d="m159.3 150.74c.149 0 .27-.121.27-.27s-.121-.27-.27-.27-.27.121-.27.27.121.27.27.27z"/><path d="m115.3 163.28c.149 0 .27-.121.27-.27s-.121-.27-.27-.27-.27.121-.27.27.121.27.27.27z"/><path d="m123.3 179.28c.149 0 .27-.121.27-.27s-.121-.27-.27-.27-.27.121-.27.27.121.27.27.27z"/><path d="m140.9 157.14c.149 0 .27-.121.27-.27s-.121-.27-.27-.27-.27.121-.27.27.121.27.27.27z"/><path d="m185.43 131.28c.149 0 .27-.121.27-.27s-.121-.27-.27-.27-.27.121-.27.27.121.27.27.27z"/><path d="m154.77 178.74c.149 0 .27-.121.27-.27s-.121-.27-.27-.27-.27.121-.27.27.121.27.27.27z"/><path d="m185.7 142.75c.149 0 .27-.121.27-.27s-.121-.27-.27-.27-.27.121-.27.27.121.27.27.27z"/><path d="m205.43 131.06v6.07l-71.73 15.21z" opacity=".1"/><path d="m166.5 156.87-16.8 8 16.8-7.2z" opacity=".1"/><path d="m205.43 161.49-12.27 5.25 12.27-5.84z" opacity=".1"/></g><path d="m140.23 84.66c4.6 0 8.33-3.7295 8.33-8.33s-3.73-8.33-8.33-8.33c-4.601 0-8.33 3.7295-8.33 8.33s3.729 8.33 8.33 8.33z" fill="#eb0029" opacity=".4"/><path d="m124.81 86.15c3.225 0 5.84-2.6147 5.84-5.84 0-3.2254-2.615-5.84-5.84-5.84s-5.84 2.6146-5.84 5.84c0 3.2253 2.615 5.84 5.84 5.84z" fill="#eb0029" opacity=".4"/><path d="m263.12 239.33h-.53c.21-5.927.841-11.832 1.89-17.67 2.31-12.5 6.14-20.71 11.4-24.4l.31.44c-12.28 8.61-13.06 41.3-13.07 41.63z" fill="#2f2e40"/><path d="m269.79 239.21h-.53c0-.59.34-14.51 5.82-18.36l.31.44c-5.26 3.71-5.6 17.78-5.6 17.92z" fill="#2f2e40"/><path d="m279.22 197.74c1.475 0 2.67-1.195 2.67-2.67s-1.195-2.67-2.67-2.67-2.67 1.195-2.67 2.67 1.195 2.67 2.67 2.67z" fill="#eb0029"/><path d="m277.9 220.67c1.475 0 2.67-1.195 2.67-2.67s-1.195-2.67-2.67-2.67-2.67 1.195-2.67 2.67 1.195 2.67 2.67 2.67z" fill="#eb0029"/><path d="m268.55 199.33c.266 2.059-.014 4.152-.81 6.07-1.389-1.552-2.3-3.474-2.621-5.532-.321-2.059-.039-4.166.811-6.068 1.342 1.582 2.246 3.489 2.62 5.53z" fill="#2f2e40"/><path d="m277.26 207.11c-1.979.621-4.086.71-6.11.26 1.288-1.634 3.021-2.863 4.989-3.539 1.969-.675 4.09-.77 6.111-.271-1.325 1.599-3.045 2.823-4.99 3.55z" fill="#2f2e40"/><path d="m277.36 227.41c-1.385.437-2.861.503-4.28.19.9-1.15 2.114-2.014 3.495-2.488 1.38-.473 2.869-.537 4.285-.182-.928 1.12-2.135 1.976-3.5 2.48z" fill="#2f2e40"/></svg>