<svg fill="none" height="300" viewBox="0 0 300 300" width="300" xmlns="http://www.w3.org/2000/svg"><path d="m288 0h-276c-6.62742 0-12 5.37258-12 12v276c0 6.627 5.37258 12 12 12h276c6.627 0 12-5.373 12-12v-276c0-6.62742-5.373-12-12-12z" fill="#fff"/><path d="m293.85 251.15h-87.12v-.71h87.25z" fill="#3f3e54"/><path d="m19.4399 47.02c1.3863 0 2.51-1.1238 2.51-2.51s-1.1237-2.51-2.51-2.51c-1.3862 0-2.51 1.1238-2.51 2.51s1.1238 2.51 2.51 2.51z" fill="#e5e5e5"/><path d="m32.1499 47.02c1.3862 0 2.51-1.1238 2.51-2.51s-1.1238-2.51-2.51-2.51-2.51 1.1238-2.51 2.51 1.1238 2.51 2.51 2.51z" fill="#e5e5e5"/><path d="m44.8601 47.02c1.3862 0 2.51-1.1238 2.51-2.51s-1.1238-2.51-2.51-2.51-2.51 1.1238-2.51 2.51 1.1238 2.51 2.51 2.51z" fill="#e5e5e5"/><path d="m57.5701 47.02c1.3862 0 2.51-1.1238 2.51-2.51s-1.1238-2.51-2.51-2.51c-1.3863 0-2.51 1.1238-2.51 2.51s1.1237 2.51 2.51 2.51z" fill="#e5e5e5"/><path d="m70.28 47.02c1.3863 0 2.51-1.1238 2.51-2.51s-1.1237-2.51-2.51-2.51c-1.3862 0-2.51 1.1238-2.51 2.51s1.1238 2.51 2.51 2.51z" fill="#e5e5e5"/><path d="m83 47.02c1.3862 0 2.51-1.1238 2.51-2.51s-1.1238-2.51-2.51-2.51-2.51 1.1238-2.51 2.51 1.1238 2.51 2.51 2.51z" fill="#e5e5e5"/><path d="m95.71 47.02c1.3862 0 2.51-1.1238 2.51-2.51s-1.1238-2.51-2.51-2.51c-1.3863 0-2.51 1.1238-2.51 2.51s1.1237 2.51 2.51 2.51z" fill="#e5e5e5"/><path d="m108.42 47.02c1.386 0 2.51-1.1238 2.51-2.51s-1.124-2.51-2.51-2.51-2.51 1.1238-2.51 2.51 1.124 2.51 2.51 2.51z" fill="#e5e5e5"/><path d="m121.13 47.02c1.386 0 2.51-1.1238 2.51-2.51s-1.124-2.51-2.51-2.51-2.51 1.1238-2.51 2.51 1.124 2.51 2.51 2.51z" fill="#e5e5e5"/><path d="m133.84 47.02c1.386 0 2.51-1.1238 2.51-2.51s-1.124-2.51-2.51-2.51-2.51 1.1238-2.51 2.51 1.124 2.51 2.51 2.51z" fill="#e5e5e5"/><path d="m19.4399 59.8901c1.3863 0 2.51-1.1237 2.51-2.51 0-1.3862-1.1237-2.51-2.51-2.51-1.3862 0-2.51 1.1238-2.51 2.51 0 1.3863 1.1238 2.51 2.51 2.51z" fill="#e5e5e5"/><path d="m32.1499 59.8901c1.3862 0 2.51-1.1237 2.51-2.51 0-1.3862-1.1238-2.51-2.51-2.51s-2.51 1.1238-2.51 2.51c0 1.3863 1.1238 2.51 2.51 2.51z" fill="#e5e5e5"/><path d="m44.8601 59.8901c1.3862 0 2.51-1.1237 2.51-2.51 0-1.3862-1.1238-2.51-2.51-2.51s-2.51 1.1238-2.51 2.51c0 1.3863 1.1238 2.51 2.51 2.51z" fill="#e5e5e5"/><path d="m57.5701 59.8901c1.3862 0 2.51-1.1237 2.51-2.51 0-1.3862-1.1238-2.51-2.51-2.51-1.3863 0-2.51 1.1238-2.51 2.51 0 1.3863 1.1237 2.51 2.51 2.51z" fill="#eb0029"/><path d="m70.28 59.8901c1.3863 0 2.51-1.1237 2.51-2.51 0-1.3862-1.1237-2.51-2.51-2.51-1.3862 0-2.51 1.1238-2.51 2.51 0 1.3863 1.1238 2.51 2.51 2.51z" fill="#e5e5e5"/><path d="m83 59.8901c1.3862 0 2.51-1.1237 2.51-2.51 0-1.3862-1.1238-2.51-2.51-2.51s-2.51 1.1238-2.51 2.51c0 1.3863 1.1238 2.51 2.51 2.51z" fill="#e5e5e5"/><path d="m95.71 59.8901c1.3862 0 2.51-1.1237 2.51-2.51 0-1.3862-1.1238-2.51-2.51-2.51-1.3863 0-2.51 1.1238-2.51 2.51 0 1.3863 1.1237 2.51 2.51 2.51z" fill="#e5e5e5"/><path d="m108.42 59.8901c1.386 0 2.51-1.1237 2.51-2.51 0-1.3862-1.124-2.51-2.51-2.51s-2.51 1.1238-2.51 2.51c0 1.3863 1.124 2.51 2.51 2.51z" fill="#e5e5e5"/><path d="m121.13 59.8901c1.386 0 2.51-1.1237 2.51-2.51 0-1.3862-1.124-2.51-2.51-2.51s-2.51 1.1238-2.51 2.51c0 1.3863 1.124 2.51 2.51 2.51z" fill="#e5e5e5"/><path d="m133.84 59.8901c1.386 0 2.51-1.1237 2.51-2.51 0-1.3862-1.124-2.51-2.51-2.51s-2.51 1.1238-2.51 2.51c0 1.3863 1.124 2.51 2.51 2.51z" fill="#e5e5e5"/><path d="m19.4399 72.76c1.3863 0 2.51-1.1238 2.51-2.51s-1.1237-2.51-2.51-2.51c-1.3862 0-2.51 1.1238-2.51 2.51s1.1238 2.51 2.51 2.51z" fill="#e5e5e5"/><path d="m32.1499 72.76c1.3862 0 2.51-1.1238 2.51-2.51s-1.1238-2.51-2.51-2.51-2.51 1.1238-2.51 2.51 1.1238 2.51 2.51 2.51z" fill="#e5e5e5"/><path d="m44.8601 72.76c1.3862 0 2.51-1.1238 2.51-2.51s-1.1238-2.51-2.51-2.51-2.51 1.1238-2.51 2.51 1.1238 2.51 2.51 2.51z" fill="#e5e5e5"/><path d="m57.5701 72.76c1.3862 0 2.51-1.1238 2.51-2.51s-1.1238-2.51-2.51-2.51c-1.3863 0-2.51 1.1238-2.51 2.51s1.1237 2.51 2.51 2.51z" fill="#e5e5e5"/><path d="m70.28 72.76c1.3863 0 2.51-1.1238 2.51-2.51s-1.1237-2.51-2.51-2.51c-1.3862 0-2.51 1.1238-2.51 2.51s1.1238 2.51 2.51 2.51z" fill="#e5e5e5"/><path d="m83 72.76c1.3862 0 2.51-1.1238 2.51-2.51s-1.1238-2.51-2.51-2.51-2.51 1.1238-2.51 2.51 1.1238 2.51 2.51 2.51z" fill="#e5e5e5"/><path d="m95.71 72.76c1.3862 0 2.51-1.1238 2.51-2.51s-1.1238-2.51-2.51-2.51c-1.3863 0-2.51 1.1238-2.51 2.51s1.1237 2.51 2.51 2.51z" fill="#e5e5e5"/><path d="m108.42 72.76c1.386 0 2.51-1.1238 2.51-2.51s-1.124-2.51-2.51-2.51-2.51 1.1238-2.51 2.51 1.124 2.51 2.51 2.51z" fill="#e5e5e5"/><path d="m121.13 72.76c1.386 0 2.51-1.1238 2.51-2.51s-1.124-2.51-2.51-2.51-2.51 1.1238-2.51 2.51 1.124 2.51 2.51 2.51z" fill="#e5e5e5"/><path d="m133.84 72.76c1.386 0 2.51-1.1238 2.51-2.51s-1.124-2.51-2.51-2.51-2.51 1.1238-2.51 2.51 1.124 2.51 2.51 2.51z" fill="#e5e5e5"/><path d="m19.4399 85.6401c1.3863 0 2.51-1.1238 2.51-2.51s-1.1237-2.51-2.51-2.51c-1.3862 0-2.51 1.1238-2.51 2.51s1.1238 2.51 2.51 2.51z" fill="#e5e5e5"/><path d="m32.1499 85.6401c1.3862 0 2.51-1.1238 2.51-2.51s-1.1238-2.51-2.51-2.51-2.51 1.1238-2.51 2.51 1.1238 2.51 2.51 2.51z" fill="#e5e5e5"/><path d="m44.8601 85.6401c1.3862 0 2.51-1.1238 2.51-2.51s-1.1238-2.51-2.51-2.51-2.51 1.1238-2.51 2.51 1.1238 2.51 2.51 2.51z" fill="#e5e5e5"/><path d="m57.5701 85.6401c1.3862 0 2.51-1.1238 2.51-2.51s-1.1238-2.51-2.51-2.51c-1.3863 0-2.51 1.1238-2.51 2.51s1.1237 2.51 2.51 2.51z" fill="#e5e5e5"/><path d="m70.28 85.6401c1.3863 0 2.51-1.1238 2.51-2.51s-1.1237-2.51-2.51-2.51c-1.3862 0-2.51 1.1238-2.51 2.51s1.1238 2.51 2.51 2.51z" fill="#e5e5e5"/><path d="m83 85.6401c1.3862 0 2.51-1.1238 2.51-2.51s-1.1238-2.51-2.51-2.51-2.51 1.1238-2.51 2.51 1.1238 2.51 2.51 2.51z" fill="#e5e5e5"/><path d="m95.71 85.6401c1.3862 0 2.51-1.1238 2.51-2.51s-1.1238-2.51-2.51-2.51c-1.3863 0-2.51 1.1238-2.51 2.51s1.1237 2.51 2.51 2.51z" fill="#e5e5e5"/><path d="m108.42 85.6401c1.386 0 2.51-1.1238 2.51-2.51s-1.124-2.51-2.51-2.51-2.51 1.1238-2.51 2.51 1.124 2.51 2.51 2.51z" fill="#e5e5e5"/><path d="m121.13 85.6401c1.386 0 2.51-1.1238 2.51-2.51s-1.124-2.51-2.51-2.51-2.51 1.1238-2.51 2.51 1.124 2.51 2.51 2.51z" fill="#e5e5e5"/><path d="m133.84 85.6401c1.386 0 2.51-1.1238 2.51-2.51s-1.124-2.51-2.51-2.51-2.51 1.1238-2.51 2.51 1.124 2.51 2.51 2.51z" fill="#e5e5e5"/><path d="m19.4399 98.51c1.3863 0 2.51-1.1238 2.51-2.51s-1.1237-2.51-2.51-2.51c-1.3862 0-2.51 1.1238-2.51 2.51s1.1238 2.51 2.51 2.51z" fill="#e5e5e5"/><path d="m32.1499 98.51c1.3862 0 2.51-1.1238 2.51-2.51s-1.1238-2.51-2.51-2.51-2.51 1.1238-2.51 2.51 1.1238 2.51 2.51 2.51z" fill="#eb0029"/><path d="m44.8601 98.51c1.3862 0 2.51-1.1238 2.51-2.51s-1.1238-2.51-2.51-2.51-2.51 1.1238-2.51 2.51 1.1238 2.51 2.51 2.51z" fill="#e5e5e5"/><path d="m57.5701 98.51c1.3862 0 2.51-1.1238 2.51-2.51s-1.1238-2.51-2.51-2.51c-1.3863 0-2.51 1.1238-2.51 2.51s1.1237 2.51 2.51 2.51z" fill="#e5e5e5"/><path d="m70.28 98.51c1.3863 0 2.51-1.1238 2.51-2.51s-1.1237-2.51-2.51-2.51c-1.3862 0-2.51 1.1238-2.51 2.51s1.1238 2.51 2.51 2.51z" fill="#e5e5e5"/><path d="m83 98.51c1.3862 0 2.51-1.1238 2.51-2.51s-1.1238-2.51-2.51-2.51-2.51 1.1238-2.51 2.51 1.1238 2.51 2.51 2.51z" fill="#e5e5e5"/><path d="m95.71 98.51c1.3862 0 2.51-1.1238 2.51-2.51s-1.1238-2.51-2.51-2.51c-1.3863 0-2.51 1.1238-2.51 2.51s1.1237 2.51 2.51 2.51z" fill="#e5e5e5"/><path d="m108.42 98.51c1.386 0 2.51-1.1238 2.51-2.51s-1.124-2.51-2.51-2.51-2.51 1.1238-2.51 2.51 1.124 2.51 2.51 2.51z" fill="#e5e5e5"/><path d="m121.13 98.51c1.386 0 2.51-1.1238 2.51-2.51s-1.124-2.51-2.51-2.51-2.51 1.1238-2.51 2.51 1.124 2.51 2.51 2.51z" fill="#e5e5e5"/><path d="m133.84 98.51c1.386 0 2.51-1.1238 2.51-2.51s-1.124-2.51-2.51-2.51-2.51 1.1238-2.51 2.51 1.124 2.51 2.51 2.51z" fill="#e5e5e5"/><path d="m19.4399 111.38c1.3863 0 2.51-1.124 2.51-2.51s-1.1237-2.51-2.51-2.51c-1.3862 0-2.51 1.124-2.51 2.51s1.1238 2.51 2.51 2.51z" fill="#e5e5e5"/><path d="m32.1499 111.38c1.3862 0 2.51-1.124 2.51-2.51s-1.1238-2.51-2.51-2.51-2.51 1.124-2.51 2.51 1.1238 2.51 2.51 2.51z" fill="#e5e5e5"/><path d="m44.8601 111.38c1.3862 0 2.51-1.124 2.51-2.51s-1.1238-2.51-2.51-2.51-2.51 1.124-2.51 2.51 1.1238 2.51 2.51 2.51z" fill="#e5e5e5"/><path d="m57.5701 111.38c1.3862 0 2.51-1.124 2.51-2.51s-1.1238-2.51-2.51-2.51c-1.3863 0-2.51 1.124-2.51 2.51s1.1237 2.51 2.51 2.51z" fill="#e5e5e5"/><path d="m70.28 111.38c1.3863 0 2.51-1.124 2.51-2.51s-1.1237-2.51-2.51-2.51c-1.3862 0-2.51 1.124-2.51 2.51s1.1238 2.51 2.51 2.51z" fill="#e5e5e5"/><path d="m83 111.38c1.3862 0 2.51-1.124 2.51-2.51s-1.1238-2.51-2.51-2.51-2.51 1.124-2.51 2.51 1.1238 2.51 2.51 2.51z" fill="#e5e5e5"/><path d="m95.71 111.38c1.3862 0 2.51-1.124 2.51-2.51s-1.1238-2.51-2.51-2.51c-1.3863 0-2.51 1.124-2.51 2.51s1.1237 2.51 2.51 2.51z" fill="#e5e5e5"/><path d="m108.42 111.38c1.386 0 2.51-1.124 2.51-2.51s-1.124-2.51-2.51-2.51-2.51 1.124-2.51 2.51 1.124 2.51 2.51 2.51z" fill="#e5e5e5"/><path d="m121.13 111.38c1.386 0 2.51-1.124 2.51-2.51s-1.124-2.51-2.51-2.51-2.51 1.124-2.51 2.51 1.124 2.51 2.51 2.51z" fill="#e5e5e5"/><path d="m133.84 111.38c1.386 0 2.51-1.124 2.51-2.51s-1.124-2.51-2.51-2.51-2.51 1.124-2.51 2.51 1.124 2.51 2.51 2.51z" fill="#e5e5e5"/><path d="m19.4399 124.25c1.3863 0 2.51-1.124 2.51-2.51s-1.1237-2.51-2.51-2.51c-1.3862 0-2.51 1.124-2.51 2.51s1.1238 2.51 2.51 2.51z" fill="#e5e5e5"/><path d="m32.1499 124.25c1.3862 0 2.51-1.124 2.51-2.51s-1.1238-2.51-2.51-2.51-2.51 1.124-2.51 2.51 1.1238 2.51 2.51 2.51z" fill="#e5e5e5"/><path d="m44.8601 124.25c1.3862 0 2.51-1.124 2.51-2.51s-1.1238-2.51-2.51-2.51-2.51 1.124-2.51 2.51 1.1238 2.51 2.51 2.51z" fill="#eb0029"/><g fill="#e5e5e5"><path d="m57.5701 124.25c1.3862 0 2.51-1.124 2.51-2.51s-1.1238-2.51-2.51-2.51c-1.3863 0-2.51 1.124-2.51 2.51s1.1237 2.51 2.51 2.51z"/><path d="m70.28 124.25c1.3863 0 2.51-1.124 2.51-2.51s-1.1237-2.51-2.51-2.51c-1.3862 0-2.51 1.124-2.51 2.51s1.1238 2.51 2.51 2.51z"/><path d="m83 124.25c1.3862 0 2.51-1.124 2.51-2.51s-1.1238-2.51-2.51-2.51-2.51 1.124-2.51 2.51 1.1238 2.51 2.51 2.51z"/><path d="m95.71 124.25c1.3862 0 2.51-1.124 2.51-2.51s-1.1238-2.51-2.51-2.51c-1.3863 0-2.51 1.124-2.51 2.51s1.1237 2.51 2.51 2.51z"/><path d="m108.42 124.25c1.386 0 2.51-1.124 2.51-2.51s-1.124-2.51-2.51-2.51-2.51 1.124-2.51 2.51 1.124 2.51 2.51 2.51z"/><path d="m121.13 124.25c1.386 0 2.51-1.124 2.51-2.51s-1.124-2.51-2.51-2.51-2.51 1.124-2.51 2.51 1.124 2.51 2.51 2.51z"/><path d="m133.84 124.25c1.386 0 2.51-1.124 2.51-2.51s-1.124-2.51-2.51-2.51-2.51 1.124-2.51 2.51 1.124 2.51 2.51 2.51z"/><path d="m19.4399 137.12c1.3863 0 2.51-1.124 2.51-2.51s-1.1237-2.51-2.51-2.51c-1.3862 0-2.51 1.124-2.51 2.51s1.1238 2.51 2.51 2.51z"/><path d="m32.1499 137.12c1.3862 0 2.51-1.124 2.51-2.51s-1.1238-2.51-2.51-2.51-2.51 1.124-2.51 2.51 1.1238 2.51 2.51 2.51z"/><path d="m44.8601 137.12c1.3862 0 2.51-1.124 2.51-2.51s-1.1238-2.51-2.51-2.51-2.51 1.124-2.51 2.51 1.1238 2.51 2.51 2.51z"/><path d="m57.5701 137.12c1.3862 0 2.51-1.124 2.51-2.51s-1.1238-2.51-2.51-2.51c-1.3863 0-2.51 1.124-2.51 2.51s1.1237 2.51 2.51 2.51z"/><path d="m70.28 137.12c1.3863 0 2.51-1.124 2.51-2.51s-1.1237-2.51-2.51-2.51c-1.3862 0-2.51 1.124-2.51 2.51s1.1238 2.51 2.51 2.51z"/><path d="m83 137.12c1.3862 0 2.51-1.124 2.51-2.51s-1.1238-2.51-2.51-2.51-2.51 1.124-2.51 2.51 1.1238 2.51 2.51 2.51z"/><path d="m95.71 137.12c1.3862 0 2.51-1.124 2.51-2.51s-1.1238-2.51-2.51-2.51c-1.3863 0-2.51 1.124-2.51 2.51s1.1237 2.51 2.51 2.51z"/><path d="m108.42 137.12c1.386 0 2.51-1.124 2.51-2.51s-1.124-2.51-2.51-2.51-2.51 1.124-2.51 2.51 1.124 2.51 2.51 2.51z"/><path d="m121.13 137.12c1.386 0 2.51-1.124 2.51-2.51s-1.124-2.51-2.51-2.51-2.51 1.124-2.51 2.51 1.124 2.51 2.51 2.51z"/><path d="m133.84 137.12c1.386 0 2.51-1.124 2.51-2.51s-1.124-2.51-2.51-2.51-2.51 1.124-2.51 2.51 1.124 2.51 2.51 2.51z"/><path d="m19.4399 149.99c1.3863 0 2.51-1.124 2.51-2.51s-1.1237-2.51-2.51-2.51c-1.3862 0-2.51 1.124-2.51 2.51s1.1238 2.51 2.51 2.51z"/><path d="m32.1499 149.99c1.3862 0 2.51-1.124 2.51-2.51s-1.1238-2.51-2.51-2.51-2.51 1.124-2.51 2.51 1.1238 2.51 2.51 2.51z"/><path d="m44.8601 149.99c1.3862 0 2.51-1.124 2.51-2.51s-1.1238-2.51-2.51-2.51-2.51 1.124-2.51 2.51 1.1238 2.51 2.51 2.51z"/><path d="m57.5701 149.99c1.3862 0 2.51-1.124 2.51-2.51s-1.1238-2.51-2.51-2.51c-1.3863 0-2.51 1.124-2.51 2.51s1.1237 2.51 2.51 2.51z"/><path d="m70.28 149.99c1.3863 0 2.51-1.124 2.51-2.51s-1.1237-2.51-2.51-2.51c-1.3862 0-2.51 1.124-2.51 2.51s1.1238 2.51 2.51 2.51z"/><path d="m83 149.99c1.3862 0 2.51-1.124 2.51-2.51s-1.1238-2.51-2.51-2.51-2.51 1.124-2.51 2.51 1.1238 2.51 2.51 2.51z"/><path d="m95.71 149.99c1.3862 0 2.51-1.124 2.51-2.51s-1.1238-2.51-2.51-2.51c-1.3863 0-2.51 1.124-2.51 2.51s1.1237 2.51 2.51 2.51z"/><path d="m108.42 149.99c1.386 0 2.51-1.124 2.51-2.51s-1.124-2.51-2.51-2.51-2.51 1.124-2.51 2.51 1.124 2.51 2.51 2.51z"/><path d="m121.13 149.99c1.386 0 2.51-1.124 2.51-2.51s-1.124-2.51-2.51-2.51-2.51 1.124-2.51 2.51 1.124 2.51 2.51 2.51z"/><path d="m133.84 149.99c1.386 0 2.51-1.124 2.51-2.51s-1.124-2.51-2.51-2.51-2.51 1.124-2.51 2.51 1.124 2.51 2.51 2.51z"/><path d="m19.4399 162.86c1.3863 0 2.51-1.124 2.51-2.51s-1.1237-2.51-2.51-2.51c-1.3862 0-2.51 1.124-2.51 2.51s1.1238 2.51 2.51 2.51z"/><path d="m32.1499 162.86c1.3862 0 2.51-1.124 2.51-2.51s-1.1238-2.51-2.51-2.51-2.51 1.124-2.51 2.51 1.1238 2.51 2.51 2.51z"/><path d="m44.8601 162.86c1.3862 0 2.51-1.124 2.51-2.51s-1.1238-2.51-2.51-2.51-2.51 1.124-2.51 2.51 1.1238 2.51 2.51 2.51z"/><path d="m57.5701 162.86c1.3862 0 2.51-1.124 2.51-2.51s-1.1238-2.51-2.51-2.51c-1.3863 0-2.51 1.124-2.51 2.51s1.1237 2.51 2.51 2.51z"/><path d="m70.28 162.86c1.3863 0 2.51-1.124 2.51-2.51s-1.1237-2.51-2.51-2.51c-1.3862 0-2.51 1.124-2.51 2.51s1.1238 2.51 2.51 2.51z"/><path d="m83 162.86c1.3862 0 2.51-1.124 2.51-2.51s-1.1238-2.51-2.51-2.51-2.51 1.124-2.51 2.51 1.1238 2.51 2.51 2.51z"/><path d="m95.71 162.86c1.3862 0 2.51-1.124 2.51-2.51s-1.1238-2.51-2.51-2.51c-1.3863 0-2.51 1.124-2.51 2.51s1.1237 2.51 2.51 2.51z"/><path d="m108.42 162.86c1.386 0 2.51-1.124 2.51-2.51s-1.124-2.51-2.51-2.51-2.51 1.124-2.51 2.51 1.124 2.51 2.51 2.51z"/><path d="m121.13 162.86c1.386 0 2.51-1.124 2.51-2.51s-1.124-2.51-2.51-2.51-2.51 1.124-2.51 2.51 1.124 2.51 2.51 2.51z"/><path d="m133.84 162.86c1.386 0 2.51-1.124 2.51-2.51s-1.124-2.51-2.51-2.51-2.51 1.124-2.51 2.51 1.124 2.51 2.51 2.51z"/></g><path d="m109.84 141.65 29.81-52.2201h-59.6401l-29.84 51.6701 29.84 51.68h59.6701l29.78-51.58z" fill="#3f3e54"/><path d="m176.86 136.81.06-.09-29.84-51.68h-.03l-29.81 52.23z" fill="#eb0029"/><path d="m220 87.16c-.483-.7442-.74-1.6126-.74-2.5s.257-1.7558.74-2.5c.248-.2825.557-.5055.903-.6527.347-.1471.721-.2145 1.097-.1973.376-.0158.75.0523 1.096.1993.346.1471.655.3694.904.6507.49.7419.75 1.6112.75 2.5s-.26 1.7581-.75 2.5c-.249.2814-.558.5036-.904.6507-.346.147-.72.2151-1.096.1993-.376.0172-.75-.0502-1.097-.1973-.346-.1471-.655-.3702-.903-.6527zm2.9-.88c.218-.5071.311-1.0594.27-1.61.039-.5449-.058-1.091-.28-1.59-.082-.1578-.207-.2888-.362-.3774-.154-.0886-.33-.1312-.508-.1226-.173-.0052-.344.0391-.493.1276-.149.0886-.269.2178-.347.3724-.217.5005-.313 1.0453-.28 1.59-.033.5479.063 1.096.28 1.6.078.1546.198.2838.347.3724.149.0885.32.1328.493.1276.178.0115.356-.0287.512-.1155.156-.0869.284-.2169.368-.3745zm-1 6.14 6.32-10.93h1.78l-6.34 10.93zm5.87-.74c-.536-.7224-.795-1.6129-.73-2.51-.064-.8876.196-1.7684.73-2.48.267-.2667.583-.4782.931-.6226.349-.1443.722-.2186 1.099-.2186s.75.0743 1.099.2186c.348.1444.665.3559.931.6226.526.7198.784 1.6004.73 2.49.061.8935-.198 1.7795-.73 2.5-.536.5205-1.253.8116-2 .8116s-1.464-.2911-2-.8116zm2.89-.89c.217-.5077.313-1.0589.28-1.61.034-.5457-.065-1.0915-.29-1.59-.132-.2234-.345-.3869-.595-.4559s-.517-.0382-.745.0859c-.151.0915-.278.2185-.37.37-.218.5001-.311 1.0459-.27 1.59-.041.5506.052 1.1029.27 1.61.134.2244.35.3876.602.4549s.521.0332.748-.0949c.17-.0758.313-.2013.41-.36z" fill="#3f3e54"/><path d="m6.19003 181.45c-.48333-.744-.74057-1.613-.74057-2.5s.25724-1.756.74057-2.5c.24745-.284.55597-.507.90238-.655.34641-.147.72169-.214 1.09762-.195.37531-.014.74904.055 1.09467.202.34564.147.65472.368.9053.648.4834.744.7406 1.613.7406 2.5s-.2572 1.756-.7406 2.5c-.25008.281-.55882.504-.9044.652-.34558.149-.71957.22-1.09557.208-.37663.017-.75218-.052-1.09852-.201-.34635-.149-.65453-.374-.90148-.659zm2.89-.88c.21086-.495.3066-1.032.28-1.57.03496-.546-.06462-1.092-.29-1.59-.08223-.155-.20641-.285-.35843-.373-.15203-.088-.3258-.132-.50157-.127-.17474-.007-.34785.036-.4986.125-.15074.089-.27274.219-.3514.375-.37358 1.031-.37358 2.159 0 3.19.07766.157.19944.288.35043.377.15098.089.32461.131.49957.123.1766.009.35225-.032.50634-.118.15409-.087.28025-.216.36366-.372zm-1 6.14 6.31997-10.93h1.71l-6.31997 10.93zm5.91997-.71c-.5357-.722-.7947-1.613-.73-2.51-.0708-.891.1891-1.778.73-2.49.5345-.523 1.2524-.816 2-.816.7477 0 1.4656.293 2 .816.5312.713.7901 1.593.73 2.48.0654.9-.1936 1.794-.73 2.52-.5344.523-1.2523.816-2 .816-.7476 0-1.4655-.293-2-.816zm2.89-.89c.2217-.506.3178-1.059.28-1.61.0377-.545-.0584-1.091-.28-1.59-.1317-.223-.3451-.387-.5952-.456-.25-.069-.517-.038-.7448.086-.1576.087-.2889.215-.38.37-.2136.501-.3061 1.046-.27 1.59-.0359.55.0565 1.101.27 1.61.132.229.349.396.6038.465.2548.07.5266.035.7562-.095.1504-.09.2745-.217.36-.37z" fill="#3f3e54"/><path d="m148.59 118.52-.39-.1 8.42-31.69h48.86v.4h-48.55z" fill="#2f2e40"/><path d="m209.48 91.12c-.829 0-1.639-.2457-2.328-.7062-.689-.4604-1.226-1.1147-1.543-1.8804-.317-.7656-.4-1.6081-.238-2.4208.161-.8128.56-1.5594 1.146-2.1454s1.333-.985 2.146-1.1467c.812-.1617 1.655-.0787 2.42.2384.766.3172 1.42.8542 1.881 1.5432.46.6891.706 1.4992.706 2.3279 0 1.1112-.441 2.177-1.227 2.9628-.786.7857-1.852 1.2272-2.963 1.2272zm0-8c-.75 0-1.482.2223-2.106.6387-.623.4165-1.109 1.0084-1.395 1.7009-.287.6926-.362 1.4546-.216 2.1898s.507 1.4105 1.037 1.9405c.53.5301 1.205.891 1.941 1.0373.735.1462 1.497.0712 2.189-.2157.693-.2869 1.285-.7726 1.701-1.3959.417-.6233.639-1.356.639-2.1056-.005-1.0017-.407-1.9606-1.117-2.667-.71-.7065-1.671-1.103-2.673-1.103z" fill="#2f2e40"/><path d="m209.48 88.5301c.884 0 1.6-.7164 1.6-1.6 0-.8837-.716-1.6-1.6-1.6s-1.6.7163-1.6 1.6c0 .8836.716 1.6 1.6 1.6z" fill="#eb0029"/><path d="m86.9 149.63.38.11-8.42 31.68h-48.86v-.4h48.55z" fill="#2f2e40"/><path d="m26.0001 177c.8315-.002 1.6449.243 2.3371.704.6922.46 1.2321 1.116 1.5512 1.884.3192.768.4032 1.613.2414 2.429-.1617.816-.5619 1.565-1.1499 2.153s-1.3373.988-2.1529 1.15c-.8157.162-1.661.078-2.4288-.242-.7679-.319-1.4237-.859-1.8845-1.551-.4607-.692-.7056-1.505-.7036-2.337.0026-1.11.4449-2.175 1.2301-2.96s1.8494-1.227 2.9599-1.23zm0 8c.7515 0 1.4862-.223 2.1111-.64.6249-.418 1.112-1.011 1.3996-1.706.2876-.694.3629-1.458.2163-2.195-.1467-.737-.5086-1.415-1.04-1.946-.5315-.531-1.2086-.893-1.9457-1.04s-1.5012-.071-2.1955.216c-.6944.288-1.2879.775-1.7054 1.4-.4176.625-.6404 1.359-.6404 2.111.0026 1.007.4038 1.972 1.1159 2.684.712.712 1.6771 1.113 2.6841 1.116z" fill="#2f2e40"/><path d="m26.0099 182.82c.8837 0 1.6-.716 1.6-1.6s-.7163-1.6-1.6-1.6c-.8836 0-1.6.716-1.6 1.6s.7164 1.6 1.6 1.6z" fill="#eb0029"/><path d="m245.83 244.43h-6.06v8.24h6.06z" fill="#96646b"/><path d="m276.62 244.43h-6.06v8.24h6.06z" fill="#96646b"/><path d="m280.83 176.05c-.955 0-1.87-.379-2.545-1.054-.676-.676-1.055-1.591-1.055-2.546-.015-.183-.015-.367 0-.55l1-6.33.3-1.88h4.6l.25 2.66.95 5.48c.083.466.074.943-.028 1.405s-.294.899-.565 1.287-.617.718-1.016.971c-.399.254-.845.426-1.311.507-.192.03-.386.047-.58.05z" fill="#96646b"/><path d="m235.73 175.32c-.952 0-1.865-.378-2.538-1.052-.674-.673-1.052-1.586-1.052-2.538-.015-.186-.015-.374 0-.56l1-6.33.3-1.88h4.6l.25 2.67 1 5.48c.163.94-.055 1.906-.604 2.686s-1.386 1.31-2.326 1.474c-.208.038-.419.054-.63.05z" fill="#96646b"/><path d="m277.35 246.12-7.27-.24-11.88-71.77-11.88 72.01-7.03-.24-1.94-82.92h40.73z" fill="#2f2e40"/><path d="m245.68 258.39c-6.17.18-11-1.49-14.17-5.45-.337-.419-.537-.932-.573-1.468-.036-.537.094-1.072.373-1.532.26-.431.639-.779 1.091-1 .452-.222.959-.309 1.459-.25l2 .24 4.17-2.09c-.85 5 1.47 5.06 7 3.4l1 5.13c.07.329.073.668.01.998s-.192.644-.378.923c-.187.28-.427.519-.707.704-.28.186-.595.313-.925.375-.116.014-.233.021-.35.02z" fill="#2f2e40"/><path d="m276.47 258.39c-6.17.18-11-1.49-14.17-5.45-.337-.42-.536-.933-.57-1.47s.099-1.071.38-1.53c.258-.431.635-.778 1.086-.999.45-.222.955-.309 1.454-.251l2 .24 4.14-1.75c-.85 5 1.5 4.72 7.06 3.06l1 5.13c.07.329.073.668.01.998s-.192.644-.378.923c-.187.28-.427.519-.707.704-.28.186-.595.313-.925.375-.126.015-.253.022-.38.02z" fill="#2f2e40"/><path d="m255.77 87.0699c5.357 0 9.7-4.3428 9.7-9.7 0-5.3571-4.343-9.7-9.7-9.7s-9.7 4.3429-9.7 9.7c0 5.3572 4.343 9.7 9.7 9.7z" fill="#96646b"/><path d="m265.47 95.07-10.42.48-.49-10.91 8.97-3.39z" fill="#96646b"/><path d="m280.51 166.35c-14.22-2.69-30.42-3.65-41.22 0l3.39-71.28 11.4-3.4.85-1.33 9.57-1.57 4.61 1.45 2.89 4.36 12.61 7c-6.19 24.04-8.03 45.86-4.1 64.77z" fill="#2f2e40"/><path d="m287.29 165.87-10.42-1.21c2.17-10.59 1.28-24.36 1.82-38.19.34-8.77 2.15-16.75 2.79-26.5501 3.95 1.0001 6 4.7001 6 9.0001.13 20.55 2.07 39.78-.19 56.95z" fill="#2f2e40"/><path d="m242 164.9-10.18-.73 6.06-34.43 2-28.65c-.31-4.1799 1.92-6.6099 5.23-6.7499 7.22 8.5599 8.06 20.3499 5.82 33.6999z" fill="#2f2e40"/><path d="m258.92 84.4999-1.25-3.56c-.701-1.9971-1.932-3.7659-3.562-5.117-1.629-1.3511-3.595-2.2336-5.688-2.553l-7.84-.18 2.17-3.5c1.046-1.6938 2.546-3.0604 4.329-3.9442 1.784-.8839 3.78-1.2497 5.761-1.0558l7.83.78c.925.0938 1.823.3689 2.642.8096s1.543 1.0385 2.131 1.7591c.587.7206 1.028 1.55 1.295 2.4407.267.8908.356 1.8254.262 2.7506l-.71 7.7c-.078.8234-.365 1.6132-.834 2.2946s-1.104 1.2319-1.845 1.5994-1.563.5398-2.389.5006c-.827-.0392-1.629-.2886-2.332-.7246z" fill="#2f2e40"/></svg>