<svg fill="none" height="300" viewBox="0 0 300 300" width="300" xmlns="http://www.w3.org/2000/svg"><path d="m288 0h-276c-6.62742 0-12 5.37258-12 12v276c0 6.627 5.37258 12 12 12h276c6.627 0 12-5.373 12-12v-276c0-6.62742-5.373-12-12-12z" fill="#fff"/><path d="m274.25 31.1499h-263.03v168.4501h263.03z" fill="#e5e5e5"/><path d="m266.73 52.28h-247.98v137.36h247.98z" fill="#fff"/><path d="m274.14 31h-263.0299v11.17h263.0299z" fill="#eb0029"/><path d="m19.4201 38.7799c1.1432 0 2.07-.9268 2.07-2.07s-.9268-2.07-2.07-2.07-2.07.9268-2.07 2.07.9268 2.07 2.07 2.07z" fill="#fff"/><path d="m27.28 38.7799c1.1432 0 2.07-.9268 2.07-2.07s-.9268-2.07-2.07-2.07c-1.1433 0-2.07.9268-2.07 2.07s.9267 2.07 2.07 2.07z" fill="#fff"/><path d="m35.1401 38.7799c1.1432 0 2.07-.9268 2.07-2.07s-.9268-2.07-2.07-2.07c-1.1433 0-2.07.9268-2.07 2.07s.9267 2.07 2.07 2.07z" fill="#fff"/><path d="m288.16 247.95 1.93 7.73-8.5 2.32-.78-8.12z" fill="#96646b"/><path d="m257.23 257.61v7.35l-8.5 1.54-1.55-3.86 3.09-6.58z" fill="#96646b"/><path d="m274.24 177.59-1.16 10.41.78 20.1s0 1.93 1.16 2.7c.62.43 14.3 38.66 14.3 38.66-1.108 1.2-2.515 2.084-4.078 2.56-1.562.476-3.223.528-4.812.15l-1.16-3.87c-.622-2.114-1.397-4.179-2.32-6.18-.77-1.16-12.37-24.74-12.37-24.74l-5.41-9.67-1.55 13.15s3.09 16.62 2.32 24.35-2.32 15.85-2.32 15.85l-9.28-1.55c-.041-1.248-.444-2.457-1.16-3.48-1.16-1.54-.77-6.95-.77-6.95v-1.08l-2.32-29.77-4.25-39.05z" fill="#2f2e40"/><path d="m247.95 107.23c5.766 0 10.44-4.674 10.44-10.4399s-4.674-10.44-10.44-10.44-10.44 4.6741-10.44 10.44 4.674 10.4399 10.44 10.4399z" fill="#96646b"/><path d="m257.04 96.98 4.25 10.44-10.05 7.35-6.18-10.83z" fill="#96646b"/><path d="m257.62 104.91 3.87-1.93 2.31 5.41s15.08 4.64 13.92 25.9-3.86 29.38-3.86 29.38 6.57 13.92 2.7 15.46-36.72 7.35-37.5 1.94 2.71-37.07 2.71-37.07-1.16-22.81 8.5-27.45l-1.93-4.25z" fill="#3f3e54"/><path d="m236.36 179.91s-8.89 9.28-3.87 11.59 8.12-10.43 8.12-10.43z" fill="#96646b"/><path d="m254.53 263 4.25-1.54s4.64 10.43.77 10.43h-10.05s-5.8-1.93-8.89-1.93-8.89-5.8-4.64-8.5 9.67-1.94 9.67-1.94l1.54-3.48 1.93 5.42s2.32 3.88 5.42 1.54z" fill="#2f2e40"/><path d="m285.84 254.52s2.42-1.53 3.72-1 2.08 6.76 2.08 6.76 3.86 4.64-4.64 5.41-10.44-.77-11.21-3.09c-.191-.785-.221-1.601-.089-2.399.133-.797.425-1.559.859-2.241l2.32-.78s2.71-1.93 1.93-2.7 0-2.32 0-2.32 2.71 5.45 5.03 2.36z" fill="#2f2e40"/><path d="m251.52 96.6201c-.038-.3401-.112-.6753-.22-1-.56-1.18-2.75-.83-3.14-2.08-.08-.24-.06-.5-.14-.75-.131-.2985-.354-.5471-.636-.7091-.283-.1621-.61-.229-.934-.1909-.644.0876-1.275.2521-1.88.49-1.56.3284-3.167.3623-4.74.1-.697-.0308-1.379-.2116-2-.53-.309-.1701-.555-.4347-.703-.7551-.147-.3203-.188-.6795-.117-1.0249.21-.64.91-1 1.23-1.59.5-.94-.11-2.16.29-3.15.66-1.59 3.12-1.27 4.37-2.45.31-.28.53-.65.82-.94.472-.4023 1.027-.6953 1.625-.8578s1.225-.1906 1.835-.0822c1.212.2319 2.438.3856 3.67.46 1.17 0 2.4-.37 3.48.08.647.3293 1.217.7929 1.67 1.36l2.77 3c.379.3586.67.8001.85 1.29.08.5998.11 1.2052.09 1.81.16 1.37 1.44 2.41 1.62 3.78.03.4242.01.8505-.06 1.27l-.44 2.85c-.022.2781-.097.5495-.22.8-.125.1851-.262.3621-.41.53-.263.5732-.435 1.1838-.51 1.8099-.17.61-.81 1.21-1.37.91-.37-.19-.61-1.7599-1.05-2.1699-.62-.57-.94-.5-1.7-.49-1.57.06-3.57.19-4.05-1.77z" fill="#2f2e40"/><path d="m253.37 119.21s11.59 4.64 8.12 15.08-12.76 42.52-12.76 42.52l-5.41 2.71-1.55 4.25-7.35-2.7 1.16-5.8 2.71-5.8 7-43.3s-.04-7.34 8.08-6.96z" fill="#3f3e54"/><path d="m262.06 136.42-11.98 40.97-5.02 5.03 2.9-5.22z" fill="#000" opacity=".1"/><path d="m26.1101 143 2.26 16.07 9.54 17.08c2.76 2.51.25 8.53.25 8.53l-2.51-1.68-.5-3s-11-12.55-13.81-15.57-3.77-19.58-3.77-19.58z" fill="#f1bfbe"/><path d="m17.8 252c.2375 2.419.321 4.851.25 7.28-.25 1.51-7.79-.25-7.79-.25 1.26-2.51 2-10 2-10z" fill="#f1bfbe"/><path d="m55.1999 253.52s.76 8 .51 9.54-7.79-.25-7.79-.25c1.26-2.51 2-10 2-10z" fill="#f1bfbe"/><path d="m39.8199 124.72c5.0424 0 9.13-4.088 9.13-9.13s-4.0876-9.13-9.13-9.13c-5.0423 0-9.13 4.088-9.13 9.13s4.0877 9.13 9.13 9.13z" fill="#f1bfbe"/><path d="m41.4 124.22c-1.51 2-.76 5.52-.76 5.52s-15.31 17.83-18.07 17.83-2.26-12.57-2.26-12.57 4-4.77 6.27-5.77 6.28-11.8 6.28-11.8 10.04 4.78 8.54 6.79z" fill="#f1bfbe"/><path d="m51.6899 158.36 9.83 16.51c1.79 2.95-1.55 17.89-1.55 17.89l-1.5 31.89-2.47 32.12v3.52l-8.33-.29-2.76-34.39-4-25.86-6.52 19.83-10.82 24.42c-.9189 3.004-2.0518 5.938-3.39 8.78l-2 3.52-7.53-.88 11.42-38.54 2.26-25.1c.25-14.06 4.77-21.85 4.77-21.85v-3z" fill="#2f2e40"/><path d="m17.2899 258s1.26-2 1.26-1.26 3.26 2.76 3.26 2.76 3.27-.5 3.77 3.27-4.52 4.52-5.78 4.27c-1.5113-.083-3.0271.001-4.52.25-2.1617.317-4.3582.317-6.51998 0-4-.5-.51-7.28 0-8.54s2.99998-.25 2.99998-.25c4.53 1.3 5.53-.5 5.53-.5z" fill="#2f2e40"/><path d="m55.0001 261.8s1.26-2 1.26-1.25 3.26 2.76 3.26 2.76 3.27-.5 3.77 3.26-4.52 4.52-5.78 4.27c-1.5113-.083-3.0271.001-4.52.25-2.1612.324-4.3587.324-6.52 0-4-.5-.51-7.28 0-8.53s3-.25 3-.25c4.53 1.25 5.53-.51 5.53-.51z" fill="#2f2e40"/><path d="m37.63 129.49c6.28-6.53 13.06 9.79 13.06 9.79s2.25 6 .5 9.29 1.75 10.55 1.75 10.55c-8.59 7.32-17.16 14.08-25.1 9.29 1-6-2.26-9-4.52-14.82s-6.53-4.52-6.53-4.52.25-6.52 1-11.8 7.54-7.27 7.54-7.27c1.23 2.23 6.02 6 12.3-.51z" fill="#3f3e54"/><path d="m48.6799 140 2.26 16.06 9.54 17.08c2.76 2.51.25 8.53.25 8.53l-2.51-1.67-.5-3s-11-12.55-13.81-15.56-3.77-19.59-3.77-19.59z" fill="#f1bfbe"/><path d="m50.1801 142.55-10.54 1.25s-.75-12.3.84-15.37 7.44.31 7.44.31c1.51.26 2.26 13.81 2.26 13.81z" fill="#3f3e54"/><path d="m50.0001 110.3c-6.75 3.38-2.85 12.59-3.65 16.46-1.31 6.33-20.56 3.11-20.56 3.11-2.34-.42-3.77-26.48 9.06-26.25 6.5.12 20.98 3.79 15.15 6.68z" fill="#2f2e40"/><path d="m45.93 118.31c.5191 0 .94-.672.94-1.5s-.4209-1.5-.94-1.5c-.5192 0-.94.672-.94 1.5s.4208 1.5.94 1.5z" fill="#f1bfbe"/><g fill="#e5e5e5"><path d="m82.89 84.62c9.93 1.83 20 0 29.94-1.24l30-3.76c1.21-.16 3-.88 3.7.6.4.83.13 2.64.16 3.59.08 2.63.07 5.27 0 7.9-.14 5-.51 10.05-1 15.06-.91 9.81-2.2 19.56-2.85 29.4-.33 5-.5 10-.35 15.05 0 1.19.08 2.39.15 3.58s.68 3.32-.78 4.21c-.83.51-2.46.49-3.41.64-1.51.23-3 .42-4.55.58-10.11 1-20.36.59-30.51.53l-30.59-.16h-7.48c-.67 0-3.12.4-3.53-.4.0025-.808.1273-1.61.37-2.38.12-.7.24-1.41.38-2.11.87-4.95 1.9-9.86 2.94-14.78 2.23-10.57 4.52-21.15 5.43-31.93.46-5.39.16-10.84.71-16.23.26-2.5.57-8.08 3.9-8.3 2.82-.19 5.72 0 8.55 0 .0805.0107.1624.0041.2401-.0194.0778-.0235.1496-.0633.2107-.1168s.1101-.1194.1436-.1934c.0336-.0739.0509-.1542.0509-.2354 0-.0813-.0173-.1615-.0509-.2355-.0335-.074-.0825-.1399-.1436-.1934s-.1329-.0933-.2107-.1168c-.0777-.0235-.1596-.0301-.2401-.0193-2.67 0-5.34-.07-8 0-1.78 0-3 .46-3.86 2.09-2.16 4.19-1.94 9.78-2 14.35-.16 11-1.84 21.66-4 32.37-1.1 5.39-2.29 10.76-3.38 16.16-.52 2.57-1 5.16-1.46 7.75-.21 1.23-1.28 3.95-.34 5.08s3.82.53 5.11.53l9 .06 17.2.09c11.11.07 22.25.38 33.36.05 5.3-.16 10.91-.37 16.07-1.64.668-.059 1.286-.376 1.723-.884s.659-1.167.617-1.836c.09-2.55-.32-5.17-.38-7.72-.37-21.85 4.76-43.4 4.24-65.26 0-1.49.52-5.23-1.1-6.13-.788-.2799-1.643-.3113-2.45-.09-1.46.16-2.93.37-4.39.54l-19 2.38c-6.09.75-12.18 1.57-18.28 2.26-6.46.75-13 1.2-19.41 0-.71-.13-1 1-.3 1.09z"/><path d="m70.92 97.9201 75.15-3.69c.73 0 .73-1.17 0-1.13l-75.15 3.69c-.72.03-.73 1.21 0 1.13z"/><path d="m94.0701 88.6099c-.1696.1798-.3021.3913-.3899.6223-.0878.2311-.1292.4772-.1217.7243.0074.247.0635.4902.165.7156s.2465.4285.4266.5978c.1718.1616.3718.2904.59.38 1.0566.3012 2.1838.2378 3.2-.18 1.51-.37 2.9999-.71 4.5599-1 3.365-.5965 6.773-.9143 10.19-.95 1.55 0 3.1 0 4.66.12 1.129.1956 2.29-.0021 3.29-.56.275-.1692.508-.3987.681-.6711.173-.2725.282-.5807.319-.9015s0-.6456-.108-.9501c-.107-.3045-.282-.5805-.512-.8073-1.5-1.37-4.75-.57-6.48-.43-6.308.5225-12.574 1.4578-18.7599 2.8-.7.15-.41 1.24.3 1.08 4.0799-.88 8.1929-1.5867 12.3399-2.12 2-.2467 4.04-.4567 6.12-.63.96-.08 1.92-.15 2.88-.21.38 0 .78-.06 1.16-.05 1.2 0 1.33-.19.62 1.25-.64 1.28-.43 1.13-1.53 1.09-.47 0-.94-.06-1.4-.08-1 0-1.91-.06-2.87-.06-2 0-4.027.0967-6.08.29-1.72.17-3.43.4-5.13.7-1.06.19-2.11.41-3.1599.65l-1.39.34-.67.17c-.82.28-1.52-.09-2.1-1.13.5-.53-.29-1.33-.8-.8z"/><path d="m107.7 104.67c-5.45-.21-11.3299 1.26-14.9099 5.64-2.81 3.42-4.4 9.3-1.43 13.16 3.19 4.14 10.1899 3.41 14.4199 1.65 4.47-1.88 9.35-5.76 10.7-10.61 1.67-6.06-3.76-10.64-9.42-10.71-.074.001-.148.017-.216.047s-.129.074-.181.128c-.051.054-.091.117-.117.187s-.039.144-.036.218c.005.144.065.281.167.383.102.103.239.162.383.167 3.22 0 6.39 1.42 7.89 4.42 1.58 3.17.22 6.49-1.88 9-3.36 4-8.62 7.08-13.9999 7-3.22-.05-6.77-1.15-7.77-4.54-.3592-1.377-.4354-2.813-.224-4.221s.706-2.758 1.454-3.969c3.1-5.27 9.3899-7 15.1599-6.83.72 0 .72-1.1 0-1.12z"/><path d="m102.29 113c-.181-.067-.373-.098-.565-.09-.192.007-.381.053-.556.134s-.332.195-.462.337-.231.308-.297.489c-.08.203-.111.423-.09.64.11 1.47 1.73 1.88 2.94 1.79 1-.09 2.28-.48 1.91-1.79-.067-.233-.184-.448-.343-.631s-.356-.33-.577-.429c-.336-.133-.701-.178-1.06-.13-.14 0-1.41.47-.87-.09l-.89-.12c.098.097.174.214.22.344.047.13.064.269.05.406.005.15.069.293.177.397.108.105.253.163.403.163.094-.002.187-.026.27-.07.092-.041.191-.063.291-.065.101-.002.2.016.294.053.093.038.178.093.249.164s.128.155.166.248c.055.155.055.325 0 .48-.033.146-.008.299.071.426.078.127.204.218.349.254.115.025.235.015.344-.03s.202-.121.266-.22c.38-.67.83-2 .27-2.73-.218-.184-.495-.285-.78-.285s-.562.101-.78.285c-.277.195-.535.416-.77.66-.46.4-.75.59-.58-.18.215-.692.581-1.328 1.073-1.86.491-.533 1.095-.95 1.767-1.22l-.83-.63c-.433 1.627-1.207 3.144-2.27 4.45l1 .4c-.028-.516.103-1.029.377-1.467.274-.439.677-.782 1.153-.983h-.55l.29.48c-.11.71 1 1 1.09.3.14-.93-.44-2.14-1.53-1.68-.615.309-1.126.79-1.47 1.385-.345.595-.508 1.278-.47 1.965 0 .45.64.8 1 .4 1.204-1.462 2.078-3.168 2.56-5 .018-.073.021-.149.01-.223-.012-.074-.038-.145-.077-.209s-.09-.12-.151-.164c-.06-.045-.129-.076-.202-.094-.139-.03-.285-.009-.41.06-1.124.512-2.076 1.338-2.74 2.38-.45.75-1 1.93-.56 2.79.075.137.177.259.299.357s.263.171.413.215c.151.043.309.057.464.039.156-.017.307-.065.444-.141.371-.196.708-.449 1-.75.14-.12.29-.34.47-.37s.16 0 0 .2c-.002.388-.117.766-.33 1.09l1 .44c.094-.351.084-.722-.029-1.067-.112-.346-.323-.651-.605-.88-.282-.228-.625-.37-.986-.408-.362-.038-.726.03-1.05.195l.85.49c.011-.479-.14-.948-.43-1.33-.079-.128-.205-.22-.351-.256-.146-.035-.3-.012-.429.066-.038.021-.071.048-.1.08-.152.138-.274.306-.357.494-.084.187-.127.391-.127.596s.043.408.127.596c.083.188.205.356.357.494.53.41.8 0 1.39-.09 2-.26.83.64.13.67-.318.032-.64.008-.95-.07-.78-.26-.83-.61-.15-1 .68.27 1-.82.31-1.09z"/><path d="m101.38 115.09c.47 1.5-1.44 2-2.35 2.51-.6327.351-1.1873.828-1.63 1.4-.8529 1.335-1.4025 2.84-1.61 4.41-.15.71.94 1 1.09.3.1855-1.12.5219-2.21 1-3.24.68-1.35 1.65-1.8 2.91-2.49s2.18-1.77 1.73-3.23c-.053-.13-.152-.236-.278-.298-.126-.061-.271-.074-.406-.035-.135.038-.251.125-.326.244-.075.118-.103.261-.08.399z"/><path d="m103.26 114.33c-.268.039-.513.176-.686.385-.174.209-.264.474-.254.745 0 .44.3.73.5 1.09.484.73.855 1.529 1.1 2.37.276.985.251 2.029-.07 3-.78 1.4-2.18 1.13-3.38 1.13s-2 .37-2-1.2c.1416-.912.5327-1.767 1.13-2.47l-1-.14c.2181 1.151.3319 2.319.34 3.49 0 .52.8.81 1 .28.612-1.282 1.094-2.622 1.44-4l-1.11-.15.19 2.86c.005.15.069.291.177.394.109.103.254.159.403.156.094 0 .186-.024.268-.07.082-.045.152-.111.202-.19.131-.146.227-.321.28-.51 0-.18-.31-1.37-.44-1l1.1.16.08-2.72-1.13.15c.239.766.311 1.574.21 2.37-.07.63 1 .77 1.13.15l.71-3.65-1 .13c.241.508.308 1.081.19 1.63-.08.72 1 .71 1.13 0 .092-.748-.029-1.508-.35-2.19-.038-.064-.089-.121-.149-.165-.06-.045-.128-.077-.201-.095-.073-.017-.148-.02-.222-.008s-.145.038-.208.078c-.12.072-.209.186-.25.32l-.71 3.65 1.11.15c.113-.898.027-1.809-.25-2.67-.021-.071-.055-.137-.102-.195-.046-.058-.104-.106-.169-.141s-.136-.057-.21-.065-.148 0-.219.021c-.116.034-.217.103-.291.198-.074.096-.115.212-.119.332l-.08 2.72c.007.133.06.259.15.356.09.098.211.161.343.179.131.018.265-.011.378-.081.112-.071.197-.178.239-.304l.06-.19c.027-.096.028-.197.003-.294-.024-.096-.074-.184-.143-.256-1.17-1.27-1.41.75-1.81 1.32l1 .28-.2-2.86c-.007-.133-.06-.258-.15-.356s-.211-.161-.343-.179c-.131-.017-.265.011-.378.081-.112.071-.197.178-.239.304-.3118 1.274-.7507 2.514-1.31 3.7l1 .29c.0186-1.221-.0651-2.442-.25-3.65-.1-.52-.78-.5-1-.13-.75 1.08-2 3.44-1 4.74.87 1.13 3.63.69 4.81.62 1.85-.1 2.53-1.28 2.73-3 .099-.838.052-1.688-.14-2.51-.1-.45-1.13-3.26-1.44-3.21.72-.13.41-1.22-.3-1.09z"/><path d="m101.08 116.86-3.0799 4.07 1 .57 2.2599-3.27-1-.43-1.1299 4.29c-.0127.121.0136.243.0751.348s.1549.187.2666.235.2358.059.3543.032c.1184-.028.2249-.093.3039-.185.511-.844 1.082-1.649 1.71-2.41l-.94-.55c-.253.968-.736 1.86-1.4099 2.6l.9399.55c.061-.518.199-1.023.41-1.5.29-.65-.63-1.23-.9999-.57-.3232.592-.6874 1.16-1.09 1.7l1 .14.23-1.07-1-.14.16.94c.0207.073.0555.14.1025.199.0469.059.1051.108.1711.144.0661.036.1386.059.2135.067s.1507.001.2229-.02c.0918-.022.1749-.071.2399-.14.952-.986 1.715-2.138 2.25-3.4h-1c.261.466.44.974.53 1.5.14.68 1 .43 1.11-.15.158-1.261.242-2.529.25-3.8h-1.13v2.39c0 .61 1 .79 1.11.15.072-.571.259-1.123.55-1.62h-1c.238.385.369.827.38 1.28.018.137.086.263.19.354s.237.141.375.141.272-.05.376-.141c.103-.091.171-.217.189-.354l.14-.75h-1.09c.11.66.53 4.41-.94 4-.25-.06-.32 0-.22 0l.34-.71.78-1.67-1-.28c.166.86.05 1.751-.33 2.54-.274.269-.619.454-.995.532s-.767.046-1.1249-.092c-.3947-.266-.7343-.605-1-1l-.78.75c.63.45 1.64 1.57 2.4499 1.63.61 0 1.12-.45 1.53-.86.616-.64 1.096-1.397 1.413-2.227.316-.83.461-1.715.427-2.603-.003-.149-.064-.292-.17-.396-.107-.105-.25-.164-.4-.164-.148 0-.291.059-.396.164s-.164.248-.164.396v1.29c0 .074.015.146.043.214s.069.13.121.182.114.093.182.121c.068.029.141.043.214.043.15 0 .293-.059.4-.163.106-.105.167-.247.17-.397v-3.16c-.003-.149-.064-.292-.17-.397-.107-.104-.25-.163-.4-.163-.073 0-.146.015-.214.043s-.13.069-.182.121-.093.114-.121.182-.043.141-.043.214c-.006.758-.073 1.513-.2 2.26l1.11.15c-.09-.897-.13-1.798-.12-2.7-.003-.149-.064-.292-.17-.397-.107-.104-.25-.163-.4-.163-.122.002-.24.042-.338.116-.097.074-.168.177-.202.294-.17.72-.38 1.42-.57 2.13l1-.14-.08-.3c-.06-.72-1.18-.72-1.13 0 .01.304.088.601.23.87.06.085.142.152.237.193.095.042.199.057.302.044.103-.014.2-.055.282-.119.081-.065.143-.151.179-.248.22-.71.41-1.42.58-2.13l-1.11-.15c-.01.902.03 1.803.12 2.7.06.58 1 .83 1.11.15.15-.849.23-1.708.24-2.57h-1.13v3.16h1.13v-1.35h-1.13c.063 1.421-.433 2.81-1.38 3.87-.144.166-.301.32-.47.46-.27.26-.51.22-.73-.12-.5518-.322-1.0709-.697-1.5499-1.12-.47-.34-1.1.32-.77.77.86 1.15 2.15 2.43 3.7599 1.88 1.61-.55 1.92-2.89 1.79-4.39 0-.5-.79-.84-1-.28-.38.79-.75 1.58-1.13 2.38-.198.298-.315.643-.34 1 .13.85 1.15.71 1.78.66 2.45-.19 2.07-3.66 1.78-5.4-.09-.58-.93-.49-1.08 0-.124.343-.188.705-.19 1.07h1.13c-.039-.648-.22-1.279-.53-1.85-.077-.13-.202-.224-.349-.261-.146-.038-.301-.016-.431.061-.08.048-.146.118-.19.2-.34.579-.568 1.217-.67 1.88l1.12.15v-2.36c0-.148-.059-.291-.164-.396s-.247-.164-.396-.164c-.148 0-.291.059-.396.164s-.164.248-.164.396c-.008 1.271-.092 2.539-.25 3.8l1.11-.15c-.131-.615-.35-1.208-.65-1.76-.038-.063-.088-.118-.147-.162-.06-.043-.127-.075-.198-.093-.072-.017-.146-.021-.219-.01-.073.012-.143.037-.206.075-.08.047-.149.112-.2.19-.491 1.179-1.196 2.257-2.0799 3.18l.9399.25-.16-1c-.0899-.5-.7899-.51-.9999-.13-.1873.283-.3141.601-.3726.935-.0586.333-.0474.676.0326 1.005.09.53.77.48 1 .14.4049-.54.7659-1.112 1.0799-1.71l-.9999-.57c-.2606.562-.4391 1.158-.53 1.77-.06.5.53 1 .9999.55.81-.884 1.393-1.951 1.7-3.11.14-.51-.56-1-.94-.55-.692.831-1.3209 1.714-1.8799 2.64l.9999.43 1.15-4.27c.018-.073.021-.149.008-.223-.012-.074-.039-.145-.079-.208s-.092-.118-.154-.161-.131-.073-.205-.088c-.112-.028-.231-.02-.339.023s-.199.119-.261.217l-2.2599 3.32c-.42.61.55 1.13 1 .57l3.0699-4.06c.44-.58-.54-1.13-1-.58z"/><path d="m149.06 130.44c4.52-2.76 8.1-6.88 12.09-10.33 4.33-3.73 8.87-7.21 13.54-10.5 9.08-6.4 18.61-12.1201 28.14-17.8201.066-.0374.123-.0874.17-.1471.046-.0598.08-.128.1-.2009s.025-.149.016-.224-.034-.1474-.071-.213c-.037-.0657-.087-.1233-.147-.1697-.06-.0463-.128-.0804-.201-.1004s-.149-.0254-.224-.0159c-.075.0094-.147.0336-.213.071-9.52 5.71-19.06 11.4201-28.14 17.8201-4.28 3-8.47 6.2-12.48 9.58-4.36 3.69-8.24 8.28-13.16 11.25-.62.38 0 1.36.57 1z"/><path d="m217.4 74.2699c-4.89.49-10.16 1.74-13.17 6-2.59 3.68-2.54 10.1-.1 13.87 2.77 4.3 8.44 4.45 12.84 3.06s8.95-3.82 8.91-9.08c-.167-2.885-.901-5.7087-2.16-8.31-1-2.21-2.69-4.14-5.3-3.9-.71.07-.72 1.2 0 1.13 3.49-.32 4.61 3.82 5.44 6.43.75 2.45 1.45 5.33.27 7.76s-4 3.66-6.47 4.55c-2.608 1.1167-5.503 1.3792-8.27.75-5.45-1.52-6.95-8.42-5.38-13.32 1.8-5.64 8.2-7.3 13.41-7.83.71-.07.72-1.2 0-1.12z"/><path d="m224.92 117.89c-4.89.5-10.16 1.75-13.16 6-2.6 3.68-2.55 10.1-.11 13.87 2.78 4.29 8.44 4.45 12.84 3.06s9-3.82 8.91-9.08c-.165-2.885-.899-5.71-2.16-8.31-1-2.21-2.69-4.14-5.29-3.9-.72.07-.73 1.2 0 1.13 3.48-.32 4.6 3.82 5.43 6.43.75 2.44 1.45 5.33.27 7.76s-4 3.66-6.46 4.55c-2.613 1.112-5.51 1.374-8.28.75-5.44-1.52-6.95-8.42-5.38-13.32 1.81-5.64 8.2-7.3 13.41-7.83.71-.07.72-1.2 0-1.13z"/><path d="m210 85.2501 3.56 4.06c.053.0535.116.096.186.125.069.0289.144.0439.219.0439s.15-.015.219-.0439c.07-.029.133-.0715.186-.125.062-.0681.107-.1505.13-.24.76-2 .61-4 .79-6.11.195-2.1492.735-4.2528 1.6-6.23 1.735-4.0112 4.679-7.3812 8.42-9.64.62-.38 0-1.36-.57-1-3.69 2.2169-6.649 5.4678-8.51 9.35-.92 1.8959-1.554 3.9179-1.88 6-.38 2.44 0 5-.94 7.34l.94-.25-3.54-4.06c-.48-.54-1.27.26-.8.8z"/><path d="m150.88 134.83c19.4-.593 38.803-.717 58.21-.37.137-.018.263-.086.354-.189.091-.104.141-.238.141-.376s-.05-.271-.141-.375-.217-.172-.354-.19c-19.4-.353-38.803-.227-58.21.38-.73.02-.73 1.15 0 1.12z"/><path d="m213.15 123.71c6.612 2.605 12.971 5.808 19 9.57.133.076.29.095.437.055s.273-.137.348-.27c.076-.133.096-.29.055-.437-.04-.147-.137-.272-.27-.348-6.126-3.815-12.59-7.058-19.31-9.69-.67-.26-1 .83-.29 1.09z"/><path d="m225.19 118.6c-6.717 7.832-10.611 17.692-11.06 28 0 .72 1.1.72 1.13 0 .431-10.014 4.213-19.593 10.74-27.2.47-.55-.33-1.36-.8-.8z"/><path d="m74.7701 130.74 41.9999-.55 4.84-.06h2.6c.282.01.56.077.815.197.255.121.484.292.671.503.187.212.329.459.417.727.089.268.122.552.097.833-.06 2.63-1.71 2.54-3.88 2.63l-5.22.24-21.2799.93c-3.81.17-7.62.38-11.43.51-3.44.11-10-1-8.45-6 .21-.69-.87-1-1.09-.3-.3063 1.196-.2051 2.46.2875 3.592s1.3486 2.067 2.4325 2.658c3 1.83 7.06 1.21 10.41 1.06l26.1199-1.19 6.34-.28c1.63-.07 3.89.26 5.38-.5 1.75-.88 2.06-4.39 1-5.87-.281-.312-.633-.553-1.026-.701s-.817-.199-1.234-.149c-2.34-.09-4.72.06-7.06.09l-13 .17-29.7599.38c-.0736.003-.1459.02-.2128.05-.067.031-.1273.074-.1774.128-.0502.054-.0892.117-.1149.186s-.0376.143-.0349.216c.0048.143.063.278.1629.38.1.102.2346.163.3771.17z"/></g><path d="m198.27 160.04-12.21-7.36 3.56 13.8 2.15-5.03 3.59 4.81 1.06-.79-3.58-4.81z" fill="#eb0029"/><path d="m216.49 167.96h-20.69v7.15h20.69z" fill="#eb0029"/><path d="m126.02 101.74 12.21-7.3601-3.57 13.8101-2.15-5.03-3.58 4.8-1.07-.79 3.59-4.81z" fill="#3f3e54"/><path d="m128.49 110.04h-20.69v7.15h20.69z" fill="#3f3e54"/></svg>