<svg fill="none" height="300" viewBox="0 0 300 300" width="300" xmlns="http://www.w3.org/2000/svg"><path d="m288 0h-276c-6.62742 0-12 5.37258-12 12v276c0 6.627 5.37258 12 12 12h276c6.627 0 12-5.373 12-12v-276c0-6.62742-5.373-12-12-12z" fill="#fff"/><path d="m215.26 142.13-4.15 18.66-3.36 15.14-2.69 12.07-3.37 15.14-10.99 49.46-136.2901-62.98-10.02-4.63-12.68-5.86-10.02-4.63-12.05001-5.57 6.83001-9.94 5.68-8.27 7.19-10.46 5.68-8.26 63.93-93 67.7101 60.04 12.06 10.69 9.62 8.53 12.06 10.69z" fill="#f1f1f1"/><path d="m164.21 165.63 7.04 12.19 7.04 12.2h-14.08-14.08l7.04-12.2z" fill="#eb0029"/><path d="m124.2 141.68h-29.5201v29.52h29.5201z" fill="#eb0029"/><path d="m145.37 122.87c10.46 0 18.94-8.48 18.94-18.94 0-10.4603-8.48-18.94-18.94-18.94s-18.94 8.4797-18.94 18.94c0 10.46 8.48 18.94 18.94 18.94z" fill="#eb0029"/><g fill="#3f3e54"><path d="m162.42 135.56c-.002-.622.181-1.23.525-1.748s.835-.922 1.409-1.161 1.206-.302 1.816-.181 1.171.42 1.61.86c.44.439.739 1 .86 1.61s.058 1.242-.181 1.816-.643 1.065-1.161 1.409-1.126.527-1.748.525c-.829-.003-1.624-.333-2.21-.92-.587-.586-.917-1.381-.92-2.21zm.52 0c0 .519.154 1.025.442 1.457.289.431.698.766 1.178.964.479.198 1.006.25 1.515.148.508-.102.975-.353 1.341-.72s.615-.835.715-1.344.046-1.036-.153-1.515c-.2-.478-.538-.887-.97-1.173-.432-.287-.939-.439-1.458-.437-.344 0-.684.068-1.001.2-.317.131-.606.324-.848.568-.243.243-.435.532-.565.85-.131.318-.197.658-.196 1.002z"/><path d="m135.42 190.1-4.61-4.95 4.95-4.62 4.61 4.95zm-3.87-4.93 3.9 4.19 4.19-3.91-3.91-4.18z"/><path d="m97.31 119.71-3.76-4 4-3.76 3.76 4zm-3.16-4 3.18 3.41 3.41-3.18-3.18-3.41z"/><path d="m290.38 252.2h-163.04v.52h163.04z"/><path d="m150.07 125.22c-5.168 0-10.22-1.533-14.517-4.404s-7.646-6.952-9.624-11.727c-1.978-4.774-2.495-10.028-1.487-15.0967 1.008-5.0688 3.497-9.7247 7.151-13.379 3.655-3.6544 8.311-6.143 13.379-7.1512 5.069-1.0083 10.323-.4908 15.097 1.4869 4.775 1.9777 8.856 5.3269 11.727 9.6239 2.871 4.2971 4.404 9.349 4.404 14.5171.001 3.432-.674 6.83-1.986 10.001-1.313 3.171-3.238 6.052-5.664 8.479-2.427 2.426-5.308 4.351-8.479 5.664-3.171 1.312-6.569 1.987-10.001 1.986zm0-51.73c-5.066 0-10.017 1.5022-14.229 4.3167s-7.494 6.8149-9.433 11.4951c-1.938 4.6802-2.444 9.83-1.455 14.7982.989 4.968 3.429 9.531 7.011 13.113 3.583 3.581 8.147 6.019 13.116 7.006 4.968.987 10.118.479 14.797-1.461 4.68-1.94 8.679-5.224 11.492-9.437s4.313-9.165 4.311-14.231c0-3.3627-.663-6.6924-1.95-9.799s-3.173-5.9292-5.552-8.3065c-2.378-2.3773-5.201-4.2628-8.308-5.5487s-6.437-1.9471-9.8-1.9458z"/><path d="m133.99 119.415-6.747 14.043.469.225 6.746-14.043z"/><path d="m132.427 152.163-.247.457 29.726 16.087.248-.457z"/><path d="m132.57 171.47h-38.1501v-38.15h38.1501zm-37.6301-.47h37.1101v-37.16h-37.1101z"/><path d="m189.14 190.28h-39.46l19.73-34.17zm-38.56-.52h37.65l-18.82-32.61z"/></g><path d="m238.91 133.58c3.606 0 6.53-2.924 6.53-6.53s-2.924-6.53-6.53-6.53c-3.607 0-6.53 2.924-6.53 6.53s2.923 6.53 6.53 6.53z" fill="#96646b"/><path d="m242.3 130.45s.79 7.84 2.09 9.14-9.14-.78-9.14-.78 1.57-6.53.52-7.58 6.53-.78 6.53-.78z" fill="#96646b"/><path d="m246.88 143.64s3.12 8.89 3.92 14.36c.42 2.595.681 5.213.78 7.84 0 0 3.4 10.45 2.35 15.42 0 0 3.92 11.75.52 11.75s-4.44-9.66-4.44-9.66l-5.22-24.83z" fill="#96646b"/><path d="m248.44 147.82s-.78-9.67-4.18-10.45c-1.62-.37-4.25-.93-6.56-1.4-1.958-.417-4-.177-5.808.684-1.808.86-3.281 2.293-4.192 4.076-.342.667-.569 1.387-.67 2.13-.52 4.18-3.14 4.18-.78 9.67 1.431 3.562 2.053 7.398 1.82 11.23l1.57 13.85s-6.53 18.29-6 30.57l-6 30s1.31 3.14 5 1.57c0 0 9.14-15.41 8.36-26.65l9.4-20.9s6.54 19.86 8.37 21.69l4.7 28.21s4.44 1.31 6.53 0c0 0 .78-27.17-3.66-31.61 0 0-4.44-18.81-3.39-23.78s1.3-12.54-6.54-19.33c0 0 1.05-2.88-2.35-4.44l2.62-8.36z" fill="#2f2e40"/><path d="m232.06 136.69h-.22c-.555-.039-1.112.034-1.638.216s-1.009.468-1.421.842c-.413.374-.745.827-.977 1.333-.232.505-.359 1.053-.374 1.609l-.41 9.29-1.57 10.19-3.39 22s-6.54 7.84-2.09 8.36 5.22-8.62 5.22-8.62l5.75-17.25 2.35-15.93s2.74-2.75 1.6-9.09c-.094-.73-.42-1.41-.929-1.941-.51-.531-1.176-.885-1.901-1.009z" fill="#96646b"/><path d="m217.09 237.18-1.83 9.41s-4.44 2.09-1.57 4.7 6.8-.52 6.8-.52l1-3.14-.26 4.7h.79l.78-4.7s1.57-2.87.52-5.23v-3.13z" fill="#2f2e40"/><path d="m252.76 238.09-1 8.63s-4.44 2.09-1.57 4.7 6.8-.52 6.8-.52l1-3.14-.26 4.7h.78l.79-4.7s1.56-2.87.52-5.22v-3.14z" fill="#2f2e40"/><path d="m242.32 117c-.369.006-.737.043-1.1.11-.649-.313-1.36-.477-2.08-.48h-.14c-3.64 0-6.6 3.3-6.6 7.37h1.22l.2-1.5.29 1.5h1c-.319 1.204-.481 2.444-.48 3.69v7.5h1.85l1.07-2.78-.27 2.78h11.87l1-2.53-.24 2.53h1.34v-5.89c-.06-6.84-4.03-12.3-8.93-12.3z" fill="#2f2e40"/><path d="m279.08 164.82h-.49v87.59h.49z" fill="#3f3e54"/><path d="m278.93 244.9c5.274 0 9.55-9.76 9.55-21.8s-4.276-21.8-9.55-21.8-9.55 9.76-9.55 21.8 4.276 21.8 9.55 21.8z" fill="#3f3e54"/><path d="m278.93 195.19c5.274 0 9.55-9.76 9.55-21.8s-4.276-21.8-9.55-21.8-9.55 9.76-9.55 21.8 4.276 21.8 9.55 21.8z" fill="#3f3e54"/><path d="m279.16 155.58-.47-.14c0-.1 2.91-10-1.82-16.32-2.67-3.59-7.25-5.41-13.62-5.41v-.49c6.53 0 11.25 1.89 14 5.61 4.89 6.55 1.94 16.65 1.91 16.75z" fill="#3f3e54"/><path d="m263.25 139.59c3.38 0 6.12-2.74 6.12-6.12s-2.74-6.12-6.12-6.12-6.12 2.74-6.12 6.12 2.74 6.12 6.12 6.12z" fill="#f1f1f1"/></svg>