<svg width="300" height="300" viewBox="0 0 300 300" fill="none" xmlns="http://www.w3.org/2000/svg">
<path d="M288 0H12C5.37258 0 0 5.37258 0 12V288C0 294.627 5.37258 300 12 300H288C294.627 300 300 294.627 300 288V12C300 5.37258 294.627 0 288 0Z" fill="white"/>
<path d="M274.25 31.1499H11.22V199.6H274.25V31.1499Z" fill="#E5E5E5"/>
<path d="M266.73 52.28H18.75V189.64H266.73V52.28Z" fill="white"/>
<path d="M274.14 31H11.1101V42.17H274.14V31Z" fill="#EB0029"/>
<path d="M19.4201 38.7799C20.5633 38.7799 21.4901 37.8531 21.4901 36.7099C21.4901 35.5667 20.5633 34.6399 19.4201 34.6399C18.2769 34.6399 17.3501 35.5667 17.3501 36.7099C17.3501 37.8531 18.2769 38.7799 19.4201 38.7799Z" fill="white"/>
<path d="M27.28 38.7799C28.4232 38.7799 29.35 37.8531 29.35 36.7099C29.35 35.5667 28.4232 34.6399 27.28 34.6399C26.1367 34.6399 25.21 35.5667 25.21 36.7099C25.21 37.8531 26.1367 38.7799 27.28 38.7799Z" fill="white"/>
<path d="M35.1401 38.7799C36.2833 38.7799 37.2101 37.8531 37.2101 36.7099C37.2101 35.5667 36.2833 34.6399 35.1401 34.6399C33.9968 34.6399 33.0701 35.5667 33.0701 36.7099C33.0701 37.8531 33.9968 38.7799 35.1401 38.7799Z" fill="white"/>
<path d="M288.16 247.95L290.09 255.68L281.59 258L280.81 249.88L288.16 247.95Z" fill="#96646B"/>
<path d="M257.23 257.61V264.96L248.73 266.5L247.18 262.64L250.27 256.06L257.23 257.61Z" fill="#96646B"/>
<path d="M274.24 177.59L273.08 188L273.86 208.1C273.86 208.1 273.86 210.03 275.02 210.8C275.64 211.23 289.32 249.46 289.32 249.46C288.212 250.66 286.805 251.544 285.242 252.02C283.68 252.496 282.019 252.548 280.43 252.17L279.27 248.3C278.648 246.186 277.873 244.121 276.95 242.12C276.18 240.96 264.58 217.38 264.58 217.38L259.17 207.71L257.62 220.86C257.62 220.86 260.71 237.48 259.94 245.21C259.17 252.94 257.62 261.06 257.62 261.06L248.34 259.51C248.299 258.262 247.896 257.053 247.18 256.03C246.02 254.49 246.41 249.08 246.41 249.08V248L244.09 218.23L239.84 179.18L274.24 177.59Z" fill="#2F2E40"/>
<path d="M247.95 107.23C253.716 107.23 258.39 102.556 258.39 96.7901C258.39 91.0242 253.716 86.3501 247.95 86.3501C242.184 86.3501 237.51 91.0242 237.51 96.7901C237.51 102.556 242.184 107.23 247.95 107.23Z" fill="#96646B"/>
<path d="M257.04 96.98L261.29 107.42L251.24 114.77L245.06 103.94L257.04 96.98Z" fill="#96646B"/>
<path d="M257.62 104.91L261.49 102.98L263.8 108.39C263.8 108.39 278.88 113.03 277.72 134.29C276.56 155.55 273.86 163.67 273.86 163.67C273.86 163.67 280.43 177.59 276.56 179.13C272.69 180.67 239.84 186.48 239.06 181.07C238.28 175.66 241.77 144 241.77 144C241.77 144 240.61 121.19 250.27 116.55L248.34 112.3L257.62 104.91Z" fill="#3F3E54"/>
<path d="M236.36 179.91C236.36 179.91 227.47 189.19 232.49 191.5C237.51 193.81 240.61 181.07 240.61 181.07L236.36 179.91Z" fill="#96646B"/>
<path d="M254.53 263L258.78 261.46C258.78 261.46 263.42 271.89 259.55 271.89H249.5C249.5 271.89 243.7 269.96 240.61 269.96C237.52 269.96 231.72 264.16 235.97 261.46C240.22 258.76 245.64 259.52 245.64 259.52L247.18 256.04L249.11 261.46C249.11 261.46 251.43 265.34 254.53 263Z" fill="#2F2E40"/>
<path d="M285.84 254.52C285.84 254.52 288.26 252.99 289.56 253.52C290.86 254.05 291.64 260.28 291.64 260.28C291.64 260.28 295.5 264.92 287 265.69C278.5 266.46 276.56 264.92 275.79 262.6C275.599 261.815 275.569 260.999 275.701 260.201C275.834 259.404 276.126 258.642 276.56 257.96L278.88 257.18C278.88 257.18 281.59 255.25 280.81 254.48C280.03 253.71 280.81 252.16 280.81 252.16C280.81 252.16 283.52 257.61 285.84 254.52Z" fill="#2F2E40"/>
<path d="M251.52 96.6201C251.482 96.28 251.408 95.9448 251.3 95.6201C250.74 94.4401 248.55 94.7901 248.16 93.5401C248.08 93.3001 248.1 93.0401 248.02 92.7901C247.889 92.4916 247.666 92.243 247.384 92.081C247.101 91.9189 246.774 91.852 246.45 91.8901C245.806 91.9777 245.175 92.1422 244.57 92.3801C243.01 92.7085 241.403 92.7424 239.83 92.4801C239.133 92.4493 238.451 92.2685 237.83 91.9501C237.521 91.78 237.275 91.5154 237.127 91.195C236.98 90.8747 236.939 90.5155 237.01 90.1701C237.22 89.5301 237.92 89.1701 238.24 88.5801C238.74 87.6401 238.13 86.4201 238.53 85.4301C239.19 83.8401 241.65 84.1601 242.9 82.9801C243.21 82.7001 243.43 82.3301 243.72 82.0401C244.192 81.6378 244.747 81.3448 245.345 81.1823C245.943 81.0198 246.57 80.9917 247.18 81.1001C248.392 81.332 249.618 81.4857 250.85 81.5601C252.02 81.5601 253.25 81.1901 254.33 81.6401C254.977 81.9694 255.547 82.433 256 83.0001L258.77 86.0001C259.149 86.3587 259.44 86.8002 259.62 87.2901C259.7 87.8899 259.73 88.4953 259.71 89.1001C259.87 90.4701 261.15 91.5101 261.33 92.8801C261.36 93.3043 261.34 93.7306 261.27 94.1501L260.83 97.0001C260.808 97.2782 260.733 97.5496 260.61 97.8001C260.485 97.9852 260.348 98.1622 260.2 98.3301C259.937 98.9033 259.765 99.5139 259.69 100.14C259.52 100.75 258.88 101.35 258.32 101.05C257.95 100.86 257.71 99.2901 257.27 98.8801C256.65 98.3101 256.33 98.3801 255.57 98.3901C254 98.4501 252 98.5801 251.52 96.6201Z" fill="#2F2E40"/>
<path d="M253.37 119.21C253.37 119.21 264.96 123.85 261.49 134.29C258.02 144.73 248.73 176.81 248.73 176.81L243.32 179.52L241.77 183.77L234.42 181.07L235.58 175.27L238.29 169.47L245.29 126.17C245.29 126.17 245.25 118.83 253.37 119.21Z" fill="#3F3E54"/>
<path opacity="0.1" d="M262.06 136.42L250.08 177.39L245.06 182.42L247.96 177.2L262.06 136.42Z" fill="black"/>
<path d="M26.1101 143L28.3701 159.07L37.9101 176.15C40.6701 178.66 38.1601 184.68 38.1601 184.68L35.6501 183L35.1501 180C35.1501 180 24.1501 167.45 21.3401 164.43C18.5301 161.41 17.5701 144.85 17.5701 144.85L26.1101 143Z" fill="#F1BFBE"/>
<path d="M17.8 252C18.0375 254.419 18.121 256.851 18.05 259.28C17.8 260.79 10.26 259.03 10.26 259.03C11.52 256.52 12.26 249.03 12.26 249.03L17.8 252Z" fill="#F1BFBE"/>
<path d="M55.1999 253.52C55.1999 253.52 55.9599 261.52 55.7099 263.06C55.4599 264.6 47.9199 262.81 47.9199 262.81C49.1799 260.3 49.9199 252.81 49.9199 252.81L55.1999 253.52Z" fill="#F1BFBE"/>
<path d="M39.8199 124.72C44.8623 124.72 48.9499 120.632 48.9499 115.59C48.9499 110.548 44.8623 106.46 39.8199 106.46C34.7776 106.46 30.6899 110.548 30.6899 115.59C30.6899 120.632 34.7776 124.72 39.8199 124.72Z" fill="#F1BFBE"/>
<path d="M41.4 124.22C39.89 126.22 40.64 129.74 40.64 129.74C40.64 129.74 25.33 147.57 22.57 147.57C19.81 147.57 20.31 135 20.31 135C20.31 135 24.31 130.23 26.58 129.23C28.85 128.23 32.86 117.43 32.86 117.43C32.86 117.43 42.9 122.21 41.4 124.22Z" fill="#F1BFBE"/>
<path d="M51.6899 158.36L61.5199 174.87C63.3099 177.82 59.9699 192.76 59.9699 192.76L58.4699 224.65L55.9999 256.77V260.29L47.6699 260L44.9099 225.61L40.9099 199.75L34.3899 219.58L23.5699 244C22.651 247.004 21.5181 249.938 20.1799 252.78L18.1799 256.3L10.6499 255.42L22.0699 216.88L24.3299 191.78C24.5799 177.72 29.0999 169.93 29.0999 169.93V166.93L51.6899 158.36Z" fill="#2F2E40"/>
<path d="M17.2899 258C17.2899 258 18.5499 256 18.5499 256.74C18.5499 257.48 21.8099 259.5 21.8099 259.5C21.8099 259.5 25.0799 259 25.5799 262.77C26.0799 266.54 21.0599 267.29 19.7999 267.04C18.2886 266.957 16.7728 267.041 15.2799 267.29C13.1182 267.607 10.9217 267.607 8.75992 267.29C4.75992 266.79 8.24992 260.01 8.75992 258.75C9.26992 257.49 11.7599 258.5 11.7599 258.5C16.2899 259.8 17.2899 258 17.2899 258Z" fill="#2F2E40"/>
<path d="M55.0001 261.8C55.0001 261.8 56.2601 259.8 56.2601 260.55C56.2601 261.3 59.5201 263.31 59.5201 263.31C59.5201 263.31 62.7901 262.81 63.2901 266.57C63.7901 270.33 58.7701 271.09 57.5101 270.84C55.9988 270.757 54.483 270.841 52.9901 271.09C50.8289 271.414 48.6314 271.414 46.4701 271.09C42.4701 270.59 45.9601 263.81 46.4701 262.56C46.9801 261.31 49.4701 262.31 49.4701 262.31C54.0001 263.56 55.0001 261.8 55.0001 261.8Z" fill="#2F2E40"/>
<path d="M37.63 129.49C43.91 122.96 50.69 139.28 50.69 139.28C50.69 139.28 52.94 145.28 51.19 148.57C49.44 151.86 52.94 159.12 52.94 159.12C44.35 166.44 35.78 173.2 27.84 168.41C28.84 162.41 25.58 159.41 23.32 153.59C21.06 147.77 16.79 149.07 16.79 149.07C16.79 149.07 17.04 142.55 17.79 137.27C18.54 131.99 25.33 130 25.33 130C26.56 132.23 31.35 136 37.63 129.49Z" fill="#3F3E54"/>
<path d="M48.6799 140L50.9399 156.06L60.4799 173.14C63.2399 175.65 60.7299 181.67 60.7299 181.67L58.2199 180L57.7199 177C57.7199 177 46.7199 164.45 43.9099 161.44C41.0999 158.43 40.1399 141.85 40.1399 141.85L48.6799 140Z" fill="#F1BFBE"/>
<path d="M50.1801 142.55L39.6401 143.8C39.6401 143.8 38.8901 131.5 40.4801 128.43C42.0701 125.36 47.9201 128.74 47.9201 128.74C49.4301 129 50.1801 142.55 50.1801 142.55Z" fill="#3F3E54"/>
<path d="M50.0001 110.3C43.2501 113.68 47.1501 122.89 46.3501 126.76C45.0401 133.09 25.7901 129.87 25.7901 129.87C23.4501 129.45 22.0201 103.39 34.8501 103.62C41.3501 103.74 55.8301 107.41 50.0001 110.3Z" fill="#2F2E40"/>
<path d="M45.93 118.31C46.4491 118.31 46.87 117.638 46.87 116.81C46.87 115.982 46.4491 115.31 45.93 115.31C45.4108 115.31 44.99 115.982 44.99 116.81C44.99 117.638 45.4108 118.31 45.93 118.31Z" fill="#F1BFBE"/>
<path d="M82.89 84.62C92.82 86.45 102.89 84.62 112.83 83.38L142.83 79.62C144.04 79.46 145.83 78.74 146.53 80.22C146.93 81.05 146.66 82.86 146.69 83.81C146.77 86.44 146.76 89.08 146.69 91.71C146.55 96.71 146.18 101.76 145.69 106.77C144.78 116.58 143.49 126.33 142.84 136.17C142.51 141.17 142.34 146.17 142.49 151.22C142.49 152.41 142.57 153.61 142.64 154.8C142.71 155.99 143.32 158.12 141.86 159.01C141.03 159.52 139.4 159.5 138.45 159.65C136.94 159.88 135.45 160.07 133.9 160.23C123.79 161.23 113.54 160.82 103.39 160.76L72.8 160.6H65.32C64.65 160.6 62.2 161 61.79 160.2C61.7925 159.392 61.9173 158.59 62.16 157.82C62.28 157.12 62.4 156.41 62.54 155.71C63.41 150.76 64.44 145.85 65.48 140.93C67.71 130.36 70 119.78 70.91 109C71.37 103.61 71.07 98.16 71.62 92.77C71.88 90.27 72.19 84.69 75.52 84.47C78.34 84.28 81.24 84.47 84.07 84.47C84.1505 84.4807 84.2324 84.4741 84.3101 84.4506C84.3879 84.4271 84.4597 84.3873 84.5208 84.3338C84.5819 84.2803 84.6309 84.2144 84.6644 84.1404C84.698 84.0665 84.7153 83.9862 84.7153 83.905C84.7153 83.8237 84.698 83.7435 84.6644 83.6695C84.6309 83.5955 84.5819 83.5296 84.5208 83.4761C84.4597 83.4226 84.3879 83.3828 84.3101 83.3593C84.2324 83.3358 84.1505 83.3292 84.07 83.34C81.4 83.34 78.73 83.27 76.07 83.34C74.29 83.34 73.07 83.8 72.21 85.43C70.05 89.62 70.27 95.21 70.21 99.78C70.05 110.78 68.37 121.44 66.21 132.15C65.11 137.54 63.92 142.91 62.83 148.31C62.31 150.88 61.83 153.47 61.37 156.06C61.16 157.29 60.09 160.01 61.03 161.14C61.97 162.27 64.85 161.67 66.14 161.67L75.14 161.73L92.34 161.82C103.45 161.89 114.59 162.2 125.7 161.87C131 161.71 136.61 161.5 141.77 160.23C142.438 160.171 143.056 159.854 143.493 159.346C143.93 158.838 144.152 158.179 144.11 157.51C144.2 154.96 143.79 152.34 143.73 149.79C143.36 127.94 148.49 106.39 147.97 84.53C147.97 83.04 148.49 79.3 146.87 78.4C146.082 78.1201 145.227 78.0887 144.42 78.31C142.96 78.47 141.49 78.68 140.03 78.85L121.03 81.23C114.94 81.98 108.85 82.8 102.75 83.49C96.29 84.24 89.75 84.69 83.34 83.49C82.63 83.36 82.34 84.49 83.04 84.58L82.89 84.62Z" fill="#E5E5E5"/>
<path d="M70.92 97.9201L146.07 94.2301C146.8 94.2301 146.8 93.0601 146.07 93.1001L70.92 96.7901C70.2 96.8201 70.19 98.0001 70.92 97.9201Z" fill="#E5E5E5"/>
<path d="M94.0701 88.6099C93.9005 88.7897 93.768 89.0012 93.6802 89.2322C93.5924 89.4633 93.551 89.7094 93.5585 89.9565C93.5659 90.2035 93.622 90.4467 93.7235 90.6721C93.825 90.8975 93.97 91.1006 94.1501 91.2699C94.3219 91.4315 94.5219 91.5603 94.7401 91.6499C95.7967 91.9511 96.9239 91.8877 97.9401 91.4699C99.4501 91.0999 100.94 90.7599 102.5 90.4699C105.865 89.8734 109.273 89.5556 112.69 89.5199C114.24 89.5199 115.79 89.5199 117.35 89.6399C118.479 89.8355 119.64 89.6378 120.64 89.0799C120.915 88.9107 121.148 88.6812 121.321 88.4088C121.494 88.1363 121.603 87.8281 121.64 87.5073C121.677 87.1865 121.64 86.8617 121.532 86.5572C121.425 86.2527 121.25 85.9767 121.02 85.7499C119.52 84.3799 116.27 85.1799 114.54 85.3199C108.232 85.8424 101.966 86.7777 95.7801 88.1199C95.0801 88.2699 95.3701 89.3599 96.0801 89.1999C100.16 88.3199 104.273 87.6132 108.42 87.0799C110.42 86.8332 112.46 86.6232 114.54 86.4499C115.5 86.3699 116.46 86.2999 117.42 86.2399C117.8 86.2399 118.2 86.1799 118.58 86.1899C119.78 86.1899 119.91 85.9999 119.2 87.4399C118.56 88.7199 118.77 88.5699 117.67 88.5299C117.2 88.5299 116.73 88.4699 116.27 88.4499C115.27 88.4499 114.36 88.3899 113.4 88.3899C111.4 88.3899 109.373 88.4866 107.32 88.6799C105.6 88.8499 103.89 89.0799 102.19 89.3799C101.13 89.5699 100.08 89.7899 99.0301 90.0299L97.6401 90.3699L96.9701 90.5399C96.1501 90.8199 95.4501 90.4499 94.8701 89.4099C95.3701 88.8799 94.5801 88.0799 94.0701 88.6099V88.6099Z" fill="#E5E5E5"/>
<path d="M107.7 104.67C102.25 104.46 96.3701 105.93 92.7901 110.31C89.9801 113.73 88.3901 119.61 91.3601 123.47C94.5501 127.61 101.55 126.88 105.78 125.12C110.25 123.24 115.13 119.36 116.48 114.51C118.15 108.45 112.72 103.87 107.06 103.8C106.986 103.801 106.912 103.817 106.844 103.847C106.776 103.877 106.715 103.921 106.663 103.975C106.612 104.029 106.572 104.092 106.546 104.162C106.52 104.232 106.507 104.306 106.51 104.38C106.515 104.524 106.575 104.661 106.677 104.763C106.779 104.866 106.916 104.925 107.06 104.93C110.28 104.93 113.45 106.35 114.95 109.35C116.53 112.52 115.17 115.84 113.07 118.35C109.71 122.35 104.45 125.43 99.0701 125.35C95.8501 125.3 92.3001 124.2 91.3001 120.81C90.9409 119.433 90.8647 117.997 91.0761 116.589C91.2875 115.181 91.7821 113.831 92.5301 112.62C95.6301 107.35 101.92 105.62 107.69 105.79C108.41 105.79 108.41 104.69 107.69 104.67H107.7Z" fill="#E5E5E5"/>
<path d="M102.29 113C102.109 112.933 101.917 112.902 101.725 112.91C101.533 112.917 101.344 112.963 101.169 113.044C100.994 113.125 100.837 113.239 100.707 113.381C100.577 113.523 100.476 113.689 100.41 113.87C100.33 114.073 100.299 114.293 100.32 114.51C100.43 115.98 102.05 116.39 103.26 116.3C104.26 116.21 105.54 115.82 105.17 114.51C105.103 114.277 104.986 114.062 104.827 113.879C104.668 113.696 104.471 113.549 104.25 113.45C103.914 113.317 103.549 113.272 103.19 113.32C103.05 113.32 101.78 113.79 102.32 113.23L101.43 113.11C101.528 113.207 101.604 113.324 101.65 113.454C101.697 113.584 101.714 113.723 101.7 113.86C101.705 114.01 101.769 114.153 101.877 114.257C101.985 114.362 102.13 114.42 102.28 114.42C102.374 114.418 102.467 114.394 102.55 114.35C102.642 114.309 102.741 114.287 102.841 114.285C102.942 114.283 103.041 114.301 103.135 114.338C103.228 114.376 103.313 114.431 103.384 114.502C103.455 114.573 103.512 114.657 103.55 114.75C103.605 114.905 103.605 115.075 103.55 115.23C103.517 115.376 103.542 115.529 103.621 115.656C103.699 115.783 103.825 115.874 103.97 115.91C104.085 115.935 104.205 115.925 104.314 115.88C104.423 115.835 104.516 115.759 104.58 115.66C104.96 114.99 105.41 113.66 104.85 112.93C104.632 112.746 104.355 112.645 104.07 112.645C103.785 112.645 103.508 112.746 103.29 112.93C103.013 113.125 102.755 113.346 102.52 113.59C102.06 113.99 101.77 114.18 101.94 113.41C102.155 112.718 102.521 112.082 103.013 111.55C103.504 111.017 104.108 110.6 104.78 110.33L103.95 109.7C103.517 111.327 102.743 112.844 101.68 114.15L102.68 114.55C102.652 114.034 102.783 113.521 103.057 113.083C103.331 112.644 103.734 112.301 104.21 112.1H103.66L103.95 112.58C103.84 113.29 104.95 113.58 105.04 112.88C105.18 111.95 104.6 110.74 103.51 111.2C102.895 111.509 102.384 111.99 102.04 112.585C101.695 113.18 101.532 113.863 101.57 114.55C101.57 115 102.21 115.35 102.57 114.95C103.774 113.488 104.648 111.782 105.13 109.95C105.148 109.877 105.151 109.801 105.14 109.727C105.128 109.653 105.102 109.582 105.063 109.518C105.024 109.454 104.973 109.398 104.912 109.354C104.852 109.309 104.783 109.278 104.71 109.26C104.571 109.23 104.425 109.251 104.3 109.32C103.176 109.832 102.224 110.658 101.56 111.7C101.11 112.45 100.56 113.63 101 114.49C101.075 114.627 101.177 114.749 101.299 114.847C101.421 114.945 101.562 115.018 101.712 115.062C101.863 115.105 102.021 115.119 102.176 115.101C102.332 115.084 102.483 115.036 102.62 114.96V114.96C102.991 114.764 103.328 114.511 103.62 114.21C103.76 114.09 103.91 113.87 104.09 113.84C104.27 113.81 104.25 113.84 104.09 114.04C104.088 114.428 103.973 114.806 103.76 115.13L104.76 115.57C104.854 115.219 104.844 114.848 104.731 114.503C104.619 114.157 104.408 113.852 104.126 113.623C103.844 113.395 103.501 113.253 103.14 113.215C102.778 113.177 102.414 113.245 102.09 113.41L102.94 113.9C102.951 113.421 102.8 112.952 102.51 112.57C102.431 112.442 102.305 112.35 102.159 112.314C102.013 112.279 101.859 112.302 101.73 112.38C101.692 112.401 101.659 112.428 101.63 112.46C101.478 112.598 101.356 112.766 101.273 112.954C101.189 113.141 101.146 113.345 101.146 113.55C101.146 113.755 101.189 113.958 101.273 114.146C101.356 114.334 101.478 114.502 101.63 114.64C102.16 115.05 102.43 114.64 103.02 114.55C105.02 114.29 103.85 115.19 103.15 115.22C102.832 115.252 102.51 115.228 102.2 115.15C101.42 114.89 101.37 114.54 102.05 114.15C102.73 114.42 103.05 113.33 102.36 113.06L102.29 113Z" fill="#E5E5E5"/>
<path d="M101.38 115.09C101.85 116.59 99.94 117.09 99.03 117.6C98.3973 117.951 97.8427 118.428 97.4 119C96.5471 120.335 95.9975 121.84 95.79 123.41C95.64 124.12 96.73 124.41 96.88 123.71C97.0655 122.59 97.4019 121.5 97.88 120.47C98.56 119.12 99.53 118.67 100.79 117.98C102.05 117.29 102.97 116.21 102.52 114.75C102.467 114.62 102.368 114.514 102.242 114.452C102.116 114.391 101.971 114.378 101.836 114.417C101.701 114.455 101.585 114.542 101.51 114.661C101.435 114.779 101.407 114.922 101.43 115.06L101.38 115.09Z" fill="#E5E5E5"/>
<path d="M103.26 114.33C102.992 114.369 102.747 114.506 102.574 114.715C102.4 114.924 102.31 115.189 102.32 115.46C102.32 115.9 102.62 116.19 102.82 116.55C103.304 117.28 103.675 118.079 103.92 118.92C104.196 119.905 104.171 120.949 103.85 121.92C103.07 123.32 101.67 123.05 100.47 123.05C99.27 123.05 98.47 123.42 98.47 121.85C98.6116 120.938 99.0027 120.083 99.6 119.38L98.6 119.24C98.8181 120.391 98.9319 121.559 98.94 122.73C98.94 123.25 99.74 123.54 99.94 123.01C100.552 121.728 101.034 120.388 101.38 119.01L100.27 118.86L100.46 121.72C100.465 121.87 100.529 122.011 100.637 122.114C100.746 122.217 100.891 122.273 101.04 122.27C101.134 122.27 101.226 122.246 101.308 122.2C101.39 122.155 101.46 122.089 101.51 122.01C101.641 121.864 101.737 121.689 101.79 121.5C101.79 121.32 101.48 120.13 101.35 120.5L102.45 120.66L102.53 117.94L101.4 118.09C101.639 118.856 101.711 119.664 101.61 120.46C101.54 121.09 102.61 121.23 102.74 120.61L103.45 116.96L102.45 117.09C102.691 117.598 102.758 118.171 102.64 118.72C102.56 119.44 103.64 119.43 103.77 118.72C103.862 117.972 103.741 117.212 103.42 116.53C103.382 116.466 103.331 116.409 103.271 116.365C103.211 116.32 103.143 116.288 103.07 116.27C102.997 116.253 102.922 116.25 102.848 116.262C102.774 116.274 102.703 116.3 102.64 116.34C102.52 116.412 102.431 116.526 102.39 116.66L101.68 120.31L102.79 120.46C102.903 119.562 102.817 118.651 102.54 117.79C102.519 117.719 102.485 117.653 102.438 117.595C102.392 117.537 102.334 117.489 102.269 117.454C102.204 117.419 102.133 117.397 102.059 117.389C101.985 117.381 101.911 117.389 101.84 117.41C101.724 117.444 101.623 117.513 101.549 117.608C101.475 117.704 101.434 117.82 101.43 117.94L101.35 120.66C101.357 120.793 101.41 120.919 101.5 121.016C101.59 121.114 101.711 121.177 101.843 121.195C101.974 121.213 102.108 121.184 102.221 121.114C102.333 121.043 102.418 120.936 102.46 120.81L102.52 120.62C102.547 120.524 102.548 120.423 102.523 120.326C102.499 120.23 102.449 120.142 102.38 120.07C101.21 118.8 100.97 120.82 100.57 121.39L101.57 121.67L101.37 118.81C101.363 118.677 101.31 118.552 101.22 118.454C101.13 118.356 101.009 118.293 100.877 118.275C100.746 118.258 100.612 118.286 100.499 118.356C100.387 118.427 100.302 118.534 100.26 118.66C99.9482 119.934 99.5093 121.174 98.95 122.36L99.95 122.65C99.9686 121.429 99.8849 120.208 99.7 119C99.6 118.48 98.92 118.5 98.7 118.87C97.95 119.95 96.7 122.31 97.7 123.61C98.57 124.74 101.33 124.3 102.51 124.23C104.36 124.13 105.04 122.95 105.24 121.23C105.339 120.392 105.292 119.542 105.1 118.72C105 118.27 103.97 115.46 103.66 115.51C104.38 115.38 104.07 114.29 103.36 114.42L103.26 114.33Z" fill="#E5E5E5"/>
<path d="M101.08 116.86L98.0001 120.93L99.0001 121.5L101.26 118.23L100.26 117.8L99.1301 122.09C99.1174 122.211 99.1437 122.333 99.2052 122.438C99.2667 122.543 99.3601 122.625 99.4718 122.673C99.5835 122.721 99.7076 122.732 99.8261 122.705C99.9445 122.677 100.051 122.612 100.13 122.52C100.641 121.676 101.212 120.871 101.84 120.11L100.9 119.56C100.647 120.528 100.164 121.42 99.4901 122.16L100.43 122.71C100.491 122.192 100.629 121.687 100.84 121.21C101.13 120.56 100.21 119.98 99.8401 120.64C99.5169 121.232 99.1527 121.8 98.7501 122.34L99.7501 122.48L99.9801 121.41L98.9801 121.27L99.1401 122.21C99.1608 122.283 99.1956 122.35 99.2426 122.409C99.2895 122.468 99.3477 122.517 99.4137 122.553C99.4798 122.589 99.5523 122.612 99.6272 122.62C99.7021 122.628 99.7779 122.621 99.8501 122.6C99.9419 122.578 100.025 122.529 100.09 122.46C101.042 121.474 101.805 120.322 102.34 119.06H101.34C101.601 119.526 101.78 120.034 101.87 120.56C102.01 121.24 102.87 120.99 102.98 120.41C103.138 119.149 103.222 117.881 103.23 116.61H102.1V119C102.1 119.61 103.1 119.79 103.21 119.15C103.282 118.579 103.469 118.027 103.76 117.53H102.76C102.998 117.915 103.129 118.357 103.14 118.81C103.158 118.947 103.226 119.073 103.33 119.164C103.434 119.255 103.567 119.305 103.705 119.305C103.843 119.305 103.977 119.255 104.081 119.164C104.184 119.073 104.252 118.947 104.27 118.81L104.41 118.06H103.32C103.43 118.72 103.85 122.47 102.38 122.06C102.13 122 102.06 122.06 102.16 122.06L102.5 121.35L103.28 119.68L102.28 119.4C102.446 120.26 102.33 121.151 101.95 121.94C101.676 122.209 101.331 122.394 100.955 122.472C100.579 122.55 100.188 122.518 99.8301 122.38C99.4354 122.114 99.0958 121.775 98.8301 121.38L98.0501 122.13C98.6801 122.58 99.6901 123.7 100.5 123.76C101.11 123.76 101.62 123.31 102.03 122.9C102.646 122.26 103.126 121.503 103.443 120.673C103.759 119.843 103.904 118.958 103.87 118.07C103.867 117.921 103.806 117.778 103.7 117.674C103.593 117.569 103.45 117.51 103.3 117.51C103.152 117.51 103.009 117.569 102.904 117.674C102.799 117.779 102.74 117.922 102.74 118.07V119.36C102.74 119.434 102.755 119.506 102.783 119.574C102.811 119.642 102.852 119.704 102.904 119.756C102.956 119.808 103.018 119.849 103.086 119.877C103.154 119.906 103.227 119.92 103.3 119.92C103.45 119.92 103.593 119.861 103.7 119.757C103.806 119.652 103.867 119.51 103.87 119.36V116.2C103.867 116.051 103.806 115.908 103.7 115.803C103.593 115.699 103.45 115.64 103.3 115.64C103.227 115.64 103.154 115.655 103.086 115.683C103.018 115.711 102.956 115.752 102.904 115.804C102.852 115.856 102.811 115.918 102.783 115.986C102.755 116.054 102.74 116.127 102.74 116.2C102.734 116.958 102.667 117.713 102.54 118.46L103.65 118.61C103.56 117.713 103.52 116.812 103.53 115.91C103.527 115.761 103.466 115.618 103.36 115.513C103.253 115.409 103.11 115.35 102.96 115.35C102.838 115.352 102.72 115.392 102.622 115.466C102.525 115.54 102.454 115.643 102.42 115.76C102.25 116.48 102.04 117.18 101.85 117.89L102.85 117.75L102.77 117.45C102.71 116.73 101.59 116.73 101.64 117.45C101.65 117.754 101.728 118.051 101.87 118.32C101.93 118.405 102.012 118.472 102.107 118.513C102.202 118.555 102.306 118.57 102.409 118.557C102.512 118.543 102.609 118.502 102.691 118.438C102.772 118.373 102.834 118.287 102.87 118.19C103.09 117.48 103.28 116.77 103.45 116.06L102.34 115.91C102.33 116.812 102.37 117.713 102.46 118.61C102.52 119.19 103.46 119.44 103.57 118.76C103.72 117.911 103.8 117.052 103.81 116.19H102.68V119.35H103.81V118H102.68C102.743 119.421 102.247 120.81 101.3 121.87C101.156 122.036 100.999 122.19 100.83 122.33C100.56 122.59 100.32 122.55 100.1 122.21C99.5482 121.888 99.0291 121.513 98.5501 121.09C98.0801 120.75 97.4501 121.41 97.7801 121.86C98.6401 123.01 99.9301 124.29 101.54 123.74C103.15 123.19 103.46 120.85 103.33 119.35C103.33 118.85 102.54 118.51 102.33 119.07C101.95 119.86 101.58 120.65 101.2 121.45C101.002 121.748 100.885 122.093 100.86 122.45C100.99 123.3 102.01 123.16 102.64 123.11C105.09 122.92 104.71 119.45 104.42 117.71C104.33 117.13 103.49 117.22 103.34 117.71C103.216 118.053 103.152 118.415 103.15 118.78H104.28C104.241 118.132 104.06 117.501 103.75 116.93C103.673 116.8 103.548 116.706 103.401 116.669C103.255 116.631 103.1 116.653 102.97 116.73C102.89 116.778 102.824 116.848 102.78 116.93C102.44 117.509 102.212 118.147 102.11 118.81L103.23 118.96V116.6C103.23 116.452 103.171 116.309 103.066 116.204C102.961 116.099 102.819 116.04 102.67 116.04C102.522 116.04 102.379 116.099 102.274 116.204C102.169 116.309 102.11 116.452 102.11 116.6C102.102 117.871 102.018 119.139 101.86 120.4L102.97 120.25C102.839 119.635 102.62 119.042 102.32 118.49C102.282 118.427 102.232 118.372 102.173 118.328C102.113 118.285 102.046 118.253 101.975 118.235C101.903 118.218 101.829 118.214 101.756 118.225C101.683 118.237 101.613 118.262 101.55 118.3C101.47 118.347 101.401 118.412 101.35 118.49C100.859 119.669 100.154 120.747 99.2701 121.67L100.21 121.92L100.05 120.92C99.9601 120.42 99.2601 120.41 99.0501 120.79C98.8628 121.073 98.736 121.391 98.6775 121.725C98.6189 122.058 98.6301 122.401 98.7101 122.73C98.8001 123.26 99.4801 123.21 99.7101 122.87C100.115 122.33 100.476 121.758 100.79 121.16L99.7901 120.59C99.5295 121.152 99.351 121.748 99.2601 122.36C99.2001 122.86 99.7901 123.36 100.26 122.91C101.07 122.026 101.653 120.959 101.96 119.8C102.1 119.29 101.4 118.8 101.02 119.25C100.328 120.081 99.6991 120.964 99.1401 121.89L100.14 122.32L101.29 118.05C101.308 117.977 101.311 117.901 101.298 117.827C101.286 117.753 101.259 117.682 101.219 117.619C101.179 117.556 101.127 117.501 101.065 117.458C101.003 117.415 100.934 117.385 100.86 117.37C100.748 117.342 100.629 117.35 100.521 117.393C100.413 117.436 100.322 117.512 100.26 117.61L98.0001 120.93C97.5801 121.54 98.5501 122.06 99.0001 121.5L102.07 117.44C102.51 116.86 101.53 116.31 101.07 116.86H101.08Z" fill="#E5E5E5"/>
<path d="M149.06 130.44C153.58 127.68 157.16 123.56 161.15 120.11C165.48 116.38 170.02 112.9 174.69 109.61C183.77 103.21 193.3 97.4899 202.83 91.7899C202.896 91.7525 202.953 91.7025 203 91.6428C203.046 91.583 203.08 91.5148 203.1 91.4419C203.12 91.369 203.125 91.2929 203.116 91.2179C203.107 91.1429 203.082 91.0705 203.045 91.0049C203.008 90.9392 202.958 90.8816 202.898 90.8352C202.838 90.7889 202.77 90.7548 202.697 90.7348C202.624 90.7148 202.548 90.7094 202.473 90.7189C202.398 90.7283 202.326 90.7525 202.26 90.7899C192.74 96.4999 183.2 102.21 174.12 108.61C169.84 111.61 165.65 114.81 161.64 118.19C157.28 121.88 153.4 126.47 148.48 129.44C147.86 129.82 148.48 130.8 149.05 130.44H149.06Z" fill="#E5E5E5"/>
<path d="M217.4 74.2699C212.51 74.7599 207.24 76.0099 204.23 80.2699C201.64 83.9499 201.69 90.3699 204.13 94.1399C206.9 98.4399 212.57 98.5899 216.97 97.1999C221.37 95.8099 225.92 93.3799 225.88 88.1199C225.713 85.2349 224.979 82.4112 223.72 79.8099C222.72 77.5999 221.03 75.6699 218.42 75.9099C217.71 75.9799 217.7 77.1099 218.42 77.0399C221.91 76.7199 223.03 80.8599 223.86 83.4699C224.61 85.9199 225.31 88.7999 224.13 91.2299C222.95 93.6599 220.13 94.8899 217.66 95.7799C215.052 96.8966 212.157 97.1591 209.39 96.5299C203.94 95.0099 202.44 88.1099 204.01 83.2099C205.81 77.5699 212.21 75.9099 217.42 75.3799C218.13 75.3099 218.14 74.1799 217.42 74.2599L217.4 74.2699Z" fill="#E5E5E5"/>
<path d="M224.92 117.89C220.03 118.39 214.76 119.64 211.76 123.89C209.16 127.57 209.21 133.99 211.65 137.76C214.43 142.05 220.09 142.21 224.49 140.82C228.89 139.43 233.49 137 233.4 131.74C233.235 128.855 232.501 126.03 231.24 123.43C230.24 121.22 228.55 119.29 225.95 119.53C225.23 119.6 225.22 120.73 225.95 120.66C229.43 120.34 230.55 124.48 231.38 127.09C232.13 129.53 232.83 132.42 231.65 134.85C230.47 137.28 227.65 138.51 225.19 139.4C222.577 140.512 219.68 140.774 216.91 140.15C211.47 138.63 209.96 131.73 211.53 126.83C213.34 121.19 219.73 119.53 224.94 119C225.65 118.93 225.66 117.8 224.94 117.87L224.92 117.89Z" fill="#E5E5E5"/>
<path d="M210 85.2501L213.56 89.3101C213.613 89.3636 213.676 89.4061 213.746 89.4351C213.815 89.464 213.89 89.479 213.965 89.479C214.04 89.479 214.115 89.464 214.184 89.4351C214.254 89.4061 214.317 89.3636 214.37 89.3101C214.432 89.242 214.477 89.1596 214.5 89.0701C215.26 87.0701 215.11 85.0701 215.29 82.9601C215.485 80.8109 216.025 78.7073 216.89 76.7301C218.625 72.7189 221.569 69.3489 225.31 67.0901C225.93 66.7101 225.31 65.7301 224.74 66.0901C221.05 68.307 218.091 71.5579 216.23 75.4401C215.31 77.336 214.676 79.358 214.35 81.4401C213.97 83.8801 214.35 86.4401 213.41 88.7801L214.35 88.5301L210.81 84.4701C210.33 83.9301 209.54 84.7301 210.01 85.2701L210 85.2501Z" fill="#E5E5E5"/>
<path d="M150.88 134.83C170.28 134.237 189.683 134.113 209.09 134.46C209.227 134.442 209.353 134.374 209.444 134.271C209.535 134.167 209.585 134.033 209.585 133.895C209.585 133.757 209.535 133.624 209.444 133.52C209.353 133.416 209.227 133.348 209.09 133.33C189.69 132.977 170.287 133.103 150.88 133.71C150.15 133.73 150.15 134.86 150.88 134.83Z" fill="#E5E5E5"/>
<path d="M213.15 123.71C219.762 126.315 226.121 129.518 232.15 133.28C232.283 133.356 232.44 133.375 232.587 133.335C232.734 133.295 232.86 133.198 232.935 133.065C233.011 132.932 233.031 132.775 232.99 132.628C232.95 132.481 232.853 132.356 232.72 132.28C226.594 128.465 220.13 125.222 213.41 122.59C212.74 122.33 212.41 123.42 213.12 123.68L213.15 123.71Z" fill="#E5E5E5"/>
<path d="M225.19 118.6C218.473 126.432 214.579 136.292 214.13 146.6C214.13 147.32 215.23 147.32 215.26 146.6C215.691 136.586 219.473 127.007 226 119.4C226.47 118.85 225.67 118.04 225.2 118.6H225.19Z" fill="#E5E5E5"/>
<path d="M74.7701 130.74L116.77 130.19L121.61 130.13C122.48 130.13 123.34 130.13 124.21 130.13C124.492 130.14 124.77 130.207 125.025 130.327C125.28 130.448 125.509 130.619 125.696 130.83C125.883 131.042 126.025 131.289 126.113 131.557C126.202 131.825 126.235 132.109 126.21 132.39C126.15 135.02 124.5 134.93 122.33 135.02L117.11 135.26L95.8301 136.19C92.0201 136.36 88.2101 136.57 84.4001 136.7C80.9601 136.81 74.4001 135.7 75.9501 130.7C76.1601 130.01 75.0801 129.7 74.8601 130.4C74.5538 131.596 74.655 132.86 75.1476 133.992C75.6402 135.124 76.4962 136.059 77.5801 136.65C80.5801 138.48 84.6401 137.86 87.9901 137.71L114.11 136.52L120.45 136.24C122.08 136.17 124.34 136.5 125.83 135.74C127.58 134.86 127.89 131.35 126.83 129.87C126.549 129.558 126.197 129.317 125.804 129.169C125.411 129.021 124.987 128.97 124.57 129.02C122.23 128.93 119.85 129.08 117.51 129.11L104.51 129.28L74.7501 129.66C74.6765 129.663 74.6042 129.68 74.5373 129.71C74.4703 129.741 74.41 129.784 74.3599 129.838C74.3097 129.892 74.2707 129.955 74.245 130.024C74.2193 130.093 74.2074 130.167 74.2101 130.24C74.2149 130.383 74.2731 130.518 74.373 130.62C74.473 130.722 74.6076 130.783 74.7501 130.79L74.7701 130.74Z" fill="#E5E5E5"/>
<path d="M198.27 160.04L186.06 152.68L189.62 166.48L191.77 161.45L195.36 166.26L196.42 165.47L192.84 160.66L198.27 160.04Z" fill="#EB0029"/>
<path d="M216.49 167.96H195.8V175.11H216.49V167.96Z" fill="#EB0029"/>
<path d="M126.02 101.74L138.23 94.3799L134.66 108.19L132.51 103.16L128.93 107.96L127.86 107.17L131.45 102.36L126.02 101.74Z" fill="#3F3E54"/>
<path d="M128.49 110.04H107.8V117.19H128.49V110.04Z" fill="#3F3E54"/>
</svg>
