<svg width="300" height="300" viewBox="0 0 300 300" fill="none" xmlns="http://www.w3.org/2000/svg">
<path d="M288 0H12C5.37258 0 0 5.37258 0 12V288C0 294.627 5.37258 300 12 300H288C294.627 300 300 294.627 300 288V12C300 5.37258 294.627 0 288 0Z" fill="white"/>
<path d="M293.85 251.15H206.73V250.44H293.98L293.85 251.15Z" fill="#3F3E54"/>
<path d="M19.4399 47.02C20.8262 47.02 21.9499 45.8962 21.9499 44.51C21.9499 43.1238 20.8262 42 19.4399 42C18.0537 42 16.9299 43.1238 16.9299 44.51C16.9299 45.8962 18.0537 47.02 19.4399 47.02Z" fill="#E5E5E5"/>
<path d="M32.1499 47.02C33.5361 47.02 34.6599 45.8962 34.6599 44.51C34.6599 43.1238 33.5361 42 32.1499 42C30.7637 42 29.6399 43.1238 29.6399 44.51C29.6399 45.8962 30.7637 47.02 32.1499 47.02Z" fill="#E5E5E5"/>
<path d="M44.8601 47.02C46.2463 47.02 47.3701 45.8962 47.3701 44.51C47.3701 43.1238 46.2463 42 44.8601 42C43.4739 42 42.3501 43.1238 42.3501 44.51C42.3501 45.8962 43.4739 47.02 44.8601 47.02Z" fill="#E5E5E5"/>
<path d="M57.5701 47.02C58.9563 47.02 60.0801 45.8962 60.0801 44.51C60.0801 43.1238 58.9563 42 57.5701 42C56.1838 42 55.0601 43.1238 55.0601 44.51C55.0601 45.8962 56.1838 47.02 57.5701 47.02Z" fill="#E5E5E5"/>
<path d="M70.28 47.02C71.6663 47.02 72.79 45.8962 72.79 44.51C72.79 43.1238 71.6663 42 70.28 42C68.8938 42 67.77 43.1238 67.77 44.51C67.77 45.8962 68.8938 47.02 70.28 47.02Z" fill="#E5E5E5"/>
<path d="M83 47.02C84.3862 47.02 85.51 45.8962 85.51 44.51C85.51 43.1238 84.3862 42 83 42C81.6138 42 80.49 43.1238 80.49 44.51C80.49 45.8962 81.6138 47.02 83 47.02Z" fill="#E5E5E5"/>
<path d="M95.71 47.02C97.0962 47.02 98.22 45.8962 98.22 44.51C98.22 43.1238 97.0962 42 95.71 42C94.3237 42 93.2 43.1238 93.2 44.51C93.2 45.8962 94.3237 47.02 95.71 47.02Z" fill="#E5E5E5"/>
<path d="M108.42 47.02C109.806 47.02 110.93 45.8962 110.93 44.51C110.93 43.1238 109.806 42 108.42 42C107.034 42 105.91 43.1238 105.91 44.51C105.91 45.8962 107.034 47.02 108.42 47.02Z" fill="#E5E5E5"/>
<path d="M121.13 47.02C122.516 47.02 123.64 45.8962 123.64 44.51C123.64 43.1238 122.516 42 121.13 42C119.744 42 118.62 43.1238 118.62 44.51C118.62 45.8962 119.744 47.02 121.13 47.02Z" fill="#E5E5E5"/>
<path d="M133.84 47.02C135.226 47.02 136.35 45.8962 136.35 44.51C136.35 43.1238 135.226 42 133.84 42C132.454 42 131.33 43.1238 131.33 44.51C131.33 45.8962 132.454 47.02 133.84 47.02Z" fill="#E5E5E5"/>
<path d="M19.4399 59.8901C20.8262 59.8901 21.9499 58.7664 21.9499 57.3801C21.9499 55.9939 20.8262 54.8701 19.4399 54.8701C18.0537 54.8701 16.9299 55.9939 16.9299 57.3801C16.9299 58.7664 18.0537 59.8901 19.4399 59.8901Z" fill="#E5E5E5"/>
<path d="M32.1499 59.8901C33.5361 59.8901 34.6599 58.7664 34.6599 57.3801C34.6599 55.9939 33.5361 54.8701 32.1499 54.8701C30.7637 54.8701 29.6399 55.9939 29.6399 57.3801C29.6399 58.7664 30.7637 59.8901 32.1499 59.8901Z" fill="#E5E5E5"/>
<path d="M44.8601 59.8901C46.2463 59.8901 47.3701 58.7664 47.3701 57.3801C47.3701 55.9939 46.2463 54.8701 44.8601 54.8701C43.4739 54.8701 42.3501 55.9939 42.3501 57.3801C42.3501 58.7664 43.4739 59.8901 44.8601 59.8901Z" fill="#E5E5E5"/>
<path d="M57.5701 59.8901C58.9563 59.8901 60.0801 58.7664 60.0801 57.3801C60.0801 55.9939 58.9563 54.8701 57.5701 54.8701C56.1838 54.8701 55.0601 55.9939 55.0601 57.3801C55.0601 58.7664 56.1838 59.8901 57.5701 59.8901Z" fill="#EB0029"/>
<path d="M70.28 59.8901C71.6663 59.8901 72.79 58.7664 72.79 57.3801C72.79 55.9939 71.6663 54.8701 70.28 54.8701C68.8938 54.8701 67.77 55.9939 67.77 57.3801C67.77 58.7664 68.8938 59.8901 70.28 59.8901Z" fill="#E5E5E5"/>
<path d="M83 59.8901C84.3862 59.8901 85.51 58.7664 85.51 57.3801C85.51 55.9939 84.3862 54.8701 83 54.8701C81.6138 54.8701 80.49 55.9939 80.49 57.3801C80.49 58.7664 81.6138 59.8901 83 59.8901Z" fill="#E5E5E5"/>
<path d="M95.71 59.8901C97.0962 59.8901 98.22 58.7664 98.22 57.3801C98.22 55.9939 97.0962 54.8701 95.71 54.8701C94.3237 54.8701 93.2 55.9939 93.2 57.3801C93.2 58.7664 94.3237 59.8901 95.71 59.8901Z" fill="#E5E5E5"/>
<path d="M108.42 59.8901C109.806 59.8901 110.93 58.7664 110.93 57.3801C110.93 55.9939 109.806 54.8701 108.42 54.8701C107.034 54.8701 105.91 55.9939 105.91 57.3801C105.91 58.7664 107.034 59.8901 108.42 59.8901Z" fill="#E5E5E5"/>
<path d="M121.13 59.8901C122.516 59.8901 123.64 58.7664 123.64 57.3801C123.64 55.9939 122.516 54.8701 121.13 54.8701C119.744 54.8701 118.62 55.9939 118.62 57.3801C118.62 58.7664 119.744 59.8901 121.13 59.8901Z" fill="#E5E5E5"/>
<path d="M133.84 59.8901C135.226 59.8901 136.35 58.7664 136.35 57.3801C136.35 55.9939 135.226 54.8701 133.84 54.8701C132.454 54.8701 131.33 55.9939 131.33 57.3801C131.33 58.7664 132.454 59.8901 133.84 59.8901Z" fill="#E5E5E5"/>
<path d="M19.4399 72.76C20.8262 72.76 21.9499 71.6362 21.9499 70.25C21.9499 68.8638 20.8262 67.74 19.4399 67.74C18.0537 67.74 16.9299 68.8638 16.9299 70.25C16.9299 71.6362 18.0537 72.76 19.4399 72.76Z" fill="#E5E5E5"/>
<path d="M32.1499 72.76C33.5361 72.76 34.6599 71.6362 34.6599 70.25C34.6599 68.8638 33.5361 67.74 32.1499 67.74C30.7637 67.74 29.6399 68.8638 29.6399 70.25C29.6399 71.6362 30.7637 72.76 32.1499 72.76Z" fill="#E5E5E5"/>
<path d="M44.8601 72.76C46.2463 72.76 47.3701 71.6362 47.3701 70.25C47.3701 68.8638 46.2463 67.74 44.8601 67.74C43.4739 67.74 42.3501 68.8638 42.3501 70.25C42.3501 71.6362 43.4739 72.76 44.8601 72.76Z" fill="#E5E5E5"/>
<path d="M57.5701 72.76C58.9563 72.76 60.0801 71.6362 60.0801 70.25C60.0801 68.8638 58.9563 67.74 57.5701 67.74C56.1838 67.74 55.0601 68.8638 55.0601 70.25C55.0601 71.6362 56.1838 72.76 57.5701 72.76Z" fill="#E5E5E5"/>
<path d="M70.28 72.76C71.6663 72.76 72.79 71.6362 72.79 70.25C72.79 68.8638 71.6663 67.74 70.28 67.74C68.8938 67.74 67.77 68.8638 67.77 70.25C67.77 71.6362 68.8938 72.76 70.28 72.76Z" fill="#E5E5E5"/>
<path d="M83 72.76C84.3862 72.76 85.51 71.6362 85.51 70.25C85.51 68.8638 84.3862 67.74 83 67.74C81.6138 67.74 80.49 68.8638 80.49 70.25C80.49 71.6362 81.6138 72.76 83 72.76Z" fill="#E5E5E5"/>
<path d="M95.71 72.76C97.0962 72.76 98.22 71.6362 98.22 70.25C98.22 68.8638 97.0962 67.74 95.71 67.74C94.3237 67.74 93.2 68.8638 93.2 70.25C93.2 71.6362 94.3237 72.76 95.71 72.76Z" fill="#E5E5E5"/>
<path d="M108.42 72.76C109.806 72.76 110.93 71.6362 110.93 70.25C110.93 68.8638 109.806 67.74 108.42 67.74C107.034 67.74 105.91 68.8638 105.91 70.25C105.91 71.6362 107.034 72.76 108.42 72.76Z" fill="#E5E5E5"/>
<path d="M121.13 72.76C122.516 72.76 123.64 71.6362 123.64 70.25C123.64 68.8638 122.516 67.74 121.13 67.74C119.744 67.74 118.62 68.8638 118.62 70.25C118.62 71.6362 119.744 72.76 121.13 72.76Z" fill="#E5E5E5"/>
<path d="M133.84 72.76C135.226 72.76 136.35 71.6362 136.35 70.25C136.35 68.8638 135.226 67.74 133.84 67.74C132.454 67.74 131.33 68.8638 131.33 70.25C131.33 71.6362 132.454 72.76 133.84 72.76Z" fill="#E5E5E5"/>
<path d="M19.4399 85.6401C20.8262 85.6401 21.9499 84.5163 21.9499 83.1301C21.9499 81.7439 20.8262 80.6201 19.4399 80.6201C18.0537 80.6201 16.9299 81.7439 16.9299 83.1301C16.9299 84.5163 18.0537 85.6401 19.4399 85.6401Z" fill="#E5E5E5"/>
<path d="M32.1499 85.6401C33.5361 85.6401 34.6599 84.5163 34.6599 83.1301C34.6599 81.7439 33.5361 80.6201 32.1499 80.6201C30.7637 80.6201 29.6399 81.7439 29.6399 83.1301C29.6399 84.5163 30.7637 85.6401 32.1499 85.6401Z" fill="#E5E5E5"/>
<path d="M44.8601 85.6401C46.2463 85.6401 47.3701 84.5163 47.3701 83.1301C47.3701 81.7439 46.2463 80.6201 44.8601 80.6201C43.4739 80.6201 42.3501 81.7439 42.3501 83.1301C42.3501 84.5163 43.4739 85.6401 44.8601 85.6401Z" fill="#E5E5E5"/>
<path d="M57.5701 85.6401C58.9563 85.6401 60.0801 84.5163 60.0801 83.1301C60.0801 81.7439 58.9563 80.6201 57.5701 80.6201C56.1838 80.6201 55.0601 81.7439 55.0601 83.1301C55.0601 84.5163 56.1838 85.6401 57.5701 85.6401Z" fill="#E5E5E5"/>
<path d="M70.28 85.6401C71.6663 85.6401 72.79 84.5163 72.79 83.1301C72.79 81.7439 71.6663 80.6201 70.28 80.6201C68.8938 80.6201 67.77 81.7439 67.77 83.1301C67.77 84.5163 68.8938 85.6401 70.28 85.6401Z" fill="#E5E5E5"/>
<path d="M83 85.6401C84.3862 85.6401 85.51 84.5163 85.51 83.1301C85.51 81.7439 84.3862 80.6201 83 80.6201C81.6138 80.6201 80.49 81.7439 80.49 83.1301C80.49 84.5163 81.6138 85.6401 83 85.6401Z" fill="#E5E5E5"/>
<path d="M95.71 85.6401C97.0962 85.6401 98.22 84.5163 98.22 83.1301C98.22 81.7439 97.0962 80.6201 95.71 80.6201C94.3237 80.6201 93.2 81.7439 93.2 83.1301C93.2 84.5163 94.3237 85.6401 95.71 85.6401Z" fill="#E5E5E5"/>
<path d="M108.42 85.6401C109.806 85.6401 110.93 84.5163 110.93 83.1301C110.93 81.7439 109.806 80.6201 108.42 80.6201C107.034 80.6201 105.91 81.7439 105.91 83.1301C105.91 84.5163 107.034 85.6401 108.42 85.6401Z" fill="#E5E5E5"/>
<path d="M121.13 85.6401C122.516 85.6401 123.64 84.5163 123.64 83.1301C123.64 81.7439 122.516 80.6201 121.13 80.6201C119.744 80.6201 118.62 81.7439 118.62 83.1301C118.62 84.5163 119.744 85.6401 121.13 85.6401Z" fill="#E5E5E5"/>
<path d="M133.84 85.6401C135.226 85.6401 136.35 84.5163 136.35 83.1301C136.35 81.7439 135.226 80.6201 133.84 80.6201C132.454 80.6201 131.33 81.7439 131.33 83.1301C131.33 84.5163 132.454 85.6401 133.84 85.6401Z" fill="#E5E5E5"/>
<path d="M19.4399 98.51C20.8262 98.51 21.9499 97.3862 21.9499 96C21.9499 94.6138 20.8262 93.49 19.4399 93.49C18.0537 93.49 16.9299 94.6138 16.9299 96C16.9299 97.3862 18.0537 98.51 19.4399 98.51Z" fill="#E5E5E5"/>
<path d="M32.1499 98.51C33.5361 98.51 34.6599 97.3862 34.6599 96C34.6599 94.6138 33.5361 93.49 32.1499 93.49C30.7637 93.49 29.6399 94.6138 29.6399 96C29.6399 97.3862 30.7637 98.51 32.1499 98.51Z" fill="#EB0029"/>
<path d="M44.8601 98.51C46.2463 98.51 47.3701 97.3862 47.3701 96C47.3701 94.6138 46.2463 93.49 44.8601 93.49C43.4739 93.49 42.3501 94.6138 42.3501 96C42.3501 97.3862 43.4739 98.51 44.8601 98.51Z" fill="#E5E5E5"/>
<path d="M57.5701 98.51C58.9563 98.51 60.0801 97.3862 60.0801 96C60.0801 94.6138 58.9563 93.49 57.5701 93.49C56.1838 93.49 55.0601 94.6138 55.0601 96C55.0601 97.3862 56.1838 98.51 57.5701 98.51Z" fill="#E5E5E5"/>
<path d="M70.28 98.51C71.6663 98.51 72.79 97.3862 72.79 96C72.79 94.6138 71.6663 93.49 70.28 93.49C68.8938 93.49 67.77 94.6138 67.77 96C67.77 97.3862 68.8938 98.51 70.28 98.51Z" fill="#E5E5E5"/>
<path d="M83 98.51C84.3862 98.51 85.51 97.3862 85.51 96C85.51 94.6138 84.3862 93.49 83 93.49C81.6138 93.49 80.49 94.6138 80.49 96C80.49 97.3862 81.6138 98.51 83 98.51Z" fill="#E5E5E5"/>
<path d="M95.71 98.51C97.0962 98.51 98.22 97.3862 98.22 96C98.22 94.6138 97.0962 93.49 95.71 93.49C94.3237 93.49 93.2 94.6138 93.2 96C93.2 97.3862 94.3237 98.51 95.71 98.51Z" fill="#E5E5E5"/>
<path d="M108.42 98.51C109.806 98.51 110.93 97.3862 110.93 96C110.93 94.6138 109.806 93.49 108.42 93.49C107.034 93.49 105.91 94.6138 105.91 96C105.91 97.3862 107.034 98.51 108.42 98.51Z" fill="#E5E5E5"/>
<path d="M121.13 98.51C122.516 98.51 123.64 97.3862 123.64 96C123.64 94.6138 122.516 93.49 121.13 93.49C119.744 93.49 118.62 94.6138 118.62 96C118.62 97.3862 119.744 98.51 121.13 98.51Z" fill="#E5E5E5"/>
<path d="M133.84 98.51C135.226 98.51 136.35 97.3862 136.35 96C136.35 94.6138 135.226 93.49 133.84 93.49C132.454 93.49 131.33 94.6138 131.33 96C131.33 97.3862 132.454 98.51 133.84 98.51Z" fill="#E5E5E5"/>
<path d="M19.4399 111.38C20.8262 111.38 21.9499 110.256 21.9499 108.87C21.9499 107.484 20.8262 106.36 19.4399 106.36C18.0537 106.36 16.9299 107.484 16.9299 108.87C16.9299 110.256 18.0537 111.38 19.4399 111.38Z" fill="#E5E5E5"/>
<path d="M32.1499 111.38C33.5361 111.38 34.6599 110.256 34.6599 108.87C34.6599 107.484 33.5361 106.36 32.1499 106.36C30.7637 106.36 29.6399 107.484 29.6399 108.87C29.6399 110.256 30.7637 111.38 32.1499 111.38Z" fill="#E5E5E5"/>
<path d="M44.8601 111.38C46.2463 111.38 47.3701 110.256 47.3701 108.87C47.3701 107.484 46.2463 106.36 44.8601 106.36C43.4739 106.36 42.3501 107.484 42.3501 108.87C42.3501 110.256 43.4739 111.38 44.8601 111.38Z" fill="#E5E5E5"/>
<path d="M57.5701 111.38C58.9563 111.38 60.0801 110.256 60.0801 108.87C60.0801 107.484 58.9563 106.36 57.5701 106.36C56.1838 106.36 55.0601 107.484 55.0601 108.87C55.0601 110.256 56.1838 111.38 57.5701 111.38Z" fill="#E5E5E5"/>
<path d="M70.28 111.38C71.6663 111.38 72.79 110.256 72.79 108.87C72.79 107.484 71.6663 106.36 70.28 106.36C68.8938 106.36 67.77 107.484 67.77 108.87C67.77 110.256 68.8938 111.38 70.28 111.38Z" fill="#E5E5E5"/>
<path d="M83 111.38C84.3862 111.38 85.51 110.256 85.51 108.87C85.51 107.484 84.3862 106.36 83 106.36C81.6138 106.36 80.49 107.484 80.49 108.87C80.49 110.256 81.6138 111.38 83 111.38Z" fill="#E5E5E5"/>
<path d="M95.71 111.38C97.0962 111.38 98.22 110.256 98.22 108.87C98.22 107.484 97.0962 106.36 95.71 106.36C94.3237 106.36 93.2 107.484 93.2 108.87C93.2 110.256 94.3237 111.38 95.71 111.38Z" fill="#E5E5E5"/>
<path d="M108.42 111.38C109.806 111.38 110.93 110.256 110.93 108.87C110.93 107.484 109.806 106.36 108.42 106.36C107.034 106.36 105.91 107.484 105.91 108.87C105.91 110.256 107.034 111.38 108.42 111.38Z" fill="#E5E5E5"/>
<path d="M121.13 111.38C122.516 111.38 123.64 110.256 123.64 108.87C123.64 107.484 122.516 106.36 121.13 106.36C119.744 106.36 118.62 107.484 118.62 108.87C118.62 110.256 119.744 111.38 121.13 111.38Z" fill="#E5E5E5"/>
<path d="M133.84 111.38C135.226 111.38 136.35 110.256 136.35 108.87C136.35 107.484 135.226 106.36 133.84 106.36C132.454 106.36 131.33 107.484 131.33 108.87C131.33 110.256 132.454 111.38 133.84 111.38Z" fill="#E5E5E5"/>
<path d="M19.4399 124.25C20.8262 124.25 21.9499 123.126 21.9499 121.74C21.9499 120.354 20.8262 119.23 19.4399 119.23C18.0537 119.23 16.9299 120.354 16.9299 121.74C16.9299 123.126 18.0537 124.25 19.4399 124.25Z" fill="#E5E5E5"/>
<path d="M32.1499 124.25C33.5361 124.25 34.6599 123.126 34.6599 121.74C34.6599 120.354 33.5361 119.23 32.1499 119.23C30.7637 119.23 29.6399 120.354 29.6399 121.74C29.6399 123.126 30.7637 124.25 32.1499 124.25Z" fill="#E5E5E5"/>
<path d="M44.8601 124.25C46.2463 124.25 47.3701 123.126 47.3701 121.74C47.3701 120.354 46.2463 119.23 44.8601 119.23C43.4739 119.23 42.3501 120.354 42.3501 121.74C42.3501 123.126 43.4739 124.25 44.8601 124.25Z" fill="#EB0029"/>
<path d="M57.5701 124.25C58.9563 124.25 60.0801 123.126 60.0801 121.74C60.0801 120.354 58.9563 119.23 57.5701 119.23C56.1838 119.23 55.0601 120.354 55.0601 121.74C55.0601 123.126 56.1838 124.25 57.5701 124.25Z" fill="#E5E5E5"/>
<path d="M70.28 124.25C71.6663 124.25 72.79 123.126 72.79 121.74C72.79 120.354 71.6663 119.23 70.28 119.23C68.8938 119.23 67.77 120.354 67.77 121.74C67.77 123.126 68.8938 124.25 70.28 124.25Z" fill="#E5E5E5"/>
<path d="M83 124.25C84.3862 124.25 85.51 123.126 85.51 121.74C85.51 120.354 84.3862 119.23 83 119.23C81.6138 119.23 80.49 120.354 80.49 121.74C80.49 123.126 81.6138 124.25 83 124.25Z" fill="#E5E5E5"/>
<path d="M95.71 124.25C97.0962 124.25 98.22 123.126 98.22 121.74C98.22 120.354 97.0962 119.23 95.71 119.23C94.3237 119.23 93.2 120.354 93.2 121.74C93.2 123.126 94.3237 124.25 95.71 124.25Z" fill="#E5E5E5"/>
<path d="M108.42 124.25C109.806 124.25 110.93 123.126 110.93 121.74C110.93 120.354 109.806 119.23 108.42 119.23C107.034 119.23 105.91 120.354 105.91 121.74C105.91 123.126 107.034 124.25 108.42 124.25Z" fill="#E5E5E5"/>
<path d="M121.13 124.25C122.516 124.25 123.64 123.126 123.64 121.74C123.64 120.354 122.516 119.23 121.13 119.23C119.744 119.23 118.62 120.354 118.62 121.74C118.62 123.126 119.744 124.25 121.13 124.25Z" fill="#E5E5E5"/>
<path d="M133.84 124.25C135.226 124.25 136.35 123.126 136.35 121.74C136.35 120.354 135.226 119.23 133.84 119.23C132.454 119.23 131.33 120.354 131.33 121.74C131.33 123.126 132.454 124.25 133.84 124.25Z" fill="#E5E5E5"/>
<path d="M19.4399 137.12C20.8262 137.12 21.9499 135.996 21.9499 134.61C21.9499 133.224 20.8262 132.1 19.4399 132.1C18.0537 132.1 16.9299 133.224 16.9299 134.61C16.9299 135.996 18.0537 137.12 19.4399 137.12Z" fill="#E5E5E5"/>
<path d="M32.1499 137.12C33.5361 137.12 34.6599 135.996 34.6599 134.61C34.6599 133.224 33.5361 132.1 32.1499 132.1C30.7637 132.1 29.6399 133.224 29.6399 134.61C29.6399 135.996 30.7637 137.12 32.1499 137.12Z" fill="#E5E5E5"/>
<path d="M44.8601 137.12C46.2463 137.12 47.3701 135.996 47.3701 134.61C47.3701 133.224 46.2463 132.1 44.8601 132.1C43.4739 132.1 42.3501 133.224 42.3501 134.61C42.3501 135.996 43.4739 137.12 44.8601 137.12Z" fill="#E5E5E5"/>
<path d="M57.5701 137.12C58.9563 137.12 60.0801 135.996 60.0801 134.61C60.0801 133.224 58.9563 132.1 57.5701 132.1C56.1838 132.1 55.0601 133.224 55.0601 134.61C55.0601 135.996 56.1838 137.12 57.5701 137.12Z" fill="#E5E5E5"/>
<path d="M70.28 137.12C71.6663 137.12 72.79 135.996 72.79 134.61C72.79 133.224 71.6663 132.1 70.28 132.1C68.8938 132.1 67.77 133.224 67.77 134.61C67.77 135.996 68.8938 137.12 70.28 137.12Z" fill="#E5E5E5"/>
<path d="M83 137.12C84.3862 137.12 85.51 135.996 85.51 134.61C85.51 133.224 84.3862 132.1 83 132.1C81.6138 132.1 80.49 133.224 80.49 134.61C80.49 135.996 81.6138 137.12 83 137.12Z" fill="#E5E5E5"/>
<path d="M95.71 137.12C97.0962 137.12 98.22 135.996 98.22 134.61C98.22 133.224 97.0962 132.1 95.71 132.1C94.3237 132.1 93.2 133.224 93.2 134.61C93.2 135.996 94.3237 137.12 95.71 137.12Z" fill="#E5E5E5"/>
<path d="M108.42 137.12C109.806 137.12 110.93 135.996 110.93 134.61C110.93 133.224 109.806 132.1 108.42 132.1C107.034 132.1 105.91 133.224 105.91 134.61C105.91 135.996 107.034 137.12 108.42 137.12Z" fill="#E5E5E5"/>
<path d="M121.13 137.12C122.516 137.12 123.64 135.996 123.64 134.61C123.64 133.224 122.516 132.1 121.13 132.1C119.744 132.1 118.62 133.224 118.62 134.61C118.62 135.996 119.744 137.12 121.13 137.12Z" fill="#E5E5E5"/>
<path d="M133.84 137.12C135.226 137.12 136.35 135.996 136.35 134.61C136.35 133.224 135.226 132.1 133.84 132.1C132.454 132.1 131.33 133.224 131.33 134.61C131.33 135.996 132.454 137.12 133.84 137.12Z" fill="#E5E5E5"/>
<path d="M19.4399 149.99C20.8262 149.99 21.9499 148.866 21.9499 147.48C21.9499 146.094 20.8262 144.97 19.4399 144.97C18.0537 144.97 16.9299 146.094 16.9299 147.48C16.9299 148.866 18.0537 149.99 19.4399 149.99Z" fill="#E5E5E5"/>
<path d="M32.1499 149.99C33.5361 149.99 34.6599 148.866 34.6599 147.48C34.6599 146.094 33.5361 144.97 32.1499 144.97C30.7637 144.97 29.6399 146.094 29.6399 147.48C29.6399 148.866 30.7637 149.99 32.1499 149.99Z" fill="#E5E5E5"/>
<path d="M44.8601 149.99C46.2463 149.99 47.3701 148.866 47.3701 147.48C47.3701 146.094 46.2463 144.97 44.8601 144.97C43.4739 144.97 42.3501 146.094 42.3501 147.48C42.3501 148.866 43.4739 149.99 44.8601 149.99Z" fill="#E5E5E5"/>
<path d="M57.5701 149.99C58.9563 149.99 60.0801 148.866 60.0801 147.48C60.0801 146.094 58.9563 144.97 57.5701 144.97C56.1838 144.97 55.0601 146.094 55.0601 147.48C55.0601 148.866 56.1838 149.99 57.5701 149.99Z" fill="#E5E5E5"/>
<path d="M70.28 149.99C71.6663 149.99 72.79 148.866 72.79 147.48C72.79 146.094 71.6663 144.97 70.28 144.97C68.8938 144.97 67.77 146.094 67.77 147.48C67.77 148.866 68.8938 149.99 70.28 149.99Z" fill="#E5E5E5"/>
<path d="M83 149.99C84.3862 149.99 85.51 148.866 85.51 147.48C85.51 146.094 84.3862 144.97 83 144.97C81.6138 144.97 80.49 146.094 80.49 147.48C80.49 148.866 81.6138 149.99 83 149.99Z" fill="#E5E5E5"/>
<path d="M95.71 149.99C97.0962 149.99 98.22 148.866 98.22 147.48C98.22 146.094 97.0962 144.97 95.71 144.97C94.3237 144.97 93.2 146.094 93.2 147.48C93.2 148.866 94.3237 149.99 95.71 149.99Z" fill="#E5E5E5"/>
<path d="M108.42 149.99C109.806 149.99 110.93 148.866 110.93 147.48C110.93 146.094 109.806 144.97 108.42 144.97C107.034 144.97 105.91 146.094 105.91 147.48C105.91 148.866 107.034 149.99 108.42 149.99Z" fill="#E5E5E5"/>
<path d="M121.13 149.99C122.516 149.99 123.64 148.866 123.64 147.48C123.64 146.094 122.516 144.97 121.13 144.97C119.744 144.97 118.62 146.094 118.62 147.48C118.62 148.866 119.744 149.99 121.13 149.99Z" fill="#E5E5E5"/>
<path d="M133.84 149.99C135.226 149.99 136.35 148.866 136.35 147.48C136.35 146.094 135.226 144.97 133.84 144.97C132.454 144.97 131.33 146.094 131.33 147.48C131.33 148.866 132.454 149.99 133.84 149.99Z" fill="#E5E5E5"/>
<path d="M19.4399 162.86C20.8262 162.86 21.9499 161.736 21.9499 160.35C21.9499 158.964 20.8262 157.84 19.4399 157.84C18.0537 157.84 16.9299 158.964 16.9299 160.35C16.9299 161.736 18.0537 162.86 19.4399 162.86Z" fill="#E5E5E5"/>
<path d="M32.1499 162.86C33.5361 162.86 34.6599 161.736 34.6599 160.35C34.6599 158.964 33.5361 157.84 32.1499 157.84C30.7637 157.84 29.6399 158.964 29.6399 160.35C29.6399 161.736 30.7637 162.86 32.1499 162.86Z" fill="#E5E5E5"/>
<path d="M44.8601 162.86C46.2463 162.86 47.3701 161.736 47.3701 160.35C47.3701 158.964 46.2463 157.84 44.8601 157.84C43.4739 157.84 42.3501 158.964 42.3501 160.35C42.3501 161.736 43.4739 162.86 44.8601 162.86Z" fill="#E5E5E5"/>
<path d="M57.5701 162.86C58.9563 162.86 60.0801 161.736 60.0801 160.35C60.0801 158.964 58.9563 157.84 57.5701 157.84C56.1838 157.84 55.0601 158.964 55.0601 160.35C55.0601 161.736 56.1838 162.86 57.5701 162.86Z" fill="#E5E5E5"/>
<path d="M70.28 162.86C71.6663 162.86 72.79 161.736 72.79 160.35C72.79 158.964 71.6663 157.84 70.28 157.84C68.8938 157.84 67.77 158.964 67.77 160.35C67.77 161.736 68.8938 162.86 70.28 162.86Z" fill="#E5E5E5"/>
<path d="M83 162.86C84.3862 162.86 85.51 161.736 85.51 160.35C85.51 158.964 84.3862 157.84 83 157.84C81.6138 157.84 80.49 158.964 80.49 160.35C80.49 161.736 81.6138 162.86 83 162.86Z" fill="#E5E5E5"/>
<path d="M95.71 162.86C97.0962 162.86 98.22 161.736 98.22 160.35C98.22 158.964 97.0962 157.84 95.71 157.84C94.3237 157.84 93.2 158.964 93.2 160.35C93.2 161.736 94.3237 162.86 95.71 162.86Z" fill="#E5E5E5"/>
<path d="M108.42 162.86C109.806 162.86 110.93 161.736 110.93 160.35C110.93 158.964 109.806 157.84 108.42 157.84C107.034 157.84 105.91 158.964 105.91 160.35C105.91 161.736 107.034 162.86 108.42 162.86Z" fill="#E5E5E5"/>
<path d="M121.13 162.86C122.516 162.86 123.64 161.736 123.64 160.35C123.64 158.964 122.516 157.84 121.13 157.84C119.744 157.84 118.62 158.964 118.62 160.35C118.62 161.736 119.744 162.86 121.13 162.86Z" fill="#E5E5E5"/>
<path d="M133.84 162.86C135.226 162.86 136.35 161.736 136.35 160.35C136.35 158.964 135.226 157.84 133.84 157.84C132.454 157.84 131.33 158.964 131.33 160.35C131.33 161.736 132.454 162.86 133.84 162.86Z" fill="#E5E5E5"/>
<path d="M109.84 141.65L139.65 89.4299H80.0099L50.1699 141.1L80.0099 192.78H139.68L169.46 141.2L109.84 141.65Z" fill="#3F3E54"/>
<path d="M176.86 136.81L176.92 136.72L147.08 85.04H147.05L117.24 137.27L176.86 136.81Z" fill="#EB0029"/>
<path d="M220 87.16C219.517 86.4158 219.26 85.5474 219.26 84.66C219.26 83.7726 219.517 82.9042 220 82.16C220.248 81.8775 220.557 81.6545 220.903 81.5073C221.25 81.3602 221.624 81.2928 222 81.31C222.376 81.2942 222.75 81.3623 223.096 81.5093C223.442 81.6564 223.751 81.8787 224 82.16C224.49 82.9019 224.75 83.7712 224.75 84.66C224.75 85.5488 224.49 86.4181 224 87.16C223.751 87.4414 223.442 87.6636 223.096 87.8107C222.75 87.9577 222.376 88.0258 222 88.01C221.624 88.0272 221.25 87.9598 220.903 87.8127C220.557 87.6656 220.248 87.4425 220 87.16V87.16ZM222.9 86.28C223.118 85.7729 223.211 85.2206 223.17 84.67C223.209 84.1251 223.112 83.579 222.89 83.08C222.808 82.9222 222.683 82.7912 222.528 82.7026C222.374 82.614 222.198 82.5714 222.02 82.58C221.847 82.5748 221.676 82.6191 221.527 82.7076C221.378 82.7962 221.258 82.9254 221.18 83.08C220.963 83.5805 220.867 84.1253 220.9 84.67C220.867 85.2179 220.963 85.766 221.18 86.27C221.258 86.4246 221.378 86.5538 221.527 86.6424C221.676 86.7309 221.847 86.7752 222.02 86.77C222.198 86.7815 222.376 86.7413 222.532 86.6545C222.688 86.5676 222.816 86.4376 222.9 86.28ZM221.9 92.42L228.22 81.49H230L223.66 92.42H221.9ZM227.77 91.68C227.234 90.9576 226.975 90.0671 227.04 89.17C226.976 88.2824 227.236 87.4016 227.77 86.69C228.037 86.4233 228.353 86.2118 228.701 86.0674C229.05 85.9231 229.423 85.8488 229.8 85.8488C230.177 85.8488 230.55 85.9231 230.899 86.0674C231.247 86.2118 231.564 86.4233 231.83 86.69V86.69C232.356 87.4098 232.614 88.2904 232.56 89.18C232.621 90.0735 232.362 90.9595 231.83 91.68C231.294 92.2005 230.577 92.4916 229.83 92.4916C229.083 92.4916 228.366 92.2005 227.83 91.68H227.77ZM230.66 90.79C230.877 90.2823 230.973 89.7311 230.94 89.18C230.974 88.6343 230.875 88.0885 230.65 87.59C230.518 87.3666 230.305 87.2031 230.055 87.1341C229.805 87.0651 229.538 87.0959 229.31 87.22C229.159 87.3115 229.032 87.4385 228.94 87.59C228.722 88.0901 228.629 88.6359 228.67 89.18C228.629 89.7306 228.722 90.2829 228.94 90.79C229.074 91.0144 229.29 91.1776 229.542 91.2449C229.794 91.3122 230.063 91.2781 230.29 91.15C230.46 91.0742 230.603 90.9487 230.7 90.79H230.66Z" fill="#3F3E54"/>
<path d="M6.19003 181.45C5.7067 180.706 5.44946 179.837 5.44946 178.95C5.44946 178.063 5.7067 177.194 6.19003 176.45C6.43748 176.166 6.746 175.943 7.09241 175.795C7.43882 175.648 7.8141 175.581 8.19003 175.6C8.56534 175.586 8.93907 175.655 9.2847 175.802C9.63034 175.949 9.93942 176.17 10.19 176.45C10.6734 177.194 10.9306 178.063 10.9306 178.95C10.9306 179.837 10.6734 180.706 10.19 181.45C9.93992 181.731 9.63118 181.954 9.2856 182.102C8.94002 182.251 8.56603 182.322 8.19003 182.31C7.8134 182.327 7.43785 182.258 7.09151 182.109C6.74516 181.96 6.43698 181.735 6.19003 181.45V181.45ZM9.08003 180.57C9.29089 180.075 9.38663 179.538 9.36003 179C9.39499 178.454 9.29541 177.908 9.07003 177.41C8.9878 177.255 8.86362 177.125 8.7116 177.037C8.55957 176.949 8.3858 176.905 8.21003 176.91C8.03529 176.903 7.86218 176.946 7.71143 177.035C7.56069 177.124 7.43869 177.254 7.36003 177.41C6.98645 178.441 6.98645 179.569 7.36003 180.6C7.43769 180.757 7.55947 180.888 7.71046 180.977C7.86144 181.066 8.03507 181.108 8.21003 181.1C8.38663 181.109 8.56228 181.068 8.71637 180.982C8.87046 180.895 8.99662 180.766 9.08003 180.61V180.57ZM8.08003 186.71L14.4 175.78H16.11L9.79003 186.71H8.08003ZM14 186C13.4643 185.278 13.2053 184.387 13.27 183.49C13.1992 182.599 13.4591 181.712 14 181C14.5345 180.477 15.2524 180.184 16 180.184C16.7477 180.184 17.4656 180.477 18 181C18.5312 181.713 18.7901 182.593 18.73 183.48C18.7954 184.38 18.5364 185.274 18 186C17.4656 186.523 16.7477 186.816 16 186.816C15.2524 186.816 14.5345 186.523 14 186V186ZM16.89 185.11C17.1117 184.604 17.2078 184.051 17.17 183.5C17.2077 182.955 17.1116 182.409 16.89 181.91C16.7583 181.687 16.5449 181.523 16.2948 181.454C16.0448 181.385 15.7778 181.416 15.55 181.54C15.3924 181.627 15.2611 181.755 15.17 181.91C14.9564 182.411 14.8639 182.956 14.9 183.5C14.8641 184.05 14.9565 184.601 15.17 185.11C15.302 185.339 15.519 185.506 15.7738 185.575C16.0286 185.645 16.3004 185.61 16.53 185.48C16.6804 185.39 16.8045 185.263 16.89 185.11Z" fill="#3F3E54"/>
<path d="M148.59 118.52L148.2 118.42L156.62 86.73H205.48V87.13H156.93L148.59 118.52Z" fill="#2F2E40"/>
<path d="M209.48 91.12C208.651 91.12 207.841 90.8743 207.152 90.4138C206.463 89.9534 205.926 89.2991 205.609 88.5334C205.292 87.7678 205.209 86.9253 205.371 86.1126C205.532 85.2998 205.931 84.5532 206.517 83.9672C207.103 83.3812 207.85 82.9822 208.663 82.8205C209.475 82.6588 210.318 82.7418 211.083 83.0589C211.849 83.3761 212.503 83.9131 212.964 84.6021C213.424 85.2912 213.67 86.1013 213.67 86.93C213.67 88.0412 213.229 89.107 212.443 89.8928C211.657 90.6785 210.591 91.12 209.48 91.12V91.12ZM209.48 83.12C208.73 83.12 207.998 83.3423 207.374 83.7587C206.751 84.1752 206.265 84.7671 205.979 85.4596C205.692 86.1522 205.617 86.9142 205.763 87.6494C205.909 88.3846 206.27 89.0599 206.8 89.5899C207.33 90.12 208.005 90.4809 208.741 90.6272C209.476 90.7734 210.238 90.6984 210.93 90.4115C211.623 90.1246 212.215 89.6389 212.631 89.0156C213.048 88.3923 213.27 87.6596 213.27 86.91C213.265 85.9083 212.863 84.9494 212.153 84.243C211.443 83.5365 210.482 83.14 209.48 83.14V83.12Z" fill="#2F2E40"/>
<path d="M209.48 88.5301C210.364 88.5301 211.08 87.8137 211.08 86.9301C211.08 86.0464 210.364 85.3301 209.48 85.3301C208.596 85.3301 207.88 86.0464 207.88 86.9301C207.88 87.8137 208.596 88.5301 209.48 88.5301Z" fill="#EB0029"/>
<path d="M86.9 149.63L87.28 149.74L78.86 181.42H30V181.02H78.55L86.9 149.63Z" fill="#2F2E40"/>
<path d="M26.0001 177C26.8316 176.998 27.645 177.243 28.3372 177.704C29.0294 178.164 29.5693 178.82 29.8884 179.588C30.2076 180.356 30.2916 181.201 30.1298 182.017C29.9681 182.833 29.5679 183.582 28.9799 184.17C28.3919 184.758 27.6426 185.158 26.827 185.32C26.0113 185.482 25.166 185.398 24.3982 185.078C23.6303 184.759 22.9745 184.219 22.5137 183.527C22.053 182.835 21.8081 182.022 21.8101 181.19C21.8127 180.08 22.255 179.015 23.0402 178.23C23.8254 177.445 24.8896 177.003 26.0001 177V177ZM26.0001 185C26.7516 185 27.4863 184.777 28.1112 184.36C28.7361 183.942 29.2232 183.349 29.5108 182.654C29.7984 181.96 29.8737 181.196 29.7271 180.459C29.5804 179.722 29.2185 179.044 28.6871 178.513C28.1556 177.982 27.4785 177.62 26.7414 177.473C26.0043 177.326 25.2402 177.402 24.5459 177.689C23.8515 177.977 23.258 178.464 22.8405 179.089C22.4229 179.714 22.2001 180.448 22.2001 181.2C22.2027 182.207 22.6039 183.172 23.316 183.884C24.028 184.596 24.9931 184.997 26.0001 185V185Z" fill="#2F2E40"/>
<path d="M26.0099 182.82C26.8936 182.82 27.6099 182.104 27.6099 181.22C27.6099 180.336 26.8936 179.62 26.0099 179.62C25.1263 179.62 24.4099 180.336 24.4099 181.22C24.4099 182.104 25.1263 182.82 26.0099 182.82Z" fill="#EB0029"/>
<path d="M245.83 244.43H239.77V252.67H245.83V244.43Z" fill="#96646B"/>
<path d="M276.62 244.43H270.56V252.67H276.62V244.43Z" fill="#96646B"/>
<path d="M280.83 176.05C279.875 176.05 278.96 175.671 278.285 174.996C277.609 174.32 277.23 173.405 277.23 172.45C277.215 172.267 277.215 172.083 277.23 171.9L278.23 165.57L278.53 163.69H283.13L283.38 166.35L284.33 171.83C284.413 172.296 284.404 172.773 284.302 173.235C284.2 173.697 284.008 174.134 283.737 174.522C283.466 174.91 283.12 175.24 282.721 175.493C282.322 175.747 281.876 175.919 281.41 176C281.218 176.03 281.024 176.047 280.83 176.05V176.05Z" fill="#96646B"/>
<path d="M235.73 175.32C234.778 175.32 233.865 174.942 233.192 174.268C232.518 173.595 232.14 172.682 232.14 171.73C232.125 171.544 232.125 171.356 232.14 171.17L233.14 164.84L233.44 162.96H238.04L238.29 165.63L239.29 171.11C239.453 172.05 239.235 173.016 238.686 173.796C238.137 174.576 237.3 175.106 236.36 175.27C236.152 175.308 235.941 175.324 235.73 175.32V175.32Z" fill="#96646B"/>
<path d="M277.35 246.12L270.08 245.88L258.2 174.11L246.32 246.12L239.29 245.88L237.35 162.96H278.08L277.35 246.12Z" fill="#2F2E40"/>
<path d="M245.68 258.39C239.51 258.57 234.68 256.9 231.51 252.94C231.173 252.521 230.973 252.008 230.937 251.472C230.901 250.935 231.031 250.4 231.31 249.94V249.94C231.57 249.509 231.949 249.161 232.401 248.94C232.853 248.718 233.36 248.631 233.86 248.69L235.86 248.93L240.03 246.84C239.18 251.84 241.5 251.9 247.03 250.24L248.03 255.37C248.1 255.699 248.103 256.038 248.04 256.368C247.977 256.698 247.848 257.012 247.662 257.291C247.475 257.571 247.235 257.81 246.955 257.995C246.675 258.181 246.36 258.308 246.03 258.37C245.914 258.384 245.797 258.391 245.68 258.39Z" fill="#2F2E40"/>
<path d="M276.47 258.39C270.3 258.57 265.47 256.9 262.3 252.94C261.963 252.52 261.764 252.007 261.73 251.47C261.696 250.933 261.829 250.399 262.11 249.94V249.94C262.368 249.509 262.745 249.162 263.196 248.941C263.646 248.719 264.151 248.632 264.65 248.69L266.65 248.93L270.79 247.18C269.94 252.18 272.29 251.9 277.85 250.24L278.85 255.37C278.92 255.699 278.923 256.038 278.86 256.368C278.797 256.698 278.668 257.012 278.482 257.291C278.295 257.571 278.055 257.81 277.775 257.995C277.495 258.181 277.18 258.308 276.85 258.37C276.724 258.385 276.597 258.392 276.47 258.39Z" fill="#2F2E40"/>
<path d="M255.77 87.0699C261.127 87.0699 265.47 82.7271 265.47 77.3699C265.47 72.0128 261.127 67.6699 255.77 67.6699C250.413 67.6699 246.07 72.0128 246.07 77.3699C246.07 82.7271 250.413 87.0699 255.77 87.0699Z" fill="#96646B"/>
<path d="M265.47 95.07L255.05 95.55L254.56 84.64L263.53 81.25L265.47 95.07Z" fill="#96646B"/>
<path d="M280.51 166.35C266.29 163.66 250.09 162.7 239.29 166.35L242.68 95.07L254.08 91.67L254.93 90.34L264.5 88.77L269.11 90.22L272 94.58L284.61 101.58C278.42 125.62 276.58 147.44 280.51 166.35Z" fill="#2F2E40"/>
<path d="M287.29 165.87L276.87 164.66C279.04 154.07 278.15 140.3 278.69 126.47C279.03 117.7 280.84 109.72 281.48 99.9199C285.43 100.92 287.48 104.62 287.48 108.92C287.61 129.47 289.55 148.7 287.29 165.87Z" fill="#2F2E40"/>
<path d="M242 164.9L231.82 164.17L237.88 129.74L239.88 101.09C239.57 96.9101 241.8 94.4801 245.11 94.3401C252.33 102.9 253.17 114.69 250.93 128.04L242 164.9Z" fill="#2F2E40"/>
<path d="M258.92 84.4999L257.67 80.9399C256.969 78.9428 255.738 77.174 254.108 75.8229C252.479 74.4718 250.513 73.5893 248.42 73.2699V73.2699L240.58 73.0899L242.75 69.5899C243.796 67.8961 245.296 66.5295 247.079 65.6457C248.863 64.7618 250.859 64.396 252.84 64.5899L260.67 65.3699C261.595 65.4637 262.493 65.7388 263.312 66.1795C264.131 66.6202 264.855 67.218 265.443 67.9386C266.03 68.6592 266.471 69.4886 266.738 70.3793C267.005 71.2701 267.094 72.2047 267 73.1299L266.29 80.8299C266.212 81.6533 265.925 82.4431 265.456 83.1245C264.987 83.8059 264.352 84.3564 263.611 84.7239C262.87 85.0914 262.048 85.2637 261.222 85.2245C260.395 85.1853 259.593 84.9359 258.89 84.4999H258.92Z" fill="#2F2E40"/>
</svg>
