<?xml version="1.0" encoding="utf-8"?>
<!-- Generator: Adobe Illustrator 25.4.1, SVG Export Plug-In . SVG Version: 6.00 Build 0)  -->
<svg version="1.1" id="Layer_1" xmlns="http://www.w3.org/2000/svg" xmlns:xlink="http://www.w3.org/1999/xlink" x="0px" y="0px"
	 viewBox="0 0 100 100" style="enable-background:new 0 0 100 100;" xml:space="preserve">
<style type="text/css">
	.st0{fill:none;stroke:#DB2C47;stroke-width:12;stroke-linecap:round;stroke-linejoin:round;stroke-miterlimit:3;}
	.st1{fill:none;}
	.st2{fill:none;stroke:#DB2C47;stroke-width:4.0894;stroke-linecap:round;stroke-linejoin:round;stroke-miterlimit:3;}
	.st3{fill:none;stroke:#DB2C47;stroke-width:4.0894;stroke-miterlimit:7.5;}
</style>
<path class="st0" d="M-207.7,25"/>
<g>
	<rect x="17.3" y="17.3" class="st1" width="65.4" height="65.4"/>
	<rect x="17.3" y="17.3" class="st1" width="65.4" height="65.4"/>
	<g>
		<path class="st2" d="M80,71.2V53.7c0-16.6-13.4-30-30-30"/>
		<path class="st2" d="M80,53.7"/>
		<path class="st2" d="M80,53.7v17.5c0,2.8,2.2,5,5,5h5c2.8,0,5-2.2,5-5V58.7c0-2.8-2.2-5-5-5H80"/>
		<path class="st2" d="M50,23.8c-16.6,0-30,13.4-30,30v17.5"/>
		<path class="st2" d="M74.6,50.2"/>
		<path class="st2" d="M20,53.7H10c-2.8,0-5,2.2-5,5v12.5c0,2.8,2.2,5,5,5h5c2.8,0,5-2.2,5-5V53.7"/>
	</g>
	<g>
		<circle class="st3" cx="50" cy="56.5" r="22.4"/>
		<line class="st2" x1="28.9" y1="49" x2="71.1" y2="49"/>
		<line class="st2" x1="28.9" y1="63.9" x2="71.1" y2="63.9"/>
		<ellipse class="st3" cx="50" cy="56.5" rx="9.3" ry="21.8"/>
	</g>
</g>
</svg>
