<svg fill="none" height="100" viewBox="0 0 100 100" width="100" xmlns="http://www.w3.org/2000/svg"><path d="m81.3559 46.0407v-.5145c0-.1716 0-.3431 0-.5146-3.8983-14.2354-16.7796-24.0116-31.3559-24.0116s-27.4576 9.9477-31.3559 24.0116v.5146.5145c-4.7458.1715-8.6441 4.1163-8.6441 9.0901 0 4.9739 4.0678 9.0901 8.9831 9.0901h1.3559c1.0169 0 1.6949-.686 1.6949-1.7151v-16.8081c3.5593-12.5204 15.0847-21.2675 27.9661-21.2675s24.4068 8.7471 27.9661 21.2675v16.8081c0 1.0291.678 1.7151 1.6949 1.7151h1.356c4.9152 0 8.983-4.1162 8.983-9.0901 0-4.9738-3.8983-8.9186-8.6441-9.0901zm-62.8813 14.75c-2.8814-.1715-5.2543-2.5727-5.2543-5.6599s2.3729-5.4884 5.2543-5.6599zm62.8813 0v-11.3198c2.8814.1715 5.2543 2.5727 5.2543 5.6599s-2.3729 5.4884-5.2543 5.6599zm-31.5254-32.5872c-14.0678 0-25.5932 11.6628-25.5932 25.8982 0 14.2355 11.5254 25.8983 25.5932 25.8983 14.0678-.1715 25.5932-11.8343 25.5932-26.0698 0-14.2354-11.5254-25.7267-25.5932-25.7267zm18.4746 13.5494h-5.2542c-1.017-3.0872-2.3729-5.8314-4.0678-8.061 3.8983 1.7151 7.1186 4.4593 9.322 8.061zm-6.7797 12.1773c0 3.0872-.339 6.1745-1.0169 8.9186h-21.356c-.6779-2.7441-1.0169-5.6598-1.0169-8.9186 0-3.2587.339-6.1744 1.0169-8.9186h21.356c.6779 2.9157 1.0169 5.8314 1.0169 8.9186zm-11.6949 22.2965c-3.8983 0-7.6271-3.9447-9.661-9.9476h19.322c-2.0339 6.0029-5.5932 9.9476-9.661 9.9476zm-9.661-34.4738c2.2034-6.0029 5.7627-9.9477 9.661-9.9477s7.6271 3.9448 9.661 9.9477zm.339-8.061c-1.6949 2.2296-3.0509 4.8023-4.0678 8.061h-5.0848c2.3729-3.6017 5.4238-6.3459 9.1526-8.061zm-11.017 11.4912h6.1017c-.5085 2.7442-.8474 5.6599-.8474 8.9186 0 3.2588.3389 6.1745.8474 8.9186h-6.1017c-1.1864-2.7441-1.8644-5.6598-1.8644-8.9186.1695-3.2587.8475-6.3459 1.8644-8.9186zm1.8644 21.096h5.2543c1.0169 3.0872 2.3729 5.8314 4.0678 8.061-3.8983-1.8866-6.9492-4.6308-9.3221-8.061zm27.7966 8.061c1.695-2.2296 3.0509-4.8023 4.0678-8.061h5.2543c-2.3729 3.4302-5.5932 6.1744-9.3221 8.061zm11.017-11.4913h-6.1017c.5085-2.7441.8475-5.6598.8475-8.9186 0-3.2587-.339-6.1744-.8475-8.9186h6.1017c1.1864 2.7442 1.8644 5.6599 1.8644 8.9186 0 3.2588-.678 6.1745-1.8644 8.9186z" fill="#eb0029"/></svg>