<?xml version="1.0" encoding="utf-8"?>
<!-- Generator: Adobe Illustrator 24.2.0, SVG Export Plug-In . SVG Version: 6.00 Build 0)  -->
<svg version="1.1" id="Layer_1" xmlns="http://www.w3.org/2000/svg" xmlns:xlink="http://www.w3.org/1999/xlink" x="0px" y="0px"
	 viewBox="0 0 54.4 54.4" style="enable-background:new 0 0 54.4 54.4;" xml:space="preserve">
<style type="text/css">
	.st0{fill:#EB0029;}
</style>
<g id="Layer_2_1_">
	<g id="Layer_1-2">
		<path class="st0" d="M1.8,54.4h12.1c1,0,1.8-0.8,1.8-1.8l0,0v-36c0-1-0.8-1.9-1.8-1.9l0,0H1.8c-1,0-1.8,0.8-1.8,1.8l0,0v36.1
			C0,53.6,0.8,54.4,1.8,54.4z M3.6,18.3h8.5v32.4H3.6V18.3z M52.6,54.4c1,0,1.8-0.8,1.8-1.8l0,0V26.1c0-1-0.8-1.9-1.8-1.9l0,0H40.5
			c-1,0-1.8,0.8-1.8,1.8l0,0v26.5c0,1,0.8,1.9,1.8,1.9l0,0H52.6z M50.8,50.7h-2.7l2.7-2.8V50.7z M50.8,45l-5.5,5.7h-2.8l8.3-8.6V45z
			 M42.3,27.9H45l-2.7,2.8V27.9z M42.3,33.6l5.5-5.7h2.8l-8.3,8.6V33.6z M42.3,39.4l8.5-8.8v2.8l-8.5,8.8V39.4z M42.3,45.2l8.5-8.8
			v2.9l-8.5,8.8V45.2z M19.4,52.5V1.9c0-1,0.8-1.9,1.8-1.9l0,0h12c1,0,1.8,0.8,1.8,1.8l0,0v50.7c0,1-0.8,1.9-1.8,1.9l0,0h-12
			C20.2,54.4,19.4,53.6,19.4,52.5L19.4,52.5z"/>
	</g>
</g>
</svg>
