<svg fill="none" height="100" viewBox="0 0 100 100" width="100" xmlns="http://www.w3.org/2000/svg"><g fill="#eb0029"><path d="m82 13h-65c-1.3261 0-2.5979.5268-3.5355 1.4645-.9377.9376-1.4645 2.2094-1.4645 3.5355v65c0 1.3261.5268 2.5979 1.4645 3.5355.9376.9377 2.2094 1.4645 3.5355 1.4645h65c1.3261 0 2.5979-.5268 3.5355-1.4645.9377-.9376 1.4645-2.2094 1.4645-3.5355v-65c0-1.3261-.5268-2.5979-1.4645-3.5355-.9376-.9377-2.2094-1.4645-3.5355-1.4645zm-65 2.5h65c.663 0 1.2989.2634 1.7678.7322.4688.4689.7322 1.1048.7322 1.7678v5h-70v-5c0-.663.2634-1.2989.7322-1.7678.4689-.4688 1.1048-.7322 1.7678-.7322zm65 70h-65c-.663 0-1.2989-.2634-1.7678-.7322-.4688-.4689-.7322-1.1048-.7322-1.7678v-57.5h70v57.5c0 .663-.2634 1.2989-.7322 1.7678-.4689.4688-1.1048.7322-1.7678.7322z"/><path d="m81.515 51.7798c-.4516-.3464-.9788-.5866-1.5407-.7019-.562-.1152-1.1436-.1025-1.6996.0373-2.5709.7649-4.845 2.2712-6.5239 4.3213-1.6208 1.6789-2.9002 3.0044-5.2508 3.0044-.807.0228-1.6098-.1221-2.3552-.425-.7455-.3028-1.4166-.7569-1.9691-1.332-.5882-.6072-1.2945-1.0936-2.0776-1.4306-.7831-.3371-1.6271-.518-2.4827-.5323-3.6338 0-5.775 2.5828-7.8451 5.0838s-4.0108 4.8358-7.3857 4.8358c-2.5423.0715-5.02-.7882-6.9465-2.4104-1.9512-1.6417-4.4399-2.5462-7.015-2.5494-6.7269 0-11.4231 6.1192-11.4231 14.8795v3.7198c0 .9866.4012 1.9328 1.1152 2.6304.7141.6976 1.6826 1.0895 2.6925 1.0895h58.3846c1.0099 0 1.9784-.3919 2.6924-1.0895.7141-.6976 1.1153-1.6438 1.1153-2.6304v-23.5467c.0009-.5706-.1325-1.1338-.39-1.6459-.2575-.5122-.6322-.9596-1.095-1.3077zm-53.0919 10.3809c2.039-.0025 4.0061.7361 5.5186 2.072 2.3582 1.9387 5.3619 2.966 8.4429 2.8879 4.5857 0 7.1217-3.059 9.3593-5.7584 1.8506-2.2319 3.4485-4.1613 5.8715-4.1613.5532.0196 1.0963.1508 1.595.3856.4987.2347.9422.5679 1.3026.9784.7818.7693 1.7159 1.375 2.7452 1.7801 1.0294.405 2.1324.601 3.2418.5758 3.446 0 5.3028-1.9232 7.0975-3.7819 1.3559-1.7035 3.2076-2.9665 5.3118-3.6231.1806-.0446.3693-.0477.5514-.0092s.3526.1176.4982.2311c.1566.1164.2839.2664.3719.4384.088.1719.1345.3613.1358.5536v7.4744c-4.5451.315-6.2636 2.3187-7.3247 4.289-.4253.7894-1.0222 1.4783-1.7488 2.0185s-1.5653.9186-2.4574 1.1087c-.9187.196-1.8702.1931-2.7876-.0085-.9175-.2016-1.7786-.5969-2.5229-1.1583-2.0613-1.6326-4.6256-2.539-7.279-2.5729-3.6465 0-5.5707 2.4018-7.2677 4.5196-1.787 2.2319-3.3317 4.1601-6.6939 4.1601-2.5423.0715-5.02-.7883-6.9465-2.4105-1.9512-1.6417-4.4399-2.5461-7.015-2.5493-3.3666.1082-6.5513 1.518-8.8542 3.9195.3046-5.6555 3.1033-11.3593 8.8542-11.3593zm50.7692 17.3594h-58.3846c-.3366 0-.6595-.1306-.8975-.3632-.238-.2325-.3717-.5479-.3717-.8768v-.8679c.7831-1.116 4.0615-5.3318 8.8846-5.3318 2.039-.0026 4.0061.736 5.5186 2.0719 2.3582 1.9387 5.3619 2.9661 8.4429 2.8879 4.5997 0 6.8691-2.8346 8.6942-5.1123 1.7719-2.2109 2.9739-3.5674 5.2674-3.5674 2.0931.041 4.1113.7681 5.7305 2.0645 1.0379.7801 2.2375 1.3293 3.5151 1.6095 1.2777.2801 2.6025.2843 3.882.0124 1.2536-.2671 2.4323-.7989 3.4534-1.558 1.021-.7591 1.8598-1.7272 2.4574-2.8364.7032-1.3032 1.7465-2.682 5.0769-2.9585v13.5861c0 .3289-.1337.6443-.3717.8768-.238.2326-.5609.3632-.8975.3632z"/><path d="m18.6667 19h1.6666c.4421 0 .866-.1054 1.1785-.2929.3126-.1875.4882-.4419.4882-.7071s-.1756-.5196-.4882-.7071c-.3125-.1875-.7364-.2929-1.1785-.2929h-1.6666c-.4421 0-.866.1054-1.1785.2929-.3126.1875-.4882.4419-.4882.7071s.1756.5196.4882.7071c.3125.1875.7364.2929 1.1785.2929z"/><path d="m25.3333 19h1.3334c.3536 0 .6927-.1054.9428-.2929.25-.1875.3905-.4419.3905-.7071s-.1405-.5196-.3905-.7071c-.2501-.1875-.5892-.2929-.9428-.2929h-1.3334c-.3536 0-.6927.1054-.9428.2929-.25.1875-.3905.4419-.3905.7071s.1405.5196.3905.7071c.2501.1875.5892.2929.9428.2929z"/><path d="m32.3333 19h1.3334c.3536 0 .6927-.1054.9428-.2929.25-.1875.3905-.4419.3905-.7071s-.1405-.5196-.3905-.7071c-.2501-.1875-.5892-.2929-.9428-.2929h-1.3334c-.3536 0-.6927.1054-.9428.2929-.25.1875-.3905.4419-.3905.7071s.1405.5196.3905.7071c.2501.1875.5892.2929.9428.2929z"/><path d="m74.25 19h7.5c.3315 0 .6495-.1054.8839-.2929s.3661-.4419.3661-.7071-.1317-.5196-.3661-.7071-.5524-.2929-.8839-.2929h-7.5c-.3315 0-.6495.1054-.8839.2929s-.3661.4419-.3661.7071.1317.5196.3661.7071.5524.2929.8839.2929z"/><path d="m30.5 40c1.7233-.0021 3.3754-.6875 4.5939-1.9061 1.2186-1.2185 1.904-2.8706 1.9061-4.5939 0-.3448-.137-.6754-.3808-.9192s-.5744-.3808-.9192-.3808-.6754.137-.9192.3808-.3808.5744-.3808.9192c0 .7713-.2287 1.5254-.6573 2.1667-.4285.6414-1.0376 1.1412-1.7502 1.4364-.7127.2952-1.4968.3724-2.2534.222-.7565-.1505-1.4514-.522-1.9968-1.0674s-.9169-1.2403-1.0674-1.9968c-.1504-.7566-.0732-1.5407.222-2.2534.2952-.7126.795-1.3217 1.4364-1.7502.6413-.4286 1.3954-.6573 2.1667-.6573.3448 0 .6754-.137.9192-.3808s.3808-.5744.3808-.9192-.137-.6754-.3808-.9192-.5744-.3808-.9192-.3808c-1.7239 0-3.3772.6848-4.5962 1.9038s-1.9038 2.8723-1.9038 4.5962.6848 3.3772 1.9038 4.5962 2.8723 1.9038 4.5962 1.9038z"/><path d="m50.798 40c1.0173-.0025 2.0162-.3039 2.8972-.8742.881-.5702 1.6132-1.3894 2.1238-2.3758.0839-.148.1402-.3134.1656-.4864s.0193-.35-.0179-.5203-.1048-.3304-.1986-.4707c-.0938-.1402-.212-.2578-.3474-.3455-.1354-.0878-.2852-.1439-.4405-.165-.1552-.0212-.3127-.0069-.4629.042-.1502.0488-.29.1312-.4111.2422-.121.111-.2208.2483-.2933.4037-.3053.5928-.7443 1.0851-1.2731 1.4273-.5287.3423-1.1285.5226-1.739.5227-.6106.0001-1.2104-.1799-1.7393-.522-.5288-.3421-.968-.8342-1.2735-1.4269-.3054-.5927-.4663-1.2651-.4666-1.9495-.0002-.6845.1602-1.357.4653-1.95.305-.5929.7438-1.0854 1.2724-1.428s1.1283-.5232 1.7389-.5236c.3075 0 .6025-.137.8199-.3808.2175-.2438.3397-.5744.3397-.9192s-.1222-.6754-.3397-.9192c-.2174-.2438-.5124-.3808-.8199-.3808-1.5377 0-3.0125.6848-4.0998 1.9038s-1.6982 2.8723-1.6982 4.5962.6109 3.3772 1.6982 4.5962 2.5621 1.9038 4.0998 1.9038z"/><path d="m70.5 40c.9916-.001 1.9699-.2286 2.8601-.6655s1.6688-1.0715 2.2762-1.8553c.6075-.7838 1.0277-1.6961 1.2287-2.6672.201-.971.1773-1.9752-.0692-2.9357-.0862-.3341-.3016-.6203-.5987-.7956-.2972-.1752-.6519-.2253-.986-.1391s-.6202.3016-.7955.5988-.2254.6518-.1392.9859c.2031.7875.1549 1.6189-.1379 2.3777-.2928.7587-.8155 1.407-1.4949 1.854-.6794.4471-1.4816.6705-2.2943.6391s-1.5952-.3161-2.2381-.8143c-.6429-.4981-1.1139-1.1848-1.3473-1.9639-.2333-.7792-.2172-1.6117.046-2.3812.2633-.7696.7605-1.4375 1.4222-1.9105.6616-.4729 1.4546-.7272 2.2679-.7272.3447 0 .6754-.137.9192-.3808s.3808-.5744.3808-.9192-.137-.6754-.3808-.9192-.5745-.3808-.9192-.3808c-1.7239 0-3.3772.6848-4.5962 1.9038s-1.9038 2.8723-1.9038 4.5962.6848 3.3772 1.9038 4.5962 2.8723 1.9038 4.5962 1.9038z"/><path d="m68.3333 47c-.3536 0-.6927.1054-.9428.2929-.25.1875-.3905.4419-.3905.7071s.1405.5196.3905.7071c.2501.1875.5892.2929.9428.2929h5.3334c.3536 0 .6927-.1054.9428-.2929.25-.1875.3905-.4419.3905-.7071s-.1405-.5196-.3905-.7071c-.2501-.1875-.5892-.2929-.9428-.2929z"/><path d="m48.3333 47c-.3536 0-.6927.1054-.9428.2929-.25.1875-.3905.4419-.3905.7071s.1405.5196.3905.7071c.2501.1875.5892.2929.9428.2929h5.3334c.3536 0 .6927-.1054.9428-.2929.25-.1875.3905-.4419.3905-.7071s-.1405-.5196-.3905-.7071c-.2501-.1875-.5892-.2929-.9428-.2929z"/><path d="m27.3333 47c-.3536 0-.6927.1054-.9428.2929-.25.1875-.3905.4419-.3905.7071s.1405.5196.3905.7071c.2501.1875.5892.2929.9428.2929h5.3334c.3536 0 .6927-.1054.9428-.2929.25-.1875.3905-.4419.3905-.7071s-.1405-.5196-.3905-.7071c-.2501-.1875-.5892-.2929-.9428-.2929z"/><path d="m68.3333 42c-.3536 0-.6927.2107-.9428.5858-.25.3751-.3905.8838-.3905 1.4142s.1405 1.0391.3905 1.4142c.2501.3751.5892.5858.9428.5858h5.3334c.3536 0 .6927-.2107.9428-.5858.25-.3751.3905-.8838.3905-1.4142s-.1405-1.0391-.3905-1.4142c-.2501-.3751-.5892-.5858-.9428-.5858z"/><path d="m48.3333 42c-.3536 0-.6927.2107-.9428.5858-.25.3751-.3905.8838-.3905 1.4142s.1405 1.0391.3905 1.4142c.2501.3751.5892.5858.9428.5858h5.3334c.3536 0 .6927-.2107.9428-.5858.25-.3751.3905-.8838.3905-1.4142s-.1405-1.0391-.3905-1.4142c-.2501-.3751-.5892-.5858-.9428-.5858z"/><path d="m27.3333 42c-.3536 0-.6927.2107-.9428.5858-.25.3751-.3905.8838-.3905 1.4142s.1405 1.0391.3905 1.4142c.2501.3751.5892.5858.9428.5858h5.3334c.3536 0 .6927-.2107.9428-.5858.25-.3751.3905-.8838.3905-1.4142s-.1405-1.0391-.3905-1.4142c-.2501-.3751-.5892-.5858-.9428-.5858z"/></g></svg>