<?xml version="1.0" encoding="utf-8"?>
<!-- Generator: Adobe Illustrator 24.2.0, SVG Export Plug-In . SVG Version: 6.00 Build 0)  -->
<svg version="1.1" xmlns="http://www.w3.org/2000/svg" xmlns:xlink="http://www.w3.org/1999/xlink" x="0px" y="0px"
	 viewBox="0 0 100 100" style="enable-background:new 0 0 100 100;" xml:space="preserve">
<style type="text/css">
	.st0{fill:#EB0029;}
</style>
<g id="Layer_2">
</g>
<g id="Layer_1">
	<g>
		<path class="st0" d="M46.4,66.8c-0.4-0.2-0.8-0.2-1.2,0.1c-3.2,2.3-7.1,3.7-11.3,3.7s-8.1-1.4-11.3-3.7c-0.3-0.3-0.8-0.3-1.2-0.1
			C14,71.6,10.3,81,10.3,91.9c0,7.5,47.3,7.5,47.3,0C57.6,81,53.9,71.6,46.4,66.8z"/>
		<circle class="st0" cx="33.9" cy="51.4" r="14.1"/>
		<circle class="st0" cx="64.8" cy="46.9" r="5.8"/>
		<circle class="st0" cx="56.6" cy="57.3" r="4.6"/>
		<path class="st0" d="M81.2,10.3c-0.5-4.4-4.3-7.8-8.8-7.8c-1.7,0-3.3,0.5-4.7,1.4c-1.4,0.9-3.3,0.9-4.7,0c-1.4-0.9-3-1.4-4.7-1.4
			c-4.5,0-8.2,3.4-8.8,7.8c-4.9,1-8.6,5.3-8.6,10.5s3.7,9.5,8.6,10.5c0.5,4.4,4.3,7.8,8.8,7.8c1.7,0,3.3-0.5,4.7-1.4s3.3-0.9,4.7,0
			c1.4,0.9,3,1.4,4.7,1.4c4.5,0,8.2-3.4,8.8-7.8c4.9-1,8.6-5.3,8.6-10.5C89.7,15.6,86.1,11.3,81.2,10.3z M65.1,32.1
			c-1.6,0-2.8-1-2.8-2.6s1.3-2.6,2.8-2.6c1.6,0,2.8,0.9,2.8,2.6C67.9,31.2,66.6,32.1,65.1,32.1z M72.5,17.4C72.3,18,72,18.6,71.6,19
			c-0.4,0.5-0.8,0.9-1.2,1.3c-0.5,0.4-0.9,0.7-1.3,1.1c-0.5,0.4-1,0.9-1.3,1.4c-0.3,0.4-0.5,0.9-0.5,1.4c0,0.3-0.3,0.5-0.6,0.5h-3.2
			c-0.4,0-0.6-0.3-0.6-0.6c0-0.5,0.1-1,0.2-1.4c0.2-0.6,0.4-1.1,0.7-1.5s0.6-0.8,1-1.2c0.4-0.4,0.7-0.7,1.1-1c0.6-0.5,1.2-1,1.7-1.5
			s0.7-1.1,0.7-1.9c0-0.7-0.2-1.2-0.7-1.7s-1.2-0.7-2-0.7s-1.4,0.2-2,0.6c-0.5,0.3-0.8,0.9-1,1.6c-0.1,0.3-0.3,0.5-0.6,0.5h-3.4
			c-0.4,0-0.6-0.4-0.5-0.8c0.1-1,0.4-2,0.8-2.6c0.4-0.7,1-1.3,1.7-1.8s1.5-0.9,2.4-1.1c0.9-0.3,1.9-0.4,2.9-0.4c1.1,0,2.1,0.1,3,0.4
			c0.9,0.3,1.7,0.7,2.3,1.2c0.6,0.5,1.1,1.1,1.5,1.9c0.3,0.7,0.5,1.5,0.5,2.4C72.9,16.1,72.8,16.8,72.5,17.4z"/>
	</g>
</g>
</svg>
