<svg enable-background="new 0 0 100 100" viewBox="0 0 100 100" xmlns="http://www.w3.org/2000/svg"><g fill="#eb0029"><path d="m14.4 63.6c-.3 0-.7 0-.7-.3-.7 0-1-.7-1-1.4v-40.4c0-4.8 3.7-8.8 8.5-8.8h27.2c4.8 0 8.5 3.7 8.5 8.8v23.1c0 4.8-3.7 8.8-8.5 8.8h-19.8l-13.2 9.5c-.4.7-.7.7-1 .7zm6.7-47.5c-2.7.3-5.1 2.7-5.1 5.4v36.7l10.9-8.2c.3-.3.7-.3 1-.3h20.4c2.7 0 5.1-2.4 5.1-5.4v-22.8c0-3.1-2.4-5.1-5.1-5.4z"/><path d="m85.7 87.3c-.3 0-.7 0-1-.3l-13.3-10.2h-19.7c-4.8 0-8.5-3.7-8.5-8.8v-14.6c0-1 .7-1.7 1.7-1.7s1.7 1 1.7 1.7v14.3c0 3.1 2.4 5.1 5.1 5.4h20.4c.3 0 .7 0 1 .3l10.9 8.5v-39c0-3.1-2.4-5.1-5.1-5.4h-23.8c-1 0-1.7-.7-1.7-1.7s.7-1.7 1.7-1.7h23.8c4.8 0 8.5 3.7 8.5 8.8v42.8c0 .7-.3 1.4-1 1.7h-.7z"/><path d="m41.5 42.9c-1 0-1.7-.7-1.7-1.7 0 0 0 0 0-.3v-10.6c0-3.1-2.4-5.1-5.1-5.4-2.7.3-5.1 2.7-5.1 5.4v10.5c0 1-.7 1.7-1.4 1.7 0 0 0 0-.3 0-1 .3-1.7-.3-1.7-1.4 0 0 0 0 0-.3v-10.5c0-4.8 3.7-8.8 8.5-8.8s8.5 4.1 8.5 8.8v10.5c0 1.4-.7 2.1-1.7 2.1z"/><path d="m41.5 35.7h-13.6c-1 0-1.7-.7-1.7-1.7s.7-1.7 1.7-1.7h13.6c1 0 1.7.7 1.7 1.7s-.7 1.7-1.7 1.7z"/><path d="m75.5 51.7h-17c-1 0-1.7-.7-1.7-1.7s.7-1.7 1.7-1.7h17c1 0 1.7.7 1.7 1.7s-.7 1.7-1.7 1.7z"/><path d="m58.5 66c-.7 0-1.7-.7-1.7-1.4 0-1 .3-2 1.4-2s13.2-2.4 12.9-10.5c0-1 .7-1.7 1.7-1.7s1.7.7 1.7 1.7c.3 10.8-15.3 13.5-16 13.9z"/><path d="m75.8 66c-1 0-16.6-2.7-16-14.3 0-1 .7-1.7 1.4-1.7h.3c1 0 1.7.7 1.7 1.7v.3c-.3 8.1 12.6 10.5 12.9 10.5 1 0 1.7.7 1.7 1.7 0 1.1-1 1.8-2 1.8z"/><path d="m68.7 51.7c-1 0-1.7-.7-1.7-1.7 0 0 0 0 0-.3v-3.4c0-1 .7-1.7 1.7-1.7s1.7 1 1.7 1.7v3.4c0 1.3-.7 2-1.7 2z"/></g></svg>