<?xml version="1.0" encoding="utf-8"?>
<!-- Generator: Adobe Illustrator 24.2.0, SVG Export Plug-In . SVG Version: 6.00 Build 0)  -->
<svg version="1.1" id="Layer_1" xmlns="http://www.w3.org/2000/svg" xmlns:xlink="http://www.w3.org/1999/xlink" x="0px" y="0px"
	 viewBox="0 0 22 22" style="enable-background:new 0 0 22 22;" xml:space="preserve">
<style type="text/css">
	.st0{fill:#EB0029;}
</style>
<g id="Layer_2_1_">
	<g id="Layer_1-2">
		<g>
			<path class="st0" d="M0.5,15c-0.1,0-0.2,0-0.2-0.1c-0.2,0-0.3-0.2-0.3-0.4V2.6C0,1.2,1.1,0,2.5,0l0,0h8C11.9,0,13,1.1,13,2.6l0,0
				v6.8c0,1.4-1.1,2.6-2.5,2.6l0,0H4.7l-3.9,2.8C0.7,15,0.6,15,0.5,15z M2.5,1C1.7,1.1,1,1.8,1,2.6v10.8L4.2,11
				c0.1-0.1,0.2-0.1,0.3-0.1h6c0.8,0,1.5-0.7,1.5-1.6V2.6c0-0.9-0.7-1.5-1.5-1.6C10.5,1,2.5,1,2.5,1z"/>
			<path class="st0" d="M21.5,22c-0.1,0-0.2,0-0.3-0.1l-3.9-3h-5.8c-1.4,0-2.5-1.1-2.5-2.6l0,0V12c0-0.3,0.2-0.5,0.5-0.5
				S10,11.8,10,12v4.2c0,0.9,0.7,1.5,1.5,1.6h6c0.1,0,0.2,0,0.3,0.1l3.2,2.5V8.9c0-0.9-0.7-1.5-1.5-1.6h-7c-0.3,0-0.5-0.2-0.5-0.5
				s0.2-0.5,0.5-0.5h7c1.4,0,2.5,1.1,2.5,2.6l0,0v12.6c0,0.2-0.1,0.4-0.3,0.5H21.5z"/>
			<path class="st0" d="M8.5,8.9C8.2,8.9,8,8.7,8,8.4c0,0,0,0,0-0.1V5.2c0-0.9-0.7-1.5-1.5-1.6C5.7,3.7,5,4.4,5,5.2v3.1
				c0,0.3-0.2,0.5-0.4,0.5c0,0,0,0-0.1,0C4.2,8.9,4,8.7,4,8.4c0,0,0,0,0-0.1V5.2c0-1.4,1.1-2.6,2.5-2.6S9,3.8,9,5.2v3.1
				C9,8.7,8.8,8.9,8.5,8.9L8.5,8.9z"/>
			<path class="st0" d="M8.5,6.8h-4C4.2,6.8,4,6.6,4,6.3s0.2-0.5,0.5-0.5h4C8.8,5.8,9,6,9,6.3S8.8,6.8,8.5,6.8z"/>
			<path class="st0" d="M18.5,11.5h-5c-0.3,0-0.5-0.2-0.5-0.5s0.2-0.5,0.5-0.5h5c0.3,0,0.5,0.2,0.5,0.5S18.8,11.5,18.5,11.5z"/>
			<path class="st0" d="M13.5,15.7c-0.2,0-0.5-0.2-0.5-0.4c0-0.3,0.1-0.6,0.4-0.6l0,0c0,0,3.9-0.7,3.8-3.1c0-0.3,0.2-0.5,0.5-0.5
				s0.5,0.2,0.5,0.5C18.3,14.8,13.7,15.6,13.5,15.7z"/>
			<path class="st0" d="M18.6,15.7L18.6,15.7c-0.3,0-4.9-0.8-4.7-4.2c0-0.3,0.2-0.5,0.4-0.5c0,0,0,0,0.1,0l0,0
				c0.3,0,0.5,0.2,0.5,0.5c0,0,0,0,0,0.1c-0.1,2.4,3.7,3.1,3.8,3.1c0.3,0,0.5,0.2,0.5,0.5C19.2,15.5,18.9,15.7,18.6,15.7z"/>
			<path class="st0" d="M16.5,11.5c-0.3,0-0.5-0.2-0.5-0.5c0,0,0,0,0-0.1v-1c0-0.3,0.2-0.5,0.5-0.5S17,9.7,17,9.9v1
				C17,11.3,16.8,11.5,16.5,11.5L16.5,11.5z"/>
		</g>
	</g>
</g>
</svg>
