<?xml version="1.0" encoding="utf-8"?>
<!-- Generator: Adobe Illustrator 24.2.0, SVG Export Plug-In . SVG Version: 6.00 Build 0)  -->
<svg version="1.1" id="Layer_1" xmlns="http://www.w3.org/2000/svg" xmlns:xlink="http://www.w3.org/1999/xlink" x="0px" y="0px"
	 viewBox="0 0 100 100" style="enable-background:new 0 0 100 100;" xml:space="preserve">
<style type="text/css">
	.st0{fill:#EB0029;}
</style>
<g id="Layer_2_1_">
	<g id="Layer_1-2">
		<g>
			<path class="st0" d="M14.4,63.6c-0.3,0-0.7,0-0.7-0.3c-0.7,0-1-0.7-1-1.4V21.5c0-4.8,3.7-8.8,8.5-8.8l0,0h27.2
				c4.8,0,8.5,3.7,8.5,8.8l0,0v23.1c0,4.8-3.7,8.8-8.5,8.8l0,0H28.6l-13.2,9.5C15,63.6,14.7,63.6,14.4,63.6z M21.1,16.1
				c-2.7,0.3-5.1,2.7-5.1,5.4v36.7L26.9,50c0.3-0.3,0.7-0.3,1-0.3h20.4c2.7,0,5.1-2.4,5.1-5.4V21.5c0-3.1-2.4-5.1-5.1-5.4
				C48.3,16.1,21.1,16.1,21.1,16.1z"/>
			<path class="st0" d="M85.7,87.3c-0.3,0-0.7,0-1-0.3L71.4,76.8H51.7c-4.8,0-8.5-3.7-8.5-8.8l0,0V53.4c0-1,0.7-1.7,1.7-1.7
				c1,0,1.7,1,1.7,1.7v14.3c0,3.1,2.4,5.1,5.1,5.4h20.4c0.3,0,0.7,0,1,0.3L84,81.9v-39c0-3.1-2.4-5.1-5.1-5.4H55.1
				c-1,0-1.7-0.7-1.7-1.7s0.7-1.7,1.7-1.7h23.8c4.8,0,8.5,3.7,8.5,8.8l0,0v42.8c0,0.7-0.3,1.4-1,1.7H85.7z"/>
			<path class="st0" d="M41.5,42.9c-1,0-1.7-0.7-1.7-1.7c0,0,0,0,0-0.3V30.3c0-3.1-2.4-5.1-5.1-5.4c-2.7,0.3-5.1,2.7-5.1,5.4v10.5
				c0,1-0.7,1.7-1.4,1.7c0,0,0,0-0.3,0c-1,0.3-1.7-0.3-1.7-1.4c0,0,0,0,0-0.3V30.3c0-4.8,3.7-8.8,8.5-8.8s8.5,4.1,8.5,8.8v10.5
				C43.2,42.2,42.5,42.9,41.5,42.9L41.5,42.9z"/>
			<path class="st0" d="M41.5,35.7H27.9c-1,0-1.7-0.7-1.7-1.7c0-1,0.7-1.7,1.7-1.7h13.6c1,0,1.7,0.7,1.7,1.7S42.5,35.7,41.5,35.7z"
				/>
			<path class="st0" d="M75.5,51.7h-17c-1,0-1.7-0.7-1.7-1.7s0.7-1.7,1.7-1.7h17c1,0,1.7,0.7,1.7,1.7S76.5,51.7,75.5,51.7z"/>
			<path class="st0" d="M58.5,66c-0.7,0-1.7-0.7-1.7-1.4c0-1,0.3-2,1.4-2l0,0c0,0,13.2-2.4,12.9-10.5c0-1,0.7-1.7,1.7-1.7
				c1,0,1.7,0.7,1.7,1.7C74.8,62.9,59.2,65.6,58.5,66z"/>
			<path class="st0" d="M75.8,66L75.8,66c-1,0-16.6-2.7-16-14.3c0-1,0.7-1.7,1.4-1.7c0,0,0,0,0.3,0l0,0c1,0,1.7,0.7,1.7,1.7
				c0,0,0,0,0,0.3c-0.3,8.1,12.6,10.5,12.9,10.5c1,0,1.7,0.7,1.7,1.7C77.8,65.3,76.8,66,75.8,66z"/>
			<path class="st0" d="M68.7,51.7c-1,0-1.7-0.7-1.7-1.7c0,0,0,0,0-0.3v-3.4c0-1,0.7-1.7,1.7-1.7c1,0,1.7,1,1.7,1.7v3.4
				C70.4,51,69.7,51.7,68.7,51.7L68.7,51.7z"/>
		</g>
	</g>
</g>
</svg>
