<svg width="449" height="82" viewBox="0 0 449 82" fill="none" xmlns="http://www.w3.org/2000/svg">
<path d="M1.00004 50.5301C0.997977 50.3405 1.0697 50.1576 1.20004 50.0201C1.30206 49.9204 1.43103 49.8528 1.57103 49.8256C1.71103 49.7985 1.85593 49.8129 1.98782 49.8671C2.11971 49.9214 2.23283 50.0131 2.31319 50.1309C2.39356 50.2487 2.43766 50.3875 2.44004 50.5301C2.4426 50.625 2.42524 50.7195 2.38907 50.8073C2.3529 50.8951 2.29873 50.9744 2.23004 51.0401C2.09357 51.1651 1.91517 51.2345 1.73004 51.2345C1.54492 51.2345 1.36652 51.1651 1.23004 51.0401C1.15916 50.9751 1.10223 50.8963 1.06269 50.8087C1.02316 50.721 1.00184 50.6262 1.00004 50.5301ZM1.24004 53.4601H2.24004V60.8501H1.24004V53.4601Z" fill="white"/>
<path d="M4.92017 55.5401C4.92017 55.4001 4.92017 55.2301 4.92017 55.0401C4.92017 54.8501 4.92017 54.6401 4.92017 54.4401C4.92017 54.2401 4.92017 54.0401 4.92017 53.8701C4.92017 53.7001 4.92017 53.5601 4.92017 53.4601H5.92017C5.92017 53.7401 5.92017 54.0001 5.92017 54.2601C5.90717 54.4265 5.90717 54.5937 5.92017 54.7601H5.97017C6.19343 54.3197 6.54116 53.9545 6.97017 53.7101C7.439 53.4126 7.985 53.2595 8.54017 53.2701C9.02134 53.2519 9.50027 53.3443 9.94017 53.5401C10.2819 53.7008 10.5776 53.945 10.8002 54.2501C11.0106 54.5503 11.157 54.8907 11.2302 55.2501C11.3107 55.6382 11.3509 56.0337 11.3502 56.4301V60.8301H10.3502V56.5001C10.3492 56.2083 10.3225 55.9171 10.2702 55.6301C10.227 55.361 10.1319 55.1028 9.99017 54.8701C9.85577 54.6427 9.66224 54.4561 9.43017 54.3301C9.14157 54.1873 8.82196 54.1185 8.50017 54.1301C8.15743 54.1253 7.81726 54.1899 7.50017 54.3201C7.18618 54.4388 6.90506 54.6308 6.68017 54.8801C6.43636 55.1522 6.25239 55.4724 6.14017 55.8201C5.99502 56.2515 5.92731 56.7051 5.94017 57.1601V60.8501H4.94017L4.92017 55.5401Z" fill="white"/>
<path d="M19.5601 57.75V58.75C19.5601 59.04 19.5601 59.31 19.5601 59.55C19.5601 59.79 19.5601 60.03 19.5601 60.24C19.5601 60.45 19.5601 60.67 19.6301 60.88H18.7301C18.6672 60.4832 18.6371 60.0818 18.6401 59.68V59.68C18.4102 60.1184 18.0642 60.485 17.6401 60.74C17.1551 60.9767 16.6193 61.09 16.0801 61.07C15.7629 61.0702 15.447 61.0298 15.1401 60.95C14.8411 60.8791 14.5591 60.75 14.3101 60.57C13.8722 60.2161 13.5866 59.7078 13.5122 59.1498C13.4378 58.5917 13.5802 58.0263 13.9101 57.57C14.2006 57.2138 14.5751 56.9354 15.0001 56.76C15.4342 56.595 15.888 56.4874 16.3501 56.44C16.8201 56.44 17.2401 56.37 17.6001 56.37H18.7201V55.92C18.743 55.6607 18.7011 55.3997 18.5982 55.1605C18.4952 54.9213 18.3343 54.7116 18.1301 54.55C17.6898 54.2572 17.1685 54.1102 16.6401 54.13C15.814 54.1233 15.0139 54.4185 14.3901 54.96L13.8201 54.31C14.1976 53.9565 14.6482 53.6902 15.1401 53.53C15.6232 53.3646 16.1295 53.2769 16.6401 53.27C17.4045 53.2286 18.16 53.451 18.7801 53.9C19.06 54.1485 19.2787 54.4583 19.4192 54.8052C19.5597 55.1521 19.6182 55.5268 19.5901 55.9L19.5601 57.75ZM17.6301 57.14C17.2387 57.1412 16.8479 57.168 16.4601 57.22C16.116 57.2641 15.7795 57.3549 15.4601 57.49C15.1799 57.6002 14.9298 57.7749 14.7301 58C14.5469 58.2256 14.4511 58.5096 14.4601 58.8C14.4548 59.0099 14.5067 59.2173 14.6101 59.4C14.7069 59.573 14.84 59.7231 15.0001 59.84C15.1659 59.9511 15.3481 60.0354 15.5401 60.09C15.7343 60.1504 15.9366 60.1807 16.1401 60.18C16.5614 60.2062 16.9836 60.1449 17.3801 60C17.6848 59.866 17.955 59.6642 18.1701 59.41C18.365 59.1737 18.505 58.8971 18.5801 58.6C18.6511 58.2985 18.688 57.9899 18.6901 57.68V57.18L17.6301 57.14Z" fill="white"/>
<path d="M28.3101 59.7601C27.9797 60.1809 27.5595 60.5226 27.0801 60.7601C26.6117 60.9699 26.1033 61.0757 25.5901 61.0701C25.045 61.0706 24.505 60.9654 24.0001 60.7601C23.549 60.579 23.1392 60.3085 22.7955 59.9647C22.4517 59.621 22.1812 59.2112 22.0001 58.7601C21.8002 58.2647 21.7016 57.7342 21.7101 57.2001C21.6945 56.6524 21.7932 56.1074 22.0001 55.6001C22.1815 55.1376 22.4535 54.716 22.8001 54.3601C23.1507 54.0116 23.5694 53.7392 24.0301 53.5601C24.5286 53.3589 25.0626 53.2603 25.6001 53.2701C26.1217 53.2665 26.6375 53.3792 27.1101 53.6001C27.5863 53.8469 28.008 54.187 28.3501 54.6001L27.5801 55.1701C27.323 54.8768 27.0147 54.6328 26.6701 54.4501C26.342 54.271 25.9739 54.1782 25.6001 54.1801C25.1811 54.174 24.7655 54.2558 24.3801 54.4201C24.0308 54.5743 23.715 54.7951 23.4501 55.0701C23.1879 55.3584 22.9901 55.6993 22.8701 56.0701C22.6033 56.8307 22.6033 57.6595 22.8701 58.4201C22.9901 58.7909 23.1879 59.1318 23.4501 59.4201C23.715 59.6951 24.0308 59.9159 24.3801 60.0701C24.7655 60.2344 25.1811 60.3162 25.6001 60.3101C25.9882 60.3149 26.3708 60.2184 26.7101 60.0301C27.0477 59.8456 27.3438 59.5937 27.5801 59.2901L28.3101 59.7601Z" fill="white"/>
<path d="M33.43 54.3201H31.32V59.1401C31.3083 59.2802 31.3264 59.4212 31.3729 59.5539C31.4194 59.6865 31.4934 59.8079 31.59 59.9101C31.6898 60.0041 31.8079 60.0766 31.9369 60.123C32.066 60.1695 32.2032 60.1889 32.34 60.1801C32.5256 60.1808 32.7105 60.1573 32.89 60.1101C33.0754 60.0634 33.2562 59.9998 33.43 59.9201L33.51 60.7901C33.3035 60.8589 33.0931 60.9157 32.88 60.9601C32.6776 61.0131 32.4692 61.04 32.26 61.0401C31.9597 61.0478 31.6608 60.9968 31.38 60.8901C31.1534 60.8025 30.9511 60.6619 30.79 60.4801C30.638 60.3062 30.5254 60.1015 30.46 59.8801C30.3898 59.6398 30.3561 59.3904 30.36 59.1401V54.3201H28.75V53.4601H30.36V51.3301H31.36V53.4601H33.47L33.43 54.3201Z" fill="white"/>
<path d="M35.0801 50.53C35.0769 50.4359 35.0929 50.342 35.1273 50.2543C35.1617 50.1666 35.2137 50.0869 35.2801 50.02C35.4166 49.8949 35.595 49.8256 35.7801 49.8256C35.9652 49.8256 36.1436 49.8949 36.2801 50.02C36.3465 50.0869 36.3985 50.1666 36.4329 50.2543C36.4673 50.342 36.4833 50.4359 36.4801 50.53C36.4846 50.6243 36.4691 50.7185 36.4346 50.8064C36.4001 50.8943 36.3475 50.9739 36.2801 51.04C36.1436 51.1651 35.9652 51.2345 35.7801 51.2345C35.595 51.2345 35.4166 51.1651 35.2801 51.04C35.2127 50.9739 35.1601 50.8943 35.1256 50.8064C35.0911 50.7185 35.0756 50.6243 35.0801 50.53V50.53ZM35.3201 53.46H36.3201V60.85H35.3201V53.46Z" fill="white"/>
<path d="M38 53.4601H39L41.47 59.8101L43.87 53.4601H44.87L42 60.8501H41L38 53.4601Z" fill="white"/>
<path d="M52.9302 59.46C52.5992 59.9928 52.1195 60.4169 51.5502 60.68C50.975 60.9248 50.3552 61.0474 49.7302 61.04C49.2066 61.0493 48.6865 60.9541 48.2002 60.76C47.7447 60.5863 47.3311 60.3184 46.9865 59.9737C46.6418 59.6291 46.3739 59.2155 46.2002 58.76C46.0389 58.2359 45.9712 57.6876 46.0002 57.14C45.9953 56.6145 46.0868 56.0925 46.2702 55.6C46.4317 55.1497 46.6796 54.7352 47.0002 54.38C47.3313 54.0311 47.7292 53.7522 48.1702 53.56C48.6385 53.3633 49.1422 53.2646 49.6502 53.27C50.165 53.2607 50.676 53.3595 51.1502 53.56C51.5631 53.7471 51.9338 54.0158 52.2402 54.35C52.5318 54.6725 52.7561 55.0498 52.9002 55.46C53.0489 55.8636 53.1267 56.2899 53.1302 56.72V57.4H47.0002C47.0089 57.6606 47.0492 57.9191 47.1202 58.17C47.2044 58.5028 47.354 58.8155 47.5602 59.09C47.7865 59.4034 48.076 59.6657 48.4102 59.86C48.8368 60.0884 49.3166 60.1989 49.8002 60.18C50.2945 60.1767 50.781 60.0568 51.2202 59.83C51.6594 59.6014 52.0264 59.2552 52.2802 58.83L52.9302 59.46ZM52.2002 56.53C52.2005 56.2093 52.1324 55.8922 52.0002 55.6C51.7846 55.1559 51.4475 54.7821 51.028 54.5219C50.6085 54.2617 50.1238 54.1258 49.6302 54.13C49.1757 54.1155 48.726 54.2262 48.3302 54.45C48.0107 54.6402 47.732 54.8917 47.5102 55.19C47.3192 55.4319 47.1736 55.7063 47.0802 56C47.0128 56.1699 46.9691 56.3482 46.9502 56.53H52.2002Z" fill="white"/>
<path d="M0.870117 68.76H1.87012V74.76C2.01768 74.5067 2.20701 74.2802 2.43012 74.09C2.6533 73.9068 2.89854 73.7523 3.16012 73.63C3.42218 73.5088 3.69732 73.4182 3.98012 73.36C4.25962 73.301 4.54445 73.2708 4.83012 73.27C5.36427 73.2615 5.8947 73.3601 6.39012 73.56C6.84954 73.7416 7.2678 74.0137 7.62012 74.36C7.97315 74.7127 8.24898 75.135 8.43012 75.6C8.62671 76.0964 8.72519 76.6262 8.72012 77.16C8.72345 77.6937 8.62502 78.2232 8.43012 78.72C8.24938 79.1994 7.97002 79.6354 7.61012 80C7.25575 80.3463 6.83819 80.6212 6.38012 80.81C5.88287 81.0024 5.35326 81.0975 4.82012 81.09C4.54477 81.0826 4.27051 81.0525 4.00012 81C3.7157 80.943 3.44 80.8489 3.18012 80.72C2.91653 80.6015 2.67082 80.4466 2.45012 80.26C2.22954 80.0712 2.0405 79.8484 1.89012 79.6V79.6V80.89H0.890118L0.870117 68.76ZM1.73012 77.16C1.73176 77.5569 1.81216 77.9496 1.96665 78.3152C2.12114 78.6808 2.34665 79.0122 2.63012 79.29C2.92036 79.5667 3.25943 79.7871 3.63012 79.94C4.01632 80.1018 4.43139 80.1835 4.85012 80.18C5.24552 80.1766 5.63635 80.095 6.00012 79.94C6.34777 79.788 6.66089 79.5668 6.92046 79.2901C7.18004 79.0133 7.38065 78.6867 7.51012 78.33C7.77691 77.5694 7.77691 76.7406 7.51012 75.98C7.38065 75.6233 7.18004 75.2967 6.92046 75.0199C6.66089 74.7432 6.34777 74.5221 6.00012 74.37C5.61467 74.2057 5.19908 74.1239 4.78012 74.13C4.36139 74.1265 3.94632 74.2082 3.56012 74.37C3.18943 74.5229 2.85036 74.7433 2.56012 75.02C2.27546 75.299 2.04925 75.632 1.89472 75.9994C1.7402 76.3669 1.66044 76.7614 1.66012 77.16H1.73012Z" fill="white"/>
<path d="M17.1102 78.77C17.1102 78.91 17.1102 79.08 17.1102 79.28C17.1102 79.48 17.1102 79.67 17.1102 79.88C17.1102 80.09 17.1102 80.27 17.1102 80.44C17.1102 80.61 17.1102 80.76 17.1102 80.85H16.1102V80.05C16.134 79.8876 16.134 79.7225 16.1102 79.56V79.56C15.8717 79.9763 15.5265 80.3214 15.1102 80.56C14.6434 80.862 14.096 81.0154 13.5402 81C13.0526 81.0181 12.5672 80.9258 12.1202 80.73C11.7785 80.5693 11.4828 80.3251 11.2602 80.02C11.0479 79.7208 10.9014 79.38 10.8302 79.02C10.7575 78.6309 10.7207 78.2359 10.7202 77.84V73.44H11.7202V77.79C11.7211 78.0818 11.7479 78.373 11.8002 78.66C11.8507 78.9271 11.9454 79.184 12.0802 79.42C12.2142 79.6477 12.4078 79.8344 12.6402 79.96C12.9326 80.1021 13.2553 80.1707 13.5802 80.16C13.9217 80.1613 14.2606 80.1003 14.5802 79.98C14.8879 79.8549 15.1644 79.6637 15.3902 79.42C15.6396 79.1275 15.8267 78.7872 15.9402 78.42C16.0798 77.9908 16.1474 77.5413 16.1402 77.09V73.39H17.1402L17.1102 78.77Z" fill="white"/>
<path d="M23.3702 74.3201H21.2502V79.1401C21.2413 79.2737 21.2611 79.4076 21.3083 79.533C21.3554 79.6583 21.4287 79.7721 21.5234 79.8668C21.6181 79.9615 21.7319 80.0348 21.8573 80.082C21.9826 80.1291 22.1165 80.1489 22.2502 80.1401C22.4358 80.1408 22.6207 80.1173 22.8002 80.0701C22.9851 80.0218 23.1657 79.9582 23.3402 79.8801L23.4102 80.7501C23.2071 80.8191 23 80.8758 22.7902 80.9201C22.5878 80.9731 22.3794 81 22.1702 81.0001C21.8699 81.0078 21.5709 80.9568 21.2902 80.8501C21.0607 80.7625 20.8551 80.6221 20.6902 80.4401C20.5448 80.2632 20.4361 80.0593 20.3702 79.8401C20.2966 79.6003 20.2595 79.3509 20.2602 79.1001V74.3201H18.6602V73.4601H20.2602V71.3301H21.2602V73.4601H23.3802L23.3702 74.3201Z" fill="white"/>
<path d="M28.71 74.3201H26.6V79.1401C26.5883 79.2802 26.6064 79.4212 26.6529 79.5539C26.6994 79.6865 26.7734 79.8079 26.87 79.9101C26.9698 80.0041 27.0879 80.0766 27.2169 80.123C27.346 80.1695 27.4832 80.1889 27.62 80.1801C27.8056 80.1814 27.9906 80.1578 28.17 80.1101C28.3554 80.0634 28.5362 79.9998 28.71 79.9201L28.79 80.7901C28.5835 80.8589 28.3731 80.9157 28.16 80.9601C27.9576 81.0131 27.7492 81.04 27.54 81.0401C27.2398 81.0468 26.9411 80.9958 26.66 80.8901C26.4404 80.8049 26.2432 80.6704 26.0837 80.497C25.9242 80.3237 25.8067 80.116 25.74 79.8901C25.6698 79.6498 25.6361 79.4004 25.64 79.1501V74.3201H24V73.4601H25.6V71.3301H26.6V73.4601H28.71V74.3201Z" fill="white"/>
<path d="M30.0002 77.16C29.9951 76.6261 30.0936 76.0964 30.2902 75.6C30.4716 75.1375 30.7436 74.7159 31.0902 74.36C31.4408 74.0115 31.8595 73.7391 32.3202 73.56C32.8192 73.3604 33.3528 73.2618 33.8902 73.27C34.4245 73.2599 34.9553 73.3585 35.4502 73.56C35.9022 73.7395 36.3128 74.0096 36.6567 74.3535C37.0006 74.6974 37.2707 75.108 37.4502 75.56C37.6468 76.0564 37.7453 76.5861 37.7402 77.12C37.7435 77.6537 37.6451 78.1831 37.4502 78.68C37.2893 79.1693 37.0269 79.6191 36.6802 80C36.3276 80.3484 35.9096 80.6237 35.4502 80.81C34.9532 81.0032 34.4234 81.0982 33.8902 81.09C33.3539 81.0966 32.8212 81.0016 32.3202 80.81C31.8691 80.6289 31.4593 80.3584 31.1156 80.0146C30.7718 79.6709 30.5013 79.2611 30.3202 78.81C30.1035 78.2872 29.9946 77.7259 30.0002 77.16ZM31.0002 77.16C30.9984 77.5595 31.0695 77.956 31.2102 78.33C31.326 78.7026 31.5243 79.0444 31.7902 79.33C32.0513 79.6094 32.3681 79.8309 32.7202 79.98C33.102 80.1447 33.5144 80.2265 33.9302 80.22C34.3492 80.2261 34.7648 80.1443 35.1502 79.98C35.4995 79.8258 35.8154 79.605 36.0802 79.33C36.3425 79.0417 36.5402 78.7008 36.6602 78.33C36.927 77.5694 36.927 76.7406 36.6602 75.98C36.5141 75.6092 36.2889 75.2748 36.0002 75C35.7354 74.725 35.4195 74.5042 35.0702 74.35C34.6848 74.1857 34.2692 74.1039 33.8502 74.11C33.4344 74.1035 33.022 74.1853 32.6402 74.35C32.2881 74.4991 31.9713 74.7206 31.7102 75C31.4443 75.2856 31.246 75.6274 31.1302 76C31.0181 76.3758 30.9741 76.7687 31.0002 77.16V77.16Z" fill="white"/>
<path d="M39.9202 75.5401C39.9202 75.4001 39.9202 75.2301 39.9202 75.0401V74.4401C39.9202 74.2301 39.9202 74.0401 39.9202 73.8701C39.9202 73.7001 39.9202 73.5601 39.9202 73.4601H40.9202C40.9202 73.7401 40.9202 74.0001 40.9202 74.2601C40.9018 74.4263 40.9018 74.5939 40.9202 74.7601H40.9702C41.1934 74.3197 41.5412 73.9546 41.9702 73.7101C42.4354 73.4128 42.9782 73.2598 43.5302 73.2701C44.0147 73.2507 44.4971 73.3431 44.9402 73.5401C45.2801 73.7037 45.5752 73.9473 45.8002 74.2501C46.0106 74.5504 46.157 74.8908 46.2302 75.2501C46.3107 75.6383 46.3509 76.0337 46.3502 76.4301V80.8301H45.3502V76.5001C45.3492 76.2083 45.3225 75.9172 45.2702 75.6301C45.2225 75.3622 45.1277 75.1049 44.9902 74.8701C44.8558 74.6428 44.6622 74.4561 44.4302 74.3301C44.1377 74.188 43.8151 74.1194 43.4902 74.1301C43.1476 74.1275 42.8079 74.192 42.4902 74.3201C42.1805 74.4416 41.9032 74.6333 41.6802 74.8801C41.4367 75.1541 41.2497 75.4736 41.1302 75.8201C40.9898 76.2526 40.9222 76.7055 40.9302 77.1601V80.8501H39.9302L39.9202 75.5401Z" fill="white"/>
<path d="M161.82 57.7501C161.82 58.1101 161.82 58.4401 161.82 58.7501C161.82 59.0601 161.82 59.3101 161.82 59.5501C161.82 59.7901 161.82 60.0301 161.82 60.2401C161.82 60.4501 161.82 60.6701 161.89 60.8801H161C160.929 60.4842 160.895 60.0824 160.9 59.6801V59.6801C160.667 60.1164 160.322 60.4824 159.9 60.7401C159.415 60.9767 158.879 61.0901 158.34 61.0701C158.019 61.0702 157.7 61.0299 157.39 60.9501C157.092 60.8772 156.81 60.7483 156.56 60.5701C156.315 60.3876 156.111 60.156 155.96 59.8901C155.801 59.5811 155.722 59.2374 155.73 58.8901C155.706 58.4061 155.859 57.9299 156.16 57.5501C156.451 57.2172 156.818 56.9598 157.23 56.8001C157.661 56.6362 158.111 56.5287 158.57 56.4801C159.04 56.4801 159.46 56.4101 159.83 56.4101H161V55.9601C161.024 55.6997 160.981 55.4375 160.876 55.1979C160.771 54.9584 160.607 54.7493 160.4 54.5901C159.963 54.2974 159.445 54.1504 158.92 54.1701C158.09 54.1609 157.286 54.4562 156.66 55.0001L156.1 54.3501C156.474 53.9967 156.921 53.7304 157.41 53.5701C157.896 53.4046 158.406 53.3169 158.92 53.3101C159.684 53.2703 160.439 53.4925 161.06 53.9401C161.337 54.1905 161.553 54.5008 161.692 54.8475C161.83 55.1941 161.888 55.5678 161.86 55.9401L161.82 57.7501ZM159.9 57.1401C159.505 57.1409 159.111 57.1676 158.72 57.2201C158.376 57.2642 158.039 57.355 157.72 57.4901C157.445 57.6044 157.199 57.7786 157 58.0001C156.817 58.2257 156.721 58.5097 156.73 58.8001C156.725 59.01 156.777 59.2174 156.88 59.4001C156.977 59.5731 157.11 59.7232 157.27 59.8401C157.436 59.9511 157.618 60.0355 157.81 60.0901C158.004 60.1493 158.207 60.1796 158.41 60.1801C158.841 60.1963 159.27 60.1214 159.67 59.9601C159.978 59.8261 160.251 59.6245 160.47 59.3701C160.662 59.1332 160.798 58.8565 160.87 58.5601C160.949 58.2598 160.989 57.9506 160.99 57.6401V57.1401H159.9Z" fill="white"/>
<path d="M170.57 59.7601C170.244 60.1851 169.823 60.5277 169.34 60.7601C168.872 60.9699 168.363 61.0757 167.85 61.0701C167.314 61.0766 166.781 60.9816 166.28 60.7901C165.829 60.609 165.419 60.3385 165.075 59.9947C164.732 59.651 164.461 59.2412 164.28 58.7901C164.085 58.2932 163.987 57.7638 163.99 57.2301C163.985 56.6962 164.083 56.1664 164.28 55.6701C164.461 55.2076 164.733 54.786 165.08 54.4301C165.43 54.0816 165.849 53.8092 166.31 53.6301C166.809 53.4304 167.343 53.3319 167.88 53.3401C168.402 53.3341 168.918 53.447 169.39 53.6701C169.867 53.915 170.289 54.2554 170.63 54.6701L169.87 55.2401C169.609 54.9465 169.298 54.7025 168.95 54.5201C168.622 54.3398 168.254 54.2468 167.88 54.2501C167.464 54.2436 167.052 54.3254 166.67 54.4901C166.318 54.6392 166.001 54.8607 165.74 55.1401C165.475 55.428 165.274 55.7688 165.15 56.1401C164.883 56.9007 164.883 57.7295 165.15 58.4901C165.274 58.8613 165.475 59.2022 165.74 59.4901C166.001 59.7695 166.318 59.9909 166.67 60.1401C167.052 60.3047 167.464 60.3865 167.88 60.3801C168.291 60.3298 168.68 60.1633 169 59.9001C169.338 59.7125 169.637 59.4612 169.88 59.1601L170.57 59.7601Z" fill="white"/>
<path d="M175.69 54.3201H173.58V59.1401C173.568 59.2802 173.586 59.4212 173.633 59.5539C173.679 59.6865 173.753 59.8079 173.85 59.9101C173.95 60.0041 174.068 60.0766 174.197 60.123C174.326 60.1695 174.463 60.1889 174.6 60.1801C174.789 60.1809 174.977 60.1574 175.16 60.1101C175.342 60.0617 175.519 59.9982 175.69 59.9201L175.77 60.7901C175.567 60.8578 175.36 60.9145 175.15 60.9601C174.944 61.0126 174.732 61.0395 174.52 61.0401C174.22 61.0468 173.921 60.9958 173.64 60.8901C173.42 60.8049 173.223 60.6704 173.064 60.497C172.904 60.3237 172.787 60.116 172.72 59.8901C172.65 59.6498 172.616 59.4004 172.62 59.1501V54.3201H171V53.4601H172.6V51.3301H173.6V53.4601H175.71L175.69 54.3201Z" fill="white"/>
<path d="M177.34 50.5301C177.34 50.3391 177.416 50.156 177.551 50.0209C177.686 49.8859 177.869 49.8101 178.06 49.8101C178.251 49.8101 178.434 49.8859 178.569 50.0209C178.704 50.156 178.78 50.3391 178.78 50.5301C178.782 50.625 178.765 50.7195 178.729 50.8073C178.693 50.8951 178.639 50.9744 178.57 51.0401C178.436 51.1696 178.256 51.242 178.07 51.242C177.883 51.242 177.704 51.1696 177.57 51.0401C177.498 50.9762 177.44 50.8977 177.4 50.8098C177.36 50.7219 177.34 50.6265 177.34 50.5301ZM177.58 53.4601H178.58V60.8501H177.58V53.4601Z" fill="white"/>
<path d="M180.22 53.4601H181.31L183.77 59.8101L186.17 53.4601H187.17L184.25 60.8501H183.25L180.22 53.4601Z" fill="white"/>
<path d="M195.19 59.4601C194.859 59.9928 194.379 60.417 193.81 60.6801C193.235 60.911 192.619 61.02 192 61.0001C191.473 61.0091 190.95 60.9139 190.46 60.7201C190.015 60.5284 189.611 60.2534 189.27 59.9101C188.938 59.5542 188.68 59.1362 188.51 58.6801C188.333 58.1723 188.245 57.6378 188.25 57.1001C188.245 56.5746 188.337 56.0526 188.52 55.5601C188.693 55.1065 188.955 54.6918 189.29 54.3401C189.621 53.9911 190.019 53.7123 190.46 53.5201C190.932 53.3234 191.439 53.2247 191.95 53.2301C192.461 53.2219 192.969 53.3206 193.44 53.5201C193.856 53.7021 194.228 53.9715 194.53 54.3101C194.822 54.6325 195.046 55.0099 195.19 55.4201C195.339 55.8237 195.417 56.25 195.42 56.6801V57.3601H189.21C189.219 57.6207 189.259 57.8792 189.33 58.1301C189.418 58.4613 189.568 58.7733 189.77 59.0501C190.016 59.4113 190.35 59.7044 190.74 59.902C191.13 60.0995 191.563 60.1952 192 60.1801C192.494 60.1783 192.981 60.0583 193.42 59.8301C193.861 59.6042 194.229 59.2573 194.48 58.8301L195.19 59.4601ZM194.46 56.5301C194.46 56.2094 194.392 55.8923 194.26 55.6001C194.122 55.3169 193.936 55.0598 193.71 54.8401C193.474 54.6193 193.199 54.4431 192.9 54.3201C192.581 54.1966 192.242 54.1322 191.9 54.1301C191.442 54.1158 190.989 54.2264 190.59 54.4501C190.273 54.6439 189.995 54.8948 189.77 55.1901C189.583 55.4344 189.437 55.7081 189.34 56.0001C189.273 56.17 189.229 56.3483 189.21 56.5301H194.46Z" fill="white"/>
<path d="M155.87 68.76H156.87V74.76C157.017 74.5067 157.207 74.2802 157.43 74.09C157.653 73.9068 157.898 73.7523 158.16 73.63C158.422 73.5088 158.697 73.4182 158.98 73.36C159.259 73.301 159.544 73.2708 159.83 73.27C160.364 73.2615 160.894 73.3601 161.39 73.56C161.849 73.7416 162.268 74.0137 162.62 74.36C162.973 74.7127 163.249 75.135 163.43 75.6C163.626 76.0964 163.725 76.6262 163.72 77.16C163.723 77.6937 163.625 78.2232 163.43 78.72C163.246 79.1807 162.97 79.5991 162.62 79.95C162.266 80.2962 161.848 80.5712 161.39 80.76C160.893 80.9525 160.363 81.0475 159.83 81.04C159.553 81.0497 159.275 81.0363 159 81C158.715 80.943 158.44 80.8489 158.18 80.72C157.916 80.6015 157.671 80.4466 157.45 80.26C157.229 80.0712 157.04 79.8484 156.89 79.6V79.6V80.89H155.89L155.87 68.76ZM156.73 77.16C156.732 77.5569 156.812 77.9496 156.966 78.3152C157.121 78.6808 157.346 79.0122 157.63 79.29C157.92 79.5667 158.259 79.7871 158.63 79.94C159.016 80.1018 159.431 80.1835 159.85 80.18C160.269 80.1861 160.684 80.1043 161.07 79.94C161.418 79.788 161.731 79.5668 161.99 79.2901C162.25 79.0133 162.45 78.6867 162.58 78.33C162.847 77.5694 162.847 76.7406 162.58 75.98C162.443 75.6168 162.231 75.286 161.959 75.0089C161.687 74.7317 161.36 74.5141 161 74.37C160.614 74.2057 160.199 74.1239 159.78 74.13C159.361 74.1265 158.946 74.2082 158.56 74.37C158.189 74.5229 157.85 74.7433 157.56 75.02C157.275 75.299 157.049 75.632 156.894 75.9994C156.74 76.3669 156.66 76.7614 156.66 77.16H156.73Z" fill="white"/>
<path d="M172.11 78.77C172.11 78.91 172.11 79.08 172.11 79.28V79.88C172.11 80.08 172.11 80.27 172.11 80.44C172.11 80.61 172.11 80.76 172.11 80.85H171.11V80.05C171.134 79.8876 171.134 79.7225 171.11 79.56C170.871 79.9763 170.526 80.3214 170.11 80.56C169.643 80.862 169.096 81.0154 168.54 81C168.052 81.0181 167.567 80.9258 167.12 80.73C166.778 80.5693 166.483 80.3251 166.26 80.02C166.048 79.7208 165.901 79.38 165.83 79.02C165.757 78.6309 165.72 78.2359 165.72 77.84V73.44H166.72V77.79C166.721 78.0818 166.748 78.373 166.8 78.66C166.85 78.9271 166.945 79.184 167.08 79.42C167.214 79.6477 167.408 79.8344 167.64 79.96C167.932 80.1021 168.255 80.1707 168.58 80.16C168.921 80.1613 169.26 80.1003 169.58 79.98C169.888 79.8549 170.164 79.6637 170.39 79.42C170.639 79.1275 170.826 78.7872 170.94 78.42C171.08 77.9908 171.147 77.5413 171.14 77.09V73.39H172.14L172.11 78.77Z" fill="white"/>
<path d="M178.37 74.3201H176.25V79.1401C176.241 79.2737 176.261 79.4076 176.308 79.533C176.355 79.6583 176.428 79.7721 176.523 79.8668C176.618 79.9615 176.732 80.0348 176.857 80.082C176.982 80.1291 177.116 80.1489 177.25 80.1401C177.436 80.1408 177.62 80.1173 177.8 80.0701C177.985 80.0218 178.165 79.9582 178.34 79.8801L178.41 80.7501C178.207 80.8191 178 80.8758 177.79 80.9201C177.587 80.9731 177.379 81 177.17 81.0001C176.87 81.0078 176.571 80.9568 176.29 80.8501C176.06 80.7625 175.855 80.6221 175.69 80.4401C175.545 80.2632 175.436 80.0593 175.37 79.8401C175.296 79.6003 175.259 79.3509 175.26 79.1001V74.3201H173.66V73.4601H175.26V71.3301H176.26V73.4601H178.38L178.37 74.3201Z" fill="white"/>
<path d="M183.71 74.3201H181.6V79.1401C181.588 79.2802 181.606 79.4212 181.653 79.5539C181.699 79.6865 181.773 79.8079 181.87 79.9101C181.97 80.0041 182.088 80.0766 182.217 80.123C182.346 80.1695 182.483 80.1889 182.62 80.1801C182.806 80.1814 182.991 80.1578 183.17 80.1101C183.355 80.0634 183.536 79.9998 183.71 79.9201L183.79 80.7901C183.583 80.8589 183.373 80.9157 183.16 80.9601C182.958 81.0131 182.749 81.04 182.54 81.0401C182.24 81.0468 181.941 80.9958 181.66 80.8901C181.44 80.8049 181.243 80.6704 181.084 80.497C180.924 80.3237 180.807 80.116 180.74 79.8901C180.67 79.6498 180.636 79.4004 180.64 79.1501V74.3201H179V73.4601H180.6V71.3301H181.6V73.4601H183.71V74.3201Z" fill="white"/>
<path d="M185 77.16C184.995 76.6261 185.093 76.0964 185.29 75.6C185.471 75.1375 185.743 74.7159 186.09 74.36C186.44 74.0115 186.859 73.7391 187.32 73.56C187.819 73.3604 188.352 73.2618 188.89 73.27C189.424 73.2599 189.955 73.3585 190.45 73.56C190.902 73.7395 191.312 74.0096 191.656 74.3535C192 74.6974 192.27 75.108 192.45 75.56C192.646 76.0564 192.745 76.5861 192.74 77.12C192.743 77.6537 192.645 78.1831 192.45 78.68C192.266 79.1406 191.99 79.5591 191.64 79.91C191.287 80.2584 190.869 80.5337 190.41 80.72C189.913 80.9132 189.383 81.0083 188.85 81C188.314 81.0066 187.781 80.9116 187.28 80.72C186.829 80.5389 186.419 80.2684 186.075 79.9246C185.731 79.5809 185.461 79.1711 185.28 78.72C185.088 78.2225 184.993 77.6931 185 77.16V77.16ZM186 77.16C185.998 77.5595 186.069 77.956 186.21 78.33C186.326 78.7026 186.524 79.0444 186.79 79.33C187.051 79.6094 187.368 79.8309 187.72 79.98C188.102 80.1447 188.514 80.2265 188.93 80.22C189.349 80.2261 189.764 80.1443 190.15 79.98C190.499 79.8258 190.815 79.605 191.08 79.33C191.342 79.0417 191.54 78.7008 191.66 78.33C191.927 77.5694 191.927 76.7406 191.66 75.98C191.54 75.6092 191.342 75.2683 191.08 74.98C190.815 74.705 190.499 74.4842 190.15 74.33C189.764 74.1657 189.349 74.0839 188.93 74.09C188.514 74.0835 188.102 74.1653 187.72 74.33C187.368 74.4791 187.051 74.7006 186.79 74.98C186.524 75.2656 186.326 75.6074 186.21 75.98C186.068 76.3572 185.997 76.7571 186 77.16V77.16Z" fill="white"/>
<path d="M194.92 75.5401C194.92 75.4001 194.92 75.2301 194.92 75.0401V74.4401C194.92 74.2301 194.92 74.0401 194.92 73.8701C194.92 73.7001 194.92 73.5601 194.92 73.4601H195.92C195.92 73.7401 195.92 74.0001 195.92 74.2601C195.902 74.4263 195.902 74.5939 195.92 74.7601V74.7601C196.143 74.3197 196.491 73.9546 196.92 73.7101C197.385 73.4128 197.928 73.2598 198.48 73.2701C198.964 73.2507 199.447 73.3431 199.89 73.5401C200.23 73.7037 200.525 73.9473 200.75 74.2501C200.96 74.5504 201.107 74.8908 201.18 75.2501C201.26 75.6383 201.301 76.0337 201.3 76.4301V80.8301H200.3V76.5001C200.299 76.2083 200.272 75.9172 200.22 75.6301C200.172 75.3622 200.077 75.1049 199.94 74.8701C199.805 74.6428 199.612 74.4561 199.38 74.3301C199.087 74.188 198.765 74.1194 198.44 74.1301C198.097 74.1275 197.758 74.192 197.44 74.3201C197.13 74.4416 196.853 74.6333 196.63 74.8801C196.386 75.1541 196.199 75.4736 196.08 75.8201C195.94 76.2526 195.872 76.7055 195.88 77.1601V80.8501H194.88L194.92 75.5401Z" fill="white"/>
<path d="M349.31 53.46H350.31V54.76C350.454 54.5045 350.644 54.2774 350.87 54.09C351.093 53.9068 351.338 53.7523 351.6 53.63C351.862 53.5089 352.137 53.4183 352.42 53.36C352.7 53.301 352.984 53.2708 353.27 53.27C353.804 53.2616 354.335 53.3602 354.83 53.56C355.288 53.744 355.706 54.0158 356.06 54.36C356.413 54.7128 356.689 55.135 356.87 55.6C357.067 56.0964 357.165 56.6262 357.16 57.16C357.163 57.6937 357.065 58.2232 356.87 58.72C356.686 59.1807 356.411 59.5992 356.06 59.95C355.704 60.2938 355.287 60.5685 354.83 60.76C354.333 60.9515 353.803 61.0466 353.27 61.04C352.985 61.0377 352.701 61.0109 352.42 60.96C352.136 60.903 351.86 60.8089 351.6 60.68C351.336 60.5615 351.091 60.4067 350.87 60.22C350.647 60.034 350.457 59.8107 350.31 59.56V59.56V64.5H349.31V53.46ZM350.17 57.16C350.172 57.557 350.252 57.9496 350.407 58.3152C350.561 58.6809 350.787 59.0122 351.07 59.29C351.358 59.5762 351.7 59.8023 352.076 59.9551C352.452 60.1079 352.854 60.1843 353.26 60.18C353.676 60.1865 354.088 60.1047 354.47 59.94C354.822 59.7909 355.139 59.5694 355.4 59.29C355.665 59.0021 355.866 58.6613 355.99 58.29C356.246 57.5488 356.25 56.7435 356 56C355.876 55.6288 355.675 55.2879 355.41 55C355.149 54.7206 354.832 54.4992 354.48 54.35C354.098 54.1854 353.686 54.1036 353.27 54.11C352.864 54.1057 352.462 54.1822 352.086 54.335C351.71 54.4878 351.368 54.7139 351.08 55C350.795 55.2791 350.569 55.612 350.415 55.9795C350.26 56.3469 350.18 56.7414 350.18 57.14L350.17 57.16Z" fill="white"/>
<path d="M359.45 48.76H360.45V60.85H359.45V48.76Z" fill="white"/>
<path d="M368.87 57.75C368.87 58.11 368.87 58.44 368.87 58.75C368.87 59.06 368.87 59.31 368.87 59.55C368.87 59.79 368.87 60.03 368.87 60.24C368.87 60.45 368.87 60.67 368.94 60.88H368.04C367.977 60.4831 367.947 60.0818 367.95 59.68V59.68C367.72 60.1183 367.374 60.485 366.95 60.74C366.465 60.9766 365.929 61.09 365.39 61.07C365.073 61.0701 364.757 61.0298 364.45 60.95C364.151 60.879 363.869 60.7499 363.62 60.57C363.178 60.219 362.889 59.7102 362.815 59.1507C362.74 58.5912 362.885 58.0245 363.22 57.57C363.507 57.2375 363.871 56.98 364.28 56.82C364.711 56.6561 365.161 56.5486 365.62 56.5C366.1 56.5 366.52 56.43 366.88 56.43H368V55.98C368.023 55.7206 367.981 55.4596 367.878 55.2204C367.775 54.9813 367.614 54.7715 367.41 54.61C366.97 54.3171 366.448 54.1702 365.92 54.19C365.091 54.1827 364.287 54.4777 363.66 55.02L363.1 54.37C363.478 54.0164 363.928 53.7501 364.42 53.59C364.903 53.4246 365.409 53.3368 365.92 53.33C366.684 53.2885 367.44 53.5109 368.06 53.96C368.339 54.2089 368.556 54.5191 368.695 54.8661C368.834 55.213 368.89 55.5875 368.86 55.96L368.87 57.75ZM367 57.14C366.609 57.1412 366.218 57.1679 365.83 57.22C365.486 57.2663 365.15 57.357 364.83 57.49C364.515 57.589 364.23 57.7642 364 58C363.81 58.2223 363.71 58.5077 363.72 58.8C363.713 59.0113 363.769 59.22 363.88 59.4C363.977 59.573 364.11 59.723 364.27 59.84C364.433 59.9489 364.612 60.0331 364.8 60.09C364.994 60.1491 365.197 60.1795 365.4 60.18C365.841 60.2141 366.285 60.1527 366.7 60C367.005 59.8659 367.275 59.6641 367.49 59.41C367.685 59.1736 367.825 58.897 367.9 58.6C367.971 58.2984 368.008 57.9898 368.01 57.68V57.18L367 57.14Z" fill="white"/>
<path d="M373.51 63.14C373.359 63.5766 373.101 63.9685 372.76 64.28C372.396 64.5656 371.942 64.7111 371.48 64.69C371.321 64.7049 371.16 64.7049 371 64.69C370.845 64.6673 370.691 64.6339 370.54 64.59L370.63 63.69L371.06 63.81C371.203 63.8502 371.351 63.8704 371.5 63.87C371.657 63.8715 371.812 63.8336 371.95 63.76C372.084 63.6859 372.203 63.5876 372.3 63.47C372.395 63.3496 372.475 63.2188 372.54 63.08C372.612 62.9371 372.675 62.7902 372.73 62.64L373.4 60.92L370.4 53.5H371.47L373.92 59.72L376.31 53.5H377.31L373.51 63.14Z" fill="white"/>
<path d="M407.63 53.46H408.63V54.76C408.774 54.5045 408.964 54.2774 409.19 54.09C409.411 53.9046 409.657 53.7499 409.92 53.63C410.182 53.5089 410.457 53.4183 410.74 53.36C411.019 53.301 411.304 53.2708 411.59 53.27C412.124 53.2616 412.654 53.3602 413.15 53.56C413.608 53.744 414.026 54.0158 414.38 54.36C414.733 54.7128 415.009 55.135 415.19 55.6C415.386 56.0964 415.485 56.6262 415.48 57.16C415.483 57.6937 415.385 58.2232 415.19 58.72C415.006 59.1807 414.73 59.5992 414.38 59.95C414.024 60.2938 413.606 60.5685 413.15 60.76C412.652 60.9515 412.123 61.0466 411.59 61.04C411.305 61.0377 411.02 61.0109 410.74 60.96C410.455 60.903 410.18 60.8089 409.92 60.68C409.655 60.5638 409.409 60.4088 409.19 60.22C408.967 60.034 408.777 59.8107 408.63 59.56V59.56V64.5H407.63V53.46ZM408.49 57.16C408.492 57.557 408.572 57.9496 408.726 58.3152C408.881 58.6809 409.106 59.0122 409.39 59.29C409.678 59.5762 410.019 59.8023 410.395 59.9551C410.771 60.1079 411.174 60.1843 411.58 60.18C411.996 60.1865 412.408 60.1047 412.79 59.94C413.142 59.7909 413.459 59.5694 413.72 59.29C413.985 59.0021 414.186 58.6613 414.31 58.29C414.577 57.5294 414.577 56.7007 414.31 55.94C414.186 55.5688 413.985 55.228 413.72 54.94C413.459 54.6606 413.142 54.4392 412.79 54.29C412.408 54.1254 411.996 54.0436 411.58 54.05C411.174 54.0458 410.771 54.1222 410.395 54.275C410.019 54.4278 409.678 54.6539 409.39 54.94C409.105 55.2191 408.879 55.552 408.724 55.9194C408.57 56.2869 408.49 56.6814 408.49 57.08V57.16Z" fill="white"/>
<path d="M423.35 57.7501C423.35 58.1101 423.35 58.4401 423.35 58.7501C423.35 59.0601 423.35 59.3101 423.35 59.5501C423.35 59.7901 423.35 60.0301 423.35 60.2401C423.35 60.4501 423.35 60.6701 423.42 60.8801H422.52C422.457 60.4832 422.427 60.0819 422.43 59.6801V59.6801C422.2 60.1184 421.854 60.4851 421.43 60.7401C420.945 60.9767 420.409 61.0901 419.87 61.0701C419.553 61.0702 419.237 61.0299 418.93 60.9501C418.631 60.8791 418.349 60.75 418.1 60.5701C417.658 60.2191 417.369 59.7104 417.295 59.1508C417.22 58.5913 417.365 58.0246 417.7 57.5701C417.987 57.2376 418.351 56.9801 418.76 56.8201C419.191 56.6562 419.641 56.5487 420.1 56.5001C420.58 56.5001 421 56.4301 421.36 56.4301H422.48V55.9801C422.503 55.7207 422.461 55.4597 422.358 55.2206C422.255 54.9814 422.094 54.7716 421.89 54.6101C421.45 54.3172 420.928 54.1703 420.4 54.1901C419.571 54.1828 418.767 54.4778 418.14 55.0201L417.58 54.3701C417.957 54.0165 418.408 53.7502 418.9 53.5901C419.383 53.4247 419.889 53.3369 420.4 53.3301C421.164 53.2886 421.92 53.511 422.54 53.9601C422.819 54.2091 423.036 54.5192 423.175 54.8662C423.314 55.2132 423.37 55.5876 423.34 55.9601L423.35 57.7501ZM421.43 57.1401C421.039 57.1413 420.648 57.168 420.26 57.2201C419.916 57.2664 419.58 57.3571 419.26 57.4901C418.985 57.6044 418.739 57.7786 418.54 58.0001C418.35 58.2224 418.25 58.5078 418.26 58.8001C418.253 59.0115 418.309 59.2201 418.42 59.4001C418.517 59.5731 418.65 59.7231 418.81 59.8401C418.973 59.949 419.152 60.0332 419.34 60.0901C419.534 60.1493 419.737 60.1796 419.94 60.1801C420.374 60.1972 420.807 60.1222 421.21 59.9601C421.515 59.826 421.785 59.6243 422 59.3701C422.195 59.1338 422.335 58.8571 422.41 58.5601C422.481 58.2585 422.518 57.9499 422.52 57.6401V57.1401H421.43Z" fill="white"/>
<path d="M432.17 58.77C432.161 58.9399 432.161 59.1101 432.17 59.28C432.17 59.47 432.17 59.67 432.17 59.88C432.17 60.09 432.17 60.27 432.17 60.44C432.17 60.61 432.17 60.76 432.17 60.85H431.17C431.17 60.58 431.17 60.31 431.17 60.05C431.183 59.887 431.183 59.7231 431.17 59.56H431.12C430.887 59.9806 430.541 60.3272 430.12 60.56C429.653 60.862 429.106 61.0154 428.55 61C428.062 61.0181 427.577 60.9258 427.13 60.73C426.79 60.5665 426.495 60.3228 426.27 60.02C426.057 59.7222 425.914 59.3805 425.85 59.02C425.769 58.6319 425.729 58.2365 425.73 57.84V53.44H426.73V57.79C426.731 58.0818 426.758 58.373 426.81 58.66C426.861 58.9271 426.955 59.184 427.09 59.42C427.224 59.6477 427.418 59.8344 427.65 59.96C427.942 60.1021 428.265 60.1707 428.59 60.16C428.931 60.1613 429.27 60.1003 429.59 59.98C429.901 59.855 430.18 59.6639 430.41 59.42C430.66 59.1295 430.844 58.7884 430.95 58.42C431.09 57.9908 431.157 57.5413 431.15 57.09V53.39H432.15L432.17 58.77Z" fill="white"/>
<path d="M434.83 59.0001C435.023 59.3897 435.335 59.7083 435.72 59.9101C436.105 60.1154 436.534 60.2219 436.97 60.2201C437.177 60.221 437.384 60.1872 437.58 60.1201C437.775 60.0628 437.957 59.9714 438.12 59.8501C438.275 59.7355 438.407 59.5931 438.51 59.4301C438.614 59.258 438.669 59.061 438.67 58.8601C438.68 58.7148 438.655 58.5692 438.598 58.4353C438.54 58.3015 438.452 58.1831 438.34 58.0901C438.096 57.9098 437.822 57.7743 437.53 57.6901C437.21 57.6001 436.86 57.5101 436.47 57.4401C436.108 57.3788 435.755 57.2713 435.42 57.1201C435.107 56.9854 434.83 56.78 434.61 56.5201C434.372 56.2126 434.254 55.8283 434.28 55.4401C434.265 55.0933 434.341 54.7487 434.5 54.4401C434.647 54.1803 434.848 53.9552 435.09 53.7801C435.332 53.5989 435.607 53.4665 435.9 53.3901C436.195 53.3022 436.502 53.2584 436.81 53.2601C437.355 53.2469 437.896 53.3599 438.39 53.5901C438.825 53.8312 439.175 54.2016 439.39 54.6501L438.52 55.1601C438.368 54.8461 438.133 54.5798 437.84 54.3901C437.521 54.1964 437.152 54.1024 436.78 54.1201C436.597 54.1236 436.416 54.1504 436.24 54.2001C436.064 54.2541 435.896 54.3315 435.74 54.4301C435.588 54.5204 435.458 54.6433 435.36 54.7901C435.258 54.9442 435.206 55.1255 435.21 55.3101C435.2 55.4496 435.225 55.5895 435.282 55.7169C435.34 55.8444 435.429 55.9555 435.54 56.0401C435.785 56.2138 436.06 56.3425 436.35 56.4201C436.695 56.5173 437.046 56.5941 437.4 56.6501C437.765 56.7066 438.122 56.8108 438.46 56.9601C438.776 57.1023 439.054 57.3183 439.27 57.5901C439.508 57.9278 439.621 58.338 439.59 58.7501C439.597 59.0951 439.525 59.4371 439.38 59.7501C439.241 60.0295 439.039 60.2726 438.79 60.4601C438.53 60.6523 438.239 60.7978 437.93 60.8901C437.606 60.9873 437.269 61.0345 436.93 61.0301C436.328 61.0376 435.731 60.9148 435.18 60.6701C434.679 60.4248 434.267 60.03 434 59.5401L434.83 59.0001Z" fill="white"/>
<path d="M448.15 59.46C447.819 59.9928 447.339 60.4169 446.77 60.68C446.208 60.9052 445.606 61.0141 445 61C444.477 61.0077 443.957 60.9126 443.47 60.72C443.024 60.5405 442.62 60.2699 442.284 59.9255C441.948 59.5812 441.688 59.1706 441.52 58.72C441.343 58.2122 441.255 57.6777 441.26 57.14C441.255 56.6145 441.347 56.0925 441.53 55.6C441.703 55.1464 441.965 54.7317 442.3 54.38C442.631 54.031 443.029 53.7522 443.47 53.56C443.942 53.3633 444.449 53.2646 444.96 53.27C445.471 53.2618 445.979 53.3606 446.45 53.56C446.856 53.7408 447.22 54.0026 447.521 54.3293C447.822 54.656 448.053 55.0408 448.2 55.46C448.349 55.8636 448.427 56.2899 448.43 56.72V57.4H442.22C442.229 57.6606 442.269 57.9191 442.34 58.17C442.428 58.5013 442.578 58.8132 442.78 59.09C443.008 59.4059 443.301 59.6686 443.64 59.86C444.063 60.0895 444.539 60.2 445.02 60.18C445.514 60.1767 446.001 60.0568 446.44 59.83C446.879 59.6014 447.246 59.2552 447.5 58.83L448.15 59.46ZM447.42 56.53C447.42 56.2093 447.352 55.8922 447.22 55.6C447.082 55.3168 446.896 55.0597 446.67 54.84C446.181 54.3782 445.532 54.1237 444.86 54.13C444.402 54.1141 443.949 54.2249 443.55 54.45C443.233 54.6438 442.955 54.8947 442.73 55.19C442.543 55.4343 442.397 55.7081 442.3 56C442.233 56.1699 442.189 56.3482 442.17 56.53H447.42Z" fill="white"/>
<rect x="0.5" y="0.5" width="128" height="37" rx="2.5" stroke="#EB0029"/>
<path d="M21.8732 14.908C21.5372 14.5533 21.1359 14.2733 20.6692 14.068C20.2026 13.8627 19.6612 13.76 19.0452 13.76C18.4106 13.76 17.8412 13.8767 17.3372 14.11C16.8332 14.3433 16.4039 14.656 16.0492 15.048C15.7039 15.44 15.4379 15.8973 15.2512 16.42C15.0646 16.9333 14.9712 17.4747 14.9712 18.044C14.9712 18.6133 15.0646 19.1593 15.2512 19.682C15.4379 20.1953 15.7039 20.648 16.0492 21.04C16.4039 21.432 16.8332 21.7447 17.3372 21.978C17.8412 22.2113 18.4106 22.328 19.0452 22.328C19.5586 22.328 20.0486 22.2673 20.5152 22.146C20.9912 22.0153 21.4159 21.8427 21.7892 21.628V18.31H19.4232V17.386H22.7972V22.244C22.2372 22.5707 21.6212 22.8227 20.9492 23C20.2866 23.168 19.6519 23.252 19.0452 23.252C18.3079 23.252 17.6219 23.1213 16.9872 22.86C16.3619 22.5987 15.8159 22.2393 15.3492 21.782C14.8919 21.3153 14.5326 20.7647 14.2712 20.13C14.0099 19.4953 13.8792 18.8 13.8792 18.044C13.8792 17.288 14.0099 16.5927 14.2712 15.958C14.5326 15.3233 14.8919 14.7773 15.3492 14.32C15.8159 13.8533 16.3619 13.4893 16.9872 13.228C17.6219 12.9667 18.3079 12.836 19.0452 12.836C19.8386 12.836 20.5199 12.948 21.0892 13.172C21.6679 13.3867 22.1812 13.718 22.6292 14.166L21.8732 14.908ZM27.6457 22.076H32.9517V23H26.6377V13.088H32.7837V14.012H27.6457V17.386H32.4477V18.31H27.6457V22.076ZM39.3045 23H38.2965V14.012H34.9785V13.088H42.6225V14.012H39.3045V23ZM55.1321 14.726C54.6934 14.082 54.0541 13.76 53.2141 13.76C52.9528 13.76 52.6961 13.7973 52.4441 13.872C52.1921 13.9373 51.9634 14.0447 51.7581 14.194C51.5621 14.334 51.4034 14.5207 51.2821 14.754C51.1608 14.978 51.1001 15.244 51.1001 15.552C51.1001 16 51.2261 16.35 51.4781 16.602C51.7301 16.8447 52.0428 17.0453 52.4161 17.204C52.7894 17.3627 53.1954 17.5073 53.6341 17.638C54.0821 17.7593 54.4928 17.9273 54.8661 18.142C55.2394 18.3473 55.5521 18.6227 55.8041 18.968C56.0561 19.3133 56.1821 19.7847 56.1821 20.382C56.1821 20.83 56.0841 21.236 55.8881 21.6C55.7014 21.9547 55.4494 22.2533 55.1321 22.496C54.8241 22.7387 54.4741 22.9253 54.0821 23.056C53.6994 23.1867 53.3121 23.252 52.9201 23.252C52.3134 23.252 51.7348 23.14 51.1841 22.916C50.6428 22.6827 50.1808 22.3047 49.7981 21.782L50.7081 21.124C50.9228 21.488 51.2214 21.782 51.6041 22.006C51.9868 22.2207 52.4394 22.328 52.9621 22.328C53.2141 22.328 53.4661 22.2907 53.7181 22.216C53.9701 22.132 54.1941 22.0153 54.3901 21.866C54.5954 21.7073 54.7634 21.516 54.8941 21.292C55.0248 21.068 55.0901 20.8113 55.0901 20.522C55.0901 20.1767 55.0154 19.892 54.8661 19.668C54.7261 19.4347 54.5348 19.2433 54.2921 19.094C54.0588 18.9353 53.7881 18.8047 53.4801 18.702C53.1814 18.5993 52.8688 18.4967 52.5421 18.394C52.2248 18.2913 51.9121 18.1747 51.6041 18.044C51.3054 17.9133 51.0348 17.75 50.7921 17.554C50.5588 17.3487 50.3674 17.0967 50.2181 16.798C50.0781 16.49 50.0081 16.1073 50.0081 15.65C50.0081 15.174 50.0968 14.7587 50.2741 14.404C50.4608 14.0493 50.7034 13.7553 51.0021 13.522C51.3101 13.2887 51.6554 13.116 52.0381 13.004C52.4208 12.892 52.8128 12.836 53.2141 12.836C53.7741 12.836 54.2828 12.9247 54.7401 13.102C55.1974 13.2793 55.6221 13.592 56.0141 14.04L55.1321 14.726ZM62.5894 23H61.5814V14.012H58.2634V13.088H65.9074V14.012H62.5894V23ZM68.9854 19.472H73.2834L71.1414 14.264L68.9854 19.472ZM67.5154 23H66.3394L70.6514 13.088H71.6314L75.9434 23H74.7674L73.6754 20.396H68.6074L67.5154 23ZM79.4791 17.47H81.2711C81.7191 17.47 82.0971 17.4233 82.4051 17.33C82.7224 17.2367 82.9744 17.1153 83.1611 16.966C83.3477 16.8073 83.4831 16.6253 83.5671 16.42C83.6511 16.2053 83.6931 15.9767 83.6931 15.734C83.6931 15.5007 83.6511 15.2813 83.5671 15.076C83.4831 14.8613 83.3477 14.6747 83.1611 14.516C82.9744 14.3573 82.7224 14.236 82.4051 14.152C82.0971 14.0587 81.7191 14.012 81.2711 14.012H79.4791V17.47ZM79.4791 23H78.4711V13.088H81.5231C82.5311 13.088 83.3244 13.3073 83.9031 13.746C84.4911 14.1847 84.7851 14.8473 84.7851 15.734C84.7851 16.4247 84.5657 17.008 84.1271 17.484C83.6977 17.9507 83.0724 18.2213 82.2511 18.296L85.1071 23H83.8751L81.1591 18.394H79.4791V23ZM91.2199 23H90.2119V14.012H86.8939V13.088H94.5379V14.012H91.2199V23ZM98.279 22.076H103.585V23H97.271V13.088H103.417V14.012H98.279V17.386H103.081V18.31H98.279V22.076ZM107.628 22.076H109.588C110.344 22.076 110.997 21.964 111.548 21.74C112.108 21.5067 112.57 21.2033 112.934 20.83C113.307 20.4473 113.582 20.018 113.76 19.542C113.937 19.0567 114.026 18.5573 114.026 18.044C114.026 17.5307 113.937 17.036 113.76 16.56C113.582 16.0747 113.307 15.6453 112.934 15.272C112.57 14.8893 112.108 14.586 111.548 14.362C110.997 14.1287 110.344 14.012 109.588 14.012H107.628V22.076ZM106.62 13.088H109.91C110.526 13.088 111.142 13.1907 111.758 13.396C112.383 13.6013 112.943 13.914 113.438 14.334C113.942 14.7447 114.348 15.2627 114.656 15.888C114.964 16.504 115.118 17.2227 115.118 18.044C115.118 18.8747 114.964 19.598 114.656 20.214C114.348 20.83 113.942 21.348 113.438 21.768C112.943 22.1787 112.383 22.4867 111.758 22.692C111.142 22.8973 110.526 23 109.91 23H106.62V13.088Z" fill="white"/>
<rect x="154.5" y="0.5" width="128" height="37" rx="2.5" fill="#EB0029" stroke="#EB0029"/>
<path d="M175.873 14.908C175.537 14.5533 175.136 14.2733 174.669 14.068C174.203 13.8627 173.661 13.76 173.045 13.76C172.411 13.76 171.841 13.8767 171.337 14.11C170.833 14.3433 170.404 14.656 170.049 15.048C169.704 15.44 169.438 15.8973 169.251 16.42C169.065 16.9333 168.971 17.4747 168.971 18.044C168.971 18.6133 169.065 19.1593 169.251 19.682C169.438 20.1953 169.704 20.648 170.049 21.04C170.404 21.432 170.833 21.7447 171.337 21.978C171.841 22.2113 172.411 22.328 173.045 22.328C173.559 22.328 174.049 22.2673 174.515 22.146C174.991 22.0153 175.416 21.8427 175.789 21.628V18.31H173.423V17.386H176.797V22.244C176.237 22.5707 175.621 22.8227 174.949 23C174.287 23.168 173.652 23.252 173.045 23.252C172.308 23.252 171.622 23.1213 170.987 22.86C170.362 22.5987 169.816 22.2393 169.349 21.782C168.892 21.3153 168.533 20.7647 168.271 20.13C168.01 19.4953 167.879 18.8 167.879 18.044C167.879 17.288 168.01 16.5927 168.271 15.958C168.533 15.3233 168.892 14.7773 169.349 14.32C169.816 13.8533 170.362 13.4893 170.987 13.228C171.622 12.9667 172.308 12.836 173.045 12.836C173.839 12.836 174.52 12.948 175.089 13.172C175.668 13.3867 176.181 13.718 176.629 14.166L175.873 14.908ZM181.646 22.076H186.952V23H180.638V13.088H186.784V14.012H181.646V17.386H186.448V18.31H181.646V22.076ZM193.305 23H192.297V14.012H188.979V13.088H196.623V14.012H193.305V23ZM209.132 14.726C208.693 14.082 208.054 13.76 207.214 13.76C206.953 13.76 206.696 13.7973 206.444 13.872C206.192 13.9373 205.963 14.0447 205.758 14.194C205.562 14.334 205.403 14.5207 205.282 14.754C205.161 14.978 205.1 15.244 205.1 15.552C205.1 16 205.226 16.35 205.478 16.602C205.73 16.8447 206.043 17.0453 206.416 17.204C206.789 17.3627 207.195 17.5073 207.634 17.638C208.082 17.7593 208.493 17.9273 208.866 18.142C209.239 18.3473 209.552 18.6227 209.804 18.968C210.056 19.3133 210.182 19.7847 210.182 20.382C210.182 20.83 210.084 21.236 209.888 21.6C209.701 21.9547 209.449 22.2533 209.132 22.496C208.824 22.7387 208.474 22.9253 208.082 23.056C207.699 23.1867 207.312 23.252 206.92 23.252C206.313 23.252 205.735 23.14 205.184 22.916C204.643 22.6827 204.181 22.3047 203.798 21.782L204.708 21.124C204.923 21.488 205.221 21.782 205.604 22.006C205.987 22.2207 206.439 22.328 206.962 22.328C207.214 22.328 207.466 22.2907 207.718 22.216C207.97 22.132 208.194 22.0153 208.39 21.866C208.595 21.7073 208.763 21.516 208.894 21.292C209.025 21.068 209.09 20.8113 209.09 20.522C209.09 20.1767 209.015 19.892 208.866 19.668C208.726 19.4347 208.535 19.2433 208.292 19.094C208.059 18.9353 207.788 18.8047 207.48 18.702C207.181 18.5993 206.869 18.4967 206.542 18.394C206.225 18.2913 205.912 18.1747 205.604 18.044C205.305 17.9133 205.035 17.75 204.792 17.554C204.559 17.3487 204.367 17.0967 204.218 16.798C204.078 16.49 204.008 16.1073 204.008 15.65C204.008 15.174 204.097 14.7587 204.274 14.404C204.461 14.0493 204.703 13.7553 205.002 13.522C205.31 13.2887 205.655 13.116 206.038 13.004C206.421 12.892 206.813 12.836 207.214 12.836C207.774 12.836 208.283 12.9247 208.74 13.102C209.197 13.2793 209.622 13.592 210.014 14.04L209.132 14.726ZM216.589 23H215.581V14.012H212.263V13.088H219.907V14.012H216.589V23ZM222.985 19.472H227.283L225.141 14.264L222.985 19.472ZM221.515 23H220.339L224.651 13.088H225.631L229.943 23H228.767L227.675 20.396H222.607L221.515 23ZM233.479 17.47H235.271C235.719 17.47 236.097 17.4233 236.405 17.33C236.722 17.2367 236.974 17.1153 237.161 16.966C237.348 16.8073 237.483 16.6253 237.567 16.42C237.651 16.2053 237.693 15.9767 237.693 15.734C237.693 15.5007 237.651 15.2813 237.567 15.076C237.483 14.8613 237.348 14.6747 237.161 14.516C236.974 14.3573 236.722 14.236 236.405 14.152C236.097 14.0587 235.719 14.012 235.271 14.012H233.479V17.47ZM233.479 23H232.471V13.088H235.523C236.531 13.088 237.324 13.3073 237.903 13.746C238.491 14.1847 238.785 14.8473 238.785 15.734C238.785 16.4247 238.566 17.008 238.127 17.484C237.698 17.9507 237.072 18.2213 236.251 18.296L239.107 23H237.875L235.159 18.394H233.479V23ZM245.22 23H244.212V14.012H240.894V13.088H248.538V14.012H245.22V23ZM252.279 22.076H257.585V23H251.271V13.088H257.417V14.012H252.279V17.386H257.081V18.31H252.279V22.076ZM261.628 22.076H263.588C264.344 22.076 264.997 21.964 265.548 21.74C266.108 21.5067 266.57 21.2033 266.934 20.83C267.307 20.4473 267.582 20.018 267.76 19.542C267.937 19.0567 268.026 18.5573 268.026 18.044C268.026 17.5307 267.937 17.036 267.76 16.56C267.582 16.0747 267.307 15.6453 266.934 15.272C266.57 14.8893 266.108 14.586 265.548 14.362C264.997 14.1287 264.344 14.012 263.588 14.012H261.628V22.076ZM260.62 13.088H263.91C264.526 13.088 265.142 13.1907 265.758 13.396C266.383 13.6013 266.943 13.914 267.438 14.334C267.942 14.7447 268.348 15.2627 268.656 15.888C268.964 16.504 269.118 17.2227 269.118 18.044C269.118 18.8747 268.964 19.598 268.656 20.214C268.348 20.83 267.942 21.348 267.438 21.768C266.943 22.1787 266.383 22.4867 265.758 22.692C265.142 22.8973 264.526 23 263.91 23H260.62V13.088Z" fill="#1C1C1C"/>
<rect x="350" y="8" width="26" height="26" rx="2" stroke="#EB0029" stroke-width="2"/>
<path d="M358.5 14L368 20.7778L358.5 28" stroke="#EB0029" stroke-width="2" stroke-linecap="round" stroke-linejoin="round"/>
<rect x="416" y="8" width="26" height="26" rx="2" stroke="#EB0029" stroke-width="2"/>
<path d="M425 14V28M433 14V28" stroke="#EB0029" stroke-width="2" stroke-linecap="round" stroke-linejoin="round"/>
</svg>
