<svg fill="none" height="82" viewBox="0 0 449 82" width="449" xmlns="http://www.w3.org/2000/svg"><g fill="#fff"><path d="m1.00004 50.5301c-.002063-.1896.06966-.3725.2-.51.10202-.0997.23099-.1673.37099-.1945.14-.0271.2849-.0127.41679.0415.13189.0543.24501.146.32537.2638.08037.1178.12447.2566.12685.3992.00256.0949-.0148.1894-.05097.2772s-.09034.1671-.15903.2328c-.13647.125-.31487.1944-.5.1944-.18512 0-.36352-.0694-.5-.1944-.07088-.065-.12781-.1438-.16735-.2314-.03953-.0877-.06085-.1825-.06265-.2786zm.24 2.93h1v7.39h-1z"/><path d="m4.92017 55.5401c0-.14 0-.31 0-.5s0-.4 0-.6 0-.4 0-.57 0-.31 0-.41h1v.8c-.013.1664-.013.3336 0 .5h.05c.22326-.4404.57099-.8056 1-1.05.46883-.2975 1.01483-.4506 1.57-.44.48117-.0182.9601.0742 1.4.27.34173.1607.63743.4049.86003.71.2104.3002.3568.6406.43 1 .0805.3881.1207.7836.12 1.18v4.4h-1v-4.33c-.001-.2918-.0277-.583-.08-.87-.0432-.2691-.1383-.5273-.28003-.76-.1344-.2274-.32793-.414-.56-.54-.2886-.1428-.60821-.2116-.93-.2-.34274-.0048-.68291.0598-1 .19-.31399.1187-.59511.3107-.82.56-.24381.2721-.42778.5923-.54.94-.14515.4314-.21286.885-.2 1.34v3.69h-1z"/><path d="m19.5601 57.75v1 .8.69c0 .21 0 .43.07.64h-.9c-.0629-.3968-.093-.7982-.09-1.2-.2299.4384-.5759.805-1 1.06-.485.2367-1.0208.35-1.56.33-.3172.0002-.6331-.0402-.94-.12-.299-.0709-.581-.2-.83-.38-.4379-.3539-.7235-.8622-.7979-1.4202-.0744-.5581.068-1.1235.3979-1.5798.2905-.3562.665-.6346 1.09-.81.4341-.165.8879-.2726 1.35-.32.47 0 .89-.07 1.25-.07h1.12v-.45c.0229-.2593-.019-.5203-.1219-.7595-.103-.2392-.2639-.4489-.4681-.6105-.4403-.2928-.9616-.4398-1.49-.42-.8261-.0067-1.6262.2885-2.25.83l-.57-.65c.3775-.3535.8281-.6198 1.32-.78.4831-.1654.9894-.2531 1.5-.26.7644-.0414 1.5199.181 2.14.63.2799.2485.4986.5583.6391.9052s.199.7216.1709 1.0948zm-1.93-.61c-.3914.0012-.7822.028-1.17.08-.3441.0441-.6806.1349-1 .27-.2802.1102-.5303.2849-.73.51-.1832.2256-.279.5096-.27.8-.0053.2099.0466.4173.15.6.0968.173.2299.3231.39.44.1658.1111.348.1954.54.25.1942.0604.3965.0907.6.09.4213.0262.8435-.0351 1.24-.18.3047-.134.5749-.3358.79-.59.1949-.2363.3349-.5129.41-.81.071-.3015.1079-.6101.11-.92v-.5z"/><path d="m28.3101 59.7601c-.3304.4208-.7506.7625-1.23 1-.4684.2098-.9768.3156-1.49.31-.5451.0005-1.0851-.1047-1.59-.31-.4511-.1811-.8609-.4516-1.2046-.7954-.3438-.3437-.6143-.7535-.7954-1.2046-.1999-.4954-.2985-1.0259-.29-1.56-.0156-.5477.0831-1.0927.29-1.6.1814-.4625.4534-.8841.8-1.24.3506-.3485.7693-.6209 1.23-.8.4985-.2012 1.0325-.2998 1.57-.29.5216-.0036 1.0374.1091 1.51.33.4762.2468.8979.5869 1.24 1l-.77.57c-.2571-.2933-.5654-.5373-.91-.72-.3281-.1791-.6962-.2719-1.07-.27-.419-.0061-.8346.0757-1.22.24-.3493.1542-.6651.375-.93.65-.2622.2883-.46.6292-.58 1-.2668.7606-.2668 1.5894 0 2.35.12.3708.3178.7117.58 1 .2649.275.5807.4958.93.65.3854.1643.801.2461 1.22.24.3881.0048.7707-.0917 1.11-.28.3376-.1845.6337-.4364.87-.74z"/><path d="m33.43 54.3201h-2.11v4.82c-.0117.1401.0064.2811.0529.4138.0465.1326.1205.254.2171.3562.0998.094.2179.1665.3469.2129.1291.0465.2663.0659.4031.0571.1856.0007.3705-.0228.55-.07.1854-.0467.3662-.1103.54-.19l.08.87c-.2065.0688-.4169.1256-.63.17-.2024.053-.4108.0799-.62.08-.3003.0077-.5992-.0433-.88-.15-.2266-.0876-.4289-.2282-.59-.41-.152-.1739-.2646-.3786-.33-.6-.0702-.2403-.1039-.4897-.1-.74v-4.82h-1.61v-.86h1.61v-2.13h1v2.13h2.11z"/><path d="m35.0801 50.53c-.0032-.0941.0128-.188.0472-.2757s.0864-.1674.1528-.2343c.1365-.1251.3149-.1944.5-.1944s.3635.0693.5.1944c.0664.0669.1184.1466.1528.2343s.0504.1816.0472.2757c.0045.0943-.011.1885-.0455.2764s-.0871.1675-.1545.2336c-.1365.1251-.3149.1945-.5.1945s-.3635-.0694-.5-.1945c-.0674-.0661-.12-.1457-.1545-.2336s-.05-.1821-.0455-.2764zm.24 2.93h1v7.39h-1z"/><path d="m38 53.4601h1l2.47 6.35 2.4-6.35h1l-2.87 7.39h-1z"/><path d="m52.9302 59.46c-.331.5328-.8107.9569-1.38 1.22-.5752.2448-1.195.3674-1.82.36-.5236.0093-1.0437-.0859-1.53-.28-.4555-.1737-.8691-.4416-1.2137-.7863-.3447-.3446-.6126-.7582-.7863-1.2137-.1613-.5241-.229-1.0724-.2-1.62-.0049-.5255.0866-1.0475.27-1.54.1615-.4503.4094-.8648.73-1.22.3311-.3489.729-.6278 1.17-.82.4683-.1967.972-.2954 1.48-.29.5148-.0093 1.0258.0895 1.5.29.4129.1871.7836.4558 1.09.79.2916.3225.5159.6998.66 1.11.1487.4036.2265.8299.23 1.26v.68h-6.13c.0087.2606.049.5191.12.77.0842.3328.2338.6455.44.92.2263.3134.5158.5757.85.77.4266.2284.9064.3389 1.39.32.4943-.0033.9808-.1232 1.42-.35.4392-.2286.8062-.5748 1.06-1zm-.73-2.93c.0003-.3207-.0678-.6378-.2-.93-.2156-.4441-.5527-.8179-.9722-1.0781s-.9042-.3961-1.3978-.3919c-.4545-.0145-.9042.0962-1.3.32-.3195.1902-.5982.4417-.82.74-.191.2419-.3366.5163-.43.81-.0674.1699-.1111.3482-.13.53z"/><path d="m.870117 68.76h1.000003v6c.14756-.2533.33689-.4798.56-.67.22318-.1832.46842-.3377.73-.46.26206-.1212.5372-.2118.82-.27.2795-.059.56433-.0892.85-.09.53415-.0085 1.06458.0901 1.56.29.45942.1816.87768.4537 1.23.8.35303.3527.62886.775.81 1.24.19659.4964.29507 1.0262.29 1.56.00333.5337-.0951 1.0632-.29 1.56-.18074.4794-.4601.9154-.82 1.28-.35437.3463-.77193.6212-1.23.81-.49725.1924-1.02686.2875-1.56.28-.27535-.0074-.54961-.0375-.82-.09-.28442-.057-.56012-.1511-.82-.28-.26359-.1185-.5093-.2734-.73-.46-.22058-.1888-.40962-.4116-.56-.66v1.29h-1.000002zm.860003 8.4c.00164.3969.08204.7896.23653 1.1552s.38.697.66347.9748c.29024.2767.62931.4971 1 .65.3862.1618.80127.2435 1.22.24.3954-.0034.78623-.085 1.15-.24.34765-.152.66077-.3732.92034-.6499.25958-.2768.46019-.6034.58966-.9601.26679-.7606.26679-1.5894 0-2.35-.12947-.3567-.33008-.6833-.58966-.9601-.25957-.2767-.57269-.4978-.92034-.6499-.38545-.1643-.80104-.2461-1.22-.24-.41873-.0035-.8338.0782-1.22.24-.37069.1529-.70976.3733-1 .65-.28466.279-.51087.612-.6654.9794-.15452.3675-.23428.762-.2346 1.1606z"/><path d="m17.1102 78.77v.51.6.56.41h-1v-.8c.0238-.1624.0238-.3275 0-.49-.2385.4163-.5837.7614-1 1-.4668.302-1.0142.4554-1.57.44-.4876.0181-.973-.0742-1.42-.27-.3417-.1607-.6374-.4049-.86-.71-.2123-.2992-.3588-.64-.43-1-.0727-.3891-.1095-.7841-.11-1.18v-4.4h1v4.35c.0009.2918.0277.583.08.87.0505.2671.1452.524.28.76.134.2277.3276.4144.56.54.2924.1421.6151.2107.94.2.3415.0013.6804-.0597 1-.18.3077-.1251.5842-.3163.81-.56.2494-.2925.4365-.6328.55-1 .1396-.4292.2072-.8787.2-1.33v-3.7h1z"/><path d="m23.3702 74.3201h-2.12v4.82c-.0089.1336.0109.2675.0581.3929.0471.1253.1204.2391.2151.3338s.2085.168.3339.2152c.1253.0471.2592.0669.3929.0581.1856.0007.3705-.0228.55-.07.1849-.0483.3655-.1119.54-.19l.07.87c-.2031.069-.4102.1257-.62.17-.2024.053-.4108.0799-.62.08-.3003.0077-.5993-.0433-.88-.15-.2295-.0876-.4351-.228-.6-.41-.1454-.1769-.2541-.3808-.32-.6-.0736-.2398-.1107-.4892-.11-.74v-4.78h-1.6v-.86h1.6v-2.13h1v2.13h2.12z"/><path d="m28.71 74.3201h-2.11v4.82c-.0117.1401.0064.2811.0529.4138.0465.1326.1205.254.2171.3562.0998.094.2179.1665.3469.2129.1291.0465.2663.0659.4031.0571.1856.0013.3706-.0223.55-.07.1854-.0467.3662-.1103.54-.19l.08.87c-.2065.0688-.4169.1256-.63.17-.2024.053-.4108.0799-.62.08-.3002.0067-.5989-.0443-.88-.15-.2196-.0852-.4168-.2197-.5763-.3931-.1595-.1733-.277-.381-.3437-.6069-.0702-.2403-.1039-.4897-.1-.74v-4.83h-1.64v-.86h1.6v-2.13h1v2.13h2.11z"/><path d="m30.0002 77.16c-.0051-.5339.0934-1.0636.29-1.56.1814-.4625.4534-.8841.8-1.24.3506-.3485.7693-.6209 1.23-.8.499-.1996 1.0326-.2982 1.57-.29.5343-.0101 1.0651.0885 1.56.29.452.1795.8626.4496 1.2065.7935s.614.7545.7935 1.2065c.1966.4964.2951 1.0261.29 1.56.0033.5337-.0951 1.0631-.29 1.56-.1609.4893-.4233.9391-.77 1.32-.3526.3484-.7706.6237-1.23.81-.497.1932-1.0268.2882-1.56.28-.5363.0066-1.069-.0884-1.57-.28-.4511-.1811-.8609-.4516-1.2046-.7954-.3438-.3437-.6143-.7535-.7954-1.2046-.2167-.5228-.3256-1.0841-.32-1.65zm1 0c-.0018.3995.0693.796.21 1.17.1158.3726.3141.7144.58 1 .2611.2794.5779.5009.93.65.3818.1647.7942.2465 1.21.24.419.0061.8346-.0757 1.22-.24.3493-.1542.6652-.375.93-.65.2623-.2883.46-.6292.58-1 .2668-.7606.2668-1.5894 0-2.35-.1461-.3708-.3713-.7052-.66-.98-.2648-.275-.5807-.4958-.93-.65-.3854-.1643-.801-.2461-1.22-.24-.4158-.0065-.8282.0753-1.21.24-.3521.1491-.6689.3706-.93.65-.2659.2856-.4642.6274-.58 1-.1121.3758-.1561.7687-.13 1.16z"/><path d="m39.9202 75.5401c0-.14 0-.31 0-.5v-.6c0-.21 0-.4 0-.57s0-.31 0-.41h1v.8c-.0184.1662-.0184.3338 0 .5h.05c.2232-.4404.571-.8055 1-1.05.4652-.2973 1.008-.4503 1.56-.44.4845-.0194.9669.073 1.41.27.3399.1636.635.4072.86.71.2104.3003.3568.6407.43 1 .0805.3882.1207.7836.12 1.18v4.4h-1v-4.33c-.001-.2918-.0277-.5829-.08-.87-.0477-.2679-.1425-.5252-.28-.76-.1344-.2273-.328-.414-.56-.54-.2925-.1421-.6151-.2107-.94-.2-.3426-.0026-.6823.0619-1 .19-.3097.1215-.587.3132-.81.56-.2435.274-.4305.5935-.55.94-.1404.4325-.208.8854-.2 1.34v3.69h-1z"/><path d="m161.82 57.7501v1 .8.69c0 .21 0 .43.07.64h-.89c-.071-.3959-.105-.7977-.1-1.2-.233.4363-.578.8023-1 1.06-.485.2366-1.021.35-1.56.33-.321.0001-.64-.0402-.95-.12-.298-.0729-.58-.2018-.83-.38-.245-.1825-.449-.4141-.6-.68-.159-.309-.238-.6527-.23-1-.024-.484.129-.9602.43-1.34.291-.3329.658-.5903 1.07-.75.431-.1639.881-.2714 1.34-.32.47 0 .89-.07 1.26-.07h1.17v-.45c.024-.2604-.019-.5226-.124-.7622-.105-.2395-.269-.4486-.476-.6078-.437-.2927-.955-.4397-1.48-.42-.83-.0092-1.634.2861-2.26.83l-.56-.65c.374-.3534.821-.6197 1.31-.78.486-.1655.996-.2532 1.51-.26.764-.0398 1.519.1824 2.14.63.277.2504.493.5607.632.9074.138.3466.196.7203.168 1.0926zm-1.92-.61c-.395.0008-.789.0275-1.18.08-.344.0441-.681.1349-1 .27-.275.1143-.521.2885-.72.51-.183.2256-.279.5096-.27.8-.005.2099.047.4173.15.6.097.173.23.3231.39.44.166.111.348.1954.54.25.194.0592.397.0895.6.09.431.0162.86-.0587 1.26-.22.308-.134.581-.3356.8-.59.192-.2369.328-.5136.4-.81.079-.3003.119-.6095.12-.92v-.5z"/><path d="m170.57 59.7601c-.326.425-.747.7676-1.23 1-.468.2098-.977.3156-1.49.31-.536.0065-1.069-.0885-1.57-.28-.451-.1811-.861-.4516-1.205-.7954-.343-.3437-.614-.7535-.795-1.2046-.195-.4969-.293-1.0263-.29-1.56-.005-.5339.093-1.0637.29-1.56.181-.4625.453-.8841.8-1.24.35-.3485.769-.6209 1.23-.8.499-.1997 1.033-.2982 1.57-.29.522-.006 1.038.1069 1.51.33.477.2449.899.5853 1.24 1l-.76.57c-.261-.2936-.572-.5376-.92-.72-.328-.1803-.696-.2733-1.07-.27-.416-.0065-.828.0753-1.21.24-.352.1491-.669.3706-.93.65-.265.2879-.466.6287-.59 1-.267.7606-.267 1.5894 0 2.35.124.3712.325.7121.59 1 .261.2794.578.5008.93.65.382.1646.794.2464 1.21.24.411-.0503.8-.2168 1.12-.48.338-.1876.637-.4389.88-.74z"/><path d="m175.69 54.3201h-2.11v4.82c-.012.1401.006.2811.053.4138.046.1326.12.254.217.3562.1.094.218.1665.347.2129.129.0465.266.0659.403.0571.189.0008.377-.0227.56-.07.182-.0484.359-.1119.53-.19l.08.87c-.203.0677-.41.1244-.62.17-.206.0525-.418.0794-.63.08-.3.0067-.599-.0443-.88-.15-.22-.0852-.417-.2197-.576-.3931-.16-.1733-.277-.381-.344-.6069-.07-.2403-.104-.4897-.1-.74v-4.83h-1.62v-.86h1.6v-2.13h1v2.13h2.11z"/><path d="m177.34 50.5301c0-.191.076-.3741.211-.5092.135-.135.318-.2108.509-.2108s.374.0758.509.2108c.135.1351.211.3182.211.5092.002.0949-.015.1894-.051.2772s-.09.1671-.159.2328c-.134.1295-.314.2019-.5.2019-.187 0-.366-.0724-.5-.2019-.072-.0639-.13-.1424-.17-.2303s-.06-.1833-.06-.2797zm.24 2.93h1v7.39h-1z"/><path d="m180.22 53.4601h1.09l2.46 6.35 2.4-6.35h1l-2.92 7.39h-1z"/><path d="m195.19 59.4601c-.331.5327-.811.9569-1.38 1.22-.575.2309-1.191.3399-1.81.32-.527.009-1.05-.0862-1.54-.28-.445-.1917-.849-.4667-1.19-.81-.332-.3559-.59-.7739-.76-1.23-.177-.5078-.265-1.0423-.26-1.58-.005-.5255.087-1.0475.27-1.54.173-.4536.435-.8683.77-1.22.331-.349.729-.6278 1.17-.82.472-.1967.979-.2954 1.49-.29.511-.0082 1.019.0905 1.49.29.416.182.788.4514 1.09.79.292.3224.516.6998.66 1.11.149.4036.227.8299.23 1.26v.68h-6.21c.009.2606.049.5191.12.77.088.3312.238.6432.44.92.246.3612.58.6543.97.8519.39.1975.823.2932 1.26.2781.494-.0018.981-.1218 1.42-.35.441-.2259.809-.5728 1.06-1zm-.73-2.93c0-.3207-.068-.6378-.2-.93-.138-.2832-.324-.5403-.55-.76-.236-.2208-.511-.397-.81-.52-.319-.1235-.658-.1879-1-.19-.458-.0143-.911.0963-1.31.32-.317.1938-.595.4447-.82.74-.187.2443-.333.518-.43.81-.067.1699-.111.3482-.13.53z"/><path d="m155.87 68.76h1v6c.147-.2533.337-.4798.56-.67.223-.1832.468-.3377.73-.46.262-.1212.537-.2118.82-.27.279-.059.564-.0892.85-.09.534-.0085 1.064.0901 1.56.29.459.1816.878.4537 1.23.8.353.3527.629.775.81 1.24.196.4964.295 1.0262.29 1.56.003.5337-.095 1.0632-.29 1.56-.184.4607-.46.8791-.81 1.23-.354.3462-.772.6212-1.23.81-.497.1925-1.027.2875-1.56.28-.277.0097-.555-.0037-.83-.04-.285-.057-.56-.1511-.82-.28-.264-.1185-.509-.2734-.73-.46-.221-.1888-.41-.4116-.56-.66v1.29h-1zm.86 8.4c.002.3969.082.7896.236 1.1552.155.3656.38.697.664.9748.29.2767.629.4971 1 .65.386.1618.801.2435 1.22.24.419.0061.834-.0757 1.22-.24.348-.152.661-.3732.92-.6499.26-.2768.46-.6034.59-.9601.267-.7606.267-1.5894 0-2.35-.137-.3632-.349-.694-.621-.9711-.272-.2772-.599-.4948-.959-.6389-.386-.1643-.801-.2461-1.22-.24-.419-.0035-.834.0782-1.22.24-.371.1529-.71.3733-1 .65-.285.279-.511.612-.666.9794-.154.3675-.234.762-.234 1.1606z"/><path d="m172.11 78.77v.51.6.56.41h-1v-.8c.024-.1624.024-.3275 0-.49-.239.4163-.584.7614-1 1-.467.302-1.014.4554-1.57.44-.488.0181-.973-.0742-1.42-.27-.342-.1607-.637-.4049-.86-.71-.212-.2992-.359-.64-.43-1-.073-.3891-.11-.7841-.11-1.18v-4.4h1v4.35c.001.2918.028.583.08.87.05.2671.145.524.28.76.134.2277.328.4144.56.54.292.1421.615.2107.94.2.341.0013.68-.0597 1-.18.308-.1251.584-.3163.81-.56.249-.2925.436-.6328.55-1 .14-.4292.207-.8787.2-1.33v-3.7h1z"/><path d="m178.37 74.3201h-2.12v4.82c-.009.1336.011.2675.058.3929.047.1253.12.2391.215.3338s.209.168.334.2152c.125.0471.259.0669.393.0581.186.0007.37-.0228.55-.07.185-.0483.365-.1119.54-.19l.07.87c-.203.069-.41.1257-.62.17-.203.053-.411.0799-.62.08-.3.0077-.599-.0433-.88-.15-.23-.0876-.435-.228-.6-.41-.145-.1769-.254-.3808-.32-.6-.074-.2398-.111-.4892-.11-.74v-4.78h-1.6v-.86h1.6v-2.13h1v2.13h2.12z"/><path d="m183.71 74.3201h-2.11v4.82c-.012.1401.006.2811.053.4138.046.1326.12.254.217.3562.1.094.218.1665.347.2129.129.0465.266.0659.403.0571.186.0013.371-.0223.55-.07.185-.0467.366-.1103.54-.19l.08.87c-.207.0688-.417.1256-.63.17-.202.053-.411.0799-.62.08-.3.0067-.599-.0443-.88-.15-.22-.0852-.417-.2197-.576-.3931-.16-.1733-.277-.381-.344-.6069-.07-.2403-.104-.4897-.1-.74v-4.83h-1.64v-.86h1.6v-2.13h1v2.13h2.11z"/><path d="m185 77.16c-.005-.5339.093-1.0636.29-1.56.181-.4625.453-.8841.8-1.24.35-.3485.769-.6209 1.23-.8.499-.1996 1.032-.2982 1.57-.29.534-.0101 1.065.0885 1.56.29.452.1795.862.4496 1.206.7935s.614.7545.794 1.2065c.196.4964.295 1.0261.29 1.56.003.5337-.095 1.0631-.29 1.56-.184.4606-.46.8791-.81 1.23-.353.3484-.771.6237-1.23.81-.497.1932-1.027.2883-1.56.28-.536.0066-1.069-.0884-1.57-.28-.451-.1811-.861-.4516-1.205-.7954-.344-.3437-.614-.7535-.795-1.2046-.192-.4975-.287-1.0269-.28-1.56zm1 0c-.002.3995.069.796.21 1.17.116.3726.314.7144.58 1 .261.2794.578.5009.93.65.382.1647.794.2465 1.21.24.419.0061.834-.0757 1.22-.24.349-.1542.665-.375.93-.65.262-.2883.46-.6292.58-1 .267-.7606.267-1.5894 0-2.35-.12-.3708-.318-.7117-.58-1-.265-.275-.581-.4958-.93-.65-.386-.1643-.801-.2461-1.22-.24-.416-.0065-.828.0753-1.21.24-.352.1491-.669.3706-.93.65-.266.2856-.464.6274-.58 1-.142.3772-.213.7771-.21 1.18z"/><path d="m194.92 75.5401c0-.14 0-.31 0-.5v-.6c0-.21 0-.4 0-.57s0-.31 0-.41h1v.8c-.018.1662-.018.3338 0 .5.223-.4404.571-.8055 1-1.05.465-.2973 1.008-.4503 1.56-.44.484-.0194.967.073 1.41.27.34.1636.635.4072.86.71.21.3003.357.6407.43 1 .08.3882.121.7836.12 1.18v4.4h-1v-4.33c-.001-.2918-.028-.5829-.08-.87-.048-.2679-.143-.5252-.28-.76-.135-.2273-.328-.414-.56-.54-.293-.1421-.615-.2107-.94-.2-.343-.0026-.682.0619-1 .19-.31.1215-.587.3132-.81.56-.244.274-.431.5935-.55.94-.14.4325-.208.8854-.2 1.34v3.69h-1z"/><path d="m349.31 53.46h1v1.3c.144-.2555.334-.4826.56-.67.223-.1832.468-.3377.73-.46.262-.1211.537-.2117.82-.27.28-.059.564-.0892.85-.09.534-.0084 1.065.0902 1.56.29.458.184.876.4558 1.23.8.353.3528.629.775.81 1.24.197.4964.295 1.0262.29 1.56.003.5337-.095 1.0632-.29 1.56-.184.4607-.459.8792-.81 1.23-.356.3438-.773.6185-1.23.81-.497.1915-1.027.2866-1.56.28-.285-.0023-.569-.0291-.85-.08-.284-.057-.56-.1511-.82-.28-.264-.1185-.509-.2733-.73-.46-.223-.186-.413-.4093-.56-.66v4.94h-1zm.86 3.7c.002.397.082.7896.237 1.1552.154.3657.38.697.663.9748.288.2862.63.5123 1.006.6651s.778.2292 1.184.2249c.416.0065.828-.0753 1.21-.24.352-.1491.669-.3706.93-.65.265-.2879.466-.6287.59-1 .256-.7412.26-1.5465.01-2.29-.124-.3712-.325-.7121-.59-1-.261-.2794-.578-.5008-.93-.65-.382-.1646-.794-.2464-1.21-.24-.406-.0043-.808.0722-1.184.225s-.718.3789-1.006.665c-.285.2791-.511.612-.665.9795-.155.3674-.235.7619-.235 1.1605z"/><path d="m359.45 48.76h1v12.09h-1z"/><path d="m368.87 57.75v1 .8.69c0 .21 0 .43.07.64h-.9c-.063-.3969-.093-.7982-.09-1.2-.23.4383-.576.805-1 1.06-.485.2366-1.021.35-1.56.33-.317.0001-.633-.0402-.94-.12-.299-.071-.581-.2001-.83-.38-.442-.351-.731-.8598-.805-1.4193-.075-.5595.07-1.1262.405-1.5807.287-.3325.651-.59 1.06-.75.431-.1639.881-.2714 1.34-.32.48 0 .9-.07 1.26-.07h1.12v-.45c.023-.2594-.019-.5204-.122-.7596-.103-.2391-.264-.4489-.468-.6104-.44-.2929-.962-.4398-1.49-.42-.829-.0073-1.633.2877-2.26.83l-.56-.65c.378-.3536.828-.6199 1.32-.78.483-.1654.989-.2532 1.5-.26.764-.0415 1.52.1809 2.14.63.279.2489.496.5591.635.9061.139.3469.195.7214.165 1.0939zm-1.87-.61c-.391.0012-.782.0279-1.17.08-.344.0463-.68.137-1 .27-.315.099-.6.2742-.83.51-.19.2223-.29.5077-.28.8-.007.2113.049.42.16.6.097.173.23.323.39.44.163.1089.342.1931.53.25.194.0591.397.0895.6.09.441.0341.885-.0273 1.3-.18.305-.1341.575-.3359.79-.59.195-.2364.335-.513.41-.81.071-.3016.108-.6102.11-.92v-.5z"/><path d="m373.51 63.14c-.151.4366-.409.8285-.75 1.14-.364.2856-.818.4311-1.28.41-.159.0149-.32.0149-.48 0-.155-.0227-.309-.0561-.46-.1l.09-.9.43.12c.143.0402.291.0604.44.06.157.0015.312-.0364.45-.11.134-.0741.253-.1724.35-.29.095-.1204.175-.2512.24-.39.072-.1429.135-.2898.19-.44l.67-1.72-3-7.42h1.07l2.45 6.22 2.39-6.22h1z"/><path d="m407.63 53.46h1v1.3c.144-.2555.334-.4826.56-.67.221-.1854.467-.3401.73-.46.262-.1211.537-.2117.82-.27.279-.059.564-.0892.85-.09.534-.0084 1.064.0902 1.56.29.458.184.876.4558 1.23.8.353.3528.629.775.81 1.24.196.4964.295 1.0262.29 1.56.003.5337-.095 1.0632-.29 1.56-.184.4607-.46.8792-.81 1.23-.356.3438-.774.6185-1.23.81-.498.1915-1.027.2866-1.56.28-.285-.0023-.57-.0291-.85-.08-.285-.057-.56-.1511-.82-.28-.265-.1162-.511-.2712-.73-.46-.223-.186-.413-.4093-.56-.66v4.94h-1zm.86 3.7c.002.397.082.7896.236 1.1552.155.3657.38.697.664.9748.288.2862.629.5123 1.005.6651s.779.2292 1.185.2249c.416.0065.828-.0753 1.21-.24.352-.1491.669-.3706.93-.65.265-.2879.466-.6287.59-1 .267-.7606.267-1.5893 0-2.35-.124-.3712-.325-.712-.59-1-.261-.2794-.578-.5008-.93-.65-.382-.1646-.794-.2464-1.21-.24-.406-.0042-.809.0722-1.185.225s-.717.3789-1.005.665c-.285.2791-.511.612-.666.9794-.154.3675-.234.762-.234 1.1606z"/><path d="m423.35 57.7501v1 .8.69c0 .21 0 .43.07.64h-.9c-.063-.3969-.093-.7982-.09-1.2-.23.4383-.576.805-1 1.06-.485.2366-1.021.35-1.56.33-.317.0001-.633-.0402-.94-.12-.299-.071-.581-.2001-.83-.38-.442-.351-.731-.8597-.805-1.4193-.075-.5595.07-1.1262.405-1.5807.287-.3325.651-.59 1.06-.75.431-.1639.881-.2714 1.34-.32.48 0 .9-.07 1.26-.07h1.12v-.45c.023-.2594-.019-.5204-.122-.7595-.103-.2392-.264-.449-.468-.6105-.44-.2929-.962-.4398-1.49-.42-.829-.0073-1.633.2877-2.26.83l-.56-.65c.377-.3536.828-.6199 1.32-.78.483-.1654.989-.2532 1.5-.26.764-.0415 1.52.1809 2.14.63.279.249.496.5591.635.9061s.195.7214.165 1.0939zm-1.92-.61c-.391.0012-.782.0279-1.17.08-.344.0463-.68.137-1 .27-.275.1143-.521.2885-.72.51-.19.2223-.29.5077-.28.8-.007.2114.049.42.16.6.097.173.23.323.39.44.163.1089.342.1931.53.25.194.0592.397.0895.6.09.434.0171.867-.0579 1.27-.22.305-.1341.575-.3358.79-.59.195-.2363.335-.513.41-.81.071-.3016.108-.6102.11-.92v-.5z"/><path d="m432.17 58.77c-.009.1699-.009.3401 0 .51v.6.56.41h-1c0-.27 0-.54 0-.8.013-.163.013-.3269 0-.49h-.05c-.233.4206-.579.7672-1 1-.467.302-1.014.4554-1.57.44-.488.0181-.973-.0742-1.42-.27-.34-.1635-.635-.4072-.86-.71-.213-.2978-.356-.6395-.42-1-.081-.3881-.121-.7835-.12-1.18v-4.4h1v4.35c.001.2918.028.583.08.87.051.2671.145.524.28.76.134.2277.328.4144.56.54.292.1421.615.2107.94.2.341.0013.68-.0597 1-.18.311-.125.59-.3161.82-.56.25-.2905.434-.6316.54-1 .14-.4292.207-.8787.2-1.33v-3.7h1z"/><path d="m434.83 59.0001c.193.3896.505.7082.89.91.385.2053.814.3118 1.25.31.207.0009.414-.0329.61-.1.195-.0573.377-.1487.54-.27.155-.1146.287-.257.39-.42.104-.1721.159-.3691.16-.57.01-.1453-.015-.2909-.072-.4248-.058-.1338-.146-.2522-.258-.3452-.244-.1803-.518-.3158-.81-.4-.32-.09-.67-.18-1.06-.25-.362-.0613-.715-.1688-1.05-.32-.313-.1347-.59-.3401-.81-.6-.238-.3075-.356-.6918-.33-1.08-.015-.3468.061-.6914.22-1 .147-.2598.348-.4849.59-.66.242-.1812.517-.3136.81-.39.295-.0879.602-.1317.91-.13.545-.0132 1.086.0998 1.58.33.435.2411.785.6115 1 1.06l-.87.51c-.152-.314-.387-.5803-.68-.77-.319-.1937-.688-.2877-1.06-.27-.183.0035-.364.0303-.54.08-.176.054-.344.1314-.5.23-.152.0903-.282.2132-.38.36-.102.1541-.154.3354-.15.52-.01.1395.015.2794.072.4068.058.1275.147.2386.258.3232.245.1737.52.3024.81.38.345.0972.696.174 1.05.23.365.0565.722.1607 1.06.31.316.1422.594.3582.81.63.238.3377.351.7479.32 1.16.007.345-.065.687-.21 1-.139.2794-.341.5225-.59.71-.26.1922-.551.3377-.86.43-.324.0972-.661.1444-1 .14-.602.0075-1.199-.1153-1.75-.36-.501-.2453-.913-.6401-1.18-1.13z"/><path d="m448.15 59.46c-.331.5328-.811.9569-1.38 1.22-.562.2252-1.164.3341-1.77.32-.523.0077-1.043-.0874-1.53-.28-.446-.1795-.85-.4501-1.186-.7945-.336-.3443-.596-.7549-.764-1.2055-.177-.5078-.265-1.0423-.26-1.58-.005-.5255.087-1.0475.27-1.54.173-.4536.435-.8683.77-1.22.331-.349.729-.6278 1.17-.82.472-.1967.979-.2954 1.49-.29.511-.0082 1.019.0906 1.49.29.406.1808.77.4426 1.071.7693s.532.7115.679 1.1307c.149.4036.227.8299.23 1.26v.68h-6.21c.009.2606.049.5191.12.77.088.3313.238.6432.44.92.228.3159.521.5786.86.77.423.2295.899.34 1.38.32.494-.0033.981-.1232 1.42-.35.439-.2286.806-.5748 1.06-1zm-.73-2.93c0-.3207-.068-.6378-.2-.93-.138-.2832-.324-.5403-.55-.76-.489-.4618-1.138-.7163-1.81-.71-.458-.0159-.911.0949-1.31.32-.317.1938-.595.4447-.82.74-.187.2443-.333.5181-.43.81-.067.1699-.111.3482-.13.53z"/></g><rect height="37" rx="2.5" stroke="#eb0029" width="128" x=".5" y=".5"/><path d="m21.8732 14.908c-.336-.3547-.7373-.6347-1.204-.84-.4666-.2053-1.008-.308-1.624-.308-.6346 0-1.204.1167-1.708.35s-.9333.546-1.288.938c-.3453.392-.6113.8493-.798 1.372-.1866.5133-.28 1.0547-.28 1.624s.0934 1.1153.28 1.638c.1867.5133.4527.966.798 1.358.3547.392.784.7047 1.288.938s1.0734.35 1.708.35c.5134 0 1.0034-.0607 1.47-.182.476-.1307.9007-.3033 1.274-.518v-3.318h-2.366v-.924h3.374v4.858c-.56.3267-1.176.5787-1.848.756-.6626.168-1.2973.252-1.904.252-.7373 0-1.4233-.1307-2.058-.392-.6253-.2613-1.1713-.6207-1.638-1.078-.4573-.4667-.8166-1.0173-1.078-1.652-.2613-.6347-.392-1.33-.392-2.086s.1307-1.4513.392-2.086c.2614-.6347.6207-1.1807 1.078-1.638.4667-.4667 1.0127-.8307 1.638-1.092.6347-.2613 1.3207-.392 2.058-.392.7934 0 1.4747.112 2.044.336.5787.2147 1.092.546 1.54.994zm5.7725 7.168h5.306v.924h-6.314v-9.912h6.146v.924h-5.138v3.374h4.802v.924h-4.802zm11.6588.924h-1.008v-8.988h-3.318v-.924h7.644v.924h-3.318zm15.8276-8.274c-.4387-.644-1.078-.966-1.918-.966-.2613 0-.518.0373-.77.112-.252.0653-.4807.1727-.686.322-.196.14-.3547.3267-.476.56-.1213.224-.182.49-.182.798 0 .448.126.798.378 1.05.252.2427.5647.4433.938.602s.7793.3033 1.218.434c.448.1213.8587.2893 1.232.504.3733.2053.686.4807.938.826s.378.8167.378 1.414c0 .448-.098.854-.294 1.218-.1867.3547-.4387.6533-.756.896-.308.2427-.658.4293-1.05.56-.3827.1307-.77.196-1.162.196-.6067 0-1.1853-.112-1.736-.336-.5413-.2333-1.0033-.6113-1.386-1.134l.91-.658c.2147.364.5133.658.896.882.3827.2147.8353.322 1.358.322.252 0 .504-.0373.756-.112.252-.084.476-.2007.672-.35.2053-.1587.3733-.35.504-.574s.196-.4807.196-.77c0-.3453-.0747-.63-.224-.854-.14-.2333-.3313-.4247-.574-.574-.2333-.1587-.504-.2893-.812-.392-.2987-.1027-.6113-.2053-.938-.308-.3173-.1027-.63-.2193-.938-.35-.2987-.1307-.5693-.294-.812-.49-.2333-.2053-.4247-.4573-.574-.756-.14-.308-.21-.6907-.21-1.148 0-.476.0887-.8913.266-1.246.1867-.3547.4293-.6487.728-.882.308-.2333.6533-.406 1.036-.518s.7747-.168 1.176-.168c.56 0 1.0687.0887 1.526.266s.882.49 1.274.938zm7.4573 8.274h-1.008v-8.988h-3.318v-.924h7.644v.924h-3.318zm6.396-3.528h4.298l-2.142-5.208zm-1.47 3.528h-1.176l4.312-9.912h.98l4.312 9.912h-1.176l-1.092-2.604h-5.068zm11.9637-5.53h1.792c.448 0 .826-.0467 1.134-.14.3173-.0933.5693-.2147.756-.364.1866-.1587.322-.3407.406-.546.084-.2147.126-.4433.126-.686 0-.2333-.042-.4527-.126-.658-.084-.2147-.2194-.4013-.406-.56-.1867-.1587-.4387-.28-.756-.364-.308-.0933-.686-.14-1.134-.14h-1.792zm0 5.53h-1.008v-9.912h3.052c1.008 0 1.8013.2193 2.38.658.588.4387.882 1.1013.882 1.988 0 .6907-.2194 1.274-.658 1.75-.4294.4667-1.0547.7373-1.876.812l2.856 4.704h-1.232l-2.716-4.606h-1.68zm11.7408 0h-1.008v-8.988h-3.318v-.924h7.644v.924h-3.318zm7.0591-.924h5.306v.924h-6.314v-9.912h6.146v.924h-5.138v3.374h4.802v.924h-4.802zm9.349 0h1.96c.756 0 1.409-.112 1.96-.336.56-.2333 1.022-.5367 1.386-.91.373-.3827.648-.812.826-1.288.177-.4853.266-.9847.266-1.498s-.089-1.008-.266-1.484c-.178-.4853-.453-.9147-.826-1.288-.364-.3827-.826-.686-1.386-.91-.551-.2333-1.204-.35-1.96-.35h-1.96zm-1.008-8.988h3.29c.616 0 1.232.1027 1.848.308.625.2053 1.185.518 1.68.938.504.4107.91.9287 1.218 1.554.308.616.462 1.3347.462 2.156 0 .8307-.154 1.554-.462 2.17s-.714 1.134-1.218 1.554c-.495.4107-1.055.7187-1.68.924-.616.2053-1.232.308-1.848.308h-3.29z" fill="#fff"/><rect fill="#eb0029" height="37" rx="2.5" stroke="#eb0029" width="128" x="154.5" y=".5"/><path d="m175.873 14.908c-.336-.3547-.737-.6347-1.204-.84-.466-.2053-1.008-.308-1.624-.308-.634 0-1.204.1167-1.708.35s-.933.546-1.288.938c-.345.392-.611.8493-.798 1.372-.186.5133-.28 1.0547-.28 1.624s.094 1.1153.28 1.638c.187.5133.453.966.798 1.358.355.392.784.7047 1.288.938s1.074.35 1.708.35c.514 0 1.004-.0607 1.47-.182.476-.1307.901-.3033 1.274-.518v-3.318h-2.366v-.924h3.374v4.858c-.56.3267-1.176.5787-1.848.756-.662.168-1.297.252-1.904.252-.737 0-1.423-.1307-2.058-.392-.625-.2613-1.171-.6207-1.638-1.078-.457-.4667-.816-1.0173-1.078-1.652-.261-.6347-.392-1.33-.392-2.086s.131-1.4513.392-2.086c.262-.6347.621-1.1807 1.078-1.638.467-.4667 1.013-.8307 1.638-1.092.635-.2613 1.321-.392 2.058-.392.794 0 1.475.112 2.044.336.579.2147 1.092.546 1.54.994zm5.773 7.168h5.306v.924h-6.314v-9.912h6.146v.924h-5.138v3.374h4.802v.924h-4.802zm11.659.924h-1.008v-8.988h-3.318v-.924h7.644v.924h-3.318zm15.827-8.274c-.439-.644-1.078-.966-1.918-.966-.261 0-.518.0373-.77.112-.252.0653-.481.1727-.686.322-.196.14-.355.3267-.476.56-.121.224-.182.49-.182.798 0 .448.126.798.378 1.05.252.2427.565.4433.938.602s.779.3033 1.218.434c.448.1213.859.2893 1.232.504.373.2053.686.4807.938.826s.378.8167.378 1.414c0 .448-.098.854-.294 1.218-.187.3547-.439.6533-.756.896-.308.2427-.658.4293-1.05.56-.383.1307-.77.196-1.162.196-.607 0-1.185-.112-1.736-.336-.541-.2333-1.003-.6113-1.386-1.134l.91-.658c.215.364.513.658.896.882.383.2147.835.322 1.358.322.252 0 .504-.0373.756-.112.252-.084.476-.2007.672-.35.205-.1587.373-.35.504-.574s.196-.4807.196-.77c0-.3453-.075-.63-.224-.854-.14-.2333-.331-.4247-.574-.574-.233-.1587-.504-.2893-.812-.392-.299-.1027-.611-.2053-.938-.308-.317-.1027-.63-.2193-.938-.35-.299-.1307-.569-.294-.812-.49-.233-.2053-.425-.4573-.574-.756-.14-.308-.21-.6907-.21-1.148 0-.476.089-.8913.266-1.246.187-.3547.429-.6487.728-.882.308-.2333.653-.406 1.036-.518s.775-.168 1.176-.168c.56 0 1.069.0887 1.526.266s.882.49 1.274.938zm7.457 8.274h-1.008v-8.988h-3.318v-.924h7.644v.924h-3.318zm6.396-3.528h4.298l-2.142-5.208zm-1.47 3.528h-1.176l4.312-9.912h.98l4.312 9.912h-1.176l-1.092-2.604h-5.068zm11.964-5.53h1.792c.448 0 .826-.0467 1.134-.14.317-.0933.569-.2147.756-.364.187-.1587.322-.3407.406-.546.084-.2147.126-.4433.126-.686 0-.2333-.042-.4527-.126-.658-.084-.2147-.219-.4013-.406-.56s-.439-.28-.756-.364c-.308-.0933-.686-.14-1.134-.14h-1.792zm0 5.53h-1.008v-9.912h3.052c1.008 0 1.801.2193 2.38.658.588.4387.882 1.1013.882 1.988 0 .6907-.219 1.274-.658 1.75-.429.4667-1.055.7373-1.876.812l2.856 4.704h-1.232l-2.716-4.606h-1.68zm11.741 0h-1.008v-8.988h-3.318v-.924h7.644v.924h-3.318zm7.059-.924h5.306v.924h-6.314v-9.912h6.146v.924h-5.138v3.374h4.802v.924h-4.802zm9.349 0h1.96c.756 0 1.409-.112 1.96-.336.56-.2333 1.022-.5367 1.386-.91.373-.3827.648-.812.826-1.288.177-.4853.266-.9847.266-1.498s-.089-1.008-.266-1.484c-.178-.4853-.453-.9147-.826-1.288-.364-.3827-.826-.686-1.386-.91-.551-.2333-1.204-.35-1.96-.35h-1.96zm-1.008-8.988h3.29c.616 0 1.232.1027 1.848.308.625.2053 1.185.518 1.68.938.504.4107.91.9287 1.218 1.554.308.616.462 1.3347.462 2.156 0 .8307-.154 1.554-.462 2.17s-.714 1.134-1.218 1.554c-.495.4107-1.055.7187-1.68.924-.616.2053-1.232.308-1.848.308h-3.29z" fill="#1c1c1c"/><rect height="26" rx="2" stroke="#eb0029" stroke-width="2" width="26" x="350" y="8"/><path d="m358.5 14 9.5 6.7778-9.5 7.2222" stroke="#eb0029" stroke-linecap="round" stroke-linejoin="round" stroke-width="2"/><rect height="26" rx="2" stroke="#eb0029" stroke-width="2" width="26" x="416" y="8"/><path d="m425 14v14m8-14v14" stroke="#eb0029" stroke-linecap="round" stroke-linejoin="round" stroke-width="2"/></svg>