<?xml version="1.0" encoding="utf-8"?>
<!-- Generator: Adobe Illustrator 24.2.0, SVG Export Plug-In . SVG Version: 6.00 Build 0)  -->
<svg version="1.1" id="Layer_1" xmlns="http://www.w3.org/2000/svg" xmlns:xlink="http://www.w3.org/1999/xlink" x="0px" y="0px"
	 viewBox="0 0 100 100" style="enable-background:new 0 0 100 100;" xml:space="preserve">
<style type="text/css">
	.st0{fill:#EB0029;}
</style>
<path class="st0" d="M55.2,56.6c-0.5-6.8-1-15.6-1.7-20.1c-0.5,3.1-0.9,8.2-1.2,12.2C51.2,63,50.6,68,47.5,68
	c-3.2,0-3.7-4.9-4.4-11.6c-0.3-3.1-0.8-8.2-1.7-9.3c-0.6,0.6-1,3.6-1.2,5.3c-0.5,4-1.1,8.6-4.7,8.6s-4.3-4.1-4.8-7.1
	c-0.2-1.3-0.6-3.9-1.2-3.9c-0.7,0-1.1,1-1.7,3.1c-0.6,2-1.5,4.9-4.3,4.9c-2.7,0-3.9-2.1-4.7-3.5c-0.6-1-0.9-1.5-1.3-1.5
	c-0.8,0-1.1,0.2-1.7,0.6C15,54.2,13.9,55,11.5,55h-6C4.7,55,4,54.3,4,53.5S4.7,52,5.5,52h6c1.4,0,1.9-0.3,2.6-0.8
	c0.7-0.5,1.6-1.2,3.4-1.2c2.2,0,3.2,1.7,3.9,3c0.8,1.4,1.2,2,2.1,2c0.6,0,1-1.6,1.4-2.8c0.6-2.2,1.5-5.2,4.6-5.2s3.7,3.5,4.2,6.4
	c0.4,2.6,0.8,4.6,1.8,4.6s1.4-3.9,1.7-6c0.5-3.9,1-8,4.3-8c3.4,0,3.9,5.3,4.6,12.1c0.3,2.6,0.7,6.6,1.3,8.3
	c0.9-2.7,1.5-10.5,1.9-15.9c0.9-13,1.4-17.5,4.2-17.5c2.7,0,3.3,3.3,4.7,25.4c0.3,5.7,0.7,12.9,1.3,17.5c0.6-5.7,1.1-15.6,1.5-23.4
	c1.4-29,2-31.5,4.6-31.5c2.7,0,3.2,4.1,4.2,21.7c0.4,7.1,1,17.5,2,20.7c0.6-1.3,1-4.5,1.3-6.3c0.7-4.9,1.3-9.1,4.4-9.1
	c3,0,3.9,3.2,4.7,5.8c0.2,1,0.8,3,1.3,3.2c0.9,0,1.1-0.3,1.6-0.9c0.7-0.8,1.7-2.1,4.4-2.1h5c0.8,0,1.5,0.7,1.5,1.5S95.3,55,94.5,55
	h-5c-1.3,0-1.6,0.4-2.2,1.1c-0.6,0.7-1.6,1.9-3.8,1.9c-2.7,0-3.5-2.9-4.2-5.4c-0.4-1.4-1-3.4-1.7-3.6c-0.7,0.8-1.2,4.4-1.5,6.6
	c-0.7,4.8-1.4,9.4-4.6,9.4c-3,0-3.6-4.8-4.7-24c-0.3-5.1-0.7-11.5-1.2-15.5c-0.8,5.8-1.3,16.7-1.7,25.2C62.6,78.8,62,81,59.5,81
	S56.4,77.8,55.2,56.6z"/>
</svg>
