<?xml version="1.0" encoding="utf-8"?>
<!-- Generator: Adobe Illustrator 25.4.1, SVG Export Plug-In . SVG Version: 6.00 Build 0)  -->
<svg version="1.1" id="Layer_1" xmlns="http://www.w3.org/2000/svg" xmlns:xlink="http://www.w3.org/1999/xlink" x="0px" y="0px"
	 viewBox="0 0 100 100" style="enable-background:new 0 0 100 100;" xml:space="preserve">
<style type="text/css">
	.st0{fill:#DB2C47;stroke:#DB2C47;stroke-width:0.5911;stroke-miterlimit:10;}
</style>
<path class="st0" d="M55.4,58.3c-0.5-8.5-1-19.5-1.8-25.1c-0.5,3.9-0.9,10.3-1.2,15.3c-1.1,17.9-1.8,24.1-5,24.1
	c-3.3,0-3.8-6.1-4.6-14.5c-0.3-3.9-0.8-10.3-1.8-11.6c-0.6,0.8-1,4.5-1.2,6.6c-0.5,5-1.1,10.8-4.9,10.8c-3.7,0-4.4-5.1-5-8.9
	c-0.2-1.6-0.6-4.9-1.2-4.9c-0.7,0-1.1,1.3-1.8,3.9c-0.6,2.5-1.6,6.1-4.4,6.1c-2.8,0-4-2.6-4.9-4.4c-0.6-1.3-0.9-1.9-1.3-1.9
	c-0.8,0-1.1,0.3-1.8,0.8c-0.8,0.8-2,1.8-4.4,1.8H4c-0.8,0-1.6-0.9-1.6-1.9c0-1,0.7-1.9,1.6-1.9h6.2c1.4,0,2-0.4,2.7-1
	c0.7-0.6,1.7-1.5,3.5-1.5c2.3,0,3.3,2.1,4,3.8c0.8,1.8,1.2,2.5,2.2,2.5c0.6,0,1-2,1.4-3.5c0.6-2.8,1.6-6.5,4.8-6.5
	c3.2,0,3.8,4.4,4.3,8C33.5,57.5,34,60,35,60c1,0,1.4-4.9,1.8-7.5c0.5-4.9,1-10,4.4-10c3.5,0,4,6.6,4.8,15.1
	c0.3,3.3,0.7,8.3,1.3,10.4c0.9-3.4,1.6-13.1,2-19.9c0.9-16.3,1.4-21.9,4.3-21.9c2.8,0,3.4,4.1,4.9,31.8c0.3,7.1,0.7,16.1,1.3,21.9
	c0.6-7.1,1.1-19.5,1.6-29.3c1.4-36.3,2.1-39.4,4.8-39.4c2.8,0,3.3,5.1,4.3,27.1c0.4,8.9,1,21.9,2.1,25.9c0.6-1.6,1-5.6,1.3-7.9
	c0.7-6.1,1.3-11.4,4.6-11.4c3.1,0,4,4,4.9,7.3c0.2,1.3,0.8,3.8,1.3,4c0.9,0,1.1-0.4,1.7-1.1c0.7-1,1.8-2.6,4.6-2.6H96
	c0.8,0,1.6,0.9,1.6,1.9c0,1-0.7,1.9-1.6,1.9h-5.2c-1.3,0-1.7,0.5-2.3,1.4S86.9,60,84.7,60c-2.8,0-3.6-3.6-4.3-6.8
	c-0.4-1.8-1-4.3-1.8-4.5c-0.7,1-1.2,5.5-1.6,8.3c-0.7,6-1.4,11.8-4.8,11.8c-3.1,0-3.7-6-4.9-30c-0.3-6.4-0.7-14.4-1.2-19.4
	c-0.8,7.3-1.3,20.9-1.8,31.5c-1.3,35.1-2,37.9-4.6,37.9S56.6,84.8,55.4,58.3L55.4,58.3z"/>
<path d="M458.8-205.1c-35.6-44-32.6-99.4-6.5-138.9c24.6-37.3,75.1-65.2,134.7-48.1c9.3-47.5,36-79.9,83.9-90.5
	c47.8-10.6,85.6,7.6,114,46.6c28.3-39.8,66.4-58.4,114.8-47.7c48.4,10.7,75,43.7,84,91.3c54.4-12.9,100.7,0.4,132.8,46.8
	c32.3,46.7,28.8,94.6-4.4,140.7c42,23.9,66.1,59.8,66.4,108.7c0.3,49.2-23.7,84.9-66.3,108.6c35,51.9,37.6,104.3-3.7,153.5
	c-32.5,38.8-76,48.2-124.9,36.2c-8.9,47.5-35.4,80.6-83.7,91.4c-48.5,10.8-86.5-7.8-115.1-47.6c-28.3,38.9-66.2,57.2-114.2,46.5
	c-47.7-10.6-74.4-43-83.7-90.2c-54.6,13.1-101.2,0-133.4-47.1c-32.6-47.6-27.7-96.2,4.9-142.7C369.2-32.6,369.9-158.4,458.8-205.1z
	 M769.4-135.2c0-2.2,0-3.8,0-5.4c0-77.1,0-154.2,0-231.2c0-6,0-12-0.9-17.9c-7.7-48.7-58.5-76.8-104.1-57.8
	c-29.8,12.4-49.7,45.6-45.1,75.6c1.1,7.4-0.1,13.7-6.4,18.1c-6.4,4.5-12.7,3.3-19.2-0.3c-41-22.8-91.4-9.7-116.3,30.1
	c-21.4,34.2-16.1,78.4,12.5,105.2c2.8,2.6,5.6,4.1,9.7,3.9c10.1-0.3,20.3-0.4,30.5,0c6.1,0.3,12.4,0.9,18.2,2.7
	c53.4,15.8,61.9,76,40.1,110.3c-15.2,23.9-37.7,34.1-65.8,32.9c-9.2-0.4-16.1-6.7-16.4-15.4c-0.3-8.8,6.6-16,15.9-16.5
	c2.7-0.1,5.3,0,8,0c8.5,0,16-2.8,22.6-8.1c12-9.5,15.1-22.3,14.6-36.9c-0.8-20.4-17.2-36.9-37.7-37c-11.7-0.1-23.3-0.1-35,0
	c-2.5,0-5,0.4-7.3,1.1c-38.6,12-64.4,48.3-63.4,88.9c1,40.1,27.5,72.6,67.6,82.9c6.9,1.8,11.7,5.7,13.2,12.7
	c1.4,6.9-1.4,12.2-6.7,16.6c-25.1,20.6-36.1,47-32.9,79.3c4.3,43.5,45.3,78.7,88.9,76.5c14.9-0.8,28.8-4.7,41.7-12.1
	c5.9-3.4,11.8-3.2,17.4,0.7c5.5,3.9,7.5,9.5,6.6,16.2c-0.3,1.8-0.6,3.6-0.7,5.4c-0.7,31.5,13.1,55.2,40.8,69.5
	c28.3,14.6,56.3,11.4,81.4-8.2c21-16.4,28.5-39,28.4-65.1c-0.3-92.9-0.1-185.8-0.1-278.7c0-1.8,0-3.6,0-5.9
	c-3.5,0.2-6.5,0.1-9.4,0.5c-24.1,3.8-40.2,22-41.3,46.6c-0.5,10.2-7.3,17.1-16.6,16.9c-9.2-0.3-15.8-7.6-15.4-17.8
	c1.2-31.1,15.9-54,42.9-69C741.7-132.7,754.9-135.3,769.4-135.2z M801.4-6.9c0,1.9,0,3.4,0,4.9c0.1,64.3,0.1,128.5,0.3,192.8
	c0.1,39.6,33,72.8,72.6,73.7c50.1,1.2,84.2-43.6,76.8-85.7c-1.4-7.8,3.5-14.9,11.1-17.4c5.6-1.9,10.4,0.1,15.2,2.7
	c20.5,11.2,42.3,14.2,64.7,7.8c33.4-9.5,54.9-31.6,62.3-65.5c7.5-34.6-3.6-63.7-30.7-86.4c-5.5-4.6-9-9.8-7.4-17.2
	c1.6-7.6,6.9-11.3,14.2-12.9c4.5-1,9-2.4,13.2-4.3c34.2-15.8,53.1-42.7,53.2-80.4c0.1-38.2-18.7-66-53.1-83
	c-7.4-3.6-15.1-5.6-23.6-5.1c-9.3,0.5-18.6,0.1-28,0.1c-10.3,0-19.1,3.8-26.5,11c-9.5,9.2-11.7,20.7-11.3,33.4
	c0.5,17.8,12.2,32.9,29.6,36.6c5.1,1.1,10.6,0.7,15.9,1.1c8.9,0.6,15.4,7.4,15.5,15.9c0.1,7.8-6,15.3-13.8,15.9
	c-22.3,1.8-42.3-4-58.4-20.1c-15.7-15.6-21.2-34.9-20.8-56.8c0.7-33.7,26.1-63.8,59.5-67.9c13-1.6,26.2-0.9,39.4-0.9
	c3.8,0,6.6-1.1,9.3-3.7c19.8-19.5,28.2-42.9,25.1-70.6c-4.9-43.6-45.6-78.2-89.4-76c-14.8,0.7-28.4,4.8-41.2,12.1
	c-5.9,3.4-11.9,3.2-17.4-0.8c-5.3-3.8-7.4-9.2-6.5-15.7c4.7-32.9-12.8-64.5-43.4-78.5c-29.8-13.6-65.9-5.7-87.5,18.9
	c-14.4,16.5-19,35.8-18.9,57.3c0.3,109,0.1,218.1,0.1,327.1c0,1.8,0.2,3.5,0.3,5.7c6.4,0,12.4-0.1,18.3,0
	c41.8,0.7,77,36.1,77.6,77.9c0.1,10.3-6.1,17.6-15.3,18C872.8,57,866,50,865.6,39.4c-0.5-13.7-5.9-25.1-15.9-34.4
	C836-7.7,819.2-8.2,801.4-6.9z"/>
<path d="M1121.6-532.7c-1.1,2.1-2.4,6.5-5.2,9.3c-15.6,16.1-31.6,31.9-47.5,47.7c-6.8,6.7-16.5,6.5-22.8,0.1
	c-6.3-6.4-6.3-16,0.4-22.8c15.7-15.8,31.5-31.6,47.3-47.3c5.1-5.1,11.2-6.5,17.8-3.7C1117.9-546.7,1121-541.7,1121.6-532.7z"/>
<path d="M993.5-550.9c0-10.2,0-20.3,0-30.5c0.1-10.2,6.7-17.3,16-17.3c9.3,0,15.9,7.2,15.9,17.4c0,20.3,0,40.6,0,60.9
	c0,10.5-6.8,17.7-16.2,17.6c-9.2-0.2-15.7-7.4-15.7-17.6C993.5-530.6,993.5-540.7,993.5-550.9z"/>
<path d="M1121.4-422.8c-10.2,0-20.3,0-30.5,0c-10.2,0-17.4-6.6-17.5-15.8c-0.1-9.3,7.1-16.1,17.2-16.1c20.5,0,41,0,61.4,0
	c10.1,0,17.3,6.8,17.2,16.1c-0.1,9.3-7.2,15.8-17.5,15.9C1141.7-422.8,1131.6-422.8,1121.4-422.8z"/>
<path d="M684.3,112.5c-48.5,0-85.2-25.4-101.1-65.6c-5.6-14.2-10.9-28.6-16.2-42.9c-3.5-9.6,0.2-18.6,8.9-21.8
	c8.7-3.2,17.3,1.1,21,10.7c5.3,14,10.5,28,15.9,42c12.8,33.1,44.2,50.6,79.1,44.3c15.5-2.8,31.2-5.3,46.8-7.7
	c9.6-1.5,17.4,4,18.9,12.8c1.6,9-4.1,16.9-13.9,18.5C721.8,106.6,699.8,110,684.3,112.5z"/>
<path d="M741-190.2c0.6,12.5-6.7,20.7-17.5,19.5c-7.9-0.9-13.2-6.5-14.3-14.9c-0.7-5.3-1-10.7-2.7-15.6c-5.8-17.4-21.4-29.1-39.7-30
	c-9.8-0.5-19.7,0-29.4-0.7c-38.5-2.7-69.8-35.9-70.4-74.5c-0.2-10.2,6.2-17.6,15.5-17.8c9.5-0.3,16.1,6.4,16.5,16.7
	c1.1,25.2,20.3,43.7,45.6,44.2c12.4,0.2,25.2-0.2,37.2,2.3C715.5-254,739.4-224.5,741-190.2z"/>
<path d="M983.9,26.6c-0.3,22.1-9.2,45.2-27.4,64.4c-12.2,12.9-25,25.3-37.6,37.9c-6.9,6.8-16.9,6.8-23.2,0.3
	c-6.1-6.3-5.9-16.1,0.7-22.8c11.3-11.5,22.8-22.8,34.2-34.3c25-25.2,28.5-60,8.9-89.8c-8-12.2-16.2-24.3-24.3-36.5
	c-5.9-9-4.5-18.4,3.4-23.7c7.8-5.2,17.3-2.7,23.2,6c9,13.4,18,26.7,26.7,40.3C979-15.3,983.9,2.8,983.9,26.6z"/>
<path d="M917.6-263.2c4.9-0.3,12.4,0,19.5-1.5c20.5-4.3,34.6-21.7,35.4-42.8c0.3-9.2,5.5-15.5,13.4-16.7
	c10.3-1.4,18.5,5.8,18.6,16.5c0.3,30.1-19.9,60.1-48.6,70.3c-9.2,3.3-19.3,4.4-29.2,5.6c-7.4,0.9-15,0-22.4,0.4
	c-22.3,1.3-40,18.8-41.8,41c-0.1,1.5-0.2,3-0.3,4.5c-1,9.3-7.9,15.6-16.6,15.2c-9-0.4-15.5-7.4-15.2-17
	c0.7-24.6,10.7-44.7,30.1-59.8C876.5-260.1,895.1-264.4,917.6-263.2z"/>
</svg>
