<svg fill="none" height="100" viewBox="0 0 100 100" width="100" xmlns="http://www.w3.org/2000/svg"><path d="m54.9739 56.3871c-.4782-6.5807-.9565-15.0968-1.6261-19.4516-.4782 3-.8608 7.9355-1.1478 11.8064-1.0522 13.8387-1.6261 18.6775-4.5913 18.6775-3.0609 0-3.5391-4.742-4.2087-11.2259-.287-3-.7652-7.9354-1.6261-9-.5739.5807-.9565 3.4839-1.1478 5.1291-.4783 3.8709-1.0522 8.3226-4.4957 8.3226-3.4434 0-4.113-3.9678-4.5913-6.871-.1913-1.2581-.5739-3.7742-1.1478-3.7742-.6696 0-1.0522.9677-1.6261 3-.5739 1.9355-1.4348 4.7419-4.113 4.7419-2.5826 0-3.7305-2.0322-4.4957-3.3871-.5739-.9677-.8608-1.4516-1.2435-1.4516-.7652 0-1.0521.1936-1.626.5807-.7653.5806-1.8174 1.3548-4.1131 1.3548h-5.73912c-.76521 0-1.43478-.6774-1.43478-1.4516s.66957-1.4516 1.43478-1.4516h5.73912c1.3391 0 1.8174-.2903 2.487-.7742.6695-.4839 1.5304-1.1613 3.2521-1.1613 2.1044 0 3.0609 1.6452 3.7305 2.9032.7652 1.3549 1.1478 1.9355 2.0087 1.9355.5739 0 .9565-1.5484 1.3391-2.7097.5739-2.129 1.4348-5.0322 4.4-5.0322s3.5391 3.3871 4.0174 6.1935c.3826 2.5162.7652 4.4516 1.7217 4.4516.9566 0 1.3392-3.7742 1.6261-5.8064.4783-3.7742.9565-7.742 4.1131-7.742 3.2521 0 3.7304 5.1291 4.4 11.7097.2869 2.5162.6695 6.3871 1.2434 8.0323.8609-2.6129 1.4348-10.1613 1.8174-15.3871.8609-12.5807 1.3392-16.9355 4.0174-16.9355 2.5826 0 3.1565 3.1936 4.4957 24.5806.2869 5.5162.6695 12.4839 1.2435 16.9355.5739-5.5161 1.0521-15.0967 1.4347-22.6451 1.3392-28.0645 1.9131-30.4839 4.4-30.4839 2.5826 0 3.0609 3.9677 4.0174 21 .3826 6.871.9566 16.9355 1.9131 20.0323.5739-1.2581.9565-4.3549 1.2435-6.0968.6695-4.742 1.2434-8.8065 4.2086-8.8065 2.8696 0 3.7305 3.0968 4.4957 5.6129.1913.9678.7652 2.9033 1.2435 3.0968.8608 0 1.0522-.2903 1.5304-.871.6696-.7742 1.6261-2.0322 4.2087-2.0322h4.7826c.7652 0 1.4348.6774 1.4348 1.4516s-.6696 1.4516-1.4348 1.4516h-4.7826c-1.2435 0-1.5304.3871-2.1043 1.0645s-1.5305 1.8387-3.6348 1.8387c-2.5826 0-3.3478-2.8064-4.0174-5.2258-.3826-1.3548-.9565-3.2903-1.6261-3.4838-.6696.7742-1.1478 4.258-1.4348 6.3871-.6695 4.6451-1.3391 9.0967-4.4 9.0967-2.8695 0-3.4435-4.6451-4.4956-23.2258-.287-4.9355-.6696-11.129-1.1479-15-.7652 5.6129-1.2434 16.1613-1.626 24.3871-1.2435 27.1936-1.8174 29.3226-4.2087 29.3226s-2.9653-3.0968-4.1131-23.6129z" fill="#eb0029"/></svg>