<svg xmlns="http://www.w3.org/2000/svg" viewBox="0 0 599.02 514.27">
  <defs>
    <style>
      .cls-1 {
        fill: #191919;
      }

      .cls-2, .cls-3, .cls-5 {
        fill: none;
      }

      .cls-2, .cls-3, .cls-5, .cls-6, .cls-7, .cls-8, .cls-9 {
        stroke: #fff;
      }

      .cls-2, .cls-3 {
        stroke-miterlimit: 1.18;
      }

      .cls-2 {
        stroke-width: 0.75px;
      }

      .cls-3 {
        stroke-width: 0.25px;
      }

      .cls-4 {
        fill: #fff;
      }

      .cls-5, .cls-6, .cls-7, .cls-8, .cls-9 {
        stroke-miterlimit: 10;
      }

      .cls-6 {
        fill: #585a5c;
      }

      .cls-6, .cls-7, .cls-8, .cls-9 {
        stroke-width: 0.5px;
      }

      .cls-7 {
        fill: #245b96;
      }

      .cls-8 {
        fill: #14396c;
      }

      .cls-9 {
        fill: #061f4b;
      }

      .cls-10 {
        isolation: isolate;
      }

      .cls-11 {
        fill: #fff322;
      }
    </style>
  </defs>
  <g id="Layer_2" data-name="Layer 2">
    <g id="VarietiesOutline">
      <g>
        <rect class="cls-1" x="0.38" y="0.38" width="598.27" height="513.52" rx="12"/>
        <rect class="cls-2" x="0.38" y="0.38" width="598.27" height="513.52" rx="12"/>
      </g>
      <line class="cls-3" x1="118.46" y1="115.6" x2="482.08" y2="115.6"/>
      <g>
        <path class="cls-4" d="M32,362v-2H44.75v-6.71h1.86V362Z"/>
        <path class="cls-4" d="M32,351.22v-9.44h1.86v7.46H38.2V342.3h1.86v6.94h4.69v-7.83h1.86v9.81Z"/>
        <path class="cls-4" d="M32,340.6v-2.29l11.9-4.3v0L32,329.51v-2.17l14.63,5.76V335Z"/>
        <path class="cls-4" d="M32,325.58v-9.44h1.86v7.46H38.2v-6.94h1.86v6.94h4.69v-7.83h1.86v9.81Z"/>
        <path class="cls-4" d="M32,313v-2H44.75v-6.72h1.86V313Z"/>
        <path class="cls-4" d="M47,289.78a7.94,7.94,0,0,1-.59,3.08,7.11,7.11,0,0,1-1.62,2.41,7.64,7.64,0,0,1-2.44,1.57,8.37,8.37,0,0,1-6.07,0,7.64,7.64,0,0,1-2.44-1.57,7.11,7.11,0,0,1-1.62-2.41,8.33,8.33,0,0,1,0-6.16,7.07,7.07,0,0,1,1.62-2.4,7.31,7.31,0,0,1,2.44-1.57,8.37,8.37,0,0,1,6.07,0,7.31,7.31,0,0,1,2.44,1.57,7.07,7.07,0,0,1,1.62,2.4A8,8,0,0,1,47,289.78Zm-1.86,0a5.35,5.35,0,0,0-.46-2.27,5.49,5.49,0,0,0-1.25-1.74,5.57,5.57,0,0,0-1.85-1.11,6.61,6.61,0,0,0-4.53,0,5.57,5.57,0,0,0-1.85,1.11,5.49,5.49,0,0,0-1.25,1.74,5.49,5.49,0,0,0,1.25,6.28A5.76,5.76,0,0,0,37,294.91a6.77,6.77,0,0,0,4.53,0,5.76,5.76,0,0,0,1.85-1.12,5.31,5.31,0,0,0,1.71-4Z"/>
        <path class="cls-4" d="M32,279.31v-9.2h1.86v7.21h4.59v-6.71h1.86v6.71h6.32v2Z"/>
        <path class="cls-4" d="M32,261.71v-5.15a6.06,6.06,0,0,1,.38-2.31,4,4,0,0,1,1-1.44,3.42,3.42,0,0,1,1.33-.73,4.87,4.87,0,0,1,2.83,0,3.31,3.31,0,0,1,1.32.73,3.88,3.88,0,0,1,1,1.44,6.06,6.06,0,0,1,.38,2.31v3.16h6.45v2Zm6.45-2v-2.6a6.3,6.3,0,0,0-.1-1.15,2.94,2.94,0,0,0-.34-1,1.8,1.8,0,0,0-.71-.71,2.85,2.85,0,0,0-2.42,0,1.86,1.86,0,0,0-.71.71,2.94,2.94,0,0,0-.34,1,7.33,7.33,0,0,0-.09,1.15v2.6Z"/>
        <path class="cls-4" d="M32,249.45v-5.14a6.06,6.06,0,0,1,.38-2.31,4,4,0,0,1,1-1.44,3.29,3.29,0,0,1,1.33-.73,5.13,5.13,0,0,1,1.41-.21,3.86,3.86,0,0,1,2.53,1,4.06,4.06,0,0,1,.89,1.14,3.81,3.81,0,0,1,.44,1.5l6.68-4.16v2.48l-6.45,3.72v2.21h6.45v2Zm6.45-2v-2.6a6.3,6.3,0,0,0-.1-1.15,2.94,2.94,0,0,0-.34-1,1.8,1.8,0,0,0-.71-.71,2.85,2.85,0,0,0-2.42,0,1.86,1.86,0,0,0-.71.71,2.94,2.94,0,0,0-.34,1,7.33,7.33,0,0,0-.09,1.15v2.6Z"/>
        <path class="cls-4" d="M32,236.83v-2H46.61v2Z"/>
        <path class="cls-4" d="M32,231.42v-5.1a9.61,9.61,0,0,1,.35-2.72,7.61,7.61,0,0,1,.94-2,6.11,6.11,0,0,1,1.35-1.42,7.19,7.19,0,0,1,1.58-.9,7.37,7.37,0,0,1,1.61-.47,8.07,8.07,0,0,1,1.48-.15,7.23,7.23,0,0,1,2.72.52,6.78,6.78,0,0,1,2.34,1.53A7.59,7.59,0,0,1,46,223.19a9,9,0,0,1,.62,3.46v4.77Zm12.77-2v-2.5a8.47,8.47,0,0,0-.34-2.39,5.7,5.7,0,0,0-1-2,4.81,4.81,0,0,0-1.7-1.35,5.43,5.43,0,0,0-2.39-.49,7.21,7.21,0,0,0-1.64.22,5.18,5.18,0,0,0-1.79.86,5.05,5.05,0,0,0-1.43,1.75,6.21,6.21,0,0,0-.59,2.89v3Z"/>
        <path class="cls-4" d="M32,215.78v-9.44h1.86v7.46H38.2v-7h1.86v7h4.69V206h1.86v9.81Z"/>
      </g>
      <g>
        <g>
          <g>
            <path class="cls-4" d="M66,432.5c0-.55,0-1.13.08-1.75a12,12,0,0,1,.28-1.81,9.22,9.22,0,0,1,.57-1.68,5,5,0,0,1,.93-1.4,4.06,4.06,0,0,1,1.36-1,5.12,5.12,0,0,1,3.77,0,4.17,4.17,0,0,1,1.36,1,5,5,0,0,1,.93,1.4,9.2,9.2,0,0,1,.56,1.68,13.39,13.39,0,0,1,.29,1.81c0,.62.07,1.2.07,1.75s0,1.16-.07,1.77a13.5,13.5,0,0,1-.29,1.8,9.36,9.36,0,0,1-.56,1.67,5.23,5.23,0,0,1-.93,1.41,4.17,4.17,0,0,1-1.36,1,5.12,5.12,0,0,1-3.77,0,4.06,4.06,0,0,1-1.36-1,5.23,5.23,0,0,1-.93-1.41,9.39,9.39,0,0,1-.57-1.67,12,12,0,0,1-.28-1.8C66,433.66,66,433.07,66,432.5Zm1.44,0c0,.41,0,.86,0,1.34a11.15,11.15,0,0,0,.17,1.49A9.33,9.33,0,0,0,68,436.8a5.23,5.23,0,0,0,.65,1.27,3,3,0,0,0,1,.89,2.73,2.73,0,0,0,1.41.34,2.78,2.78,0,0,0,1.41-.34,3,3,0,0,0,1-.89,4.61,4.61,0,0,0,.65-1.27,9.37,9.37,0,0,0,.39-1.47c.08-.51.14-1,.17-1.49s0-.93,0-1.34,0-.83,0-1.33-.09-1-.17-1.49a9.37,9.37,0,0,0-.39-1.47,4.61,4.61,0,0,0-.65-1.27,3.19,3.19,0,0,0-1-.9,2.88,2.88,0,0,0-1.41-.34,2.84,2.84,0,0,0-1.4.34,3.23,3.23,0,0,0-1,.9,5.23,5.23,0,0,0-.65,1.27,9.33,9.33,0,0,0-.38,1.47,11,11,0,0,0-.17,1.49C67.41,431.67,67.39,432.11,67.39,432.5Z"/>
            <path class="cls-4" d="M133.31,426h-6.37l-.06,4.9a3.32,3.32,0,0,1,1.09-.35,7.65,7.65,0,0,1,1.16-.09,4.77,4.77,0,0,1,2,.41,4.49,4.49,0,0,1,1.51,1.1,5,5,0,0,1,1,1.62,5.82,5.82,0,0,1,.34,2,5,5,0,0,1-.45,2.18,4.6,4.6,0,0,1-1.17,1.55,4.77,4.77,0,0,1-1.59.91,5,5,0,0,1-1.72.31,5.32,5.32,0,0,1-2.84-.7,4.72,4.72,0,0,1-1.78-1.92l1.35-.67a3.23,3.23,0,0,0,.54.82,3.82,3.82,0,0,0,.77.67,3.57,3.57,0,0,0,.94.46,3.2,3.2,0,0,0,1,.16,3.13,3.13,0,0,0,1.14-.23,3.78,3.78,0,0,0,1.13-.68,3.68,3.68,0,0,0,.87-1.16,3.57,3.57,0,0,0,.35-1.61,4.09,4.09,0,0,0-.3-1.56,3.83,3.83,0,0,0-3.58-2.45,4.67,4.67,0,0,0-1.61.29,6.16,6.16,0,0,0-1.44.76l.13-7.87h7.61Z"/>
            <g>
              <path class="cls-4" d="M181.63,426.62h0l-2.79,2.29-.8-1,3.81-3.12h1.11v15.43h-1.31Z"/>
              <path class="cls-4" d="M187.84,432.5c0-.55,0-1.13.08-1.75a13.38,13.38,0,0,1,.28-1.81,9.22,9.22,0,0,1,.57-1.68,5,5,0,0,1,.93-1.4,4.06,4.06,0,0,1,1.36-1,5.12,5.12,0,0,1,3.77,0,4.17,4.17,0,0,1,1.36,1,5,5,0,0,1,.93,1.4,9.2,9.2,0,0,1,.56,1.68,13.39,13.39,0,0,1,.29,1.81c.05.62.07,1.2.07,1.75s0,1.16-.07,1.77a13.5,13.5,0,0,1-.29,1.8,9.36,9.36,0,0,1-.56,1.67,5.23,5.23,0,0,1-.93,1.41,4.17,4.17,0,0,1-1.36,1,5.12,5.12,0,0,1-3.77,0,4.06,4.06,0,0,1-1.36-1,5.23,5.23,0,0,1-.93-1.41,9.39,9.39,0,0,1-.57-1.67,13.48,13.48,0,0,1-.28-1.8C187.87,433.66,187.84,433.07,187.84,432.5Zm1.44,0c0,.41,0,.86.05,1.34a11.15,11.15,0,0,0,.17,1.49,9.33,9.33,0,0,0,.38,1.47,5.23,5.23,0,0,0,.65,1.27,3,3,0,0,0,1,.89,2.73,2.73,0,0,0,1.41.34,2.78,2.78,0,0,0,1.41-.34,3,3,0,0,0,1-.89,4.61,4.61,0,0,0,.65-1.27,9.37,9.37,0,0,0,.39-1.47c.08-.51.14-1,.17-1.49s0-.93,0-1.34,0-.83,0-1.33-.09-1-.17-1.49a9.37,9.37,0,0,0-.39-1.47,4.61,4.61,0,0,0-.65-1.27,3.19,3.19,0,0,0-1-.9,3.07,3.07,0,0,0-2.81,0,3.23,3.23,0,0,0-1,.9,5.23,5.23,0,0,0-.65,1.27,9.33,9.33,0,0,0-.38,1.47,11,11,0,0,0-.17,1.49C189.3,431.67,189.28,432.11,189.28,432.5Z"/>
            </g>
            <g>
              <path class="cls-4" d="M239.74,426.62h0l-2.79,2.29-.8-1,3.81-3.12h1.11v15.43h-1.31Z"/>
              <path class="cls-4" d="M255.2,426h-6.37l-.06,4.9a3.32,3.32,0,0,1,1.09-.35,7.65,7.65,0,0,1,1.16-.09,4.77,4.77,0,0,1,2,.41,4.49,4.49,0,0,1,1.51,1.1,5,5,0,0,1,1,1.62,5.82,5.82,0,0,1,.34,2,5,5,0,0,1-.45,2.18,4.6,4.6,0,0,1-1.17,1.55,4.77,4.77,0,0,1-1.59.91,5,5,0,0,1-1.72.31,5.32,5.32,0,0,1-2.84-.7,4.72,4.72,0,0,1-1.78-1.92l1.35-.67a3.23,3.23,0,0,0,.54.82,3.82,3.82,0,0,0,.77.67,3.57,3.57,0,0,0,.94.46,3.2,3.2,0,0,0,1,.16,3,3,0,0,0,1.13-.23,3.59,3.59,0,0,0,2-1.84,3.57,3.57,0,0,0,.35-1.61,4.09,4.09,0,0,0-.3-1.56,3.83,3.83,0,0,0-3.58-2.45,4.67,4.67,0,0,0-1.61.29,6.16,6.16,0,0,0-1.44.76l.13-7.87h7.61Z"/>
            </g>
            <g>
              <path class="cls-4" d="M293.06,438.69l5.8-6.12q.39-.39.78-.84a7,7,0,0,0,.71-.94,4.94,4.94,0,0,0,.51-1,3.52,3.52,0,0,0,.2-1.18,2.66,2.66,0,0,0-.87-2.11,3.22,3.22,0,0,0-2.2-.77,3.07,3.07,0,0,0-2,.7,3.22,3.22,0,0,0-1.07,1.83l-1.52-.15a4.1,4.1,0,0,1,1.63-2.67,5.18,5.18,0,0,1,3.05-.88,5.31,5.31,0,0,1,1.7.27,4.52,4.52,0,0,1,1.42.77,3.89,3.89,0,0,1,1,1.23,3.76,3.76,0,0,1,.36,1.67,4.94,4.94,0,0,1-.27,1.66,7.84,7.84,0,0,1-.72,1.45,8.45,8.45,0,0,1-1,1.29c-.38.41-.77.82-1.16,1.22l-4.82,5h8.11v1.18h-9.55Z"/>
              <path class="cls-4" d="M304.07,432.5c0-.55,0-1.13.07-1.75a12,12,0,0,1,.29-1.81,9.2,9.2,0,0,1,.56-1.68,5,5,0,0,1,.93-1.4,4.17,4.17,0,0,1,1.36-1,5.12,5.12,0,0,1,3.77,0,4.06,4.06,0,0,1,1.36,1,5,5,0,0,1,.93,1.4,9.22,9.22,0,0,1,.57,1.68,13.38,13.38,0,0,1,.28,1.81c.05.62.08,1.2.08,1.75s0,1.16-.08,1.77a13.48,13.48,0,0,1-.28,1.8,9.39,9.39,0,0,1-.57,1.67,5.23,5.23,0,0,1-.93,1.41,4.06,4.06,0,0,1-1.36,1,5.12,5.12,0,0,1-3.77,0,4.17,4.17,0,0,1-1.36-1,5.23,5.23,0,0,1-.93-1.41,9.36,9.36,0,0,1-.56-1.67,12.06,12.06,0,0,1-.29-1.8C304.09,433.66,304.07,433.07,304.07,432.5Zm1.44,0c0,.41,0,.86,0,1.34s.09,1,.17,1.49a9.37,9.37,0,0,0,.39,1.47,4.61,4.61,0,0,0,.65,1.27,3.12,3.12,0,0,0,1,.89,3.09,3.09,0,0,0,2.82,0,3,3,0,0,0,1-.89,4.92,4.92,0,0,0,.66-1.27,9.33,9.33,0,0,0,.38-1.47,13.08,13.08,0,0,0,.17-1.49c0-.48.05-.93.05-1.34s0-.83-.05-1.33a12.83,12.83,0,0,0-.17-1.49,9.33,9.33,0,0,0-.38-1.47,4.92,4.92,0,0,0-.66-1.27,3.09,3.09,0,0,0-1-.9,3.07,3.07,0,0,0-2.81,0,3.19,3.19,0,0,0-1,.9,4.61,4.61,0,0,0-.65,1.27,9.37,9.37,0,0,0-.39,1.47c-.08.5-.14,1-.17,1.49S305.51,432.11,305.51,432.5Z"/>
            </g>
            <g>
              <path class="cls-4" d="M351.17,438.69l5.8-6.12q.39-.39.78-.84a7,7,0,0,0,.71-.94,5.53,5.53,0,0,0,.52-1,3.52,3.52,0,0,0,.19-1.18,2.66,2.66,0,0,0-.87-2.11,3.22,3.22,0,0,0-2.2-.77,3.07,3.07,0,0,0-2,.7,3.22,3.22,0,0,0-1.07,1.83l-1.52-.15a4.14,4.14,0,0,1,1.63-2.67,5.2,5.2,0,0,1,3.05-.88,5.27,5.27,0,0,1,1.7.27,4.52,4.52,0,0,1,1.42.77,3.63,3.63,0,0,1,1.33,2.9,4.94,4.94,0,0,1-.27,1.66,6.76,6.76,0,0,1-.72,1.45,8.45,8.45,0,0,1-1,1.29c-.38.41-.77.82-1.16,1.22l-4.82,5h8.11v1.18h-9.55Z"/>
              <path class="cls-4" d="M371.42,426h-6.36l-.07,4.9a3.32,3.32,0,0,1,1.09-.35,7.75,7.75,0,0,1,1.16-.09,4.77,4.77,0,0,1,2,.41,4.49,4.49,0,0,1,1.51,1.1,4.87,4.87,0,0,1,1,1.62,5.59,5.59,0,0,1,.34,2,5,5,0,0,1-.45,2.18,4.45,4.45,0,0,1-1.16,1.55,4.87,4.87,0,0,1-1.59.91,5,5,0,0,1-1.72.31,5.33,5.33,0,0,1-2.85-.7,4.69,4.69,0,0,1-1.77-1.92l1.35-.67a3.19,3.19,0,0,0,.53.82,4.12,4.12,0,0,0,.77.67,3.73,3.73,0,0,0,.94.46,3.31,3.31,0,0,0,1,.16,3.12,3.12,0,0,0,1.13-.23,3.78,3.78,0,0,0,1.13-.68,3.68,3.68,0,0,0,.87-1.16,3.44,3.44,0,0,0,.35-1.61,4.28,4.28,0,0,0-.29-1.56,4,4,0,0,0-.82-1.27,3.82,3.82,0,0,0-2.77-1.18,4.67,4.67,0,0,0-1.61.29,6.59,6.59,0,0,0-1.44.76l.13-7.87h7.61Z"/>
            </g>
            <g>
              <path class="cls-4" d="M410.7,437a4,4,0,0,0,1.19,1.71,3.22,3.22,0,0,0,2.06.6,3.87,3.87,0,0,0,1.5-.26,2.77,2.77,0,0,0,1.08-.72,2.83,2.83,0,0,0,.64-1.07,3.7,3.7,0,0,0,.22-1.3,2.8,2.8,0,0,0-.36-1.46,3,3,0,0,0-.93-1,4.06,4.06,0,0,0-1.31-.56,6.16,6.16,0,0,0-1.47-.18h-.57v-1.3h.65a4.87,4.87,0,0,0,1.24-.17,3.52,3.52,0,0,0,1.11-.51,2.65,2.65,0,0,0,.79-.9,2.68,2.68,0,0,0,.31-1.34A2.71,2.71,0,0,0,414,425.7a3.17,3.17,0,0,0-1.72.49,3.47,3.47,0,0,0-1.2,1.32l-1.24-.69a4,4,0,0,1,1.73-1.75,5.48,5.48,0,0,1,2.43-.54,5.34,5.34,0,0,1,1.66.25,4,4,0,0,1,1.37.74,3.58,3.58,0,0,1,.93,1.23,4.25,4.25,0,0,1,.34,1.74,3.77,3.77,0,0,1-.7,2.24,3.66,3.66,0,0,1-2,1.34v0a4,4,0,0,1,1.34.49,4.42,4.42,0,0,1,1,.88,3.93,3.93,0,0,1,.67,1.18,4,4,0,0,1,.24,1.4,5.13,5.13,0,0,1-.29,1.72,3.92,3.92,0,0,1-.9,1.4,4.19,4.19,0,0,1-1.49.95,5.79,5.79,0,0,1-2.09.35,5.56,5.56,0,0,1-2.95-.73,4.4,4.4,0,0,1-1.82-2.3Z"/>
              <path class="cls-4" d="M420.29,432.5c0-.55,0-1.13.08-1.75a12,12,0,0,1,.28-1.81,9.22,9.22,0,0,1,.57-1.68,5.23,5.23,0,0,1,.92-1.4,4.11,4.11,0,0,1,1.37-1,4.5,4.5,0,0,1,1.88-.36,4.59,4.59,0,0,1,1.89.36,4.17,4.17,0,0,1,1.36,1,5,5,0,0,1,.92,1.4,9.22,9.22,0,0,1,.57,1.68,12,12,0,0,1,.28,1.81c0,.62.08,1.2.08,1.75s0,1.16-.08,1.77a12,12,0,0,1-.28,1.8,9.39,9.39,0,0,1-.57,1.67,5.2,5.2,0,0,1-.92,1.41,4.17,4.17,0,0,1-1.36,1,4.59,4.59,0,0,1-1.89.36,4.5,4.5,0,0,1-1.88-.36,4.11,4.11,0,0,1-1.37-1,5.45,5.45,0,0,1-.92-1.41,9.39,9.39,0,0,1-.57-1.67,12,12,0,0,1-.28-1.8C420.32,433.66,420.29,433.07,420.29,432.5Zm1.44,0c0,.41,0,.86,0,1.34a13.14,13.14,0,0,0,.18,1.49,8.36,8.36,0,0,0,.38,1.47,4.61,4.61,0,0,0,.65,1.27,3.12,3.12,0,0,0,1,.89,3.11,3.11,0,0,0,2.83,0,3,3,0,0,0,1-.89,4.9,4.9,0,0,0,.65-1.27,8.36,8.36,0,0,0,.38-1.47,13.14,13.14,0,0,0,.18-1.49c0-.48,0-.93,0-1.34s0-.83,0-1.33a12.87,12.87,0,0,0-.18-1.49,8.36,8.36,0,0,0-.38-1.47,4.9,4.9,0,0,0-.65-1.27,3.19,3.19,0,0,0-1-.9,2.88,2.88,0,0,0-1.41-.34,2.82,2.82,0,0,0-1.4.34,3.12,3.12,0,0,0-1,.9,4.61,4.61,0,0,0-.65,1.27,8.36,8.36,0,0,0-.38,1.47,12.87,12.87,0,0,0-.18,1.49C421.74,431.67,421.73,432.11,421.73,432.5Z"/>
            </g>
            <g>
              <path class="cls-4" d="M468.81,437A4.09,4.09,0,0,0,470,438.7a3.22,3.22,0,0,0,2.06.6,4,4,0,0,0,1.51-.26,2.81,2.81,0,0,0,1.07-.72,3,3,0,0,0,.65-1.07,3.94,3.94,0,0,0,.21-1.3,2.89,2.89,0,0,0-.35-1.46,3,3,0,0,0-.94-1,4.06,4.06,0,0,0-1.31-.56,6.16,6.16,0,0,0-1.47-.18h-.57v-1.3h.66a4.86,4.86,0,0,0,1.23-.17,3.52,3.52,0,0,0,1.11-.51,2.68,2.68,0,0,0,.8-.9,2.79,2.79,0,0,0,.3-1.34,2.82,2.82,0,0,0-.77-2,2.78,2.78,0,0,0-2.08-.8,3.2,3.2,0,0,0-1.73.49,3.45,3.45,0,0,0-1.19,1.32l-1.25-.69a3.93,3.93,0,0,1,1.74-1.75,5.42,5.42,0,0,1,2.43-.54,5.27,5.27,0,0,1,1.65.25,4,4,0,0,1,1.37.74,3.46,3.46,0,0,1,.93,1.23,4.09,4.09,0,0,1,.34,1.74,3.71,3.71,0,0,1-.7,2.24,3.62,3.62,0,0,1-2.05,1.34v0a3.9,3.9,0,0,1,1.34.49,4.22,4.22,0,0,1,1,.88,3.93,3.93,0,0,1,.67,1.18,4,4,0,0,1,.24,1.4,5.13,5.13,0,0,1-.29,1.72,3.89,3.89,0,0,1-.89,1.4,4.24,4.24,0,0,1-1.5.95,5.75,5.75,0,0,1-2.09.35,5.56,5.56,0,0,1-2.95-.73,4.4,4.4,0,0,1-1.82-2.3Z"/>
              <path class="cls-4" d="M487.64,426h-6.36l-.07,4.9a3.38,3.38,0,0,1,1.1-.35,7.65,7.65,0,0,1,1.16-.09,4.77,4.77,0,0,1,2,.41,4.36,4.36,0,0,1,1.5,1.1,4.89,4.89,0,0,1,1,1.62,5.82,5.82,0,0,1,.34,2,5,5,0,0,1-.45,2.18,4.6,4.6,0,0,1-1.17,1.55,4.87,4.87,0,0,1-1.59.91,5,5,0,0,1-1.72.31,5.32,5.32,0,0,1-2.84-.7,4.65,4.65,0,0,1-1.78-1.92l1.35-.67a3.47,3.47,0,0,0,.53.82,4.18,4.18,0,0,0,.78.67,3.57,3.57,0,0,0,.94.46,3.2,3.2,0,0,0,1,.16,3,3,0,0,0,1.13-.23,3.71,3.71,0,0,0,1.14-.68,3.84,3.84,0,0,0,.87-1.16,3.57,3.57,0,0,0,.35-1.61,4.09,4.09,0,0,0-.3-1.56,4,4,0,0,0-.81-1.27,3.86,3.86,0,0,0-2.77-1.18,4.67,4.67,0,0,0-1.61.29,6.16,6.16,0,0,0-1.44.76l.13-7.87h7.6Z"/>
            </g>
            <g>
              <path class="cls-4" d="M531.79,436.43h-6.67v-1.55l6.16-10.09h1.81v10.46h2.36v1.18h-2.36v3.79h-1.3Zm0-10.2h0l-5.45,9h5.5Z"/>
              <path class="cls-4" d="M536.51,432.5c0-.55,0-1.13.08-1.75a13.38,13.38,0,0,1,.28-1.81,9.22,9.22,0,0,1,.57-1.68,5,5,0,0,1,.93-1.4,4.06,4.06,0,0,1,1.36-1,5.12,5.12,0,0,1,3.77,0,4.17,4.17,0,0,1,1.36,1,5,5,0,0,1,.93,1.4,8.5,8.5,0,0,1,.56,1.68,12,12,0,0,1,.29,1.81c.05.62.07,1.2.07,1.75s0,1.16-.07,1.77a12.06,12.06,0,0,1-.29,1.8,8.63,8.63,0,0,1-.56,1.67,5.23,5.23,0,0,1-.93,1.41,4.17,4.17,0,0,1-1.36,1,5.12,5.12,0,0,1-3.77,0,4.06,4.06,0,0,1-1.36-1,5.23,5.23,0,0,1-.93-1.41,9.39,9.39,0,0,1-.57-1.67,13.48,13.48,0,0,1-.28-1.8C536.54,433.66,536.51,433.07,536.51,432.5Zm1.44,0c0,.41,0,.86,0,1.34a13.08,13.08,0,0,0,.17,1.49,9.33,9.33,0,0,0,.38,1.47,4.92,4.92,0,0,0,.66,1.27,3,3,0,0,0,1,.89,2.73,2.73,0,0,0,1.41.34A2.78,2.78,0,0,0,543,439a3,3,0,0,0,1-.89,4.92,4.92,0,0,0,.66-1.27,10.57,10.57,0,0,0,.38-1.47c.08-.51.14-1,.17-1.49s0-.93,0-1.34,0-.83,0-1.33-.09-1-.17-1.49a10.57,10.57,0,0,0-.38-1.47,4.92,4.92,0,0,0-.66-1.27,3.19,3.19,0,0,0-1-.9,3.07,3.07,0,0,0-2.81,0,3.09,3.09,0,0,0-1,.9,4.92,4.92,0,0,0-.66,1.27,9.33,9.33,0,0,0-.38,1.47,12.83,12.83,0,0,0-.17,1.49C538,431.67,538,432.11,538,432.5Z"/>
            </g>
          </g>
          <line class="cls-5" x1="71.05" y1="419.44" x2="535.95" y2="419.44"/>
          <g>
            <line class="cls-5" x1="71.05" y1="419.44" x2="71.05" y2="412.35"/>
            <line class="cls-5" x1="129.16" y1="419.44" x2="129.16" y2="412.35"/>
            <line class="cls-5" x1="187.28" y1="419.44" x2="187.28" y2="412.35"/>
            <line class="cls-5" x1="245.39" y1="419.44" x2="245.39" y2="412.35"/>
            <line class="cls-5" x1="303.5" y1="419.44" x2="303.5" y2="412.35"/>
            <line class="cls-5" x1="361.61" y1="419.44" x2="361.61" y2="412.35"/>
            <line class="cls-5" x1="419.72" y1="419.44" x2="419.72" y2="412.35"/>
            <line class="cls-5" x1="477.84" y1="419.44" x2="477.84" y2="412.35"/>
            <line class="cls-5" x1="535.95" y1="419.44" x2="535.95" y2="412.35"/>
          </g>
        </g>
        <g>
          <line class="cls-5" x1="71.05" y1="419.44" x2="71.05" y2="135.67"/>
          <line class="cls-5" x1="71.05" y1="277.55" x2="82.68" y2="277.55"/>
        </g>
        <g>
          <rect class="cls-6" x="71.05" y="347.93" width="174.34" height="40.86"/>
          <rect class="cls-7" x="71.05" y="302.53" width="145.28" height="40.86"/>
          <rect class="cls-8" x="71.05" y="257.12" width="435.84" height="40.86"/>
          <rect class="cls-9" x="71.05" y="211.72" width="406.78" height="40.86"/>
        </g>
      </g>
      <g>
        <path class="cls-4" d="M167.44,323.3c0-.12,0-.27,0-.44s0-.34,0-.51,0-.34,0-.49,0-.27,0-.35h.81c0,.24,0,.47,0,.69a2.55,2.55,0,0,0,0,.42h.05a2.16,2.16,0,0,1,.81-.9,2.36,2.36,0,0,1,1.33-.38,2.6,2.6,0,0,1,1.19.24,1.88,1.88,0,0,1,.72.61,2.27,2.27,0,0,1,.37.87,4.9,4.9,0,0,1,.1,1v3.79H172v-3.75a4.76,4.76,0,0,0-.07-.75,2.19,2.19,0,0,0-.24-.65,1.22,1.22,0,0,0-.47-.46,1.57,1.57,0,0,0-.79-.17,2.37,2.37,0,0,0-.85.15,1.78,1.78,0,0,0-.69.49,2.12,2.12,0,0,0-.46.81,3.32,3.32,0,0,0-.17,1.15v3.18h-.81Z"/>
        <path class="cls-4" d="M180.49,326.67a2.67,2.67,0,0,1-1.17,1.05,3.66,3.66,0,0,1-1.54.32,3.33,3.33,0,0,1-1.29-.25,3,3,0,0,1-1-.7,3.07,3.07,0,0,1-.64-1.06,3.92,3.92,0,0,1-.23-1.36,3.6,3.6,0,0,1,.24-1.32,3.15,3.15,0,0,1,.65-1.05,3,3,0,0,1,1-.7,3.18,3.18,0,0,1,2.52,0,2.74,2.74,0,0,1,1.48,1.63,3.17,3.17,0,0,1,.19,1.09v.58h-5.25a2.71,2.71,0,0,0,.1.66,2.51,2.51,0,0,0,.37.8,2.47,2.47,0,0,0,.73.66,2.25,2.25,0,0,0,1.17.27,2.57,2.57,0,0,0,1.2-.3,2.19,2.19,0,0,0,.9-.83Zm-.62-2.52a1.83,1.83,0,0,0-.17-.8,2,2,0,0,0-.46-.65,2.06,2.06,0,0,0-.69-.45,2.22,2.22,0,0,0-.85-.16,2.06,2.06,0,0,0-1.1.27,2.53,2.53,0,0,0-.7.63,2.46,2.46,0,0,0-.36.7,1.56,1.56,0,0,0-.11.46Z"/>
        <path class="cls-4" d="M187.8,326.08c0,.12,0,.26,0,.43s0,.35,0,.52,0,.34,0,.49,0,.27,0,.35h-.81c0-.24,0-.47,0-.69a1.91,1.91,0,0,0,0-.43h0a2.36,2.36,0,0,1-2.14,1.29,2.61,2.61,0,0,1-1.2-.24,1.84,1.84,0,0,1-.73-.61,2.16,2.16,0,0,1-.36-.88,4.9,4.9,0,0,1-.1-1v-3.78h.81v3.74a4.54,4.54,0,0,0,.07.75,2.15,2.15,0,0,0,.24.66,1.3,1.3,0,0,0,.47.46,1.69,1.69,0,0,0,.8.17,2.17,2.17,0,0,0,.84-.16,1.66,1.66,0,0,0,.69-.48,2.2,2.2,0,0,0,.46-.81,3.36,3.36,0,0,0,.17-1.15v-3.18h.82Z"/>
        <path class="cls-4" d="M193.09,322.25h-1.78v4.15a.89.89,0,0,0,.23.66.85.85,0,0,0,.63.23,1.89,1.89,0,0,0,.47-.06,2.18,2.18,0,0,0,.45-.16l.07.75-.53.15a2.76,2.76,0,0,1-.53.07,2.08,2.08,0,0,1-.74-.13,1.27,1.27,0,0,1-.5-.36,1.34,1.34,0,0,1-.28-.51,2.2,2.2,0,0,1-.09-.64v-4.15h-1.35v-.74h1.35v-1.84h.82v1.84h1.78Z"/>
        <path class="cls-4" d="M194.54,323.3c0-.12,0-.27,0-.44s0-.34,0-.51,0-.34,0-.49,0-.27,0-.35h.82c0,.24,0,.47,0,.69a1.74,1.74,0,0,0,0,.42,3,3,0,0,1,.8-.92,2,2,0,0,1,1.19-.36l.24,0,.24.05-.1.81a1.18,1.18,0,0,0-.31-.05,2.27,2.27,0,0,0-.91.17,1.62,1.62,0,0,0-.64.48,1.88,1.88,0,0,0-.37.7,3.17,3.17,0,0,0-.12.88v3.47h-.82Z"/>
        <path class="cls-4" d="M203.92,325.2V326q0,.38,0,.69c0,.21,0,.41,0,.59a5.14,5.14,0,0,0,.06.55h-.76a6.53,6.53,0,0,1-.08-1h0a2.32,2.32,0,0,1-.87.91A2.74,2.74,0,0,1,201,328a3.09,3.09,0,0,1-.8-.11,2.2,2.2,0,0,1-.71-.33,1.88,1.88,0,0,1-.5-.58,2,2,0,0,1,.17-2,2.25,2.25,0,0,1,.9-.64,4.15,4.15,0,0,1,1.13-.27,8.8,8.8,0,0,1,1.07-.07h.95v-.38a1.38,1.38,0,0,0-.5-1.19,2.13,2.13,0,0,0-1.26-.35,2.84,2.84,0,0,0-1.92.71l-.47-.56a2.83,2.83,0,0,1,1.11-.67,4,4,0,0,1,1.28-.23,2.77,2.77,0,0,1,1.81.55,2.11,2.11,0,0,1,.68,1.75Zm-1.63-.53a8,8,0,0,0-1,.07,3.69,3.69,0,0,0-.87.24,1.69,1.69,0,0,0-.62.44,1,1,0,0,0-.23.69,1.07,1.07,0,0,0,.13.51,1.23,1.23,0,0,0,.33.38,1.78,1.78,0,0,0,.46.22,1.68,1.68,0,0,0,.5.07,2.5,2.5,0,0,0,1.07-.19,1.88,1.88,0,0,0,.68-.5,1.8,1.8,0,0,0,.34-.71,3.49,3.49,0,0,0,.1-.79v-.43Z"/>
        <path class="cls-4" d="M206.22,317.46H207v10.41h-.81Z"/>
      </g>
      <g>
        <path class="cls-4" d="M398.27,280.93a1.74,1.74,0,0,0,.76.78,2.15,2.15,0,0,0,1.05.26,1.57,1.57,0,0,0,.52-.08,1.53,1.53,0,0,0,.46-.23,1.31,1.31,0,0,0,.33-.37.88.88,0,0,0,.13-.49.79.79,0,0,0-.28-.66,2.06,2.06,0,0,0-.68-.34c-.27-.08-.57-.15-.9-.22a3.55,3.55,0,0,1-.89-.27,2,2,0,0,1-.69-.52,1.43,1.43,0,0,1-.27-.93A1.63,1.63,0,0,1,398,277a1.69,1.69,0,0,1,.49-.57,2.28,2.28,0,0,1,.68-.34A3,3,0,0,1,400,276a2.9,2.9,0,0,1,1.33.29,2,2,0,0,1,.88.91l-.74.44a1.69,1.69,0,0,0-.57-.66,1.54,1.54,0,0,0-.9-.23,1.51,1.51,0,0,0-.46.07,1.35,1.35,0,0,0-.42.19,1,1,0,0,0-.32.32.74.74,0,0,0-.13.44.73.73,0,0,0,.28.63,2.05,2.05,0,0,0,.68.33c.27.07.57.14.9.2a3.54,3.54,0,0,1,.89.26,1.9,1.9,0,0,1,.68.54,1.55,1.55,0,0,1,.28,1,1.91,1.91,0,0,1-.18.86,1.75,1.75,0,0,1-.5.61,2.1,2.1,0,0,1-.73.37,2.65,2.65,0,0,1-.85.13,3.42,3.42,0,0,1-1.48-.32,2.2,2.2,0,0,1-1-1Z"/>
        <path class="cls-4" d="M403.67,279.37a3.44,3.44,0,0,1,.25-1.34,3.14,3.14,0,0,1,.67-1.06,3.07,3.07,0,0,1,1.05-.7A3.56,3.56,0,0,1,407,276a3.62,3.62,0,0,1,1.33.25,3.23,3.23,0,0,1,1,.7A3.16,3.16,0,0,1,410,278a3.44,3.44,0,0,1,.25,1.34,3.4,3.4,0,0,1-.25,1.34,3,3,0,0,1-1.72,1.76,3.42,3.42,0,0,1-1.33.25,3.37,3.37,0,0,1-1.32-.25,3,3,0,0,1-1.05-.69,3.18,3.18,0,0,1-.67-1.07A3.4,3.4,0,0,1,403.67,279.37Zm.82,0a2.78,2.78,0,0,0,.17,1,2.23,2.23,0,0,0,.49.83,2.51,2.51,0,0,0,.79.56,2.73,2.73,0,0,0,2.05,0,2.51,2.51,0,0,0,.79-.56,2.23,2.23,0,0,0,.49-.83,2.78,2.78,0,0,0,.17-1,2.82,2.82,0,0,0-.17-1,2.31,2.31,0,0,0-.49-.83A2.34,2.34,0,0,0,408,277a2.61,2.61,0,0,0-2.05,0,2.34,2.34,0,0,0-.79.55,2.31,2.31,0,0,0-.49.83A2.82,2.82,0,0,0,404.49,279.37Z"/>
        <path class="cls-4" d="M412.07,278c0-.12,0-.26,0-.43s0-.35,0-.52,0-.34,0-.49,0-.27,0-.35h.82c0,.24,0,.47,0,.69a1.91,1.91,0,0,0,0,.43h0a2.32,2.32,0,0,1,.81-.91,2.38,2.38,0,0,1,1.33-.38,2.05,2.05,0,0,1,1.14.33,1.88,1.88,0,0,1,.75,1,2,2,0,0,1,.88-1,2.44,2.44,0,0,1,1.24-.34,2.54,2.54,0,0,1,1.19.24,1.91,1.91,0,0,1,.73.61,2.32,2.32,0,0,1,.37.88,5.69,5.69,0,0,1,.1,1v3.78h-.82v-3.74a4.56,4.56,0,0,0-.06-.75,2.15,2.15,0,0,0-.24-.66,1.3,1.3,0,0,0-.47-.46,1.69,1.69,0,0,0-.8-.17,1.83,1.83,0,0,0-.93.21,1.62,1.62,0,0,0-.58.55,2.34,2.34,0,0,0-.3.71,3.88,3.88,0,0,0-.08.73v3.58h-.82v-3.83a2.65,2.65,0,0,0-.32-1.41,1.06,1.06,0,0,0-1-.54,2.13,2.13,0,0,0-.84.16,1.76,1.76,0,0,0-.7.48,2.53,2.53,0,0,0-.46.81,3.62,3.62,0,0,0-.17,1.15v3.18h-.81Z"/>
        <path class="cls-4" d="M429.14,281.36a2.82,2.82,0,0,1-1.17,1,3.72,3.72,0,0,1-1.54.32,3.21,3.21,0,0,1-1.3-.25,2.93,2.93,0,0,1-1-.69,3,3,0,0,1-.64-1.07,3.86,3.86,0,0,1-.23-1.35,3.73,3.73,0,0,1,.23-1.32,3.25,3.25,0,0,1,.65-1.06,3,3,0,0,1,1-.7,3.05,3.05,0,0,1,1.26-.26,3,3,0,0,1,1.27.26,2.84,2.84,0,0,1,.92.67,2.89,2.89,0,0,1,.56,1,3.17,3.17,0,0,1,.19,1.09v.58h-5.26a2.87,2.87,0,0,0,.11.67,2.26,2.26,0,0,0,.37.79,2.14,2.14,0,0,0,1.9.93,2.6,2.6,0,0,0,1.2-.3,2.15,2.15,0,0,0,.89-.82Zm-.62-2.53a1.9,1.9,0,0,0-.17-.79,2.18,2.18,0,0,0-.46-.66,2.29,2.29,0,0,0-.69-.45,2.22,2.22,0,0,0-.85-.16,2.06,2.06,0,0,0-1.1.27,2.42,2.42,0,0,0-.7.64,2.6,2.6,0,0,0-.37.69,2.1,2.1,0,0,0-.11.46Z"/>
        <path class="cls-4" d="M430.27,276.19h.89l1.52,5.33h0l1.75-5.33h.77l1.86,5.33h0l1.47-5.33h.82l-1.85,6.36h-.84l-1.87-5.2h0l-1.75,5.2h-.84Z"/>
        <path class="cls-4" d="M440.68,272.14h.82v5.17h0a2.36,2.36,0,0,1,2.14-1.29,2.61,2.61,0,0,1,1.2.24,2,2,0,0,1,.72.61,2.32,2.32,0,0,1,.37.88,5.69,5.69,0,0,1,.1,1v3.78h-.81v-3.74a4.54,4.54,0,0,0-.07-.75,2.15,2.15,0,0,0-.24-.66,1.3,1.3,0,0,0-.47-.46,1.69,1.69,0,0,0-.8-.17,2.17,2.17,0,0,0-.84.16,1.66,1.66,0,0,0-.69.48,2.2,2.2,0,0,0-.46.81,3.36,3.36,0,0,0-.17,1.15v3.18h-.82Z"/>
        <path class="cls-4" d="M453.08,279.88c0,.31,0,.59,0,.84s0,.48,0,.69,0,.41,0,.59a4.87,4.87,0,0,0,.06.55h-.76a6.43,6.43,0,0,1-.08-1h0a2.25,2.25,0,0,1-.87.91,2.74,2.74,0,0,1-1.32.29,3.58,3.58,0,0,1-.8-.1,2.06,2.06,0,0,1-.7-.33,1.74,1.74,0,0,1-.71-1.46,1.7,1.7,0,0,1,.37-1.16,2.35,2.35,0,0,1,.9-.64,4.14,4.14,0,0,1,1.14-.27c.4,0,.75-.06,1.06-.06h1v-.39a1.36,1.36,0,0,0-.5-1.18,2.13,2.13,0,0,0-1.26-.36,2.84,2.84,0,0,0-1.91.71l-.48-.56a3,3,0,0,1,1.11-.67,4,4,0,0,1,1.28-.23,2.83,2.83,0,0,1,1.81.55,2.13,2.13,0,0,1,.68,1.76Zm-1.63-.52a6.41,6.41,0,0,0-1,.07,3.26,3.26,0,0,0-.87.23,1.69,1.69,0,0,0-.62.44,1.06,1.06,0,0,0-.23.69,1.11,1.11,0,0,0,.13.52,1.31,1.31,0,0,0,.33.37,1.5,1.5,0,0,0,.46.22,1.7,1.7,0,0,0,.51.07,2.56,2.56,0,0,0,1.07-.19,1.71,1.71,0,0,0,1-1.2,3.06,3.06,0,0,0,.1-.79v-.43Z"/>
        <path class="cls-4" d="M458.31,276.93h-1.79v4.15a.93.93,0,0,0,.23.66.84.84,0,0,0,.64.23,1.82,1.82,0,0,0,.46-.06,2.51,2.51,0,0,0,.46-.16l.07.75-.53.15a2.21,2.21,0,0,1-.53.07,2.1,2.1,0,0,1-.75-.13,1.54,1.54,0,0,1-.5-.35,1.36,1.36,0,0,1-.27-.52,2.2,2.2,0,0,1-.09-.64v-4.15h-1.36v-.74h1.36v-1.83h.81v1.83h1.79Z"/>
        <path class="cls-4" d="M463.1,276.19h.82v1.12h0a2.1,2.1,0,0,1,.48-.58,3.06,3.06,0,0,1,.61-.4,3.54,3.54,0,0,1,1.42-.31,3.53,3.53,0,0,1,1.32.25,3.13,3.13,0,0,1,1,.7,3,3,0,0,1,.69,1.06,3.63,3.63,0,0,1,.24,1.34,3.59,3.59,0,0,1-.24,1.34,3.08,3.08,0,0,1-1.73,1.76,3.34,3.34,0,0,1-1.32.25,3.54,3.54,0,0,1-1.42-.31,3.06,3.06,0,0,1-.61-.4,2.21,2.21,0,0,1-.48-.57h0v4.25h-.82Zm.74,3.18a2.43,2.43,0,0,0,.2,1,2.51,2.51,0,0,0,.55.83,2.82,2.82,0,0,0,.83.56,2.52,2.52,0,0,0,1,.2,2.46,2.46,0,0,0,1-.2,2.51,2.51,0,0,0,.79-.56,2.37,2.37,0,0,0,.49-.83,3,3,0,0,0,.17-1,3.06,3.06,0,0,0-.17-1,2.47,2.47,0,0,0-.49-.83,2.34,2.34,0,0,0-.79-.55,2.46,2.46,0,0,0-1-.21,2.53,2.53,0,0,0-1,.21,2.5,2.5,0,0,0-1.38,1.38A2.46,2.46,0,0,0,463.84,279.37Z"/>
        <path class="cls-4" d="M471.56,278c0-.12,0-.26,0-.43s0-.35,0-.52,0-.34,0-.49,0-.27,0-.35h.81c0,.24,0,.47,0,.69a2.44,2.44,0,0,0,0,.43,2.68,2.68,0,0,1,.8-.93,1.93,1.93,0,0,1,1.19-.36.85.85,0,0,1,.23,0l.24,0-.09.82a.89.89,0,0,0-.31-.06,2.32,2.32,0,0,0-.92.17,1.83,1.83,0,0,0-.64.48,2.09,2.09,0,0,0-.37.71,3,3,0,0,0-.12.87v3.47h-.81Z"/>
        <path class="cls-4" d="M475.47,279.37a3.44,3.44,0,0,1,.25-1.34,3.14,3.14,0,0,1,.67-1.06,3.07,3.07,0,0,1,1.05-.7,3.61,3.61,0,0,1,2.64,0,3.08,3.08,0,0,1,1.73,1.76,3.63,3.63,0,0,1,.25,1.34,3.59,3.59,0,0,1-.25,1.34,3.21,3.21,0,0,1-.68,1.07,3.14,3.14,0,0,1-1.05.69,3.61,3.61,0,0,1-2.64,0,3,3,0,0,1-1.05-.69,3.18,3.18,0,0,1-.67-1.07A3.4,3.4,0,0,1,475.47,279.37Zm.81,0a3,3,0,0,0,.17,1,2.39,2.39,0,0,0,.5.83,2.35,2.35,0,0,0,1.81.76,2.43,2.43,0,0,0,1-.2,2.51,2.51,0,0,0,.79-.56,2.23,2.23,0,0,0,.49-.83,2.78,2.78,0,0,0,.17-1,2.82,2.82,0,0,0-.17-1,2.31,2.31,0,0,0-.49-.83,2.34,2.34,0,0,0-.79-.55,2.43,2.43,0,0,0-1-.21,2.46,2.46,0,0,0-1,.21,2.3,2.3,0,0,0-.78.55,2.49,2.49,0,0,0-.5.83A3.06,3.06,0,0,0,476.28,279.37Z"/>
        <path class="cls-4" d="M489.17,280.76c0,.12,0,.27,0,.44s0,.34,0,.51,0,.34,0,.49,0,.27,0,.35h-.82c0-.24,0-.47,0-.68a1.79,1.79,0,0,0,0-.43h0a2.3,2.3,0,0,1-.81.9,2.38,2.38,0,0,1-1.33.38,2.61,2.61,0,0,1-1.2-.24,1.84,1.84,0,0,1-.73-.61,2.11,2.11,0,0,1-.36-.87,4.9,4.9,0,0,1-.1-1v-3.79h.82v3.75a4.74,4.74,0,0,0,.06.75,2.19,2.19,0,0,0,.24.65,1.22,1.22,0,0,0,.47.46,1.58,1.58,0,0,0,.8.17,2.32,2.32,0,0,0,.84-.15,1.89,1.89,0,0,0,.7-.49,2.42,2.42,0,0,0,.46-.81,3.57,3.57,0,0,0,.17-1.15v-3.18h.81Z"/>
        <path class="cls-4" d="M496.88,281.44h0a2.21,2.21,0,0,1-.48.57,2.79,2.79,0,0,1-.61.4,3.38,3.38,0,0,1-.7.23,3.53,3.53,0,0,1-.72.08,3.34,3.34,0,0,1-1.32-.25,3,3,0,0,1-1-.69,3.37,3.37,0,0,1-.68-1.07,3.59,3.59,0,0,1-.24-1.34,3.63,3.63,0,0,1,.24-1.34A3.33,3.33,0,0,1,492,277a3.07,3.07,0,0,1,1-.7,3.49,3.49,0,0,1,2-.17,3.38,3.38,0,0,1,.7.23,2.79,2.79,0,0,1,.61.4,2.1,2.1,0,0,1,.48.58h0v-5.17h.81v10.41h-.81Zm.08-2.07a2.47,2.47,0,0,0-.21-1,2.5,2.5,0,0,0-1.38-1.38,2.5,2.5,0,0,0-1-.21,2.46,2.46,0,0,0-1,.21,2.3,2.3,0,0,0-.78.55,2.49,2.49,0,0,0-.5.83,3.06,3.06,0,0,0-.17,1,3,3,0,0,0,.17,1,2.39,2.39,0,0,0,.5.83,2.6,2.6,0,0,0,2.84.56,2.82,2.82,0,0,0,.83-.56,2.51,2.51,0,0,0,.55-.83A2.44,2.44,0,0,0,497,279.37Z"/>
      </g>
      <g>
        <path class="cls-4" d="M404.46,229.74h.92l2.09,5.47,2-5.47h.83l-2.47,6.36H407Z"/>
        <path class="cls-4" d="M417.14,234.9a2.67,2.67,0,0,1-1.17,1,3.69,3.69,0,0,1-1.54.32,3.42,3.42,0,0,1-1.3-.25,3.06,3.06,0,0,1-1-.7,3,3,0,0,1-.64-1.06,4,4,0,0,1,0-2.68,3.17,3.17,0,0,1,.66-1.05,2.88,2.88,0,0,1,1-.7,3.05,3.05,0,0,1,1.26-.26,3,3,0,0,1,1.27.26,2.74,2.74,0,0,1,1.48,1.63,3.17,3.17,0,0,1,.19,1.09v.58h-5.25a2.71,2.71,0,0,0,.1.66,2.41,2.41,0,0,0,.37.8,2.47,2.47,0,0,0,.73.66,2.25,2.25,0,0,0,1.17.27,2.57,2.57,0,0,0,1.2-.3,2.19,2.19,0,0,0,.9-.83Zm-.62-2.52a2,2,0,0,0-.17-.8,2.26,2.26,0,0,0-.46-.65,2.06,2.06,0,0,0-.69-.45,2.22,2.22,0,0,0-.85-.16,2.06,2.06,0,0,0-1.1.27,2.49,2.49,0,0,0-1.06,1.33,1.63,1.63,0,0,0-.11.46Z"/>
        <path class="cls-4" d="M419.15,231.53c0-.12,0-.26,0-.43l0-.52c0-.17,0-.34,0-.49s0-.27,0-.35h.81c0,.24,0,.47,0,.69a2.18,2.18,0,0,0,0,.42,2.85,2.85,0,0,1,.8-.92,1.93,1.93,0,0,1,1.19-.36l.24,0,.23,0-.09.81a1.18,1.18,0,0,0-.31,0,2.36,2.36,0,0,0-.92.17,1.79,1.79,0,0,0-.63.48,1.94,1.94,0,0,0-.38.71,3,3,0,0,0-.12.87v3.47h-.81Z"/>
        <path class="cls-4" d="M425.42,238.07a2.24,2.24,0,0,1-.64,1,1.57,1.57,0,0,1-1.08.36,2,2,0,0,1-.41,0l-.39-.09.08-.77.36.11a1.55,1.55,0,0,0,.37,0,.8.8,0,0,0,.39-.09,1.16,1.16,0,0,0,.29-.25,1.63,1.63,0,0,0,.21-.34c.06-.12.11-.25.16-.38l.57-1.47-2.55-6.39h.91l2.07,5.36,2-5.36h.87Z"/>
        <path class="cls-4" d="M433.28,229.74h.81v1.11h0a2,2,0,0,1,.47-.57,3.12,3.12,0,0,1,.62-.4,3.19,3.19,0,0,1,.7-.23,3.51,3.51,0,0,1,.71-.08,3.62,3.62,0,0,1,1.33.25,3.13,3.13,0,0,1,1,.7,3.16,3.16,0,0,1,.68,1.06,3.44,3.44,0,0,1,.25,1.34,3.4,3.4,0,0,1-.25,1.34,3.07,3.07,0,0,1-.68,1.06,3.13,3.13,0,0,1-1,.7,3.62,3.62,0,0,1-1.33.25,3.51,3.51,0,0,1-.71-.08,3.19,3.19,0,0,1-.7-.23,3.12,3.12,0,0,1-.62-.4,2,2,0,0,1-.47-.57h0v4.25h-.81Zm.73,3.18a2.6,2.6,0,0,0,.2,1,2.53,2.53,0,0,0,.56.83,2.7,2.7,0,0,0,.83.56,2.73,2.73,0,0,0,2,0,2.51,2.51,0,0,0,.79-.56,2.23,2.23,0,0,0,.49-.83,3.09,3.09,0,0,0,0-2,2.31,2.31,0,0,0-.49-.83,2.51,2.51,0,0,0-.79-.56,2.73,2.73,0,0,0-2,0,2.7,2.7,0,0,0-.83.56,2.64,2.64,0,0,0-.56.83A2.6,2.6,0,0,0,434,232.92Z"/>
        <path class="cls-4" d="M441.73,231.53c0-.12,0-.26,0-.43s0-.35,0-.52,0-.34,0-.49,0-.27,0-.35h.82c0,.24,0,.47,0,.69a1.74,1.74,0,0,0,0,.42,3,3,0,0,1,.8-.92,2,2,0,0,1,1.19-.36l.24,0,.24,0-.1.81a1.18,1.18,0,0,0-.31,0,2.27,2.27,0,0,0-.91.17,1.83,1.83,0,0,0-.64.48,1.93,1.93,0,0,0-.37.71,3,3,0,0,0-.13.87v3.47h-.81Z"/>
        <path class="cls-4" d="M445.65,232.92a3.63,3.63,0,0,1,.24-1.34,3.16,3.16,0,0,1,.68-1.06,3,3,0,0,1,1-.7,3.62,3.62,0,0,1,1.33-.25,3.53,3.53,0,0,1,1.32.25,3.13,3.13,0,0,1,1,.7,3.19,3.19,0,0,1,.69,1.06,3.63,3.63,0,0,1,.24,1.34,3.59,3.59,0,0,1-.24,1.34,3.09,3.09,0,0,1-.69,1.06,3.13,3.13,0,0,1-1,.7,3.53,3.53,0,0,1-1.32.25,3.62,3.62,0,0,1-1.33-.25,3,3,0,0,1-1-.7,3.07,3.07,0,0,1-.68-1.06A3.59,3.59,0,0,1,445.65,232.92Zm.81,0a3,3,0,0,0,.17,1,2.37,2.37,0,0,0,.49.83,2.51,2.51,0,0,0,.79.56,2.75,2.75,0,0,0,2.06,0,2.36,2.36,0,0,0,.78-.56,2.25,2.25,0,0,0,.5-.83,3.09,3.09,0,0,0,0-2,2.33,2.33,0,0,0-.5-.83,2.36,2.36,0,0,0-.78-.56,2.75,2.75,0,0,0-2.06,0,2.51,2.51,0,0,0-.79.56,2.47,2.47,0,0,0-.49.83A3,3,0,0,0,446.46,232.92Z"/>
        <path class="cls-4" d="M459.34,234.31c0,.12,0,.27,0,.44s0,.34,0,.51,0,.34,0,.49,0,.27,0,.35h-.81c0-.24,0-.47,0-.69a2.18,2.18,0,0,0,0-.42h0a2.16,2.16,0,0,1-.81.9,2.36,2.36,0,0,1-1.33.38,2.67,2.67,0,0,1-1.2-.24,1.91,1.91,0,0,1-.73-.61,2.42,2.42,0,0,1-.36-.87,5.69,5.69,0,0,1-.09-1v-3.79h.81v3.75a3.81,3.81,0,0,0,.07.75,1.75,1.75,0,0,0,.24.65,1.22,1.22,0,0,0,.47.46,1.54,1.54,0,0,0,.79.17,2.41,2.41,0,0,0,.85-.15,1.78,1.78,0,0,0,.69-.49,2.26,2.26,0,0,0,.46-.81,3.57,3.57,0,0,0,.17-1.15v-3.18h.81Z"/>
        <path class="cls-4" d="M467.05,235h0a2.21,2.21,0,0,1-.48.57,2.86,2.86,0,0,1-.62.4,3.29,3.29,0,0,1-.69.23,3.69,3.69,0,0,1-.72.08,3.62,3.62,0,0,1-1.33-.25,3,3,0,0,1-1-.7,3.07,3.07,0,0,1-.68-1.06,3.59,3.59,0,0,1-.24-1.34,3.63,3.63,0,0,1,.24-1.34,3.16,3.16,0,0,1,.68-1.06,3,3,0,0,1,1-.7,3.62,3.62,0,0,1,1.33-.25,3.69,3.69,0,0,1,.72.08,3.29,3.29,0,0,1,.69.23,2.86,2.86,0,0,1,.62.4,2.21,2.21,0,0,1,.48.57h0v-5.16h.81V236.1h-.81Zm.08-2.07a2.43,2.43,0,0,0-.2-1,2.64,2.64,0,0,0-.56-.83,2.77,2.77,0,0,0-.82-.56,2.7,2.7,0,0,0-1-.2,2.63,2.63,0,0,0-1,.2,2.51,2.51,0,0,0-.79.56,2.47,2.47,0,0,0-.49.83,3.09,3.09,0,0,0,0,2,2.37,2.37,0,0,0,.49.83,2.51,2.51,0,0,0,.79.56,2.63,2.63,0,0,0,1,.2,2.7,2.7,0,0,0,1-.2,2.77,2.77,0,0,0,.82-.56,2.53,2.53,0,0,0,.56-.83A2.43,2.43,0,0,0,467.13,232.92Z"/>
      </g>
      <g>
        <path class="cls-4" d="M128.62,372h0a2,2,0,0,1-.47.57,3.12,3.12,0,0,1-.62.4,3.29,3.29,0,0,1-.69.23,3.69,3.69,0,0,1-.72.08,3.42,3.42,0,0,1-1.33-.25,3,3,0,0,1-1-.69,3.21,3.21,0,0,1-.68-1.07,3.59,3.59,0,0,1-.24-1.34,3.63,3.63,0,0,1,.24-1.34,3.16,3.16,0,0,1,.68-1.06,3,3,0,0,1,1-.7,3.62,3.62,0,0,1,1.33-.25,3.69,3.69,0,0,1,.72.08,3.29,3.29,0,0,1,.69.23,3.12,3.12,0,0,1,.62.4,1.91,1.91,0,0,1,.47.58h0v-5.17h.81v10.41h-.81Zm.08-2.07a2.57,2.57,0,0,0-.76-1.84,2.57,2.57,0,0,0-.82-.55,2.53,2.53,0,0,0-1-.21,2.43,2.43,0,0,0-1,.21,2.34,2.34,0,0,0-.79.55,2.47,2.47,0,0,0-.49.83,2.82,2.82,0,0,0-.17,1,2.78,2.78,0,0,0,.17,1,2.37,2.37,0,0,0,.49.83,2.51,2.51,0,0,0,.79.56,2.43,2.43,0,0,0,1,.2,2.52,2.52,0,0,0,1-.2,2.77,2.77,0,0,0,.82-.56,2.53,2.53,0,0,0,.56-.83A2.6,2.6,0,0,0,128.7,369.88Z"/>
        <path class="cls-4" d="M137,371.87a2.71,2.71,0,0,1-1.17,1,3.69,3.69,0,0,1-1.54.32,3.21,3.21,0,0,1-1.3-.25,2.93,2.93,0,0,1-1-.69,3.11,3.11,0,0,1-.64-1.07,3.86,3.86,0,0,1-.23-1.35,3.73,3.73,0,0,1,.23-1.32,3.25,3.25,0,0,1,.65-1.06,3,3,0,0,1,1-.7,3.05,3.05,0,0,1,1.26-.26,3,3,0,0,1,1.27.26,2.84,2.84,0,0,1,.92.67,2.73,2.73,0,0,1,.56,1,3.17,3.17,0,0,1,.19,1.09v.58h-5.25a2.78,2.78,0,0,0,.1.67,2.46,2.46,0,0,0,.37.79,2.14,2.14,0,0,0,1.9.93,2.6,2.6,0,0,0,1.2-.3,2.24,2.24,0,0,0,.9-.82Zm-.62-2.53a1.9,1.9,0,0,0-.17-.79,2.18,2.18,0,0,0-.46-.66,2.06,2.06,0,0,0-.69-.45,2.22,2.22,0,0,0-.85-.16,2.06,2.06,0,0,0-1.1.27,2.42,2.42,0,0,0-.7.64,2.93,2.93,0,0,0-.37.69,1.9,1.9,0,0,0-.1.46Z"/>
        <path class="cls-4" d="M144.2,372.13a3,3,0,0,1-1,.83,3,3,0,0,1-1.26.27,3.42,3.42,0,0,1-1.33-.25,3,3,0,0,1-1-.69,3.21,3.21,0,0,1-.68-1.07,3.59,3.59,0,0,1-.24-1.34,3.63,3.63,0,0,1,.24-1.34,3.16,3.16,0,0,1,.68-1.06,3,3,0,0,1,1-.7,3.62,3.62,0,0,1,1.33-.25,2.93,2.93,0,0,1,1.28.29,3.56,3.56,0,0,1,1,.82l-.65.49a3.13,3.13,0,0,0-.77-.62,1.81,1.81,0,0,0-.91-.23,2.43,2.43,0,0,0-1,.21,2.34,2.34,0,0,0-.79.55,2.31,2.31,0,0,0-.49.83,2.82,2.82,0,0,0-.17,1,2.78,2.78,0,0,0,.17,1,2.23,2.23,0,0,0,.49.83,2.51,2.51,0,0,0,.79.56,2.43,2.43,0,0,0,1,.2,1.91,1.91,0,0,0,.94-.24,2.5,2.5,0,0,0,.74-.64Z"/>
        <path class="cls-4" d="M145.61,362.65h.81v10.41h-.81Z"/>
        <path class="cls-4" d="M148.67,364.18a.59.59,0,0,1,.18-.44.6.6,0,0,1,.86,0,.59.59,0,0,1,.18.44.6.6,0,0,1-.18.44.6.6,0,0,1-.86,0A.6.6,0,0,1,148.67,364.18Zm.2,2.52h.82v6.36h-.82Z"/>
        <path class="cls-4" d="M152,368.49c0-.12,0-.26,0-.43s0-.35,0-.52,0-.34,0-.49,0-.27,0-.35h.82c0,.24,0,.47,0,.69a1.91,1.91,0,0,0,0,.43h0a2.24,2.24,0,0,1,.81-.91,2.36,2.36,0,0,1,1.33-.38,2.54,2.54,0,0,1,1.19.24,1.91,1.91,0,0,1,.73.61,2.3,2.3,0,0,1,.36.88,4.9,4.9,0,0,1,.1,1v3.78h-.81v-3.74a3.67,3.67,0,0,0-.07-.75,1.91,1.91,0,0,0-.23-.66,1.33,1.33,0,0,0-.48-.46,1.62,1.62,0,0,0-.79-.17,2.22,2.22,0,0,0-.85.16,1.8,1.8,0,0,0-.69.48,2.35,2.35,0,0,0-.46.81,3.62,3.62,0,0,0-.17,1.15v3.18H152Z"/>
        <path class="cls-4" d="M165.05,371.87a2.82,2.82,0,0,1-1.17,1,3.72,3.72,0,0,1-1.54.32A3.21,3.21,0,0,1,161,373a2.93,2.93,0,0,1-1-.69,3.14,3.14,0,0,1-.65-1.07,3.86,3.86,0,0,1-.22-1.35,3.73,3.73,0,0,1,.23-1.32,3.09,3.09,0,0,1,.65-1.06,3,3,0,0,1,1-.7,3.05,3.05,0,0,1,1.26-.26,3,3,0,0,1,1.27.26,2.84,2.84,0,0,1,.92.67,2.89,2.89,0,0,1,.56,1,3.17,3.17,0,0,1,.19,1.09v.58H160a3.39,3.39,0,0,0,.1.67,2.49,2.49,0,0,0,.38.79,2.3,2.3,0,0,0,.72.66,2.25,2.25,0,0,0,1.17.27,2.61,2.61,0,0,0,1.21-.3,2.15,2.15,0,0,0,.89-.82Zm-.62-2.53a1.9,1.9,0,0,0-.17-.79,2.37,2.37,0,0,0-.46-.66,2.29,2.29,0,0,0-.69-.45,2.22,2.22,0,0,0-.85-.16,2.12,2.12,0,0,0-1.11.27,2.51,2.51,0,0,0-.69.64,2.34,2.34,0,0,0-.37.69,2.1,2.1,0,0,0-.11.46Z"/>
        <path class="cls-4" d="M172.53,372h0a2.17,2.17,0,0,1-.47.57,3.12,3.12,0,0,1-.62.4,3.19,3.19,0,0,1-.7.23,3.53,3.53,0,0,1-.72.08,3.37,3.37,0,0,1-1.32-.25,3,3,0,0,1-1-.69,3.18,3.18,0,0,1-.67-1.07,3.4,3.4,0,0,1-.25-1.34,3.44,3.44,0,0,1,.25-1.34,3.14,3.14,0,0,1,.67-1.06,3.07,3.07,0,0,1,1-.7,3.49,3.49,0,0,1,2-.17,3.19,3.19,0,0,1,.7.23,3.12,3.12,0,0,1,.62.4,2.06,2.06,0,0,1,.47.58h0v-5.17h.81v10.41h-.81Zm.08-2.07a2.64,2.64,0,0,0-.2-1,2.82,2.82,0,0,0-.56-.83,2.61,2.61,0,0,0-.83-.55,2.5,2.5,0,0,0-1-.21,2.46,2.46,0,0,0-1,.21,2.4,2.4,0,0,0-.78.55,2.49,2.49,0,0,0-.5.83,3.06,3.06,0,0,0-.17,1,3,3,0,0,0,.17,1,2.39,2.39,0,0,0,.5.83,2.59,2.59,0,0,0,.78.56,2.46,2.46,0,0,0,1,.2,2.49,2.49,0,0,0,1-.2,2.82,2.82,0,0,0,.83-.56,2.7,2.7,0,0,0,.56-.83A2.6,2.6,0,0,0,172.61,369.88Z"/>
        <path class="cls-4" d="M181.92,367.44h-1.79v4.15a.89.89,0,0,0,.23.66.82.82,0,0,0,.63.23,1.89,1.89,0,0,0,.47-.06,2.51,2.51,0,0,0,.46-.16l.06.75-.53.15a2.67,2.67,0,0,1-.52.07,2.1,2.1,0,0,1-.75-.13,1.44,1.44,0,0,1-.5-.35,1.38,1.38,0,0,1-.28-.52,2.2,2.2,0,0,1-.09-.64v-4.15H178v-.74h1.35v-1.83h.82v1.83h1.79Z"/>
        <path class="cls-4" d="M183,369.88a3.44,3.44,0,0,1,.25-1.34,3.14,3.14,0,0,1,.67-1.06,3.07,3.07,0,0,1,1-.7,3.56,3.56,0,0,1,1.32-.25,3.62,3.62,0,0,1,1.33.25,3.23,3.23,0,0,1,1,.7,3.16,3.16,0,0,1,.68,1.06,3.44,3.44,0,0,1,.25,1.34,3.4,3.4,0,0,1-.25,1.34,3,3,0,0,1-1.72,1.76,3.42,3.42,0,0,1-1.33.25A3.37,3.37,0,0,1,185,373a3,3,0,0,1-1-.69,3.18,3.18,0,0,1-.67-1.07A3.4,3.4,0,0,1,183,369.88Zm.81,0a3,3,0,0,0,.17,1,2.39,2.39,0,0,0,.5.83,2.51,2.51,0,0,0,.79.56,2.73,2.73,0,0,0,2.05,0,2.51,2.51,0,0,0,.79-.56,2.23,2.23,0,0,0,.49-.83,2.78,2.78,0,0,0,.17-1,2.82,2.82,0,0,0-.17-1,2.31,2.31,0,0,0-.49-.83,2.34,2.34,0,0,0-.79-.55,2.61,2.61,0,0,0-2.05,0,2.34,2.34,0,0,0-.79.55,2.49,2.49,0,0,0-.5.83A3.06,3.06,0,0,0,183.82,369.88Z"/>
        <path class="cls-4" d="M199.8,370.39v.84c0,.25,0,.48,0,.69s0,.41,0,.59a4.87,4.87,0,0,0,.06.55h-.76a6.43,6.43,0,0,1-.08-1h0a2.25,2.25,0,0,1-.87.91,2.74,2.74,0,0,1-1.32.29,3.09,3.09,0,0,1-.8-.11,1.85,1.85,0,0,1-.71-.33,1.77,1.77,0,0,1-.5-.58,2,2,0,0,1,.17-2,2.35,2.35,0,0,1,.9-.64,4.15,4.15,0,0,1,1.13-.27c.41,0,.76-.06,1.07-.06h.95v-.39a1.35,1.35,0,0,0-.5-1.18,2.13,2.13,0,0,0-1.26-.36,2.89,2.89,0,0,0-1.92.71l-.47-.56a3,3,0,0,1,1.11-.67,4,4,0,0,1,1.28-.23,2.83,2.83,0,0,1,1.81.55,2.12,2.12,0,0,1,.68,1.75Zm-1.63-.52a6.41,6.41,0,0,0-1,.07,3.26,3.26,0,0,0-.87.23,1.69,1.69,0,0,0-.62.44,1,1,0,0,0-.23.69,1.14,1.14,0,0,0,.13.52,1.31,1.31,0,0,0,.33.37,1.5,1.5,0,0,0,.46.22,1.68,1.68,0,0,0,.5.07,2.5,2.5,0,0,0,1.07-.19,1.77,1.77,0,0,0,.68-.5,1.83,1.83,0,0,0,.34-.7,3.58,3.58,0,0,0,.1-.8v-.42Z"/>
        <path class="cls-4" d="M202,368.49c0-.12,0-.26,0-.43s0-.35,0-.52,0-.34,0-.49,0-.27,0-.35h.81c0,.24,0,.47,0,.69s0,.36,0,.43h.05a2.24,2.24,0,0,1,.81-.91,2.36,2.36,0,0,1,1.33-.38,2.6,2.6,0,0,1,1.19.24,1.81,1.81,0,0,1,.72.61,2.32,2.32,0,0,1,.37.88,4.9,4.9,0,0,1,.1,1v3.78h-.81v-3.74a4.54,4.54,0,0,0-.07-.75,2.15,2.15,0,0,0-.24-.66,1.3,1.3,0,0,0-.47-.46,1.68,1.68,0,0,0-.79-.17,2.18,2.18,0,0,0-.85.16,1.66,1.66,0,0,0-.69.48,2.2,2.2,0,0,0-.46.81,3.36,3.36,0,0,0-.17,1.15v3.18H202Z"/>
        <path class="cls-4" d="M209.51,371.44a1.79,1.79,0,0,0,.76.78,2.19,2.19,0,0,0,1.06.26,1.51,1.51,0,0,0,.51-.08,1.42,1.42,0,0,0,.46-.23,1.06,1.06,0,0,0,.33-.37.88.88,0,0,0,.13-.49.81.81,0,0,0-.27-.66,2.22,2.22,0,0,0-.69-.34c-.27-.08-.57-.15-.89-.22a3.5,3.5,0,0,1-.9-.27,1.85,1.85,0,0,1-.68-.52,1.38,1.38,0,0,1-.28-.93,1.63,1.63,0,0,1,.19-.82,1.72,1.72,0,0,1,.5-.57,2.28,2.28,0,0,1,.68-.34,2.87,2.87,0,0,1,.77-.11,2.94,2.94,0,0,1,1.34.29,2.07,2.07,0,0,1,.87.91l-.73.44a1.8,1.8,0,0,0-.58-.66,1.54,1.54,0,0,0-.9-.23,1.5,1.5,0,0,0-.45.07,1.52,1.52,0,0,0-.43.19,1.08,1.08,0,0,0-.32.32.81.81,0,0,0-.13.44.76.76,0,0,0,.28.63,2,2,0,0,0,.68.32,7.06,7.06,0,0,0,.9.2,4,4,0,0,1,.89.27,2,2,0,0,1,.69.54,1.61,1.61,0,0,1,.27,1,1.91,1.91,0,0,1-.18.86,1.75,1.75,0,0,1-.5.61,2.05,2.05,0,0,1-.72.37,2.71,2.71,0,0,1-.86.13,3.45,3.45,0,0,1-1.48-.32,2.29,2.29,0,0,1-1-1Z"/>
        <path class="cls-4" d="M214.39,366.7h.89L216.8,372h0l1.74-5.33h.78L221.2,372h0l1.48-5.33h.81l-1.84,6.36h-.84l-1.87-5.2h0l-1.75,5.2h-.84Z"/>
        <path class="cls-4" d="M230.33,371.87a2.71,2.71,0,0,1-1.17,1,3.69,3.69,0,0,1-1.54.32,3.24,3.24,0,0,1-1.3-.25,3,3,0,0,1-1-.69,3.11,3.11,0,0,1-.64-1.07,3.86,3.86,0,0,1-.23-1.35,3.73,3.73,0,0,1,.23-1.32,3.25,3.25,0,0,1,.65-1.06,3,3,0,0,1,1-.7,3.05,3.05,0,0,1,1.26-.26,3,3,0,0,1,1.27.26,2.74,2.74,0,0,1,1.48,1.63,3.17,3.17,0,0,1,.19,1.09v.58h-5.25a2.78,2.78,0,0,0,.1.67,2.46,2.46,0,0,0,.37.79,2.23,2.23,0,0,0,.73.66,2.25,2.25,0,0,0,1.17.27,2.6,2.6,0,0,0,1.2-.3,2.24,2.24,0,0,0,.9-.82Zm-.62-2.53a1.9,1.9,0,0,0-.17-.79,2.18,2.18,0,0,0-.46-.66,2.06,2.06,0,0,0-.69-.45,2.22,2.22,0,0,0-.85-.16,2.06,2.06,0,0,0-1.1.27,2.56,2.56,0,0,0-.7.64,2.93,2.93,0,0,0-.37.69,1.9,1.9,0,0,0-.1.46Z"/>
        <path class="cls-4" d="M232.34,368.49c0-.12,0-.26,0-.43s0-.35,0-.52,0-.34,0-.49,0-.27,0-.35h.81c0,.24,0,.47,0,.69a2.44,2.44,0,0,0,0,.43,2.79,2.79,0,0,1,.8-.93,1.93,1.93,0,0,1,1.19-.36l.24,0,.23,0-.09.82a.89.89,0,0,0-.31-.06,2.32,2.32,0,0,0-.92.17,1.79,1.79,0,0,0-.63.48,1.94,1.94,0,0,0-.38.71,3,3,0,0,0-.12.87v3.47h-.81Z"/>
      </g>
      <g>
        <path class="cls-4" d="M241.17,468h5.06a6,6,0,0,1,2.28.38,4,4,0,0,1,1.41,1,3.3,3.3,0,0,1,.72,1.32,5.17,5.17,0,0,1,.2,1.42,5.05,5.05,0,0,1-.2,1.41,3.27,3.27,0,0,1-.72,1.33,4,4,0,0,1-1.41,1,6,6,0,0,1-2.28.38h-3.11v6.45h-2Zm2,6.45h2.56a7.08,7.08,0,0,0,1.13-.1,3,3,0,0,0,1-.34,1.84,1.84,0,0,0,.7-.71,2.95,2.95,0,0,0,0-2.42,1.84,1.84,0,0,0-.7-.71,3,3,0,0,0-1-.34,7.08,7.08,0,0,0-1.13-.1h-2.56Z"/>
        <path class="cls-4" d="M253.22,468h9.29v1.86h-7.34v4.36H262v1.86h-6.83v4.69h7.7v1.86h-9.65Z"/>
        <path class="cls-4" d="M265.64,468h5.06a5.87,5.87,0,0,1,2.27.38,4,4,0,0,1,1.42,1,3.56,3.56,0,0,1,.72,1.32,5.58,5.58,0,0,1,.2,1.42,3.78,3.78,0,0,1-.95,2.53,3.92,3.92,0,0,1-1.11.89,3.76,3.76,0,0,1-1.48.44l4.09,6.68h-2.44l-3.66-6.45h-2.17v6.45h-1.95Zm1.95,6.45h2.56a7.19,7.19,0,0,0,1.13-.1,2.83,2.83,0,0,0,1-.34,1.77,1.77,0,0,0,.7-.71,2.85,2.85,0,0,0,0-2.42,1.77,1.77,0,0,0-.7-.71,2.83,2.83,0,0,0-1-.34,7.19,7.19,0,0,0-1.13-.1h-2.56Z"/>
        <path class="cls-4" d="M288.07,471.2a4.05,4.05,0,0,0-1.54-1.24,4.55,4.55,0,0,0-1.93-.43,5.11,5.11,0,0,0-2.21.46,5.19,5.19,0,0,0-1.69,1.27,5.86,5.86,0,0,0-1.08,1.89,6.86,6.86,0,0,0-.39,2.33,6.38,6.38,0,0,0,.37,2.19,5.49,5.49,0,0,0,1,1.82,5,5,0,0,0,1.69,1.23,5.28,5.28,0,0,0,2.26.46,4.36,4.36,0,0,0,2.17-.52,4.73,4.73,0,0,0,1.59-1.44l1.64,1.26a7,7,0,0,1-.57.65,5.86,5.86,0,0,1-1.07.84,7.64,7.64,0,0,1-1.62.75,6.9,6.9,0,0,1-2.18.32,7,7,0,0,1-3.08-.66,7.31,7.31,0,0,1-2.34-1.74,7.53,7.53,0,0,1-1.47-2.43,7.67,7.67,0,0,1-.51-2.73,8.58,8.58,0,0,1,.55-3.13,7.2,7.2,0,0,1,1.53-2.48,6.76,6.76,0,0,1,2.37-1.62,7.75,7.75,0,0,1,3.05-.58,7.17,7.17,0,0,1,2.79.56,5.23,5.23,0,0,1,2.25,1.71Z"/>
        <path class="cls-4" d="M292.36,468h9.29v1.86h-7.34v4.36h6.83v1.86h-6.83v4.69H302v1.86h-9.65Z"/>
        <path class="cls-4" d="M304.78,468h2.56l7.92,12h0V468h1.95v14.63h-2.48l-8-12h0v12h-2Z"/>
        <path class="cls-4" d="M324,469.9h-4.64V468h11.22v1.86h-4.63v12.77h-2Z"/>
        <path class="cls-4" d="M335.26,468H337l6.15,14.63h-2.27l-1.45-3.62h-6.85l-1.42,3.62h-2.27Zm3.49,9.28-2.68-6.72h0l-2.72,6.72Z"/>
        <path class="cls-4" d="M357.3,474.49v7.21a6.25,6.25,0,0,1-1.19.57,12,12,0,0,1-1.4.43,14.39,14.39,0,0,1-1.46.26,13.9,13.9,0,0,1-1.39.08,8.17,8.17,0,0,1-3.26-.62,7,7,0,0,1-3.92-4.12,8.29,8.29,0,0,1-.52-2.95,8,8,0,0,1,.56-3,7.4,7.4,0,0,1,1.54-2.44,7,7,0,0,1,2.37-1.62,7.51,7.51,0,0,1,3-.59,9,9,0,0,1,3.25.5,6,6,0,0,1,2.11,1.4l-1.38,1.51a5.05,5.05,0,0,0-1.89-1.21,6.36,6.36,0,0,0-2.09-.34,5.22,5.22,0,0,0-2.24.46,5.27,5.27,0,0,0-2.8,3.1,6.51,6.51,0,0,0-.39,2.26,6,6,0,0,0,.43,2.31,5.47,5.47,0,0,0,2.94,3.08,5.6,5.6,0,0,0,2.22.44,9.5,9.5,0,0,0,2-.2,5.25,5.25,0,0,0,1.57-.57v-4.07h-3.19v-1.85Z"/>
        <path class="cls-4" d="M360.86,468h9.29v1.86h-7.34v4.36h6.83v1.86h-6.83v4.69h7.7v1.86h-9.65Z"/>
      </g>
      <g>
        <path class="cls-4" d="M489.64,234.06a2.49,2.49,0,0,0,.73,1.08,2,2,0,0,0,1.29.38,2.45,2.45,0,0,0,.93-.16,1.78,1.78,0,0,0,.67-.46,1.81,1.81,0,0,0,.4-.67,2.49,2.49,0,0,0,.13-.83,1.79,1.79,0,0,0-.22-.92,1.85,1.85,0,0,0-.58-.63,2.69,2.69,0,0,0-.81-.35,4.13,4.13,0,0,0-.92-.11h-.35v-.83h.41a2.89,2.89,0,0,0,.76-.1,2,2,0,0,0,.69-.32,1.72,1.72,0,0,0,.5-.57,1.87,1.87,0,0,0,.19-.85,1.81,1.81,0,0,0-.48-1.29,1.74,1.74,0,0,0-1.3-.5,1.89,1.89,0,0,0-1.07.31,2.12,2.12,0,0,0-.74.83l-.78-.44a2.5,2.5,0,0,1,1.08-1.1,3.32,3.32,0,0,1,1.51-.35,3.47,3.47,0,0,1,1,.16,2.75,2.75,0,0,1,.86.47,2.25,2.25,0,0,1,.57.78,2.67,2.67,0,0,1,.21,1.1,2.36,2.36,0,0,1-.43,1.41,2.26,2.26,0,0,1-1.28.85v0a2.35,2.35,0,0,1,.84.31,2.29,2.29,0,0,1,.64.56,2.45,2.45,0,0,1,.42.74,2.58,2.58,0,0,1,.15.88,3.24,3.24,0,0,1-.18,1.09,2.49,2.49,0,0,1-.56.89,2.76,2.76,0,0,1-.93.6,3.65,3.65,0,0,1-1.3.22,3.5,3.5,0,0,1-1.83-.46,2.83,2.83,0,0,1-1.13-1.46Z"/>
        <path class="cls-4" d="M501.34,227.09h-3.95l-.05,3.1A2.26,2.26,0,0,1,498,230a6.09,6.09,0,0,1,.72-.05,2.94,2.94,0,0,1,1.25.25,2.73,2.73,0,0,1,.94.7,3.21,3.21,0,0,1,.59,1,3.69,3.69,0,0,1,.21,1.25,3.33,3.33,0,0,1-.27,1.38,3,3,0,0,1-.73,1,3.08,3.08,0,0,1-1,.57,3.16,3.16,0,0,1-1.07.2,3.37,3.37,0,0,1-1.77-.44,3,3,0,0,1-1.1-1.22l.84-.42a2,2,0,0,0,.33.51,2.46,2.46,0,0,0,.48.43,2.49,2.49,0,0,0,.59.29,1.94,1.94,0,0,0,1.34,0,2.45,2.45,0,0,0,.7-.43,2.29,2.29,0,0,0,.54-.74,2.18,2.18,0,0,0,.22-1,2.72,2.72,0,0,0-.18-1,2.44,2.44,0,0,0-.51-.8,2.36,2.36,0,0,0-.77-.55,2.31,2.31,0,0,0-.95-.2,2.62,2.62,0,0,0-1,.19,3.84,3.84,0,0,0-.9.47l.08-5h4.73Z"/>
        <path class="cls-4" d="M502.8,228.55a2.37,2.37,0,0,1,.19-.92,2.52,2.52,0,0,1,.5-.75,2.39,2.39,0,0,1,.74-.51,2.25,2.25,0,0,1,1.81,0,2.39,2.39,0,0,1,.74.51,2.52,2.52,0,0,1,.5.75,2.36,2.36,0,0,1,.18.92,2.41,2.41,0,0,1-.18.93,2.52,2.52,0,0,1-.5.75,2.57,2.57,0,0,1-.74.51,2.37,2.37,0,0,1-1.81,0,2.57,2.57,0,0,1-.74-.51,2.52,2.52,0,0,1-.5-.75A2.41,2.41,0,0,1,502.8,228.55Zm.74,0a1.66,1.66,0,0,0,.12.64,1.9,1.9,0,0,0,.35.52,1.65,1.65,0,0,0,.51.35,1.64,1.64,0,0,0,1.23,0,1.65,1.65,0,0,0,.51-.35,1.67,1.67,0,0,0,.34-.52,1.5,1.5,0,0,0,.13-.64,1.53,1.53,0,0,0-.13-.64,1.63,1.63,0,0,0-.34-.51,1.65,1.65,0,0,0-.51-.35,1.64,1.64,0,0,0-1.23,0,1.65,1.65,0,0,0-.51.35,1.85,1.85,0,0,0-.35.51A1.69,1.69,0,0,0,503.54,228.55Zm7.07-2.67.62.39L505,236.57l-.61-.39Zm-2.45,8a2.32,2.32,0,0,1,.18-.92,2.45,2.45,0,0,1,.5-.76,2.57,2.57,0,0,1,.74-.51,2.37,2.37,0,0,1,1.81,0,2.57,2.57,0,0,1,.74.51,2.45,2.45,0,0,1,.5.76,2.32,2.32,0,0,1,0,1.84,2.29,2.29,0,0,1-.5.75,2.23,2.23,0,0,1-.74.51,2.25,2.25,0,0,1-1.81,0,2.23,2.23,0,0,1-.74-.51,2.29,2.29,0,0,1-.5-.75A2.32,2.32,0,0,1,508.16,233.9Zm.73,0a1.64,1.64,0,0,0,.47,1.15,1.53,1.53,0,0,0,1.13.47,1.58,1.58,0,0,0,.61-.12,1.41,1.41,0,0,0,.51-.35,1.54,1.54,0,0,0,.47-1.15,1.66,1.66,0,0,0-.12-.64,1.9,1.9,0,0,0-.35-.52,1.39,1.39,0,0,0-.51-.34,1.52,1.52,0,0,0-1.23,0,1.57,1.57,0,0,0-.51.34,1.67,1.67,0,0,0-.34.52A1.5,1.5,0,0,0,508.89,233.9Z"/>
      </g>
      <g>
        <path class="cls-4" d="M518.56,280.51a2.6,2.6,0,0,0,.74,1.09,2,2,0,0,0,1.28.37,2.45,2.45,0,0,0,.93-.16,1.8,1.8,0,0,0,.67-.45,1.94,1.94,0,0,0,.4-.68,2.49,2.49,0,0,0,.14-.83,1.82,1.82,0,0,0-.23-.92,1.76,1.76,0,0,0-.58-.63,2.69,2.69,0,0,0-.81-.35,4.06,4.06,0,0,0-.92-.11h-.35V277h.41a2.85,2.85,0,0,0,.76-.11,2.13,2.13,0,0,0,.7-.32,1.81,1.81,0,0,0,.49-.57,1.75,1.75,0,0,0,.19-.85,1.81,1.81,0,0,0-.48-1.29,1.72,1.72,0,0,0-1.3-.5,1.91,1.91,0,0,0-1.07.31,2.2,2.2,0,0,0-.74.83l-.77-.44a2.48,2.48,0,0,1,1.07-1.1,3.32,3.32,0,0,1,1.51-.34,3.42,3.42,0,0,1,1,.15,2.75,2.75,0,0,1,.86.47,2.25,2.25,0,0,1,.57.78,2.67,2.67,0,0,1,.21,1.1,2.33,2.33,0,0,1-.43,1.41,2.19,2.19,0,0,1-1.27.85v0a2.37,2.37,0,0,1,.83.31,2.46,2.46,0,0,1,.64.56,2.52,2.52,0,0,1,.57,1.62,3.24,3.24,0,0,1-.18,1.09,2.36,2.36,0,0,1-.56.89,2.72,2.72,0,0,1-.92.6,3.73,3.73,0,0,1-1.3.22,3.51,3.51,0,0,1-1.84-.46,2.83,2.83,0,0,1-1.13-1.46Z"/>
        <path class="cls-4" d="M530.17,273.54l-3.82,9h-.91l3.89-9h-4.61v-.74h5.45Z"/>
        <path class="cls-4" d="M532.32,282a.64.64,0,0,1,.19-.46.63.63,0,0,1,.46-.2.61.61,0,0,1,.46.2.6.6,0,0,1,.19.46.63.63,0,0,1-.19.47.61.61,0,0,1-.46.2.63.63,0,0,1-.46-.2A.67.67,0,0,1,532.32,282Z"/>
        <path class="cls-4" d="M540.83,273.54h-4l0,3.1a2.26,2.26,0,0,1,.68-.22,6.09,6.09,0,0,1,.72-.05,2.94,2.94,0,0,1,1.25.25,2.86,2.86,0,0,1,.94.7,3.15,3.15,0,0,1,.59,1,3.63,3.63,0,0,1,.21,1.24A3.3,3.3,0,0,1,541,281a3,3,0,0,1-.73,1,3.3,3.3,0,0,1-1,.58,3.4,3.4,0,0,1-1.07.19,3.37,3.37,0,0,1-1.77-.44,3.06,3.06,0,0,1-1.1-1.21l.84-.43a2.27,2.27,0,0,0,.33.52,2.41,2.41,0,0,0,.48.42,2.16,2.16,0,0,0,.59.29,1.94,1.94,0,0,0,1.34,0,2.32,2.32,0,0,0,.7-.43,2.35,2.35,0,0,0,.54-.73,2.25,2.25,0,0,0,.22-1,2.72,2.72,0,0,0-.18-1,2.38,2.38,0,0,0-.51-.8,2.51,2.51,0,0,0-.77-.55,2.31,2.31,0,0,0-1-.2,2.62,2.62,0,0,0-1,.19,3.84,3.84,0,0,0-.9.47l.08-5h4.73Z"/>
        <path class="cls-4" d="M542.29,275a2.38,2.38,0,0,1,.19-.93,2.52,2.52,0,0,1,.5-.75,2.57,2.57,0,0,1,.74-.51,2.37,2.37,0,0,1,1.81,0,2.57,2.57,0,0,1,.74.51,2.52,2.52,0,0,1,.5.75,2.47,2.47,0,0,1,0,1.85,2.52,2.52,0,0,1-.5.75,2.57,2.57,0,0,1-.74.51,2.37,2.37,0,0,1-1.81,0,2.57,2.57,0,0,1-.74-.51,2.52,2.52,0,0,1-.5-.75A2.37,2.37,0,0,1,542.29,275Zm.74,0a1.56,1.56,0,0,0,.13.64,1.63,1.63,0,0,0,.34.51,1.65,1.65,0,0,0,.51.35,1.64,1.64,0,0,0,1.23,0,1.54,1.54,0,0,0,.51-.35,1.63,1.63,0,0,0,.34-.51,1.56,1.56,0,0,0,.13-.64,1.5,1.5,0,0,0-.13-.64,1.67,1.67,0,0,0-.34-.52,1.54,1.54,0,0,0-.51-.35,1.64,1.64,0,0,0-1.23,0,1.65,1.65,0,0,0-.51.35,1.67,1.67,0,0,0-.34.52A1.5,1.5,0,0,0,543,275Zm7.07-2.68.62.39L544.53,283l-.61-.38Zm-2.45,8a2.32,2.32,0,0,1,.18-.92,2.29,2.29,0,0,1,.5-.75,2.23,2.23,0,0,1,.74-.51,2.25,2.25,0,0,1,1.81,0,2.23,2.23,0,0,1,.74.51,2.29,2.29,0,0,1,.5.75,2.32,2.32,0,0,1,0,1.84,2.29,2.29,0,0,1-.5.75,2.23,2.23,0,0,1-.74.51,2.25,2.25,0,0,1-1.81,0,2.23,2.23,0,0,1-.74-.51,2.29,2.29,0,0,1-.5-.75A2.32,2.32,0,0,1,547.65,280.35Zm.73,0a1.53,1.53,0,0,0,.13.64,1.67,1.67,0,0,0,.34.52,1.75,1.75,0,0,0,.51.34,1.64,1.64,0,0,0,1.23,0,1.52,1.52,0,0,0,.51-.34,1.9,1.9,0,0,0,.35-.52,1.77,1.77,0,0,0,0-1.28,1.9,1.9,0,0,0-.35-.52,1.52,1.52,0,0,0-.51-.34,1.52,1.52,0,0,0-1.23,0,1.75,1.75,0,0,0-.51.34,1.67,1.67,0,0,0-.34.52A1.53,1.53,0,0,0,548.38,280.35Z"/>
      </g>
      <g>
        <path class="cls-4" d="M230.07,319.28h0l-1.73,1.44-.5-.63,2.37-2h.69v9.75h-.82Z"/>
        <path class="cls-4" d="M234.14,326.91l3.6-3.87c.17-.17.33-.35.49-.53a5.13,5.13,0,0,0,.44-.6,3,3,0,0,0,.32-.65,2.25,2.25,0,0,0,.12-.74,1.7,1.7,0,0,0-.54-1.34,2,2,0,0,0-1.37-.48,1.83,1.83,0,0,0-1.26.44,2,2,0,0,0-.66,1.15l-.95-.09a2.61,2.61,0,0,1,1-1.69,3.23,3.23,0,0,1,1.9-.56,3.15,3.15,0,0,1,1.06.18,2.68,2.68,0,0,1,.88.48,2.43,2.43,0,0,1,.6.78,2.39,2.39,0,0,1,.23,1.06,3.19,3.19,0,0,1-.17,1,5.22,5.22,0,0,1-.45.92,6.24,6.24,0,0,1-.64.82L238,324l-3,3.13h5v.74h-5.93Z"/>
        <path class="cls-4" d="M241.74,327.29a.64.64,0,0,1,.19-.47.65.65,0,0,1,.92,0,.64.64,0,0,1,.19.47.63.63,0,0,1-.19.47.65.65,0,0,1-.92,0A.63.63,0,0,1,241.74,327.29Z"/>
        <path class="cls-4" d="M250.25,318.86h-4l0,3.1a2.26,2.26,0,0,1,.68-.22,4.36,4.36,0,0,1,.72-.05,2.89,2.89,0,0,1,1.24.25,2.73,2.73,0,0,1,.94.7,3.06,3.06,0,0,1,.6,1,3.69,3.69,0,0,1,.21,1.25,3.18,3.18,0,0,1-.28,1.38,2.74,2.74,0,0,1-.72,1,3.11,3.11,0,0,1-1,.58,3.16,3.16,0,0,1-1.07.2,3.23,3.23,0,0,1-1.77-.45,2.93,2.93,0,0,1-1.1-1.21l.84-.42a2,2,0,0,0,.33.51,2.46,2.46,0,0,0,.48.43,2.42,2.42,0,0,0,.58.29,2,2,0,0,0,.64.1,2.07,2.07,0,0,0,.7-.14,2.21,2.21,0,0,0,.71-.44,2.43,2.43,0,0,0,.54-.73,2.32,2.32,0,0,0,.22-1,2.52,2.52,0,0,0-.19-1,2.57,2.57,0,0,0-.5-.81,2.44,2.44,0,0,0-.77-.54,2.32,2.32,0,0,0-1-.2,2.69,2.69,0,0,0-1,.19,4,4,0,0,0-.89.47l.08-5h4.73Z"/>
        <path class="cls-4" d="M251.71,320.32a2.32,2.32,0,0,1,.18-.92,2.56,2.56,0,0,1,.51-.75,2.19,2.19,0,0,1,.73-.51A2.32,2.32,0,0,1,254,318a2.28,2.28,0,0,1,.91.19,2.33,2.33,0,0,1,.74.51,2.52,2.52,0,0,1,.5.75,2.32,2.32,0,0,1,.18.92,2.41,2.41,0,0,1-.18.93,2.52,2.52,0,0,1-.5.75,2.71,2.71,0,0,1-.74.51,2.27,2.27,0,0,1-.91.18,2.31,2.31,0,0,1-.91-.18,2.52,2.52,0,0,1-.73-.51,2.56,2.56,0,0,1-.51-.75A2.41,2.41,0,0,1,251.71,320.32Zm.73,0a1.66,1.66,0,0,0,.13.64,1.7,1.7,0,0,0,.35.52,1.43,1.43,0,0,0,.5.34,1.54,1.54,0,0,0,1.24,0,1.57,1.57,0,0,0,.51-.34,1.87,1.87,0,0,0,.34-.52,1.5,1.5,0,0,0,.13-.64,1.53,1.53,0,0,0-.13-.64,1.69,1.69,0,0,0-.34-.51,1.6,1.6,0,0,0-.51-.35,1.66,1.66,0,0,0-1.24,0,1.46,1.46,0,0,0-.5.35,1.54,1.54,0,0,0-.35.51A1.7,1.7,0,0,0,252.44,320.32Zm7.07-2.67.63.39L254,328.34l-.61-.39Zm-2.45,8a2.41,2.41,0,0,1,.18-.93,2.56,2.56,0,0,1,.51-.75,2.44,2.44,0,0,1,.74-.51,2.23,2.23,0,0,1,.9-.18,2.27,2.27,0,0,1,.91.18,2.57,2.57,0,0,1,.74.51,2.52,2.52,0,0,1,.5.75,2.41,2.41,0,0,1,.18.93,2.36,2.36,0,0,1-.18.92,2.52,2.52,0,0,1-.5.75,2.23,2.23,0,0,1-.74.51,2.28,2.28,0,0,1-.91.19,2.23,2.23,0,0,1-.9-.19,2.13,2.13,0,0,1-.74-.51,2.56,2.56,0,0,1-.51-.75A2.36,2.36,0,0,1,257.06,325.67Zm.73,0a1.7,1.7,0,0,0,.13.64,1.65,1.65,0,0,0,.35.51,1.54,1.54,0,0,0,.51.35,1.58,1.58,0,0,0,.61.12,1.63,1.63,0,0,0,.62-.12,1.78,1.78,0,0,0,.51-.35,1.63,1.63,0,0,0,.34-.51,1.53,1.53,0,0,0,.13-.64,1.5,1.5,0,0,0-.13-.64,1.67,1.67,0,0,0-.34-.52,1.78,1.78,0,0,0-.51-.35,1.63,1.63,0,0,0-.62-.12,1.58,1.58,0,0,0-.61.12,1.54,1.54,0,0,0-.51.35,1.7,1.7,0,0,0-.35.52A1.66,1.66,0,0,0,257.79,325.67Z"/>
      </g>
      <g>
        <path class="cls-4" d="M259.22,364.47h0l-1.73,1.44-.5-.63,2.37-2H260v9.75h-.81Z"/>
        <path class="cls-4" d="M268.82,364.05h-3.95l0,3.1a2.09,2.09,0,0,1,.68-.22,5.81,5.81,0,0,1,.72-.05,2.92,2.92,0,0,1,1.24.25,2.86,2.86,0,0,1,.94.7,3.21,3.21,0,0,1,.59,1,3.5,3.5,0,0,1,.22,1.25,3.33,3.33,0,0,1-.28,1.38,3,3,0,0,1-.73,1,3.18,3.18,0,0,1-1,.58,3.35,3.35,0,0,1-1.07.19,3.3,3.3,0,0,1-1.76-.44,3,3,0,0,1-1.11-1.21l.84-.43a2,2,0,0,0,.33.51,2.39,2.39,0,0,0,1.07.72,1.93,1.93,0,0,0,.63.1,1.9,1.9,0,0,0,.71-.14,2.32,2.32,0,0,0,.7-.43,2.35,2.35,0,0,0,.54-.73,2.25,2.25,0,0,0,.22-1,2.72,2.72,0,0,0-.18-1,2.49,2.49,0,0,0-1.28-1.35,2.31,2.31,0,0,0-.95-.2,2.65,2.65,0,0,0-1,.19,3.84,3.84,0,0,0-.9.47l.08-5h4.73Z"/>
        <path class="cls-4" d="M270.29,365.51a2.36,2.36,0,0,1,.18-.92,2.52,2.52,0,0,1,.5-.75,2.57,2.57,0,0,1,.74-.51,2.37,2.37,0,0,1,1.81,0,2.57,2.57,0,0,1,.74.51,2.52,2.52,0,0,1,.5.75,2.35,2.35,0,0,1,0,1.85,2.52,2.52,0,0,1-.5.75,2.57,2.57,0,0,1-.74.51,2.37,2.37,0,0,1-1.81,0,2.57,2.57,0,0,1-.74-.51,2.52,2.52,0,0,1-.5-.75A2.37,2.37,0,0,1,270.29,365.51Zm.73,0a1.57,1.57,0,0,0,.13.65,1.63,1.63,0,0,0,.34.51,1.78,1.78,0,0,0,.51.35,1.64,1.64,0,0,0,1.23,0,1.54,1.54,0,0,0,.51-.35,1.65,1.65,0,0,0,.35-.51,1.79,1.79,0,0,0,0-1.29,1.65,1.65,0,0,0-.35-.51,1.54,1.54,0,0,0-.51-.35,1.64,1.64,0,0,0-1.23,0,1.78,1.78,0,0,0-.51.35,1.63,1.63,0,0,0-.34.51A1.56,1.56,0,0,0,271,365.51Zm7.07-2.67.62.39-6.19,10.3-.61-.38Zm-2.45,8a2.32,2.32,0,0,1,.18-.92,2.29,2.29,0,0,1,.5-.75,2.23,2.23,0,0,1,.74-.51,2.12,2.12,0,0,1,.91-.19,2.08,2.08,0,0,1,.9.19,2.39,2.39,0,0,1,1.24,1.26,2.38,2.38,0,0,1-.5,2.59,2.13,2.13,0,0,1-.74.51,2.08,2.08,0,0,1-.9.19,2.12,2.12,0,0,1-.91-.19,2.23,2.23,0,0,1-.74-.51,2.29,2.29,0,0,1-.5-.75A2.32,2.32,0,0,1,275.64,370.86Zm.73,0a1.53,1.53,0,0,0,.13.64,1.67,1.67,0,0,0,.34.52,1.75,1.75,0,0,0,.51.34,1.63,1.63,0,0,0,.62.12,1.58,1.58,0,0,0,.61-.12,1.52,1.52,0,0,0,.51-.34,1.64,1.64,0,0,0,0-2.32,1.52,1.52,0,0,0-.51-.34,1.59,1.59,0,0,0-.61-.13,1.64,1.64,0,0,0-.62.13,1.75,1.75,0,0,0-.51.34,1.67,1.67,0,0,0-.34.52A1.53,1.53,0,0,0,276.37,370.86Z"/>
      </g>
      <g class="cls-10">
        <g class="cls-10">
          <path class="cls-4" d="M57.59,28.5h2.25l4.23,11.9h0L68.5,28.5h2.13L65,43.12H63.14Z"/>
          <path class="cls-4" d="M75.94,28.5h1.77l6.15,14.62H81.59l-1.45-3.61H73.3l-1.43,3.61H69.6Zm3.49,9.27-2.68-6.71h0L74,37.77Z"/>
          <path class="cls-4" d="M85.73,28.5h5.06a5.78,5.78,0,0,1,2.28.38,3.84,3.84,0,0,1,1.41,1,3.17,3.17,0,0,1,.72,1.32,5.14,5.14,0,0,1,.21,1.42,3.85,3.85,0,0,1-.25,1.35,3.73,3.73,0,0,1-.7,1.18,4,4,0,0,1-1.12.89,3.76,3.76,0,0,1-1.47.44L96,43.12H93.52l-3.66-6.44H87.68v6.44h-2Zm2,6.44h2.56a7.08,7.08,0,0,0,1.13-.09,3.11,3.11,0,0,0,1-.34,1.91,1.91,0,0,0,.7-.71,2.52,2.52,0,0,0,.26-1.21,2.5,2.5,0,0,0-.26-1.21,1.84,1.84,0,0,0-.7-.71,2.88,2.88,0,0,0-1-.34,6.09,6.09,0,0,0-1.13-.1H87.68Z"/>
          <path class="cls-4" d="M98.15,28.5h1.95V43.12H98.15Z"/>
          <path class="cls-4" d="M103.8,28.5h9.28v1.86h-7.33v4.35h6.83v1.86h-6.83v4.69h7.7v1.86H103.8Z"/>
          <path class="cls-4" d="M119.22,30.36h-4.63V28.5h11.22v1.86h-4.64V43.12h-2Z"/>
          <path class="cls-4" d="M131.27,36.88l-5.44-8.38h2.49l3.93,6.42,4-6.42h2.38l-5.45,8.38v6.24h-1.95Z"/>
          <path class="cls-4" d="M139.42,35.93a1.26,1.26,0,0,1-.94-.4,1.35,1.35,0,0,1,0-1.92,1.26,1.26,0,0,1,.94-.4,1.29,1.29,0,0,1,1,.4,1.38,1.38,0,0,1,0,1.92A1.29,1.29,0,0,1,139.42,35.93Zm-1.34,6a1.37,1.37,0,0,1,1.34-1.36,1.35,1.35,0,0,1,1.34,1.36,1.37,1.37,0,0,1-1.34,1.37,1.38,1.38,0,0,1-1.34-1.37Z"/>
        </g>
        <g class="cls-10">
          <path class="cls-11" d="M161.85,28.5H166a10.16,10.16,0,0,1,1.64.13,3.92,3.92,0,0,1,1.5.56,3.07,3.07,0,0,1,1.07,1.18,4.06,4.06,0,0,1,.42,2A3.07,3.07,0,0,1,170,34.3a3.2,3.2,0,0,1-1.93,1.1v0a3.61,3.61,0,0,1,1.3.34,3.26,3.26,0,0,1,1,.74,3.41,3.41,0,0,1,.66,1.11,4.19,4.19,0,0,1,.23,1.4,4,4,0,0,1-.48,2.06,3.51,3.51,0,0,1-1.2,1.25A4.6,4.6,0,0,1,168,43a8.2,8.2,0,0,1-1.57.16h-4.6Zm1.34,6.32H166a4.63,4.63,0,0,0,1.68-.26,2.78,2.78,0,0,0,1-.63,1.89,1.89,0,0,0,.49-.8,3,3,0,0,0-.13-2,2.17,2.17,0,0,0-.68-.81,2.72,2.72,0,0,0-1-.42,5.81,5.81,0,0,0-1.2-.12h-3Zm0,7.06h3.07a5,5,0,0,0,1.9-.29,2.89,2.89,0,0,0,1.11-.72,2.25,2.25,0,0,0,.52-.92,3.23,3.23,0,0,0,.13-.88,3,3,0,0,0-.3-1.38,2.73,2.73,0,0,0-.8-.94,3.21,3.21,0,0,0-1.1-.53,4.87,4.87,0,0,0-1.25-.16h-3.28Z"/>
          <path class="cls-11" d="M179.06,28.5h1.39l6.05,14.62H185l-1.57-3.88h-7.62l-1.62,3.88h-1.41Zm.63,1.48-3.35,8H183Z"/>
          <path class="cls-11" d="M188.57,28.5h3.79c.18,0,.44,0,.77,0a7,7,0,0,1,1.05.12,6.54,6.54,0,0,1,1.16.33,3.15,3.15,0,0,1,1.06.66,3.44,3.44,0,0,1,.77,1.1,3.88,3.88,0,0,1,.31,1.61,3.67,3.67,0,0,1-.36,1.73,3.43,3.43,0,0,1-.89,1.11,3.89,3.89,0,0,1-1.19.63,8.13,8.13,0,0,1-1.24.29l4.18,7h-1.52l-4-6.94h-2.5v6.94h-1.35Zm1.35,6.44h2.84a4.59,4.59,0,0,0,1.72-.27,2.69,2.69,0,0,0,1-.66,2,2,0,0,0,.5-.84,2.71,2.71,0,0,0,0-1.66,2,2,0,0,0-.5-.84,2.7,2.7,0,0,0-1-.67,4.83,4.83,0,0,0-1.72-.26h-2.84Z"/>
          <path class="cls-11" d="M200.62,28.5h4.15a7.4,7.4,0,0,1,1.58.17,4.6,4.6,0,0,1,1.5.61A3.47,3.47,0,0,1,209,30.47a3.72,3.72,0,0,1,.43,1.89,3.92,3.92,0,0,1-.35,1.71,3.32,3.32,0,0,1-1,1.19,4.07,4.07,0,0,1-1.38.69,5.54,5.54,0,0,1-1.63.23H202v6.94h-1.35ZM202,34.94h3a4.64,4.64,0,0,0,1.12-.13,2.91,2.91,0,0,0,1-.44,2.31,2.31,0,0,0,.69-.79,2.65,2.65,0,0,0,.26-1.22,2.47,2.47,0,0,0-.27-1.2,2.42,2.42,0,0,0-.71-.81,2.84,2.84,0,0,0-1-.47,4.45,4.45,0,0,0-1.14-.14h-3Z"/>
          <path class="cls-11" d="M212.29,28.5h8.8v1.24h-7.46v5.2h7v1.24h-7v5.7h7.78v1.24h-9.12Z"/>
          <path class="cls-11" d="M227.53,29.74h-4.92V28.5h11.18v1.24h-4.92V43.12h-1.34Z"/>
          <path class="cls-11" d="M236,28.5h1.35V43.12H236Z"/>
          <path class="cls-11" d="M244.48,36.82l-5.29-8.32h1.61l4.35,6.94,4.45-6.94h1.5l-5.28,8.32v6.3h-1.34Z"/>
          <path class="cls-11" d="M255.86,28.5h1.38l6.06,14.62h-1.51l-1.56-3.88h-7.62L251,43.12h-1.4Zm.63,1.48-3.35,8h6.6Z"/>
        </g>
        <g class="cls-10">
          <path class="cls-4" d="M59.56,61.78h5.06a6,6,0,0,1,2.28.38,3.94,3.94,0,0,1,1.41,1A3.41,3.41,0,0,1,69,64.46a5.11,5.11,0,0,1,0,2.83,3.41,3.41,0,0,1-.72,1.32,3.92,3.92,0,0,1-1.41,1,5.78,5.78,0,0,1-2.28.38H61.51v6.45H59.56Zm1.95,6.45h2.56a7.17,7.17,0,0,0,1.13-.09,3.06,3.06,0,0,0,1-.35,1.8,1.8,0,0,0,.71-.71,2.5,2.5,0,0,0,.26-1.21,2.52,2.52,0,0,0-.26-1.21,1.86,1.86,0,0,0-.71-.71,3,3,0,0,0-1-.34,7.17,7.17,0,0,0-1.13-.09H61.51Z"/>
          <path class="cls-4" d="M78.21,76.78a7.5,7.5,0,0,1-3-.59,6.94,6.94,0,0,1-2.37-1.62,7.59,7.59,0,0,1-1.55-2.44,8.65,8.65,0,0,1,0-6.07,7.59,7.59,0,0,1,1.55-2.44A6.94,6.94,0,0,1,75.19,62a8,8,0,0,1,6,0,7,7,0,0,1,2.37,1.62,7.4,7.4,0,0,1,1.54,2.44,8.5,8.5,0,0,1,0,6.07,7.4,7.4,0,0,1-1.54,2.44,7,7,0,0,1-2.37,1.62A7.51,7.51,0,0,1,78.21,76.78Zm0-1.86a5.22,5.22,0,0,0,2.24-.46,5.27,5.27,0,0,0,2.8-3.1,6.77,6.77,0,0,0,0-4.53A5.52,5.52,0,0,0,82.16,65a5.29,5.29,0,0,0-1.71-1.24,5.55,5.55,0,0,0-4.47,0A5.29,5.29,0,0,0,74.27,65a5.72,5.72,0,0,0-1.1,1.85,6.94,6.94,0,0,0,0,4.53,5.72,5.72,0,0,0,1.1,1.85A5.47,5.47,0,0,0,76,74.46,5.2,5.2,0,0,0,78.21,74.92Z"/>
          <path class="cls-4" d="M88.52,61.78h5.06a5.87,5.87,0,0,1,2.27.38,3.77,3.77,0,0,1,1.41,1A3.31,3.31,0,0,1,98,64.46a5.11,5.11,0,0,1,0,2.83,3.31,3.31,0,0,1-.73,1.32,3.75,3.75,0,0,1-1.41,1,5.69,5.69,0,0,1-2.27.38H90.47v6.45h-2Zm2,6.45H93a7.17,7.17,0,0,0,1.13-.09,3.06,3.06,0,0,0,1-.35,1.77,1.77,0,0,0,.7-.71,2.38,2.38,0,0,0,.27-1.21,2.41,2.41,0,0,0-.27-1.21,1.84,1.84,0,0,0-.7-.71,3,3,0,0,0-1-.34A7.17,7.17,0,0,0,93,63.52H90.47Z"/>
          <path class="cls-4" d="M102.25,61.78v9a5.43,5.43,0,0,0,.19,1.41,4.06,4.06,0,0,0,.61,1.36,3.28,3.28,0,0,0,1.11,1,3.47,3.47,0,0,0,4.54-1,4.51,4.51,0,0,0,.61-1.36,5.86,5.86,0,0,0,.18-1.41v-9h2v9.28a6,6,0,0,1-.43,2.32,5.46,5.46,0,0,1-1.18,1.81,5.29,5.29,0,0,1-1.76,1.18,5.9,5.9,0,0,1-2.2.41,5.81,5.81,0,0,1-2.19-.41,5.23,5.23,0,0,1-1.77-1.18,5.46,5.46,0,0,1-1.18-1.81,6.15,6.15,0,0,1-.43-2.32V61.78Z"/>
          <path class="cls-4" d="M114.87,61.78h1.95V74.55h6.61v1.86h-8.56Z"/>
          <path class="cls-4" d="M129.93,61.78h1.77l6.16,14.63h-2.28l-1.44-3.62h-6.85l-1.42,3.62h-2.28Zm3.5,9.28-2.69-6.72h0L128,71.06Z"/>
          <path class="cls-4" d="M139.73,61.78h5.06a5.87,5.87,0,0,1,2.27.38,3.77,3.77,0,0,1,1.41,1,3.31,3.31,0,0,1,.73,1.32,5.51,5.51,0,0,1,.2,1.41,3.92,3.92,0,0,1-3.54,3.87L150,76.41h-2.44L143.85,70h-2.17v6.45h-2Zm2,6.45h2.56a7,7,0,0,0,1.12-.09,3,3,0,0,0,1-.35,1.77,1.77,0,0,0,.7-.71,2.38,2.38,0,0,0,.27-1.21,2.41,2.41,0,0,0-.27-1.21,1.84,1.84,0,0,0-.7-.71,3,3,0,0,0-1-.34,7,7,0,0,0-1.12-.09h-2.56Z"/>
          <path class="cls-4" d="M152.14,61.78h2V76.41h-2Z"/>
          <path class="cls-4" d="M160.8,63.64h-4.63V61.78h11.21v1.86h-4.63V76.41H160.8Z"/>
          <path class="cls-4" d="M172.85,70.17l-5.45-8.39h2.5l3.92,6.43,4.05-6.43h2.38l-5.45,8.39v6.24h-2Z"/>
          <path class="cls-4" d="M181,69.22a1.29,1.29,0,0,1-.95-.4,1.34,1.34,0,0,1-.39-1A1.37,1.37,0,0,1,181,66.49a1.38,1.38,0,0,1,1.34,1.37,1.31,1.31,0,0,1-.4,1A1.26,1.26,0,0,1,181,69.22Zm-1.34,6a1.34,1.34,0,0,1,.39-1,1.29,1.29,0,0,1,.95-.4,1.26,1.26,0,0,1,.94.4,1.35,1.35,0,0,1,0,1.92,1.26,1.26,0,0,1-.94.4,1.29,1.29,0,0,1-.95-.4A1.34,1.34,0,0,1,179.66,75.17Z"/>
        </g>
        <g class="cls-10">
          <path class="cls-4" d="M211.34,62.9h-5.93l-.07,4.65a3.05,3.05,0,0,1,1-.33,6.74,6.74,0,0,1,1.08-.09,4.31,4.31,0,0,1,1.87.39,4,4,0,0,1,1.4,1,4.63,4.63,0,0,1,.9,1.54,5.48,5.48,0,0,1,.32,1.87,4.77,4.77,0,0,1-.42,2.06,4.22,4.22,0,0,1-1.09,1.47,4.45,4.45,0,0,1-1.48.87,4.84,4.84,0,0,1-1.6.29,5,5,0,0,1-2.66-.66A4.47,4.47,0,0,1,203,74.18l1.26-.64a3,3,0,0,0,.49.77,3.73,3.73,0,0,0,.73.64,3.56,3.56,0,0,0,.87.44,3.11,3.11,0,0,0,1,.15,3.06,3.06,0,0,0,1-.21,3.6,3.6,0,0,0,1.06-.66,3.65,3.65,0,0,0,.81-1.09,3.38,3.38,0,0,0,.33-1.53,4.1,4.1,0,0,0-.28-1.48,3.56,3.56,0,0,0-.76-1.2,3.5,3.5,0,0,0-1.15-.82,3.43,3.43,0,0,0-1.43-.3,4,4,0,0,0-1.5.28,5.79,5.79,0,0,0-1.35.71l.12-7.46h7.1Z"/>
          <path class="cls-4" d="M214.43,75.54a1,1,0,0,1,.28-.7,1,1,0,0,1,1.38,0,1,1,0,0,1,.29.7,1,1,0,0,1-.29.71,1,1,0,0,1-1.38,0A1,1,0,0,1,214.43,75.54Z"/>
          <path class="cls-4" d="M221.46,68.23h0a2.41,2.41,0,0,1,1-.47,4.83,4.83,0,0,1,1.14-.15,4.47,4.47,0,0,1,1.77.35,4.16,4.16,0,0,1,1.4,1,4.29,4.29,0,0,1,.92,1.43,4.83,4.83,0,0,1,.32,1.76,4.77,4.77,0,0,1-.35,1.83,4.3,4.3,0,0,1-1,1.44,4.66,4.66,0,0,1-1.49.94,5.37,5.37,0,0,1-3.76,0,4.6,4.6,0,0,1-1.5-.94,4.28,4.28,0,0,1-1-1.44,4.6,4.6,0,0,1-.36-1.83,4.28,4.28,0,0,1,.13-1.09,5.92,5.92,0,0,1,.32-1c.14-.31.28-.61.43-.88s.29-.54.44-.79l3.91-6.59h1.54Zm1.87.45A3.18,3.18,0,0,0,222,69a3.33,3.33,0,0,0-1.07.73,3.74,3.74,0,0,0-.72,1.1,3.33,3.33,0,0,0-.27,1.33,3.92,3.92,0,0,0,.25,1.4A3,3,0,0,0,222,75.29a3.88,3.88,0,0,0,2.74,0,3.11,3.11,0,0,0,1.07-.7,3.33,3.33,0,0,0,.69-1.08,3.92,3.92,0,0,0,.24-1.4,3.5,3.5,0,0,0-.26-1.33,3.74,3.74,0,0,0-.72-1.1,3.49,3.49,0,0,0-1.08-.73A3.23,3.23,0,0,0,223.33,68.68Z"/>
          <path class="cls-4" d="M232,68.23h0a2.42,2.42,0,0,1,1-.47,4.91,4.91,0,0,1,1.15-.15A4.47,4.47,0,0,1,236,68a4.16,4.16,0,0,1,1.4,1,4.26,4.26,0,0,1,.91,1.43,4.84,4.84,0,0,1,0,3.59,4.14,4.14,0,0,1-1,1.44,4.6,4.6,0,0,1-1.5.94,5.34,5.34,0,0,1-3.75,0,4.6,4.6,0,0,1-1.5-.94,4.14,4.14,0,0,1-1-1.44,4.6,4.6,0,0,1-.36-1.83A4.79,4.79,0,0,1,229.3,71a5.13,5.13,0,0,1,.33-1c.13-.31.28-.61.42-.88s.3-.54.45-.79l3.9-6.59H236Zm1.86.45a3.25,3.25,0,0,0-1.32.27,3.37,3.37,0,0,0-1.78,1.83,3.33,3.33,0,0,0-.27,1.33,3.71,3.71,0,0,0,.25,1.4,3,3,0,0,0,.69,1.08,3,3,0,0,0,1.06.7,3.91,3.91,0,0,0,2.75,0,3.06,3.06,0,0,0,1.06-.7,3,3,0,0,0,.69-1.08,3.71,3.71,0,0,0,.25-1.4,3.33,3.33,0,0,0-.27-1.33,3.38,3.38,0,0,0-.72-1.1,3.33,3.33,0,0,0-1.07-.73A3.28,3.28,0,0,0,233.89,68.68Z"/>
          <path class="cls-4" d="M240,65.09a3.39,3.39,0,0,1,.28-1.39,3.55,3.55,0,0,1,.75-1.12,3.41,3.41,0,0,1,1.1-.77,3.47,3.47,0,0,1,2.73,0,3.41,3.41,0,0,1,1.1.77,3.76,3.76,0,0,1,.76,1.12,3.55,3.55,0,0,1,.27,1.39,3.5,3.5,0,0,1-.27,1.38,3.81,3.81,0,0,1-.76,1.13,3.39,3.39,0,0,1-1.1.76,3.47,3.47,0,0,1-2.73,0,3.39,3.39,0,0,1-1.1-.76,3.6,3.6,0,0,1-.75-1.13A3.34,3.34,0,0,1,240,65.09Zm1.1,0a2.38,2.38,0,0,0,.19,1,2.55,2.55,0,0,0,.52.77,2.34,2.34,0,0,0,.76.52,2.35,2.35,0,0,0,1.85,0,2.24,2.24,0,0,0,.76-.52,2.55,2.55,0,0,0,.52-.77,2.38,2.38,0,0,0,.19-1,2.32,2.32,0,0,0-.19-1,2.48,2.48,0,0,0-.52-.78,2.41,2.41,0,0,0-1.68-.7,2.24,2.24,0,0,0-.93.19,2.31,2.31,0,0,0-.76.51,2.48,2.48,0,0,0-.52.78A2.32,2.32,0,0,0,241.05,65.09Zm10.61-4,.93.58L243.3,77.11l-.91-.58ZM248,73.1a3.54,3.54,0,0,1,.27-1.38,4,4,0,0,1,.75-1.13,3.71,3.71,0,0,1,1.11-.76,3.28,3.28,0,0,1,1.36-.28,3.25,3.25,0,0,1,1.36.28,3.71,3.71,0,0,1,1.11.76,3.6,3.6,0,0,1,.75,1.13,3.57,3.57,0,0,1,0,2.77,3.44,3.44,0,0,1-.75,1.12,3.57,3.57,0,0,1-1.11.77,3.41,3.41,0,0,1-1.36.28,3.45,3.45,0,0,1-1.36-.28,3.57,3.57,0,0,1-1.11-.77,3.79,3.79,0,0,1-.75-1.12A3.55,3.55,0,0,1,248,73.1Zm1.09,0a2.4,2.4,0,0,0,.2,1,2.55,2.55,0,0,0,.52.77,2.41,2.41,0,0,0,2.61.52,2.51,2.51,0,0,0,.76-.52,2.55,2.55,0,0,0,.52-.77,2.55,2.55,0,0,0,0-1.93,2.55,2.55,0,0,0-.52-.77,2.51,2.51,0,0,0-.76-.52,2.36,2.36,0,0,0-2.61.52,2.55,2.55,0,0,0-.52.77A2.39,2.39,0,0,0,249.07,73.1Z"/>
        </g>
      </g>
    </g>
  </g>
</svg>
