<svg xmlns="http://www.w3.org/2000/svg" viewBox="0 0 599.02 514.27">
  <defs>
    <style>
      .cls-1 {
        fill: #191919;
      }

      .cls-2, .cls-6, .cls-7 {
        fill: none;
      }

      .cls-10, .cls-11, .cls-12, .cls-13, .cls-2, .cls-6, .cls-7 {
        stroke: #fff;
      }

      .cls-2, .cls-6 {
        stroke-miterlimit: 1.18;
      }

      .cls-2 {
        stroke-width: 0.75px;
      }

      .cls-3 {
        fill: #fff;
      }

      .cls-4 {
        isolation: isolate;
      }

      .cls-5 {
        fill: #ff2c22;
      }

      .cls-6 {
        stroke-width: 0.25px;
      }

      .cls-10, .cls-11, .cls-12, .cls-13, .cls-7, .cls-8, .cls-9 {
        stroke-miterlimit: 10;
      }

      .cls-8 {
        fill: #585a5c;
      }

      .cls-8, .cls-9 {
        stroke: #000;
      }

      .cls-10, .cls-11, .cls-12, .cls-13, .cls-8, .cls-9 {
        stroke-width: 0.5px;
      }

      .cls-9 {
        fill: #b3cde0;
      }

      .cls-10 {
        fill: #6497b1;
      }

      .cls-11 {
        fill: #245b96;
      }

      .cls-12 {
        fill: #14396c;
      }

      .cls-13 {
        fill: #061f4b;
      }
    </style>
  </defs>
  <g id="Layer_2" data-name="Layer 2">
    <g id="VarietiesOutline">
      <g>
        <rect class="cls-1" x="0.38" y="0.38" width="598.27" height="513.52" rx="12"/>
        <rect class="cls-2" x="0.38" y="0.38" width="598.27" height="513.52" rx="12"/>
      </g>
      <g>
        <path class="cls-3" d="M32,362v-2H44.75v-6.71h1.86V362Z"/>
        <path class="cls-3" d="M32,351.22v-9.44h1.86v7.46H38.2V342.3h1.86v6.94h4.69v-7.83h1.86v9.81Z"/>
        <path class="cls-3" d="M32,340.6v-2.29l11.9-4.3v0L32,329.51v-2.17l14.63,5.76V335Z"/>
        <path class="cls-3" d="M32,325.58v-9.44h1.86v7.46H38.2v-6.94h1.86v6.94h4.69v-7.83h1.86v9.81Z"/>
        <path class="cls-3" d="M32,313v-2H44.75v-6.72h1.86V313Z"/>
        <path class="cls-3" d="M47,289.78a7.94,7.94,0,0,1-.59,3.08,7.11,7.11,0,0,1-1.62,2.41,7.64,7.64,0,0,1-2.44,1.57,8.37,8.37,0,0,1-6.07,0,7.64,7.64,0,0,1-2.44-1.57,7.11,7.11,0,0,1-1.62-2.41,8.33,8.33,0,0,1,0-6.16,7.07,7.07,0,0,1,1.62-2.4,7.31,7.31,0,0,1,2.44-1.57,8.37,8.37,0,0,1,6.07,0,7.31,7.31,0,0,1,2.44,1.57,7.07,7.07,0,0,1,1.62,2.4A8,8,0,0,1,47,289.78Zm-1.86,0a5.35,5.35,0,0,0-.46-2.27,5.49,5.49,0,0,0-1.25-1.74,5.57,5.57,0,0,0-1.85-1.11,6.61,6.61,0,0,0-4.53,0,5.57,5.57,0,0,0-1.85,1.11,5.49,5.49,0,0,0-1.25,1.74,5.49,5.49,0,0,0,1.25,6.28A5.76,5.76,0,0,0,37,294.91a6.77,6.77,0,0,0,4.53,0,5.76,5.76,0,0,0,1.85-1.12,5.31,5.31,0,0,0,1.71-4Z"/>
        <path class="cls-3" d="M32,279.31v-9.2h1.86v7.21h4.59v-6.71h1.86v6.71h6.32v2Z"/>
        <path class="cls-3" d="M32,261.71v-5.15a6.06,6.06,0,0,1,.38-2.31,4,4,0,0,1,1-1.44,3.42,3.42,0,0,1,1.33-.73,4.87,4.87,0,0,1,2.83,0,3.31,3.31,0,0,1,1.32.73,4,4,0,0,1,1,1.44,6.06,6.06,0,0,1,.38,2.31v3.16h6.45v2Zm6.45-2v-2.6a6.3,6.3,0,0,0-.1-1.15,2.94,2.94,0,0,0-.34-1,1.8,1.8,0,0,0-.71-.71,2.38,2.38,0,0,0-1.21-.27,2.41,2.41,0,0,0-1.21.27,1.86,1.86,0,0,0-.71.71,2.94,2.94,0,0,0-.34,1,7.33,7.33,0,0,0-.09,1.15v2.6Z"/>
        <path class="cls-3" d="M32,249.45v-5.14a6.06,6.06,0,0,1,.38-2.31,4,4,0,0,1,1-1.44,3.29,3.29,0,0,1,1.33-.73,5.13,5.13,0,0,1,1.41-.21,3.86,3.86,0,0,1,2.53,1,4.06,4.06,0,0,1,.89,1.14,3.81,3.81,0,0,1,.44,1.5l6.68-4.16v2.48l-6.45,3.72v2.21h6.45v2Zm6.45-2v-2.6a6.3,6.3,0,0,0-.1-1.15,2.94,2.94,0,0,0-.34-1,1.8,1.8,0,0,0-.71-.71,2.38,2.38,0,0,0-1.21-.27,2.41,2.41,0,0,0-1.21.27,1.86,1.86,0,0,0-.71.71,2.94,2.94,0,0,0-.34,1,7.33,7.33,0,0,0-.09,1.15v2.6Z"/>
        <path class="cls-3" d="M32,236.83v-2H46.61v2Z"/>
        <path class="cls-3" d="M32,231.42v-5.1a9.61,9.61,0,0,1,.35-2.72,7.61,7.61,0,0,1,.94-2,6.11,6.11,0,0,1,1.35-1.42,7.19,7.19,0,0,1,1.58-.9,7.37,7.37,0,0,1,1.61-.47,8.07,8.07,0,0,1,1.48-.15,7.23,7.23,0,0,1,2.72.52,6.78,6.78,0,0,1,2.34,1.53A7.44,7.44,0,0,1,46,223.19a9,9,0,0,1,.62,3.46v4.77Zm12.77-2v-2.5a8.47,8.47,0,0,0-.34-2.39,5.7,5.7,0,0,0-1-2,4.81,4.81,0,0,0-1.7-1.35,5.43,5.43,0,0,0-2.39-.49,7.21,7.21,0,0,0-1.64.22,4.89,4.89,0,0,0-3.22,2.61,6.21,6.21,0,0,0-.59,2.89v3Z"/>
        <path class="cls-3" d="M32,215.78v-9.44h1.86v7.46H38.2v-7h1.86v7h4.69V206h1.86v9.81Z"/>
      </g>
      <g>
        <path class="cls-3" d="M106.73,311.68a1.79,1.79,0,0,0,.76.78,2.2,2.2,0,0,0,1.06.27,1.81,1.81,0,0,0,.51-.08,1.44,1.44,0,0,0,.46-.24,1.13,1.13,0,0,0,.33-.36.88.88,0,0,0,.13-.49.79.79,0,0,0-.28-.66,1.89,1.89,0,0,0-.68-.34,6.81,6.81,0,0,0-.89-.22,4,4,0,0,1-.9-.27,2,2,0,0,1-.68-.52,1.39,1.39,0,0,1-.28-.94,1.62,1.62,0,0,1,.19-.81,1.81,1.81,0,0,1,.49-.57,2.47,2.47,0,0,1,.69-.34,3,3,0,0,1,2.1.18,2,2,0,0,1,.88.91l-.73.44a1.83,1.83,0,0,0-.58-.67,1.62,1.62,0,0,0-.9-.22,1.86,1.86,0,0,0-.45.06,1.54,1.54,0,0,0-.43.2,1.18,1.18,0,0,0-.32.31.84.84,0,0,0-.13.44.76.76,0,0,0,.28.64,2.14,2.14,0,0,0,.68.32,7.06,7.06,0,0,0,.9.2,4,4,0,0,1,.89.27,1.81,1.81,0,0,1,.69.54,1.59,1.59,0,0,1,.27,1,1.94,1.94,0,0,1-.18.86,1.84,1.84,0,0,1-.5.61,2.05,2.05,0,0,1-.72.37,3,3,0,0,1-.86.13,3.45,3.45,0,0,1-1.48-.32,2.29,2.29,0,0,1-1-1Z"/>
        <path class="cls-3" d="M112.14,310.13a3.59,3.59,0,0,1,.24-1.34,3.07,3.07,0,0,1,.68-1.06,3,3,0,0,1,1-.7,3.42,3.42,0,0,1,1.33-.25,3.34,3.34,0,0,1,1.32.25,3.13,3.13,0,0,1,1,.7,3.09,3.09,0,0,1,.69,1.06,3.59,3.59,0,0,1,.24,1.34,3.63,3.63,0,0,1-.24,1.34,3.19,3.19,0,0,1-.69,1.06,3.13,3.13,0,0,1-1,.7,3.53,3.53,0,0,1-1.32.25,3.62,3.62,0,0,1-1.33-.25,3,3,0,0,1-1-.7,3.16,3.16,0,0,1-.68-1.06A3.63,3.63,0,0,1,112.14,310.13Zm.81,0a3.06,3.06,0,0,0,.17,1,2.47,2.47,0,0,0,.49.83,2.51,2.51,0,0,0,.79.56,2.75,2.75,0,0,0,2.06,0,2.36,2.36,0,0,0,.78-.56,2.33,2.33,0,0,0,.5-.83,3.06,3.06,0,0,0,.17-1,3,3,0,0,0-.17-1,2.25,2.25,0,0,0-.5-.83,2.36,2.36,0,0,0-.78-.56,2.75,2.75,0,0,0-2.06,0,2.51,2.51,0,0,0-.79.56,2.37,2.37,0,0,0-.49.83A3,3,0,0,0,113,310.13Z"/>
        <path class="cls-3" d="M120.54,308.74c0-.12,0-.27,0-.44s0-.34,0-.51,0-.34,0-.49,0-.27,0-.35h.81c0,.24,0,.46,0,.69s0,.36,0,.42h0a2.16,2.16,0,0,1,.81-.9,2.36,2.36,0,0,1,1.33-.38,2,2,0,0,1,1.13.33,1.76,1.76,0,0,1,.75,1.05,2,2,0,0,1,.89-1.05,2.48,2.48,0,0,1,1.24-.33,2.6,2.6,0,0,1,1.19.24,1.81,1.81,0,0,1,.72.61,2.27,2.27,0,0,1,.37.87,4.9,4.9,0,0,1,.1,1v3.79h-.81v-3.75a3.81,3.81,0,0,0-.07-.75,1.75,1.75,0,0,0-.24-.65,1.22,1.22,0,0,0-.47-.46,1.54,1.54,0,0,0-.79-.17,1.9,1.9,0,0,0-.94.21,1.64,1.64,0,0,0-.57.54,2.29,2.29,0,0,0-.3.72,3.23,3.23,0,0,0-.09.73v3.58h-.81v-3.83a2.79,2.79,0,0,0-.32-1.42,1.05,1.05,0,0,0-1-.53,2.41,2.41,0,0,0-.85.15,1.78,1.78,0,0,0-.69.49,2.12,2.12,0,0,0-.46.81,3.57,3.57,0,0,0-.17,1.15v3.18h-.81Z"/>
        <path class="cls-3" d="M137.61,312.11a2.75,2.75,0,0,1-1.18,1.05,3.64,3.64,0,0,1-1.53.32,3.35,3.35,0,0,1-1.3-.25,3,3,0,0,1-1-.7,3.07,3.07,0,0,1-.64-1.06,3.9,3.9,0,0,1-.22-1.35,3.61,3.61,0,0,1,.23-1.33,3.15,3.15,0,0,1,.65-1.05,3,3,0,0,1,1-.7,3,3,0,0,1,1.26-.26,3,3,0,0,1,1.26.26,2.73,2.73,0,0,1,.92.67,2.91,2.91,0,0,1,.57,1,3.41,3.41,0,0,1,.18,1.09v.57h-5.25a2.71,2.71,0,0,0,.1.67,2.4,2.4,0,0,0,1.1,1.46,2.25,2.25,0,0,0,1.17.27,2.64,2.64,0,0,0,1.21-.3,2.23,2.23,0,0,0,.89-.83Zm-.63-2.52a1.83,1.83,0,0,0-.17-.8,2,2,0,0,0-.46-.65,2.06,2.06,0,0,0-.69-.45,2.22,2.22,0,0,0-.85-.16,2.06,2.06,0,0,0-1.1.27,2.53,2.53,0,0,0-.7.63,2.59,2.59,0,0,0-.36.7,1.63,1.63,0,0,0-.11.46Z"/>
        <path class="cls-3" d="M138.73,307h.89l1.52,5.33h0l1.75-5.33h.77l1.85,5.33h0l1.48-5.33h.81L146,313.31h-.84l-1.87-5.21h0l-1.75,5.21h-.84Z"/>
        <path class="cls-3" d="M149.15,302.9H150v5.16h0a2.16,2.16,0,0,1,.81-.9,2.36,2.36,0,0,1,1.33-.38,2.57,2.57,0,0,1,1.19.24,1.81,1.81,0,0,1,.72.61,2.27,2.27,0,0,1,.37.87,4.9,4.9,0,0,1,.1,1v3.79h-.81v-3.75a3.81,3.81,0,0,0-.07-.75,1.75,1.75,0,0,0-.24-.65,1.22,1.22,0,0,0-.47-.46,1.54,1.54,0,0,0-.79-.17,2.41,2.41,0,0,0-.85.15,1.78,1.78,0,0,0-.69.49,2.26,2.26,0,0,0-.46.81,3.57,3.57,0,0,0-.17,1.15v3.18h-.81Z"/>
        <path class="cls-3" d="M161.54,310.64c0,.31,0,.59,0,.84s0,.48,0,.69,0,.41,0,.59l.06.55h-.75a5.52,5.52,0,0,1-.08-1h0a2.41,2.41,0,0,1-.88.91,2.69,2.69,0,0,1-1.32.29,3.15,3.15,0,0,1-.8-.11,2.15,2.15,0,0,1-.7-.33,1.69,1.69,0,0,1-.51-.58,1.8,1.8,0,0,1-.2-.87,1.75,1.75,0,0,1,.37-1.16,2.25,2.25,0,0,1,.9-.64,4.31,4.31,0,0,1,1.14-.27,8.65,8.65,0,0,1,1.06-.07h.95v-.38a1.38,1.38,0,0,0-.5-1.19,2.08,2.08,0,0,0-1.26-.35,2.81,2.81,0,0,0-1.91.71l-.47-.56a2.69,2.69,0,0,1,1.11-.67,3.93,3.93,0,0,1,1.27-.23,2.8,2.8,0,0,1,1.82.55,2.1,2.1,0,0,1,.67,1.75Zm-1.62-.52a8,8,0,0,0-1,.06,3.69,3.69,0,0,0-.87.24,1.55,1.55,0,0,0-.61.44,1,1,0,0,0-.23.69,1,1,0,0,0,.13.51,1.1,1.1,0,0,0,.33.38,1.57,1.57,0,0,0,.45.22,1.79,1.79,0,0,0,.51.07,2.56,2.56,0,0,0,1.07-.19,1.93,1.93,0,0,0,.67-.5,1.82,1.82,0,0,0,.35-.71,3.48,3.48,0,0,0,.09-.79v-.42Z"/>
        <path class="cls-3" d="M166.77,307.69H165v4.15a.93.93,0,0,0,.23.66.9.9,0,0,0,.64.23,2,2,0,0,0,.47-.06,2.18,2.18,0,0,0,.45-.16l.07.74a4.24,4.24,0,0,1-.53.16,2.76,2.76,0,0,1-.53.07,1.84,1.84,0,0,1-.74-.14,1.16,1.16,0,0,1-.5-.35,1.34,1.34,0,0,1-.28-.51,2.2,2.2,0,0,1-.09-.64v-4.15h-1.35V307h1.35v-1.83H165V307h1.79Z"/>
        <path class="cls-3" d="M171.74,308.74c0-.12,0-.27,0-.44s0-.34,0-.51,0-.34,0-.49,0-.27,0-.35h.81c0,.24,0,.46,0,.69a2.55,2.55,0,0,0,0,.42h0a2.26,2.26,0,0,1,.82-.9,2.35,2.35,0,0,1,1.32-.38,2.61,2.61,0,0,1,1.2.24,2,2,0,0,1,.72.61,2.27,2.27,0,0,1,.37.87,4.9,4.9,0,0,1,.1,1v3.79h-.81v-3.75a4.76,4.76,0,0,0-.07-.75,2.19,2.19,0,0,0-.24-.65,1.22,1.22,0,0,0-.47-.46,1.58,1.58,0,0,0-.8-.17,2.36,2.36,0,0,0-.84.15,1.78,1.78,0,0,0-.69.49,2.12,2.12,0,0,0-.46.81,3.32,3.32,0,0,0-.17,1.15v3.18h-.82Z"/>
        <path class="cls-3" d="M178.92,310.13a3.4,3.4,0,0,1,.25-1.34,3.2,3.2,0,0,1,.67-1.06,3.07,3.07,0,0,1,1-.7,3.64,3.64,0,0,1,2.65,0,3.13,3.13,0,0,1,1,.7,3.07,3.07,0,0,1,.68,1.06,3.4,3.4,0,0,1,.25,1.34,3.44,3.44,0,0,1-.25,1.34,3.16,3.16,0,0,1-.68,1.06,3.13,3.13,0,0,1-1,.7,3.64,3.64,0,0,1-2.65,0,3.07,3.07,0,0,1-1-.7,3.3,3.3,0,0,1-.67-1.06A3.44,3.44,0,0,1,178.92,310.13Zm.82,0a2.82,2.82,0,0,0,.17,1,2.31,2.31,0,0,0,.49.83,2.51,2.51,0,0,0,.79.56,2.59,2.59,0,0,0,1,.2,2.63,2.63,0,0,0,1-.2A2.59,2.59,0,0,0,184,312a2.49,2.49,0,0,0,.5-.83,3.06,3.06,0,0,0,.17-1,3,3,0,0,0-.17-1,2.39,2.39,0,0,0-.5-.83,2.59,2.59,0,0,0-.78-.56,2.46,2.46,0,0,0-1-.2,2.43,2.43,0,0,0-1,.2,2.51,2.51,0,0,0-.79.56,2.23,2.23,0,0,0-.49.83A2.78,2.78,0,0,0,179.74,310.13Z"/>
        <path class="cls-3" d="M190.38,307.69H188.6v4.15a.89.89,0,0,0,.23.66.85.85,0,0,0,.63.23,1.89,1.89,0,0,0,.47-.06,2.18,2.18,0,0,0,.45-.16l.07.74a4.24,4.24,0,0,1-.53.16,2.67,2.67,0,0,1-.52.07,1.89,1.89,0,0,1-.75-.14,1.22,1.22,0,0,1-.5-.35,1.34,1.34,0,0,1-.28-.51,2.2,2.2,0,0,1-.09-.64v-4.15h-1.35V307h1.35v-1.83h.82V307h1.78Z"/>
        <path class="cls-3" d="M195.18,307H196v1.11h0a2.38,2.38,0,0,1,.47-.57,3.12,3.12,0,0,1,.62-.4,3.38,3.38,0,0,1,.7-.23,3.53,3.53,0,0,1,.72-.08,3.34,3.34,0,0,1,1.32.25,3.13,3.13,0,0,1,1,.7,3.24,3.24,0,0,1,.69,1.06,3.59,3.59,0,0,1,.24,1.34,3.63,3.63,0,0,1-.24,1.34,3.35,3.35,0,0,1-.69,1.06,3.13,3.13,0,0,1-1,.7,3.49,3.49,0,0,1-2,.17,3.38,3.38,0,0,1-.7-.23,3.12,3.12,0,0,1-.62-.4,2.44,2.44,0,0,1-.47-.58h0v4.26h-.81Zm.73,3.18a2.47,2.47,0,0,0,.21,1,2.61,2.61,0,0,0,.55.83,2.82,2.82,0,0,0,.83.56,2.66,2.66,0,0,0,1,.2,2.63,2.63,0,0,0,1-.2,2.39,2.39,0,0,0,1.28-1.39,3.06,3.06,0,0,0,.17-1,3,3,0,0,0-.17-1,2.39,2.39,0,0,0-.5-.83,2.6,2.6,0,0,0-2.84-.56,2.82,2.82,0,0,0-.83.56,2.51,2.51,0,0,0-.55.83A2.44,2.44,0,0,0,195.91,310.13Z"/>
        <path class="cls-3" d="M203.63,308.74c0-.12,0-.27,0-.44s0-.34,0-.51,0-.34,0-.49,0-.27,0-.35h.81c0,.24,0,.46,0,.69a2.55,2.55,0,0,0,0,.42,3,3,0,0,1,.8-.92,2,2,0,0,1,1.2-.36l.23,0,.24.05-.1.81a1.12,1.12,0,0,0-.31-.05,2.31,2.31,0,0,0-.91.17,1.72,1.72,0,0,0-.64.48,1.88,1.88,0,0,0-.37.7,3.17,3.17,0,0,0-.12.88v3.47h-.82Z"/>
        <path class="cls-3" d="M207.55,310.13a3.59,3.59,0,0,1,.24-1.34,3.07,3.07,0,0,1,.68-1.06,3.13,3.13,0,0,1,1-.7,3.42,3.42,0,0,1,1.33-.25,3.34,3.34,0,0,1,1.32.25,3.13,3.13,0,0,1,1,.7,3,3,0,0,1,.69,1.06,3.59,3.59,0,0,1,.24,1.34,3.63,3.63,0,0,1-.24,1.34,3,3,0,0,1-.69,1.06,3.13,3.13,0,0,1-1,.7,3.53,3.53,0,0,1-1.32.25,3.62,3.62,0,0,1-1.33-.25,3.13,3.13,0,0,1-1-.7,3.16,3.16,0,0,1-.68-1.06A3.63,3.63,0,0,1,207.55,310.13Zm.81,0a3.06,3.06,0,0,0,.17,1,2.33,2.33,0,0,0,.5.83,2.36,2.36,0,0,0,.78.56,2.75,2.75,0,0,0,2.06,0,2.51,2.51,0,0,0,.79-.56,2.47,2.47,0,0,0,.49-.83,3.06,3.06,0,0,0,.17-1,3,3,0,0,0-.17-1,2.37,2.37,0,0,0-.49-.83,2.51,2.51,0,0,0-.79-.56,2.75,2.75,0,0,0-2.06,0,2.36,2.36,0,0,0-.78.56,2.25,2.25,0,0,0-.5.83A3,3,0,0,0,208.36,310.13Z"/>
        <path class="cls-3" d="M221.24,311.52c0,.12,0,.26,0,.43s0,.35,0,.52,0,.34,0,.49,0,.27,0,.35h-.81c0-.24,0-.47,0-.69s0-.36,0-.43h0a2.36,2.36,0,0,1-2.15,1.29,2.6,2.6,0,0,1-1.19-.24,2,2,0,0,1-.74-.61,2.29,2.29,0,0,1-.35-.88,4.9,4.9,0,0,1-.1-1V307h.81v3.74a4.54,4.54,0,0,0,.07.75,1.92,1.92,0,0,0,.24.66,1.22,1.22,0,0,0,.47.46,1.68,1.68,0,0,0,.79.17,2.22,2.22,0,0,0,.85-.16,1.66,1.66,0,0,0,.69-.48,2.2,2.2,0,0,0,.46-.81,3.36,3.36,0,0,0,.17-1.15V307h.81Z"/>
        <path class="cls-3" d="M229,312.19h0a2.25,2.25,0,0,1-.48.58,3.06,3.06,0,0,1-.61.4,3.53,3.53,0,0,1-2.75.06,3.13,3.13,0,0,1-1-.7,3.16,3.16,0,0,1-.68-1.06,3.63,3.63,0,0,1-.24-1.34,3.59,3.59,0,0,1,.24-1.34,3.07,3.07,0,0,1,.68-1.06,3.13,3.13,0,0,1,1-.7,3.42,3.42,0,0,1,1.33-.25,3.54,3.54,0,0,1,1.42.31,3.06,3.06,0,0,1,.61.4,2.21,2.21,0,0,1,.48.57h0V302.9h.82v10.41H229Zm.08-2.06a2.43,2.43,0,0,0-.2-1,2.51,2.51,0,0,0-.55-.83,2.82,2.82,0,0,0-.83-.56,2.52,2.52,0,0,0-1-.2,2.46,2.46,0,0,0-1,.2,2.51,2.51,0,0,0-.79.56,2.37,2.37,0,0,0-.49.83,3,3,0,0,0-.17,1,3.06,3.06,0,0,0,.17,1,2.47,2.47,0,0,0,.49.83,2.51,2.51,0,0,0,.79.56,2.63,2.63,0,0,0,1,.2,2.7,2.7,0,0,0,1-.2,2.82,2.82,0,0,0,.83-.56,2.61,2.61,0,0,0,.55-.83A2.46,2.46,0,0,0,229,310.13Z"/>
        <path class="cls-3" d="M234.78,309.67h3.34v.75h-3.34Z"/>
        <path class="cls-3" d="M242.79,312.35l3.6-3.87.49-.53a5.13,5.13,0,0,0,.44-.6,3.57,3.57,0,0,0,.32-.65,2.27,2.27,0,0,0,.12-.75,1.7,1.7,0,0,0-.54-1.33,2,2,0,0,0-1.37-.48,1.83,1.83,0,0,0-1.26.44,2,2,0,0,0-.67,1.16l-.94-.1a2.61,2.61,0,0,1,1-1.69,3.23,3.23,0,0,1,1.9-.56,3.15,3.15,0,0,1,1.06.18,2.78,2.78,0,0,1,.88.48,2.55,2.55,0,0,1,.6.78,2.39,2.39,0,0,1,.22,1.06,3,3,0,0,1-.17,1,4.13,4.13,0,0,1-.45.92,5.42,5.42,0,0,1-.63.82l-.73.77-3,3.13h5v.74h-5.93Z"/>
        <path class="cls-3" d="M249.79,305.76a2.32,2.32,0,0,1,.18-.92,2.29,2.29,0,0,1,.5-.75,2.33,2.33,0,0,1,.74-.51,2.27,2.27,0,0,1,1.82,0,2.33,2.33,0,0,1,.74.51,2.29,2.29,0,0,1,.5.75,2.32,2.32,0,0,1,.18.92,2.41,2.41,0,0,1-.18.93,2.52,2.52,0,0,1-.5.75,2.71,2.71,0,0,1-.74.51,2.39,2.39,0,0,1-1.82,0,2.71,2.71,0,0,1-.74-.51,2.52,2.52,0,0,1-.5-.75A2.41,2.41,0,0,1,249.79,305.76Zm.73,0a1.5,1.5,0,0,0,.13.64,1.7,1.7,0,0,0,.35.52,1.43,1.43,0,0,0,.5.34,1.54,1.54,0,0,0,1.24,0,1.43,1.43,0,0,0,.5-.34,1.7,1.7,0,0,0,.35-.52,1.5,1.5,0,0,0,.13-.64,1.53,1.53,0,0,0-.13-.64,1.54,1.54,0,0,0-.35-.51,1.46,1.46,0,0,0-.5-.35,1.66,1.66,0,0,0-1.24,0,1.46,1.46,0,0,0-.5.35,1.54,1.54,0,0,0-.35.51A1.53,1.53,0,0,0,250.52,305.76Zm7.07-2.67.63.39L252,313.78l-.61-.39Zm-2.45,8a2.41,2.41,0,0,1,.18-.93,2.56,2.56,0,0,1,.51-.75,2.52,2.52,0,0,1,.73-.51,2.31,2.31,0,0,1,.91-.18,2.27,2.27,0,0,1,.91.18,2.57,2.57,0,0,1,.74.51,2.52,2.52,0,0,1,.5.75,2.41,2.41,0,0,1,.18.93,2.32,2.32,0,0,1-.18.92,2.52,2.52,0,0,1-.5.75,2.23,2.23,0,0,1-.74.51,2.28,2.28,0,0,1-.91.19,2.32,2.32,0,0,1-.91-.19,2.19,2.19,0,0,1-.73-.51,2.56,2.56,0,0,1-.51-.75A2.32,2.32,0,0,1,255.14,311.11Zm.73,0a1.7,1.7,0,0,0,.13.64,1.65,1.65,0,0,0,.35.51,1.41,1.41,0,0,0,.51.35,1.54,1.54,0,0,0,.61.12,1.63,1.63,0,0,0,.62-.12,1.6,1.6,0,0,0,.51-.35,1.63,1.63,0,0,0,.34-.51,1.53,1.53,0,0,0,.13-.64,1.5,1.5,0,0,0-.13-.64,1.67,1.67,0,0,0-.34-.52,1.57,1.57,0,0,0-.51-.34,1.47,1.47,0,0,0-.62-.13,1.65,1.65,0,0,0-1.12.47,1.7,1.7,0,0,0-.35.52A1.66,1.66,0,0,0,255.87,311.11Z"/>
      </g>
      <g>
        <path class="cls-3" d="M106.9,341c0-.12,0-.26,0-.44s0-.34,0-.51,0-.34,0-.49,0-.27,0-.35h.82c0,.24,0,.47,0,.69a1.74,1.74,0,0,0,0,.42h0a2.29,2.29,0,0,1,.81-.9,2.36,2.36,0,0,1,1.33-.38,2.54,2.54,0,0,1,1.19.24,1.91,1.91,0,0,1,.73.61,2.24,2.24,0,0,1,.36.88,4.81,4.81,0,0,1,.1,1v3.79h-.81v-3.74a3.84,3.84,0,0,0-.07-.76,1.93,1.93,0,0,0-.23-.65,1.25,1.25,0,0,0-.48-.46,1.52,1.52,0,0,0-.79-.17,2.22,2.22,0,0,0-.85.16,1.8,1.8,0,0,0-.69.48,2.26,2.26,0,0,0-.46.81,3.62,3.62,0,0,0-.17,1.15v3.18h-.81Z"/>
        <path class="cls-3" d="M114.08,342.41a3.63,3.63,0,0,1,.24-1.34A3.33,3.33,0,0,1,115,340a3.13,3.13,0,0,1,1-.7,3.62,3.62,0,0,1,1.33-.25,3.53,3.53,0,0,1,1.32.25,3.27,3.27,0,0,1,1,.7,3.16,3.16,0,0,1,.68,1.06,3.86,3.86,0,0,1,0,2.68,3.07,3.07,0,0,1-.68,1.06,3.27,3.27,0,0,1-1,.7,3.53,3.53,0,0,1-1.32.25,3.62,3.62,0,0,1-1.33-.25,3.13,3.13,0,0,1-1-.7,3.22,3.22,0,0,1-.68-1.06A3.63,3.63,0,0,1,114.08,342.41Zm.81,0a3,3,0,0,0,.17,1,2.33,2.33,0,0,0,.5.83,2.36,2.36,0,0,0,.78.56,2.75,2.75,0,0,0,2.06,0,2.51,2.51,0,0,0,.79-.56,2.47,2.47,0,0,0,.49-.83,3.09,3.09,0,0,0,0-2,2.47,2.47,0,0,0-.49-.83,2.51,2.51,0,0,0-.79-.56,2.75,2.75,0,0,0-2.06,0,2.36,2.36,0,0,0-.78.56,2.33,2.33,0,0,0-.5.83A3,3,0,0,0,114.89,342.41Z"/>
        <path class="cls-3" d="M125.54,340h-1.79v4.15a.93.93,0,0,0,.23.66.85.85,0,0,0,.64.23,2,2,0,0,0,.47-.06,2.41,2.41,0,0,0,.45-.16l.07.75-.53.15a2.87,2.87,0,0,1-.53.07,2,2,0,0,1-.74-.13,1.35,1.35,0,0,1-.5-.35,1.38,1.38,0,0,1-.28-.52,2.2,2.2,0,0,1-.09-.64V340h-1.36v-.74h1.36V337.4h.81v1.83h1.79Z"/>
        <path class="cls-3" d="M130.34,339.23h.81v1.11h0a2,2,0,0,1,.47-.57,3.12,3.12,0,0,1,.62-.4,3.19,3.19,0,0,1,.7-.23,3.45,3.45,0,0,1,2,.17,3.08,3.08,0,0,1,1.73,1.76,3.72,3.72,0,0,1,0,2.68,3.07,3.07,0,0,1-.68,1.06,3.17,3.17,0,0,1-1.05.7,3.45,3.45,0,0,1-2,.17,3.19,3.19,0,0,1-.7-.23,3.12,3.12,0,0,1-.62-.4,2,2,0,0,1-.47-.57h0v4.25h-.81Zm.73,3.18a2.6,2.6,0,0,0,.2,1,2.64,2.64,0,0,0,.56.83,2.77,2.77,0,0,0,.82.56,2.7,2.7,0,0,0,1,.2,2.59,2.59,0,0,0,1-.2,2.51,2.51,0,0,0,.79-.56,2.31,2.31,0,0,0,.49-.83,3.09,3.09,0,0,0,0-2,2.31,2.31,0,0,0-.49-.83,2.51,2.51,0,0,0-.79-.56,2.59,2.59,0,0,0-1-.2,2.7,2.7,0,0,0-1,.2,2.77,2.77,0,0,0-.82.56,2.64,2.64,0,0,0-.56.83A2.6,2.6,0,0,0,131.07,342.41Z"/>
        <path class="cls-3" d="M138.79,341c0-.12,0-.26,0-.44s0-.34,0-.51,0-.34,0-.49,0-.27,0-.35h.82c0,.24,0,.47,0,.69a1.74,1.74,0,0,0,0,.42,2.85,2.85,0,0,1,.8-.92,1.93,1.93,0,0,1,1.19-.36l.24,0,.24.05-.1.82a.89.89,0,0,0-.31-.06,2.27,2.27,0,0,0-.91.17,1.72,1.72,0,0,0-.64.48,1.93,1.93,0,0,0-.37.71,2.73,2.73,0,0,0-.13.87v3.47h-.81Z"/>
        <path class="cls-3" d="M142.7,342.41a3.63,3.63,0,0,1,.25-1.34,3.16,3.16,0,0,1,.68-1.06,2.94,2.94,0,0,1,1-.7,3.62,3.62,0,0,1,1.33-.25,3.53,3.53,0,0,1,1.32.25,3.13,3.13,0,0,1,1,.7,3.35,3.35,0,0,1,.69,1.06,3.86,3.86,0,0,1,0,2.68,3.24,3.24,0,0,1-.69,1.06,3.13,3.13,0,0,1-1,.7,3.53,3.53,0,0,1-1.32.25,3.62,3.62,0,0,1-1.33-.25,2.94,2.94,0,0,1-1-.7,3.07,3.07,0,0,1-.68-1.06A3.63,3.63,0,0,1,142.7,342.41Zm.82,0a2.78,2.78,0,0,0,.17,1,2.31,2.31,0,0,0,.49.83,2.51,2.51,0,0,0,.79.56,2.59,2.59,0,0,0,1,.2,2.63,2.63,0,0,0,1-.2,2.39,2.39,0,0,0,1.28-1.39,3.09,3.09,0,0,0,0-2A2.39,2.39,0,0,0,147,340a2.63,2.63,0,0,0-1-.2,2.59,2.59,0,0,0-1,.2,2.51,2.51,0,0,0-.79.56,2.31,2.31,0,0,0-.49.83A2.78,2.78,0,0,0,143.52,342.41Z"/>
        <path class="cls-3" d="M156.4,343.8c0,.12,0,.27,0,.44l0,.51c0,.18,0,.34,0,.49s0,.27,0,.35h-.81c0-.24,0-.47,0-.69a2.18,2.18,0,0,0,0-.42h0a2.16,2.16,0,0,1-.81.9,2.36,2.36,0,0,1-1.33.38,2.61,2.61,0,0,1-1.2-.24,1.91,1.91,0,0,1-.73-.61,2.11,2.11,0,0,1-.36-.87,5.77,5.77,0,0,1-.09-1v-3.79h.81V343a3.84,3.84,0,0,0,.07.76,1.93,1.93,0,0,0,.23.65,1.25,1.25,0,0,0,.48.46,1.54,1.54,0,0,0,.79.17,2.41,2.41,0,0,0,.85-.15,1.94,1.94,0,0,0,.69-.49,2.26,2.26,0,0,0,.46-.81,3.62,3.62,0,0,0,.17-1.15v-3.18h.81Z"/>
        <path class="cls-3" d="M164.11,344.48h0a2,2,0,0,1-.47.57,3.12,3.12,0,0,1-.62.4,3.19,3.19,0,0,1-.7.23,3.51,3.51,0,0,1-.71.08,3.62,3.62,0,0,1-1.33-.25,3.07,3.07,0,0,1-1.05-.7,3.2,3.2,0,0,1-.67-1.06,3.72,3.72,0,0,1,0-2.68,3.3,3.3,0,0,1,.67-1.06,3.07,3.07,0,0,1,1.05-.7,3.62,3.62,0,0,1,1.33-.25,3.51,3.51,0,0,1,.71.08,3.19,3.19,0,0,1,.7.23,3.12,3.12,0,0,1,.62.4,2,2,0,0,1,.47.57h0v-5.16h.81v10.41h-.81Zm.08-2.07a2.6,2.6,0,0,0-.2-1,2.64,2.64,0,0,0-.56-.83,2.77,2.77,0,0,0-.82-.56,2.7,2.7,0,0,0-1-.2,2.59,2.59,0,0,0-1,.2,2.51,2.51,0,0,0-.79.56,2.31,2.31,0,0,0-.49.83,3.09,3.09,0,0,0,0,2,2.31,2.31,0,0,0,.49.83,2.51,2.51,0,0,0,.79.56,2.59,2.59,0,0,0,1,.2,2.7,2.7,0,0,0,1-.2,2.77,2.77,0,0,0,.82-.56,2.64,2.64,0,0,0,.56-.83A2.6,2.6,0,0,0,164.19,342.41Z"/>
        <path class="cls-3" d="M169.94,342h3.34v.74h-3.34Z"/>
        <path class="cls-3" d="M177.94,344.63l3.61-3.87c.16-.17.32-.34.48-.53a4.19,4.19,0,0,0,.44-.6,3,3,0,0,0,.32-.65,2.25,2.25,0,0,0,.12-.74,1.7,1.7,0,0,0-.54-1.34,2,2,0,0,0-1.37-.48,1.92,1.92,0,0,0-1.26.44,2,2,0,0,0-.66,1.16l-1-.1a2.58,2.58,0,0,1,1-1.69,3.18,3.18,0,0,1,1.89-.56,3.11,3.11,0,0,1,1.06.18,2.44,2.44,0,0,1,.88.49,2.26,2.26,0,0,1,.6.77,2.39,2.39,0,0,1,.23,1.06,3.19,3.19,0,0,1-.17,1,3.93,3.93,0,0,1-.45.92,5.5,5.5,0,0,1-.64.82c-.23.26-.48.51-.72.77l-3,3.13h5v.74h-5.94Z"/>
        <path class="cls-3" d="M185,338a2.36,2.36,0,0,1,.18-.92,2.52,2.52,0,0,1,.5-.75,2.57,2.57,0,0,1,.74-.51,2.25,2.25,0,0,1,1.81,0,2.57,2.57,0,0,1,.74.51,2.52,2.52,0,0,1,.5.75,2.2,2.2,0,0,1,.19.92,2.24,2.24,0,0,1-.19.93,2.52,2.52,0,0,1-.5.75,2.57,2.57,0,0,1-.74.51,2.37,2.37,0,0,1-1.81,0,2.57,2.57,0,0,1-.74-.51,2.52,2.52,0,0,1-.5-.75A2.41,2.41,0,0,1,185,338Zm.73,0a1.5,1.5,0,0,0,.13.64,1.67,1.67,0,0,0,.34.52,1.78,1.78,0,0,0,.51.35,1.64,1.64,0,0,0,1.23,0,1.54,1.54,0,0,0,.51-.35,1.7,1.7,0,0,0,.35-.52,1.66,1.66,0,0,0,.12-.64,1.69,1.69,0,0,0-.12-.64,1.65,1.65,0,0,0-.35-.51,1.54,1.54,0,0,0-.51-.35,1.64,1.64,0,0,0-1.23,0,1.78,1.78,0,0,0-.51.35,1.63,1.63,0,0,0-.34.51A1.53,1.53,0,0,0,185.68,338Zm7.07-2.67.62.39-6.19,10.3-.61-.39Zm-2.45,8a2.32,2.32,0,0,1,.18-.92,2.45,2.45,0,0,1,.5-.76,2.57,2.57,0,0,1,.74-.51,2.27,2.27,0,0,1,.91-.18,2.23,2.23,0,0,1,.9.18,2.44,2.44,0,0,1,.74.51,2.48,2.48,0,0,1,.51.76,2.35,2.35,0,0,1-.51,2.59,2.13,2.13,0,0,1-.74.51,2.08,2.08,0,0,1-.9.19,2.12,2.12,0,0,1-.91-.19,2.23,2.23,0,0,1-.74-.51,2.29,2.29,0,0,1-.5-.75A2.32,2.32,0,0,1,190.3,343.39Zm.73,0a1.64,1.64,0,0,0,.47,1.15,1.6,1.6,0,0,0,.51.35,1.63,1.63,0,0,0,.62.12,1.58,1.58,0,0,0,.61-.12,1.41,1.41,0,0,0,.51-.35,1.54,1.54,0,0,0,.35-.51,1.64,1.64,0,0,0-.35-1.8,1.39,1.39,0,0,0-.51-.34,1.42,1.42,0,0,0-.61-.13,1.47,1.47,0,0,0-.62.13,1.57,1.57,0,0,0-.51.34,1.67,1.67,0,0,0-.34.52A1.53,1.53,0,0,0,191,343.39Z"/>
      </g>
      <g>
        <path class="cls-3" d="M241.17,468h5.06a6,6,0,0,1,2.28.38,4,4,0,0,1,1.41,1,3.3,3.3,0,0,1,.72,1.32,5.17,5.17,0,0,1,.2,1.42,5.05,5.05,0,0,1-.2,1.41,3.27,3.27,0,0,1-.72,1.33,4,4,0,0,1-1.41,1,6,6,0,0,1-2.28.38h-3.11v6.45h-2Zm2,6.45h2.56a7.08,7.08,0,0,0,1.13-.1,3,3,0,0,0,1-.34,1.84,1.84,0,0,0,.7-.71,2.95,2.95,0,0,0,0-2.42,1.84,1.84,0,0,0-.7-.71,3,3,0,0,0-1-.34,7.08,7.08,0,0,0-1.13-.1h-2.56Z"/>
        <path class="cls-3" d="M253.22,468h9.29v1.86h-7.34v4.36H262v1.86h-6.83v4.69h7.7v1.86h-9.65Z"/>
        <path class="cls-3" d="M265.64,468h5.06a5.87,5.87,0,0,1,2.27.38,4,4,0,0,1,1.42,1,3.56,3.56,0,0,1,.72,1.32,5.58,5.58,0,0,1,.2,1.42,3.84,3.84,0,0,1-.24,1.35,4,4,0,0,1-.7,1.18,4.11,4.11,0,0,1-1.12.89,3.76,3.76,0,0,1-1.48.44l4.09,6.68h-2.44l-3.66-6.45h-2.17v6.45h-1.95Zm1.95,6.45h2.56a7.19,7.19,0,0,0,1.13-.1,2.83,2.83,0,0,0,1-.34,1.77,1.77,0,0,0,.7-.71,2.85,2.85,0,0,0,0-2.42,1.77,1.77,0,0,0-.7-.71,2.83,2.83,0,0,0-1-.34,7.19,7.19,0,0,0-1.13-.1h-2.56Z"/>
        <path class="cls-3" d="M288.07,471.2a4.05,4.05,0,0,0-1.54-1.24,4.55,4.55,0,0,0-1.93-.43,5.11,5.11,0,0,0-2.21.46,5.19,5.19,0,0,0-1.69,1.27,5.86,5.86,0,0,0-1.08,1.89,6.86,6.86,0,0,0-.39,2.33,6.38,6.38,0,0,0,.37,2.19,5.49,5.49,0,0,0,1,1.82,5.08,5.08,0,0,0,1.69,1.23,5.28,5.28,0,0,0,2.26.46,4.36,4.36,0,0,0,2.17-.52,4.73,4.73,0,0,0,1.59-1.44l1.64,1.26a7,7,0,0,1-.57.65,5.86,5.86,0,0,1-1.07.84,7.64,7.64,0,0,1-1.62.75,6.9,6.9,0,0,1-2.18.32,7,7,0,0,1-3.08-.66,7.31,7.31,0,0,1-2.34-1.74,7.53,7.53,0,0,1-1.47-2.43,7.67,7.67,0,0,1-.51-2.73,8.58,8.58,0,0,1,.55-3.13,7.2,7.2,0,0,1,1.53-2.48,6.76,6.76,0,0,1,2.37-1.62,7.75,7.75,0,0,1,3.05-.58,7.17,7.17,0,0,1,2.79.56,5.18,5.18,0,0,1,2.25,1.71Z"/>
        <path class="cls-3" d="M292.36,468h9.29v1.86h-7.34v4.36h6.83v1.86h-6.83v4.69H302v1.86h-9.65Z"/>
        <path class="cls-3" d="M304.78,468h2.56l7.92,12h0V468h1.95v14.63h-2.48l-8-12h0v12h-2Z"/>
        <path class="cls-3" d="M324,469.9h-4.63V468h11.21v1.86h-4.63v12.77h-2Z"/>
        <path class="cls-3" d="M335.26,468H337l6.15,14.63h-2.27l-1.45-3.62h-6.84l-1.43,3.62h-2.27Zm3.49,9.28-2.68-6.72h0l-2.72,6.72Z"/>
        <path class="cls-3" d="M357.3,474.49v7.21a6.25,6.25,0,0,1-1.19.57,12,12,0,0,1-1.4.43,14.39,14.39,0,0,1-1.46.26,13.9,13.9,0,0,1-1.39.08,8.17,8.17,0,0,1-3.26-.62,7,7,0,0,1-3.92-4.12,8.29,8.29,0,0,1-.52-2.95,8,8,0,0,1,.56-3,7.4,7.4,0,0,1,1.54-2.44,7,7,0,0,1,2.37-1.62,7.51,7.51,0,0,1,3-.59,9,9,0,0,1,3.25.5,6,6,0,0,1,2.11,1.4l-1.38,1.51a5.05,5.05,0,0,0-1.89-1.21,6.36,6.36,0,0,0-2.09-.34,5.22,5.22,0,0,0-2.24.46,5.27,5.27,0,0,0-2.8,3.1,6.51,6.51,0,0,0-.39,2.26,6,6,0,0,0,.43,2.31,5.47,5.47,0,0,0,2.94,3.08,5.6,5.6,0,0,0,2.22.44,9.5,9.5,0,0,0,2-.2,5.25,5.25,0,0,0,1.57-.57v-4.07h-3.19v-1.85Z"/>
        <path class="cls-3" d="M360.86,468h9.29v1.86h-7.34v4.36h6.83v1.86h-6.83v4.69h7.7v1.86h-9.65Z"/>
      </g>
      <g class="cls-4">
        <g class="cls-4">
          <path class="cls-3" d="M57.86,28.5h2.25l4.23,11.9h0l4.39-11.9H70.9L65.23,43.12H63.4Z"/>
          <path class="cls-3" d="M76.21,28.5H78l6.16,14.62H81.85l-1.44-3.61H73.56l-1.42,3.61H69.87Zm3.49,9.27L77,31.06h0l-2.73,6.71Z"/>
          <path class="cls-3" d="M86,28.5h5.06a5.78,5.78,0,0,1,2.28.38,3.92,3.92,0,0,1,1.41,1,3.41,3.41,0,0,1,.72,1.32,5.12,5.12,0,0,1,.2,1.42,3.84,3.84,0,0,1-.24,1.35,3.92,3.92,0,0,1-.7,1.18,4.11,4.11,0,0,1-1.12.89,3.76,3.76,0,0,1-1.47.44l4.08,6.67H93.78l-3.65-6.44H88v6.44H86Zm2,6.44h2.56a7.08,7.08,0,0,0,1.13-.09,3.19,3.19,0,0,0,1-.34,1.91,1.91,0,0,0,.7-.71,2.52,2.52,0,0,0,.26-1.21,2.5,2.5,0,0,0-.26-1.21,1.84,1.84,0,0,0-.7-.71,3,3,0,0,0-1-.34,6.09,6.09,0,0,0-1.13-.1H88Z"/>
          <path class="cls-3" d="M98.42,28.5h2V43.12h-2Z"/>
          <path class="cls-3" d="M104.07,28.5h9.28v1.86H106v4.35h6.82v1.86H106v4.69h7.7v1.86h-9.65Z"/>
          <path class="cls-3" d="M119.49,30.36h-4.63V28.5h11.21v1.86h-4.63V43.12h-2Z"/>
          <path class="cls-3" d="M131.54,36.88l-5.45-8.38h2.5l3.93,6.42,4-6.42h2.38l-5.45,8.38v6.24h-2Z"/>
          <path class="cls-3" d="M139.69,35.93a1.29,1.29,0,0,1-.95-.4,1.38,1.38,0,0,1,0-1.92,1.29,1.29,0,0,1,.95-.4,1.25,1.25,0,0,1,.94.4,1.35,1.35,0,0,1,0,1.92A1.25,1.25,0,0,1,139.69,35.93Zm-1.34,6a1.35,1.35,0,0,1,1.34-1.36,1.29,1.29,0,0,1,.94.4,1.31,1.31,0,0,1,.4,1,1.28,1.28,0,0,1-.4,1,1.26,1.26,0,0,1-.94.41,1.37,1.37,0,0,1-1.34-1.37Z"/>
        </g>
        <g>
          <path class="cls-5" d="M162.15,28.5h1.37v6.44h.12l7.09-6.44h1.88l-7.4,6.69L173,43.12h-2l-7.42-7.56h-.12v7.56h-1.37Z"/>
          <path class="cls-5" d="M179.26,28.5h1.4l6.16,14.62h-1.53l-1.59-3.88H176l-1.65,3.88h-1.42ZM179.9,30l-3.41,8h6.72Z"/>
          <path class="cls-5" d="M188.78,28.5h2.05l5.33,12.27,5.33-12.27h1.94V43.12h-1.36V30.23h0l-5.58,12.89h-.6l-5.66-12.89h0V43.12h-1.37Z"/>
          <path class="cls-5" d="M207.3,28.5h3.84c.19,0,.45,0,.78,0a7.42,7.42,0,0,1,1.08.12,7,7,0,0,1,1.18.33,3.3,3.3,0,0,1,1.07.66,3.49,3.49,0,0,1,.79,1.1,3.89,3.89,0,0,1,.3,1.61,3.55,3.55,0,0,1-.36,1.73,3.33,3.33,0,0,1-.9,1.11,4,4,0,0,1-1.21.63,8.63,8.63,0,0,1-1.26.29l4.25,7h-1.55l-4.11-6.94h-2.54v6.94H207.3Zm1.36,6.44h2.89a4.76,4.76,0,0,0,1.75-.27,2.86,2.86,0,0,0,1-.66,2.07,2.07,0,0,0,.51-.84,2.71,2.71,0,0,0,0-1.66,2.07,2.07,0,0,0-.51-.84,2.88,2.88,0,0,0-1-.67,5,5,0,0,0-1.75-.26h-2.89Z"/>
          <path class="cls-5" d="M229.94,37.52a9.27,9.27,0,0,1-.27,2.26,5.21,5.21,0,0,1-.9,1.9A4.51,4.51,0,0,1,227.12,43a6.55,6.55,0,0,1-5,0,4.51,4.51,0,0,1-1.65-1.32,5.21,5.21,0,0,1-.9-1.9,9.27,9.27,0,0,1-.27-2.26v-9h1.36v8.67a10.16,10.16,0,0,0,.15,1.68,5,5,0,0,0,.56,1.65,3.61,3.61,0,0,0,1.2,1.26,4.47,4.47,0,0,0,4.11,0,3.44,3.44,0,0,0,1.2-1.26,5,5,0,0,0,.57-1.65,10.16,10.16,0,0,0,.15-1.68V28.5h1.36Z"/>
          <path class="cls-5" d="M233.68,28.5h4.21a7.51,7.51,0,0,1,1.6.17,4.67,4.67,0,0,1,1.53.61,3.52,3.52,0,0,1,1.14,1.19,3.62,3.62,0,0,1,.44,1.89,3.78,3.78,0,0,1-.36,1.71,3.25,3.25,0,0,1-1,1.19,4.17,4.17,0,0,1-1.4.69,5.81,5.81,0,0,1-1.67.23H235v6.94h-1.36ZM235,34.94h3.1a4.8,4.8,0,0,0,1.14-.13,3,3,0,0,0,1-.44,2.23,2.23,0,0,0,.7-.79,2.53,2.53,0,0,0,.27-1.22,2.37,2.37,0,0,0-.28-1.2,2.56,2.56,0,0,0-.72-.81,3,3,0,0,0-1-.47,4.66,4.66,0,0,0-1.16-.14h-3Z"/>
          <path class="cls-5" d="M245.54,28.5h1.36V43.12h-1.36Z"/>
          <path class="cls-5" d="M254.15,36.82l-5.37-8.32h1.63l4.42,6.94,4.53-6.94h1.53l-5.37,8.32v6.3h-1.37Z"/>
          <path class="cls-5" d="M265.72,28.5h1.41l6.15,14.62h-1.53l-1.59-3.88h-7.74l-1.66,3.88h-1.42Zm.64,1.48L263,38h6.72Z"/>
        </g>
        <g class="cls-4">
          <path class="cls-3" d="M59.83,61.78h5.06a5.87,5.87,0,0,1,2.27.38,3.89,3.89,0,0,1,1.42,1,3.41,3.41,0,0,1,.72,1.32,5.11,5.11,0,0,1,0,2.83,3.41,3.41,0,0,1-.72,1.32,3.88,3.88,0,0,1-1.42,1,5.69,5.69,0,0,1-2.27.38H61.78v6.45h-2Zm2,6.45h2.56a7.17,7.17,0,0,0,1.13-.09,3.06,3.06,0,0,0,1-.35,1.77,1.77,0,0,0,.7-.71,2.38,2.38,0,0,0,.27-1.21,2.41,2.41,0,0,0-.27-1.21,1.84,1.84,0,0,0-.7-.71,3,3,0,0,0-1-.34,7.17,7.17,0,0,0-1.13-.09H61.78Z"/>
          <path class="cls-3" d="M78.48,76.78a7.58,7.58,0,0,1-3-.59,6.9,6.9,0,0,1-2.36-1.62,7.42,7.42,0,0,1-1.55-2.44,8.5,8.5,0,0,1,0-6.07,7.42,7.42,0,0,1,1.55-2.44A6.9,6.9,0,0,1,75.45,62a8.08,8.08,0,0,1,6.06,0,7,7,0,0,1,2.37,1.62,7.56,7.56,0,0,1,1.54,2.44,8.5,8.5,0,0,1,0,6.07,7.56,7.56,0,0,1-1.54,2.44,7,7,0,0,1-2.37,1.62A7.51,7.51,0,0,1,78.48,76.78Zm0-1.86a5.25,5.25,0,0,0,2.24-.46,5.32,5.32,0,0,0,1.7-1.25,5.55,5.55,0,0,0,1.1-1.85,6.77,6.77,0,0,0,0-4.53A5.55,5.55,0,0,0,82.42,65a5.23,5.23,0,0,0-3.94-1.71A5.27,5.27,0,0,0,74.54,65a5.72,5.72,0,0,0-1.1,1.85,6.94,6.94,0,0,0,0,4.53,5.72,5.72,0,0,0,1.1,1.85,5.18,5.18,0,0,0,3.94,1.71Z"/>
          <path class="cls-3" d="M88.78,61.78h5.06a6,6,0,0,1,2.28.38,3.77,3.77,0,0,1,1.41,1,3.17,3.17,0,0,1,.72,1.32,4.87,4.87,0,0,1,0,2.83,3.17,3.17,0,0,1-.72,1.32,3.75,3.75,0,0,1-1.41,1,5.78,5.78,0,0,1-2.28.38h-3.1v6.45h-2Zm2,6.45H93.3a7,7,0,0,0,1.12-.09,3,3,0,0,0,1-.35,1.84,1.84,0,0,0,.7-.71,2.39,2.39,0,0,0,.26-1.21,2.41,2.41,0,0,0-.26-1.21,1.91,1.91,0,0,0-.7-.71,3,3,0,0,0-1-.34,7,7,0,0,0-1.12-.09H90.74Z"/>
          <path class="cls-3" d="M102.52,61.78v9a5.86,5.86,0,0,0,.18,1.41,4.51,4.51,0,0,0,.61,1.36,3.68,3.68,0,0,0,4.54,1,3.28,3.28,0,0,0,1.11-1,4.06,4.06,0,0,0,.61-1.36,5.89,5.89,0,0,0,.19-1.41v-9h1.95v9.28a6,6,0,0,1-.43,2.32,5.62,5.62,0,0,1-1.18,1.81,5.23,5.23,0,0,1-1.77,1.18,6.08,6.08,0,0,1-4.39,0,5.35,5.35,0,0,1-2.94-3,6,6,0,0,1-.43-2.32V61.78Z"/>
          <path class="cls-3" d="M115.14,61.78h2V74.55h6.61v1.86h-8.56Z"/>
          <path class="cls-3" d="M130.2,61.78H132l6.15,14.63h-2.27l-1.44-3.62h-6.85l-1.43,3.62h-2.27Zm3.49,9.28L131,64.34h0l-2.72,6.72Z"/>
          <path class="cls-3" d="M140,61.78h5.06a5.93,5.93,0,0,1,2.28.38,3.77,3.77,0,0,1,1.41,1,3.17,3.17,0,0,1,.72,1.32,5.13,5.13,0,0,1,.21,1.41,4,4,0,0,1-.25,1.36,3.68,3.68,0,0,1-.7,1.17,4,4,0,0,1-2.59,1.34l4.09,6.67h-2.44L144.12,70h-2.18v6.45H140Zm1.95,6.45h2.56a7.08,7.08,0,0,0,1.13-.09,3,3,0,0,0,1-.35,1.84,1.84,0,0,0,.7-.71,2.39,2.39,0,0,0,.26-1.21,2.41,2.41,0,0,0-.26-1.21,1.91,1.91,0,0,0-.7-.71,3,3,0,0,0-1-.34,7.08,7.08,0,0,0-1.13-.09h-2.56Z"/>
          <path class="cls-3" d="M152.41,61.78h2V76.41h-2Z"/>
          <path class="cls-3" d="M161.07,63.64h-4.64V61.78h11.22v1.86H163V76.41h-2Z"/>
          <path class="cls-3" d="M173.12,70.17l-5.45-8.39h2.5l3.92,6.43,4-6.43h2.37l-5.44,8.39v6.24h-1.95Z"/>
          <path class="cls-3" d="M181.27,69.22a1.27,1.27,0,0,1-1-.4,1.35,1.35,0,0,1-.4-1,1.31,1.31,0,0,1,.4-1,1.35,1.35,0,0,1,2.29,1,1.31,1.31,0,0,1-.4,1A1.26,1.26,0,0,1,181.27,69.22Zm-1.35,6a1.35,1.35,0,0,1,.4-1,1.32,1.32,0,0,1,1.89,0,1.35,1.35,0,0,1,0,1.92,1.32,1.32,0,0,1-1.89,0A1.35,1.35,0,0,1,179.92,75.17Z"/>
        </g>
        <g class="cls-4">
          <path class="cls-3" d="M211.46,62.9l-5.73,13.51h-1.36L210.2,62.9h-6.9V61.78h8.16Z"/>
          <path class="cls-3" d="M214.7,75.54a1,1,0,0,1,.28-.7,1,1,0,0,1,1.38,0,1,1,0,0,1,.29.7,1,1,0,0,1-.29.71,1,1,0,0,1-1.38,0A1,1,0,0,1,214.7,75.54Z"/>
          <path class="cls-3" d="M227.46,62.9h-5.94l-.06,4.65a2.91,2.91,0,0,1,1-.33,6.74,6.74,0,0,1,1.08-.09,4.34,4.34,0,0,1,1.87.39,4,4,0,0,1,1.4,1,4.63,4.63,0,0,1,.9,1.54,5.48,5.48,0,0,1,.32,1.87,4.77,4.77,0,0,1-.42,2.06,4.22,4.22,0,0,1-1.09,1.47,4.45,4.45,0,0,1-1.48.87,4.85,4.85,0,0,1-1.61.29A5,5,0,0,1,220.8,76a4.47,4.47,0,0,1-1.65-1.82l1.26-.64a3,3,0,0,0,.49.77,3.46,3.46,0,0,0,.73.64,3.56,3.56,0,0,0,.87.44,2.91,2.91,0,0,0,2-.06,3.6,3.6,0,0,0,1.06-.66,3.65,3.65,0,0,0,.81-1.09,3.38,3.38,0,0,0,.33-1.53,4.1,4.1,0,0,0-.28-1.48,3.72,3.72,0,0,0-.76-1.2,3.61,3.61,0,0,0-1.15-.82,3.43,3.43,0,0,0-1.43-.3,4.12,4.12,0,0,0-1.51.28,5.92,5.92,0,0,0-1.34.71l.12-7.46h7.1Z"/>
          <path class="cls-3" d="M235.57,72.82h-6.22V71.35l5.75-9.57h1.68V71.7H239v1.12h-2.2v3.59h-1.21Zm0-9.67h0l-5.08,8.55h5.13Z"/>
          <path class="cls-3" d="M240.22,65.09a3.55,3.55,0,0,1,.27-1.39,3.93,3.93,0,0,1,.75-1.12,3.57,3.57,0,0,1,1.11-.77,3.47,3.47,0,0,1,2.73,0,3.64,3.64,0,0,1,1.1.77,3.55,3.55,0,0,1,.75,1.12,3.39,3.39,0,0,1,.28,1.39,3.34,3.34,0,0,1-.28,1.38,3.56,3.56,0,0,1-1.85,1.89,3.47,3.47,0,0,1-2.73,0,3.54,3.54,0,0,1-1.11-.76,4,4,0,0,1-.75-1.13A3.5,3.5,0,0,1,240.22,65.09Zm1.1,0a2.38,2.38,0,0,0,.19,1,2.55,2.55,0,0,0,.52.77,2.24,2.24,0,0,0,.76.52,2.35,2.35,0,0,0,1.85,0,2.34,2.34,0,0,0,.76-.52,2.55,2.55,0,0,0,.52-.77,2.38,2.38,0,0,0,.19-1,2.32,2.32,0,0,0-.19-1,2.48,2.48,0,0,0-.52-.78,2.31,2.31,0,0,0-.76-.51,2.35,2.35,0,0,0-1.85,0,2.21,2.21,0,0,0-.76.51,2.48,2.48,0,0,0-.52.78A2.32,2.32,0,0,0,241.32,65.09Zm10.6-4,.94.58-9.29,15.45-.91-.58Zm-3.68,12a3.54,3.54,0,0,1,.28-1.38,3.6,3.6,0,0,1,.75-1.13,3.71,3.71,0,0,1,1.11-.76,3.44,3.44,0,0,1,2.72,0,3.71,3.71,0,0,1,1.11.76,3.6,3.6,0,0,1,.75,1.13,3.57,3.57,0,0,1,0,2.77,3.44,3.44,0,0,1-.75,1.12,3.57,3.57,0,0,1-1.11.77,3.44,3.44,0,0,1-2.72,0,3.57,3.57,0,0,1-1.11-.77,3.44,3.44,0,0,1-.75-1.12A3.56,3.56,0,0,1,248.24,73.1Zm1.1,0a2.4,2.4,0,0,0,.2,1,2.52,2.52,0,0,0,.51.77,2.43,2.43,0,0,0,.77.52,2.39,2.39,0,0,0,.92.18,2.36,2.36,0,0,0,.92-.18,2.43,2.43,0,0,0,.77-.52,2.75,2.75,0,0,0,.52-.77,2.55,2.55,0,0,0,0-1.93,2.75,2.75,0,0,0-.52-.77,2.43,2.43,0,0,0-.77-.52,2.36,2.36,0,0,0-.92-.18,2.39,2.39,0,0,0-.92.18,2.43,2.43,0,0,0-.77.52,2.52,2.52,0,0,0-.51.77A2.39,2.39,0,0,0,249.34,73.1Z"/>
        </g>
      </g>
      <line class="cls-6" x1="118.72" y1="115.6" x2="482.34" y2="115.6"/>
      <g>
        <g>
          <g>
            <path class="cls-3" d="M65.79,432.5c0-.55,0-1.13.07-1.75a12,12,0,0,1,.29-1.81,9.2,9.2,0,0,1,.56-1.68,5,5,0,0,1,.93-1.4,4.17,4.17,0,0,1,1.36-1,5.12,5.12,0,0,1,3.77,0,4.06,4.06,0,0,1,1.36,1,5,5,0,0,1,.93,1.4,9.22,9.22,0,0,1,.57,1.68,12,12,0,0,1,.28,1.81c0,.62.08,1.2.08,1.75s0,1.16-.08,1.77a12,12,0,0,1-.28,1.8,9.39,9.39,0,0,1-.57,1.67,5.23,5.23,0,0,1-.93,1.41,4.06,4.06,0,0,1-1.36,1,5.12,5.12,0,0,1-3.77,0,4.17,4.17,0,0,1-1.36-1,5.23,5.23,0,0,1-.93-1.41,9.36,9.36,0,0,1-.56-1.67,12.06,12.06,0,0,1-.29-1.8C65.81,433.66,65.79,433.07,65.79,432.5Zm1.44,0c0,.41,0,.86,0,1.34s.09,1,.17,1.49a9.37,9.37,0,0,0,.39,1.47,4.61,4.61,0,0,0,.65,1.27,3.12,3.12,0,0,0,1,.89,3.09,3.09,0,0,0,2.82,0,3.08,3.08,0,0,0,1-.89A5.23,5.23,0,0,0,74,436.8a9.33,9.33,0,0,0,.38-1.47,11.15,11.15,0,0,0,.17-1.49c0-.48,0-.93,0-1.34s0-.83,0-1.33a11,11,0,0,0-.17-1.49,9.33,9.33,0,0,0-.38-1.47,5.23,5.23,0,0,0-.65-1.27,3.23,3.23,0,0,0-1-.9,3.07,3.07,0,0,0-2.81,0,3.19,3.19,0,0,0-1,.9,4.61,4.61,0,0,0-.65,1.27,9.37,9.37,0,0,0-.39,1.47c-.08.5-.14,1-.17,1.49S67.23,432.11,67.23,432.5Z"/>
            <path class="cls-3" d="M133.14,426h-6.36l-.07,4.9a3.4,3.4,0,0,1,1.09-.35,7.75,7.75,0,0,1,1.16-.09,4.73,4.73,0,0,1,2,.41,4.4,4.4,0,0,1,1.51,1.1,4.71,4.71,0,0,1,1,1.62,5.59,5.59,0,0,1,.34,2,5.11,5.11,0,0,1-.44,2.18,4.6,4.6,0,0,1-1.17,1.55,4.87,4.87,0,0,1-1.59.91,5,5,0,0,1-1.72.31,5.35,5.35,0,0,1-2.85-.7,4.69,4.69,0,0,1-1.77-1.92l1.35-.67a3.47,3.47,0,0,0,.53.82,4.18,4.18,0,0,0,.78.67,3.66,3.66,0,0,0,.93.46,3.31,3.31,0,0,0,1,.16,3.08,3.08,0,0,0,1.13-.23,3.66,3.66,0,0,0,1.13-.68,3.86,3.86,0,0,0,.88-1.16,3.57,3.57,0,0,0,.34-1.61,4.08,4.08,0,0,0-.29-1.56,4,4,0,0,0-.82-1.27,3.79,3.79,0,0,0-1.23-.86,3.72,3.72,0,0,0-1.54-.32,4.72,4.72,0,0,0-1.61.29,6.59,6.59,0,0,0-1.44.76l.13-7.87h7.61Z"/>
            <g>
              <path class="cls-3" d="M181.47,426.62h0l-2.79,2.29-.81-1,3.81-3.12h1.12v15.43h-1.31Z"/>
              <path class="cls-3" d="M187.68,432.5c0-.55,0-1.13.07-1.75a13.39,13.39,0,0,1,.29-1.81,9.22,9.22,0,0,1,.57-1.68,4.79,4.79,0,0,1,.92-1.4,4.17,4.17,0,0,1,1.36-1,5.12,5.12,0,0,1,3.77,0,4.21,4.21,0,0,1,1.37,1,5.23,5.23,0,0,1,.92,1.4,9.22,9.22,0,0,1,.57,1.68,12,12,0,0,1,.28,1.81c0,.62.08,1.2.08,1.75s0,1.16-.08,1.77a12,12,0,0,1-.28,1.8,9.39,9.39,0,0,1-.57,1.67,5.45,5.45,0,0,1-.92,1.41,4.21,4.21,0,0,1-1.37,1,5.12,5.12,0,0,1-3.77,0,4.17,4.17,0,0,1-1.36-1,5,5,0,0,1-.92-1.41,9.39,9.39,0,0,1-.57-1.67,13.5,13.5,0,0,1-.29-1.8C187.7,433.66,187.68,433.07,187.68,432.5Zm1.44,0c0,.41,0,.86,0,1.34s.09,1,.17,1.49a9.37,9.37,0,0,0,.39,1.47,4.61,4.61,0,0,0,.65,1.27,3.12,3.12,0,0,0,1,.89,3.09,3.09,0,0,0,2.82,0,3.08,3.08,0,0,0,1-.89,5.23,5.23,0,0,0,.65-1.27,9.33,9.33,0,0,0,.38-1.47,13.14,13.14,0,0,0,.18-1.49c0-.48,0-.93,0-1.34s0-.83,0-1.33a12.87,12.87,0,0,0-.18-1.49,9.33,9.33,0,0,0-.38-1.47,5.23,5.23,0,0,0-.65-1.27,3.23,3.23,0,0,0-1-.9,2.84,2.84,0,0,0-1.4-.34,2.88,2.88,0,0,0-1.41.34,3.19,3.19,0,0,0-1,.9,4.61,4.61,0,0,0-.65,1.27,9.37,9.37,0,0,0-.39,1.47c-.08.5-.14,1-.17,1.49S189.12,432.11,189.12,432.5Z"/>
            </g>
            <g>
              <path class="cls-3" d="M239.58,426.62h0l-2.79,2.29-.81-1,3.82-3.12h1.11v15.43h-1.31Z"/>
              <path class="cls-3" d="M255,426h-6.36l-.07,4.9a3.4,3.4,0,0,1,1.09-.35,7.75,7.75,0,0,1,1.16-.09,4.73,4.73,0,0,1,2,.41,4.4,4.4,0,0,1,1.51,1.1,4.71,4.71,0,0,1,1,1.62,5.59,5.59,0,0,1,.34,2,5,5,0,0,1-.45,2.18,4.45,4.45,0,0,1-1.16,1.55,4.87,4.87,0,0,1-1.59.91,5,5,0,0,1-1.72.31,5.35,5.35,0,0,1-2.85-.7,4.69,4.69,0,0,1-1.77-1.92l1.35-.67a3.47,3.47,0,0,0,.53.82,4.18,4.18,0,0,0,.78.67,3.66,3.66,0,0,0,.93.46,3.31,3.31,0,0,0,1,.16,3.08,3.08,0,0,0,1.13-.23,3.61,3.61,0,0,0,2-1.84,3.44,3.44,0,0,0,.35-1.61,4.08,4.08,0,0,0-.29-1.56,4,4,0,0,0-.82-1.27,3.79,3.79,0,0,0-1.23-.86,3.72,3.72,0,0,0-1.54-.32,4.67,4.67,0,0,0-1.61.29,6.59,6.59,0,0,0-1.44.76l.13-7.87H255Z"/>
            </g>
            <g>
              <path class="cls-3" d="M292.9,438.69l5.79-6.12c.26-.26.53-.54.79-.84a8,8,0,0,0,.71-.94,4.94,4.94,0,0,0,.51-1,3.52,3.52,0,0,0,.2-1.18,2.67,2.67,0,0,0-.88-2.11,3.21,3.21,0,0,0-2.2-.77,3,3,0,0,0-2,.7,3.17,3.17,0,0,0-1.07,1.83l-1.53-.15a4.11,4.11,0,0,1,1.64-2.67,5.18,5.18,0,0,1,3.05-.88,5.36,5.36,0,0,1,1.7.27,4.47,4.47,0,0,1,1.41.77,3.63,3.63,0,0,1,1.33,2.9,4.94,4.94,0,0,1-.27,1.66,6.76,6.76,0,0,1-.72,1.45,9,9,0,0,1-1,1.29l-1.17,1.22-4.81,5h8.1v1.18H292.9Z"/>
              <path class="cls-3" d="M303.9,432.5c0-.55,0-1.13.08-1.75a12,12,0,0,1,.28-1.81,9.22,9.22,0,0,1,.57-1.68,5.23,5.23,0,0,1,.92-1.4,4.21,4.21,0,0,1,1.37-1,5.12,5.12,0,0,1,3.77,0,4.17,4.17,0,0,1,1.36,1,4.79,4.79,0,0,1,.92,1.4,9.22,9.22,0,0,1,.57,1.68,13.39,13.39,0,0,1,.29,1.81c.05.62.07,1.2.07,1.75s0,1.16-.07,1.77a13.5,13.5,0,0,1-.29,1.8,9.39,9.39,0,0,1-.57,1.67,5,5,0,0,1-.92,1.41,4.17,4.17,0,0,1-1.36,1,5.12,5.12,0,0,1-3.77,0,4.21,4.21,0,0,1-1.37-1,5.45,5.45,0,0,1-.92-1.41,9.39,9.39,0,0,1-.57-1.67,12,12,0,0,1-.28-1.8C303.93,433.66,303.9,433.07,303.9,432.5Zm1.44,0c0,.41,0,.86,0,1.34a13.14,13.14,0,0,0,.18,1.49,9.33,9.33,0,0,0,.38,1.47,5.23,5.23,0,0,0,.65,1.27,3.12,3.12,0,0,0,1,.89,3.11,3.11,0,0,0,2.83,0,3,3,0,0,0,1-.89,4.61,4.61,0,0,0,.65-1.27,9.37,9.37,0,0,0,.39-1.47c.08-.51.14-1,.17-1.49s0-.93,0-1.34,0-.83,0-1.33-.09-1-.17-1.49a9.37,9.37,0,0,0-.39-1.47,4.61,4.61,0,0,0-.65-1.27,3.19,3.19,0,0,0-1-.9,2.88,2.88,0,0,0-1.41-.34,2.84,2.84,0,0,0-1.4.34,3.23,3.23,0,0,0-1,.9,5.23,5.23,0,0,0-.65,1.27,9.33,9.33,0,0,0-.38,1.47,12.87,12.87,0,0,0-.18,1.49C305.36,431.67,305.34,432.11,305.34,432.5Z"/>
            </g>
            <g>
              <path class="cls-3" d="M351,438.69l5.8-6.12q.39-.39.78-.84a8,8,0,0,0,.71-.94,4.94,4.94,0,0,0,.51-1,3.52,3.52,0,0,0,.2-1.18,2.63,2.63,0,0,0-.88-2.11,3.21,3.21,0,0,0-2.2-.77,3,3,0,0,0-2,.7,3.17,3.17,0,0,0-1.07,1.83l-1.53-.15a4.15,4.15,0,0,1,1.64-2.67,5.18,5.18,0,0,1,3.05-.88,5.36,5.36,0,0,1,1.7.27,4.52,4.52,0,0,1,1.42.77,3.73,3.73,0,0,1,1,1.23,3.63,3.63,0,0,1,.36,1.67,4.94,4.94,0,0,1-.27,1.66,6.76,6.76,0,0,1-.72,1.45,8.38,8.38,0,0,1-1,1.29c-.39.41-.77.82-1.17,1.22l-4.81,5h8.1v1.18H351Z"/>
              <path class="cls-3" d="M371.25,426h-6.36l-.06,4.9a3.24,3.24,0,0,1,1.09-.35,7.65,7.65,0,0,1,1.16-.09,4.77,4.77,0,0,1,2,.41,4.36,4.36,0,0,1,1.5,1.1,4.89,4.89,0,0,1,1,1.62,5.82,5.82,0,0,1,.34,2,5,5,0,0,1-.45,2.18,4.6,4.6,0,0,1-1.17,1.55,4.87,4.87,0,0,1-1.59.91,5,5,0,0,1-1.72.31,5.32,5.32,0,0,1-2.84-.7,4.65,4.65,0,0,1-1.78-1.92l1.35-.67a3.23,3.23,0,0,0,.54.82,3.82,3.82,0,0,0,.77.67,3.57,3.57,0,0,0,.94.46,3.2,3.2,0,0,0,1,.16,3,3,0,0,0,1.13-.23,3.59,3.59,0,0,0,2-1.84,3.57,3.57,0,0,0,.35-1.61,4.09,4.09,0,0,0-.3-1.56,4,4,0,0,0-.81-1.27,3.86,3.86,0,0,0-2.77-1.18,4.67,4.67,0,0,0-1.61.29,6.16,6.16,0,0,0-1.44.76l.13-7.87h7.6Z"/>
            </g>
            <g>
              <path class="cls-3" d="M410.54,437a3.92,3.92,0,0,0,1.19,1.71,3.19,3.19,0,0,0,2,.6,4,4,0,0,0,1.51-.26,2.93,2.93,0,0,0,1.08-.72,3.11,3.11,0,0,0,.64-1.07,3.94,3.94,0,0,0,.22-1.3,2.8,2.8,0,0,0-.36-1.46,2.88,2.88,0,0,0-.94-1,4,4,0,0,0-1.31-.56,6,6,0,0,0-1.47-.18h-.56v-1.3h.65a4.74,4.74,0,0,0,1.23-.17,3.42,3.42,0,0,0,1.11-.51,2.68,2.68,0,0,0,.8-.9,2.79,2.79,0,0,0,.3-1.34,2.82,2.82,0,0,0-.77-2,2.78,2.78,0,0,0-2.08-.8,3.17,3.17,0,0,0-1.72.49,3.47,3.47,0,0,0-1.2,1.32l-1.24-.69a3.91,3.91,0,0,1,1.73-1.75,5.42,5.42,0,0,1,2.43-.54,5.27,5.27,0,0,1,1.65.25,4.07,4.07,0,0,1,1.38.74,3.43,3.43,0,0,1,.92,1.23,4.09,4.09,0,0,1,.34,1.74,3.71,3.71,0,0,1-.7,2.24,3.59,3.59,0,0,1-2.05,1.34v0a4,4,0,0,1,1.35.49,4.18,4.18,0,0,1,1,.88,4,4,0,0,1,.68,1.18,4,4,0,0,1,.24,1.4,4.9,4.9,0,0,1-.3,1.72,3.76,3.76,0,0,1-.89,1.4,4.28,4.28,0,0,1-1.49.95,5.85,5.85,0,0,1-2.1.35,5.59,5.59,0,0,1-2.95-.73,4.45,4.45,0,0,1-1.82-2.3Z"/>
              <path class="cls-3" d="M420.13,432.5c0-.55,0-1.13.07-1.75a12,12,0,0,1,.29-1.81,8.5,8.5,0,0,1,.56-1.68,5,5,0,0,1,.93-1.4,4.17,4.17,0,0,1,1.36-1,5.12,5.12,0,0,1,3.77,0,4.17,4.17,0,0,1,1.36,1,5,5,0,0,1,.93,1.4,8.5,8.5,0,0,1,.56,1.68,12,12,0,0,1,.29,1.81c.05.62.08,1.2.08,1.75s0,1.16-.08,1.77a12.06,12.06,0,0,1-.29,1.8,8.63,8.63,0,0,1-.56,1.67,5.23,5.23,0,0,1-.93,1.41,4.17,4.17,0,0,1-1.36,1,5.12,5.12,0,0,1-3.77,0,4.17,4.17,0,0,1-1.36-1,5.23,5.23,0,0,1-.93-1.41,8.63,8.63,0,0,1-.56-1.67,12.06,12.06,0,0,1-.29-1.8C420.15,433.66,420.13,433.07,420.13,432.5Zm1.43,0c0,.41,0,.86.05,1.34s.09,1,.17,1.49a10.57,10.57,0,0,0,.38,1.47,4.92,4.92,0,0,0,.66,1.27,3.12,3.12,0,0,0,1,.89,3.09,3.09,0,0,0,2.82,0,3,3,0,0,0,1-.89,4.92,4.92,0,0,0,.66-1.27,10.57,10.57,0,0,0,.38-1.47,13.08,13.08,0,0,0,.17-1.49c0-.48.05-.93.05-1.34s0-.83-.05-1.33a12.83,12.83,0,0,0-.17-1.49,10.57,10.57,0,0,0-.38-1.47,4.92,4.92,0,0,0-.66-1.27,3.19,3.19,0,0,0-1-.9,3.07,3.07,0,0,0-2.81,0,3.19,3.19,0,0,0-1,.9,4.92,4.92,0,0,0-.66,1.27,10.57,10.57,0,0,0-.38,1.47c-.08.5-.14,1-.17,1.49S421.56,432.11,421.56,432.5Z"/>
            </g>
            <g>
              <path class="cls-3" d="M468.65,437a4,4,0,0,0,1.19,1.71,3.22,3.22,0,0,0,2.06.6,3.93,3.93,0,0,0,1.5-.26,2.77,2.77,0,0,0,1.08-.72,3,3,0,0,0,.64-1.07,3.7,3.7,0,0,0,.22-1.3,2.8,2.8,0,0,0-.36-1.46,2.88,2.88,0,0,0-.94-1,4,4,0,0,0-1.3-.56,6.18,6.18,0,0,0-1.48-.18h-.56v-1.3h.65a4.74,4.74,0,0,0,1.23-.17,3.32,3.32,0,0,0,1.11-.51,2.58,2.58,0,0,0,.8-.9,2.8,2.8,0,0,0-2.55-4.18,3.17,3.17,0,0,0-1.72.49,3.47,3.47,0,0,0-1.2,1.32l-1.24-.69a4,4,0,0,1,1.73-1.75,5.7,5.7,0,0,1,4.09-.29,4,4,0,0,1,1.37.74,3.58,3.58,0,0,1,.93,1.23,4.25,4.25,0,0,1,.33,1.74,3.77,3.77,0,0,1-.69,2.24,3.66,3.66,0,0,1-2.05,1.34v0a4,4,0,0,1,1.34.49,4.18,4.18,0,0,1,1,.88,4,4,0,0,1,.68,1.18,4,4,0,0,1,.24,1.4,4.9,4.9,0,0,1-.3,1.72,3.76,3.76,0,0,1-.89,1.4,4.28,4.28,0,0,1-1.49.95,5.83,5.83,0,0,1-2.09.35,5.6,5.6,0,0,1-3-.73,4.5,4.5,0,0,1-1.82-2.3Z"/>
              <path class="cls-3" d="M487.48,426h-6.36l-.07,4.9a3.32,3.32,0,0,1,1.09-.35,7.75,7.75,0,0,1,1.16-.09,4.77,4.77,0,0,1,2,.41,4.49,4.49,0,0,1,1.51,1.1,5,5,0,0,1,1,1.62,5.59,5.59,0,0,1,.34,2,5,5,0,0,1-.45,2.18,4.45,4.45,0,0,1-1.16,1.55,4.87,4.87,0,0,1-1.59.91,5,5,0,0,1-1.72.31,5.33,5.33,0,0,1-2.85-.7,4.69,4.69,0,0,1-1.77-1.92l1.35-.67a3.19,3.19,0,0,0,.53.82,4.12,4.12,0,0,0,.77.67,3.73,3.73,0,0,0,.94.46,3.26,3.26,0,0,0,1,.16,3.12,3.12,0,0,0,1.13-.23,3.78,3.78,0,0,0,1.13-.68,3.68,3.68,0,0,0,.87-1.16,3.44,3.44,0,0,0,.35-1.61,4.28,4.28,0,0,0-.29-1.56,4,4,0,0,0-.82-1.27,3.82,3.82,0,0,0-2.77-1.18,4.67,4.67,0,0,0-1.61.29,6.59,6.59,0,0,0-1.44.76l.13-7.87h7.61Z"/>
            </g>
            <g>
              <path class="cls-3" d="M531.62,436.43H525v-1.55l6.17-10.09h1.81v10.46h2.35v1.18h-2.35v3.79h-1.31Zm0-10.2h0l-5.45,9h5.49Z"/>
              <path class="cls-3" d="M536.35,432.5c0-.55,0-1.13.08-1.75a12,12,0,0,1,.28-1.81,9.22,9.22,0,0,1,.57-1.68,5,5,0,0,1,.92-1.4,4.17,4.17,0,0,1,1.36-1,4.55,4.55,0,0,1,1.89-.36,4.5,4.5,0,0,1,1.88.36,4.21,4.21,0,0,1,1.37,1,5.23,5.23,0,0,1,.92,1.4,9.22,9.22,0,0,1,.57,1.68,12,12,0,0,1,.28,1.81c0,.62.08,1.2.08,1.75s0,1.16-.08,1.77a12,12,0,0,1-.28,1.8,9.39,9.39,0,0,1-.57,1.67,5.45,5.45,0,0,1-.92,1.41,4.21,4.21,0,0,1-1.37,1,4.5,4.5,0,0,1-1.88.36,4.55,4.55,0,0,1-1.89-.36,4.17,4.17,0,0,1-1.36-1,5.2,5.2,0,0,1-.92-1.41,9.39,9.39,0,0,1-.57-1.67,12,12,0,0,1-.28-1.8C536.37,433.66,536.35,433.07,536.35,432.5Zm1.44,0c0,.41,0,.86,0,1.34a13.14,13.14,0,0,0,.18,1.49,8.36,8.36,0,0,0,.38,1.47,4.61,4.61,0,0,0,.65,1.27,3.12,3.12,0,0,0,1,.89,3.09,3.09,0,0,0,2.82,0,3.08,3.08,0,0,0,1-.89,4.9,4.9,0,0,0,.65-1.27,9.33,9.33,0,0,0,.38-1.47,13.14,13.14,0,0,0,.18-1.49c0-.48,0-.93,0-1.34s0-.83,0-1.33a12.87,12.87,0,0,0-.18-1.49,9.33,9.33,0,0,0-.38-1.47,4.9,4.9,0,0,0-.65-1.27,3.23,3.23,0,0,0-1-.9,2.84,2.84,0,0,0-1.4-.34A2.88,2.88,0,0,0,540,426a3.19,3.19,0,0,0-1,.9,4.61,4.61,0,0,0-.65,1.27,8.36,8.36,0,0,0-.38,1.47,12.87,12.87,0,0,0-.18,1.49C537.8,431.67,537.79,432.11,537.79,432.5Z"/>
            </g>
          </g>
          <line class="cls-7" x1="70.89" y1="419.44" x2="535.78" y2="419.44"/>
          <g>
            <line class="cls-7" x1="70.89" y1="419.44" x2="70.89" y2="412.35"/>
            <line class="cls-7" x1="129" y1="419.44" x2="129" y2="412.35"/>
            <line class="cls-7" x1="187.11" y1="419.44" x2="187.11" y2="412.35"/>
            <line class="cls-7" x1="245.22" y1="419.44" x2="245.22" y2="412.35"/>
            <line class="cls-7" x1="303.34" y1="419.44" x2="303.34" y2="412.35"/>
            <line class="cls-7" x1="361.45" y1="419.44" x2="361.45" y2="412.35"/>
            <line class="cls-7" x1="419.56" y1="419.44" x2="419.56" y2="412.35"/>
            <line class="cls-7" x1="477.67" y1="419.44" x2="477.67" y2="412.35"/>
            <line class="cls-7" x1="535.78" y1="419.44" x2="535.78" y2="412.35"/>
          </g>
        </g>
        <g>
          <line class="cls-7" x1="70.89" y1="419.44" x2="70.89" y2="135.67"/>
          <line class="cls-7" x1="70.89" y1="277.55" x2="82.51" y2="277.55"/>
        </g>
        <g>
          <rect class="cls-8" x="70.89" y="360.25" width="104.6" height="29.19"/>
          <rect class="cls-9" x="70.89" y="327.82" width="23.24" height="29.19"/>
          <rect class="cls-10" x="70.89" y="295.39" width="23.24" height="29.19"/>
          <rect class="cls-11" x="70.89" y="262.96" width="151.09" height="29.19"/>
          <rect class="cls-12" x="70.89" y="230.53" width="418.41" height="29.19"/>
          <rect class="cls-13" x="70.89" y="198.1" width="441.65" height="29.19"/>
        </g>
      </g>
      <g>
        <path class="cls-3" d="M171.46,277.37c0-.12,0-.27,0-.44s0-.34,0-.51,0-.34,0-.49,0-.27,0-.35h.82c0,.24,0,.47,0,.69a1.74,1.74,0,0,0,0,.42h0a2.19,2.19,0,0,1,.82-.9,2.33,2.33,0,0,1,1.32-.38,2.61,2.61,0,0,1,1.2.24,2,2,0,0,1,.72.61,2.27,2.27,0,0,1,.37.87,5.69,5.69,0,0,1,.1,1v3.79H176v-3.75a4.74,4.74,0,0,0-.06-.75,2.19,2.19,0,0,0-.24-.65,1.22,1.22,0,0,0-.47-.46,1.58,1.58,0,0,0-.8-.17,2.36,2.36,0,0,0-.84.15,1.78,1.78,0,0,0-.69.49,2.12,2.12,0,0,0-.46.81,3.32,3.32,0,0,0-.17,1.15v3.18h-.82Z"/>
        <path class="cls-3" d="M184.52,280.74a2.67,2.67,0,0,1-1.17,1.05,3.72,3.72,0,0,1-1.54.32,3.38,3.38,0,0,1-1.3-.25,3,3,0,0,1-1-.7,3.07,3.07,0,0,1-.64-1.06,3.9,3.9,0,0,1-.23-1.35,3.83,3.83,0,0,1,.23-1.33,3.32,3.32,0,0,1,.65-1.05,3,3,0,0,1,1-.7,3.05,3.05,0,0,1,1.26-.26,3,3,0,0,1,1.27.26,2.84,2.84,0,0,1,.92.67,2.73,2.73,0,0,1,.56,1,3.17,3.17,0,0,1,.19,1.09V279h-5.26a2.8,2.8,0,0,0,.11.66,2.31,2.31,0,0,0,.37.8,2.56,2.56,0,0,0,.72.66,2.32,2.32,0,0,0,1.18.27,2.6,2.6,0,0,0,1.2-.3,2.19,2.19,0,0,0,.9-.83Zm-.62-2.52a2,2,0,0,0-.17-.8,2.13,2.13,0,0,0-.46-.65,2.17,2.17,0,0,0-.69-.45,2.22,2.22,0,0,0-.85-.16,2.06,2.06,0,0,0-1.1.27,2.55,2.55,0,0,0-.7.63,3,3,0,0,0-.37.7,2.1,2.1,0,0,0-.11.46Z"/>
        <path class="cls-3" d="M191.82,280.15c0,.12,0,.26,0,.43s0,.35,0,.52,0,.34,0,.49,0,.27,0,.35h-.81c0-.24,0-.47,0-.69s0-.36,0-.42H191a2.29,2.29,0,0,1-.81.9,2.36,2.36,0,0,1-1.33.38,2.67,2.67,0,0,1-1.2-.24,1.91,1.91,0,0,1-.73-.61,2.47,2.47,0,0,1-.36-.88,5.66,5.66,0,0,1-.09-1v-3.79h.81v3.74a3.67,3.67,0,0,0,.07.75,1.73,1.73,0,0,0,.24.66,1.22,1.22,0,0,0,.47.46,1.65,1.65,0,0,0,.79.17,2.22,2.22,0,0,0,.85-.16,1.66,1.66,0,0,0,.69-.48,2.12,2.12,0,0,0,.46-.81,3.62,3.62,0,0,0,.17-1.15v-3.18h.81Z"/>
        <path class="cls-3" d="M197.12,276.32h-1.79v4.15a.93.93,0,0,0,.23.66.9.9,0,0,0,.64.23,2,2,0,0,0,.47-.06,2.18,2.18,0,0,0,.45-.16l.07.75-.53.15a2.87,2.87,0,0,1-.53.07,2,2,0,0,1-.74-.13,1.27,1.27,0,0,1-.5-.36,1.34,1.34,0,0,1-.28-.51,2.2,2.2,0,0,1-.09-.64v-4.15h-1.36v-.74h1.36v-1.83h.81v1.83h1.79Z"/>
        <path class="cls-3" d="M198.57,277.37c0-.12,0-.27,0-.44s0-.34,0-.51,0-.34,0-.49,0-.27,0-.35h.82c0,.24,0,.47,0,.69a1.74,1.74,0,0,0,0,.42,2.85,2.85,0,0,1,.8-.92,1.93,1.93,0,0,1,1.19-.36l.24,0,.23.05-.09.81a1.18,1.18,0,0,0-.31-.05,2.36,2.36,0,0,0-.92.17,1.68,1.68,0,0,0-.63.48,2.06,2.06,0,0,0-.38.7,3.17,3.17,0,0,0-.12.88v3.47h-.81Z"/>
        <path class="cls-3" d="M208,279.27v.84c0,.25,0,.48,0,.69s0,.41,0,.59a5.14,5.14,0,0,0,.06.55h-.76a5.52,5.52,0,0,1-.08-1h0a2.39,2.39,0,0,1-.87.91,2.74,2.74,0,0,1-1.32.29,3,3,0,0,1-.8-.11,2.11,2.11,0,0,1-.71-.33,1.69,1.69,0,0,1-.51-.58,1.8,1.8,0,0,1-.19-.87,1.75,1.75,0,0,1,.36-1.16,2.4,2.4,0,0,1,.9-.64,4.31,4.31,0,0,1,1.14-.27,8.68,8.68,0,0,1,1.07-.07h.94v-.38a1.35,1.35,0,0,0-.5-1.19,2.16,2.16,0,0,0-1.26-.35,2.81,2.81,0,0,0-1.91.71l-.47-.56a2.83,2.83,0,0,1,1.11-.67,4,4,0,0,1,1.27-.23,2.78,2.78,0,0,1,1.82.55,2.11,2.11,0,0,1,.68,1.75Zm-1.63-.52a8.14,8.14,0,0,0-1,.06,3.48,3.48,0,0,0-.86.24,1.61,1.61,0,0,0-.62.44,1,1,0,0,0-.23.69,1,1,0,0,0,.13.51,1.11,1.11,0,0,0,.33.38,1.88,1.88,0,0,0,.45.22,1.79,1.79,0,0,0,.51.07,2.53,2.53,0,0,0,1.07-.19,1.84,1.84,0,0,0,.67-.5,1.69,1.69,0,0,0,.35-.71,3.48,3.48,0,0,0,.09-.79v-.42Z"/>
        <path class="cls-3" d="M210.25,271.53h.81v10.41h-.81Z"/>
      </g>
      <g>
        <path class="cls-3" d="M380,248a1.79,1.79,0,0,0,.76.78,2.23,2.23,0,0,0,1.06.27,1.81,1.81,0,0,0,.51-.08,1.67,1.67,0,0,0,.46-.24,1.29,1.29,0,0,0,.34-.36,1,1,0,0,0,.12-.49.78.78,0,0,0-.27-.66,2.24,2.24,0,0,0-.69-.35,9,9,0,0,0-.89-.21,3.51,3.51,0,0,1-.9-.28,1.91,1.91,0,0,1-.68-.51,1.44,1.44,0,0,1-.28-.94,1.64,1.64,0,0,1,.69-1.38,1.89,1.89,0,0,1,.68-.34,2.87,2.87,0,0,1,.77-.11,2.94,2.94,0,0,1,1.34.29,2,2,0,0,1,.87.91l-.73.44a1.68,1.68,0,0,0-.58-.67,1.62,1.62,0,0,0-.9-.23,1.9,1.9,0,0,0-.45.07,1.87,1.87,0,0,0-.43.19,1.39,1.39,0,0,0-.32.32.83.83,0,0,0-.12.44.76.76,0,0,0,.27.64,2.45,2.45,0,0,0,.69.32,9.09,9.09,0,0,0,.89.2,3.25,3.25,0,0,1,.9.27,1.85,1.85,0,0,1,.68.53,1.57,1.57,0,0,1,.28,1,1.79,1.79,0,0,1-.19.86,1.68,1.68,0,0,1-.5.62,2.23,2.23,0,0,1-.72.37,3,3,0,0,1-.85.12,3.46,3.46,0,0,1-1.49-.31,2.35,2.35,0,0,1-1-1Z"/>
        <path class="cls-3" d="M385.42,246.44a3.68,3.68,0,0,1,.24-1.35,3.33,3.33,0,0,1,.68-1.06,3,3,0,0,1,1-.69,3.42,3.42,0,0,1,1.33-.25,3.34,3.34,0,0,1,1.32.25,3.09,3.09,0,0,1,1.05.69,3.16,3.16,0,0,1,.68,1.06,3.89,3.89,0,0,1,0,2.69,3.16,3.16,0,0,1-.68,1.06,3.27,3.27,0,0,1-1.05.7,3.52,3.52,0,0,1-1.32.24,3.61,3.61,0,0,1-1.33-.24,3.13,3.13,0,0,1-1-.7,3.33,3.33,0,0,1-.68-1.06A3.67,3.67,0,0,1,385.42,246.44Zm.81,0a3.1,3.1,0,0,0,.17,1,2.29,2.29,0,0,0,.5.82,2.23,2.23,0,0,0,.78.56,2.63,2.63,0,0,0,2.06,0,2.36,2.36,0,0,0,.79-.56,2.42,2.42,0,0,0,.49-.82,3.12,3.12,0,0,0,0-2,2.42,2.42,0,0,0-.49-.82,2.36,2.36,0,0,0-.79-.56,2.63,2.63,0,0,0-2.06,0,2.23,2.23,0,0,0-.78.56,2.29,2.29,0,0,0-.5.82A3.12,3.12,0,0,0,386.23,246.44Z"/>
        <path class="cls-3" d="M393.82,245c0-.11,0-.26,0-.43s0-.34,0-.52,0-.33,0-.48,0-.27,0-.36h.81c0,.24,0,.47,0,.69a2.32,2.32,0,0,0,0,.43h0a2.16,2.16,0,0,1,.81-.9,2.28,2.28,0,0,1,1.33-.38,2.18,2.18,0,0,1,1.14.32,1.85,1.85,0,0,1,.74,1.06,2.07,2.07,0,0,1,.89-1.05,2.48,2.48,0,0,1,1.24-.33,2.71,2.71,0,0,1,1.19.23,1.94,1.94,0,0,1,.73.62,2.42,2.42,0,0,1,.36.87,4.9,4.9,0,0,1,.1,1v3.79h-.81v-3.75a3.67,3.67,0,0,0-.07-.75,1.93,1.93,0,0,0-.23-.65,1.35,1.35,0,0,0-.48-.47,1.65,1.65,0,0,0-.79-.17,1.79,1.79,0,0,0-.94.22,1.64,1.64,0,0,0-.57.54,2.29,2.29,0,0,0-.3.72,3.17,3.17,0,0,0-.09.73v3.58h-.81v-3.83a2.79,2.79,0,0,0-.32-1.42,1.06,1.06,0,0,0-1-.54,2.42,2.42,0,0,0-.85.16,2,2,0,0,0-.69.48,2.4,2.4,0,0,0-.46.82,3.57,3.57,0,0,0-.17,1.15v3.18h-.81Z"/>
        <path class="cls-3" d="M410.89,248.42a2.85,2.85,0,0,1-1.17,1.05,3.72,3.72,0,0,1-1.54.31,3.38,3.38,0,0,1-1.3-.24,3.1,3.1,0,0,1-1-.7,3.07,3.07,0,0,1-.64-1.06,3.92,3.92,0,0,1-.22-1.36,3.52,3.52,0,0,1,.23-1.32,3,3,0,0,1,2.9-2,2.92,2.92,0,0,1,1.26.25,2.8,2.8,0,0,1,.93.68,3.07,3.07,0,0,1,.56,1,3.36,3.36,0,0,1,.19,1.08v.58h-5.26a2.71,2.71,0,0,0,.1.67,2.37,2.37,0,0,0,.37.79,2.45,2.45,0,0,0,.73.66,2.16,2.16,0,0,0,1.17.28,2.61,2.61,0,0,0,1.21-.3,2.3,2.3,0,0,0,.89-.83Zm-.63-2.52a1.8,1.8,0,0,0-.17-.8,1.88,1.88,0,0,0-.46-.65,2.06,2.06,0,0,0-.69-.45,2.17,2.17,0,0,0-.84-.17,2,2,0,0,0-1.11.28,2.52,2.52,0,0,0-.7.63,2.46,2.46,0,0,0-.36.7,2,2,0,0,0-.11.46Z"/>
        <path class="cls-3" d="M412,243.25h.9l1.51,5.33h0l1.75-5.33H417l1.86,5.33h0l1.48-5.33h.81l-1.84,6.37h-.84l-1.87-5.21h0l-1.74,5.21H414Z"/>
        <path class="cls-3" d="M422.43,239.2h.81v5.17h0a2.16,2.16,0,0,1,.81-.9,2.28,2.28,0,0,1,1.33-.38,2.71,2.71,0,0,1,1.19.23,1.94,1.94,0,0,1,.73.62,2.42,2.42,0,0,1,.36.87,4.9,4.9,0,0,1,.1,1v3.79H427v-3.75a3.67,3.67,0,0,0-.07-.75,1.93,1.93,0,0,0-.23-.65,1.27,1.27,0,0,0-.48-.47,1.62,1.62,0,0,0-.79-.17,2.42,2.42,0,0,0-.85.16,2,2,0,0,0-.69.48,2.4,2.4,0,0,0-.46.82,3.57,3.57,0,0,0-.17,1.15v3.18h-.81Z"/>
        <path class="cls-3" d="M434.83,247v.84c0,.24,0,.47,0,.68s0,.41,0,.6a5.43,5.43,0,0,0,.06.55h-.76a5.56,5.56,0,0,1-.08-1h0a2.25,2.25,0,0,1-.87.91,2.63,2.63,0,0,1-1.32.29,3,3,0,0,1-.8-.1,2.11,2.11,0,0,1-.71-.33,1.72,1.72,0,0,1-.51-.59,1.76,1.76,0,0,1-.19-.86,1.73,1.73,0,0,1,.36-1.16,2.29,2.29,0,0,1,.9-.64,4.33,4.33,0,0,1,1.14-.28c.4,0,.76-.06,1.07-.06h.94v-.39a1.33,1.33,0,0,0-.5-1.18,2.09,2.09,0,0,0-1.26-.36,2.82,2.82,0,0,0-1.91.72L430,244a2.93,2.93,0,0,1,1.11-.66,3.72,3.72,0,0,1,1.27-.23,2.84,2.84,0,0,1,1.82.54,2.14,2.14,0,0,1,.68,1.76Zm-1.63-.53a8.12,8.12,0,0,0-1,.07,4,4,0,0,0-.86.23,1.53,1.53,0,0,0-.62.45,1,1,0,0,0-.23.68,1,1,0,0,0,.13.52,1.07,1.07,0,0,0,.33.37,1.57,1.57,0,0,0,.45.22,1.81,1.81,0,0,0,.51.08,2.7,2.7,0,0,0,1.07-.19,1.76,1.76,0,0,0,.67-.51,1.65,1.65,0,0,0,.35-.7,3.48,3.48,0,0,0,.09-.79v-.43Z"/>
        <path class="cls-3" d="M440.05,244h-1.78v4.14a.86.86,0,0,0,.23.66.82.82,0,0,0,.63.24,1.89,1.89,0,0,0,.47-.06,3,3,0,0,0,.45-.16l.07.74a3.07,3.07,0,0,1-.53.15,2.07,2.07,0,0,1-.52.07,1.9,1.9,0,0,1-.75-.13,1.32,1.32,0,0,1-.5-.35,1.38,1.38,0,0,1-.28-.52,2.15,2.15,0,0,1-.09-.64V244H436.1v-.75h1.35v-1.83h.82v1.83h1.78Z"/>
        <path class="cls-3" d="M444.85,243.25h.81v1.12h0a2.17,2.17,0,0,1,.47-.57,3.05,3.05,0,0,1,1.32-.64,3.51,3.51,0,0,1,.72-.07,3.37,3.37,0,0,1,1.32.25,3,3,0,0,1,1,.69,3.16,3.16,0,0,1,.68,1.06,3.74,3.74,0,0,1,0,2.69,3.16,3.16,0,0,1-.68,1.06,3.13,3.13,0,0,1-1,.7,3.56,3.56,0,0,1-1.32.24,3.51,3.51,0,0,1-.72-.07,3.05,3.05,0,0,1-1.32-.64,2.17,2.17,0,0,1-.47-.57h0v4.26h-.81Zm.73,3.19a2.67,2.67,0,0,0,.2,1,2.77,2.77,0,0,0,.56.82,2.64,2.64,0,0,0,.83.56,2.5,2.5,0,0,0,1,.21,2.46,2.46,0,0,0,1-.21,2.41,2.41,0,0,0,1.28-1.38,3.12,3.12,0,0,0,0-2,2.41,2.41,0,0,0-2.31-1.59,2.5,2.5,0,0,0-1,.21,2.64,2.64,0,0,0-.83.56,2.77,2.77,0,0,0-.56.82A2.69,2.69,0,0,0,445.58,246.44Z"/>
        <path class="cls-3" d="M453.3,245c0-.11,0-.26,0-.43s0-.34,0-.52,0-.33,0-.48,0-.27,0-.36h.81c0,.24,0,.47,0,.69a1.85,1.85,0,0,0,0,.43,2.86,2.86,0,0,1,.8-.92,2,2,0,0,1,1.19-.36l.24,0,.24,0-.1.81a.85.85,0,0,0-.31-.06,2.11,2.11,0,0,0-.91.18,1.69,1.69,0,0,0-.64.47,1.93,1.93,0,0,0-.37.71,3.07,3.07,0,0,0-.12.88v3.47h-.82Z"/>
        <path class="cls-3" d="M457.22,246.44a3.68,3.68,0,0,1,.24-1.35,3.16,3.16,0,0,1,.68-1.06,3,3,0,0,1,1-.69,3.42,3.42,0,0,1,1.33-.25,3.34,3.34,0,0,1,1.32.25,3,3,0,0,1,1,.69,3,3,0,0,1,.69,1.06,3.89,3.89,0,0,1,0,2.69,3,3,0,0,1-.69,1.06,3.13,3.13,0,0,1-1,.7,3.52,3.52,0,0,1-1.32.24,3.61,3.61,0,0,1-1.33-.24,3.13,3.13,0,0,1-1-.7,3.16,3.16,0,0,1-.68-1.06A3.67,3.67,0,0,1,457.22,246.44Zm.81,0a3.1,3.1,0,0,0,.17,1,2.42,2.42,0,0,0,.49.82,2.36,2.36,0,0,0,.79.56,2.63,2.63,0,0,0,2.06,0,2.36,2.36,0,0,0,.79-.56,2.42,2.42,0,0,0,.49-.82,3.12,3.12,0,0,0,0-2,2.42,2.42,0,0,0-.49-.82,2.36,2.36,0,0,0-.79-.56,2.63,2.63,0,0,0-2.06,0,2.36,2.36,0,0,0-.79.56,2.42,2.42,0,0,0-.49.82A3.12,3.12,0,0,0,458,246.44Z"/>
        <path class="cls-3" d="M470.91,247.83c0,.12,0,.26,0,.43s0,.34,0,.52,0,.33,0,.49,0,.27,0,.35h-.81c0-.24,0-.47,0-.69s0-.36,0-.43h-.05a2.16,2.16,0,0,1-.81.9,2.28,2.28,0,0,1-1.33.38,2.82,2.82,0,0,1-1.2-.23,2,2,0,0,1-.73-.61,2.55,2.55,0,0,1-.36-.88,5.69,5.69,0,0,1-.09-1v-3.79h.81V247a3.67,3.67,0,0,0,.07.75,1.87,1.87,0,0,0,.24.66,1.3,1.3,0,0,0,.47.46,1.65,1.65,0,0,0,.79.17,2.22,2.22,0,0,0,.85-.16,1.76,1.76,0,0,0,.69-.48,2.45,2.45,0,0,0,.46-.81,3.62,3.62,0,0,0,.17-1.15v-3.19h.81Z"/>
        <path class="cls-3" d="M478.62,248.5h0a2.21,2.21,0,0,1-.48.57,2.53,2.53,0,0,1-.62.4,2.82,2.82,0,0,1-.69.24,3.65,3.65,0,0,1-.72.07,3.61,3.61,0,0,1-1.33-.24,3,3,0,0,1-1-.7,3.16,3.16,0,0,1-.68-1.06,3.89,3.89,0,0,1,0-2.69,3.16,3.16,0,0,1,.68-1.06,2.87,2.87,0,0,1,1-.69,3.42,3.42,0,0,1,1.33-.25,3.65,3.65,0,0,1,.72.07,2.82,2.82,0,0,1,.69.24,2.53,2.53,0,0,1,.62.4,2.21,2.21,0,0,1,.48.57h0V239.2h.82v10.42h-.82Zm.08-2.06a2.51,2.51,0,0,0-.2-1,2.57,2.57,0,0,0-.55-.82,2.76,2.76,0,0,0-.83-.56,2.53,2.53,0,0,0-1-.21,2.46,2.46,0,0,0-1,.21,2.36,2.36,0,0,0-.79.56,2.42,2.42,0,0,0-.49.82,3.12,3.12,0,0,0,0,2,2.42,2.42,0,0,0,.49.82,2.36,2.36,0,0,0,.79.56,2.46,2.46,0,0,0,1,.21,2.53,2.53,0,0,0,1-.21,2.76,2.76,0,0,0,.83-.56,2.57,2.57,0,0,0,.55-.82A2.5,2.5,0,0,0,478.7,246.44Z"/>
      </g>
      <g>
        <path class="cls-3" d="M438.66,210.1h.93l2.08,5.47,2-5.47h.83l-2.46,6.37h-.84Z"/>
        <path class="cls-3" d="M451.35,215.27a2.81,2.81,0,0,1-1.18,1,3.64,3.64,0,0,1-1.53.31,3.17,3.17,0,0,1-1.3-.25,2.84,2.84,0,0,1-1-.69,3.07,3.07,0,0,1-.64-1.06,3.92,3.92,0,0,1-.22-1.36,3.52,3.52,0,0,1,.23-1.32,3.13,3.13,0,0,1,1.64-1.76,3,3,0,0,1,1.26-.25,3,3,0,0,1,1.26.25,2.76,2.76,0,0,1,.92.68,2.91,2.91,0,0,1,.57,1,3.35,3.35,0,0,1,.18,1.08v.58h-5.25a2.71,2.71,0,0,0,.1.67,2.37,2.37,0,0,0,.37.79,2.23,2.23,0,0,0,.73.66,2.16,2.16,0,0,0,1.17.28,2.64,2.64,0,0,0,1.21-.3,2.3,2.3,0,0,0,.89-.83Zm-.63-2.52a1.8,1.8,0,0,0-.17-.8,1.88,1.88,0,0,0-.46-.65,2.06,2.06,0,0,0-.69-.45,2.22,2.22,0,0,0-.85-.17,2,2,0,0,0-1.1.28,2.39,2.39,0,0,0-.7.63,2.46,2.46,0,0,0-.36.7,1.56,1.56,0,0,0-.11.46Z"/>
        <path class="cls-3" d="M453.35,211.89c0-.11,0-.26,0-.43s0-.34,0-.52,0-.33,0-.49,0-.26,0-.35h.82c0,.24,0,.47,0,.69a1.85,1.85,0,0,0,0,.43,2.75,2.75,0,0,1,.8-.92,1.93,1.93,0,0,1,1.19-.36l.24,0,.24,0-.1.81a.87.87,0,0,0-.31,0,2.19,2.19,0,0,0-.92.17,1.74,1.74,0,0,0-.63.47,2.21,2.21,0,0,0-.38.71,3.07,3.07,0,0,0-.12.88v3.47h-.81Z"/>
        <path class="cls-3" d="M459.62,218.44a2.28,2.28,0,0,1-.63,1,1.61,1.61,0,0,1-1.09.36l-.41,0-.39-.09.08-.77.36.1a1.57,1.57,0,0,0,.37.05.71.71,0,0,0,.39-.1.86.86,0,0,0,.29-.25,1.85,1.85,0,0,0,.21-.33c.06-.13.11-.25.16-.38l.57-1.47L457,210.1h.91l2.07,5.36,2-5.36h.87Z"/>
        <path class="cls-3" d="M467.48,210.1h.81v1.12h0a2.17,2.17,0,0,1,.47-.57,2.73,2.73,0,0,1,.62-.4,3.21,3.21,0,0,1,.7-.24,3.51,3.51,0,0,1,.72-.07,3.41,3.41,0,0,1,1.32.25,3,3,0,0,1,1,.69,3.16,3.16,0,0,1,.68,1.06,3.74,3.74,0,0,1,0,2.69,3.16,3.16,0,0,1-.68,1.06,3,3,0,0,1-1,.69,3.41,3.41,0,0,1-1.32.25,3.51,3.51,0,0,1-.72-.07,3.05,3.05,0,0,1-1.32-.64,2.17,2.17,0,0,1-.47-.57h0v4.26h-.81Zm.73,3.19a2.52,2.52,0,0,0,.76,1.83,2.53,2.53,0,0,0,.83.56,2.63,2.63,0,0,0,2.06,0,2.43,2.43,0,0,0,.78-.56,2.35,2.35,0,0,0,.5-.82,3.12,3.12,0,0,0,0-2,2.41,2.41,0,0,0-1.28-1.38,2.63,2.63,0,0,0-2.06,0,2.53,2.53,0,0,0-.83.56,2.77,2.77,0,0,0-.56.82A2.69,2.69,0,0,0,468.21,213.29Z"/>
        <path class="cls-3" d="M475.93,211.89c0-.11,0-.26,0-.43s0-.34,0-.52,0-.33,0-.49,0-.26,0-.35h.81c0,.24,0,.47,0,.69a1.85,1.85,0,0,0,0,.43,2.86,2.86,0,0,1,.8-.92,2,2,0,0,1,1.19-.36l.24,0,.24,0-.1.81a.87.87,0,0,0-.31,0,2.11,2.11,0,0,0-.91.17,1.69,1.69,0,0,0-.64.47,2,2,0,0,0-.37.71,3.07,3.07,0,0,0-.12.88v3.47h-.82Z"/>
        <path class="cls-3" d="M479.85,213.29a3.68,3.68,0,0,1,.24-1.35,3.16,3.16,0,0,1,.68-1.06,3,3,0,0,1,1-.69,3.42,3.42,0,0,1,1.33-.25,3.34,3.34,0,0,1,1.32.25,3,3,0,0,1,1,.69,3,3,0,0,1,.69,1.06,3.89,3.89,0,0,1,0,2.69,3,3,0,0,1-.69,1.06,3,3,0,0,1-1,.69,3.34,3.34,0,0,1-1.32.25,3.42,3.42,0,0,1-1.33-.25,3,3,0,0,1-1-.69,3.16,3.16,0,0,1-.68-1.06A3.67,3.67,0,0,1,479.85,213.29Zm.81,0a3.1,3.1,0,0,0,.17,1,2.41,2.41,0,0,0,1.28,1.38,2.63,2.63,0,0,0,2.06,0,2.36,2.36,0,0,0,.79-.56,2.33,2.33,0,0,0,.49-.82,3.12,3.12,0,0,0,0-2,2.42,2.42,0,0,0-.49-.82,2.36,2.36,0,0,0-.79-.56,2.63,2.63,0,0,0-2.06,0,2.23,2.23,0,0,0-.78.56,2.29,2.29,0,0,0-.5.82A3.12,3.12,0,0,0,480.66,213.29Z"/>
        <path class="cls-3" d="M493.54,214.68c0,.12,0,.26,0,.43s0,.34,0,.52,0,.33,0,.49,0,.26,0,.35h-.81c0-.24,0-.47,0-.69s0-.36,0-.43h-.05a2.16,2.16,0,0,1-.81.9,2.28,2.28,0,0,1-1.33.38,2.74,2.74,0,0,1-1.19-.23,2,2,0,0,1-.74-.61,2.36,2.36,0,0,1-.35-.88,4.9,4.9,0,0,1-.1-1V210.1H489v3.75a4.54,4.54,0,0,0,.07.75,2.08,2.08,0,0,0,.24.66,1.3,1.3,0,0,0,.47.46,1.68,1.68,0,0,0,.79.17,2.22,2.22,0,0,0,.85-.16,1.87,1.87,0,0,0,.69-.48,2.29,2.29,0,0,0,.46-.81,3.36,3.36,0,0,0,.17-1.15V210.1h.81Z"/>
        <path class="cls-3" d="M501.25,215.35h0a2.21,2.21,0,0,1-.48.57,2.67,2.67,0,0,1-.61.4,3.05,3.05,0,0,1-.7.24,3.65,3.65,0,0,1-.72.07,3.42,3.42,0,0,1-1.33-.25,3,3,0,0,1-1-.69,3.16,3.16,0,0,1-.68-1.06,3.89,3.89,0,0,1,0-2.69,3.16,3.16,0,0,1,.68-1.06,3,3,0,0,1,1-.69,3.42,3.42,0,0,1,1.33-.25,3.14,3.14,0,0,1,1.42.31,2.67,2.67,0,0,1,.61.4,2.21,2.21,0,0,1,.48.57h0v-5.17h.82v10.42h-.82Zm.08-2.06a2.51,2.51,0,0,0-.2-1,2.57,2.57,0,0,0-.55-.82,2.64,2.64,0,0,0-.83-.56,2.53,2.53,0,0,0-1-.21,2.46,2.46,0,0,0-1,.21,2.36,2.36,0,0,0-.79.56,2.42,2.42,0,0,0-.49.82,3.12,3.12,0,0,0,0,2,2.33,2.33,0,0,0,.49.82,2.36,2.36,0,0,0,.79.56,2.46,2.46,0,0,0,1,.21,2.53,2.53,0,0,0,1-.21,2.64,2.64,0,0,0,.83-.56,2.46,2.46,0,0,0,.55-.82A2.5,2.5,0,0,0,501.33,213.29Z"/>
      </g>
      <g>
        <path class="cls-3" d="M523.84,214.76a2.42,2.42,0,0,0,.74,1.08,1.92,1.92,0,0,0,1.28.38,2.45,2.45,0,0,0,.93-.16,1.78,1.78,0,0,0,.67-.46,1.81,1.81,0,0,0,.4-.67,2.49,2.49,0,0,0,.13-.83,1.79,1.79,0,0,0-.22-.92,1.85,1.85,0,0,0-.58-.63,2.69,2.69,0,0,0-.81-.35,4.06,4.06,0,0,0-.92-.11h-.35v-.83h.41a2.89,2.89,0,0,0,.76-.1,2,2,0,0,0,.69-.32,1.72,1.72,0,0,0,.5-.57,1.87,1.87,0,0,0,.19-.85,1.81,1.81,0,0,0-.48-1.29,1.74,1.74,0,0,0-1.3-.5,1.91,1.91,0,0,0-1.07.31,2.12,2.12,0,0,0-.74.83l-.77-.44a2.43,2.43,0,0,1,1.07-1.1,3.32,3.32,0,0,1,1.51-.35,3.47,3.47,0,0,1,1,.16,2.75,2.75,0,0,1,.86.47,2.25,2.25,0,0,1,.57.78,2.67,2.67,0,0,1,.21,1.1,2.36,2.36,0,0,1-.43,1.41,2.18,2.18,0,0,1-1.28.85v0a2.35,2.35,0,0,1,.84.31,2.55,2.55,0,0,1,1.06,1.3,2.58,2.58,0,0,1,.15.88,3.24,3.24,0,0,1-.18,1.09,2.49,2.49,0,0,1-.56.89,2.76,2.76,0,0,1-.93.6,3.65,3.65,0,0,1-1.3.22,3.5,3.5,0,0,1-1.83-.46,2.83,2.83,0,0,1-1.13-1.46Z"/>
        <path class="cls-3" d="M530.34,209.42a2.63,2.63,0,0,1,.2-1,2.31,2.31,0,0,1,.56-.8,2.6,2.6,0,0,1,.83-.52,3,3,0,0,1,1-.19,2.9,2.9,0,0,1,1,.19,2.65,2.65,0,0,1,.84.52,2.28,2.28,0,0,1,.55.8,2.46,2.46,0,0,1,.21,1,2.25,2.25,0,0,1-.11.68,2.64,2.64,0,0,1-.31.63,2.15,2.15,0,0,1-.48.52,1.88,1.88,0,0,1-.63.32h0a2.3,2.3,0,0,1,.8.34,2.13,2.13,0,0,1,.58.58,2.42,2.42,0,0,1,.36.74,3,3,0,0,1,.12.85,3,3,0,0,1-.22,1.19,2.73,2.73,0,0,1-.62.9,2.91,2.91,0,0,1-.94.58A3.25,3.25,0,0,1,533,217a3.22,3.22,0,0,1-1.18-.21,2.81,2.81,0,0,1-.94-.58,2.46,2.46,0,0,1-.62-.9,3,3,0,0,1-.23-1.19,3,3,0,0,1,.12-.85,2.42,2.42,0,0,1,.36-.74,2.17,2.17,0,0,1,.59-.58,2.23,2.23,0,0,1,.8-.34h0a1.92,1.92,0,0,1-.64-.32,2.15,2.15,0,0,1-.48-.52,2.29,2.29,0,0,1-.3-.63A2.25,2.25,0,0,1,530.34,209.42Zm.56,4.67a2.21,2.21,0,0,0,.14.82,2,2,0,0,0,.42.68,2.13,2.13,0,0,0,.65.46,2,2,0,0,0,.86.17,2,2,0,0,0,.85-.17,1.92,1.92,0,0,0,.65-.46,2,2,0,0,0,.42-.68,2.21,2.21,0,0,0,.15-.82,2.3,2.3,0,0,0-.16-.88,2.23,2.23,0,0,0-.44-.67,1.93,1.93,0,0,0-.66-.43,2.13,2.13,0,0,0-1.62,0,1.76,1.76,0,0,0-.66.43,2.05,2.05,0,0,0-.44.67A2.3,2.3,0,0,0,530.9,214.09Zm.33-4.67a2,2,0,0,0,.13.7,1.92,1.92,0,0,0,.36.56,1.57,1.57,0,0,0,.54.39,1.85,1.85,0,0,0,1.41,0,1.7,1.7,0,0,0,.9-.95,1.82,1.82,0,0,0,.13-.7,1.73,1.73,0,0,0-.49-1.3,1.81,1.81,0,0,0-2.48,0A1.74,1.74,0,0,0,531.23,209.42Z"/>
        <path class="cls-3" d="M537,209.25a2.37,2.37,0,0,1,.19-.92,2.52,2.52,0,0,1,.5-.75,2.57,2.57,0,0,1,.74-.51,2.25,2.25,0,0,1,1.81,0,2.57,2.57,0,0,1,.74.51,2.52,2.52,0,0,1,.5.75,2.36,2.36,0,0,1,.18.92,2.41,2.41,0,0,1-.18.93,2.52,2.52,0,0,1-.5.75,2.57,2.57,0,0,1-.74.51,2.37,2.37,0,0,1-1.81,0,2.57,2.57,0,0,1-.74-.51,2.52,2.52,0,0,1-.5-.75A2.41,2.41,0,0,1,537,209.25Zm.74,0a1.5,1.5,0,0,0,.13.64,1.67,1.67,0,0,0,.34.52,1.65,1.65,0,0,0,.51.35,1.64,1.64,0,0,0,1.23,0,1.54,1.54,0,0,0,.51-.35,1.9,1.9,0,0,0,.35-.52,1.66,1.66,0,0,0,.12-.64,1.69,1.69,0,0,0-.12-.64,1.85,1.85,0,0,0-.35-.51,1.54,1.54,0,0,0-.51-.35,1.64,1.64,0,0,0-1.23,0,1.65,1.65,0,0,0-.51.35,1.63,1.63,0,0,0-.34.51A1.53,1.53,0,0,0,537.74,209.25Zm7.07-2.67.62.39-6.19,10.3-.61-.39Zm-2.45,8a2.32,2.32,0,0,1,.18-.92,2.45,2.45,0,0,1,.5-.76,2.57,2.57,0,0,1,.74-.51,2.27,2.27,0,0,1,.91-.18,2.23,2.23,0,0,1,.9.18,2.57,2.57,0,0,1,.74.51,2.28,2.28,0,0,1,.5.76,2.38,2.38,0,0,1-.5,2.59,2.23,2.23,0,0,1-.74.51,2.08,2.08,0,0,1-.9.19,2.12,2.12,0,0,1-.91-.19,2.23,2.23,0,0,1-.74-.51,2.29,2.29,0,0,1-.5-.75A2.32,2.32,0,0,1,542.36,214.6Zm.73,0a1.64,1.64,0,0,0,.47,1.15,1.53,1.53,0,0,0,1.13.47,1.58,1.58,0,0,0,.61-.12,1.41,1.41,0,0,0,.51-.35,1.54,1.54,0,0,0,.35-.51,1.64,1.64,0,0,0-.35-1.8,1.39,1.39,0,0,0-.51-.34,1.52,1.52,0,0,0-1.23,0,1.57,1.57,0,0,0-.51.34,1.67,1.67,0,0,0-.34.52A1.53,1.53,0,0,0,543.09,214.6Z"/>
      </g>
      <g>
        <path class="cls-3" d="M500.31,247.77a2.58,2.58,0,0,0,.73,1.09,2,2,0,0,0,1.29.37,2.45,2.45,0,0,0,.93-.16,1.78,1.78,0,0,0,.67-.46,1.81,1.81,0,0,0,.4-.67,2.49,2.49,0,0,0,.13-.83,1.79,1.79,0,0,0-.22-.92,1.85,1.85,0,0,0-.58-.63,2.69,2.69,0,0,0-.81-.35,4.13,4.13,0,0,0-.92-.11h-.35v-.82H502a2.91,2.91,0,0,0,.76-.11,2,2,0,0,0,.69-.32,1.72,1.72,0,0,0,.5-.57,1.87,1.87,0,0,0,.19-.85,1.81,1.81,0,0,0-.48-1.29,1.74,1.74,0,0,0-1.3-.5,1.89,1.89,0,0,0-1.07.31,2.12,2.12,0,0,0-.74.83l-.78-.44a2.5,2.5,0,0,1,1.08-1.1,3.32,3.32,0,0,1,1.51-.35,3.47,3.47,0,0,1,1,.16,2.75,2.75,0,0,1,.86.47,2.25,2.25,0,0,1,.57.78,2.67,2.67,0,0,1,.21,1.1,2.36,2.36,0,0,1-.43,1.41,2.26,2.26,0,0,1-1.28.85v0a2.35,2.35,0,0,1,.84.31,2.55,2.55,0,0,1,1.06,1.3,2.58,2.58,0,0,1,.15.88,3.24,3.24,0,0,1-.18,1.09,2.49,2.49,0,0,1-.56.89,2.76,2.76,0,0,1-.93.6,3.65,3.65,0,0,1-1.3.22,3.5,3.5,0,0,1-1.83-.46,2.9,2.9,0,0,1-1.14-1.46Z"/>
        <path class="cls-3" d="M508.19,244.36h0a1.58,1.58,0,0,1,.65-.31,3.24,3.24,0,0,1,.77-.11,2.86,2.86,0,0,1,1.18.24,2.76,2.76,0,0,1,.93.64,2.87,2.87,0,0,1,.61,1,3.25,3.25,0,0,1,0,2.4,2.77,2.77,0,0,1-.65,1,3,3,0,0,1-1,.63,3.39,3.39,0,0,1-1.25.23,3.48,3.48,0,0,1-1.26-.23,3,3,0,0,1-1-.63,2.79,2.79,0,0,1-.66-1,3.09,3.09,0,0,1-.24-1.22,2.86,2.86,0,0,1,.09-.73,3.63,3.63,0,0,1,.21-.66c.09-.2.19-.4.29-.58l.29-.53,2.61-4.39h1Zm1.25.3a2.13,2.13,0,0,0-.88.18,2.36,2.36,0,0,0-.72.49,2.44,2.44,0,0,0-.48.73,2.39,2.39,0,0,0-.17.89,2.52,2.52,0,0,0,.16.93,2.07,2.07,0,0,0,.46.72,2.15,2.15,0,0,0,.71.47,2.47,2.47,0,0,0,.92.16,2.42,2.42,0,0,0,.91-.16,2.06,2.06,0,0,0,1.17-1.19,2.52,2.52,0,0,0,.17-.93,2.21,2.21,0,0,0-.18-.89,2.44,2.44,0,0,0-.48-.73,2.14,2.14,0,0,0-.72-.49A2.19,2.19,0,0,0,509.44,244.66Z"/>
        <path class="cls-3" d="M513.47,242.26a2.37,2.37,0,0,1,.19-.92,2.52,2.52,0,0,1,.5-.75,2.23,2.23,0,0,1,.74-.51,2.25,2.25,0,0,1,1.81,0,2.23,2.23,0,0,1,.74.51,2.52,2.52,0,0,1,.5.75,2.36,2.36,0,0,1,.18.92,2.41,2.41,0,0,1-.18.93,2.52,2.52,0,0,1-.5.75,2.57,2.57,0,0,1-.74.51,2.37,2.37,0,0,1-1.81,0,2.57,2.57,0,0,1-.74-.51,2.52,2.52,0,0,1-.5-.75A2.41,2.41,0,0,1,513.47,242.26Zm.74,0a1.66,1.66,0,0,0,.12.64,1.9,1.9,0,0,0,.35.52,1.65,1.65,0,0,0,.51.35,1.64,1.64,0,0,0,1.23,0,1.78,1.78,0,0,0,.51-.35,1.67,1.67,0,0,0,.34-.52,1.5,1.5,0,0,0,.13-.64,1.56,1.56,0,0,0-.13-.64,1.63,1.63,0,0,0-.34-.51,1.78,1.78,0,0,0-.51-.35,1.64,1.64,0,0,0-1.23,0,1.65,1.65,0,0,0-.51.35,1.85,1.85,0,0,0-.35.51A1.73,1.73,0,0,0,514.21,242.26Zm7.07-2.67.62.39-6.19,10.3-.61-.39Zm-2.45,8a2.32,2.32,0,0,1,.18-.92,2.45,2.45,0,0,1,.5-.76,2.36,2.36,0,0,1,.74-.5,2.25,2.25,0,0,1,1.81,0,2.36,2.36,0,0,1,.74.5,2.45,2.45,0,0,1,.5.76,2.32,2.32,0,0,1,0,1.84,2.29,2.29,0,0,1-.5.75,2.23,2.23,0,0,1-.74.51,2.25,2.25,0,0,1-1.81,0,2.23,2.23,0,0,1-.74-.51,2.29,2.29,0,0,1-.5-.75A2.32,2.32,0,0,1,518.83,247.61Zm.73,0a1.53,1.53,0,0,0,.13.64,1.67,1.67,0,0,0,.34.52,1.52,1.52,0,0,0,.51.34,1.64,1.64,0,0,0,1.23,0,1.52,1.52,0,0,0,.51-.34,1.9,1.9,0,0,0,.35-.52,1.77,1.77,0,0,0,0-1.28,1.9,1.9,0,0,0-.35-.52,1.39,1.39,0,0,0-.51-.34,1.52,1.52,0,0,0-1.23,0,1.39,1.39,0,0,0-.51.34,1.67,1.67,0,0,0-.34.52A1.53,1.53,0,0,0,519.56,247.61Z"/>
      </g>
      <g>
        <path class="cls-3" d="M234.1,273.35h0l-1.74,1.44-.5-.63,2.37-2h.69v9.75h-.81Z"/>
        <path class="cls-3" d="M239.05,279.9a2.42,2.42,0,0,0,.74,1.08,1.92,1.92,0,0,0,1.28.38,2.45,2.45,0,0,0,.93-.16,1.78,1.78,0,0,0,.67-.46,1.9,1.9,0,0,0,.4-.67,2.49,2.49,0,0,0,.14-.83,1.79,1.79,0,0,0-.23-.92,1.85,1.85,0,0,0-.58-.63,2.46,2.46,0,0,0-.81-.35,4.13,4.13,0,0,0-.92-.11h-.35v-.83h.41a2.84,2.84,0,0,0,.76-.1,2.19,2.19,0,0,0,.69-.32,1.72,1.72,0,0,0,.5-.57,1.87,1.87,0,0,0,.19-.85,1.81,1.81,0,0,0-.48-1.29,1.74,1.74,0,0,0-1.3-.5,1.91,1.91,0,0,0-1.07.31,2.13,2.13,0,0,0-.74.83l-.77-.44a2.43,2.43,0,0,1,1.07-1.1,3.32,3.32,0,0,1,1.51-.35,3.47,3.47,0,0,1,1,.16,2.56,2.56,0,0,1,.86.47,2.25,2.25,0,0,1,.57.78,2.67,2.67,0,0,1,.21,1.1,2.38,2.38,0,0,1-.43,1.41,2.23,2.23,0,0,1-1.28.85v0a2.35,2.35,0,0,1,.84.31,2.42,2.42,0,0,1,.64.55,2.63,2.63,0,0,1,.42.75,2.54,2.54,0,0,1,.15.88,3.24,3.24,0,0,1-.18,1.09,2.44,2.44,0,0,1-.56.89,2.76,2.76,0,0,1-.93.6,3.65,3.65,0,0,1-1.3.22,3.41,3.41,0,0,1-1.83-.47,2.76,2.76,0,0,1-1.13-1.45Z"/>
        <path class="cls-3" d="M245.17,274.39a2.32,2.32,0,0,1,.18-.92,2.56,2.56,0,0,1,.51-.75,2.19,2.19,0,0,1,.73-.51,2.32,2.32,0,0,1,.91-.19,2.28,2.28,0,0,1,.91.19,2.33,2.33,0,0,1,.74.51,2.52,2.52,0,0,1,.5.75,2.32,2.32,0,0,1,.18.92,2.41,2.41,0,0,1-.18.93,2.52,2.52,0,0,1-.5.75,2.71,2.71,0,0,1-.74.51,2.27,2.27,0,0,1-.91.18,2.31,2.31,0,0,1-.91-.18,2.52,2.52,0,0,1-.73-.51,2.56,2.56,0,0,1-.51-.75A2.41,2.41,0,0,1,245.17,274.39Zm.73,0a1.66,1.66,0,0,0,.13.64,1.7,1.7,0,0,0,.35.52,1.43,1.43,0,0,0,.5.34,1.54,1.54,0,0,0,1.24,0,1.57,1.57,0,0,0,.51-.34A1.87,1.87,0,0,0,249,275a1.5,1.5,0,0,0,.13-.64,1.53,1.53,0,0,0-.13-.64,1.69,1.69,0,0,0-.34-.51,1.6,1.6,0,0,0-.51-.35,1.66,1.66,0,0,0-1.24,0,1.46,1.46,0,0,0-.5.35,1.54,1.54,0,0,0-.35.51A1.7,1.7,0,0,0,245.9,274.39Zm7.07-2.67.63.39-6.19,10.3-.61-.39Zm-2.45,8a2.41,2.41,0,0,1,.18-.93,2.56,2.56,0,0,1,.51-.75,2.44,2.44,0,0,1,.74-.51,2.23,2.23,0,0,1,.9-.18,2.27,2.27,0,0,1,.91.18,2.57,2.57,0,0,1,.74.51,2.52,2.52,0,0,1,.5.75,2.41,2.41,0,0,1,.18.93,2.36,2.36,0,0,1-.18.92,2.52,2.52,0,0,1-.5.75,2.23,2.23,0,0,1-.74.51,2.28,2.28,0,0,1-.91.19,2.23,2.23,0,0,1-.9-.19,2.13,2.13,0,0,1-.74-.51,2.56,2.56,0,0,1-.51-.75A2.36,2.36,0,0,1,250.52,279.74Zm.73,0a1.7,1.7,0,0,0,.13.64,1.54,1.54,0,0,0,.35.51,1.41,1.41,0,0,0,.51.35,1.58,1.58,0,0,0,.61.12,1.63,1.63,0,0,0,.62-.12,1.6,1.6,0,0,0,.51-.35,1.64,1.64,0,0,0,.47-1.15,1.5,1.5,0,0,0-.13-.64,1.67,1.67,0,0,0-.34-.52,1.57,1.57,0,0,0-.51-.34,1.47,1.47,0,0,0-.62-.13,1.42,1.42,0,0,0-.61.13,1.39,1.39,0,0,0-.51.34,1.7,1.7,0,0,0-.35.52A1.66,1.66,0,0,0,251.25,279.74Z"/>
      </g>
      <g>
        <path class="cls-3" d="M191.26,376.76h0a2,2,0,0,1-.47.57,3.12,3.12,0,0,1-.62.4,3.19,3.19,0,0,1-.7.23,3.51,3.51,0,0,1-.71.08,3.39,3.39,0,0,1-1.33-.25,3,3,0,0,1-1.05-.69,3.41,3.41,0,0,1-.67-1.06,3.49,3.49,0,0,1-.25-1.35,3.44,3.44,0,0,1,.25-1.34,3.3,3.3,0,0,1,.67-1.06,3.07,3.07,0,0,1,1.05-.7,3.58,3.58,0,0,1,1.33-.25,3.51,3.51,0,0,1,.71.08,2.76,2.76,0,0,1,.7.24,2.69,2.69,0,0,1,.62.39,2,2,0,0,1,.47.58h0v-5.17h.81v10.41h-.81Zm.08-2.07a2.57,2.57,0,0,0-.76-1.84,2.57,2.57,0,0,0-.82-.55,2.53,2.53,0,0,0-1-.21,2.43,2.43,0,0,0-1,.21,2.34,2.34,0,0,0-.79.55,2.31,2.31,0,0,0-.49.83,2.82,2.82,0,0,0-.17,1,2.78,2.78,0,0,0,.17,1,2.23,2.23,0,0,0,.49.83,2.51,2.51,0,0,0,.79.56,2.43,2.43,0,0,0,1,.2,2.52,2.52,0,0,0,1-.2,2.77,2.77,0,0,0,.82-.56,2.53,2.53,0,0,0,.56-.83A2.6,2.6,0,0,0,191.34,374.69Z"/>
        <path class="cls-3" d="M199.59,376.68a2.82,2.82,0,0,1-1.17,1,3.72,3.72,0,0,1-1.54.32,3.21,3.21,0,0,1-1.3-.25,2.93,2.93,0,0,1-1-.69,3.19,3.19,0,0,1-.65-1.06,4,4,0,0,1-.22-1.36,3.73,3.73,0,0,1,.23-1.32,3.09,3.09,0,0,1,.65-1.06,3,3,0,0,1,1-.7,3.05,3.05,0,0,1,1.26-.26,2.87,2.87,0,0,1,2.19.93,2.89,2.89,0,0,1,.56,1,3.17,3.17,0,0,1,.19,1.09v.58h-5.26a2.87,2.87,0,0,0,.11.67,2.26,2.26,0,0,0,.37.79,2.14,2.14,0,0,0,1.89.93,2.61,2.61,0,0,0,1.21-.3,2.15,2.15,0,0,0,.89-.82Zm-.62-2.52a1.91,1.91,0,0,0-.17-.8,2.18,2.18,0,0,0-.46-.66,2.29,2.29,0,0,0-.69-.45,2.22,2.22,0,0,0-.85-.16,2.06,2.06,0,0,0-1.1.27,2.42,2.42,0,0,0-.7.64,2.6,2.6,0,0,0-.37.69,2,2,0,0,0-.11.47Z"/>
        <path class="cls-3" d="M206.84,376.94a3,3,0,0,1-1.05.83,2.91,2.91,0,0,1-1.26.27,3.37,3.37,0,0,1-1.32-.25,3,3,0,0,1-1.05-.69,3.24,3.24,0,0,1-.67-1.06,3.49,3.49,0,0,1-.25-1.35,3.44,3.44,0,0,1,.25-1.34,3.14,3.14,0,0,1,.67-1.06,3.07,3.07,0,0,1,1.05-.7,3.56,3.56,0,0,1,1.32-.25,2.94,2.94,0,0,1,1.29.29,3.56,3.56,0,0,1,1.05.82l-.66.49a2.8,2.8,0,0,0-.77-.62,1.79,1.79,0,0,0-.91-.23,2.42,2.42,0,0,0-1,.21,2.34,2.34,0,0,0-.79.55,2.31,2.31,0,0,0-.49.83,2.82,2.82,0,0,0-.17,1,2.78,2.78,0,0,0,.17,1,2.23,2.23,0,0,0,.49.83,2.51,2.51,0,0,0,.79.56,2.41,2.41,0,0,0,1,.2,1.92,1.92,0,0,0,.95-.24,2.34,2.34,0,0,0,.73-.64Z"/>
        <path class="cls-3" d="M208.25,367.46h.81v10.41h-.81Z"/>
        <path class="cls-3" d="M211.31,369a.6.6,0,0,1,.18-.44.57.57,0,0,1,.43-.18.58.58,0,0,1,.43.18.63.63,0,0,1,0,.88.58.58,0,0,1-.43.18.57.57,0,0,1-.43-.18A.6.6,0,0,1,211.31,369Zm.2,2.52h.82v6.36h-.82Z"/>
        <path class="cls-3" d="M214.63,373.3c0-.12,0-.26,0-.43s0-.34,0-.52,0-.34,0-.49,0-.27,0-.35h.81c0,.24,0,.47,0,.69a2.44,2.44,0,0,0,0,.43h0a2.24,2.24,0,0,1,.81-.91,2.36,2.36,0,0,1,1.33-.38,2.57,2.57,0,0,1,1.19.24,2,2,0,0,1,.73.61,2.55,2.55,0,0,1,.36.88,4.9,4.9,0,0,1,.1,1v3.78h-.81v-3.74a3.67,3.67,0,0,0-.07-.75,1.73,1.73,0,0,0-.24-.66,1.3,1.3,0,0,0-.47-.46,1.65,1.65,0,0,0-.79-.17,2.22,2.22,0,0,0-.85.16,1.66,1.66,0,0,0-.69.48,2.45,2.45,0,0,0-.46.81,3.62,3.62,0,0,0-.17,1.15v3.18h-.81Z"/>
        <path class="cls-3" d="M227.69,376.68a2.82,2.82,0,0,1-1.17,1A3.72,3.72,0,0,1,225,378a3.21,3.21,0,0,1-1.3-.25,3,3,0,0,1-1-.69A3.17,3.17,0,0,1,222,376a4,4,0,0,1-.22-1.36,3.52,3.52,0,0,1,.23-1.32,3.09,3.09,0,0,1,.65-1.06,3,3,0,0,1,1-.7,3.05,3.05,0,0,1,1.26-.26,2.92,2.92,0,0,1,1.26.26,2.77,2.77,0,0,1,.92.67,2.91,2.91,0,0,1,.57,1,3.42,3.42,0,0,1,.19,1.09v.58h-5.26a2.78,2.78,0,0,0,.1.67,2.35,2.35,0,0,0,1.1,1.45,2.25,2.25,0,0,0,1.17.27,2.61,2.61,0,0,0,1.21-.3,2.28,2.28,0,0,0,.89-.82Zm-.63-2.52a1.77,1.77,0,0,0-.17-.8,2,2,0,0,0-.46-.66,2.06,2.06,0,0,0-.69-.45,2.17,2.17,0,0,0-.84-.16,2.1,2.1,0,0,0-1.11.27,2.72,2.72,0,0,0-.7.64,2.55,2.55,0,0,0-.36.69,2,2,0,0,0-.11.47Z"/>
        <path class="cls-3" d="M235.16,376.76h0a2.21,2.21,0,0,1-.48.57,3.06,3.06,0,0,1-.61.4,3.38,3.38,0,0,1-.7.23,3.53,3.53,0,0,1-.72.08,3.42,3.42,0,0,1-1.33-.25,3.1,3.1,0,0,1-1-.69,3.44,3.44,0,0,1-.68-1.06,3.68,3.68,0,0,1-.24-1.35,3.63,3.63,0,0,1,.24-1.34,3.33,3.33,0,0,1,.68-1.06,3.13,3.13,0,0,1,1-.7,3.62,3.62,0,0,1,1.33-.25,3.53,3.53,0,0,1,.72.08,2.9,2.9,0,0,1,.7.24,2.63,2.63,0,0,1,.61.39,2.25,2.25,0,0,1,.48.58h0v-5.17H236v10.41h-.82Zm.09-2.07a2.47,2.47,0,0,0-.21-1,2.5,2.5,0,0,0-1.38-1.38,2.5,2.5,0,0,0-1-.21,2.46,2.46,0,0,0-1,.21,2.2,2.2,0,0,0-.78.55,2.33,2.33,0,0,0-.5.83,3.06,3.06,0,0,0-.17,1,3,3,0,0,0,.17,1,2.25,2.25,0,0,0,.5.83,2.36,2.36,0,0,0,.78.56,2.46,2.46,0,0,0,1,.2,2.49,2.49,0,0,0,1-.2,2.82,2.82,0,0,0,.83-.56,2.51,2.51,0,0,0,.55-.83A2.44,2.44,0,0,0,235.25,374.69Z"/>
        <path class="cls-3" d="M244.55,372.25h-1.78v4.15a.87.87,0,0,0,.23.66.82.82,0,0,0,.63.23,1.89,1.89,0,0,0,.47-.06,3,3,0,0,0,.45-.15l.07.74-.53.15a2.15,2.15,0,0,1-.53.07,1.88,1.88,0,0,1-.74-.13,1.35,1.35,0,0,1-.5-.35A1.38,1.38,0,0,1,242,377a2.2,2.2,0,0,1-.09-.64v-4.15H240.6v-.74H242v-1.83h.82v1.83h1.78Z"/>
        <path class="cls-3" d="M245.65,374.69a3.63,3.63,0,0,1,.24-1.34,3.33,3.33,0,0,1,.68-1.06,3.07,3.07,0,0,1,1.05-.7,3.61,3.61,0,0,1,2.64,0,3.27,3.27,0,0,1,1.05.7,3.16,3.16,0,0,1,.68,1.06,3.63,3.63,0,0,1,.24,1.34A3.68,3.68,0,0,1,252,376a3,3,0,0,1-1.73,1.75,3.61,3.61,0,0,1-2.64,0,3,3,0,0,1-1.05-.69,3.44,3.44,0,0,1-.68-1.06A3.68,3.68,0,0,1,245.65,374.69Zm.81,0a3,3,0,0,0,.17,1,2.25,2.25,0,0,0,.5.83,2.6,2.6,0,0,0,2.84.56,2.51,2.51,0,0,0,.79-.56,2.37,2.37,0,0,0,.49-.83,2.78,2.78,0,0,0,.17-1,2.82,2.82,0,0,0-.17-1,2.47,2.47,0,0,0-.49-.83,2.34,2.34,0,0,0-.79-.55,2.63,2.63,0,0,0-2.06,0,2.3,2.3,0,0,0-.78.55,2.33,2.33,0,0,0-.5.83A3.06,3.06,0,0,0,246.46,374.69Z"/>
        <path class="cls-3" d="M262.44,375.2V376c0,.25,0,.48,0,.69s0,.41,0,.59a4.87,4.87,0,0,0,.06.55h-.76a5.45,5.45,0,0,1-.08-1h0a2.32,2.32,0,0,1-.87.91,2.74,2.74,0,0,1-1.32.29,3.5,3.5,0,0,1-.8-.1,2.11,2.11,0,0,1-.71-.33,2,2,0,0,1-.51-.59,1.8,1.8,0,0,1-.19-.87,1.7,1.7,0,0,1,.36-1.15,2.42,2.42,0,0,1,.9-.65,4.31,4.31,0,0,1,1.14-.27c.4,0,.76-.06,1.07-.06h.94v-.39a1.33,1.33,0,0,0-.5-1.18,2.09,2.09,0,0,0-1.26-.36,2.86,2.86,0,0,0-1.91.71l-.47-.56a3,3,0,0,1,1.11-.67,4,4,0,0,1,1.27-.23,2.84,2.84,0,0,1,1.82.55,2.13,2.13,0,0,1,.68,1.76Zm-1.63-.52a6.54,6.54,0,0,0-1,.07,3.09,3.09,0,0,0-.86.23,1.61,1.61,0,0,0-.62.44,1.06,1.06,0,0,0-.23.69,1,1,0,0,0,.13.52,1.17,1.17,0,0,0,.33.37,1.57,1.57,0,0,0,.45.22,1.79,1.79,0,0,0,.51.07,2.53,2.53,0,0,0,1.07-.19,1.74,1.74,0,0,0,.67-.5,1.71,1.71,0,0,0,.35-.7,3.55,3.55,0,0,0,.09-.79v-.43Z"/>
        <path class="cls-3" d="M264.6,373.3c0-.12,0-.26,0-.43s0-.34,0-.52,0-.34,0-.49,0-.27,0-.35h.82c0,.24,0,.47,0,.69a1.91,1.91,0,0,0,0,.43h0a2.36,2.36,0,0,1,2.14-1.29,2.61,2.61,0,0,1,1.2.24,2.06,2.06,0,0,1,.72.61,2.39,2.39,0,0,1,.37.88,5.69,5.69,0,0,1,.1,1v3.78h-.81v-3.74a4.54,4.54,0,0,0-.07-.75,2.15,2.15,0,0,0-.24-.66,1.3,1.3,0,0,0-.47-.46,1.69,1.69,0,0,0-.8-.17,2.17,2.17,0,0,0-.84.16,1.66,1.66,0,0,0-.69.48,2.29,2.29,0,0,0-.46.81,3.36,3.36,0,0,0-.17,1.15v3.18h-.82Z"/>
        <path class="cls-3" d="M272.15,376.25a1.74,1.74,0,0,0,.76.78,2.15,2.15,0,0,0,1,.26,1.68,1.68,0,0,0,1-.31,1.06,1.06,0,0,0,.33-.37.88.88,0,0,0,.13-.49.79.79,0,0,0-.28-.66,2.06,2.06,0,0,0-.68-.34,8.59,8.59,0,0,0-.9-.21,4,4,0,0,1-.89-.28,1.85,1.85,0,0,1-.68-.52,1.38,1.38,0,0,1-.28-.93,1.66,1.66,0,0,1,.19-.82,1.69,1.69,0,0,1,.49-.57,2.34,2.34,0,0,1,.69-.34,2.87,2.87,0,0,1,.77-.11,2.9,2.9,0,0,1,1.33.29,2,2,0,0,1,.88.91l-.73.44a1.8,1.8,0,0,0-.58-.66,1.54,1.54,0,0,0-.9-.23,1.51,1.51,0,0,0-.46.07,1.59,1.59,0,0,0-.42.19,1.08,1.08,0,0,0-.32.32.74.74,0,0,0-.13.44.73.73,0,0,0,.28.63,2.05,2.05,0,0,0,.68.33c.27.07.57.14.9.2a3.54,3.54,0,0,1,.89.26,2,2,0,0,1,.69.54,1.61,1.61,0,0,1,.27,1,1.91,1.91,0,0,1-.18.86,1.75,1.75,0,0,1-.5.61,2,2,0,0,1-.73.37,2.65,2.65,0,0,1-.85.13,3.42,3.42,0,0,1-1.48-.32,2.2,2.2,0,0,1-1-1Z"/>
        <path class="cls-3" d="M277,371.51h.89l1.52,5.33h0l1.75-5.33H282l1.86,5.33h0l1.47-5.33h.82l-1.84,6.36h-.85l-1.86-5.2h0l-1.75,5.2H279Z"/>
        <path class="cls-3" d="M293,376.68a2.76,2.76,0,0,1-1.17,1,3.72,3.72,0,0,1-1.54.32,3.21,3.21,0,0,1-1.3-.25,2.93,2.93,0,0,1-1-.69,3,3,0,0,1-.64-1.06,4,4,0,0,1-.23-1.36,3.73,3.73,0,0,1,.23-1.32,3.25,3.25,0,0,1,.65-1.06,3,3,0,0,1,1-.7,3.05,3.05,0,0,1,1.26-.26,2.87,2.87,0,0,1,2.19.93,2.89,2.89,0,0,1,.56,1,3.17,3.17,0,0,1,.19,1.09v.58H287.9a2.87,2.87,0,0,0,.11.67,2.26,2.26,0,0,0,.37.79,2.14,2.14,0,0,0,1.9.93,2.6,2.6,0,0,0,1.2-.3,2.15,2.15,0,0,0,.89-.82Zm-.62-2.52a1.91,1.91,0,0,0-.17-.8,2.18,2.18,0,0,0-.46-.66,2.29,2.29,0,0,0-.69-.45,2.22,2.22,0,0,0-.85-.16,2.06,2.06,0,0,0-1.1.27,2.42,2.42,0,0,0-.7.64,2.6,2.6,0,0,0-.37.69,2,2,0,0,0-.11.47Z"/>
        <path class="cls-3" d="M295,373.3c0-.12,0-.26,0-.43s0-.34,0-.52,0-.34,0-.49,0-.27,0-.35h.81c0,.24,0,.47,0,.69a2.44,2.44,0,0,0,0,.43,2.68,2.68,0,0,1,.8-.93,1.93,1.93,0,0,1,1.19-.36.85.85,0,0,1,.23,0l.24,0-.09.82a1,1,0,0,0-.32-.06,2.31,2.31,0,0,0-.91.17,1.83,1.83,0,0,0-.64.48,2.09,2.09,0,0,0-.37.71,3,3,0,0,0-.12.87v3.47H295Z"/>
        <path class="cls-3" d="M302.51,374.24h3.34V375h-3.34Z"/>
        <path class="cls-3" d="M314.73,373.58h0a1.69,1.69,0,0,1-.66.31,3.61,3.61,0,0,1-.76.1,3,3,0,0,1-1.18-.23,2.81,2.81,0,0,1-1.55-1.6,3.2,3.2,0,0,1-.21-1.17,3.05,3.05,0,0,1,.24-1.22,2.77,2.77,0,0,1,.65-1,3.1,3.1,0,0,1,1-.63,3.66,3.66,0,0,1,2.5,0,3.1,3.1,0,0,1,1,.63,2.94,2.94,0,0,1,.66,1,3.23,3.23,0,0,1,.23,1.22,2.92,2.92,0,0,1-.08.73,3.53,3.53,0,0,1-.21.65,5.43,5.43,0,0,1-.3.59l-.29.52-2.6,4.39h-1Zm-1.25-.31a2.2,2.2,0,0,0,.88-.18,2.17,2.17,0,0,0,.71-.48,2.11,2.11,0,0,0,.48-.73,2.18,2.18,0,0,0,.18-.89,2.52,2.52,0,0,0-.16-.93,2.21,2.21,0,0,0-.46-.73,2.12,2.12,0,0,0-.71-.46,2.47,2.47,0,0,0-.92-.17,2.42,2.42,0,0,0-.91.17,1.94,1.94,0,0,0-.71.46,2.06,2.06,0,0,0-.46.73,2.52,2.52,0,0,0-.17.93,2.18,2.18,0,0,0,.18.89,2.44,2.44,0,0,0,.48.73,2.17,2.17,0,0,0,.71.48A2.13,2.13,0,0,0,313.48,373.27Z"/>
        <path class="cls-3" d="M317.52,370.33a2.41,2.41,0,0,1,.18-.93,2.52,2.52,0,0,1,.5-.75,2.57,2.57,0,0,1,.74-.51,2.27,2.27,0,0,1,.91-.18,2.31,2.31,0,0,1,.91.18,2.52,2.52,0,0,1,.73.51,2.56,2.56,0,0,1,.51.75,2.41,2.41,0,0,1,.18.93,2.36,2.36,0,0,1-.18.92,2.56,2.56,0,0,1-.51.75,2.52,2.52,0,0,1-.73.51,2.32,2.32,0,0,1-.91.19,2.28,2.28,0,0,1-.91-.19,2.57,2.57,0,0,1-.74-.51,2.52,2.52,0,0,1-.5-.75A2.36,2.36,0,0,1,317.52,370.33Zm.73,0a1.53,1.53,0,0,0,.13.64,1.63,1.63,0,0,0,.34.51,1.78,1.78,0,0,0,.51.35,1.63,1.63,0,0,0,.62.12,1.53,1.53,0,0,0,1.12-.47,1.65,1.65,0,0,0,.35-.51,1.7,1.7,0,0,0,.13-.64,1.66,1.66,0,0,0-.13-.64,1.7,1.7,0,0,0-.35-.52,1.53,1.53,0,0,0-1.12-.47,1.63,1.63,0,0,0-.62.12,1.78,1.78,0,0,0-.51.35,1.67,1.67,0,0,0-.34.52A1.5,1.5,0,0,0,318.25,370.33Zm7.07-2.68.63.39-6.2,10.3-.61-.38Zm-2.45,8a2.32,2.32,0,0,1,.18-.92,2.29,2.29,0,0,1,.5-.75,2.33,2.33,0,0,1,.74-.51,2.27,2.27,0,0,1,1.82,0,2.33,2.33,0,0,1,.74.51,2.29,2.29,0,0,1,.5.75,2.44,2.44,0,0,1,0,1.84,2.29,2.29,0,0,1-.5.75,2.33,2.33,0,0,1-.74.51,2.27,2.27,0,0,1-1.82,0,2.33,2.33,0,0,1-.74-.51,2.29,2.29,0,0,1-.5-.75A2.32,2.32,0,0,1,322.87,375.67Zm.73,0a1.53,1.53,0,0,0,.13.64,1.7,1.7,0,0,0,.35.52,1.58,1.58,0,0,0,.5.34,1.66,1.66,0,0,0,1.24,0,1.58,1.58,0,0,0,.5-.34,1.7,1.7,0,0,0,.35-.52,1.64,1.64,0,0,0,0-1.28,1.7,1.7,0,0,0-.35-.52,1.58,1.58,0,0,0-.5-.34,1.54,1.54,0,0,0-1.24,0,1.58,1.58,0,0,0-.5.34,1.7,1.7,0,0,0-.35.52A1.53,1.53,0,0,0,323.6,375.67Z"/>
      </g>
    </g>
  </g>
</svg>
