<svg xmlns="http://www.w3.org/2000/svg" viewBox="0 0 599.02 514.27">
  <defs>
    <style>
      .cls-1 {
        fill: #191919;
      }

      .cls-2, .cls-3, .cls-5 {
        fill: none;
      }

      .cls-2, .cls-3, .cls-5, .cls-6, .cls-7, .cls-8 {
        stroke: #fff;
      }

      .cls-2, .cls-3 {
        stroke-miterlimit: 1.18;
      }

      .cls-2 {
        stroke-width: 0.75px;
      }

      .cls-3 {
        stroke-width: 0.25px;
      }

      .cls-4 {
        fill: #fff;
      }

      .cls-5, .cls-6, .cls-7, .cls-8 {
        stroke-miterlimit: 10;
      }

      .cls-6 {
        fill: #585a5c;
      }

      .cls-6, .cls-7, .cls-8 {
        stroke-width: 0.5px;
      }

      .cls-7 {
        fill: #14396c;
      }

      .cls-8 {
        fill: #061f4b;
      }

      .cls-9 {
        isolation: isolate;
      }

      .cls-10 {
        fill: #2e8900;
      }
    </style>
  </defs>
  <g id="Layer_2" data-name="Layer 2">
    <g id="VarietiesOutline">
      <g>
        <rect class="cls-1" x="0.38" y="0.38" width="598.27" height="513.52" rx="12"/>
        <rect class="cls-2" x="0.38" y="0.38" width="598.27" height="513.52" rx="12"/>
      </g>
      <line class="cls-3" x1="118.46" y1="115.6" x2="482.08" y2="115.6"/>
      <g>
        <path class="cls-4" d="M32,361.94v-2H44.75v-6.71h1.86v8.69Z"/>
        <path class="cls-4" d="M32,351.22v-9.44h1.86v7.46H38.2V342.3h1.86v6.94h4.69v-7.83h1.86v9.81Z"/>
        <path class="cls-4" d="M32,340.6v-2.29l11.9-4.3v0L32,329.51v-2.17l14.63,5.76V335Z"/>
        <path class="cls-4" d="M32,325.58v-9.44h1.86v7.46H38.2v-6.94h1.86v6.94h4.69v-7.83h1.86v9.81Z"/>
        <path class="cls-4" d="M32,313v-2H44.75v-6.72h1.86V313Z"/>
        <path class="cls-4" d="M47,289.78a7.94,7.94,0,0,1-.59,3.08,7.07,7.07,0,0,1-1.62,2.4,7.31,7.31,0,0,1-2.44,1.57,8.37,8.37,0,0,1-6.07,0,7.31,7.31,0,0,1-2.44-1.57,7.07,7.07,0,0,1-1.62-2.4,8.33,8.33,0,0,1,0-6.16,7.11,7.11,0,0,1,1.62-2.41,7.64,7.64,0,0,1,2.44-1.57,8.5,8.5,0,0,1,6.07,0,7.64,7.64,0,0,1,2.44,1.57,7.11,7.11,0,0,1,1.62,2.41A7.94,7.94,0,0,1,47,289.78Zm-1.86,0a5.31,5.31,0,0,0-1.71-4,5.76,5.76,0,0,0-1.85-1.12,6.77,6.77,0,0,0-4.53,0,5.76,5.76,0,0,0-1.85,1.12,5.49,5.49,0,0,0,0,8A5.57,5.57,0,0,0,37,294.9a6.61,6.61,0,0,0,4.53,0,5.57,5.57,0,0,0,1.85-1.11,5.31,5.31,0,0,0,1.71-4Z"/>
        <path class="cls-4" d="M32,279.31v-9.2h1.86v7.21h4.59v-6.71h1.86v6.71h6.32v2Z"/>
        <path class="cls-4" d="M32,261.7v-5.14a6.15,6.15,0,0,1,.38-2.32,4,4,0,0,1,1-1.43,3.29,3.29,0,0,1,1.33-.73,4.87,4.87,0,0,1,2.83,0,3.19,3.19,0,0,1,1.32.73,3.92,3.92,0,0,1,1,1.43,6,6,0,0,1,.38,2.32v3.16h6.45v2Zm6.45-2v-2.6a6.3,6.3,0,0,0-.1-1.15,2.87,2.87,0,0,0-.34-1,1.82,1.82,0,0,0-.71-.72,2.5,2.5,0,0,0-1.21-.26,2.52,2.52,0,0,0-1.21.26,1.89,1.89,0,0,0-.71.72,2.87,2.87,0,0,0-.34,1,7.33,7.33,0,0,0-.09,1.15v2.6Z"/>
        <path class="cls-4" d="M32,249.45v-5.14a6.15,6.15,0,0,1,.38-2.32,4,4,0,0,1,1-1.43,3.44,3.44,0,0,1,1.33-.74,5.51,5.51,0,0,1,1.41-.2,3.86,3.86,0,0,1,2.53,1,4.06,4.06,0,0,1,.89,1.14,3.81,3.81,0,0,1,.44,1.49l6.68-4.15v2.48l-6.45,3.72v2.21h6.45v2Zm6.45-2v-2.6a6.3,6.3,0,0,0-.1-1.15,2.87,2.87,0,0,0-.34-1,1.82,1.82,0,0,0-.71-.72,2.5,2.5,0,0,0-1.21-.26,2.52,2.52,0,0,0-1.21.26,1.89,1.89,0,0,0-.71.72,2.87,2.87,0,0,0-.34,1,7.33,7.33,0,0,0-.09,1.15v2.6Z"/>
        <path class="cls-4" d="M32,236.83v-2H46.61v2Z"/>
        <path class="cls-4" d="M32,231.42v-5.11a9.58,9.58,0,0,1,.35-2.71,7.46,7.46,0,0,1,.94-2,6.11,6.11,0,0,1,1.35-1.42,7.19,7.19,0,0,1,1.58-.9,8,8,0,0,1,1.61-.48,9,9,0,0,1,1.48-.14,7.23,7.23,0,0,1,2.72.52,6.9,6.9,0,0,1,2.34,1.52A7.64,7.64,0,0,1,46,223.18a9.09,9.09,0,0,1,.62,3.46v4.78Zm12.77-2v-2.5a8.4,8.4,0,0,0-.34-2.38,5.84,5.84,0,0,0-1-2,4.9,4.9,0,0,0-1.7-1.34,5.43,5.43,0,0,0-2.39-.49,7.21,7.21,0,0,0-1.64.22,4.89,4.89,0,0,0-1.78.86,5,5,0,0,0-1.44,1.75,6.18,6.18,0,0,0-.59,2.89v3Z"/>
        <path class="cls-4" d="M32,215.78v-9.44h1.86v7.45H38.2v-6.94h1.86v6.94h4.69V206h1.86v9.82Z"/>
      </g>
      <g>
        <g>
          <g>
            <path class="cls-4" d="M66,432.5c0-.55,0-1.13.08-1.75a12,12,0,0,1,.28-1.81,9.22,9.22,0,0,1,.57-1.68,5,5,0,0,1,.93-1.4,4.06,4.06,0,0,1,1.36-1,5.12,5.12,0,0,1,3.77,0,4.17,4.17,0,0,1,1.36,1,5,5,0,0,1,.93,1.4,9.2,9.2,0,0,1,.56,1.68,13.39,13.39,0,0,1,.29,1.81c0,.62.07,1.2.07,1.75s0,1.16-.07,1.77a13.5,13.5,0,0,1-.29,1.8,9.36,9.36,0,0,1-.56,1.67,5.23,5.23,0,0,1-.93,1.41,4.17,4.17,0,0,1-1.36,1,5.12,5.12,0,0,1-3.77,0,4.06,4.06,0,0,1-1.36-1,5.23,5.23,0,0,1-.93-1.41,9.39,9.39,0,0,1-.57-1.67,12,12,0,0,1-.28-1.8C66,433.66,66,433.07,66,432.5Zm1.44,0c0,.41,0,.86,0,1.34a11.15,11.15,0,0,0,.17,1.49A9.33,9.33,0,0,0,68,436.8a5.23,5.23,0,0,0,.65,1.27,3.19,3.19,0,0,0,1,.9,2.83,2.83,0,0,0,1.41.33,2.88,2.88,0,0,0,1.41-.33,3.19,3.19,0,0,0,1-.9,4.61,4.61,0,0,0,.65-1.27,9.37,9.37,0,0,0,.39-1.47c.08-.51.14-1,.17-1.49s0-.93,0-1.34,0-.83,0-1.33-.09-1-.17-1.49a9.37,9.37,0,0,0-.39-1.47,4.61,4.61,0,0,0-.65-1.27,3.19,3.19,0,0,0-1-.9,2.88,2.88,0,0,0-1.41-.34,2.84,2.84,0,0,0-1.4.34,3.23,3.23,0,0,0-1,.9,5.23,5.23,0,0,0-.65,1.27,9.33,9.33,0,0,0-.38,1.47,11,11,0,0,0-.17,1.49C67.41,431.67,67.39,432.11,67.39,432.5Z"/>
            <g>
              <path class="cls-4" d="M158.39,426.62h0l-2.79,2.29-.81-1,3.81-3.12h1.12v15.43h-1.31Z"/>
              <path class="cls-4" d="M164.6,432.5c0-.55,0-1.13.07-1.75a13.39,13.39,0,0,1,.29-1.81,9.22,9.22,0,0,1,.57-1.68,4.79,4.79,0,0,1,.92-1.4,4.17,4.17,0,0,1,1.36-1,5.12,5.12,0,0,1,3.77,0,4.21,4.21,0,0,1,1.37,1,5.23,5.23,0,0,1,.92,1.4,9.22,9.22,0,0,1,.57,1.68,12,12,0,0,1,.28,1.81c.05.62.08,1.2.08,1.75s0,1.16-.08,1.77a12,12,0,0,1-.28,1.8,9.39,9.39,0,0,1-.57,1.67,5.45,5.45,0,0,1-.92,1.41,4.21,4.21,0,0,1-1.37,1,5.12,5.12,0,0,1-3.77,0,4.17,4.17,0,0,1-1.36-1,5,5,0,0,1-.92-1.41,9.39,9.39,0,0,1-.57-1.67,13.5,13.5,0,0,1-.29-1.8C164.62,433.66,164.6,433.07,164.6,432.5Zm1.44,0c0,.41,0,.86,0,1.34s.09,1,.17,1.49a9.37,9.37,0,0,0,.39,1.47,4.61,4.61,0,0,0,.65,1.27,3.27,3.27,0,0,0,1,.9,3.18,3.18,0,0,0,2.82,0,3.23,3.23,0,0,0,1-.9,5.23,5.23,0,0,0,.65-1.27,9.33,9.33,0,0,0,.38-1.47,13.14,13.14,0,0,0,.18-1.49c0-.48,0-.93,0-1.34s0-.83,0-1.33a12.87,12.87,0,0,0-.18-1.49,9.33,9.33,0,0,0-.38-1.47,5.23,5.23,0,0,0-.65-1.27,3.23,3.23,0,0,0-1-.9,2.84,2.84,0,0,0-1.4-.34,2.88,2.88,0,0,0-1.41.34,3.19,3.19,0,0,0-1,.9,4.61,4.61,0,0,0-.65,1.27,9.37,9.37,0,0,0-.39,1.47c-.08.5-.14,1-.17,1.49S166,432.11,166,432.5Z"/>
            </g>
            <g>
              <path class="cls-4" d="M246.57,438.69l5.8-6.12q.39-.39.78-.84a7,7,0,0,0,.71-.94,4.94,4.94,0,0,0,.51-1,3.29,3.29,0,0,0,.2-1.18,2.66,2.66,0,0,0-.87-2.11,3.22,3.22,0,0,0-2.2-.77,3.07,3.07,0,0,0-2,.7,3.22,3.22,0,0,0-1.07,1.83l-1.52-.15a4.1,4.1,0,0,1,1.63-2.67,5.2,5.2,0,0,1,3.05-.88,5.27,5.27,0,0,1,1.7.27,4.52,4.52,0,0,1,1.42.77,3.63,3.63,0,0,1,1.33,2.9,4.94,4.94,0,0,1-.27,1.66,7.26,7.26,0,0,1-.72,1.45,8.45,8.45,0,0,1-1,1.29c-.38.41-.77.82-1.16,1.22L248,439h8.11v1.18h-9.55Z"/>
              <path class="cls-4" d="M257.58,432.5c0-.55,0-1.13.07-1.75a12,12,0,0,1,.29-1.81,9.2,9.2,0,0,1,.56-1.68,5,5,0,0,1,.93-1.4,4.17,4.17,0,0,1,1.36-1,5.12,5.12,0,0,1,3.77,0,4.06,4.06,0,0,1,1.36,1,5,5,0,0,1,.93,1.4,9.22,9.22,0,0,1,.57,1.68,12,12,0,0,1,.28,1.81c.05.62.08,1.2.08,1.75s0,1.16-.08,1.77a12,12,0,0,1-.28,1.8,9.39,9.39,0,0,1-.57,1.67,5.23,5.23,0,0,1-.93,1.41,4.06,4.06,0,0,1-1.36,1,5.12,5.12,0,0,1-3.77,0,4.17,4.17,0,0,1-1.36-1,5.23,5.23,0,0,1-.93-1.41,9.36,9.36,0,0,1-.56-1.67,12.06,12.06,0,0,1-.29-1.8C257.6,433.66,257.58,433.07,257.58,432.5Zm1.44,0c0,.41,0,.86,0,1.34s.09,1,.17,1.49a9.37,9.37,0,0,0,.39,1.47,4.61,4.61,0,0,0,.65,1.27,3.27,3.27,0,0,0,1,.9,3.18,3.18,0,0,0,2.82,0,3.23,3.23,0,0,0,1-.9,5.23,5.23,0,0,0,.65-1.27,9.33,9.33,0,0,0,.38-1.47,11.15,11.15,0,0,0,.17-1.49c0-.48,0-.93,0-1.34s0-.83,0-1.33a11,11,0,0,0-.17-1.49,9.33,9.33,0,0,0-.38-1.47,5.23,5.23,0,0,0-.65-1.27,3.23,3.23,0,0,0-1-.9,3.07,3.07,0,0,0-2.81,0,3.19,3.19,0,0,0-1,.9,4.61,4.61,0,0,0-.65,1.27,9.37,9.37,0,0,0-.39,1.47c-.08.5-.14,1-.17,1.49S259,432.11,259,432.5Z"/>
            </g>
            <g>
              <path class="cls-4" d="M341,437a3.92,3.92,0,0,0,1.19,1.71,3.19,3.19,0,0,0,2,.6,4,4,0,0,0,1.51-.26,2.93,2.93,0,0,0,1.08-.72,3.11,3.11,0,0,0,.64-1.07,3.94,3.94,0,0,0,.22-1.3,2.8,2.8,0,0,0-.36-1.46,2.88,2.88,0,0,0-.94-1,4,4,0,0,0-1.31-.56,6,6,0,0,0-1.47-.18H343v-1.3h.65a4.74,4.74,0,0,0,1.23-.17,3.32,3.32,0,0,0,1.11-.51,2.68,2.68,0,0,0,.8-.9,2.8,2.8,0,0,0-2.55-4.18,3.17,3.17,0,0,0-1.72.49,3.47,3.47,0,0,0-1.2,1.32l-1.24-.69a3.91,3.91,0,0,1,1.73-1.75,5.42,5.42,0,0,1,2.43-.54,5.27,5.27,0,0,1,1.65.25,4,4,0,0,1,1.38.74,3.43,3.43,0,0,1,.92,1.23,4.09,4.09,0,0,1,.34,1.74,3.71,3.71,0,0,1-.7,2.24,3.6,3.6,0,0,1-2,1.34v0a4,4,0,0,1,1.34.49,4.18,4.18,0,0,1,1,.88,4,4,0,0,1,.68,1.18,4,4,0,0,1,.24,1.4,4.9,4.9,0,0,1-.3,1.72,3.76,3.76,0,0,1-.89,1.4,4.28,4.28,0,0,1-1.49.95,5.85,5.85,0,0,1-2.1.35,5.59,5.59,0,0,1-2.95-.73,4.5,4.5,0,0,1-1.82-2.3Z"/>
              <path class="cls-4" d="M350.56,432.5c0-.55,0-1.13.07-1.75a12,12,0,0,1,.29-1.81,8.5,8.5,0,0,1,.56-1.68,5,5,0,0,1,.93-1.4,4.17,4.17,0,0,1,1.36-1,5.12,5.12,0,0,1,3.77,0,4.06,4.06,0,0,1,1.36,1,5,5,0,0,1,.93,1.4,9.22,9.22,0,0,1,.57,1.68,13.38,13.38,0,0,1,.28,1.81c.05.62.08,1.2.08,1.75s0,1.16-.08,1.77a13.48,13.48,0,0,1-.28,1.8,9.39,9.39,0,0,1-.57,1.67,5.23,5.23,0,0,1-.93,1.41,4.06,4.06,0,0,1-1.36,1,5.12,5.12,0,0,1-3.77,0,4.17,4.17,0,0,1-1.36-1,5.23,5.23,0,0,1-.93-1.41,8.63,8.63,0,0,1-.56-1.67,12.06,12.06,0,0,1-.29-1.8C350.58,433.66,350.56,433.07,350.56,432.5Zm1.43,0c0,.41,0,.86.05,1.34s.09,1,.17,1.49a10.57,10.57,0,0,0,.38,1.47,4.92,4.92,0,0,0,.66,1.27,3.27,3.27,0,0,0,1,.9,3.18,3.18,0,0,0,2.82,0,3.19,3.19,0,0,0,1-.9,4.92,4.92,0,0,0,.66-1.27,10.57,10.57,0,0,0,.38-1.47,13.08,13.08,0,0,0,.17-1.49c0-.48.05-.93.05-1.34s0-.83-.05-1.33a12.83,12.83,0,0,0-.17-1.49,10.57,10.57,0,0,0-.38-1.47,4.92,4.92,0,0,0-.66-1.27,3.19,3.19,0,0,0-1-.9,3.07,3.07,0,0,0-2.81,0,3.19,3.19,0,0,0-1,.9,4.92,4.92,0,0,0-.66,1.27,10.57,10.57,0,0,0-.38,1.47c-.08.5-.14,1-.17,1.49S352,432.11,352,432.5Z"/>
            </g>
            <g>
              <path class="cls-4" d="M438.81,436.43h-6.67v-1.55l6.17-10.09h1.81v10.46h2.35v1.18h-2.35v3.79h-1.31Zm0-10.2h-.05l-5.44,9h5.49Z"/>
              <path class="cls-4" d="M443.54,432.5c0-.55,0-1.13.07-1.75a12,12,0,0,1,.29-1.81,8.5,8.5,0,0,1,.56-1.68,5,5,0,0,1,.93-1.4,4.17,4.17,0,0,1,1.36-1,5.12,5.12,0,0,1,3.77,0,4.17,4.17,0,0,1,1.36,1,5,5,0,0,1,.93,1.4,8.5,8.5,0,0,1,.56,1.68,12,12,0,0,1,.29,1.81c0,.62.08,1.2.08,1.75s0,1.16-.08,1.77a12.06,12.06,0,0,1-.29,1.8,8.63,8.63,0,0,1-.56,1.67,5.23,5.23,0,0,1-.93,1.41,4.17,4.17,0,0,1-1.36,1,5.12,5.12,0,0,1-3.77,0,4.17,4.17,0,0,1-1.36-1,5.23,5.23,0,0,1-.93-1.41,8.63,8.63,0,0,1-.56-1.67,12.06,12.06,0,0,1-.29-1.8C443.56,433.66,443.54,433.07,443.54,432.5Zm1.43,0c0,.41,0,.86,0,1.34s.09,1,.17,1.49a10.57,10.57,0,0,0,.38,1.47,4.92,4.92,0,0,0,.66,1.27,3.27,3.27,0,0,0,1,.9,3.18,3.18,0,0,0,2.82,0,3.19,3.19,0,0,0,1-.9,4.92,4.92,0,0,0,.66-1.27,10.57,10.57,0,0,0,.38-1.47,13.08,13.08,0,0,0,.17-1.49c0-.48.05-.93.05-1.34s0-.83-.05-1.33a12.83,12.83,0,0,0-.17-1.49,10.57,10.57,0,0,0-.38-1.47,4.92,4.92,0,0,0-.66-1.27,3.19,3.19,0,0,0-1-.9,3.07,3.07,0,0,0-2.81,0,3.19,3.19,0,0,0-1,.9,4.92,4.92,0,0,0-.66,1.27,10.57,10.57,0,0,0-.38,1.47c-.08.5-.14,1-.17,1.49S445,432.11,445,432.5Z"/>
            </g>
            <g>
              <path class="cls-4" d="M534.42,426h-6.36l-.07,4.9a3.38,3.38,0,0,1,1.1-.35,7.62,7.62,0,0,1,1.15-.09,4.78,4.78,0,0,1,2,.41,4.36,4.36,0,0,1,1.5,1.1,4.89,4.89,0,0,1,1,1.62,5.86,5.86,0,0,1,.33,2,5,5,0,0,1-.44,2.18,4.6,4.6,0,0,1-1.17,1.55,4.87,4.87,0,0,1-1.59.91,5,5,0,0,1-1.72.31,5.32,5.32,0,0,1-2.84-.7,4.65,4.65,0,0,1-1.78-1.92l1.35-.67a3.47,3.47,0,0,0,.53.82,4.18,4.18,0,0,0,.78.67,3.57,3.57,0,0,0,.94.46,3.2,3.2,0,0,0,1,.16,3,3,0,0,0,1.13-.23,3.71,3.71,0,0,0,1.14-.68,3.84,3.84,0,0,0,.87-1.16,3.57,3.57,0,0,0,.35-1.61,4.09,4.09,0,0,0-.3-1.56,3.86,3.86,0,0,0-.82-1.27,3.82,3.82,0,0,0-2.76-1.18,4.73,4.73,0,0,0-1.62.29,6.3,6.3,0,0,0-1.43.76l.13-7.87h7.6Z"/>
              <path class="cls-4" d="M536.51,432.5c0-.55,0-1.13.08-1.75a13.38,13.38,0,0,1,.28-1.81,9.22,9.22,0,0,1,.57-1.68,5,5,0,0,1,.93-1.4,4.06,4.06,0,0,1,1.36-1,5.12,5.12,0,0,1,3.77,0,4.17,4.17,0,0,1,1.36,1,5,5,0,0,1,.93,1.4,8.5,8.5,0,0,1,.56,1.68,12,12,0,0,1,.29,1.81c.05.62.07,1.2.07,1.75s0,1.16-.07,1.77a12.06,12.06,0,0,1-.29,1.8,8.63,8.63,0,0,1-.56,1.67,5.23,5.23,0,0,1-.93,1.41,4.17,4.17,0,0,1-1.36,1,5.12,5.12,0,0,1-3.77,0,4.06,4.06,0,0,1-1.36-1,5.23,5.23,0,0,1-.93-1.41,9.39,9.39,0,0,1-.57-1.67,13.48,13.48,0,0,1-.28-1.8C536.54,433.66,536.51,433.07,536.51,432.5Zm1.44,0c0,.41,0,.86,0,1.34a13.08,13.08,0,0,0,.17,1.49,9.33,9.33,0,0,0,.38,1.47,4.92,4.92,0,0,0,.66,1.27,3.16,3.16,0,0,0,1,.9,2.83,2.83,0,0,0,1.41.33A2.88,2.88,0,0,0,543,439a3.19,3.19,0,0,0,1-.9,4.92,4.92,0,0,0,.66-1.27,10.57,10.57,0,0,0,.38-1.47c.08-.51.14-1,.17-1.49s0-.93,0-1.34,0-.83,0-1.33-.09-1-.17-1.49a10.57,10.57,0,0,0-.38-1.47,4.92,4.92,0,0,0-.66-1.27,3.19,3.19,0,0,0-1-.9,3.07,3.07,0,0,0-2.81,0,3.09,3.09,0,0,0-1,.9,4.92,4.92,0,0,0-.66,1.27,9.33,9.33,0,0,0-.38,1.47,12.83,12.83,0,0,0-.17,1.49C538,431.67,538,432.11,538,432.5Z"/>
            </g>
          </g>
          <line class="cls-5" x1="71.05" y1="419.44" x2="535.95" y2="419.44"/>
          <g>
            <line class="cls-5" x1="71.05" y1="419.44" x2="71.05" y2="412.35"/>
            <line class="cls-5" x1="164.03" y1="419.44" x2="164.03" y2="412.35"/>
            <line class="cls-5" x1="257.01" y1="419.44" x2="257.01" y2="412.35"/>
            <line class="cls-5" x1="349.99" y1="419.44" x2="349.99" y2="412.35"/>
            <line class="cls-5" x1="442.97" y1="419.44" x2="442.97" y2="412.35"/>
            <line class="cls-5" x1="535.95" y1="419.44" x2="535.95" y2="412.35"/>
          </g>
        </g>
        <g>
          <line class="cls-5" x1="71.05" y1="419.44" x2="71.05" y2="135.67"/>
          <line class="cls-5" x1="71.05" y1="277.55" x2="82.68" y2="277.55"/>
        </g>
        <g>
          <rect class="cls-6" x="71.05" y="337.15" width="148.77" height="51.08"/>
          <rect class="cls-7" x="71.05" y="280.39" width="371.92" height="51.08"/>
          <rect class="cls-8" x="71.05" y="223.64" width="409.11" height="51.08"/>
        </g>
      </g>
      <g>
        <path class="cls-4" d="M333.71,306.45a1.77,1.77,0,0,0,.76.77,2.16,2.16,0,0,0,1,.27,1.88,1.88,0,0,0,.52-.08,1.55,1.55,0,0,0,.46-.24,1.42,1.42,0,0,0,.33-.36.88.88,0,0,0,.13-.49.79.79,0,0,0-.28-.66,1.89,1.89,0,0,0-.68-.34,6.59,6.59,0,0,0-.9-.22,4,4,0,0,1-.89-.27,2.1,2.1,0,0,1-.69-.52,1.44,1.44,0,0,1-.27-.94,1.62,1.62,0,0,1,.19-.81,1.69,1.69,0,0,1,.49-.57,2.22,2.22,0,0,1,.69-.34,2.87,2.87,0,0,1,.77-.11,2.9,2.9,0,0,1,1.33.29,2,2,0,0,1,.88.91l-.74.44a1.73,1.73,0,0,0-.57-.67,1.62,1.62,0,0,0-.9-.22,1.88,1.88,0,0,0-.46.06,1.48,1.48,0,0,0-.42.2,1.05,1.05,0,0,0-.32.31.76.76,0,0,0-.13.44.74.74,0,0,0,.28.64,2,2,0,0,0,.68.32,6.69,6.69,0,0,0,.9.2,4,4,0,0,1,.89.27,1.7,1.7,0,0,1,.68.54,1.53,1.53,0,0,1,.28,1,1.94,1.94,0,0,1-.18.86,1.84,1.84,0,0,1-.5.61,2.1,2.1,0,0,1-.73.37,3,3,0,0,1-.85.13,3.42,3.42,0,0,1-1.48-.32,2.24,2.24,0,0,1-1-1Z"/>
        <path class="cls-4" d="M339.11,304.89a3.4,3.4,0,0,1,.25-1.34,3,3,0,0,1,1.72-1.76,3.64,3.64,0,0,1,2.65,0,3.13,3.13,0,0,1,1,.7,3.07,3.07,0,0,1,.68,1.06,3.4,3.4,0,0,1,.25,1.34,3.44,3.44,0,0,1-.25,1.34,3.16,3.16,0,0,1-.68,1.06,3.13,3.13,0,0,1-1,.7,3.64,3.64,0,0,1-2.65,0,3.07,3.07,0,0,1-1.05-.7,3.14,3.14,0,0,1-.67-1.06A3.44,3.44,0,0,1,339.11,304.89Zm.82,0a2.82,2.82,0,0,0,.17,1,2.31,2.31,0,0,0,.49.83,2.51,2.51,0,0,0,.79.56,2.59,2.59,0,0,0,1,.2,2.63,2.63,0,0,0,1-.2,2.59,2.59,0,0,0,.78-.56,2.31,2.31,0,0,0,.49-.83,2.82,2.82,0,0,0,.17-1,2.78,2.78,0,0,0-.17-1,2.23,2.23,0,0,0-.49-.83,2.59,2.59,0,0,0-.78-.56,2.46,2.46,0,0,0-1-.2,2.43,2.43,0,0,0-1,.2,2.51,2.51,0,0,0-.79.56,2.23,2.23,0,0,0-.49.83A2.78,2.78,0,0,0,339.93,304.89Z"/>
        <path class="cls-4" d="M347.51,303.5c0-.12,0-.27,0-.44s0-.34,0-.51,0-.34,0-.49,0-.27,0-.35h.82c0,.24,0,.47,0,.69a1.74,1.74,0,0,0,0,.42h0a2.23,2.23,0,0,1,.81-.9,2.38,2.38,0,0,1,1.33-.38,2.05,2.05,0,0,1,1.14.33,1.84,1.84,0,0,1,.75,1.05,2,2,0,0,1,.88-1.05,2.53,2.53,0,0,1,1.24-.33,2.61,2.61,0,0,1,1.2.24,2,2,0,0,1,.72.61,2.27,2.27,0,0,1,.37.87,5.69,5.69,0,0,1,.1,1v3.79h-.82v-3.75a4.74,4.74,0,0,0-.06-.75,2.19,2.19,0,0,0-.24-.65,1.22,1.22,0,0,0-.47-.46,1.58,1.58,0,0,0-.8-.17,1.83,1.83,0,0,0-.93.21,1.59,1.59,0,0,0-.58.54,2.29,2.29,0,0,0-.3.72,3.88,3.88,0,0,0-.08.73v3.58h-.82v-3.83a2.79,2.79,0,0,0-.31-1.42,1.07,1.07,0,0,0-1-.53,2.36,2.36,0,0,0-.84.15,1.89,1.89,0,0,0-.7.49,2.42,2.42,0,0,0-.46.81,3.59,3.59,0,0,0-.16,1.15v3.18h-.82Z"/>
        <path class="cls-4" d="M364.58,306.87a2.72,2.72,0,0,1-1.17,1.05,3.72,3.72,0,0,1-1.54.32,3.38,3.38,0,0,1-1.3-.25,3,3,0,0,1-1-.7,3.07,3.07,0,0,1-.64-1.06,3.9,3.9,0,0,1-.23-1.35,3.83,3.83,0,0,1,.23-1.33,3.32,3.32,0,0,1,.65-1.05,3,3,0,0,1,1-.7,3.05,3.05,0,0,1,1.26-.26,3,3,0,0,1,1.27.26,2.84,2.84,0,0,1,.92.67,2.89,2.89,0,0,1,.56,1,3.17,3.17,0,0,1,.19,1.09v.58h-5.26a2.8,2.8,0,0,0,.11.66,2.31,2.31,0,0,0,.37.8,2.56,2.56,0,0,0,.72.66,2.32,2.32,0,0,0,1.18.27,2.6,2.6,0,0,0,1.2-.3,2.19,2.19,0,0,0,.9-.83Zm-.62-2.52a2,2,0,0,0-.17-.8,2.13,2.13,0,0,0-.46-.65,2.29,2.29,0,0,0-.69-.45,2.22,2.22,0,0,0-.85-.16,2.06,2.06,0,0,0-1.1.27,2.4,2.4,0,0,0-.7.63,3,3,0,0,0-.37.7,2.1,2.1,0,0,0-.11.46Z"/>
        <path class="cls-4" d="M365.71,301.71h.89l1.52,5.33h0l1.75-5.33h.77l1.86,5.33h0l1.47-5.33h.82L373,308.07h-.84l-1.86-5.21h0l-1.75,5.21h-.84Z"/>
        <path class="cls-4" d="M376.12,297.66h.82v5.16h0a2.26,2.26,0,0,1,.82-.9,2.35,2.35,0,0,1,1.32-.38,2.61,2.61,0,0,1,1.2.24,2,2,0,0,1,.72.61,2.27,2.27,0,0,1,.37.87,5.69,5.69,0,0,1,.1,1v3.79h-.81v-3.75a4.76,4.76,0,0,0-.07-.75,2.19,2.19,0,0,0-.24-.65,1.22,1.22,0,0,0-.47-.46,1.58,1.58,0,0,0-.8-.17,2.36,2.36,0,0,0-.84.15,1.78,1.78,0,0,0-.69.49,2.12,2.12,0,0,0-.46.81,3.32,3.32,0,0,0-.17,1.15v3.18h-.82Z"/>
        <path class="cls-4" d="M388.52,305.4c0,.31,0,.59,0,.84s0,.48,0,.69,0,.41,0,.59a5.14,5.14,0,0,0,.06.55h-.76a6.53,6.53,0,0,1-.08-1h0a2.32,2.32,0,0,1-.87.91,2.74,2.74,0,0,1-1.32.29,3.09,3.09,0,0,1-.8-.11,2.06,2.06,0,0,1-.7-.33,1.69,1.69,0,0,1-.51-.58,1.8,1.8,0,0,1-.2-.87,1.7,1.7,0,0,1,.37-1.16,2.25,2.25,0,0,1,.9-.64,4.14,4.14,0,0,1,1.14-.27,8.53,8.53,0,0,1,1.06-.07h1v-.38a1.38,1.38,0,0,0-.5-1.19,2.13,2.13,0,0,0-1.26-.35,2.8,2.8,0,0,0-1.91.71l-.48-.56a2.83,2.83,0,0,1,1.11-.67,4,4,0,0,1,1.28-.23,2.75,2.75,0,0,1,1.81.55,2.11,2.11,0,0,1,.68,1.75Zm-1.63-.52a8,8,0,0,0-1,.06,3.69,3.69,0,0,0-.87.24,1.69,1.69,0,0,0-.62.44,1,1,0,0,0-.23.69,1.07,1.07,0,0,0,.13.51,1.14,1.14,0,0,0,.34.38,1.57,1.57,0,0,0,.45.22,1.79,1.79,0,0,0,.51.07,2.56,2.56,0,0,0,1.07-.19,1.93,1.93,0,0,0,.67-.5,1.8,1.8,0,0,0,.34-.71,3,3,0,0,0,.1-.79v-.42Z"/>
        <path class="cls-4" d="M393.75,302.45H392v4.15a.93.93,0,0,0,.23.66.88.88,0,0,0,.64.23,1.82,1.82,0,0,0,.46-.06,2.51,2.51,0,0,0,.46-.16l.07.75-.53.15a2.87,2.87,0,0,1-.53.07,2.1,2.1,0,0,1-.75-.13,1.43,1.43,0,0,1-.5-.36,1.32,1.32,0,0,1-.27-.51,2.2,2.2,0,0,1-.09-.64v-4.15h-1.36v-.74h1.36v-1.83H392v1.83h1.79Z"/>
        <path class="cls-4" d="M398.54,301.71h.82v1.11h0a2,2,0,0,1,.47-.57,2.86,2.86,0,0,1,.62-.4,3.29,3.29,0,0,1,.69-.23,3.69,3.69,0,0,1,.72-.08,3.34,3.34,0,0,1,1.32.25,3.27,3.27,0,0,1,1.05.7,3.07,3.07,0,0,1,.68,1.06,3.59,3.59,0,0,1,.24,1.34,3.63,3.63,0,0,1-.24,1.34,3.16,3.16,0,0,1-.68,1.06,3.27,3.27,0,0,1-1.05.7,3.53,3.53,0,0,1-1.32.25,3.69,3.69,0,0,1-.72-.08,3.29,3.29,0,0,1-.69-.23,2.86,2.86,0,0,1-.62-.4,2,2,0,0,1-.47-.58h0v4.26h-.82Zm.74,3.18a2.46,2.46,0,0,0,.2,1,2.64,2.64,0,0,0,.56.83,2.77,2.77,0,0,0,.82.56,2.7,2.7,0,0,0,1,.2,2.63,2.63,0,0,0,1-.2,2.51,2.51,0,0,0,.79-.56,2.47,2.47,0,0,0,.49-.83,3.06,3.06,0,0,0,.17-1,3,3,0,0,0-.17-1,2.37,2.37,0,0,0-.49-.83,2.51,2.51,0,0,0-.79-.56,2.46,2.46,0,0,0-1-.2,2.52,2.52,0,0,0-1,.2,2.77,2.77,0,0,0-.82.56,2.53,2.53,0,0,0-.56.83A2.43,2.43,0,0,0,399.28,304.89Z"/>
        <path class="cls-4" d="M407,303.5c0-.12,0-.27,0-.44l0-.51c0-.18,0-.34,0-.49s0-.27,0-.35h.81c0,.24,0,.47,0,.69a2.18,2.18,0,0,0,0,.42,2.85,2.85,0,0,1,.8-.92,1.93,1.93,0,0,1,1.19-.36l.24,0,.23.05-.09.81a1.18,1.18,0,0,0-.31-.05,2.32,2.32,0,0,0-.92.17,1.68,1.68,0,0,0-.63.48,1.9,1.9,0,0,0-.38.7,3.17,3.17,0,0,0-.12.88v3.47H407Z"/>
        <path class="cls-4" d="M410.91,304.89a3.4,3.4,0,0,1,.25-1.34,3,3,0,0,1,1.72-1.76,3.37,3.37,0,0,1,1.32-.25,3.42,3.42,0,0,1,1.33.25,3.13,3.13,0,0,1,1,.7,3.07,3.07,0,0,1,.68,1.06,3.4,3.4,0,0,1,.25,1.34,3.44,3.44,0,0,1-.25,1.34,3.16,3.16,0,0,1-.68,1.06,3.13,3.13,0,0,1-1,.7,3.62,3.62,0,0,1-1.33.25,3.56,3.56,0,0,1-1.32-.25,3.07,3.07,0,0,1-1.05-.7,3.14,3.14,0,0,1-.67-1.06A3.44,3.44,0,0,1,410.91,304.89Zm.82,0a2.82,2.82,0,0,0,.17,1,2.31,2.31,0,0,0,.49.83,2.51,2.51,0,0,0,.79.56,2.58,2.58,0,0,0,1,.2,2.68,2.68,0,0,0,1-.2,2.59,2.59,0,0,0,.78-.56,2.31,2.31,0,0,0,.49-.83,2.82,2.82,0,0,0,.17-1,2.78,2.78,0,0,0-.17-1,2.23,2.23,0,0,0-.49-.83,2.59,2.59,0,0,0-.78-.56,2.51,2.51,0,0,0-1-.2,2.41,2.41,0,0,0-1,.2,2.51,2.51,0,0,0-.79.56,2.23,2.23,0,0,0-.49.83A2.78,2.78,0,0,0,411.73,304.89Z"/>
        <path class="cls-4" d="M424.61,306.28c0,.12,0,.26,0,.43s0,.35,0,.52,0,.34,0,.49,0,.27,0,.35h-.82c0-.24,0-.47,0-.69a1.91,1.91,0,0,0,0-.43h0a2.24,2.24,0,0,1-.81.91,2.38,2.38,0,0,1-1.33.38,2.61,2.61,0,0,1-1.2-.24,1.84,1.84,0,0,1-.73-.61,2.16,2.16,0,0,1-.36-.88,5.69,5.69,0,0,1-.1-1v-3.78h.82v3.74a4.56,4.56,0,0,0,.06.75,2.15,2.15,0,0,0,.24.66,1.18,1.18,0,0,0,.48.46,1.62,1.62,0,0,0,.79.17,2.22,2.22,0,0,0,.85-.16,1.8,1.8,0,0,0,.69-.48,2.53,2.53,0,0,0,.46-.81,3.62,3.62,0,0,0,.17-1.15v-3.18h.81Z"/>
        <path class="cls-4" d="M432.32,307h0a2.22,2.22,0,0,1-.47.58,3.12,3.12,0,0,1-.62.4,3.19,3.19,0,0,1-.7.23,3.49,3.49,0,0,1-2-.17,3.07,3.07,0,0,1-1-.7,3.14,3.14,0,0,1-.67-1.06,3.44,3.44,0,0,1-.25-1.34,3.4,3.4,0,0,1,.25-1.34,3,3,0,0,1,1.72-1.76,3.37,3.37,0,0,1,1.32-.25,3.53,3.53,0,0,1,.72.08,3.19,3.19,0,0,1,.7.23,3.12,3.12,0,0,1,.62.4,2.17,2.17,0,0,1,.47.57h0v-5.16h.81v10.41h-.81Zm.08-2.06a2.6,2.6,0,0,0-.2-1,2.63,2.63,0,0,0-1.39-1.39,2.75,2.75,0,0,0-2.06,0,2.59,2.59,0,0,0-.78.56,2.39,2.39,0,0,0-.5.83,3,3,0,0,0-.17,1,3.06,3.06,0,0,0,.17,1,2.49,2.49,0,0,0,.5.83,2.59,2.59,0,0,0,.78.56,2.75,2.75,0,0,0,2.06,0,2.7,2.7,0,0,0,.83-.56,2.82,2.82,0,0,0,.56-.83A2.64,2.64,0,0,0,432.4,304.89Z"/>
      </g>
      <g>
        <path class="cls-4" d="M104.5,364.7h0a2.21,2.21,0,0,1-.48.57,2.79,2.79,0,0,1-.61.4,2.87,2.87,0,0,1-.7.23,3.53,3.53,0,0,1-.72.08,3.34,3.34,0,0,1-1.32-.25,3,3,0,0,1-1-.69,3.44,3.44,0,0,1-.68-1.06,3.89,3.89,0,0,1,0-2.69,3.33,3.33,0,0,1,.68-1.06,3.07,3.07,0,0,1,1-.7,3.49,3.49,0,0,1,2-.17,2.9,2.9,0,0,1,.7.24,2.44,2.44,0,0,1,.61.39,2.25,2.25,0,0,1,.48.58h0V355.4h.81v10.41h-.81Zm.08-2.07a2.47,2.47,0,0,0-.21-1,2.5,2.5,0,0,0-1.38-1.38,2.5,2.5,0,0,0-1-.21,2.46,2.46,0,0,0-1,.21,2.3,2.3,0,0,0-.78.55,2.49,2.49,0,0,0-.5.83,3.06,3.06,0,0,0-.17,1,3,3,0,0,0,.17,1,2.39,2.39,0,0,0,.5.83,2.4,2.4,0,0,0,1.81.77,2.5,2.5,0,0,0,1-.21,2.82,2.82,0,0,0,.83-.56,2.51,2.51,0,0,0,.55-.83A2.44,2.44,0,0,0,104.58,362.63Z"/>
        <path class="cls-4" d="M112.83,364.62a2.82,2.82,0,0,1-1.17,1,3.72,3.72,0,0,1-1.54.32,3.21,3.21,0,0,1-1.3-.25,2.93,2.93,0,0,1-1-.69,3.19,3.19,0,0,1-.65-1.06,4,4,0,0,1-.22-1.36,3.73,3.73,0,0,1,.23-1.32,3.09,3.09,0,0,1,.65-1.06,3,3,0,0,1,1-.7,3.05,3.05,0,0,1,1.26-.26,2.91,2.91,0,0,1,2.19.93,3.07,3.07,0,0,1,.56,1,3.42,3.42,0,0,1,.19,1.09v.58h-5.26a2.78,2.78,0,0,0,.1.67A2.45,2.45,0,0,0,109,365a2.25,2.25,0,0,0,1.17.28,2.62,2.62,0,0,0,1.21-.31,2.21,2.21,0,0,0,.89-.82Zm-.63-2.52a1.91,1.91,0,0,0-.16-.8,2.37,2.37,0,0,0-.46-.66,2.21,2.21,0,0,0-.7-.45A2.17,2.17,0,0,0,110,360a2.1,2.1,0,0,0-1.11.27,2.51,2.51,0,0,0-.69.64,2.34,2.34,0,0,0-.37.69,2,2,0,0,0-.11.47Z"/>
        <path class="cls-4" d="M120.08,364.88a3,3,0,0,1-1,.83,3,3,0,0,1-1.26.27,3.34,3.34,0,0,1-1.32-.25,3,3,0,0,1-1-.69,3.44,3.44,0,0,1-.68-1.06,3.89,3.89,0,0,1,0-2.69,3.33,3.33,0,0,1,.68-1.06,3.07,3.07,0,0,1,1-.7,3.53,3.53,0,0,1,1.32-.25,2.9,2.9,0,0,1,1.28.29,3.32,3.32,0,0,1,1,.82l-.65.49a2.8,2.8,0,0,0-.77-.62,1.89,1.89,0,0,0-.91-.23,2.46,2.46,0,0,0-1,.21,2.3,2.3,0,0,0-.78.55,2.49,2.49,0,0,0-.5.83,3.06,3.06,0,0,0-.17,1,3,3,0,0,0,.17,1,2.39,2.39,0,0,0,.5.83,2.4,2.4,0,0,0,1.81.77,1.86,1.86,0,0,0,.94-.25,2.38,2.38,0,0,0,.74-.64Z"/>
        <path class="cls-4" d="M121.49,355.4h.81v10.41h-.81Z"/>
        <path class="cls-4" d="M124.55,356.93a.6.6,0,0,1,.17-.44.59.59,0,0,1,.44-.18.58.58,0,0,1,.43.18.63.63,0,0,1,0,.88.58.58,0,0,1-.43.18.59.59,0,0,1-.44-.18A.6.6,0,0,1,124.55,356.93Zm.2,2.52h.81v6.36h-.81Z"/>
        <path class="cls-4" d="M127.87,361.24c0-.12,0-.26,0-.43s0-.34,0-.52,0-.34,0-.49,0-.27,0-.35h.81c0,.24,0,.47,0,.69a2.83,2.83,0,0,0,0,.43h0a2.36,2.36,0,0,1,2.15-1.29,2.6,2.6,0,0,1,1.19.24,2,2,0,0,1,.72.61,2.39,2.39,0,0,1,.37.88,4.9,4.9,0,0,1,.1,1v3.78h-.81v-3.74a4.54,4.54,0,0,0-.07-.75,2.25,2.25,0,0,0-.24-.66,1.3,1.3,0,0,0-.47-.46,1.68,1.68,0,0,0-.79-.17,2.18,2.18,0,0,0-.85.16,1.66,1.66,0,0,0-.69.48,2.29,2.29,0,0,0-.46.81,3.36,3.36,0,0,0-.17,1.15v3.18h-.81Z"/>
        <path class="cls-4" d="M140.92,364.62a2.71,2.71,0,0,1-1.17,1,3.66,3.66,0,0,1-1.54.32,3.24,3.24,0,0,1-1.3-.25,3,3,0,0,1-1-.69,3.17,3.17,0,0,1-.64-1.06,4,4,0,0,1-.23-1.36,3.52,3.52,0,0,1,.24-1.32,3.09,3.09,0,0,1,.65-1.06,3,3,0,0,1,1-.7,3.05,3.05,0,0,1,1.26-.26,3,3,0,0,1,1.27.26,2.88,2.88,0,0,1,.92.67,2.73,2.73,0,0,1,.56,1,3.17,3.17,0,0,1,.19,1.09v.58h-5.25a2.78,2.78,0,0,0,.1.67,2.46,2.46,0,0,0,.37.79,2.21,2.21,0,0,0,1.9.94,2.58,2.58,0,0,0,1.2-.31,2.24,2.24,0,0,0,.9-.82Zm-.62-2.52a1.91,1.91,0,0,0-.17-.8,2,2,0,0,0-.46-.66,2.06,2.06,0,0,0-.69-.45,2.22,2.22,0,0,0-.85-.16,2.06,2.06,0,0,0-1.1.27,2.49,2.49,0,0,0-1.06,1.33,1.6,1.6,0,0,0-.11.47Z"/>
        <path class="cls-4" d="M148.4,364.7h0a2.21,2.21,0,0,1-.48.57,3.06,3.06,0,0,1-.61.4,3,3,0,0,1-.7.23,3.69,3.69,0,0,1-.72.08,3.42,3.42,0,0,1-1.33-.25,3,3,0,0,1-1-.69,3.27,3.27,0,0,1-.68-1.06,3.89,3.89,0,0,1,0-2.69,3.16,3.16,0,0,1,.68-1.06,3,3,0,0,1,1-.7,3.62,3.62,0,0,1,1.33-.25,3.69,3.69,0,0,1,.72.08,3.05,3.05,0,0,1,.7.24,2.63,2.63,0,0,1,.61.39,2.25,2.25,0,0,1,.48.58h0V355.4h.82v10.41h-.82Zm.08-2.07a2.46,2.46,0,0,0-.2-1,2.61,2.61,0,0,0-.55-.83,2.73,2.73,0,0,0-.83-.55,2.53,2.53,0,0,0-1-.21,2.46,2.46,0,0,0-1,.21,2.34,2.34,0,0,0-.79.55,2.47,2.47,0,0,0-.49.83,3.06,3.06,0,0,0-.17,1,3,3,0,0,0,.17,1,2.37,2.37,0,0,0,.49.83,2.51,2.51,0,0,0,.79.56,2.46,2.46,0,0,0,1,.21,2.53,2.53,0,0,0,1-.21,3,3,0,0,0,.83-.56,2.51,2.51,0,0,0,.55-.83A2.43,2.43,0,0,0,148.48,362.63Z"/>
        <path class="cls-4" d="M157.79,360.19H156v4.15a.91.91,0,0,0,.23.66.86.86,0,0,0,.64.24,2,2,0,0,0,.47-.07,3.39,3.39,0,0,0,.45-.15l.07.74-.53.15a2.21,2.21,0,0,1-.53.07,1.82,1.82,0,0,1-.74-.13,1.35,1.35,0,0,1-.5-.35,1.38,1.38,0,0,1-.28-.52,2.2,2.2,0,0,1-.09-.64v-4.15h-1.36v-.74h1.36v-1.83H156v1.83h1.79Z"/>
        <path class="cls-4" d="M158.89,362.63a3.67,3.67,0,0,1,.24-1.34,3.16,3.16,0,0,1,.68-1.06,3.13,3.13,0,0,1,1-.7,3.62,3.62,0,0,1,1.33-.25,3.53,3.53,0,0,1,1.32.25,3.13,3.13,0,0,1,1,.7,3,3,0,0,1,.69,1.06,3.89,3.89,0,0,1,0,2.69,3.13,3.13,0,0,1-.69,1.06,3.1,3.1,0,0,1-1,.69,3.34,3.34,0,0,1-1.32.25,3.42,3.42,0,0,1-1.33-.25,3.1,3.1,0,0,1-1-.69,3.27,3.27,0,0,1-.68-1.06A3.68,3.68,0,0,1,158.89,362.63Zm.81,0a3,3,0,0,0,.17,1,2.37,2.37,0,0,0,.49.83,2.51,2.51,0,0,0,.79.56,2.63,2.63,0,0,0,2.06,0,2.36,2.36,0,0,0,.78-.56,2.25,2.25,0,0,0,.5-.83,3,3,0,0,0,.17-1,3.06,3.06,0,0,0-.17-1,2.33,2.33,0,0,0-.5-.83,2.2,2.2,0,0,0-.78-.55,2.63,2.63,0,0,0-2.06,0,2.34,2.34,0,0,0-.79.55,2.47,2.47,0,0,0-.49.83A3.06,3.06,0,0,0,159.7,362.63Z"/>
        <path class="cls-4" d="M175.67,363.14c0,.31,0,.59,0,.84s0,.48,0,.69,0,.41,0,.59l.06.55H175a5.41,5.41,0,0,1-.09-1h0a2.34,2.34,0,0,1-.88.91,2.69,2.69,0,0,1-1.32.29,3.13,3.13,0,0,1-.8-.1,2.15,2.15,0,0,1-.7-.33,1.74,1.74,0,0,1-.71-1.46,1.73,1.73,0,0,1,.37-1.15,2.27,2.27,0,0,1,.9-.65,4.31,4.31,0,0,1,1.14-.27c.4,0,.76-.06,1.06-.06h.95v-.39a1.36,1.36,0,0,0-.5-1.18,2.09,2.09,0,0,0-1.26-.36,2.86,2.86,0,0,0-1.91.71l-.47-.56a2.8,2.8,0,0,1,1.11-.67,3.93,3.93,0,0,1,1.27-.23,2.81,2.81,0,0,1,1.81.55,2.1,2.1,0,0,1,.68,1.76Zm-1.62-.52a6.45,6.45,0,0,0-1,.07,3.26,3.26,0,0,0-.87.23,1.65,1.65,0,0,0-.61.44,1,1,0,0,0-.23.69,1,1,0,0,0,.13.52,1.06,1.06,0,0,0,.33.37,1.35,1.35,0,0,0,.45.22,1.81,1.81,0,0,0,.51.08,2.55,2.55,0,0,0,1.07-.2,1.82,1.82,0,0,0,.67-.5,1.85,1.85,0,0,0,.35-.7,3.55,3.55,0,0,0,.09-.79v-.43Z"/>
        <path class="cls-4" d="M177.84,361.24c0-.12,0-.26,0-.43s0-.34,0-.52,0-.34,0-.49,0-.27,0-.35h.82c0,.24,0,.47,0,.69a1.91,1.91,0,0,0,0,.43h0a2.24,2.24,0,0,1,.81-.91,2.38,2.38,0,0,1,1.33-.38,2.54,2.54,0,0,1,1.19.24,2,2,0,0,1,.73.61,2.37,2.37,0,0,1,.36.88,4.9,4.9,0,0,1,.1,1v3.78h-.81v-3.74a4.56,4.56,0,0,0-.06-.75,2.25,2.25,0,0,0-.24-.66,1.33,1.33,0,0,0-.48-.46,1.62,1.62,0,0,0-.79-.17,2.22,2.22,0,0,0-.85.16,1.8,1.8,0,0,0-.69.48,2.64,2.64,0,0,0-.46.81,3.62,3.62,0,0,0-.17,1.15v3.18h-.81Z"/>
        <path class="cls-4" d="M185.39,364.19a1.74,1.74,0,0,0,.76.78,2.16,2.16,0,0,0,1,.27,1.63,1.63,0,0,0,.52-.09,1.53,1.53,0,0,0,.46-.23,1.31,1.31,0,0,0,.33-.37,1,1,0,0,0,.13-.48.82.82,0,0,0-.28-.67,2.17,2.17,0,0,0-.68-.34,8.59,8.59,0,0,0-.9-.21,4,4,0,0,1-.89-.28,2,2,0,0,1-.69-.52,1.43,1.43,0,0,1-.27-.93,1.66,1.66,0,0,1,.19-.82,1.69,1.69,0,0,1,.49-.57,2,2,0,0,1,.68-.33,2.59,2.59,0,0,1,.78-.12,2.9,2.9,0,0,1,1.33.29,2,2,0,0,1,.87.91l-.73.44a1.69,1.69,0,0,0-.57-.66,1.62,1.62,0,0,0-.9-.23,1.51,1.51,0,0,0-.46.07,1.35,1.35,0,0,0-.42.19,1,1,0,0,0-.32.32.74.74,0,0,0-.13.44.73.73,0,0,0,.28.63,2.05,2.05,0,0,0,.68.33c.27.07.57.14.89.2a3.5,3.5,0,0,1,.9.26,1.9,1.9,0,0,1,.68.54,1.55,1.55,0,0,1,.28,1,1.91,1.91,0,0,1-.18.86,1.75,1.75,0,0,1-.5.61,2.42,2.42,0,0,1-.73.38,3,3,0,0,1-.85.12,3.49,3.49,0,0,1-1.49-.32,2.22,2.22,0,0,1-1-1Z"/>
        <path class="cls-4" d="M190.26,359.45h.9l1.51,5.33h0l1.75-5.33h.77l1.86,5.33h0l1.47-5.33h.81l-1.84,6.36h-.84l-1.87-5.2h0l-1.75,5.2h-.84Z"/>
        <path class="cls-4" d="M206.21,364.62a2.82,2.82,0,0,1-1.17,1,3.72,3.72,0,0,1-1.54.32,3.21,3.21,0,0,1-1.3-.25,2.93,2.93,0,0,1-1-.69,3.19,3.19,0,0,1-.65-1.06,4,4,0,0,1-.22-1.36,3.73,3.73,0,0,1,.23-1.32,3.09,3.09,0,0,1,.65-1.06,3,3,0,0,1,1-.7,3.05,3.05,0,0,1,1.26-.26,2.87,2.87,0,0,1,2.19.93,3.07,3.07,0,0,1,.56,1,3.42,3.42,0,0,1,.19,1.09v.58h-5.26a3.39,3.39,0,0,0,.1.67,2.49,2.49,0,0,0,.38.79,2.3,2.3,0,0,0,.72.66,2.25,2.25,0,0,0,1.17.28,2.62,2.62,0,0,0,1.21-.31,2.15,2.15,0,0,0,.89-.82Zm-.62-2.52a1.91,1.91,0,0,0-.17-.8,2.37,2.37,0,0,0-.46-.66,2.21,2.21,0,0,0-.7-.45,2.36,2.36,0,0,0-1.95.11,2.51,2.51,0,0,0-.69.64,2.34,2.34,0,0,0-.37.69,2,2,0,0,0-.11.47Z"/>
        <path class="cls-4" d="M208.21,361.24c0-.12,0-.26,0-.43s0-.34,0-.52,0-.34,0-.49,0-.27,0-.35H209c0,.24,0,.47,0,.69a1.91,1.91,0,0,0,0,.43,2.9,2.9,0,0,1,.8-.93,2,2,0,0,1,1.19-.36.93.93,0,0,1,.24,0l.24,0-.1.82a.85.85,0,0,0-.31-.06,2.27,2.27,0,0,0-.91.17,1.83,1.83,0,0,0-.64.48,1.93,1.93,0,0,0-.37.71,3,3,0,0,0-.12.87v3.47h-.82Z"/>
      </g>
      <g>
        <path class="cls-4" d="M407.33,247h.92l2.09,5.46,2-5.46h.83l-2.47,6.36h-.84Z"/>
        <path class="cls-4" d="M420,252.13a2.67,2.67,0,0,1-1.17,1.05,3.69,3.69,0,0,1-1.54.31,3.42,3.42,0,0,1-1.3-.24,3,3,0,0,1-1.64-1.76,3.92,3.92,0,0,1-.23-1.36,3.81,3.81,0,0,1,.23-1.32,3.32,3.32,0,0,1,.65-1.05,3,3,0,0,1,1-.71,3.22,3.22,0,0,1,1.26-.25,3.16,3.16,0,0,1,1.27.25,2.76,2.76,0,0,1,.92.68,2.73,2.73,0,0,1,.56,1,3.17,3.17,0,0,1,.19,1.09v.57H415a2.71,2.71,0,0,0,.1.67,2.37,2.37,0,0,0,.37.79,2.23,2.23,0,0,0,.73.66,2.16,2.16,0,0,0,1.17.28,2.6,2.6,0,0,0,1.2-.3,2.19,2.19,0,0,0,.9-.83Zm-.62-2.52a2,2,0,0,0-.17-.8,2.13,2.13,0,0,0-.46-.65,2.06,2.06,0,0,0-.69-.45,2.22,2.22,0,0,0-.85-.17,2.06,2.06,0,0,0-1.1.28,2.39,2.39,0,0,0-.7.63,2.8,2.8,0,0,0-.37.7,1.81,1.81,0,0,0-.1.46Z"/>
        <path class="cls-4" d="M422,248.76c0-.12,0-.27,0-.44s0-.34,0-.51,0-.34,0-.49,0-.27,0-.35h.81c0,.23,0,.46,0,.68a2.32,2.32,0,0,0,0,.43,2.75,2.75,0,0,1,.8-.92,1.93,1.93,0,0,1,1.19-.36l.24,0,.23.05-.09.81a1.18,1.18,0,0,0-.31-.05,2.16,2.16,0,0,0-.92.17,1.58,1.58,0,0,0-.63.47,2,2,0,0,0-.38.71,3.12,3.12,0,0,0-.12.88v3.47H422Z"/>
        <path class="cls-4" d="M428.29,255.3a2.39,2.39,0,0,1-.64,1,1.61,1.61,0,0,1-1.08.35,2.83,2.83,0,0,1-.41,0l-.39-.09.08-.77.36.1a1.57,1.57,0,0,0,.37,0,.71.71,0,0,0,.39-.1,1,1,0,0,0,.29-.24,1.94,1.94,0,0,0,.21-.34c.06-.12.11-.25.16-.38l.57-1.47L425.65,247h.91l2.07,5.35,2-5.35h.86Z"/>
        <path class="cls-4" d="M436.15,247H437v1.11h0a2,2,0,0,1,.47-.57,3.12,3.12,0,0,1,.62-.4,2.74,2.74,0,0,1,.7-.23,3.51,3.51,0,0,1,.71-.08,3.42,3.42,0,0,1,1.33.25,3.2,3.2,0,0,1,1,.69,3.27,3.27,0,0,1,.68,1.06,3.74,3.74,0,0,1,0,2.69,3.16,3.16,0,0,1-.68,1.06,3.23,3.23,0,0,1-1,.7,3.61,3.61,0,0,1-1.33.24,3.49,3.49,0,0,1-.71-.07,2.76,2.76,0,0,1-.7-.24,2.43,2.43,0,0,1-.62-.4,2,2,0,0,1-.47-.57h0v4.26h-.81Zm.73,3.18a2.57,2.57,0,0,0,.76,1.84,2.57,2.57,0,0,0,.82.55,2.53,2.53,0,0,0,1,.21,2.43,2.43,0,0,0,1-.21,2.34,2.34,0,0,0,.79-.55,2.31,2.31,0,0,0,.49-.83,2.82,2.82,0,0,0,.17-1,2.88,2.88,0,0,0-.17-1,2.27,2.27,0,0,0-.49-.82,2.36,2.36,0,0,0-.79-.56,2.43,2.43,0,0,0-1-.21,2.53,2.53,0,0,0-1,.21,2.68,2.68,0,0,0-1.38,1.38A2.69,2.69,0,0,0,436.88,250.15Z"/>
        <path class="cls-4" d="M444.6,248.76c0-.12,0-.27,0-.44s0-.34,0-.51,0-.34,0-.49,0-.27,0-.35h.82c0,.23,0,.46,0,.68a1.85,1.85,0,0,0,0,.43,2.75,2.75,0,0,1,.8-.92,2,2,0,0,1,1.19-.36l.24,0,.24.05-.1.81a1.18,1.18,0,0,0-.31-.05,2.11,2.11,0,0,0-.91.17,1.69,1.69,0,0,0-.64.47,2,2,0,0,0-.37.71,2.8,2.8,0,0,0-.13.88v3.47h-.81Z"/>
        <path class="cls-4" d="M448.52,250.15a3.68,3.68,0,0,1,.24-1.35,3.27,3.27,0,0,1,.68-1.06,3,3,0,0,1,1-.69,3.42,3.42,0,0,1,1.33-.25,3.34,3.34,0,0,1,1.32.25,3.1,3.1,0,0,1,1,.69,3.29,3.29,0,0,1,.69,1.06,3.89,3.89,0,0,1,0,2.69,3.19,3.19,0,0,1-.69,1.06,3.13,3.13,0,0,1-1,.7,3.52,3.52,0,0,1-1.32.24,3.61,3.61,0,0,1-1.33-.24,3,3,0,0,1-1-.7,3.16,3.16,0,0,1-.68-1.06A3.67,3.67,0,0,1,448.52,250.15Zm.81,0a3.06,3.06,0,0,0,.17,1,2.47,2.47,0,0,0,.49.83,2.34,2.34,0,0,0,.79.55,2.63,2.63,0,0,0,2.06,0,2.2,2.2,0,0,0,.78-.55,2.33,2.33,0,0,0,.5-.83,3.06,3.06,0,0,0,.17-1,3.12,3.12,0,0,0-.17-1,2.29,2.29,0,0,0-.5-.82,2.23,2.23,0,0,0-.78-.56,2.63,2.63,0,0,0-2.06,0,2.36,2.36,0,0,0-.79.56,2.42,2.42,0,0,0-.49.82A3.12,3.12,0,0,0,449.33,250.15Z"/>
        <path class="cls-4" d="M462.21,251.54c0,.12,0,.26,0,.43s0,.34,0,.52,0,.34,0,.49,0,.27,0,.35h-.81c0-.24,0-.47,0-.69a2.44,2.44,0,0,0,0-.43h0a2.24,2.24,0,0,1-.81.91,2.35,2.35,0,0,1-1.33.37,2.62,2.62,0,0,1-1.2-.23,2,2,0,0,1-.73-.61,2.55,2.55,0,0,1-.36-.88,5.69,5.69,0,0,1-.09-1V247h.81v3.74a3.67,3.67,0,0,0,.07.75,1.8,1.8,0,0,0,.24.66,1.3,1.3,0,0,0,.47.46,1.65,1.65,0,0,0,.79.17,2.22,2.22,0,0,0,.85-.16,1.66,1.66,0,0,0,.69-.48,2.45,2.45,0,0,0,.46-.81,3.62,3.62,0,0,0,.17-1.15V247h.81Z"/>
        <path class="cls-4" d="M469.92,252.21h0a2,2,0,0,1-.47.57,2.43,2.43,0,0,1-.62.4,2.82,2.82,0,0,1-.69.24,3.65,3.65,0,0,1-.72.07,3.61,3.61,0,0,1-1.33-.24,3,3,0,0,1-1-.7,3.16,3.16,0,0,1-.68-1.06,3.89,3.89,0,0,1,0-2.69,3.27,3.27,0,0,1,.68-1.06,3,3,0,0,1,1-.69,3.42,3.42,0,0,1,1.33-.25,3.69,3.69,0,0,1,.72.08,2.8,2.8,0,0,1,.69.23,3.12,3.12,0,0,1,.62.4,2,2,0,0,1,.47.57h0v-5.16h.81v10.41h-.81Zm.08-2.06a2.69,2.69,0,0,0-.2-1,2.68,2.68,0,0,0-1.38-1.38,2.53,2.53,0,0,0-1-.21,2.43,2.43,0,0,0-1,.21,2.36,2.36,0,0,0-.79.56,2.42,2.42,0,0,0-.49.82,2.88,2.88,0,0,0-.17,1,2.82,2.82,0,0,0,.17,1,2.47,2.47,0,0,0,.49.83,2.34,2.34,0,0,0,.79.55,2.43,2.43,0,0,0,1,.21,2.53,2.53,0,0,0,1-.21,2.57,2.57,0,0,0,.82-.55,2.57,2.57,0,0,0,.76-1.84Z"/>
      </g>
      <g>
        <path class="cls-4" d="M241.17,468h5.06a6,6,0,0,1,2.28.38,4,4,0,0,1,1.41,1,3.23,3.23,0,0,1,.72,1.32,5.14,5.14,0,0,1,0,2.84,3.3,3.3,0,0,1-.72,1.32,4,4,0,0,1-1.41,1,6,6,0,0,1-2.28.38h-3.11v6.45h-2Zm2,6.45h2.56a7.08,7.08,0,0,0,1.13-.1,3,3,0,0,0,1-.34,1.84,1.84,0,0,0,.7-.71,2.95,2.95,0,0,0,0-2.42,1.84,1.84,0,0,0-.7-.71,3,3,0,0,0-1-.34,7.08,7.08,0,0,0-1.13-.1h-2.56Z"/>
        <path class="cls-4" d="M253.22,468h9.29v1.86h-7.34v4.36H262v1.86h-6.83v4.69h7.7v1.86h-9.65Z"/>
        <path class="cls-4" d="M265.64,468h5.06a5.87,5.87,0,0,1,2.27.38,4,4,0,0,1,1.42,1,3.49,3.49,0,0,1,.72,1.32,5.58,5.58,0,0,1,.2,1.42,3.84,3.84,0,0,1-.24,1.35,4,4,0,0,1-.7,1.18,4.11,4.11,0,0,1-1.12.89,3.76,3.76,0,0,1-1.48.44l4.09,6.68h-2.44l-3.66-6.45h-2.17v6.45h-1.95Zm1.95,6.45h2.56a7.19,7.19,0,0,0,1.13-.1,2.83,2.83,0,0,0,1-.34,1.77,1.77,0,0,0,.7-.71,2.85,2.85,0,0,0,0-2.42,1.77,1.77,0,0,0-.7-.71,2.83,2.83,0,0,0-1-.34,7.19,7.19,0,0,0-1.13-.1h-2.56Z"/>
        <path class="cls-4" d="M288.07,471.2a4.05,4.05,0,0,0-1.54-1.24,4.55,4.55,0,0,0-1.93-.43,5.11,5.11,0,0,0-2.21.46,5.19,5.19,0,0,0-1.69,1.27,5.86,5.86,0,0,0-1.08,1.89,6.86,6.86,0,0,0-.39,2.33,6.38,6.38,0,0,0,.37,2.19,5.49,5.49,0,0,0,1,1.82,5.08,5.08,0,0,0,1.69,1.23,5.28,5.28,0,0,0,2.26.46,4.36,4.36,0,0,0,2.17-.52,4.73,4.73,0,0,0,1.59-1.44l1.64,1.26a7,7,0,0,1-.57.65,5.86,5.86,0,0,1-1.07.84,7.17,7.17,0,0,1-1.62.75,6.9,6.9,0,0,1-2.18.32,7,7,0,0,1-3.08-.66,7.31,7.31,0,0,1-2.34-1.74,7.53,7.53,0,0,1-1.47-2.43,7.67,7.67,0,0,1-.51-2.73,8.58,8.58,0,0,1,.55-3.13,7.2,7.2,0,0,1,1.53-2.48,6.76,6.76,0,0,1,2.37-1.62,7.75,7.75,0,0,1,3.05-.58,7.17,7.17,0,0,1,2.79.56,5.18,5.18,0,0,1,2.25,1.71Z"/>
        <path class="cls-4" d="M292.36,468h9.29v1.86h-7.34v4.36h6.83v1.86h-6.83v4.69H302v1.86h-9.65Z"/>
        <path class="cls-4" d="M304.78,468h2.56l7.92,12h0V468h1.95v14.63h-2.48l-8-12h0v12h-2Z"/>
        <path class="cls-4" d="M324,469.9h-4.63V468h11.21v1.86h-4.63v12.77h-2Z"/>
        <path class="cls-4" d="M335.26,468H337l6.15,14.63h-2.27l-1.45-3.62h-6.84l-1.43,3.62h-2.27Zm3.49,9.28-2.68-6.72h0l-2.72,6.72Z"/>
        <path class="cls-4" d="M357.3,474.49v7.21a6.25,6.25,0,0,1-1.19.57,12,12,0,0,1-1.4.43,14.39,14.39,0,0,1-1.46.26,13.9,13.9,0,0,1-1.39.08,8.17,8.17,0,0,1-3.26-.62,7,7,0,0,1-3.92-4.12,8.29,8.29,0,0,1-.52-2.95,8,8,0,0,1,.56-3,7.4,7.4,0,0,1,1.54-2.44,7,7,0,0,1,2.37-1.62,7.51,7.51,0,0,1,3-.59,9,9,0,0,1,3.25.5,6,6,0,0,1,2.11,1.4l-1.38,1.51a5.05,5.05,0,0,0-1.89-1.21,6.36,6.36,0,0,0-2.09-.34,5.22,5.22,0,0,0-2.24.46,5.27,5.27,0,0,0-2.8,3.1,6.51,6.51,0,0,0-.39,2.26,6,6,0,0,0,.43,2.31,5.47,5.47,0,0,0,2.94,3.08,5.6,5.6,0,0,0,2.22.44,9.5,9.5,0,0,0,2-.2,5.25,5.25,0,0,0,1.57-.57v-4.07h-3.19v-1.85Z"/>
        <path class="cls-4" d="M360.86,468h9.29v1.86h-7.34v4.36h6.83v1.86h-6.83v4.69h7.7v1.86h-9.65Z"/>
      </g>
      <g>
        <path class="cls-4" d="M492.7,251.27h-4.15v-1l3.84-6.38h1.12v6.61H495v.75h-1.47v2.39h-.81Zm0-6.45h0l-3.38,5.7h3.41Z"/>
        <path class="cls-4" d="M499.74,251.27H495.6v-1l3.83-6.38h1.13v6.61H502v.75h-1.46v2.39h-.82Zm0-6.45h0l-3.39,5.7h3.41Z"/>
        <path class="cls-4" d="M502.85,246.12a2.41,2.41,0,0,1,.18-.93,2.52,2.52,0,0,1,.5-.75,2.57,2.57,0,0,1,.74-.51,2.27,2.27,0,0,1,.91-.18,2.23,2.23,0,0,1,.9.18,2.45,2.45,0,0,1,1.25,1.26,2.41,2.41,0,0,1,.18.93,2.36,2.36,0,0,1-.18.92,2.56,2.56,0,0,1-.51.75,2.39,2.39,0,0,1-.74.51,2.23,2.23,0,0,1-.9.19,2.28,2.28,0,0,1-.91-.19,2.39,2.39,0,0,1-.74-.51,2.52,2.52,0,0,1-.5-.75A2.36,2.36,0,0,1,502.85,246.12Zm.73,0a1.53,1.53,0,0,0,.13.64,1.63,1.63,0,0,0,.34.51,1.78,1.78,0,0,0,.51.35,1.64,1.64,0,0,0,1.23,0,1.54,1.54,0,0,0,.51-.35,1.65,1.65,0,0,0,.35-.51,1.7,1.7,0,0,0,.13-.64,1.66,1.66,0,0,0-.13-.64,1.7,1.7,0,0,0-.35-.52,1.54,1.54,0,0,0-.51-.35,1.64,1.64,0,0,0-1.23,0,1.78,1.78,0,0,0-.51.35,1.67,1.67,0,0,0-.34.52A1.5,1.5,0,0,0,503.58,246.12Zm7.07-2.68.62.39-6.19,10.3-.61-.38Zm-2.45,8a2.32,2.32,0,0,1,.18-.92,2.29,2.29,0,0,1,.5-.75,2.23,2.23,0,0,1,.74-.51,2.12,2.12,0,0,1,.91-.19,2.15,2.15,0,0,1,.91.19,2.19,2.19,0,0,1,.73.51,2.35,2.35,0,0,1,0,3.34,2.19,2.19,0,0,1-.73.51,2.15,2.15,0,0,1-.91.19,2.12,2.12,0,0,1-.91-.19,2.23,2.23,0,0,1-.74-.51,2.29,2.29,0,0,1-.5-.75A2.32,2.32,0,0,1,508.2,251.46Zm.73,0a1.53,1.53,0,0,0,.13.64,1.7,1.7,0,0,0,.35.52,1.58,1.58,0,0,0,.5.34,1.64,1.64,0,0,0,.62.13,1.68,1.68,0,0,0,.62-.13,1.58,1.58,0,0,0,.5-.34,1.64,1.64,0,0,0,0-2.32,1.58,1.58,0,0,0-.5-.34,1.68,1.68,0,0,0-.62-.13,1.64,1.64,0,0,0-.62.13,1.58,1.58,0,0,0-.5.34,1.7,1.7,0,0,0-.35.52A1.53,1.53,0,0,0,508.93,251.46Z"/>
      </g>
      <g>
        <path class="cls-4" d="M231.78,357.22h0L230,358.67l-.5-.64,2.37-2h.69v9.75h-.81Z"/>
        <path class="cls-4" d="M237.56,360.36h0a1.56,1.56,0,0,1,.66-.31,3.06,3.06,0,0,1,.76-.1,2.86,2.86,0,0,1,1.18.23,2.91,2.91,0,0,1,.93.64,2.72,2.72,0,0,1,.61.95,3.25,3.25,0,0,1,0,2.4,2.77,2.77,0,0,1-.65,1,3.07,3.07,0,0,1-1,.62,3.51,3.51,0,0,1-2.5,0,3.07,3.07,0,0,1-1-.62,2.94,2.94,0,0,1-.66-1,3.05,3.05,0,0,1-.24-1.22,2.86,2.86,0,0,1,.09-.73,3.63,3.63,0,0,1,.21-.66c.09-.2.19-.4.29-.58s.2-.36.3-.52l2.6-4.4h1Zm1.25.3a2.13,2.13,0,0,0-.88.18,2.2,2.2,0,0,0-.71.49,2.11,2.11,0,0,0-.48.73,2.25,2.25,0,0,0-.18.89,2.52,2.52,0,0,0,.16.93,2.07,2.07,0,0,0,.46.72,2.15,2.15,0,0,0,.71.47,2.47,2.47,0,0,0,.92.17,2.42,2.42,0,0,0,.91-.17,2,2,0,0,0,.71-.47,1.93,1.93,0,0,0,.46-.72,2.52,2.52,0,0,0,.17-.93,2.25,2.25,0,0,0-.18-.89,2.44,2.44,0,0,0-.48-.73,2.14,2.14,0,0,0-.72-.49A2.12,2.12,0,0,0,238.81,360.66Z"/>
        <path class="cls-4" d="M242.85,358.27a2.41,2.41,0,0,1,.18-.93,2.52,2.52,0,0,1,.5-.75,2.57,2.57,0,0,1,.74-.51,2.37,2.37,0,0,1,1.81,0,2.57,2.57,0,0,1,.74.51,2.52,2.52,0,0,1,.5.75,2.24,2.24,0,0,1,.19.93,2.2,2.2,0,0,1-.19.92,2.52,2.52,0,0,1-.5.75,2.57,2.57,0,0,1-.74.51,2.37,2.37,0,0,1-1.81,0,2.57,2.57,0,0,1-.74-.51,2.52,2.52,0,0,1-.5-.75A2.36,2.36,0,0,1,242.85,358.27Zm.73,0a1.53,1.53,0,0,0,.13.64,1.63,1.63,0,0,0,.34.51,1.78,1.78,0,0,0,.51.35,1.64,1.64,0,0,0,1.23,0,1.54,1.54,0,0,0,.51-.35,1.65,1.65,0,0,0,.35-.51,1.69,1.69,0,0,0,.12-.64,1.66,1.66,0,0,0-.12-.64,1.7,1.7,0,0,0-.35-.52,1.54,1.54,0,0,0-.51-.35,1.64,1.64,0,0,0-1.23,0,1.78,1.78,0,0,0-.51.35,1.67,1.67,0,0,0-.34.52A1.5,1.5,0,0,0,243.58,358.27Zm7.07-2.68.62.39-6.19,10.3-.61-.38Zm-2.45,8a2.32,2.32,0,0,1,.18-.92,2.29,2.29,0,0,1,.5-.75,2.23,2.23,0,0,1,.74-.51,2.12,2.12,0,0,1,.91-.19,2.08,2.08,0,0,1,.9.19,2.23,2.23,0,0,1,.74.51,2.38,2.38,0,0,1,0,3.34,2.23,2.23,0,0,1-.74.51,2.08,2.08,0,0,1-.9.19,2.12,2.12,0,0,1-.91-.19,2.23,2.23,0,0,1-.74-.51,2.29,2.29,0,0,1-.5-.75A2.32,2.32,0,0,1,248.2,363.61Zm.73,0a1.53,1.53,0,0,0,.13.64,1.67,1.67,0,0,0,.34.52,1.75,1.75,0,0,0,.51.34,1.64,1.64,0,0,0,.62.13,1.59,1.59,0,0,0,.61-.13,1.52,1.52,0,0,0,.51-.34,1.64,1.64,0,0,0,0-2.32,1.52,1.52,0,0,0-.51-.34,1.59,1.59,0,0,0-.61-.13,1.64,1.64,0,0,0-.62.13,1.75,1.75,0,0,0-.51.34,1.67,1.67,0,0,0-.34.52A1.53,1.53,0,0,0,248.93,363.61Z"/>
      </g>
      <g>
        <path class="cls-4" d="M456.18,305.67H452v-1l3.83-6.38H457v6.61h1.47v.74H457v2.4h-.81Zm0-6.44h0l-3.38,5.7h3.41Z"/>
        <path class="cls-4" d="M459.12,303.19c0-.34,0-.71.05-1.1a8.61,8.61,0,0,1,.17-1.15,6.3,6.3,0,0,1,.36-1.06,3.56,3.56,0,0,1,.57-.89,2.75,2.75,0,0,1,.85-.61,3.09,3.09,0,0,1,2.34,0,2.75,2.75,0,0,1,.85.61,3.59,3.59,0,0,1,.58.89,7.31,7.31,0,0,1,.35,1.06,8.61,8.61,0,0,1,.17,1.15,10.72,10.72,0,0,1,0,1.1,10.85,10.85,0,0,1,0,1.12,8.7,8.7,0,0,1-.17,1.14,7.31,7.31,0,0,1-.35,1.06,3.59,3.59,0,0,1-.58.89,2.75,2.75,0,0,1-.85.61,3.09,3.09,0,0,1-2.34,0,2.75,2.75,0,0,1-.85-.61,3.56,3.56,0,0,1-.57-.89,6.3,6.3,0,0,1-.36-1.06,8.7,8.7,0,0,1-.17-1.14C459.14,303.92,459.12,303.55,459.12,303.19Zm.89,0c0,.26,0,.54,0,.85s.06.62.11.94a4.89,4.89,0,0,0,.24.93,3.15,3.15,0,0,0,.4.8,2,2,0,0,0,.62.57,1.93,1.93,0,0,0,1.75,0,1.91,1.91,0,0,0,.63-.57,3.15,3.15,0,0,0,.4-.8,4.89,4.89,0,0,0,.24-.93,7.75,7.75,0,0,0,.11-.94c0-.31,0-.59,0-.85s0-.52,0-.84a7.75,7.75,0,0,0-.11-.94,4.89,4.89,0,0,0-.24-.93,3.15,3.15,0,0,0-.4-.8,1.91,1.91,0,0,0-.63-.57,1.91,1.91,0,0,0-1.74,0,1.91,1.91,0,0,0-.63.57,3.15,3.15,0,0,0-.4.8,4.89,4.89,0,0,0-.24.93c0,.32-.09.63-.11.94S460,303,460,303.19Z"/>
        <path class="cls-4" d="M466.33,300.52a2.32,2.32,0,0,1,.18-.92,2.52,2.52,0,0,1,.5-.75,2.23,2.23,0,0,1,.74-.51,2.28,2.28,0,0,1,.91-.19,2.32,2.32,0,0,1,.91.19,2.19,2.19,0,0,1,.73.51,2.56,2.56,0,0,1,.51.75,2.32,2.32,0,0,1,.18.92,2.41,2.41,0,0,1-.18.93,2.56,2.56,0,0,1-.51.75,2.52,2.52,0,0,1-.73.51,2.31,2.31,0,0,1-.91.18,2.27,2.27,0,0,1-.91-.18,2.57,2.57,0,0,1-.74-.51,2.52,2.52,0,0,1-.5-.75A2.41,2.41,0,0,1,466.33,300.52Zm.73,0a1.5,1.5,0,0,0,.13.64,1.67,1.67,0,0,0,.34.52,1.57,1.57,0,0,0,.51.34,1.47,1.47,0,0,0,.62.13,1.42,1.42,0,0,0,.61-.13,1.39,1.39,0,0,0,.51-.34,1.7,1.7,0,0,0,.35-.52,1.66,1.66,0,0,0,.13-.64,1.7,1.7,0,0,0-.13-.64,1.54,1.54,0,0,0-.35-.51,1.41,1.41,0,0,0-.51-.35,1.58,1.58,0,0,0-.61-.12,1.63,1.63,0,0,0-.62.12,1.6,1.6,0,0,0-.51.35,1.64,1.64,0,0,0-.47,1.15Zm7.07-2.67.62.39-6.19,10.3-.61-.39Zm-2.45,8a2.41,2.41,0,0,1,.18-.93,2.52,2.52,0,0,1,.5-.75,2.71,2.71,0,0,1,.74-.51,2.27,2.27,0,0,1,.91-.18,2.31,2.31,0,0,1,.91.18,2.71,2.71,0,0,1,.74.51,2.52,2.52,0,0,1,.5.75,2.41,2.41,0,0,1,.18.93,2.32,2.32,0,0,1-.18.92,2.52,2.52,0,0,1-.5.75,2.31,2.31,0,0,1-1.65.7,2.28,2.28,0,0,1-.91-.19,2.33,2.33,0,0,1-.74-.51,2.52,2.52,0,0,1-.5-.75A2.32,2.32,0,0,1,471.68,305.87Zm.73,0a1.53,1.53,0,0,0,.13.64,1.65,1.65,0,0,0,.35.51,1.46,1.46,0,0,0,.5.35,1.66,1.66,0,0,0,1.24,0,1.46,1.46,0,0,0,.5-.35,1.65,1.65,0,0,0,.35-.51,1.53,1.53,0,0,0,.13-.64,1.5,1.5,0,0,0-.13-.64,1.7,1.7,0,0,0-.35-.52,1.43,1.43,0,0,0-.5-.34,1.54,1.54,0,0,0-1.24,0,1.43,1.43,0,0,0-.5.34,1.7,1.7,0,0,0-.35.52A1.5,1.5,0,0,0,472.41,305.87Z"/>
      </g>
      <g class="cls-9">
        <g class="cls-9">
          <path class="cls-4" d="M57.59,28.5h2.25l4.23,11.9h0L68.5,28.5h2.13L65,43.12H63.14Z"/>
          <path class="cls-4" d="M75.94,28.5h1.77l6.15,14.62H81.59l-1.45-3.61H73.3l-1.43,3.61H69.6Zm3.49,9.27-2.68-6.71h0L74,37.77Z"/>
          <path class="cls-4" d="M85.73,28.5h5.06a5.78,5.78,0,0,1,2.28.38,3.84,3.84,0,0,1,1.41,1,3.17,3.17,0,0,1,.72,1.32,5.14,5.14,0,0,1,.21,1.42,3.85,3.85,0,0,1-.25,1.35,3.73,3.73,0,0,1-.7,1.18,4,4,0,0,1-1.12.89,3.76,3.76,0,0,1-1.47.44L96,43.12H93.52l-3.66-6.44H87.68v6.44h-2Zm2,6.44h2.56a7.08,7.08,0,0,0,1.13-.09,3.11,3.11,0,0,0,1-.34,1.91,1.91,0,0,0,.7-.71,2.52,2.52,0,0,0,.26-1.21,2.5,2.5,0,0,0-.26-1.21,1.84,1.84,0,0,0-.7-.71,3.12,3.12,0,0,0-1-.35,7.08,7.08,0,0,0-1.13-.09H87.68Z"/>
          <path class="cls-4" d="M98.15,28.5h1.95V43.12H98.15Z"/>
          <path class="cls-4" d="M103.8,28.5h9.28v1.86h-7.33v4.36h6.83v1.85h-6.83v4.69h7.7v1.86H103.8Z"/>
          <path class="cls-4" d="M119.22,30.36h-4.63V28.5h11.22v1.86h-4.64V43.12h-2Z"/>
          <path class="cls-4" d="M131.27,36.88l-5.44-8.38h2.5l3.92,6.42,4-6.42h2.38l-5.45,8.38v6.24h-1.95Z"/>
          <path class="cls-4" d="M139.42,35.93a1.26,1.26,0,0,1-.94-.4,1.35,1.35,0,0,1,0-1.92,1.26,1.26,0,0,1,.94-.4,1.29,1.29,0,0,1,1,.4,1.38,1.38,0,0,1,0,1.92A1.29,1.29,0,0,1,139.42,35.93Zm-1.34,6a1.31,1.31,0,0,1,.4-1,1.26,1.26,0,0,1,.94-.4,1.29,1.29,0,0,1,1,.4,1.34,1.34,0,0,1,.39,1,1.37,1.37,0,0,1-1.34,1.37,1.38,1.38,0,0,1-1.34-1.37Z"/>
        </g>
        <g class="cls-9">
          <path class="cls-10" d="M161.85,28.5h1.73l8.76,12.81h0V28.5h1.34V43.12H172l-8.76-12.81h0V43.12h-1.34Z"/>
          <path class="cls-10" d="M182.07,28.5h1.38l6.06,14.62H188l-1.57-3.88h-7.62l-1.62,3.88h-1.41ZM182.7,30l-3.35,8H186Z"/>
          <path class="cls-10" d="M191.58,28.5h1.34V41.88h6.71v1.24h-8Z"/>
          <path class="cls-10" d="M201.74,28.5h4.15a10.37,10.37,0,0,1,1.65.13,3.94,3.94,0,0,1,1.49.56,3.17,3.17,0,0,1,1.08,1.18,4.18,4.18,0,0,1,.41,2,3,3,0,0,1-.65,1.94,3.2,3.2,0,0,1-1.93,1.1v0a3.61,3.61,0,0,1,1.3.34,3.16,3.16,0,0,1,1.68,1.85,4.19,4.19,0,0,1,.23,1.4,4,4,0,0,1-.48,2.06,3.58,3.58,0,0,1-1.19,1.25,4.73,4.73,0,0,1-1.57.62,8.2,8.2,0,0,1-1.57.16h-4.6Zm1.34,6.32h2.79a4.72,4.72,0,0,0,1.69-.26,2.82,2.82,0,0,0,1-.63,1.8,1.8,0,0,0,.49-.8,3,3,0,0,0-.13-2,2.17,2.17,0,0,0-.68-.81,2.72,2.72,0,0,0-1-.42,5.81,5.81,0,0,0-1.2-.12h-3Zm0,7.06h3.07a5,5,0,0,0,1.9-.29,2.89,2.89,0,0,0,1.11-.72,2.25,2.25,0,0,0,.52-.92,3.23,3.23,0,0,0,.13-.88,3,3,0,0,0-.3-1.38,2.73,2.73,0,0,0-.8-.94,3.21,3.21,0,0,0-1.1-.53,4.87,4.87,0,0,0-1.25-.16h-3.28Z"/>
          <path class="cls-10" d="M219,28.5h1.38l6,14.62h-1.5l-1.56-3.88H215.7l-1.62,3.88h-1.4Zm.63,1.48-3.36,8h6.61Z"/>
          <path class="cls-10" d="M228.47,28.5h3.78c.19,0,.44,0,.77,0a7.17,7.17,0,0,1,1.06.12,6.69,6.69,0,0,1,1.15.33,3.15,3.15,0,0,1,1.06.66,3.44,3.44,0,0,1,.77,1.1,3.73,3.73,0,0,1,.31,1.61,3.67,3.67,0,0,1-.36,1.73,3.31,3.31,0,0,1-.89,1.11,3.89,3.89,0,0,1-1.19.63,8.13,8.13,0,0,1-1.24.29l4.18,7h-1.52l-4-6.94h-2.5v6.94h-1.34Zm1.34,6.44h2.84a4.59,4.59,0,0,0,1.72-.27,3,3,0,0,0,1-.66,2,2,0,0,0,.49-.84,2.53,2.53,0,0,0,0-1.66,2,2,0,0,0-.49-.84,2.83,2.83,0,0,0-1-.67,4.83,4.83,0,0,0-1.72-.26h-2.84Z"/>
          <path class="cls-10" d="M240.52,28.5h1.34V43.12h-1.34Z"/>
          <path class="cls-10" d="M249,36.82l-5.28-8.32h1.6l4.35,6.94,4.45-6.94h1.5l-5.28,8.32v6.3H249Z"/>
          <path class="cls-10" d="M260.37,28.5h1.38l6.06,14.62H266.3l-1.56-3.88h-7.62l-1.63,3.88h-1.4ZM261,30l-3.35,8h6.6Z"/>
        </g>
        <g class="cls-9">
          <path class="cls-4" d="M59.56,61.78h5.06a6,6,0,0,1,2.28.38,3.94,3.94,0,0,1,1.41,1A3.41,3.41,0,0,1,69,64.46a5.11,5.11,0,0,1,0,2.83,3.41,3.41,0,0,1-.72,1.32,3.92,3.92,0,0,1-1.41,1,5.78,5.78,0,0,1-2.28.38H61.51v6.45H59.56Zm1.95,6.45h2.56a6.09,6.09,0,0,0,1.13-.1,2.83,2.83,0,0,0,1-.34,1.8,1.8,0,0,0,.71-.71,2.5,2.5,0,0,0,.26-1.21,2.52,2.52,0,0,0-.26-1.21,1.86,1.86,0,0,0-.71-.71,3,3,0,0,0-1-.34,7.08,7.08,0,0,0-1.13-.09H61.51Z"/>
          <path class="cls-4" d="M78.21,76.78a7.5,7.5,0,0,1-3-.59,6.85,6.85,0,0,1-2.37-1.62,7.59,7.59,0,0,1-1.55-2.44,8.5,8.5,0,0,1,0-6.07,7.59,7.59,0,0,1,1.55-2.44A6.85,6.85,0,0,1,75.19,62a8,8,0,0,1,6,0,7,7,0,0,1,2.37,1.62,7.4,7.4,0,0,1,1.54,2.44,8.5,8.5,0,0,1,0,6.07,7.4,7.4,0,0,1-1.54,2.44,7,7,0,0,1-2.37,1.62A7.51,7.51,0,0,1,78.21,76.78Zm0-1.86a5.22,5.22,0,0,0,2.24-.46,5.27,5.27,0,0,0,2.8-3.1,6.77,6.77,0,0,0,0-4.53,5.27,5.27,0,0,0-2.8-3.1A5.34,5.34,0,0,0,74.27,65a5.72,5.72,0,0,0-1.1,1.85,6.94,6.94,0,0,0,0,4.53,5.72,5.72,0,0,0,1.1,1.85,5.18,5.18,0,0,0,3.94,1.71Z"/>
          <path class="cls-4" d="M88.52,61.78h5.06a5.87,5.87,0,0,1,2.27.38,3.77,3.77,0,0,1,1.41,1A3.31,3.31,0,0,1,98,64.46a5.11,5.11,0,0,1,0,2.83,3.31,3.31,0,0,1-.73,1.32,3.75,3.75,0,0,1-1.41,1,5.69,5.69,0,0,1-2.27.38H90.47v6.45h-2Zm2,6.45H93a6.17,6.17,0,0,0,1.13-.1,2.83,2.83,0,0,0,1-.34,1.77,1.77,0,0,0,.7-.71,2.38,2.38,0,0,0,.27-1.21,2.41,2.41,0,0,0-.27-1.21,1.84,1.84,0,0,0-.7-.71,3,3,0,0,0-1-.34A7.17,7.17,0,0,0,93,63.52H90.47Z"/>
          <path class="cls-4" d="M102.25,61.78v9a5.48,5.48,0,0,0,.19,1.41,4.06,4.06,0,0,0,.61,1.36,3.28,3.28,0,0,0,1.11,1,3.47,3.47,0,0,0,4.54-1,4.51,4.51,0,0,0,.61-1.36,5.93,5.93,0,0,0,.18-1.41v-9h2v9.28a6,6,0,0,1-.43,2.32,5.46,5.46,0,0,1-1.18,1.81,5.29,5.29,0,0,1-1.76,1.18,5.9,5.9,0,0,1-2.2.41,5.81,5.81,0,0,1-2.19-.41,5.23,5.23,0,0,1-1.77-1.18,5.46,5.46,0,0,1-1.18-1.81,6.15,6.15,0,0,1-.43-2.32V61.78Z"/>
          <path class="cls-4" d="M114.87,61.78h1.95V74.55h6.61v1.86h-8.56Z"/>
          <path class="cls-4" d="M129.93,61.78h1.77l6.16,14.63h-2.28l-1.44-3.62h-6.85l-1.42,3.62h-2.28Zm3.5,9.28-2.69-6.72h0L128,71.06Z"/>
          <path class="cls-4" d="M139.73,61.78h5.06a5.87,5.87,0,0,1,2.27.38,3.77,3.77,0,0,1,1.41,1,3.31,3.31,0,0,1,.73,1.32,5.51,5.51,0,0,1,.2,1.41,3.92,3.92,0,0,1-3.54,3.87L150,76.41h-2.44L143.85,70h-2.17v6.45h-2Zm2,6.45h2.56a6.17,6.17,0,0,0,1.13-.1,2.83,2.83,0,0,0,1-.34,1.77,1.77,0,0,0,.7-.71,2.38,2.38,0,0,0,.27-1.21,2.41,2.41,0,0,0-.27-1.21,1.84,1.84,0,0,0-.7-.71,3,3,0,0,0-1-.34,7.17,7.17,0,0,0-1.13-.09h-2.56Z"/>
          <path class="cls-4" d="M152.14,61.78h2V76.41h-2Z"/>
          <path class="cls-4" d="M160.8,63.64h-4.63V61.78h11.21v1.86h-4.63V76.41H160.8Z"/>
          <path class="cls-4" d="M172.85,70.17l-5.45-8.39h2.5l3.93,6.43,4-6.43h2.38l-5.45,8.39v6.24h-2Z"/>
          <path class="cls-4" d="M181,69.22a1.29,1.29,0,0,1-.95-.4,1.34,1.34,0,0,1-.39-1A1.37,1.37,0,0,1,181,66.49a1.38,1.38,0,0,1,1.34,1.37,1.31,1.31,0,0,1-.4,1A1.26,1.26,0,0,1,181,69.22Zm-1.34,6a1.34,1.34,0,0,1,.39-1,1.29,1.29,0,0,1,.95-.4,1.26,1.26,0,0,1,.94.4,1.35,1.35,0,0,1,0,1.92,1.26,1.26,0,0,1-.94.4,1.29,1.29,0,0,1-.95-.4A1.34,1.34,0,0,1,179.66,75.17Z"/>
        </g>
        <g class="cls-9">
          <path class="cls-4" d="M204.35,73.35A3.77,3.77,0,0,0,205.46,75a2.93,2.93,0,0,0,1.92.57,3.64,3.64,0,0,0,1.4-.25,2.65,2.65,0,0,0,1-.68,2.72,2.72,0,0,0,.6-1,3.63,3.63,0,0,0,.21-1.24,2.62,2.62,0,0,0-.34-1.38,2.71,2.71,0,0,0-.87-.94,3.83,3.83,0,0,0-1.22-.53,5.84,5.84,0,0,0-1.37-.17h-.53V68.1h.61A4.6,4.6,0,0,0,208,68a3.06,3.06,0,0,0,1-.49,2.44,2.44,0,0,0,.74-.85,2.65,2.65,0,0,0,.29-1.27,2.71,2.71,0,0,0-.72-1.94,2.57,2.57,0,0,0-1.94-.75,2.88,2.88,0,0,0-1.61.46,3.3,3.3,0,0,0-1.12,1.25l-1.15-.66a3.73,3.73,0,0,1,1.61-1.65,5,5,0,0,1,2.27-.52,4.91,4.91,0,0,1,1.54.24,3.69,3.69,0,0,1,1.28.7,3.21,3.21,0,0,1,.87,1.17,4,4,0,0,1,.31,1.65,3.6,3.6,0,0,1-.65,2.12,3.28,3.28,0,0,1-1.91,1.27v0a3.68,3.68,0,0,1,1.25.47,4.11,4.11,0,0,1,1,.84,3.56,3.56,0,0,1,.62,1.11,3.86,3.86,0,0,1,.23,1.32,4.67,4.67,0,0,1-.28,1.64,3.6,3.6,0,0,1-.83,1.33,4,4,0,0,1-1.39.9,5.31,5.31,0,0,1-2,.33,5.21,5.21,0,0,1-2.76-.69A4.26,4.26,0,0,1,203,73.79Z"/>
          <path class="cls-4" d="M214.43,75.54a1,1,0,0,1,.28-.7,1,1,0,0,1,1.38,0,1,1,0,0,1,.29.7,1,1,0,0,1-.29.7,1,1,0,0,1-1.38,0A.94.94,0,0,1,214.43,75.54Z"/>
          <path class="cls-4" d="M227.05,62.9l-5.73,13.51H220l5.84-13.51h-6.91V61.78h8.17Z"/>
          <path class="cls-4" d="M237.61,62.9l-5.73,13.51h-1.36l5.83-13.51h-6.91V61.78h8.17Z"/>
          <path class="cls-4" d="M240,65.09a3.39,3.39,0,0,1,.28-1.39,3.55,3.55,0,0,1,.75-1.12,3.41,3.41,0,0,1,1.1-.77,3.47,3.47,0,0,1,2.73,0,3.41,3.41,0,0,1,1.1.77,3.76,3.76,0,0,1,.76,1.12,3.55,3.55,0,0,1,.27,1.39,3.5,3.5,0,0,1-.27,1.38,3.81,3.81,0,0,1-.76,1.13,3.39,3.39,0,0,1-1.1.76,3.47,3.47,0,0,1-2.73,0,3.39,3.39,0,0,1-1.1-.76,3.6,3.6,0,0,1-.75-1.13A3.34,3.34,0,0,1,240,65.09Zm1.1,0a2.38,2.38,0,0,0,.19,1,2.55,2.55,0,0,0,.52.77,2.34,2.34,0,0,0,.76.52,2.35,2.35,0,0,0,1.85,0,2.24,2.24,0,0,0,.76-.52,2.55,2.55,0,0,0,.52-.77,2.38,2.38,0,0,0,.19-1,2.32,2.32,0,0,0-.19-1,2.48,2.48,0,0,0-.52-.78,2.41,2.41,0,0,0-1.68-.7,2.24,2.24,0,0,0-.93.19,2.31,2.31,0,0,0-.76.51,2.48,2.48,0,0,0-.52.78A2.32,2.32,0,0,0,241.05,65.09Zm10.61-4,.93.58L243.3,77.11l-.91-.58ZM248,73.1a3.54,3.54,0,0,1,.27-1.38,4,4,0,0,1,.75-1.13,3.54,3.54,0,0,1,1.11-.76,3.28,3.28,0,0,1,1.36-.28,3.25,3.25,0,0,1,1.36.28,3.54,3.54,0,0,1,1.11.76,3.6,3.6,0,0,1,.75,1.13,3.57,3.57,0,0,1,0,2.77,3.44,3.44,0,0,1-.75,1.12,3.57,3.57,0,0,1-1.11.77,3.41,3.41,0,0,1-1.36.28,3.45,3.45,0,0,1-1.36-.28,3.57,3.57,0,0,1-1.11-.77,3.79,3.79,0,0,1-.75-1.12A3.55,3.55,0,0,1,248,73.1Zm1.1,0a2.32,2.32,0,0,0,.19,1,2.48,2.48,0,0,0,.52.78,2.41,2.41,0,0,0,2.61.52,2.51,2.51,0,0,0,.76-.52,2.48,2.48,0,0,0,.52-.78,2.32,2.32,0,0,0,.19-1,2.38,2.38,0,0,0-.19-1,2.55,2.55,0,0,0-.52-.77,2.51,2.51,0,0,0-.76-.52,2.36,2.36,0,0,0-2.61.52,2.55,2.55,0,0,0-.52.77A2.38,2.38,0,0,0,249.08,73.1Z"/>
        </g>
      </g>
    </g>
  </g>
</svg>
