<svg xmlns="http://www.w3.org/2000/svg" viewBox="0 0 599.02 514.27">
  <defs>
    <style>
      .cls-1 {
        fill: #191919;
      }

      .cls-2, .cls-6, .cls-7 {
        fill: none;
      }

      .cls-10, .cls-11, .cls-12, .cls-2, .cls-6, .cls-7, .cls-9 {
        stroke: #fff;
      }

      .cls-2, .cls-6 {
        stroke-miterlimit: 1.18;
      }

      .cls-2 {
        stroke-width: 0.75px;
      }

      .cls-3 {
        fill: #fff;
      }

      .cls-4 {
        isolation: isolate;
      }

      .cls-5 {
        fill: #4a5fb8;
      }

      .cls-6 {
        stroke-width: 0.25px;
      }

      .cls-10, .cls-11, .cls-12, .cls-7, .cls-8, .cls-9 {
        stroke-miterlimit: 10;
      }

      .cls-8 {
        fill: #585a5c;
        stroke: #000;
      }

      .cls-10, .cls-11, .cls-12, .cls-8, .cls-9 {
        stroke-width: 0.5px;
      }

      .cls-9 {
        fill: #6497b1;
      }

      .cls-10 {
        fill: #245b96;
      }

      .cls-11 {
        fill: #14396c;
      }

      .cls-12 {
        fill: #061f4b;
      }
    </style>
  </defs>
  <g id="Layer_2" data-name="Layer 2">
    <g id="VarietiesOutline">
      <g>
        <rect class="cls-1" x="0.38" y="0.38" width="598.27" height="513.52" rx="12"/>
        <rect class="cls-2" x="0.38" y="0.38" width="598.27" height="513.52" rx="12"/>
      </g>
      <g>
        <path class="cls-3" d="M32,362v-2H44.75v-6.71h1.86V362Z"/>
        <path class="cls-3" d="M32,351.22v-9.44h1.86v7.46H38.2V342.3h1.86v6.94h4.69v-7.83h1.86v9.81Z"/>
        <path class="cls-3" d="M32,340.6v-2.29l11.9-4.3v0L32,329.51v-2.17l14.63,5.76V335Z"/>
        <path class="cls-3" d="M32,325.58v-9.44h1.86v7.46H38.2v-6.94h1.86v6.94h4.69v-7.83h1.86v9.81Z"/>
        <path class="cls-3" d="M32,313v-2H44.75v-6.72h1.86V313Z"/>
        <path class="cls-3" d="M47,289.78a7.94,7.94,0,0,1-.59,3.08,7.11,7.11,0,0,1-1.62,2.41,7.64,7.64,0,0,1-2.44,1.57,8.37,8.37,0,0,1-6.07,0,7.64,7.64,0,0,1-2.44-1.57,7.11,7.11,0,0,1-1.62-2.41,8.33,8.33,0,0,1,0-6.16,7.07,7.07,0,0,1,1.62-2.4,7.31,7.31,0,0,1,2.44-1.57,8.37,8.37,0,0,1,6.07,0,7.31,7.31,0,0,1,2.44,1.57,7.07,7.07,0,0,1,1.62,2.4A8,8,0,0,1,47,289.78Zm-1.86,0a5.31,5.31,0,0,0-1.71-4,5.57,5.57,0,0,0-1.85-1.11,6.61,6.61,0,0,0-4.53,0,5.57,5.57,0,0,0-1.85,1.11,5.49,5.49,0,0,0-1.25,1.74,5.49,5.49,0,0,0,1.25,6.28A5.76,5.76,0,0,0,37,294.91a6.77,6.77,0,0,0,4.53,0,5.76,5.76,0,0,0,1.85-1.12,5.38,5.38,0,0,0,1.25-1.74A5.51,5.51,0,0,0,45.12,289.78Z"/>
        <path class="cls-3" d="M32,279.31v-9.2h1.86v7.21h4.59v-6.71h1.86v6.71h6.32v2Z"/>
        <path class="cls-3" d="M32,261.71v-5.15a6.06,6.06,0,0,1,.38-2.31,4,4,0,0,1,1-1.44,3.42,3.42,0,0,1,1.33-.73,5.07,5.07,0,0,1,1.41-.21,5.14,5.14,0,0,1,1.42.21,3.31,3.31,0,0,1,1.32.73,3.88,3.88,0,0,1,1,1.44,5.87,5.87,0,0,1,.38,2.31v3.16h6.45v2Zm6.45-2v-2.6a6.3,6.3,0,0,0-.1-1.15,2.94,2.94,0,0,0-.34-1,1.8,1.8,0,0,0-.71-.71,2.38,2.38,0,0,0-1.21-.27,2.41,2.41,0,0,0-1.21.27,1.8,1.8,0,0,0-.71.71,2.94,2.94,0,0,0-.34,1,7.33,7.33,0,0,0-.09,1.15v2.6Z"/>
        <path class="cls-3" d="M32,249.45v-5.14a6.06,6.06,0,0,1,.38-2.31,4,4,0,0,1,1-1.44,3.29,3.29,0,0,1,1.33-.73,5.07,5.07,0,0,1,1.41-.21,3.86,3.86,0,0,1,2.53,1,4.06,4.06,0,0,1,.89,1.14,3.81,3.81,0,0,1,.44,1.5l6.68-4.16v2.48l-6.45,3.72v2.21h6.45v2Zm6.45-2v-2.6a6.3,6.3,0,0,0-.1-1.15,2.94,2.94,0,0,0-.34-1,1.8,1.8,0,0,0-.71-.71,2.38,2.38,0,0,0-1.21-.27,2.41,2.41,0,0,0-1.21.27,1.8,1.8,0,0,0-.71.71,2.94,2.94,0,0,0-.34,1,7.33,7.33,0,0,0-.09,1.15v2.6Z"/>
        <path class="cls-3" d="M32,236.83v-2H46.61v2Z"/>
        <path class="cls-3" d="M32,231.42v-5.1a9.61,9.61,0,0,1,.35-2.72,7.61,7.61,0,0,1,.94-2,6.11,6.11,0,0,1,1.35-1.42,7.19,7.19,0,0,1,1.58-.9,7.37,7.37,0,0,1,1.61-.47,8.07,8.07,0,0,1,1.48-.15,7.23,7.23,0,0,1,2.72.52,6.78,6.78,0,0,1,2.34,1.53A7.59,7.59,0,0,1,46,223.19a9,9,0,0,1,.62,3.46v4.77Zm12.77-2v-2.5a8.47,8.47,0,0,0-.34-2.39,5.7,5.7,0,0,0-1-2,4.81,4.81,0,0,0-1.7-1.35,5.43,5.43,0,0,0-2.39-.49,7.21,7.21,0,0,0-1.64.22,5.05,5.05,0,0,0-1.78.86,5,5,0,0,0-1.44,1.75,6.21,6.21,0,0,0-.59,2.89v3Z"/>
        <path class="cls-3" d="M32,215.78v-9.44h1.86v7.46H38.2v-7h1.86v7h4.69V206h1.86v9.81Z"/>
      </g>
      <g>
        <path class="cls-3" d="M86.16,336.68a1.85,1.85,0,0,0,.76.78,2.23,2.23,0,0,0,1.06.27,1.93,1.93,0,0,0,.52-.08,1.39,1.39,0,0,0,.45-.24,1.29,1.29,0,0,0,.34-.36,1,1,0,0,0,.13-.49.82.82,0,0,0-.28-.66,1.94,1.94,0,0,0-.69-.34,6.43,6.43,0,0,0-.89-.22,4,4,0,0,1-.89-.27,2.1,2.1,0,0,1-.69-.52,1.44,1.44,0,0,1-.28-.94,1.64,1.64,0,0,1,.69-1.38,2.28,2.28,0,0,1,.68-.34,3,3,0,0,1,2.11.18,2,2,0,0,1,.87.91l-.73.44a1.73,1.73,0,0,0-.57-.67,1.66,1.66,0,0,0-.91-.22,1.86,1.86,0,0,0-.45.06,1.54,1.54,0,0,0-.43.2,1.14,1.14,0,0,0-.31.31.86.86,0,0,0,.14,1.08,2.2,2.2,0,0,0,.69.32,6.89,6.89,0,0,0,.89.2,4,4,0,0,1,.9.27,1.7,1.7,0,0,1,.68.54,1.53,1.53,0,0,1,.28,1,1.94,1.94,0,0,1-.18.86,1.87,1.87,0,0,1-.51.61,2.05,2.05,0,0,1-.72.37,3,3,0,0,1-.85.13,3.46,3.46,0,0,1-1.49-.32,2.27,2.27,0,0,1-1-1Z"/>
        <path class="cls-3" d="M91.57,335.13a3.59,3.59,0,0,1,.24-1.34,3.22,3.22,0,0,1,.68-1.06,3.07,3.07,0,0,1,1.05-.7,3.61,3.61,0,0,1,2.64,0,3.27,3.27,0,0,1,1,.7,3.07,3.07,0,0,1,.68,1.06,3.59,3.59,0,0,1,.24,1.34,3.63,3.63,0,0,1-.24,1.34,3.16,3.16,0,0,1-.68,1.06,3.27,3.27,0,0,1-1,.7,3.61,3.61,0,0,1-2.64,0,3.07,3.07,0,0,1-1.05-.7,3.33,3.33,0,0,1-.68-1.06A3.63,3.63,0,0,1,91.57,335.13Zm.81,0a3.06,3.06,0,0,0,.17,1,2.33,2.33,0,0,0,.5.83,2.47,2.47,0,0,0,.78.56,2.75,2.75,0,0,0,2.06,0,2.51,2.51,0,0,0,.79-.56,2.47,2.47,0,0,0,.49-.83,2.82,2.82,0,0,0,.17-1,2.78,2.78,0,0,0-.17-1,2.37,2.37,0,0,0-.49-.83,2.51,2.51,0,0,0-.79-.56,2.48,2.48,0,0,0-2.84.56,2.25,2.25,0,0,0-.5.83A3,3,0,0,0,92.38,335.13Z"/>
        <path class="cls-3" d="M100,333.74c0-.12,0-.27,0-.44s0-.34,0-.51,0-.34,0-.49,0-.27,0-.35h.81l0,.69a1.74,1.74,0,0,0,0,.42h0a2.16,2.16,0,0,1,.81-.9,2.36,2.36,0,0,1,1.33-.38,2.05,2.05,0,0,1,1.14.33,1.79,1.79,0,0,1,.74,1.05,2.07,2.07,0,0,1,.89-1.05,2.5,2.5,0,0,1,1.24-.33,2.57,2.57,0,0,1,1.19.24,1.91,1.91,0,0,1,.73.61,2.42,2.42,0,0,1,.36.87,4.9,4.9,0,0,1,.1,1v3.79h-.81v-3.75a3.81,3.81,0,0,0-.07-.75,1.93,1.93,0,0,0-.23-.65,1.25,1.25,0,0,0-.48-.46,1.52,1.52,0,0,0-.79-.17,1.83,1.83,0,0,0-.93.21,1.59,1.59,0,0,0-.58.54,2.29,2.29,0,0,0-.3.72,3.23,3.23,0,0,0-.09.73v3.58h-.81v-3.83a2.79,2.79,0,0,0-.32-1.42,1.05,1.05,0,0,0-1-.53,2.41,2.41,0,0,0-.85.15,1.94,1.94,0,0,0-.69.49,2.26,2.26,0,0,0-.46.81,3.57,3.57,0,0,0-.17,1.15v3.18H100Z"/>
        <path class="cls-3" d="M117,337.11a2.78,2.78,0,0,1-1.17,1.05,3.72,3.72,0,0,1-1.54.32,3.38,3.38,0,0,1-1.3-.25,3,3,0,0,1-1-.7,3.09,3.09,0,0,1-.65-1.06,3.9,3.9,0,0,1-.22-1.35,3.83,3.83,0,0,1,.23-1.33,3.15,3.15,0,0,1,.65-1.05,3,3,0,0,1,1-.7,3.05,3.05,0,0,1,1.26-.26,3,3,0,0,1,1.27.26,2.84,2.84,0,0,1,.92.67,3.07,3.07,0,0,1,.56,1,3.42,3.42,0,0,1,.19,1.09v.57H112a3.29,3.29,0,0,0,.1.67,2.4,2.4,0,0,0,.38.79,2.45,2.45,0,0,0,.72.67,2.25,2.25,0,0,0,1.17.27,2.61,2.61,0,0,0,1.21-.3,2.11,2.11,0,0,0,.89-.83Zm-.62-2.52a2,2,0,0,0-.17-.8,2.32,2.32,0,0,0-.46-.65,2.21,2.21,0,0,0-.7-.45,2.36,2.36,0,0,0-2,.11,2.49,2.49,0,0,0-.69.63,2.38,2.38,0,0,0-.37.7,2.1,2.1,0,0,0-.11.46Z"/>
        <path class="cls-3" d="M118.16,332h.9l1.51,5.33h0l1.75-5.33h.77l1.86,5.33h0l1.48-5.33h.81l-1.84,6.36h-.84l-1.87-5.21h0L121,338.31h-.84Z"/>
        <path class="cls-3" d="M128.58,327.9h.81v5.16h0a2.16,2.16,0,0,1,.81-.9,2.38,2.38,0,0,1,1.33-.38,2.54,2.54,0,0,1,1.19.24,1.91,1.91,0,0,1,.73.61,2.26,2.26,0,0,1,.36.87,4.9,4.9,0,0,1,.11,1v3.79h-.82v-3.75a4.74,4.74,0,0,0-.06-.75,2.19,2.19,0,0,0-.24-.65,1.25,1.25,0,0,0-.48-.46,1.52,1.52,0,0,0-.79-.17,2.41,2.41,0,0,0-.85.15,1.94,1.94,0,0,0-.69.49,2.42,2.42,0,0,0-.46.81,3.57,3.57,0,0,0-.17,1.15v3.18h-.81Z"/>
        <path class="cls-3" d="M141,335.64v.84c0,.25,0,.48,0,.69s0,.41,0,.59a5.14,5.14,0,0,0,.06.55h-.76a6.53,6.53,0,0,1-.08-1h0a2.39,2.39,0,0,1-.87.91,2.74,2.74,0,0,1-1.32.29,3.09,3.09,0,0,1-.8-.11,2.2,2.2,0,0,1-.71-.33,1.77,1.77,0,0,1-.5-.58,1.7,1.7,0,0,1-.2-.87,1.75,1.75,0,0,1,.36-1.16,2.35,2.35,0,0,1,.91-.64,4.15,4.15,0,0,1,1.13-.27,8.68,8.68,0,0,1,1.07-.07h.95v-.38a1.36,1.36,0,0,0-.51-1.19,2.08,2.08,0,0,0-1.26-.35,2.81,2.81,0,0,0-1.91.71l-.47-.56a2.83,2.83,0,0,1,1.11-.67,4,4,0,0,1,1.27-.23,2.78,2.78,0,0,1,1.82.55,2.11,2.11,0,0,1,.68,1.75Zm-1.63-.52a8,8,0,0,0-1,.06,3.56,3.56,0,0,0-.87.24,1.59,1.59,0,0,0-.62.44,1,1,0,0,0-.23.69,1,1,0,0,0,.13.51,1.35,1.35,0,0,0,.33.38,1.78,1.78,0,0,0,.46.22,1.68,1.68,0,0,0,.5.07,2.53,2.53,0,0,0,1.07-.19,1.84,1.84,0,0,0,.67-.5,1.69,1.69,0,0,0,.35-.71,3.49,3.49,0,0,0,.1-.79v-.42Z"/>
        <path class="cls-3" d="M146.21,332.69h-1.79v4.15a.89.89,0,0,0,.23.66.86.86,0,0,0,.64.23,1.88,1.88,0,0,0,.46-.06,2.51,2.51,0,0,0,.46-.16l.06.74a4.62,4.62,0,0,1-.52.16,2.87,2.87,0,0,1-.53.07,1.89,1.89,0,0,1-.75-.14,1.22,1.22,0,0,1-.5-.35,1.34,1.34,0,0,1-.28-.51,2.2,2.2,0,0,1-.09-.64v-4.15h-1.35V332h1.35v-1.83h.82V332h1.79Z"/>
        <path class="cls-3" d="M151.18,333.74c0-.12,0-.27,0-.44s0-.34,0-.51,0-.34,0-.49,0-.27,0-.35h.81c0,.24,0,.46,0,.69a2.18,2.18,0,0,0,0,.42h0a2.16,2.16,0,0,1,.81-.9,2.36,2.36,0,0,1,1.33-.38,2.57,2.57,0,0,1,1.19.24,1.91,1.91,0,0,1,.73.61,2.42,2.42,0,0,1,.36.87,4.9,4.9,0,0,1,.1,1v3.79h-.81v-3.75a3.81,3.81,0,0,0-.07-.75,1.75,1.75,0,0,0-.24-.65,1.22,1.22,0,0,0-.47-.46,1.54,1.54,0,0,0-.79-.17,2.41,2.41,0,0,0-.85.15,1.78,1.78,0,0,0-.69.49,2.26,2.26,0,0,0-.46.81,3.57,3.57,0,0,0-.17,1.15v3.18h-.81Z"/>
        <path class="cls-3" d="M158.36,335.13a3.59,3.59,0,0,1,.24-1.34,3.07,3.07,0,0,1,.68-1.06,3,3,0,0,1,1-.7,3.42,3.42,0,0,1,1.33-.25A3.34,3.34,0,0,1,163,332a3.13,3.13,0,0,1,1,.7,3,3,0,0,1,.69,1.06,3.59,3.59,0,0,1,.24,1.34,3.63,3.63,0,0,1-.24,1.34,3,3,0,0,1-.69,1.06,3.13,3.13,0,0,1-1,.7,3.53,3.53,0,0,1-1.32.25,3.62,3.62,0,0,1-1.33-.25,3,3,0,0,1-1-.7,3.16,3.16,0,0,1-.68-1.06A3.63,3.63,0,0,1,158.36,335.13Zm.81,0a3.06,3.06,0,0,0,.17,1,2.47,2.47,0,0,0,.49.83,2.51,2.51,0,0,0,.79.56,2.75,2.75,0,0,0,2.06,0,2.36,2.36,0,0,0,.78-.56,2.33,2.33,0,0,0,.5-.83,3.06,3.06,0,0,0,.17-1,3,3,0,0,0-.17-1,2.25,2.25,0,0,0-.5-.83,2.36,2.36,0,0,0-.78-.56,2.75,2.75,0,0,0-2.06,0,2.51,2.51,0,0,0-.79.56,2.37,2.37,0,0,0-.49.83A3,3,0,0,0,159.17,335.13Z"/>
        <path class="cls-3" d="M169.82,332.69H168v4.15a.93.93,0,0,0,.23.66.88.88,0,0,0,.64.23,1.82,1.82,0,0,0,.46-.06,2.51,2.51,0,0,0,.46-.16l.07.74a4.83,4.83,0,0,1-.53.16,2.87,2.87,0,0,1-.53.07,1.89,1.89,0,0,1-.75-.14,1.29,1.29,0,0,1-.5-.35,1.32,1.32,0,0,1-.27-.51,2.2,2.2,0,0,1-.09-.64v-4.15h-1.36V332h1.36v-1.83H168V332h1.79Z"/>
        <path class="cls-3" d="M174.61,332h.82v1.11h0a2.21,2.21,0,0,1,.48-.57,3.06,3.06,0,0,1,.61-.4,3.58,3.58,0,0,1,.7-.23,3.69,3.69,0,0,1,.72-.08,3.34,3.34,0,0,1,1.32.25,3.27,3.27,0,0,1,1.05.7,3.07,3.07,0,0,1,.68,1.06,3.59,3.59,0,0,1,.24,1.34,3.63,3.63,0,0,1-.24,1.34,3.16,3.16,0,0,1-.68,1.06,3.27,3.27,0,0,1-1.05.7,3.53,3.53,0,0,1-1.32.25,3.69,3.69,0,0,1-.72-.08,3.58,3.58,0,0,1-.7-.23,3.06,3.06,0,0,1-.61-.4,2.25,2.25,0,0,1-.48-.58h0v4.26h-.82Zm.74,3.18a2.46,2.46,0,0,0,.2,1,2.61,2.61,0,0,0,.55.83,3,3,0,0,0,.83.56,2.7,2.7,0,0,0,1,.2,2.63,2.63,0,0,0,1-.2,2.51,2.51,0,0,0,.79-.56,2.47,2.47,0,0,0,.49-.83,3.06,3.06,0,0,0,.17-1,3,3,0,0,0-.17-1,2.37,2.37,0,0,0-.49-.83,2.51,2.51,0,0,0-.79-.56,2.46,2.46,0,0,0-1-.2,2.52,2.52,0,0,0-1,.2,3,3,0,0,0-.83.56,2.51,2.51,0,0,0-.55.83A2.43,2.43,0,0,0,175.35,335.13Z"/>
        <path class="cls-3" d="M183.07,333.74c0-.12,0-.27,0-.44s0-.34,0-.51,0-.34,0-.49,0-.27,0-.35h.81c0,.24,0,.46,0,.69a2.18,2.18,0,0,0,0,.42,2.85,2.85,0,0,1,.8-.92,1.93,1.93,0,0,1,1.19-.36l.24,0,.23.05-.09.81a1.18,1.18,0,0,0-.31-.05,2.32,2.32,0,0,0-.92.17,1.61,1.61,0,0,0-.63.48,1.9,1.9,0,0,0-.38.7,3.17,3.17,0,0,0-.12.88v3.47h-.81Z"/>
        <path class="cls-3" d="M187,335.13a3.4,3.4,0,0,1,.25-1.34A3,3,0,0,1,189,332a3.37,3.37,0,0,1,1.32-.25,3.42,3.42,0,0,1,1.33.25,3.23,3.23,0,0,1,1,.7,3.07,3.07,0,0,1,.68,1.06,3.4,3.4,0,0,1,.25,1.34,3.44,3.44,0,0,1-.25,1.34,3.16,3.16,0,0,1-.68,1.06,3.23,3.23,0,0,1-1,.7,3.62,3.62,0,0,1-1.33.25,3.56,3.56,0,0,1-1.32-.25,3.07,3.07,0,0,1-1-.7,3.14,3.14,0,0,1-.67-1.06A3.44,3.44,0,0,1,187,335.13Zm.81,0a3.06,3.06,0,0,0,.17,1,2.49,2.49,0,0,0,.5.83,2.51,2.51,0,0,0,.79.56,2.73,2.73,0,0,0,2.05,0,2.51,2.51,0,0,0,.79-.56,2.31,2.31,0,0,0,.49-.83,2.82,2.82,0,0,0,.17-1,2.78,2.78,0,0,0-.17-1,2.23,2.23,0,0,0-.49-.83,2.51,2.51,0,0,0-.79-.56,2.73,2.73,0,0,0-2.05,0,2.51,2.51,0,0,0-.79.56,2.39,2.39,0,0,0-.5.83A3,3,0,0,0,187.79,335.13Z"/>
        <path class="cls-3" d="M200.68,336.52c0,.12,0,.26,0,.43s0,.35,0,.52,0,.34,0,.49,0,.27,0,.35h-.82c0-.24,0-.47,0-.69a1.91,1.91,0,0,0,0-.43h0a2.24,2.24,0,0,1-.81.91,2.38,2.38,0,0,1-1.33.38,2.61,2.61,0,0,1-1.2-.24,1.93,1.93,0,0,1-.73-.61,2.16,2.16,0,0,1-.36-.88,5.69,5.69,0,0,1-.1-1V332h.82v3.74a4.56,4.56,0,0,0,.06.75,2.15,2.15,0,0,0,.24.66,1.18,1.18,0,0,0,.48.46,1.62,1.62,0,0,0,.79.17,2.13,2.13,0,0,0,.84-.16,1.76,1.76,0,0,0,.7-.48,2.53,2.53,0,0,0,.46-.81,3.62,3.62,0,0,0,.17-1.15V332h.81Z"/>
        <path class="cls-3" d="M208.39,337.19h0a2.22,2.22,0,0,1-.47.58,3.12,3.12,0,0,1-.62.4,3.19,3.19,0,0,1-.7.23,3.49,3.49,0,0,1-2-.17,3.07,3.07,0,0,1-1.05-.7,3.14,3.14,0,0,1-.67-1.06,3.44,3.44,0,0,1-.25-1.34,3.4,3.4,0,0,1,.25-1.34,3,3,0,0,1,1.72-1.76,3.34,3.34,0,0,1,1.32-.25,3.53,3.53,0,0,1,.72.08,3.19,3.19,0,0,1,.7.23,3.12,3.12,0,0,1,.62.4,2.17,2.17,0,0,1,.47.57h0V327.9h.81v10.41h-.81Zm.08-2.06a2.6,2.6,0,0,0-.2-1,2.7,2.7,0,0,0-.56-.83,2.82,2.82,0,0,0-.83-.56,2.49,2.49,0,0,0-1-.2,2.35,2.35,0,0,0-1.81.76,2.39,2.39,0,0,0-.5.83,3,3,0,0,0-.17,1,3.06,3.06,0,0,0,.17,1,2.39,2.39,0,0,0,1.28,1.39,2.63,2.63,0,0,0,1,.2,2.66,2.66,0,0,0,1-.2,2.63,2.63,0,0,0,1.39-1.39A2.64,2.64,0,0,0,208.47,335.13Z"/>
        <path class="cls-3" d="M214.21,334.67h3.35v.75h-3.35Z"/>
        <path class="cls-3" d="M222,333.43c0-.34,0-.71,0-1.1a8.61,8.61,0,0,1,.18-1.15,6.27,6.27,0,0,1,.35-1.06,3.33,3.33,0,0,1,.58-.89,2.6,2.6,0,0,1,.84-.61,3.12,3.12,0,0,1,2.35,0,2.6,2.6,0,0,1,.84.61,3.33,3.33,0,0,1,.58.89,5.49,5.49,0,0,1,.35,1.06,7.25,7.25,0,0,1,.18,1.15c0,.39.05.76.05,1.1s0,.73-.05,1.12a7.31,7.31,0,0,1-.18,1.14,5.49,5.49,0,0,1-.35,1.06,3.33,3.33,0,0,1-.58.89,2.6,2.6,0,0,1-.84.61,3.12,3.12,0,0,1-2.35,0,2.6,2.6,0,0,1-.84-.61,3.33,3.33,0,0,1-.58-.89,6.27,6.27,0,0,1-.35-1.06,8.72,8.72,0,0,1-.18-1.14C222,334.16,222,333.79,222,333.43Zm.89,0c0,.26,0,.54,0,.85a6.16,6.16,0,0,0,.11.94,6,6,0,0,0,.23.93,3.17,3.17,0,0,0,.41.8,1.87,1.87,0,0,0,.62.57,1.71,1.71,0,0,0,.88.21,1.75,1.75,0,0,0,.87-.21,1.78,1.78,0,0,0,.62-.57,2.87,2.87,0,0,0,.41-.8,7.47,7.47,0,0,0,.24-.93c0-.32.09-.63.11-.94s0-.59,0-.85,0-.52,0-.84-.06-.62-.11-.94a7,7,0,0,0-.24-.93,3.08,3.08,0,0,0-.41-.81,1.85,1.85,0,0,0-.62-.56,1.93,1.93,0,0,0-1.75,0,2,2,0,0,0-.62.56,3.42,3.42,0,0,0-.41.81,5.75,5.75,0,0,0-.23.93,6.16,6.16,0,0,0-.11.94Q222.91,333.07,222.91,333.43Z"/>
        <path class="cls-3" d="M229.82,337.73a.64.64,0,0,1,.19-.47.65.65,0,0,1,.92,0,.64.64,0,0,1,.19.47.63.63,0,0,1-.19.47.65.65,0,0,1-.92,0A.63.63,0,0,1,229.82,337.73Z"/>
        <path class="cls-3" d="M233.67,336.27a2.42,2.42,0,0,0,.74,1.08,1.92,1.92,0,0,0,1.28.38,2.45,2.45,0,0,0,.93-.16,1.82,1.82,0,0,0,.67-.46,1.9,1.9,0,0,0,.4-.67,2.54,2.54,0,0,0,.14-.83,1.79,1.79,0,0,0-.23-.92,1.85,1.85,0,0,0-.58-.63,2.46,2.46,0,0,0-.81-.35,4.06,4.06,0,0,0-.92-.11h-.35v-.83h.41a2.84,2.84,0,0,0,.76-.1,2.19,2.19,0,0,0,.69-.32,1.66,1.66,0,0,0,.5-.58,2,2,0,0,0-.29-2.13,1.7,1.7,0,0,0-1.3-.5,1.91,1.91,0,0,0-1.07.31,2.13,2.13,0,0,0-.74.83l-.77-.44a2.43,2.43,0,0,1,1.07-1.1,3.32,3.32,0,0,1,1.51-.35,3.47,3.47,0,0,1,1,.16,2.56,2.56,0,0,1,.86.47,2.25,2.25,0,0,1,.57.78,2.67,2.67,0,0,1,.21,1.1,2.38,2.38,0,0,1-.43,1.41,2.23,2.23,0,0,1-1.28.85v0a2.18,2.18,0,0,1,.84.31,2.42,2.42,0,0,1,.64.55,2.5,2.5,0,0,1,.42.75,2.54,2.54,0,0,1,.15.88,3.24,3.24,0,0,1-.18,1.09,2.44,2.44,0,0,1-.56.89,2.6,2.6,0,0,1-.93.59,3.79,3.79,0,0,1-3.13-.24,2.76,2.76,0,0,1-1.13-1.45Z"/>
        <path class="cls-3" d="M239.79,330.76a2.3,2.3,0,0,1,.69-1.67,2.19,2.19,0,0,1,.73-.51,2.15,2.15,0,0,1,.91-.19,2.12,2.12,0,0,1,.91.19,2.33,2.33,0,0,1,.74.51,2.29,2.29,0,0,1,.5.75,2.32,2.32,0,0,1,.18.92,2.41,2.41,0,0,1-.18.93,2.52,2.52,0,0,1-.5.75,2.71,2.71,0,0,1-.74.51,2.27,2.27,0,0,1-.91.18,2.31,2.31,0,0,1-.91-.18,2.52,2.52,0,0,1-.73-.51,2.56,2.56,0,0,1-.51-.75A2.41,2.41,0,0,1,239.79,330.76Zm.73,0a1.66,1.66,0,0,0,.13.64,1.7,1.7,0,0,0,.35.52,1.43,1.43,0,0,0,.5.34,1.54,1.54,0,0,0,1.24,0,1.57,1.57,0,0,0,.51-.34,1.87,1.87,0,0,0,.34-.52,1.5,1.5,0,0,0,.13-.64,1.53,1.53,0,0,0-.13-.64,1.69,1.69,0,0,0-.34-.51,1.6,1.6,0,0,0-.51-.35,1.66,1.66,0,0,0-1.24,0,1.46,1.46,0,0,0-.5.35,1.54,1.54,0,0,0-.35.51A1.7,1.7,0,0,0,240.52,330.76Zm7.07-2.67.63.39L242,338.78l-.61-.39Zm-2.45,8a2.24,2.24,0,0,1,.19-.93,2.35,2.35,0,0,1,.5-.75,2.57,2.57,0,0,1,.74-.51,2.23,2.23,0,0,1,.9-.18,2.27,2.27,0,0,1,.91.18,2.57,2.57,0,0,1,.74.51,2.52,2.52,0,0,1,.5.75,2.41,2.41,0,0,1,.18.93,2.32,2.32,0,0,1-.18.92,2.52,2.52,0,0,1-.5.75,2.23,2.23,0,0,1-.74.51,2.28,2.28,0,0,1-.91.19,2.31,2.31,0,0,1-1.64-.7,2.35,2.35,0,0,1-.5-.75A2.17,2.17,0,0,1,245.14,336.11Zm.73,0a1.7,1.7,0,0,0,.13.64,1.65,1.65,0,0,0,.35.51,1.41,1.41,0,0,0,.51.35,1.58,1.58,0,0,0,.61.12,1.63,1.63,0,0,0,.62-.12,1.6,1.6,0,0,0,.51-.35,1.63,1.63,0,0,0,.34-.51,1.53,1.53,0,0,0,.13-.64,1.5,1.5,0,0,0-.13-.64,1.67,1.67,0,0,0-.34-.52,1.57,1.57,0,0,0-.51-.34,1.47,1.47,0,0,0-.62-.13,1.42,1.42,0,0,0-.61.13,1.39,1.39,0,0,0-.51.34,1.7,1.7,0,0,0-.35.52A1.66,1.66,0,0,0,245.87,336.11Z"/>
      </g>
      <g>
        <path class="cls-3" d="M146,374.76h0a2.21,2.21,0,0,1-.48.57,3.06,3.06,0,0,1-.61.4,3.54,3.54,0,0,1-1.42.31,3.42,3.42,0,0,1-1.33-.25,3.1,3.1,0,0,1-1-.69,3.27,3.27,0,0,1-.68-1.06,3.68,3.68,0,0,1-.24-1.35,3.63,3.63,0,0,1,.24-1.34,3.16,3.16,0,0,1,.68-1.06,3.13,3.13,0,0,1,1-.7,3.52,3.52,0,0,1,2-.17,3.05,3.05,0,0,1,.7.24,2.63,2.63,0,0,1,.61.39,2.25,2.25,0,0,1,.48.58h0v-5.17h.82v10.41H146Zm.09-2.07a2.47,2.47,0,0,0-.21-1,2.5,2.5,0,0,0-1.38-1.38,2.53,2.53,0,0,0-1-.21,2.46,2.46,0,0,0-1,.21,2.34,2.34,0,0,0-.79.55,2.47,2.47,0,0,0-.49.83,3.06,3.06,0,0,0-.17,1,3,3,0,0,0,.17,1,2.37,2.37,0,0,0,.49.83,2.51,2.51,0,0,0,.79.56,2.46,2.46,0,0,0,1,.2,2.52,2.52,0,0,0,1-.2,2.82,2.82,0,0,0,.83-.56,2.51,2.51,0,0,0,.55-.83A2.44,2.44,0,0,0,146.07,372.69Z"/>
        <path class="cls-3" d="M154.32,374.68a2.79,2.79,0,0,1-1.18,1,3.64,3.64,0,0,1-1.53.32,3.17,3.17,0,0,1-1.3-.25,3,3,0,0,1-1-.69,3.17,3.17,0,0,1-.64-1.06,4,4,0,0,1-.22-1.36,3.52,3.52,0,0,1,.23-1.32,3.09,3.09,0,0,1,.65-1.06,3,3,0,0,1,1-.7,3,3,0,0,1,1.26-.26,3,3,0,0,1,1.26.26,2.88,2.88,0,0,1,.92.67,2.91,2.91,0,0,1,.57,1,3.41,3.41,0,0,1,.18,1.09v.58h-5.25a2.78,2.78,0,0,0,.1.67,2.46,2.46,0,0,0,.37.79,2.23,2.23,0,0,0,.73.66,2.25,2.25,0,0,0,1.17.27,2.64,2.64,0,0,0,1.21-.3,2.28,2.28,0,0,0,.89-.82Zm-.63-2.52a1.77,1.77,0,0,0-.17-.8,2,2,0,0,0-.46-.66,2.06,2.06,0,0,0-.69-.45,2.22,2.22,0,0,0-.85-.16,2.06,2.06,0,0,0-1.1.27,2.49,2.49,0,0,0-1.06,1.33,1.6,1.6,0,0,0-.11.47Z"/>
        <path class="cls-3" d="M161.56,374.94a2.92,2.92,0,0,1-1,.83,3,3,0,0,1-1.26.27,3.42,3.42,0,0,1-1.33-.25,3.1,3.1,0,0,1-1-.69,3.27,3.27,0,0,1-.68-1.06,3.68,3.68,0,0,1-.24-1.35,3.63,3.63,0,0,1,.24-1.34,3.16,3.16,0,0,1,.68-1.06,3.13,3.13,0,0,1,1-.7,3.62,3.62,0,0,1,1.33-.25,2.9,2.9,0,0,1,1.28.29,3.56,3.56,0,0,1,1.05.82l-.65.49a3,3,0,0,0-.77-.62,1.81,1.81,0,0,0-.91-.23,2.46,2.46,0,0,0-1,.21,2.34,2.34,0,0,0-.79.55,2.47,2.47,0,0,0-.49.83,3.06,3.06,0,0,0-.17,1,3,3,0,0,0,.17,1,2.37,2.37,0,0,0,.49.83,2.51,2.51,0,0,0,.79.56,2.46,2.46,0,0,0,1,.2,1.88,1.88,0,0,0,.94-.24,2.38,2.38,0,0,0,.74-.64Z"/>
        <path class="cls-3" d="M163,365.46h.82v10.41H163Z"/>
        <path class="cls-3" d="M166,367a.6.6,0,0,1,.18-.44.58.58,0,0,1,.43-.18.6.6,0,0,1,.44.18.65.65,0,0,1,0,.88.6.6,0,0,1-.44.18.58.58,0,0,1-.43-.18A.6.6,0,0,1,166,367Zm.21,2.52h.81v6.36h-.81Z"/>
        <path class="cls-3" d="M169.35,371.3c0-.12,0-.26,0-.43s0-.34,0-.52,0-.34,0-.49,0-.27,0-.35h.82c0,.24,0,.47,0,.69a1.91,1.91,0,0,0,0,.43h0a2.32,2.32,0,0,1,.81-.91,2.38,2.38,0,0,1,1.33-.38,2.61,2.61,0,0,1,1.2.24,2.06,2.06,0,0,1,.72.61,2.39,2.39,0,0,1,.37.88,5.69,5.69,0,0,1,.1,1v3.78h-.82v-3.74a4.56,4.56,0,0,0-.06-.75,2.15,2.15,0,0,0-.24-.66,1.25,1.25,0,0,0-.48-.46,1.62,1.62,0,0,0-.79-.17,2.17,2.17,0,0,0-.84.16,1.76,1.76,0,0,0-.7.48,2.64,2.64,0,0,0-.46.81,3.62,3.62,0,0,0-.17,1.15v3.18h-.81Z"/>
        <path class="cls-3" d="M182.41,374.68a2.76,2.76,0,0,1-1.17,1,3.72,3.72,0,0,1-1.54.32,3.21,3.21,0,0,1-1.3-.25,2.93,2.93,0,0,1-1-.69,3.17,3.17,0,0,1-.64-1.06,4,4,0,0,1-.23-1.36,3.73,3.73,0,0,1,.23-1.32,3.25,3.25,0,0,1,.65-1.06,3,3,0,0,1,1-.7,3.05,3.05,0,0,1,1.26-.26,2.87,2.87,0,0,1,2.19.93,2.73,2.73,0,0,1,.56,1,3.17,3.17,0,0,1,.19,1.09v.58h-5.26a2.87,2.87,0,0,0,.11.67,2.26,2.26,0,0,0,.37.79,2.14,2.14,0,0,0,1.9.93,2.6,2.6,0,0,0,1.2-.3,2.24,2.24,0,0,0,.9-.82Zm-.62-2.52a1.91,1.91,0,0,0-.17-.8,2.18,2.18,0,0,0-.46-.66,2.29,2.29,0,0,0-.69-.45,2.22,2.22,0,0,0-.85-.16,2.06,2.06,0,0,0-1.1.27,2.42,2.42,0,0,0-.7.64,2.93,2.93,0,0,0-.37.69,2,2,0,0,0-.11.47Z"/>
        <path class="cls-3" d="M189.89,374.76h0a2,2,0,0,1-.47.57,3.12,3.12,0,0,1-.62.4,3.19,3.19,0,0,1-.7.23,3.51,3.51,0,0,1-.71.08,3.42,3.42,0,0,1-1.33-.25,2.91,2.91,0,0,1-1-.69,3.27,3.27,0,0,1-.68-1.06,3.68,3.68,0,0,1-.25-1.35,3.63,3.63,0,0,1,.25-1.34,3.16,3.16,0,0,1,.68-1.06,2.94,2.94,0,0,1,1-.7,3.62,3.62,0,0,1,1.33-.25,3.51,3.51,0,0,1,.71.08,2.76,2.76,0,0,1,.7.24,2.69,2.69,0,0,1,.62.39,2,2,0,0,1,.47.58h0v-5.17h.81v10.41h-.81Zm.08-2.07a2.57,2.57,0,0,0-.76-1.84,2.57,2.57,0,0,0-.82-.55,2.53,2.53,0,0,0-1-.21,2.43,2.43,0,0,0-1,.21,2.34,2.34,0,0,0-.79.55,2.31,2.31,0,0,0-.49.83,2.82,2.82,0,0,0-.17,1,2.78,2.78,0,0,0,.17,1,2.23,2.23,0,0,0,.49.83,2.51,2.51,0,0,0,.79.56,2.43,2.43,0,0,0,1,.2,2.52,2.52,0,0,0,1-.2,2.77,2.77,0,0,0,.82-.56,2.53,2.53,0,0,0,.56-.83A2.6,2.6,0,0,0,190,372.69Z"/>
        <path class="cls-3" d="M199.28,370.25h-1.79v4.15a.91.91,0,0,0,.23.66.84.84,0,0,0,.64.23,1.82,1.82,0,0,0,.46-.06,3.53,3.53,0,0,0,.46-.15l.07.74-.53.15a2.21,2.21,0,0,1-.53.07,1.9,1.9,0,0,1-.75-.13,1.54,1.54,0,0,1-.5-.35,1.36,1.36,0,0,1-.27-.52,2.2,2.2,0,0,1-.09-.64v-4.15h-1.36v-.74h1.36v-1.83h.81v1.83h1.79Z"/>
        <path class="cls-3" d="M200.37,372.69a3.63,3.63,0,0,1,.25-1.34,3.16,3.16,0,0,1,.68-1.06,2.94,2.94,0,0,1,1-.7,3.62,3.62,0,0,1,1.33-.25,3.53,3.53,0,0,1,1.32.25,3.13,3.13,0,0,1,1,.7,3.35,3.35,0,0,1,.69,1.06,3.63,3.63,0,0,1,.24,1.34,3.68,3.68,0,0,1-.24,1.35,3.47,3.47,0,0,1-.69,1.06,3.1,3.1,0,0,1-1,.69,3.34,3.34,0,0,1-1.32.25,3.42,3.42,0,0,1-1.33-.25,2.91,2.91,0,0,1-1-.69,3.27,3.27,0,0,1-.68-1.06A3.68,3.68,0,0,1,200.37,372.69Zm.82,0a2.78,2.78,0,0,0,.17,1,2.23,2.23,0,0,0,.49.83,2.51,2.51,0,0,0,.79.56,2.43,2.43,0,0,0,1,.2,2.35,2.35,0,0,0,1.81-.76,2.39,2.39,0,0,0,.5-.83,3,3,0,0,0,.17-1,3.06,3.06,0,0,0-.17-1,2.49,2.49,0,0,0-.5-.83,2.3,2.3,0,0,0-.78-.55,2.46,2.46,0,0,0-1-.21,2.43,2.43,0,0,0-1,.21,2.34,2.34,0,0,0-.79.55,2.31,2.31,0,0,0-.49.83A2.82,2.82,0,0,0,201.19,372.69Z"/>
        <path class="cls-3" d="M217.16,373.2c0,.31,0,.59,0,.84s0,.48,0,.69,0,.41,0,.59a4.87,4.87,0,0,0,.06.55h-.76a6.43,6.43,0,0,1-.08-1h0a2.25,2.25,0,0,1-.87.91,2.74,2.74,0,0,1-1.32.29,3.58,3.58,0,0,1-.8-.1,2.06,2.06,0,0,1-.7-.33,1.74,1.74,0,0,1-.71-1.46,1.66,1.66,0,0,1,.37-1.15,2.27,2.27,0,0,1,.9-.65,4.22,4.22,0,0,1,1.14-.27c.4,0,.75-.06,1.06-.06h1v-.39a1.36,1.36,0,0,0-.5-1.18,2.13,2.13,0,0,0-1.26-.36,2.86,2.86,0,0,0-1.91.71l-.48-.56a3,3,0,0,1,1.11-.67,4,4,0,0,1,1.28-.23,2.81,2.81,0,0,1,1.81.55,2.13,2.13,0,0,1,.68,1.76Zm-1.63-.52a6.41,6.41,0,0,0-1,.07,3.26,3.26,0,0,0-.87.23,1.58,1.58,0,0,0-.61.44,1,1,0,0,0-.23.69,1.11,1.11,0,0,0,.12.52,1.2,1.2,0,0,0,.34.37,1.35,1.35,0,0,0,.45.22,1.79,1.79,0,0,0,.51.07,2.56,2.56,0,0,0,1.07-.19,1.82,1.82,0,0,0,.67-.5,1.69,1.69,0,0,0,.34-.7,3.06,3.06,0,0,0,.1-.79v-.43Z"/>
        <path class="cls-3" d="M219.33,371.3c0-.12,0-.26,0-.43s0-.34,0-.52,0-.34,0-.49,0-.27,0-.35h.81c0,.24,0,.47,0,.69a2.44,2.44,0,0,0,0,.43h0a2.24,2.24,0,0,1,.81-.91,2.36,2.36,0,0,1,1.33-.38,2.57,2.57,0,0,1,1.19.24,2,2,0,0,1,.73.61,2.55,2.55,0,0,1,.36.88,4.9,4.9,0,0,1,.1,1v3.78h-.81v-3.74a3.67,3.67,0,0,0-.07-.75,1.91,1.91,0,0,0-.23-.66,1.41,1.41,0,0,0-.48-.46,1.65,1.65,0,0,0-.79-.17,2.22,2.22,0,0,0-.85.16,1.73,1.73,0,0,0-.69.48,2.45,2.45,0,0,0-.46.81,3.62,3.62,0,0,0-.17,1.15v3.18h-.81Z"/>
        <path class="cls-3" d="M226.87,374.25a1.79,1.79,0,0,0,.76.78,2.22,2.22,0,0,0,1.06.26,1.51,1.51,0,0,0,.51-.08,1.42,1.42,0,0,0,.46-.23,1.2,1.2,0,0,0,.34-.37,1,1,0,0,0,.12-.49.81.81,0,0,0-.27-.66,2.22,2.22,0,0,0-.69-.34,9,9,0,0,0-.89-.21,4.12,4.12,0,0,1-.9-.28,1.93,1.93,0,0,1-.68-.52,1.43,1.43,0,0,1-.28-.93,1.77,1.77,0,0,1,.19-.82,1.72,1.72,0,0,1,.5-.57,2.28,2.28,0,0,1,.68-.34,2.87,2.87,0,0,1,.77-.11,2.94,2.94,0,0,1,1.34.29,2.07,2.07,0,0,1,.87.91L230,371a1.71,1.71,0,0,0-.58-.66,1.54,1.54,0,0,0-.9-.23,1.5,1.5,0,0,0-.45.07,1.52,1.52,0,0,0-.43.19,1.22,1.22,0,0,0-.32.32.81.81,0,0,0-.12.44.75.75,0,0,0,.27.63,2.21,2.21,0,0,0,.69.33c.27.07.57.14.89.2a3.62,3.62,0,0,1,.9.26,2,2,0,0,1,.68.54,1.55,1.55,0,0,1,.28,1,1.79,1.79,0,0,1-.19.86,1.64,1.64,0,0,1-.5.61,2.05,2.05,0,0,1-.72.37,2.7,2.7,0,0,1-.85.13,3.46,3.46,0,0,1-1.49-.32,2.22,2.22,0,0,1-1-1Z"/>
        <path class="cls-3" d="M231.75,369.51h.9l1.51,5.33h0l1.75-5.33h.77l1.86,5.33h0l1.48-5.33h.81L239,375.87h-.84l-1.87-5.2h0l-1.74,5.2h-.84Z"/>
        <path class="cls-3" d="M247.7,374.68a2.79,2.79,0,0,1-1.18,1A3.64,3.64,0,0,1,245,376a3.17,3.17,0,0,1-1.3-.25,3,3,0,0,1-1-.69A3.17,3.17,0,0,1,242,374a4,4,0,0,1-.22-1.36,3.52,3.52,0,0,1,.23-1.32,3.09,3.09,0,0,1,.65-1.06,3,3,0,0,1,1-.7,3.05,3.05,0,0,1,1.26-.26,3,3,0,0,1,1.26.26,2.77,2.77,0,0,1,.92.67,2.91,2.91,0,0,1,.57,1,3.42,3.42,0,0,1,.19,1.09v.58h-5.26a2.78,2.78,0,0,0,.1.67,2.46,2.46,0,0,0,.37.79,2.33,2.33,0,0,0,.73.66,2.25,2.25,0,0,0,1.17.27,2.64,2.64,0,0,0,1.21-.3,2.28,2.28,0,0,0,.89-.82Zm-.63-2.52a1.77,1.77,0,0,0-.17-.8,2,2,0,0,0-.46-.66,2.06,2.06,0,0,0-.69-.45,2.17,2.17,0,0,0-.84-.16,2.07,2.07,0,0,0-1.11.27,2.72,2.72,0,0,0-.7.64,2.55,2.55,0,0,0-.36.69,1.6,1.6,0,0,0-.11.47Z"/>
        <path class="cls-3" d="M249.7,371.3c0-.12,0-.26,0-.43s0-.34,0-.52,0-.34,0-.49,0-.27,0-.35h.82c0,.24,0,.47,0,.69a1.91,1.91,0,0,0,0,.43,2.79,2.79,0,0,1,.8-.93,1.93,1.93,0,0,1,1.19-.36l.24,0,.24,0-.1.82a.89.89,0,0,0-.31-.06,2.27,2.27,0,0,0-.91.17,1.83,1.83,0,0,0-.64.48,1.93,1.93,0,0,0-.37.71,2.73,2.73,0,0,0-.13.87v3.47h-.81Z"/>
        <path class="cls-3" d="M257.23,372.24h3.35V373h-3.35Z"/>
        <path class="cls-3" d="M270.69,366.87l-3.82,9H266l3.88-9h-4.6v-.75h5.45Z"/>
        <path class="cls-3" d="M272.84,375.29a.62.62,0,0,1,.19-.46.63.63,0,0,1,.92,0,.62.62,0,0,1,.19.46.65.65,0,1,1-1.3,0Z"/>
        <path class="cls-3" d="M279.71,373.48h-4.15v-1l3.84-6.38h1.12v6.61H282v.75h-1.46v2.39h-.81Zm0-6.45h0l-3.39,5.7h3.42Z"/>
        <path class="cls-3" d="M282.81,368.33a2.41,2.41,0,0,1,.18-.93,2.56,2.56,0,0,1,.51-.75,2.52,2.52,0,0,1,.73-.51,2.31,2.31,0,0,1,.91-.18,2.27,2.27,0,0,1,.91.18,2.71,2.71,0,0,1,.74.51,2.52,2.52,0,0,1,.5.75,2.41,2.41,0,0,1,.18.93,2.36,2.36,0,0,1-.18.92,2.52,2.52,0,0,1-.5.75,2.71,2.71,0,0,1-.74.51,2.28,2.28,0,0,1-.91.19,2.32,2.32,0,0,1-.91-.19,2.52,2.52,0,0,1-.73-.51,2.56,2.56,0,0,1-.51-.75A2.36,2.36,0,0,1,282.81,368.33Zm.73,0a1.53,1.53,0,0,0,.13.64,1.65,1.65,0,0,0,.35.51,1.61,1.61,0,0,0,.5.35,1.66,1.66,0,0,0,1.24,0,1.78,1.78,0,0,0,.51-.35,1.82,1.82,0,0,0,.34-.51,1.53,1.53,0,0,0,.13-.64,1.5,1.5,0,0,0-.13-.64,1.87,1.87,0,0,0-.34-.52,1.78,1.78,0,0,0-.51-.35,1.66,1.66,0,0,0-1.24,0,1.61,1.61,0,0,0-.5.35,1.7,1.7,0,0,0-.35.52A1.5,1.5,0,0,0,283.54,368.33Zm7.07-2.68.63.39-6.19,10.3-.61-.38Zm-2.45,8a2.3,2.3,0,0,1,.69-1.67,2.19,2.19,0,0,1,.73-.51,2.15,2.15,0,0,1,.91-.19,2.12,2.12,0,0,1,.91.19,2.23,2.23,0,0,1,.74.51,2.29,2.29,0,0,1,.5.75,2.44,2.44,0,0,1,0,1.84,2.29,2.29,0,0,1-.5.75,2.23,2.23,0,0,1-.74.51,2.12,2.12,0,0,1-.91.19,2.15,2.15,0,0,1-.91-.19,2.19,2.19,0,0,1-.73-.51,2.3,2.3,0,0,1-.69-1.67Zm.73,0a1.64,1.64,0,0,0,.48,1.16,1.52,1.52,0,0,0,.51.34,1.58,1.58,0,0,0,.61.12,1.63,1.63,0,0,0,.62-.12,1.75,1.75,0,0,0,.51-.34,1.67,1.67,0,0,0,.34-.52,1.64,1.64,0,0,0,0-1.28,1.67,1.67,0,0,0-.34-.52,1.75,1.75,0,0,0-.51-.34,1.64,1.64,0,0,0-.62-.13,1.59,1.59,0,0,0-.61.13,1.52,1.52,0,0,0-.51.34,1.64,1.64,0,0,0-.48,1.16Z"/>
      </g>
      <g>
        <path class="cls-3" d="M241.17,468h5.06a6,6,0,0,1,2.28.38,4,4,0,0,1,1.41,1,3.3,3.3,0,0,1,.72,1.32,5.17,5.17,0,0,1,.2,1.42,5.05,5.05,0,0,1-.2,1.41,3.27,3.27,0,0,1-.72,1.33,4,4,0,0,1-1.41,1,6,6,0,0,1-2.28.38h-3.11v6.45h-2Zm2,6.45h2.56a7.08,7.08,0,0,0,1.13-.1,3,3,0,0,0,1-.34,1.84,1.84,0,0,0,.7-.71,2.95,2.95,0,0,0,0-2.42,1.84,1.84,0,0,0-.7-.71,3,3,0,0,0-1-.34,7.08,7.08,0,0,0-1.13-.1h-2.56Z"/>
        <path class="cls-3" d="M253.22,468h9.29v1.86h-7.34v4.36H262v1.86h-6.83v4.69h7.7v1.86h-9.65Z"/>
        <path class="cls-3" d="M265.64,468h5.06a5.87,5.87,0,0,1,2.27.38,4,4,0,0,1,1.42,1,3.56,3.56,0,0,1,.72,1.32,5.58,5.58,0,0,1,.2,1.42,3.84,3.84,0,0,1-.24,1.35,4,4,0,0,1-.7,1.18,4.11,4.11,0,0,1-1.12.89,3.76,3.76,0,0,1-1.48.44l4.09,6.68h-2.44l-3.66-6.45h-2.17v6.45h-1.95Zm1.95,6.45h2.56a7.19,7.19,0,0,0,1.13-.1,2.83,2.83,0,0,0,1-.34,1.77,1.77,0,0,0,.7-.71,2.85,2.85,0,0,0,0-2.42,1.77,1.77,0,0,0-.7-.71,2.83,2.83,0,0,0-1-.34,7.19,7.19,0,0,0-1.13-.1h-2.56Z"/>
        <path class="cls-3" d="M288.07,471.2a4.05,4.05,0,0,0-1.54-1.24,4.55,4.55,0,0,0-1.93-.43,5.11,5.11,0,0,0-2.21.46,5.19,5.19,0,0,0-1.69,1.27,5.86,5.86,0,0,0-1.08,1.89,6.86,6.86,0,0,0-.39,2.33,6.38,6.38,0,0,0,.37,2.19,5.49,5.49,0,0,0,1,1.82,5.08,5.08,0,0,0,1.69,1.23,5.28,5.28,0,0,0,2.26.46,4.36,4.36,0,0,0,2.17-.52,4.73,4.73,0,0,0,1.59-1.44l1.64,1.26a7,7,0,0,1-.57.65,5.86,5.86,0,0,1-1.07.84,7.64,7.64,0,0,1-1.62.75,6.9,6.9,0,0,1-2.18.32,7,7,0,0,1-3.08-.66,7.31,7.31,0,0,1-2.34-1.74,7.53,7.53,0,0,1-1.47-2.43,7.67,7.67,0,0,1-.51-2.73,8.58,8.58,0,0,1,.55-3.13,7.2,7.2,0,0,1,1.53-2.48,6.76,6.76,0,0,1,2.37-1.62,7.75,7.75,0,0,1,3.05-.58,7.17,7.17,0,0,1,2.79.56,5.18,5.18,0,0,1,2.25,1.71Z"/>
        <path class="cls-3" d="M292.36,468h9.29v1.86h-7.34v4.36h6.83v1.86h-6.83v4.69H302v1.86h-9.65Z"/>
        <path class="cls-3" d="M304.78,468h2.56l7.92,12h0V468h1.95v14.63h-2.48l-8-12h0v12h-2Z"/>
        <path class="cls-3" d="M324,469.9h-4.63V468h11.21v1.86h-4.63v12.77h-2Z"/>
        <path class="cls-3" d="M335.26,468H337l6.15,14.63h-2.27l-1.45-3.62h-6.84l-1.43,3.62h-2.27Zm3.49,9.28-2.68-6.72h0l-2.72,6.72Z"/>
        <path class="cls-3" d="M357.3,474.49v7.21a6.25,6.25,0,0,1-1.19.57,12,12,0,0,1-1.4.43,12.11,12.11,0,0,1-2.85.34,8.17,8.17,0,0,1-3.26-.62,7,7,0,0,1-3.92-4.12,8.29,8.29,0,0,1-.52-2.95,8,8,0,0,1,.56-3,7.4,7.4,0,0,1,1.54-2.44,7,7,0,0,1,2.37-1.62,7.51,7.51,0,0,1,3-.59,9,9,0,0,1,3.25.5,6,6,0,0,1,2.11,1.4l-1.38,1.51a5.05,5.05,0,0,0-1.89-1.21,6.36,6.36,0,0,0-2.09-.34,5.22,5.22,0,0,0-2.24.46,5.27,5.27,0,0,0-2.8,3.1,6.51,6.51,0,0,0-.39,2.26,6,6,0,0,0,.43,2.31,5.47,5.47,0,0,0,2.94,3.08,5.6,5.6,0,0,0,2.22.44,9.5,9.5,0,0,0,2-.2,5.25,5.25,0,0,0,1.57-.57v-4.07h-3.19v-1.85Z"/>
        <path class="cls-3" d="M360.86,468h9.29v1.86h-7.34v4.36h6.83v1.86h-6.83v4.69h7.7v1.86h-9.65Z"/>
      </g>
      <g class="cls-4">
        <g class="cls-4">
          <path class="cls-3" d="M57.86,28.5h2.25l4.23,11.9h0l4.39-11.9H70.9L65.23,43.12H63.4Z"/>
          <path class="cls-3" d="M76.2,28.5H78l6.16,14.62H81.86l-1.45-3.61H73.56l-1.42,3.61H69.87Zm3.5,9.27L77,31.06h0l-2.72,6.71Z"/>
          <path class="cls-3" d="M86,28.5h5.06a5.78,5.78,0,0,1,2.28.38,3.92,3.92,0,0,1,1.41,1,3.17,3.17,0,0,1,.72,1.32,5.12,5.12,0,0,1,.2,1.42,3.84,3.84,0,0,1-.24,1.35,3.92,3.92,0,0,1-.7,1.18,4.11,4.11,0,0,1-1.12.89,3.76,3.76,0,0,1-1.47.44l4.08,6.67H93.78l-3.65-6.44H88v6.44H86Zm2,6.44h2.56a7.08,7.08,0,0,0,1.13-.09,3.19,3.19,0,0,0,1-.34,1.91,1.91,0,0,0,.7-.71,2.52,2.52,0,0,0,.26-1.21,2.5,2.5,0,0,0-.26-1.21,1.84,1.84,0,0,0-.7-.71,3,3,0,0,0-1-.34,6.09,6.09,0,0,0-1.13-.1H88Z"/>
          <path class="cls-3" d="M98.42,28.5h2V43.12h-2Z"/>
          <path class="cls-3" d="M104.07,28.5h9.28v1.86H106v4.35h6.83v1.86H106v4.69h7.7v1.86h-9.65Z"/>
          <path class="cls-3" d="M119.49,30.36h-4.63V28.5h11.21v1.86h-4.63V43.12h-2Z"/>
          <path class="cls-3" d="M131.54,36.88l-5.45-8.38h2.5l3.93,6.42,4-6.42h2.38l-5.45,8.38v6.24h-2Z"/>
          <path class="cls-3" d="M139.69,35.93a1.29,1.29,0,0,1-.95-.4,1.38,1.38,0,0,1,0-1.92,1.29,1.29,0,0,1,.95-.4,1.26,1.26,0,0,1,.94.4,1.35,1.35,0,0,1,0,1.92A1.26,1.26,0,0,1,139.69,35.93Zm-1.34,6a1.35,1.35,0,0,1,1.34-1.36A1.37,1.37,0,0,1,141,41.88a1.38,1.38,0,0,1-1.34,1.37,1.37,1.37,0,0,1-1.34-1.37Z"/>
        </g>
        <g>
          <path class="cls-5" d="M162.55,40.42a3.42,3.42,0,0,0,1.39,1.38,4.13,4.13,0,0,0,1.95.46,3.78,3.78,0,0,0,1.28-.21,3.34,3.34,0,0,0,1.05-.58,2.8,2.8,0,0,0,.7-.9,2.67,2.67,0,0,0,.26-1.19,2.31,2.31,0,0,0-.32-1.26,2.57,2.57,0,0,0-.86-.81,5.85,5.85,0,0,0-1.21-.55l-1.38-.45c-.48-.16-.94-.33-1.39-.52a5,5,0,0,1-1.21-.75,3.4,3.4,0,0,1-.85-1.17,4.1,4.1,0,0,1-.32-1.74,3.69,3.69,0,0,1,.38-1.72,3.62,3.62,0,0,1,1-1.26,4.64,4.64,0,0,1,1.5-.77,6.18,6.18,0,0,1,1.78-.26,5.82,5.82,0,0,1,2.22.43A4.16,4.16,0,0,1,170.31,30l-1.17.85a3.52,3.52,0,0,0-1.21-1.08,3.39,3.39,0,0,0-1.64-.37,4.36,4.36,0,0,0-1.26.18,3.23,3.23,0,0,0-1.05.52,2.56,2.56,0,0,0-.71.85,2.61,2.61,0,0,0-.27,1.22,2.39,2.39,0,0,0,.56,1.69,4,4,0,0,0,1.39.93,16.2,16.2,0,0,0,1.82.59,9.17,9.17,0,0,1,1.82.7A3.85,3.85,0,0,1,170,37.25a3.52,3.52,0,0,1,.56,2.13,4,4,0,0,1-.37,1.76,3.86,3.86,0,0,1-1,1.29,4.41,4.41,0,0,1-1.46.8,5.46,5.46,0,0,1-1.71.27,6.83,6.83,0,0,1-2.67-.51,5,5,0,0,1-2.09-1.7Z"/>
          <path class="cls-5" d="M176.88,29.74h-5V28.5h11.37v1.24h-5V43.12h-1.37Z"/>
          <path class="cls-5" d="M188.58,28.5H190l6.16,14.62h-1.53L193,39.24h-7.75l-1.65,3.88H182.2Zm.64,1.48-3.41,8h6.72Z"/>
          <path class="cls-5" d="M198.25,28.5H200l8.91,12.81h0V28.5h1.36V43.12h-1.75l-8.91-12.81h0V43.12h-1.36Z"/>
          <path class="cls-5" d="M214.13,28.5h4.53a9.75,9.75,0,0,1,3.22.46,7.17,7.17,0,0,1,2.2,1.19,5.78,5.78,0,0,1,1.39,1.6,8.55,8.55,0,0,1,.74,1.68,7.75,7.75,0,0,1,.3,1.46c0,.43.06.74.06.92s0,.49-.06.92a7.75,7.75,0,0,1-.3,1.46,8.55,8.55,0,0,1-.74,1.68,5.93,5.93,0,0,1-1.39,1.6,7.17,7.17,0,0,1-2.2,1.19,9.75,9.75,0,0,1-3.22.46h-4.53Zm1.37,13.38h2.81a9.91,9.91,0,0,0,2.71-.36,6.14,6.14,0,0,0,2.18-1.1,5.31,5.31,0,0,0,1.47-1.89,7.12,7.12,0,0,0,0-5.44,5.31,5.31,0,0,0-1.47-1.89A6.14,6.14,0,0,0,221,30.1a9.91,9.91,0,0,0-2.71-.36H215.5Z"/>
          <path class="cls-5" d="M234.11,28.5h1.41l6.15,14.62h-1.52l-1.6-3.88h-7.74l-1.66,3.88h-1.42Zm.64,1.48-3.41,8h6.72Z"/>
          <path class="cls-5" d="M243.78,28.5h3.84c.2,0,.46,0,.79,0a7.15,7.15,0,0,1,1.07.12,6.74,6.74,0,0,1,1.18.33,3.34,3.34,0,0,1,1.08.66,3.63,3.63,0,0,1,.78,1.1,3.73,3.73,0,0,1,.31,1.61,3.67,3.67,0,0,1-.36,1.73,3.24,3.24,0,0,1-.91,1.11,3.88,3.88,0,0,1-1.21.63,8.08,8.08,0,0,1-1.26.29l4.26,7H251.8l-4.11-6.94h-2.55v6.94h-1.36Zm1.36,6.44H248a4.71,4.71,0,0,0,1.74-.27,2.83,2.83,0,0,0,1.05-.66,2.16,2.16,0,0,0,.5-.84,2.53,2.53,0,0,0,0-1.66,2.16,2.16,0,0,0-.5-.84,2.84,2.84,0,0,0-1.05-.67,5,5,0,0,0-1.74-.26h-2.9Z"/>
          <path class="cls-5" d="M255.85,28.5h4.52a9.75,9.75,0,0,1,3.22.46,7.05,7.05,0,0,1,2.2,1.19,5.78,5.78,0,0,1,1.39,1.6,8,8,0,0,1,.74,1.68,7.75,7.75,0,0,1,.3,1.46c0,.43.07.74.07.92s0,.49-.07.92a7.75,7.75,0,0,1-.3,1.46,8,8,0,0,1-.74,1.68,5.93,5.93,0,0,1-1.39,1.6,7.05,7.05,0,0,1-2.2,1.19,9.75,9.75,0,0,1-3.22.46h-4.52Zm1.36,13.38H260a9.86,9.86,0,0,0,2.71-.36,6.27,6.27,0,0,0,2.19-1.1,5.17,5.17,0,0,0,1.46-1.89,7.12,7.12,0,0,0,0-5.44,5.17,5.17,0,0,0-1.46-1.89,6.27,6.27,0,0,0-2.19-1.1,9.86,9.86,0,0,0-2.71-.36h-2.81Z"/>
        </g>
        <g class="cls-4">
          <path class="cls-3" d="M59.83,61.78h5.06a5.87,5.87,0,0,1,2.27.38,3.89,3.89,0,0,1,1.42,1,3.41,3.41,0,0,1,.72,1.32,5.11,5.11,0,0,1,0,2.83,3.41,3.41,0,0,1-.72,1.32,3.88,3.88,0,0,1-1.42,1,5.69,5.69,0,0,1-2.27.38H61.78v6.45h-2Zm2,6.45h2.56a7.17,7.17,0,0,0,1.13-.09,3.06,3.06,0,0,0,1-.35,1.77,1.77,0,0,0,.7-.71,2.38,2.38,0,0,0,.27-1.21,2.41,2.41,0,0,0-.27-1.21,1.84,1.84,0,0,0-.7-.71,3,3,0,0,0-1-.34,7.17,7.17,0,0,0-1.13-.09H61.78Z"/>
          <path class="cls-3" d="M78.48,76.78a7.51,7.51,0,0,1-3-.59,6.9,6.9,0,0,1-2.36-1.62,7.59,7.59,0,0,1-1.55-2.44,8.5,8.5,0,0,1,0-6.07,7.59,7.59,0,0,1,1.55-2.44A6.9,6.9,0,0,1,75.45,62a8.08,8.08,0,0,1,6.06,0,7,7,0,0,1,2.37,1.62,7.4,7.4,0,0,1,1.54,2.44,8.5,8.5,0,0,1,0,6.07,7.4,7.4,0,0,1-1.54,2.44,7,7,0,0,1-2.37,1.62A7.51,7.51,0,0,1,78.48,76.78Zm0-1.86a5.25,5.25,0,0,0,2.24-.46,5.27,5.27,0,0,0,2.8-3.1,6.77,6.77,0,0,0,0-4.53A5.52,5.52,0,0,0,82.43,65a5.29,5.29,0,0,0-1.71-1.24A5.37,5.37,0,0,0,74.54,65a5.72,5.72,0,0,0-1.1,1.85,6.94,6.94,0,0,0,0,4.53,5.72,5.72,0,0,0,1.1,1.85,5.18,5.18,0,0,0,3.94,1.71Z"/>
          <path class="cls-3" d="M88.79,61.78h5a5.93,5.93,0,0,1,2.28.38,3.77,3.77,0,0,1,1.41,1,3.17,3.17,0,0,1,.72,1.32,4.87,4.87,0,0,1,0,2.83,3.17,3.17,0,0,1-.72,1.32,3.75,3.75,0,0,1-1.41,1,5.74,5.74,0,0,1-2.28.38H90.73v6.45H88.79Zm1.94,6.45h2.56a7.08,7.08,0,0,0,1.13-.09,3,3,0,0,0,1-.35,1.84,1.84,0,0,0,.7-.71,2.39,2.39,0,0,0,.26-1.21,2.41,2.41,0,0,0-.26-1.21,1.91,1.91,0,0,0-.7-.71,3,3,0,0,0-1-.34,7.08,7.08,0,0,0-1.13-.09H90.73Z"/>
          <path class="cls-3" d="M102.52,61.78v9a5.86,5.86,0,0,0,.18,1.41,4.51,4.51,0,0,0,.61,1.36,3.24,3.24,0,0,0,2.83,1.4,3.46,3.46,0,0,0,1.71-.39,3.28,3.28,0,0,0,1.11-1,4.06,4.06,0,0,0,.61-1.36,5.43,5.43,0,0,0,.19-1.41v-9h1.95v9.28a6.15,6.15,0,0,1-.43,2.32,5.46,5.46,0,0,1-1.18,1.81,5.23,5.23,0,0,1-1.77,1.18,6.08,6.08,0,0,1-4.39,0,5.29,5.29,0,0,1-1.76-1.18A5.46,5.46,0,0,1,101,73.38a6,6,0,0,1-.43-2.32V61.78Z"/>
          <path class="cls-3" d="M115.14,61.78h2V74.55h6.61v1.86h-8.56Z"/>
          <path class="cls-3" d="M130.2,61.78H132l6.15,14.63h-2.27l-1.44-3.62h-6.85l-1.43,3.62h-2.27Zm3.49,9.28L131,64.34h0l-2.72,6.72Z"/>
          <path class="cls-3" d="M140,61.78h5.06a6,6,0,0,1,2.28.38,3.77,3.77,0,0,1,1.41,1,3.17,3.17,0,0,1,.72,1.32,5.13,5.13,0,0,1,.21,1.41,3.72,3.72,0,0,1-.25,1.36,3.68,3.68,0,0,1-.7,1.17,3.92,3.92,0,0,1-2.59,1.34l4.09,6.67h-2.44L144.12,70H142v6.45h-2Zm2,6.45h2.56a7,7,0,0,0,1.12-.09,3,3,0,0,0,1-.35,1.84,1.84,0,0,0,.7-.71,2.39,2.39,0,0,0,.26-1.21,2.41,2.41,0,0,0-.26-1.21,1.91,1.91,0,0,0-.7-.71,3,3,0,0,0-1-.34,7,7,0,0,0-1.12-.09H142Z"/>
          <path class="cls-3" d="M152.41,61.78h2V76.41h-2Z"/>
          <path class="cls-3" d="M161.07,63.64h-4.64V61.78h11.22v1.86H163V76.41h-2Z"/>
          <path class="cls-3" d="M173.12,70.17l-5.45-8.39h2.5l3.92,6.43,4-6.43h2.37l-5.44,8.39v6.24h-1.95Z"/>
          <path class="cls-3" d="M181.27,69.22a1.29,1.29,0,0,1-1-.4,1.34,1.34,0,0,1-.39-1,1.37,1.37,0,0,1,1.34-1.37,1.38,1.38,0,0,1,1.34,1.37,1.31,1.31,0,0,1-.4,1A1.26,1.26,0,0,1,181.27,69.22Zm-1.34,6a1.34,1.34,0,0,1,.39-1,1.29,1.29,0,0,1,1-.4,1.26,1.26,0,0,1,.94.4,1.35,1.35,0,0,1,0,1.92,1.26,1.26,0,0,1-.94.4,1.29,1.29,0,0,1-1-.4A1.34,1.34,0,0,1,179.93,75.17Z"/>
        </g>
        <g class="cls-4">
          <path class="cls-3" d="M205.88,68.23h0a2.42,2.42,0,0,1,1-.47,5,5,0,0,1,1.15-.15,4.47,4.47,0,0,1,1.77.35,4.16,4.16,0,0,1,1.4,1,4.26,4.26,0,0,1,.91,1.43,4.63,4.63,0,0,1,.33,1.76,4.77,4.77,0,0,1-.35,1.83,4.3,4.3,0,0,1-1,1.44,4.6,4.6,0,0,1-1.5.94,5.34,5.34,0,0,1-3.75,0,4.6,4.6,0,0,1-1.5-.94,4.14,4.14,0,0,1-1-1.44,4.6,4.6,0,0,1-.36-1.83,4.79,4.79,0,0,1,.12-1.09,5.13,5.13,0,0,1,.33-1c.13-.31.28-.61.42-.88s.3-.54.45-.79l3.9-6.59h1.55Zm1.87.45a3.18,3.18,0,0,0-1.32.27,3.33,3.33,0,0,0-1.07.73,3.38,3.38,0,0,0-.72,1.1,3.33,3.33,0,0,0-.27,1.33,3.71,3.71,0,0,0,.25,1.4,3,3,0,0,0,.69,1.08,3.06,3.06,0,0,0,1.06.7,3.91,3.91,0,0,0,2.75,0,3,3,0,0,0,1.06-.7,3,3,0,0,0,.69-1.08,3.71,3.71,0,0,0,.25-1.4,3.5,3.5,0,0,0-.26-1.33,3.58,3.58,0,0,0-.73-1.1,3.33,3.33,0,0,0-1.07-.73A3.27,3.27,0,0,0,207.75,68.68Z"/>
          <path class="cls-3" d="M213.56,69.1c0-.53,0-1.08.07-1.67a12.16,12.16,0,0,1,.26-1.71,9,9,0,0,1,.53-1.59,4.69,4.69,0,0,1,.87-1.34,4,4,0,0,1,1.26-.92,4.35,4.35,0,0,1,1.76-.34,4.28,4.28,0,0,1,1.76.34,4,4,0,0,1,1.27.92,4.88,4.88,0,0,1,.86,1.34,8.25,8.25,0,0,1,.53,1.59,12.18,12.18,0,0,1,.27,1.71c0,.59.07,1.14.07,1.67s0,1.09-.07,1.67a11.81,11.81,0,0,1-.27,1.7,8.58,8.58,0,0,1-.53,1.6,5,5,0,0,1-.86,1.33,4,4,0,0,1-1.27.92,4.28,4.28,0,0,1-1.76.34,4.35,4.35,0,0,1-1.76-.34,4,4,0,0,1-1.26-.92,4.78,4.78,0,0,1-.87-1.33,9.38,9.38,0,0,1-.53-1.6,11.81,11.81,0,0,1-.26-1.7C213.58,70.19,213.56,69.63,213.56,69.1Zm1.34,0c0,.38,0,.81,0,1.27a13.64,13.64,0,0,0,.16,1.4,8.46,8.46,0,0,0,.36,1.4,4.51,4.51,0,0,0,.61,1.2,2.86,2.86,0,0,0,.92.85,2.86,2.86,0,0,0,2.63,0,2.73,2.73,0,0,0,.94-.85,4.83,4.83,0,0,0,.61-1.2,9.55,9.55,0,0,0,.35-1.4,11.37,11.37,0,0,0,.17-1.4c0-.46,0-.89,0-1.27s0-.8,0-1.26a11.69,11.69,0,0,0-.17-1.42,9.43,9.43,0,0,0-.35-1.39,4.73,4.73,0,0,0-.61-1.21,2.84,2.84,0,0,0-.94-.85A2.84,2.84,0,0,0,217,63a2.91,2.91,0,0,0-.93.85,4.43,4.43,0,0,0-.61,1.21,8.35,8.35,0,0,0-.36,1.39,14,14,0,0,0-.16,1.42C214.91,68.3,214.9,68.72,214.9,69.1Z"/>
          <path class="cls-3" d="M225.26,75.54a1,1,0,0,1,.29-.7,1,1,0,0,1,1.38,0,1,1,0,0,1,.28.7,1,1,0,0,1-.28.71,1,1,0,0,1-1.38,0A1,1,0,0,1,225.26,75.54Z"/>
          <path class="cls-3" d="M231,73.35A3.71,3.71,0,0,0,232.14,75a3,3,0,0,0,1.92.57,3.57,3.57,0,0,0,1.4-.25,2.69,2.69,0,0,0,1-.68,3,3,0,0,0,.6-1,3.88,3.88,0,0,0,.2-1.24,2.71,2.71,0,0,0-.33-1.38,2.84,2.84,0,0,0-.88-.94,3.74,3.74,0,0,0-1.22-.53,5.78,5.78,0,0,0-1.37-.17h-.53V68.1h.61A4.6,4.6,0,0,0,234.7,68a3.11,3.11,0,0,0,1-.49,2.55,2.55,0,0,0,.74-.85,2.65,2.65,0,0,0,.28-1.27A2.71,2.71,0,0,0,236,63.4a2.57,2.57,0,0,0-1.94-.75,2.86,2.86,0,0,0-1.6.47,3.09,3.09,0,0,0-1.12,1.25l-1.16-.67a3.7,3.7,0,0,1,1.62-1.65,5.15,5.15,0,0,1,3.81-.28,3.88,3.88,0,0,1,1.28.7,3.3,3.3,0,0,1,.86,1.17,4,4,0,0,1,.32,1.65,3.54,3.54,0,0,1-.66,2.12,3.28,3.28,0,0,1-1.91,1.27v0a3.61,3.61,0,0,1,1.25.47,3.75,3.75,0,0,1,1,.84,3.8,3.8,0,0,1,.63,1.11,3.85,3.85,0,0,1,.22,1.32,4.91,4.91,0,0,1-.27,1.64,3.6,3.6,0,0,1-.83,1.33,4,4,0,0,1-1.4.9,5.24,5.24,0,0,1-2,.33,5.17,5.17,0,0,1-2.75-.69,4.27,4.27,0,0,1-1.7-2.18Z"/>
          <path class="cls-3" d="M248.45,62.9l-5.73,13.51h-1.36l5.83-13.51h-6.91V61.78h8.17Z"/>
          <path class="cls-3" d="M250.79,65.09a3.58,3.58,0,0,1,2.13-3.28,3.44,3.44,0,0,1,2.72,0,3.58,3.58,0,0,1,2.14,3.28,3.51,3.51,0,0,1-.28,1.38,3.6,3.6,0,0,1-.75,1.13,3.54,3.54,0,0,1-1.11.76,3.44,3.44,0,0,1-2.72,0,3.54,3.54,0,0,1-1.11-.76,3.6,3.6,0,0,1-.75-1.13A3.5,3.5,0,0,1,250.79,65.09Zm1.09,0a2.39,2.39,0,0,0,.2,1,2.52,2.52,0,0,0,.51.77,2.28,2.28,0,0,0,.77.52,2.32,2.32,0,0,0,1.84,0,2.28,2.28,0,0,0,.77-.52,2.75,2.75,0,0,0,.52-.77,2.57,2.57,0,0,0,.19-1,2.49,2.49,0,0,0-.19-1,2.66,2.66,0,0,0-.52-.78,2.25,2.25,0,0,0-.77-.51,2.32,2.32,0,0,0-1.84,0,2.25,2.25,0,0,0-.77.51,2.45,2.45,0,0,0-.51.78A2.32,2.32,0,0,0,251.88,65.09Zm10.61-4,.94.58-9.29,15.45-.92-.58Zm-3.68,12a3.37,3.37,0,0,1,.28-1.38,3.6,3.6,0,0,1,.75-1.13,3.71,3.71,0,0,1,1.11-.76,3.25,3.25,0,0,1,1.36-.28,3.28,3.28,0,0,1,1.36.28,3.71,3.71,0,0,1,1.11.76,3.6,3.6,0,0,1,.75,1.13,3.69,3.69,0,0,1,0,2.77,3.44,3.44,0,0,1-.75,1.12,3.57,3.57,0,0,1-1.11.77,3.45,3.45,0,0,1-1.36.28,3.41,3.41,0,0,1-1.36-.28,3.57,3.57,0,0,1-1.11-.77,3.44,3.44,0,0,1-.75-1.12A3.39,3.39,0,0,1,258.81,73.1Zm1.1,0a2.4,2.4,0,0,0,.19,1,2.55,2.55,0,0,0,.52.77,2.51,2.51,0,0,0,.76.52,2.36,2.36,0,0,0,2.61-.52,2.55,2.55,0,0,0,.52-.77,2.55,2.55,0,0,0,0-1.93,2.55,2.55,0,0,0-.52-.77,2.41,2.41,0,0,0-2.61-.52,2.51,2.51,0,0,0-.76.52,2.55,2.55,0,0,0-.52.77A2.38,2.38,0,0,0,259.91,73.1Z"/>
        </g>
      </g>
      <line class="cls-6" x1="118.72" y1="115.6" x2="482.34" y2="115.6"/>
      <g>
        <g>
          <g>
            <path class="cls-3" d="M65.79,432.5c0-.55,0-1.13.07-1.75a12,12,0,0,1,.29-1.81,9.2,9.2,0,0,1,.56-1.68,5,5,0,0,1,.93-1.4,4.17,4.17,0,0,1,1.36-1,5.12,5.12,0,0,1,3.77,0,4.06,4.06,0,0,1,1.36,1,5,5,0,0,1,.93,1.4,9.22,9.22,0,0,1,.57,1.68,12,12,0,0,1,.28,1.81c0,.62.08,1.2.08,1.75s0,1.16-.08,1.77a12,12,0,0,1-.28,1.8,9.39,9.39,0,0,1-.57,1.67,5.23,5.23,0,0,1-.93,1.41,4.06,4.06,0,0,1-1.36,1,5.12,5.12,0,0,1-3.77,0,4.17,4.17,0,0,1-1.36-1,5.23,5.23,0,0,1-.93-1.41,9.36,9.36,0,0,1-.56-1.67,12.06,12.06,0,0,1-.29-1.8C65.81,433.66,65.79,433.07,65.79,432.5Zm1.44,0c0,.41,0,.86,0,1.34s.09,1,.17,1.49a9.37,9.37,0,0,0,.39,1.47,4.61,4.61,0,0,0,.65,1.27,3.12,3.12,0,0,0,1,.89,3.09,3.09,0,0,0,2.82,0,3.08,3.08,0,0,0,1-.89A5.23,5.23,0,0,0,74,436.8a9.33,9.33,0,0,0,.38-1.47,11.15,11.15,0,0,0,.17-1.49c0-.48,0-.93,0-1.34s0-.83,0-1.33a11,11,0,0,0-.17-1.49,9.33,9.33,0,0,0-.38-1.47,5.23,5.23,0,0,0-.65-1.27,3.23,3.23,0,0,0-1-.9,3.07,3.07,0,0,0-2.81,0,3.19,3.19,0,0,0-1,.9,4.61,4.61,0,0,0-.65,1.27,9.37,9.37,0,0,0-.39,1.47c-.08.5-.14,1-.17,1.49S67.23,432.11,67.23,432.5Z"/>
            <g>
              <path class="cls-3" d="M142.73,426.62h0l-2.79,2.29-.8-1,3.81-3.12H144v15.43h-1.3Z"/>
              <path class="cls-3" d="M148.94,432.5c0-.55,0-1.13.07-1.75a12,12,0,0,1,.29-1.81,8.5,8.5,0,0,1,.56-1.68,5,5,0,0,1,.93-1.4,4.17,4.17,0,0,1,1.36-1,5.12,5.12,0,0,1,3.77,0,4.06,4.06,0,0,1,1.36,1,5,5,0,0,1,.93,1.4,9.22,9.22,0,0,1,.57,1.68,13.38,13.38,0,0,1,.28,1.81c.05.62.08,1.2.08,1.75s0,1.16-.08,1.77a13.48,13.48,0,0,1-.28,1.8,9.39,9.39,0,0,1-.57,1.67,5.23,5.23,0,0,1-.93,1.41,4.06,4.06,0,0,1-1.36,1,5.12,5.12,0,0,1-3.77,0,4.17,4.17,0,0,1-1.36-1,5.23,5.23,0,0,1-.93-1.41,8.63,8.63,0,0,1-.56-1.67,12.06,12.06,0,0,1-.29-1.8C149,433.66,148.94,433.07,148.94,432.5Zm1.43,0c0,.41,0,.86,0,1.34s.09,1,.17,1.49a10.57,10.57,0,0,0,.38,1.47,4.92,4.92,0,0,0,.66,1.27,3.12,3.12,0,0,0,1,.89,3.09,3.09,0,0,0,2.82,0,3,3,0,0,0,1-.89,4.92,4.92,0,0,0,.66-1.27,10.57,10.57,0,0,0,.38-1.47,13.08,13.08,0,0,0,.17-1.49c0-.48,0-.93,0-1.34s0-.83,0-1.33a12.83,12.83,0,0,0-.17-1.49,10.57,10.57,0,0,0-.38-1.47,4.92,4.92,0,0,0-.66-1.27,3.19,3.19,0,0,0-1-.9,3.07,3.07,0,0,0-2.81,0,3.19,3.19,0,0,0-1,.9,4.92,4.92,0,0,0-.66,1.27,10.57,10.57,0,0,0-.38,1.47c-.08.5-.14,1-.17,1.49S150.37,432.11,150.37,432.5Z"/>
            </g>
            <g>
              <path class="cls-3" d="M215.41,438.69l5.8-6.12c.26-.26.52-.54.79-.84a7.9,7.9,0,0,0,.7-.94,5,5,0,0,0,.52-1,3.52,3.52,0,0,0,.19-1.18,2.66,2.66,0,0,0-.87-2.11,3.21,3.21,0,0,0-2.2-.77,3.09,3.09,0,0,0-2,.7,3.21,3.21,0,0,0-1.06,1.83l-1.53-.15a4.14,4.14,0,0,1,1.63-2.67,5.21,5.21,0,0,1,3.06-.88,5.36,5.36,0,0,1,1.7.27,4.58,4.58,0,0,1,1.41.77,3.63,3.63,0,0,1,1.33,2.9,4.94,4.94,0,0,1-.27,1.66,6.76,6.76,0,0,1-.72,1.45,8.45,8.45,0,0,1-1,1.29c-.38.41-.77.82-1.16,1.22l-4.82,5H225v1.18h-9.55Z"/>
              <path class="cls-3" d="M226.42,432.5c0-.55,0-1.13.08-1.75a12,12,0,0,1,.28-1.81,9.22,9.22,0,0,1,.57-1.68,5,5,0,0,1,.92-1.4,4.17,4.17,0,0,1,1.36-1,4.55,4.55,0,0,1,1.89-.36,4.5,4.5,0,0,1,1.88.36,4.21,4.21,0,0,1,1.37,1,5.23,5.23,0,0,1,.92,1.4,9.22,9.22,0,0,1,.57,1.68,12,12,0,0,1,.28,1.81c.05.62.08,1.2.08,1.75s0,1.16-.08,1.77a12,12,0,0,1-.28,1.8,9.39,9.39,0,0,1-.57,1.67,5.45,5.45,0,0,1-.92,1.41,4.21,4.21,0,0,1-1.37,1,4.5,4.5,0,0,1-1.88.36,4.55,4.55,0,0,1-1.89-.36,4.17,4.17,0,0,1-1.36-1,5.2,5.2,0,0,1-.92-1.41,9.39,9.39,0,0,1-.57-1.67,12,12,0,0,1-.28-1.8C226.45,433.66,226.42,433.07,226.42,432.5Zm1.44,0c0,.41,0,.86,0,1.34a13.14,13.14,0,0,0,.18,1.49,8.36,8.36,0,0,0,.38,1.47,4.61,4.61,0,0,0,.65,1.27,3.12,3.12,0,0,0,1,.89,2.79,2.79,0,0,0,1.42.34,2.72,2.72,0,0,0,1.4-.34,3.08,3.08,0,0,0,1-.89,4.9,4.9,0,0,0,.65-1.27,9.33,9.33,0,0,0,.38-1.47,13.14,13.14,0,0,0,.18-1.49c0-.48,0-.93,0-1.34s0-.83,0-1.33a12.87,12.87,0,0,0-.18-1.49,9.33,9.33,0,0,0-.38-1.47,4.9,4.9,0,0,0-.65-1.27,3.23,3.23,0,0,0-1-.9,2.82,2.82,0,0,0-1.4-.34,2.88,2.88,0,0,0-1.41.34,3.19,3.19,0,0,0-1,.9,4.61,4.61,0,0,0-.65,1.27,8.36,8.36,0,0,0-.38,1.47,12.87,12.87,0,0,0-.18,1.49C227.87,431.67,227.86,432.11,227.86,432.5Z"/>
            </g>
            <g>
              <path class="cls-3" d="M294.31,437a4,4,0,0,0,1.19,1.71,3.22,3.22,0,0,0,2.06.6,3.87,3.87,0,0,0,1.5-.26,2.77,2.77,0,0,0,1.08-.72,3,3,0,0,0,.65-1.07A3.94,3.94,0,0,0,301,436a2.8,2.8,0,0,0-.36-1.46,3,3,0,0,0-.93-1,4.06,4.06,0,0,0-1.31-.56,6.16,6.16,0,0,0-1.47-.18h-.57v-1.3H297a4.86,4.86,0,0,0,1.23-.17,3.52,3.52,0,0,0,1.11-.51,2.55,2.55,0,0,0,.79-.9,2.68,2.68,0,0,0,.31-1.34,2.82,2.82,0,0,0-.77-2,2.79,2.79,0,0,0-2.09-.8,3.17,3.17,0,0,0-1.72.49,3.47,3.47,0,0,0-1.2,1.32l-1.24-.69a4,4,0,0,1,1.73-1.75,5.48,5.48,0,0,1,2.43-.54,5.29,5.29,0,0,1,1.66.25,4,4,0,0,1,1.37.74,3.46,3.46,0,0,1,.93,1.23,4.09,4.09,0,0,1,.34,1.74,3.77,3.77,0,0,1-.7,2.24,3.62,3.62,0,0,1-2.05,1.34v0a3.9,3.9,0,0,1,1.34.49,4.22,4.22,0,0,1,1,.88,3.93,3.93,0,0,1,.67,1.18,4,4,0,0,1,.24,1.4,5.13,5.13,0,0,1-.29,1.72,3.92,3.92,0,0,1-.9,1.4,4.19,4.19,0,0,1-1.49.95,5.75,5.75,0,0,1-2.09.35,5.56,5.56,0,0,1-2.95-.73,4.4,4.4,0,0,1-1.82-2.3Z"/>
              <path class="cls-3" d="M303.9,432.5c0-.55,0-1.13.08-1.75a12,12,0,0,1,.28-1.81,9.22,9.22,0,0,1,.57-1.68,5.23,5.23,0,0,1,.92-1.4,4.21,4.21,0,0,1,1.37-1,5.12,5.12,0,0,1,3.77,0,4.17,4.17,0,0,1,1.36,1,4.79,4.79,0,0,1,.92,1.4,9.22,9.22,0,0,1,.57,1.68,13.39,13.39,0,0,1,.29,1.81c.05.62.07,1.2.07,1.75s0,1.16-.07,1.77a13.5,13.5,0,0,1-.29,1.8,9.39,9.39,0,0,1-.57,1.67,5,5,0,0,1-.92,1.41,4.17,4.17,0,0,1-1.36,1,5.12,5.12,0,0,1-3.77,0,4.21,4.21,0,0,1-1.37-1,5.45,5.45,0,0,1-.92-1.41,9.39,9.39,0,0,1-.57-1.67,12,12,0,0,1-.28-1.8C303.93,433.66,303.9,433.07,303.9,432.5Zm1.44,0c0,.41,0,.86,0,1.34a13.14,13.14,0,0,0,.18,1.49,9.33,9.33,0,0,0,.38,1.47,5.23,5.23,0,0,0,.65,1.27,3.12,3.12,0,0,0,1,.89,3.11,3.11,0,0,0,2.83,0,3,3,0,0,0,1-.89,4.61,4.61,0,0,0,.65-1.27,9.37,9.37,0,0,0,.39-1.47c.08-.51.14-1,.17-1.49s0-.93,0-1.34,0-.83,0-1.33-.09-1-.17-1.49a9.37,9.37,0,0,0-.39-1.47,4.61,4.61,0,0,0-.65-1.27,3.19,3.19,0,0,0-1-.9,2.88,2.88,0,0,0-1.41-.34,2.84,2.84,0,0,0-1.4.34,3.23,3.23,0,0,0-1,.9,5.23,5.23,0,0,0-.65,1.27,9.33,9.33,0,0,0-.38,1.47,12.87,12.87,0,0,0-.18,1.49C305.36,431.67,305.34,432.11,305.34,432.5Z"/>
            </g>
            <g>
              <path class="cls-3" d="M376.66,436.43H370v-1.55l6.16-10.09H378v10.46h2.36v1.18H378v3.79h-1.3Zm0-10.2h-.05l-5.45,9h5.5Z"/>
              <path class="cls-3" d="M381.38,432.5c0-.55,0-1.13.08-1.75a13.38,13.38,0,0,1,.28-1.81,9.22,9.22,0,0,1,.57-1.68,5,5,0,0,1,.93-1.4,4.17,4.17,0,0,1,1.36-1,5.12,5.12,0,0,1,3.77,0,4.17,4.17,0,0,1,1.36,1,5,5,0,0,1,.93,1.4,8.5,8.5,0,0,1,.56,1.68,12,12,0,0,1,.29,1.81c.05.62.07,1.2.07,1.75s0,1.16-.07,1.77a12.06,12.06,0,0,1-.29,1.8,8.63,8.63,0,0,1-.56,1.67,5.23,5.23,0,0,1-.93,1.41,4.17,4.17,0,0,1-1.36,1,5.12,5.12,0,0,1-3.77,0,4.17,4.17,0,0,1-1.36-1,5.23,5.23,0,0,1-.93-1.41,9.39,9.39,0,0,1-.57-1.67,13.48,13.48,0,0,1-.28-1.8C381.41,433.66,381.38,433.07,381.38,432.5Zm1.44,0c0,.41,0,.86.05,1.34a13.08,13.08,0,0,0,.17,1.49,9.33,9.33,0,0,0,.38,1.47,4.92,4.92,0,0,0,.66,1.27,3,3,0,0,0,1,.89,2.73,2.73,0,0,0,1.41.34,2.78,2.78,0,0,0,1.41-.34,3,3,0,0,0,1-.89,4.92,4.92,0,0,0,.66-1.27,10.57,10.57,0,0,0,.38-1.47c.08-.51.14-1,.17-1.49s0-.93,0-1.34,0-.83,0-1.33-.09-1-.17-1.49a10.57,10.57,0,0,0-.38-1.47,4.92,4.92,0,0,0-.66-1.27,3.19,3.19,0,0,0-1-.9,3.07,3.07,0,0,0-2.81,0,3.09,3.09,0,0,0-1,.9,4.92,4.92,0,0,0-.66,1.27,9.33,9.33,0,0,0-.38,1.47,12.83,12.83,0,0,0-.17,1.49C382.84,431.67,382.82,432.11,382.82,432.5Z"/>
            </g>
            <g>
              <path class="cls-3" d="M456.78,426h-6.37l-.06,4.9a3.32,3.32,0,0,1,1.09-.35,7.65,7.65,0,0,1,1.16-.09,4.77,4.77,0,0,1,2,.41,4.49,4.49,0,0,1,1.51,1.1,5,5,0,0,1,1,1.62,5.82,5.82,0,0,1,.34,2,5,5,0,0,1-.45,2.18,4.6,4.6,0,0,1-1.17,1.55,4.77,4.77,0,0,1-1.59.91,5,5,0,0,1-1.72.31,5.32,5.32,0,0,1-2.84-.7,4.72,4.72,0,0,1-1.78-1.92l1.35-.67a3.23,3.23,0,0,0,.54.82,3.82,3.82,0,0,0,.77.67,3.57,3.57,0,0,0,.94.46,3.2,3.2,0,0,0,1,.16,3.13,3.13,0,0,0,1.14-.23,3.78,3.78,0,0,0,1.13-.68,3.68,3.68,0,0,0,.87-1.16,3.57,3.57,0,0,0,.35-1.61,4.09,4.09,0,0,0-.3-1.56,3.83,3.83,0,0,0-3.58-2.45,4.67,4.67,0,0,0-1.61.29,6.16,6.16,0,0,0-1.44.76l.13-7.87h7.61Z"/>
              <path class="cls-3" d="M458.87,432.5c0-.55,0-1.13.07-1.75a12,12,0,0,1,.29-1.81,9.2,9.2,0,0,1,.56-1.68,5,5,0,0,1,.93-1.4,4.17,4.17,0,0,1,1.36-1,5.12,5.12,0,0,1,3.77,0,4.06,4.06,0,0,1,1.36,1,5,5,0,0,1,.93,1.4,9.22,9.22,0,0,1,.57,1.68,13.38,13.38,0,0,1,.28,1.81c.05.62.08,1.2.08,1.75s0,1.16-.08,1.77a13.48,13.48,0,0,1-.28,1.8,9.39,9.39,0,0,1-.57,1.67,5.23,5.23,0,0,1-.93,1.41,4.06,4.06,0,0,1-1.36,1,5.12,5.12,0,0,1-3.77,0,4.17,4.17,0,0,1-1.36-1,5.23,5.23,0,0,1-.93-1.41,9.36,9.36,0,0,1-.56-1.67,12.06,12.06,0,0,1-.29-1.8C458.89,433.66,458.87,433.07,458.87,432.5Zm1.44,0c0,.41,0,.86,0,1.34s.09,1,.17,1.49a9.37,9.37,0,0,0,.39,1.47,4.61,4.61,0,0,0,.65,1.27,3.12,3.12,0,0,0,1,.89,3.09,3.09,0,0,0,2.82,0,3,3,0,0,0,1-.89,4.92,4.92,0,0,0,.66-1.27,9.33,9.33,0,0,0,.38-1.47,13.08,13.08,0,0,0,.17-1.49c0-.48.05-.93.05-1.34s0-.83-.05-1.33a12.83,12.83,0,0,0-.17-1.49,9.33,9.33,0,0,0-.38-1.47,4.92,4.92,0,0,0-.66-1.27,3.09,3.09,0,0,0-1-.9,3.07,3.07,0,0,0-2.81,0,3.19,3.19,0,0,0-1,.9,4.61,4.61,0,0,0-.65,1.27,9.37,9.37,0,0,0-.39,1.47c-.08.5-.14,1-.17,1.49S460.31,432.11,460.31,432.5Z"/>
            </g>
            <g>
              <path class="cls-3" d="M528.11,431.59h0a2.56,2.56,0,0,1,1.05-.49,5.25,5.25,0,0,1,1.23-.17,4.91,4.91,0,0,1,1.9.37,4.64,4.64,0,0,1,1.5,1,4.59,4.59,0,0,1,1,1.5,4.81,4.81,0,0,1,.35,1.86,4.68,4.68,0,0,1-.38,1.93,4.43,4.43,0,0,1-1.06,1.52,4.91,4.91,0,0,1-1.6,1,5.82,5.82,0,0,1-4,0,4.91,4.91,0,0,1-1.6-1,4.57,4.57,0,0,1-1.06-1.52,4.85,4.85,0,0,1-.38-1.93,4.77,4.77,0,0,1,.13-1.15,6.56,6.56,0,0,1,.35-1c.15-.33.3-.64.46-.93s.32-.57.48-.83l4.18-6.95h1.66Zm2,.48a3.53,3.53,0,0,0-1.42.28,3.64,3.64,0,0,0-1.14.77,3.7,3.7,0,0,0-.78,1.16,3.5,3.5,0,0,0-.28,1.4,4.14,4.14,0,0,0,.26,1.48,3.4,3.4,0,0,0,.74,1.14,3.21,3.21,0,0,0,1.15.74,3.85,3.85,0,0,0,1.47.26,3.92,3.92,0,0,0,1.47-.26,3.27,3.27,0,0,0,1.88-1.88,3.94,3.94,0,0,0,.26-1.48,3.5,3.5,0,0,0-.28-1.4,3.85,3.85,0,0,0-.77-1.16,3.73,3.73,0,0,0-1.16-.77A3.5,3.5,0,0,0,530.12,432.07Z"/>
              <path class="cls-3" d="M536.35,432.5c0-.55,0-1.13.08-1.75a12,12,0,0,1,.28-1.81,9.22,9.22,0,0,1,.57-1.68,5,5,0,0,1,.92-1.4,4.17,4.17,0,0,1,1.36-1,4.55,4.55,0,0,1,1.89-.36,4.5,4.5,0,0,1,1.88.36,4.21,4.21,0,0,1,1.37,1,5.23,5.23,0,0,1,.92,1.4,9.22,9.22,0,0,1,.57,1.68,12,12,0,0,1,.28,1.81c0,.62.08,1.2.08,1.75s0,1.16-.08,1.77a12,12,0,0,1-.28,1.8,9.39,9.39,0,0,1-.57,1.67,5.45,5.45,0,0,1-.92,1.41,4.21,4.21,0,0,1-1.37,1,4.5,4.5,0,0,1-1.88.36,4.55,4.55,0,0,1-1.89-.36,4.17,4.17,0,0,1-1.36-1,5.2,5.2,0,0,1-.92-1.41,9.39,9.39,0,0,1-.57-1.67,12,12,0,0,1-.28-1.8C536.37,433.66,536.35,433.07,536.35,432.5Zm1.44,0c0,.41,0,.86,0,1.34a13.14,13.14,0,0,0,.18,1.49,8.36,8.36,0,0,0,.38,1.47,4.61,4.61,0,0,0,.65,1.27,3.12,3.12,0,0,0,1,.89,3.09,3.09,0,0,0,2.82,0,3.08,3.08,0,0,0,1-.89,4.9,4.9,0,0,0,.65-1.27,9.33,9.33,0,0,0,.38-1.47,13.14,13.14,0,0,0,.18-1.49c0-.48,0-.93,0-1.34s0-.83,0-1.33a12.87,12.87,0,0,0-.18-1.49,9.33,9.33,0,0,0-.38-1.47,4.9,4.9,0,0,0-.65-1.27,3.23,3.23,0,0,0-1-.9,2.84,2.84,0,0,0-1.4-.34A2.88,2.88,0,0,0,540,426a3.19,3.19,0,0,0-1,.9,4.61,4.61,0,0,0-.65,1.27,8.36,8.36,0,0,0-.38,1.47,12.87,12.87,0,0,0-.18,1.49C537.8,431.67,537.79,432.11,537.79,432.5Z"/>
            </g>
          </g>
          <line class="cls-7" x1="70.89" y1="419.44" x2="535.78" y2="419.44"/>
          <g>
            <line class="cls-7" x1="70.89" y1="419.44" x2="70.89" y2="412.35"/>
            <line class="cls-7" x1="148.37" y1="419.44" x2="148.37" y2="412.35"/>
            <line class="cls-7" x1="225.85" y1="419.44" x2="225.85" y2="412.35"/>
            <line class="cls-7" x1="303.34" y1="419.44" x2="303.34" y2="412.35"/>
            <line class="cls-7" x1="380.82" y1="419.44" x2="380.82" y2="412.35"/>
            <line class="cls-7" x1="458.3" y1="419.44" x2="458.3" y2="412.35"/>
            <line class="cls-7" x1="535.78" y1="419.44" x2="535.78" y2="412.35"/>
          </g>
        </g>
        <g>
          <line class="cls-7" x1="70.89" y1="419.44" x2="70.89" y2="135.67"/>
          <line class="cls-7" x1="70.89" y1="277.55" x2="82.51" y2="277.55"/>
        </g>
        <g>
          <rect class="cls-8" x="70.89" y="355.12" width="57.34" height="34.05"/>
          <rect class="cls-9" x="70.89" y="317.28" width="2.32" height="34.05"/>
          <rect class="cls-10" x="70.89" y="279.45" width="65.86" height="34.05"/>
          <rect class="cls-11" x="70.89" y="241.61" width="202.23" height="34.05"/>
          <rect class="cls-12" x="70.89" y="203.77" width="447.07" height="34.05"/>
        </g>
      </g>
      <g>
        <path class="cls-3" d="M86.46,296.37c0-.12,0-.27,0-.44s0-.34,0-.51,0-.34,0-.49,0-.27,0-.35h.82c0,.24,0,.47,0,.69a1.74,1.74,0,0,0,0,.42h0a2.19,2.19,0,0,1,.82-.9,2.35,2.35,0,0,1,1.32-.38,2.61,2.61,0,0,1,1.2.24,2,2,0,0,1,.72.61,2.27,2.27,0,0,1,.37.87,5.69,5.69,0,0,1,.1,1v3.79H91v-3.75a4.74,4.74,0,0,0-.06-.75,2.19,2.19,0,0,0-.24-.65,1.22,1.22,0,0,0-.47-.46,1.58,1.58,0,0,0-.8-.17,2.36,2.36,0,0,0-.84.15,1.78,1.78,0,0,0-.69.49,2.12,2.12,0,0,0-.46.81,3.32,3.32,0,0,0-.17,1.15v3.18h-.82Z"/>
        <path class="cls-3" d="M99.52,299.74a2.67,2.67,0,0,1-1.17,1.05,3.72,3.72,0,0,1-1.54.32,3.38,3.38,0,0,1-1.3-.25,3,3,0,0,1-1-.7,3.07,3.07,0,0,1-.64-1.06,3.9,3.9,0,0,1-.23-1.35,3.83,3.83,0,0,1,.23-1.33,3.32,3.32,0,0,1,.65-1.05,3,3,0,0,1,1-.7,3.05,3.05,0,0,1,1.26-.26,3,3,0,0,1,1.27.26,2.84,2.84,0,0,1,.92.67,2.73,2.73,0,0,1,.56,1,3.17,3.17,0,0,1,.19,1.09V298H94.45a2.8,2.8,0,0,0,.11.66,2.31,2.31,0,0,0,.37.8,2.56,2.56,0,0,0,.72.66,2.32,2.32,0,0,0,1.18.27,2.6,2.6,0,0,0,1.2-.3,2.19,2.19,0,0,0,.9-.83Zm-.62-2.52a2,2,0,0,0-.17-.8,2.13,2.13,0,0,0-.46-.65,2.17,2.17,0,0,0-.69-.45,2.22,2.22,0,0,0-.85-.16,2.06,2.06,0,0,0-1.1.27,2.55,2.55,0,0,0-.7.63,3,3,0,0,0-.37.7,2.1,2.1,0,0,0-.11.46Z"/>
        <path class="cls-3" d="M106.82,299.15c0,.12,0,.26,0,.43s0,.35,0,.52,0,.34,0,.49,0,.27,0,.35h-.81c0-.24,0-.47,0-.69s0-.36,0-.42h0a2.29,2.29,0,0,1-.81.9,2.36,2.36,0,0,1-1.33.38,2.67,2.67,0,0,1-1.2-.24,1.91,1.91,0,0,1-.73-.61,2.47,2.47,0,0,1-.36-.88,5.66,5.66,0,0,1-.09-1v-3.79h.81v3.74a3.67,3.67,0,0,0,.07.75,1.73,1.73,0,0,0,.24.66,1.22,1.22,0,0,0,.47.46,1.65,1.65,0,0,0,.79.17,2.22,2.22,0,0,0,.85-.16,1.66,1.66,0,0,0,.69-.48,2.12,2.12,0,0,0,.46-.81,3.62,3.62,0,0,0,.17-1.15v-3.18h.81Z"/>
        <path class="cls-3" d="M112.12,295.32h-1.79v4.15a.93.93,0,0,0,.23.66.9.9,0,0,0,.64.23,2,2,0,0,0,.47-.06,2.18,2.18,0,0,0,.45-.16l.07.75-.53.15a2.76,2.76,0,0,1-.53.07,2,2,0,0,1-.74-.13,1.27,1.27,0,0,1-.5-.36,1.34,1.34,0,0,1-.28-.51,2.2,2.2,0,0,1-.09-.64v-4.15h-1.36v-.74h1.36v-1.83h.81v1.83h1.79Z"/>
        <path class="cls-3" d="M113.57,296.37c0-.12,0-.27,0-.44s0-.34,0-.51,0-.34,0-.49,0-.27,0-.35h.82c0,.24,0,.47,0,.69a1.74,1.74,0,0,0,0,.42,2.85,2.85,0,0,1,.8-.92,1.93,1.93,0,0,1,1.19-.36l.24,0,.23.05-.09.81a1.18,1.18,0,0,0-.31-.05,2.36,2.36,0,0,0-.92.17,1.68,1.68,0,0,0-.63.48,2.06,2.06,0,0,0-.38.7,3.17,3.17,0,0,0-.12.88v3.47h-.81Z"/>
        <path class="cls-3" d="M123,298.27v.84c0,.25,0,.48,0,.69s0,.41,0,.59a5.14,5.14,0,0,0,.06.55h-.76a5.52,5.52,0,0,1-.08-1h0a2.39,2.39,0,0,1-.87.91,2.74,2.74,0,0,1-1.32.29,3,3,0,0,1-.8-.11,2.11,2.11,0,0,1-.71-.33,1.69,1.69,0,0,1-.51-.58,1.8,1.8,0,0,1-.19-.87,1.75,1.75,0,0,1,.36-1.16,2.4,2.4,0,0,1,.9-.64,4.31,4.31,0,0,1,1.14-.27,8.68,8.68,0,0,1,1.07-.07h.94v-.38a1.35,1.35,0,0,0-.5-1.19,2.16,2.16,0,0,0-1.26-.35,2.81,2.81,0,0,0-1.91.71l-.47-.56a2.83,2.83,0,0,1,1.11-.67,4,4,0,0,1,1.27-.23,2.78,2.78,0,0,1,1.82.55,2.11,2.11,0,0,1,.68,1.75Zm-1.63-.52a8.14,8.14,0,0,0-1,.06,3.48,3.48,0,0,0-.86.24,1.61,1.61,0,0,0-.62.44,1,1,0,0,0-.23.69,1,1,0,0,0,.13.51,1.11,1.11,0,0,0,.33.38,1.88,1.88,0,0,0,.45.22,1.79,1.79,0,0,0,.51.07,2.53,2.53,0,0,0,1.07-.19,1.84,1.84,0,0,0,.67-.5,1.69,1.69,0,0,0,.35-.71,3.48,3.48,0,0,0,.09-.79v-.42Z"/>
        <path class="cls-3" d="M125.25,290.53h.81v10.41h-.81Z"/>
      </g>
      <g>
        <path class="cls-3" d="M164,261a1.79,1.79,0,0,0,.76.78,2.23,2.23,0,0,0,1.06.27,1.81,1.81,0,0,0,.51-.08,1.67,1.67,0,0,0,.46-.24,1.29,1.29,0,0,0,.34-.36,1,1,0,0,0,.12-.49.78.78,0,0,0-.27-.66,2.24,2.24,0,0,0-.69-.35,9,9,0,0,0-.89-.21,3.64,3.64,0,0,1-.9-.28,1.91,1.91,0,0,1-.68-.51,1.44,1.44,0,0,1-.28-.94,1.64,1.64,0,0,1,.69-1.38,1.89,1.89,0,0,1,.68-.34,2.87,2.87,0,0,1,.77-.11,2.94,2.94,0,0,1,1.34.29,2,2,0,0,1,.87.91l-.73.44a1.68,1.68,0,0,0-.58-.67,1.62,1.62,0,0,0-.9-.23,1.9,1.9,0,0,0-.45.07,1.87,1.87,0,0,0-.43.19,1.39,1.39,0,0,0-.32.32.83.83,0,0,0-.12.44.76.76,0,0,0,.27.64,2.45,2.45,0,0,0,.69.32,9.09,9.09,0,0,0,.89.2,3.25,3.25,0,0,1,.9.27,1.85,1.85,0,0,1,.68.53,1.57,1.57,0,0,1,.28,1,1.79,1.79,0,0,1-.19.86,1.68,1.68,0,0,1-.5.62,2.23,2.23,0,0,1-.72.37,3,3,0,0,1-.85.12,3.46,3.46,0,0,1-1.49-.31,2.35,2.35,0,0,1-1-1Z"/>
        <path class="cls-3" d="M169.42,259.44a3.68,3.68,0,0,1,.24-1.35,3.33,3.33,0,0,1,.68-1.06,3,3,0,0,1,1-.69,3.42,3.42,0,0,1,1.33-.25,3.34,3.34,0,0,1,1.32.25,3.09,3.09,0,0,1,1.05.69,3.16,3.16,0,0,1,.68,1.06,3.89,3.89,0,0,1,0,2.69,3.16,3.16,0,0,1-.68,1.06,3.27,3.27,0,0,1-1.05.7,3.52,3.52,0,0,1-1.32.24,3.61,3.61,0,0,1-1.33-.24,3.13,3.13,0,0,1-1-.7,3.33,3.33,0,0,1-.68-1.06A3.67,3.67,0,0,1,169.42,259.44Zm.81,0a3.1,3.1,0,0,0,.17,1,2.29,2.29,0,0,0,.5.82,2.23,2.23,0,0,0,.78.56,2.63,2.63,0,0,0,2.06,0,2.36,2.36,0,0,0,.79-.56,2.42,2.42,0,0,0,.49-.82,3.12,3.12,0,0,0,0-2,2.42,2.42,0,0,0-.49-.82,2.36,2.36,0,0,0-.79-.56,2.63,2.63,0,0,0-2.06,0,2.23,2.23,0,0,0-.78.56,2.29,2.29,0,0,0-.5.82A3.12,3.12,0,0,0,170.23,259.44Z"/>
        <path class="cls-3" d="M177.82,258c0-.11,0-.26,0-.43s0-.34,0-.52,0-.33,0-.48,0-.27,0-.36h.81c0,.24,0,.47,0,.69a2.32,2.32,0,0,0,0,.43h0a2.16,2.16,0,0,1,.81-.9,2.28,2.28,0,0,1,1.33-.38,2.18,2.18,0,0,1,1.14.32,1.85,1.85,0,0,1,.74,1.06,2.07,2.07,0,0,1,.89-1.05,2.48,2.48,0,0,1,1.24-.33,2.71,2.71,0,0,1,1.19.23,1.94,1.94,0,0,1,.73.62,2.42,2.42,0,0,1,.36.87,4.9,4.9,0,0,1,.1,1v3.79h-.81v-3.75a3.67,3.67,0,0,0-.07-.75,1.93,1.93,0,0,0-.23-.65,1.35,1.35,0,0,0-.48-.47,1.65,1.65,0,0,0-.79-.17,1.79,1.79,0,0,0-.94.22,1.64,1.64,0,0,0-.57.54,2.29,2.29,0,0,0-.3.72,3.17,3.17,0,0,0-.09.73v3.58h-.81v-3.83a2.79,2.79,0,0,0-.32-1.42,1.06,1.06,0,0,0-1-.54,2.42,2.42,0,0,0-.85.16,2,2,0,0,0-.69.48,2.4,2.4,0,0,0-.46.82,3.57,3.57,0,0,0-.17,1.15v3.18h-.81Z"/>
        <path class="cls-3" d="M194.89,261.42a2.85,2.85,0,0,1-1.17,1.05,3.72,3.72,0,0,1-1.54.31,3.38,3.38,0,0,1-1.3-.24,3.1,3.1,0,0,1-1-.7,3.07,3.07,0,0,1-.64-1.06,3.92,3.92,0,0,1-.22-1.36,3.52,3.52,0,0,1,.23-1.32,3,3,0,0,1,2.9-2,2.92,2.92,0,0,1,1.26.25,2.8,2.8,0,0,1,.93.68,3.07,3.07,0,0,1,.56,1,3.36,3.36,0,0,1,.19,1.08v.58h-5.26a2.71,2.71,0,0,0,.1.67,2.37,2.37,0,0,0,.37.79,2.45,2.45,0,0,0,.73.66,2.16,2.16,0,0,0,1.17.28,2.61,2.61,0,0,0,1.21-.3,2.23,2.23,0,0,0,.89-.83Zm-.63-2.52a1.8,1.8,0,0,0-.17-.8,1.88,1.88,0,0,0-.46-.65,2.06,2.06,0,0,0-.69-.45,2.17,2.17,0,0,0-.84-.17,2,2,0,0,0-1.11.28,2.52,2.52,0,0,0-.7.63,2.46,2.46,0,0,0-.36.7,2,2,0,0,0-.11.46Z"/>
        <path class="cls-3" d="M196,256.25h.9l1.51,5.33h0l1.75-5.33H201l1.86,5.33h0l1.48-5.33h.81l-1.84,6.37h-.84l-1.87-5.21h0l-1.74,5.21H198Z"/>
        <path class="cls-3" d="M206.43,252.2h.81v5.17h0a2.16,2.16,0,0,1,.81-.9,2.28,2.28,0,0,1,1.33-.38,2.71,2.71,0,0,1,1.19.23,1.94,1.94,0,0,1,.73.62,2.42,2.42,0,0,1,.36.87,4.9,4.9,0,0,1,.1,1v3.79H211v-3.75a3.67,3.67,0,0,0-.07-.75,1.93,1.93,0,0,0-.23-.65,1.27,1.27,0,0,0-.48-.47,1.62,1.62,0,0,0-.79-.17,2.42,2.42,0,0,0-.85.16,2,2,0,0,0-.69.48,2.4,2.4,0,0,0-.46.82,3.57,3.57,0,0,0-.17,1.15v3.18h-.81Z"/>
        <path class="cls-3" d="M218.83,260v.84c0,.24,0,.47,0,.68s0,.41,0,.6a5.43,5.43,0,0,0,.06.55h-.76a5.56,5.56,0,0,1-.08-1h0a2.25,2.25,0,0,1-.87.91,2.63,2.63,0,0,1-1.32.29,3,3,0,0,1-.8-.1,2.11,2.11,0,0,1-.71-.33,1.72,1.72,0,0,1-.51-.59,1.76,1.76,0,0,1-.19-.86,1.73,1.73,0,0,1,.36-1.16,2.29,2.29,0,0,1,.9-.64,4.33,4.33,0,0,1,1.14-.28c.4,0,.76-.06,1.07-.06h.94v-.39a1.33,1.33,0,0,0-.5-1.18,2.09,2.09,0,0,0-1.26-.36,2.82,2.82,0,0,0-1.91.72L214,257a2.93,2.93,0,0,1,1.11-.66,3.72,3.72,0,0,1,1.27-.23,2.84,2.84,0,0,1,1.82.54,2.14,2.14,0,0,1,.68,1.76Zm-1.63-.53a8.12,8.12,0,0,0-1,.07,4,4,0,0,0-.86.23,1.53,1.53,0,0,0-.62.45,1,1,0,0,0-.23.68,1,1,0,0,0,.13.52,1.07,1.07,0,0,0,.33.37,1.57,1.57,0,0,0,.45.22,1.81,1.81,0,0,0,.51.08,2.7,2.7,0,0,0,1.07-.19,1.76,1.76,0,0,0,.67-.51,1.65,1.65,0,0,0,.35-.7,3.48,3.48,0,0,0,.09-.79v-.43Z"/>
        <path class="cls-3" d="M224.05,257h-1.78v4.14a.86.86,0,0,0,.23.66.82.82,0,0,0,.63.24,1.89,1.89,0,0,0,.47-.06,3,3,0,0,0,.45-.16l.07.74a3.07,3.07,0,0,1-.53.15,2.07,2.07,0,0,1-.52.07,1.9,1.9,0,0,1-.75-.13,1.32,1.32,0,0,1-.5-.35,1.38,1.38,0,0,1-.28-.52,2.15,2.15,0,0,1-.09-.64V257H220.1v-.75h1.35v-1.83h.82v1.83h1.78Z"/>
        <path class="cls-3" d="M228.85,256.25h.81v1.12h0a2.17,2.17,0,0,1,.47-.57,3.05,3.05,0,0,1,1.32-.64,3.51,3.51,0,0,1,.72-.07,3.37,3.37,0,0,1,1.32.25,3,3,0,0,1,1,.69,3.16,3.16,0,0,1,.68,1.06,3.74,3.74,0,0,1,0,2.69,3.16,3.16,0,0,1-.68,1.06,3.13,3.13,0,0,1-1,.7,3.56,3.56,0,0,1-1.32.24,3.51,3.51,0,0,1-.72-.07,3.05,3.05,0,0,1-1.32-.64,2.17,2.17,0,0,1-.47-.57h0v4.26h-.81Zm.73,3.19a2.5,2.5,0,0,0,.21,1,2.57,2.57,0,0,0,.55.82,2.64,2.64,0,0,0,.83.56,2.5,2.5,0,0,0,1,.21,2.46,2.46,0,0,0,1-.21,2.41,2.41,0,0,0,1.28-1.38,3.12,3.12,0,0,0,0-2,2.41,2.41,0,0,0-2.31-1.59,2.5,2.5,0,0,0-1,.21,2.64,2.64,0,0,0-.83.56,2.57,2.57,0,0,0-.55.82A2.52,2.52,0,0,0,229.58,259.44Z"/>
        <path class="cls-3" d="M237.3,258c0-.11,0-.26,0-.43s0-.34,0-.52,0-.33,0-.48,0-.27,0-.36h.81c0,.24,0,.47,0,.69a1.85,1.85,0,0,0,0,.43,2.86,2.86,0,0,1,.8-.92,2,2,0,0,1,1.19-.36l.24,0,.24.05-.1.81a.85.85,0,0,0-.31-.06,2.11,2.11,0,0,0-.91.18,1.69,1.69,0,0,0-.64.47,1.93,1.93,0,0,0-.37.71,3.07,3.07,0,0,0-.12.88v3.47h-.82Z"/>
        <path class="cls-3" d="M241.22,259.44a3.68,3.68,0,0,1,.24-1.35,3.16,3.16,0,0,1,.68-1.06,3,3,0,0,1,1-.69,3.42,3.42,0,0,1,1.33-.25,3.34,3.34,0,0,1,1.32.25,3,3,0,0,1,1,.69,3,3,0,0,1,.69,1.06,3.89,3.89,0,0,1,0,2.69,3,3,0,0,1-.69,1.06,3.13,3.13,0,0,1-1,.7,3.52,3.52,0,0,1-1.32.24,3.61,3.61,0,0,1-1.33-.24,3.13,3.13,0,0,1-1-.7,3.16,3.16,0,0,1-.68-1.06A3.67,3.67,0,0,1,241.22,259.44Zm.81,0a3.1,3.1,0,0,0,.17,1,2.42,2.42,0,0,0,.49.82,2.36,2.36,0,0,0,.79.56,2.63,2.63,0,0,0,2.06,0,2.36,2.36,0,0,0,.79-.56,2.42,2.42,0,0,0,.49-.82,3.12,3.12,0,0,0,0-2,2.42,2.42,0,0,0-.49-.82,2.36,2.36,0,0,0-.79-.56,2.63,2.63,0,0,0-2.06,0,2.36,2.36,0,0,0-.79.56,2.42,2.42,0,0,0-.49.82A3.12,3.12,0,0,0,242,259.44Z"/>
        <path class="cls-3" d="M254.91,260.83c0,.12,0,.26,0,.43s0,.34,0,.52,0,.33,0,.49,0,.27,0,.35h-.81c0-.24,0-.47,0-.69s0-.36,0-.43h-.05a2.16,2.16,0,0,1-.81.9,2.28,2.28,0,0,1-1.33.38,2.82,2.82,0,0,1-1.2-.23,2,2,0,0,1-.73-.61,2.55,2.55,0,0,1-.36-.88,5.69,5.69,0,0,1-.09-1v-3.79h.81V260a3.67,3.67,0,0,0,.07.75,1.87,1.87,0,0,0,.24.66,1.3,1.3,0,0,0,.47.46,1.65,1.65,0,0,0,.79.17,2.22,2.22,0,0,0,.85-.16,1.76,1.76,0,0,0,.69-.48,2.45,2.45,0,0,0,.46-.81,3.62,3.62,0,0,0,.17-1.15v-3.19h.81Z"/>
        <path class="cls-3" d="M262.62,261.5h0a2.21,2.21,0,0,1-.48.57,2.53,2.53,0,0,1-.62.4,2.82,2.82,0,0,1-.69.24,3.65,3.65,0,0,1-.72.07,3.61,3.61,0,0,1-1.33-.24,3,3,0,0,1-1-.7,3.16,3.16,0,0,1-.68-1.06,3.89,3.89,0,0,1,0-2.69,3.16,3.16,0,0,1,.68-1.06,2.87,2.87,0,0,1,1-.69,3.42,3.42,0,0,1,1.33-.25,3.65,3.65,0,0,1,.72.07,2.82,2.82,0,0,1,.69.24,2.53,2.53,0,0,1,.62.4,2.21,2.21,0,0,1,.48.57h0V252.2h.82v10.42h-.82Zm.08-2.06a2.51,2.51,0,0,0-.2-1,2.57,2.57,0,0,0-.55-.82,2.76,2.76,0,0,0-.83-.56,2.53,2.53,0,0,0-1-.21,2.46,2.46,0,0,0-1,.21,2.36,2.36,0,0,0-.79.56,2.42,2.42,0,0,0-.49.82,3.12,3.12,0,0,0,0,2,2.42,2.42,0,0,0,.49.82,2.36,2.36,0,0,0,.79.56,2.46,2.46,0,0,0,1,.21,2.53,2.53,0,0,0,1-.21,2.76,2.76,0,0,0,.83-.56,2.57,2.57,0,0,0,.55-.82A2.5,2.5,0,0,0,262.7,259.44Z"/>
      </g>
      <g>
        <path class="cls-3" d="M444.66,218.1h.93l2.08,5.47,2-5.47h.83l-2.46,6.37h-.84Z"/>
        <path class="cls-3" d="M457.35,223.27a2.81,2.81,0,0,1-1.18,1,3.64,3.64,0,0,1-1.53.31,3.17,3.17,0,0,1-1.3-.25,2.84,2.84,0,0,1-1-.69,3.07,3.07,0,0,1-.64-1.06,3.92,3.92,0,0,1-.22-1.36,3.52,3.52,0,0,1,.23-1.32,3.13,3.13,0,0,1,1.64-1.76,3,3,0,0,1,1.26-.25,3,3,0,0,1,1.26.25,2.66,2.66,0,0,1,.92.68,2.91,2.91,0,0,1,.57,1,3.36,3.36,0,0,1,.19,1.08v.58h-5.26a2.71,2.71,0,0,0,.1.67,2.37,2.37,0,0,0,.37.79,2.23,2.23,0,0,0,.73.66,2.16,2.16,0,0,0,1.17.28,2.64,2.64,0,0,0,1.21-.3,2.3,2.3,0,0,0,.89-.83Zm-.63-2.52a1.8,1.8,0,0,0-.17-.8,1.88,1.88,0,0,0-.46-.65,2.06,2.06,0,0,0-.69-.45,2.22,2.22,0,0,0-.85-.17,2,2,0,0,0-1.1.28,2.39,2.39,0,0,0-.7.63,2.46,2.46,0,0,0-.36.7,1.56,1.56,0,0,0-.11.46Z"/>
        <path class="cls-3" d="M459.35,219.89c0-.11,0-.26,0-.43s0-.34,0-.52,0-.33,0-.49,0-.26,0-.35h.82c0,.24,0,.47,0,.69a1.85,1.85,0,0,0,0,.43,2.75,2.75,0,0,1,.8-.92,1.93,1.93,0,0,1,1.19-.36l.24,0,.24,0-.1.81a.87.87,0,0,0-.31,0,2.19,2.19,0,0,0-.92.17,1.74,1.74,0,0,0-.63.47,2,2,0,0,0-.37.71,2.75,2.75,0,0,0-.13.88v3.47h-.81Z"/>
        <path class="cls-3" d="M465.62,226.44a2.28,2.28,0,0,1-.63,1,1.61,1.61,0,0,1-1.09.36,2.69,2.69,0,0,1-.4,0,2.59,2.59,0,0,1-.4-.09l.08-.77.36.1a1.57,1.57,0,0,0,.37.05.71.71,0,0,0,.39-.1.86.86,0,0,0,.29-.25,1.85,1.85,0,0,0,.21-.33c.06-.13.11-.25.16-.38l.57-1.47L463,218.1h.91l2.07,5.36,2-5.36h.87Z"/>
        <path class="cls-3" d="M473.48,218.1h.81v1.12h0a2.17,2.17,0,0,1,.47-.57,2.73,2.73,0,0,1,.62-.4,3.21,3.21,0,0,1,.7-.24,3.51,3.51,0,0,1,.72-.07,3.37,3.37,0,0,1,1.32.25,3,3,0,0,1,1,.69,3.16,3.16,0,0,1,.68,1.06,3.74,3.74,0,0,1,0,2.69,3.16,3.16,0,0,1-.68,1.06,3,3,0,0,1-1,.69,3.37,3.37,0,0,1-1.32.25,3.51,3.51,0,0,1-.72-.07,3.05,3.05,0,0,1-1.32-.64,2.17,2.17,0,0,1-.47-.57h0v4.26h-.81Zm.73,3.19a2.52,2.52,0,0,0,.76,1.83,2.53,2.53,0,0,0,.83.56,2.63,2.63,0,0,0,2.06,0,2.43,2.43,0,0,0,.78-.56,2.35,2.35,0,0,0,.5-.82,3.12,3.12,0,0,0,0-2,2.41,2.41,0,0,0-1.28-1.38,2.63,2.63,0,0,0-2.06,0,2.53,2.53,0,0,0-.83.56,2.77,2.77,0,0,0-.56.82A2.69,2.69,0,0,0,474.21,221.29Z"/>
        <path class="cls-3" d="M481.93,219.89c0-.11,0-.26,0-.43s0-.34,0-.52,0-.33,0-.49,0-.26,0-.35h.81c0,.24,0,.47,0,.69a1.85,1.85,0,0,0,0,.43,2.86,2.86,0,0,1,.8-.92,2,2,0,0,1,1.19-.36l.24,0,.24,0-.1.81a.84.84,0,0,0-.31,0,2.11,2.11,0,0,0-.91.17,1.69,1.69,0,0,0-.64.47,2,2,0,0,0-.37.71,3.07,3.07,0,0,0-.12.88v3.47h-.82Z"/>
        <path class="cls-3" d="M485.85,221.29a3.68,3.68,0,0,1,.24-1.35,3.16,3.16,0,0,1,.68-1.06,3,3,0,0,1,1-.69,3.42,3.42,0,0,1,1.33-.25,3.34,3.34,0,0,1,1.32.25,3,3,0,0,1,1,.69,3,3,0,0,1,.69,1.06,3.89,3.89,0,0,1,0,2.69,3,3,0,0,1-.69,1.06,3,3,0,0,1-1,.69,3.34,3.34,0,0,1-1.32.25,3.42,3.42,0,0,1-1.33-.25,3,3,0,0,1-1-.69,3.16,3.16,0,0,1-.68-1.06A3.67,3.67,0,0,1,485.85,221.29Zm.81,0a3.1,3.1,0,0,0,.17,1,2.41,2.41,0,0,0,1.28,1.38,2.63,2.63,0,0,0,2.06,0,2.36,2.36,0,0,0,.79-.56,2.33,2.33,0,0,0,.49-.82,3.12,3.12,0,0,0,0-2,2.42,2.42,0,0,0-.49-.82,2.36,2.36,0,0,0-.79-.56,2.63,2.63,0,0,0-2.06,0,2.23,2.23,0,0,0-.78.56,2.29,2.29,0,0,0-.5.82A3.12,3.12,0,0,0,486.66,221.29Z"/>
        <path class="cls-3" d="M499.54,222.68c0,.12,0,.26,0,.43s0,.34,0,.52,0,.33,0,.49,0,.26,0,.35h-.81c0-.24,0-.47,0-.69s0-.36,0-.43h-.05a2.16,2.16,0,0,1-.81.9,2.28,2.28,0,0,1-1.33.38,2.74,2.74,0,0,1-1.19-.23,2,2,0,0,1-.74-.61,2.36,2.36,0,0,1-.35-.88,4.9,4.9,0,0,1-.1-1V218.1H495v3.75a4.54,4.54,0,0,0,.07.75,2.08,2.08,0,0,0,.24.66,1.3,1.3,0,0,0,.47.46,1.68,1.68,0,0,0,.79.17,2.22,2.22,0,0,0,.85-.16,1.87,1.87,0,0,0,.69-.48,2.29,2.29,0,0,0,.46-.81,3.36,3.36,0,0,0,.17-1.15V218.1h.81Z"/>
        <path class="cls-3" d="M507.25,223.35h0a2.21,2.21,0,0,1-.48.57,2.67,2.67,0,0,1-.61.4,3.05,3.05,0,0,1-.7.24,3.65,3.65,0,0,1-.72.07,3.42,3.42,0,0,1-1.33-.25,3,3,0,0,1-1-.69,3.16,3.16,0,0,1-.68-1.06,3.89,3.89,0,0,1,0-2.69,3.16,3.16,0,0,1,.68-1.06,3,3,0,0,1,1-.69,3.42,3.42,0,0,1,1.33-.25,3.14,3.14,0,0,1,1.42.31,2.67,2.67,0,0,1,.61.4,2.21,2.21,0,0,1,.48.57h0v-5.17h.82v10.42h-.82Zm.08-2.06a2.51,2.51,0,0,0-.2-1,2.57,2.57,0,0,0-.55-.82,2.64,2.64,0,0,0-.83-.56,2.53,2.53,0,0,0-1-.21,2.46,2.46,0,0,0-1,.21,2.36,2.36,0,0,0-.79.56,2.42,2.42,0,0,0-.49.82,3.12,3.12,0,0,0,0,2,2.33,2.33,0,0,0,.49.82,2.36,2.36,0,0,0,.79.56,2.46,2.46,0,0,0,1,.21,2.53,2.53,0,0,0,1-.21,2.64,2.64,0,0,0,.83-.56,2.46,2.46,0,0,0,.55-.82A2.5,2.5,0,0,0,507.33,221.29Z"/>
      </g>
      <g>
        <path class="cls-3" d="M534.5,214.79h-4l0,3.1a2.26,2.26,0,0,1,.68-.22,5.81,5.81,0,0,1,.72,0,2.89,2.89,0,0,1,1.24.25,2.73,2.73,0,0,1,.94.7,3.06,3.06,0,0,1,.6,1,3.69,3.69,0,0,1,.21,1.25,3.18,3.18,0,0,1-.28,1.38,2.87,2.87,0,0,1-.72,1,3.08,3.08,0,0,1-1,.57,3.16,3.16,0,0,1-1.07.2,3.34,3.34,0,0,1-1.77-.44,3,3,0,0,1-1.1-1.22l.84-.42a2,2,0,0,0,.33.51,2.46,2.46,0,0,0,.48.43,2.42,2.42,0,0,0,.58.29,2,2,0,0,0,.64.1,1.89,1.89,0,0,0,.7-.14,2.37,2.37,0,0,0,.71-.43,2.62,2.62,0,0,0,.54-.74,2.31,2.31,0,0,0,.22-1,2.53,2.53,0,0,0-.19-1,2.29,2.29,0,0,0-.51-.8,2.3,2.3,0,0,0-1.72-.75,2.69,2.69,0,0,0-1,.19,4,4,0,0,0-.89.47l.08-5h4.73Z"/>
        <path class="cls-3" d="M541.45,214.79l-3.82,9h-.91l3.89-9H536v-.74h5.45Z"/>
        <path class="cls-3" d="M543.6,223.22a.64.64,0,0,1,.19-.47.66.66,0,0,1,.46-.19.65.65,0,0,1,.65.66.63.63,0,0,1-.19.47.6.6,0,0,1-.46.19.62.62,0,0,1-.46-.19A.63.63,0,0,1,543.6,223.22Z"/>
        <path class="cls-3" d="M552,214.79l-3.82,9h-.91l3.88-9h-4.6v-.74H552Z"/>
        <path class="cls-3" d="M553.57,216.25a2.2,2.2,0,0,1,.19-.92,2.35,2.35,0,0,1,.5-.75,2.44,2.44,0,0,1,.74-.51,2.25,2.25,0,0,1,1.81,0,2.57,2.57,0,0,1,.74.51,2.52,2.52,0,0,1,.5.75,2.36,2.36,0,0,1,.18.92,2.41,2.41,0,0,1-.18.93,2.52,2.52,0,0,1-.5.75,2.57,2.57,0,0,1-.74.51,2.37,2.37,0,0,1-1.81,0,2.44,2.44,0,0,1-.74-.51,2.35,2.35,0,0,1-.5-.75A2.24,2.24,0,0,1,553.57,216.25Zm.73,0a1.66,1.66,0,0,0,.13.64,1.7,1.7,0,0,0,.35.52,1.54,1.54,0,0,0,.51.35,1.58,1.58,0,0,0,.61.12,1.63,1.63,0,0,0,.62-.12,1.78,1.78,0,0,0,.51-.35,1.67,1.67,0,0,0,.34-.52,1.5,1.5,0,0,0,.13-.64,1.53,1.53,0,0,0-.13-.64,1.63,1.63,0,0,0-.34-.51,1.78,1.78,0,0,0-.51-.35,1.63,1.63,0,0,0-.62-.12,1.58,1.58,0,0,0-.61.12,1.54,1.54,0,0,0-.51.35,1.65,1.65,0,0,0-.35.51A1.7,1.7,0,0,0,554.3,216.25Zm7.08-2.67.62.39-6.19,10.3-.61-.39Zm-2.46,8a2.17,2.17,0,0,1,.19-.92,2.45,2.45,0,0,1,.5-.76,2.57,2.57,0,0,1,.74-.51,2.37,2.37,0,0,1,1.81,0,2.57,2.57,0,0,1,.74.51,2.45,2.45,0,0,1,.5.76,2.44,2.44,0,0,1,0,1.84,2.29,2.29,0,0,1-.5.75,2.23,2.23,0,0,1-.74.51,2.25,2.25,0,0,1-1.81,0,2.23,2.23,0,0,1-.74-.51,2.29,2.29,0,0,1-.5-.75A2.17,2.17,0,0,1,558.92,221.6Zm.74,0a1.53,1.53,0,0,0,.13.64,1.39,1.39,0,0,0,.34.51,1.41,1.41,0,0,0,.51.35,1.64,1.64,0,0,0,1.23,0,1.6,1.6,0,0,0,.51-.35,1.64,1.64,0,0,0,.34-1.79,1.67,1.67,0,0,0-.34-.52,1.57,1.57,0,0,0-.51-.34,1.52,1.52,0,0,0-1.23,0,1.39,1.39,0,0,0-.51.34,1.69,1.69,0,0,0-.47,1.16Z"/>
      </g>
      <g>
        <path class="cls-3" d="M283.43,261.85,287,258l.49-.53a6,6,0,0,0,.44-.59,4,4,0,0,0,.32-.66,2.25,2.25,0,0,0,.12-.74,1.7,1.7,0,0,0-.54-1.34,2,2,0,0,0-1.37-.48,1.88,1.88,0,0,0-1.26.44,2,2,0,0,0-.67,1.16l-.94-.1a2.61,2.61,0,0,1,1-1.69,3.21,3.21,0,0,1,1.9-.56,3,3,0,0,1,1.05.18,2.6,2.6,0,0,1,.88.49,2.29,2.29,0,0,1,.61.77,2.39,2.39,0,0,1,.22,1.06,3.3,3.3,0,0,1-.17,1.05,4.06,4.06,0,0,1-.45.91,5.42,5.42,0,0,1-.63.82l-.73.77-3,3.13h5v.74h-5.93Z"/>
        <path class="cls-3" d="M292.19,257.36h0a1.58,1.58,0,0,1,.65-.31,3.17,3.17,0,0,1,.77-.11,2.9,2.9,0,0,1,1.18.24,2.76,2.76,0,0,1,.93.64,2.72,2.72,0,0,1,.61.95,3.25,3.25,0,0,1,0,2.4,2.77,2.77,0,0,1-.65.95,3,3,0,0,1-1,.63,3.39,3.39,0,0,1-1.25.23,3.44,3.44,0,0,1-1.26-.23,3,3,0,0,1-1-.63,2.79,2.79,0,0,1-.66-.95,3.09,3.09,0,0,1-.24-1.22,3.4,3.4,0,0,1,.08-.73,4.64,4.64,0,0,1,.22-.66c.09-.2.19-.4.29-.58s.19-.36.29-.53l2.61-4.39h1Zm1.25.3a2.13,2.13,0,0,0-.88.18,2.2,2.2,0,0,0-.71.49,2.29,2.29,0,0,0-.49.73,2.39,2.39,0,0,0-.17.89,2.52,2.52,0,0,0,.16.93,2.07,2.07,0,0,0,.46.72,2.15,2.15,0,0,0,.71.47,2.47,2.47,0,0,0,.92.16,2.42,2.42,0,0,0,.91-.16,2.06,2.06,0,0,0,1.17-1.19,2.52,2.52,0,0,0,.17-.93,2.21,2.21,0,0,0-.18-.89,2.44,2.44,0,0,0-.48-.73,2.25,2.25,0,0,0-1.59-.67Z"/>
        <path class="cls-3" d="M298.07,262.23a.6.6,0,0,1,.19-.46.63.63,0,0,1,.92,0,.6.6,0,0,1,.19.46.63.63,0,0,1-.19.47.65.65,0,0,1-.92,0A.63.63,0,0,1,298.07,262.23Z"/>
        <path class="cls-3" d="M304,254.22h0l-1.73,1.44-.5-.63,2.37-2h.69v9.75H304Z"/>
        <path class="cls-3" d="M308,255.26a2.36,2.36,0,0,1,.18-.92,2.56,2.56,0,0,1,.51-.75,2.19,2.19,0,0,1,.73-.51,2.32,2.32,0,0,1,.91-.19,2.28,2.28,0,0,1,.91.19,2.33,2.33,0,0,1,.74.51,2.52,2.52,0,0,1,.5.75,2.36,2.36,0,0,1,.18.92,2.41,2.41,0,0,1-.18.93,2.52,2.52,0,0,1-.5.75,2.71,2.71,0,0,1-.74.51,2.27,2.27,0,0,1-.91.18,2.31,2.31,0,0,1-.91-.18,2.52,2.52,0,0,1-.73-.51,2.56,2.56,0,0,1-.51-.75A2.41,2.41,0,0,1,308,255.26Zm.73,0a1.66,1.66,0,0,0,.13.64,1.7,1.7,0,0,0,.35.52,1.53,1.53,0,0,0,1.12.47,1.63,1.63,0,0,0,.62-.12,1.78,1.78,0,0,0,.51-.35,1.67,1.67,0,0,0,.34-.52,1.5,1.5,0,0,0,.13-.64,1.56,1.56,0,0,0-.13-.64,1.63,1.63,0,0,0-.34-.51,1.78,1.78,0,0,0-.51-.35,1.63,1.63,0,0,0-.62-.12,1.53,1.53,0,0,0-1.12.47,1.65,1.65,0,0,0-.35.51A1.74,1.74,0,0,0,308.77,255.26Zm7.08-2.67.62.39-6.19,10.3-.61-.39Zm-2.46,8a2.17,2.17,0,0,1,.19-.92,2.45,2.45,0,0,1,.5-.76,2.36,2.36,0,0,1,.74-.5,2.25,2.25,0,0,1,1.81,0,2.36,2.36,0,0,1,.74.5,2.45,2.45,0,0,1,.5.76,2.44,2.44,0,0,1,0,1.84,2.29,2.29,0,0,1-.5.75,2.23,2.23,0,0,1-.74.51,2.25,2.25,0,0,1-1.81,0,2.23,2.23,0,0,1-.74-.51,2.29,2.29,0,0,1-.5-.75A2.17,2.17,0,0,1,313.39,260.61Zm.73,0a1.64,1.64,0,0,0,.48,1.16,1.52,1.52,0,0,0,.51.34,1.58,1.58,0,0,0,.61.12,1.63,1.63,0,0,0,.62-.12,1.75,1.75,0,0,0,.51-.34,1.67,1.67,0,0,0,.34-.52,1.64,1.64,0,0,0,0-1.28,1.67,1.67,0,0,0-.34-.52,1.57,1.57,0,0,0-.51-.34,1.47,1.47,0,0,0-.62-.13,1.42,1.42,0,0,0-.61.13,1.39,1.39,0,0,0-.51.34,1.64,1.64,0,0,0-.48,1.16Z"/>
      </g>
      <g>
        <path class="cls-3" d="M146.46,293.56a2.63,2.63,0,0,1,.2-1,2.31,2.31,0,0,1,.56-.8,2.44,2.44,0,0,1,.83-.52,3,3,0,0,1,1-.19,2.9,2.9,0,0,1,1,.19,2.48,2.48,0,0,1,.84.52,2.28,2.28,0,0,1,.55.8,2.46,2.46,0,0,1,.21,1,2.3,2.3,0,0,1-.11.68,2.46,2.46,0,0,1-.31.63,2.15,2.15,0,0,1-.48.52,1.88,1.88,0,0,1-.63.32h0a2.28,2.28,0,0,1,1.39.92,2.65,2.65,0,0,1,.35.74,3,3,0,0,1,.13.85,3,3,0,0,1-.23,1.19,2.59,2.59,0,0,1-.62.9,2.91,2.91,0,0,1-.94.58,3.25,3.25,0,0,1-1.18.21,3.22,3.22,0,0,1-1.18-.21,2.91,2.91,0,0,1-.94-.58,2.46,2.46,0,0,1-.62-.9,3,3,0,0,1-.23-1.19,3,3,0,0,1,.12-.85,2.68,2.68,0,0,1,.36-.74,2.17,2.17,0,0,1,.59-.58,2.23,2.23,0,0,1,.8-.34h0a1.92,1.92,0,0,1-.64-.32,2.15,2.15,0,0,1-.48-.52,2.43,2.43,0,0,1-.3-.63A2.3,2.3,0,0,1,146.46,293.56Zm.56,4.67a2.43,2.43,0,0,0,.14.82,2,2,0,0,0,1.08,1.14,2.21,2.21,0,0,0,1.7,0,1.92,1.92,0,0,0,.65-.46,2,2,0,0,0,.42-.68,2.21,2.21,0,0,0,.15-.82,2.26,2.26,0,0,0-.16-.88,2.23,2.23,0,0,0-.44-.67,2,2,0,0,0-.66-.44,2.26,2.26,0,0,0-1.62,0,1.78,1.78,0,0,0-.66.44,2.05,2.05,0,0,0-.44.67A2.26,2.26,0,0,0,147,298.23Zm.33-4.67a1.93,1.93,0,0,0,.13.69,1.85,1.85,0,0,0,.36.57,1.43,1.43,0,0,0,.54.38,1.73,1.73,0,0,0,1.41,0,1.55,1.55,0,0,0,.55-.38,1.65,1.65,0,0,0,.35-.57,1.95,1.95,0,0,0-.36-2,1.81,1.81,0,0,0-2.48,0A1.74,1.74,0,0,0,147.35,293.56Z"/>
        <path class="cls-3" d="M153.72,300.36a.68.68,0,0,1,.19-.47.66.66,0,0,1,.46-.19.65.65,0,0,1,.65.66.63.63,0,0,1-.19.47.6.6,0,0,1-.46.19.62.62,0,0,1-.46-.19A.67.67,0,0,1,153.72,300.36Z"/>
        <path class="cls-3" d="M162.23,291.93h-4l0,3.1a2.26,2.26,0,0,1,.68-.22,6.09,6.09,0,0,1,.72-.05,2.94,2.94,0,0,1,1.25.25,2.69,2.69,0,0,1,.93.7,3.06,3.06,0,0,1,.6,1,3.69,3.69,0,0,1,.21,1.25,3.33,3.33,0,0,1-.27,1.38,2.88,2.88,0,0,1-.73,1,3.11,3.11,0,0,1-1,.58,3.16,3.16,0,0,1-1.07.2,3.28,3.28,0,0,1-1.77-.45,2.93,2.93,0,0,1-1.1-1.21l.84-.42a2,2,0,0,0,.33.51,2.46,2.46,0,0,0,.48.43,2.62,2.62,0,0,0,.58.29,2,2,0,0,0,.64.1,2.17,2.17,0,0,0,.71-.14,2.28,2.28,0,0,0,.7-.44,2.14,2.14,0,0,0,.54-.73,2.19,2.19,0,0,0,.22-1,2.7,2.7,0,0,0-.18-1,2.79,2.79,0,0,0-.51-.81,2.38,2.38,0,0,0-1.72-.74,2.62,2.62,0,0,0-1,.19,3.84,3.84,0,0,0-.9.47l.08-5h4.73Z"/>
        <path class="cls-3" d="M163.69,293.39a2.17,2.17,0,0,1,.19-.92,2.35,2.35,0,0,1,.5-.75,2.23,2.23,0,0,1,.74-.51,2.25,2.25,0,0,1,1.81,0,2.23,2.23,0,0,1,.74.51,2.52,2.52,0,0,1,.5.75,2.32,2.32,0,0,1,.18.92,2.41,2.41,0,0,1-.18.93,2.52,2.52,0,0,1-.5.75,2.57,2.57,0,0,1-.74.51,2.37,2.37,0,0,1-1.81,0,2.57,2.57,0,0,1-.74-.51,2.35,2.35,0,0,1-.5-.75A2.24,2.24,0,0,1,163.69,293.39Zm.73,0a1.66,1.66,0,0,0,.13.64,1.7,1.7,0,0,0,.35.52,1.39,1.39,0,0,0,.51.34,1.52,1.52,0,0,0,1.23,0,1.57,1.57,0,0,0,.51-.34,1.67,1.67,0,0,0,.34-.52,1.5,1.5,0,0,0,.13-.64,1.64,1.64,0,0,0-.47-1.15,1.53,1.53,0,0,0-1.13-.47,1.58,1.58,0,0,0-.61.12,1.41,1.41,0,0,0-.51.35,1.54,1.54,0,0,0-.35.51A1.7,1.7,0,0,0,164.42,293.39Zm7.08-2.67.62.39-6.19,10.3-.61-.39Zm-2.46,8a2.41,2.41,0,0,1,.19-.93,2.52,2.52,0,0,1,.5-.75,2.57,2.57,0,0,1,.74-.51,2.37,2.37,0,0,1,1.81,0,2.57,2.57,0,0,1,.74.51,2.52,2.52,0,0,1,.5.75,2.41,2.41,0,0,1,.18.93,2.36,2.36,0,0,1-.18.92,2.52,2.52,0,0,1-.5.75,2.23,2.23,0,0,1-.74.51,2.25,2.25,0,0,1-1.81,0,2.23,2.23,0,0,1-.74-.51,2.52,2.52,0,0,1-.5-.75A2.37,2.37,0,0,1,169,298.74Zm.74,0a1.64,1.64,0,0,0,.47,1.15,1.41,1.41,0,0,0,.51.35,1.64,1.64,0,0,0,1.23,0,1.5,1.5,0,0,0,.51-.35,1.64,1.64,0,0,0,.47-1.15,1.5,1.5,0,0,0-.13-.64,1.67,1.67,0,0,0-.34-.52,1.47,1.47,0,0,0-.51-.34,1.52,1.52,0,0,0-1.23,0,1.39,1.39,0,0,0-.51.34,1.67,1.67,0,0,0-.34.52A1.5,1.5,0,0,0,169.78,298.74Z"/>
      </g>
    </g>
  </g>
</svg>
