<svg xmlns="http://www.w3.org/2000/svg" viewBox="0 0 436.29 436.29">
  <defs>
    <style>
      .cls-1 {
        fill: #fff;
      }
    </style>
  </defs>
  <g id="Layer_2" data-name="Layer 2">
    <g id="Capa_1" data-name="Capa 1">
      <path class="cls-1" d="M288.45,201.78c-14.46,0-25.49,9.74-27.44,24.57h54.5C313.19,211.52,302.72,201.78,288.45,201.78Z"/>
      <path class="cls-1" d="M160.17,226.35H119.11v41.24H168.6c9.18,0,16.41-10.66,16.41-19.83C185,230.24,169.34,226.35,160.17,226.35Z"/>
      <path class="cls-1" d="M176.85,185.1a16.64,16.64,0,0,0-16.68-16.5H119.11v33h41.06A16.64,16.64,0,0,0,176.85,185.1Z"/>
      <path class="cls-1" d="M339.41,0H96.88A96.87,96.87,0,0,0,0,96.88V339.41a96.88,96.88,0,0,0,96.88,96.88H339.41a96.89,96.89,0,0,0,96.88-96.88V96.88A96.88,96.88,0,0,0,339.41,0ZM251.09,144h74.15V168.7H251.09ZM168.6,300.5H86.21V135.7H168.6a41.24,41.24,0,0,1,21.6,76.37c16.13,5.66,28.08,21,28.08,39A49.74,49.74,0,0,1,168.6,300.5Zm181.48-57.66H259.44c1.2,18.17,13.25,33,29,33,15.47,0,24.09-9.92,27.15-24.75h33.46c-5.65,28-23.35,49.5-60.61,49.5-37.45,0-62-27.62-62-62,0-34.11,24.47-61.73,61.91-61.73,37.17,0,61.73,27.62,61.73,61.73Z"/>
    </g>
  </g>
</svg>
