<svg xmlns="http://www.w3.org/2000/svg" viewBox="0 0 436.29 436.55">
  <defs>
    <style>
      .cls-1 {
        fill: #fff;
      }
    </style>
  </defs>
  <g id="Layer_2" data-name="Layer 2">
    <g id="Capa_1" data-name="Capa 1">
      <path class="cls-1" d="M436,102.09a133.1,133.1,0,0,0-2.13-23.46c-1.76-9.46-4.36-18.64-8.81-27.17a94.94,94.94,0,0,0-18.17-24.2A89.11,89.11,0,0,0,367.19,4.64C353.47.93,339.37.19,325.28.19c-.09-.1-.09-.1-.09-.19h-214V.19c-8.07.18-16,.09-24,1.11A102,102,0,0,0,61.48,7,91.05,91.05,0,0,0,27.35,29.3,89.67,89.67,0,0,0,4.64,69.08C1,82.71.19,96.62.19,110.62L0,325.47H0c.28,9.73.37,19.47,2,29.11,1.76,10.2,4.17,20.12,8.9,29.4a92.51,92.51,0,0,0,26.24,31.71A88.18,88.18,0,0,0,63.33,430c14,4.54,28.47,6.3,43.21,6.3,9.18.1,18.27.28,27.45.28,32.82-.09,65.74,0,98.57,0V290.69H183.5v-58.6h49.06v-42s-3.53-69.73,65.18-75.3h52.11v53H311.93S295.79,170.89,293.2,186v45h54.15l-6,56.1H292.27V436.37c13.72-.1,27.54-.19,41.26-.38a153.78,153.78,0,0,0,26.15-2.78,89,89,0,0,0,43.86-21.32c14.65-13.08,24.48-29,28.93-48.31,2.88-12.61,3.62-25.41,3.8-38.21v-2.59C436.37,321.94,436,104.87,436,102.09Z"/>
    </g>
  </g>
</svg>
