<svg width="436" height="437" viewBox="0 0 436 437" fill="none" xmlns="http://www.w3.org/2000/svg">
<g clip-path="url(#clip0)">
<path d="M218.108 -0.636475C126.815 -0.636475 100.115 -0.542293 94.925 -0.111747C76.1901 1.44562 64.5321 4.39553 51.8314 10.7192C42.0435 15.5796 34.3242 21.2137 26.7058 29.1115C12.8312 43.5146 4.42237 61.2343 1.37837 82.2973C-0.101588 92.5228 -0.532121 94.6083 -0.619572 146.839C-0.653208 164.249 -0.619572 187.162 -0.619572 217.896C-0.619572 309.117 -0.518666 335.791 -0.0814069 340.971C1.43218 359.202 4.29119 370.672 10.3455 383.218C21.9161 407.235 44.0145 425.264 70.0483 431.991C79.0626 434.312 89.0186 435.59 101.8 436.196C107.215 436.431 162.411 436.599 217.64 436.599C272.869 436.599 328.099 436.532 333.379 436.263C348.179 435.567 356.773 434.413 366.275 431.957C392.477 425.196 414.171 407.437 425.977 383.084C431.914 370.84 434.925 358.933 436.287 341.654C436.583 337.887 436.707 277.822 436.707 217.838C436.707 157.845 436.573 97.8912 436.277 94.1239C434.898 76.5657 431.887 64.7593 425.759 52.2803C420.73 42.0649 415.147 34.4362 407.041 26.6359C392.574 12.8181 374.882 4.40898 353.799 1.36825C343.584 -0.108384 341.549 -0.545656 289.28 -0.636475H218.108Z" fill="url(#paint0_radial)"/>
<path d="M218.108 -0.636475C126.815 -0.636475 100.115 -0.542293 94.925 -0.111747C76.1901 1.44562 64.5321 4.39553 51.8314 10.7192C42.0435 15.5796 34.3242 21.2137 26.7058 29.1115C12.8312 43.5146 4.42237 61.2343 1.37837 82.2973C-0.101588 92.5228 -0.532121 94.6083 -0.619572 146.839C-0.653208 164.249 -0.619572 187.162 -0.619572 217.896C-0.619572 309.117 -0.518666 335.791 -0.0814069 340.971C1.43218 359.202 4.29119 370.672 10.3455 383.218C21.9161 407.235 44.0145 425.264 70.0483 431.991C79.0626 434.312 89.0186 435.59 101.8 436.196C107.215 436.431 162.411 436.599 217.64 436.599C272.869 436.599 328.099 436.532 333.379 436.263C348.179 435.567 356.773 434.413 366.275 431.957C392.477 425.196 414.171 407.437 425.977 383.084C431.914 370.84 434.925 358.933 436.287 341.654C436.583 337.887 436.707 277.822 436.707 217.838C436.707 157.845 436.573 97.8912 436.277 94.1239C434.898 76.5657 431.887 64.7593 425.759 52.2803C420.73 42.0649 415.147 34.4362 407.041 26.6359C392.574 12.8181 374.882 4.40898 353.799 1.36825C343.584 -0.108384 341.549 -0.545656 289.28 -0.636475H218.108Z" fill="url(#paint1_radial)"/>
<path d="M218.007 56.5454C174.16 56.5454 168.657 56.7371 151.436 57.5209C134.248 58.308 122.516 61.0291 112.25 65.0218C101.632 69.1456 92.6242 74.662 83.6503 83.6395C74.6697 92.6137 69.1535 101.622 65.0163 112.237C61.0137 122.506 58.2893 134.242 57.5156 151.424C56.7454 168.645 56.5436 174.152 56.5436 218C56.5436 261.848 56.7387 267.334 57.519 284.556C58.3094 301.744 61.0305 313.477 65.0197 323.743C69.1467 334.362 74.6629 343.369 83.6402 352.344C92.6108 361.325 101.618 366.854 112.23 370.978C122.502 374.971 134.238 377.692 151.422 378.479C168.643 379.263 174.143 379.455 217.987 379.455C261.837 379.455 267.323 379.263 284.544 378.479C301.732 377.692 313.477 374.971 323.749 370.978C334.365 366.854 343.359 361.325 352.329 352.344C361.31 343.369 366.826 334.362 370.963 323.746C374.932 313.477 377.657 301.741 378.464 284.56C379.238 267.338 379.44 261.848 379.44 218C379.44 174.152 379.238 168.649 378.464 151.427C377.657 134.239 374.932 122.506 370.963 112.241C366.826 101.622 361.31 92.6137 352.329 83.6395C343.349 74.6586 334.368 69.1422 323.739 65.0218C313.447 61.0291 301.708 58.308 284.521 57.5209C267.299 56.7371 261.817 56.5454 217.956 56.5454H218.007ZM203.523 85.6409C207.822 85.6341 212.618 85.6409 218.007 85.6409C261.114 85.6409 266.223 85.7956 283.246 86.5692C298.987 87.2891 307.531 89.9194 313.222 92.1293C320.756 95.0557 326.128 98.5539 331.775 104.205C337.426 109.856 340.924 115.238 343.857 122.772C346.067 128.457 348.7 137 349.417 152.742C350.19 169.762 350.358 174.875 350.358 217.963C350.358 261.051 350.19 266.164 349.417 283.184C348.697 298.926 346.067 307.469 343.857 313.154C340.93 320.688 337.426 326.053 331.775 331.701C326.124 337.352 320.759 340.85 313.222 343.776C307.537 345.996 298.987 348.62 283.246 349.34C266.226 350.114 261.114 350.282 218.007 350.282C174.896 350.282 169.787 350.114 152.768 349.34C137.026 348.613 128.483 345.983 122.788 343.773C115.254 340.847 109.872 337.349 104.222 331.698C98.5709 326.047 95.0729 320.678 92.1399 313.14C89.93 307.456 87.2964 298.912 86.5799 283.17C85.8063 266.15 85.6516 261.038 85.6516 217.923C85.6516 174.808 85.8063 169.722 86.5799 152.702C87.2997 136.96 89.93 128.416 92.1399 122.725C95.0661 115.19 98.5709 109.809 104.222 104.158C109.872 98.5068 115.254 95.0086 122.788 92.0755C128.479 89.8555 137.026 87.2319 152.768 86.5087C167.661 85.836 173.433 85.6341 203.523 85.6005V85.6409ZM304.187 112.449C293.491 112.449 284.813 121.117 284.813 131.817C284.813 142.513 293.491 151.191 304.187 151.191C314.883 151.191 323.561 142.513 323.561 131.817C323.561 121.121 314.883 112.442 304.187 112.442V112.449ZM218.007 135.086C172.219 135.086 135.096 172.211 135.096 218C135.096 263.789 172.219 300.897 218.007 300.897C263.794 300.897 300.904 263.789 300.904 218C300.904 172.211 263.791 135.086 218.003 135.086H218.007ZM218.007 164.182C247.727 164.182 271.823 188.276 271.823 218C271.823 247.721 247.727 271.818 218.007 271.818C188.283 271.818 164.19 247.721 164.19 218C164.19 188.276 188.283 164.182 218.007 164.182V164.182Z" fill="white"/>
</g>
<defs>
<radialGradient id="paint0_radial" cx="0" cy="0" r="1" gradientUnits="userSpaceOnUse" gradientTransform="translate(115.535 470.276) rotate(-90) scale(433.333 403.131)">
<stop stop-color="#FFDD55"/>
<stop offset="0.1" stop-color="#FFDD55"/>
<stop offset="0.5" stop-color="#FF543E"/>
<stop offset="1" stop-color="#C837AB"/>
</radialGradient>
<radialGradient id="paint1_radial" cx="0" cy="0" r="1" gradientUnits="userSpaceOnUse" gradientTransform="translate(-73.8916 30.8613) rotate(78.678) scale(193.703 798.632)">
<stop stop-color="#3771C8"/>
<stop offset="0.128" stop-color="#3771C8"/>
<stop offset="1" stop-color="#6600FF" stop-opacity="0"/>
</radialGradient>
<clipPath id="clip0">
<rect width="435.8" height="436.29" fill="white" transform="translate(0.199951)"/>
</clipPath>
</defs>
</svg>
