<svg xmlns="http://www.w3.org/2000/svg" viewBox="0 0 435.8 436.29">
  <defs>
    <style>
      .cls-1 {
        fill: #fff;
      }
    </style>
  </defs>
  <g id="Layer_2" data-name="Layer 2">
    <g id="Capa_1" data-name="Capa 1">
      <path class="cls-1" d="M217.94,165.51A52.52,52.52,0,1,0,270.46,218,52.54,52.54,0,0,0,217.94,165.51Z"/>
      <path class="cls-1" d="M279.72,84.19H156.16A72.15,72.15,0,0,0,84.1,156.25V279.9A72.13,72.13,0,0,0,156.16,352H279.81a72.14,72.14,0,0,0,72.06-72.06V156.25A72.17,72.17,0,0,0,279.72,84.19ZM217.94,298.33a80.3,80.3,0,1,1,80.3-80.3A80.27,80.27,0,0,1,217.94,298.33Zm88.27-148.47A19.82,19.82,0,1,1,326,130a19.84,19.84,0,0,1-19.82,19.82Z"/>
      <path class="cls-1" d="M435.51,102a132.79,132.79,0,0,0-2.13-23.44c-1.76-9.44-4.36-18.61-8.8-27.14a94.75,94.75,0,0,0-18.16-24.17,88.94,88.94,0,0,0-39.64-22.6C353.07.93,339,.19,324.92.19c-.1-.1-.1-.1-.1-.19H111.05V.19c-8,.18-16,.09-24,1.11A110.35,110.35,0,0,0,61.41,7,90.83,90.83,0,0,0,27.32,29.27,90.34,90.34,0,0,0,4.63,69.1C1,82.71.19,96.6.19,110.59L0,325.19H0c.28,9.73.37,19.45,2,29.09,1.75,10.19,4.16,20.1,8.89,29.36a93.48,93.48,0,0,0,26.21,31.77,88,88,0,0,0,26.21,14.26c14,4.54,28.44,6.3,43.16,6.3,9.17.09,18.25.28,27.42.28,66.41-.28,132.91.46,199.32-.37a154.45,154.45,0,0,0,26.12-2.78,88.91,88.91,0,0,0,43.81-21.3c14.63-13.06,24.45-29,28.9-48.26,2.87-12.6,3.61-25.38,3.79-38.16v-2.59C435.88,321.67,435.51,104.85,435.51,102ZM379.56,279.81a99.84,99.84,0,0,1-99.75,99.75H156.16a99.84,99.84,0,0,1-99.75-99.75V156.25A99.84,99.84,0,0,1,156.16,56.5H279.81a99.85,99.85,0,0,1,99.75,99.75Z"/>
    </g>
  </g>
</svg>
