<svg width="437" height="437" viewBox="0 0 437 437" fill="none" xmlns="http://www.w3.org/2000/svg">
<g clip-path="url(#clip0)">
<rect x="64.3973" y="54.7319" width="334.335" height="298.847" fill="white"/>
<path d="M344.049 0.26001H92.2414C42.5814 0.26001 2.31024 40.9622 2.31024 91.1537V345.656C2.31024 395.847 42.5814 436.55 92.2414 436.55H344.049C393.727 436.55 433.98 395.847 433.98 345.656V91.1537C433.98 40.9622 393.727 0.26001 344.049 0.26001ZM146.2 345.656H92.2414V145.69H146.2V345.656ZM119.221 122.639C101.846 122.639 87.7448 108.278 87.7448 90.572C87.7448 72.8659 101.846 58.5047 119.221 58.5047C136.595 58.5047 150.697 72.8659 150.697 90.572C150.697 108.278 136.613 122.639 119.221 122.639ZM362.035 345.656H308.076V243.782C308.076 182.556 236.131 187.192 236.131 243.782V345.656H182.173V145.69H236.131V177.775C261.24 130.765 362.035 127.293 362.035 222.786V345.656Z" fill="#0E76A8"/>
</g>
<defs>
<clipPath id="clip0">
<rect width="436.29" height="436.29" fill="white" transform="translate(0 0.26001)"/>
</clipPath>
</defs>
</svg>
