<svg xmlns="http://www.w3.org/2000/svg" viewBox="0 0 436.29 436.29">
  <defs>
    <style>
      .cls-1 {
        fill: #fff;
      }
    </style>
  </defs>
  <g id="Layer_2" data-name="Layer 2">
    <g id="Capa_1" data-name="Capa 1">
      <path class="cls-1" d="M339.41,0H96.88A96.87,96.87,0,0,0,0,96.88V339.41a96.88,96.88,0,0,0,96.88,96.88H339.41a96.89,96.89,0,0,0,96.88-96.88V96.88A96.88,96.88,0,0,0,339.41,0ZM168.61,304.25H129.74V188.05h38.87Zm-19.4-132.06h-.28c-13,0-21.45-8.92-21.45-20.11s8.7-20,22-20,21.45,8.71,21.73,20C171.31,163.27,162.81,172.19,149.21,172.19Zm159.6,132.06H270V242.08c0-15.58-5.59-26.27-19.68-26.27-10.77,0-17.07,7.15-19.9,14.09a26.78,26.78,0,0,0-1.35,9.42v64.93H190.21s.57-105.37,0-116.2h38.87v16.5c5.1-7.93,14.38-19.19,35-19.19,25.56,0,44.75,16.57,44.75,52.33Z"/>
    </g>
  </g>
</svg>
