<svg fill="none" height="100" viewBox="0 0 100 100" width="100" xmlns="http://www.w3.org/2000/svg"><g fill="#ec8539"><path d="m20.8697 34.9999c-.6182.0053-1.2213-.184-1.7181-.5391s-.8602-.8567-1.0352-1.429-.1521-1.184.0652-1.7426c.2174-.5585.6174-1.0336 1.1394-1.3531l28.2235-17.4794c.3155-.2003.6687-.3386 1.0395-.4072.3709-.0685.7521-.0659 1.1218.0078.3698.0736.721.2168 1.0334.4215.3124.2046.5801.4666.7876.7711.2075.3044.3509.6453.4219 1.0033.071.3579.0683.7258-.008 1.0827-.0763.357-.2247.6959-.4367.9974-.212.3016-.4835.5599-.7989.7602l-28.2868 17.4488c-.4593.2942-.9974.4531-1.5486.4576z"/><path d="m34.8263 40.995c-.6088.005-1.2028-.1746-1.6921-.5116s-.8472-.813-1.0196-1.3561-.1498-1.1236.0643-1.6537.608-.9809 1.1222-1.2842l16.3108-9.756c.3106-.19.6585-.3214 1.0238-.3864.3652-.065.7406-.0626 1.1048.0073s.7101.2059 1.0178.4001c.3077.1941.5713.4428.7756.7317.2044.289.3456.6125.4156.9522.0699.3397.0672.6888-.0079 1.0275-.0752.3387-.2213.6604-.4301.9466-.2088.2861-.4762.5313-.7869.7214l-16.373 9.8428c-.4657.2386-.9947.349-1.5253.3184z"/><path d="m54.8697 87.9999c-.6182.0053-1.2213-.184-1.7181-.5391s-.8602-.8567-1.0352-1.429-.1521-1.184.0652-1.7426c.2174-.5585.6174-1.0336 1.1394-1.3531l28.2235-17.4794c.6371-.4045 1.4145-.5482 2.1613-.3994.7468.1487 1.4019.5777 1.821 1.1926.4191.6148.568 1.3652.4139 2.086-.1541.7209-.5986 1.3531-1.2357 1.7576l-28.3183 17.4793c-.4537.2778-.9797.4259-1.517.4271z"/><path d="m52.824 75.9999c-.6084.0053-1.2019-.1862-1.6908-.5458-.4888-.3595-.8465-.8674-1.0187-1.4468s-.1497-1.1987.0642-1.7642c.2139-.5656.6075-1.0465 1.1213-1.37l16.3285-10.4081c.6227-.4096 1.3838-.5567 2.1159-.409.732.1477 1.3749.5781 1.7873 1.1965.4125.6185.5606 1.3743.4119 2.1012-.1487.7268-.5822 1.3653-1.205 1.7748l-16.4217 10.439c-.4458.2828-.9639.4329-1.4929.4324z"/><path d="m61.0309 11.6603c1.0215 1.6561 1.6015 3.5508 1.6835 5.5.0821 1.9493-.3366 3.8868-1.2153 5.6245l-8.9902 18.2152h7.0236l7.5855-15.3474c1.3482-2.6937 1.9909-5.6909 1.8669-8.7063-.1239-3.0154-1.0105-5.9486-2.5751-8.52021-1.5647-2.57161-3.7554-4.69603-6.3635-6.17097-2.6081-1.474945-5.5468-2.25129362-8.5363-2.25512h-16.3884l-3.1216 6.30284h19.4164c1.9221-.00894 3.8146.47862 5.4974 1.41633 1.6828.93772 3.1001 2.29443 4.1171 3.94113z"/><path d="m97.1378 58.8817c-1.1604-3.4258-3.3864-6.405-6.3622-8.5151-2.9759-2.1102-6.5507-3.2443-10.2176-3.2415h-57.9503c-1.5086.0094-3.0035-.282-4.3948-.8567-1.3912-.5747-2.6499-1.4207-3.7004-2.4872-1.0504-1.0665-1.8708-2.3313-2.4117-3.7183s-.7912-2.8675-.7358-4.3523c.0737-1.674.5269-3.3106 1.3264-4.7897l13.4533-26.40562c.3769-.73827.4406-1.59375.1771-2.37826-.2636-.78451-.8328-1.433774-1.5824-1.804969-.7496-.3711946-1.6183-.433912-2.4148-.174353-.7966.259558-1.4559.82013-1.8328 1.558392l-13.39014 26.25011c-1.12122 2.0734-1.81053 4.3465-2.02745 6.6858-.21693 2.3394.0429 4.6978.76423 6.9369 1.16549 3.441 3.40579 6.431 6.40056 8.5425 2.9949 2.1115 6.5909 3.2365 10.274 3.2141h24.0012l-10.8637 21.3671c-1.8249 3.5809-2.3501 7.669-1.4883 11.5847.8619 3.9156 3.0587 7.4227 6.2254 9.9379 3.091 2.4824 6.9703 3.8148 10.9584 3.7634h16.5798l3.158-6.2204h-19.6746c-1.9446.0175-3.8608-.4593-5.5636-1.3843s-3.1346-2.2668-4.1569-3.896c-1.0224-1.6291-1.6008-3.4904-1.6793-5.404-.0786-1.9136.3453-3.8148 1.2308-5.5199l12.3164-24.2285h26.9698c2.4522-.0445 4.8468.7343 6.7898 2.2082 2.0682 1.5789 3.5143 3.817 4.0905 6.3308.5761 2.5139.2465 5.1468-.9324 7.4475l-13.0112 25.5658c-.3769.7383-.4406 1.5938-.177 2.3783.2635.7845.8327 1.4338 1.5823 1.805.7497.3712 1.6183.4339 2.4149.1743.7966-.2595 1.4558-.8201 1.8327-1.5584l12.8217-25.1926c1.1109-2.0777 1.7892-4.3529 1.9953-6.6922s-.0643-4.6955-.7952-6.9305z"/></g></svg>