<svg fill="none" height="100" viewBox="0 0 100 100" width="100" xmlns="http://www.w3.org/2000/svg"><g fill="#ec8539"><path d="m63.3333 100h-10c-1.7676-.0018-3.4623-.729-4.7121-2.0219-1.2499-1.293-1.9528-3.0461-1.9546-4.8746v-17.2414h6.6667v17.2414h10v-17.2414h6.6666v-13.7931c-.0009-.9143-.3523-1.7909-.9773-2.4373-.6249-.6465-1.4722-1.0101-2.356-1.011h-29.0667l-6.6666-20.6897h-20.93331c-.88379.0009-1.73112.3645-2.35605 1.011s-.9764 1.523-.97728 2.4373v20.6897h6.66664v31.0345h13.3333v-24.138h6.6667v24.138c-.0018 1.8285-.7047 3.5816-1.9546 4.8746-1.2498 1.2929-2.9445 2.0201-4.7121 2.0219h-13.3333c-1.7676-.0018-3.46222-.729-4.71207-2.0219-1.24986-1.293-1.95281-3.0461-1.95457-4.8746v-24.138c-1.76757-.0018-3.46223-.729-4.71209-2.0219-1.24986-1.293-1.95280508-3.0461-1.95457-4.8746v-20.6897c.00264738-2.7428 1.05706-5.3725 2.93185-7.3119 1.87479-1.9395 4.41679-3.0302 7.06814-3.033h20.93331c1.399-.0009 2.7628.454 3.8978 1.3001s1.9837 2.0405 2.4255 3.4137l5.1433 15.9759h24.2667c2.6513.0028 5.1933 1.0935 7.0681 3.033 1.8748 1.9394 2.9292 4.5691 2.9319 7.3119v13.7931c-.0018 1.8285-.7047 3.5816-1.9546 4.8746-1.2499 1.2929-2.9445 2.0201-4.7121 2.022v10.3448c-.0018 1.8285-.7047 3.5816-1.9546 4.8746-1.2498 1.2929-2.9445 2.0201-4.712 2.0219z"/><path d="m90.0001 100h-6.6667v-37.931h10v-20.6897c-.0009-.9143-.3524-1.7908-.9773-2.4373s-1.4723-1.0101-2.356-1.011h-13.3334v-6.8966h13.3334c2.6513.0028 5.1933 1.0935 7.0681 3.033 1.8748 1.9394 2.9292 4.5691 2.9318 7.3119v20.6897c-.0017 1.8285-.7047 3.5816-1.9545 4.8746-1.2499 1.2929-2.9445 2.0201-4.7121 2.0219h-3.3333z"/><path d="m20.0001 27.5863c-2.6371 0-5.215-.809-7.4076-2.3246-2.1927-1.5156-3.90164-3.6698-4.91081-6.1902-1.00916-2.5203-1.27321-5.2937-.75874-7.9693.51447-2.67558 1.78434-5.13328 3.64905-7.06228 1.8647-1.929 4.2405-3.242672 6.8269-3.774883s5.2673-.2590607 7.7036.784913c2.4364 1.04396 4.5187 2.81186 5.9838 5.08013s2.2471 4.93502 2.2471 7.66302c-.0044 3.6568-1.4106 7.1625-3.9101 9.7482-2.4996 2.5857-5.8884 4.0404-9.4232 4.045zm0-20.68973c-1.3186 0-2.6075.40448-3.7038 1.16228-1.0964.75781-1.9508 1.8349-2.4554 3.09505-.5046 1.2602-.6366 2.6469-.3794 3.9847s.8922 2.5666 1.8245 3.5311c.9324.9645 2.1203 1.6214 3.4135 1.8875s2.6336.1295 3.8518-.3925 2.2594-1.4059 2.9919-2.54c.7325-1.1342 1.1235-2.4676 1.1235-3.8316-.0017-1.8285-.7047-3.5816-1.9545-4.87456-1.2499-1.29296-2.9446-2.02014-4.7121-2.02197z"/><path d="m79.9998 27.5863c-2.6371 0-5.2149-.809-7.4076-2.3246-2.1926-1.5156-3.9016-3.6698-4.9108-6.1902-1.0091-2.5203-1.2732-5.2937-.7587-7.9693.5145-2.67558 1.7844-5.13328 3.649-7.06228 1.8647-1.929 4.2405-3.242672 6.8269-3.774883s5.2673-.2590607 7.7037.784913c2.4363 1.04396 4.5187 2.81186 5.9838 5.08013 1.465 2.26827 2.247 4.93502 2.247 7.66302-.0044 3.6568-1.4106 7.1625-3.9101 9.7482s-5.8883 4.0404-9.4232 4.045zm0-20.68973c-1.3185 0-2.6075.40448-3.7038 1.16228-1.0963.75781-1.9508 1.8349-2.4554 3.09505-.5045 1.2602-.6366 2.6469-.3793 3.9847.2572 1.3378.8921 2.5666 1.8245 3.5311.9323.9645 2.1202 1.6214 3.4134 1.8875s2.6337.1295 3.8518-.3925c1.2182-.522 2.2594-1.4059 2.9919-2.54.7326-1.1342 1.1236-2.4676 1.1236-3.8316-.0018-1.8285-.7047-3.5816-1.9546-4.87456-1.2498-1.29296-2.9445-2.02014-4.7121-2.02197z"/><path d="m58.3334 48.2759c-2.3074 0-4.5631-.7078-6.4816-2.034-1.9186-1.3261-3.414-3.2111-4.297-5.4164s-1.114-4.632-.6639-6.9731c.4502-2.3412 1.5613-4.4917 3.1929-6.1795 1.6316-1.6879 3.7104-2.8374 5.9736-3.3031 2.2631-.4656 4.6088-.2266 6.7406.6868 2.1318.9135 3.9539 2.4604 5.2359 4.4452 1.2819 1.9847 1.9662 4.3181 1.9662 6.7051-.0036 3.1998-1.2339 6.2675-3.421 8.5301-2.1872 2.2625-5.1526 3.5353-8.2457 3.5389zm0-17.2414c-.9889 0-1.9556.3034-2.7778.8717-.8223.5684-1.4631 1.3762-1.8416 2.3213-.3784.9452-.4774 1.9852-.2845 2.9885.1929 1.0034.6691 1.925 1.3684 2.6484.6992.7234 1.5902 1.216 2.5601 1.4156.9699.1995 1.9752.0971 2.8888-.2944s1.6945-1.0544 2.2439-1.905c.5495-.8506.8427-1.8507.8427-2.8737-.0018-1.3712-.5291-2.6858-1.4664-3.6554s-2.2081-1.5152-3.5336-1.517z"/></g></svg>