<svg fill="none" height="100" viewBox="0 0 100 100" width="100" xmlns="http://www.w3.org/2000/svg"><g clip-rule="evenodd" fill="#ec8539" fill-rule="evenodd"><path d="m50.0361 20c1.9891 0 3.8968-.7902 5.3033-2.1967s2.1967-3.3142 2.1967-5.3033-.7902-3.89679-2.1967-5.30331-3.3142-2.1967-5.3033-2.1967-3.8968.79018-5.3033 2.1967-2.1967 3.31421-2.1967 5.30331.7902 3.8968 2.1967 5.3033 3.3142 2.1967 5.3033 2.1967zm0 5c3.3152 0 6.4946-1.317 8.8388-3.6612s3.6612-5.5236 3.6612-8.8388c0-3.31522-1.317-6.49464-3.6612-8.83884s-5.5236-3.66116-8.8388-3.66116-6.4946 1.31696-8.8388 3.66116-3.6612 5.52362-3.6612 8.83884c0 3.3152 1.317 6.4946 3.6612 8.8388s5.5236 3.6612 8.8388 3.6612z"/><path d="m33.4712 35.7851c1.1438.2178 2.1758.8279 2.9179 1.7252s1.1478 2.0254 1.147 3.1898v51.8c0 .663.2634 1.2989.7323 1.7678.4688.4688 1.1047.7322 1.7677.7322h.2175c.6242 0 1.2257-.2334 1.6865-.6544.4607-.4209.7474-.999.8035-1.6206l2.2925-25.225c0-1.3261.5268-2.5978 1.4645-3.5355s2.2095-1.4645 3.5355-1.4645c1.3261 0 2.5979.5268 3.5356 1.4645.9376.9377 1.4644 2.2094 1.4644 3.5355l2.2925 25.225c.0562.6216.3428 1.1997.8036 1.6206.4608.421 1.0623.6544 1.6864.6544h.2175c.6631 0 1.299-.2634 1.7678-.7322.4688-.4689.7322-1.1048.7322-1.7678v-51.7075c-.0001-1.1639.4058-2.2915 1.1479-3.1883.742-.8967 1.7737-1.5065 2.9171-1.7242 4.39-.835 9.0325-1.9925 14.135-3.48.3152-.0919.6092-.245.8652-.4505.256-.2056.469-.4595.6268-.7474.1579-.2878.2575-.604.2932-.9303.0357-.3264.0067-.6566-.0852-.9717-.0919-.3152-.245-.6092-.4506-.8652-.2055-.256-.4595-.469-.7473-.6269-.2879-.1578-.604-.2575-.9304-.2931-.3263-.0357-.6565-.0068-.9717.0852-11.585 3.3749-20.475 4.9399-29.29 4.8999-8.825-.04-17.7249-1.685-29.3424-4.9074-.3186-.095-.6529-.1255-.9833-.0898-.3305.0358-.6505.1371-.9414.298-.2908.1609-.5467.3782-.7525.6392-.2059.2609-.3577.5604-.4464.8807-.0888.3203-.1128.6551-.0706.9848s.1497.6477.3162.9354c.1666.2877.3888.5392.6537.74.265.2007.5673.3466.8893.4291 5.0825 1.41 9.715 2.54 14.1025 3.375zm14.0099 58.7225c-.4388 1.5796-1.3831 2.9719-2.6884 3.9638-1.3053.992-2.8996 1.5286-4.5391 1.5286h-.2175c-1.9891 0-3.8967-.7901-5.3032-2.1966-1.4066-1.4065-2.1967-3.3142-2.1967-5.3033v-51.8c-4.565-.87-9.3375-2.04-14.505-3.475-.9688-.2451-1.8789-.6814-2.6767-1.2832s-1.4673-1.357-1.9691-2.2212c-.5019-.8642-.8259-1.8199-.9532-2.8111s-.0552-1.9978.212-2.9608c.2672-.9629.7242-1.8627 1.3441-2.6466.6198-.7839 1.3901-1.4359 2.2655-1.9179.8755-.482 1.8384-.7841 2.8322-.8888.9939-.1046 1.9986-.0095 2.9552.2797 11.425 3.1675 19.8374 4.6875 28.0274 4.725 8.165.035 16.545-1.4 27.87-4.7.95-.2909 1.9483-.3902 2.937-.292s1.948.3918 2.8222.8639c.8742.472 1.646 1.1131 2.2704 1.8859s1.089 1.6619 1.3669 2.6158.3635 1.9535.2518 2.9407-.4184 1.9425-.9023 2.8102c-.484.8677-1.1355 1.6306-1.9167 2.2444-.7813.6138-1.6767 1.0662-2.6343 1.331-5.21 1.52-10.0125 2.72-14.5975 3.5925v51.7075c0 1.9891-.7902 3.8968-2.1967 5.3033s-3.3142 2.1966-5.3033 2.1966h-.2175c-1.8715 0-3.6755-.6992-5.0577-1.9611s-2.2426-2.995-2.4123-4.8588l-2.2925-25.225c-.0131-.1471-.0197-.2948-.02-.4425 0 .1475-.0075.2925-.02.44l-2.295 25.225c-.0404.4495-.1208.8946-.24 1.33z"/></g></svg>