<svg fill="none" height="100" viewBox="0 0 100 100" width="100" xmlns="http://www.w3.org/2000/svg"><g stroke="#ec8539" stroke-linecap="round" stroke-linejoin="round" stroke-width="6"><path d="m30.6 29h-11.2c-.6365 0-1.247.2655-1.6971.7381-.45.4726-.7029 1.1136-.7029 1.7819v36.96c0 .3309.0621.6586.1827.9644.1206.3057.2974.5835.5202.8175.2229.234.4875.4196.7787.5463.2911.1266.6032.1918.9184.1918h11.2c.3152 0 .6273-.0652.9184-.1918.2912-.1267.5558-.3123.7787-.5463.2228-.234.3996-.5118.5202-.8175.1206-.3058.1827-.6335.1827-.9644v-36.96c0-.6683-.2529-1.3093-.7029-1.7819-.4501-.4726-1.0606-.7381-1.6971-.7381z"/><path d="m80.6 29h-11.2c-.6365 0-1.247.2655-1.6971.7381-.45.4726-.7029 1.1136-.7029 1.7819v36.96c0 .3309.0621.6586.1827.9644.1206.3057.2974.5835.5202.8175.2229.234.4875.4196.7787.5463.2911.1266.6032.1918.9184.1918h11.2c.3152 0 .6273-.0652.9184-.1918.2912-.1267.5558-.3123.7787-.5463.2228-.234.3996-.5118.5202-.8175.1206-.3058.1827-.6335.1827-.9644v-36.96c0-.6683-.2529-1.3093-.7029-1.7819-.4501-.4726-1.0606-.7381-1.6971-.7381z"/><path d="m4 59.5v-20c0-.663.27393-1.2989.76152-1.7678.4876-.4688 1.14892-.7322 1.83848-.7322h7.8c.6896 0 1.3509.2634 1.8385.7322.4876.4689.7615 1.1048.7615 1.7678v20c0 .663-.2739 1.2989-.7615 1.7678-.4876.4688-1.1489.7322-1.8385.7322h-7.8c-.68956 0-1.35088-.2634-1.83848-.7322-.48759-.4689-.76152-1.1048-.76152-1.7678z"/><path d="m96 59.5v-20c0-.663-.2739-1.2989-.7615-1.7678-.4876-.4688-1.1489-.7322-1.8385-.7322h-7.8c-.6896 0-1.3509.2634-1.8385.7322-.4876.4689-.7615 1.1048-.7615 1.7678v20c0 .663.2739 1.2989.7615 1.7678.4876.4688 1.1489.7322 1.8385.7322h7.8c.6896 0 1.3509-.2634 1.8385-.7322.4876-.4689.7615-1.1048.7615-1.7678z"/><path d="m33 50h34"/></g></svg>