<svg width="1568" height="798" viewBox="0 0 1568 798" fill="none" xmlns="http://www.w3.org/2000/svg">
<path d="M737.204 35.416C734.72 36.82 731.912 37.54 728.78 37.54C725.288 37.54 722.444 36.496 720.32 34.372C718.16 32.248 717.08 29.404 717.08 25.804C717.08 22.204 718.16 19.324 720.32 17.164C722.444 15.04 725.288 13.96 728.816 13.96C731.624 13.96 734.792 14.68 736.772 15.904L735.368 19.72C733.244 18.388 731.084 17.74 728.888 17.74C724.388 17.74 721.508 20.8 721.508 25.66C721.508 30.736 724.244 33.832 728.888 33.832C730.4 33.832 731.804 33.544 733.136 32.932V28.612H727.232V24.904H737.204V35.416ZM757.157 37V33.292H746.141V27.568H755.177V23.86H746.141V18.208H757.157V14.5H741.821V37H757.157ZM776.847 30.88L766.191 14.5H761.403V37H765.579V20.656L776.343 37.216H781.023V14.5H776.847V30.88ZM801.559 37V33.292H790.543V27.568H799.579V23.86H790.543V18.208H801.559V14.5H786.223V37H801.559ZM805.805 37H810.161V28.036H818.801V24.256H810.161V18.316H820.781V14.5H805.805V37ZM828.866 37V14.5H824.51V37H828.866ZM851.674 18.352V14.5H832.27V18.352H839.794V37H844.15V18.352H851.674Z" fill="#EC8539"/>
<path d="M686.197 124V122.32H677.545V106.5H675.753V124H686.197ZM700.274 117.56C700.274 119.576 699.686 121.2 698.482 122.46C697.278 123.72 695.794 124.364 693.974 124.364C692.154 124.364 690.67 123.748 689.522 122.516C688.374 121.284 687.786 119.66 687.786 117.616C687.786 115.6 688.402 113.948 689.606 112.688C690.81 111.428 692.294 110.812 694.114 110.812C695.934 110.812 697.418 111.428 698.566 112.66C699.714 113.892 700.274 115.516 700.274 117.56ZM698.566 117.616C698.566 114.452 696.774 112.38 694.03 112.38C691.342 112.38 689.522 114.48 689.522 117.56C689.522 120.724 691.314 122.796 694.058 122.796C696.746 122.796 698.566 120.696 698.566 117.616ZM704.481 115.656C704.481 117.56 705.769 118.932 707.785 118.932C708.765 118.932 709.521 118.624 710.109 117.98C710.697 117.364 710.977 116.552 710.977 115.572C710.977 114.592 710.697 113.78 710.137 113.164C709.549 112.548 708.737 112.24 707.701 112.24C705.713 112.24 704.481 113.64 704.481 115.656ZM705.993 124.364C704.453 124.784 703.389 125.792 703.389 126.884C703.389 128.424 705.097 129.516 707.757 129.516C710.445 129.516 712.573 128.228 712.573 126.492C712.573 125.036 711.341 124.448 708.681 124.448C707.617 124.448 706.721 124.42 705.993 124.364ZM704.481 124.028C703.333 123.608 702.745 122.936 702.745 121.984C702.745 120.92 703.613 119.996 704.845 119.548C703.473 118.708 702.773 117.392 702.773 115.628C702.773 112.856 704.817 110.812 707.813 110.812C708.933 110.812 709.941 111.064 710.837 111.568L714.393 111.288L714.477 113.024L711.649 112.744C712.237 113.332 712.685 114.564 712.685 115.628C712.685 118.372 710.585 120.332 707.701 120.332C707.113 120.332 706.497 120.22 705.797 119.968C704.845 120.36 704.369 120.864 704.369 121.508C704.369 122.376 705.097 122.824 707.281 122.824H708.933C712.489 122.824 714.253 123.944 714.253 126.184C714.253 127.556 713.581 128.704 712.265 129.6C710.949 130.496 709.353 130.944 707.505 130.944C704.061 130.944 701.709 129.432 701.709 127.192C701.709 125.736 702.829 124.448 704.481 124.028ZM718.671 106.948C718.671 107.312 718.559 107.592 718.363 107.844C718.167 108.096 717.859 108.236 717.495 108.236C717.131 108.236 716.823 108.096 716.627 107.844C716.431 107.592 716.319 107.312 716.319 106.948C716.319 106.612 716.431 106.332 716.627 106.08C716.823 105.828 717.131 105.716 717.495 105.716C717.859 105.716 718.167 105.828 718.363 106.08C718.559 106.332 718.671 106.612 718.671 106.948ZM718.363 124H716.627V111.176L718.363 110.812V124ZM732.643 124H730.907V115.712C730.907 113.472 730.039 112.464 728.079 112.464C726.707 112.464 725.391 113.08 724.187 114.284V124H722.451V111.176L724.187 110.812V112.912C725.587 111.512 727.043 110.812 728.555 110.812C731.131 110.812 732.643 112.38 732.643 115.208V124ZM749.65 121.172V117.42C745.338 117.896 743.686 118.848 743.686 120.612C743.686 121.956 744.778 122.852 746.318 122.852C747.55 122.852 748.67 122.292 749.65 121.172ZM749.762 122.46H749.678C748.642 123.72 747.41 124.364 745.926 124.364C743.574 124.364 741.866 122.88 741.866 120.808C741.866 118.064 744.47 116.552 749.65 116.244V115.488C749.65 113.444 748.642 112.436 746.626 112.436C745.282 112.436 743.602 113.108 742.426 113.976L742.034 112.352C743.266 111.484 745.17 110.812 746.794 110.812C749.874 110.812 751.414 112.352 751.386 115.404V121.564C751.386 122.572 751.61 122.88 752.674 122.852L752.562 124.28C750.91 124.392 749.958 123.776 749.762 122.46ZM765.455 124H763.719V115.712C763.719 113.472 762.851 112.464 760.891 112.464C759.519 112.464 758.203 113.08 756.999 114.284V124H755.263V111.176L756.999 110.812V112.912C758.399 111.512 759.855 110.812 761.367 110.812C763.943 110.812 765.455 112.38 765.455 115.208V124ZM778.024 111.596V105.128L779.76 104.764V124H778.024V122.796C776.904 123.832 775.672 124.364 774.3 124.364C770.856 124.364 768.56 121.648 768.56 117.7C768.56 115.712 769.148 114.088 770.352 112.8C771.556 111.54 773.068 110.896 774.916 110.896C775.98 110.896 777.016 111.12 778.024 111.596ZM778.024 113.444C777.184 112.8 776.12 112.464 774.832 112.464C772.088 112.464 770.352 114.592 770.352 117.672C770.352 120.668 772.032 122.768 774.608 122.768C775.868 122.768 777.016 122.292 778.024 121.34V113.696V113.444ZM798.078 106.136C800.542 106.136 802.586 106.976 804.238 108.656C805.862 110.336 806.674 112.52 806.674 115.18C806.674 117.84 805.862 120.052 804.238 121.76C802.614 123.496 800.542 124.364 798.05 124.364C795.586 124.364 793.542 123.524 791.918 121.816C790.266 120.136 789.454 117.952 789.454 115.292C789.454 112.632 790.266 110.42 791.89 108.712C793.514 107.004 795.586 106.136 798.078 106.136ZM804.854 115.292C804.854 113.052 804.21 111.232 802.95 109.832C801.662 108.432 800.01 107.732 798.022 107.732C796.034 107.732 794.438 108.432 793.178 109.804C791.918 111.176 791.274 112.968 791.274 115.18C791.274 117.42 791.918 119.24 793.206 120.64C794.494 122.068 796.146 122.768 798.134 122.768C800.094 122.768 801.718 122.068 802.978 120.668C804.238 119.296 804.854 117.504 804.854 115.292ZM820.197 124H818.461V115.712C818.461 113.472 817.593 112.464 815.633 112.464C814.261 112.464 812.945 113.08 811.741 114.284V124H810.005V111.176L811.741 110.812V112.912C813.141 111.512 814.597 110.812 816.109 110.812C818.685 110.812 820.197 112.38 820.197 115.208V124ZM835.342 117.42C835.342 119.436 834.754 121.088 833.578 122.404C832.374 123.72 830.862 124.364 829.014 124.364C827.922 124.364 826.886 124.14 825.878 123.664L824.142 124.42V105.128L825.878 104.764V112.52C827.026 111.428 828.314 110.896 829.742 110.896C833.13 110.896 835.342 113.556 835.342 117.42ZM833.55 117.504C833.55 114.536 831.926 112.492 829.406 112.492C828.09 112.492 826.914 112.968 825.878 113.92V121.788C826.746 122.46 827.81 122.796 829.098 122.796C831.842 122.796 833.55 120.668 833.55 117.504ZM850.091 117.56C850.091 119.576 849.503 121.2 848.299 122.46C847.095 123.72 845.611 124.364 843.791 124.364C841.971 124.364 840.487 123.748 839.339 122.516C838.191 121.284 837.603 119.66 837.603 117.616C837.603 115.6 838.219 113.948 839.423 112.688C840.627 111.428 842.111 110.812 843.931 110.812C845.751 110.812 847.235 111.428 848.383 112.66C849.531 113.892 850.091 115.516 850.091 117.56ZM848.383 117.616C848.383 114.452 846.591 112.38 843.847 112.38C841.159 112.38 839.339 114.48 839.339 117.56C839.339 120.724 841.131 122.796 843.875 122.796C846.563 122.796 848.383 120.696 848.383 117.616ZM860.01 121.172V117.42C855.698 117.896 854.046 118.848 854.046 120.612C854.046 121.956 855.138 122.852 856.678 122.852C857.91 122.852 859.03 122.292 860.01 121.172ZM860.122 122.46H860.038C859.002 123.72 857.77 124.364 856.286 124.364C853.934 124.364 852.226 122.88 852.226 120.808C852.226 118.064 854.83 116.552 860.01 116.244V115.488C860.01 113.444 859.002 112.436 856.986 112.436C855.642 112.436 853.962 113.108 852.786 113.976L852.394 112.352C853.626 111.484 855.53 110.812 857.154 110.812C860.234 110.812 861.774 112.352 861.746 115.404V121.564C861.746 122.572 861.97 122.88 863.034 122.852L862.922 124.28C861.27 124.392 860.318 123.776 860.122 122.46ZM867.358 115.768V124H865.622V111.176L867.358 110.812V113.556C868.282 111.736 869.542 110.812 871.138 110.812C871.95 110.812 872.678 111.008 873.378 111.4L872.93 113.024C872.314 112.66 871.67 112.464 870.97 112.464C869.542 112.464 868.338 113.556 867.358 115.768ZM883.953 111.596V105.128L885.689 104.764V124H883.953V122.796C882.833 123.832 881.601 124.364 880.229 124.364C876.785 124.364 874.489 121.648 874.489 117.7C874.489 115.712 875.077 114.088 876.281 112.8C877.485 111.54 878.997 110.896 880.845 110.896C881.909 110.896 882.945 111.12 883.953 111.596ZM883.953 113.444C883.113 112.8 882.049 112.464 880.761 112.464C878.017 112.464 876.281 114.592 876.281 117.672C876.281 120.668 877.961 122.768 880.537 122.768C881.797 122.768 882.945 122.292 883.953 121.34V113.696V113.444ZM891.784 106.948C891.784 107.312 891.672 107.592 891.476 107.844C891.28 108.096 890.972 108.236 890.608 108.236C890.244 108.236 889.936 108.096 889.74 107.844C889.544 107.592 889.432 107.312 889.432 106.948C889.432 106.612 889.544 106.332 889.74 106.08C889.936 105.828 890.244 105.716 890.608 105.716C890.972 105.716 891.28 105.828 891.476 106.08C891.672 106.332 891.784 106.612 891.784 106.948ZM891.476 124H889.74V111.176L891.476 110.812V124ZM905.756 124H904.02V115.712C904.02 113.472 903.152 112.464 901.192 112.464C899.82 112.464 898.504 113.08 897.3 114.284V124H895.564V111.176L897.3 110.812V112.912C898.7 111.512 900.156 110.812 901.668 110.812C904.244 110.812 905.756 112.38 905.756 115.208V124ZM910.681 115.656C910.681 117.56 911.969 118.932 913.985 118.932C914.965 118.932 915.721 118.624 916.309 117.98C916.897 117.364 917.177 116.552 917.177 115.572C917.177 114.592 916.897 113.78 916.337 113.164C915.749 112.548 914.937 112.24 913.901 112.24C911.913 112.24 910.681 113.64 910.681 115.656ZM912.193 124.364C910.653 124.784 909.589 125.792 909.589 126.884C909.589 128.424 911.297 129.516 913.957 129.516C916.645 129.516 918.773 128.228 918.773 126.492C918.773 125.036 917.541 124.448 914.881 124.448C913.817 124.448 912.921 124.42 912.193 124.364ZM910.681 124.028C909.533 123.608 908.945 122.936 908.945 121.984C908.945 120.92 909.813 119.996 911.045 119.548C909.673 118.708 908.973 117.392 908.973 115.628C908.973 112.856 911.017 110.812 914.013 110.812C915.133 110.812 916.141 111.064 917.037 111.568L920.593 111.288L920.677 113.024L917.849 112.744C918.437 113.332 918.885 114.564 918.885 115.628C918.885 118.372 916.785 120.332 913.901 120.332C913.313 120.332 912.697 120.22 911.997 119.968C911.045 120.36 910.569 120.864 910.569 121.508C910.569 122.376 911.297 122.824 913.481 122.824H915.133C918.689 122.824 920.453 123.944 920.453 126.184C920.453 127.556 919.781 128.704 918.465 129.6C917.149 130.496 915.553 130.944 913.705 130.944C910.261 130.944 907.909 129.432 907.909 127.192C907.909 125.736 909.029 124.448 910.681 124.028Z" fill="#FBFBFB"/>
<path d="M1416.86 443.96C1416.86 447.74 1414.25 449.728 1409.8 449.812L1407.42 449.84V456H1405.63V438.5H1410.02C1414.53 438.5 1416.86 440.628 1416.86 443.96ZM1415.01 444.044C1415.01 441.524 1413.24 440.152 1409.97 440.152H1407.42V448.188L1409.91 448.132C1413.3 448.076 1415.01 446.704 1415.01 444.044ZM1431.16 449.56C1431.16 451.576 1430.57 453.2 1429.37 454.46C1428.16 455.72 1426.68 456.364 1424.86 456.364C1423.04 456.364 1421.56 455.748 1420.41 454.516C1419.26 453.284 1418.67 451.66 1418.67 449.616C1418.67 447.6 1419.29 445.948 1420.49 444.688C1421.7 443.428 1423.18 442.812 1425 442.812C1426.82 442.812 1428.3 443.428 1429.45 444.66C1430.6 445.892 1431.16 447.516 1431.16 449.56ZM1429.45 449.616C1429.45 446.452 1427.66 444.38 1424.92 444.38C1422.23 444.38 1420.41 446.48 1420.41 449.56C1420.41 452.724 1422.2 454.796 1424.94 454.796C1427.63 454.796 1429.45 452.696 1429.45 449.616ZM1436.46 438.948C1436.46 439.312 1436.35 439.592 1436.15 439.844C1435.96 440.096 1435.65 440.236 1435.28 440.236C1434.92 440.236 1434.61 440.096 1434.42 439.844C1434.22 439.592 1434.11 439.312 1434.11 438.948C1434.11 438.612 1434.22 438.332 1434.42 438.08C1434.61 437.828 1434.92 437.716 1435.28 437.716C1435.65 437.716 1435.96 437.828 1436.15 438.08C1436.35 438.332 1436.46 438.612 1436.46 438.948ZM1436.15 456H1434.42V443.176L1436.15 442.812V456ZM1450.43 456H1448.7V447.712C1448.7 445.472 1447.83 444.464 1445.87 444.464C1444.5 444.464 1443.18 445.08 1441.98 446.284V456H1440.24V443.176L1441.98 442.812V444.912C1443.38 443.512 1444.83 442.812 1446.34 442.812C1448.92 442.812 1450.43 444.38 1450.43 447.208V456ZM1460.76 455.748C1459.81 456.196 1458.86 456.42 1457.9 456.42C1455.52 456.42 1454.38 455.076 1454.46 452.388L1454.66 444.8L1452.7 444.688L1452.78 443.596L1454.71 443.148L1454.8 440.236H1456.45L1456.36 443.232H1460.65L1460.56 444.772H1456.31L1456.11 452.444C1456.06 454.04 1456.67 454.852 1457.99 454.852C1458.69 454.852 1459.5 454.656 1460.45 454.236L1460.76 455.748ZM1471.29 452.5C1471.29 454.824 1469.33 456.364 1466.7 456.364C1465.1 456.364 1463.7 455.972 1462.5 455.216L1462.97 453.62C1464.15 454.404 1465.41 454.796 1466.75 454.796C1468.38 454.796 1469.64 453.984 1469.64 452.64C1469.64 452.332 1469.58 452.08 1469.44 451.828C1469.3 451.576 1469.13 451.38 1468.99 451.24C1468.85 451.1 1468.57 450.96 1468.21 450.792C1467.85 450.624 1467.57 450.512 1467.4 450.456C1467.23 450.4 1466.89 450.288 1466.42 450.148C1464.18 449.476 1462.69 448.524 1462.69 446.508C1462.69 444.212 1464.51 442.812 1467.03 442.812C1468.41 442.812 1469.69 443.12 1470.93 443.764L1470.42 445.332C1469.27 444.688 1468.1 444.38 1466.92 444.38C1465.35 444.38 1464.35 445.108 1464.35 446.34C1464.35 446.62 1464.4 446.872 1464.54 447.096C1464.68 447.348 1464.82 447.516 1464.96 447.656C1465.1 447.796 1465.35 447.964 1465.72 448.104C1466.05 448.244 1466.33 448.356 1466.53 448.44C1466.73 448.524 1467.06 448.608 1467.51 448.748C1469.83 449.42 1471.29 450.372 1471.29 452.5ZM1494.85 456V438.5H1493.05V446.396H1482.81V438.5H1481.01V456H1482.81V448.02H1493.05V456H1494.85ZM1501.18 438.948C1501.18 439.312 1501.07 439.592 1500.87 439.844C1500.68 440.096 1500.37 440.236 1500.01 440.236C1499.64 440.236 1499.33 440.096 1499.14 439.844C1498.94 439.592 1498.83 439.312 1498.83 438.948C1498.83 438.612 1498.94 438.332 1499.14 438.08C1499.33 437.828 1499.64 437.716 1500.01 437.716C1500.37 437.716 1500.68 437.828 1500.87 438.08C1501.07 438.332 1501.18 438.612 1501.18 438.948ZM1500.87 456H1499.14V443.176L1500.87 442.812V456ZM1512.66 452.5C1512.66 454.824 1510.7 456.364 1508.07 456.364C1506.47 456.364 1505.07 455.972 1503.87 455.216L1504.35 453.62C1505.52 454.404 1506.78 454.796 1508.13 454.796C1509.75 454.796 1511.01 453.984 1511.01 452.64C1511.01 452.332 1510.95 452.08 1510.81 451.828C1510.67 451.576 1510.51 451.38 1510.37 451.24C1510.23 451.1 1509.95 450.96 1509.58 450.792C1509.22 450.624 1508.94 450.512 1508.77 450.456C1508.6 450.4 1508.27 450.288 1507.79 450.148C1505.55 449.476 1504.07 448.524 1504.07 446.508C1504.07 444.212 1505.89 442.812 1508.41 442.812C1509.78 442.812 1511.07 443.12 1512.3 443.764L1511.79 445.332C1510.65 444.688 1509.47 444.38 1508.29 444.38C1506.73 444.38 1505.72 445.108 1505.72 446.34C1505.72 446.62 1505.77 446.872 1505.91 447.096C1506.05 447.348 1506.19 447.516 1506.33 447.656C1506.47 447.796 1506.73 447.964 1507.09 448.104C1507.43 448.244 1507.71 448.356 1507.9 448.44C1508.1 448.524 1508.43 448.608 1508.88 448.748C1511.21 449.42 1512.66 450.372 1512.66 452.5ZM1522.17 455.748C1521.22 456.196 1520.27 456.42 1519.32 456.42C1516.94 456.42 1515.79 455.076 1515.87 452.388L1516.07 444.8L1514.11 444.688L1514.19 443.596L1516.13 443.148L1516.21 440.236H1517.86L1517.78 443.232H1522.06L1521.98 444.772H1517.72L1517.53 452.444C1517.47 454.04 1518.09 454.852 1519.4 454.852C1520.1 454.852 1520.91 454.656 1521.87 454.236L1522.17 455.748ZM1536.52 449.56C1536.52 451.576 1535.93 453.2 1534.72 454.46C1533.52 455.72 1532.04 456.364 1530.22 456.364C1528.4 456.364 1526.91 455.748 1525.76 454.516C1524.62 453.284 1524.03 451.66 1524.03 449.616C1524.03 447.6 1524.64 445.948 1525.85 444.688C1527.05 443.428 1528.54 442.812 1530.36 442.812C1532.18 442.812 1533.66 443.428 1534.81 444.66C1535.96 445.892 1536.52 447.516 1536.52 449.56ZM1534.81 449.616C1534.81 446.452 1533.02 444.38 1530.27 444.38C1527.58 444.38 1525.76 446.48 1525.76 449.56C1525.76 452.724 1527.56 454.796 1530.3 454.796C1532.99 454.796 1534.81 452.696 1534.81 449.616ZM1541.48 447.768V456H1539.74V443.176L1541.48 442.812V445.556C1542.4 443.736 1543.66 442.812 1545.26 442.812C1546.07 442.812 1546.8 443.008 1547.5 443.4L1547.05 445.024C1546.44 444.66 1545.79 444.464 1545.09 444.464C1543.66 444.464 1542.46 445.556 1541.48 447.768ZM1559.88 443.176L1554.89 455.86L1553.86 458.632C1552.74 461.684 1551.56 462.664 1549.71 462.664C1548.96 462.664 1548.15 462.468 1547.22 462.076L1547.75 460.48C1548.45 460.844 1549.1 461.04 1549.71 461.04C1550.78 461.04 1551.48 460.396 1552.35 458.072L1553.21 455.804L1548.2 443.176H1550.08L1554.11 453.76L1558.06 443.176H1559.88Z" fill="#FBFBFB"/>
<path d="M1263.24 435.136C1265.71 435.136 1267.75 435.976 1269.4 437.656C1271.03 439.336 1271.84 441.52 1271.84 444.18C1271.84 446.84 1271.03 449.052 1269.4 450.76C1267.78 452.496 1265.71 453.364 1263.22 453.364C1260.75 453.364 1258.71 452.524 1257.08 450.816C1255.43 449.136 1254.62 446.952 1254.62 444.292C1254.62 441.632 1255.43 439.42 1257.06 437.712C1258.68 436.004 1260.75 435.136 1263.24 435.136ZM1270.02 444.292C1270.02 442.052 1269.38 440.232 1268.12 438.832C1266.83 437.432 1265.18 436.732 1263.19 436.732C1261.2 436.732 1259.6 437.432 1258.34 438.804C1257.08 440.176 1256.44 441.968 1256.44 444.18C1256.44 446.42 1257.08 448.24 1258.37 449.64C1259.66 451.068 1261.31 451.768 1263.3 451.768C1265.26 451.768 1266.88 451.068 1268.14 449.668C1269.4 448.296 1270.02 446.504 1270.02 444.292ZM1281.75 434.072L1281.67 434.464C1281.58 434.744 1281.53 434.996 1281.44 435.248L1281.33 435.64C1280.58 435.276 1279.93 435.108 1279.37 435.108C1277.94 435.108 1277.24 436.116 1277.24 438.104V440.232H1281.28L1281.19 441.772H1277.24V453H1275.54V441.828L1273.46 441.688L1273.58 440.596L1275.51 440.148L1275.54 438.132C1275.59 435.052 1276.88 433.512 1279.4 433.512C1280.18 433.512 1280.97 433.708 1281.75 434.072ZM1290.36 434.072L1290.28 434.464C1290.2 434.744 1290.14 434.996 1290.06 435.248L1289.94 435.64C1289.19 435.276 1288.54 435.108 1287.98 435.108C1286.56 435.108 1285.86 436.116 1285.86 438.104V440.232H1289.89L1289.8 441.772H1285.86V453H1284.15V441.828L1282.08 441.688L1282.19 440.596L1284.12 440.148L1284.15 438.132C1284.2 435.052 1285.49 433.512 1288.01 433.512C1288.8 433.512 1289.58 433.708 1290.36 434.072ZM1293.05 446.644V446.784C1293.13 449.724 1294.87 451.74 1297.53 451.74C1298.93 451.74 1300.16 451.376 1301.25 450.676L1301.59 452.272C1300.41 453 1299.04 453.364 1297.47 453.364C1293.8 453.364 1291.28 450.648 1291.28 446.7C1291.28 444.684 1291.87 443.032 1293.02 441.744C1294.17 440.456 1295.6 439.812 1297.33 439.812C1300.19 439.812 1302.01 441.66 1302.01 444.544C1302.01 445.3 1301.92 445.972 1301.73 446.588L1293.05 446.644ZM1293.16 445.272L1300.27 445.244C1300.3 445.16 1300.3 444.964 1300.3 444.684C1300.3 442.668 1299.21 441.38 1297.22 441.38C1295.01 441.38 1293.47 443.032 1293.16 445.272ZM1307.01 444.768V453H1305.28V440.176L1307.01 439.812V442.556C1307.94 440.736 1309.2 439.812 1310.79 439.812C1311.6 439.812 1312.33 440.008 1313.03 440.4L1312.58 442.024C1311.97 441.66 1311.32 441.464 1310.62 441.464C1309.2 441.464 1307.99 442.556 1307.01 444.768ZM1322.96 449.5C1322.96 451.824 1321 453.364 1318.37 453.364C1316.77 453.364 1315.37 452.972 1314.17 452.216L1314.64 450.62C1315.82 451.404 1317.08 451.796 1318.42 451.796C1320.05 451.796 1321.31 450.984 1321.31 449.64C1321.31 449.332 1321.25 449.08 1321.11 448.828C1320.97 448.576 1320.8 448.38 1320.66 448.24C1320.52 448.1 1320.24 447.96 1319.88 447.792C1319.51 447.624 1319.23 447.512 1319.07 447.456C1318.9 447.4 1318.56 447.288 1318.09 447.148C1315.85 446.476 1314.36 445.524 1314.36 443.508C1314.36 441.212 1316.18 439.812 1318.7 439.812C1320.07 439.812 1321.36 440.12 1322.59 440.764L1322.09 442.332C1320.94 441.688 1319.77 441.38 1318.59 441.38C1317.02 441.38 1316.01 442.108 1316.01 443.34C1316.01 443.62 1316.07 443.872 1316.21 444.096C1316.35 444.348 1316.49 444.516 1316.63 444.656C1316.77 444.796 1317.02 444.964 1317.39 445.104C1317.72 445.244 1318 445.356 1318.2 445.44C1318.39 445.524 1318.73 445.608 1319.18 445.748C1321.5 446.42 1322.96 447.372 1322.96 449.5Z" fill="#FBFBFB"/>
<path d="M787.466 239.124C787.466 244.668 784.022 248 778.058 248H773.438V230.5H778.198C781.026 230.5 783.294 231.284 784.974 232.852C786.626 234.448 787.466 236.52 787.466 239.124ZM785.674 239.264C785.674 234.812 782.902 232.152 778.086 232.152H775.23V246.348H778.142C782.79 246.348 785.674 243.94 785.674 239.264ZM802.976 245.508L793.036 230.5H791.02V248H792.756V233.02L802.78 248.168H804.712V230.5H802.976V245.508ZM816.147 230.5H814.047L807.411 248H809.231L811.079 242.988H819.003L820.851 248H822.671L816.147 230.5ZM818.387 241.364H811.695L815.055 232.264L818.387 241.364Z" fill="#FBFBFB"/>
<path d="M1340.82 241V248H1339.03V230.5H1343.74C1347.96 230.5 1350.09 232.376 1350.09 235.54C1350.09 238.06 1348.47 239.712 1346.03 240.468L1350.88 248H1348.8L1344.32 240.776L1340.82 241ZM1340.82 239.404L1343.96 239.292C1346.42 239.208 1348.3 237.836 1348.3 235.624C1348.3 233.328 1346.62 232.124 1343.54 232.124H1340.82V239.404ZM1354.28 241.644V241.784C1354.36 244.724 1356.1 246.74 1358.76 246.74C1360.16 246.74 1361.39 246.376 1362.48 245.676L1362.82 247.272C1361.64 248 1360.27 248.364 1358.7 248.364C1355.03 248.364 1352.51 245.648 1352.51 241.7C1352.51 239.684 1353.1 238.032 1354.25 236.744C1355.4 235.456 1356.83 234.812 1358.56 234.812C1361.42 234.812 1363.24 236.66 1363.24 239.544C1363.24 240.3 1363.15 240.972 1362.96 241.588L1354.28 241.644ZM1354.39 240.272L1361.5 240.244C1361.53 240.16 1361.53 239.964 1361.53 239.684C1361.53 237.668 1360.44 236.38 1358.45 236.38C1356.24 236.38 1354.7 238.032 1354.39 240.272ZM1370.62 248.056L1374.12 237.696L1377.62 248.056H1379.16L1382.96 235.176H1381.06L1378.4 245.452L1374.9 235.204H1373.33L1370 245.396L1367.03 235.176H1365.18L1369.1 248.056H1370.62ZM1392.07 245.172V241.42C1387.75 241.896 1386.1 242.848 1386.1 244.612C1386.1 245.956 1387.19 246.852 1388.73 246.852C1389.97 246.852 1391.09 246.292 1392.07 245.172ZM1392.18 246.46H1392.09C1391.06 247.72 1389.83 248.364 1388.34 248.364C1385.99 248.364 1384.28 246.88 1384.28 244.808C1384.28 242.064 1386.89 240.552 1392.07 240.244V239.488C1392.07 237.444 1391.06 236.436 1389.04 236.436C1387.7 236.436 1386.02 237.108 1384.84 237.976L1384.45 236.352C1385.68 235.484 1387.59 234.812 1389.21 234.812C1392.29 234.812 1393.83 236.352 1393.8 239.404V245.564C1393.8 246.572 1394.03 246.88 1395.09 246.852L1394.98 248.28C1393.33 248.392 1392.37 247.776 1392.18 246.46ZM1399.42 239.768V248H1397.68V235.176L1399.42 234.812V237.556C1400.34 235.736 1401.6 234.812 1403.2 234.812C1404.01 234.812 1404.74 235.008 1405.44 235.4L1404.99 237.024C1404.37 236.66 1403.73 236.464 1403.03 236.464C1401.6 236.464 1400.4 237.556 1399.42 239.768ZM1416.01 235.596V229.128L1417.75 228.764V248H1416.01V246.796C1414.89 247.832 1413.66 248.364 1412.29 248.364C1408.84 248.364 1406.55 245.648 1406.55 241.7C1406.55 239.712 1407.13 238.088 1408.34 236.8C1409.54 235.54 1411.05 234.896 1412.9 234.896C1413.97 234.896 1415 235.12 1416.01 235.596ZM1416.01 237.444C1415.17 236.8 1414.11 236.464 1412.82 236.464C1410.07 236.464 1408.34 238.592 1408.34 241.672C1408.34 244.668 1410.02 246.768 1412.59 246.768C1413.85 246.768 1415 246.292 1416.01 245.34V237.696V237.444ZM1429.47 244.5C1429.47 246.824 1427.51 248.364 1424.88 248.364C1423.28 248.364 1421.88 247.972 1420.68 247.216L1421.15 245.62C1422.33 246.404 1423.59 246.796 1424.93 246.796C1426.56 246.796 1427.82 245.984 1427.82 244.64C1427.82 244.332 1427.76 244.08 1427.62 243.828C1427.48 243.576 1427.31 243.38 1427.17 243.24C1427.03 243.1 1426.75 242.96 1426.39 242.792C1426.02 242.624 1425.74 242.512 1425.58 242.456C1425.41 242.4 1425.07 242.288 1424.6 242.148C1422.36 241.476 1420.87 240.524 1420.87 238.508C1420.87 236.212 1422.69 234.812 1425.21 234.812C1426.58 234.812 1427.87 235.12 1429.1 235.764L1428.6 237.332C1427.45 236.688 1426.28 236.38 1425.1 236.38C1423.53 236.38 1422.52 237.108 1422.52 238.34C1422.52 238.62 1422.58 238.872 1422.72 239.096C1422.86 239.348 1423 239.516 1423.14 239.656C1423.28 239.796 1423.53 239.964 1423.9 240.104C1424.23 240.244 1424.51 240.356 1424.71 240.44C1424.9 240.524 1425.24 240.608 1425.69 240.748C1428.01 241.42 1429.47 242.372 1429.47 244.5Z" fill="#FBFBFB"/>
<path d="M192.151 248V230.5H190.359V238.396H180.111V230.5H178.319V248H180.111V240.02H190.359V248H192.151ZM208.063 241.56C208.063 243.576 207.475 245.2 206.271 246.46C205.067 247.72 203.583 248.364 201.763 248.364C199.943 248.364 198.459 247.748 197.311 246.516C196.163 245.284 195.575 243.66 195.575 241.616C195.575 239.6 196.191 237.948 197.395 236.688C198.599 235.428 200.083 234.812 201.903 234.812C203.723 234.812 205.207 235.428 206.355 236.66C207.503 237.892 208.063 239.516 208.063 241.56ZM206.355 241.616C206.355 238.452 204.563 236.38 201.819 236.38C199.131 236.38 197.311 238.48 197.311 241.56C197.311 244.724 199.103 246.796 201.847 246.796C204.535 246.796 206.355 244.696 206.355 241.616ZM229.042 248H227.306V239.74C227.306 237.556 226.41 236.464 224.59 236.464C223.358 236.464 222.154 237.024 220.978 238.116C221.006 238.34 221.034 238.732 221.034 239.264V248H219.298V239.74C219.298 237.556 218.402 236.464 216.582 236.464C215.322 236.464 214.146 236.968 213.026 237.948V248H211.29V235.176L213.026 234.812V236.576C214.314 235.4 215.658 234.812 217.086 234.812C218.794 234.812 219.942 235.512 220.558 236.94C221.986 235.512 223.498 234.812 225.094 234.812C227.558 234.812 229.042 236.408 229.042 239.236V248ZM233.925 241.644V241.784C234.009 244.724 235.745 246.74 238.405 246.74C239.805 246.74 241.037 246.376 242.129 245.676L242.465 247.272C241.289 248 239.917 248.364 238.349 248.364C234.681 248.364 232.161 245.648 232.161 241.7C232.161 239.684 232.749 238.032 233.897 236.744C235.045 235.456 236.473 234.812 238.209 234.812C241.065 234.812 242.885 236.66 242.885 239.544C242.885 240.3 242.801 240.972 242.605 241.588L233.925 241.644ZM234.037 240.272L241.149 240.244C241.177 240.16 241.177 239.964 241.177 239.684C241.177 237.668 240.085 236.38 238.097 236.38C235.885 236.38 234.345 238.032 234.037 240.272Z" fill="#FBFBFB"/>
<path d="M796.087 208.061C796.673 208.646 797.622 208.646 798.208 208.061L807.754 198.515C808.34 197.929 808.34 196.979 807.754 196.393C807.168 195.808 806.219 195.808 805.633 196.393L797.147 204.879L788.662 196.393C788.076 195.808 787.127 195.808 786.541 196.393C785.955 196.979 785.955 197.929 786.541 198.515L796.087 208.061ZM795.647 158V207H798.647V158H795.647Z" fill="#FBFBFB"/>
<path d="M209.048 208.061C209.634 208.646 210.583 208.646 211.169 208.061L220.715 198.515C221.301 197.929 221.301 196.979 220.715 196.393C220.129 195.808 219.179 195.808 218.594 196.393L210.108 204.879L201.623 196.393C201.037 195.808 200.088 195.808 199.502 196.393C198.916 196.979 198.916 197.929 199.502 198.515L209.048 208.061ZM208.608 158V207H211.608V158H208.608Z" fill="#FBFBFB"/>
<path d="M1385.69 158C1385.69 157.172 1385.01 156.5 1384.19 156.5C1383.36 156.5 1382.69 157.172 1382.69 158H1385.69ZM1383.13 208.061C1383.71 208.646 1384.66 208.646 1385.25 208.061L1394.79 198.515C1395.38 197.929 1395.38 196.979 1394.79 196.393C1394.21 195.808 1393.26 195.808 1392.67 196.393L1384.19 204.879L1375.7 196.393C1375.12 195.808 1374.17 195.808 1373.58 196.393C1372.99 196.979 1372.99 197.929 1373.58 198.515L1383.13 208.061ZM1382.69 158V207H1385.69V158H1382.69Z" fill="#FBFBFB"/>
<path d="M622.752 443.96C622.752 447.74 620.148 449.728 615.696 449.812L613.316 449.84V456H611.524V438.5H615.92C620.428 438.5 622.752 440.628 622.752 443.96ZM620.904 444.044C620.904 441.524 619.14 440.152 615.864 440.152H613.316V448.188L615.808 448.132C619.196 448.076 620.904 446.704 620.904 444.044ZM627.556 447.768V456H625.82V443.176L627.556 442.812V445.556C628.48 443.736 629.74 442.812 631.336 442.812C632.148 442.812 632.876 443.008 633.576 443.4L633.128 445.024C632.512 444.66 631.868 444.464 631.168 444.464C629.74 444.464 628.536 445.556 627.556 447.768ZM647.175 449.56C647.175 451.576 646.587 453.2 645.383 454.46C644.179 455.72 642.695 456.364 640.875 456.364C639.055 456.364 637.571 455.748 636.423 454.516C635.275 453.284 634.687 451.66 634.687 449.616C634.687 447.6 635.303 445.948 636.507 444.688C637.711 443.428 639.195 442.812 641.015 442.812C642.835 442.812 644.319 443.428 645.467 444.66C646.615 445.892 647.175 447.516 647.175 449.56ZM645.467 449.616C645.467 446.452 643.675 444.38 640.931 444.38C638.243 444.38 636.423 446.48 636.423 449.56C636.423 452.724 638.215 454.796 640.959 454.796C643.647 454.796 645.467 452.696 645.467 449.616ZM656.982 437.072L656.898 437.464C656.814 437.744 656.758 437.996 656.674 438.248L656.562 438.64C655.806 438.276 655.162 438.108 654.602 438.108C653.174 438.108 652.474 439.116 652.474 441.104V443.232H656.506L656.422 444.772H652.474V456H650.766V444.828L648.694 444.688L648.806 443.596L650.738 443.148L650.766 441.132C650.822 438.052 652.11 436.512 654.63 436.512C655.414 436.512 656.198 436.708 656.982 437.072ZM660.814 438.948C660.814 439.312 660.702 439.592 660.506 439.844C660.31 440.096 660.002 440.236 659.638 440.236C659.274 440.236 658.966 440.096 658.77 439.844C658.574 439.592 658.462 439.312 658.462 438.948C658.462 438.612 658.574 438.332 658.77 438.08C658.966 437.828 659.274 437.716 659.638 437.716C660.002 437.716 660.31 437.828 660.506 438.08C660.702 438.332 660.814 438.612 660.814 438.948ZM660.506 456H658.77V443.176L660.506 442.812V456ZM666.329 456V436.764L664.593 437.128V456H666.329ZM671.287 449.644V449.784C671.371 452.724 673.107 454.74 675.767 454.74C677.167 454.74 678.399 454.376 679.491 453.676L679.827 455.272C678.651 456 677.279 456.364 675.711 456.364C672.043 456.364 669.523 453.648 669.523 449.7C669.523 447.684 670.111 446.032 671.259 444.744C672.407 443.456 673.835 442.812 675.571 442.812C678.427 442.812 680.247 444.66 680.247 447.544C680.247 448.3 680.163 448.972 679.967 449.588L671.287 449.644ZM671.399 448.272L678.511 448.244C678.539 448.16 678.539 447.964 678.539 447.684C678.539 445.668 677.447 444.38 675.459 444.38C673.247 444.38 671.707 446.032 671.399 448.272Z" fill="#FBFBFB"/>
<path d="M647.392 368C647.392 367.172 646.72 366.5 645.892 366.5C645.063 366.5 644.392 367.172 644.392 368L647.392 368ZM644.831 419.061C645.417 419.646 646.366 419.646 646.952 419.061L656.498 409.515C657.084 408.929 657.084 407.979 656.498 407.393C655.912 406.808 654.963 406.808 654.377 407.393L645.892 415.879L637.406 407.393C636.821 406.808 635.871 406.808 635.285 407.393C634.699 407.979 634.699 408.929 635.285 409.515L644.831 419.061ZM644.392 368L644.392 418L647.392 418L647.392 368L644.392 368Z" fill="#FBFBFB"/>
<path d="M1483.69 369C1483.69 368.172 1483.01 367.5 1482.19 367.5C1481.36 367.5 1480.69 368.172 1480.69 369L1483.69 369ZM1481.13 420.061C1481.71 420.646 1482.66 420.646 1483.25 420.061L1492.79 410.515C1493.38 409.929 1493.38 408.979 1492.79 408.393C1492.21 407.808 1491.26 407.808 1490.67 408.393L1482.19 416.879L1473.7 408.393C1473.12 407.808 1472.17 407.808 1471.58 408.393C1470.99 408.979 1470.99 409.929 1471.58 410.515L1481.13 420.061ZM1480.69 369L1480.69 419L1483.69 419L1483.69 369L1480.69 369Z" fill="#FBFBFB"/>
<path d="M424.579 440.18V438.5H410.467V440.18H416.627V456H418.419V440.18H424.579ZM436.229 449.56C436.229 451.576 435.641 453.2 434.437 454.46C433.233 455.72 431.749 456.364 429.929 456.364C428.109 456.364 426.625 455.748 425.477 454.516C424.329 453.284 423.741 451.66 423.741 449.616C423.741 447.6 424.357 445.948 425.561 444.688C426.765 443.428 428.249 442.812 430.069 442.812C431.889 442.812 433.373 443.428 434.521 444.66C435.669 445.892 436.229 447.516 436.229 449.56ZM434.521 449.616C434.521 446.452 432.729 444.38 429.985 444.38C427.297 444.38 425.477 446.48 425.477 449.56C425.477 452.724 427.269 454.796 430.013 454.796C432.701 454.796 434.521 452.696 434.521 449.616ZM448.08 443.596V437.128L449.816 436.764V456H448.08V454.796C446.96 455.832 445.728 456.364 444.356 456.364C440.912 456.364 438.616 453.648 438.616 449.7C438.616 447.712 439.204 446.088 440.408 444.8C441.612 443.54 443.124 442.896 444.972 442.896C446.036 442.896 447.072 443.12 448.08 443.596ZM448.08 445.444C447.24 444.8 446.176 444.464 444.888 444.464C442.144 444.464 440.408 446.592 440.408 449.672C440.408 452.668 442.088 454.768 444.664 454.768C445.924 454.768 447.072 454.292 448.08 453.34V445.696V445.444ZM460.531 453.172V449.42C456.219 449.896 454.567 450.848 454.567 452.612C454.567 453.956 455.659 454.852 457.199 454.852C458.431 454.852 459.551 454.292 460.531 453.172ZM460.643 454.46H460.559C459.523 455.72 458.291 456.364 456.807 456.364C454.455 456.364 452.747 454.88 452.747 452.808C452.747 450.064 455.351 448.552 460.531 448.244V447.488C460.531 445.444 459.523 444.436 457.507 444.436C456.163 444.436 454.483 445.108 453.307 445.976L452.915 444.352C454.147 443.484 456.051 442.812 457.675 442.812C460.755 442.812 462.295 444.352 462.267 447.404V453.564C462.267 454.572 462.491 454.88 463.555 454.852L463.443 456.28C461.791 456.392 460.839 455.776 460.643 454.46ZM475.888 443.176L470.904 455.86L469.868 458.632C468.748 461.684 467.572 462.664 465.724 462.664C464.968 462.664 464.156 462.468 463.232 462.076L463.764 460.48C464.464 460.844 465.108 461.04 465.724 461.04C466.788 461.04 467.488 460.396 468.356 458.072L469.224 455.804L464.212 443.176H466.088L470.12 453.76L474.068 443.176H475.888ZM477.305 438.976C477.389 438.192 477.921 437.576 478.817 437.576C479.881 437.576 480.805 438.5 480.805 439.788C480.805 441.496 479.657 443.12 477.333 444.604L476.577 443.904C478.229 442.7 479.041 441.58 479.041 440.544C479.041 439.872 478.593 439.452 477.305 438.976ZM490.496 452.5C490.496 454.824 488.536 456.364 485.904 456.364C484.308 456.364 482.908 455.972 481.704 455.216L482.18 453.62C483.356 454.404 484.616 454.796 485.96 454.796C487.584 454.796 488.844 453.984 488.844 452.64C488.844 452.332 488.788 452.08 488.648 451.828C488.508 451.576 488.34 451.38 488.2 451.24C488.06 451.1 487.78 450.96 487.416 450.792C487.052 450.624 486.772 450.512 486.604 450.456C486.436 450.4 486.1 450.288 485.624 450.148C483.384 449.476 481.9 448.524 481.9 446.508C481.9 444.212 483.72 442.812 486.24 442.812C487.612 442.812 488.9 443.12 490.132 443.764L489.628 445.332C488.48 444.688 487.304 444.38 486.128 444.38C484.56 444.38 483.552 445.108 483.552 446.34C483.552 446.62 483.608 446.872 483.748 447.096C483.888 447.348 484.028 447.516 484.168 447.656C484.308 447.796 484.56 447.964 484.924 448.104C485.26 448.244 485.54 448.356 485.736 448.44C485.932 448.524 486.268 448.608 486.716 448.748C489.04 449.42 490.496 450.372 490.496 452.5ZM512.735 440.18V438.5H498.623V440.18H504.783V456H506.575V440.18H512.735ZM519.566 453.172V449.42C515.254 449.896 513.602 450.848 513.602 452.612C513.602 453.956 514.694 454.852 516.234 454.852C517.466 454.852 518.586 454.292 519.566 453.172ZM519.678 454.46H519.594C518.558 455.72 517.326 456.364 515.842 456.364C513.49 456.364 511.782 454.88 511.782 452.808C511.782 450.064 514.386 448.552 519.566 448.244V447.488C519.566 445.444 518.558 444.436 516.542 444.436C515.198 444.436 513.518 445.108 512.342 445.976L511.95 444.352C513.182 443.484 515.086 442.812 516.71 442.812C519.79 442.812 521.33 444.352 521.302 447.404V453.564C521.302 454.572 521.526 454.88 522.59 454.852L522.478 456.28C520.826 456.392 519.874 455.776 519.678 454.46ZM532.879 452.5C532.879 454.824 530.919 456.364 528.287 456.364C526.691 456.364 525.291 455.972 524.087 455.216L524.563 453.62C525.739 454.404 526.999 454.796 528.343 454.796C529.967 454.796 531.227 453.984 531.227 452.64C531.227 452.332 531.171 452.08 531.031 451.828C530.891 451.576 530.723 451.38 530.583 451.24C530.443 451.1 530.163 450.96 529.799 450.792C529.435 450.624 529.155 450.512 528.987 450.456C528.819 450.4 528.483 450.288 528.007 450.148C525.767 449.476 524.283 448.524 524.283 446.508C524.283 444.212 526.103 442.812 528.623 442.812C529.995 442.812 531.283 443.12 532.515 443.764L532.011 445.332C530.863 444.688 529.687 444.38 528.511 444.38C526.943 444.38 525.935 445.108 525.935 446.34C525.935 446.62 525.991 446.872 526.131 447.096C526.271 447.348 526.411 447.516 526.551 447.656C526.691 447.796 526.943 447.964 527.307 448.104C527.643 448.244 527.923 448.356 528.119 448.44C528.315 448.524 528.651 448.608 529.099 448.748C531.423 449.42 532.879 450.372 532.879 452.5ZM537.799 449.616L543.567 456H545.779L539.591 449.28L545.751 443.176H543.567L537.799 449.084H537.743V436.764L536.007 437.128V456H537.743V449.616H537.799ZM555.848 452.5C555.848 454.824 553.888 456.364 551.256 456.364C549.66 456.364 548.26 455.972 547.056 455.216L547.532 453.62C548.708 454.404 549.968 454.796 551.312 454.796C552.936 454.796 554.196 453.984 554.196 452.64C554.196 452.332 554.14 452.08 554 451.828C553.86 451.576 553.692 451.38 553.552 451.24C553.412 451.1 553.132 450.96 552.768 450.792C552.404 450.624 552.124 450.512 551.956 450.456C551.788 450.4 551.452 450.288 550.976 450.148C548.736 449.476 547.252 448.524 547.252 446.508C547.252 444.212 549.072 442.812 551.592 442.812C552.964 442.812 554.252 443.12 555.484 443.764L554.98 445.332C553.832 444.688 552.656 444.38 551.48 444.38C549.912 444.38 548.904 445.108 548.904 446.34C548.904 446.62 548.96 446.872 549.1 447.096C549.24 447.348 549.38 447.516 549.52 447.656C549.66 447.796 549.912 447.964 550.276 448.104C550.612 448.244 550.892 448.356 551.088 448.44C551.284 448.524 551.62 448.608 552.068 448.748C554.392 449.42 555.848 450.372 555.848 452.5Z" fill="#FBFBFB"/>
<path d="M485.392 369C485.392 368.172 484.72 367.5 483.892 367.5C483.063 367.5 482.392 368.172 482.392 369L485.392 369ZM482.831 420.061C483.417 420.646 484.366 420.646 484.952 420.061L494.498 410.515C495.084 409.929 495.084 408.979 494.498 408.393C493.912 407.808 492.963 407.808 492.377 408.393L483.892 416.879L475.406 408.393C474.821 407.808 473.871 407.808 473.285 408.393C472.699 408.979 472.699 409.929 473.285 410.515L482.831 420.061ZM482.392 369L482.392 419L485.392 419L485.392 369L482.392 369Z" fill="#FBFBFB"/>
<path d="M1290.69 369C1290.69 368.172 1290.01 367.5 1289.19 367.5C1288.36 367.5 1287.69 368.172 1287.69 369L1290.69 369ZM1288.13 420.061C1288.71 420.646 1289.66 420.646 1290.25 420.061L1299.79 410.515C1300.38 409.929 1300.38 408.979 1299.79 408.393C1299.21 407.808 1298.26 407.808 1297.67 408.393L1289.19 416.879L1280.7 408.393C1280.12 407.808 1279.17 407.808 1278.58 408.393C1277.99 408.979 1277.99 409.929 1278.58 410.515L1288.13 420.061ZM1287.69 369L1287.69 419L1290.69 419L1290.69 369L1287.69 369Z" fill="#FBFBFB"/>
<path d="M229.494 453.508L219.554 438.5H217.538V456H219.274V441.02L229.298 456.168H231.23V438.5H229.494V453.508ZM247.173 449.56C247.173 451.576 246.585 453.2 245.381 454.46C244.177 455.72 242.693 456.364 240.873 456.364C239.053 456.364 237.569 455.748 236.421 454.516C235.273 453.284 234.685 451.66 234.685 449.616C234.685 447.6 235.301 445.948 236.505 444.688C237.709 443.428 239.193 442.812 241.013 442.812C242.833 442.812 244.317 443.428 245.465 444.66C246.613 445.892 247.173 447.516 247.173 449.56ZM245.465 449.616C245.465 446.452 243.673 444.38 240.929 444.38C238.241 444.38 236.421 446.48 236.421 449.56C236.421 452.724 238.213 454.796 240.957 454.796C243.645 454.796 245.465 452.696 245.465 449.616ZM256.784 455.748C255.832 456.196 254.88 456.42 253.928 456.42C251.548 456.42 250.4 455.076 250.484 452.388L250.68 444.8L248.72 444.688L248.804 443.596L250.736 443.148L250.82 440.236H252.472L252.388 443.232H256.672L256.588 444.772H252.332L252.136 452.444C252.08 454.04 252.696 454.852 254.012 454.852C254.712 454.852 255.524 454.656 256.476 454.236L256.784 455.748ZM261.687 438.948C261.687 439.312 261.575 439.592 261.379 439.844C261.183 440.096 260.875 440.236 260.511 440.236C260.147 440.236 259.839 440.096 259.643 439.844C259.447 439.592 259.335 439.312 259.335 438.948C259.335 438.612 259.447 438.332 259.643 438.08C259.839 437.828 260.147 437.716 260.511 437.716C260.875 437.716 261.183 437.828 261.379 438.08C261.575 438.332 261.687 438.612 261.687 438.948ZM261.379 456H259.643V443.176L261.379 442.812V456ZM272.046 437.072L271.962 437.464C271.878 437.744 271.822 437.996 271.738 438.248L271.626 438.64C270.87 438.276 270.226 438.108 269.666 438.108C268.238 438.108 267.538 439.116 267.538 441.104V443.232H271.57L271.486 444.772H267.538V456H265.83V444.828L263.758 444.688L263.87 443.596L265.802 443.148L265.83 441.132C265.886 438.052 267.174 436.512 269.694 436.512C270.478 436.512 271.262 436.708 272.046 437.072ZM275.878 438.948C275.878 439.312 275.766 439.592 275.57 439.844C275.374 440.096 275.066 440.236 274.702 440.236C274.338 440.236 274.03 440.096 273.834 439.844C273.638 439.592 273.526 439.312 273.526 438.948C273.526 438.612 273.638 438.332 273.834 438.08C274.03 437.828 274.338 437.716 274.702 437.716C275.066 437.716 275.374 437.828 275.57 438.08C275.766 438.332 275.878 438.612 275.878 438.948ZM275.57 456H273.834V443.176L275.57 442.812V456ZM289.066 455.272C287.89 456 286.574 456.364 285.09 456.364C281.254 456.364 278.818 453.676 278.818 449.616C278.818 447.628 279.406 445.976 280.61 444.716C281.786 443.456 283.298 442.812 285.118 442.812C286.658 442.812 287.974 443.176 289.122 443.904L288.674 445.472C287.638 444.772 286.434 444.436 285.118 444.436C282.346 444.436 280.61 446.48 280.61 449.56C280.61 452.724 282.402 454.74 285.146 454.74C286.434 454.74 287.61 454.376 288.702 453.676L289.066 455.272ZM298.982 453.172V449.42C294.67 449.896 293.018 450.848 293.018 452.612C293.018 453.956 294.11 454.852 295.65 454.852C296.882 454.852 298.002 454.292 298.982 453.172ZM299.094 454.46H299.01C297.974 455.72 296.742 456.364 295.258 456.364C292.906 456.364 291.198 454.88 291.198 452.808C291.198 450.064 293.802 448.552 298.982 448.244V447.488C298.982 445.444 297.974 444.436 295.958 444.436C294.614 444.436 292.934 445.108 291.758 445.976L291.366 444.352C292.598 443.484 294.502 442.812 296.126 442.812C299.206 442.812 300.746 444.352 300.718 447.404V453.564C300.718 454.572 300.942 454.88 302.006 454.852L301.894 456.28C300.242 456.392 299.29 455.776 299.094 454.46ZM310.979 455.748C310.027 456.196 309.075 456.42 308.123 456.42C305.743 456.42 304.595 455.076 304.679 452.388L304.875 444.8L302.915 444.688L302.999 443.596L304.931 443.148L305.015 440.236H306.667L306.583 443.232H310.867L310.783 444.772H306.527L306.331 452.444C306.275 454.04 306.891 454.852 308.207 454.852C308.907 454.852 309.719 454.656 310.671 454.236L310.979 455.748ZM315.882 438.948C315.882 439.312 315.77 439.592 315.574 439.844C315.378 440.096 315.07 440.236 314.706 440.236C314.342 440.236 314.034 440.096 313.838 439.844C313.642 439.592 313.53 439.312 313.53 438.948C313.53 438.612 313.642 438.332 313.838 438.08C314.034 437.828 314.342 437.716 314.706 437.716C315.07 437.716 315.378 437.828 315.574 438.08C315.77 438.332 315.882 438.612 315.882 438.948ZM315.574 456H313.838V443.176L315.574 442.812V456ZM331.31 449.56C331.31 451.576 330.722 453.2 329.518 454.46C328.314 455.72 326.83 456.364 325.01 456.364C323.19 456.364 321.706 455.748 320.558 454.516C319.41 453.284 318.822 451.66 318.822 449.616C318.822 447.6 319.438 445.948 320.642 444.688C321.846 443.428 323.33 442.812 325.15 442.812C326.97 442.812 328.454 443.428 329.602 444.66C330.75 445.892 331.31 447.516 331.31 449.56ZM329.602 449.616C329.602 446.452 327.81 444.38 325.066 444.38C322.378 444.38 320.558 446.48 320.558 449.56C320.558 452.724 322.35 454.796 325.094 454.796C327.782 454.796 329.602 452.696 329.602 449.616ZM344.729 456H342.993V447.712C342.993 445.472 342.125 444.464 340.165 444.464C338.793 444.464 337.477 445.08 336.273 446.284V456H334.537V443.176L336.273 442.812V444.912C337.673 443.512 339.129 442.812 340.641 442.812C343.217 442.812 344.729 444.38 344.729 447.208V456ZM356.373 452.5C356.373 454.824 354.413 456.364 351.781 456.364C350.185 456.364 348.785 455.972 347.581 455.216L348.057 453.62C349.233 454.404 350.493 454.796 351.837 454.796C353.461 454.796 354.721 453.984 354.721 452.64C354.721 452.332 354.665 452.08 354.525 451.828C354.385 451.576 354.217 451.38 354.077 451.24C353.937 451.1 353.657 450.96 353.293 450.792C352.929 450.624 352.649 450.512 352.481 450.456C352.313 450.4 351.977 450.288 351.501 450.148C349.261 449.476 347.777 448.524 347.777 446.508C347.777 444.212 349.597 442.812 352.117 442.812C353.489 442.812 354.777 443.12 356.009 443.764L355.505 445.332C354.357 444.688 353.181 444.38 352.005 444.38C350.437 444.38 349.429 445.108 349.429 446.34C349.429 446.62 349.485 446.872 349.625 447.096C349.765 447.348 349.905 447.516 350.045 447.656C350.185 447.796 350.437 447.964 350.801 448.104C351.137 448.244 351.417 448.356 351.613 448.44C351.809 448.524 352.145 448.608 352.593 448.748C354.917 449.42 356.373 450.372 356.373 452.5Z" fill="#FBFBFB"/>
<path d="M254.745 549.5H252.645L246.009 567H247.829L249.677 561.988H257.601L259.449 567H261.269L254.745 549.5ZM256.985 560.364H250.293L253.653 551.264L256.985 560.364ZM273.118 566.272C271.942 567 270.626 567.364 269.142 567.364C265.306 567.364 262.87 564.676 262.87 560.616C262.87 558.628 263.458 556.976 264.662 555.716C265.838 554.456 267.35 553.812 269.17 553.812C270.71 553.812 272.026 554.176 273.174 554.904L272.726 556.472C271.69 555.772 270.486 555.436 269.17 555.436C266.398 555.436 264.662 557.48 264.662 560.56C264.662 563.724 266.454 565.74 269.198 565.74C270.486 565.74 271.662 565.376 272.754 564.676L273.118 566.272ZM282.727 566.748C281.775 567.196 280.823 567.42 279.871 567.42C277.491 567.42 276.343 566.076 276.427 563.388L276.623 555.8L274.663 555.688L274.747 554.596L276.679 554.148L276.763 551.236H278.415L278.331 554.232H282.615L282.531 555.772H278.275L278.079 563.444C278.023 565.04 278.639 565.852 279.955 565.852C280.655 565.852 281.467 565.656 282.419 565.236L282.727 566.748ZM287.63 549.948C287.63 550.312 287.518 550.592 287.322 550.844C287.126 551.096 286.818 551.236 286.454 551.236C286.09 551.236 285.782 551.096 285.586 550.844C285.39 550.592 285.278 550.312 285.278 549.948C285.278 549.612 285.39 549.332 285.586 549.08C285.782 548.828 286.09 548.716 286.454 548.716C286.818 548.716 287.126 548.828 287.322 549.08C287.518 549.332 287.63 549.612 287.63 549.948ZM287.322 567H285.586V554.176L287.322 553.812V567ZM301.154 554.176H299.334L295.414 564.76L291.354 554.176H289.478L294.546 567.028H296.114L301.154 554.176ZM305.349 549.948C305.349 550.312 305.237 550.592 305.041 550.844C304.845 551.096 304.537 551.236 304.173 551.236C303.809 551.236 303.501 551.096 303.305 550.844C303.109 550.592 302.997 550.312 302.997 549.948C302.997 549.612 303.109 549.332 303.305 549.08C303.501 548.828 303.809 548.716 304.173 548.716C304.537 548.716 304.845 548.828 305.041 549.08C305.237 549.332 305.349 549.612 305.349 549.948ZM305.041 567H303.305V554.176L305.041 553.812V567ZM315.512 566.748C314.56 567.196 313.608 567.42 312.656 567.42C310.276 567.42 309.128 566.076 309.212 563.388L309.408 555.8L307.448 555.688L307.532 554.596L309.464 554.148L309.548 551.236H311.2L311.116 554.232H315.4L315.316 555.772H311.06L310.864 563.444C310.808 565.04 311.424 565.852 312.74 565.852C313.44 565.852 314.252 565.656 315.204 565.236L315.512 566.748ZM328.087 554.176L323.103 566.86L322.067 569.632C320.947 572.684 319.771 573.664 317.923 573.664C317.167 573.664 316.355 573.468 315.431 573.076L315.963 571.48C316.663 571.844 317.307 572.04 317.923 572.04C318.987 572.04 319.687 571.396 320.555 569.072L321.423 566.804L316.411 554.176H318.287L322.319 564.76L326.267 554.176H328.087Z" fill="#FBFBFB"/>
<path d="M288.392 368C288.392 367.172 287.72 366.5 286.892 366.5C286.063 366.5 285.392 367.172 285.392 368L288.392 368ZM285.831 419.061C286.417 419.646 287.366 419.646 287.952 419.061L297.498 409.515C298.084 408.929 298.084 407.979 297.498 407.393C296.912 406.808 295.963 406.808 295.377 407.393L286.892 415.879L278.406 407.393C277.821 406.808 276.871 406.808 276.285 407.393C275.699 407.979 275.699 408.929 276.285 409.515L285.831 419.061ZM285.392 368L285.392 418L288.392 418L288.392 368L285.392 368Z" fill="#FBFBFB"/>
<path d="M288.392 479C288.392 478.172 287.72 477.5 286.892 477.5C286.063 477.5 285.392 478.172 285.392 479L288.392 479ZM285.831 530.061C286.417 530.646 287.366 530.646 287.952 530.061L297.498 520.515C298.084 519.929 298.084 518.979 297.498 518.393C296.912 517.808 295.963 517.808 295.377 518.393L286.892 526.879L278.406 518.393C277.821 517.808 276.871 517.808 276.285 518.393C275.699 518.979 275.699 519.929 276.285 520.515L285.831 530.061ZM285.392 479L285.392 529L288.392 529L288.392 479L285.392 479Z" fill="#FBFBFB"/>
<path d="M17.3484 456V438.5H15.5564V446.396H5.30837V438.5H3.51637V456H5.30837V448.02H15.5564V456H17.3484ZM22.5367 449.644V449.784C22.6207 452.724 24.3567 454.74 27.0167 454.74C28.4167 454.74 29.6487 454.376 30.7407 453.676L31.0767 455.272C29.9007 456 28.5287 456.364 26.9607 456.364C23.2927 456.364 20.7727 453.648 20.7727 449.7C20.7727 447.684 21.3607 446.032 22.5087 444.744C23.6567 443.456 25.0847 442.812 26.8207 442.812C29.6767 442.812 31.4967 444.66 31.4967 447.544C31.4967 448.3 31.4127 448.972 31.2167 449.588L22.5367 449.644ZM22.6487 448.272L29.7607 448.244C29.7887 448.16 29.7887 447.964 29.7887 447.684C29.7887 445.668 28.6967 444.38 26.7087 444.38C24.4967 444.38 22.9567 446.032 22.6487 448.272ZM41.457 453.172V449.42C37.145 449.896 35.493 450.848 35.493 452.612C35.493 453.956 36.585 454.852 38.125 454.852C39.357 454.852 40.477 454.292 41.457 453.172ZM41.569 454.46H41.485C40.449 455.72 39.217 456.364 37.733 456.364C35.381 456.364 33.673 454.88 33.673 452.808C33.673 450.064 36.277 448.552 41.457 448.244V447.488C41.457 445.444 40.449 444.436 38.433 444.436C37.089 444.436 35.409 445.108 34.233 445.976L33.841 444.352C35.073 443.484 36.977 442.812 38.601 442.812C41.681 442.812 43.221 444.352 43.193 447.404V453.564C43.193 454.572 43.417 454.88 44.481 454.852L44.369 456.28C42.717 456.392 41.765 455.776 41.569 454.46ZM48.8057 456V436.764L47.0697 437.128V456H48.8057ZM59.2232 455.748C58.2712 456.196 57.3192 456.42 56.3672 456.42C53.9872 456.42 52.8392 455.076 52.9232 452.388L53.1192 444.8L51.1592 444.688L51.2432 443.596L53.1752 443.148L53.2592 440.236H54.9112L54.8272 443.232H59.1112L59.0272 444.772H54.7712L54.5752 452.444C54.5192 454.04 55.1352 454.852 56.4512 454.852C57.1512 454.852 57.9632 454.656 58.9152 454.236L59.2232 455.748ZM72.2461 456H70.5101V447.712C70.5101 445.556 69.5861 444.464 67.7661 444.464C66.3381 444.464 64.9941 445.08 63.7901 446.284V456H62.0541V437.128L63.7901 436.764V444.856C65.1621 443.484 66.6461 442.812 68.2421 442.812C70.7621 442.812 72.2461 444.38 72.2461 447.208V456ZM98.2139 456H100.034L99.4739 438.5H97.0939L91.2699 453.956L85.3619 438.5H82.9539L82.3659 456H84.1299L84.4379 440.684L90.2339 455.888H92.1939L97.9339 440.712L98.2139 456ZM104.787 449.644V449.784C104.871 452.724 106.607 454.74 109.267 454.74C110.667 454.74 111.899 454.376 112.991 453.676L113.327 455.272C112.151 456 110.779 456.364 109.211 456.364C105.543 456.364 103.023 453.648 103.023 449.7C103.023 447.684 103.611 446.032 104.759 444.744C105.907 443.456 107.335 442.812 109.071 442.812C111.927 442.812 113.747 444.66 113.747 447.544C113.747 448.3 113.663 448.972 113.467 449.588L104.787 449.644ZM104.899 448.272L112.011 448.244C112.039 448.16 112.039 447.964 112.039 447.684C112.039 445.668 110.947 444.38 108.959 444.38C106.747 444.38 105.207 446.032 104.899 448.272ZM123.399 455.748C122.447 456.196 121.495 456.42 120.543 456.42C118.163 456.42 117.015 455.076 117.099 452.388L117.295 444.8L115.335 444.688L115.419 443.596L117.351 443.148L117.435 440.236H119.087L119.003 443.232H123.287L123.203 444.772H118.947L118.751 452.444C118.695 454.04 119.311 454.852 120.627 454.852C121.327 454.852 122.139 454.656 123.091 454.236L123.399 455.748ZM127.966 447.768V456H126.23V443.176L127.966 442.812V445.556C128.89 443.736 130.15 442.812 131.746 442.812C132.558 442.812 133.286 443.008 133.986 443.4L133.538 445.024C132.922 444.66 132.278 444.464 131.578 444.464C130.15 444.464 128.946 445.556 127.966 447.768ZM138.282 438.948C138.282 439.312 138.17 439.592 137.974 439.844C137.778 440.096 137.47 440.236 137.106 440.236C136.742 440.236 136.434 440.096 136.238 439.844C136.042 439.592 135.93 439.312 135.93 438.948C135.93 438.612 136.042 438.332 136.238 438.08C136.434 437.828 136.742 437.716 137.106 437.716C137.47 437.716 137.778 437.828 137.974 438.08C138.17 438.332 138.282 438.612 138.282 438.948ZM137.974 456H136.238V443.176L137.974 442.812V456ZM151.47 455.272C150.294 456 148.978 456.364 147.494 456.364C143.658 456.364 141.222 453.676 141.222 449.616C141.222 447.628 141.81 445.976 143.014 444.716C144.19 443.456 145.702 442.812 147.522 442.812C149.062 442.812 150.378 443.176 151.526 443.904L151.078 445.472C150.042 444.772 148.838 444.436 147.522 444.436C144.75 444.436 143.014 446.48 143.014 449.56C143.014 452.724 144.806 454.74 147.55 454.74C148.838 454.74 150.014 454.376 151.106 453.676L151.47 455.272ZM162.395 452.5C162.395 454.824 160.435 456.364 157.803 456.364C156.207 456.364 154.807 455.972 153.603 455.216L154.079 453.62C155.255 454.404 156.515 454.796 157.859 454.796C159.483 454.796 160.743 453.984 160.743 452.64C160.743 452.332 160.687 452.08 160.547 451.828C160.407 451.576 160.239 451.38 160.099 451.24C159.959 451.1 159.679 450.96 159.315 450.792C158.951 450.624 158.671 450.512 158.503 450.456C158.335 450.4 157.999 450.288 157.523 450.148C155.283 449.476 153.799 448.524 153.799 446.508C153.799 444.212 155.619 442.812 158.139 442.812C159.511 442.812 160.799 443.12 162.031 443.764L161.527 445.332C160.379 444.688 159.203 444.38 158.027 444.38C156.459 444.38 155.451 445.108 155.451 446.34C155.451 446.62 155.507 446.872 155.647 447.096C155.787 447.348 155.927 447.516 156.067 447.656C156.207 447.796 156.459 447.964 156.823 448.104C157.159 448.244 157.439 448.356 157.635 448.44C157.831 448.524 158.167 448.608 158.615 448.748C160.939 449.42 162.395 450.372 162.395 452.5Z" fill="#FBFBFB"/>
<path d="M84.3916 368C84.3916 367.172 83.72 366.5 82.8916 366.5C82.0632 366.5 81.3916 367.172 81.3916 368L84.3916 368ZM81.8309 419.061C82.4167 419.646 83.3665 419.646 83.9523 419.061L93.4982 409.515C94.084 408.929 94.084 407.979 93.4982 407.393C92.9124 406.808 91.9627 406.808 91.3769 407.393L82.8916 415.879L74.4063 407.393C73.8205 406.808 72.8708 406.808 72.285 407.393C71.6992 407.979 71.6992 408.929 72.285 409.515L81.8309 419.061ZM81.3916 368L81.3916 418L84.3916 418L84.3916 368L81.3916 368Z" fill="#FBFBFB"/>
<path d="M1044.73 701.5H1042.91L1037.25 717.152L1031.57 701.5H1029.75L1036.16 719H1038.26L1044.73 701.5ZM1049.09 701.948C1049.09 702.312 1048.98 702.592 1048.78 702.844C1048.58 703.096 1048.28 703.236 1047.91 703.236C1047.55 703.236 1047.24 703.096 1047.04 702.844C1046.85 702.592 1046.74 702.312 1046.74 701.948C1046.74 701.612 1046.85 701.332 1047.04 701.08C1047.24 700.828 1047.55 700.716 1047.91 700.716C1048.28 700.716 1048.58 700.828 1048.78 701.08C1048.98 701.332 1049.09 701.612 1049.09 701.948ZM1048.78 719H1047.04V706.176L1048.78 705.812V719ZM1053.79 712.644V712.784C1053.88 715.724 1055.61 717.74 1058.27 717.74C1059.67 717.74 1060.9 717.376 1062 716.676L1062.33 718.272C1061.16 719 1059.78 719.364 1058.22 719.364C1054.55 719.364 1052.03 716.648 1052.03 712.7C1052.03 710.684 1052.62 709.032 1053.76 707.744C1054.91 706.456 1056.34 705.812 1058.08 705.812C1060.93 705.812 1062.75 707.66 1062.75 710.544C1062.75 711.3 1062.67 711.972 1062.47 712.588L1053.79 712.644ZM1053.9 711.272L1061.02 711.244C1061.04 711.16 1061.04 710.964 1061.04 710.684C1061.04 708.668 1059.95 707.38 1057.96 707.38C1055.75 707.38 1054.21 709.032 1053.9 711.272ZM1070.13 719.056L1073.63 708.696L1077.13 719.056H1078.67L1082.48 706.176H1080.57L1077.91 716.452L1074.41 706.204H1072.85L1069.51 716.396L1066.55 706.176H1064.7L1068.62 719.056H1070.13ZM1091.43 719H1093.22V711.356H1100.28V709.704H1093.22V703.18H1101.73V701.5H1091.43V719ZM1104.08 706.176H1105.82V714.464C1105.82 716.62 1106.74 717.712 1108.59 717.712C1110.04 717.712 1111.36 717.096 1112.54 715.892V706.176H1114.27V719L1112.54 719.364V717.292C1111.19 718.664 1109.71 719.364 1108.11 719.364C1105.59 719.364 1104.08 717.74 1104.08 714.968V706.176ZM1120.04 719V699.764L1118.3 700.128V719H1120.04ZM1125.81 719V699.764L1124.07 700.128V719H1125.81ZM1044.38 748V755H1042.59V737.5H1047.3C1051.52 737.5 1053.65 739.376 1053.65 742.54C1053.65 745.06 1052.03 746.712 1049.59 747.468L1054.44 755H1052.36L1047.88 747.776L1044.38 748ZM1044.38 746.404L1047.52 746.292C1049.98 746.208 1051.86 744.836 1051.86 742.624C1051.86 740.328 1050.18 739.124 1047.1 739.124H1044.38V746.404ZM1057.84 748.644V748.784C1057.92 751.724 1059.66 753.74 1062.32 753.74C1063.72 753.74 1064.95 753.376 1066.04 752.676L1066.38 754.272C1065.2 755 1063.83 755.364 1062.26 755.364C1058.6 755.364 1056.08 752.648 1056.08 748.7C1056.08 746.684 1056.66 745.032 1057.81 743.744C1058.96 742.456 1060.39 741.812 1062.12 741.812C1064.98 741.812 1066.8 743.66 1066.8 746.544C1066.8 747.3 1066.72 747.972 1066.52 748.588L1057.84 748.644ZM1057.95 747.272L1065.06 747.244C1065.09 747.16 1065.09 746.964 1065.09 746.684C1065.09 744.668 1064 743.38 1062.01 743.38C1059.8 743.38 1058.26 745.032 1057.95 747.272ZM1071.8 743.464C1072.92 742.428 1074.16 741.896 1075.53 741.896C1078.97 741.896 1081.27 744.584 1081.27 748.532C1081.27 750.52 1080.68 752.172 1079.5 753.432C1078.3 754.72 1076.79 755.364 1074.94 755.364C1073.79 755.364 1072.76 755.14 1071.8 754.692V761.524H1070.07V742.12L1071.8 741.756V743.464ZM1071.8 744.92V752.788C1072.67 753.46 1073.74 753.796 1075.02 753.796C1077.71 753.796 1079.48 751.64 1079.48 748.56C1079.48 745.564 1077.82 743.492 1075.25 743.492C1073.99 743.492 1072.84 743.968 1071.8 744.92ZM1096.13 748.56C1096.13 750.576 1095.54 752.2 1094.33 753.46C1093.13 754.72 1091.65 755.364 1089.83 755.364C1088.01 755.364 1086.52 754.748 1085.37 753.516C1084.23 752.284 1083.64 750.66 1083.64 748.616C1083.64 746.6 1084.25 744.948 1085.46 743.688C1086.66 742.428 1088.15 741.812 1089.97 741.812C1091.79 741.812 1093.27 742.428 1094.42 743.66C1095.57 744.892 1096.13 746.516 1096.13 748.56ZM1094.42 748.616C1094.42 745.452 1092.63 743.38 1089.88 743.38C1087.19 743.38 1085.37 745.48 1085.37 748.56C1085.37 751.724 1087.17 753.796 1089.91 753.796C1092.6 753.796 1094.42 751.696 1094.42 748.616ZM1101.09 746.768V755H1099.35V742.176L1101.09 741.812V744.556C1102.01 742.736 1103.27 741.812 1104.87 741.812C1105.68 741.812 1106.41 742.008 1107.11 742.4L1106.66 744.024C1106.04 743.66 1105.4 743.464 1104.7 743.464C1103.27 743.464 1102.07 744.556 1101.09 746.768ZM1116.13 754.748C1115.18 755.196 1114.22 755.42 1113.27 755.42C1110.89 755.42 1109.74 754.076 1109.83 751.388L1110.02 743.8L1108.06 743.688L1108.15 742.596L1110.08 742.148L1110.16 739.236H1111.82L1111.73 742.232H1116.02L1115.93 743.772H1111.68L1111.48 751.444C1111.42 753.04 1112.04 753.852 1113.36 753.852C1114.06 753.852 1114.87 753.656 1115.82 753.236L1116.13 754.748Z" fill="#FBFBFB"/>
<path d="M1080.65 629C1080.65 628.172 1079.98 627.5 1079.15 627.5C1078.32 627.5 1077.65 628.172 1077.65 629L1080.65 629ZM1078.09 680.061C1078.67 680.646 1079.62 680.646 1080.21 680.061L1089.75 670.515C1090.34 669.929 1090.34 668.979 1089.75 668.393C1089.17 667.808 1088.22 667.808 1087.63 668.393L1079.15 676.879L1070.66 668.393C1070.08 667.808 1069.13 667.808 1068.54 668.393C1067.96 668.979 1067.96 669.929 1068.54 670.515L1078.09 680.061ZM1077.65 629L1077.65 679L1080.65 679L1080.65 629L1077.65 629Z" fill="#FBFBFB"/>
<path d="M851.042 701.5H848.942L842.306 719H844.126L845.974 713.988H853.898L855.746 719H857.566L851.042 701.5ZM853.282 712.364H846.59L849.95 703.264L853.282 712.364ZM870.199 719H868.463V710.712C868.463 708.472 867.595 707.464 865.635 707.464C864.263 707.464 862.947 708.08 861.743 709.284V719H860.007V706.176L861.743 705.812V707.912C863.143 706.512 864.599 705.812 866.111 705.812C868.687 705.812 870.199 707.38 870.199 710.208V719ZM883.552 718.272C882.376 719 881.06 719.364 879.576 719.364C875.74 719.364 873.304 716.676 873.304 712.616C873.304 710.628 873.892 708.976 875.096 707.716C876.272 706.456 877.784 705.812 879.604 705.812C881.144 705.812 882.46 706.176 883.608 706.904L883.16 708.472C882.124 707.772 880.92 707.436 879.604 707.436C876.832 707.436 875.096 709.48 875.096 712.56C875.096 715.724 876.888 717.74 879.632 717.74C880.92 717.74 882.096 717.376 883.188 716.676L883.552 718.272ZM887.564 712.644V712.784C887.648 715.724 889.384 717.74 892.044 717.74C893.444 717.74 894.676 717.376 895.768 716.676L896.104 718.272C894.928 719 893.556 719.364 891.988 719.364C888.32 719.364 885.8 716.648 885.8 712.7C885.8 710.684 886.388 709.032 887.536 707.744C888.684 706.456 890.112 705.812 891.848 705.812C894.704 705.812 896.524 707.66 896.524 710.544C896.524 711.3 896.44 711.972 896.244 712.588L887.564 712.644ZM887.676 711.272L894.788 711.244C894.816 711.16 894.816 710.964 894.816 710.684C894.816 708.668 893.724 707.38 891.736 707.38C889.524 707.38 887.984 709.032 887.676 711.272ZM907.492 715.5C907.492 717.824 905.532 719.364 902.9 719.364C901.304 719.364 899.904 718.972 898.7 718.216L899.176 716.62C900.352 717.404 901.612 717.796 902.956 717.796C904.58 717.796 905.84 716.984 905.84 715.64C905.84 715.332 905.784 715.08 905.644 714.828C905.504 714.576 905.336 714.38 905.196 714.24C905.056 714.1 904.776 713.96 904.412 713.792C904.048 713.624 903.768 713.512 903.6 713.456C903.432 713.4 903.096 713.288 902.62 713.148C900.38 712.476 898.896 711.524 898.896 709.508C898.896 707.212 900.716 705.812 903.236 705.812C904.608 705.812 905.896 706.12 907.128 706.764L906.624 708.332C905.476 707.688 904.3 707.38 903.124 707.38C901.556 707.38 900.548 708.108 900.548 709.34C900.548 709.62 900.604 709.872 900.744 710.096C900.884 710.348 901.024 710.516 901.164 710.656C901.304 710.796 901.556 710.964 901.92 711.104C902.256 711.244 902.536 711.356 902.732 711.44C902.928 711.524 903.264 711.608 903.712 711.748C906.036 712.42 907.492 713.372 907.492 715.5ZM917.004 718.748C916.052 719.196 915.1 719.42 914.148 719.42C911.768 719.42 910.62 718.076 910.704 715.388L910.9 707.8L908.94 707.688L909.024 706.596L910.956 706.148L911.04 703.236H912.692L912.608 706.232H916.892L916.808 707.772H912.552L912.356 715.444C912.3 717.04 912.916 717.852 914.232 717.852C914.932 717.852 915.744 717.656 916.696 717.236L917.004 718.748ZM921.571 710.768V719H919.835V706.176L921.571 705.812V708.556C922.495 706.736 923.755 705.812 925.351 705.812C926.163 705.812 926.891 706.008 927.591 706.4L927.143 708.024C926.527 707.66 925.883 707.464 925.183 707.464C923.755 707.464 922.551 708.556 921.571 710.768ZM939.97 706.176L934.986 718.86L933.95 721.632C932.83 724.684 931.654 725.664 929.806 725.664C929.05 725.664 928.238 725.468 927.314 725.076L927.846 723.48C928.546 723.844 929.19 724.04 929.806 724.04C930.87 724.04 931.57 723.396 932.438 721.072L933.306 718.804L928.294 706.176H930.17L934.202 716.76L938.15 706.176H939.97Z" fill="#FBFBFB"/>
<path d="M892.981 630C892.981 629.172 892.31 628.5 891.481 628.5C890.653 628.5 889.981 629.172 889.981 630L892.981 630ZM890.421 681.061C891.007 681.646 891.956 681.646 892.542 681.061L902.088 671.515C902.674 670.929 902.674 669.979 902.088 669.393C901.502 668.808 900.553 668.808 899.967 669.393L891.481 677.879L882.996 669.393C882.41 668.808 881.461 668.808 880.875 669.393C880.289 669.979 880.289 670.929 880.875 671.515L890.421 681.061ZM889.981 630L889.981 680L892.981 680L892.981 630L889.981 630Z" fill="#FBFBFB"/>
<path d="M654.339 710.124C654.339 715.668 650.895 719 644.931 719H640.311V701.5H645.071C647.899 701.5 650.167 702.284 651.847 703.852C653.499 705.448 654.339 707.52 654.339 710.124ZM652.547 710.264C652.547 705.812 649.775 703.152 644.959 703.152H642.103V717.348H645.015C649.663 717.348 652.547 714.94 652.547 710.264ZM669.849 716.508L659.909 701.5H657.893V719H659.629V704.02L669.653 719.168H671.585V701.5H669.849V716.508ZM683.02 701.5H680.92L674.284 719H676.104L677.952 713.988H685.876L687.724 719H689.544L683.02 701.5ZM685.26 712.364H678.568L681.928 703.264L685.26 712.364ZM709.809 706.96C709.809 710.74 707.205 712.728 702.753 712.812L700.373 712.84V719H698.581V701.5H702.977C707.485 701.5 709.809 703.628 709.809 706.96ZM707.961 707.044C707.961 704.524 706.197 703.152 702.921 703.152H700.373V711.188L702.865 711.132C706.253 711.076 707.961 709.704 707.961 707.044ZM714.612 710.768V719H712.876V706.176L714.612 705.812V708.556C715.536 706.736 716.796 705.812 718.392 705.812C719.204 705.812 719.932 706.008 720.632 706.4L720.184 708.024C719.568 707.66 718.924 707.464 718.224 707.464C716.796 707.464 715.592 708.556 714.612 710.768ZM734.231 712.56C734.231 714.576 733.643 716.2 732.439 717.46C731.235 718.72 729.751 719.364 727.931 719.364C726.111 719.364 724.627 718.748 723.479 717.516C722.331 716.284 721.743 714.66 721.743 712.616C721.743 710.6 722.359 708.948 723.563 707.688C724.767 706.428 726.251 705.812 728.071 705.812C729.891 705.812 731.375 706.428 732.523 707.66C733.671 708.892 734.231 710.516 734.231 712.56ZM732.523 712.616C732.523 709.452 730.731 707.38 727.987 707.38C725.299 707.38 723.479 709.48 723.479 712.56C723.479 715.724 725.271 717.796 728.015 717.796C730.703 717.796 732.523 715.696 732.523 712.616ZM744.038 700.072L743.954 700.464C743.87 700.744 743.814 700.996 743.73 701.248L743.618 701.64C742.862 701.276 742.218 701.108 741.658 701.108C740.23 701.108 739.53 702.116 739.53 704.104V706.232H743.562L743.478 707.772H739.53V719H737.822V707.828L735.75 707.688L735.862 706.596L737.794 706.148L737.822 704.132C737.878 701.052 739.166 699.512 741.686 699.512C742.47 699.512 743.254 699.708 744.038 700.072ZM747.87 701.948C747.87 702.312 747.758 702.592 747.562 702.844C747.366 703.096 747.058 703.236 746.694 703.236C746.33 703.236 746.022 703.096 745.826 702.844C745.63 702.592 745.518 702.312 745.518 701.948C745.518 701.612 745.63 701.332 745.826 701.08C746.022 700.828 746.33 700.716 746.694 700.716C747.058 700.716 747.366 700.828 747.562 701.08C747.758 701.332 747.87 701.612 747.87 701.948ZM747.562 719H745.826V706.176L747.562 705.812V719ZM753.386 719V699.764L751.65 700.128V719H753.386ZM758.343 712.644V712.784C758.427 715.724 760.163 717.74 762.823 717.74C764.223 717.74 765.455 717.376 766.547 716.676L766.883 718.272C765.707 719 764.335 719.364 762.767 719.364C759.099 719.364 756.579 716.648 756.579 712.7C756.579 710.684 757.167 709.032 758.315 707.744C759.463 706.456 760.891 705.812 762.627 705.812C765.483 705.812 767.303 707.66 767.303 710.544C767.303 711.3 767.219 711.972 767.023 712.588L758.343 712.644ZM758.455 711.272L765.567 711.244C765.595 711.16 765.595 710.964 765.595 710.684C765.595 708.668 764.503 707.38 762.515 707.38C760.303 707.38 758.763 709.032 758.455 711.272ZM660.849 737.136C663.313 737.136 665.357 737.976 667.009 739.656C668.633 741.336 669.445 743.52 669.445 746.18C669.445 748.84 668.633 751.052 667.009 752.76C665.385 754.496 663.313 755.364 660.821 755.364C658.357 755.364 656.313 754.524 654.689 752.816C653.037 751.136 652.225 748.952 652.225 746.292C652.225 743.632 653.037 741.42 654.661 739.712C656.285 738.004 658.357 737.136 660.849 737.136ZM667.625 746.292C667.625 744.052 666.981 742.232 665.721 740.832C664.433 739.432 662.781 738.732 660.793 738.732C658.805 738.732 657.209 739.432 655.949 740.804C654.689 742.176 654.045 743.968 654.045 746.18C654.045 748.42 654.689 750.24 655.977 751.64C657.265 753.068 658.917 753.768 660.905 753.768C662.865 753.768 664.489 753.068 665.749 751.668C667.009 750.296 667.625 748.504 667.625 746.292ZM682.521 742.176H680.701L676.781 752.76L672.721 742.176H670.845L675.913 755.028H677.481L682.521 742.176ZM685.431 748.644V748.784C685.515 751.724 687.251 753.74 689.911 753.74C691.311 753.74 692.543 753.376 693.635 752.676L693.971 754.272C692.795 755 691.423 755.364 689.855 755.364C686.187 755.364 683.667 752.648 683.667 748.7C683.667 746.684 684.255 745.032 685.403 743.744C686.551 742.456 687.979 741.812 689.715 741.812C692.571 741.812 694.391 743.66 694.391 746.544C694.391 747.3 694.307 747.972 694.111 748.588L685.431 748.644ZM685.543 747.272L692.655 747.244C692.683 747.16 692.683 746.964 692.683 746.684C692.683 744.668 691.591 743.38 689.603 743.38C687.391 743.38 685.851 745.032 685.543 747.272ZM699.396 746.768V755H697.66V742.176L699.396 741.812V744.556C700.32 742.736 701.58 741.812 703.176 741.812C703.988 741.812 704.716 742.008 705.416 742.4L704.968 744.024C704.352 743.66 703.708 743.464 703.008 743.464C701.58 743.464 700.376 744.556 699.396 746.768ZM717.794 742.176H715.974L712.054 752.76L707.994 742.176H706.118L711.186 755.028H712.754L717.794 742.176ZM721.989 737.948C721.989 738.312 721.877 738.592 721.681 738.844C721.485 739.096 721.177 739.236 720.813 739.236C720.449 739.236 720.141 739.096 719.945 738.844C719.749 738.592 719.637 738.312 719.637 737.948C719.637 737.612 719.749 737.332 719.945 737.08C720.141 736.828 720.449 736.716 720.813 736.716C721.177 736.716 721.485 736.828 721.681 737.08C721.877 737.332 721.989 737.612 721.989 737.948ZM721.681 755H719.945V742.176L721.681 741.812V755ZM726.693 748.644V748.784C726.777 751.724 728.513 753.74 731.173 753.74C732.573 753.74 733.805 753.376 734.897 752.676L735.233 754.272C734.057 755 732.685 755.364 731.117 755.364C727.449 755.364 724.929 752.648 724.929 748.7C724.929 746.684 725.517 745.032 726.665 743.744C727.813 742.456 729.241 741.812 730.977 741.812C733.833 741.812 735.653 743.66 735.653 746.544C735.653 747.3 735.569 747.972 735.373 748.588L726.693 748.644ZM726.805 747.272L733.917 747.244C733.945 747.16 733.945 746.964 733.945 746.684C733.945 744.668 732.853 743.38 730.865 743.38C728.653 743.38 727.113 745.032 726.805 747.272ZM743.031 755.056L746.531 744.696L750.031 755.056H751.571L755.379 742.176H753.475L750.815 752.452L747.315 742.204H745.747L742.415 752.396L739.447 742.176H737.599L741.519 755.056H743.031Z" fill="#FBFBFB"/>
<path d="M705.313 629C705.313 628.172 704.642 627.5 703.813 627.5C702.985 627.5 702.313 628.172 702.313 629L705.313 629ZM702.753 680.061C703.339 680.646 704.288 680.646 704.874 680.061L714.42 670.515C715.006 669.929 715.006 668.979 714.42 668.393C713.834 667.808 712.885 667.808 712.299 668.393L703.813 676.879L695.328 668.393C694.742 667.808 693.793 667.808 693.207 668.393C692.621 668.979 692.621 669.929 693.207 670.515L702.753 680.061ZM702.313 629L702.313 679L705.313 679L705.313 629L702.313 629Z" fill="#FBFBFB"/>
<path d="M468.22 702.564L467.66 704.16C466.204 703.236 464.58 702.76 462.788 702.76C458.84 702.76 456.18 705.532 456.18 710.236C456.18 714.856 458.784 717.74 462.844 717.74C464.72 717.74 466.344 717.208 467.744 716.172L468.08 717.936C466.624 718.888 464.86 719.364 462.816 719.364C460.268 719.364 458.224 718.552 456.684 716.9C455.144 715.248 454.36 713.064 454.36 710.292C454.36 707.52 455.144 705.308 456.74 703.628C458.308 701.976 460.324 701.136 462.816 701.136C464.86 701.136 466.652 701.612 468.22 702.564ZM473.202 710.768V719H471.466V706.176L473.202 705.812V708.556C474.126 706.736 475.386 705.812 476.982 705.812C477.794 705.812 478.522 706.008 479.222 706.4L478.774 708.024C478.158 707.66 477.514 707.464 476.814 707.464C475.386 707.464 474.182 708.556 473.202 710.768ZM483.519 701.948C483.519 702.312 483.407 702.592 483.211 702.844C483.015 703.096 482.707 703.236 482.343 703.236C481.979 703.236 481.671 703.096 481.475 702.844C481.279 702.592 481.167 702.312 481.167 701.948C481.167 701.612 481.279 701.332 481.475 701.08C481.671 700.828 481.979 700.716 482.343 700.716C482.707 700.716 483.015 700.828 483.211 701.08C483.407 701.332 483.519 701.612 483.519 701.948ZM483.211 719H481.475V706.176L483.211 705.812V719ZM493.682 718.748C492.73 719.196 491.778 719.42 490.826 719.42C488.446 719.42 487.298 718.076 487.382 715.388L487.578 707.8L485.618 707.688L485.702 706.596L487.634 706.148L487.718 703.236H489.37L489.286 706.232H493.57L493.486 707.772H489.23L489.034 715.444C488.978 717.04 489.594 717.852 490.91 717.852C491.61 717.852 492.422 717.656 493.374 717.236L493.682 718.748ZM498.585 701.948C498.585 702.312 498.473 702.592 498.277 702.844C498.081 703.096 497.773 703.236 497.409 703.236C497.045 703.236 496.737 703.096 496.541 702.844C496.345 702.592 496.233 702.312 496.233 701.948C496.233 701.612 496.345 701.332 496.541 701.08C496.737 700.828 497.045 700.716 497.409 700.716C497.773 700.716 498.081 700.828 498.277 701.08C498.473 701.332 498.585 701.612 498.585 701.948ZM498.277 719H496.541V706.176L498.277 705.812V719ZM511.773 718.272C510.597 719 509.281 719.364 507.797 719.364C503.961 719.364 501.525 716.676 501.525 712.616C501.525 710.628 502.113 708.976 503.317 707.716C504.493 706.456 506.005 705.812 507.825 705.812C509.365 705.812 510.681 706.176 511.829 706.904L511.381 708.472C510.345 707.772 509.141 707.436 507.825 707.436C505.053 707.436 503.317 709.48 503.317 712.56C503.317 715.724 505.109 717.74 507.853 717.74C509.141 717.74 510.317 717.376 511.409 716.676L511.773 718.272ZM521.689 716.172V712.42C517.377 712.896 515.725 713.848 515.725 715.612C515.725 716.956 516.817 717.852 518.357 717.852C519.589 717.852 520.709 717.292 521.689 716.172ZM521.801 717.46H521.717C520.681 718.72 519.449 719.364 517.965 719.364C515.613 719.364 513.905 717.88 513.905 715.808C513.905 713.064 516.509 711.552 521.689 711.244V710.488C521.689 708.444 520.681 707.436 518.665 707.436C517.321 707.436 515.641 708.108 514.465 708.976L514.073 707.352C515.305 706.484 517.209 705.812 518.833 705.812C521.913 705.812 523.453 707.352 523.425 710.404V716.564C523.425 717.572 523.649 717.88 524.713 717.852L524.601 719.28C522.949 719.392 521.997 718.776 521.801 717.46ZM529.038 719V699.764L527.302 700.128V719H529.038ZM546.135 716.172V712.42C541.823 712.896 540.171 713.848 540.171 715.612C540.171 716.956 541.263 717.852 542.803 717.852C544.035 717.852 545.155 717.292 546.135 716.172ZM546.247 717.46H546.163C545.127 718.72 543.895 719.364 542.411 719.364C540.059 719.364 538.351 717.88 538.351 715.808C538.351 713.064 540.955 711.552 546.135 711.244V710.488C546.135 708.444 545.127 707.436 543.111 707.436C541.767 707.436 540.087 708.108 538.911 708.976L538.519 707.352C539.751 706.484 541.655 705.812 543.279 705.812C546.359 705.812 547.899 707.352 547.871 710.404V716.564C547.871 717.572 548.095 717.88 549.159 717.852L549.047 719.28C547.395 719.392 546.443 718.776 546.247 717.46ZM561.939 719H560.203V710.712C560.203 708.472 559.335 707.464 557.375 707.464C556.003 707.464 554.687 708.08 553.483 709.284V719H551.747V706.176L553.483 705.812V707.912C554.883 706.512 556.339 705.812 557.851 705.812C560.427 705.812 561.939 707.38 561.939 710.208V719ZM574.508 706.596V700.128L576.244 699.764V719H574.508V717.796C573.388 718.832 572.156 719.364 570.784 719.364C567.34 719.364 565.044 716.648 565.044 712.7C565.044 710.712 565.632 709.088 566.836 707.8C568.04 706.54 569.552 705.896 571.4 705.896C572.464 705.896 573.5 706.12 574.508 706.596ZM574.508 708.444C573.668 707.8 572.604 707.464 571.316 707.464C568.572 707.464 566.836 709.592 566.836 712.672C566.836 715.668 568.516 717.768 571.092 717.768C572.352 717.768 573.5 717.292 574.508 716.34V708.696V708.444ZM444.772 755V737.5H443.008V755H444.772ZM459.291 755H457.555V746.712C457.555 744.472 456.687 743.464 454.727 743.464C453.355 743.464 452.039 744.08 450.835 745.284V755H449.099V742.176L450.835 741.812V743.912C452.235 742.512 453.691 741.812 455.203 741.812C457.779 741.812 459.291 743.38 459.291 746.208V755ZM469.816 736.072L469.732 736.464C469.648 736.744 469.592 736.996 469.508 737.248L469.396 737.64C468.64 737.276 467.996 737.108 467.436 737.108C466.008 737.108 465.308 738.116 465.308 740.104V742.232H469.34L469.256 743.772H465.308V755H463.6V743.828L461.528 743.688L461.64 742.596L463.572 742.148L463.6 740.132C463.656 737.052 464.944 735.512 467.464 735.512C468.248 735.512 469.032 735.708 469.816 736.072ZM483.224 748.56C483.224 750.576 482.636 752.2 481.432 753.46C480.228 754.72 478.744 755.364 476.924 755.364C475.104 755.364 473.62 754.748 472.472 753.516C471.324 752.284 470.736 750.66 470.736 748.616C470.736 746.6 471.352 744.948 472.556 743.688C473.76 742.428 475.244 741.812 477.064 741.812C478.884 741.812 480.368 742.428 481.516 743.66C482.664 744.892 483.224 746.516 483.224 748.56ZM481.516 748.616C481.516 745.452 479.724 743.38 476.98 743.38C474.292 743.38 472.472 745.48 472.472 748.56C472.472 751.724 474.264 753.796 477.008 753.796C479.696 753.796 481.516 751.696 481.516 748.616ZM488.187 746.768V755H486.451V742.176L488.187 741.812V744.556C489.111 742.736 490.371 741.812 491.967 741.812C492.779 741.812 493.507 742.008 494.207 742.4L493.759 744.024C493.143 743.66 492.499 743.464 491.799 743.464C490.371 743.464 489.167 744.556 488.187 746.768ZM514.183 755H512.447V746.74C512.447 744.556 511.551 743.464 509.731 743.464C508.499 743.464 507.295 744.024 506.119 745.116C506.147 745.34 506.175 745.732 506.175 746.264V755H504.439V746.74C504.439 744.556 503.543 743.464 501.723 743.464C500.463 743.464 499.287 743.968 498.167 744.948V755H496.431V742.176L498.167 741.812V743.576C499.455 742.4 500.799 741.812 502.227 741.812C503.935 741.812 505.083 742.512 505.699 743.94C507.127 742.512 508.639 741.812 510.235 741.812C512.699 741.812 514.183 743.408 514.183 746.236V755ZM524.834 752.172V748.42C520.522 748.896 518.87 749.848 518.87 751.612C518.87 752.956 519.962 753.852 521.502 753.852C522.734 753.852 523.854 753.292 524.834 752.172ZM524.946 753.46H524.862C523.826 754.72 522.594 755.364 521.11 755.364C518.758 755.364 517.05 753.88 517.05 751.808C517.05 749.064 519.654 747.552 524.834 747.244V746.488C524.834 744.444 523.826 743.436 521.81 743.436C520.466 743.436 518.786 744.108 517.61 744.976L517.218 743.352C518.45 742.484 520.354 741.812 521.978 741.812C525.058 741.812 526.598 743.352 526.57 746.404V752.564C526.57 753.572 526.794 753.88 527.858 753.852L527.746 755.28C526.094 755.392 525.142 754.776 524.946 753.46ZM536.831 754.748C535.879 755.196 534.927 755.42 533.975 755.42C531.595 755.42 530.447 754.076 530.531 751.388L530.727 743.8L528.767 743.688L528.851 742.596L530.783 742.148L530.867 739.236H532.519L532.435 742.232H536.719L536.635 743.772H532.379L532.183 751.444C532.127 753.04 532.743 753.852 534.059 753.852C534.759 753.852 535.571 753.656 536.523 753.236L536.831 754.748ZM541.734 737.948C541.734 738.312 541.622 738.592 541.426 738.844C541.23 739.096 540.922 739.236 540.558 739.236C540.194 739.236 539.886 739.096 539.69 738.844C539.494 738.592 539.382 738.312 539.382 737.948C539.382 737.612 539.494 737.332 539.69 737.08C539.886 736.828 540.194 736.716 540.558 736.716C540.922 736.716 541.23 736.828 541.426 737.08C541.622 737.332 541.734 737.612 541.734 737.948ZM541.426 755H539.69V742.176L541.426 741.812V755ZM557.161 748.56C557.161 750.576 556.573 752.2 555.369 753.46C554.165 754.72 552.681 755.364 550.861 755.364C549.041 755.364 547.557 754.748 546.409 753.516C545.261 752.284 544.673 750.66 544.673 748.616C544.673 746.6 545.289 744.948 546.493 743.688C547.697 742.428 549.181 741.812 551.001 741.812C552.821 741.812 554.305 742.428 555.453 743.66C556.601 744.892 557.161 746.516 557.161 748.56ZM555.453 748.616C555.453 745.452 553.661 743.38 550.917 743.38C548.229 743.38 546.409 745.48 546.409 748.56C546.409 751.724 548.201 753.796 550.945 753.796C553.633 753.796 555.453 751.696 555.453 748.616ZM570.58 755H568.844V746.712C568.844 744.472 567.976 743.464 566.016 743.464C564.644 743.464 563.328 744.08 562.124 745.284V755H560.388V742.176L562.124 741.812V743.912C563.524 742.512 564.98 741.812 566.492 741.812C569.068 741.812 570.58 743.38 570.58 746.208V755ZM581.217 752.172V748.42C576.905 748.896 575.253 749.848 575.253 751.612C575.253 752.956 576.345 753.852 577.885 753.852C579.117 753.852 580.237 753.292 581.217 752.172ZM581.329 753.46H581.245C580.209 754.72 578.977 755.364 577.493 755.364C575.141 755.364 573.433 753.88 573.433 751.808C573.433 749.064 576.037 747.552 581.217 747.244V746.488C581.217 744.444 580.209 743.436 578.193 743.436C576.849 743.436 575.169 744.108 573.993 744.976L573.601 743.352C574.833 742.484 576.737 741.812 578.361 741.812C581.441 741.812 582.981 743.352 582.953 746.404V752.564C582.953 753.572 583.177 753.88 584.241 753.852L584.129 755.28C582.477 755.392 581.525 754.776 581.329 753.46ZM588.565 755V735.764L586.829 736.128V755H588.565ZM481.385 784V791H479.593V773.5H484.297C488.525 773.5 490.653 775.376 490.653 778.54C490.653 781.06 489.029 782.712 486.593 783.468L491.437 791H489.365L484.885 783.776L481.385 784ZM481.385 782.404L484.521 782.292C486.985 782.208 488.861 780.836 488.861 778.624C488.861 776.328 487.181 775.124 484.101 775.124H481.385V782.404ZM494.839 784.644V784.784C494.923 787.724 496.659 789.74 499.319 789.74C500.719 789.74 501.951 789.376 503.043 788.676L503.379 790.272C502.203 791 500.831 791.364 499.263 791.364C495.595 791.364 493.075 788.648 493.075 784.7C493.075 782.684 493.663 781.032 494.811 779.744C495.959 778.456 497.387 777.812 499.123 777.812C501.979 777.812 503.799 779.66 503.799 782.544C503.799 783.3 503.715 783.972 503.519 784.588L494.839 784.644ZM494.951 783.272L502.063 783.244C502.091 783.16 502.091 782.964 502.091 782.684C502.091 780.668 500.999 779.38 499.011 779.38C496.799 779.38 495.259 781.032 494.951 783.272ZM508.804 779.464C509.924 778.428 511.156 777.896 512.528 777.896C515.972 777.896 518.268 780.584 518.268 784.532C518.268 786.52 517.68 788.172 516.504 789.432C515.3 790.72 513.788 791.364 511.94 791.364C510.792 791.364 509.756 791.14 508.804 790.692V797.524H507.068V778.12L508.804 777.756V779.464ZM508.804 780.92V788.788C509.672 789.46 510.736 789.796 512.024 789.796C514.712 789.796 516.476 787.64 516.476 784.56C516.476 781.564 514.824 779.492 512.248 779.492C510.988 779.492 509.84 779.968 508.804 780.92ZM533.126 784.56C533.126 786.576 532.538 788.2 531.334 789.46C530.13 790.72 528.646 791.364 526.826 791.364C525.006 791.364 523.522 790.748 522.374 789.516C521.226 788.284 520.638 786.66 520.638 784.616C520.638 782.6 521.254 780.948 522.458 779.688C523.662 778.428 525.146 777.812 526.966 777.812C528.786 777.812 530.27 778.428 531.418 779.66C532.566 780.892 533.126 782.516 533.126 784.56ZM531.418 784.616C531.418 781.452 529.626 779.38 526.882 779.38C524.194 779.38 522.374 781.48 522.374 784.56C522.374 787.724 524.166 789.796 526.91 789.796C529.598 789.796 531.418 787.696 531.418 784.616ZM538.089 782.768V791H536.353V778.176L538.089 777.812V780.556C539.013 778.736 540.273 777.812 541.869 777.812C542.681 777.812 543.409 778.008 544.109 778.4L543.661 780.024C543.045 779.66 542.401 779.464 541.701 779.464C540.273 779.464 539.069 780.556 538.089 782.768ZM553.128 790.748C552.176 791.196 551.224 791.42 550.272 791.42C547.892 791.42 546.744 790.076 546.828 787.388L547.024 779.8L545.064 779.688L545.148 778.596L547.08 778.148L547.164 775.236H548.816L548.732 778.232H553.016L552.932 779.772H548.676L548.48 787.444C548.424 789.04 549.04 789.852 550.356 789.852C551.056 789.852 551.868 789.656 552.82 789.236L553.128 790.748Z" fill="#FBFBFB"/>
<path d="M517.647 629C517.647 628.172 516.976 627.5 516.147 627.5C515.319 627.5 514.647 628.172 514.647 629L517.647 629ZM515.087 680.061C515.673 680.646 516.622 680.646 517.208 680.061L526.754 670.515C527.34 669.929 527.34 668.979 526.754 668.393C526.168 667.808 525.219 667.808 524.633 668.393L516.147 676.879L507.662 668.393C507.076 667.808 506.127 667.808 505.541 668.393C504.955 668.979 504.955 669.929 505.541 670.515L515.087 680.061ZM514.647 629L514.647 679L517.647 679L517.647 629L514.647 629Z" fill="#FBFBFB"/>
<line x1="211.608" y1="157.5" x2="1382.69" y2="157.5" stroke="#FBFBFB" stroke-width="3" stroke-linecap="round"/>
<line x1="83.8916" y1="367.5" x2="643.892" y2="367.5" stroke="#FBFBFB" stroke-width="3" stroke-linecap="round"/>
<line x1="517.647" y1="628.5" x2="1077.65" y2="628.5" stroke="#FBFBFB" stroke-width="3" stroke-linecap="round"/>
<line x1="1290.69" y1="369.5" x2="1480.69" y2="369.5" stroke="#FBFBFB" stroke-width="3" stroke-linecap="round"/>
<line x1="209.647" y1="275.5" x2="209.647" y2="366.5" stroke="#FBFBFB" stroke-width="3" stroke-linecap="round"/>
<path d="M1386.19 275.5C1386.19 274.672 1385.51 274 1384.69 274C1383.86 274 1383.19 274.672 1383.19 275.5L1386.19 275.5ZM1384.69 367.5L1393.35 352.5L1376.03 352.5L1384.69 367.5ZM1383.19 275.5L1383.19 354L1386.19 354L1386.19 275.5L1383.19 275.5Z" fill="#FBFBFB"/>
<line x1="798.647" y1="275.5" x2="798.647" y2="627.5" stroke="#FBFBFB" stroke-width="3" stroke-linecap="round"/>
</svg>
