<svg fill="none" height="798" viewBox="0 0 1568 798" width="1568" xmlns="http://www.w3.org/2000/svg"><path d="m737.204 35.416c-2.484 1.404-5.292 2.124-8.424 2.124-3.492 0-6.336-1.044-8.46-3.168-2.16-2.124-3.24-4.968-3.24-8.568s1.08-6.48 3.24-8.64c2.124-2.124 4.968-3.204 8.496-3.204 2.808 0 5.976.72 7.956 1.944l-1.404 3.816c-2.124-1.332-4.284-1.98-6.48-1.98-4.5 0-7.38 3.06-7.38 7.92 0 5.076 2.736 8.172 7.38 8.172 1.512 0 2.916-.288 4.248-.9v-4.32h-5.904v-3.708h9.972zm19.953 1.584v-3.708h-11.016v-5.724h9.036v-3.708h-9.036v-5.652h11.016v-3.708h-15.336v22.5zm19.69-6.12-10.656-16.38h-4.788v22.5h4.176v-16.344l10.764 16.56h4.68v-22.716h-4.176zm24.712 6.12v-3.708h-11.016v-5.724h9.036v-3.708h-9.036v-5.652h11.016v-3.708h-15.336v22.5zm4.246 0h4.356v-8.964h8.64v-3.78h-8.64v-5.94h10.62v-3.816h-14.976zm23.061 0v-22.5h-4.356v22.5zm22.808-18.648v-3.852h-19.404v3.852h7.524v18.648h4.356v-18.648z" fill="#ec8539"/><g fill="#fbfbfb"><path d="m686.197 124v-1.68h-8.652v-15.82h-1.792v17.5zm14.077-6.44c0 2.016-.588 3.64-1.792 4.9s-2.688 1.904-4.508 1.904-3.304-.616-4.452-1.848-1.736-2.856-1.736-4.9c0-2.016.616-3.668 1.82-4.928s2.688-1.876 4.508-1.876 3.304.616 4.452 1.848 1.708 2.856 1.708 4.9zm-1.708.056c0-3.164-1.792-5.236-4.536-5.236-2.688 0-4.508 2.1-4.508 5.18 0 3.164 1.792 5.236 4.536 5.236 2.688 0 4.508-2.1 4.508-5.18zm5.915-1.96c0 1.904 1.288 3.276 3.304 3.276.98 0 1.736-.308 2.324-.952.588-.616.868-1.428.868-2.408s-.28-1.792-.84-2.408c-.588-.616-1.4-.924-2.436-.924-1.988 0-3.22 1.4-3.22 3.416zm1.512 8.708c-1.54.42-2.604 1.428-2.604 2.52 0 1.54 1.708 2.632 4.368 2.632 2.688 0 4.816-1.288 4.816-3.024 0-1.456-1.232-2.044-3.892-2.044-1.064 0-1.96-.028-2.688-.084zm-1.512-.336c-1.148-.42-1.736-1.092-1.736-2.044 0-1.064.868-1.988 2.1-2.436-1.372-.84-2.072-2.156-2.072-3.92 0-2.772 2.044-4.816 5.04-4.816 1.12 0 2.128.252 3.024.756l3.556-.28.084 1.736-2.828-.28c.588.588 1.036 1.82 1.036 2.884 0 2.744-2.1 4.704-4.984 4.704-.588 0-1.204-.112-1.904-.364-.952.392-1.428.896-1.428 1.54 0 .868.728 1.316 2.912 1.316h1.652c3.556 0 5.32 1.12 5.32 3.36 0 1.372-.672 2.52-1.988 3.416s-2.912 1.344-4.76 1.344c-3.444 0-5.796-1.512-5.796-3.752 0-1.456 1.12-2.744 2.772-3.164zm14.19-17.08c0 .364-.112.644-.308.896s-.504.392-.868.392-.672-.14-.868-.392-.308-.532-.308-.896c0-.336.112-.616.308-.868s.504-.364.868-.364.672.112.868.364.308.532.308.868zm-.308 17.052h-1.736v-12.824l1.736-.364zm14.28 0h-1.736v-8.288c0-2.24-.868-3.248-2.828-3.248-1.372 0-2.688.616-3.892 1.82v9.716h-1.736v-12.824l1.736-.364v2.1c1.4-1.4 2.856-2.1 4.368-2.1 2.576 0 4.088 1.568 4.088 4.396zm17.007-2.828v-3.752c-4.312.476-5.964 1.428-5.964 3.192 0 1.344 1.092 2.24 2.632 2.24 1.232 0 2.352-.56 3.332-1.68zm.112 1.288h-.084c-1.036 1.26-2.268 1.904-3.752 1.904-2.352 0-4.06-1.484-4.06-3.556 0-2.744 2.604-4.256 7.784-4.564v-.756c0-2.044-1.008-3.052-3.024-3.052-1.344 0-3.024.672-4.2 1.54l-.392-1.624c1.232-.868 3.136-1.54 4.76-1.54 3.08 0 4.62 1.54 4.592 4.592v6.16c0 1.008.224 1.316 1.288 1.288l-.112 1.428c-1.652.112-2.604-.504-2.8-1.82zm15.693 1.54h-1.736v-8.288c0-2.24-.868-3.248-2.828-3.248-1.372 0-2.688.616-3.892 1.82v9.716h-1.736v-12.824l1.736-.364v2.1c1.4-1.4 2.856-2.1 4.368-2.1 2.576 0 4.088 1.568 4.088 4.396zm12.569-12.404v-6.468l1.736-.364v19.236h-1.736v-1.204c-1.12 1.036-2.352 1.568-3.724 1.568-3.444 0-5.74-2.716-5.74-6.664 0-1.988.588-3.612 1.792-4.9 1.204-1.26 2.716-1.904 4.564-1.904 1.064 0 2.1.224 3.108.7zm0 1.848c-.84-.644-1.904-.98-3.192-.98-2.744 0-4.48 2.128-4.48 5.208 0 2.996 1.68 5.096 4.256 5.096 1.26 0 2.408-.476 3.416-1.428v-7.644zm20.054-7.308c2.464 0 4.508.84 6.16 2.52 1.624 1.68 2.436 3.864 2.436 6.524s-.812 4.872-2.436 6.58c-1.624 1.736-3.696 2.604-6.188 2.604-2.464 0-4.508-.84-6.132-2.548-1.652-1.68-2.464-3.864-2.464-6.524s.812-4.872 2.436-6.58 3.696-2.576 6.188-2.576zm6.776 9.156c0-2.24-.644-4.06-1.904-5.46-1.288-1.4-2.94-2.1-4.928-2.1s-3.584.7-4.844 2.072-1.904 3.164-1.904 5.376c0 2.24.644 4.06 1.932 5.46 1.288 1.428 2.94 2.128 4.928 2.128 1.96 0 3.584-.7 4.844-2.1 1.26-1.372 1.876-3.164 1.876-5.376zm15.343 8.708h-1.736v-8.288c0-2.24-.868-3.248-2.828-3.248-1.372 0-2.688.616-3.892 1.82v9.716h-1.736v-12.824l1.736-.364v2.1c1.4-1.4 2.856-2.1 4.368-2.1 2.576 0 4.088 1.568 4.088 4.396zm15.145-6.58c0 2.016-.588 3.668-1.764 4.984-1.204 1.316-2.716 1.96-4.564 1.96-1.092 0-2.128-.224-3.136-.7l-1.736.756v-19.292l1.736-.364v7.756c1.148-1.092 2.436-1.624 3.864-1.624 3.388 0 5.6 2.66 5.6 6.524zm-1.792.084c0-2.968-1.624-5.012-4.144-5.012-1.316 0-2.492.476-3.528 1.428v7.868c.868.672 1.932 1.008 3.22 1.008 2.744 0 4.452-2.128 4.452-5.292zm16.541.056c0 2.016-.588 3.64-1.792 4.9s-2.688 1.904-4.508 1.904-3.304-.616-4.452-1.848-1.736-2.856-1.736-4.9c0-2.016.616-3.668 1.82-4.928s2.688-1.876 4.508-1.876 3.304.616 4.452 1.848 1.708 2.856 1.708 4.9zm-1.708.056c0-3.164-1.792-5.236-4.536-5.236-2.688 0-4.508 2.1-4.508 5.18 0 3.164 1.792 5.236 4.536 5.236 2.688 0 4.508-2.1 4.508-5.18zm11.627 3.556v-3.752c-4.312.476-5.964 1.428-5.964 3.192 0 1.344 1.092 2.24 2.632 2.24 1.232 0 2.352-.56 3.332-1.68zm.112 1.288h-.084c-1.036 1.26-2.268 1.904-3.752 1.904-2.352 0-4.06-1.484-4.06-3.556 0-2.744 2.604-4.256 7.784-4.564v-.756c0-2.044-1.008-3.052-3.024-3.052-1.344 0-3.024.672-4.2 1.54l-.392-1.624c1.232-.868 3.136-1.54 4.76-1.54 3.08 0 4.62 1.54 4.592 4.592v6.16c0 1.008.224 1.316 1.288 1.288l-.112 1.428c-1.652.112-2.604-.504-2.8-1.82zm7.236-6.692v8.232h-1.736v-12.824l1.736-.364v2.744c.924-1.82 2.184-2.744 3.78-2.744.812 0 1.54.196 2.24.588l-.448 1.624c-.616-.364-1.26-.56-1.96-.56-1.428 0-2.632 1.092-3.612 3.304zm16.595-4.172v-6.468l1.736-.364v19.236h-1.736v-1.204c-1.12 1.036-2.352 1.568-3.724 1.568-3.444 0-5.74-2.716-5.74-6.664 0-1.988.588-3.612 1.792-4.9 1.204-1.26 2.716-1.904 4.564-1.904 1.064 0 2.1.224 3.108.7zm0 1.848c-.84-.644-1.904-.98-3.192-.98-2.744 0-4.48 2.128-4.48 5.208 0 2.996 1.68 5.096 4.256 5.096 1.26 0 2.408-.476 3.416-1.428v-7.644zm7.831-6.496c0 .364-.112.644-.308.896s-.504.392-.868.392-.672-.14-.868-.392-.308-.532-.308-.896c0-.336.112-.616.308-.868s.504-.364.868-.364.672.112.868.364.308.532.308.868zm-.308 17.052h-1.736v-12.824l1.736-.364zm14.28 0h-1.736v-8.288c0-2.24-.868-3.248-2.828-3.248-1.372 0-2.688.616-3.892 1.82v9.716h-1.736v-12.824l1.736-.364v2.1c1.4-1.4 2.856-2.1 4.368-2.1 2.576 0 4.088 1.568 4.088 4.396zm4.925-8.344c0 1.904 1.288 3.276 3.304 3.276.98 0 1.736-.308 2.324-.952.588-.616.868-1.428.868-2.408s-.28-1.792-.84-2.408c-.588-.616-1.4-.924-2.436-.924-1.988 0-3.22 1.4-3.22 3.416zm1.512 8.708c-1.54.42-2.604 1.428-2.604 2.52 0 1.54 1.708 2.632 4.368 2.632 2.688 0 4.816-1.288 4.816-3.024 0-1.456-1.232-2.044-3.892-2.044-1.064 0-1.96-.028-2.688-.084zm-1.512-.336c-1.148-.42-1.736-1.092-1.736-2.044 0-1.064.868-1.988 2.1-2.436-1.372-.84-2.072-2.156-2.072-3.92 0-2.772 2.044-4.816 5.04-4.816 1.12 0 2.128.252 3.024.756l3.556-.28.084 1.736-2.828-.28c.588.588 1.036 1.82 1.036 2.884 0 2.744-2.1 4.704-4.984 4.704-.588 0-1.204-.112-1.904-.364-.952.392-1.428.896-1.428 1.54 0 .868.728 1.316 2.912 1.316h1.652c3.556 0 5.32 1.12 5.32 3.36 0 1.372-.672 2.52-1.988 3.416s-2.912 1.344-4.76 1.344c-3.444 0-5.796-1.512-5.796-3.752 0-1.456 1.12-2.744 2.772-3.164z"/><path d="m1416.86 443.96c0 3.78-2.61 5.768-7.06 5.852l-2.38.028v6.16h-1.79v-17.5h4.39c4.51 0 6.84 2.128 6.84 5.46zm-1.85.084c0-2.52-1.77-3.892-5.04-3.892h-2.55v8.036l2.49-.056c3.39-.056 5.1-1.428 5.1-4.088zm16.15 5.516c0 2.016-.59 3.64-1.79 4.9-1.21 1.26-2.69 1.904-4.51 1.904s-3.3-.616-4.45-1.848-1.74-2.856-1.74-4.9c0-2.016.62-3.668 1.82-4.928 1.21-1.26 2.69-1.876 4.51-1.876s3.3.616 4.45 1.848 1.71 2.856 1.71 4.9zm-1.71.056c0-3.164-1.79-5.236-4.53-5.236-2.69 0-4.51 2.1-4.51 5.18 0 3.164 1.79 5.236 4.53 5.236 2.69 0 4.51-2.1 4.51-5.18zm7.01-10.668c0 .364-.11.644-.31.896-.19.252-.5.392-.87.392-.36 0-.67-.14-.86-.392-.2-.252-.31-.532-.31-.896 0-.336.11-.616.31-.868.19-.252.5-.364.86-.364.37 0 .68.112.87.364.2.252.31.532.31.868zm-.31 17.052h-1.73v-12.824l1.73-.364zm14.28 0h-1.73v-8.288c0-2.24-.87-3.248-2.83-3.248-1.37 0-2.69.616-3.89 1.82v9.716h-1.74v-12.824l1.74-.364v2.1c1.4-1.4 2.85-2.1 4.36-2.1 2.58 0 4.09 1.568 4.09 4.396zm10.33-.252c-.95.448-1.9.672-2.86.672-2.38 0-3.52-1.344-3.44-4.032l.2-7.588-1.96-.112.08-1.092 1.93-.448.09-2.912h1.65l-.09 2.996h4.29l-.09 1.54h-4.25l-.2 7.672c-.05 1.596.56 2.408 1.88 2.408.7 0 1.51-.196 2.46-.616zm10.53-3.248c0 2.324-1.96 3.864-4.59 3.864-1.6 0-3-.392-4.2-1.148l.47-1.596c1.18.784 2.44 1.176 3.78 1.176 1.63 0 2.89-.812 2.89-2.156 0-.308-.06-.56-.2-.812s-.31-.448-.45-.588-.42-.28-.78-.448-.64-.28-.81-.336-.51-.168-.98-.308c-2.24-.672-3.73-1.624-3.73-3.64 0-2.296 1.82-3.696 4.34-3.696 1.38 0 2.66.308 3.9.952l-.51 1.568c-1.15-.644-2.32-.952-3.5-.952-1.57 0-2.57.728-2.57 1.96 0 .28.05.532.19.756.14.252.28.42.42.56s.39.308.76.448c.33.14.61.252.81.336s.53.168.98.308c2.32.672 3.78 1.624 3.78 3.752zm23.56 3.5v-17.5h-1.8v7.896h-10.24v-7.896h-1.8v17.5h1.8v-7.98h10.24v7.98zm6.33-17.052c0 .364-.11.644-.31.896-.19.252-.5.392-.86.392-.37 0-.68-.14-.87-.392-.2-.252-.31-.532-.31-.896 0-.336.11-.616.31-.868.19-.252.5-.364.87-.364.36 0 .67.112.86.364.2.252.31.532.31.868zm-.31 17.052h-1.73v-12.824l1.73-.364zm11.79-3.5c0 2.324-1.96 3.864-4.59 3.864-1.6 0-3-.392-4.2-1.148l.48-1.596c1.17.784 2.43 1.176 3.78 1.176 1.62 0 2.88-.812 2.88-2.156 0-.308-.06-.56-.2-.812s-.3-.448-.44-.588-.42-.28-.79-.448c-.36-.168-.64-.28-.81-.336s-.5-.168-.98-.308c-2.24-.672-3.72-1.624-3.72-3.64 0-2.296 1.82-3.696 4.34-3.696 1.37 0 2.66.308 3.89.952l-.51 1.568c-1.14-.644-2.32-.952-3.5-.952-1.56 0-2.57.728-2.57 1.96 0 .28.05.532.19.756.14.252.28.42.42.56s.4.308.76.448c.34.14.62.252.81.336.2.084.53.168.98.308 2.33.672 3.78 1.624 3.78 3.752zm9.51 3.248c-.95.448-1.9.672-2.85.672-2.38 0-3.53-1.344-3.45-4.032l.2-7.588-1.96-.112.08-1.092 1.94-.448.08-2.912h1.65l-.08 2.996h4.28l-.08 1.54h-4.26l-.19 7.672c-.06 1.596.56 2.408 1.87 2.408.7 0 1.51-.196 2.47-.616zm14.35-6.188c0 2.016-.59 3.64-1.8 4.9-1.2 1.26-2.68 1.904-4.5 1.904s-3.31-.616-4.46-1.848c-1.14-1.232-1.73-2.856-1.73-4.9 0-2.016.61-3.668 1.82-4.928 1.2-1.26 2.69-1.876 4.51-1.876s3.3.616 4.45 1.848 1.71 2.856 1.71 4.9zm-1.71.056c0-3.164-1.79-5.236-4.54-5.236-2.69 0-4.51 2.1-4.51 5.18 0 3.164 1.8 5.236 4.54 5.236 2.69 0 4.51-2.1 4.51-5.18zm6.67-1.848v8.232h-1.74v-12.824l1.74-.364v2.744c.92-1.82 2.18-2.744 3.78-2.744.81 0 1.54.196 2.24.588l-.45 1.624c-.61-.364-1.26-.56-1.96-.56-1.43 0-2.63 1.092-3.61 3.304zm18.4-4.592-4.99 12.684-1.03 2.772c-1.12 3.052-2.3 4.032-4.15 4.032-.75 0-1.56-.196-2.49-.588l.53-1.596c.7.364 1.35.56 1.96.56 1.07 0 1.77-.644 2.64-2.968l.86-2.268-5.01-12.628h1.88l4.03 10.584 3.95-10.584z"/><path d="m1263.24 435.136c2.47 0 4.51.84 6.16 2.52 1.63 1.68 2.44 3.864 2.44 6.524s-.81 4.872-2.44 6.58c-1.62 1.736-3.69 2.604-6.18 2.604-2.47 0-4.51-.84-6.14-2.548-1.65-1.68-2.46-3.864-2.46-6.524s.81-4.872 2.44-6.58c1.62-1.708 3.69-2.576 6.18-2.576zm6.78 9.156c0-2.24-.64-4.06-1.9-5.46-1.29-1.4-2.94-2.1-4.93-2.1s-3.59.7-4.85 2.072-1.9 3.164-1.9 5.376c0 2.24.64 4.06 1.93 5.46 1.29 1.428 2.94 2.128 4.93 2.128 1.96 0 3.58-.7 4.84-2.1 1.26-1.372 1.88-3.164 1.88-5.376zm11.73-10.22-.08.392c-.09.28-.14.532-.23.784l-.11.392c-.75-.364-1.4-.532-1.96-.532-1.43 0-2.13 1.008-2.13 2.996v2.128h4.04l-.09 1.54h-3.95v11.228h-1.7v-11.172l-2.08-.14.12-1.092 1.93-.448.03-2.016c.05-3.08 1.34-4.62 3.86-4.62.78 0 1.57.196 2.35.56zm8.61 0-.08.392c-.08.28-.14.532-.22.784l-.12.392c-.75-.364-1.4-.532-1.96-.532-1.42 0-2.12 1.008-2.12 2.996v2.128h4.03l-.09 1.54h-3.94v11.228h-1.71v-11.172l-2.07-.14.11-1.092 1.93-.448.03-2.016c.05-3.08 1.34-4.62 3.86-4.62.79 0 1.57.196 2.35.56zm2.69 12.572v.14c.08 2.94 1.82 4.956 4.48 4.956 1.4 0 2.63-.364 3.72-1.064l.34 1.596c-1.18.728-2.55 1.092-4.12 1.092-3.67 0-6.19-2.716-6.19-6.664 0-2.016.59-3.668 1.74-4.956s2.58-1.932 4.31-1.932c2.86 0 4.68 1.848 4.68 4.732 0 .756-.09 1.428-.28 2.044zm.11-1.372 7.11-.028c.03-.084.03-.28.03-.56 0-2.016-1.09-3.304-3.08-3.304-2.21 0-3.75 1.652-4.06 3.892zm13.85-.504v8.232h-1.73v-12.824l1.73-.364v2.744c.93-1.82 2.19-2.744 3.78-2.744.81 0 1.54.196 2.24.588l-.45 1.624c-.61-.364-1.26-.56-1.96-.56-1.42 0-2.63 1.092-3.61 3.304zm15.95 4.732c0 2.324-1.96 3.864-4.59 3.864-1.6 0-3-.392-4.2-1.148l.47-1.596c1.18.784 2.44 1.176 3.78 1.176 1.63 0 2.89-.812 2.89-2.156 0-.308-.06-.56-.2-.812s-.31-.448-.45-.588-.42-.28-.78-.448c-.37-.168-.65-.28-.81-.336-.17-.056-.51-.168-.98-.308-2.24-.672-3.73-1.624-3.73-3.64 0-2.296 1.82-3.696 4.34-3.696 1.37 0 2.66.308 3.89.952l-.5 1.568c-1.15-.644-2.32-.952-3.5-.952-1.57 0-2.58.728-2.58 1.96 0 .28.06.532.2.756.14.252.28.42.42.56s.39.308.76.448c.33.14.61.252.81.336.19.084.53.168.98.308 2.32.672 3.78 1.624 3.78 3.752z"/><path d="m787.466 239.124c0 5.544-3.444 8.876-9.408 8.876h-4.62v-17.5h4.76c2.828 0 5.096.784 6.776 2.352 1.652 1.596 2.492 3.668 2.492 6.272zm-1.792.14c0-4.452-2.772-7.112-7.588-7.112h-2.856v14.196h2.912c4.648 0 7.532-2.408 7.532-7.084zm17.302 6.244-9.94-15.008h-2.016v17.5h1.736v-14.98l10.024 15.148h1.932v-17.668h-1.736zm13.171-15.008h-2.1l-6.636 17.5h1.82l1.848-5.012h7.924l1.848 5.012h1.82zm2.24 10.864h-6.692l3.36-9.1z"/><path d="m1340.82 241v7h-1.79v-17.5h4.71c4.22 0 6.35 1.876 6.35 5.04 0 2.52-1.62 4.172-4.06 4.928l4.85 7.532h-2.08l-4.48-7.224zm0-1.596 3.14-.112c2.46-.084 4.34-1.456 4.34-3.668 0-2.296-1.68-3.5-4.76-3.5h-2.72zm13.46 2.24v.14c.08 2.94 1.82 4.956 4.48 4.956 1.4 0 2.63-.364 3.72-1.064l.34 1.596c-1.18.728-2.55 1.092-4.12 1.092-3.67 0-6.19-2.716-6.19-6.664 0-2.016.59-3.668 1.74-4.956s2.58-1.932 4.31-1.932c2.86 0 4.68 1.848 4.68 4.732 0 .756-.09 1.428-.28 2.044zm.11-1.372 7.11-.028c.03-.084.03-.28.03-.56 0-2.016-1.09-3.304-3.08-3.304-2.21 0-3.75 1.652-4.06 3.892zm16.23 7.784 3.5-10.36 3.5 10.36h1.54l3.8-12.88h-1.9l-2.66 10.276-3.5-10.248h-1.57l-3.33 10.192-2.97-10.22h-1.85l3.92 12.88zm21.45-2.884v-3.752c-4.32.476-5.97 1.428-5.97 3.192 0 1.344 1.09 2.24 2.63 2.24 1.24 0 2.36-.56 3.34-1.68zm.11 1.288h-.09c-1.03 1.26-2.26 1.904-3.75 1.904-2.35 0-4.06-1.484-4.06-3.556 0-2.744 2.61-4.256 7.79-4.564v-.756c0-2.044-1.01-3.052-3.03-3.052-1.34 0-3.02.672-4.2 1.54l-.39-1.624c1.23-.868 3.14-1.54 4.76-1.54 3.08 0 4.62 1.54 4.59 4.592v6.16c0 1.008.23 1.316 1.29 1.288l-.11 1.428c-1.65.112-2.61-.504-2.8-1.82zm7.24-6.692v8.232h-1.74v-12.824l1.74-.364v2.744c.92-1.82 2.18-2.744 3.78-2.744.81 0 1.54.196 2.24.588l-.45 1.624c-.62-.364-1.26-.56-1.96-.56-1.43 0-2.63 1.092-3.61 3.304zm16.59-4.172v-6.468l1.74-.364v19.236h-1.74v-1.204c-1.12 1.036-2.35 1.568-3.72 1.568-3.45 0-5.74-2.716-5.74-6.664 0-1.988.58-3.612 1.79-4.9 1.2-1.26 2.71-1.904 4.56-1.904 1.07 0 2.1.224 3.11.7zm0 1.848c-.84-.644-1.9-.98-3.19-.98-2.75 0-4.48 2.128-4.48 5.208 0 2.996 1.68 5.096 4.25 5.096 1.26 0 2.41-.476 3.42-1.428v-7.644zm13.46 7.056c0 2.324-1.96 3.864-4.59 3.864-1.6 0-3-.392-4.2-1.148l.47-1.596c1.18.784 2.44 1.176 3.78 1.176 1.63 0 2.89-.812 2.89-2.156 0-.308-.06-.56-.2-.812s-.31-.448-.45-.588-.42-.28-.78-.448c-.37-.168-.65-.28-.81-.336-.17-.056-.51-.168-.98-.308-2.24-.672-3.73-1.624-3.73-3.64 0-2.296 1.82-3.696 4.34-3.696 1.37 0 2.66.308 3.89.952l-.5 1.568c-1.15-.644-2.32-.952-3.5-.952-1.57 0-2.58.728-2.58 1.96 0 .28.06.532.2.756.14.252.28.42.42.56s.39.308.76.448c.33.14.61.252.81.336.19.084.53.168.98.308 2.32.672 3.78 1.624 3.78 3.752z"/><path d="m192.151 248v-17.5h-1.792v7.896h-10.248v-7.896h-1.792v17.5h1.792v-7.98h10.248v7.98zm15.912-6.44c0 2.016-.588 3.64-1.792 4.9s-2.688 1.904-4.508 1.904-3.304-.616-4.452-1.848-1.736-2.856-1.736-4.9c0-2.016.616-3.668 1.82-4.928s2.688-1.876 4.508-1.876 3.304.616 4.452 1.848 1.708 2.856 1.708 4.9zm-1.708.056c0-3.164-1.792-5.236-4.536-5.236-2.688 0-4.508 2.1-4.508 5.18 0 3.164 1.792 5.236 4.536 5.236 2.688 0 4.508-2.1 4.508-5.18zm22.687 6.384h-1.736v-8.26c0-2.184-.896-3.276-2.716-3.276-1.232 0-2.436.56-3.612 1.652.028.224.056.616.056 1.148v8.736h-1.736v-8.26c0-2.184-.896-3.276-2.716-3.276-1.26 0-2.436.504-3.556 1.484v10.052h-1.736v-12.824l1.736-.364v1.764c1.288-1.176 2.632-1.764 4.06-1.764 1.708 0 2.856.7 3.472 2.128 1.428-1.428 2.94-2.128 4.536-2.128 2.464 0 3.948 1.596 3.948 4.424zm4.883-6.356v.14c.084 2.94 1.82 4.956 4.48 4.956 1.4 0 2.632-.364 3.724-1.064l.336 1.596c-1.176.728-2.548 1.092-4.116 1.092-3.668 0-6.188-2.716-6.188-6.664 0-2.016.588-3.668 1.736-4.956s2.576-1.932 4.312-1.932c2.856 0 4.676 1.848 4.676 4.732 0 .756-.084 1.428-.28 2.044zm.112-1.372 7.112-.028c.028-.084.028-.28.028-.56 0-2.016-1.092-3.304-3.08-3.304-2.212 0-3.752 1.652-4.06 3.892z"/><path d="m796.087 208.061c.586.585 1.535.585 2.121 0l9.546-9.546c.586-.586.586-1.536 0-2.122-.586-.585-1.535-.585-2.121 0l-8.486 8.486-8.485-8.486c-.586-.585-1.535-.585-2.121 0-.586.586-.586 1.536 0 2.122zm-.44-50.061v49h3v-49z"/><path d="m209.048 208.061c.586.585 1.535.585 2.121 0l9.546-9.546c.586-.586.586-1.536 0-2.122-.586-.585-1.536-.585-2.121 0l-8.486 8.486-8.485-8.486c-.586-.585-1.535-.585-2.121 0-.586.586-.586 1.536 0 2.122zm-.44-50.061v49h3v-49z"/><path d="m1385.69 158c0-.828-.68-1.5-1.5-1.5-.83 0-1.5.672-1.5 1.5zm-2.56 50.061c.58.585 1.53.585 2.12 0l9.54-9.546c.59-.586.59-1.536 0-2.122-.58-.585-1.53-.585-2.12 0l-8.48 8.486-8.49-8.486c-.58-.585-1.53-.585-2.12 0-.59.586-.59 1.536 0 2.122zm-.44-50.061v49h3v-49z"/><path d="m622.752 443.96c0 3.78-2.604 5.768-7.056 5.852l-2.38.028v6.16h-1.792v-17.5h4.396c4.508 0 6.832 2.128 6.832 5.46zm-1.848.084c0-2.52-1.764-3.892-5.04-3.892h-2.548v8.036l2.492-.056c3.388-.056 5.096-1.428 5.096-4.088zm6.652 3.724v8.232h-1.736v-12.824l1.736-.364v2.744c.924-1.82 2.184-2.744 3.78-2.744.812 0 1.54.196 2.24.588l-.448 1.624c-.616-.364-1.26-.56-1.96-.56-1.428 0-2.632 1.092-3.612 3.304zm19.619 1.792c0 2.016-.588 3.64-1.792 4.9s-2.688 1.904-4.508 1.904-3.304-.616-4.452-1.848-1.736-2.856-1.736-4.9c0-2.016.616-3.668 1.82-4.928s2.688-1.876 4.508-1.876 3.304.616 4.452 1.848 1.708 2.856 1.708 4.9zm-1.708.056c0-3.164-1.792-5.236-4.536-5.236-2.688 0-4.508 2.1-4.508 5.18 0 3.164 1.792 5.236 4.536 5.236 2.688 0 4.508-2.1 4.508-5.18zm11.515-12.544-.084.392c-.084.28-.14.532-.224.784l-.112.392c-.756-.364-1.4-.532-1.96-.532-1.428 0-2.128 1.008-2.128 2.996v2.128h4.032l-.084 1.54h-3.948v11.228h-1.708v-11.172l-2.072-.14.112-1.092 1.932-.448.028-2.016c.056-3.08 1.344-4.62 3.864-4.62.784 0 1.568.196 2.352.56zm3.832 1.876c0 .364-.112.644-.308.896s-.504.392-.868.392-.672-.14-.868-.392-.308-.532-.308-.896c0-.336.112-.616.308-.868s.504-.364.868-.364.672.112.868.364.308.532.308.868zm-.308 17.052h-1.736v-12.824l1.736-.364zm5.823 0v-19.236l-1.736.364v18.872zm4.958-6.356v.14c.084 2.94 1.82 4.956 4.48 4.956 1.4 0 2.632-.364 3.724-1.064l.336 1.596c-1.176.728-2.548 1.092-4.116 1.092-3.668 0-6.188-2.716-6.188-6.664 0-2.016.588-3.668 1.736-4.956s2.576-1.932 4.312-1.932c2.856 0 4.676 1.848 4.676 4.732 0 .756-.084 1.428-.28 2.044zm.112-1.372 7.112-.028c.028-.084.028-.28.028-.56 0-2.016-1.092-3.304-3.08-3.304-2.212 0-3.752 1.652-4.06 3.892z"/><path d="m647.392 368c0-.828-.672-1.5-1.5-1.5-.829 0-1.5.672-1.5 1.5zm-2.561 51.061c.586.585 1.535.585 2.121 0l9.546-9.546c.586-.586.586-1.536 0-2.122-.586-.585-1.535-.585-2.121 0l-8.485 8.486-8.486-8.486c-.585-.585-1.535-.585-2.121 0-.586.586-.586 1.536 0 2.122zm-.439-51.061v50h3v-50z"/><path d="m1483.69 369c0-.828-.68-1.5-1.5-1.5-.83 0-1.5.672-1.5 1.5zm-2.56 51.061c.58.585 1.53.585 2.12 0l9.54-9.546c.59-.586.59-1.536 0-2.122-.58-.585-1.53-.585-2.12 0l-8.48 8.486-8.49-8.486c-.58-.585-1.53-.585-2.12 0-.59.586-.59 1.536 0 2.122zm-.44-51.061v50h3v-50z"/><path d="m424.579 440.18v-1.68h-14.112v1.68h6.16v15.82h1.792v-15.82zm11.65 9.38c0 2.016-.588 3.64-1.792 4.9s-2.688 1.904-4.508 1.904-3.304-.616-4.452-1.848-1.736-2.856-1.736-4.9c0-2.016.616-3.668 1.82-4.928s2.688-1.876 4.508-1.876 3.304.616 4.452 1.848 1.708 2.856 1.708 4.9zm-1.708.056c0-3.164-1.792-5.236-4.536-5.236-2.688 0-4.508 2.1-4.508 5.18 0 3.164 1.792 5.236 4.536 5.236 2.688 0 4.508-2.1 4.508-5.18zm13.559-6.02v-6.468l1.736-.364v19.236h-1.736v-1.204c-1.12 1.036-2.352 1.568-3.724 1.568-3.444 0-5.74-2.716-5.74-6.664 0-1.988.588-3.612 1.792-4.9 1.204-1.26 2.716-1.904 4.564-1.904 1.064 0 2.1.224 3.108.7zm0 1.848c-.84-.644-1.904-.98-3.192-.98-2.744 0-4.48 2.128-4.48 5.208 0 2.996 1.68 5.096 4.256 5.096 1.26 0 2.408-.476 3.416-1.428v-7.644zm12.451 7.728v-3.752c-4.312.476-5.964 1.428-5.964 3.192 0 1.344 1.092 2.24 2.632 2.24 1.232 0 2.352-.56 3.332-1.68zm.112 1.288h-.084c-1.036 1.26-2.268 1.904-3.752 1.904-2.352 0-4.06-1.484-4.06-3.556 0-2.744 2.604-4.256 7.784-4.564v-.756c0-2.044-1.008-3.052-3.024-3.052-1.344 0-3.024.672-4.2 1.54l-.392-1.624c1.232-.868 3.136-1.54 4.76-1.54 3.08 0 4.62 1.54 4.592 4.592v6.16c0 1.008.224 1.316 1.288 1.288l-.112 1.428c-1.652.112-2.604-.504-2.8-1.82zm15.245-11.284-4.984 12.684-1.036 2.772c-1.12 3.052-2.296 4.032-4.144 4.032-.756 0-1.568-.196-2.492-.588l.532-1.596c.7.364 1.344.56 1.96.56 1.064 0 1.764-.644 2.632-2.968l.868-2.268-5.012-12.628h1.876l4.032 10.584 3.948-10.584zm1.417-4.2c.084-.784.616-1.4 1.512-1.4 1.064 0 1.988.924 1.988 2.212 0 1.708-1.148 3.332-3.472 4.816l-.756-.7c1.652-1.204 2.464-2.324 2.464-3.36 0-.672-.448-1.092-1.736-1.568zm13.191 13.524c0 2.324-1.96 3.864-4.592 3.864-1.596 0-2.996-.392-4.2-1.148l.476-1.596c1.176.784 2.436 1.176 3.78 1.176 1.624 0 2.884-.812 2.884-2.156 0-.308-.056-.56-.196-.812s-.308-.448-.448-.588-.42-.28-.784-.448-.644-.28-.812-.336-.504-.168-.98-.308c-2.24-.672-3.724-1.624-3.724-3.64 0-2.296 1.82-3.696 4.34-3.696 1.372 0 2.66.308 3.892.952l-.504 1.568c-1.148-.644-2.324-.952-3.5-.952-1.568 0-2.576.728-2.576 1.96 0 .28.056.532.196.756.14.252.28.42.42.56s.392.308.756.448c.336.14.616.252.812.336s.532.168.98.308c2.324.672 3.78 1.624 3.78 3.752zm22.239-12.32v-1.68h-14.112v1.68h6.16v15.82h1.792v-15.82zm6.831 12.992v-3.752c-4.312.476-5.964 1.428-5.964 3.192 0 1.344 1.092 2.24 2.632 2.24 1.232 0 2.352-.56 3.332-1.68zm.112 1.288h-.084c-1.036 1.26-2.268 1.904-3.752 1.904-2.352 0-4.06-1.484-4.06-3.556 0-2.744 2.604-4.256 7.784-4.564v-.756c0-2.044-1.008-3.052-3.024-3.052-1.344 0-3.024.672-4.2 1.54l-.392-1.624c1.232-.868 3.136-1.54 4.76-1.54 3.08 0 4.62 1.54 4.592 4.592v6.16c0 1.008.224 1.316 1.288 1.288l-.112 1.428c-1.652.112-2.604-.504-2.8-1.82zm13.201-1.96c0 2.324-1.96 3.864-4.592 3.864-1.596 0-2.996-.392-4.2-1.148l.476-1.596c1.176.784 2.436 1.176 3.78 1.176 1.624 0 2.884-.812 2.884-2.156 0-.308-.056-.56-.196-.812s-.308-.448-.448-.588-.42-.28-.784-.448-.644-.28-.812-.336-.504-.168-.98-.308c-2.24-.672-3.724-1.624-3.724-3.64 0-2.296 1.82-3.696 4.34-3.696 1.372 0 2.66.308 3.892.952l-.504 1.568c-1.148-.644-2.324-.952-3.5-.952-1.568 0-2.576.728-2.576 1.96 0 .28.056.532.196.756.14.252.28.42.42.56s.392.308.756.448c.336.14.616.252.812.336s.532.168.98.308c2.324.672 3.78 1.624 3.78 3.752zm4.92-2.884 5.768 6.384h2.212l-6.188-6.72 6.16-6.104h-2.184l-5.768 5.908h-.056v-12.32l-1.736.364v18.872h1.736v-6.384zm18.049 2.884c0 2.324-1.96 3.864-4.592 3.864-1.596 0-2.996-.392-4.2-1.148l.476-1.596c1.176.784 2.436 1.176 3.78 1.176 1.624 0 2.884-.812 2.884-2.156 0-.308-.056-.56-.196-.812s-.308-.448-.448-.588-.42-.28-.784-.448-.644-.28-.812-.336-.504-.168-.98-.308c-2.24-.672-3.724-1.624-3.724-3.64 0-2.296 1.82-3.696 4.34-3.696 1.372 0 2.66.308 3.892.952l-.504 1.568c-1.148-.644-2.324-.952-3.5-.952-1.568 0-2.576.728-2.576 1.96 0 .28.056.532.196.756.14.252.28.42.42.56s.392.308.756.448c.336.14.616.252.812.336s.532.168.98.308c2.324.672 3.78 1.624 3.78 3.752z"/><path d="m485.392 369c0-.828-.672-1.5-1.5-1.5-.829 0-1.5.672-1.5 1.5zm-2.561 51.061c.586.585 1.535.585 2.121 0l9.546-9.546c.586-.586.586-1.536 0-2.122-.586-.585-1.535-.585-2.121 0l-8.485 8.486-8.486-8.486c-.585-.585-1.535-.585-2.121 0-.586.586-.586 1.536 0 2.122zm-.439-51.061v50h3v-50z"/><path d="m1290.69 369c0-.828-.68-1.5-1.5-1.5-.83 0-1.5.672-1.5 1.5zm-2.56 51.061c.58.585 1.53.585 2.12 0l9.54-9.546c.59-.586.59-1.536 0-2.122-.58-.585-1.53-.585-2.12 0l-8.48 8.486-8.49-8.486c-.58-.585-1.53-.585-2.12 0-.59.586-.59 1.536 0 2.122zm-.44-51.061v50h3v-50z"/><path d="m229.494 453.508-9.94-15.008h-2.016v17.5h1.736v-14.98l10.024 15.148h1.932v-17.668h-1.736zm17.679-3.948c0 2.016-.588 3.64-1.792 4.9s-2.688 1.904-4.508 1.904-3.304-.616-4.452-1.848-1.736-2.856-1.736-4.9c0-2.016.616-3.668 1.82-4.928s2.688-1.876 4.508-1.876 3.304.616 4.452 1.848 1.708 2.856 1.708 4.9zm-1.708.056c0-3.164-1.792-5.236-4.536-5.236-2.688 0-4.508 2.1-4.508 5.18 0 3.164 1.792 5.236 4.536 5.236 2.688 0 4.508-2.1 4.508-5.18zm11.319 6.132c-.952.448-1.904.672-2.856.672-2.38 0-3.528-1.344-3.444-4.032l.196-7.588-1.96-.112.084-1.092 1.932-.448.084-2.912h1.652l-.084 2.996h4.284l-.084 1.54h-4.256l-.196 7.672c-.056 1.596.56 2.408 1.876 2.408.7 0 1.512-.196 2.464-.616zm4.903-16.8c0 .364-.112.644-.308.896s-.504.392-.868.392-.672-.14-.868-.392-.308-.532-.308-.896c0-.336.112-.616.308-.868s.504-.364.868-.364.672.112.868.364.308.532.308.868zm-.308 17.052h-1.736v-12.824l1.736-.364zm10.667-18.928-.084.392c-.084.28-.14.532-.224.784l-.112.392c-.756-.364-1.4-.532-1.96-.532-1.428 0-2.128 1.008-2.128 2.996v2.128h4.032l-.084 1.54h-3.948v11.228h-1.708v-11.172l-2.072-.14.112-1.092 1.932-.448.028-2.016c.056-3.08 1.344-4.62 3.864-4.62.784 0 1.568.196 2.352.56zm3.832 1.876c0 .364-.112.644-.308.896s-.504.392-.868.392-.672-.14-.868-.392-.308-.532-.308-.896c0-.336.112-.616.308-.868s.504-.364.868-.364.672.112.868.364.308.532.308.868zm-.308 17.052h-1.736v-12.824l1.736-.364zm13.496-.728c-1.176.728-2.492 1.092-3.976 1.092-3.836 0-6.272-2.688-6.272-6.748 0-1.988.588-3.64 1.792-4.9 1.176-1.26 2.688-1.904 4.508-1.904 1.54 0 2.856.364 4.004 1.092l-.448 1.568c-1.036-.7-2.24-1.036-3.556-1.036-2.772 0-4.508 2.044-4.508 5.124 0 3.164 1.792 5.18 4.536 5.18 1.288 0 2.464-.364 3.556-1.064zm9.916-2.1v-3.752c-4.312.476-5.964 1.428-5.964 3.192 0 1.344 1.092 2.24 2.632 2.24 1.232 0 2.352-.56 3.332-1.68zm.112 1.288h-.084c-1.036 1.26-2.268 1.904-3.752 1.904-2.352 0-4.06-1.484-4.06-3.556 0-2.744 2.604-4.256 7.784-4.564v-.756c0-2.044-1.008-3.052-3.024-3.052-1.344 0-3.024.672-4.2 1.54l-.392-1.624c1.232-.868 3.136-1.54 4.76-1.54 3.08 0 4.62 1.54 4.592 4.592v6.16c0 1.008.224 1.316 1.288 1.288l-.112 1.428c-1.652.112-2.604-.504-2.8-1.82zm11.885 1.288c-.952.448-1.904.672-2.856.672-2.38 0-3.528-1.344-3.444-4.032l.196-7.588-1.96-.112.084-1.092 1.932-.448.084-2.912h1.652l-.084 2.996h4.284l-.084 1.54h-4.256l-.196 7.672c-.056 1.596.56 2.408 1.876 2.408.7 0 1.512-.196 2.464-.616zm4.903-16.8c0 .364-.112.644-.308.896s-.504.392-.868.392-.672-.14-.868-.392-.308-.532-.308-.896c0-.336.112-.616.308-.868s.504-.364.868-.364.672.112.868.364.308.532.308.868zm-.308 17.052h-1.736v-12.824l1.736-.364zm15.736-6.44c0 2.016-.588 3.64-1.792 4.9s-2.688 1.904-4.508 1.904-3.304-.616-4.452-1.848-1.736-2.856-1.736-4.9c0-2.016.616-3.668 1.82-4.928s2.688-1.876 4.508-1.876 3.304.616 4.452 1.848 1.708 2.856 1.708 4.9zm-1.708.056c0-3.164-1.792-5.236-4.536-5.236-2.688 0-4.508 2.1-4.508 5.18 0 3.164 1.792 5.236 4.536 5.236 2.688 0 4.508-2.1 4.508-5.18zm15.127 6.384h-1.736v-8.288c0-2.24-.868-3.248-2.828-3.248-1.372 0-2.688.616-3.892 1.82v9.716h-1.736v-12.824l1.736-.364v2.1c1.4-1.4 2.856-2.1 4.368-2.1 2.576 0 4.088 1.568 4.088 4.396zm11.644-3.5c0 2.324-1.96 3.864-4.592 3.864-1.596 0-2.996-.392-4.2-1.148l.476-1.596c1.176.784 2.436 1.176 3.78 1.176 1.624 0 2.884-.812 2.884-2.156 0-.308-.056-.56-.196-.812s-.308-.448-.448-.588-.42-.28-.784-.448-.644-.28-.812-.336-.504-.168-.98-.308c-2.24-.672-3.724-1.624-3.724-3.64 0-2.296 1.82-3.696 4.34-3.696 1.372 0 2.66.308 3.892.952l-.504 1.568c-1.148-.644-2.324-.952-3.5-.952-1.568 0-2.576.728-2.576 1.96 0 .28.056.532.196.756.14.252.28.42.42.56s.392.308.756.448c.336.14.616.252.812.336s.532.168.98.308c2.324.672 3.78 1.624 3.78 3.752z"/><path d="m254.745 549.5h-2.1l-6.636 17.5h1.82l1.848-5.012h7.924l1.848 5.012h1.82zm2.24 10.864h-6.692l3.36-9.1zm16.133 5.908c-1.176.728-2.492 1.092-3.976 1.092-3.836 0-6.272-2.688-6.272-6.748 0-1.988.588-3.64 1.792-4.9 1.176-1.26 2.688-1.904 4.508-1.904 1.54 0 2.856.364 4.004 1.092l-.448 1.568c-1.036-.7-2.24-1.036-3.556-1.036-2.772 0-4.508 2.044-4.508 5.124 0 3.164 1.792 5.18 4.536 5.18 1.288 0 2.464-.364 3.556-1.064zm9.609.476c-.952.448-1.904.672-2.856.672-2.38 0-3.528-1.344-3.444-4.032l.196-7.588-1.96-.112.084-1.092 1.932-.448.084-2.912h1.652l-.084 2.996h4.284l-.084 1.54h-4.256l-.196 7.672c-.056 1.596.56 2.408 1.876 2.408.7 0 1.512-.196 2.464-.616zm4.903-16.8c0 .364-.112.644-.308.896s-.504.392-.868.392-.672-.14-.868-.392-.308-.532-.308-.896c0-.336.112-.616.308-.868s.504-.364.868-.364.672.112.868.364.308.532.308.868zm-.308 17.052h-1.736v-12.824l1.736-.364zm13.832-12.824h-1.82l-3.92 10.584-4.06-10.584h-1.876l5.068 12.852h1.568zm4.195-4.228c0 .364-.112.644-.308.896s-.504.392-.868.392-.672-.14-.868-.392-.308-.532-.308-.896c0-.336.112-.616.308-.868s.504-.364.868-.364.672.112.868.364.308.532.308.868zm-.308 17.052h-1.736v-12.824l1.736-.364zm10.471-.252c-.952.448-1.904.672-2.856.672-2.38 0-3.528-1.344-3.444-4.032l.196-7.588-1.96-.112.084-1.092 1.932-.448.084-2.912h1.652l-.084 2.996h4.284l-.084 1.54h-4.256l-.196 7.672c-.056 1.596.56 2.408 1.876 2.408.7 0 1.512-.196 2.464-.616zm12.575-12.572-4.984 12.684-1.036 2.772c-1.12 3.052-2.296 4.032-4.144 4.032-.756 0-1.568-.196-2.492-.588l.532-1.596c.7.364 1.344.56 1.96.56 1.064 0 1.764-.644 2.632-2.968l.868-2.268-5.012-12.628h1.876l4.032 10.584 3.948-10.584z"/><path d="m288.392 368c0-.828-.672-1.5-1.5-1.5-.829 0-1.5.672-1.5 1.5zm-2.561 51.061c.586.585 1.535.585 2.121 0l9.546-9.546c.586-.586.586-1.536 0-2.122-.586-.585-1.535-.585-2.121 0l-8.485 8.486-8.486-8.486c-.585-.585-1.535-.585-2.121 0-.586.586-.586 1.536 0 2.122zm-.439-51.061v50h3v-50z"/><path d="m288.392 479c0-.828-.672-1.5-1.5-1.5-.829 0-1.5.672-1.5 1.5zm-2.561 51.061c.586.585 1.535.585 2.121 0l9.546-9.546c.586-.586.586-1.536 0-2.122-.586-.585-1.535-.585-2.121 0l-8.485 8.486-8.486-8.486c-.585-.585-1.535-.585-2.121 0-.586.586-.586 1.536 0 2.122zm-.439-51.061v50h3v-50z"/><path d="m17.3484 456v-17.5h-1.792v7.896h-10.24803v-7.896h-1.792v17.5h1.792v-7.98h10.24803v7.98zm5.1883-6.356v.14c.084 2.94 1.82 4.956 4.48 4.956 1.4 0 2.632-.364 3.724-1.064l.336 1.596c-1.176.728-2.548 1.092-4.116 1.092-3.668 0-6.188-2.716-6.188-6.664 0-2.016.588-3.668 1.736-4.956s2.576-1.932 4.312-1.932c2.856 0 4.676 1.848 4.676 4.732 0 .756-.084 1.428-.28 2.044zm.112-1.372 7.112-.028c.028-.084.028-.28.028-.56 0-2.016-1.092-3.304-3.08-3.304-2.212 0-3.752 1.652-4.06 3.892zm18.8083 4.9v-3.752c-4.312.476-5.964 1.428-5.964 3.192 0 1.344 1.092 2.24 2.632 2.24 1.232 0 2.352-.56 3.332-1.68zm.112 1.288h-.084c-1.036 1.26-2.268 1.904-3.752 1.904-2.352 0-4.06-1.484-4.06-3.556 0-2.744 2.604-4.256 7.784-4.564v-.756c0-2.044-1.008-3.052-3.024-3.052-1.344 0-3.024.672-4.2 1.54l-.392-1.624c1.232-.868 3.136-1.54 4.76-1.54 3.08 0 4.62 1.54 4.592 4.592v6.16c0 1.008.224 1.316 1.288 1.288l-.112 1.428c-1.652.112-2.604-.504-2.8-1.82zm7.2367 1.54v-19.236l-1.736.364v18.872zm10.4175-.252c-.952.448-1.904.672-2.856.672-2.38 0-3.528-1.344-3.444-4.032l.196-7.588-1.96-.112.084-1.092 1.932-.448.084-2.912h1.652l-.084 2.996h4.284l-.084 1.54h-4.256l-.196 7.672c-.056 1.596.56 2.408 1.876 2.408.7 0 1.512-.196 2.464-.616zm13.0229.252h-1.736v-8.288c0-2.156-.924-3.248-2.744-3.248-1.428 0-2.772.616-3.976 1.82v9.716h-1.736v-18.872l1.736-.364v8.092c1.372-1.372 2.856-2.044 4.452-2.044 2.52 0 4.004 1.568 4.004 4.396zm25.9678 0h1.8201l-.5601-17.5h-2.38l-5.824 15.456-5.908-15.456h-2.408l-.588 17.5h1.764l.308-15.316 5.796 15.204h1.96l5.74-15.176zm6.5731-6.356v.14c.084 2.94 1.82 4.956 4.48 4.956 1.4 0 2.632-.364 3.724-1.064l.336 1.596c-1.176.728-2.548 1.092-4.116 1.092-3.668 0-6.188-2.716-6.188-6.664 0-2.016.588-3.668 1.736-4.956s2.576-1.932 4.312-1.932c2.856 0 4.676 1.848 4.676 4.732 0 .756-.084 1.428-.28 2.044zm.112-1.372 7.112-.028c.028-.084.028-.28.028-.56 0-2.016-1.092-3.304-3.08-3.304-2.212 0-3.752 1.652-4.06 3.892zm18.5 7.476c-.952.448-1.904.672-2.856.672-2.38 0-3.528-1.344-3.444-4.032l.196-7.588-1.96-.112.084-1.092 1.932-.448.084-2.912h1.652l-.084 2.996h4.284l-.084 1.54h-4.256l-.196 7.672c-.056 1.596.56 2.408 1.876 2.408.7 0 1.512-.196 2.464-.616zm4.567-7.98v8.232h-1.736v-12.824l1.736-.364v2.744c.924-1.82 2.184-2.744 3.78-2.744.812 0 1.54.196 2.24.588l-.448 1.624c-.616-.364-1.26-.56-1.96-.56-1.428 0-2.632 1.092-3.612 3.304zm10.316-8.82c0 .364-.112.644-.308.896s-.504.392-.868.392-.672-.14-.868-.392-.308-.532-.308-.896c0-.336.112-.616.308-.868s.504-.364.868-.364.672.112.868.364.308.532.308.868zm-.308 17.052h-1.736v-12.824l1.736-.364zm13.496-.728c-1.176.728-2.492 1.092-3.976 1.092-3.836 0-6.272-2.688-6.272-6.748 0-1.988.588-3.64 1.792-4.9 1.176-1.26 2.688-1.904 4.508-1.904 1.54 0 2.856.364 4.004 1.092l-.448 1.568c-1.036-.7-2.24-1.036-3.556-1.036-2.772 0-4.508 2.044-4.508 5.124 0 3.164 1.792 5.18 4.536 5.18 1.288 0 2.464-.364 3.556-1.064zm10.925-2.772c0 2.324-1.96 3.864-4.592 3.864-1.596 0-2.996-.392-4.2-1.148l.476-1.596c1.176.784 2.436 1.176 3.78 1.176 1.624 0 2.884-.812 2.884-2.156 0-.308-.056-.56-.196-.812s-.308-.448-.448-.588-.42-.28-.784-.448-.644-.28-.812-.336-.504-.168-.98-.308c-2.24-.672-3.724-1.624-3.724-3.64 0-2.296 1.82-3.696 4.34-3.696 1.372 0 2.66.308 3.892.952l-.504 1.568c-1.148-.644-2.324-.952-3.5-.952-1.568 0-2.576.728-2.576 1.96 0 .28.056.532.196.756.14.252.28.42.42.56s.392.308.756.448c.336.14.616.252.812.336s.532.168.98.308c2.324.672 3.78 1.624 3.78 3.752z"/><path d="m84.3916 368c0-.828-.6716-1.5-1.5-1.5s-1.5.672-1.5 1.5zm-2.5607 51.061c.5858.585 1.5356.585 2.1214 0l9.5459-9.546c.5858-.586.5858-1.536 0-2.122-.5858-.585-1.5355-.585-2.1213 0l-8.4853 8.486-8.4853-8.486c-.5858-.585-1.5355-.585-2.1213 0-.5858.586-.5858 1.536 0 2.122zm-.4393-51.061v50h3v-50z"/><path d="m1044.73 701.5h-1.82l-5.66 15.652-5.68-15.652h-1.82l6.41 17.5h2.1zm4.36.448c0 .364-.11.644-.31.896s-.5.392-.87.392c-.36 0-.67-.14-.87-.392-.19-.252-.3-.532-.3-.896 0-.336.11-.616.3-.868.2-.252.51-.364.87-.364.37 0 .67.112.87.364s.31.532.31.868zm-.31 17.052h-1.74v-12.824l1.74-.364zm5.01-6.356v.14c.09 2.94 1.82 4.956 4.48 4.956 1.4 0 2.63-.364 3.73-1.064l.33 1.596c-1.17.728-2.55 1.092-4.11 1.092-3.67 0-6.19-2.716-6.19-6.664 0-2.016.59-3.668 1.73-4.956 1.15-1.288 2.58-1.932 4.32-1.932 2.85 0 4.67 1.848 4.67 4.732 0 .756-.08 1.428-.28 2.044zm.11-1.372 7.12-.028c.02-.084.02-.28.02-.56 0-2.016-1.09-3.304-3.08-3.304-2.21 0-3.75 1.652-4.06 3.892zm16.23 7.784 3.5-10.36 3.5 10.36h1.54l3.81-12.88h-1.91l-2.66 10.276-3.5-10.248h-1.56l-3.34 10.192-2.96-10.22h-1.85l3.92 12.88zm21.3-.056h1.79v-7.644h7.06v-1.652h-7.06v-6.524h8.51v-1.68h-10.3zm12.65-12.824h1.74v8.288c0 2.156.92 3.248 2.77 3.248 1.45 0 2.77-.616 3.95-1.82v-9.716h1.73v12.824l-1.73.364v-2.072c-1.35 1.372-2.83 2.072-4.43 2.072-2.52 0-4.03-1.624-4.03-4.396zm15.96 12.824v-19.236l-1.74.364v18.872zm5.77 0v-19.236l-1.74.364v18.872zm-81.43 29v7h-1.79v-17.5h4.71c4.22 0 6.35 1.876 6.35 5.04 0 2.52-1.62 4.172-4.06 4.928l4.85 7.532h-2.08l-4.48-7.224zm0-1.596 3.14-.112c2.46-.084 4.34-1.456 4.34-3.668 0-2.296-1.68-3.5-4.76-3.5h-2.72zm13.46 2.24v.14c.08 2.94 1.82 4.956 4.48 4.956 1.4 0 2.63-.364 3.72-1.064l.34 1.596c-1.18.728-2.55 1.092-4.12 1.092-3.66 0-6.18-2.716-6.18-6.664 0-2.016.58-3.668 1.73-4.956s2.58-1.932 4.31-1.932c2.86 0 4.68 1.848 4.68 4.732 0 .756-.08 1.428-.28 2.044zm.11-1.372 7.11-.028c.03-.084.03-.28.03-.56 0-2.016-1.09-3.304-3.08-3.304-2.21 0-3.75 1.652-4.06 3.892zm13.85-3.808c1.12-1.036 2.36-1.568 3.73-1.568 3.44 0 5.74 2.688 5.74 6.636 0 1.988-.59 3.64-1.77 4.9-1.2 1.288-2.71 1.932-4.56 1.932-1.15 0-2.18-.224-3.14-.672v6.832h-1.73v-19.404l1.73-.364zm0 1.456v7.868c.87.672 1.94 1.008 3.22 1.008 2.69 0 4.46-2.156 4.46-5.236 0-2.996-1.66-5.068-4.23-5.068-1.26 0-2.41.476-3.45 1.428zm24.33 3.64c0 2.016-.59 3.64-1.8 4.9-1.2 1.26-2.68 1.904-4.5 1.904s-3.31-.616-4.46-1.848c-1.14-1.232-1.73-2.856-1.73-4.9 0-2.016.61-3.668 1.82-4.928 1.2-1.26 2.69-1.876 4.51-1.876s3.3.616 4.45 1.848 1.71 2.856 1.71 4.9zm-1.71.056c0-3.164-1.79-5.236-4.54-5.236-2.69 0-4.51 2.1-4.51 5.18 0 3.164 1.8 5.236 4.54 5.236 2.69 0 4.51-2.1 4.51-5.18zm6.67-1.848v8.232h-1.74v-12.824l1.74-.364v2.744c.92-1.82 2.18-2.744 3.78-2.744.81 0 1.54.196 2.24.588l-.45 1.624c-.62-.364-1.26-.56-1.96-.56-1.43 0-2.63 1.092-3.61 3.304zm15.04 7.98c-.95.448-1.91.672-2.86.672-2.38 0-3.53-1.344-3.44-4.032l.19-7.588-1.96-.112.09-1.092 1.93-.448.08-2.912h1.66l-.09 2.996h4.29l-.09 1.54h-4.25l-.2 7.672c-.06 1.596.56 2.408 1.88 2.408.7 0 1.51-.196 2.46-.616z"/><path d="m1080.65 629c0-.828-.67-1.5-1.5-1.5s-1.5.672-1.5 1.5zm-2.56 51.061c.58.585 1.53.585 2.12 0l9.54-9.546c.59-.586.59-1.536 0-2.122-.58-.585-1.53-.585-2.12 0l-8.48 8.486-8.49-8.486c-.58-.585-1.53-.585-2.12 0-.58.586-.58 1.536 0 2.122zm-.44-51.061v50h3v-50z"/><path d="m851.042 701.5h-2.1l-6.636 17.5h1.82l1.848-5.012h7.924l1.848 5.012h1.82zm2.24 10.864h-6.692l3.36-9.1zm16.917 6.636h-1.736v-8.288c0-2.24-.868-3.248-2.828-3.248-1.372 0-2.688.616-3.892 1.82v9.716h-1.736v-12.824l1.736-.364v2.1c1.4-1.4 2.856-2.1 4.368-2.1 2.576 0 4.088 1.568 4.088 4.396zm13.353-.728c-1.176.728-2.492 1.092-3.976 1.092-3.836 0-6.272-2.688-6.272-6.748 0-1.988.588-3.64 1.792-4.9 1.176-1.26 2.688-1.904 4.508-1.904 1.54 0 2.856.364 4.004 1.092l-.448 1.568c-1.036-.7-2.24-1.036-3.556-1.036-2.772 0-4.508 2.044-4.508 5.124 0 3.164 1.792 5.18 4.536 5.18 1.288 0 2.464-.364 3.556-1.064zm4.012-5.628v.14c.084 2.94 1.82 4.956 4.48 4.956 1.4 0 2.632-.364 3.724-1.064l.336 1.596c-1.176.728-2.548 1.092-4.116 1.092-3.668 0-6.188-2.716-6.188-6.664 0-2.016.588-3.668 1.736-4.956s2.576-1.932 4.312-1.932c2.856 0 4.676 1.848 4.676 4.732 0 .756-.084 1.428-.28 2.044zm.112-1.372 7.112-.028c.028-.084.028-.28.028-.56 0-2.016-1.092-3.304-3.08-3.304-2.212 0-3.752 1.652-4.06 3.892zm19.816 4.228c0 2.324-1.96 3.864-4.592 3.864-1.596 0-2.996-.392-4.2-1.148l.476-1.596c1.176.784 2.436 1.176 3.78 1.176 1.624 0 2.884-.812 2.884-2.156 0-.308-.056-.56-.196-.812s-.308-.448-.448-.588-.42-.28-.784-.448-.644-.28-.812-.336-.504-.168-.98-.308c-2.24-.672-3.724-1.624-3.724-3.64 0-2.296 1.82-3.696 4.34-3.696 1.372 0 2.66.308 3.892.952l-.504 1.568c-1.148-.644-2.324-.952-3.5-.952-1.568 0-2.576.728-2.576 1.96 0 .28.056.532.196.756.14.252.28.42.42.56s.392.308.756.448c.336.14.616.252.812.336s.532.168.98.308c2.324.672 3.78 1.624 3.78 3.752zm9.512 3.248c-.952.448-1.904.672-2.856.672-2.38 0-3.528-1.344-3.444-4.032l.196-7.588-1.96-.112.084-1.092 1.932-.448.084-2.912h1.652l-.084 2.996h4.284l-.084 1.54h-4.256l-.196 7.672c-.056 1.596.56 2.408 1.876 2.408.7 0 1.512-.196 2.464-.616zm4.567-7.98v8.232h-1.736v-12.824l1.736-.364v2.744c.924-1.82 2.184-2.744 3.78-2.744.812 0 1.54.196 2.24.588l-.448 1.624c-.616-.364-1.26-.56-1.96-.56-1.428 0-2.632 1.092-3.612 3.304zm18.399-4.592-4.984 12.684-1.036 2.772c-1.12 3.052-2.296 4.032-4.144 4.032-.756 0-1.568-.196-2.492-.588l.532-1.596c.7.364 1.344.56 1.96.56 1.064 0 1.764-.644 2.632-2.968l.868-2.268-5.012-12.628h1.876l4.032 10.584 3.948-10.584z"/><path d="m892.981 630c0-.828-.671-1.5-1.5-1.5-.828 0-1.5.672-1.5 1.5zm-2.56 51.061c.586.585 1.535.585 2.121 0l9.546-9.546c.586-.586.586-1.536 0-2.122-.586-.585-1.535-.585-2.121 0l-8.486 8.486-8.485-8.486c-.586-.585-1.535-.585-2.121 0-.586.586-.586 1.536 0 2.122zm-.44-51.061v50h3v-50z"/><path d="m654.339 710.124c0 5.544-3.444 8.876-9.408 8.876h-4.62v-17.5h4.76c2.828 0 5.096.784 6.776 2.352 1.652 1.596 2.492 3.668 2.492 6.272zm-1.792.14c0-4.452-2.772-7.112-7.588-7.112h-2.856v14.196h2.912c4.648 0 7.532-2.408 7.532-7.084zm17.302 6.244-9.94-15.008h-2.016v17.5h1.736v-14.98l10.024 15.148h1.932v-17.668h-1.736zm13.171-15.008h-2.1l-6.636 17.5h1.82l1.848-5.012h7.924l1.848 5.012h1.82zm2.24 10.864h-6.692l3.36-9.1zm24.549-5.404c0 3.78-2.604 5.768-7.056 5.852l-2.38.028v6.16h-1.792v-17.5h4.396c4.508 0 6.832 2.128 6.832 5.46zm-1.848.084c0-2.52-1.764-3.892-5.04-3.892h-2.548v8.036l2.492-.056c3.388-.056 5.096-1.428 5.096-4.088zm6.651 3.724v8.232h-1.736v-12.824l1.736-.364v2.744c.924-1.82 2.184-2.744 3.78-2.744.812 0 1.54.196 2.24.588l-.448 1.624c-.616-.364-1.26-.56-1.96-.56-1.428 0-2.632 1.092-3.612 3.304zm19.619 1.792c0 2.016-.588 3.64-1.792 4.9s-2.688 1.904-4.508 1.904-3.304-.616-4.452-1.848-1.736-2.856-1.736-4.9c0-2.016.616-3.668 1.82-4.928s2.688-1.876 4.508-1.876 3.304.616 4.452 1.848 1.708 2.856 1.708 4.9zm-1.708.056c0-3.164-1.792-5.236-4.536-5.236-2.688 0-4.508 2.1-4.508 5.18 0 3.164 1.792 5.236 4.536 5.236 2.688 0 4.508-2.1 4.508-5.18zm11.515-12.544-.084.392c-.084.28-.14.532-.224.784l-.112.392c-.756-.364-1.4-.532-1.96-.532-1.428 0-2.128 1.008-2.128 2.996v2.128h4.032l-.084 1.54h-3.948v11.228h-1.708v-11.172l-2.072-.14.112-1.092 1.932-.448.028-2.016c.056-3.08 1.344-4.62 3.864-4.62.784 0 1.568.196 2.352.56zm3.832 1.876c0 .364-.112.644-.308.896s-.504.392-.868.392-.672-.14-.868-.392-.308-.532-.308-.896c0-.336.112-.616.308-.868s.504-.364.868-.364.672.112.868.364.308.532.308.868zm-.308 17.052h-1.736v-12.824l1.736-.364zm5.824 0v-19.236l-1.736.364v18.872zm4.957-6.356v.14c.084 2.94 1.82 4.956 4.48 4.956 1.4 0 2.632-.364 3.724-1.064l.336 1.596c-1.176.728-2.548 1.092-4.116 1.092-3.668 0-6.188-2.716-6.188-6.664 0-2.016.588-3.668 1.736-4.956s2.576-1.932 4.312-1.932c2.856 0 4.676 1.848 4.676 4.732 0 .756-.084 1.428-.28 2.044zm.112-1.372 7.112-.028c.028-.084.028-.28.028-.56 0-2.016-1.092-3.304-3.08-3.304-2.212 0-3.752 1.652-4.06 3.892zm-97.606 25.864c2.464 0 4.508.84 6.16 2.52 1.624 1.68 2.436 3.864 2.436 6.524s-.812 4.872-2.436 6.58c-1.624 1.736-3.696 2.604-6.188 2.604-2.464 0-4.508-.84-6.132-2.548-1.652-1.68-2.464-3.864-2.464-6.524s.812-4.872 2.436-6.58 3.696-2.576 6.188-2.576zm6.776 9.156c0-2.24-.644-4.06-1.904-5.46-1.288-1.4-2.94-2.1-4.928-2.1s-3.584.7-4.844 2.072-1.904 3.164-1.904 5.376c0 2.24.644 4.06 1.932 5.46 1.288 1.428 2.94 2.128 4.928 2.128 1.96 0 3.584-.7 4.844-2.1 1.26-1.372 1.876-3.164 1.876-5.376zm14.896-4.116h-1.82l-3.92 10.584-4.06-10.584h-1.876l5.068 12.852h1.568zm2.91 6.468v.14c.084 2.94 1.82 4.956 4.48 4.956 1.4 0 2.632-.364 3.724-1.064l.336 1.596c-1.176.728-2.548 1.092-4.116 1.092-3.668 0-6.188-2.716-6.188-6.664 0-2.016.588-3.668 1.736-4.956s2.576-1.932 4.312-1.932c2.856 0 4.676 1.848 4.676 4.732 0 .756-.084 1.428-.28 2.044zm.112-1.372 7.112-.028c.028-.084.028-.28.028-.56 0-2.016-1.092-3.304-3.08-3.304-2.212 0-3.752 1.652-4.06 3.892zm13.853-.504v8.232h-1.736v-12.824l1.736-.364v2.744c.924-1.82 2.184-2.744 3.78-2.744.812 0 1.54.196 2.24.588l-.448 1.624c-.616-.364-1.26-.56-1.96-.56-1.428 0-2.632 1.092-3.612 3.304zm18.398-4.592h-1.82l-3.92 10.584-4.06-10.584h-1.876l5.068 12.852h1.568zm4.195-4.228c0 .364-.112.644-.308.896s-.504.392-.868.392-.672-.14-.868-.392-.308-.532-.308-.896c0-.336.112-.616.308-.868s.504-.364.868-.364.672.112.868.364.308.532.308.868zm-.308 17.052h-1.736v-12.824l1.736-.364zm5.012-6.356v.14c.084 2.94 1.82 4.956 4.48 4.956 1.4 0 2.632-.364 3.724-1.064l.336 1.596c-1.176.728-2.548 1.092-4.116 1.092-3.668 0-6.188-2.716-6.188-6.664 0-2.016.588-3.668 1.736-4.956s2.576-1.932 4.312-1.932c2.856 0 4.676 1.848 4.676 4.732 0 .756-.084 1.428-.28 2.044zm.112-1.372 7.112-.028c.028-.084.028-.28.028-.56 0-2.016-1.092-3.304-3.08-3.304-2.212 0-3.752 1.652-4.06 3.892zm16.226 7.784 3.5-10.36 3.5 10.36h1.54l3.808-12.88h-1.904l-2.66 10.276-3.5-10.248h-1.568l-3.332 10.192-2.968-10.22h-1.848l3.92 12.88z"/><path d="m705.313 629c0-.828-.671-1.5-1.5-1.5-.828 0-1.5.672-1.5 1.5zm-2.56 51.061c.586.585 1.535.585 2.121 0l9.546-9.546c.586-.586.586-1.536 0-2.122-.586-.585-1.535-.585-2.121 0l-8.486 8.486-8.485-8.486c-.586-.585-1.535-.585-2.121 0-.586.586-.586 1.536 0 2.122zm-.44-51.061v50h3v-50z"/><path d="m468.22 702.564-.56 1.596c-1.456-.924-3.08-1.4-4.872-1.4-3.948 0-6.608 2.772-6.608 7.476 0 4.62 2.604 7.504 6.664 7.504 1.876 0 3.5-.532 4.9-1.568l.336 1.764c-1.456.952-3.22 1.428-5.264 1.428-2.548 0-4.592-.812-6.132-2.464s-2.324-3.836-2.324-6.608.784-4.984 2.38-6.664c1.568-1.652 3.584-2.492 6.076-2.492 2.044 0 3.836.476 5.404 1.428zm4.982 8.204v8.232h-1.736v-12.824l1.736-.364v2.744c.924-1.82 2.184-2.744 3.78-2.744.812 0 1.54.196 2.24.588l-.448 1.624c-.616-.364-1.26-.56-1.96-.56-1.428 0-2.632 1.092-3.612 3.304zm10.317-8.82c0 .364-.112.644-.308.896s-.504.392-.868.392-.672-.14-.868-.392-.308-.532-.308-.896c0-.336.112-.616.308-.868s.504-.364.868-.364.672.112.868.364.308.532.308.868zm-.308 17.052h-1.736v-12.824l1.736-.364zm10.471-.252c-.952.448-1.904.672-2.856.672-2.38 0-3.528-1.344-3.444-4.032l.196-7.588-1.96-.112.084-1.092 1.932-.448.084-2.912h1.652l-.084 2.996h4.284l-.084 1.54h-4.256l-.196 7.672c-.056 1.596.56 2.408 1.876 2.408.7 0 1.512-.196 2.464-.616zm4.903-16.8c0 .364-.112.644-.308.896s-.504.392-.868.392-.672-.14-.868-.392-.308-.532-.308-.896c0-.336.112-.616.308-.868s.504-.364.868-.364.672.112.868.364.308.532.308.868zm-.308 17.052h-1.736v-12.824l1.736-.364zm13.496-.728c-1.176.728-2.492 1.092-3.976 1.092-3.836 0-6.272-2.688-6.272-6.748 0-1.988.588-3.64 1.792-4.9 1.176-1.26 2.688-1.904 4.508-1.904 1.54 0 2.856.364 4.004 1.092l-.448 1.568c-1.036-.7-2.24-1.036-3.556-1.036-2.772 0-4.508 2.044-4.508 5.124 0 3.164 1.792 5.18 4.536 5.18 1.288 0 2.464-.364 3.556-1.064zm9.916-2.1v-3.752c-4.312.476-5.964 1.428-5.964 3.192 0 1.344 1.092 2.24 2.632 2.24 1.232 0 2.352-.56 3.332-1.68zm.112 1.288h-.084c-1.036 1.26-2.268 1.904-3.752 1.904-2.352 0-4.06-1.484-4.06-3.556 0-2.744 2.604-4.256 7.784-4.564v-.756c0-2.044-1.008-3.052-3.024-3.052-1.344 0-3.024.672-4.2 1.54l-.392-1.624c1.232-.868 3.136-1.54 4.76-1.54 3.08 0 4.62 1.54 4.592 4.592v6.16c0 1.008.224 1.316 1.288 1.288l-.112 1.428c-1.652.112-2.604-.504-2.8-1.82zm7.237 1.54v-19.236l-1.736.364v18.872zm17.097-2.828v-3.752c-4.312.476-5.964 1.428-5.964 3.192 0 1.344 1.092 2.24 2.632 2.24 1.232 0 2.352-.56 3.332-1.68zm.112 1.288h-.084c-1.036 1.26-2.268 1.904-3.752 1.904-2.352 0-4.06-1.484-4.06-3.556 0-2.744 2.604-4.256 7.784-4.564v-.756c0-2.044-1.008-3.052-3.024-3.052-1.344 0-3.024.672-4.2 1.54l-.392-1.624c1.232-.868 3.136-1.54 4.76-1.54 3.08 0 4.62 1.54 4.592 4.592v6.16c0 1.008.224 1.316 1.288 1.288l-.112 1.428c-1.652.112-2.604-.504-2.8-1.82zm15.692 1.54h-1.736v-8.288c0-2.24-.868-3.248-2.828-3.248-1.372 0-2.688.616-3.892 1.82v9.716h-1.736v-12.824l1.736-.364v2.1c1.4-1.4 2.856-2.1 4.368-2.1 2.576 0 4.088 1.568 4.088 4.396zm12.569-12.404v-6.468l1.736-.364v19.236h-1.736v-1.204c-1.12 1.036-2.352 1.568-3.724 1.568-3.444 0-5.74-2.716-5.74-6.664 0-1.988.588-3.612 1.792-4.9 1.204-1.26 2.716-1.904 4.564-1.904 1.064 0 2.1.224 3.108.7zm0 1.848c-.84-.644-1.904-.98-3.192-.98-2.744 0-4.48 2.128-4.48 5.208 0 2.996 1.68 5.096 4.256 5.096 1.26 0 2.408-.476 3.416-1.428v-7.644zm-129.736 46.556v-17.5h-1.764v17.5zm14.519 0h-1.736v-8.288c0-2.24-.868-3.248-2.828-3.248-1.372 0-2.688.616-3.892 1.82v9.716h-1.736v-12.824l1.736-.364v2.1c1.4-1.4 2.856-2.1 4.368-2.1 2.576 0 4.088 1.568 4.088 4.396zm10.525-18.928-.084.392c-.084.28-.14.532-.224.784l-.112.392c-.756-.364-1.4-.532-1.96-.532-1.428 0-2.128 1.008-2.128 2.996v2.128h4.032l-.084 1.54h-3.948v11.228h-1.708v-11.172l-2.072-.14.112-1.092 1.932-.448.028-2.016c.056-3.08 1.344-4.62 3.864-4.62.784 0 1.568.196 2.352.56zm13.408 12.488c0 2.016-.588 3.64-1.792 4.9s-2.688 1.904-4.508 1.904-3.304-.616-4.452-1.848-1.736-2.856-1.736-4.9c0-2.016.616-3.668 1.82-4.928s2.688-1.876 4.508-1.876 3.304.616 4.452 1.848 1.708 2.856 1.708 4.9zm-1.708.056c0-3.164-1.792-5.236-4.536-5.236-2.688 0-4.508 2.1-4.508 5.18 0 3.164 1.792 5.236 4.536 5.236 2.688 0 4.508-2.1 4.508-5.18zm6.671-1.848v8.232h-1.736v-12.824l1.736-.364v2.744c.924-1.82 2.184-2.744 3.78-2.744.812 0 1.54.196 2.24.588l-.448 1.624c-.616-.364-1.26-.56-1.96-.56-1.428 0-2.632 1.092-3.612 3.304zm25.996 8.232h-1.736v-8.26c0-2.184-.896-3.276-2.716-3.276-1.232 0-2.436.56-3.612 1.652.028.224.056.616.056 1.148v8.736h-1.736v-8.26c0-2.184-.896-3.276-2.716-3.276-1.26 0-2.436.504-3.556 1.484v10.052h-1.736v-12.824l1.736-.364v1.764c1.288-1.176 2.632-1.764 4.06-1.764 1.708 0 2.856.7 3.472 2.128 1.428-1.428 2.94-2.128 4.536-2.128 2.464 0 3.948 1.596 3.948 4.424zm10.651-2.828v-3.752c-4.312.476-5.964 1.428-5.964 3.192 0 1.344 1.092 2.24 2.632 2.24 1.232 0 2.352-.56 3.332-1.68zm.112 1.288h-.084c-1.036 1.26-2.268 1.904-3.752 1.904-2.352 0-4.06-1.484-4.06-3.556 0-2.744 2.604-4.256 7.784-4.564v-.756c0-2.044-1.008-3.052-3.024-3.052-1.344 0-3.024.672-4.2 1.54l-.392-1.624c1.232-.868 3.136-1.54 4.76-1.54 3.08 0 4.62 1.54 4.592 4.592v6.16c0 1.008.224 1.316 1.288 1.288l-.112 1.428c-1.652.112-2.604-.504-2.8-1.82zm11.885 1.288c-.952.448-1.904.672-2.856.672-2.38 0-3.528-1.344-3.444-4.032l.196-7.588-1.96-.112.084-1.092 1.932-.448.084-2.912h1.652l-.084 2.996h4.284l-.084 1.54h-4.256l-.196 7.672c-.056 1.596.56 2.408 1.876 2.408.7 0 1.512-.196 2.464-.616zm4.903-16.8c0 .364-.112.644-.308.896s-.504.392-.868.392-.672-.14-.868-.392-.308-.532-.308-.896c0-.336.112-.616.308-.868s.504-.364.868-.364.672.112.868.364.308.532.308.868zm-.308 17.052h-1.736v-12.824l1.736-.364zm15.735-6.44c0 2.016-.588 3.64-1.792 4.9s-2.688 1.904-4.508 1.904-3.304-.616-4.452-1.848-1.736-2.856-1.736-4.9c0-2.016.616-3.668 1.82-4.928s2.688-1.876 4.508-1.876 3.304.616 4.452 1.848 1.708 2.856 1.708 4.9zm-1.708.056c0-3.164-1.792-5.236-4.536-5.236-2.688 0-4.508 2.1-4.508 5.18 0 3.164 1.792 5.236 4.536 5.236 2.688 0 4.508-2.1 4.508-5.18zm15.127 6.384h-1.736v-8.288c0-2.24-.868-3.248-2.828-3.248-1.372 0-2.688.616-3.892 1.82v9.716h-1.736v-12.824l1.736-.364v2.1c1.4-1.4 2.856-2.1 4.368-2.1 2.576 0 4.088 1.568 4.088 4.396zm10.637-2.828v-3.752c-4.312.476-5.964 1.428-5.964 3.192 0 1.344 1.092 2.24 2.632 2.24 1.232 0 2.352-.56 3.332-1.68zm.112 1.288h-.084c-1.036 1.26-2.268 1.904-3.752 1.904-2.352 0-4.06-1.484-4.06-3.556 0-2.744 2.604-4.256 7.784-4.564v-.756c0-2.044-1.008-3.052-3.024-3.052-1.344 0-3.024.672-4.2 1.54l-.392-1.624c1.232-.868 3.136-1.54 4.76-1.54 3.08 0 4.62 1.54 4.592 4.592v6.16c0 1.008.224 1.316 1.288 1.288l-.112 1.428c-1.652.112-2.604-.504-2.8-1.82zm7.236 1.54v-19.236l-1.736.364v18.872zm-107.18 29v7h-1.792v-17.5h4.704c4.228 0 6.356 1.876 6.356 5.04 0 2.52-1.624 4.172-4.06 4.928l4.844 7.532h-2.072l-4.48-7.224zm0-1.596 3.136-.112c2.464-.084 4.34-1.456 4.34-3.668 0-2.296-1.68-3.5-4.76-3.5h-2.716zm13.454 2.24v.14c.084 2.94 1.82 4.956 4.48 4.956 1.4 0 2.632-.364 3.724-1.064l.336 1.596c-1.176.728-2.548 1.092-4.116 1.092-3.668 0-6.188-2.716-6.188-6.664 0-2.016.588-3.668 1.736-4.956s2.576-1.932 4.312-1.932c2.856 0 4.676 1.848 4.676 4.732 0 .756-.084 1.428-.28 2.044zm.112-1.372 7.112-.028c.028-.084.028-.28.028-.56 0-2.016-1.092-3.304-3.08-3.304-2.212 0-3.752 1.652-4.06 3.892zm13.853-3.808c1.12-1.036 2.352-1.568 3.724-1.568 3.444 0 5.74 2.688 5.74 6.636 0 1.988-.588 3.64-1.764 4.9-1.204 1.288-2.716 1.932-4.564 1.932-1.148 0-2.184-.224-3.136-.672v6.832h-1.736v-19.404l1.736-.364zm0 1.456v7.868c.868.672 1.932 1.008 3.22 1.008 2.688 0 4.452-2.156 4.452-5.236 0-2.996-1.652-5.068-4.228-5.068-1.26 0-2.408.476-3.444 1.428zm24.322 3.64c0 2.016-.588 3.64-1.792 4.9s-2.688 1.904-4.508 1.904-3.304-.616-4.452-1.848-1.736-2.856-1.736-4.9c0-2.016.616-3.668 1.82-4.928s2.688-1.876 4.508-1.876 3.304.616 4.452 1.848 1.708 2.856 1.708 4.9zm-1.708.056c0-3.164-1.792-5.236-4.536-5.236-2.688 0-4.508 2.1-4.508 5.18 0 3.164 1.792 5.236 4.536 5.236 2.688 0 4.508-2.1 4.508-5.18zm6.671-1.848v8.232h-1.736v-12.824l1.736-.364v2.744c.924-1.82 2.184-2.744 3.78-2.744.812 0 1.54.196 2.24.588l-.448 1.624c-.616-.364-1.26-.56-1.96-.56-1.428 0-2.632 1.092-3.612 3.304zm15.039 7.98c-.952.448-1.904.672-2.856.672-2.38 0-3.528-1.344-3.444-4.032l.196-7.588-1.96-.112.084-1.092 1.932-.448.084-2.912h1.652l-.084 2.996h4.284l-.084 1.54h-4.256l-.196 7.672c-.056 1.596.56 2.408 1.876 2.408.7 0 1.512-.196 2.464-.616z"/><path d="m517.647 629c0-.828-.671-1.5-1.5-1.5-.828 0-1.5.672-1.5 1.5zm-2.56 51.061c.586.585 1.535.585 2.121 0l9.546-9.546c.586-.586.586-1.536 0-2.122-.586-.585-1.535-.585-2.121 0l-8.486 8.486-8.485-8.486c-.586-.585-1.535-.585-2.121 0-.586.586-.586 1.536 0 2.122zm-.44-51.061v50h3v-50z"/></g><path d="m211.608 157.5h1171.082" stroke="#fbfbfb" stroke-linecap="round" stroke-width="3"/><path d="m83.8916 367.5h560.0004" stroke="#fbfbfb" stroke-linecap="round" stroke-width="3"/><path d="m517.647 628.5h560.003" stroke="#fbfbfb" stroke-linecap="round" stroke-width="3"/><path d="m1290.69 369.5h190" stroke="#fbfbfb" stroke-linecap="round" stroke-width="3"/><path d="m209.647 275.5v91" stroke="#fbfbfb" stroke-linecap="round" stroke-width="3"/><path d="m1386.19 275.5c0-.828-.68-1.5-1.5-1.5-.83 0-1.5.672-1.5 1.5zm-1.5 92 8.66-15h-17.32zm-1.5-92v78.5h3v-78.5z" fill="#fbfbfb"/><path d="m798.647 275.5v352" stroke="#fbfbfb" stroke-linecap="round" stroke-width="3"/></svg>