<?xml version="1.0" encoding="utf-8"?>
<!-- Generator: Adobe Illustrator 25.4.1, SVG Export Plug-In . SVG Version: 6.00 Build 0)  -->
<svg version="1.1" id="Layer_1" xmlns="http://www.w3.org/2000/svg" xmlns:xlink="http://www.w3.org/1999/xlink" x="0px" y="0px"
	 viewBox="0 0 1347 573.5" style="enable-background:new 0 0 1347 573.5;" xml:space="preserve">
<style type="text/css">
	.st0{fill:none;stroke:#EC8539;stroke-miterlimit:10;stroke-dasharray:5;}
	.st1{fill:#CCCCCC;stroke:#CCCCCC;stroke-width:2;stroke-miterlimit:10;}
	.st2{fill:none;stroke:#EC8539;stroke-width:2;stroke-miterlimit:10;}
	.st3{fill:#111116;}
	.st4{font-family:'FreightSansPro-Book';}
	.st5{font-size:17px;}
	.st6{fill:#EC8539;stroke:#EC8539;stroke-width:2;stroke-miterlimit:10;}
	.st7{fill:#111115;}
	.st8{font-family:'FreightSansPro-Black';}
	.st9{fill:none;stroke:#CCCCCC;stroke-width:2;stroke-miterlimit:10;}
	.st10{letter-spacing:-1;}
	.st11{fill:none;stroke:#EC8539;stroke-miterlimit:10;}
	.st12{fill:none;stroke:#EC8539;stroke-miterlimit:10;stroke-dasharray:5.12,5.12;}
	.st13{fill:#EC8539;}
	.st14{fill:none;stroke:#EC8539;stroke-miterlimit:10;stroke-dasharray:5.53,5.53;}
</style>
<line class="st0" x1="197.8" y1="223.6" x2="1168" y2="223.6"/>
<path class="st1" d="M29.6,290.2h156c6.1,0,11,4.9,11,11v28c0,6.1-4.9,11-11,11h-156c-6.1,0-11-4.9-11-11v-28
	C18.6,295.2,23.6,290.2,29.6,290.2z"/>
<path class="st2" d="M30.8,76.9h156c6.1,0,11,4.9,11,11v28c0,6.1-4.9,11-11,11h-156c-6.1,0-11-4.9-11-11v-28
	C19.8,81.9,24.7,76.9,30.8,76.9z"/>
<text transform="matrix(1 0 0 1 34.22 107.77)" class="st3 st4 st5">L</text>
<text transform="matrix(1 0 0 1 42.18 107.77)" class="st3 st4 st5">ogin and Onboa</text>
<text transform="matrix(1 0 0 1 149.65 107.77)" class="st3 st4 st5">r</text>
<text transform="matrix(1 0 0 1 155.53 107.77)" class="st3 st4 st5">ding</text>
<path class="st6" d="M30.8,1h156c6.1,0,11,4.9,11,11v28c0,6.1-4.9,11-11,11h-156c-6.1,0-11-4.9-11-11V12C19.8,5.9,24.7,1,30.8,1z"/>
<text transform="matrix(1 0 0 1 79.97 31.78)" class="st7 st8 st5">GeneFit</text>
<path class="st6" d="M942.4,200.5h156c6.1,0,11,4.9,11,11v28c0,6.1-4.9,11-11,11h-156c-6.1,0-11-4.9-11-11v-28
	C931.4,205.5,936.4,200.5,942.4,200.5z"/>
<text transform="matrix(1 0 0 1 1005.15 231.38)" class="st7 st4 st5">DNA</text>
<path class="st9" d="M29.9,438.1h156c6.1,0,11,4.9,11,11v28c0,6.1-4.9,11-11,11h-156c-6.1,0-11-4.9-11-11v-28
	C18.9,443,23.8,438.1,29.9,438.1z"/>
<text transform="matrix(1 0 0 1 75.25 468.9)" class="st3 st4 st5">W</text>
<text transform="matrix(1 0 0 1 89.7 468.9)" class="st3 st4 st5">ellbeing</text>
<text transform="matrix(1 0 0 1 58.87 321.09)" class="st7 st4 st5">Health Metrics</text>
<path class="st1" d="M245.6,290.2h156c6.1,0,11,4.9,11,11v28c0,6.1-4.9,11-11,11h-156c-6.1,0-11-4.9-11-11v-28
	C234.6,295.2,239.5,290.2,245.6,290.2z"/>
<text transform="matrix(1 0 0 1 280.89 321.09)" class="st7 st4 st5">Notifications</text>
<path class="st1" d="M461.5,290.2h156c6.1,0,11,4.9,11,11v28c0,6.1-4.9,11-11,11h-156c-6.1,0-11-4.9-11-11v-28
	C450.5,295.2,455.4,290.2,461.5,290.2z"/>
<text transform="matrix(1 0 0 1 495.28 321.09)" class="st7 st4 st5 st10">T</text>
<text transform="matrix(1 0 0 1 503.01 321.09)" class="st7 st4 st5">oda</text>
<text transform="matrix(1 0 0 1 528.24 321.09)" class="st7 st4 st5">y</text>
<text transform="matrix(1 0 0 1 535.62 321.09)" class="st7 st4 st5">’</text>
<text transform="matrix(1 0 0 1 538.37 321.09)" class="st7 st4 st5">s </text>
<text transform="matrix(1 0 0 1 548.83 321.09)" class="st7 st4 st5 st10">T</text>
<text transform="matrix(1 0 0 1 556.65 321.09)" class="st7 st4 st5">asks</text>
<path class="st1" d="M677.4,290.2h156c6.1,0,11,4.9,11,11v28c0,6.1-4.9,11-11,11h-156c-6.1,0-11-4.9-11-11v-28
	C666.4,295.2,671.3,290.2,677.4,290.2z"/>
<text transform="matrix(1 0 0 1 733.96 321.09)" class="st7 st4 st5">P</text>
<text transform="matrix(1 0 0 1 742.78 321.09)" class="st7 st4 st5">r</text>
<text transform="matrix(1 0 0 1 748.67 321.09)" class="st7 st4 st5">ofile</text>
<path class="st9" d="M29.4,503.6h156c6.1,0,11,4.9,11,11v28c0,6.1-4.9,11-11,11h-156c-6.1,0-11-4.9-11-11v-28
	C18.4,508.5,23.3,503.6,29.4,503.6z"/>
<text transform="matrix(1 0 0 1 67.18 534.4)" class="st3 st4 st5">P</text>
<text transform="matrix(1 0 0 1 76 534.4)" class="st3 st4 st5">r</text>
<text transform="matrix(1 0 0 1 81.89 534.4)" class="st3 st4 st5">oductivity</text>
<path class="st9" d="M245.6,370.9h156c6.1,0,11,4.9,11,11v28c0,6.1-4.9,11-11,11h-156c-6.1,0-11-4.9-11-11v-28
	C234.6,375.9,239.5,370.9,245.6,370.9z"/>
<text transform="matrix(1 0 0 1 298.96 401.78)" class="st3 st4 st5">Activity</text>
<path class="st9" d="M29.4,372.6h156c6.1,0,11,4.9,11,11v28c0,6.1-4.9,11-11,11h-156c-6.1,0-11-4.9-11-11v-28
	C18.4,377.5,23.3,372.6,29.4,372.6z"/>
<text transform="matrix(1 0 0 1 84.33 403.4)" class="st3 st4 st5">Fitne</text>
<text transform="matrix(1 0 0 1 118.19 403.4)" class="st3 st4 st5">s</text>
<text transform="matrix(1 0 0 1 124.86 403.4)" class="st3 st4 st5">s</text>
<path class="st9" d="M942.7,356.7h156c6.1,0,11,4.9,11,11v28c0,6.1-4.9,11-11,11h-156c-6.1,0-11-4.9-11-11v-28
	C931.7,361.6,936.6,356.7,942.7,356.7z"/>
<text transform="matrix(1 0 0 1 981.53 377.32)" class="st3 st4 st5">DNA P</text>
<text transform="matrix(1 0 0 1 1025.73 377.32)" class="st3 st4 st5">r</text>
<text transform="matrix(1 0 0 1 1031.61 377.32)" class="st3 st4 st5">ofile </text>
<text transform="matrix(1 0 0 1 989.3201 397.72)" class="st3 st4 st5">O</text>
<text transform="matrix(1 0 0 1 1001.3701 397.72)" class="st3 st4 st5">v</text>
<text transform="matrix(1 0 0 1 1008.49 397.72)" class="st3 st4 st5">e</text>
<text transform="matrix(1 0 0 1 1016.48 397.72)" class="st3 st4 st5">r</text>
<text transform="matrix(1 0 0 1 1022.79 397.72)" class="st3 st4 st5">vi</text>
<text transform="matrix(1 0 0 1 1033.55 397.72)" class="st3 st4 st5">e</text>
<text transform="matrix(1 0 0 1 1041.7101 397.72)" class="st3 st4 st5">w</text>
<path class="st9" d="M942.2,422.2h156c6.1,0,11,4.9,11,11v28c0,6.1-4.9,11-11,11h-156c-6.1,0-11-4.9-11-11v-28
	C931.2,427.1,936.1,422.2,942.2,422.2z"/>
<text transform="matrix(1 0 0 1 990.86 453.02)" class="st3 st4 st5">An</text>
<text transform="matrix(1 0 0 1 1009.22 453.02)" class="st3 st4 st5">c</text>
<text transform="matrix(1 0 0 1 1016.8 453.02)" class="st3 st4 st5">est</text>
<text transform="matrix(1 0 0 1 1036.96 453.02)" class="st3 st4 st5">r</text>
<text transform="matrix(1 0 0 1 1043.27 453.02)" class="st3 st4 st5">y</text>
<path class="st1" d="M942.2,487.7h156c6.1,0,11,4.9,11,11v28c0,6.1-4.9,11-11,11h-156c-6.1,0-11-4.9-11-11v-28
	C931.2,492.6,936.1,487.7,942.2,487.7z"/>
<text transform="matrix(1 0 0 1 965.61 518.52)" class="st7 st4 st5">Vi</text>
<text transform="matrix(1 0 0 1 978.6 518.52)" class="st7 st4 st5">e</text>
<text transform="matrix(1 0 0 1 986.76 518.52)" class="st7 st4 st5">w </text>
<text transform="matrix(1 0 0 1 1001.89 518.52)" class="st7 st4 st5">F</text>
<text transform="matrix(1 0 0 1 1009.78 518.52)" class="st7 st4 st5">ull </text>
<text transform="matrix(1 0 0 1 1029.22 518.52)" class="st7 st4 st5">R</text>
<text transform="matrix(1 0 0 1 1038.05 518.52)" class="st7 st4 st5">epo</text>
<text transform="matrix(1 0 0 1 1063.8199 518.52)" class="st7 st4 st5">r</text>
<text transform="matrix(1 0 0 1 1070.12 518.52)" class="st7 st4 st5">t</text>
<path class="st9" d="M942.2,291.2h156c6.1,0,11,4.9,11,11v28c0,6.1-4.9,11-11,11h-156c-6.1,0-11-4.9-11-11v-28
	C931.2,296.1,936.1,291.2,942.2,291.2z"/>
<text transform="matrix(1 0 0 1 1136.45 31.84)" class="st3 st4 st5">Global Navigation</text>
<text transform="matrix(1 0 0 1 1135.83 76.93)" class="st3 st4 st5">Se</text>
<text transform="matrix(1 0 0 1 1152.1499 76.93)" class="st3 st4 st5">c</text>
<text transform="matrix(1 0 0 1 1159.73 76.93)" class="st3 st4 st5">onda</text>
<text transform="matrix(1 0 0 1 1193.5399 76.93)" class="st3 st4 st5">r</text>
<text transform="matrix(1 0 0 1 1199.85 76.93)" class="st3 st4 st5">y Navigation</text>
<text transform="matrix(1 0 0 1 1135.83 122.02)" class="st3 st4 st5">Section</text>
<path class="st9" d="M1179,356.7h156c6.1,0,11,4.9,11,11v28c0,6.1-4.9,11-11,11h-156c-6.1,0-11-4.9-11-11v-28
	C1168,361.6,1172.9,356.7,1179,356.7z"/>
<text transform="matrix(1 0 0 1 1209.95 387.52)" class="st3 st4 st5">P</text>
<text transform="matrix(1 0 0 1 1218.5199 387.52)" class="st3 st4 st5">oints His</text>
<text transform="matrix(1 0 0 1 1276.98 387.52)" class="st3 st4 st5">t</text>
<text transform="matrix(1 0 0 1 1282.49 387.52)" class="st3 st4 st5">o</text>
<text transform="matrix(1 0 0 1 1291.51 387.52)" class="st3 st4 st5">r</text>
<text transform="matrix(1 0 0 1 1297.8199 387.52)" class="st3 st4 st5">y</text>
<path class="st1" d="M1178.6,291.2h156c6.1,0,11,4.9,11,11v28c0,6.1-4.9,11-11,11h-156c-6.1,0-11-4.9-11-11v-28
	C1167.6,296.1,1172.5,291.2,1178.6,291.2z"/>
<text transform="matrix(1 0 0 1 1235.54 322.01)" class="st7 st4 st5">O</text>
<text transform="matrix(1 0 0 1 1247.5901 322.01)" class="st7 st4 st5">f</text>
<text transform="matrix(1 0 0 1 1252.8301 322.01)" class="st7 st4 st5">fers</text>
<path class="st6" d="M1175.8,200.5h156c6.1,0,11,4.9,11,11v28c0,6.1-4.9,11-11,11h-156c-6.1,0-11-4.9-11-11v-28
	C1164.8,205.5,1169.8,200.5,1175.8,200.5z"/>
<text transform="matrix(1 0 0 1 1225.85 231.38)" class="st7 st4 st5">R</text>
<text transform="matrix(1 0 0 1 1234.6699 231.38)" class="st7 st4 st5">e</text>
<text transform="matrix(1 0 0 1 1242.83 231.38)" class="st7 st4 st5">w</text>
<text transform="matrix(1 0 0 1 1254.12 231.38)" class="st7 st4 st5">a</text>
<text transform="matrix(1 0 0 1 1261.58 231.38)" class="st7 st4 st5">r</text>
<text transform="matrix(1 0 0 1 1267.47 231.38)" class="st7 st4 st5">ds</text>
<g>
	<line class="st11" x1="107.4" y1="126.9" x2="107.4" y2="129.4"/>
	<line class="st12" x1="107.4" y1="134.6" x2="107.4" y2="275.2"/>
	<line class="st11" x1="107.4" y1="277.8" x2="107.4" y2="280.3"/>
	<circle class="st13" cx="107.4" cy="280.1" r="3.8"/>
</g>
<g>
	<line class="st11" x1="324" y1="225.5" x2="324" y2="228"/>
	<line class="st14" x1="324" y1="233.6" x2="324" y2="275"/>
	<line class="st11" x1="324" y1="277.8" x2="324" y2="280.3"/>
	<circle class="st13" cx="324" cy="280.1" r="3.8"/>
</g>
<g>
	<line class="st11" x1="540.7" y1="225.5" x2="540.7" y2="228"/>
	<line class="st14" x1="540.7" y1="233.6" x2="540.7" y2="275"/>
	<line class="st11" x1="540.7" y1="277.8" x2="540.7" y2="280.3"/>
	<circle class="st13" cx="540.7" cy="280.1" r="3.8"/>
</g>
<g>
	<line class="st11" x1="757.3" y1="225.5" x2="757.3" y2="228"/>
	<line class="st14" x1="757.3" y1="233.6" x2="757.3" y2="275"/>
	<line class="st11" x1="757.3" y1="277.8" x2="757.3" y2="280.3"/>
	<circle class="st13" cx="757.3" cy="280.1" r="3.8"/>
</g>
<g>
	<line class="st11" x1="1020.2" y1="225.5" x2="1020.2" y2="228"/>
	<line class="st14" x1="1020.2" y1="233.6" x2="1020.2" y2="275"/>
	<line class="st11" x1="1020.2" y1="277.8" x2="1020.2" y2="280.3"/>
	<circle class="st13" cx="1020.2" cy="280.1" r="3.8"/>
</g>
<g>
	<line class="st11" x1="1257.5" y1="225.5" x2="1257.5" y2="228"/>
	<line class="st14" x1="1257.5" y1="233.6" x2="1257.5" y2="275"/>
	<line class="st11" x1="1257.5" y1="277.8" x2="1257.5" y2="280.3"/>
	<circle class="st13" cx="1257.5" cy="280.1" r="3.8"/>
</g>
<path class="st6" d="M1045.9,8.5h54c6.1,0,11,4.9,11,11v13c0,6.1-4.9,11-11,11h-54c-6.1,0-11-4.9-11-11v-13
	C1034.9,13.4,1039.8,8.5,1045.9,8.5z"/>
<path class="st1" d="M1045.9,53.6h54c6.1,0,11,4.9,11,11v13c0,6.1-4.9,11-11,11h-54c-6.1,0-11-4.9-11-11v-13
	C1034.9,58.5,1039.8,53.6,1045.9,53.6z"/>
<path class="st9" d="M1045.9,98.7h54c6.1,0,11,4.9,11,11v13c0,6.1-4.9,11-11,11h-54c-6.1,0-11-4.9-11-11v-13
	C1034.9,103.6,1039.8,98.7,1045.9,98.7z"/>
<path class="st6" d="M30.4,200.5h156c6.1,0,11,4.9,11,11v28c0,6.1-4.9,11-11,11h-156c-6.1,0-11-4.9-11-11v-28
	C19.4,205.5,24.3,200.5,30.4,200.5z"/>
<text transform="matrix(1 0 0 1 88.17 231.38)" class="st7 st4 st5">Home</text>
<rect x="0.5" y="264" class="st0" width="861.4" height="308.9"/>
<g>
	<path class="st3" d="M960.6,301.8l-0.3,1c-0.9-0.6-1.9-0.9-3-0.9c-2.4,0-4,1.7-4,4.5s1.6,4.6,4,4.6c1.1,0,2.1-0.3,3-1l0.2,1.1
		c-1,0.6-2.1,0.9-3.2,0.9c-1.4,0.1-2.8-0.5-3.7-1.5c-1.9-2.4-1.9-5.7,0-8.1c1-1,2.3-1.6,3.7-1.5C958.4,301,959.6,301.3,960.6,301.8z
		"/>
	<path class="st3" d="M963.6,306.8v5h-1.1V304l1.1-0.2v1.7c0.4-1,1.3-1.6,2.3-1.7c0.5,0,0.9,0.1,1.4,0.4l-0.3,1
		c-0.4-0.2-0.8-0.3-1.2-0.3C965,304.8,964.2,305.5,963.6,306.8z"/>
	<path class="st3" d="M969.9,301.5c0,0.2-0.1,0.4-0.2,0.5c-0.1,0.2-0.3,0.2-0.5,0.2c-0.2,0-0.4-0.1-0.5-0.2
		c-0.1-0.2-0.2-0.4-0.2-0.5c0-0.2,0.1-0.4,0.2-0.5c0.1-0.2,0.3-0.2,0.5-0.2c0.2,0,0.4,0.1,0.5,0.2
		C969.8,301.1,969.9,301.3,969.9,301.5z M969.7,311.8h-1V304l1-0.2V311.8z"/>
	<path class="st3" d="M976,311.7c-0.5,0.3-1.1,0.4-1.7,0.4c-1.5,0-2.1-0.8-2.1-2.5l0.1-4.6l-1.2-0.1l0-0.7l1.2-0.3v-1.8h1v1.8h2.6
		l0,0.9h-2.6l-0.1,4.6c0,1,0.3,1.5,1.1,1.5c0.5,0,1-0.1,1.5-0.4L976,311.7z"/>
	<path class="st3" d="M979,301.5c0,0.2-0.1,0.4-0.2,0.5c-0.1,0.2-0.3,0.2-0.5,0.2c-0.2,0-0.4-0.1-0.5-0.2c-0.1-0.2-0.2-0.4-0.2-0.5
		c0-0.2,0.1-0.4,0.2-0.5c0.1-0.2,0.3-0.2,0.5-0.2c0.2,0,0.4,0.1,0.5,0.2C978.9,301.1,979,301.3,979,301.5z M978.8,311.8h-1V304
		l1-0.2V311.8z"/>
	<path class="st3" d="M987,311.4c-0.7,0.4-1.6,0.7-2.4,0.7c-2.3,0-3.8-1.6-3.8-4.1c0-1.1,0.3-2.2,1.1-3c0.7-0.8,1.7-1.2,2.7-1.1
		c0.9,0,1.7,0.2,2.4,0.7l-0.3,1c-0.6-0.4-1.4-0.6-2.2-0.6c-1.7,0-2.7,1.2-2.7,3.1s1.1,3.1,2.8,3.1c0.8,0,1.5-0.2,2.2-0.6L987,311.4z
		"/>
	<path class="st3" d="M993.1,310.9L993.1,310.9c-0.5,0.7-1.4,1.1-2.3,1.1c-1.2,0.1-2.3-0.8-2.5-2c0,0,0-0.1,0-0.1
		c0-1.7,1.6-2.6,4.7-2.8v-0.5c0.1-0.9-0.5-1.7-1.4-1.9c-0.2,0-0.3,0-0.5,0c-0.9,0.1-1.8,0.4-2.5,0.9l-0.2-1c0.9-0.6,1.9-0.9,2.9-0.9
		c1.3-0.2,2.6,0.7,2.8,2.1c0,0.2,0,0.5,0,0.7v3.7c0,0.6,0.1,0.8,0.8,0.8l-0.1,0.9C993.8,312,993.2,311.7,993.1,310.9z M993,310.1
		v-2.3c-2.6,0.3-3.6,0.9-3.6,1.9c0,0.8,0.7,1.4,1.5,1.4c0,0,0.1,0,0.1,0C991.8,311.1,992.6,310.7,993,310.1z"/>
	<path class="st3" d="M996.5,311.8v-11.5l1.1-0.2v11.7H996.5z"/>
	<path class="st3" d="M1008,310.9L1008,310.9c-0.6,0.7-1.4,1.1-2.3,1.1c-1.2,0.1-2.3-0.8-2.5-2c0,0,0-0.1,0-0.1
		c0-1.7,1.6-2.6,4.7-2.8v-0.5c0.1-0.9-0.5-1.7-1.4-1.9c-0.2,0-0.3,0-0.5,0c-0.9,0.1-1.8,0.4-2.5,0.9l-0.2-1c0.9-0.6,1.9-0.9,2.9-0.9
		c1.3-0.2,2.6,0.7,2.8,2.1c0,0.2,0,0.5,0,0.7v3.7c0,0.6,0.1,0.8,0.8,0.8l-0.1,0.9C1008.7,312,1008.1,311.7,1008,310.9z
		 M1007.9,310.1v-2.3c-2.6,0.3-3.6,0.9-3.6,1.9c0,0.8,0.7,1.4,1.5,1.4c0,0,0.1,0,0.1,0C1006.7,311.1,1007.4,310.7,1007.9,310.1
		L1007.9,310.1z"/>
	<path class="st3" d="M1017.5,311.8h-1v-5c0-1.4-0.5-2-1.7-2c-0.9,0-1.8,0.4-2.4,1.1v5.9h-1.1V304l1.1-0.2v1.3
		c0.7-0.8,1.6-1.2,2.7-1.3c1.3-0.1,2.4,0.9,2.5,2.2c0,0.2,0,0.3,0,0.5L1017.5,311.8z"/>
	<path class="st3" d="M1025.1,304.3v-3.9l1.1-0.2v11.7h-1.1v-0.7c-0.6,0.6-1.4,0.9-2.3,1c-2.1,0-3.5-1.6-3.5-4c0-1.1,0.3-2.2,1.1-3
		c0.7-0.8,1.7-1.2,2.8-1.1C1023.9,303.9,1024.5,304,1025.1,304.3z M1025.1,305.4c-0.6-0.4-1.2-0.6-1.9-0.6c-1.7,0-2.7,1.3-2.7,3.2
		s1,3.1,2.6,3.1c0.8,0,1.5-0.3,2.1-0.9V305.4z"/>
	<path class="st3" d="M1032.7,311.8v-10.6h1.1v10.6H1032.7z"/>
	<path class="st3" d="M1042.6,311.8h-1.1v-5c0-1.4-0.5-2-1.7-2c-0.9,0-1.8,0.4-2.4,1.1v5.9h-1.1V304l1.1-0.2v1.3
		c0.7-0.8,1.6-1.2,2.7-1.3c1.3-0.1,2.4,0.9,2.5,2.2c0,0.2,0,0.3,0,0.5V311.8z"/>
	<path class="st3" d="M1049,300.3v0.2c-0.1,0.2-0.1,0.3-0.1,0.5l-0.1,0.2c-0.4-0.2-0.8-0.3-1.2-0.3c-0.9,0-1.3,0.6-1.3,1.8v1.3h2.4
		l-0.1,0.9h-2.4v6.8h-1V305l-1.2-0.1l0.1-0.7l1.2-0.3v-1.2c0-1.9,0.8-2.8,2.3-2.8C1048.1,300,1048.6,300.1,1049,300.3z"/>
	<path class="st3" d="M1057.1,307.9c0.1,1.1-0.3,2.2-1.1,3c-0.7,0.8-1.7,1.2-2.7,1.1c-1,0-2-0.4-2.7-1.1c-0.7-0.8-1.1-1.9-1-3
		c0-1.1,0.3-2.2,1.1-3c0.7-0.8,1.7-1.2,2.7-1.1c1,0,2,0.4,2.7,1.1C1056.8,305.7,1057.2,306.8,1057.1,307.9z M1056.1,307.9
		c0-1.9-1.1-3.2-2.8-3.2s-2.7,1.3-2.7,3.1s1.1,3.2,2.8,3.2S1056.1,309.8,1056.1,307.9L1056.1,307.9z"/>
	<path class="st3" d="M1060.1,306.8v5h-1.1V304l1.1-0.2v1.7c0.4-1,1.3-1.6,2.3-1.7c0.5,0,0.9,0.1,1.4,0.4l-0.3,1
		c-0.4-0.2-0.8-0.3-1.2-0.3C1061.4,304.8,1060.7,305.5,1060.1,306.8z"/>
	<path class="st3" d="M1075.9,311.8h-1v-5c0-1.3-0.5-2-1.7-2c-0.8,0-1.6,0.4-2.2,1c0,0.1,0,0.4,0,0.7v5.3h-1v-5c0-1.3-0.6-2-1.7-2
		c-0.8,0-1.6,0.3-2.2,0.9v6.1h-1.1V304l1.1-0.2v1.1c0.7-0.7,1.5-1,2.5-1.1c0.9-0.1,1.8,0.4,2.1,1.3c0.7-0.8,1.7-1.3,2.8-1.3
		c1.5,0,2.4,1,2.4,2.7L1075.9,311.8z"/>
	<path class="st3" d="M1082.4,310.9L1082.4,310.9c-0.6,0.7-1.4,1.1-2.3,1.1c-1.2,0.1-2.3-0.8-2.5-2c0,0,0-0.1,0-0.1
		c0-1.7,1.6-2.6,4.7-2.8v-0.5c0.1-0.9-0.5-1.7-1.4-1.9c-0.2,0-0.3,0-0.5,0c-0.9,0.1-1.8,0.4-2.6,0.9l-0.2-1c0.9-0.6,1.9-0.9,2.9-0.9
		c1.3-0.2,2.6,0.7,2.8,2.1c0,0.2,0,0.5,0,0.7v3.7c0,0.6,0.1,0.8,0.8,0.8l-0.1,0.9C1083.1,312,1082.5,311.7,1082.4,310.9z
		 M1082.3,310.1v-2.3c-2.6,0.3-3.6,0.9-3.6,1.9c0,0.8,0.7,1.4,1.5,1.4c0,0,0.1,0,0.1,0C1081.1,311.1,1081.8,310.7,1082.3,310.1
		L1082.3,310.1z"/>
	<path class="st3" d="M1085.1,308.2v-1h3.8v1H1085.1z"/>
	<path class="st3" d="M981.5,332.1c-0.5,0.3-1.1,0.4-1.7,0.4c-1.4,0-2.1-0.8-2.1-2.5l0.1-4.6l-1.2-0.1v-0.7l1.2-0.3l0-1.8h1v1.8h2.6
		l-0.1,0.9h-2.6l-0.1,4.6c0,1,0.3,1.5,1.1,1.5c0.5,0,1-0.1,1.5-0.4L981.5,332.1z"/>
	<path class="st3" d="M984.5,321.9c0,0.2-0.1,0.4-0.2,0.5c-0.1,0.2-0.3,0.2-0.5,0.2c-0.2,0-0.4-0.1-0.5-0.2
		c-0.1-0.2-0.2-0.4-0.2-0.5c0-0.2,0.1-0.4,0.2-0.5c0.1-0.2,0.3-0.2,0.5-0.2c0.2,0,0.4,0.1,0.5,0.2
		C984.4,321.5,984.5,321.7,984.5,321.9z M984.3,332.2h-1v-7.8l1-0.2V332.2z"/>
	<path class="st3" d="M993.8,328.3c0.1,1.1-0.3,2.2-1.1,3c-0.7,0.8-1.7,1.2-2.7,1.1c-1,0-2-0.4-2.7-1.1c-1.5-1.7-1.4-4.3,0-6
		c0.7-0.8,1.7-1.2,2.7-1.1c1,0,2,0.4,2.7,1.1C993.5,326.1,993.9,327.2,993.8,328.3z M992.8,328.3c0-1.9-1.1-3.2-2.8-3.2
		s-2.7,1.3-2.7,3.1s1.1,3.2,2.8,3.2S992.8,330.2,992.8,328.3L992.8,328.3z"/>
	<path class="st3" d="M1002,332.2h-1.1v-5c0-1.4-0.5-2-1.7-2c-0.9,0-1.8,0.4-2.4,1.1v5.9h-1v-7.8l1-0.2v1.3c0.7-0.8,1.6-1.2,2.7-1.3
		c1.3-0.1,2.4,0.9,2.5,2.2c0,0.2,0,0.3,0,0.5L1002,332.2z"/>
	<path class="st3" d="M1008.5,331.3L1008.5,331.3c-0.6,0.7-1.4,1.1-2.3,1.1c-1.2,0.1-2.3-0.8-2.5-2c0,0,0-0.1,0-0.1
		c0-1.7,1.6-2.6,4.7-2.8v-0.5c0.1-0.9-0.5-1.7-1.4-1.9c-0.2,0-0.3,0-0.5,0c-0.9,0.1-1.8,0.4-2.5,0.9l-0.2-1c0.9-0.6,1.9-0.9,2.9-0.9
		c1.3-0.2,2.6,0.7,2.8,2.1c0,0.2,0,0.5,0,0.7v3.7c0,0.6,0.1,0.8,0.8,0.8l-0.1,0.9C1009.2,332.5,1008.6,332.1,1008.5,331.3z
		 M1008.4,330.5v-2.3c-2.6,0.3-3.6,0.9-3.6,1.9c0,0.8,0.7,1.4,1.5,1.4c0,0,0.1,0,0.1,0C1007.2,331.5,1007.9,331.1,1008.4,330.5z"/>
	<path class="st3" d="M1011.8,332.2v-11.4l1-0.2v11.7L1011.8,332.2z"/>
	<path class="st3" d="M1020.4,328v4.2h-1.1v-10.7h2.9c2.6,0,3.9,1.1,3.9,3.1c0,1.5-1,2.7-2.5,3l2.9,4.6h-1.3l-2.7-4.4L1020.4,328z
		 M1020.4,327l1.9-0.1c1.5,0,2.6-0.9,2.6-2.2s-1-2.1-2.9-2.1h-1.7L1020.4,327z"/>
	<path class="st3" d="M1028.6,328.4L1028.6,328.4c0.1,1.9,1.1,3.1,2.7,3.1c0.8,0,1.6-0.2,2.3-0.6l0.2,1c-0.8,0.5-1.6,0.7-2.5,0.7
		c-2.1,0-3.7-1.6-3.8-3.7c0-0.1,0-0.2,0-0.3c-0.1-1.1,0.3-2.2,1-3c0.7-0.8,1.6-1.2,2.6-1.2c1.5-0.1,2.7,1,2.8,2.5c0,0.1,0,0.3,0,0.4
		c0,0.4,0,0.8-0.2,1.2L1028.6,328.4z M1028.7,327.5h4.3c0-0.1,0-0.2,0-0.3c0.1-1-0.6-1.9-1.5-2c-0.1,0-0.2,0-0.3,0
		C1029.8,325.2,1028.7,326.2,1028.7,327.5L1028.7,327.5z"/>
	<path class="st3" d="M1037.1,325.2c0.6-0.6,1.4-0.9,2.3-1c2.1,0,3.5,1.6,3.5,4c0,1.1-0.3,2.2-1.1,3c-0.7,0.8-1.7,1.2-2.8,1.2
		c-0.7,0-1.3-0.1-1.9-0.4v4.1h-1v-11.8l1-0.2V325.2z M1037.1,326.1v4.8c0.6,0.4,1.3,0.6,2,0.6c1.6,0,2.7-1.3,2.7-3.2s-1-3.1-2.6-3.1
		C1038.4,325.2,1037.6,325.5,1037.1,326.1z"/>
	<path class="st3" d="M1051.8,328.3c0.1,1.1-0.3,2.2-1.1,3c-0.7,0.8-1.7,1.2-2.7,1.1c-1,0-2-0.4-2.7-1.1c-1.5-1.7-1.5-4.3,0-6
		c0.7-0.8,1.7-1.2,2.7-1.1c1,0,2,0.4,2.7,1.1C1051.5,326.1,1051.9,327.2,1051.8,328.3z M1050.8,328.3c0-1.9-1.1-3.2-2.8-3.2
		s-2.7,1.3-2.7,3.1s1.1,3.2,2.8,3.2S1050.8,330.2,1050.8,328.3L1050.8,328.3z"/>
	<path class="st3" d="M1054.8,327.2v5h-1v-7.8l1-0.2v1.7c0.4-1,1.3-1.6,2.3-1.7c0.5,0,0.9,0.1,1.4,0.4l-0.3,1
		c-0.4-0.2-0.8-0.3-1.2-0.3C1056.2,325.2,1055.4,325.9,1054.8,327.2z"/>
	<path class="st3" d="M1064,332.1c-0.5,0.3-1.1,0.4-1.7,0.4c-1.4,0-2.1-0.8-2.1-2.5l0.1-4.6l-1.2-0.1l0.1-0.7l1.2-0.3v-1.8h1v1.8
		h2.6l-0.1,0.9h-2.6l-0.1,4.6c0,1,0.3,1.5,1.1,1.5c0.5,0,1-0.1,1.5-0.4L1064,332.1z"/>
</g>
</svg>
