<svg xmlns="http://www.w3.org/2000/svg" viewBox="0 0 1347.02 573.45">
  <defs>
    <style>
      .cls-1, .cls-10, .cls-21, .cls-22, .cls-24, .cls-3 {
        fill: none;
      }

      .cls-1, .cls-21, .cls-22, .cls-24, .cls-3, .cls-6 {
        stroke: #ec8539;
      }

      .cls-1, .cls-10, .cls-2, .cls-21, .cls-22, .cls-24, .cls-3, .cls-6 {
        stroke-miterlimit: 10;
      }

      .cls-1 {
        stroke-dasharray: 5;
      }

      .cls-2 {
        fill: #ccc;
      }

      .cls-10, .cls-2 {
        stroke: #ccc;
      }

      .cls-10, .cls-2, .cls-3, .cls-6 {
        stroke-width: 2px;
      }

      .cls-4, .cls-7, .cls-9 {
        font-size: 17px;
      }

      .cls-25, .cls-4 {
        fill: #efefef;
      }

      .cls-4, .cls-9 {
        font-family: FreightSansPro-Book, Freight Sans Pro;
      }

      .cls-5 {
        letter-spacing: -0.01em;
      }

      .cls-23, .cls-6 {
        fill: #ec8539;
      }

      .cls-7 {
        fill: #011115;
        font-family: FreightSansPro-Bold, Freight Sans Pro;
        font-weight: 700;
      }

      .cls-8 {
        letter-spacing: -0.01em;
      }

      .cls-11 {
        letter-spacing: -0.04em;
      }

      .cls-12 {
        letter-spacing: -0.1em;
      }

      .cls-13 {
        letter-spacing: 0.01em;
      }

      .cls-14 {
        letter-spacing: -0.02em;
      }

      .cls-15 {
        letter-spacing: -0.09em;
      }

      .cls-16 {
        letter-spacing: 0em;
      }

      .cls-17 {
        letter-spacing: 0em;
      }

      .cls-18 {
        letter-spacing: 0.01em;
      }

      .cls-19 {
        letter-spacing: -0.01em;
      }

      .cls-20 {
        letter-spacing: 0em;
      }

      .cls-22 {
        stroke-dasharray: 5.12 5.12;
      }

      .cls-24 {
        stroke-dasharray: 5.53 5.53;
      }
    </style>
  </defs>
  <g id="Layer_2" data-name="Layer 2">
    <g id="Layer_1-2" data-name="Layer 1">
      <line class="cls-1" x1="197.82" y1="223.59" x2="1168.02" y2="223.59"/>
      <rect class="cls-2" x="18.65" y="290.25" width="178" height="50" rx="11"/>
      <rect class="cls-3" x="19.82" y="76.93" width="178" height="50" rx="11"/>
      <text class="cls-4" transform="translate(34.22 107.77)"><tspan class="cls-5">L</tspan><tspan x="7.96" y="0">ogin and Onboa</tspan><tspan class="cls-5" x="115.43" y="0">r</tspan><tspan x="121.31" y="0">ding</tspan></text>
      <rect class="cls-6" x="19.82" y="1" width="178" height="50" rx="11"/>
      <text class="cls-7" transform="translate(79.97 31.78)">Gene<tspan class="cls-8" x="38.66" y="0">F</tspan><tspan x="47.75" y="0">it</tspan></text>
      <rect class="cls-6" x="931.43" y="200.54" width="178" height="50" rx="11"/>
      <text class="cls-9" transform="translate(1005.15 231.38)">DNA</text>
      <rect class="cls-10" x="18.88" y="438.06" width="178" height="50" rx="11"/>
      <text class="cls-4" transform="translate(75.25 468.9)"><tspan class="cls-11">W</tspan><tspan x="14.45" y="0">ellbeing</tspan></text>
      <text class="cls-9" transform="translate(58.87 321.09)">Health Metrics</text>
      <rect class="cls-2" x="234.57" y="290.25" width="178" height="50" rx="11"/>
      <text class="cls-9" transform="translate(280.89 321.09)">Notifications</text>
      <rect class="cls-2" x="450.49" y="290.25" width="178" height="50" rx="11"/>
      <text class="cls-9" transform="translate(495.28 321.09)"><tspan class="cls-12">T</tspan><tspan x="7.73" y="0">oda</tspan><tspan class="cls-13" x="32.96" y="0">y</tspan><tspan class="cls-14" x="40.34" y="0">’</tspan><tspan x="43.09" y="0">s </tspan><tspan class="cls-15" x="53.55" y="0">T</tspan><tspan x="61.37" y="0">asks</tspan></text>
      <rect class="cls-2" x="666.41" y="290.25" width="178" height="50" rx="11"/>
      <text class="cls-9" transform="translate(733.96 321.09)">P<tspan class="cls-5" x="8.82" y="0">r</tspan><tspan x="14.71" y="0">ofile</tspan></text>
      <rect class="cls-10" x="18.41" y="503.56" width="178" height="50" rx="11"/>
      <text class="cls-4" transform="translate(67.18 534.4)">P<tspan class="cls-5" x="8.82" y="0">r</tspan><tspan x="14.71" y="0">oductivity</tspan></text>
      <rect class="cls-10" x="234.57" y="370.94" width="178" height="50" rx="11"/>
      <text class="cls-4" transform="translate(298.96 401.78)">Activity</text>
      <rect class="cls-10" x="18.41" y="372.56" width="178" height="50" rx="11"/>
      <text class="cls-4" transform="translate(84.33 403.4)">Fitne<tspan class="cls-16" x="33.86" y="0">s</tspan><tspan x="40.53" y="0">s</tspan></text>
      <rect class="cls-10" x="931.67" y="356.68" width="178" height="50" rx="11"/>
      <text class="cls-4" transform="translate(981.53 377.32)">DNA P<tspan class="cls-5" x="44.2" y="0">r</tspan><tspan x="50.08" y="0">ofile </tspan><tspan x="7.79" y="20.4">O</tspan><tspan class="cls-17" x="19.84" y="20.4">v</tspan><tspan x="26.96" y="20.4">e</tspan><tspan class="cls-18" x="34.95" y="20.4">r</tspan><tspan x="41.26" y="20.4">vi</tspan><tspan class="cls-13" x="52.02" y="20.4">e</tspan><tspan x="60.18" y="20.4">w</tspan></text>
      <rect class="cls-10" x="931.2" y="422.18" width="178" height="50" rx="11"/>
      <text class="cls-4" transform="translate(990.86 453.02)">An<tspan class="cls-17" x="18.36" y="0">c</tspan><tspan x="25.94" y="0">est</tspan><tspan class="cls-18" x="46.1" y="0">r</tspan><tspan x="52.41" y="0">y</tspan></text>
      <rect class="cls-2" x="931.2" y="487.68" width="178" height="50" rx="11"/>
      <text class="cls-9" transform="translate(965.61 518.52)">Vi<tspan class="cls-13" x="12.99" y="0">e</tspan><tspan x="21.15" y="0">w </tspan><tspan class="cls-19" x="36.28" y="0">F</tspan><tspan x="44.17" y="0">ull </tspan><tspan class="cls-5" x="63.61" y="0">R</tspan><tspan x="72.44" y="0">epo</tspan><tspan class="cls-18" x="98.21" y="0">r</tspan><tspan x="104.51" y="0">t</tspan></text>
      <rect class="cls-10" x="931.2" y="291.17" width="178" height="50" rx="11"/>
      <text class="cls-4" transform="translate(1136.45 31.84)">Global Navigation</text>
      <text class="cls-4" transform="translate(1135.83 76.93)">Se<tspan class="cls-17" x="16.32" y="0">c</tspan><tspan x="23.9" y="0">onda</tspan><tspan class="cls-18" x="57.71" y="0">r</tspan><tspan x="64.02" y="0">y Navigation</tspan></text>
      <text class="cls-4" transform="translate(1135.83 122.02)">Section</text>
      <rect class="cls-10" x="1168.02" y="356.68" width="178" height="50" rx="11"/>
      <text class="cls-4" transform="translate(1209.95 387.52)"><tspan class="cls-19">P</tspan><tspan x="8.57" y="0">oints His</tspan><tspan class="cls-17" x="67.03" y="0">t</tspan><tspan x="72.54" y="0">o</tspan><tspan class="cls-18" x="81.56" y="0">r</tspan><tspan x="87.87" y="0">y</tspan></text>
      <rect class="cls-2" x="1167.55" y="291.17" width="178" height="50" rx="11"/>
      <text class="cls-9" transform="translate(1235.54 322.01)">O<tspan class="cls-13" x="12.05" y="0">f</tspan><tspan x="17.29" y="0">fers</tspan></text>
      <rect class="cls-6" x="1164.85" y="200.54" width="178" height="50" rx="11"/>
      <text class="cls-9" transform="translate(1225.85 231.38)"><tspan class="cls-5">R</tspan><tspan class="cls-13" x="8.82" y="0">e</tspan><tspan class="cls-20" x="16.98" y="0">w</tspan><tspan x="28.27" y="0">a</tspan><tspan class="cls-5" x="35.73" y="0">r</tspan><tspan x="41.62" y="0">ds</tspan></text>
      <g>
        <line class="cls-21" x1="107.41" y1="126.93" x2="107.41" y2="129.43"/>
        <line class="cls-22" x1="107.41" y1="134.55" x2="107.41" y2="275.22"/>
        <line class="cls-21" x1="107.41" y1="277.78" x2="107.41" y2="280.28"/>
        <circle class="cls-23" cx="107.41" cy="280.09" r="3.76"/>
      </g>
      <g>
        <line class="cls-21" x1="324.04" y1="225.54" x2="324.04" y2="228.04"/>
        <line class="cls-24" x1="324.04" y1="233.56" x2="324.04" y2="275.01"/>
        <line class="cls-21" x1="324.04" y1="277.78" x2="324.04" y2="280.28"/>
        <circle class="cls-23" cx="324.04" cy="280.09" r="3.76"/>
      </g>
      <g>
        <line class="cls-21" x1="540.67" y1="225.54" x2="540.67" y2="228.04"/>
        <line class="cls-24" x1="540.67" y1="233.56" x2="540.67" y2="275.01"/>
        <line class="cls-21" x1="540.67" y1="277.78" x2="540.67" y2="280.28"/>
        <circle class="cls-23" cx="540.67" cy="280.09" r="3.76"/>
      </g>
      <g>
        <line class="cls-21" x1="757.29" y1="225.54" x2="757.29" y2="228.04"/>
        <line class="cls-24" x1="757.29" y1="233.56" x2="757.29" y2="275.01"/>
        <line class="cls-21" x1="757.29" y1="277.78" x2="757.29" y2="280.28"/>
        <circle class="cls-23" cx="757.29" cy="280.09" r="3.76"/>
      </g>
      <g>
        <line class="cls-21" x1="1020.2" y1="225.54" x2="1020.2" y2="228.04"/>
        <line class="cls-24" x1="1020.2" y1="233.56" x2="1020.2" y2="275.01"/>
        <line class="cls-21" x1="1020.2" y1="277.78" x2="1020.2" y2="280.28"/>
        <circle class="cls-23" cx="1020.2" cy="280.09" r="3.76"/>
      </g>
      <g>
        <line class="cls-21" x1="1257.49" y1="225.54" x2="1257.49" y2="228.04"/>
        <line class="cls-24" x1="1257.49" y1="233.56" x2="1257.49" y2="275.01"/>
        <line class="cls-21" x1="1257.49" y1="277.78" x2="1257.49" y2="280.28"/>
        <circle class="cls-23" cx="1257.49" cy="280.09" r="3.76"/>
      </g>
      <rect class="cls-6" x="1034.9" y="8.5" width="76" height="35" rx="11"/>
      <rect class="cls-2" x="1034.9" y="53.59" width="76" height="35" rx="11"/>
      <rect class="cls-10" x="1034.9" y="98.68" width="76" height="35" rx="11"/>
      <rect class="cls-6" x="19.35" y="200.54" width="178" height="50" rx="11"/>
      <text class="cls-9" transform="translate(88.17 231.38)">Home</text>
      <rect class="cls-1" x="0.5" y="264.05" width="861.4" height="308.9"/>
      <g>
        <path class="cls-25" d="M960.6,301.84l-.34,1a5.41,5.41,0,0,0-3-.85c-2.4,0-4,1.69-4,4.54s1.58,4.56,4.05,4.56a4.86,4.86,0,0,0,3-.95l.2,1.07a5.68,5.68,0,0,1-3.19.86,4.83,4.83,0,0,1-3.72-1.49,6.41,6.41,0,0,1,0-8.06,4.87,4.87,0,0,1,3.69-1.51A6.16,6.16,0,0,1,960.6,301.84Z"/>
        <path class="cls-25" d="M963.63,306.82v5h-1.06V304l1.06-.22v1.66a2.56,2.56,0,0,1,2.29-1.66,2.78,2.78,0,0,1,1.36.35l-.27,1a2.34,2.34,0,0,0-1.19-.34C965,304.81,964.22,305.47,963.63,306.82Z"/>
        <path class="cls-25" d="M969.88,301.46a.87.87,0,0,1-.19.55.63.63,0,0,1-.52.23.66.66,0,0,1-.53-.23.87.87,0,0,1-.19-.55.86.86,0,0,1,.19-.53.65.65,0,0,1,.53-.22.62.62,0,0,1,.52.22A.86.86,0,0,1,969.88,301.46Zm-.19,10.35h-1.05V304l1.05-.22Z"/>
        <path class="cls-25" d="M976.05,311.66a4.06,4.06,0,0,1-1.73.41c-1.45,0-2.14-.82-2.09-2.45l.12-4.61-1.19-.06.05-.67,1.17-.27,0-1.77h1l0,1.82H976l-.05.94h-2.58l-.12,4.65c0,1,.34,1.47,1.14,1.47a3.67,3.67,0,0,0,1.49-.38Z"/>
        <path class="cls-25" d="M979,301.46a.87.87,0,0,1-.19.55.66.66,0,0,1-.53.23.63.63,0,0,1-.52-.23.87.87,0,0,1-.19-.55.86.86,0,0,1,.19-.53.62.62,0,0,1,.52-.22.65.65,0,0,1,.53.22A.86.86,0,0,1,979,301.46Zm-.19,10.35h-1.05V304l1.05-.22Z"/>
        <path class="cls-25" d="M987,311.37a4.47,4.47,0,0,1-2.41.66c-2.33,0-3.81-1.63-3.81-4.09a4.16,4.16,0,0,1,1.09-3,3.6,3.6,0,0,1,2.74-1.15,4.45,4.45,0,0,1,2.43.66l-.27.95a3.83,3.83,0,0,0-2.16-.63c-1.69,0-2.74,1.24-2.74,3.11s1.09,3.15,2.75,3.15a3.86,3.86,0,0,0,2.16-.65Z"/>
        <path class="cls-25" d="M993.12,310.88h0a2.86,2.86,0,0,1-2.28,1.15,2.24,2.24,0,0,1-2.46-2.15c0-1.67,1.58-2.59,4.72-2.77v-.46a1.63,1.63,0,0,0-1.83-1.86,4.7,4.7,0,0,0-2.55.94l-.24-1a5.51,5.51,0,0,1,2.89-.93,2.46,2.46,0,0,1,2.79,2.79v3.73c0,.62.13.8.78.79l-.07.86C993.82,312.05,993.24,311.68,993.12,310.88Zm-.07-.78v-2.28c-2.62.29-3.62.87-3.62,1.94a1.43,1.43,0,0,0,1.6,1.36A2.63,2.63,0,0,0,993.05,310.1Z"/>
        <path class="cls-25" d="M996.45,311.81V300.36l1.06-.22v11.67Z"/>
        <path class="cls-25" d="M1008,310.88h-.05a2.86,2.86,0,0,1-2.28,1.15,2.24,2.24,0,0,1-2.46-2.15c0-1.67,1.58-2.59,4.72-2.77v-.46a1.63,1.63,0,0,0-1.83-1.86,4.7,4.7,0,0,0-2.55.94l-.24-1a5.51,5.51,0,0,1,2.89-.93,2.46,2.46,0,0,1,2.79,2.79v3.73c0,.62.13.8.78.79l-.07.86C1008.66,312.05,1008.08,311.68,1008,310.88Zm-.07-.78v-2.28c-2.62.29-3.62.87-3.62,1.94a1.43,1.43,0,0,0,1.6,1.36A2.63,2.63,0,0,0,1007.89,310.1Z"/>
        <path class="cls-25" d="M1017.48,311.81h-1.05v-5c0-1.36-.53-2-1.72-2a3.3,3.3,0,0,0-2.36,1.11v5.89h-1.06V304l1.06-.22v1.27a3.74,3.74,0,0,1,2.65-1.27,2.35,2.35,0,0,1,2.48,2.67Z"/>
        <path class="cls-25" d="M1025.11,304.28v-3.92l1.06-.22v11.67h-1.06v-.73a3.23,3.23,0,0,1-2.26.95c-2.09,0-3.48-1.64-3.48-4a4.2,4.2,0,0,1,1.09-3,3.66,3.66,0,0,1,2.77-1.15A4.33,4.33,0,0,1,1025.11,304.28Zm0,1.13a3,3,0,0,0-1.93-.6c-1.67,0-2.72,1.29-2.72,3.16s1,3.1,2.58,3.1a2.94,2.94,0,0,0,2.07-.87v-4.79Z"/>
        <path class="cls-25" d="M1032.66,311.81V301.19h1.07v10.62Z"/>
        <path class="cls-25" d="M1042.56,311.81h-1.06v-5c0-1.36-.53-2-1.72-2a3.3,3.3,0,0,0-2.36,1.11v5.89h-1.05V304l1.05-.22v1.27a3.76,3.76,0,0,1,2.65-1.27,2.35,2.35,0,0,1,2.49,2.67Z"/>
        <path class="cls-25" d="M1049,300.32l0,.24c-.05.17-.09.32-.14.48l-.07.23a2.8,2.8,0,0,0-1.19-.32c-.86,0-1.29.61-1.29,1.82v1.29h2.45l-.05.94h-2.4v6.81h-1V305l-1.25-.08.06-.67,1.18-.27v-1.22c0-1.87.82-2.81,2.35-2.81A3.4,3.4,0,0,1,1049,300.32Z"/>
        <path class="cls-25" d="M1057.09,307.9a4.13,4.13,0,0,1-1.09,3,3.62,3.62,0,0,1-2.73,1.15,3.53,3.53,0,0,1-2.71-1.12,4.21,4.21,0,0,1-1-3,4.14,4.14,0,0,1,1.1-3,3.59,3.59,0,0,1,2.74-1.14,3.51,3.51,0,0,1,2.7,1.12A4.16,4.16,0,0,1,1057.09,307.9Zm-1,0c0-1.92-1.09-3.18-2.75-3.18s-2.74,1.27-2.74,3.14,1.09,3.18,2.76,3.18S1056.05,309.81,1056.05,307.94Z"/>
        <path class="cls-25" d="M1060.1,306.82v5H1059V304l1.06-.22v1.66a2.56,2.56,0,0,1,2.29-1.66,2.75,2.75,0,0,1,1.36.35l-.27,1a2.28,2.28,0,0,0-1.19-.34C1061.42,304.81,1060.69,305.47,1060.1,306.82Z"/>
        <path class="cls-25" d="M1075.87,311.81h-1v-5c0-1.33-.54-2-1.65-2a3.23,3.23,0,0,0-2.19,1c0,.14,0,.38,0,.7v5.3h-1v-5c0-1.33-.55-2-1.65-2a3.25,3.25,0,0,0-2.16.9v6.1h-1.05V304l1.05-.22v1.07a3.58,3.58,0,0,1,2.46-1.07,2.07,2.07,0,0,1,2.11,1.29,3.87,3.87,0,0,1,2.76-1.29c1.49,0,2.39,1,2.39,2.68Z"/>
        <path class="cls-25" d="M1082.4,310.88h-.05a2.86,2.86,0,0,1-2.28,1.15,2.24,2.24,0,0,1-2.46-2.15c0-1.67,1.58-2.59,4.72-2.77v-.46a1.63,1.63,0,0,0-1.83-1.86,4.7,4.7,0,0,0-2.55.94l-.24-1a5.51,5.51,0,0,1,2.89-.93,2.46,2.46,0,0,1,2.79,2.79v3.73c0,.62.13.8.78.79l-.07.86C1083.1,312.05,1082.52,311.68,1082.4,310.88Zm-.07-.78v-2.28c-2.61.29-3.62.87-3.62,1.94a1.43,1.43,0,0,0,1.6,1.36A2.63,2.63,0,0,0,1082.33,310.1Z"/>
        <path class="cls-25" d="M1085.09,308.18v-1h3.84v1Z"/>
        <path class="cls-25" d="M981.48,332.06a4,4,0,0,1-1.73.41c-1.44,0-2.14-.82-2.09-2.45l.12-4.61-1.19-.06,0-.67,1.17-.27.05-1.77h1l0,1.82h2.6l-.06.94h-2.58l-.12,4.65c0,1,.34,1.47,1.14,1.47a3.71,3.71,0,0,0,1.5-.38Z"/>
        <path class="cls-25" d="M984.46,321.86a.87.87,0,0,1-.19.55.65.65,0,0,1-.53.23.64.64,0,0,1-.52-.23.87.87,0,0,1-.19-.55.86.86,0,0,1,.19-.53.63.63,0,0,1,.52-.22.64.64,0,0,1,.53.22A.86.86,0,0,1,984.46,321.86Zm-.19,10.35h-1v-7.78l1-.22Z"/>
        <path class="cls-25" d="M993.82,328.3a4.12,4.12,0,0,1-1.08,3,3.63,3.63,0,0,1-2.74,1.15,3.51,3.51,0,0,1-2.7-1.12,4.64,4.64,0,0,1,.05-6,3.59,3.59,0,0,1,2.74-1.14,3.52,3.52,0,0,1,2.7,1.12A4.19,4.19,0,0,1,993.82,328.3Zm-1,0c0-1.92-1.09-3.18-2.76-3.18s-2.73,1.27-2.73,3.14,1.09,3.18,2.75,3.18S992.79,330.21,992.79,328.34Z"/>
        <path class="cls-25" d="M1002,332.21h-1.06v-5c0-1.36-.52-2-1.71-2a3.33,3.33,0,0,0-2.37,1.11v5.89h-1.05v-7.78l1.05-.22v1.27a3.76,3.76,0,0,1,2.66-1.27,2.35,2.35,0,0,1,2.48,2.67Z"/>
        <path class="cls-25" d="M1008.5,331.28h-.06a2.83,2.83,0,0,1-2.27,1.15,2.25,2.25,0,0,1-2.47-2.15q0-2.5,4.73-2.77v-.46a1.63,1.63,0,0,0-1.84-1.86,4.76,4.76,0,0,0-2.55.94l-.24-1a5.54,5.54,0,0,1,2.89-.93,2.45,2.45,0,0,1,2.79,2.79v3.73c0,.62.14.8.78.79l-.06.86C1009.19,332.45,1008.61,332.08,1008.5,331.28Zm-.07-.78v-2.28c-2.62.29-3.62.87-3.62,1.94a1.42,1.42,0,0,0,1.59,1.36A2.67,2.67,0,0,0,1008.43,330.5Z"/>
        <path class="cls-25" d="M1011.83,332.21V320.76l1-.22v11.67Z"/>
        <path class="cls-25" d="M1020.43,328v4.25h-1.09V321.59h2.86c2.56,0,3.86,1.14,3.86,3.06a3.09,3.09,0,0,1-2.47,3l2.94,4.57h-1.26l-2.72-4.38Zm0-1,1.9-.07c1.5-.05,2.64-.89,2.64-2.23s-1-2.12-2.89-2.12h-1.65Z"/>
        <path class="cls-25" d="M1028.59,328.36v.08c.05,1.78,1.1,3,2.72,3a4,4,0,0,0,2.26-.65l.2,1a4.63,4.63,0,0,1-2.49.66,3.72,3.72,0,0,1-3.76-4,4.39,4.39,0,0,1,1-3,3.37,3.37,0,0,1,2.62-1.17,2.67,2.67,0,0,1,2.84,2.87,4,4,0,0,1-.17,1.24Zm.07-.84H1033a2.75,2.75,0,0,0,0-.34,1.78,1.78,0,0,0-1.87-2A2.51,2.51,0,0,0,1028.66,327.52Z"/>
        <path class="cls-25" d="M1037.07,325.21a3.25,3.25,0,0,1,2.26-.95c2.09,0,3.49,1.63,3.49,4a4.21,4.21,0,0,1-1.07,3,3.63,3.63,0,0,1-2.77,1.17,4.45,4.45,0,0,1-1.91-.4v4.14h-1V324.39l1-.22Zm0,.88v4.78a3.1,3.1,0,0,0,2,.61c1.63,0,2.7-1.31,2.7-3.18s-1-3.07-2.57-3.07A3.06,3.06,0,0,0,1037.07,326.09Z"/>
        <path class="cls-25" d="M1051.85,328.3a4.13,4.13,0,0,1-1.09,3,3.63,3.63,0,0,1-2.74,1.15,3.52,3.52,0,0,1-2.7-1.12,4.64,4.64,0,0,1,0-6,3.59,3.59,0,0,1,2.74-1.14,3.52,3.52,0,0,1,2.7,1.12A4.16,4.16,0,0,1,1051.85,328.3Zm-1,0c0-1.92-1.09-3.18-2.75-3.18s-2.74,1.27-2.74,3.14,1.09,3.18,2.75,3.18S1050.81,330.21,1050.81,328.34Z"/>
        <path class="cls-25" d="M1054.85,327.22v5h-1v-7.78l1-.22v1.66a2.58,2.58,0,0,1,2.3-1.66,2.81,2.81,0,0,1,1.36.35l-.27,1a2.34,2.34,0,0,0-1.19-.34C1056.18,325.21,1055.45,325.87,1054.85,327.22Z"/>
        <path class="cls-25" d="M1064,332.06a4.06,4.06,0,0,1-1.73.41c-1.45,0-2.14-.82-2.09-2.45l.12-4.61-1.19-.06.05-.67,1.17-.27,0-1.77h1l0,1.82h2.6l-.05.94h-2.58l-.12,4.65c0,1,.34,1.47,1.14,1.47a3.71,3.71,0,0,0,1.5-.38Z"/>
      </g>
    </g>
  </g>
</svg>
