<svg fill="none" height="215" viewBox="0 0 215 215" width="215" xmlns="http://www.w3.org/2000/svg"><rect fill="#ec8539" height="215" rx="20" width="215"/><g fill="#fbfbfb"><path d="m164.25 44.5h-112.4996c-6.875 0-12.5 5.625-12.5 12.5v75c0 6.875 5.625 12.5 12.5 12.5h43.75l-12.5 18.75v6.25h49.9996v-6.25l-12.5-18.75h43.75c6.875 0 12.5-5.625 12.5-12.5v-75c0-6.875-5.625-12.5-12.5-12.5zm0 75h-112.4996v-62.5h112.4996z"/><path d="m66.625 79.4167h27.9583v5.0833h-27.9583zm0-5.0834h27.9583v-5.0833h-27.9583zm0 20.3334h17.7917v-5.0834h-17.7917zm38.15-7.9555 1.805-1.8045c.235-.2357.514-.4226.822-.5501.307-.1276.637-.1932.97-.1932s.662.0656.97.1932c.307.1275.587.3144.822.5501l1.804 1.8045c.992.9913.992 2.5925 0 3.5838l-1.804 1.8046zm-1.804 1.8046-13.471 13.4712v5.388h5.3883l13.4707-13.4708z"/><rect height="5.28667" rx="2.64333" width="30.0933" x="65.5067" y="69.0467"/><rect height="5.28666" rx="2.64333" width="30.0933" x="65.5067" y="79.2133"/><rect height="5.28667" rx="2.64334" width="19.9267" x="65.5067" y="89.38"/></g></svg>