<svg fill="none" height="209" viewBox="0 0 209 209" width="209" xmlns="http://www.w3.org/2000/svg"><rect fill="#ec8539" height="209" rx="20" width="209"/><path d="m161.062 74.4375c.58-.5782 1.04-1.265 1.353-2.0211.314-.7561.475-1.5666.475-2.3851 0-.8186-.161-1.6291-.475-2.3852-.313-.7561-.773-1.4429-1.353-2.0211l-17.687-17.6875c-.578-.5794-1.265-1.0391-2.021-1.3527s-1.567-.4751-2.385-.4751c-.819 0-1.629.1615-2.385.4751s-1.443.7733-2.022 1.3527l-28.062 28.0625-24.3125-24.3125c-4.875-4.875-12.8125-4.875-17.6875 0l-11.875 11.875c-4.875 4.875-4.875 12.8125 0 17.6875l24.3125 24.313-28.1875 28.187v26.5h26.5l28.25-28.25 24.312 24.313c5.938 5.937 13.938 3.75 17.688 0l11.875-11.875c4.875-4.875 4.875-12.813 0-17.688l-24.313-24.312zm-99.562-2.0625 11.8125-11.875 7.9375 7.9375-7.375 7.4375 8.8125 8.8125 7.4375-7.4375 7.5 7.5-11.875 11.875zm70.188 46.5-7.438 7.438 8.812 8.812 7.438-7.437 7.938 7.937-11.876 11.875-24.312-24.312 11.875-11.875zm-61.6255 28.875h-8.8125v-8.812l60.062-60.063 8.126 8.125.687.6875zm60.0625-77.75 8.813-8.8125 8.812 8.8125-8.812 8.8125z" fill="#fbfbfb"/></svg>