<?xml version="1.0" encoding="utf-8"?>
<!-- Generator: Adobe Illustrator 25.4.1, SVG Export Plug-In . SVG Version: 6.00 Build 0)  -->
<svg version="1.1" id="Layer_1" xmlns="http://www.w3.org/2000/svg" xmlns:xlink="http://www.w3.org/1999/xlink" x="0px" y="0px"
	 viewBox="0 0 211 211" style="enable-background:new 0 0 211 211;" xml:space="preserve">
<style type="text/css">
	.st0{fill:#EC8539;}
	.st1{fill:none;stroke:#EFEFEF;stroke-width:12;stroke-linecap:round;stroke-linejoin:round;}
</style>
<path class="st0" d="M20,0h171c11,0,20,9,20,20v171c0,11-9,20-20,20H20c-11,0-20-9-20-20V20C0,9,9,0,20,0z"/>
<line class="st1" x1="75.5" y1="183.5" x2="135.5" y2="183.5"/>
<path class="st1" d="M68.5,134.8c-26.1-20.4-30.7-58.1-10.3-84.2s58.1-30.7,84.2-10.3s30.7,58.1,10.3,84.2c-3,3.8-6.4,7.3-10.2,10.2
	c-4.4,3.4-7,8.7-7,14.3v4.5c0,3.3-2.7,6-6,6h-48c-3.3,0-6-2.7-6-6V149C75.5,143.4,72.9,138.2,68.5,134.8z"/>
<path class="st1" d="M111.6,52.1c15,2.6,26.8,14.3,29.4,29.4"/>
</svg>
