<svg width="1186" height="304" viewBox="0 0 1186 304" fill="none" xmlns="http://www.w3.org/2000/svg">
<path d="M238.102 240.87H239.292V231.408L235.78 232.696L235.838 233.808L238.102 232.949V240.87ZM250.26 236.305C250.26 238.041 249.675 239.661 248.524 241.124C247.353 242.607 245.675 243.601 243.471 244.109L243.12 242.977C246.339 242.216 248.387 240.265 248.953 237.71L248.914 237.69C247.938 238.607 246.846 239.056 245.636 239.056C244.661 239.056 243.822 238.724 243.139 238.08C242.456 237.437 242.105 236.539 242.105 235.427C242.105 233.066 243.685 231.408 246.124 231.408C247.392 231.408 248.407 231.876 249.148 232.793C249.889 233.73 250.26 234.9 250.26 236.305ZM248.992 236.051C248.992 234.042 247.86 232.52 246.065 232.52C244.388 232.52 243.334 233.671 243.334 235.369C243.334 236.968 244.407 237.983 245.87 237.983C247.021 237.983 248.036 237.554 248.933 236.695C248.972 236.5 248.992 236.286 248.992 236.051ZM256.189 236.695V235.564H251.78V236.695H256.189ZM264.62 240.87H257.635V239.758C259.684 238.217 260.952 237.222 261.42 236.793C262.415 235.895 262.903 235.095 262.903 234.374C262.903 233.301 262.103 232.54 260.854 232.54C259.976 232.54 259.059 232.91 258.084 233.671L257.655 232.637C258.689 231.818 259.801 231.408 260.971 231.408C262.883 231.408 264.171 232.54 264.171 234.218C264.171 234.452 264.151 234.666 264.112 234.881C264.054 235.095 263.976 235.33 263.859 235.544C263.742 235.759 263.625 235.954 263.527 236.129C263.41 236.305 263.234 236.52 263 236.734L262.454 237.3C262.317 237.437 262.083 237.632 261.771 237.885C261.44 238.139 261.205 238.334 261.03 238.451C260.854 238.588 260.581 238.783 260.21 239.075C259.82 239.368 259.528 239.583 259.352 239.719H264.62V240.87ZM267.359 236.812C267.847 236.676 268.393 236.617 268.998 236.617C271.456 236.617 273.056 238.119 273.056 240.324C273.056 241.534 272.646 242.528 271.846 243.309C271.027 244.089 270.012 244.479 268.803 244.479C267.652 244.479 266.598 244.206 265.681 243.68L265.915 242.489C266.93 243.055 267.905 243.328 268.842 243.328C270.597 243.328 271.827 242.158 271.827 240.382C271.827 238.841 270.676 237.671 268.881 237.671C268.081 237.671 267.3 237.788 266.559 238.041L266.149 237.651L266.93 231.642H272.724L272.783 232.813H267.925L267.359 236.812Z" fill="#111115"/>
<path d="M7.90131 45.777H0.916992V44.665C2.96546 43.1237 4.23357 42.1288 4.70179 41.6995C5.69676 40.8021 6.18449 40.0022 6.18449 39.2804C6.18449 38.2074 5.38461 37.4465 4.13602 37.4465C3.2581 37.4465 2.34117 37.8172 1.3657 38.5781L0.936501 37.5441C1.97049 36.7247 3.08252 36.315 4.25307 36.315C6.16498 36.315 7.45259 37.4465 7.45259 39.1243C7.45259 39.3584 7.43308 39.573 7.39406 39.7876C7.33554 40.0022 7.2575 40.2364 7.14044 40.451C7.02339 40.6656 6.90633 40.8606 6.80879 41.0362C6.69173 41.2118 6.51615 41.4264 6.28204 41.641L5.73578 42.2068C5.59921 42.3434 5.3651 42.5384 5.05295 42.7921C4.7213 43.0457 4.48719 43.2408 4.3116 43.3578C4.13602 43.4944 3.86289 43.6895 3.49221 43.9821C3.10203 44.2748 2.80939 44.4894 2.63381 44.6259H7.90131V45.777ZM9.54618 41.1338C9.54618 39.3975 10.1315 37.7782 11.302 36.2955C12.4726 34.8323 14.1504 33.8373 16.3354 33.3301L16.6866 34.4616C13.4675 35.2225 11.4191 37.1734 10.8533 39.7291L10.8923 39.7486C11.8678 38.8317 12.9603 38.383 14.1699 38.383C15.1453 38.383 15.9842 38.7146 16.6671 39.3584C17.3499 40.0022 17.701 40.8997 17.701 42.0117C17.701 44.3723 16.1013 46.0306 13.7016 46.0306C12.414 46.0306 11.3996 45.5624 10.6582 44.6259C9.91685 43.709 9.54618 42.5384 9.54618 41.1338ZM10.8143 41.3874C10.8143 42.3629 11.0874 43.2018 11.6142 43.8846C12.1409 44.5674 12.8432 44.9186 13.7407 44.9186C15.4185 44.9186 16.472 43.7675 16.472 42.0702C16.472 40.4705 15.399 39.456 13.9358 39.456C12.7847 39.456 11.7702 39.8852 10.8728 40.7436C10.8338 40.9387 10.8143 41.1533 10.8143 41.3874ZM23.572 41.602V40.4705H19.1629V41.602H23.572ZM26.2446 41.7191C26.7323 41.5825 27.2785 41.524 27.8833 41.524C30.3415 41.524 31.9413 43.0262 31.9413 45.2307C31.9413 46.4403 31.5316 47.4353 30.7317 48.2156C29.9123 48.996 28.8978 49.3862 27.6882 49.3862C26.5372 49.3862 25.4837 49.1131 24.5668 48.5863L24.8009 47.3963C25.8154 47.962 26.7908 48.2351 27.7273 48.2351C29.4831 48.2351 30.7122 47.0646 30.7122 45.2893C30.7122 43.748 29.5611 42.5775 27.7663 42.5775C26.9664 42.5775 26.186 42.6945 25.4447 42.9481L25.035 42.558L25.8154 36.5491H31.6096L31.6681 37.7197H26.8103L26.2446 41.7191ZM37.9881 36.315C39.3342 36.315 40.4657 36.7637 41.3632 37.6806C42.2606 38.5976 42.7093 39.7486 42.7093 41.1728C42.7093 42.597 42.2606 43.748 41.3632 44.665C40.4657 45.5819 39.3342 46.0306 37.9881 46.0306C36.6419 46.0306 35.5299 45.5819 34.652 44.665C33.7546 43.748 33.3059 42.597 33.3059 41.1728C33.3059 39.7486 33.7546 38.5976 34.652 37.6806C35.5299 36.7637 36.6419 36.315 37.9881 36.315ZM37.9881 44.8796C39.0221 44.8796 39.861 44.5284 40.5243 43.8261C41.1681 43.1237 41.4997 42.2458 41.4997 41.1728C41.4997 40.0998 41.1681 39.2219 40.5243 38.5195C39.861 37.8172 39.0221 37.466 37.9881 37.466C36.9736 37.466 36.1347 37.8172 35.4909 38.5195C34.8471 39.2219 34.5154 40.0998 34.5154 41.1728C34.5154 42.2458 34.8471 43.1237 35.4909 43.8261C36.1347 44.5284 36.9736 44.8796 37.9881 44.8796Z" fill="#111115"/>
<path d="M235.701 261.786C235.701 260.011 236.286 258.411 237.437 256.987C238.588 255.582 240.227 254.626 242.393 254.119L242.88 255.641C239.857 256.401 238.042 257.923 237.437 260.206L237.476 260.225C238.354 259.425 239.388 259.016 240.578 259.016C242.588 259.016 244.149 260.557 244.149 262.801C244.149 265.161 242.51 266.858 239.993 266.858C238.647 266.858 237.613 266.371 236.852 265.395C236.091 264.439 235.701 263.23 235.701 261.786ZM237.398 262.293C237.398 264.01 238.452 265.376 240.071 265.376C241.554 265.376 242.529 264.361 242.529 262.879C242.529 261.415 241.554 260.44 240.149 260.44C239.096 260.44 238.101 260.928 237.496 261.474C237.437 261.708 237.398 261.981 237.398 262.293ZM248.063 266.566H249.643V257.045L245.741 258.333L245.8 259.796L248.063 259.074V266.566ZM253.413 264.361C253.764 264.361 254.057 264.478 254.291 264.712C254.525 264.966 254.642 265.259 254.642 265.59C254.642 265.922 254.525 266.215 254.291 266.468C254.057 266.722 253.764 266.858 253.413 266.858C253.042 266.858 252.75 266.722 252.516 266.468C252.262 266.215 252.145 265.922 252.145 265.59C252.145 265.259 252.262 264.966 252.516 264.712C252.75 264.478 253.042 264.361 253.413 264.361ZM257.782 262.371C258.426 262.313 258.894 262.274 259.167 262.274C261.723 262.274 263.362 263.737 263.362 266.02C263.362 267.249 262.952 268.263 262.133 269.043C261.294 269.824 260.279 270.214 259.07 270.214C257.763 270.214 256.631 269.941 255.675 269.375L255.968 267.795C257.041 268.4 258.094 268.692 259.089 268.692C260.631 268.692 261.723 267.658 261.723 266.098C261.723 264.732 260.67 263.659 258.972 263.659C258.114 263.659 257.314 263.776 256.573 263.991L256.144 263.6L256.943 257.338H263.03L263.089 258.918H258.251L257.782 262.371ZM270.438 257.162C270.438 258.957 269.17 260.381 267.2 260.381C265.268 260.381 263.961 258.957 263.961 257.162C263.961 256.245 264.254 255.485 264.858 254.841C265.444 254.216 266.224 253.904 267.2 253.904C268.175 253.904 268.955 254.216 269.56 254.841C270.145 255.465 270.438 256.245 270.438 257.162ZM276.388 254.099L266.673 266.858H265.444L275.159 254.099H276.388ZM277.852 263.795C277.852 264.712 277.559 265.473 276.974 266.098C276.369 266.741 275.589 267.054 274.613 267.054C273.638 267.054 272.857 266.741 272.272 266.117C271.667 265.493 271.375 264.712 271.375 263.795C271.375 262.001 272.662 260.576 274.613 260.576C276.544 260.576 277.852 262.001 277.852 263.795ZM269.385 257.162C269.385 256.519 269.19 255.992 268.799 255.563C268.39 255.133 267.863 254.919 267.2 254.919C266.536 254.919 266.009 255.133 265.619 255.563C265.21 255.992 265.015 256.519 265.015 257.162C265.015 257.767 265.21 258.294 265.619 258.723C266.009 259.152 266.536 259.367 267.2 259.367C267.863 259.367 268.39 259.152 268.799 258.723C269.19 258.294 269.385 257.767 269.385 257.162ZM276.798 263.795C276.798 263.191 276.603 262.664 276.213 262.235C275.803 261.806 275.276 261.591 274.613 261.591C273.95 261.591 273.423 261.806 273.033 262.235C272.623 262.664 272.428 263.191 272.428 263.795C272.428 264.439 272.623 264.966 273.033 265.395C273.423 265.824 273.95 266.039 274.613 266.039C275.276 266.039 275.803 265.824 276.213 265.395C276.603 264.966 276.798 264.439 276.798 263.795Z" fill="#111115"/>
<path d="M5.26759 67.6594C7.12097 67.952 8.13545 69.2591 8.13545 70.7418C8.13545 71.9319 7.70625 72.8879 6.86735 73.5707C6.00894 74.273 4.93593 74.6242 3.64832 74.6242C2.26316 74.6242 1.15114 74.3706 0.351257 73.8828L0.643896 72.3806C1.40476 72.9074 2.41924 73.161 3.66783 73.161C5.36514 73.161 6.45765 72.3416 6.45765 70.8589C6.45765 69.5518 5.42366 68.869 3.80439 68.8104C3.31666 68.7909 2.71188 68.8494 2.00954 68.9665V67.5813C4.64329 66.9766 5.95041 66.0401 5.95041 64.7915C5.95041 63.621 5.15053 62.9772 3.74587 62.9772C2.88746 62.9772 1.95102 63.3478 0.936535 64.1087L0.370767 62.7431C1.44378 61.9042 2.63384 61.475 3.92145 61.475C6.28207 61.475 7.70625 62.7235 7.70625 64.5574C7.70625 65.9426 6.65275 67.1131 5.26759 67.6594ZM14.096 64.3818C15.1885 63.9331 15.7348 63.1918 15.7348 62.1773C15.7348 60.9287 14.7983 60.1288 13.5107 60.1288C12.0475 60.1288 11.1891 60.9092 11.1891 61.9822C11.1891 62.2163 11.2477 62.4309 11.3647 62.6455C11.4818 62.8601 11.6183 63.0162 11.7549 63.1527C11.8915 63.2893 12.1256 63.4454 12.4572 63.621C12.7694 63.7966 13.023 63.9136 13.1986 63.9916C13.3742 64.0892 13.6863 64.2062 14.096 64.3818ZM12.9255 65.4743C11.7159 65.8645 10.994 66.7034 10.994 67.796C10.994 69.025 12.0475 69.8444 13.5302 69.8444C15.0715 69.8444 15.9104 69.1811 15.9104 68.0106C15.9104 67.796 15.8714 67.6009 15.8128 67.4253C15.7543 67.2497 15.6372 67.0741 15.4617 66.8985C15.2861 66.7229 15.13 66.5864 15.0129 66.4888C14.8959 66.3913 14.6813 66.2742 14.3496 66.1182C14.018 65.9621 13.8034 65.8645 13.7058 65.806C13.5888 65.7475 13.3352 65.6499 12.9255 65.4743ZM15.3056 64.9281C16.8078 65.689 17.5492 66.6449 17.5492 67.8155C17.5492 69.7664 16.0469 71.2686 13.4522 71.2686C10.8185 71.2686 9.37477 69.8834 9.37477 67.9715C9.37477 66.5083 10.5453 65.2597 11.7159 64.9476C10.3502 64.2453 9.56987 63.4649 9.56987 62.1578C9.56987 60.1093 11.1111 58.7046 13.5888 58.7046C16.0469 58.7046 17.3541 60.1483 17.3541 62.0017C17.3541 63.3673 16.3981 64.4794 15.3056 64.9281ZM20.4941 68.7714C20.8452 68.7714 21.1379 68.8885 21.372 69.1226C21.6061 69.3762 21.7232 69.6688 21.7232 70.0005C21.7232 70.3322 21.6061 70.6248 21.372 70.8784C21.1379 71.132 20.8452 71.2686 20.4941 71.2686C20.1234 71.2686 19.8308 71.132 19.5966 70.8784C19.343 70.6248 19.226 70.3322 19.226 70.0005C19.226 69.6688 19.343 69.3762 19.5966 69.1226C19.8308 68.8885 20.1234 68.7714 20.4941 68.7714ZM24.8634 66.7815C25.5072 66.7229 25.9754 66.6839 26.2486 66.6839C28.8043 66.6839 30.4431 68.1471 30.4431 70.4297C30.4431 71.6588 30.0334 72.6733 29.214 73.4536C28.3751 74.234 27.3606 74.6242 26.151 74.6242C24.8439 74.6242 23.7124 74.3511 22.7564 73.7853L23.0491 72.205C24.1221 72.8098 25.1756 73.1025 26.1705 73.1025C27.7118 73.1025 28.8043 72.0685 28.8043 70.5077C28.8043 69.1421 27.7508 68.0691 26.0535 68.0691C25.1951 68.0691 24.3952 68.1861 23.6538 68.4007L23.2246 68.0106L24.0245 61.7481H30.1114L30.1699 63.3283H25.3316L24.8634 66.7815ZM37.5193 61.5725C37.5193 63.3673 36.2512 64.7915 34.2808 64.7915C32.3494 64.7915 31.0422 63.3673 31.0422 61.5725C31.0422 60.6556 31.3349 59.8947 31.9397 59.2509C32.5249 58.6266 33.3053 58.3145 34.2808 58.3145C35.2562 58.3145 36.0366 58.6266 36.6414 59.2509C37.2267 59.8752 37.5193 60.6556 37.5193 61.5725ZM43.4696 58.5095L33.754 71.2686H32.5249L42.2405 58.5095H43.4696ZM44.9328 68.2056C44.9328 69.1226 44.6402 69.8834 44.0549 70.5077C43.4501 71.1515 42.6698 71.4637 41.6943 71.4637C40.7188 71.4637 39.9385 71.1515 39.3532 70.5272C38.7484 69.903 38.4558 69.1226 38.4558 68.2056C38.4558 66.4108 39.7434 64.9866 41.6943 64.9866C43.6257 64.9866 44.9328 66.4108 44.9328 68.2056ZM36.4658 61.5725C36.4658 60.9287 36.2707 60.4019 35.8805 59.9727C35.4708 59.5435 34.9441 59.3289 34.2808 59.3289C33.6175 59.3289 33.0907 59.5435 32.7005 59.9727C32.2908 60.4019 32.0957 60.9287 32.0957 61.5725C32.0957 62.1773 32.2908 62.704 32.7005 63.1332C33.0907 63.5624 33.6175 63.777 34.2808 63.777C34.9441 63.777 35.4708 63.5624 35.8805 63.1332C36.2707 62.704 36.4658 62.1773 36.4658 61.5725ZM43.8793 68.2056C43.8793 67.6009 43.6842 67.0741 43.2941 66.6449C42.8844 66.2157 42.3576 66.0011 41.6943 66.0011C41.031 66.0011 40.5042 66.2157 40.114 66.6449C39.7043 67.0741 39.5093 67.6009 39.5093 68.2056C39.5093 68.8494 39.7043 69.3762 40.114 69.8054C40.5042 70.2346 41.031 70.4492 41.6943 70.4492C42.3576 70.4492 42.8844 70.2346 43.2941 69.8054C43.6842 69.3762 43.8793 68.8494 43.8793 68.2056Z" fill="#111115"/>
<path d="M141.142 40.8984C120.066 40.8984 99.4915 47.3168 82.1543 59.2993C64.8169 71.2819 51.5399 88.2603 44.0904 107.975C36.6409 127.689 35.372 149.206 40.4527 169.659C45.5334 190.113 56.7227 208.534 72.5314 222.471L141.142 144.648V40.8984Z" fill="#EC8539" fill-opacity="0.2"/>
<path d="M141.142 40.9355C157.928 40.9355 174.463 45.0085 189.329 52.8048C204.194 60.6012 216.946 71.8881 226.49 85.6969C236.034 99.5057 242.085 115.424 244.123 132.086C246.162 148.748 244.127 165.655 238.193 181.357C232.26 197.06 222.605 211.088 210.058 222.238C197.51 233.388 182.444 241.327 166.153 245.374C149.863 249.421 132.833 249.454 116.526 245.471C100.22 241.489 85.123 233.609 72.5314 222.508L141.142 144.685V40.9355Z" fill="#EC8539"/>
<g clip-path="url(#clip0_16147_12683)">
<path d="M701.654 241.01H702.923L702.532 228.817H700.874L696.816 239.586L692.7 228.817H691.022L690.612 241.01H691.841L692.056 230.339L696.094 240.932H697.46L701.459 230.358L701.654 241.01ZM710.253 239.04V236.426C707.249 236.757 706.098 237.421 706.098 238.65C706.098 239.586 706.858 240.21 707.931 240.21C708.79 240.21 709.57 239.82 710.253 239.04ZM710.331 239.937H710.273C709.551 240.815 708.692 241.264 707.658 241.264C706.02 241.264 704.83 240.23 704.83 238.786C704.83 236.874 706.644 235.821 710.253 235.606V235.079C710.253 233.655 709.551 232.953 708.146 232.953C707.21 232.953 706.039 233.421 705.22 234.026L704.947 232.894C705.805 232.29 707.132 231.821 708.263 231.821C710.409 231.821 711.482 232.894 711.463 235.021V239.313C711.463 240.015 711.619 240.23 712.36 240.21L712.282 241.205C711.131 241.283 710.468 240.854 710.331 239.937ZM715.373 241.01V227.607L714.164 227.861V241.01H715.373ZM718.827 236.582V236.679C718.886 238.728 720.096 240.132 721.949 240.132C722.924 240.132 723.783 239.879 724.544 239.391L724.778 240.503C723.958 241.01 723.002 241.264 721.91 241.264C719.354 241.264 717.598 239.372 717.598 236.621C717.598 235.216 718.008 234.065 718.808 233.168C719.608 232.27 720.603 231.821 721.812 231.821C723.802 231.821 725.07 233.109 725.07 235.119C725.07 235.645 725.012 236.113 724.875 236.543L718.827 236.582ZM718.905 235.626L723.861 235.606C723.88 235.548 723.88 235.411 723.88 235.216C723.88 233.811 723.119 232.914 721.734 232.914C720.193 232.914 719.12 234.065 718.905 235.626Z" fill="#111115"/>
<path d="M448.665 45.9185H449.914V40.5925H454.83V39.4414H449.914V34.8958H455.845V33.7252H448.665V45.9185ZM458.298 41.4899V41.5874C458.357 43.6359 459.566 45.0406 461.42 45.0406C462.395 45.0406 463.253 44.7869 464.014 44.2992L464.248 45.4112C463.429 45.9185 462.473 46.1721 461.381 46.1721C458.825 46.1721 457.069 44.2797 457.069 41.5289C457.069 40.1242 457.479 38.9732 458.279 38.0758C459.078 37.1783 460.073 36.7296 461.283 36.7296C463.273 36.7296 464.541 38.0172 464.541 40.0267C464.541 40.5534 464.482 41.0217 464.346 41.4509L458.298 41.4899ZM458.376 40.5339L463.331 40.5144C463.351 40.4559 463.351 40.3193 463.351 40.1242C463.351 38.7196 462.59 37.8221 461.205 37.8221C459.664 37.8221 458.591 38.9732 458.376 40.5339ZM479.187 45.9185H477.978V40.1633C477.978 38.6415 477.353 37.8807 476.085 37.8807C475.227 37.8807 474.388 38.2709 473.568 39.0317C473.588 39.1878 473.607 39.4609 473.607 39.8316V45.9185H472.398V40.1633C472.398 38.6415 471.774 37.8807 470.505 37.8807C469.628 37.8807 468.808 38.2318 468.028 38.9147V45.9185H466.818V36.9832L468.028 36.7296V37.9587C468.925 37.1393 469.862 36.7296 470.857 36.7296C472.047 36.7296 472.847 37.2174 473.276 38.2123C474.271 37.2174 475.324 36.7296 476.436 36.7296C478.153 36.7296 479.187 37.8417 479.187 39.8121V45.9185ZM486.608 43.948V41.3338C483.604 41.6655 482.453 42.3288 482.453 43.5579C482.453 44.4943 483.214 45.1186 484.287 45.1186C485.145 45.1186 485.925 44.7284 486.608 43.948ZM486.686 44.8455H486.628C485.906 45.7234 485.048 46.1721 484.014 46.1721C482.375 46.1721 481.185 45.1381 481.185 43.6944C481.185 41.7825 482.999 40.729 486.608 40.5144V39.9877C486.608 38.5635 485.906 37.8612 484.501 37.8612C483.565 37.8612 482.394 38.3294 481.575 38.9342L481.302 37.8026C482.16 37.1978 483.487 36.7296 484.618 36.7296C486.764 36.7296 487.837 37.8026 487.818 39.9291V44.2212C487.818 44.9235 487.974 45.1381 488.715 45.1186L488.637 46.1136C487.486 46.1916 486.823 45.7624 486.686 44.8455ZM491.729 45.9185V32.5156L490.519 32.7692V45.9185H491.729ZM495.183 41.4899V41.5874C495.241 43.6359 496.451 45.0406 498.304 45.0406C499.28 45.0406 500.138 44.7869 500.899 44.2992L501.133 45.4112C500.314 45.9185 499.358 46.1721 498.265 46.1721C495.709 46.1721 493.954 44.2797 493.954 41.5289C493.954 40.1242 494.363 38.9732 495.163 38.0758C495.963 37.1783 496.958 36.7296 498.168 36.7296C500.158 36.7296 501.426 38.0172 501.426 40.0267C501.426 40.5534 501.367 41.0217 501.231 41.4509L495.183 41.4899ZM495.261 40.5339L500.216 40.5144C500.236 40.4559 500.236 40.3193 500.236 40.1242C500.236 38.7196 499.475 37.8221 498.09 37.8221C496.548 37.8221 495.475 38.9732 495.261 40.5339Z" fill="#111115"/>
<path d="M690.376 261.929C690.376 260.153 690.961 258.554 692.112 257.129C693.263 255.725 694.902 254.769 697.067 254.261L697.555 255.783C694.531 256.544 692.717 258.066 692.112 260.348L692.151 260.368C693.029 259.568 694.063 259.158 695.253 259.158C697.262 259.158 698.823 260.7 698.823 262.943C698.823 265.304 697.184 267.001 694.668 267.001C693.322 267.001 692.288 266.513 691.527 265.538C690.766 264.582 690.376 263.372 690.376 261.929ZM692.073 262.436C692.073 264.153 693.126 265.518 694.746 265.518C696.228 265.518 697.204 264.504 697.204 263.021C697.204 261.558 696.228 260.582 694.824 260.582C693.77 260.582 692.775 261.07 692.17 261.616C692.112 261.851 692.073 262.124 692.073 262.436ZM702.737 266.708H704.317V257.188L700.416 258.475L700.474 259.939L702.737 259.217V266.708ZM708.088 264.504C708.439 264.504 708.731 264.621 708.965 264.855C709.2 265.109 709.317 265.401 709.317 265.733C709.317 266.065 709.2 266.357 708.965 266.611C708.731 266.864 708.439 267.001 708.088 267.001C707.717 267.001 707.424 266.864 707.19 266.611C706.937 266.357 706.819 266.065 706.819 265.733C706.819 265.401 706.937 265.109 707.19 264.855C707.424 264.621 707.717 264.504 708.088 264.504ZM712.457 262.514C713.101 262.455 713.569 262.416 713.842 262.416C716.398 262.416 718.036 263.88 718.036 266.162C718.036 267.391 717.627 268.406 716.807 269.186C715.968 269.966 714.954 270.357 713.744 270.357C712.437 270.357 711.306 270.083 710.35 269.518L710.642 267.937C711.715 268.542 712.769 268.835 713.764 268.835C715.305 268.835 716.398 267.801 716.398 266.24C716.398 264.875 715.344 263.802 713.647 263.802C712.788 263.802 711.989 263.919 711.247 264.133L710.818 263.743L711.618 257.481H717.705L717.763 259.061H712.925L712.457 262.514ZM725.113 257.305C725.113 259.1 723.845 260.524 721.874 260.524C719.943 260.524 718.636 259.1 718.636 257.305C718.636 256.388 718.928 255.627 719.533 254.983C720.118 254.359 720.899 254.047 721.874 254.047C722.85 254.047 723.63 254.359 724.235 254.983C724.82 255.608 725.113 256.388 725.113 257.305ZM731.063 254.242L721.347 267.001H720.118L729.834 254.242H731.063ZM732.526 263.938C732.526 264.855 732.234 265.616 731.648 266.24C731.043 266.884 730.263 267.196 729.288 267.196C728.312 267.196 727.532 266.884 726.947 266.26C726.342 265.635 726.049 264.855 726.049 263.938C726.049 262.143 727.337 260.719 729.288 260.719C731.219 260.719 732.526 262.143 732.526 263.938ZM724.059 257.305C724.059 256.661 723.864 256.134 723.474 255.705C723.064 255.276 722.537 255.061 721.874 255.061C721.211 255.061 720.684 255.276 720.294 255.705C719.884 256.134 719.689 256.661 719.689 257.305C719.689 257.91 719.884 258.436 720.294 258.866C720.684 259.295 721.211 259.509 721.874 259.509C722.537 259.509 723.064 259.295 723.474 258.866C723.864 258.436 724.059 257.91 724.059 257.305ZM731.473 263.938C731.473 263.333 731.278 262.807 730.887 262.377C730.478 261.948 729.951 261.734 729.288 261.734C728.624 261.734 728.098 261.948 727.707 262.377C727.298 262.807 727.103 263.333 727.103 263.938C727.103 264.582 727.298 265.109 727.707 265.538C728.098 265.967 728.624 266.182 729.288 266.182C729.951 266.182 730.478 265.967 730.887 265.538C731.278 265.109 731.473 264.582 731.473 263.938Z" fill="#111115"/>
<path d="M452.372 67.802C454.226 68.0946 455.24 69.4017 455.24 70.8844C455.24 72.0745 454.811 73.0304 453.972 73.7133C453.113 74.4156 452.04 74.7668 450.753 74.7668C449.368 74.7668 448.256 74.5131 447.456 74.0254L447.748 72.5232C448.509 73.05 449.524 73.3036 450.772 73.3036C452.47 73.3036 453.562 72.4842 453.562 71.0015C453.562 69.6944 452.528 69.0115 450.909 68.953C450.421 68.9335 449.816 68.992 449.114 69.1091V67.7239C451.748 67.1191 453.055 66.1827 453.055 64.9341C453.055 63.7635 452.255 63.1197 450.85 63.1197C449.992 63.1197 449.056 63.4904 448.041 64.2513L447.475 62.8856C448.548 62.0467 449.738 61.6175 451.026 61.6175C453.387 61.6175 454.811 62.8661 454.811 64.7C454.811 66.0851 453.757 67.2557 452.372 67.802ZM461.2 64.5244C462.293 64.0757 462.839 63.3343 462.839 62.3199C462.839 61.0713 461.903 60.2714 460.615 60.2714C459.152 60.2714 458.294 61.0518 458.294 62.1248C458.294 62.3589 458.352 62.5735 458.469 62.7881C458.586 63.0027 458.723 63.1588 458.859 63.2953C458.996 63.4319 459.23 63.588 459.562 63.7635C459.874 63.9391 460.127 64.0562 460.303 64.1342C460.479 64.2318 460.791 64.3488 461.2 64.5244ZM460.03 65.6169C458.82 66.0071 458.099 66.846 458.099 67.9385C458.099 69.1676 459.152 69.987 460.635 69.987C462.176 69.987 463.015 69.3237 463.015 68.1531C463.015 67.9385 462.976 67.7434 462.917 67.5679C462.859 67.3923 462.742 67.2167 462.566 67.0411C462.391 66.8655 462.234 66.729 462.117 66.6314C462 66.5339 461.786 66.4168 461.454 66.2607C461.122 66.1047 460.908 66.0071 460.81 65.9486C460.693 65.8901 460.44 65.7925 460.03 65.6169ZM462.41 65.0707C463.912 65.8315 464.654 66.7875 464.654 67.958C464.654 69.909 463.151 71.4112 460.557 71.4112C457.923 71.4112 456.479 70.026 456.479 68.1141C456.479 66.6509 457.65 65.4023 458.82 65.0902C457.455 64.3878 456.674 63.6075 456.674 62.3004C456.674 60.2519 458.216 58.8472 460.693 58.8472C463.151 58.8472 464.459 60.2909 464.459 62.1443C464.459 63.5099 463.503 64.622 462.41 65.0707ZM467.599 68.914C467.95 68.914 468.242 69.031 468.477 69.2652C468.711 69.5188 468.828 69.8114 468.828 70.1431C468.828 70.4747 468.711 70.7674 468.477 71.021C468.242 71.2746 467.95 71.4112 467.599 71.4112C467.228 71.4112 466.935 71.2746 466.701 71.021C466.448 70.7674 466.331 70.4747 466.331 70.1431C466.331 69.8114 466.448 69.5188 466.701 69.2652C466.935 69.031 467.228 68.914 467.599 68.914ZM471.968 66.924C472.612 66.8655 473.08 66.8265 473.353 66.8265C475.909 66.8265 477.548 68.2897 477.548 70.5723C477.548 71.8014 477.138 72.8158 476.319 73.5962C475.48 74.3766 474.465 74.7668 473.256 74.7668C471.948 74.7668 470.817 74.4936 469.861 73.9279L470.154 72.3476C471.227 72.9524 472.28 73.245 473.275 73.245C474.816 73.245 475.909 72.2111 475.909 70.6503C475.909 69.2847 474.855 68.2117 473.158 68.2117C472.3 68.2117 471.5 68.3287 470.758 68.5433L470.329 68.1531L471.129 61.8907H477.216L477.274 63.4709H472.436L471.968 66.924ZM484.624 61.7151C484.624 63.5099 483.356 64.9341 481.385 64.9341C479.454 64.9341 478.147 63.5099 478.147 61.7151C478.147 60.7981 478.439 60.0373 479.044 59.3935C479.629 58.7692 480.41 58.457 481.385 58.457C482.361 58.457 483.141 58.7692 483.746 59.3935C484.331 60.0178 484.624 60.7981 484.624 61.7151ZM490.574 58.6521L480.859 71.4112H479.629L489.345 58.6521H490.574ZM492.037 68.3482C492.037 69.2652 491.745 70.026 491.159 70.6503C490.555 71.2941 489.774 71.6063 488.799 71.6063C487.823 71.6063 487.043 71.2941 486.458 70.6698C485.853 70.0455 485.56 69.2652 485.56 68.3482C485.56 66.5534 486.848 65.1292 488.799 65.1292C490.73 65.1292 492.037 66.5534 492.037 68.3482ZM483.57 61.7151C483.57 61.0713 483.375 60.5445 482.985 60.1153C482.575 59.6861 482.049 59.4715 481.385 59.4715C480.722 59.4715 480.195 59.6861 479.805 60.1153C479.395 60.5445 479.2 61.0713 479.2 61.7151C479.2 62.3199 479.395 62.8466 479.805 63.2758C480.195 63.705 480.722 63.9196 481.385 63.9196C482.049 63.9196 482.575 63.705 482.985 63.2758C483.375 62.8466 483.57 62.3199 483.57 61.7151ZM490.984 68.3482C490.984 67.7434 490.789 67.2167 490.399 66.7875C489.989 66.3583 489.462 66.1437 488.799 66.1437C488.135 66.1437 487.609 66.3583 487.219 66.7875C486.809 67.2167 486.614 67.7434 486.614 68.3482C486.614 68.992 486.809 69.5188 487.219 69.948C487.609 70.3772 488.135 70.5918 488.799 70.5918C489.462 70.5918 489.989 70.3772 490.399 69.948C490.789 69.5188 490.984 68.992 490.984 68.3482Z" fill="#111115"/>
<path d="M585.626 41.0996C602.412 41.0996 618.947 45.1726 633.813 52.9689C648.679 60.7653 661.43 72.0522 670.974 85.861C680.519 99.6698 686.569 115.588 688.608 132.25C690.645 148.912 688.611 165.819 682.678 181.521C676.744 197.224 667.09 211.252 654.542 222.402C641.994 233.553 626.928 241.491 610.637 245.538C594.346 249.585 577.317 249.618 561.011 245.635C544.703 241.653 529.607 233.773 517.015 222.672L585.626 144.849V41.0996Z" fill="#EC8539"/>
<path d="M585.609 41.0664C564.534 41.0664 543.959 47.4848 526.621 59.4674C509.284 71.4499 496.007 88.4283 488.558 108.143C481.108 127.857 479.839 149.374 484.92 169.827C490.001 190.281 501.19 208.702 516.999 222.639L585.609 144.816V41.0664Z" fill="#EC8539" fill-opacity="0.2"/>
</g>
<g clip-path="url(#clip1_16147_12683)">
<path d="M1147.89 239.875L1140.96 229.418H1139.56V241.611H1140.77V231.174L1147.75 241.728H1149.1V229.418H1147.89V239.875ZM1160.2 237.124C1160.2 238.529 1159.8 239.66 1158.96 240.538C1158.12 241.416 1157.08 241.865 1155.82 241.865C1154.55 241.865 1153.51 241.436 1152.71 240.577C1151.91 239.719 1151.5 238.587 1151.5 237.163C1151.5 235.758 1151.93 234.607 1152.77 233.73C1153.61 232.852 1154.64 232.422 1155.91 232.422C1157.18 232.422 1158.21 232.852 1159.01 233.71C1159.81 234.568 1160.2 235.7 1160.2 237.124ZM1159.01 237.163C1159.01 234.959 1157.77 233.515 1155.85 233.515C1153.98 233.515 1152.71 234.978 1152.71 237.124C1152.71 239.329 1153.96 240.772 1155.87 240.772C1157.75 240.772 1159.01 239.309 1159.01 237.163Z" fill="#111115"/>
<path d="M913.122 33.3301H911.737L908.284 39.3975L904.772 33.3301H903.367L907.62 40.6266V45.5234H908.869V40.6266L913.122 33.3301ZM914.136 41.0948V41.1923C914.195 43.2408 915.404 44.6455 917.258 44.6455C918.233 44.6455 919.092 44.3918 919.852 43.9041L920.087 45.0161C919.267 45.5234 918.311 45.777 917.219 45.777C914.663 45.777 912.907 43.8846 912.907 41.1338C912.907 39.7291 913.317 38.5781 914.117 37.6807C914.917 36.7832 915.912 36.3345 917.121 36.3345C919.111 36.3345 920.379 37.6221 920.379 39.6316C920.379 40.1583 920.321 40.6266 920.184 41.0558L914.136 41.0948ZM914.214 40.1388L919.17 40.1193C919.189 40.0608 919.189 39.9242 919.189 39.7291C919.189 38.3245 918.428 37.427 917.043 37.427C915.502 37.427 914.429 38.5781 914.214 40.1388ZM928.021 43.0847C928.021 44.704 926.656 45.777 924.822 45.777C923.71 45.777 922.734 45.5039 921.896 44.9771L922.227 43.8651C923.047 44.4114 923.924 44.6845 924.861 44.6845C925.992 44.6845 926.87 44.1187 926.87 43.1823C926.87 42.9677 926.831 42.7921 926.734 42.6165C926.636 42.4409 926.519 42.3044 926.422 42.2068C926.324 42.1093 926.129 42.0117 925.875 41.8947C925.622 41.7776 925.427 41.6996 925.31 41.6606C925.193 41.6215 924.958 41.5435 924.627 41.446C923.066 40.9777 922.032 40.3144 922.032 38.9097C922.032 37.31 923.3 36.3345 925.056 36.3345C926.012 36.3345 926.909 36.5491 927.768 36.9978L927.417 38.0904C926.617 37.6416 925.797 37.427 924.978 37.427C923.885 37.427 923.183 37.9343 923.183 38.7927C923.183 38.9878 923.222 39.1634 923.32 39.3194C923.417 39.495 923.515 39.6121 923.612 39.7096C923.71 39.8072 923.885 39.9242 924.139 40.0218C924.373 40.1193 924.568 40.1974 924.705 40.2559C924.841 40.3144 925.076 40.3729 925.388 40.4705C927.007 40.9387 928.021 41.602 928.021 43.0847Z" fill="#111115"/>
<path d="M1140.45 262.301C1141.1 262.242 1141.57 262.203 1141.84 262.203C1144.39 262.203 1146.03 263.667 1146.03 265.949C1146.03 267.178 1145.62 268.193 1144.8 268.973C1143.97 269.754 1142.95 270.144 1141.74 270.144C1140.43 270.144 1139.3 269.871 1138.35 269.305L1138.64 267.725C1139.71 268.329 1140.77 268.622 1141.76 268.622C1143.3 268.622 1144.39 267.588 1144.39 266.027C1144.39 264.662 1143.34 263.589 1141.64 263.589C1140.79 263.589 1139.99 263.706 1139.24 263.92L1138.82 263.53L1139.62 257.268H1145.7L1145.76 258.848H1140.92L1140.45 262.301ZM1151.63 263.179C1153.48 263.472 1154.5 264.779 1154.5 266.261C1154.5 267.451 1154.07 268.407 1153.23 269.09C1152.37 269.793 1151.3 270.144 1150.01 270.144C1148.62 270.144 1147.51 269.89 1146.71 269.402L1147 267.9C1147.76 268.427 1148.78 268.681 1150.03 268.681C1151.72 268.681 1152.82 267.861 1152.82 266.378C1152.82 265.071 1151.78 264.388 1150.16 264.33C1149.68 264.31 1149.07 264.369 1148.37 264.486V263.101C1151 262.496 1152.31 261.56 1152.31 260.311C1152.31 259.14 1151.51 258.497 1150.11 258.497C1149.25 258.497 1148.31 258.867 1147.3 259.628L1146.73 258.263C1147.8 257.424 1148.99 256.994 1150.28 256.994C1152.64 256.994 1154.07 258.243 1154.07 260.077C1154.07 261.462 1153.01 262.633 1151.63 263.179ZM1157.56 264.291C1157.91 264.291 1158.2 264.408 1158.43 264.642C1158.67 264.896 1158.79 265.188 1158.79 265.52C1158.79 265.852 1158.67 266.144 1158.43 266.398C1158.2 266.652 1157.91 266.788 1157.56 266.788C1157.19 266.788 1156.89 266.652 1156.66 266.398C1156.41 266.144 1156.29 265.852 1156.29 265.52C1156.29 265.188 1156.41 264.896 1156.66 264.642C1156.89 264.408 1157.19 264.291 1157.56 264.291ZM1165.14 259.901C1166.23 259.453 1166.78 258.711 1166.78 257.697C1166.78 256.448 1165.84 255.648 1164.56 255.648C1163.09 255.648 1162.24 256.429 1162.24 257.502C1162.24 257.736 1162.29 257.95 1162.41 258.165C1162.53 258.38 1162.66 258.536 1162.8 258.672C1162.94 258.809 1163.17 258.965 1163.5 259.14C1163.82 259.316 1164.07 259.433 1164.24 259.511C1164.42 259.609 1164.73 259.726 1165.14 259.901ZM1163.97 260.994C1162.76 261.384 1162.04 262.223 1162.04 263.315C1162.04 264.545 1163.09 265.364 1164.58 265.364C1166.12 265.364 1166.96 264.701 1166.96 263.53C1166.96 263.315 1166.92 263.12 1166.86 262.945C1166.8 262.769 1166.68 262.594 1166.51 262.418C1166.33 262.242 1166.18 262.106 1166.06 262.008C1165.94 261.911 1165.73 261.794 1165.4 261.638C1165.06 261.482 1164.85 261.384 1164.75 261.326C1164.63 261.267 1164.38 261.169 1163.97 260.994ZM1166.35 260.448C1167.85 261.208 1168.6 262.164 1168.6 263.335C1168.6 265.286 1167.09 266.788 1164.5 266.788C1161.86 266.788 1160.42 265.403 1160.42 263.491C1160.42 262.028 1161.59 260.779 1162.76 260.467C1161.4 259.765 1160.62 258.984 1160.62 257.677C1160.62 255.629 1162.16 254.224 1164.63 254.224C1167.09 254.224 1168.4 255.668 1168.4 257.521C1168.4 258.887 1167.44 259.999 1166.35 260.448ZM1176.2 257.092C1176.2 258.887 1174.93 260.311 1172.96 260.311C1171.03 260.311 1169.72 258.887 1169.72 257.092C1169.72 256.175 1170.02 255.414 1170.62 254.77C1171.21 254.146 1171.99 253.834 1172.96 253.834C1173.94 253.834 1174.72 254.146 1175.32 254.77C1175.91 255.395 1176.2 256.175 1176.2 257.092ZM1182.15 254.029L1172.44 266.788H1171.21L1180.92 254.029H1182.15ZM1183.61 263.725C1183.61 264.642 1183.32 265.403 1182.74 266.027C1182.13 266.671 1181.35 266.983 1180.38 266.983C1179.4 266.983 1178.62 266.671 1178.03 266.047C1177.43 265.422 1177.14 264.642 1177.14 263.725C1177.14 261.93 1178.42 260.506 1180.38 260.506C1182.31 260.506 1183.61 261.93 1183.61 263.725ZM1175.15 257.092C1175.15 256.448 1174.95 255.921 1174.56 255.492C1174.15 255.063 1173.63 254.848 1172.96 254.848C1172.3 254.848 1171.77 255.063 1171.38 255.492C1170.97 255.921 1170.78 256.448 1170.78 257.092C1170.78 257.697 1170.97 258.224 1171.38 258.653C1171.77 259.082 1172.3 259.297 1172.96 259.297C1173.63 259.297 1174.15 259.082 1174.56 258.653C1174.95 258.224 1175.15 257.697 1175.15 257.092ZM1182.56 263.725C1182.56 263.12 1182.37 262.594 1181.98 262.164C1181.57 261.735 1181.04 261.521 1180.38 261.521C1179.71 261.521 1179.19 261.735 1178.8 262.164C1178.39 262.594 1178.19 263.12 1178.19 263.725C1178.19 264.369 1178.39 264.896 1178.8 265.325C1179.19 265.754 1179.71 265.969 1180.38 265.969C1181.04 265.969 1181.57 265.754 1181.98 265.325C1182.37 264.896 1182.56 264.369 1182.56 263.725Z" fill="#111115"/>
<path d="M913.122 70.7106L913.064 69.1888H911.21V61.3851H909.786L903.484 69.7741L903.641 70.7106H909.649V74.4953H911.21V70.7106H913.122ZM909.649 69.1888H905.728L909.649 63.8823V69.1888ZM914.184 66.1259C914.184 64.3505 914.769 62.7508 915.92 61.3266C917.071 59.9219 918.71 58.966 920.876 58.4587L921.363 59.9805C918.34 60.7413 916.525 62.263 915.92 64.5456L915.959 64.5651C916.837 63.7653 917.871 63.3556 919.061 63.3556C921.071 63.3556 922.632 64.8968 922.632 67.1404C922.632 69.501 920.993 71.1983 918.476 71.1983C917.13 71.1983 916.096 70.7106 915.335 69.7351C914.574 68.7791 914.184 67.5696 914.184 66.1259ZM915.881 66.6331C915.881 68.3499 916.935 69.7156 918.554 69.7156C920.037 69.7156 921.012 68.7011 921.012 67.2184C921.012 65.7552 920.037 64.7797 918.632 64.7797C917.579 64.7797 916.584 65.2675 915.979 65.8137C915.92 66.0478 915.881 66.321 915.881 66.6331ZM925.399 68.7011C925.75 68.7011 926.043 68.8182 926.277 69.0523C926.511 69.3059 926.628 69.5985 926.628 69.9302C926.628 70.2618 926.511 70.5545 926.277 70.8081C926.043 71.0617 925.75 71.1983 925.399 71.1983C925.028 71.1983 924.736 71.0617 924.502 70.8081C924.248 70.5545 924.131 70.2618 924.131 69.9302C924.131 69.5985 924.248 69.3059 924.502 69.0523C924.736 68.8182 925.028 68.7011 925.399 68.7011ZM935.734 70.9056H928.398V69.5205C928.671 69.3059 929.042 69.0328 929.53 68.6816C930.017 68.3499 930.388 68.0768 930.642 67.8817C930.895 67.6866 931.208 67.4525 931.578 67.1599C931.949 66.8672 932.222 66.6331 932.437 66.438C932.632 66.2429 932.827 66.0283 933.041 65.7747C933.256 65.5406 933.393 65.3065 933.49 65.0919C933.568 64.8773 933.607 64.6627 933.607 64.4481C933.607 63.5311 932.905 62.9069 931.754 62.9069C930.915 62.9069 929.978 63.2775 928.983 64.0189L928.418 62.6532C929.471 61.8143 930.642 61.4046 931.929 61.4046C933.939 61.4046 935.304 62.5362 935.304 64.253C935.304 64.4676 935.285 64.6627 935.246 64.8578C935.187 65.0724 935.148 65.248 935.09 65.4235C935.031 65.5991 934.953 65.7747 934.817 65.9503C934.68 66.1454 934.563 66.3015 934.466 66.438C934.368 66.5746 934.231 66.7307 934.017 66.9258C933.802 67.1404 933.627 67.2964 933.51 67.394C933.393 67.4915 933.197 67.6476 932.924 67.8622C932.632 68.0768 932.437 68.2329 932.3 68.3304C932.163 68.428 931.91 68.6036 931.578 68.8572C931.227 69.1108 930.973 69.2864 930.837 69.3839H935.734V70.9056ZM943.167 61.5022C943.167 63.297 941.899 64.7212 939.929 64.7212C937.997 64.7212 936.69 63.297 936.69 61.5022C936.69 60.5853 936.983 59.8244 937.588 59.1806C938.173 58.5563 938.953 58.2441 939.929 58.2441C940.904 58.2441 941.685 58.5563 942.289 59.1806C942.875 59.8049 943.167 60.5853 943.167 61.5022ZM949.118 58.4392L939.402 71.1983H938.173L947.889 58.4392H949.118ZM950.581 68.1353C950.581 69.0523 950.288 69.8131 949.703 70.4374C949.098 71.0812 948.318 71.3934 947.342 71.3934C946.367 71.3934 945.586 71.0812 945.001 70.4569C944.396 69.8326 944.104 69.0523 944.104 68.1353C944.104 66.3405 945.391 64.9163 947.342 64.9163C949.274 64.9163 950.581 66.3405 950.581 68.1353ZM942.114 61.5022C942.114 60.8584 941.919 60.3316 941.529 59.9024C941.119 59.4732 940.592 59.2586 939.929 59.2586C939.266 59.2586 938.739 59.4732 938.349 59.9024C937.939 60.3316 937.744 60.8584 937.744 61.5022C937.744 62.107 937.939 62.6337 938.349 63.0629C938.739 63.4921 939.266 63.7067 939.929 63.7067C940.592 63.7067 941.119 63.4921 941.529 63.0629C941.919 62.6337 942.114 62.107 942.114 61.5022ZM949.527 68.1353C949.527 67.5305 949.332 67.0038 948.942 66.5746C948.532 66.1454 948.006 65.9308 947.342 65.9308C946.679 65.9308 946.152 66.1454 945.762 66.5746C945.352 67.0038 945.157 67.5305 945.157 68.1353C945.157 68.7791 945.352 69.3059 945.762 69.7351C946.152 70.1643 946.679 70.3789 947.342 70.3789C948.006 70.3789 948.532 70.1643 948.942 69.7351C949.332 69.3059 949.527 68.7791 949.527 68.1353Z" fill="#111115"/>
<path d="M1044.09 40.8496C1018.71 40.8496 994.216 50.15 975.234 66.9914C956.251 83.8327 944.1 107.047 941.078 132.243C938.055 157.438 944.372 182.868 958.833 203.721C973.293 224.574 994.895 239.403 1019.55 245.405L1044.09 144.599V40.8496Z" fill="#EC8539" fill-opacity="0.2"/>
<path d="M1044.09 40.8867C1058.75 40.8867 1073.26 43.9967 1086.63 50.0116C1100.01 56.0265 1111.96 64.8095 1121.69 75.7812C1131.43 86.7529 1138.73 99.6639 1143.1 113.662C1147.48 127.661 1148.84 142.429 1147.1 156.992C1145.35 171.555 1140.54 185.582 1132.97 198.148C1125.41 210.714 1115.26 221.533 1103.21 229.891C1091.16 238.25 1077.47 243.957 1063.05 246.638C1048.63 249.318 1033.8 248.911 1019.55 245.442L1044.09 144.636V40.8867Z" fill="#EC8539"/>
</g>
<defs>
<clipPath id="clip0_16147_12683">
<rect width="299.955" height="303.206" fill="white" transform="translate(447.087)"/>
</clipPath>
<clipPath id="clip1_16147_12683">
<rect width="282.884" height="303.206" fill="white" transform="translate(903.116)"/>
</clipPath>
</defs>
</svg>
