<svg width="395" height="303" viewBox="0 0 395 303" fill="none" xmlns="http://www.w3.org/2000/svg">
<path d="M296.75 240.706H297.94V231.25L294.429 232.537L294.487 233.648L296.75 232.79V240.706ZM308.909 236.143C308.909 237.879 308.323 239.497 307.172 240.959C306.002 242.441 304.324 243.435 302.119 243.942L301.768 242.811C304.987 242.051 307.036 240.101 307.602 237.547L307.562 237.528C306.587 238.444 305.495 238.892 304.285 238.892C303.309 238.892 302.471 238.561 301.788 237.918C301.105 237.274 300.754 236.377 300.754 235.266C300.754 232.907 302.334 231.25 304.773 231.25C306.041 231.25 307.055 231.718 307.797 232.634C308.538 233.57 308.909 234.74 308.909 236.143ZM307.641 235.89C307.641 233.882 306.509 232.361 304.714 232.361C303.036 232.361 301.983 233.512 301.983 235.208C301.983 236.806 303.056 237.82 304.519 237.82C305.67 237.82 306.685 237.391 307.582 236.533C307.621 236.338 307.641 236.124 307.641 235.89ZM314.838 236.533V235.403H310.429V236.533H314.838ZM323.268 240.706H316.284V239.594C318.332 238.054 319.601 237.06 320.069 236.631C321.064 235.734 321.551 234.935 321.551 234.213C321.551 233.141 320.752 232.381 319.503 232.381C318.625 232.381 317.708 232.751 316.733 233.512L316.303 232.478C317.337 231.659 318.449 231.25 319.62 231.25C321.532 231.25 322.82 232.381 322.82 234.057C322.82 234.291 322.8 234.506 322.761 234.72C322.702 234.935 322.624 235.169 322.507 235.383C322.39 235.598 322.273 235.793 322.176 235.968C322.059 236.143 321.883 236.358 321.649 236.572L321.103 237.138C320.966 237.274 320.732 237.469 320.42 237.723C320.088 237.976 319.854 238.171 319.679 238.288C319.503 238.425 319.23 238.619 318.859 238.912C318.469 239.204 318.176 239.419 318.001 239.555H323.268V240.706ZM326.008 236.65C326.495 236.514 327.042 236.455 327.646 236.455C330.105 236.455 331.704 237.957 331.704 240.16C331.704 241.368 331.295 242.363 330.495 243.143C329.675 243.922 328.661 244.312 327.451 244.312C326.3 244.312 325.247 244.039 324.33 243.513L324.564 242.324C325.578 242.889 326.554 243.162 327.49 243.162C329.246 243.162 330.475 241.992 330.475 240.218C330.475 238.678 329.324 237.508 327.529 237.508C326.73 237.508 325.949 237.625 325.208 237.879L324.798 237.489L325.578 231.484H331.373L331.431 232.654H326.573L326.008 236.65Z" fill="#111115"/>
<path d="M66.55 45.7451H59.5657V44.6338C61.6142 43.0936 62.8823 42.0993 63.3505 41.6704C64.3455 40.7736 64.8332 39.9743 64.8332 39.2529C64.8332 38.1806 64.0334 37.4203 62.7848 37.4203C61.9068 37.4203 60.9899 37.7907 60.0144 38.5511L59.5852 37.5178C60.6192 36.6989 61.7313 36.2895 62.9018 36.2895C64.8137 36.2895 66.1013 37.4203 66.1013 39.0969C66.1013 39.3309 66.0818 39.5454 66.0428 39.7598C65.9843 39.9743 65.9062 40.2082 65.7892 40.4227C65.6721 40.6371 65.5551 40.8321 65.4575 41.0076C65.3405 41.183 65.1649 41.3975 64.9308 41.6119L64.3845 42.1773C64.248 42.3138 64.0138 42.5087 63.7017 42.7622C63.37 43.0156 63.1359 43.2106 62.9603 43.3276C62.7848 43.464 62.5116 43.659 62.141 43.9514C61.7508 44.2439 61.4581 44.4583 61.2825 44.5948H66.55V45.7451ZM68.1949 41.105C68.1949 39.3699 68.7802 37.7517 69.9508 36.27C71.1213 34.8078 72.7991 33.8135 74.9841 33.3066L75.3353 34.4374C72.1163 35.1978 70.0678 37.1473 69.502 39.7013L69.5411 39.7208C70.5165 38.8045 71.609 38.3561 72.8186 38.3561C73.7941 38.3561 74.633 38.6875 75.3158 39.3309C75.9986 39.9743 76.3498 40.8711 76.3498 41.9824C76.3498 44.3414 74.75 45.9985 72.3504 45.9985C71.0628 45.9985 70.0483 45.5306 69.3069 44.5948C68.5656 43.6785 68.1949 42.5087 68.1949 41.105ZM69.463 41.3585C69.463 42.3333 69.7362 43.1716 70.2629 43.854C70.7897 44.5363 71.492 44.8873 72.3894 44.8873C74.0672 44.8873 75.1207 43.737 75.1207 42.0408C75.1207 40.4422 74.0477 39.4284 72.5845 39.4284C71.4335 39.4284 70.419 39.8573 69.5216 40.7151C69.4825 40.9101 69.463 41.1245 69.463 41.3585ZM82.2207 41.5729V40.4422H77.8116V41.5729H82.2207ZM84.8933 41.6899C85.381 41.5534 85.9273 41.495 86.5321 41.495C88.9902 41.495 90.59 42.9961 90.59 45.1992C90.59 46.4079 90.1803 47.4022 89.3804 48.1821C88.561 48.9619 87.5466 49.3518 86.337 49.3518C85.1859 49.3518 84.1324 49.0789 83.2155 48.5525L83.4496 47.3632C84.4641 47.9286 85.4396 48.2016 86.376 48.2016C88.1318 48.2016 89.3609 47.0318 89.3609 45.2577C89.3609 43.7175 88.2099 42.5477 86.415 42.5477C85.6151 42.5477 84.8348 42.6647 84.0934 42.9182L83.6837 42.5282L84.4641 36.5235H90.2583L90.3169 37.6932H85.4591L84.8933 41.6899ZM96.6368 36.2895C97.983 36.2895 99.1145 36.7379 100.012 37.6542C100.909 38.5706 101.358 39.7208 101.358 41.144C101.358 42.5672 100.909 43.7175 100.012 44.6338C99.1145 45.5501 97.983 45.9985 96.6368 45.9985C95.2907 45.9985 94.1786 45.5501 93.3007 44.6338C92.4033 43.7175 91.9546 42.5672 91.9546 41.144C91.9546 39.7208 92.4033 38.5706 93.3007 37.6542C94.1786 36.7379 95.2907 36.2895 96.6368 36.2895ZM96.6368 44.8483C97.6708 44.8483 98.5097 44.4973 99.173 43.7955C99.8168 43.0936 100.148 42.2163 100.148 41.144C100.148 40.0717 99.8168 39.1944 99.173 38.4926C98.5097 37.7907 97.6708 37.4398 96.6368 37.4398C95.6223 37.4398 94.7834 37.7907 94.1396 38.4926C93.4958 39.1944 93.1642 40.0717 93.1642 41.144C93.1642 42.2163 93.4958 43.0936 94.1396 43.7955C94.7834 44.4973 95.6223 44.8483 96.6368 44.8483Z" fill="#111115"/>
<path d="M294.35 261.607C294.35 259.833 294.935 258.234 296.086 256.811C297.237 255.407 298.876 254.452 301.041 253.945L301.529 255.466C298.505 256.226 296.691 257.747 296.086 260.028L296.125 260.047C297.003 259.248 298.037 258.838 299.227 258.838C301.237 258.838 302.797 260.379 302.797 262.621C302.797 264.98 301.159 266.676 298.642 266.676C297.296 266.676 296.262 266.188 295.501 265.214C294.74 264.258 294.35 263.05 294.35 261.607ZM296.047 262.114C296.047 263.829 297.101 265.194 298.72 265.194C300.203 265.194 301.178 264.18 301.178 262.699C301.178 261.236 300.203 260.262 298.798 260.262C297.744 260.262 296.749 260.749 296.145 261.295C296.086 261.529 296.047 261.802 296.047 262.114ZM306.711 266.383H308.292V256.869L304.39 258.156L304.448 259.618L306.711 258.897V266.383ZM312.062 264.18C312.413 264.18 312.706 264.297 312.94 264.531C313.174 264.785 313.291 265.077 313.291 265.409C313.291 265.74 313.174 266.032 312.94 266.286C312.706 266.539 312.413 266.676 312.062 266.676C311.691 266.676 311.398 266.539 311.164 266.286C310.911 266.032 310.794 265.74 310.794 265.409C310.794 265.077 310.911 264.785 311.164 264.531C311.398 264.297 311.691 264.18 312.062 264.18ZM316.431 262.192C317.075 262.133 317.543 262.094 317.816 262.094C320.372 262.094 322.011 263.556 322.011 265.837C322.011 267.066 321.601 268.08 320.782 268.859C319.943 269.639 318.928 270.029 317.719 270.029C316.412 270.029 315.28 269.756 314.324 269.191L314.617 267.612C315.69 268.216 316.743 268.508 317.738 268.508C319.279 268.508 320.372 267.475 320.372 265.915C320.372 264.551 319.318 263.478 317.621 263.478C316.763 263.478 315.963 263.595 315.221 263.81L314.792 263.42L315.592 257.162H321.679L321.738 258.741H316.899L316.431 262.192ZM329.087 256.986C329.087 258.78 327.819 260.203 325.848 260.203C323.917 260.203 322.61 258.78 322.61 256.986C322.61 256.07 322.902 255.31 323.507 254.666C324.092 254.042 324.873 253.73 325.848 253.73C326.824 253.73 327.604 254.042 328.209 254.666C328.794 255.29 329.087 256.07 329.087 256.986ZM335.037 253.925L325.322 266.676H324.092L333.808 253.925H335.037ZM336.5 263.615C336.5 264.531 336.208 265.292 335.622 265.915C335.018 266.559 334.237 266.871 333.262 266.871C332.286 266.871 331.506 266.559 330.921 265.935C330.316 265.311 330.023 264.531 330.023 263.615C330.023 261.821 331.311 260.398 333.262 260.398C335.193 260.398 336.5 261.821 336.5 263.615ZM328.033 256.986C328.033 256.343 327.838 255.817 327.448 255.388C327.038 254.959 326.512 254.744 325.848 254.744C325.185 254.744 324.658 254.959 324.268 255.388C323.858 255.817 323.663 256.343 323.663 256.986C323.663 257.591 323.858 258.117 324.268 258.546C324.658 258.975 325.185 259.189 325.848 259.189C326.512 259.189 327.038 258.975 327.448 258.546C327.838 258.117 328.033 257.591 328.033 256.986ZM335.447 263.615C335.447 263.011 335.252 262.484 334.862 262.055C334.452 261.626 333.925 261.412 333.262 261.412C332.599 261.412 332.072 261.626 331.682 262.055C331.272 262.484 331.077 263.011 331.077 263.615C331.077 264.258 331.272 264.785 331.682 265.214C332.072 265.643 332.599 265.857 333.262 265.857C333.925 265.857 334.452 265.643 334.862 265.214C335.252 264.785 335.447 264.258 335.447 263.615Z" fill="#111115"/>
<path d="M63.9163 67.614C65.7697 67.9064 66.7842 69.2126 66.7842 70.6943C66.7842 71.8836 66.355 72.8389 65.5161 73.5212C64.6577 74.2231 63.5847 74.574 62.2971 74.574C60.9119 74.574 59.7999 74.3206 59 73.8332L59.2926 72.332C60.0535 72.8584 61.068 73.1118 62.3166 73.1118C64.0139 73.1118 65.1064 72.293 65.1064 70.8113C65.1064 69.5051 64.0724 68.8227 62.4531 68.7642C61.9654 68.7447 61.3606 68.8032 60.6583 68.9202V67.536C63.292 66.9316 64.5992 65.9958 64.5992 64.7481C64.5992 63.5783 63.7993 62.9349 62.3946 62.9349C61.5362 62.9349 60.5998 63.3054 59.5853 64.0657L59.0195 62.701C60.0925 61.8627 61.2826 61.4337 62.5702 61.4337C64.9308 61.4337 66.355 62.6815 66.355 64.5141C66.355 65.8983 65.3015 67.0681 63.9163 67.614ZM72.7448 64.3386C73.8373 63.8902 74.3835 63.1494 74.3835 62.1356C74.3835 60.8879 73.4471 60.0885 72.1595 60.0885C70.6963 60.0885 69.8379 60.8684 69.8379 61.9406C69.8379 62.1746 69.8964 62.389 70.0135 62.6035C70.1305 62.818 70.2671 62.9739 70.4036 63.1104C70.5402 63.2469 70.7743 63.4028 71.106 63.5783C71.4181 63.7538 71.6717 63.8707 71.8473 63.9487C72.0229 64.0462 72.3351 64.1632 72.7448 64.3386ZM71.5742 65.4304C70.3646 65.8203 69.6428 66.6587 69.6428 67.7504C69.6428 68.9787 70.6963 69.7975 72.179 69.7975C73.7202 69.7975 74.5591 69.1347 74.5591 67.9649C74.5591 67.7504 74.5201 67.5555 74.4616 67.38C74.403 67.2045 74.286 67.0291 74.1104 66.8536C73.9348 66.6782 73.7787 66.5417 73.6617 66.4442C73.5446 66.3467 73.33 66.2297 72.9984 66.0738C72.6667 65.9178 72.4521 65.8203 72.3546 65.7618C72.2375 65.7034 71.9839 65.6059 71.5742 65.4304ZM73.9543 64.8845C75.4565 65.6449 76.1979 66.6002 76.1979 67.7699C76.1979 69.7195 74.6957 71.2207 72.101 71.2207C69.4672 71.2207 68.0235 69.8365 68.0235 67.9259C68.0235 66.4637 69.1941 65.216 70.3646 64.904C68.999 64.2022 68.2186 63.4223 68.2186 62.1161C68.2186 60.069 69.7598 58.6653 72.2375 58.6653C74.6957 58.6653 76.0028 60.108 76.0028 61.9601C76.0028 63.3248 75.0468 64.4361 73.9543 64.8845ZM79.1428 68.7252C79.494 68.7252 79.7866 68.8422 80.0207 69.0762C80.2548 69.3296 80.3719 69.622 80.3719 69.9535C80.3719 70.2849 80.2548 70.5774 80.0207 70.8308C79.7866 71.0842 79.494 71.2207 79.1428 71.2207C78.7721 71.2207 78.4795 71.0842 78.2454 70.8308C77.9918 70.5774 77.8747 70.2849 77.8747 69.9535C77.8747 69.622 77.9918 69.3296 78.2454 69.0762C78.4795 68.8422 78.7721 68.7252 79.1428 68.7252ZM83.5122 66.7366C84.156 66.6782 84.6242 66.6392 84.8973 66.6392C87.453 66.6392 89.0918 68.1014 89.0918 70.3824C89.0918 71.6106 88.6821 72.6244 87.8627 73.4043C87.0238 74.1841 86.0093 74.574 84.7998 74.574C83.4926 74.574 82.3611 74.3011 81.4052 73.7357L81.6978 72.1565C82.7708 72.7609 83.8243 73.0533 84.8193 73.0533C86.3605 73.0533 87.453 72.0201 87.453 70.4604C87.453 69.0957 86.3995 68.0234 84.7022 68.0234C83.8438 68.0234 83.0439 68.1404 82.3026 68.3548L81.8734 67.9649L82.6733 61.7067H88.7601L88.8187 63.2859H83.9804L83.5122 66.7366ZM96.1681 61.5312C96.1681 63.3248 94.9 64.7481 92.9295 64.7481C90.9981 64.7481 89.691 63.3248 89.691 61.5312C89.691 60.6149 89.9836 59.8546 90.5884 59.2112C91.1737 58.5873 91.9541 58.2754 92.9295 58.2754C93.905 58.2754 94.6853 58.5873 95.2901 59.2112C95.8754 59.8351 96.1681 60.6149 96.1681 61.5312ZM102.118 58.4704L92.4028 71.2207H91.1737L100.889 58.4704H102.118ZM103.582 68.1599C103.582 69.0762 103.289 69.8365 102.704 70.4604C102.099 71.1037 101.318 71.4157 100.343 71.4157C99.3676 71.4157 98.5872 71.1037 98.0019 70.4799C97.3971 69.856 97.1045 69.0762 97.1045 68.1599C97.1045 66.3662 98.3921 64.943 100.343 64.943C102.274 64.943 103.582 66.3662 103.582 68.1599ZM95.1146 61.5312C95.1146 60.8879 94.9195 60.3615 94.5293 59.9325C94.1196 59.5036 93.5928 59.2892 92.9295 59.2892C92.2662 59.2892 91.7395 59.5036 91.3493 59.9325C90.9396 60.3615 90.7445 60.8879 90.7445 61.5312C90.7445 62.1356 90.9396 62.662 91.3493 63.0909C91.7395 63.5198 92.2662 63.7343 92.9295 63.7343C93.5928 63.7343 94.1196 63.5198 94.5293 63.0909C94.9195 62.662 95.1146 62.1356 95.1146 61.5312ZM102.528 68.1599C102.528 67.5555 102.333 67.0291 101.943 66.6002C101.533 66.1713 101.006 65.9568 100.343 65.9568C99.6797 65.9568 99.153 66.1713 98.7628 66.6002C98.3531 67.0291 98.158 67.5555 98.158 68.1599C98.158 68.8032 98.3531 69.3296 98.7628 69.7585C99.153 70.1874 99.6797 70.4019 100.343 70.4019C101.006 70.4019 101.533 70.1874 101.943 69.7585C102.333 69.3296 102.528 68.8032 102.528 68.1599Z" fill="#111115"/>
<path d="M199.791 40.8711C178.715 40.8711 158.14 47.2851 140.803 59.2595C123.466 71.2339 110.189 88.2008 102.739 107.902C95.2896 127.603 94.0208 149.105 99.1015 169.544C104.182 189.984 115.371 208.393 131.18 222.32L199.791 144.55V40.8711Z" fill="#EC8539" fill-opacity="0.2"/>
<path d="M199.791 40.9082C216.577 40.9082 233.112 44.9784 247.978 52.7694C262.843 60.5605 275.595 71.8397 285.139 85.6391C294.683 99.4385 300.733 115.346 302.772 131.997C304.811 148.647 302.775 165.543 296.842 181.234C290.909 196.926 281.254 210.945 268.707 222.087C256.159 233.23 241.093 241.163 224.802 245.207C208.512 249.252 191.482 249.285 175.175 245.305C158.869 241.325 143.772 233.45 131.18 222.357L199.791 144.587V40.9082Z" fill="#EC8539"/>
</svg>
