<svg width="395" height="303" viewBox="0 0 395 303" fill="none" xmlns="http://www.w3.org/2000/svg">
<path d="M301.52 239.712L294.594 229.262H293.189V241.447H294.399V231.016L301.383 241.564H302.729V229.262H301.52V239.712ZM313.837 236.963C313.837 238.366 313.428 239.497 312.589 240.374C311.75 241.252 310.716 241.7 309.448 241.7C308.18 241.7 307.146 241.271 306.346 240.413C305.546 239.556 305.136 238.425 305.136 237.002C305.136 235.598 305.565 234.448 306.404 233.57C307.243 232.693 308.277 232.264 309.545 232.264C310.813 232.264 311.847 232.693 312.647 233.551C313.447 234.409 313.837 235.539 313.837 236.963ZM312.647 237.002C312.647 234.799 311.399 233.356 309.487 233.356C307.614 233.356 306.346 234.818 306.346 236.963C306.346 239.166 307.594 240.608 309.506 240.608C311.379 240.608 312.647 239.146 312.647 237.002Z" fill="#111115"/>
<path d="M66.7546 33.3066H65.3695L61.9163 39.3699L58.4047 33.3066H57L61.253 40.5982V45.4917H62.5016V40.5982L66.7546 33.3066ZM67.7688 41.0661V41.1635C67.8273 43.2106 69.0369 44.6143 70.8903 44.6143C71.8657 44.6143 72.7241 44.3609 73.485 43.8735L73.7191 44.9848C72.8997 45.4917 71.9438 45.7451 70.8513 45.7451C68.2955 45.7451 66.5397 43.854 66.5397 41.1051C66.5397 39.7013 66.9494 38.5511 67.7493 37.6543C68.5492 36.7575 69.5441 36.309 70.7537 36.309C72.7437 36.309 74.0118 37.5958 74.0118 39.6039C74.0118 40.1303 73.9532 40.5982 73.8167 41.0271L67.7688 41.0661ZM67.8468 40.1108L72.8022 40.0913C72.8217 40.0328 72.8217 39.8963 72.8217 39.7013C72.8217 38.2976 72.0608 37.4008 70.6757 37.4008C69.1344 37.4008 68.0614 38.5511 67.8468 40.1108ZM81.654 43.0547C81.654 44.6728 80.2884 45.7451 78.4545 45.7451C77.3425 45.7451 76.367 45.4722 75.5281 44.9458L75.8598 43.8345C76.6792 44.3804 77.5571 44.6533 78.4935 44.6533C79.6251 44.6533 80.503 44.0879 80.503 43.1521C80.503 42.9377 80.464 42.7622 80.3664 42.5868C80.2689 42.4113 80.1518 42.2748 80.0543 42.1773C79.9567 42.0799 79.7616 41.9824 79.508 41.8654C79.2544 41.7484 79.0593 41.6704 78.9422 41.6314C78.8252 41.5925 78.5911 41.5145 78.2594 41.417C76.6987 40.9491 75.6647 40.2862 75.6647 38.8825C75.6647 37.2838 76.9328 36.309 78.6886 36.309C79.6446 36.309 80.542 36.5235 81.4004 36.9719L81.0492 38.0637C80.2494 37.6153 79.43 37.4008 78.6106 37.4008C77.5181 37.4008 76.8157 37.9077 76.8157 38.7655C76.8157 38.9605 76.8547 39.136 76.9523 39.2919C77.0498 39.4674 77.1474 39.5844 77.2449 39.6819C77.3425 39.7793 77.5181 39.8963 77.7717 39.9938C78.0058 40.0913 78.2009 40.1692 78.3374 40.2277C78.474 40.2862 78.7081 40.3447 79.0203 40.4422C80.6395 40.9101 81.654 41.573 81.654 43.0547Z" fill="#111115"/>
<path d="M294.087 262.121C294.73 262.063 295.199 262.024 295.472 262.024C298.027 262.024 299.666 263.486 299.666 265.767C299.666 266.995 299.257 268.009 298.437 268.789C297.598 269.569 296.584 269.959 295.374 269.959C294.067 269.959 292.936 269.686 291.98 269.12L292.272 267.541C293.345 268.146 294.399 268.438 295.394 268.438C296.935 268.438 298.027 267.405 298.027 265.845C298.027 264.48 296.974 263.408 295.277 263.408C294.418 263.408 293.618 263.525 292.877 263.74L292.448 263.35L293.248 257.091H299.335L299.393 258.671H294.555L294.087 262.121ZM305.26 262.999C307.113 263.291 308.128 264.597 308.128 266.079C308.128 267.268 307.698 268.224 306.86 268.906C306.001 269.608 304.928 269.959 303.64 269.959C302.255 269.959 301.143 269.705 300.343 269.218L300.636 267.717C301.397 268.243 302.411 268.497 303.66 268.497C305.357 268.497 306.45 267.678 306.45 266.196C306.45 264.89 305.416 264.207 303.797 264.149C303.309 264.129 302.704 264.188 302.002 264.305V262.921C304.635 262.316 305.943 261.381 305.943 260.133C305.943 258.963 305.143 258.32 303.738 258.32C302.88 258.32 301.943 258.69 300.929 259.45L300.363 258.086C301.436 257.247 302.626 256.819 303.914 256.819C306.274 256.819 307.698 258.066 307.698 259.899C307.698 261.283 306.645 262.453 305.26 262.999ZM311.189 264.11C311.54 264.11 311.833 264.227 312.067 264.461C312.301 264.714 312.418 265.007 312.418 265.338C312.418 265.67 312.301 265.962 312.067 266.216C311.833 266.469 311.54 266.605 311.189 266.605C310.818 266.605 310.526 266.469 310.291 266.216C310.038 265.962 309.921 265.67 309.921 265.338C309.921 265.007 310.038 264.714 310.291 264.461C310.526 264.227 310.818 264.11 311.189 264.11ZM318.775 259.723C319.867 259.275 320.414 258.534 320.414 257.52C320.414 256.273 319.477 255.473 318.189 255.473C316.726 255.473 315.868 256.253 315.868 257.325C315.868 257.559 315.926 257.774 316.043 257.988C316.161 258.203 316.297 258.359 316.434 258.495C316.57 258.632 316.804 258.788 317.136 258.963C317.448 259.139 317.702 259.255 317.877 259.333C318.053 259.431 318.365 259.548 318.775 259.723ZM317.604 260.815C316.395 261.205 315.673 262.043 315.673 263.135C315.673 264.363 316.726 265.182 318.209 265.182C319.75 265.182 320.589 264.519 320.589 263.35C320.589 263.135 320.55 262.94 320.492 262.765C320.433 262.589 320.316 262.414 320.14 262.238C319.965 262.063 319.809 261.926 319.692 261.829C319.575 261.731 319.36 261.614 319.028 261.459C318.697 261.303 318.482 261.205 318.385 261.147C318.268 261.088 318.014 260.991 317.604 260.815ZM319.984 260.269C321.487 261.03 322.228 261.985 322.228 263.155C322.228 265.104 320.726 266.605 318.131 266.605C315.497 266.605 314.054 265.221 314.054 263.311C314.054 261.848 315.224 260.601 316.395 260.289C315.029 259.587 314.249 258.807 314.249 257.501C314.249 255.454 315.79 254.05 318.268 254.05C320.726 254.05 322.033 255.493 322.033 257.345C322.033 258.71 321.077 259.821 319.984 260.269ZM329.833 256.916C329.833 258.71 328.565 260.133 326.595 260.133C324.663 260.133 323.356 258.71 323.356 256.916C323.356 256 323.649 255.239 324.254 254.596C324.839 253.972 325.619 253.66 326.595 253.66C327.57 253.66 328.351 253.972 328.955 254.596C329.541 255.22 329.833 256 329.833 256.916ZM335.784 253.855L326.068 266.605H324.839L334.554 253.855H335.784ZM337.247 263.545C337.247 264.461 336.954 265.221 336.369 265.845C335.764 266.489 334.984 266.8 334.008 266.8C333.033 266.8 332.252 266.489 331.667 265.865C331.062 265.241 330.77 264.461 330.77 263.545C330.77 261.751 332.057 260.328 334.008 260.328C335.94 260.328 337.247 261.751 337.247 263.545ZM328.78 256.916C328.78 256.273 328.585 255.746 328.194 255.317C327.785 254.888 327.258 254.674 326.595 254.674C325.931 254.674 325.405 254.888 325.014 255.317C324.605 255.746 324.41 256.273 324.41 256.916C324.41 257.52 324.605 258.047 325.014 258.476C325.405 258.905 325.931 259.119 326.595 259.119C327.258 259.119 327.785 258.905 328.194 258.476C328.585 258.047 328.78 257.52 328.78 256.916ZM336.193 263.545C336.193 262.94 335.998 262.414 335.608 261.985C335.198 261.556 334.672 261.342 334.008 261.342C333.345 261.342 332.818 261.556 332.428 261.985C332.018 262.414 331.823 262.94 331.823 263.545C331.823 264.188 332.018 264.714 332.428 265.143C332.818 265.572 333.345 265.787 334.008 265.787C334.672 265.787 335.198 265.572 335.608 265.143C335.998 264.714 336.193 264.188 336.193 263.545Z" fill="#111115"/>
<path d="M66.7546 70.6611L66.6961 69.1404H64.8427V61.342H63.4185L57.1171 69.7253L57.2731 70.6611H63.282V74.4433H64.8427V70.6611H66.7546ZM63.282 69.1404H59.3606L63.282 63.8375V69.1404ZM67.8167 66.0795C67.8167 64.3054 68.4019 62.7067 69.553 61.2835C70.704 59.8798 72.3428 58.9245 74.5083 58.4176L74.9961 59.9383C71.9721 60.6986 70.1578 62.2193 69.553 64.5003L69.592 64.5198C70.4699 63.7205 71.5039 63.3111 72.694 63.3111C74.7034 63.3111 76.2642 64.8513 76.2642 67.0933C76.2642 69.4523 74.6254 71.1485 72.1087 71.1485C70.7626 71.1485 69.7286 70.6611 68.9677 69.6863C68.2069 68.731 67.8167 67.5222 67.8167 66.0795ZM69.514 66.5864C69.514 68.302 70.5675 69.6668 72.1867 69.6668C73.6694 69.6668 74.6449 68.653 74.6449 67.1713C74.6449 65.7091 73.6694 64.7343 72.2648 64.7343C71.2113 64.7343 70.2163 65.2217 69.6115 65.7676C69.553 66.0015 69.514 66.2745 69.514 66.5864ZM79.0317 68.653C79.3829 68.653 79.6755 68.7699 79.9096 69.0039C80.1438 69.2573 80.2608 69.5498 80.2608 69.8812C80.2608 70.2126 80.1438 70.5051 79.9096 70.7585C79.6755 71.012 79.3829 71.1485 79.0317 71.1485C78.6611 71.1485 78.3684 71.012 78.1343 70.7585C77.8807 70.5051 77.7636 70.2126 77.7636 69.8812C77.7636 69.5498 77.8807 69.2573 78.1343 69.0039C78.3684 68.7699 78.6611 68.653 79.0317 68.653ZM89.3663 70.856H82.0308V69.4718C82.3039 69.2573 82.6746 68.9844 83.1623 68.6335C83.6501 68.302 84.0207 68.0291 84.2744 67.8341C84.528 67.6392 84.8401 67.4052 85.2108 67.1128C85.5815 66.8203 85.8546 66.5864 86.0692 66.3914C86.2643 66.1965 86.4594 65.982 86.674 65.7286C86.8886 65.4946 87.0252 65.2607 87.1227 65.0462C87.2007 64.8318 87.2398 64.6173 87.2398 64.4028C87.2398 63.4865 86.5374 62.8627 85.3864 62.8627C84.5475 62.8627 83.611 63.2331 82.6161 63.9739L82.0503 62.6092C83.1038 61.7709 84.2744 61.3615 85.562 61.3615C87.5714 61.3615 88.9371 62.4922 88.9371 64.2079C88.9371 64.4223 88.9176 64.6173 88.8785 64.8123C88.82 65.0267 88.781 65.2022 88.7225 65.3776C88.6639 65.5531 88.5859 65.7286 88.4493 65.904C88.3128 66.099 88.1957 66.255 88.0982 66.3914C88.0006 66.5279 87.8641 66.6839 87.6495 66.8788C87.4349 67.0933 87.2593 67.2493 87.1422 67.3467C87.0252 67.4442 86.8301 67.6002 86.5569 67.8146C86.2643 68.0291 86.0692 68.1851 85.9326 68.2825C85.7961 68.38 85.5425 68.5555 85.2108 68.8089C84.8596 69.0624 84.606 69.2378 84.4694 69.3353H89.3663V70.856ZM96.7999 61.459C96.7999 63.2526 95.5318 64.6758 93.5614 64.6758C91.63 64.6758 90.3229 63.2526 90.3229 61.459C90.3229 60.5426 90.6155 59.7823 91.2203 59.1389C91.8056 58.5151 92.5859 58.2031 93.5614 58.2031C94.5369 58.2031 95.3172 58.5151 95.922 59.1389C96.5073 59.7628 96.7999 60.5426 96.7999 61.459ZM102.75 58.3981L93.0347 71.1485H91.8056L101.521 58.3981H102.75ZM104.213 68.0876C104.213 69.0039 103.921 69.7642 103.336 70.3881C102.731 71.0315 101.95 71.3434 100.975 71.3434C99.9995 71.3434 99.2191 71.0315 98.6338 70.4076C98.029 69.7837 97.7364 69.0039 97.7364 68.0876C97.7364 66.294 99.024 64.8707 100.975 64.8707C102.906 64.8707 104.213 66.294 104.213 68.0876ZM95.7464 61.459C95.7464 60.8156 95.5513 60.2892 95.1612 59.8603C94.7515 59.4314 94.2247 59.2169 93.5614 59.2169C92.8981 59.2169 92.3713 59.4314 91.9812 59.8603C91.5715 60.2892 91.3764 60.8156 91.3764 61.459C91.3764 62.0633 91.5715 62.5897 91.9812 63.0186C92.3713 63.4475 92.8981 63.662 93.5614 63.662C94.2247 63.662 94.7515 63.4475 95.1612 63.0186C95.5513 62.5897 95.7464 62.0633 95.7464 61.459ZM103.16 68.0876C103.16 67.4832 102.965 66.9568 102.575 66.5279C102.165 66.099 101.638 65.8845 100.975 65.8845C100.312 65.8845 99.7849 66.099 99.3947 66.5279C98.985 66.9568 98.7899 67.4832 98.7899 68.0876C98.7899 68.731 98.985 69.2573 99.3947 69.6863C99.7849 70.1152 100.312 70.3296 100.975 70.3296C101.638 70.3296 102.165 70.1152 102.575 69.6863C102.965 69.2573 103.16 68.731 103.16 68.0876Z" fill="#111115"/>
<path d="M197.721 40.8223C172.345 40.8223 147.849 50.1163 128.866 66.9462C109.884 83.7761 97.7323 106.974 94.7101 132.153C91.6879 157.332 98.0046 182.744 112.465 203.582C126.926 224.421 148.528 239.241 173.185 245.238L197.721 144.501V40.8223Z" fill="#EC8539" fill-opacity="0.2"/>
<path d="M197.72 40.8574C212.388 40.8574 226.888 43.9653 240.265 49.9761C253.643 55.987 265.593 64.764 275.327 75.7282C285.061 86.6924 292.358 99.5947 296.737 113.584C301.116 127.573 302.477 142.33 300.73 156.884C298.983 171.437 294.169 185.455 286.603 198.012C279.038 210.57 268.894 221.381 256.842 229.733C244.788 238.086 231.1 243.79 216.68 246.469C202.26 249.147 187.434 248.74 173.183 245.273L197.72 144.536V40.8574Z" fill="#EC8539"/>
</svg>
