<svg width="1187" height="148" viewBox="0 0 1187 148" fill="none" xmlns="http://www.w3.org/2000/svg">
<path d="M832.864 141H834.808V129.288L830.008 130.872L830.08 132.672L832.864 131.784V141ZM838.259 135.12C838.259 132.936 838.979 130.968 840.395 129.216C841.811 127.488 843.827 126.312 846.491 125.688L847.091 127.56C843.371 128.496 841.139 130.368 840.395 133.176L840.443 133.2C841.523 132.216 842.795 131.712 844.259 131.712C846.731 131.712 848.651 133.608 848.651 136.368C848.651 139.272 846.635 141.36 843.539 141.36C841.883 141.36 840.611 140.76 839.675 139.56C838.739 138.384 838.259 136.896 838.259 135.12ZM840.347 135.744C840.347 137.856 841.643 139.536 843.635 139.536C845.459 139.536 846.659 138.288 846.659 136.464C846.659 134.664 845.459 133.464 843.731 133.464C842.435 133.464 841.211 134.064 840.467 134.736C840.395 135.024 840.347 135.36 840.347 135.744ZM852.055 138.288C852.487 138.288 852.847 138.432 853.135 138.72C853.423 139.032 853.567 139.392 853.567 139.8C853.567 140.208 853.423 140.568 853.135 140.88C852.847 141.192 852.487 141.36 852.055 141.36C851.599 141.36 851.239 141.192 850.951 140.88C850.639 140.568 850.495 140.208 850.495 139.8C850.495 139.392 850.639 139.032 850.951 138.72C851.239 138.432 851.599 138.288 852.055 138.288ZM855.204 135.12C855.204 132.936 855.924 130.968 857.34 129.216C858.756 127.488 860.772 126.312 863.436 125.688L864.036 127.56C860.316 128.496 858.084 130.368 857.34 133.176L857.388 133.2C858.468 132.216 859.74 131.712 861.204 131.712C863.676 131.712 865.596 133.608 865.596 136.368C865.596 139.272 863.58 141.36 860.484 141.36C858.828 141.36 857.556 140.76 856.62 139.56C855.684 138.384 855.204 136.896 855.204 135.12ZM857.292 135.744C857.292 137.856 858.588 139.536 860.58 139.536C862.404 139.536 863.604 138.288 863.604 136.464C863.604 134.664 862.404 133.464 860.676 133.464C859.38 133.464 858.156 134.064 857.412 134.736C857.34 135.024 857.292 135.36 857.292 135.744ZM874.851 129.432C874.851 131.64 873.291 133.392 870.867 133.392C868.491 133.392 866.883 131.64 866.883 129.432C866.883 128.304 867.243 127.368 867.987 126.576C868.707 125.808 869.667 125.424 870.867 125.424C872.067 125.424 873.027 125.808 873.771 126.576C874.491 127.344 874.851 128.304 874.851 129.432ZM882.171 125.664L870.219 141.36H868.707L880.659 125.664H882.171ZM883.971 137.592C883.971 138.72 883.611 139.656 882.891 140.424C882.147 141.216 881.187 141.6 879.987 141.6C878.787 141.6 877.827 141.216 877.107 140.448C876.363 139.68 876.003 138.72 876.003 137.592C876.003 135.384 877.587 133.632 879.987 133.632C882.363 133.632 883.971 135.384 883.971 137.592ZM873.555 129.432C873.555 128.64 873.315 127.992 872.835 127.464C872.331 126.936 871.683 126.672 870.867 126.672C870.051 126.672 869.403 126.936 868.923 127.464C868.419 127.992 868.179 128.64 868.179 129.432C868.179 130.176 868.419 130.824 868.923 131.352C869.403 131.88 870.051 132.144 870.867 132.144C871.683 132.144 872.331 131.88 872.835 131.352C873.315 130.824 873.555 130.176 873.555 129.432ZM882.675 137.592C882.675 136.848 882.435 136.2 881.955 135.672C881.451 135.144 880.803 134.88 879.987 134.88C879.171 134.88 878.523 135.144 878.043 135.672C877.539 136.2 877.299 136.848 877.299 137.592C877.299 138.384 877.539 139.032 878.043 139.56C878.523 140.088 879.171 140.352 879.987 140.352C880.803 140.352 881.451 140.088 881.955 139.56C882.435 139.032 882.675 138.384 882.675 137.592Z" fill="#FBFBFB"/>
<path d="M1089.3 96.592L1082.66 110.416H1084.67L1091.44 96.352V94.648H1081.48L1081.41 96.592H1089.3ZM1093.67 103.288C1094.1 103.288 1094.46 103.432 1094.75 103.72C1095.04 104.032 1095.18 104.392 1095.18 104.8C1095.18 105.208 1095.04 105.568 1094.75 105.88C1094.46 106.192 1094.1 106.36 1093.67 106.36C1093.22 106.36 1092.86 106.192 1092.57 105.88C1092.26 105.568 1092.11 105.208 1092.11 104.8C1092.11 104.392 1092.26 104.032 1092.57 103.72C1092.86 103.432 1093.22 103.288 1093.67 103.288ZM1104.33 96.592L1097.68 110.416H1099.7L1106.46 96.352V94.648H1096.5L1096.43 96.592H1104.33ZM1115.27 94.432C1115.27 96.64 1113.71 98.392 1111.29 98.392C1108.91 98.392 1107.3 96.64 1107.3 94.432C1107.3 93.304 1107.66 92.368 1108.41 91.576C1109.13 90.808 1110.09 90.424 1111.29 90.424C1112.49 90.424 1113.45 90.808 1114.19 91.576C1114.91 92.344 1115.27 93.304 1115.27 94.432ZM1122.59 90.664L1110.64 106.36H1109.13L1121.08 90.664H1122.59ZM1124.39 102.592C1124.39 103.72 1124.03 104.656 1123.31 105.424C1122.57 106.216 1121.61 106.6 1120.41 106.6C1119.21 106.6 1118.25 106.216 1117.53 105.448C1116.78 104.68 1116.42 103.72 1116.42 102.592C1116.42 100.384 1118.01 98.632 1120.41 98.632C1122.78 98.632 1124.39 100.384 1124.39 102.592ZM1113.98 94.432C1113.98 93.64 1113.74 92.992 1113.26 92.464C1112.75 91.936 1112.1 91.672 1111.29 91.672C1110.47 91.672 1109.82 91.936 1109.34 92.464C1108.84 92.992 1108.6 93.64 1108.6 94.432C1108.6 95.176 1108.84 95.824 1109.34 96.352C1109.82 96.88 1110.47 97.144 1111.29 97.144C1112.1 97.144 1112.75 96.88 1113.26 96.352C1113.74 95.824 1113.98 95.176 1113.98 94.432ZM1123.1 102.592C1123.1 101.848 1122.86 101.2 1122.38 100.672C1121.87 100.144 1121.22 99.88 1120.41 99.88C1119.59 99.88 1118.94 100.144 1118.46 100.672C1117.96 101.2 1117.72 101.848 1117.72 102.592C1117.72 103.384 1117.96 104.032 1118.46 104.56C1118.94 105.088 1119.59 105.352 1120.41 105.352C1121.22 105.352 1121.87 105.088 1122.38 104.56C1122.86 104.032 1123.1 103.384 1123.1 102.592Z" fill="#FBFBFB"/>
<path d="M33.776 44V29H32.24V35.768H23.456V29H21.92V44H23.456V37.16H32.24V44H33.776ZM38.2231 38.552V38.672C38.2951 41.192 39.7831 42.92 42.0631 42.92C43.2631 42.92 44.3191 42.608 45.2551 42.008L45.5431 43.376C44.5351 44 43.3591 44.312 42.0151 44.312C38.8711 44.312 36.7111 41.984 36.7111 38.6C36.7111 36.872 37.2151 35.456 38.1991 34.352C39.1831 33.248 40.4071 32.696 41.8951 32.696C44.3431 32.696 45.9031 34.28 45.9031 36.752C45.9031 37.4 45.8311 37.976 45.6631 38.504L38.2231 38.552ZM38.3191 37.376L44.4151 37.352C44.4391 37.28 44.4391 37.112 44.4391 36.872C44.4391 35.144 43.5031 34.04 41.7991 34.04C39.9031 34.04 38.5831 35.456 38.3191 37.376ZM54.4406 41.576V38.36C50.7446 38.768 49.3286 39.584 49.3286 41.096C49.3286 42.248 50.2646 43.016 51.5846 43.016C52.6406 43.016 53.6006 42.536 54.4406 41.576ZM54.5366 42.68H54.4646C53.5766 43.76 52.5206 44.312 51.2486 44.312C49.2326 44.312 47.7686 43.04 47.7686 41.264C47.7686 38.912 50.0006 37.616 54.4406 37.352V36.704C54.4406 34.952 53.5766 34.088 51.8486 34.088C50.6966 34.088 49.2566 34.664 48.2486 35.408L47.9126 34.016C48.9686 33.272 50.6006 32.696 51.9926 32.696C54.6326 32.696 55.9526 34.016 55.9286 36.632V41.912C55.9286 42.776 56.1206 43.04 57.0326 43.016L56.9366 44.24C55.5206 44.336 54.7046 43.808 54.5366 42.68ZM60.7394 36.944V44H59.2514V33.008L60.7394 32.696V35.048C61.5314 33.488 62.6114 32.696 63.9794 32.696C64.6754 32.696 65.2994 32.864 65.8994 33.2L65.5154 34.592C64.9874 34.28 64.4354 34.112 63.8354 34.112C62.6114 34.112 61.5794 35.048 60.7394 36.944ZM69.5821 29.384C69.5821 29.696 69.4861 29.936 69.3181 30.152C69.1501 30.368 68.8861 30.488 68.5741 30.488C68.2621 30.488 67.9981 30.368 67.8301 30.152C67.6621 29.936 67.5661 29.696 67.5661 29.384C67.5661 29.096 67.6621 28.856 67.8301 28.64C67.9981 28.424 68.2621 28.328 68.5741 28.328C68.8861 28.328 69.1501 28.424 69.3181 28.64C69.4861 28.856 69.5821 29.096 69.5821 29.384ZM69.3181 44H67.8301V33.008L69.3181 32.696V44ZM81.5578 44H80.0698V36.896C80.0698 34.976 79.3258 34.112 77.6458 34.112C76.4698 34.112 75.3418 34.64 74.3098 35.672V44H72.8218V33.008L74.3098 32.696V34.496C75.5098 33.296 76.7578 32.696 78.0538 32.696C80.2618 32.696 81.5578 34.04 81.5578 36.464V44ZM85.7789 36.848C85.7789 38.48 86.8829 39.656 88.6109 39.656C89.4509 39.656 90.0989 39.392 90.6029 38.84C91.1069 38.312 91.3469 37.616 91.3469 36.776C91.3469 35.936 91.1069 35.24 90.6269 34.712C90.1229 34.184 89.4269 33.92 88.5389 33.92C86.8349 33.92 85.7789 35.12 85.7789 36.848ZM87.0749 44.312C85.7549 44.672 84.8429 45.536 84.8429 46.472C84.8429 47.792 86.3069 48.728 88.5869 48.728C90.8909 48.728 92.7149 47.624 92.7149 46.136C92.7149 44.888 91.6589 44.384 89.3789 44.384C88.4669 44.384 87.6989 44.36 87.0749 44.312ZM85.7789 44.024C84.7949 43.664 84.2909 43.088 84.2909 42.272C84.2909 41.36 85.0349 40.568 86.0909 40.184C84.9149 39.464 84.3149 38.336 84.3149 36.824C84.3149 34.448 86.0669 32.696 88.6349 32.696C89.5949 32.696 90.4589 32.912 91.2269 33.344L94.2749 33.104L94.3469 34.592L91.9229 34.352C92.4269 34.856 92.8109 35.912 92.8109 36.824C92.8109 39.176 91.0109 40.856 88.5389 40.856C88.0349 40.856 87.5069 40.76 86.9069 40.544C86.0909 40.88 85.6829 41.312 85.6829 41.864C85.6829 42.608 86.3069 42.992 88.1789 42.992H89.5949C92.6429 42.992 94.1549 43.952 94.1549 45.872C94.1549 47.048 93.5789 48.032 92.4509 48.8C91.3229 49.568 89.9549 49.952 88.3709 49.952C85.4189 49.952 83.4029 48.656 83.4029 46.736C83.4029 45.488 84.3629 44.384 85.7789 44.024ZM103.402 29.384C103.402 29.696 103.306 29.936 103.138 30.152C102.97 30.368 102.706 30.488 102.394 30.488C102.082 30.488 101.818 30.368 101.65 30.152C101.482 29.936 101.386 29.696 101.386 29.384C101.386 29.096 101.482 28.856 101.65 28.64C101.818 28.424 102.082 28.328 102.394 28.328C102.706 28.328 102.97 28.424 103.138 28.64C103.306 28.856 103.402 29.096 103.402 29.384ZM103.138 44H101.65V33.008L103.138 32.696V44ZM112.114 43.784C111.298 44.168 110.482 44.36 109.666 44.36C107.626 44.36 106.642 43.208 106.714 40.904L106.882 34.4L105.202 34.304L105.274 33.368L106.93 32.984L107.002 30.488H108.418L108.346 33.056H112.018L111.946 34.376H108.298L108.13 40.952C108.082 42.32 108.61 43.016 109.738 43.016C110.338 43.016 111.034 42.848 111.85 42.488L112.114 43.784ZM125.641 27.776L125.569 28.112C125.497 28.352 125.449 28.568 125.377 28.784L125.281 29.12C124.633 28.808 124.081 28.664 123.601 28.664C122.377 28.664 121.777 29.528 121.777 31.232V33.056H125.233L125.161 34.376H121.777V44H120.313V34.424L118.537 34.304L118.633 33.368L120.289 32.984L120.313 31.256C120.361 28.616 121.465 27.296 123.625 27.296C124.297 27.296 124.969 27.464 125.641 27.776ZM137.134 38.48C137.134 40.208 136.63 41.6 135.598 42.68C134.566 43.76 133.294 44.312 131.734 44.312C130.174 44.312 128.902 43.784 127.918 42.728C126.934 41.672 126.43 40.28 126.43 38.528C126.43 36.8 126.958 35.384 127.99 34.304C129.022 33.224 130.294 32.696 131.854 32.696C133.414 32.696 134.686 33.224 135.67 34.28C136.654 35.336 137.134 36.728 137.134 38.48ZM135.67 38.528C135.67 35.816 134.134 34.04 131.782 34.04C129.478 34.04 127.918 35.84 127.918 38.48C127.918 41.192 129.454 42.968 131.806 42.968C134.11 42.968 135.67 41.168 135.67 38.528ZM141.388 36.944V44H139.9V33.008L141.388 32.696V35.048C142.18 33.488 143.26 32.696 144.628 32.696C145.324 32.696 145.948 32.864 146.548 33.2L146.164 34.592C145.636 34.28 145.084 34.112 144.484 34.112C143.26 34.112 142.228 35.048 141.388 36.944ZM159.388 43.784C158.572 44.168 157.756 44.36 156.94 44.36C154.9 44.36 153.916 43.208 153.988 40.904L154.156 34.4L152.476 34.304L152.548 33.368L154.204 32.984L154.276 30.488H155.692L155.62 33.056H159.292L159.22 34.376H155.572L155.404 40.952C155.355 42.32 155.884 43.016 157.012 43.016C157.612 43.016 158.308 42.848 159.124 42.488L159.388 43.784ZM170.55 44H169.062V36.896C169.062 35.048 168.27 34.112 166.71 34.112C165.486 34.112 164.334 34.64 163.302 35.672V44H161.814V27.824L163.302 27.512V34.448C164.478 33.272 165.75 32.696 167.118 32.696C169.278 32.696 170.55 34.04 170.55 36.464V44ZM174.723 38.552V38.672C174.795 41.192 176.283 42.92 178.563 42.92C179.763 42.92 180.819 42.608 181.755 42.008L182.043 43.376C181.035 44 179.859 44.312 178.515 44.312C175.371 44.312 173.211 41.984 173.211 38.6C173.211 36.872 173.715 35.456 174.699 34.352C175.683 33.248 176.907 32.696 178.395 32.696C180.843 32.696 182.403 34.28 182.403 36.752C182.403 37.4 182.331 37.976 182.163 38.504L174.723 38.552ZM174.819 37.376L180.915 37.352C180.939 37.28 180.939 37.112 180.939 36.872C180.939 35.144 180.003 34.04 178.299 34.04C176.403 34.04 175.083 35.456 174.819 37.376ZM196.306 27.776L196.234 28.112C196.162 28.352 196.114 28.568 196.042 28.784L195.946 29.12C195.298 28.808 194.746 28.664 194.266 28.664C193.042 28.664 192.442 29.528 192.442 31.232V33.056H195.898L195.826 34.376H192.442V44H190.978V34.424L189.202 34.304L189.298 33.368L190.954 32.984L190.978 31.256C191.026 28.616 192.13 27.296 194.29 27.296C194.962 27.296 195.634 27.464 196.306 27.776ZM199.59 29.384C199.59 29.696 199.494 29.936 199.326 30.152C199.158 30.368 198.894 30.488 198.582 30.488C198.27 30.488 198.006 30.368 197.838 30.152C197.67 29.936 197.574 29.696 197.574 29.384C197.574 29.096 197.67 28.856 197.838 28.64C198.006 28.424 198.27 28.328 198.582 28.328C198.894 28.328 199.158 28.424 199.326 28.64C199.494 28.856 199.59 29.096 199.59 29.384ZM199.326 44H197.838V33.008L199.326 32.696V44ZM204.318 36.944V44H202.83V33.008L204.318 32.696V35.048C205.11 33.488 206.19 32.696 207.558 32.696C208.254 32.696 208.878 32.864 209.478 33.2L209.094 34.592C208.566 34.28 208.014 34.112 207.414 34.112C206.19 34.112 205.158 35.048 204.318 36.944ZM217.984 41C217.984 42.992 216.304 44.312 214.048 44.312C212.68 44.312 211.48 43.976 210.448 43.328L210.856 41.96C211.864 42.632 212.944 42.968 214.096 42.968C215.488 42.968 216.568 42.272 216.568 41.12C216.568 40.856 216.52 40.64 216.4 40.424C216.28 40.208 216.136 40.04 216.016 39.92C215.896 39.8 215.656 39.68 215.344 39.536C215.032 39.392 214.792 39.296 214.648 39.248C214.504 39.2 214.216 39.104 213.808 38.984C211.888 38.408 210.616 37.592 210.616 35.864C210.616 33.896 212.176 32.696 214.336 32.696C215.512 32.696 216.616 32.96 217.672 33.512L217.24 34.856C216.256 34.304 215.248 34.04 214.24 34.04C212.896 34.04 212.032 34.664 212.032 35.72C212.032 35.96 212.08 36.176 212.2 36.368C212.32 36.584 212.44 36.728 212.56 36.848C212.68 36.968 212.896 37.112 213.208 37.232C213.496 37.352 213.736 37.448 213.904 37.52C214.072 37.592 214.36 37.664 214.744 37.784C216.736 38.36 217.984 39.176 217.984 41ZM226.138 43.784C225.322 44.168 224.506 44.36 223.69 44.36C221.65 44.36 220.666 43.208 220.738 40.904L220.906 34.4L219.226 34.304L219.298 33.368L220.954 32.984L221.026 30.488H222.442L222.37 33.056H226.042L225.97 34.376H222.322L222.154 40.952C222.105 42.32 222.634 43.016 223.762 43.016C224.362 43.016 225.058 42.848 225.874 42.488L226.138 43.784ZM239.497 43.784C238.681 44.168 237.865 44.36 237.049 44.36C235.009 44.36 234.025 43.208 234.097 40.904L234.265 34.4L232.585 34.304L232.657 33.368L234.313 32.984L234.385 30.488H235.801L235.729 33.056H239.401L239.329 34.376H235.681L235.513 40.952C235.465 42.32 235.993 43.016 237.121 43.016C237.721 43.016 238.417 42.848 239.233 42.488L239.497 43.784ZM243.699 29.384C243.699 29.696 243.603 29.936 243.435 30.152C243.267 30.368 243.003 30.488 242.691 30.488C242.379 30.488 242.115 30.368 241.947 30.152C241.779 29.936 241.683 29.696 241.683 29.384C241.683 29.096 241.779 28.856 241.947 28.64C242.115 28.424 242.379 28.328 242.691 28.328C243.003 28.328 243.267 28.424 243.435 28.64C243.603 28.856 243.699 29.096 243.699 29.384ZM243.435 44H241.947V33.008L243.435 32.696V44ZM262.155 44H260.667V36.92C260.667 35.048 259.899 34.112 258.339 34.112C257.283 34.112 256.251 34.592 255.243 35.528C255.267 35.72 255.291 36.056 255.291 36.512V44H253.803V36.92C253.803 35.048 253.035 34.112 251.475 34.112C250.395 34.112 249.387 34.544 248.427 35.384V44H246.939V33.008L248.427 32.696V34.208C249.531 33.2 250.683 32.696 251.907 32.696C253.371 32.696 254.355 33.296 254.883 34.52C256.107 33.296 257.403 32.696 258.771 32.696C260.883 32.696 262.155 34.064 262.155 36.488V44ZM266.34 38.552V38.672C266.412 41.192 267.9 42.92 270.18 42.92C271.38 42.92 272.436 42.608 273.372 42.008L273.66 43.376C272.652 44 271.476 44.312 270.132 44.312C266.988 44.312 264.828 41.984 264.828 38.6C264.828 36.872 265.332 35.456 266.316 34.352C267.3 33.248 268.524 32.696 270.012 32.696C272.46 32.696 274.02 34.28 274.02 36.752C274.02 37.4 273.948 37.976 273.78 38.504L266.34 38.552ZM266.436 37.376L272.532 37.352C272.556 37.28 272.556 37.112 272.556 36.872C272.556 35.144 271.62 34.04 269.916 34.04C268.02 34.04 266.7 35.456 266.436 37.376Z" fill="#FBFBFB"/>
<path d="M832.48 44V29H830.968V44H832.48ZM850.386 44H848.898V36.896C848.898 35.048 848.106 34.112 846.546 34.112C845.322 34.112 844.17 34.64 843.138 35.672V44H841.65V27.824L843.138 27.512V34.448C844.314 33.272 845.586 32.696 846.954 32.696C849.114 32.696 850.386 34.04 850.386 36.464V44ZM859.503 41.576V38.36C855.807 38.768 854.391 39.584 854.391 41.096C854.391 42.248 855.327 43.016 856.647 43.016C857.703 43.016 858.663 42.536 859.503 41.576ZM859.599 42.68H859.527C858.639 43.76 857.583 44.312 856.311 44.312C854.295 44.312 852.831 43.04 852.831 41.264C852.831 38.912 855.063 37.616 859.503 37.352V36.704C859.503 34.952 858.639 34.088 856.911 34.088C855.759 34.088 854.319 34.664 853.311 35.408L852.975 34.016C854.031 33.272 855.663 32.696 857.055 32.696C859.695 32.696 861.015 34.016 860.991 36.632V41.912C860.991 42.776 861.183 43.04 862.095 43.016L861.999 44.24C860.583 44.336 859.767 43.808 859.599 42.68ZM872.666 33.008H871.106L867.746 42.08L864.266 33.008H862.658L867.002 44.024H868.346L872.666 33.008ZM875.161 38.552V38.672C875.233 41.192 876.721 42.92 879.001 42.92C880.201 42.92 881.257 42.608 882.193 42.008L882.481 43.376C881.473 44 880.297 44.312 878.953 44.312C875.809 44.312 873.649 41.984 873.649 38.6C873.649 36.872 874.153 35.456 875.137 34.352C876.121 33.248 877.345 32.696 878.833 32.696C881.281 32.696 882.841 34.28 882.841 36.752C882.841 37.4 882.769 37.976 882.601 38.504L875.161 38.552ZM875.257 37.376L881.353 37.352C881.377 37.28 881.377 37.112 881.377 36.872C881.377 35.144 880.441 34.04 878.737 34.04C876.841 34.04 875.521 35.456 875.257 37.376ZM906.319 44H904.831V36.92C904.831 35.048 904.063 34.112 902.503 34.112C901.447 34.112 900.415 34.592 899.407 35.528C899.431 35.72 899.455 36.056 899.455 36.512V44H897.967V36.92C897.967 35.048 897.199 34.112 895.639 34.112C894.559 34.112 893.551 34.544 892.591 35.384V44H891.103V33.008L892.591 32.696V34.208C893.695 33.2 894.847 32.696 896.071 32.696C897.535 32.696 898.519 33.296 899.047 34.52C900.271 33.296 901.567 32.696 902.935 32.696C905.047 32.696 906.319 34.064 906.319 36.488V44ZM918.064 33.008L913.792 43.88L912.904 46.256C911.944 48.872 910.936 49.712 909.352 49.712C908.704 49.712 908.008 49.544 907.216 49.208L907.672 47.84C908.272 48.152 908.824 48.32 909.352 48.32C910.264 48.32 910.864 47.768 911.608 45.776L912.352 43.832L908.056 33.008H909.664L913.12 42.08L916.504 33.008H918.064ZM930.985 27.776L930.913 28.112C930.841 28.352 930.793 28.568 930.721 28.784L930.625 29.12C929.977 28.808 929.425 28.664 928.945 28.664C927.721 28.664 927.121 29.528 927.121 31.232V33.056H930.577L930.505 34.376H927.121V44H925.657V34.424L923.881 34.304L923.977 33.368L925.633 32.984L925.657 31.256C925.705 28.616 926.809 27.296 928.969 27.296C929.641 27.296 930.313 27.464 930.985 27.776ZM938.23 41.576V38.36C934.534 38.768 933.118 39.584 933.118 41.096C933.118 42.248 934.054 43.016 935.374 43.016C936.43 43.016 937.39 42.536 938.23 41.576ZM938.326 42.68H938.254C937.366 43.76 936.31 44.312 935.038 44.312C933.022 44.312 931.558 43.04 931.558 41.264C931.558 38.912 933.79 37.616 938.23 37.352V36.704C938.23 34.952 937.366 34.088 935.638 34.088C934.486 34.088 933.046 34.664 932.038 35.408L931.702 34.016C932.758 33.272 934.39 32.696 935.782 32.696C938.422 32.696 939.742 34.016 939.718 36.632V41.912C939.718 42.776 939.91 43.04 940.822 43.016L940.726 44.24C939.31 44.336 938.494 43.808 938.326 42.68ZM944.817 29.384C944.817 29.696 944.721 29.936 944.553 30.152C944.385 30.368 944.121 30.488 943.809 30.488C943.497 30.488 943.233 30.368 943.065 30.152C942.896 29.936 942.801 29.696 942.801 29.384C942.801 29.096 942.896 28.856 943.065 28.64C943.233 28.424 943.497 28.328 943.809 28.328C944.121 28.328 944.385 28.424 944.553 28.64C944.721 28.856 944.817 29.096 944.817 29.384ZM944.553 44H943.065V33.008L944.553 32.696V44ZM949.544 36.944V44H948.056V33.008L949.544 32.696V35.048C950.336 33.488 951.416 32.696 952.784 32.696C953.48 32.696 954.104 32.864 954.704 33.2L954.32 34.592C953.792 34.28 953.24 34.112 952.64 34.112C951.416 34.112 950.384 35.048 949.544 36.944ZM832.264 69.528L837.208 75H839.104L833.8 69.24L839.08 64.008H837.208L832.264 69.072H832.216V58.512L830.728 58.824V75H832.216V69.528H832.264ZM849.87 75H848.382V67.896C848.382 65.976 847.638 65.112 845.958 65.112C844.782 65.112 843.654 65.64 842.622 66.672V75H841.134V64.008L842.622 63.696V65.496C843.822 64.296 845.07 63.696 846.366 63.696C848.574 63.696 849.87 65.04 849.87 67.464V75ZM863.235 69.48C863.235 71.208 862.731 72.6 861.699 73.68C860.667 74.76 859.395 75.312 857.835 75.312C856.275 75.312 855.003 74.784 854.019 73.728C853.035 72.672 852.531 71.28 852.531 69.528C852.531 67.8 853.059 66.384 854.091 65.304C855.123 64.224 856.395 63.696 857.955 63.696C859.515 63.696 860.787 64.224 861.771 65.28C862.755 66.336 863.235 67.728 863.235 69.48ZM861.771 69.528C861.771 66.816 860.235 65.04 857.883 65.04C855.579 65.04 854.019 66.84 854.019 69.48C854.019 72.192 855.555 73.968 857.907 73.968C860.211 73.968 861.771 72.168 861.771 69.528ZM869.172 75.048L872.172 66.168L875.172 75.048H876.492L879.756 64.008H878.124L875.844 72.816L872.844 64.032H871.5L868.644 72.768L866.1 64.008H864.516L867.876 75.048H869.172ZM883.263 75V58.512L881.775 58.824V75H883.263ZM887.512 69.552V69.672C887.584 72.192 889.072 73.92 891.352 73.92C892.552 73.92 893.608 73.608 894.544 73.008L894.832 74.376C893.824 75 892.648 75.312 891.304 75.312C888.16 75.312 886 72.984 886 69.6C886 67.872 886.504 66.456 887.488 65.352C888.472 64.248 889.696 63.696 891.184 63.696C893.632 63.696 895.192 65.28 895.192 67.752C895.192 68.4 895.12 68.976 894.952 69.504L887.512 69.552ZM887.608 68.376L893.704 68.352C893.728 68.28 893.728 68.112 893.728 67.872C893.728 66.144 892.792 65.04 891.088 65.04C889.192 65.04 887.872 66.456 887.608 68.376ZM905.386 64.368V58.824L906.874 58.512V75H905.386V73.968C904.426 74.856 903.37 75.312 902.194 75.312C899.242 75.312 897.274 72.984 897.274 69.6C897.274 67.896 897.778 66.504 898.81 65.4C899.842 64.32 901.138 63.768 902.722 63.768C903.634 63.768 904.522 63.96 905.386 64.368ZM905.386 65.952C904.666 65.4 903.754 65.112 902.65 65.112C900.298 65.112 898.81 66.936 898.81 69.576C898.81 72.144 900.25 73.944 902.458 73.944C903.538 73.944 904.522 73.536 905.386 72.72V66.168V65.952ZM911.162 67.848C911.162 69.48 912.266 70.656 913.994 70.656C914.834 70.656 915.482 70.392 915.986 69.84C916.49 69.312 916.73 68.616 916.73 67.776C916.73 66.936 916.49 66.24 916.01 65.712C915.506 65.184 914.81 64.92 913.922 64.92C912.218 64.92 911.162 66.12 911.162 67.848ZM912.458 75.312C911.138 75.672 910.226 76.536 910.226 77.472C910.226 78.792 911.69 79.728 913.97 79.728C916.274 79.728 918.098 78.624 918.098 77.136C918.098 75.888 917.042 75.384 914.762 75.384C913.85 75.384 913.082 75.36 912.458 75.312ZM911.162 75.024C910.178 74.664 909.674 74.088 909.674 73.272C909.674 72.36 910.418 71.568 911.474 71.184C910.298 70.464 909.698 69.336 909.698 67.824C909.698 65.448 911.45 63.696 914.018 63.696C914.978 63.696 915.842 63.912 916.61 64.344L919.658 64.104L919.73 65.592L917.306 65.352C917.81 65.856 918.194 66.912 918.194 67.824C918.194 70.176 916.394 71.856 913.922 71.856C913.418 71.856 912.89 71.76 912.29 71.544C911.474 71.88 911.066 72.312 911.066 72.864C911.066 73.608 911.69 73.992 913.562 73.992H914.978C918.026 73.992 919.538 74.952 919.538 76.872C919.538 78.048 918.962 79.032 917.834 79.8C916.706 80.568 915.338 80.952 913.754 80.952C910.802 80.952 908.786 79.656 908.786 77.736C908.786 76.488 909.746 75.384 911.162 75.024ZM922.34 69.552V69.672C922.412 72.192 923.9 73.92 926.18 73.92C927.38 73.92 928.436 73.608 929.372 73.008L929.66 74.376C928.652 75 927.476 75.312 926.132 75.312C922.988 75.312 920.828 72.984 920.828 69.6C920.828 67.872 921.332 66.456 922.316 65.352C923.3 64.248 924.524 63.696 926.012 63.696C928.46 63.696 930.02 65.28 930.02 67.752C930.02 68.4 929.948 68.976 929.78 69.504L922.34 69.552ZM922.436 68.376L928.532 68.352C928.556 68.28 928.556 68.112 928.556 67.872C928.556 66.144 927.62 65.04 925.916 65.04C924.02 65.04 922.7 66.456 922.436 68.376ZM836.464 103.576V100.36C832.768 100.768 831.352 101.584 831.352 103.096C831.352 104.248 832.288 105.016 833.608 105.016C834.664 105.016 835.624 104.536 836.464 103.576ZM836.56 104.68H836.488C835.6 105.76 834.544 106.312 833.272 106.312C831.256 106.312 829.792 105.04 829.792 103.264C829.792 100.912 832.024 99.616 836.464 99.352V98.704C836.464 96.952 835.6 96.088 833.872 96.088C832.72 96.088 831.28 96.664 830.272 97.408L829.936 96.016C830.992 95.272 832.624 94.696 834.016 94.696C836.656 94.696 837.976 96.016 837.952 98.632V103.912C837.952 104.776 838.144 105.04 839.056 105.016L838.96 106.24C837.544 106.336 836.728 105.808 836.56 104.68ZM850.875 100.36C850.875 102.088 850.371 103.504 849.363 104.632C848.331 105.76 847.035 106.312 845.451 106.312C844.515 106.312 843.627 106.12 842.763 105.712L841.275 106.36V89.824L842.763 89.512V96.16C843.747 95.224 844.851 94.768 846.075 94.768C848.979 94.768 850.875 97.048 850.875 100.36ZM849.339 100.432C849.339 97.888 847.947 96.136 845.787 96.136C844.659 96.136 843.651 96.544 842.763 97.36V104.104C843.507 104.68 844.419 104.968 845.523 104.968C847.875 104.968 849.339 103.144 849.339 100.432ZM863.517 100.48C863.517 102.208 863.013 103.6 861.981 104.68C860.949 105.76 859.677 106.312 858.117 106.312C856.557 106.312 855.285 105.784 854.301 104.728C853.317 103.672 852.813 102.28 852.813 100.528C852.813 98.8 853.341 97.384 854.373 96.304C855.405 95.224 856.677 94.696 858.237 94.696C859.797 94.696 861.069 95.224 862.053 96.28C863.037 97.336 863.517 98.728 863.517 100.48ZM862.053 100.528C862.053 97.816 860.517 96.04 858.165 96.04C855.861 96.04 854.301 97.84 854.301 100.48C854.301 103.192 855.837 104.968 858.189 104.968C860.493 104.968 862.053 103.168 862.053 100.528ZM866.187 95.008H867.675V102.112C867.675 103.96 868.467 104.896 870.051 104.896C871.299 104.896 872.427 104.368 873.435 103.336V95.008H874.923V106L873.435 106.312V104.536C872.283 105.712 871.011 106.312 869.643 106.312C867.483 106.312 866.187 104.92 866.187 102.544V95.008ZM883.848 105.784C883.032 106.168 882.216 106.36 881.4 106.36C879.36 106.36 878.376 105.208 878.448 102.904L878.616 96.4L876.936 96.304L877.008 95.368L878.664 94.984L878.736 92.488H880.152L880.08 95.056H883.752L883.68 96.376H880.032L879.864 102.952C879.816 104.32 880.344 105.016 881.472 105.016C882.072 105.016 882.768 104.848 883.584 104.488L883.848 105.784ZM893.512 91.384C893.512 91.696 893.416 91.936 893.248 92.152C893.08 92.368 892.816 92.488 892.504 92.488C892.192 92.488 891.928 92.368 891.76 92.152C891.592 91.936 891.496 91.696 891.496 91.384C891.496 91.096 891.592 90.856 891.76 90.64C891.928 90.424 892.192 90.328 892.504 90.328C892.816 90.328 893.08 90.424 893.248 90.64C893.416 90.856 893.512 91.096 893.512 91.384ZM893.248 106H891.76V95.008L893.248 94.696V106ZM902.223 105.784C901.407 106.168 900.591 106.36 899.775 106.36C897.735 106.36 896.751 105.208 896.823 102.904L896.991 96.4L895.311 96.304L895.383 95.368L897.039 94.984L897.111 92.488H898.527L898.455 95.056H902.127L902.055 96.376H898.407L898.239 102.952C898.191 104.32 898.719 105.016 899.847 105.016C900.447 105.016 901.143 104.848 901.959 104.488L902.223 105.784Z" fill="#FBFBFB"/>
<path d="M1084.48 44V29H1082.97V44H1084.48ZM1108.87 44H1107.38V36.92C1107.38 35.048 1106.61 34.112 1105.05 34.112C1103.99 34.112 1102.96 34.592 1101.95 35.528C1101.98 35.72 1102 36.056 1102 36.512V44H1100.51V36.92C1100.51 35.048 1099.75 34.112 1098.19 34.112C1097.11 34.112 1096.1 34.544 1095.14 35.384V44H1093.65V33.008L1095.14 32.696V34.208C1096.24 33.2 1097.39 32.696 1098.62 32.696C1100.08 32.696 1101.07 33.296 1101.59 34.52C1102.82 33.296 1104.11 32.696 1105.48 32.696C1107.59 32.696 1108.87 34.064 1108.87 36.488V44ZM1118 41.576V38.36C1114.3 38.768 1112.88 39.584 1112.88 41.096C1112.88 42.248 1113.82 43.016 1115.14 43.016C1116.2 43.016 1117.16 42.536 1118 41.576ZM1118.09 42.68H1118.02C1117.13 43.76 1116.08 44.312 1114.8 44.312C1112.79 44.312 1111.32 43.04 1111.32 41.264C1111.32 38.912 1113.56 37.616 1118 37.352V36.704C1118 34.952 1117.13 34.088 1115.4 34.088C1114.25 34.088 1112.81 34.664 1111.8 35.408L1111.47 34.016C1112.52 33.272 1114.16 32.696 1115.55 32.696C1118.19 32.696 1119.51 34.016 1119.48 36.632V41.912C1119.48 42.776 1119.68 43.04 1120.59 43.016L1120.49 44.24C1119.08 44.336 1118.26 43.808 1118.09 42.68ZM1131.16 33.008L1126.89 43.88L1126 46.256C1125.04 48.872 1124.03 49.712 1122.45 49.712C1121.8 49.712 1121.1 49.544 1120.31 49.208L1120.77 47.84C1121.37 48.152 1121.92 48.32 1122.45 48.32C1123.36 48.32 1123.96 47.768 1124.7 45.776L1125.45 43.832L1121.15 33.008H1122.76L1126.21 42.08L1129.6 33.008H1131.16ZM1147.17 44H1145.69V36.896C1145.69 35.048 1144.89 34.112 1143.33 34.112C1142.11 34.112 1140.96 34.64 1139.93 35.672V44H1138.44V27.824L1139.93 27.512V34.448C1141.1 33.272 1142.37 32.696 1143.74 32.696C1145.9 32.696 1147.17 34.04 1147.17 36.464V44ZM1156.29 41.576V38.36C1152.6 38.768 1151.18 39.584 1151.18 41.096C1151.18 42.248 1152.12 43.016 1153.44 43.016C1154.49 43.016 1155.45 42.536 1156.29 41.576ZM1156.39 42.68H1156.32C1155.43 43.76 1154.37 44.312 1153.1 44.312C1151.08 44.312 1149.62 43.04 1149.62 41.264C1149.62 38.912 1151.85 37.616 1156.29 37.352V36.704C1156.29 34.952 1155.43 34.088 1153.7 34.088C1152.55 34.088 1151.11 34.664 1150.1 35.408L1149.76 34.016C1150.82 33.272 1152.45 32.696 1153.84 32.696C1156.48 32.696 1157.8 34.016 1157.78 36.632V41.912C1157.78 42.776 1157.97 43.04 1158.88 43.016L1158.79 44.24C1157.37 44.336 1156.56 43.808 1156.39 42.68ZM1169.46 33.008H1167.9L1164.54 42.08L1161.06 33.008H1159.45L1163.79 44.024H1165.14L1169.46 33.008ZM1171.95 38.552V38.672C1172.02 41.192 1173.51 42.92 1175.79 42.92C1176.99 42.92 1178.05 42.608 1178.98 42.008L1179.27 43.376C1178.26 44 1177.09 44.312 1175.74 44.312C1172.6 44.312 1170.44 41.984 1170.44 38.6C1170.44 36.872 1170.94 35.456 1171.93 34.352C1172.91 33.248 1174.13 32.696 1175.62 32.696C1178.07 32.696 1179.63 34.28 1179.63 36.752C1179.63 37.4 1179.56 37.976 1179.39 38.504L1171.95 38.552ZM1172.05 37.376L1178.14 37.352C1178.17 37.28 1178.17 37.112 1178.17 36.872C1178.17 35.144 1177.23 34.04 1175.53 34.04C1173.63 34.04 1172.31 35.456 1172.05 37.376ZM1091.46 75H1089.98V67.896C1089.98 66.048 1089.18 65.112 1087.62 65.112C1086.4 65.112 1085.25 65.64 1084.22 66.672V75H1082.73V58.824L1084.22 58.512V65.448C1085.39 64.272 1086.66 63.696 1088.03 63.696C1090.19 63.696 1091.46 65.04 1091.46 67.464V75ZM1095.64 69.552V69.672C1095.71 72.192 1097.2 73.92 1099.48 73.92C1100.68 73.92 1101.73 73.608 1102.67 73.008L1102.96 74.376C1101.95 75 1100.77 75.312 1099.43 75.312C1096.29 75.312 1094.13 72.984 1094.13 69.6C1094.13 67.872 1094.63 66.456 1095.61 65.352C1096.6 64.248 1097.82 63.696 1099.31 63.696C1101.76 63.696 1103.32 65.28 1103.32 67.752C1103.32 68.4 1103.25 68.976 1103.08 69.504L1095.64 69.552ZM1095.73 68.376L1101.83 68.352C1101.85 68.28 1101.85 68.112 1101.85 67.872C1101.85 66.144 1100.92 65.04 1099.21 65.04C1097.32 65.04 1096 66.456 1095.73 68.376ZM1111.85 72.576V69.36C1108.16 69.768 1106.74 70.584 1106.74 72.096C1106.74 73.248 1107.68 74.016 1109 74.016C1110.05 74.016 1111.01 73.536 1111.85 72.576ZM1111.95 73.68H1111.88C1110.99 74.76 1109.93 75.312 1108.66 75.312C1106.65 75.312 1105.18 74.04 1105.18 72.264C1105.18 69.912 1107.41 68.616 1111.85 68.352V67.704C1111.85 65.952 1110.99 65.088 1109.26 65.088C1108.11 65.088 1106.67 65.664 1105.66 66.408L1105.33 65.016C1106.38 64.272 1108.01 63.696 1109.41 63.696C1112.05 63.696 1113.37 65.016 1113.34 67.632V72.912C1113.34 73.776 1113.53 74.04 1114.45 74.016L1114.35 75.24C1112.93 75.336 1112.12 74.808 1111.95 73.68ZM1118.15 67.944V75H1116.67V64.008L1118.15 63.696V66.048C1118.95 64.488 1120.03 63.696 1121.39 63.696C1122.09 63.696 1122.71 63.864 1123.31 64.2L1122.93 65.592C1122.4 65.28 1121.85 65.112 1121.25 65.112C1120.03 65.112 1118.99 66.048 1118.15 67.944ZM1132.38 64.368V58.824L1133.87 58.512V75H1132.38V73.968C1131.42 74.856 1130.36 75.312 1129.19 75.312C1126.23 75.312 1124.27 72.984 1124.27 69.6C1124.27 67.896 1124.77 66.504 1125.8 65.4C1126.83 64.32 1128.13 63.768 1129.71 63.768C1130.63 63.768 1131.51 63.96 1132.38 64.368ZM1132.38 65.952C1131.66 65.4 1130.75 65.112 1129.64 65.112C1127.29 65.112 1125.8 66.936 1125.8 69.576C1125.8 72.144 1127.24 73.944 1129.45 73.944C1130.53 73.944 1131.51 73.536 1132.38 72.72V66.168V65.952ZM1152.76 69.48C1152.76 71.208 1152.25 72.6 1151.22 73.68C1150.19 74.76 1148.92 75.312 1147.36 75.312C1145.8 75.312 1144.53 74.784 1143.54 73.728C1142.56 72.672 1142.05 71.28 1142.05 69.528C1142.05 67.8 1142.58 66.384 1143.61 65.304C1144.65 64.224 1145.92 63.696 1147.48 63.696C1149.04 63.696 1150.31 64.224 1151.29 65.28C1152.28 66.336 1152.76 67.728 1152.76 69.48ZM1151.29 69.528C1151.29 66.816 1149.76 65.04 1147.41 65.04C1145.1 65.04 1143.54 66.84 1143.54 69.48C1143.54 72.192 1145.08 73.968 1147.43 73.968C1149.73 73.968 1151.29 72.168 1151.29 69.528ZM1161.16 58.776L1161.09 59.112C1161.02 59.352 1160.97 59.568 1160.9 59.784L1160.8 60.12C1160.16 59.808 1159.6 59.664 1159.12 59.664C1157.9 59.664 1157.3 60.528 1157.3 62.232V64.056H1160.76L1160.68 65.376H1157.3V75H1155.84V65.424L1154.06 65.304L1154.16 64.368L1155.81 63.984L1155.84 62.256C1155.88 59.616 1156.99 58.296 1159.15 58.296C1159.82 58.296 1160.49 58.464 1161.16 58.776ZM1169.91 60.384C1169.91 60.696 1169.81 60.936 1169.65 61.152C1169.48 61.368 1169.21 61.488 1168.9 61.488C1168.59 61.488 1168.33 61.368 1168.16 61.152C1167.99 60.936 1167.89 60.696 1167.89 60.384C1167.89 60.096 1167.99 59.856 1168.16 59.64C1168.33 59.424 1168.59 59.328 1168.9 59.328C1169.21 59.328 1169.48 59.424 1169.65 59.64C1169.81 59.856 1169.91 60.096 1169.91 60.384ZM1169.65 75H1168.16V64.008L1169.65 63.696V75ZM1178.62 74.784C1177.81 75.168 1176.99 75.36 1176.17 75.36C1174.13 75.36 1173.15 74.208 1173.22 71.904L1173.39 65.4L1171.71 65.304L1171.78 64.368L1173.44 63.984L1173.51 61.488H1174.93L1174.85 64.056H1178.53L1178.45 65.376H1174.81L1174.64 71.952C1174.59 73.32 1175.12 74.016 1176.25 74.016C1176.85 74.016 1177.54 73.848 1178.36 73.488L1178.62 74.784Z" fill="#FBFBFB"/>
<path d="M21.032 65.12C21.032 62.936 21.752 60.968 23.168 59.216C24.584 57.488 26.6 56.312 29.264 55.688L29.864 57.56C26.144 58.496 23.912 60.368 23.168 63.176L23.216 63.2C24.296 62.216 25.568 61.712 27.032 61.712C29.504 61.712 31.424 63.608 31.424 66.368C31.424 69.272 29.408 71.36 26.312 71.36C24.656 71.36 23.384 70.76 22.448 69.56C21.512 68.384 21.032 66.896 21.032 65.12ZM23.12 65.744C23.12 67.856 24.416 69.536 26.408 69.536C28.232 69.536 29.432 68.288 29.432 66.464C29.432 64.664 28.232 63.464 26.504 63.464C25.208 63.464 23.984 64.064 23.24 64.736C23.168 65.024 23.12 65.36 23.12 65.744ZM43.727 65.552C43.727 67.736 43.031 69.704 41.615 71.432C40.199 73.184 38.159 74.36 35.495 74.984L34.895 73.112C38.615 72.176 40.847 70.304 41.591 67.496L41.543 67.472C40.463 68.456 39.191 68.96 37.727 68.96C35.255 68.96 33.335 67.064 33.335 64.304C33.335 61.4 35.351 59.312 38.447 59.312C40.103 59.312 41.399 59.912 42.335 61.088C43.271 62.288 43.727 63.776 43.727 65.552ZM41.639 64.928C41.639 62.816 40.343 61.136 38.351 61.136C36.527 61.136 35.327 62.384 35.327 64.208C35.327 66.008 36.527 67.208 38.255 67.208C39.551 67.208 40.775 66.608 41.519 65.936C41.591 65.648 41.639 65.312 41.639 64.928ZM47.3208 68.288C47.7528 68.288 48.1128 68.432 48.4008 68.72C48.6888 69.032 48.8328 69.392 48.8328 69.8C48.8328 70.208 48.6888 70.568 48.4008 70.88C48.1128 71.192 47.7528 71.36 47.3208 71.36C46.8648 71.36 46.5048 71.192 46.2168 70.88C45.9048 70.568 45.7608 70.208 45.7608 69.8C45.7608 69.392 45.9048 69.032 46.2168 68.72C46.5048 68.432 46.8648 68.288 47.3208 68.288ZM60.0343 71H51.0103V69.296C51.3463 69.032 51.8023 68.696 52.4023 68.264C53.0023 67.856 53.4583 67.52 53.7703 67.28C54.0823 67.04 54.4663 66.752 54.9223 66.392C55.3783 66.032 55.7143 65.744 55.9783 65.504C56.2183 65.264 56.4583 65 56.7223 64.688C56.9863 64.4 57.1543 64.112 57.2743 63.848C57.3703 63.584 57.4183 63.32 57.4183 63.056C57.4183 61.928 56.5543 61.16 55.1383 61.16C54.1063 61.16 52.9543 61.616 51.7303 62.528L51.0343 60.848C52.3303 59.816 53.7703 59.312 55.3543 59.312C57.8263 59.312 59.5063 60.704 59.5063 62.816C59.5063 63.08 59.4823 63.32 59.4343 63.56C59.3623 63.824 59.3143 64.04 59.2423 64.256C59.1703 64.472 59.0743 64.688 58.9063 64.904C58.7383 65.144 58.5943 65.336 58.4743 65.504C58.3543 65.672 58.1863 65.864 57.9223 66.104C57.6583 66.368 57.4423 66.56 57.2983 66.68C57.1543 66.8 56.9143 66.992 56.5783 67.256C56.2183 67.52 55.9783 67.712 55.8103 67.832C55.6423 67.952 55.3303 68.168 54.9223 68.48C54.4903 68.792 54.1783 69.008 54.0103 69.128H60.0343V71ZM69.179 59.432C69.179 61.64 67.619 63.392 65.195 63.392C62.819 63.392 61.211 61.64 61.211 59.432C61.211 58.304 61.571 57.368 62.315 56.576C63.035 55.808 63.995 55.424 65.195 55.424C66.395 55.424 67.355 55.808 68.099 56.576C68.819 57.344 69.179 58.304 69.179 59.432ZM76.499 55.664L64.547 71.36H63.035L74.987 55.664H76.499ZM78.299 67.592C78.299 68.72 77.939 69.656 77.219 70.424C76.475 71.216 75.515 71.6 74.315 71.6C73.115 71.6 72.155 71.216 71.435 70.448C70.691 69.68 70.331 68.72 70.331 67.592C70.331 65.384 71.915 63.632 74.315 63.632C76.691 63.632 78.299 65.384 78.299 67.592ZM67.883 59.432C67.883 58.64 67.643 57.992 67.163 57.464C66.659 56.936 66.011 56.672 65.195 56.672C64.379 56.672 63.731 56.936 63.251 57.464C62.747 57.992 62.507 58.64 62.507 59.432C62.507 60.176 62.747 60.824 63.251 61.352C63.731 61.88 64.379 62.144 65.195 62.144C66.011 62.144 66.659 61.88 67.163 61.352C67.643 60.824 67.883 60.176 67.883 59.432ZM77.003 67.592C77.003 66.848 76.763 66.2 76.283 65.672C75.779 65.144 75.131 64.88 74.315 64.88C73.499 64.88 72.851 65.144 72.371 65.672C71.867 66.2 71.627 66.848 71.627 67.592C71.627 68.384 71.867 69.032 72.371 69.56C72.851 70.088 73.499 70.352 74.315 70.352C75.131 70.352 75.779 70.088 76.283 69.56C76.763 69.032 77.003 68.384 77.003 67.592Z" fill="#FBFBFB"/>
<rect width="1186" height="15" rx="7.5" fill="#EC8539" fill-opacity="0.2"/>
<rect width="817.252" height="15" rx="7.5" fill="#EC8539"/>
<rect x="807" width="273.735" height="15" rx="7.5" fill="#EC8539" fill-opacity="0.5"/>
</svg>
