<svg width="1173" height="259" viewBox="0 0 1173 259" fill="none" xmlns="http://www.w3.org/2000/svg">
<path d="M31.2932 238.912L30.8132 240.28C29.5652 239.488 28.1732 239.08 26.6372 239.08C23.2532 239.08 20.9732 241.456 20.9732 245.488C20.9732 249.448 23.2052 251.92 26.6852 251.92C28.2932 251.92 29.6852 251.464 30.8852 250.576L31.1732 252.088C29.9252 252.904 28.4132 253.312 26.6612 253.312C24.4772 253.312 22.7252 252.616 21.4052 251.2C20.0852 249.784 19.4132 247.912 19.4132 245.536C19.4132 243.16 20.0852 241.264 21.4532 239.824C22.7972 238.408 24.5252 237.688 26.6612 237.688C28.4132 237.688 29.9492 238.096 31.2932 238.912ZM39.8117 250.576L39.8117 247.36C36.1157 247.768 34.6997 248.584 34.6997 250.096C34.6997 251.248 35.6357 252.016 36.9557 252.016C38.0117 252.016 38.9717 251.536 39.8117 250.576ZM39.9077 251.68L39.8357 251.68C38.9477 252.76 37.8917 253.312 36.6197 253.312C34.6037 253.312 33.1397 252.04 33.1397 250.264C33.1397 247.912 35.3717 246.616 39.8117 246.352L39.8117 245.704C39.8117 243.952 38.9477 243.088 37.2197 243.088C36.0677 243.088 34.6277 243.664 33.6197 244.408L33.2837 243.016C34.3397 242.272 35.9717 241.696 37.3637 241.696C40.0037 241.696 41.3237 243.016 41.2997 245.632L41.2997 250.912C41.2997 251.776 41.4917 252.04 42.4037 252.016L42.3077 253.24C40.8917 253.336 40.0757 252.808 39.9077 251.68ZM46.1105 253L46.1105 236.512L44.6225 236.824L44.6225 253L46.1105 253ZM59.5518 247.48C59.5518 249.208 59.0478 250.6 58.0158 251.68C56.9838 252.76 55.7118 253.312 54.1518 253.312C52.5918 253.312 51.3198 252.784 50.3358 251.728C49.3518 250.672 48.8478 249.28 48.8478 247.528C48.8478 245.8 49.3758 244.384 50.4078 243.304C51.4398 242.224 52.7118 241.696 54.2718 241.696C55.8318 241.696 57.1038 242.224 58.0878 243.28C59.0718 244.336 59.5518 245.728 59.5518 247.48ZM58.0878 247.528C58.0878 244.816 56.5518 243.04 54.1998 243.04C51.8958 243.04 50.3358 244.84 50.3358 247.48C50.3358 250.192 51.8718 251.968 54.2238 251.968C56.5278 251.968 58.0878 250.168 58.0878 247.528ZM63.8058 245.944L63.8058 253L62.3178 253L62.3178 242.008L63.8058 241.696L63.8058 244.048C64.5978 242.488 65.6778 241.696 67.0458 241.696C67.7418 241.696 68.3658 241.864 68.9658 242.2L68.5818 243.592C68.0538 243.28 67.5018 243.112 66.9018 243.112C65.6778 243.112 64.6458 244.048 63.8058 245.944ZM72.6485 238.384C72.6485 238.696 72.5525 238.936 72.3845 239.152C72.2165 239.368 71.9525 239.488 71.6405 239.488C71.3285 239.488 71.0645 239.368 70.8965 239.152C70.7285 238.936 70.6325 238.696 70.6325 238.384C70.6325 238.096 70.7285 237.856 70.8965 237.64C71.0645 237.424 71.3285 237.328 71.6405 237.328C71.9525 237.328 72.2165 237.424 72.3845 237.64C72.5525 237.856 72.6485 238.096 72.6485 238.384ZM72.3845 253L70.8965 253L70.8965 242.008L72.3845 241.696L72.3845 253ZM76.6802 247.552L76.6802 247.672C76.7522 250.192 78.2402 251.92 80.5202 251.92C81.7202 251.92 82.7762 251.608 83.7122 251.008L84.0002 252.376C82.9922 253 81.8162 253.312 80.4722 253.312C77.3282 253.312 75.1682 250.984 75.1682 247.6C75.1682 245.872 75.6722 244.456 76.6562 243.352C77.6402 242.248 78.8642 241.696 80.3522 241.696C82.8002 241.696 84.3602 243.28 84.3602 245.752C84.3602 246.4 84.2882 246.976 84.1202 247.504L76.6802 247.552ZM76.7762 246.376L82.8722 246.352C82.8962 246.28 82.8962 246.112 82.8962 245.872C82.8962 244.144 81.9602 243.04 80.2562 243.04C78.3602 243.04 77.0402 244.456 76.7762 246.376ZM93.7616 250C93.7616 251.992 92.0816 253.312 89.8256 253.312C88.4576 253.312 87.2576 252.976 86.2256 252.328L86.6336 250.96C87.6416 251.632 88.7216 251.968 89.8736 251.968C91.2656 251.968 92.3456 251.272 92.3456 250.12C92.3456 249.856 92.2976 249.64 92.1776 249.424C92.0576 249.208 91.9136 249.04 91.7936 248.92C91.6736 248.8 91.4336 248.68 91.1216 248.536C90.8096 248.392 90.5696 248.296 90.4256 248.248C90.2816 248.2 89.9936 248.104 89.5856 247.984C87.6656 247.408 86.3936 246.592 86.3936 244.864C86.3936 242.896 87.9536 241.696 90.1136 241.696C91.2896 241.696 92.3936 241.96 93.4496 242.512L93.0176 243.856C92.0336 243.304 91.0256 243.04 90.0176 243.04C88.6736 243.04 87.8096 243.664 87.8096 244.72C87.8096 244.96 87.8576 245.176 87.9776 245.368C88.0976 245.584 88.2176 245.728 88.3376 245.848C88.4576 245.968 88.6736 246.112 88.9856 246.232C89.2736 246.352 89.5136 246.448 89.6816 246.52C89.8496 246.592 90.1376 246.664 90.5216 246.784C92.5136 247.36 93.7616 248.176 93.7616 250Z" fill="#FBFBFB"/>
<path d="M287.509 251.944C289.597 251.944 291.061 250.72 291.061 249.112C291.061 247.48 289.909 246.736 287.269 245.968C286.645 245.776 286.117 245.584 285.685 245.392C285.229 245.224 284.773 244.96 284.317 244.648C283.861 244.336 283.501 243.928 283.261 243.448C283.021 242.968 282.901 242.416 282.901 241.768C282.901 239.392 284.893 237.688 287.701 237.688C289.357 237.688 290.869 238.12 292.213 238.984L291.661 240.328C290.437 239.488 289.141 239.08 287.725 239.08C285.565 239.08 284.389 240.16 284.389 241.648C284.389 243.184 285.517 243.808 288.181 244.648C288.805 244.84 289.333 245.032 289.789 245.224C290.245 245.44 290.701 245.704 291.157 246.016C291.613 246.352 291.949 246.76 292.189 247.264C292.405 247.768 292.525 248.344 292.525 248.992C292.525 251.512 290.461 253.312 287.461 253.312C285.709 253.312 284.101 252.856 282.637 251.92L283.189 250.552C284.557 251.488 285.997 251.944 287.509 251.944ZM300.739 252.784C299.923 253.168 299.107 253.36 298.291 253.36C296.251 253.36 295.267 252.208 295.339 249.904L295.507 243.4L293.827 243.304L293.899 242.368L295.555 241.984L295.627 239.488L297.043 239.488L296.971 242.056L300.643 242.056L300.571 243.376L296.923 243.376L296.755 249.952C296.707 251.32 297.235 252.016 298.363 252.016C298.963 252.016 299.659 251.848 300.475 251.488L300.739 252.784ZM303.84 247.552L303.84 247.672C303.912 250.192 305.4 251.92 307.68 251.92C308.88 251.92 309.936 251.608 310.872 251.008L311.16 252.376C310.152 253 308.976 253.312 307.632 253.312C304.488 253.312 302.328 250.984 302.328 247.6C302.328 245.872 302.832 244.456 303.816 243.352C304.8 242.248 306.024 241.696 307.512 241.696C309.96 241.696 311.52 243.28 311.52 245.752C311.52 246.4 311.448 246.976 311.28 247.504L303.84 247.552ZM303.936 246.376L310.032 246.352C310.056 246.28 310.056 246.112 310.056 245.872C310.056 244.144 309.12 243.04 307.416 243.04C305.52 243.04 304.2 244.456 303.936 246.376ZM315.81 243.112C316.77 242.224 317.826 241.768 319.002 241.768C321.954 241.768 323.922 244.072 323.922 247.456C323.922 249.16 323.418 250.576 322.41 251.656C321.378 252.76 320.082 253.312 318.498 253.312C317.514 253.312 316.626 253.12 315.81 252.736L315.81 258.592L314.322 258.592L314.322 241.96L315.81 241.648L315.81 243.112ZM315.81 244.36L315.81 251.104C316.554 251.68 317.466 251.968 318.57 251.968C320.874 251.968 322.386 250.12 322.386 247.48C322.386 244.912 320.97 243.136 318.762 243.136C317.682 243.136 316.698 243.544 315.81 244.36ZM333.273 250C333.273 251.992 331.593 253.312 329.337 253.312C327.969 253.312 326.769 252.976 325.737 252.328L326.145 250.96C327.153 251.632 328.233 251.968 329.385 251.968C330.777 251.968 331.857 251.272 331.857 250.12C331.857 249.856 331.809 249.64 331.689 249.424C331.569 249.208 331.425 249.04 331.305 248.92C331.185 248.8 330.945 248.68 330.633 248.536C330.321 248.392 330.081 248.296 329.937 248.248C329.793 248.2 329.505 248.104 329.097 247.984C327.177 247.408 325.905 246.592 325.905 244.864C325.905 242.896 327.465 241.696 329.625 241.696C330.801 241.696 331.905 241.96 332.961 242.512L332.529 243.856C331.545 243.304 330.537 243.04 329.529 243.04C328.185 243.04 327.321 243.664 327.321 244.72C327.321 244.96 327.369 245.176 327.489 245.368C327.609 245.584 327.729 245.728 327.849 245.848C327.969 245.968 328.185 246.112 328.497 246.232C328.785 246.352 329.025 246.448 329.193 246.52C329.361 246.592 329.649 246.664 330.033 246.784C332.025 247.36 333.273 248.176 333.273 250Z" fill="#FBFBFB"/>
<path d="M524.624 252L524.624 237L523.088 237L523.088 243.768L514.304 243.768L514.304 237L512.768 237L512.768 252L514.304 252L514.304 245.16L523.088 245.16L523.088 252L524.624 252ZM529.071 246.552L529.071 246.672C529.143 249.192 530.631 250.92 532.911 250.92C534.111 250.92 535.167 250.608 536.103 250.008L536.391 251.376C535.383 252 534.207 252.312 532.863 252.312C529.719 252.312 527.559 249.984 527.559 246.6C527.559 244.872 528.063 243.456 529.047 242.352C530.031 241.248 531.255 240.696 532.743 240.696C535.191 240.696 536.751 242.28 536.751 244.752C536.751 245.4 536.679 245.976 536.511 246.504L529.071 246.552ZM529.167 245.376L535.263 245.352C535.287 245.28 535.287 245.112 535.287 244.872C535.287 243.144 534.351 242.04 532.647 242.04C530.751 242.04 529.431 243.456 529.167 245.376ZM545.288 249.576L545.288 246.36C541.592 246.768 540.176 247.584 540.176 249.096C540.176 250.248 541.112 251.016 542.432 251.016C543.488 251.016 544.448 250.536 545.288 249.576ZM545.384 250.68L545.312 250.68C544.424 251.76 543.368 252.312 542.096 252.312C540.08 252.312 538.616 251.04 538.616 249.264C538.616 246.912 540.848 245.616 545.288 245.352L545.288 244.704C545.288 242.952 544.424 242.088 542.696 242.088C541.544 242.088 540.104 242.664 539.096 243.408L538.76 242.016C539.816 241.272 541.448 240.696 542.84 240.696C545.48 240.696 546.8 242.016 546.776 244.632L546.776 249.912C546.776 250.776 546.968 251.04 547.88 251.016L547.784 252.24C546.368 252.336 545.552 251.808 545.384 250.68ZM551.587 244.944L551.587 252L550.099 252L550.099 241.008L551.587 240.696L551.587 243.048C552.379 241.488 553.459 240.696 554.827 240.696C555.523 240.696 556.147 240.864 556.747 241.2L556.363 242.592C555.835 242.28 555.283 242.112 554.683 242.112C553.459 242.112 552.427 243.048 551.587 244.944ZM564.477 251.784C563.661 252.168 562.845 252.36 562.029 252.36C559.989 252.36 559.005 251.208 559.077 248.904L559.245 242.4L557.565 242.304L557.637 241.368L559.293 240.984L559.365 238.488L560.781 238.488L560.709 241.056L564.381 241.056L564.309 242.376L560.661 242.376L560.493 248.952C560.445 250.32 560.973 251.016 562.101 251.016C562.701 251.016 563.397 250.848 564.213 250.488L564.477 251.784ZM576.504 246.36C576.504 248.088 576 249.504 574.992 250.632C573.96 251.76 572.664 252.312 571.08 252.312C570.144 252.312 569.256 252.12 568.392 251.712L566.904 252.36L566.904 235.824L568.392 235.512L568.392 242.16C569.376 241.224 570.48 240.768 571.704 240.768C574.608 240.768 576.504 243.048 576.504 246.36ZM574.968 246.432C574.968 243.888 573.576 242.136 571.416 242.136C570.288 242.136 569.28 242.544 568.392 243.36L568.392 250.104C569.136 250.68 570.048 250.968 571.152 250.968C573.504 250.968 574.968 249.144 574.968 246.432ZM579.954 246.552L579.954 246.672C580.026 249.192 581.514 250.92 583.794 250.92C584.994 250.92 586.05 250.608 586.986 250.008L587.274 251.376C586.266 252 585.09 252.312 583.746 252.312C580.602 252.312 578.442 249.984 578.442 246.6C578.442 244.872 578.946 243.456 579.93 242.352C580.914 241.248 582.138 240.696 583.626 240.696C586.074 240.696 587.634 242.28 587.634 244.752C587.634 245.4 587.562 245.976 587.394 246.504L579.954 246.552ZM580.05 245.376L586.146 245.352C586.17 245.28 586.17 245.112 586.17 244.872C586.17 243.144 585.234 242.04 583.53 242.04C581.634 242.04 580.314 243.456 580.05 245.376ZM596.171 249.576L596.171 246.36C592.475 246.768 591.059 247.584 591.059 249.096C591.059 250.248 591.995 251.016 593.315 251.016C594.371 251.016 595.331 250.536 596.171 249.576ZM596.267 250.68L596.195 250.68C595.307 251.76 594.251 252.312 592.979 252.312C590.963 252.312 589.499 251.04 589.499 249.264C589.499 246.912 591.731 245.616 596.171 245.352L596.171 244.704C596.171 242.952 595.307 242.088 593.579 242.088C592.427 242.088 590.987 242.664 589.979 243.408L589.643 242.016C590.699 241.272 592.331 240.696 593.723 240.696C596.363 240.696 597.683 242.016 597.659 244.632L597.659 249.912C597.659 250.776 597.851 251.04 598.763 251.016L598.667 252.24C597.251 252.336 596.435 251.808 596.267 250.68ZM606.454 251.784C605.638 252.168 604.822 252.36 604.006 252.36C601.966 252.36 600.982 251.208 601.054 248.904L601.222 242.4L599.542 242.304L599.614 241.368L601.27 240.984L601.342 238.488L602.758 238.488L602.686 241.056L606.358 241.056L606.286 242.376L602.638 242.376L602.47 248.952C602.422 250.32 602.95 251.016 604.078 251.016C604.678 251.016 605.374 250.848 606.19 250.488L606.454 251.784Z" fill="#FBFBFB"/>
<path d="M786.815 239.8L790.847 253L792.335 253L796.535 238L794.999 238L791.639 250.816L787.751 238L785.927 238L782.111 250.816L778.607 238L777.023 238L781.295 253L782.759 253L786.815 239.8ZM798.95 247.552L798.95 247.672C799.022 250.192 800.51 251.92 802.79 251.92C803.99 251.92 805.046 251.608 805.982 251.008L806.27 252.376C805.262 253 804.086 253.312 802.742 253.312C799.598 253.312 797.438 250.984 797.438 247.6C797.438 245.872 797.942 244.456 798.926 243.352C799.91 242.248 801.134 241.696 802.622 241.696C805.07 241.696 806.63 243.28 806.63 245.752C806.63 246.4 806.558 246.976 806.39 247.504L798.95 247.552ZM799.046 246.376L805.142 246.352C805.166 246.28 805.166 246.112 805.166 245.872C805.166 244.144 804.23 243.04 802.526 243.04C800.63 243.04 799.31 244.456 799.046 246.376ZM811.207 238.384C811.207 238.696 811.111 238.936 810.943 239.152C810.775 239.368 810.511 239.488 810.199 239.488C809.887 239.488 809.623 239.368 809.455 239.152C809.287 238.936 809.191 238.696 809.191 238.384C809.191 238.096 809.287 237.856 809.455 237.64C809.623 237.424 809.887 237.328 810.199 237.328C810.511 237.328 810.775 237.424 810.943 237.64C811.111 237.856 811.207 238.096 811.207 238.384ZM810.943 253L809.455 253L809.455 242.008L810.943 241.696L810.943 253ZM815.287 245.848C815.287 247.48 816.391 248.656 818.119 248.656C818.959 248.656 819.607 248.392 820.111 247.84C820.615 247.312 820.855 246.616 820.855 245.776C820.855 244.936 820.615 244.24 820.135 243.712C819.631 243.184 818.935 242.92 818.047 242.92C816.343 242.92 815.287 244.12 815.287 245.848ZM816.583 253.312C815.263 253.672 814.351 254.536 814.351 255.472C814.351 256.792 815.815 257.728 818.095 257.728C820.399 257.728 822.223 256.624 822.223 255.136C822.223 253.888 821.167 253.384 818.887 253.384C817.975 253.384 817.207 253.36 816.583 253.312ZM815.287 253.024C814.303 252.664 813.799 252.088 813.799 251.272C813.799 250.36 814.543 249.568 815.599 249.184C814.423 248.464 813.823 247.336 813.823 245.824C813.823 243.448 815.575 241.696 818.143 241.696C819.103 241.696 819.967 241.912 820.735 242.344L823.783 242.104L823.855 243.592L821.431 243.352C821.935 243.856 822.319 244.912 822.319 245.824C822.319 248.176 820.519 249.856 818.047 249.856C817.543 249.856 817.015 249.76 816.415 249.544C815.599 249.88 815.191 250.312 815.191 250.864C815.191 251.608 815.815 251.992 817.687 251.992L819.103 251.992C822.151 251.992 823.663 252.952 823.663 254.872C823.663 256.048 823.087 257.032 821.959 257.8C820.831 258.568 819.463 258.952 817.879 258.952C814.927 258.952 812.911 257.656 812.911 255.736C812.911 254.488 813.871 253.384 815.287 253.024ZM834.409 253L832.921 253L832.921 245.896C832.921 244.048 832.129 243.112 830.569 243.112C829.345 243.112 828.193 243.64 827.161 244.672L827.161 253L825.673 253L825.673 236.824L827.161 236.512L827.161 243.448C828.337 242.272 829.609 241.696 830.977 241.696C833.137 241.696 834.409 243.04 834.409 245.464L834.409 253ZM843.262 252.784C842.446 253.168 841.63 253.36 840.814 253.36C838.774 253.36 837.79 252.208 837.862 249.904L838.03 243.4L836.35 243.304L836.422 242.368L838.078 241.984L838.15 239.488L839.566 239.488L839.494 242.056L843.166 242.056L843.094 243.376L839.446 243.376L839.278 249.952C839.23 251.32 839.758 252.016 840.886 252.016C841.486 252.016 842.182 251.848 842.998 251.488L843.262 252.784Z" fill="#FBFBFB"/>
<path d="M1013.46 250.944C1015.55 250.944 1017.01 249.72 1017.01 248.112C1017.01 246.48 1015.86 245.736 1013.22 244.968C1012.6 244.776 1012.07 244.584 1011.64 244.392C1011.18 244.224 1010.73 243.96 1010.27 243.648C1009.81 243.336 1009.45 242.928 1009.21 242.448C1008.97 241.968 1008.85 241.416 1008.85 240.768C1008.85 238.392 1010.85 236.688 1013.65 236.688C1015.31 236.688 1016.82 237.12 1018.17 237.984L1017.61 239.328C1016.39 238.488 1015.09 238.08 1013.68 238.08C1011.52 238.08 1010.34 239.16 1010.34 240.648C1010.34 242.184 1011.47 242.808 1014.13 243.648C1014.76 243.84 1015.29 244.032 1015.74 244.224C1016.2 244.44 1016.65 244.704 1017.11 245.016C1017.57 245.352 1017.9 245.76 1018.14 246.264C1018.36 246.768 1018.48 247.344 1018.48 247.992C1018.48 250.512 1016.41 252.312 1013.41 252.312C1011.66 252.312 1010.05 251.856 1008.59 250.92L1009.14 249.552C1010.51 250.488 1011.95 250.944 1013.46 250.944ZM1022.71 252L1022.71 235.512L1021.22 235.824L1021.22 252L1022.71 252ZM1026.96 246.552L1026.96 246.672C1027.03 249.192 1028.52 250.92 1030.8 250.92C1032 250.92 1033.05 250.608 1033.99 250.008L1034.28 251.376C1033.27 252 1032.09 252.312 1030.75 252.312C1027.61 252.312 1025.45 249.984 1025.45 246.6C1025.45 244.872 1025.95 243.456 1026.93 242.352C1027.92 241.248 1029.14 240.696 1030.63 240.696C1033.08 240.696 1034.64 242.28 1034.64 244.752C1034.64 245.4 1034.57 245.976 1034.4 246.504L1026.96 246.552ZM1027.05 245.376L1033.15 245.352C1033.17 245.28 1033.17 245.112 1033.17 244.872C1033.17 243.144 1032.24 242.04 1030.53 242.04C1028.64 242.04 1027.32 243.456 1027.05 245.376ZM1038.23 246.552L1038.23 246.672C1038.3 249.192 1039.79 250.92 1042.07 250.92C1043.27 250.92 1044.33 250.608 1045.26 250.008L1045.55 251.376C1044.54 252 1043.37 252.312 1042.02 252.312C1038.88 252.312 1036.72 249.984 1036.72 246.6C1036.72 244.872 1037.22 243.456 1038.21 242.352C1039.19 241.248 1040.41 240.696 1041.9 240.696C1044.35 240.696 1045.91 242.28 1045.91 244.752C1045.91 245.4 1045.84 245.976 1045.67 246.504L1038.23 246.552ZM1038.33 245.376L1044.42 245.352C1044.45 245.28 1044.45 245.112 1044.45 244.872C1044.45 243.144 1043.51 242.04 1041.81 242.04C1039.91 242.04 1038.59 243.456 1038.33 245.376ZM1050.2 242.112C1051.16 241.224 1052.22 240.768 1053.39 240.768C1056.34 240.768 1058.31 243.072 1058.31 246.456C1058.31 248.16 1057.81 249.576 1056.8 250.656C1055.77 251.76 1054.47 252.312 1052.89 252.312C1051.9 252.312 1051.02 252.12 1050.2 251.736L1050.2 257.592L1048.71 257.592L1048.71 240.96L1050.2 240.648L1050.2 242.112ZM1050.2 243.36L1050.2 250.104C1050.94 250.68 1051.86 250.968 1052.96 250.968C1055.26 250.968 1056.78 249.12 1056.78 246.48C1056.78 243.912 1055.36 242.136 1053.15 242.136C1052.07 242.136 1051.09 242.544 1050.2 243.36ZM1065.58 246.864L1065.58 245.472L1060.15 245.472L1060.15 246.864L1065.58 246.864ZM1076.14 251.376C1075.13 252 1074 252.312 1072.73 252.312C1069.44 252.312 1067.35 250.008 1067.35 246.528C1067.35 244.824 1067.86 243.408 1068.89 242.328C1069.9 241.248 1071.19 240.696 1072.75 240.696C1074.07 240.696 1075.2 241.008 1076.18 241.632L1075.8 242.976C1074.91 242.376 1073.88 242.088 1072.75 242.088C1070.38 242.088 1068.89 243.84 1068.89 246.48C1068.89 249.192 1070.42 250.92 1072.78 250.92C1073.88 250.92 1074.89 250.608 1075.82 250.008L1076.14 251.376ZM1087.25 241.008L1082.98 251.88L1082.09 254.256C1081.13 256.872 1080.12 257.712 1078.54 257.712C1077.89 257.712 1077.2 257.544 1076.4 257.208L1076.86 255.84C1077.46 256.152 1078.01 256.32 1078.54 256.32C1079.45 256.32 1080.05 255.768 1080.8 253.776L1081.54 251.832L1077.24 241.008L1078.85 241.008L1082.31 250.08L1085.69 241.008L1087.25 241.008ZM1097.02 251.376C1096.01 252 1094.88 252.312 1093.61 252.312C1090.32 252.312 1088.23 250.008 1088.23 246.528C1088.23 244.824 1088.74 243.408 1089.77 242.328C1090.78 241.248 1092.07 240.696 1093.63 240.696C1094.95 240.696 1096.08 241.008 1097.07 241.632L1096.68 242.976C1095.79 242.376 1094.76 242.088 1093.63 242.088C1091.26 242.088 1089.77 243.84 1089.77 246.48C1089.77 249.192 1091.31 250.92 1093.66 250.92C1094.76 250.92 1095.77 250.608 1096.71 250.008L1097.02 251.376ZM1101.27 252L1101.27 235.512L1099.78 235.824L1099.78 252L1101.27 252ZM1105.52 246.552L1105.52 246.672C1105.59 249.192 1107.08 250.92 1109.36 250.92C1110.56 250.92 1111.62 250.608 1112.55 250.008L1112.84 251.376C1111.83 252 1110.66 252.312 1109.31 252.312C1106.17 252.312 1104.01 249.984 1104.01 246.6C1104.01 244.872 1104.51 243.456 1105.5 242.352C1106.48 241.248 1107.7 240.696 1109.19 240.696C1111.64 240.696 1113.2 242.28 1113.2 244.752C1113.2 245.4 1113.13 245.976 1112.96 246.504L1105.52 246.552ZM1105.62 245.376L1111.71 245.352C1111.74 245.28 1111.74 245.112 1111.74 244.872C1111.74 243.144 1110.8 242.04 1109.1 242.04C1107.2 242.04 1105.88 243.456 1105.62 245.376Z" fill="#FBFBFB"/>
<path d="M99.032 183.12C99.032 180.936 99.752 178.968 101.168 177.216C102.584 175.488 104.6 174.312 107.264 173.688L107.864 175.56C104.144 176.496 101.912 178.368 101.168 181.176L101.216 181.2C102.296 180.216 103.568 179.712 105.032 179.712C107.504 179.712 109.424 181.608 109.424 184.368C109.424 187.272 107.408 189.36 104.312 189.36C102.656 189.36 101.384 188.76 100.448 187.56C99.512 186.384 99.032 184.896 99.032 183.12ZM101.12 183.744C101.12 185.856 102.416 187.536 104.408 187.536C106.232 187.536 107.432 186.288 107.432 184.464C107.432 182.664 106.232 181.464 104.504 181.464C103.208 181.464 101.984 182.064 101.24 182.736C101.168 183.024 101.12 183.36 101.12 183.744ZM111.407 183.12C111.407 180.936 112.127 178.968 113.543 177.216C114.959 175.488 116.975 174.312 119.639 173.688L120.239 175.56C116.519 176.496 114.287 178.368 113.543 181.176L113.591 181.2C114.671 180.216 115.943 179.712 117.407 179.712C119.879 179.712 121.799 181.608 121.799 184.368C121.799 187.272 119.783 189.36 116.687 189.36C115.031 189.36 113.759 188.76 112.823 187.56C111.887 186.384 111.407 184.896 111.407 183.12ZM113.495 183.744C113.495 185.856 114.791 187.536 116.783 187.536C118.607 187.536 119.807 186.288 119.807 184.464C119.807 182.664 118.607 181.464 116.879 181.464C115.583 181.464 114.359 182.064 113.615 182.736C113.543 183.024 113.495 183.36 113.495 183.744ZM125.204 186.288C125.636 186.288 125.996 186.432 126.284 186.72C126.572 187.032 126.716 187.392 126.716 187.8C126.716 188.208 126.572 188.568 126.284 188.88C125.996 189.192 125.636 189.36 125.204 189.36C124.748 189.36 124.388 189.192 124.1 188.88C123.788 188.568 123.644 188.208 123.644 187.8C123.644 187.392 123.788 187.032 124.1 186.72C124.388 186.432 124.748 186.288 125.204 186.288ZM135.859 179.592L129.211 193.416L131.227 193.416L137.995 179.352L137.995 177.648L128.035 177.648L127.963 179.592L135.859 179.592ZM146.804 177.432C146.804 179.64 145.244 181.392 142.82 181.392C140.444 181.392 138.836 179.64 138.836 177.432C138.836 176.304 139.196 175.368 139.94 174.576C140.66 173.808 141.62 173.424 142.82 173.424C144.02 173.424 144.98 173.808 145.724 174.576C146.444 175.344 146.804 176.304 146.804 177.432ZM154.124 173.664L142.172 189.36L140.66 189.36L152.612 173.664L154.124 173.664ZM155.924 185.592C155.924 186.72 155.564 187.656 154.844 188.424C154.1 189.216 153.14 189.6 151.94 189.6C150.74 189.6 149.78 189.216 149.06 188.448C148.316 187.68 147.956 186.72 147.956 185.592C147.956 183.384 149.54 181.632 151.94 181.632C154.316 181.632 155.924 183.384 155.924 185.592ZM145.508 177.432C145.508 176.64 145.268 175.992 144.788 175.464C144.284 174.936 143.636 174.672 142.82 174.672C142.004 174.672 141.356 174.936 140.876 175.464C140.372 175.992 140.132 176.64 140.132 177.432C140.132 178.176 140.372 178.824 140.876 179.352C141.356 179.88 142.004 180.144 142.82 180.144C143.636 180.144 144.284 179.88 144.788 179.352C145.268 178.824 145.508 178.176 145.508 177.432ZM154.628 185.592C154.628 184.848 154.388 184.2 153.908 183.672C153.404 183.144 152.756 182.88 151.94 182.88C151.124 182.88 150.476 183.144 149.996 183.672C149.492 184.2 149.252 184.848 149.252 185.592C149.252 186.384 149.492 187.032 149.996 187.56C150.476 188.088 151.124 188.352 151.94 188.352C152.756 188.352 153.404 188.088 153.908 187.56C154.388 187.032 154.628 186.384 154.628 185.592Z" fill="#FBFBFB"/>
<path d="M350.032 183.12C350.032 180.936 350.752 178.968 352.168 177.216C353.584 175.488 355.6 174.312 358.264 173.688L358.864 175.56C355.144 176.496 352.912 178.368 352.168 181.176L352.216 181.2C353.296 180.216 354.568 179.712 356.032 179.712C358.504 179.712 360.424 181.608 360.424 184.368C360.424 187.272 358.408 189.36 355.312 189.36C353.656 189.36 352.384 188.76 351.448 187.56C350.512 186.384 350.032 184.896 350.032 183.12ZM352.12 183.744C352.12 185.856 353.416 187.536 355.408 187.536C357.232 187.536 358.432 186.288 358.432 184.464C358.432 182.664 357.232 181.464 355.504 181.464C354.208 181.464 352.984 182.064 352.24 182.736C352.168 183.024 352.12 183.36 352.12 183.744ZM362.407 183.12C362.407 180.936 363.127 178.968 364.543 177.216C365.959 175.488 367.975 174.312 370.639 173.688L371.239 175.56C367.519 176.496 365.287 178.368 364.543 181.176L364.591 181.2C365.671 180.216 366.943 179.712 368.407 179.712C370.879 179.712 372.799 181.608 372.799 184.368C372.799 187.272 370.783 189.36 367.687 189.36C366.031 189.36 364.759 188.76 363.823 187.56C362.887 186.384 362.407 184.896 362.407 183.12ZM364.495 183.744C364.495 185.856 365.791 187.536 367.783 187.536C369.607 187.536 370.807 186.288 370.807 184.464C370.807 182.664 369.607 181.464 367.879 181.464C366.583 181.464 365.359 182.064 364.615 182.736C364.543 183.024 364.495 183.36 364.495 183.744ZM376.204 186.288C376.636 186.288 376.996 186.432 377.284 186.72C377.572 187.032 377.716 187.392 377.716 187.8C377.716 188.208 377.572 188.568 377.284 188.88C376.996 189.192 376.636 189.36 376.204 189.36C375.748 189.36 375.388 189.192 375.1 188.88C374.788 188.568 374.644 188.208 374.644 187.8C374.644 187.392 374.788 187.032 375.1 186.72C375.388 186.432 375.748 186.288 376.204 186.288ZM386.859 179.592L380.211 193.416L382.227 193.416L388.995 179.352L388.995 177.648L379.035 177.648L378.963 179.592L386.859 179.592ZM397.804 177.432C397.804 179.64 396.244 181.392 393.82 181.392C391.444 181.392 389.836 179.64 389.836 177.432C389.836 176.304 390.196 175.368 390.94 174.576C391.66 173.808 392.62 173.424 393.82 173.424C395.02 173.424 395.98 173.808 396.724 174.576C397.444 175.344 397.804 176.304 397.804 177.432ZM405.124 173.664L393.172 189.36L391.66 189.36L403.612 173.664L405.124 173.664ZM406.924 185.592C406.924 186.72 406.564 187.656 405.844 188.424C405.1 189.216 404.14 189.6 402.94 189.6C401.74 189.6 400.78 189.216 400.06 188.448C399.316 187.68 398.956 186.72 398.956 185.592C398.956 183.384 400.54 181.632 402.94 181.632C405.316 181.632 406.924 183.384 406.924 185.592ZM396.508 177.432C396.508 176.64 396.268 175.992 395.788 175.464C395.284 174.936 394.636 174.672 393.82 174.672C393.004 174.672 392.356 174.936 391.876 175.464C391.372 175.992 391.132 176.64 391.132 177.432C391.132 178.176 391.372 178.824 391.876 179.352C392.356 179.88 393.004 180.144 393.82 180.144C394.636 180.144 395.284 179.88 395.788 179.352C396.268 178.824 396.508 178.176 396.508 177.432ZM405.628 185.592C405.628 184.848 405.388 184.2 404.908 183.672C404.404 183.144 403.756 182.88 402.94 182.88C402.124 182.88 401.476 183.144 400.996 183.672C400.492 184.2 400.252 184.848 400.252 185.592C400.252 186.384 400.492 187.032 400.996 187.56C401.476 188.088 402.124 188.352 402.94 188.352C403.756 188.352 404.404 188.088 404.908 187.56C405.388 187.032 405.628 186.384 405.628 185.592Z" fill="#FBFBFB"/>
<path d="M604.024 183.84C604.816 183.768 605.392 183.72 605.728 183.72C608.872 183.72 610.888 185.52 610.888 188.328C610.888 189.84 610.384 191.088 609.376 192.048C608.344 193.008 607.096 193.488 605.608 193.488C604 193.488 602.608 193.152 601.432 192.456L601.792 190.512C603.112 191.256 604.408 191.616 605.632 191.616C607.528 191.616 608.872 190.344 608.872 188.424C608.872 186.744 607.576 185.424 605.488 185.424C604.432 185.424 603.448 185.568 602.536 185.832L602.008 185.352L602.992 177.648L610.48 177.648L610.552 179.592L604.6 179.592L604.024 183.84ZM622.401 178.992C623.481 180.12 624.009 181.56 624.009 183.336C624.009 185.112 623.481 186.552 622.401 187.68C621.321 188.808 619.905 189.36 618.201 189.36C616.497 189.36 615.105 188.808 614.025 187.68C612.945 186.576 612.417 185.136 612.417 183.336C612.417 181.536 612.945 180.096 614.025 178.968C615.105 177.864 616.497 177.312 618.201 177.312C619.905 177.312 621.321 177.864 622.401 178.992ZM620.985 186.312C621.681 185.52 622.041 184.536 622.041 183.336C622.041 182.136 621.681 181.152 620.985 180.36C620.265 179.568 619.329 179.184 618.201 179.184C617.073 179.184 616.137 179.568 615.441 180.336C614.745 181.128 614.385 182.112 614.385 183.336C614.385 184.56 614.745 185.544 615.441 186.312C616.137 187.104 617.073 187.488 618.201 187.488C619.329 187.488 620.265 187.104 620.985 186.312ZM633.445 177.432C633.445 179.64 631.885 181.392 629.461 181.392C627.085 181.392 625.477 179.64 625.477 177.432C625.477 176.304 625.837 175.368 626.581 174.576C627.301 173.808 628.261 173.424 629.461 173.424C630.661 173.424 631.621 173.808 632.365 174.576C633.085 175.344 633.445 176.304 633.445 177.432ZM640.765 173.664L628.813 189.36L627.301 189.36L639.253 173.664L640.765 173.664ZM642.565 185.592C642.565 186.72 642.205 187.656 641.485 188.424C640.741 189.216 639.781 189.6 638.581 189.6C637.381 189.6 636.421 189.216 635.701 188.448C634.957 187.68 634.597 186.72 634.597 185.592C634.597 183.384 636.181 181.632 638.581 181.632C640.957 181.632 642.565 183.384 642.565 185.592ZM632.149 177.432C632.149 176.64 631.909 175.992 631.429 175.464C630.925 174.936 630.277 174.672 629.461 174.672C628.645 174.672 627.997 174.936 627.517 175.464C627.013 175.992 626.773 176.64 626.773 177.432C626.773 178.176 627.013 178.824 627.517 179.352C627.997 179.88 628.645 180.144 629.461 180.144C630.277 180.144 630.925 179.88 631.429 179.352C631.909 178.824 632.149 178.176 632.149 177.432ZM641.269 185.592C641.269 184.848 641.029 184.2 640.549 183.672C640.045 183.144 639.397 182.88 638.581 182.88C637.765 182.88 637.117 183.144 636.637 183.672C636.133 184.2 635.893 184.848 635.893 185.592C635.893 186.384 636.133 187.032 636.637 187.56C637.117 188.088 637.765 188.352 638.581 188.352C639.397 188.352 640.045 188.088 640.549 187.56C641.029 187.032 641.269 186.384 641.269 185.592Z" fill="#FBFBFB"/>
<path d="M858.48 184.92C860.76 185.28 862.008 186.888 862.008 188.712C862.008 190.176 861.48 191.352 860.448 192.192C859.392 193.056 858.072 193.488 856.488 193.488C854.784 193.488 853.416 193.176 852.432 192.576L852.792 190.728C853.728 191.376 854.976 191.688 856.512 191.688C858.6 191.688 859.944 190.68 859.944 188.856C859.944 187.248 858.672 186.408 856.68 186.336C856.08 186.312 855.336 186.384 854.472 186.528L854.472 184.824C857.712 184.08 859.32 182.928 859.32 181.392C859.32 179.952 858.336 179.16 856.608 179.16C855.552 179.16 854.4 179.616 853.152 180.552L852.456 178.872C853.776 177.84 855.24 177.312 856.824 177.312C859.728 177.312 861.48 178.848 861.48 181.104C861.48 182.808 860.184 184.248 858.48 184.92ZM868.957 184.92C871.237 185.28 872.485 186.888 872.485 188.712C872.485 190.176 871.957 191.352 870.925 192.192C869.869 193.056 868.549 193.488 866.965 193.488C865.261 193.488 863.893 193.176 862.909 192.576L863.269 190.728C864.205 191.376 865.453 191.688 866.989 191.688C869.077 191.688 870.421 190.68 870.421 188.856C870.421 187.248 869.149 186.408 867.157 186.336C866.557 186.312 865.813 186.384 864.949 186.528L864.949 184.824C868.189 184.08 869.797 182.928 869.797 181.392C869.797 179.952 868.813 179.16 867.085 179.16C866.029 179.16 864.877 179.616 863.629 180.552L862.933 178.872C864.253 177.84 865.717 177.312 867.301 177.312C870.205 177.312 871.957 178.848 871.957 181.104C871.957 182.808 870.661 184.248 868.957 184.92ZM876.25 186.288C876.682 186.288 877.042 186.432 877.33 186.72C877.618 187.032 877.762 187.392 877.762 187.8C877.762 188.208 877.618 188.568 877.33 188.88C877.042 189.192 876.682 189.36 876.25 189.36C875.794 189.36 875.434 189.192 875.146 188.88C874.834 188.568 874.69 188.208 874.69 187.8C874.69 187.392 874.834 187.032 875.146 186.72C875.434 186.432 875.794 186.288 876.25 186.288ZM885.082 184.92C887.362 185.28 888.61 186.888 888.61 188.712C888.61 190.176 888.082 191.352 887.05 192.192C885.994 193.056 884.674 193.488 883.09 193.488C881.386 193.488 880.018 193.176 879.034 192.576L879.394 190.728C880.33 191.376 881.578 191.688 883.114 191.688C885.202 191.688 886.546 190.68 886.546 188.856C886.546 187.248 885.274 186.408 883.282 186.336C882.682 186.312 881.938 186.384 881.074 186.528L881.074 184.824C884.314 184.08 885.922 182.928 885.922 181.392C885.922 179.952 884.938 179.16 883.21 179.16C882.154 179.16 881.002 179.616 879.754 180.552L879.058 178.872C880.378 177.84 881.842 177.312 883.426 177.312C886.33 177.312 888.082 178.848 888.082 181.104C888.082 182.808 886.786 184.248 885.082 184.92ZM897.382 177.432C897.382 179.64 895.822 181.392 893.398 181.392C891.022 181.392 889.414 179.64 889.414 177.432C889.414 176.304 889.774 175.368 890.518 174.576C891.238 173.808 892.198 173.424 893.398 173.424C894.598 173.424 895.558 173.808 896.302 174.576C897.022 175.344 897.382 176.304 897.382 177.432ZM904.702 173.664L892.75 189.36L891.238 189.36L903.19 173.664L904.702 173.664ZM906.502 185.592C906.502 186.72 906.142 187.656 905.422 188.424C904.678 189.216 903.718 189.6 902.518 189.6C901.318 189.6 900.358 189.216 899.638 188.448C898.894 187.68 898.534 186.72 898.534 185.592C898.534 183.384 900.118 181.632 902.518 181.632C904.894 181.632 906.502 183.384 906.502 185.592ZM896.086 177.432C896.086 176.64 895.846 175.992 895.366 175.464C894.862 174.936 894.214 174.672 893.398 174.672C892.582 174.672 891.934 174.936 891.454 175.464C890.95 175.992 890.71 176.64 890.71 177.432C890.71 178.176 890.95 178.824 891.454 179.352C891.934 179.88 892.582 180.144 893.398 180.144C894.214 180.144 894.862 179.88 895.366 179.352C895.846 178.824 896.086 178.176 896.086 177.432ZM905.206 185.592C905.206 184.848 904.966 184.2 904.486 183.672C903.982 183.144 903.334 182.88 902.518 182.88C901.702 182.88 901.054 183.144 900.574 183.672C900.07 184.2 899.83 184.848 899.83 185.592C899.83 186.384 900.07 187.032 900.574 187.56C901.054 188.088 901.702 188.352 902.518 188.352C903.334 188.352 903.982 188.088 904.486 187.56C904.966 187.032 905.206 186.384 905.206 185.592Z" fill="#FBFBFB"/>
<path d="M1106.86 189L1108.81 189L1108.81 177.288L1104.01 178.872L1104.08 180.672L1106.86 179.784L1106.86 189ZM1112.26 183.12C1112.26 180.936 1112.98 178.968 1114.39 177.216C1115.81 175.488 1117.83 174.312 1120.49 173.688L1121.09 175.56C1117.37 176.496 1115.14 178.368 1114.39 181.176L1114.44 181.2C1115.52 180.216 1116.79 179.712 1118.26 179.712C1120.73 179.712 1122.65 181.608 1122.65 184.368C1122.65 187.272 1120.63 189.36 1117.54 189.36C1115.88 189.36 1114.61 188.76 1113.67 187.56C1112.74 186.384 1112.26 184.896 1112.26 183.12ZM1114.35 183.744C1114.35 185.856 1115.64 187.536 1117.63 187.536C1119.46 187.536 1120.66 186.288 1120.66 184.464C1120.66 182.664 1119.46 181.464 1117.73 181.464C1116.43 181.464 1115.21 182.064 1114.47 182.736C1114.39 183.024 1114.35 183.36 1114.35 183.744ZM1126.06 186.288C1126.49 186.288 1126.85 186.432 1127.14 186.72C1127.42 187.032 1127.57 187.392 1127.57 187.8C1127.57 188.208 1127.42 188.568 1127.14 188.88C1126.85 189.192 1126.49 189.36 1126.06 189.36C1125.6 189.36 1125.24 189.192 1124.95 188.88C1124.64 188.568 1124.5 188.208 1124.5 187.8C1124.5 187.392 1124.64 187.032 1124.95 186.72C1125.24 186.432 1125.6 186.288 1126.06 186.288ZM1136.71 179.592L1130.06 193.416L1132.08 193.416L1138.85 179.352L1138.85 177.648L1128.89 177.648L1128.81 179.592L1136.71 179.592ZM1147.66 177.432C1147.66 179.64 1146.1 181.392 1143.67 181.392C1141.3 181.392 1139.69 179.64 1139.69 177.432C1139.69 176.304 1140.05 175.368 1140.79 174.576C1141.51 173.808 1142.47 173.424 1143.67 173.424C1144.87 173.424 1145.83 173.808 1146.58 174.576C1147.3 175.344 1147.66 176.304 1147.66 177.432ZM1154.98 173.664L1143.02 189.36L1141.51 189.36L1153.46 173.664L1154.98 173.664ZM1156.78 185.592C1156.78 186.72 1156.42 187.656 1155.7 188.424C1154.95 189.216 1153.99 189.6 1152.79 189.6C1151.59 189.6 1150.63 189.216 1149.91 188.448C1149.17 187.68 1148.81 186.72 1148.81 185.592C1148.81 183.384 1150.39 181.632 1152.79 181.632C1155.17 181.632 1156.78 183.384 1156.78 185.592ZM1146.36 177.432C1146.36 176.64 1146.12 175.992 1145.64 175.464C1145.14 174.936 1144.49 174.672 1143.67 174.672C1142.86 174.672 1142.21 174.936 1141.73 175.464C1141.22 175.992 1140.98 176.64 1140.98 177.432C1140.98 178.176 1141.22 178.824 1141.73 179.352C1142.21 179.88 1142.86 180.144 1143.67 180.144C1144.49 180.144 1145.14 179.88 1145.64 179.352C1146.12 178.824 1146.36 178.176 1146.36 177.432ZM1155.48 185.592C1155.48 184.848 1155.24 184.2 1154.76 183.672C1154.26 183.144 1153.61 182.88 1152.79 182.88C1151.98 182.88 1151.33 183.144 1150.85 183.672C1150.34 184.2 1150.1 184.848 1150.1 185.592C1150.1 186.384 1150.34 187.032 1150.85 187.56C1151.33 188.088 1151.98 188.352 1152.79 188.352C1153.61 188.352 1154.26 188.088 1154.76 187.56C1155.24 187.032 1155.48 186.384 1155.48 185.592Z" fill="#FBFBFB"/>
<rect x="31" y="190" width="190" height="50.0001" rx="10" transform="rotate(-90 31 190)" fill="#EC8539" fill-opacity="0.2"/>
<rect x="282" y="189" width="189" height="49.0001" rx="10" transform="rotate(-90 282 189)" fill="#EC8539" fill-opacity="0.2"/>
<rect x="534" y="189" width="189" height="49.0001" rx="10" transform="rotate(-90 534 189)" fill="#EC8539" fill-opacity="0.2"/>
<rect x="785" y="189" width="189" height="49.0001" rx="10" transform="rotate(-90 785 189)" fill="#EC8539" fill-opacity="0.2"/>
<rect x="1036" y="189" width="189" height="49.0001" rx="10" transform="rotate(-90 1036 189)" fill="#EC8539" fill-opacity="0.2"/>
<rect x="31" y="190" width="126.73" height="50.0001" rx="10" transform="rotate(-90 31 190)" fill="#EC8539"/>
<rect x="282" y="189" width="127" height="49" rx="10" transform="rotate(-90 282 189)" fill="#EC8539"/>
<rect x="534" y="189" width="94.5" height="49.0001" rx="10" transform="rotate(-90 534 189)" fill="#EC8539"/>
<rect x="785" y="189" width="62.937" height="49.0001" rx="10" transform="rotate(-90 785 189)" fill="#EC8539"/>
<rect x="1036" y="189" width="31.563" height="49.0001" rx="10" transform="rotate(-90 1036 189)" fill="#EC8539"/>
</svg>
