<svg width="1186" height="303" viewBox="0 0 1186 303" fill="none" xmlns="http://www.w3.org/2000/svg">
<path d="M35.88 244.912L35.4 246.28C34.152 245.488 32.76 245.08 31.224 245.08C27.84 245.08 25.56 247.456 25.56 251.488C25.56 255.448 27.792 257.92 31.272 257.92C32.88 257.92 34.272 257.464 35.472 256.576L35.76 258.088C34.512 258.904 33 259.312 31.248 259.312C29.064 259.312 27.312 258.616 25.992 257.2C24.672 255.784 24 253.912 24 251.536C24 249.16 24.672 247.264 26.04 245.824C27.384 244.408 29.112 243.688 31.248 243.688C33 243.688 34.536 244.096 35.88 244.912ZM44.3985 256.576V253.36C40.7025 253.768 39.2865 254.584 39.2865 256.096C39.2865 257.248 40.2225 258.016 41.5425 258.016C42.5985 258.016 43.5585 257.536 44.3985 256.576ZM44.4945 257.68H44.4225C43.5345 258.76 42.4785 259.312 41.2065 259.312C39.1905 259.312 37.7265 258.04 37.7265 256.264C37.7265 253.912 39.9585 252.616 44.3985 252.352V251.704C44.3985 249.952 43.5345 249.088 41.8065 249.088C40.6545 249.088 39.2145 249.664 38.2065 250.408L37.8705 249.016C38.9265 248.272 40.5585 247.696 41.9505 247.696C44.5905 247.696 45.9105 249.016 45.8865 251.632V256.912C45.8865 257.776 46.0785 258.04 46.9905 258.016L46.8945 259.24C45.4785 259.336 44.6625 258.808 44.4945 257.68ZM50.6973 259V242.512L49.2093 242.824V259H50.6973ZM64.1386 253.48C64.1386 255.208 63.6346 256.6 62.6026 257.68C61.5706 258.76 60.2986 259.312 58.7386 259.312C57.1786 259.312 55.9066 258.784 54.9226 257.728C53.9386 256.672 53.4346 255.28 53.4346 253.528C53.4346 251.8 53.9626 250.384 54.9946 249.304C56.0266 248.224 57.2986 247.696 58.8586 247.696C60.4186 247.696 61.6906 248.224 62.6746 249.28C63.6586 250.336 64.1386 251.728 64.1386 253.48ZM62.6746 253.528C62.6746 250.816 61.1386 249.04 58.7866 249.04C56.4826 249.04 54.9226 250.84 54.9226 253.48C54.9226 256.192 56.4586 257.968 58.8106 257.968C61.1146 257.968 62.6746 256.168 62.6746 253.528ZM68.3926 251.944V259H66.9046V248.008L68.3926 247.696V250.048C69.1846 248.488 70.2646 247.696 71.6326 247.696C72.3286 247.696 72.9526 247.864 73.5526 248.2L73.1686 249.592C72.6406 249.28 72.0886 249.112 71.4886 249.112C70.2646 249.112 69.2326 250.048 68.3926 251.944ZM77.2353 244.384C77.2353 244.696 77.1393 244.936 76.9713 245.152C76.8033 245.368 76.5393 245.488 76.2273 245.488C75.9153 245.488 75.6513 245.368 75.4833 245.152C75.3153 244.936 75.2193 244.696 75.2193 244.384C75.2193 244.096 75.3153 243.856 75.4833 243.64C75.6513 243.424 75.9153 243.328 76.2273 243.328C76.5393 243.328 76.8033 243.424 76.9713 243.64C77.1393 243.856 77.2353 244.096 77.2353 244.384ZM76.9713 259H75.4833V248.008L76.9713 247.696V259ZM81.267 253.552V253.672C81.339 256.192 82.827 257.92 85.107 257.92C86.307 257.92 87.363 257.608 88.299 257.008L88.587 258.376C87.579 259 86.403 259.312 85.059 259.312C81.915 259.312 79.755 256.984 79.755 253.6C79.755 251.872 80.259 250.456 81.243 249.352C82.227 248.248 83.451 247.696 84.939 247.696C87.387 247.696 88.947 249.28 88.947 251.752C88.947 252.4 88.875 252.976 88.707 253.504L81.267 253.552ZM81.363 252.376L87.459 252.352C87.483 252.28 87.483 252.112 87.483 251.872C87.483 250.144 86.547 249.04 84.843 249.04C82.947 249.04 81.627 250.456 81.363 252.376ZM98.3484 256C98.3484 257.992 96.6684 259.312 94.4124 259.312C93.0444 259.312 91.8444 258.976 90.8124 258.328L91.2204 256.96C92.2284 257.632 93.3084 257.968 94.4604 257.968C95.8524 257.968 96.9324 257.272 96.9324 256.12C96.9324 255.856 96.8844 255.64 96.7644 255.424C96.6444 255.208 96.5004 255.04 96.3804 254.92C96.2604 254.8 96.0204 254.68 95.7084 254.536C95.3964 254.392 95.1564 254.296 95.0124 254.248C94.8684 254.2 94.5804 254.104 94.1724 253.984C92.2524 253.408 90.9804 252.592 90.9804 250.864C90.9804 248.896 92.5404 247.696 94.7004 247.696C95.8764 247.696 96.9804 247.96 98.0364 248.512L97.6044 249.856C96.6204 249.304 95.6124 249.04 94.6044 249.04C93.2604 249.04 92.3964 249.664 92.3964 250.72C92.3964 250.96 92.4444 251.176 92.5644 251.368C92.6844 251.584 92.8044 251.728 92.9244 251.848C93.0444 251.968 93.2604 252.112 93.5724 252.232C93.8604 252.352 94.1004 252.448 94.2684 252.52C94.4364 252.592 94.7244 252.664 95.1084 252.784C97.1004 253.36 98.3484 254.176 98.3484 256Z" fill="#111115"/>
<path d="M292.096 257.943C294.184 257.943 295.648 256.719 295.648 255.111C295.648 253.479 294.496 252.735 291.856 251.967C291.232 251.775 290.704 251.583 290.272 251.391C289.816 251.223 289.36 250.959 288.904 250.647C288.448 250.335 288.088 249.927 287.848 249.447C287.608 248.967 287.488 248.416 287.488 247.768C287.488 245.392 289.48 243.688 292.288 243.688C293.944 243.688 295.456 244.119 296.8 244.983L296.248 246.327C295.024 245.487 293.728 245.079 292.312 245.079C290.152 245.079 288.976 246.159 288.976 247.647C288.976 249.183 290.104 249.807 292.768 250.647C293.392 250.839 293.92 251.031 294.376 251.223C294.832 251.439 295.288 251.704 295.744 252.016C296.2 252.352 296.536 252.76 296.776 253.264C296.992 253.768 297.112 254.344 297.112 254.992C297.112 257.512 295.048 259.311 292.048 259.311C290.296 259.311 288.688 258.855 287.224 257.919L287.776 256.551C289.144 257.487 290.584 257.943 292.096 257.943ZM305.326 258.783C304.51 259.167 303.694 259.359 302.878 259.359C300.838 259.359 299.854 258.208 299.926 255.904L300.094 249.399L298.414 249.303L298.486 248.367L300.142 247.983L300.214 245.488H301.63L301.558 248.055H305.23L305.158 249.376H301.51L301.342 255.951C301.294 257.319 301.822 258.016 302.95 258.016C303.55 258.016 304.246 257.848 305.062 257.488L305.326 258.783ZM308.427 253.551V253.671C308.499 256.191 309.987 257.919 312.267 257.919C313.467 257.919 314.523 257.607 315.459 257.007L315.747 258.376C314.739 259 313.563 259.311 312.219 259.311C309.075 259.311 306.915 256.984 306.915 253.6C306.915 251.872 307.419 250.456 308.403 249.352C309.387 248.248 310.611 247.695 312.099 247.695C314.547 247.695 316.107 249.279 316.107 251.751C316.107 252.399 316.035 252.975 315.867 253.503L308.427 253.551ZM308.523 252.376L314.619 252.352C314.643 252.28 314.643 252.111 314.643 251.871C314.643 250.143 313.707 249.039 312.003 249.039C310.107 249.039 308.787 250.456 308.523 252.376ZM320.397 249.111C321.357 248.223 322.413 247.768 323.589 247.768C326.541 247.768 328.509 250.071 328.509 253.455C328.509 255.159 328.005 256.576 326.997 257.656C325.965 258.76 324.669 259.311 323.085 259.311C322.101 259.311 321.213 259.119 320.397 258.735V264.592H318.909V247.96L320.397 247.647V249.111ZM320.397 250.359V257.104C321.141 257.68 322.053 257.967 323.157 257.967C325.461 257.967 326.973 256.119 326.973 253.479C326.973 250.911 325.557 249.135 323.349 249.135C322.269 249.135 321.285 249.543 320.397 250.359ZM337.86 255.999C337.86 257.991 336.18 259.311 333.924 259.311C332.556 259.311 331.356 258.975 330.324 258.327L330.732 256.96C331.74 257.632 332.82 257.967 333.972 257.967C335.364 257.967 336.444 257.271 336.444 256.119C336.444 255.855 336.396 255.639 336.276 255.423C336.156 255.207 336.012 255.039 335.892 254.919C335.772 254.799 335.532 254.679 335.22 254.535C334.908 254.391 334.668 254.295 334.524 254.247C334.38 254.199 334.092 254.103 333.684 253.983C331.764 253.407 330.492 252.591 330.492 250.863C330.492 248.895 332.052 247.695 334.212 247.695C335.388 247.695 336.492 247.959 337.548 248.511L337.116 249.855C336.132 249.303 335.124 249.039 334.116 249.039C332.772 249.039 331.908 249.663 331.908 250.719C331.908 250.959 331.956 251.175 332.076 251.367C332.196 251.583 332.316 251.728 332.436 251.848C332.556 251.968 332.772 252.111 333.084 252.231C333.372 252.351 333.612 252.448 333.78 252.52C333.948 252.592 334.236 252.663 334.62 252.783C336.612 253.359 337.86 254.175 337.86 255.999Z" fill="#111115"/>
<path d="M529.211 258V243H527.675V249.768H518.891V243H517.355V258H518.891V251.16H527.675V258H529.211ZM533.658 252.552V252.672C533.73 255.192 535.218 256.92 537.498 256.92C538.698 256.92 539.754 256.608 540.69 256.008L540.978 257.376C539.97 258 538.794 258.312 537.45 258.312C534.306 258.312 532.146 255.984 532.146 252.6C532.146 250.872 532.65 249.456 533.634 248.352C534.618 247.248 535.842 246.696 537.33 246.696C539.778 246.696 541.338 248.28 541.338 250.752C541.338 251.4 541.266 251.976 541.098 252.504L533.658 252.552ZM533.754 251.376L539.85 251.352C539.874 251.28 539.874 251.112 539.874 250.872C539.874 249.144 538.938 248.04 537.234 248.04C535.338 248.04 534.018 249.456 533.754 251.376ZM549.875 255.576V252.36C546.179 252.768 544.763 253.584 544.763 255.096C544.763 256.248 545.699 257.016 547.019 257.016C548.075 257.016 549.035 256.536 549.875 255.576ZM549.971 256.68H549.899C549.011 257.76 547.955 258.312 546.683 258.312C544.667 258.312 543.203 257.04 543.203 255.264C543.203 252.912 545.435 251.616 549.875 251.352V250.704C549.875 248.952 549.011 248.088 547.283 248.088C546.131 248.088 544.691 248.664 543.683 249.408L543.347 248.016C544.403 247.272 546.035 246.696 547.427 246.696C550.067 246.696 551.387 248.016 551.363 250.632V255.912C551.363 256.776 551.555 257.04 552.467 257.016L552.371 258.24C550.955 258.336 550.139 257.808 549.971 256.68ZM556.174 250.944V258H554.686V247.008L556.174 246.696V249.048C556.966 247.488 558.046 246.696 559.414 246.696C560.11 246.696 560.734 246.864 561.334 247.2L560.95 248.592C560.422 248.28 559.87 248.112 559.27 248.112C558.046 248.112 557.014 249.048 556.174 250.944ZM569.064 257.784C568.248 258.168 567.432 258.36 566.616 258.36C564.576 258.36 563.592 257.208 563.664 254.904L563.832 248.4L562.152 248.304L562.224 247.368L563.88 246.984L563.952 244.488H565.368L565.296 247.056H568.968L568.896 248.376H565.248L565.08 254.952C565.032 256.32 565.56 257.016 566.688 257.016C567.288 257.016 567.984 256.848 568.8 256.488L569.064 257.784ZM581.091 252.36C581.091 254.088 580.587 255.504 579.579 256.632C578.547 257.76 577.251 258.312 575.667 258.312C574.731 258.312 573.843 258.12 572.979 257.712L571.491 258.36V241.824L572.979 241.512V248.16C573.963 247.224 575.067 246.768 576.291 246.768C579.195 246.768 581.091 249.048 581.091 252.36ZM579.555 252.432C579.555 249.888 578.163 248.136 576.003 248.136C574.875 248.136 573.867 248.544 572.979 249.36V256.104C573.723 256.68 574.635 256.968 575.739 256.968C578.091 256.968 579.555 255.144 579.555 252.432ZM584.541 252.552V252.672C584.613 255.192 586.101 256.92 588.381 256.92C589.581 256.92 590.637 256.608 591.573 256.008L591.861 257.376C590.853 258 589.677 258.312 588.333 258.312C585.189 258.312 583.029 255.984 583.029 252.6C583.029 250.872 583.533 249.456 584.517 248.352C585.501 247.248 586.725 246.696 588.213 246.696C590.661 246.696 592.221 248.28 592.221 250.752C592.221 251.4 592.149 251.976 591.981 252.504L584.541 252.552ZM584.637 251.376L590.733 251.352C590.757 251.28 590.757 251.112 590.757 250.872C590.757 249.144 589.821 248.04 588.117 248.04C586.221 248.04 584.901 249.456 584.637 251.376ZM600.758 255.576V252.36C597.062 252.768 595.646 253.584 595.646 255.096C595.646 256.248 596.582 257.016 597.902 257.016C598.958 257.016 599.918 256.536 600.758 255.576ZM600.854 256.68H600.782C599.894 257.76 598.838 258.312 597.566 258.312C595.55 258.312 594.086 257.04 594.086 255.264C594.086 252.912 596.318 251.616 600.758 251.352V250.704C600.758 248.952 599.894 248.088 598.166 248.088C597.014 248.088 595.574 248.664 594.566 249.408L594.23 248.016C595.286 247.272 596.918 246.696 598.31 246.696C600.95 246.696 602.27 248.016 602.246 250.632V255.912C602.246 256.776 602.438 257.04 603.35 257.016L603.254 258.24C601.838 258.336 601.022 257.808 600.854 256.68ZM611.041 257.784C610.225 258.168 609.409 258.36 608.593 258.36C606.553 258.36 605.569 257.208 605.641 254.904L605.809 248.4L604.129 248.304L604.201 247.368L605.857 246.984L605.929 244.488H607.345L607.273 247.056H610.945L610.873 248.376H607.225L607.057 254.952C607.009 256.32 607.537 257.016 608.665 257.016C609.265 257.016 609.961 256.848 610.777 256.488L611.041 257.784Z" fill="#111115"/>
<path d="M791.402 245.8L795.434 259H796.922L801.122 244H799.586L796.226 256.816L792.338 244H790.514L786.698 256.816L783.194 244H781.61L785.882 259H787.346L791.402 245.8ZM803.537 253.552V253.672C803.609 256.192 805.097 257.92 807.377 257.92C808.577 257.92 809.633 257.608 810.569 257.008L810.857 258.376C809.849 259 808.673 259.312 807.329 259.312C804.185 259.312 802.025 256.984 802.025 253.6C802.025 251.872 802.529 250.456 803.513 249.352C804.497 248.248 805.721 247.696 807.209 247.696C809.657 247.696 811.217 249.28 811.217 251.752C811.217 252.4 811.145 252.976 810.977 253.504L803.537 253.552ZM803.633 252.376L809.729 252.352C809.753 252.28 809.753 252.112 809.753 251.872C809.753 250.144 808.817 249.04 807.113 249.04C805.217 249.04 803.897 250.456 803.633 252.376ZM815.794 244.384C815.794 244.696 815.698 244.936 815.53 245.152C815.362 245.368 815.098 245.488 814.786 245.488C814.474 245.488 814.21 245.368 814.042 245.152C813.874 244.936 813.778 244.696 813.778 244.384C813.778 244.096 813.874 243.856 814.042 243.64C814.21 243.424 814.474 243.328 814.786 243.328C815.098 243.328 815.362 243.424 815.53 243.64C815.698 243.856 815.794 244.096 815.794 244.384ZM815.53 259H814.042V248.008L815.53 247.696V259ZM819.874 251.848C819.874 253.48 820.978 254.656 822.706 254.656C823.546 254.656 824.194 254.392 824.698 253.84C825.202 253.312 825.442 252.616 825.442 251.776C825.442 250.936 825.202 250.24 824.722 249.712C824.218 249.184 823.522 248.92 822.634 248.92C820.93 248.92 819.874 250.12 819.874 251.848ZM821.17 259.312C819.85 259.672 818.938 260.536 818.938 261.472C818.938 262.792 820.402 263.728 822.682 263.728C824.986 263.728 826.81 262.624 826.81 261.136C826.81 259.888 825.754 259.384 823.474 259.384C822.562 259.384 821.794 259.36 821.17 259.312ZM819.874 259.024C818.89 258.664 818.386 258.088 818.386 257.272C818.386 256.36 819.13 255.568 820.186 255.184C819.01 254.464 818.41 253.336 818.41 251.824C818.41 249.448 820.162 247.696 822.73 247.696C823.69 247.696 824.554 247.912 825.322 248.344L828.37 248.104L828.442 249.592L826.018 249.352C826.522 249.856 826.906 250.912 826.906 251.824C826.906 254.176 825.106 255.856 822.634 255.856C822.13 255.856 821.602 255.76 821.002 255.544C820.186 255.88 819.778 256.312 819.778 256.864C819.778 257.608 820.402 257.992 822.274 257.992H823.69C826.738 257.992 828.25 258.952 828.25 260.872C828.25 262.048 827.674 263.032 826.546 263.8C825.418 264.568 824.05 264.952 822.466 264.952C819.514 264.952 817.498 263.656 817.498 261.736C817.498 260.488 818.458 259.384 819.874 259.024ZM838.996 259H837.508V251.896C837.508 250.048 836.716 249.112 835.156 249.112C833.932 249.112 832.78 249.64 831.748 250.672V259H830.26V242.824L831.748 242.512V249.448C832.924 248.272 834.196 247.696 835.564 247.696C837.724 247.696 838.996 249.04 838.996 251.464V259ZM847.849 258.784C847.033 259.168 846.217 259.36 845.401 259.36C843.361 259.36 842.377 258.208 842.449 255.904L842.617 249.4L840.937 249.304L841.009 248.368L842.665 247.984L842.737 245.488H844.153L844.081 248.056H847.753L847.681 249.376H844.033L843.865 255.952C843.817 257.32 844.345 258.016 845.473 258.016C846.073 258.016 846.769 257.848 847.585 257.488L847.849 258.784Z" fill="#111115"/>
<path d="M1018.05 256.944C1020.14 256.944 1021.6 255.72 1021.6 254.112C1021.6 252.48 1020.45 251.736 1017.81 250.968C1017.19 250.776 1016.66 250.584 1016.23 250.392C1015.77 250.224 1015.32 249.96 1014.86 249.648C1014.4 249.336 1014.04 248.928 1013.8 248.448C1013.56 247.968 1013.44 247.416 1013.44 246.768C1013.44 244.392 1015.44 242.688 1018.24 242.688C1019.9 242.688 1021.41 243.12 1022.76 243.984L1022.2 245.328C1020.98 244.488 1019.68 244.08 1018.27 244.08C1016.11 244.08 1014.93 245.16 1014.93 246.648C1014.93 248.184 1016.06 248.808 1018.72 249.648C1019.35 249.84 1019.88 250.032 1020.33 250.224C1020.79 250.44 1021.24 250.704 1021.7 251.016C1022.16 251.352 1022.49 251.76 1022.73 252.264C1022.95 252.768 1023.07 253.344 1023.07 253.992C1023.07 256.512 1021 258.312 1018 258.312C1016.25 258.312 1014.64 257.856 1013.18 256.92L1013.73 255.552C1015.1 256.488 1016.54 256.944 1018.05 256.944ZM1027.3 258V241.512L1025.81 241.824V258H1027.3ZM1031.55 252.552V252.672C1031.62 255.192 1033.11 256.92 1035.39 256.92C1036.59 256.92 1037.64 256.608 1038.58 256.008L1038.87 257.376C1037.86 258 1036.68 258.312 1035.34 258.312C1032.2 258.312 1030.04 255.984 1030.04 252.6C1030.04 250.872 1030.54 249.456 1031.52 248.352C1032.51 247.248 1033.73 246.696 1035.22 246.696C1037.67 246.696 1039.23 248.28 1039.23 250.752C1039.23 251.4 1039.16 251.976 1038.99 252.504L1031.55 252.552ZM1031.64 251.376L1037.74 251.352C1037.76 251.28 1037.76 251.112 1037.76 250.872C1037.76 249.144 1036.83 248.04 1035.12 248.04C1033.23 248.04 1031.91 249.456 1031.64 251.376ZM1042.82 252.552V252.672C1042.89 255.192 1044.38 256.92 1046.66 256.92C1047.86 256.92 1048.92 256.608 1049.85 256.008L1050.14 257.376C1049.13 258 1047.96 258.312 1046.61 258.312C1043.47 258.312 1041.31 255.984 1041.31 252.6C1041.31 250.872 1041.81 249.456 1042.8 248.352C1043.78 247.248 1045 246.696 1046.49 246.696C1048.94 246.696 1050.5 248.28 1050.5 250.752C1050.5 251.4 1050.43 251.976 1050.26 252.504L1042.82 252.552ZM1042.92 251.376L1049.01 251.352C1049.04 251.28 1049.04 251.112 1049.04 250.872C1049.04 249.144 1048.1 248.04 1046.4 248.04C1044.5 248.04 1043.18 249.456 1042.92 251.376ZM1054.79 248.112C1055.75 247.224 1056.81 246.768 1057.98 246.768C1060.93 246.768 1062.9 249.072 1062.9 252.456C1062.9 254.16 1062.4 255.576 1061.39 256.656C1060.36 257.76 1059.06 258.312 1057.48 258.312C1056.49 258.312 1055.61 258.12 1054.79 257.736V263.592H1053.3V246.96L1054.79 246.648V248.112ZM1054.79 249.36V256.104C1055.53 256.68 1056.45 256.968 1057.55 256.968C1059.85 256.968 1061.37 255.12 1061.37 252.48C1061.37 249.912 1059.95 248.136 1057.74 248.136C1056.66 248.136 1055.68 248.544 1054.79 249.36ZM1070.17 252.864V251.472H1064.74V252.864H1070.17ZM1080.73 257.376C1079.72 258 1078.59 258.312 1077.32 258.312C1074.03 258.312 1071.94 256.008 1071.94 252.528C1071.94 250.824 1072.45 249.408 1073.48 248.328C1074.49 247.248 1075.78 246.696 1077.34 246.696C1078.66 246.696 1079.79 247.008 1080.77 247.632L1080.39 248.976C1079.5 248.376 1078.47 248.088 1077.34 248.088C1074.97 248.088 1073.48 249.84 1073.48 252.48C1073.48 255.192 1075.01 256.92 1077.37 256.92C1078.47 256.92 1079.48 256.608 1080.41 256.008L1080.73 257.376ZM1091.84 247.008L1087.57 257.88L1086.68 260.256C1085.72 262.872 1084.71 263.712 1083.13 263.712C1082.48 263.712 1081.79 263.544 1080.99 263.208L1081.45 261.84C1082.05 262.152 1082.6 262.32 1083.13 262.32C1084.04 262.32 1084.64 261.768 1085.39 259.776L1086.13 257.832L1081.83 247.008H1083.44L1086.9 256.08L1090.28 247.008H1091.84ZM1101.61 257.376C1100.6 258 1099.47 258.312 1098.2 258.312C1094.91 258.312 1092.82 256.008 1092.82 252.528C1092.82 250.824 1093.33 249.408 1094.36 248.328C1095.37 247.248 1096.66 246.696 1098.22 246.696C1099.54 246.696 1100.67 247.008 1101.66 247.632L1101.27 248.976C1100.38 248.376 1099.35 248.088 1098.22 248.088C1095.85 248.088 1094.36 249.84 1094.36 252.48C1094.36 255.192 1095.9 256.92 1098.25 256.92C1099.35 256.92 1100.36 256.608 1101.3 256.008L1101.61 257.376ZM1105.86 258V241.512L1104.37 241.824V258H1105.86ZM1110.11 252.552V252.672C1110.18 255.192 1111.67 256.92 1113.95 256.92C1115.15 256.92 1116.21 256.608 1117.14 256.008L1117.43 257.376C1116.42 258 1115.25 258.312 1113.9 258.312C1110.76 258.312 1108.6 255.984 1108.6 252.6C1108.6 250.872 1109.1 249.456 1110.09 248.352C1111.07 247.248 1112.29 246.696 1113.78 246.696C1116.23 246.696 1117.79 248.28 1117.79 250.752C1117.79 251.4 1117.72 251.976 1117.55 252.504L1110.11 252.552ZM1110.21 251.376L1116.3 251.352C1116.33 251.28 1116.33 251.112 1116.33 250.872C1116.33 249.144 1115.39 248.04 1113.69 248.04C1111.79 248.04 1110.47 249.456 1110.21 251.376Z" fill="#111115"/>
<path d="M103.619 189.12C103.619 186.936 104.339 184.968 105.755 183.216C107.171 181.488 109.187 180.312 111.851 179.688L112.451 181.56C108.731 182.496 106.499 184.368 105.755 187.176L105.803 187.2C106.883 186.216 108.155 185.712 109.619 185.712C112.091 185.712 114.011 187.608 114.011 190.368C114.011 193.272 111.995 195.36 108.899 195.36C107.243 195.36 105.971 194.76 105.035 193.56C104.099 192.384 103.619 190.896 103.619 189.12ZM105.707 189.744C105.707 191.856 107.003 193.536 108.995 193.536C110.819 193.536 112.019 192.288 112.019 190.464C112.019 188.664 110.819 187.464 109.091 187.464C107.795 187.464 106.571 188.064 105.827 188.736C105.755 189.024 105.707 189.36 105.707 189.744ZM115.994 189.12C115.994 186.936 116.714 184.968 118.13 183.216C119.546 181.488 121.562 180.312 124.226 179.688L124.826 181.56C121.106 182.496 118.874 184.368 118.13 187.176L118.178 187.2C119.258 186.216 120.53 185.712 121.994 185.712C124.466 185.712 126.386 187.608 126.386 190.368C126.386 193.272 124.37 195.36 121.274 195.36C119.618 195.36 118.346 194.76 117.41 193.56C116.474 192.384 115.994 190.896 115.994 189.12ZM118.082 189.744C118.082 191.856 119.378 193.536 121.37 193.536C123.194 193.536 124.394 192.288 124.394 190.464C124.394 188.664 123.194 187.464 121.466 187.464C120.17 187.464 118.946 188.064 118.202 188.736C118.13 189.024 118.082 189.36 118.082 189.744ZM129.791 192.288C130.223 192.288 130.583 192.432 130.871 192.72C131.159 193.032 131.303 193.392 131.303 193.8C131.303 194.208 131.159 194.568 130.871 194.88C130.583 195.192 130.223 195.36 129.791 195.36C129.335 195.36 128.975 195.192 128.687 194.88C128.375 194.568 128.231 194.208 128.231 193.8C128.231 193.392 128.375 193.032 128.687 192.72C128.975 192.432 129.335 192.288 129.791 192.288ZM140.446 185.592L133.798 199.416H135.814L142.582 185.352V183.648H132.622L132.55 185.592H140.446ZM151.391 183.432C151.391 185.64 149.831 187.392 147.407 187.392C145.031 187.392 143.423 185.64 143.423 183.432C143.423 182.304 143.783 181.368 144.527 180.576C145.247 179.808 146.207 179.424 147.407 179.424C148.607 179.424 149.567 179.808 150.311 180.576C151.031 181.344 151.391 182.304 151.391 183.432ZM158.711 179.664L146.759 195.36H145.247L157.199 179.664H158.711ZM160.511 191.592C160.511 192.72 160.151 193.656 159.431 194.424C158.687 195.216 157.727 195.6 156.527 195.6C155.327 195.6 154.367 195.216 153.647 194.448C152.903 193.68 152.543 192.72 152.543 191.592C152.543 189.384 154.127 187.632 156.527 187.632C158.903 187.632 160.511 189.384 160.511 191.592ZM150.095 183.432C150.095 182.64 149.855 181.992 149.375 181.464C148.871 180.936 148.223 180.672 147.407 180.672C146.591 180.672 145.943 180.936 145.463 181.464C144.959 181.992 144.719 182.64 144.719 183.432C144.719 184.176 144.959 184.824 145.463 185.352C145.943 185.88 146.591 186.144 147.407 186.144C148.223 186.144 148.871 185.88 149.375 185.352C149.855 184.824 150.095 184.176 150.095 183.432ZM159.215 191.592C159.215 190.848 158.975 190.2 158.495 189.672C157.991 189.144 157.343 188.88 156.527 188.88C155.711 188.88 155.063 189.144 154.583 189.672C154.079 190.2 153.839 190.848 153.839 191.592C153.839 192.384 154.079 193.032 154.583 193.56C155.063 194.088 155.711 194.352 156.527 194.352C157.343 194.352 157.991 194.088 158.495 193.56C158.975 193.032 159.215 192.384 159.215 191.592Z" fill="#111115"/>
<path d="M354.619 189.12C354.619 186.936 355.339 184.968 356.755 183.216C358.171 181.488 360.187 180.312 362.851 179.688L363.451 181.56C359.731 182.496 357.499 184.368 356.755 187.176L356.803 187.2C357.883 186.216 359.155 185.712 360.619 185.712C363.091 185.712 365.011 187.608 365.011 190.368C365.011 193.272 362.995 195.36 359.899 195.36C358.243 195.36 356.971 194.76 356.035 193.56C355.099 192.384 354.619 190.896 354.619 189.12ZM356.707 189.744C356.707 191.856 358.003 193.536 359.995 193.536C361.819 193.536 363.019 192.288 363.019 190.464C363.019 188.664 361.819 187.464 360.091 187.464C358.795 187.464 357.571 188.064 356.827 188.736C356.755 189.024 356.707 189.36 356.707 189.744ZM366.994 189.12C366.994 186.936 367.714 184.968 369.13 183.216C370.546 181.488 372.562 180.312 375.226 179.688L375.826 181.56C372.106 182.496 369.874 184.368 369.13 187.176L369.178 187.2C370.258 186.216 371.53 185.712 372.994 185.712C375.466 185.712 377.386 187.608 377.386 190.368C377.386 193.272 375.37 195.36 372.274 195.36C370.618 195.36 369.346 194.76 368.41 193.56C367.474 192.384 366.994 190.896 366.994 189.12ZM369.082 189.744C369.082 191.856 370.378 193.536 372.37 193.536C374.194 193.536 375.394 192.288 375.394 190.464C375.394 188.664 374.194 187.464 372.466 187.464C371.17 187.464 369.946 188.064 369.202 188.736C369.13 189.024 369.082 189.36 369.082 189.744ZM380.791 192.288C381.223 192.288 381.583 192.432 381.871 192.72C382.159 193.032 382.303 193.392 382.303 193.8C382.303 194.208 382.159 194.568 381.871 194.88C381.583 195.192 381.223 195.36 380.791 195.36C380.335 195.36 379.975 195.192 379.687 194.88C379.375 194.568 379.231 194.208 379.231 193.8C379.231 193.392 379.375 193.032 379.687 192.72C379.975 192.432 380.335 192.288 380.791 192.288ZM391.446 185.592L384.798 199.416H386.814L393.582 185.352V183.648H383.622L383.55 185.592H391.446ZM402.391 183.432C402.391 185.64 400.831 187.392 398.407 187.392C396.031 187.392 394.423 185.64 394.423 183.432C394.423 182.304 394.783 181.368 395.527 180.576C396.247 179.808 397.207 179.424 398.407 179.424C399.607 179.424 400.567 179.808 401.311 180.576C402.031 181.344 402.391 182.304 402.391 183.432ZM409.711 179.664L397.759 195.36H396.247L408.199 179.664H409.711ZM411.511 191.592C411.511 192.72 411.151 193.656 410.431 194.424C409.687 195.216 408.727 195.6 407.527 195.6C406.327 195.6 405.367 195.216 404.647 194.448C403.903 193.68 403.543 192.72 403.543 191.592C403.543 189.384 405.127 187.632 407.527 187.632C409.903 187.632 411.511 189.384 411.511 191.592ZM401.095 183.432C401.095 182.64 400.855 181.992 400.375 181.464C399.871 180.936 399.223 180.672 398.407 180.672C397.591 180.672 396.943 180.936 396.463 181.464C395.959 181.992 395.719 182.64 395.719 183.432C395.719 184.176 395.959 184.824 396.463 185.352C396.943 185.88 397.591 186.144 398.407 186.144C399.223 186.144 399.871 185.88 400.375 185.352C400.855 184.824 401.095 184.176 401.095 183.432ZM410.215 191.592C410.215 190.848 409.975 190.2 409.495 189.672C408.991 189.144 408.343 188.88 407.527 188.88C406.711 188.88 406.063 189.144 405.583 189.672C405.079 190.2 404.839 190.848 404.839 191.592C404.839 192.384 405.079 193.032 405.583 193.56C406.063 194.088 406.711 194.352 407.527 194.352C408.343 194.352 408.991 194.088 409.495 193.56C409.975 193.032 410.215 192.384 410.215 191.592Z" fill="#111115"/>
<path d="M608.611 189.84C609.403 189.768 609.979 189.72 610.315 189.72C613.459 189.72 615.475 191.52 615.475 194.328C615.475 195.84 614.971 197.088 613.963 198.048C612.931 199.008 611.683 199.488 610.195 199.488C608.587 199.488 607.195 199.152 606.019 198.456L606.379 196.512C607.699 197.256 608.995 197.616 610.219 197.616C612.115 197.616 613.459 196.344 613.459 194.424C613.459 192.744 612.163 191.424 610.075 191.424C609.019 191.424 608.035 191.568 607.123 191.832L606.595 191.352L607.579 183.648H615.067L615.139 185.592H609.187L608.611 189.84ZM626.988 184.992C628.068 186.12 628.596 187.56 628.596 189.336C628.596 191.112 628.068 192.552 626.988 193.68C625.908 194.808 624.492 195.36 622.788 195.36C621.084 195.36 619.692 194.808 618.612 193.68C617.532 192.576 617.004 191.136 617.004 189.336C617.004 187.536 617.532 186.096 618.612 184.968C619.692 183.864 621.084 183.312 622.788 183.312C624.492 183.312 625.908 183.864 626.988 184.992ZM625.572 192.312C626.268 191.52 626.628 190.536 626.628 189.336C626.628 188.136 626.268 187.152 625.572 186.36C624.852 185.568 623.916 185.184 622.788 185.184C621.66 185.184 620.724 185.568 620.028 186.336C619.332 187.128 618.972 188.112 618.972 189.336C618.972 190.56 619.332 191.544 620.028 192.312C620.724 193.104 621.66 193.488 622.788 193.488C623.916 193.488 624.852 193.104 625.572 192.312ZM638.032 183.432C638.032 185.64 636.472 187.392 634.048 187.392C631.672 187.392 630.064 185.64 630.064 183.432C630.064 182.304 630.424 181.368 631.168 180.576C631.888 179.808 632.848 179.424 634.048 179.424C635.248 179.424 636.208 179.808 636.952 180.576C637.672 181.344 638.032 182.304 638.032 183.432ZM645.352 179.664L633.4 195.36H631.888L643.84 179.664H645.352ZM647.152 191.592C647.152 192.72 646.792 193.656 646.072 194.424C645.328 195.216 644.368 195.6 643.168 195.6C641.968 195.6 641.008 195.216 640.288 194.448C639.544 193.68 639.184 192.72 639.184 191.592C639.184 189.384 640.768 187.632 643.168 187.632C645.544 187.632 647.152 189.384 647.152 191.592ZM636.736 183.432C636.736 182.64 636.496 181.992 636.016 181.464C635.512 180.936 634.864 180.672 634.048 180.672C633.232 180.672 632.584 180.936 632.104 181.464C631.6 181.992 631.36 182.64 631.36 183.432C631.36 184.176 631.6 184.824 632.104 185.352C632.584 185.88 633.232 186.144 634.048 186.144C634.864 186.144 635.512 185.88 636.016 185.352C636.496 184.824 636.736 184.176 636.736 183.432ZM645.856 191.592C645.856 190.848 645.616 190.2 645.136 189.672C644.632 189.144 643.984 188.88 643.168 188.88C642.352 188.88 641.704 189.144 641.224 189.672C640.72 190.2 640.48 190.848 640.48 191.592C640.48 192.384 640.72 193.032 641.224 193.56C641.704 194.088 642.352 194.352 643.168 194.352C643.984 194.352 644.632 194.088 645.136 193.56C645.616 193.032 645.856 192.384 645.856 191.592Z" fill="#111115"/>
<path d="M863.067 190.92C865.347 191.28 866.595 192.888 866.595 194.712C866.595 196.176 866.067 197.352 865.035 198.192C863.979 199.056 862.659 199.488 861.075 199.488C859.371 199.488 858.003 199.176 857.019 198.576L857.379 196.728C858.315 197.376 859.563 197.688 861.099 197.688C863.187 197.688 864.531 196.68 864.531 194.856C864.531 193.248 863.259 192.408 861.267 192.336C860.667 192.312 859.923 192.384 859.059 192.528V190.824C862.299 190.08 863.907 188.928 863.907 187.392C863.907 185.952 862.923 185.16 861.195 185.16C860.139 185.16 858.987 185.616 857.739 186.552L857.043 184.872C858.363 183.84 859.827 183.312 861.411 183.312C864.315 183.312 866.067 184.848 866.067 187.104C866.067 188.808 864.771 190.248 863.067 190.92ZM873.544 190.92C875.824 191.28 877.072 192.888 877.072 194.712C877.072 196.176 876.544 197.352 875.512 198.192C874.456 199.056 873.136 199.488 871.552 199.488C869.848 199.488 868.48 199.176 867.496 198.576L867.856 196.728C868.792 197.376 870.04 197.688 871.576 197.688C873.664 197.688 875.008 196.68 875.008 194.856C875.008 193.248 873.736 192.408 871.744 192.336C871.144 192.312 870.4 192.384 869.536 192.528V190.824C872.776 190.08 874.384 188.928 874.384 187.392C874.384 185.952 873.4 185.16 871.672 185.16C870.616 185.16 869.464 185.616 868.216 186.552L867.52 184.872C868.84 183.84 870.304 183.312 871.888 183.312C874.792 183.312 876.544 184.848 876.544 187.104C876.544 188.808 875.248 190.248 873.544 190.92ZM880.837 192.288C881.269 192.288 881.629 192.432 881.917 192.72C882.205 193.032 882.349 193.392 882.349 193.8C882.349 194.208 882.205 194.568 881.917 194.88C881.629 195.192 881.269 195.36 880.837 195.36C880.381 195.36 880.021 195.192 879.733 194.88C879.421 194.568 879.277 194.208 879.277 193.8C879.277 193.392 879.421 193.032 879.733 192.72C880.021 192.432 880.381 192.288 880.837 192.288ZM889.669 190.92C891.949 191.28 893.197 192.888 893.197 194.712C893.197 196.176 892.669 197.352 891.637 198.192C890.581 199.056 889.261 199.488 887.677 199.488C885.973 199.488 884.605 199.176 883.621 198.576L883.981 196.728C884.917 197.376 886.165 197.688 887.701 197.688C889.789 197.688 891.133 196.68 891.133 194.856C891.133 193.248 889.861 192.408 887.869 192.336C887.269 192.312 886.525 192.384 885.661 192.528V190.824C888.901 190.08 890.509 188.928 890.509 187.392C890.509 185.952 889.525 185.16 887.797 185.16C886.741 185.16 885.589 185.616 884.341 186.552L883.645 184.872C884.965 183.84 886.429 183.312 888.013 183.312C890.917 183.312 892.669 184.848 892.669 187.104C892.669 188.808 891.373 190.248 889.669 190.92ZM901.969 183.432C901.969 185.64 900.409 187.392 897.985 187.392C895.609 187.392 894.001 185.64 894.001 183.432C894.001 182.304 894.361 181.368 895.105 180.576C895.825 179.808 896.785 179.424 897.985 179.424C899.185 179.424 900.145 179.808 900.889 180.576C901.609 181.344 901.969 182.304 901.969 183.432ZM909.289 179.664L897.337 195.36H895.825L907.777 179.664H909.289ZM911.089 191.592C911.089 192.72 910.729 193.656 910.009 194.424C909.265 195.216 908.305 195.6 907.105 195.6C905.905 195.6 904.945 195.216 904.225 194.448C903.481 193.68 903.121 192.72 903.121 191.592C903.121 189.384 904.705 187.632 907.105 187.632C909.481 187.632 911.089 189.384 911.089 191.592ZM900.673 183.432C900.673 182.64 900.433 181.992 899.953 181.464C899.449 180.936 898.801 180.672 897.985 180.672C897.169 180.672 896.521 180.936 896.041 181.464C895.537 181.992 895.297 182.64 895.297 183.432C895.297 184.176 895.537 184.824 896.041 185.352C896.521 185.88 897.169 186.144 897.985 186.144C898.801 186.144 899.449 185.88 899.953 185.352C900.433 184.824 900.673 184.176 900.673 183.432ZM909.793 191.592C909.793 190.848 909.553 190.2 909.073 189.672C908.569 189.144 907.921 188.88 907.105 188.88C906.289 188.88 905.641 189.144 905.161 189.672C904.657 190.2 904.417 190.848 904.417 191.592C904.417 192.384 904.657 193.032 905.161 193.56C905.641 194.088 906.289 194.352 907.105 194.352C907.921 194.352 908.569 194.088 909.073 193.56C909.553 193.032 909.793 192.384 909.793 191.592Z" fill="#111115"/>
<path d="M1111.45 195H1113.4V183.288L1108.6 184.872L1108.67 186.672L1111.45 185.784V195ZM1116.85 189.12C1116.85 186.936 1117.57 184.968 1118.98 183.216C1120.4 181.488 1122.42 180.312 1125.08 179.688L1125.68 181.56C1121.96 182.496 1119.73 184.368 1118.98 187.176L1119.03 187.2C1120.11 186.216 1121.38 185.712 1122.85 185.712C1125.32 185.712 1127.24 187.608 1127.24 190.368C1127.24 193.272 1125.22 195.36 1122.13 195.36C1120.47 195.36 1119.2 194.76 1118.26 193.56C1117.33 192.384 1116.85 190.896 1116.85 189.12ZM1118.94 189.744C1118.94 191.856 1120.23 193.536 1122.22 193.536C1124.05 193.536 1125.25 192.288 1125.25 190.464C1125.25 188.664 1124.05 187.464 1122.32 187.464C1121.02 187.464 1119.8 188.064 1119.06 188.736C1118.98 189.024 1118.94 189.36 1118.94 189.744ZM1130.65 192.288C1131.08 192.288 1131.44 192.432 1131.73 192.72C1132.01 193.032 1132.16 193.392 1132.16 193.8C1132.16 194.208 1132.01 194.568 1131.73 194.88C1131.44 195.192 1131.08 195.36 1130.65 195.36C1130.19 195.36 1129.83 195.192 1129.54 194.88C1129.23 194.568 1129.09 194.208 1129.09 193.8C1129.09 193.392 1129.23 193.032 1129.54 192.72C1129.83 192.432 1130.19 192.288 1130.65 192.288ZM1141.3 185.592L1134.65 199.416H1136.67L1143.44 185.352V183.648H1133.48L1133.4 185.592H1141.3ZM1152.25 183.432C1152.25 185.64 1150.69 187.392 1148.26 187.392C1145.89 187.392 1144.28 185.64 1144.28 183.432C1144.28 182.304 1144.64 181.368 1145.38 180.576C1146.1 179.808 1147.06 179.424 1148.26 179.424C1149.46 179.424 1150.42 179.808 1151.17 180.576C1151.89 181.344 1152.25 182.304 1152.25 183.432ZM1159.57 179.664L1147.61 195.36H1146.1L1158.05 179.664H1159.57ZM1161.37 191.592C1161.37 192.72 1161.01 193.656 1160.29 194.424C1159.54 195.216 1158.58 195.6 1157.38 195.6C1156.18 195.6 1155.22 195.216 1154.5 194.448C1153.76 193.68 1153.4 192.72 1153.4 191.592C1153.4 189.384 1154.98 187.632 1157.38 187.632C1159.76 187.632 1161.37 189.384 1161.37 191.592ZM1150.95 183.432C1150.95 182.64 1150.71 181.992 1150.23 181.464C1149.73 180.936 1149.08 180.672 1148.26 180.672C1147.45 180.672 1146.8 180.936 1146.32 181.464C1145.81 181.992 1145.57 182.64 1145.57 183.432C1145.57 184.176 1145.81 184.824 1146.32 185.352C1146.8 185.88 1147.45 186.144 1148.26 186.144C1149.08 186.144 1149.73 185.88 1150.23 185.352C1150.71 184.824 1150.95 184.176 1150.95 183.432ZM1160.07 191.592C1160.07 190.848 1159.83 190.2 1159.35 189.672C1158.85 189.144 1158.2 188.88 1157.38 188.88C1156.57 188.88 1155.92 189.144 1155.44 189.672C1154.93 190.2 1154.69 190.848 1154.69 191.592C1154.69 192.384 1154.93 193.032 1155.44 193.56C1155.92 194.088 1156.57 194.352 1157.38 194.352C1158.2 194.352 1158.85 194.088 1159.35 193.56C1159.83 193.032 1160.07 192.384 1160.07 191.592Z" fill="#111115"/>
<path d="M35.5869 16V186C35.5869 191.523 40.0641 196 45.5869 196H75.587C81.1099 196 85.587 191.523 85.587 186V16C85.587 10.4772 81.1099 6 75.587 6H45.5869C40.0641 6 35.5869 10.4772 35.5869 16Z" fill="#EC8539" fill-opacity="0.2"/>
<path d="M286.587 16V185C286.587 190.523 291.064 195 296.587 195H325.587C331.11 195 335.587 190.523 335.587 185V16C335.587 10.4772 331.11 6 325.587 6H296.587C291.064 6 286.587 10.4772 286.587 16Z" fill="#EC8539" fill-opacity="0.2"/>
<path d="M538.587 16V185C538.587 190.523 543.064 195 548.587 195H577.587C583.11 195 587.587 190.523 587.587 185V16C587.587 10.4772 583.11 6 577.587 6H548.587C543.064 6 538.587 10.4772 538.587 16Z" fill="#EC8539" fill-opacity="0.2"/>
<path d="M789.587 16V185C789.587 190.523 794.064 195 799.587 195H828.587C834.11 195 838.587 190.523 838.587 185V16C838.587 10.4772 834.11 6 828.587 6H799.587C794.064 6 789.587 10.4772 789.587 16Z" fill="#EC8539" fill-opacity="0.2"/>
<path d="M1040.59 16V185C1040.59 190.523 1045.06 195 1050.59 195H1079.59C1085.11 195 1089.59 190.523 1089.59 185V16C1089.59 10.4772 1085.11 6 1079.59 6H1050.59C1045.06 6 1040.59 10.4772 1040.59 16Z" fill="#EC8539" fill-opacity="0.2"/>
<path d="M35.5869 79.27V186C35.5869 191.523 40.0641 196 45.5869 196H75.587C81.1099 196 85.587 191.523 85.587 186V79.27C85.587 73.7472 81.1099 69.27 75.587 69.27H45.5869C40.0641 69.27 35.5869 73.7472 35.5869 79.27Z" fill="#EC8539"/>
<path d="M286.587 78V185C286.587 190.523 291.064 195 296.587 195H325.587C331.11 195 335.587 190.523 335.587 185V78C335.587 72.4771 331.11 68 325.587 68H296.587C291.064 68 286.587 72.4771 286.587 78Z" fill="#EC8539"/>
<path d="M538.587 110.5V185C538.587 190.523 543.064 195 548.587 195H577.587C583.11 195 587.587 190.523 587.587 185V110.5C587.587 104.977 583.11 100.5 577.587 100.5H548.587C543.064 100.5 538.587 104.977 538.587 110.5Z" fill="#EC8539"/>
<path d="M789.587 142.063V185C789.587 190.523 794.064 195 799.587 195H828.587C834.11 195 838.587 190.523 838.587 185V142.063C838.587 136.54 834.11 132.063 828.587 132.063H799.587C794.064 132.063 789.587 136.54 789.587 142.063Z" fill="#EC8539"/>
<path d="M1040.59 173.437V185C1040.59 190.523 1045.06 195 1050.59 195H1079.59C1085.11 195 1089.59 190.523 1089.59 185V173.437C1089.59 167.914 1085.11 163.437 1079.59 163.437H1050.59C1045.06 163.437 1040.59 167.914 1040.59 173.437Z" fill="#EC8539"/>
</svg>
