<svg width="1173" height="290" viewBox="0 0 1173 290" fill="none" xmlns="http://www.w3.org/2000/svg">
<path d="M44.044 242.68C44.044 245.92 41.812 247.624 37.996 247.696L35.956 247.72L35.956 253L34.42 253L34.42 238L38.188 238C42.052 238 44.044 239.824 44.044 242.68ZM42.46 242.752C42.46 240.592 40.948 239.416 38.14 239.416L35.956 239.416L35.956 246.304L38.092 246.256C40.996 246.208 42.46 245.032 42.46 242.752ZM48.1613 245.944L48.1613 253L46.6733 253L46.6733 242.008L48.1613 241.696L48.1613 244.048C48.9533 242.488 50.0333 241.696 51.4013 241.696C52.0973 241.696 52.7213 241.864 53.3213 242.2L52.9373 243.592C52.4093 243.28 51.8573 243.112 51.2573 243.112C50.0333 243.112 49.0013 244.048 48.1613 245.944ZM57.004 238.384C57.004 238.696 56.908 238.936 56.74 239.152C56.572 239.368 56.308 239.488 55.996 239.488C55.684 239.488 55.42 239.368 55.252 239.152C55.084 238.936 54.988 238.696 54.988 238.384C54.988 238.096 55.084 237.856 55.252 237.64C55.42 237.424 55.684 237.328 55.996 237.328C56.308 237.328 56.572 237.424 56.74 237.64C56.908 237.856 57.004 238.096 57.004 238.384ZM56.74 253L55.252 253L55.252 242.008L56.74 241.696L56.74 253ZM68.3076 252.376C67.2996 253 66.1716 253.312 64.8996 253.312C61.6116 253.312 59.5236 251.008 59.5236 247.528C59.5236 245.824 60.0276 244.408 61.0596 243.328C62.0676 242.248 63.3636 241.696 64.9236 241.696C66.2436 241.696 67.3716 242.008 68.3556 242.632L67.9716 243.976C67.0836 243.376 66.0516 243.088 64.9236 243.088C62.5476 243.088 61.0596 244.84 61.0596 247.48C61.0596 250.192 62.5956 251.92 64.9476 251.92C66.0516 251.92 67.0596 251.608 67.9956 251.008L68.3076 252.376ZM71.7466 247.552L71.7466 247.672C71.8186 250.192 73.3066 251.92 75.5866 251.92C76.7866 251.92 77.8426 251.608 78.7786 251.008L79.0666 252.376C78.0586 253 76.8826 253.312 75.5386 253.312C72.3946 253.312 70.2346 250.984 70.2346 247.6C70.2346 245.872 70.7386 244.456 71.7226 243.352C72.7066 242.248 73.9306 241.696 75.4186 241.696C77.8666 241.696 79.4266 243.28 79.4266 245.752C79.4266 246.4 79.3546 246.976 79.1866 247.504L71.7466 247.552ZM71.8426 246.376L77.9386 246.352C77.9626 246.28 77.9626 246.112 77.9626 245.872C77.9626 244.144 77.0266 243.04 75.3226 243.04C73.4266 243.04 72.1066 244.456 71.8426 246.376Z" fill="#FBFBFB"/>
<path d="M268.488 245.32C270.672 245.728 271.848 247.024 271.848 248.824C271.848 251.392 270.12 253 266.448 253L261.576 253L261.576 238L266.256 238C269.736 238 271.368 239.488 271.368 241.912C271.368 243.496 270.384 244.84 268.488 245.32ZM269.832 242.032C269.832 240.352 268.632 239.392 266.328 239.392L263.112 239.392L263.112 244.792L266.088 244.792C268.392 244.792 269.832 243.808 269.832 242.032ZM270.312 248.824C270.312 247.072 268.944 246.184 266.184 246.184L263.112 246.184L263.112 251.608L266.568 251.608C269.064 251.608 270.312 250.672 270.312 248.824ZM274.484 242.008L275.972 242.008L275.972 249.112C275.972 250.96 276.764 251.896 278.348 251.896C279.596 251.896 280.724 251.368 281.732 250.336L281.732 242.008L283.22 242.008L283.22 253L281.732 253.312L281.732 251.536C280.58 252.712 279.308 253.312 277.94 253.312C275.78 253.312 274.484 251.92 274.484 249.544L274.484 242.008ZM288.161 245.944L288.161 253L286.673 253L286.673 242.008L288.161 241.696L288.161 244.048C288.953 242.488 290.033 241.696 291.401 241.696C292.097 241.696 292.721 241.864 293.321 242.2L292.937 243.592C292.409 243.28 291.857 243.112 291.257 243.112C290.033 243.112 289.001 244.048 288.161 245.944ZM302.386 242.368L302.386 236.824L303.874 236.512L303.874 253L302.386 253L302.386 251.968C301.426 252.856 300.37 253.312 299.194 253.312C296.242 253.312 294.274 250.984 294.274 247.6C294.274 245.896 294.778 244.504 295.81 243.4C296.842 242.32 298.138 241.768 299.722 241.768C300.634 241.768 301.522 241.96 302.386 242.368ZM302.386 243.952C301.666 243.4 300.754 243.112 299.65 243.112C297.298 243.112 295.81 244.936 295.81 247.576C295.81 250.144 297.25 251.944 299.458 251.944C300.538 251.944 301.522 251.536 302.386 250.72L302.386 244.168L302.386 243.952ZM308.114 247.552L308.114 247.672C308.186 250.192 309.674 251.92 311.954 251.92C313.154 251.92 314.21 251.608 315.146 251.008L315.434 252.376C314.426 253 313.25 253.312 311.906 253.312C308.762 253.312 306.602 250.984 306.602 247.6C306.602 245.872 307.106 244.456 308.09 243.352C309.074 242.248 310.298 241.696 311.786 241.696C314.234 241.696 315.794 243.28 315.794 245.752C315.794 246.4 315.722 246.976 315.554 247.504L308.114 247.552ZM308.21 246.376L314.306 246.352C314.33 246.28 314.33 246.112 314.33 245.872C314.33 244.144 313.394 243.04 311.69 243.04C309.794 243.04 308.474 244.456 308.21 246.376ZM327.331 253L325.843 253L325.843 245.896C325.843 243.976 325.099 243.112 323.419 243.112C322.243 243.112 321.115 243.64 320.083 244.672L320.083 253L318.595 253L318.595 242.008L320.083 241.696L320.083 243.496C321.283 242.296 322.531 241.696 323.827 241.696C326.035 241.696 327.331 243.04 327.331 245.464L327.331 253ZM346.157 247.48C346.157 249.208 345.653 250.6 344.621 251.68C343.589 252.76 342.317 253.312 340.757 253.312C339.197 253.312 337.925 252.784 336.941 251.728C335.957 250.672 335.453 249.28 335.453 247.528C335.453 245.8 335.981 244.384 337.013 243.304C338.045 242.224 339.317 241.696 340.877 241.696C342.437 241.696 343.709 242.224 344.693 243.28C345.677 244.336 346.157 245.728 346.157 247.48ZM344.693 247.528C344.693 244.816 343.157 243.04 340.805 243.04C338.501 243.04 336.941 244.84 336.941 247.48C336.941 250.192 338.477 251.968 340.829 251.968C343.133 251.968 344.693 250.168 344.693 247.528ZM354.563 236.776L354.491 237.112C354.419 237.352 354.371 237.568 354.299 237.784L354.203 238.12C353.555 237.808 353.003 237.664 352.523 237.664C351.299 237.664 350.699 238.528 350.699 240.232L350.699 242.056L354.155 242.056L354.083 243.376L350.699 243.376L350.699 253L349.235 253L349.235 243.424L347.459 243.304L347.555 242.368L349.211 241.984L349.235 240.256C349.283 237.616 350.387 236.296 352.547 236.296C353.219 236.296 353.891 236.464 354.563 236.776ZM241.855 281.576L241.855 278.36C238.159 278.768 236.743 279.584 236.743 281.096C236.743 282.248 237.679 283.016 238.999 283.016C240.055 283.016 241.015 282.536 241.855 281.576ZM241.951 282.68L241.879 282.68C240.991 283.76 239.935 284.312 238.663 284.312C236.647 284.312 235.183 283.04 235.183 281.264C235.183 278.912 237.415 277.616 241.855 277.352L241.855 276.704C241.855 274.952 240.991 274.088 239.263 274.088C238.111 274.088 236.671 274.664 235.663 275.408L235.327 274.016C236.383 273.272 238.015 272.696 239.407 272.696C242.047 272.696 243.367 274.016 243.343 276.632L243.343 281.912C243.343 282.776 243.535 283.04 244.447 283.016L244.351 284.24C242.935 284.336 242.119 283.808 241.951 282.68ZM255.401 284L253.913 284L253.913 276.896C253.913 274.976 253.169 274.112 251.489 274.112C250.313 274.112 249.185 274.64 248.153 275.672L248.153 284L246.665 284L246.665 273.008L248.153 272.696L248.153 274.496C249.353 273.296 250.601 272.696 251.897 272.696C254.105 272.696 255.401 274.04 255.401 276.464L255.401 284ZM268.767 278.48C268.767 280.208 268.263 281.6 267.231 282.68C266.199 283.76 264.927 284.312 263.367 284.312C261.807 284.312 260.535 283.784 259.551 282.728C258.567 281.672 258.063 280.28 258.063 278.528C258.063 276.8 258.591 275.384 259.623 274.304C260.655 273.224 261.927 272.696 263.487 272.696C265.047 272.696 266.319 273.224 267.303 274.28C268.287 275.336 268.767 276.728 268.767 278.48ZM267.303 278.528C267.303 275.816 265.767 274.04 263.415 274.04C261.111 274.04 259.551 275.84 259.551 278.48C259.551 281.192 261.087 282.968 263.439 282.968C265.743 282.968 267.303 281.168 267.303 278.528ZM277.005 283.784C276.189 284.168 275.373 284.36 274.557 284.36C272.517 284.36 271.533 283.208 271.605 280.904L271.773 274.4L270.093 274.304L270.165 273.368L271.821 272.984L271.893 270.488L273.309 270.488L273.237 273.056L276.909 273.056L276.837 274.376L273.189 274.376L273.021 280.952C272.973 282.32 273.501 283.016 274.629 283.016C275.229 283.016 275.925 282.848 276.741 282.488L277.005 283.784ZM288.167 284L286.679 284L286.679 276.896C286.679 275.048 285.887 274.112 284.327 274.112C283.103 274.112 281.951 274.64 280.919 275.672L280.919 284L279.431 284L279.431 267.824L280.919 267.512L280.919 274.448C282.095 273.272 283.367 272.696 284.735 272.696C286.895 272.696 288.167 274.04 288.167 276.464L288.167 284ZM292.34 278.552L292.34 278.672C292.412 281.192 293.9 282.92 296.18 282.92C297.38 282.92 298.436 282.608 299.372 282.008L299.66 283.376C298.652 284 297.476 284.312 296.132 284.312C292.988 284.312 290.828 281.984 290.828 278.6C290.828 276.872 291.332 275.456 292.316 274.352C293.3 273.248 294.524 272.696 296.012 272.696C298.46 272.696 300.02 274.28 300.02 276.752C300.02 277.4 299.948 277.976 299.78 278.504L292.34 278.552ZM292.436 277.376L298.532 277.352C298.556 277.28 298.556 277.112 298.556 276.872C298.556 275.144 297.62 274.04 295.916 274.04C294.02 274.04 292.7 275.456 292.436 277.376ZM304.31 276.944L304.31 284L302.822 284L302.822 273.008L304.31 272.696L304.31 275.048C305.102 273.488 306.182 272.696 307.55 272.696C308.246 272.696 308.87 272.864 309.47 273.2L309.086 274.592C308.558 274.28 308.006 274.112 307.406 274.112C306.182 274.112 305.15 275.048 304.31 276.944ZM317.677 276.848C317.677 278.48 318.781 279.656 320.509 279.656C321.349 279.656 321.997 279.392 322.501 278.84C323.005 278.312 323.245 277.616 323.245 276.776C323.245 275.936 323.005 275.24 322.525 274.712C322.021 274.184 321.325 273.92 320.437 273.92C318.733 273.92 317.677 275.12 317.677 276.848ZM318.973 284.312C317.653 284.672 316.741 285.536 316.741 286.472C316.741 287.792 318.205 288.728 320.485 288.728C322.789 288.728 324.613 287.624 324.613 286.136C324.613 284.888 323.557 284.384 321.277 284.384C320.365 284.384 319.597 284.36 318.973 284.312ZM317.677 284.024C316.693 283.664 316.189 283.088 316.189 282.272C316.189 281.36 316.933 280.568 317.989 280.184C316.813 279.464 316.213 278.336 316.213 276.824C316.213 274.448 317.965 272.696 320.533 272.696C321.493 272.696 322.357 272.912 323.125 273.344L326.173 273.104L326.245 274.592L323.821 274.352C324.325 274.856 324.709 275.912 324.709 276.824C324.709 279.176 322.909 280.856 320.437 280.856C319.933 280.856 319.405 280.76 318.805 280.544C317.989 280.88 317.581 281.312 317.581 281.864C317.581 282.608 318.205 282.992 320.077 282.992L321.493 282.992C324.541 282.992 326.053 283.952 326.053 285.872C326.053 287.048 325.477 288.032 324.349 288.8C323.221 289.568 321.853 289.952 320.269 289.952C317.317 289.952 315.301 288.656 315.301 286.736C315.301 285.488 316.261 284.384 317.677 284.024ZM333.8 281.576L333.8 278.36C330.104 278.768 328.688 279.584 328.688 281.096C328.688 282.248 329.624 283.016 330.944 283.016C332 283.016 332.96 282.536 333.8 281.576ZM333.896 282.68L333.824 282.68C332.936 283.76 331.88 284.312 330.608 284.312C328.592 284.312 327.128 283.04 327.128 281.264C327.128 278.912 329.36 277.616 333.8 277.352L333.8 276.704C333.8 274.952 332.936 274.088 331.208 274.088C330.056 274.088 328.616 274.664 327.608 275.408L327.272 274.016C328.328 273.272 329.96 272.696 331.352 272.696C333.992 272.696 335.312 274.016 335.288 276.632L335.288 281.912C335.288 282.776 335.48 283.04 336.392 283.016L336.296 284.24C334.88 284.336 334.064 283.808 333.896 282.68ZM346.003 273.368L346.003 267.824L347.491 267.512L347.491 284L346.003 284L346.003 282.968C345.043 283.856 343.987 284.312 342.811 284.312C339.859 284.312 337.891 281.984 337.891 278.6C337.891 276.896 338.395 275.504 339.427 274.4C340.459 273.32 341.755 272.768 343.339 272.768C344.251 272.768 345.139 272.96 346.003 273.368ZM346.003 274.952C345.283 274.4 344.371 274.112 343.267 274.112C340.915 274.112 339.427 275.936 339.427 278.576C339.427 281.144 340.867 282.944 343.075 282.944C344.155 282.944 345.139 282.536 346.003 281.72L346.003 275.168L346.003 274.952ZM351.779 276.848C351.779 278.48 352.883 279.656 354.611 279.656C355.451 279.656 356.099 279.392 356.603 278.84C357.107 278.312 357.347 277.616 357.347 276.776C357.347 275.936 357.107 275.24 356.627 274.712C356.123 274.184 355.427 273.92 354.539 273.92C352.835 273.92 351.779 275.12 351.779 276.848ZM353.075 284.312C351.755 284.672 350.843 285.536 350.843 286.472C350.843 287.792 352.307 288.728 354.587 288.728C356.891 288.728 358.715 287.624 358.715 286.136C358.715 284.888 357.659 284.384 355.379 284.384C354.467 284.384 353.699 284.36 353.075 284.312ZM351.779 284.024C350.795 283.664 350.291 283.088 350.291 282.272C350.291 281.36 351.035 280.568 352.091 280.184C350.915 279.464 350.315 278.336 350.315 276.824C350.315 274.448 352.067 272.696 354.635 272.696C355.595 272.696 356.459 272.912 357.227 273.344L360.275 273.104L360.347 274.592L357.923 274.352C358.427 274.856 358.811 275.912 358.811 276.824C358.811 279.176 357.011 280.856 354.539 280.856C354.035 280.856 353.507 280.76 352.907 280.544C352.091 280.88 351.683 281.312 351.683 281.864C351.683 282.608 352.307 282.992 354.179 282.992L355.595 282.992C358.643 282.992 360.155 283.952 360.155 285.872C360.155 287.048 359.579 288.032 358.451 288.8C357.323 289.568 355.955 289.952 354.371 289.952C351.419 289.952 349.403 288.656 349.403 286.736C349.403 285.488 350.363 284.384 351.779 284.024ZM362.957 278.552L362.957 278.672C363.029 281.192 364.517 282.92 366.797 282.92C367.997 282.92 369.053 282.608 369.989 282.008L370.277 283.376C369.269 284 368.093 284.312 366.749 284.312C363.605 284.312 361.445 281.984 361.445 278.6C361.445 276.872 361.949 275.456 362.933 274.352C363.917 273.248 365.141 272.696 366.629 272.696C369.077 272.696 370.637 274.28 370.637 276.752C370.637 277.4 370.565 277.976 370.397 278.504L362.957 278.552ZM363.053 277.376L369.149 277.352C369.173 277.28 369.173 277.112 369.173 276.872C369.173 275.144 368.237 274.04 366.533 274.04C364.637 274.04 363.317 275.456 363.053 277.376ZM378.911 283.784C378.095 284.168 377.279 284.36 376.463 284.36C374.423 284.36 373.439 283.208 373.511 280.904L373.679 274.4L371.999 274.304L372.071 273.368L373.727 272.984L373.799 270.488L375.215 270.488L375.143 273.056L378.815 273.056L378.743 274.376L375.095 274.376L374.927 280.952C374.879 282.32 375.407 283.016 376.535 283.016C377.135 283.016 377.831 282.848 378.647 282.488L378.911 283.784Z" fill="#FBFBFB"/>
<path d="M506.321 252L506.321 250.56L498.905 250.56L498.905 237L497.369 237L497.369 252L506.321 252ZM514.374 249.576L514.374 246.36C510.678 246.768 509.262 247.584 509.262 249.096C509.262 250.248 510.198 251.016 511.518 251.016C512.574 251.016 513.534 250.536 514.374 249.576ZM514.47 250.68L514.398 250.68C513.51 251.76 512.454 252.312 511.182 252.312C509.166 252.312 507.702 251.04 507.702 249.264C507.702 246.912 509.934 245.616 514.374 245.352L514.374 244.704C514.374 242.952 513.51 242.088 511.782 242.088C510.63 242.088 509.19 242.664 508.182 243.408L507.846 242.016C508.902 241.272 510.534 240.696 511.926 240.696C514.566 240.696 515.886 242.016 515.862 244.632L515.862 249.912C515.862 250.776 516.054 251.04 516.966 251.016L516.87 252.24C515.454 252.336 514.638 251.808 514.47 250.68ZM527.249 251.376C526.241 252 525.113 252.312 523.841 252.312C520.553 252.312 518.465 250.008 518.465 246.528C518.465 244.824 518.969 243.408 520.001 242.328C521.009 241.248 522.305 240.696 523.865 240.696C525.185 240.696 526.313 241.008 527.297 241.632L526.913 242.976C526.025 242.376 524.993 242.088 523.865 242.088C521.489 242.088 520.001 243.84 520.001 246.48C520.001 249.192 521.537 250.92 523.889 250.92C524.993 250.92 526.001 250.608 526.937 250.008L527.249 251.376ZM531.549 246.528L536.493 252L538.389 252L533.085 246.24L538.365 241.008L536.493 241.008L531.549 246.072L531.501 246.072L531.501 235.512L530.013 235.824L530.013 252L531.501 252L531.501 246.528L531.549 246.528ZM555.864 246.48C555.864 248.208 555.36 249.6 554.328 250.68C553.296 251.76 552.024 252.312 550.464 252.312C548.904 252.312 547.632 251.784 546.648 250.728C545.664 249.672 545.16 248.28 545.16 246.528C545.16 244.8 545.688 243.384 546.72 242.304C547.752 241.224 549.024 240.696 550.584 240.696C552.144 240.696 553.416 241.224 554.4 242.28C555.384 243.336 555.864 244.728 555.864 246.48ZM554.4 246.528C554.4 243.816 552.864 242.04 550.512 242.04C548.208 242.04 546.648 243.84 546.648 246.48C546.648 249.192 548.184 250.968 550.536 250.968C552.84 250.968 554.4 249.168 554.4 246.528ZM564.27 235.776L564.198 236.112C564.126 236.352 564.078 236.568 564.006 236.784L563.91 237.12C563.262 236.808 562.71 236.664 562.23 236.664C561.006 236.664 560.406 237.528 560.406 239.232L560.406 241.056L563.862 241.056L563.79 242.376L560.406 242.376L560.406 252L558.942 252L558.942 242.424L557.166 242.304L557.262 241.368L558.918 240.984L558.942 239.256C558.99 236.616 560.094 235.296 562.254 235.296C562.926 235.296 563.598 235.464 564.27 235.776ZM571.144 241.008L572.632 241.008L572.632 248.112C572.632 249.96 573.424 250.896 575.008 250.896C576.256 250.896 577.384 250.368 578.392 249.336L578.392 241.008L579.88 241.008L579.88 252L578.392 252.312L578.392 250.536C577.24 251.712 575.968 252.312 574.6 252.312C572.44 252.312 571.144 250.92 571.144 248.544L571.144 241.008ZM588.805 251.784C587.989 252.168 587.173 252.36 586.357 252.36C584.317 252.36 583.333 251.208 583.405 248.904L583.573 242.4L581.893 242.304L581.965 241.368L583.621 240.984L583.693 238.488L585.109 238.488L585.037 241.056L588.709 241.056L588.637 242.376L584.989 242.376L584.821 248.952C584.773 250.32 585.301 251.016 586.429 251.016C587.029 251.016 587.725 250.848 588.541 250.488L588.805 251.784ZM593.008 237.384C593.008 237.696 592.912 237.936 592.744 238.152C592.576 238.368 592.312 238.488 592 238.488C591.688 238.488 591.424 238.368 591.256 238.152C591.088 237.936 590.992 237.696 590.992 237.384C590.992 237.096 591.088 236.856 591.256 236.64C591.424 236.424 591.688 236.328 592 236.328C592.312 236.328 592.576 236.424 592.744 236.64C592.912 236.856 593.008 237.096 593.008 237.384ZM592.744 252L591.256 252L591.256 241.008L592.744 240.696L592.744 252ZM597.736 252L597.736 235.512L596.248 235.824L596.248 252L597.736 252ZM602.969 237.384C602.969 237.696 602.873 237.936 602.705 238.152C602.537 238.368 602.273 238.488 601.961 238.488C601.649 238.488 601.385 238.368 601.217 238.152C601.049 237.936 600.953 237.696 600.953 237.384C600.953 237.096 601.049 236.856 601.217 236.64C601.385 236.424 601.649 236.328 601.961 236.328C602.273 236.328 602.537 236.424 602.705 236.64C602.873 236.856 602.969 237.096 602.969 237.384ZM602.705 252L601.217 252L601.217 241.008L602.705 240.696L602.705 252ZM611.68 251.784C610.864 252.168 610.048 252.36 609.232 252.36C607.192 252.36 606.208 251.208 606.28 248.904L606.448 242.4L604.768 242.304L604.84 241.368L606.496 240.984L606.568 238.488L607.984 238.488L607.912 241.056L611.584 241.056L611.512 242.376L607.864 242.376L607.696 248.952C607.648 250.32 608.176 251.016 609.304 251.016C609.904 251.016 610.6 250.848 611.416 250.488L611.68 251.784ZM622.459 241.008L618.187 251.88L617.299 254.256C616.339 256.872 615.331 257.712 613.747 257.712C613.099 257.712 612.403 257.544 611.611 257.208L612.067 255.84C612.667 256.152 613.219 256.32 613.747 256.32C614.659 256.32 615.259 255.768 616.003 253.776L616.747 251.832L612.451 241.008L614.059 241.008L617.515 250.08L620.899 241.008L622.459 241.008Z" fill="#FBFBFB"/>
<path d="M787.677 242.68C787.677 245.92 785.445 247.624 781.629 247.696L779.589 247.72L779.589 253L778.053 253L778.053 238L781.821 238C785.685 238 787.677 239.824 787.677 242.68ZM786.093 242.752C786.093 240.592 784.581 239.416 781.773 239.416L779.589 239.416L779.589 246.304L781.725 246.256C784.629 246.208 786.093 245.032 786.093 242.752ZM791.794 245.944L791.794 253L790.306 253L790.306 242.008L791.794 241.696L791.794 244.048C792.586 242.488 793.666 241.696 795.034 241.696C795.73 241.696 796.354 241.864 796.954 242.2L796.57 243.592C796.042 243.28 795.49 243.112 794.89 243.112C793.666 243.112 792.634 244.048 791.794 245.944ZM800.637 238.384C800.637 238.696 800.541 238.936 800.373 239.152C800.205 239.368 799.941 239.488 799.629 239.488C799.317 239.488 799.053 239.368 798.885 239.152C798.717 238.936 798.621 238.696 798.621 238.384C798.621 238.096 798.717 237.856 798.885 237.64C799.053 237.424 799.317 237.328 799.629 237.328C799.941 237.328 800.205 237.424 800.373 237.64C800.541 237.856 800.637 238.096 800.637 238.384ZM800.373 253L798.885 253L798.885 242.008L800.373 241.696L800.373 253ZM812.228 242.008L810.668 242.008L807.308 251.08L803.828 242.008L802.22 242.008L806.564 253.024L807.908 253.024L812.228 242.008ZM819.784 250.576L819.784 247.36C816.088 247.768 814.672 248.584 814.672 250.096C814.672 251.248 815.608 252.016 816.928 252.016C817.984 252.016 818.944 251.536 819.784 250.576ZM819.88 251.68L819.808 251.68C818.92 252.76 817.864 253.312 816.592 253.312C814.576 253.312 813.112 252.04 813.112 250.264C813.112 247.912 815.344 246.616 819.784 246.352L819.784 245.704C819.784 243.952 818.92 243.088 817.192 243.088C816.04 243.088 814.6 243.664 813.592 244.408L813.256 243.016C814.312 242.272 815.944 241.696 817.336 241.696C819.976 241.696 821.296 243.016 821.272 245.632L821.272 250.912C821.272 251.776 821.464 252.04 822.376 252.016L822.28 253.24C820.864 253.336 820.048 252.808 819.88 251.68ZM832.659 252.376C831.651 253 830.523 253.312 829.251 253.312C825.963 253.312 823.875 251.008 823.875 247.528C823.875 245.824 824.379 244.408 825.411 243.328C826.419 242.248 827.715 241.696 829.275 241.696C830.595 241.696 831.723 242.008 832.707 242.632L832.323 243.976C831.435 243.376 830.403 243.088 829.275 243.088C826.899 243.088 825.411 244.84 825.411 247.48C825.411 250.192 826.947 251.92 829.299 251.92C830.403 251.92 831.411 251.608 832.347 251.008L832.659 252.376ZM843.775 242.008L839.503 252.88L838.615 255.256C837.655 257.872 836.647 258.712 835.063 258.712C834.415 258.712 833.719 258.544 832.927 258.208L833.383 256.84C833.983 257.152 834.535 257.32 835.063 257.32C835.975 257.32 836.575 256.768 837.319 254.776L838.063 252.832L833.767 242.008L835.375 242.008L838.831 251.08L842.215 242.008L843.775 242.008Z" fill="#FBFBFB"/>
<path d="M970.763 252L970.763 250.56L963.347 250.56L963.347 237L961.811 237L961.811 252L970.763 252ZM978.816 249.576L978.816 246.36C975.12 246.768 973.704 247.584 973.704 249.096C973.704 250.248 974.64 251.016 975.96 251.016C977.016 251.016 977.976 250.536 978.816 249.576ZM978.912 250.68L978.84 250.68C977.952 251.76 976.896 252.312 975.624 252.312C973.608 252.312 972.144 251.04 972.144 249.264C972.144 246.912 974.376 245.616 978.816 245.352L978.816 244.704C978.816 242.952 977.952 242.088 976.224 242.088C975.072 242.088 973.632 242.664 972.624 243.408L972.288 242.016C973.344 241.272 974.976 240.696 976.368 240.696C979.008 240.696 980.328 242.016 980.304 244.632L980.304 249.912C980.304 250.776 980.496 251.04 981.408 251.016L981.312 252.24C979.896 252.336 979.08 251.808 978.912 250.68ZM991.69 251.376C990.682 252 989.554 252.312 988.282 252.312C984.994 252.312 982.906 250.008 982.906 246.528C982.906 244.824 983.41 243.408 984.442 242.328C985.45 241.248 986.746 240.696 988.306 240.696C989.626 240.696 990.754 241.008 991.738 241.632L991.354 242.976C990.466 242.376 989.434 242.088 988.306 242.088C985.93 242.088 984.442 243.84 984.442 246.48C984.442 249.192 985.978 250.92 988.33 250.92C989.434 250.92 990.442 250.608 991.378 250.008L991.69 251.376ZM995.991 246.528L1000.93 252L1002.83 252L997.527 246.24L1002.81 241.008L1000.93 241.008L995.991 246.072L995.943 246.072L995.943 235.512L994.455 235.824L994.455 252L995.943 252L995.943 246.528L995.991 246.528ZM1020.31 246.48C1020.31 248.208 1019.8 249.6 1018.77 250.68C1017.74 251.76 1016.47 252.312 1014.91 252.312C1013.35 252.312 1012.07 251.784 1011.09 250.728C1010.11 249.672 1009.6 248.28 1009.6 246.528C1009.6 244.8 1010.13 243.384 1011.16 242.304C1012.19 241.224 1013.47 240.696 1015.03 240.696C1016.59 240.696 1017.86 241.224 1018.84 242.28C1019.83 243.336 1020.31 244.728 1020.31 246.48ZM1018.84 246.528C1018.84 243.816 1017.31 242.04 1014.95 242.04C1012.65 242.04 1011.09 243.84 1011.09 246.48C1011.09 249.192 1012.63 250.968 1014.98 250.968C1017.28 250.968 1018.84 249.168 1018.84 246.528ZM1028.71 235.776L1028.64 236.112C1028.57 236.352 1028.52 236.568 1028.45 236.784L1028.35 237.12C1027.7 236.808 1027.15 236.664 1026.67 236.664C1025.45 236.664 1024.85 237.528 1024.85 239.232L1024.85 241.056L1028.3 241.056L1028.23 242.376L1024.85 242.376L1024.85 252L1023.38 252L1023.38 242.424L1021.61 242.304L1021.7 241.368L1023.36 240.984L1023.38 239.256C1023.43 236.616 1024.54 235.296 1026.7 235.296C1027.37 235.296 1028.04 235.464 1028.71 235.776ZM1037.46 237.384C1037.46 237.696 1037.36 237.936 1037.19 238.152C1037.03 238.368 1036.76 238.488 1036.45 238.488C1036.14 238.488 1035.87 238.368 1035.71 238.152C1035.54 237.936 1035.44 237.696 1035.44 237.384C1035.44 237.096 1035.54 236.856 1035.71 236.64C1035.87 236.424 1036.14 236.328 1036.45 236.328C1036.76 236.328 1037.03 236.424 1037.19 236.64C1037.36 236.856 1037.46 237.096 1037.46 237.384ZM1037.19 252L1035.71 252L1035.71 241.008L1037.19 240.696L1037.19 252ZM1055.91 252L1054.42 252L1054.42 244.92C1054.42 243.048 1053.66 242.112 1052.1 242.112C1051.04 242.112 1050.01 242.592 1049 243.528C1049.02 243.72 1049.05 244.056 1049.05 244.512L1049.05 252L1047.56 252L1047.56 244.92C1047.56 243.048 1046.79 242.112 1045.23 242.112C1044.15 242.112 1043.14 242.544 1042.18 243.384L1042.18 252L1040.7 252L1040.7 241.008L1042.18 240.696L1042.18 242.208C1043.29 241.2 1044.44 240.696 1045.66 240.696C1047.13 240.696 1048.11 241.296 1048.64 242.52C1049.86 241.296 1051.16 240.696 1052.53 240.696C1054.64 240.696 1055.91 242.064 1055.91 244.488L1055.91 252ZM1060.79 242.112C1061.75 241.224 1062.81 240.768 1063.99 240.768C1066.94 240.768 1068.91 243.072 1068.91 246.456C1068.91 248.16 1068.4 249.576 1067.39 250.656C1066.36 251.76 1065.07 252.312 1063.48 252.312C1062.5 252.312 1061.61 252.12 1060.79 251.736L1060.79 257.592L1059.31 257.592L1059.31 240.96L1060.79 240.648L1060.79 242.112ZM1060.79 243.36L1060.79 250.104C1061.54 250.68 1062.45 250.968 1063.55 250.968C1065.86 250.968 1067.37 249.12 1067.37 246.48C1067.37 243.912 1065.95 242.136 1063.75 242.136C1062.67 242.136 1061.68 242.544 1060.79 243.36ZM1073.15 244.944L1073.15 252L1071.66 252L1071.66 241.008L1073.15 240.696L1073.15 243.048C1073.94 241.488 1075.02 240.696 1076.39 240.696C1077.08 240.696 1077.71 240.864 1078.31 241.2L1077.92 242.592C1077.39 242.28 1076.84 242.112 1076.24 242.112C1075.02 242.112 1073.99 243.048 1073.15 244.944ZM1089.96 246.48C1089.96 248.208 1089.46 249.6 1088.43 250.68C1087.39 251.76 1086.12 252.312 1084.56 252.312C1083 252.312 1081.73 251.784 1080.75 250.728C1079.76 249.672 1079.26 248.28 1079.26 246.528C1079.26 244.8 1079.79 243.384 1080.82 242.304C1081.85 241.224 1083.12 240.696 1084.68 240.696C1086.24 240.696 1087.51 241.224 1088.5 242.28C1089.48 243.336 1089.96 244.728 1089.96 246.48ZM1088.5 246.528C1088.5 243.816 1086.96 242.04 1084.61 242.04C1082.31 242.04 1080.75 243.84 1080.75 246.48C1080.75 249.192 1082.28 250.968 1084.63 250.968C1086.94 250.968 1088.5 249.168 1088.5 246.528ZM1100.96 241.008L1099.4 241.008L1096.04 250.08L1092.56 241.008L1090.95 241.008L1095.3 252.024L1096.64 252.024L1100.96 241.008ZM1103.46 246.552L1103.46 246.672C1103.53 249.192 1105.02 250.92 1107.3 250.92C1108.5 250.92 1109.55 250.608 1110.49 250.008L1110.78 251.376C1109.77 252 1108.59 252.312 1107.25 252.312C1104.11 252.312 1101.95 249.984 1101.95 246.6C1101.95 244.872 1102.45 243.456 1103.43 242.352C1104.42 241.248 1105.64 240.696 1107.13 240.696C1109.58 240.696 1111.14 242.28 1111.14 244.752C1111.14 245.4 1111.07 245.976 1110.9 246.504L1103.46 246.552ZM1103.55 245.376L1109.65 245.352C1109.67 245.28 1109.67 245.112 1109.67 244.872C1109.67 243.144 1108.74 242.04 1107.03 242.04C1105.14 242.04 1103.82 243.456 1103.55 245.376ZM1129.15 252L1127.67 252L1127.67 244.92C1127.67 243.048 1126.9 242.112 1125.34 242.112C1124.28 242.112 1123.25 242.592 1122.24 243.528C1122.27 243.72 1122.29 244.056 1122.29 244.512L1122.29 252L1120.8 252L1120.8 244.92C1120.8 243.048 1120.03 242.112 1118.47 242.112C1117.39 242.112 1116.39 242.544 1115.43 243.384L1115.43 252L1113.94 252L1113.94 241.008L1115.43 240.696L1115.43 242.208C1116.53 241.2 1117.68 240.696 1118.91 240.696C1120.37 240.696 1121.35 241.296 1121.88 242.52C1123.11 241.296 1124.4 240.696 1125.77 240.696C1127.88 240.696 1129.15 242.064 1129.15 244.488L1129.15 252ZM1133.34 246.552L1133.34 246.672C1133.41 249.192 1134.9 250.92 1137.18 250.92C1138.38 250.92 1139.44 250.608 1140.37 250.008L1140.66 251.376C1139.65 252 1138.48 252.312 1137.13 252.312C1133.99 252.312 1131.83 249.984 1131.83 246.6C1131.83 244.872 1132.33 243.456 1133.32 242.352C1134.3 241.248 1135.52 240.696 1137.01 240.696C1139.46 240.696 1141.02 242.28 1141.02 244.752C1141.02 245.4 1140.95 245.976 1140.78 246.504L1133.34 246.552ZM1133.44 245.376L1139.53 245.352C1139.56 245.28 1139.56 245.112 1139.56 244.872C1139.56 243.144 1138.62 242.04 1136.92 242.04C1135.02 242.04 1133.7 243.456 1133.44 245.376ZM1152.56 252L1151.07 252L1151.07 244.896C1151.07 242.976 1150.33 242.112 1148.65 242.112C1147.47 242.112 1146.34 242.64 1145.31 243.672L1145.31 252L1143.82 252L1143.82 241.008L1145.31 240.696L1145.31 242.496C1146.51 241.296 1147.76 240.696 1149.05 240.696C1151.26 240.696 1152.56 242.04 1152.56 244.464L1152.56 252ZM1161.41 251.784C1160.59 252.168 1159.78 252.36 1158.96 252.36C1156.92 252.36 1155.94 251.208 1156.01 248.904L1156.18 242.4L1154.5 242.304L1154.57 241.368L1156.23 240.984L1156.3 238.488L1157.71 238.488L1157.64 241.056L1161.31 241.056L1161.24 242.376L1157.59 242.376L1157.43 248.952C1157.38 250.32 1157.91 251.016 1159.03 251.016C1159.63 251.016 1160.33 250.848 1161.15 250.488L1161.41 251.784ZM1000.23 268.384C1000.23 268.696 1000.13 268.936 999.963 269.152C999.795 269.368 999.531 269.488 999.219 269.488C998.907 269.488 998.643 269.368 998.475 269.152C998.307 268.936 998.211 268.696 998.211 268.384C998.211 268.096 998.307 267.856 998.475 267.64C998.643 267.424 998.907 267.328 999.219 267.328C999.531 267.328 999.795 267.424 999.963 267.64C1000.13 267.856 1000.23 268.096 1000.23 268.384ZM999.963 283L998.475 283L998.475 272.008L999.963 271.696L999.963 283ZM1012.2 283L1010.71 283L1010.71 275.896C1010.71 273.976 1009.97 273.112 1008.29 273.112C1007.11 273.112 1005.99 273.64 1004.95 274.672L1004.95 283L1003.47 283L1003.47 272.008L1004.95 271.696L1004.95 273.496C1006.15 272.296 1007.4 271.696 1008.7 271.696C1010.91 271.696 1012.2 273.04 1012.2 275.464L1012.2 283ZM1026.52 282.784C1025.7 283.168 1024.88 283.36 1024.07 283.36C1022.03 283.36 1021.04 282.208 1021.12 279.904L1021.28 273.4L1019.6 273.304L1019.68 272.368L1021.33 271.984L1021.4 269.488L1022.82 269.488L1022.75 272.056L1026.42 272.056L1026.35 273.376L1022.7 273.376L1022.53 279.952C1022.48 281.32 1023.01 282.016 1024.14 282.016C1024.74 282.016 1025.44 281.848 1026.25 281.488L1026.52 282.784ZM1029.62 277.552L1029.62 277.672C1029.69 280.192 1031.18 281.92 1033.46 281.92C1034.66 281.92 1035.71 281.608 1036.65 281.008L1036.94 282.376C1035.93 283 1034.75 283.312 1033.41 283.312C1030.27 283.312 1028.11 280.984 1028.11 277.6C1028.11 275.872 1028.61 274.456 1029.59 273.352C1030.58 272.248 1031.8 271.696 1033.29 271.696C1035.74 271.696 1037.3 273.28 1037.3 275.752C1037.3 276.4 1037.23 276.976 1037.06 277.504L1029.62 277.552ZM1029.71 276.376L1035.81 276.352C1035.83 276.28 1035.83 276.112 1035.83 275.872C1035.83 274.144 1034.9 273.04 1033.19 273.04C1031.3 273.04 1029.98 274.456 1029.71 276.376ZM1048.16 282.376C1047.16 283 1046.03 283.312 1044.76 283.312C1041.47 283.312 1039.38 281.008 1039.38 277.528C1039.38 275.824 1039.88 274.408 1040.92 273.328C1041.92 272.248 1043.22 271.696 1044.78 271.696C1046.1 271.696 1047.23 272.008 1048.21 272.632L1047.83 273.976C1046.94 273.376 1045.91 273.088 1044.78 273.088C1042.4 273.088 1040.92 274.84 1040.92 277.48C1040.92 280.192 1042.45 281.92 1044.8 281.92C1045.91 281.92 1046.92 281.608 1047.85 281.008L1048.16 282.376ZM1059.66 283L1058.18 283L1058.18 275.896C1058.18 274.048 1057.38 273.112 1055.82 273.112C1054.6 273.112 1053.45 273.64 1052.42 274.672L1052.42 283L1050.93 283L1050.93 266.824L1052.42 266.512L1052.42 273.448C1053.59 272.272 1054.86 271.696 1056.23 271.696C1058.39 271.696 1059.66 273.04 1059.66 275.464L1059.66 283ZM1071.78 283L1070.29 283L1070.29 275.896C1070.29 273.976 1069.55 273.112 1067.87 273.112C1066.69 273.112 1065.56 273.64 1064.53 274.672L1064.53 283L1063.04 283L1063.04 272.008L1064.53 271.696L1064.53 273.496C1065.73 272.296 1066.98 271.696 1068.28 271.696C1070.48 271.696 1071.78 273.04 1071.78 275.464L1071.78 283ZM1085.15 277.48C1085.15 279.208 1084.64 280.6 1083.61 281.68C1082.58 282.76 1081.31 283.312 1079.75 283.312C1078.19 283.312 1076.91 282.784 1075.93 281.728C1074.95 280.672 1074.44 279.28 1074.44 277.528C1074.44 275.8 1074.97 274.384 1076 273.304C1077.03 272.224 1078.31 271.696 1079.87 271.696C1081.43 271.696 1082.7 272.224 1083.68 273.28C1084.67 274.336 1085.15 275.728 1085.15 277.48ZM1083.68 277.528C1083.68 274.816 1082.15 273.04 1079.79 273.04C1077.49 273.04 1075.93 274.84 1075.93 277.48C1075.93 280.192 1077.47 281.968 1079.82 281.968C1082.12 281.968 1083.68 280.168 1083.68 277.528ZM1089.4 283L1089.4 266.512L1087.91 266.824L1087.91 283L1089.4 283ZM1102.84 277.48C1102.84 279.208 1102.34 280.6 1101.3 281.68C1100.27 282.76 1099 283.312 1097.44 283.312C1095.88 283.312 1094.61 282.784 1093.62 281.728C1092.64 280.672 1092.14 279.28 1092.14 277.528C1092.14 275.8 1092.66 274.384 1093.7 273.304C1094.73 272.224 1096 271.696 1097.56 271.696C1099.12 271.696 1100.39 272.224 1101.38 273.28C1102.36 274.336 1102.84 275.728 1102.84 277.48ZM1101.38 277.528C1101.38 274.816 1099.84 273.04 1097.49 273.04C1095.18 273.04 1093.62 274.84 1093.62 277.48C1093.62 280.192 1095.16 281.968 1097.51 281.968C1099.82 281.968 1101.38 280.168 1101.38 277.528ZM1106.45 275.848C1106.45 277.48 1107.55 278.656 1109.28 278.656C1110.12 278.656 1110.77 278.392 1111.27 277.84C1111.77 277.312 1112.01 276.616 1112.01 275.776C1112.01 274.936 1111.77 274.24 1111.29 273.712C1110.79 273.184 1110.09 272.92 1109.21 272.92C1107.5 272.92 1106.45 274.12 1106.45 275.848ZM1107.74 283.312C1106.42 283.672 1105.51 284.536 1105.51 285.472C1105.51 286.792 1106.97 287.728 1109.25 287.728C1111.56 287.728 1113.38 286.624 1113.38 285.136C1113.38 283.888 1112.33 283.384 1110.05 283.384C1109.13 283.384 1108.37 283.36 1107.74 283.312ZM1106.45 283.024C1105.46 282.664 1104.96 282.088 1104.96 281.272C1104.96 280.36 1105.7 279.568 1106.76 279.184C1105.58 278.464 1104.98 277.336 1104.98 275.824C1104.98 273.448 1106.73 271.696 1109.3 271.696C1110.26 271.696 1111.13 271.912 1111.89 272.344L1114.94 272.104L1115.01 273.592L1112.59 273.352C1113.09 273.856 1113.48 274.912 1113.48 275.824C1113.48 278.176 1111.68 279.856 1109.21 279.856C1108.7 279.856 1108.17 279.76 1107.57 279.544C1106.76 279.88 1106.35 280.312 1106.35 280.864C1106.35 281.608 1106.97 281.992 1108.85 281.992L1110.26 281.992C1113.31 281.992 1114.82 282.952 1114.82 284.872C1114.82 286.048 1114.25 287.032 1113.12 287.8C1111.99 288.568 1110.62 288.952 1109.04 288.952C1106.09 288.952 1104.07 287.656 1104.07 285.736C1104.07 284.488 1105.03 283.384 1106.45 283.024ZM1125.19 272.008L1120.91 282.88L1120.03 285.256C1119.07 287.872 1118.06 288.712 1116.47 288.712C1115.83 288.712 1115.13 288.544 1114.34 288.208L1114.79 286.84C1115.39 287.152 1115.95 287.32 1116.47 287.32C1117.39 287.32 1117.99 286.768 1118.73 284.776L1119.47 282.832L1115.18 272.008L1116.79 272.008L1120.24 281.08L1123.63 272.008L1125.19 272.008Z" fill="#FBFBFB"/>
<path d="M106.304 179.592L99.656 193.416L101.672 193.416L108.44 179.352L108.44 177.648L98.48 177.648L98.408 179.592L106.304 179.592ZM109.977 183.12C109.977 180.936 110.697 178.968 112.113 177.216C113.529 175.488 115.545 174.312 118.209 173.688L118.809 175.56C115.089 176.496 112.857 178.368 112.113 181.176L112.161 181.2C113.241 180.216 114.513 179.712 115.977 179.712C118.449 179.712 120.369 181.608 120.369 184.368C120.369 187.272 118.353 189.36 115.257 189.36C113.601 189.36 112.329 188.76 111.393 187.56C110.457 186.384 109.977 184.896 109.977 183.12ZM112.065 183.744C112.065 185.856 113.361 187.536 115.353 187.536C117.177 187.536 118.377 186.288 118.377 184.464C118.377 182.664 117.177 181.464 115.449 181.464C114.153 181.464 112.929 182.064 112.185 182.736C112.113 183.024 112.065 183.36 112.065 183.744ZM123.774 186.288C124.206 186.288 124.566 186.432 124.854 186.72C125.142 187.032 125.286 187.392 125.286 187.8C125.286 188.208 125.142 188.568 124.854 188.88C124.566 189.192 124.206 189.36 123.774 189.36C123.318 189.36 122.958 189.192 122.67 188.88C122.358 188.568 122.214 188.208 122.214 187.8C122.214 187.392 122.358 187.032 122.67 186.72C122.958 186.432 123.318 186.288 123.774 186.288ZM137.477 183.552C137.477 185.736 136.781 187.704 135.365 189.432C133.949 191.184 131.909 192.36 129.245 192.984L128.645 191.112C132.365 190.176 134.597 188.304 135.341 185.496L135.293 185.472C134.213 186.456 132.941 186.96 131.477 186.96C129.005 186.96 127.085 185.064 127.085 182.304C127.085 179.4 129.101 177.312 132.197 177.312C133.853 177.312 135.149 177.912 136.085 179.088C137.021 180.288 137.477 181.776 137.477 183.552ZM135.389 182.928C135.389 180.816 134.093 179.136 132.101 179.136C130.277 179.136 129.077 180.384 129.077 182.208C129.077 184.008 130.277 185.208 132.005 185.208C133.301 185.208 134.525 184.608 135.269 183.936C135.341 183.648 135.389 183.312 135.389 182.928ZM146.804 177.432C146.804 179.64 145.244 181.392 142.82 181.392C140.444 181.392 138.836 179.64 138.836 177.432C138.836 176.304 139.196 175.368 139.94 174.576C140.66 173.808 141.62 173.424 142.82 173.424C144.02 173.424 144.98 173.808 145.724 174.576C146.444 175.344 146.804 176.304 146.804 177.432ZM154.124 173.664L142.172 189.36L140.66 189.36L152.612 173.664L154.124 173.664ZM155.924 185.592C155.924 186.72 155.564 187.656 154.844 188.424C154.1 189.216 153.14 189.6 151.94 189.6C150.74 189.6 149.78 189.216 149.06 188.448C148.316 187.68 147.956 186.72 147.956 185.592C147.956 183.384 149.54 181.632 151.94 181.632C154.316 181.632 155.924 183.384 155.924 185.592ZM145.508 177.432C145.508 176.64 145.268 175.992 144.788 175.464C144.284 174.936 143.636 174.672 142.82 174.672C142.004 174.672 141.356 174.936 140.876 175.464C140.372 175.992 140.132 176.64 140.132 177.432C140.132 178.176 140.372 178.824 140.876 179.352C141.356 179.88 142.004 180.144 142.82 180.144C143.636 180.144 144.284 179.88 144.788 179.352C145.268 178.824 145.508 178.176 145.508 177.432ZM154.628 185.592C154.628 184.848 154.388 184.2 153.908 183.672C153.404 183.144 152.756 182.88 151.94 182.88C151.124 182.88 150.476 183.144 149.996 183.672C149.492 184.2 149.252 184.848 149.252 185.592C149.252 186.384 149.492 187.032 149.996 187.56C150.476 188.088 151.124 188.352 151.94 188.352C152.756 188.352 153.404 188.088 153.908 187.56C154.388 187.032 154.628 186.384 154.628 185.592Z" fill="#FBFBFB"/>
<path d="M355.48 184.92C357.76 185.28 359.008 186.888 359.008 188.712C359.008 190.176 358.48 191.352 357.448 192.192C356.392 193.056 355.072 193.488 353.488 193.488C351.784 193.488 350.416 193.176 349.432 192.576L349.792 190.728C350.728 191.376 351.976 191.688 353.512 191.688C355.6 191.688 356.944 190.68 356.944 188.856C356.944 187.248 355.672 186.408 353.68 186.336C353.08 186.312 352.336 186.384 351.472 186.528L351.472 184.824C354.712 184.08 356.32 182.928 356.32 181.392C356.32 179.952 355.336 179.16 353.608 179.16C352.552 179.16 351.4 179.616 350.152 180.552L349.456 178.872C350.776 177.84 352.24 177.312 353.824 177.312C356.728 177.312 358.48 178.848 358.48 181.104C358.48 182.808 357.184 184.248 355.48 184.92ZM370.589 178.992C371.669 180.12 372.197 181.56 372.197 183.336C372.197 185.112 371.669 186.552 370.589 187.68C369.509 188.808 368.093 189.36 366.389 189.36C364.685 189.36 363.293 188.808 362.213 187.68C361.133 186.576 360.605 185.136 360.605 183.336C360.605 181.536 361.133 180.096 362.213 178.968C363.293 177.864 364.685 177.312 366.389 177.312C368.093 177.312 369.509 177.864 370.589 178.992ZM369.173 186.312C369.869 185.52 370.229 184.536 370.229 183.336C370.229 182.136 369.869 181.152 369.173 180.36C368.453 179.568 367.517 179.184 366.389 179.184C365.261 179.184 364.325 179.568 363.629 180.336C362.933 181.128 362.573 182.112 362.573 183.336C362.573 184.56 362.933 185.544 363.629 186.312C364.325 187.104 365.261 187.488 366.389 187.488C367.517 187.488 368.453 187.104 369.173 186.312ZM375.407 186.288C375.839 186.288 376.199 186.432 376.487 186.72C376.775 187.032 376.919 187.392 376.919 187.8C376.919 188.208 376.775 188.568 376.487 188.88C376.199 189.192 375.839 189.36 375.407 189.36C374.951 189.36 374.591 189.192 374.303 188.88C373.991 188.568 373.847 188.208 373.847 187.8C373.847 187.392 373.991 187.032 374.303 186.72C374.591 186.432 374.951 186.288 375.407 186.288ZM384.739 180.888C386.083 180.336 386.755 179.424 386.755 178.176C386.755 176.64 385.603 175.656 384.019 175.656C382.219 175.656 381.163 176.616 381.163 177.936C381.163 178.224 381.235 178.488 381.379 178.752C381.523 179.016 381.691 179.208 381.859 179.376C382.027 179.544 382.315 179.736 382.723 179.952C383.107 180.168 383.419 180.312 383.635 180.408C383.851 180.528 384.235 180.672 384.739 180.888ZM383.299 182.232C381.811 182.712 380.923 183.744 380.923 185.088C380.923 186.6 382.219 187.608 384.043 187.608C385.939 187.608 386.971 186.792 386.971 185.352C386.971 185.088 386.923 184.848 386.851 184.632C386.779 184.416 386.635 184.2 386.419 183.984C386.203 183.768 386.011 183.6 385.867 183.48C385.723 183.36 385.459 183.216 385.051 183.024C384.643 182.832 384.379 182.712 384.259 182.64C384.115 182.568 383.803 182.448 383.299 182.232ZM386.227 181.56C388.075 182.496 388.987 183.672 388.987 185.112C388.987 187.512 387.139 189.36 383.947 189.36C380.707 189.36 378.931 187.656 378.931 185.304C378.931 183.504 380.371 181.968 381.811 181.584C380.131 180.72 379.171 179.76 379.171 178.152C379.171 175.632 381.067 173.904 384.115 173.904C387.139 173.904 388.747 175.68 388.747 177.96C388.747 179.64 387.571 181.008 386.227 181.56ZM398.343 177.432C398.343 179.64 396.783 181.392 394.359 181.392C391.983 181.392 390.375 179.64 390.375 177.432C390.375 176.304 390.735 175.368 391.479 174.576C392.199 173.808 393.159 173.424 394.359 173.424C395.559 173.424 396.519 173.808 397.263 174.576C397.983 175.344 398.343 176.304 398.343 177.432ZM405.663 173.664L393.711 189.36L392.199 189.36L404.151 173.664L405.663 173.664ZM407.463 185.592C407.463 186.72 407.103 187.656 406.383 188.424C405.639 189.216 404.679 189.6 403.479 189.6C402.279 189.6 401.319 189.216 400.599 188.448C399.855 187.68 399.495 186.72 399.495 185.592C399.495 183.384 401.079 181.632 403.479 181.632C405.855 181.632 407.463 183.384 407.463 185.592ZM397.047 177.432C397.047 176.64 396.807 175.992 396.327 175.464C395.823 174.936 395.175 174.672 394.359 174.672C393.543 174.672 392.895 174.936 392.415 175.464C391.911 175.992 391.671 176.64 391.671 177.432C391.671 178.176 391.911 178.824 392.415 179.352C392.895 179.88 393.543 180.144 394.359 180.144C395.175 180.144 395.823 179.88 396.327 179.352C396.807 178.824 397.047 178.176 397.047 177.432ZM406.167 185.592C406.167 184.848 405.927 184.2 405.447 183.672C404.943 183.144 404.295 182.88 403.479 182.88C402.663 182.88 402.015 183.144 401.535 183.672C401.031 184.2 400.791 184.848 400.791 185.592C400.791 186.384 401.031 187.032 401.535 187.56C402.015 188.088 402.663 188.352 403.479 188.352C404.295 188.352 404.943 188.088 405.447 187.56C405.927 187.032 406.167 186.384 406.167 185.592Z" fill="#FBFBFB"/>
<path d="M611.128 189L602.104 189L602.104 187.296C602.44 187.032 602.896 186.696 603.496 186.264C604.096 185.856 604.552 185.52 604.864 185.28C605.176 185.04 605.56 184.752 606.016 184.392C606.472 184.032 606.808 183.744 607.072 183.504C607.312 183.264 607.552 183 607.816 182.688C608.08 182.4 608.248 182.112 608.368 181.848C608.464 181.584 608.512 181.32 608.512 181.056C608.512 179.928 607.648 179.16 606.232 179.16C605.2 179.16 604.048 179.616 602.824 180.528L602.128 178.848C603.424 177.816 604.864 177.312 606.448 177.312C608.92 177.312 610.6 178.704 610.6 180.816C610.6 181.08 610.576 181.32 610.528 181.56C610.456 181.824 610.408 182.04 610.336 182.256C610.264 182.472 610.168 182.688 610 182.904C609.832 183.144 609.688 183.336 609.568 183.504C609.448 183.672 609.28 183.864 609.016 184.104C608.752 184.368 608.536 184.56 608.392 184.68C608.248 184.8 608.008 184.992 607.672 185.256C607.312 185.52 607.072 185.712 606.904 185.832C606.736 185.952 606.424 186.168 606.016 186.48C605.584 186.792 605.272 187.008 605.104 187.128L611.128 187.128L611.128 189ZM618.449 184.92C620.729 185.28 621.977 186.888 621.977 188.712C621.977 190.176 621.449 191.352 620.417 192.192C619.361 193.056 618.041 193.488 616.457 193.488C614.753 193.488 613.385 193.176 612.401 192.576L612.761 190.728C613.697 191.376 614.945 191.688 616.481 191.688C618.569 191.688 619.913 190.68 619.913 188.856C619.913 187.248 618.641 186.408 616.649 186.336C616.049 186.312 615.305 186.384 614.441 186.528L614.441 184.824C617.681 184.08 619.289 182.928 619.289 181.392C619.289 179.952 618.305 179.16 616.577 179.16C615.521 179.16 614.369 179.616 613.121 180.552L612.425 178.872C613.745 177.84 615.209 177.312 616.793 177.312C619.697 177.312 621.449 178.848 621.449 181.104C621.449 182.808 620.153 184.248 618.449 184.92ZM625.743 186.288C626.175 186.288 626.535 186.432 626.823 186.72C627.111 187.032 627.255 187.392 627.255 187.8C627.255 188.208 627.111 188.568 626.823 188.88C626.535 189.192 626.175 189.36 625.743 189.36C625.287 189.36 624.927 189.192 624.639 188.88C624.327 188.568 624.183 188.208 624.183 187.8C624.183 187.392 624.327 187.032 624.639 186.72C624.927 186.432 625.287 186.288 625.743 186.288ZM631.348 189L633.292 189L633.292 177.288L628.492 178.872L628.564 180.672L631.348 179.784L631.348 189ZM644.015 177.432C644.015 179.64 642.455 181.392 640.031 181.392C637.655 181.392 636.047 179.64 636.047 177.432C636.047 176.304 636.407 175.368 637.151 174.576C637.871 173.808 638.831 173.424 640.031 173.424C641.231 173.424 642.191 173.808 642.935 174.576C643.655 175.344 644.015 176.304 644.015 177.432ZM651.335 173.664L639.383 189.36L637.871 189.36L649.823 173.664L651.335 173.664ZM653.135 185.592C653.135 186.72 652.775 187.656 652.055 188.424C651.311 189.216 650.351 189.6 649.151 189.6C647.951 189.6 646.991 189.216 646.271 188.448C645.527 187.68 645.167 186.72 645.167 185.592C645.167 183.384 646.751 181.632 649.151 181.632C651.527 181.632 653.135 183.384 653.135 185.592ZM642.719 177.432C642.719 176.64 642.479 175.992 641.999 175.464C641.495 174.936 640.847 174.672 640.031 174.672C639.215 174.672 638.567 174.936 638.087 175.464C637.583 175.992 637.343 176.64 637.343 177.432C637.343 178.176 637.583 178.824 638.087 179.352C638.567 179.88 639.215 180.144 640.031 180.144C640.847 180.144 641.495 179.88 641.999 179.352C642.479 178.824 642.719 178.176 642.719 177.432ZM651.839 185.592C651.839 184.848 651.599 184.2 651.119 183.672C650.615 183.144 649.967 182.88 649.151 182.88C648.335 182.88 647.687 183.144 647.207 183.672C646.703 184.2 646.463 184.848 646.463 185.592C646.463 186.384 646.703 187.032 647.207 187.56C647.687 188.088 648.335 188.352 649.151 188.352C649.967 188.352 650.615 188.088 651.119 187.56C651.599 187.032 651.839 186.384 651.839 185.592Z" fill="#FBFBFB"/>
<path d="M855.864 189L857.808 189L857.808 177.288L853.008 178.872L853.08 180.672L855.864 179.784L855.864 189ZM863.251 183.84C864.043 183.768 864.619 183.72 864.955 183.72C868.099 183.72 870.115 185.52 870.115 188.328C870.115 189.84 869.611 191.088 868.603 192.048C867.571 193.008 866.323 193.488 864.835 193.488C863.227 193.488 861.835 193.152 860.659 192.456L861.019 190.512C862.339 191.256 863.635 191.616 864.859 191.616C866.755 191.616 868.099 190.344 868.099 188.424C868.099 186.744 866.803 185.424 864.715 185.424C863.659 185.424 862.675 185.568 861.763 185.832L861.235 185.352L862.219 177.648L869.707 177.648L869.779 179.592L863.827 179.592L863.251 183.84ZM873.438 186.288C873.87 186.288 874.23 186.432 874.518 186.72C874.806 187.032 874.95 187.392 874.95 187.8C874.95 188.208 874.806 188.568 874.518 188.88C874.23 189.192 873.87 189.36 873.438 189.36C872.982 189.36 872.622 189.192 872.334 188.88C872.022 188.568 871.878 188.208 871.878 187.8C871.878 187.392 872.022 187.032 872.334 186.72C872.622 186.432 872.982 186.288 873.438 186.288ZM888.546 188.76L888.474 186.888L886.194 186.888L886.194 177.288L884.442 177.288L876.69 187.608L876.882 188.76L884.274 188.76L884.274 193.416L886.194 193.416L886.194 188.76L888.546 188.76ZM884.274 186.888L879.45 186.888L884.274 180.36L884.274 186.888ZM897.124 177.432C897.124 179.64 895.564 181.392 893.14 181.392C890.764 181.392 889.156 179.64 889.156 177.432C889.156 176.304 889.516 175.368 890.26 174.576C890.98 173.808 891.94 173.424 893.14 173.424C894.34 173.424 895.3 173.808 896.044 174.576C896.764 175.344 897.124 176.304 897.124 177.432ZM904.444 173.664L892.492 189.36L890.98 189.36L902.932 173.664L904.444 173.664ZM906.244 185.592C906.244 186.72 905.884 187.656 905.164 188.424C904.42 189.216 903.46 189.6 902.26 189.6C901.06 189.6 900.1 189.216 899.38 188.448C898.636 187.68 898.276 186.72 898.276 185.592C898.276 183.384 899.86 181.632 902.26 181.632C904.636 181.632 906.244 183.384 906.244 185.592ZM895.828 177.432C895.828 176.64 895.588 175.992 895.108 175.464C894.604 174.936 893.956 174.672 893.14 174.672C892.324 174.672 891.676 174.936 891.196 175.464C890.692 175.992 890.452 176.64 890.452 177.432C890.452 178.176 890.692 178.824 891.196 179.352C891.676 179.88 892.324 180.144 893.14 180.144C893.956 180.144 894.604 179.88 895.108 179.352C895.588 178.824 895.828 178.176 895.828 177.432ZM904.948 185.592C904.948 184.848 904.708 184.2 904.228 183.672C903.724 183.144 903.076 182.88 902.26 182.88C901.444 182.88 900.796 183.144 900.316 183.672C899.812 184.2 899.572 184.848 899.572 185.592C899.572 186.384 899.812 187.032 900.316 187.56C900.796 188.088 901.444 188.352 902.26 188.352C903.076 188.352 903.724 188.088 904.228 187.56C904.708 187.032 904.948 186.384 904.948 185.592Z" fill="#FBFBFB"/>
<path d="M1106.86 189L1108.81 189L1108.81 177.288L1104.01 178.872L1104.08 180.672L1106.86 179.784L1106.86 189ZM1114.25 183.84C1115.04 183.768 1115.62 183.72 1115.95 183.72C1119.1 183.72 1121.11 185.52 1121.11 188.328C1121.11 189.84 1120.61 191.088 1119.6 192.048C1118.57 193.008 1117.32 193.488 1115.83 193.488C1114.23 193.488 1112.83 193.152 1111.66 192.456L1112.02 190.512C1113.34 191.256 1114.63 191.616 1115.86 191.616C1117.75 191.616 1119.1 190.344 1119.1 188.424C1119.1 186.744 1117.8 185.424 1115.71 185.424C1114.66 185.424 1113.67 185.568 1112.76 185.832L1112.23 185.352L1113.22 177.648L1120.71 177.648L1120.78 179.592L1114.83 179.592L1114.25 183.84ZM1124.44 186.288C1124.87 186.288 1125.23 186.432 1125.52 186.72C1125.81 187.032 1125.95 187.392 1125.95 187.8C1125.95 188.208 1125.81 188.568 1125.52 188.88C1125.23 189.192 1124.87 189.36 1124.44 189.36C1123.98 189.36 1123.62 189.192 1123.33 188.88C1123.02 188.568 1122.88 188.208 1122.88 187.8C1122.88 187.392 1123.02 187.032 1123.33 186.72C1123.62 186.432 1123.98 186.288 1124.44 186.288ZM1139.55 188.76L1139.47 186.888L1137.19 186.888L1137.19 177.288L1135.44 177.288L1127.69 187.608L1127.88 188.76L1135.27 188.76L1135.27 193.416L1137.19 193.416L1137.19 188.76L1139.55 188.76ZM1135.27 186.888L1130.45 186.888L1135.27 180.36L1135.27 186.888ZM1148.12 177.432C1148.12 179.64 1146.56 181.392 1144.14 181.392C1141.76 181.392 1140.16 179.64 1140.16 177.432C1140.16 176.304 1140.52 175.368 1141.26 174.576C1141.98 173.808 1142.94 173.424 1144.14 173.424C1145.34 173.424 1146.3 173.808 1147.04 174.576C1147.76 175.344 1148.12 176.304 1148.12 177.432ZM1155.44 173.664L1143.49 189.36L1141.98 189.36L1153.93 173.664L1155.44 173.664ZM1157.24 185.592C1157.24 186.72 1156.88 187.656 1156.16 188.424C1155.42 189.216 1154.46 189.6 1153.26 189.6C1152.06 189.6 1151.1 189.216 1150.38 188.448C1149.64 187.68 1149.28 186.72 1149.28 185.592C1149.28 183.384 1150.86 181.632 1153.26 181.632C1155.64 181.632 1157.24 183.384 1157.24 185.592ZM1146.83 177.432C1146.83 176.64 1146.59 175.992 1146.11 175.464C1145.6 174.936 1144.96 174.672 1144.14 174.672C1143.32 174.672 1142.68 174.936 1142.2 175.464C1141.69 175.992 1141.45 176.64 1141.45 177.432C1141.45 178.176 1141.69 178.824 1142.2 179.352C1142.68 179.88 1143.32 180.144 1144.14 180.144C1144.96 180.144 1145.6 179.88 1146.11 179.352C1146.59 178.824 1146.83 178.176 1146.83 177.432ZM1155.95 185.592C1155.95 184.848 1155.71 184.2 1155.23 183.672C1154.72 183.144 1154.08 182.88 1153.26 182.88C1152.44 182.88 1151.8 183.144 1151.32 183.672C1150.81 184.2 1150.57 184.848 1150.57 185.592C1150.57 186.384 1150.81 187.032 1151.32 187.56C1151.8 188.088 1152.44 188.352 1153.26 188.352C1154.08 188.352 1154.72 188.088 1155.23 187.56C1155.71 187.032 1155.95 186.384 1155.95 185.592Z" fill="#FBFBFB"/>
<rect x="31" y="190" width="190" height="50.0001" rx="10" transform="rotate(-90 31 190)" fill="#EC8539" fill-opacity="0.2"/>
<rect x="282" y="189" width="189" height="49.0001" rx="10" transform="rotate(-90 282 189)" fill="#EC8539" fill-opacity="0.2"/>
<rect x="534" y="189" width="189" height="49.0001" rx="10" transform="rotate(-90 534 189)" fill="#EC8539" fill-opacity="0.2"/>
<rect x="785" y="189" width="189" height="49.0001" rx="10" transform="rotate(-90 785 189)" fill="#EC8539" fill-opacity="0.2"/>
<rect x="1036" y="189" width="189" height="49.0001" rx="10" transform="rotate(-90 1036 189)" fill="#EC8539" fill-opacity="0.2"/>
<rect x="31" y="190" width="146.11" height="50.0001" rx="10" transform="rotate(-90 31 190)" fill="#EC8539"/>
<rect x="534" y="189" width="43.659" height="49.0001" rx="10" transform="rotate(-90 534 189)" fill="#EC8539"/>
<rect x="785" y="189" width="29.106" height="49.0001" rx="10" transform="rotate(-90 785 189)" fill="#EC8539"/>
<rect x="1036" y="189" width="29.106" height="49.0001" rx="10" transform="rotate(-90 1036 189)" fill="#EC8539"/>
<rect x="282" y="189" width="58.212" height="49.0001" rx="10" transform="rotate(-90 282 189)" fill="#EC8539"/>
</svg>
