<svg width="1186" height="303" viewBox="0 0 1186 303" fill="none" xmlns="http://www.w3.org/2000/svg">
<path d="M32.288 142H30.584L26.336 149.464L22.016 142H20.288L25.52 150.976V157H27.056V150.976L32.288 142ZM33.5356 151.552V151.672C33.6076 154.192 35.0956 155.92 37.3756 155.92C38.5756 155.92 39.6316 155.608 40.5676 155.008L40.8556 156.376C39.8476 157 38.6716 157.312 37.3276 157.312C34.1836 157.312 32.0236 154.984 32.0236 151.6C32.0236 149.872 32.5276 148.456 33.5116 147.352C34.4956 146.248 35.7196 145.696 37.2076 145.696C39.6556 145.696 41.2156 147.28 41.2156 149.752C41.2156 150.4 41.1436 150.976 40.9756 151.504L33.5356 151.552ZM33.6316 150.376L39.7276 150.352C39.7516 150.28 39.7516 150.112 39.7516 149.872C39.7516 148.144 38.8156 147.04 37.1116 147.04C35.2156 147.04 33.8956 148.456 33.6316 150.376ZM50.6171 154C50.6171 155.992 48.9371 157.312 46.6811 157.312C45.3131 157.312 44.1131 156.976 43.0811 156.328L43.4891 154.96C44.4971 155.632 45.5771 155.968 46.7291 155.968C48.1211 155.968 49.2011 155.272 49.2011 154.12C49.2011 153.856 49.1531 153.64 49.0331 153.424C48.9131 153.208 48.7691 153.04 48.6491 152.92C48.5291 152.8 48.2891 152.68 47.9771 152.536C47.6651 152.392 47.4251 152.296 47.2811 152.248C47.1371 152.2 46.8491 152.104 46.4411 151.984C44.5211 151.408 43.2491 150.592 43.2491 148.864C43.2491 146.896 44.8091 145.696 46.9691 145.696C48.1451 145.696 49.2491 145.96 50.3051 146.512L49.8731 147.856C48.8891 147.304 47.8811 147.04 46.8731 147.04C45.5291 147.04 44.6651 147.664 44.6651 148.72C44.6651 148.96 44.7131 149.176 44.8331 149.368C44.9531 149.584 45.0731 149.728 45.1931 149.848C45.3131 149.968 45.5291 150.112 45.8411 150.232C46.1291 150.352 46.3691 150.448 46.5371 150.52C46.7051 150.592 46.9931 150.664 47.3771 150.784C49.3691 151.36 50.6171 152.176 50.6171 154Z" fill="#111115"/>
<path d="M481.168 154.864L472.648 142H470.92V157H472.408V144.16L481 157.144H482.656V142H481.168V154.864ZM496.321 151.48C496.321 153.208 495.817 154.6 494.785 155.68C493.753 156.76 492.481 157.312 490.921 157.312C489.361 157.312 488.089 156.784 487.105 155.728C486.121 154.672 485.617 153.28 485.617 151.528C485.617 149.8 486.145 148.384 487.177 147.304C488.209 146.224 489.481 145.696 491.041 145.696C492.601 145.696 493.873 146.224 494.857 147.28C495.841 148.336 496.321 149.728 496.321 151.48ZM494.857 151.528C494.857 148.816 493.321 147.04 490.969 147.04C488.665 147.04 487.105 148.84 487.105 151.48C487.105 154.192 488.641 155.968 490.993 155.968C493.297 155.968 494.857 154.168 494.857 151.528Z" fill="#111115"/>
<path d="M26.4799 178.92C28.7599 179.28 30.0079 180.888 30.0079 182.712C30.0079 184.176 29.4799 185.352 28.4479 186.192C27.3919 187.056 26.0719 187.488 24.4879 187.488C22.7839 187.488 21.4159 187.176 20.4319 186.576L20.7919 184.728C21.7279 185.376 22.9759 185.688 24.5119 185.688C26.5999 185.688 27.9439 184.68 27.9439 182.856C27.9439 181.248 26.6719 180.408 24.6799 180.336C24.0799 180.312 23.3359 180.384 22.4719 180.528V178.824C25.7119 178.08 27.3199 176.928 27.3199 175.392C27.3199 173.952 26.3359 173.16 24.6079 173.16C23.5519 173.16 22.3999 173.616 21.1519 174.552L20.4559 172.872C21.7759 171.84 23.2399 171.312 24.8239 171.312C27.7279 171.312 29.4799 172.848 29.4799 175.104C29.4799 176.808 28.1839 178.248 26.4799 178.92ZM37.3405 174.888C38.6845 174.336 39.3565 173.424 39.3565 172.176C39.3565 170.64 38.2045 169.656 36.6205 169.656C34.8205 169.656 33.7645 170.616 33.7645 171.936C33.7645 172.224 33.8365 172.488 33.9805 172.752C34.1245 173.016 34.2925 173.208 34.4605 173.376C34.6285 173.544 34.9165 173.736 35.3245 173.952C35.7085 174.168 36.0205 174.312 36.2365 174.408C36.4525 174.528 36.8365 174.672 37.3405 174.888ZM35.9005 176.232C34.4125 176.712 33.5245 177.744 33.5245 179.088C33.5245 180.6 34.8205 181.608 36.6445 181.608C38.5405 181.608 39.5725 180.792 39.5725 179.352C39.5725 179.088 39.5245 178.848 39.4525 178.632C39.3805 178.416 39.2365 178.2 39.0205 177.984C38.8045 177.768 38.6125 177.6 38.4685 177.48C38.3245 177.36 38.0605 177.216 37.6525 177.024C37.2445 176.832 36.9805 176.712 36.8605 176.64C36.7165 176.568 36.4045 176.448 35.9005 176.232ZM38.8285 175.56C40.6765 176.496 41.5885 177.672 41.5885 179.112C41.5885 181.512 39.7405 183.36 36.5485 183.36C33.3085 183.36 31.5325 181.656 31.5325 179.304C31.5325 177.504 32.9725 175.968 34.4125 175.584C32.7325 174.72 31.7725 173.76 31.7725 172.152C31.7725 169.632 33.6685 167.904 36.7165 167.904C39.7405 167.904 41.3485 169.68 41.3485 171.96C41.3485 173.64 40.1725 175.008 38.8285 175.56ZM45.2113 180.288C45.6433 180.288 46.0033 180.432 46.2913 180.72C46.5793 181.032 46.7233 181.392 46.7233 181.8C46.7233 182.208 46.5793 182.568 46.2913 182.88C46.0033 183.192 45.6433 183.36 45.2113 183.36C44.7553 183.36 44.3953 183.192 44.1073 182.88C43.7953 182.568 43.6513 182.208 43.6513 181.8C43.6513 181.392 43.7953 181.032 44.1073 180.72C44.3953 180.432 44.7553 180.288 45.2113 180.288ZM50.5864 177.84C51.3784 177.768 51.9544 177.72 52.2904 177.72C55.4344 177.72 57.4504 179.52 57.4504 182.328C57.4504 183.84 56.9464 185.088 55.9384 186.048C54.9064 187.008 53.6584 187.488 52.1704 187.488C50.5624 187.488 49.1704 187.152 47.9944 186.456L48.3544 184.512C49.6744 185.256 50.9704 185.616 52.1944 185.616C54.0904 185.616 55.4344 184.344 55.4344 182.424C55.4344 180.744 54.1384 179.424 52.0504 179.424C50.9944 179.424 50.0104 179.568 49.0984 179.832L48.5704 179.352L49.5544 171.648H57.0424L57.1144 173.592H51.1624L50.5864 177.84ZM66.1555 171.432C66.1555 173.64 64.5955 175.392 62.1715 175.392C59.7955 175.392 58.1875 173.64 58.1875 171.432C58.1875 170.304 58.5475 169.368 59.2915 168.576C60.0115 167.808 60.9715 167.424 62.1715 167.424C63.3715 167.424 64.3315 167.808 65.0755 168.576C65.7955 169.344 66.1555 170.304 66.1555 171.432ZM73.4755 167.664L61.5235 183.36H60.0115L71.9635 167.664H73.4755ZM75.2755 179.592C75.2755 180.72 74.9155 181.656 74.1955 182.424C73.4515 183.216 72.4915 183.6 71.2915 183.6C70.0915 183.6 69.1315 183.216 68.4115 182.448C67.6675 181.68 67.3075 180.72 67.3075 179.592C67.3075 177.384 68.8915 175.632 71.2915 175.632C73.6675 175.632 75.2755 177.384 75.2755 179.592ZM64.8595 171.432C64.8595 170.64 64.6195 169.992 64.1395 169.464C63.6355 168.936 62.9875 168.672 62.1715 168.672C61.3555 168.672 60.7075 168.936 60.2275 169.464C59.7235 169.992 59.4835 170.64 59.4835 171.432C59.4835 172.176 59.7235 172.824 60.2275 173.352C60.7075 173.88 61.3555 174.144 62.1715 174.144C62.9875 174.144 63.6355 173.88 64.1395 173.352C64.6195 172.824 64.8595 172.176 64.8595 171.432ZM73.9795 179.592C73.9795 178.848 73.7395 178.2 73.2595 177.672C72.7555 177.144 72.1075 176.88 71.2915 176.88C70.4755 176.88 69.8275 177.144 69.3475 177.672C68.8435 178.2 68.6035 178.848 68.6035 179.592C68.6035 180.384 68.8435 181.032 69.3475 181.56C69.8275 182.088 70.4755 182.352 71.2915 182.352C72.1075 182.352 72.7555 182.088 73.2595 181.56C73.7395 181.032 73.9795 180.384 73.9795 179.592Z" fill="#111115"/>
<path d="M470.032 177.12C470.032 174.936 470.752 172.968 472.168 171.216C473.584 169.488 475.6 168.312 478.264 167.688L478.864 169.56C475.144 170.496 472.912 172.368 472.168 175.176L472.216 175.2C473.296 174.216 474.568 173.712 476.032 173.712C478.504 173.712 480.424 175.608 480.424 178.368C480.424 181.272 478.408 183.36 475.312 183.36C473.656 183.36 472.384 182.76 471.448 181.56C470.512 180.384 470.032 178.896 470.032 177.12ZM472.12 177.744C472.12 179.856 473.416 181.536 475.408 181.536C477.232 181.536 478.432 180.288 478.432 178.464C478.432 176.664 477.232 175.464 475.504 175.464C474.208 175.464 472.984 176.064 472.24 176.736C472.168 177.024 472.12 177.36 472.12 177.744ZM485.239 183H487.183V171.288L482.383 172.872L482.455 174.672L485.239 173.784V183ZM491.821 180.288C492.253 180.288 492.613 180.432 492.901 180.72C493.189 181.032 493.333 181.392 493.333 181.8C493.333 182.208 493.189 182.568 492.901 182.88C492.613 183.192 492.253 183.36 491.821 183.36C491.365 183.36 491.005 183.192 490.717 182.88C490.405 182.568 490.261 182.208 490.261 181.8C490.261 181.392 490.405 181.032 490.717 180.72C491.005 180.432 491.365 180.288 491.821 180.288ZM497.196 177.84C497.988 177.768 498.564 177.72 498.9 177.72C502.044 177.72 504.06 179.52 504.06 182.328C504.06 183.84 503.556 185.088 502.548 186.048C501.516 187.008 500.268 187.488 498.78 187.488C497.172 187.488 495.78 187.152 494.604 186.456L494.964 184.512C496.284 185.256 497.58 185.616 498.804 185.616C500.7 185.616 502.044 184.344 502.044 182.424C502.044 180.744 500.748 179.424 498.66 179.424C497.604 179.424 496.62 179.568 495.708 179.832L495.18 179.352L496.164 171.648H503.652L503.724 173.592H497.772L497.196 177.84ZM512.765 171.432C512.765 173.64 511.205 175.392 508.781 175.392C506.405 175.392 504.797 173.64 504.797 171.432C504.797 170.304 505.157 169.368 505.901 168.576C506.621 167.808 507.581 167.424 508.781 167.424C509.981 167.424 510.941 167.808 511.685 168.576C512.405 169.344 512.765 170.304 512.765 171.432ZM520.085 167.664L508.133 183.36H506.621L518.573 167.664H520.085ZM521.885 179.592C521.885 180.72 521.525 181.656 520.805 182.424C520.061 183.216 519.101 183.6 517.901 183.6C516.701 183.6 515.741 183.216 515.021 182.448C514.277 181.68 513.917 180.72 513.917 179.592C513.917 177.384 515.501 175.632 517.901 175.632C520.277 175.632 521.885 177.384 521.885 179.592ZM511.469 171.432C511.469 170.64 511.229 169.992 510.749 169.464C510.245 168.936 509.597 168.672 508.781 168.672C507.965 168.672 507.317 168.936 506.837 169.464C506.333 169.992 506.093 170.64 506.093 171.432C506.093 172.176 506.333 172.824 506.837 173.352C507.317 173.88 507.965 174.144 508.781 174.144C509.597 174.144 510.245 173.88 510.749 173.352C511.229 172.824 511.469 172.176 511.469 171.432ZM520.589 179.592C520.589 178.848 520.349 178.2 519.869 177.672C519.365 177.144 518.717 176.88 517.901 176.88C517.085 176.88 516.437 177.144 515.957 177.672C515.453 178.2 515.213 178.848 515.213 179.592C515.213 180.384 515.453 181.032 515.957 181.56C516.437 182.088 517.085 182.352 517.901 182.352C518.717 182.352 519.365 182.088 519.869 181.56C520.349 181.032 520.589 180.384 520.589 179.592Z" fill="#111115"/>
<path d="M1178.5 113H7.5C3.35786 113 0 116.358 0 120.5C0 124.642 3.35786 128 7.5 128H1178.5C1182.64 128 1186 124.642 1186 120.5C1186 116.358 1182.64 113 1178.5 113Z" fill="#EC8539" fill-opacity="0.2"/>
<path d="M449.11 113H7.5C3.35786 113 0 116.358 0 120.5C0 124.642 3.35786 128 7.5 128H449.11C453.252 128 456.61 124.642 456.61 120.5C456.61 116.358 453.252 113 449.11 113Z" fill="#EC8539"/>
</svg>
