<svg width="1186" height="303" viewBox="0 0 1186 303" fill="none" xmlns="http://www.w3.org/2000/svg">
<path d="M832.864 255H834.808V243.288L830.008 244.872L830.08 246.672L832.864 245.784V255ZM838.259 249.12C838.259 246.936 838.979 244.968 840.395 243.216C841.811 241.488 843.827 240.312 846.491 239.688L847.091 241.56C843.371 242.496 841.139 244.368 840.395 247.176L840.443 247.2C841.523 246.216 842.795 245.712 844.259 245.712C846.731 245.712 848.651 247.608 848.651 250.368C848.651 253.272 846.635 255.36 843.539 255.36C841.883 255.36 840.611 254.76 839.675 253.56C838.739 252.384 838.259 250.896 838.259 249.12ZM840.347 249.744C840.347 251.856 841.643 253.536 843.635 253.536C845.459 253.536 846.659 252.288 846.659 250.464C846.659 248.664 845.459 247.464 843.731 247.464C842.435 247.464 841.211 248.064 840.467 248.736C840.395 249.024 840.347 249.36 840.347 249.744ZM852.055 252.288C852.487 252.288 852.847 252.432 853.135 252.72C853.423 253.032 853.567 253.392 853.567 253.8C853.567 254.208 853.423 254.568 853.135 254.88C852.847 255.192 852.487 255.36 852.055 255.36C851.599 255.36 851.239 255.192 850.951 254.88C850.639 254.568 850.495 254.208 850.495 253.8C850.495 253.392 850.639 253.032 850.951 252.72C851.239 252.432 851.599 252.288 852.055 252.288ZM855.204 249.12C855.204 246.936 855.924 244.968 857.34 243.216C858.756 241.488 860.772 240.312 863.436 239.688L864.036 241.56C860.316 242.496 858.084 244.368 857.34 247.176L857.388 247.2C858.468 246.216 859.74 245.712 861.204 245.712C863.676 245.712 865.596 247.608 865.596 250.368C865.596 253.272 863.58 255.36 860.484 255.36C858.828 255.36 857.556 254.76 856.62 253.56C855.684 252.384 855.204 250.896 855.204 249.12ZM857.292 249.744C857.292 251.856 858.588 253.536 860.58 253.536C862.404 253.536 863.604 252.288 863.604 250.464C863.604 248.664 862.404 247.464 860.676 247.464C859.38 247.464 858.156 248.064 857.412 248.736C857.34 249.024 857.292 249.36 857.292 249.744ZM874.851 243.432C874.851 245.64 873.291 247.392 870.867 247.392C868.491 247.392 866.883 245.64 866.883 243.432C866.883 242.304 867.243 241.368 867.987 240.576C868.707 239.808 869.667 239.424 870.867 239.424C872.067 239.424 873.027 239.808 873.771 240.576C874.491 241.344 874.851 242.304 874.851 243.432ZM882.171 239.664L870.219 255.36H868.707L880.659 239.664H882.171ZM883.971 251.592C883.971 252.72 883.611 253.656 882.891 254.424C882.147 255.216 881.187 255.6 879.987 255.6C878.787 255.6 877.827 255.216 877.107 254.448C876.363 253.68 876.003 252.72 876.003 251.592C876.003 249.384 877.587 247.632 879.987 247.632C882.363 247.632 883.971 249.384 883.971 251.592ZM873.555 243.432C873.555 242.64 873.315 241.992 872.835 241.464C872.331 240.936 871.683 240.672 870.867 240.672C870.051 240.672 869.403 240.936 868.923 241.464C868.419 241.992 868.179 242.64 868.179 243.432C868.179 244.176 868.419 244.824 868.923 245.352C869.403 245.88 870.051 246.144 870.867 246.144C871.683 246.144 872.331 245.88 872.835 245.352C873.315 244.824 873.555 244.176 873.555 243.432ZM882.675 251.592C882.675 250.848 882.435 250.2 881.955 249.672C881.451 249.144 880.803 248.88 879.987 248.88C879.171 248.88 878.523 249.144 878.043 249.672C877.539 250.2 877.299 250.848 877.299 251.592C877.299 252.384 877.539 253.032 878.043 253.56C878.523 254.088 879.171 254.352 879.987 254.352C880.803 254.352 881.451 254.088 881.955 253.56C882.435 253.032 882.675 252.384 882.675 251.592Z" fill="#111115"/>
<path d="M1089.3 210.592L1082.66 224.416H1084.67L1091.44 210.352V208.648H1081.48L1081.41 210.592H1089.3ZM1093.67 217.288C1094.1 217.288 1094.46 217.432 1094.75 217.72C1095.04 218.032 1095.18 218.392 1095.18 218.8C1095.18 219.208 1095.04 219.568 1094.75 219.88C1094.46 220.192 1094.1 220.36 1093.67 220.36C1093.22 220.36 1092.86 220.192 1092.57 219.88C1092.26 219.568 1092.11 219.208 1092.11 218.8C1092.11 218.392 1092.26 218.032 1092.57 217.72C1092.86 217.432 1093.22 217.288 1093.67 217.288ZM1104.33 210.592L1097.68 224.416H1099.7L1106.46 210.352V208.648H1096.5L1096.43 210.592H1104.33ZM1115.27 208.432C1115.27 210.64 1113.71 212.392 1111.29 212.392C1108.91 212.392 1107.3 210.64 1107.3 208.432C1107.3 207.304 1107.66 206.368 1108.41 205.576C1109.13 204.808 1110.09 204.424 1111.29 204.424C1112.49 204.424 1113.45 204.808 1114.19 205.576C1114.91 206.344 1115.27 207.304 1115.27 208.432ZM1122.59 204.664L1110.64 220.36H1109.13L1121.08 204.664H1122.59ZM1124.39 216.592C1124.39 217.72 1124.03 218.656 1123.31 219.424C1122.57 220.216 1121.61 220.6 1120.41 220.6C1119.21 220.6 1118.25 220.216 1117.53 219.448C1116.78 218.68 1116.42 217.72 1116.42 216.592C1116.42 214.384 1118.01 212.632 1120.41 212.632C1122.78 212.632 1124.39 214.384 1124.39 216.592ZM1113.98 208.432C1113.98 207.64 1113.74 206.992 1113.26 206.464C1112.75 205.936 1112.1 205.672 1111.29 205.672C1110.47 205.672 1109.82 205.936 1109.34 206.464C1108.84 206.992 1108.6 207.64 1108.6 208.432C1108.6 209.176 1108.84 209.824 1109.34 210.352C1109.82 210.88 1110.47 211.144 1111.29 211.144C1112.1 211.144 1112.75 210.88 1113.26 210.352C1113.74 209.824 1113.98 209.176 1113.98 208.432ZM1123.1 216.592C1123.1 215.848 1122.86 215.2 1122.38 214.672C1121.87 214.144 1121.22 213.88 1120.41 213.88C1119.59 213.88 1118.94 214.144 1118.46 214.672C1117.96 215.2 1117.72 215.848 1117.72 216.592C1117.72 217.384 1117.96 218.032 1118.46 218.56C1118.94 219.088 1119.59 219.352 1120.41 219.352C1121.22 219.352 1121.87 219.088 1122.38 218.56C1122.86 218.032 1123.1 217.384 1123.1 216.592Z" fill="#111115"/>
<path d="M33.7762 158V143H32.2402V149.768H23.4562V143H21.9202V158H23.4562V151.16H32.2402V158H33.7762ZM38.2233 152.552V152.672C38.2953 155.192 39.7833 156.92 42.0633 156.92C43.2633 156.92 44.3193 156.608 45.2553 156.008L45.5433 157.376C44.5353 158 43.3593 158.312 42.0153 158.312C38.8713 158.312 36.7113 155.984 36.7113 152.6C36.7113 150.872 37.2153 149.456 38.1993 148.352C39.1833 147.248 40.4073 146.696 41.8953 146.696C44.3433 146.696 45.9033 148.28 45.9033 150.752C45.9033 151.4 45.8313 151.976 45.6633 152.504L38.2233 152.552ZM38.3193 151.376L44.4153 151.352C44.4393 151.28 44.4393 151.112 44.4393 150.872C44.4393 149.144 43.5033 148.04 41.7993 148.04C39.9033 148.04 38.5833 149.456 38.3193 151.376ZM54.4408 155.576V152.36C50.7448 152.768 49.3288 153.584 49.3288 155.096C49.3288 156.248 50.2648 157.016 51.5848 157.016C52.6408 157.016 53.6008 156.536 54.4408 155.576ZM54.5368 156.68H54.4648C53.5768 157.76 52.5208 158.312 51.2488 158.312C49.2328 158.312 47.7688 157.04 47.7688 155.264C47.7688 152.912 50.0008 151.616 54.4408 151.352V150.704C54.4408 148.952 53.5768 148.088 51.8488 148.088C50.6968 148.088 49.2568 148.664 48.2488 149.408L47.9128 148.016C48.9688 147.272 50.6008 146.696 51.9928 146.696C54.6328 146.696 55.9528 148.016 55.9288 150.632V155.912C55.9288 156.776 56.1208 157.04 57.0328 157.016L56.9368 158.24C55.5208 158.336 54.7048 157.808 54.5368 156.68ZM60.7396 150.944V158H59.2516V147.008L60.7396 146.696V149.048C61.5316 147.488 62.6116 146.696 63.9796 146.696C64.6756 146.696 65.2996 146.864 65.8996 147.2L65.5156 148.592C64.9876 148.28 64.4356 148.112 63.8356 148.112C62.6116 148.112 61.5796 149.048 60.7396 150.944ZM69.5823 143.384C69.5823 143.696 69.4863 143.936 69.3183 144.152C69.1503 144.368 68.8863 144.488 68.5743 144.488C68.2623 144.488 67.9983 144.368 67.8303 144.152C67.6623 143.936 67.5663 143.696 67.5663 143.384C67.5663 143.096 67.6623 142.856 67.8303 142.64C67.9983 142.424 68.2623 142.328 68.5743 142.328C68.8863 142.328 69.1503 142.424 69.3183 142.64C69.4863 142.856 69.5823 143.096 69.5823 143.384ZM69.3183 158H67.8303V147.008L69.3183 146.696V158ZM81.558 158H80.07V150.896C80.07 148.976 79.326 148.112 77.646 148.112C76.47 148.112 75.342 148.64 74.31 149.672V158H72.822V147.008L74.31 146.696V148.496C75.51 147.296 76.758 146.696 78.054 146.696C80.262 146.696 81.558 148.04 81.558 150.464V158ZM85.7791 150.848C85.7791 152.48 86.8831 153.656 88.6111 153.656C89.4511 153.656 90.0991 153.392 90.6031 152.84C91.1071 152.312 91.3471 151.616 91.3471 150.776C91.3471 149.936 91.1071 149.24 90.6271 148.712C90.1231 148.184 89.4271 147.92 88.5391 147.92C86.8351 147.92 85.7791 149.12 85.7791 150.848ZM87.0751 158.312C85.7551 158.672 84.8431 159.536 84.8431 160.472C84.8431 161.792 86.3071 162.728 88.5871 162.728C90.8911 162.728 92.7151 161.624 92.7151 160.136C92.7151 158.888 91.6591 158.384 89.3791 158.384C88.4671 158.384 87.6991 158.36 87.0751 158.312ZM85.7791 158.024C84.7951 157.664 84.2911 157.088 84.2911 156.272C84.2911 155.36 85.0351 154.568 86.0911 154.184C84.9151 153.464 84.3151 152.336 84.3151 150.824C84.3151 148.448 86.0671 146.696 88.6351 146.696C89.5951 146.696 90.4591 146.912 91.2271 147.344L94.2751 147.104L94.3471 148.592L91.9231 148.352C92.4271 148.856 92.8111 149.912 92.8111 150.824C92.8111 153.176 91.0111 154.856 88.5391 154.856C88.0351 154.856 87.5071 154.76 86.9071 154.544C86.0911 154.88 85.6831 155.312 85.6831 155.864C85.6831 156.608 86.3071 156.992 88.1791 156.992H89.5951C92.6431 156.992 94.1551 157.952 94.1551 159.872C94.1551 161.048 93.5791 162.032 92.4511 162.8C91.3231 163.568 89.9551 163.952 88.3711 163.952C85.4191 163.952 83.4031 162.656 83.4031 160.736C83.4031 159.488 84.3631 158.384 85.7791 158.024ZM103.402 143.384C103.402 143.696 103.306 143.936 103.138 144.152C102.97 144.368 102.706 144.488 102.394 144.488C102.082 144.488 101.818 144.368 101.65 144.152C101.482 143.936 101.386 143.696 101.386 143.384C101.386 143.096 101.482 142.856 101.65 142.64C101.818 142.424 102.082 142.328 102.394 142.328C102.706 142.328 102.97 142.424 103.138 142.64C103.306 142.856 103.402 143.096 103.402 143.384ZM103.138 158H101.65V147.008L103.138 146.696V158ZM112.114 157.784C111.298 158.168 110.482 158.36 109.666 158.36C107.626 158.36 106.642 157.208 106.714 154.904L106.882 148.4L105.202 148.304L105.274 147.368L106.93 146.984L107.002 144.488H108.418L108.346 147.056H112.018L111.946 148.376H108.298L108.13 154.952C108.082 156.32 108.61 157.016 109.738 157.016C110.338 157.016 111.034 156.848 111.85 156.488L112.114 157.784ZM125.641 141.776L125.569 142.112C125.497 142.352 125.449 142.568 125.377 142.784L125.281 143.12C124.633 142.808 124.081 142.664 123.601 142.664C122.377 142.664 121.777 143.528 121.777 145.232V147.056H125.233L125.161 148.376H121.777V158H120.313V148.424L118.537 148.304L118.633 147.368L120.289 146.984L120.313 145.256C120.361 142.616 121.465 141.296 123.625 141.296C124.297 141.296 124.969 141.464 125.641 141.776ZM137.134 152.48C137.134 154.208 136.63 155.6 135.598 156.68C134.566 157.76 133.294 158.312 131.734 158.312C130.174 158.312 128.902 157.784 127.918 156.728C126.934 155.672 126.43 154.28 126.43 152.528C126.43 150.8 126.958 149.384 127.99 148.304C129.022 147.224 130.294 146.696 131.854 146.696C133.414 146.696 134.686 147.224 135.67 148.28C136.654 149.336 137.134 150.728 137.134 152.48ZM135.67 152.528C135.67 149.816 134.134 148.04 131.782 148.04C129.478 148.04 127.918 149.84 127.918 152.48C127.918 155.192 129.454 156.968 131.806 156.968C134.11 156.968 135.67 155.168 135.67 152.528ZM141.388 150.944V158H139.9V147.008L141.388 146.696V149.048C142.18 147.488 143.26 146.696 144.628 146.696C145.324 146.696 145.948 146.864 146.548 147.2L146.164 148.592C145.636 148.28 145.084 148.112 144.484 148.112C143.26 148.112 142.228 149.048 141.388 150.944ZM159.388 157.784C158.572 158.168 157.756 158.36 156.94 158.36C154.9 158.36 153.916 157.208 153.988 154.904L154.156 148.4L152.476 148.304L152.548 147.368L154.204 146.984L154.276 144.488H155.692L155.62 147.056H159.292L159.22 148.376H155.572L155.404 154.952C155.355 156.32 155.884 157.016 157.012 157.016C157.612 157.016 158.308 156.848 159.124 156.488L159.388 157.784ZM170.55 158H169.062V150.896C169.062 149.048 168.27 148.112 166.71 148.112C165.486 148.112 164.334 148.64 163.302 149.672V158H161.814V141.824L163.302 141.512V148.448C164.478 147.272 165.75 146.696 167.118 146.696C169.278 146.696 170.55 148.04 170.55 150.464V158ZM174.723 152.552V152.672C174.795 155.192 176.283 156.92 178.563 156.92C179.763 156.92 180.819 156.608 181.755 156.008L182.043 157.376C181.035 158 179.859 158.312 178.515 158.312C175.371 158.312 173.211 155.984 173.211 152.6C173.211 150.872 173.715 149.456 174.699 148.352C175.683 147.248 176.907 146.696 178.395 146.696C180.843 146.696 182.403 148.28 182.403 150.752C182.403 151.4 182.331 151.976 182.163 152.504L174.723 152.552ZM174.819 151.376L180.915 151.352C180.939 151.28 180.939 151.112 180.939 150.872C180.939 149.144 180.003 148.04 178.299 148.04C176.403 148.04 175.083 149.456 174.819 151.376ZM196.306 141.776L196.234 142.112C196.162 142.352 196.114 142.568 196.042 142.784L195.946 143.12C195.298 142.808 194.746 142.664 194.266 142.664C193.042 142.664 192.442 143.528 192.442 145.232V147.056H195.898L195.826 148.376H192.442V158H190.978V148.424L189.202 148.304L189.298 147.368L190.954 146.984L190.978 145.256C191.026 142.616 192.13 141.296 194.29 141.296C194.962 141.296 195.634 141.464 196.306 141.776ZM199.59 143.384C199.59 143.696 199.494 143.936 199.326 144.152C199.158 144.368 198.894 144.488 198.582 144.488C198.27 144.488 198.006 144.368 197.838 144.152C197.67 143.936 197.574 143.696 197.574 143.384C197.574 143.096 197.67 142.856 197.838 142.64C198.006 142.424 198.27 142.328 198.582 142.328C198.894 142.328 199.158 142.424 199.326 142.64C199.494 142.856 199.59 143.096 199.59 143.384ZM199.326 158H197.838V147.008L199.326 146.696V158ZM204.318 150.944V158H202.83V147.008L204.318 146.696V149.048C205.11 147.488 206.19 146.696 207.558 146.696C208.254 146.696 208.878 146.864 209.478 147.2L209.094 148.592C208.566 148.28 208.014 148.112 207.414 148.112C206.19 148.112 205.158 149.048 204.318 150.944ZM217.984 155C217.984 156.992 216.304 158.312 214.048 158.312C212.68 158.312 211.48 157.976 210.448 157.328L210.856 155.96C211.864 156.632 212.944 156.968 214.096 156.968C215.488 156.968 216.568 156.272 216.568 155.12C216.568 154.856 216.52 154.64 216.4 154.424C216.28 154.208 216.136 154.04 216.016 153.92C215.896 153.8 215.656 153.68 215.344 153.536C215.032 153.392 214.792 153.296 214.648 153.248C214.504 153.2 214.216 153.104 213.808 152.984C211.888 152.408 210.616 151.592 210.616 149.864C210.616 147.896 212.176 146.696 214.336 146.696C215.512 146.696 216.616 146.96 217.672 147.512L217.24 148.856C216.256 148.304 215.248 148.04 214.24 148.04C212.896 148.04 212.032 148.664 212.032 149.72C212.032 149.96 212.08 150.176 212.2 150.368C212.32 150.584 212.44 150.728 212.56 150.848C212.68 150.968 212.896 151.112 213.208 151.232C213.496 151.352 213.736 151.448 213.904 151.52C214.072 151.592 214.36 151.664 214.744 151.784C216.736 152.36 217.984 153.176 217.984 155ZM226.138 157.784C225.322 158.168 224.506 158.36 223.69 158.36C221.65 158.36 220.666 157.208 220.738 154.904L220.906 148.4L219.226 148.304L219.298 147.368L220.954 146.984L221.026 144.488H222.442L222.37 147.056H226.042L225.97 148.376H222.322L222.154 154.952C222.105 156.32 222.634 157.016 223.762 157.016C224.362 157.016 225.058 156.848 225.874 156.488L226.138 157.784ZM239.497 157.784C238.681 158.168 237.865 158.36 237.049 158.36C235.009 158.36 234.025 157.208 234.097 154.904L234.265 148.4L232.585 148.304L232.657 147.368L234.313 146.984L234.385 144.488H235.801L235.729 147.056H239.401L239.329 148.376H235.681L235.513 154.952C235.465 156.32 235.993 157.016 237.121 157.016C237.721 157.016 238.417 156.848 239.233 156.488L239.497 157.784ZM243.699 143.384C243.699 143.696 243.603 143.936 243.435 144.152C243.267 144.368 243.003 144.488 242.691 144.488C242.379 144.488 242.115 144.368 241.947 144.152C241.779 143.936 241.683 143.696 241.683 143.384C241.683 143.096 241.779 142.856 241.947 142.64C242.115 142.424 242.379 142.328 242.691 142.328C243.003 142.328 243.267 142.424 243.435 142.64C243.603 142.856 243.699 143.096 243.699 143.384ZM243.435 158H241.947V147.008L243.435 146.696V158ZM262.155 158H260.667V150.92C260.667 149.048 259.899 148.112 258.339 148.112C257.283 148.112 256.251 148.592 255.243 149.528C255.267 149.72 255.291 150.056 255.291 150.512V158H253.803V150.92C253.803 149.048 253.035 148.112 251.475 148.112C250.395 148.112 249.387 148.544 248.427 149.384V158H246.939V147.008L248.427 146.696V148.208C249.531 147.2 250.683 146.696 251.907 146.696C253.371 146.696 254.355 147.296 254.883 148.52C256.107 147.296 257.403 146.696 258.771 146.696C260.883 146.696 262.155 148.064 262.155 150.488V158ZM266.34 152.552V152.672C266.412 155.192 267.9 156.92 270.18 156.92C271.38 156.92 272.436 156.608 273.372 156.008L273.66 157.376C272.652 158 271.476 158.312 270.132 158.312C266.988 158.312 264.828 155.984 264.828 152.6C264.828 150.872 265.332 149.456 266.316 148.352C267.3 147.248 268.524 146.696 270.012 146.696C272.46 146.696 274.02 148.28 274.02 150.752C274.02 151.4 273.948 151.976 273.78 152.504L266.34 152.552ZM266.436 151.376L272.532 151.352C272.556 151.28 272.556 151.112 272.556 150.872C272.556 149.144 271.62 148.04 269.916 148.04C268.02 148.04 266.7 149.456 266.436 151.376Z" fill="#111115"/>
<path d="M832.48 158V143H830.968V158H832.48ZM850.386 158H848.898V150.896C848.898 149.048 848.106 148.112 846.546 148.112C845.322 148.112 844.17 148.64 843.138 149.672V158H841.65V141.824L843.138 141.512V148.448C844.314 147.272 845.586 146.696 846.954 146.696C849.114 146.696 850.386 148.04 850.386 150.464V158ZM859.503 155.576V152.36C855.807 152.768 854.391 153.584 854.391 155.096C854.391 156.248 855.327 157.016 856.647 157.016C857.703 157.016 858.663 156.536 859.503 155.576ZM859.599 156.68H859.527C858.639 157.76 857.583 158.312 856.311 158.312C854.295 158.312 852.831 157.04 852.831 155.264C852.831 152.912 855.063 151.616 859.503 151.352V150.704C859.503 148.952 858.639 148.088 856.911 148.088C855.759 148.088 854.319 148.664 853.311 149.408L852.975 148.016C854.031 147.272 855.663 146.696 857.055 146.696C859.695 146.696 861.015 148.016 860.991 150.632V155.912C860.991 156.776 861.183 157.04 862.095 157.016L861.999 158.24C860.583 158.336 859.767 157.808 859.599 156.68ZM872.666 147.008H871.106L867.746 156.08L864.266 147.008H862.658L867.002 158.024H868.346L872.666 147.008ZM875.161 152.552V152.672C875.233 155.192 876.721 156.92 879.001 156.92C880.201 156.92 881.257 156.608 882.193 156.008L882.481 157.376C881.473 158 880.297 158.312 878.953 158.312C875.809 158.312 873.649 155.984 873.649 152.6C873.649 150.872 874.153 149.456 875.137 148.352C876.121 147.248 877.345 146.696 878.833 146.696C881.281 146.696 882.841 148.28 882.841 150.752C882.841 151.4 882.769 151.976 882.601 152.504L875.161 152.552ZM875.257 151.376L881.353 151.352C881.377 151.28 881.377 151.112 881.377 150.872C881.377 149.144 880.441 148.04 878.737 148.04C876.841 148.04 875.521 149.456 875.257 151.376ZM906.319 158H904.831V150.92C904.831 149.048 904.063 148.112 902.503 148.112C901.447 148.112 900.415 148.592 899.407 149.528C899.431 149.72 899.455 150.056 899.455 150.512V158H897.967V150.92C897.967 149.048 897.199 148.112 895.639 148.112C894.559 148.112 893.551 148.544 892.591 149.384V158H891.103V147.008L892.591 146.696V148.208C893.695 147.2 894.847 146.696 896.071 146.696C897.535 146.696 898.519 147.296 899.047 148.52C900.271 147.296 901.567 146.696 902.935 146.696C905.047 146.696 906.319 148.064 906.319 150.488V158ZM918.064 147.008L913.792 157.88L912.904 160.256C911.944 162.872 910.936 163.712 909.352 163.712C908.704 163.712 908.008 163.544 907.216 163.208L907.672 161.84C908.272 162.152 908.824 162.32 909.352 162.32C910.264 162.32 910.864 161.768 911.608 159.776L912.352 157.832L908.056 147.008H909.664L913.12 156.08L916.504 147.008H918.064ZM930.985 141.776L930.913 142.112C930.841 142.352 930.793 142.568 930.721 142.784L930.625 143.12C929.977 142.808 929.425 142.664 928.945 142.664C927.721 142.664 927.121 143.528 927.121 145.232V147.056H930.577L930.505 148.376H927.121V158H925.657V148.424L923.881 148.304L923.977 147.368L925.633 146.984L925.657 145.256C925.705 142.616 926.809 141.296 928.969 141.296C929.641 141.296 930.313 141.464 930.985 141.776ZM938.23 155.576V152.36C934.534 152.768 933.118 153.584 933.118 155.096C933.118 156.248 934.054 157.016 935.374 157.016C936.43 157.016 937.39 156.536 938.23 155.576ZM938.326 156.68H938.254C937.366 157.76 936.31 158.312 935.038 158.312C933.022 158.312 931.558 157.04 931.558 155.264C931.558 152.912 933.79 151.616 938.23 151.352V150.704C938.23 148.952 937.366 148.088 935.638 148.088C934.486 148.088 933.046 148.664 932.038 149.408L931.702 148.016C932.758 147.272 934.39 146.696 935.782 146.696C938.422 146.696 939.742 148.016 939.718 150.632V155.912C939.718 156.776 939.91 157.04 940.822 157.016L940.726 158.24C939.31 158.336 938.494 157.808 938.326 156.68ZM944.817 143.384C944.817 143.696 944.721 143.936 944.553 144.152C944.385 144.368 944.121 144.488 943.809 144.488C943.497 144.488 943.233 144.368 943.065 144.152C942.896 143.936 942.801 143.696 942.801 143.384C942.801 143.096 942.896 142.856 943.065 142.64C943.233 142.424 943.497 142.328 943.809 142.328C944.121 142.328 944.385 142.424 944.553 142.64C944.721 142.856 944.817 143.096 944.817 143.384ZM944.553 158H943.065V147.008L944.553 146.696V158ZM949.544 150.944V158H948.056V147.008L949.544 146.696V149.048C950.336 147.488 951.416 146.696 952.784 146.696C953.48 146.696 954.104 146.864 954.704 147.2L954.32 148.592C953.792 148.28 953.24 148.112 952.64 148.112C951.416 148.112 950.384 149.048 949.544 150.944ZM832.264 183.528L837.208 189H839.104L833.8 183.24L839.08 178.008H837.208L832.264 183.072H832.216V172.512L830.728 172.824V189H832.216V183.528H832.264ZM849.87 189H848.382V181.896C848.382 179.976 847.638 179.112 845.958 179.112C844.782 179.112 843.654 179.64 842.622 180.672V189H841.134V178.008L842.622 177.696V179.496C843.822 178.296 845.07 177.696 846.366 177.696C848.574 177.696 849.87 179.04 849.87 181.464V189ZM863.235 183.48C863.235 185.208 862.731 186.6 861.699 187.68C860.667 188.76 859.395 189.312 857.835 189.312C856.275 189.312 855.003 188.784 854.019 187.728C853.035 186.672 852.531 185.28 852.531 183.528C852.531 181.8 853.059 180.384 854.091 179.304C855.123 178.224 856.395 177.696 857.955 177.696C859.515 177.696 860.787 178.224 861.771 179.28C862.755 180.336 863.235 181.728 863.235 183.48ZM861.771 183.528C861.771 180.816 860.235 179.04 857.883 179.04C855.579 179.04 854.019 180.84 854.019 183.48C854.019 186.192 855.555 187.968 857.907 187.968C860.211 187.968 861.771 186.168 861.771 183.528ZM869.172 189.048L872.172 180.168L875.172 189.048H876.492L879.756 178.008H878.124L875.844 186.816L872.844 178.032H871.5L868.644 186.768L866.1 178.008H864.516L867.876 189.048H869.172ZM883.263 189V172.512L881.775 172.824V189H883.263ZM887.512 183.552V183.672C887.584 186.192 889.072 187.92 891.352 187.92C892.552 187.92 893.608 187.608 894.544 187.008L894.832 188.376C893.824 189 892.648 189.312 891.304 189.312C888.16 189.312 886 186.984 886 183.6C886 181.872 886.504 180.456 887.488 179.352C888.472 178.248 889.696 177.696 891.184 177.696C893.632 177.696 895.192 179.28 895.192 181.752C895.192 182.4 895.12 182.976 894.952 183.504L887.512 183.552ZM887.608 182.376L893.704 182.352C893.728 182.28 893.728 182.112 893.728 181.872C893.728 180.144 892.792 179.04 891.088 179.04C889.192 179.04 887.872 180.456 887.608 182.376ZM905.386 178.368V172.824L906.874 172.512V189H905.386V187.968C904.426 188.856 903.37 189.312 902.194 189.312C899.242 189.312 897.274 186.984 897.274 183.6C897.274 181.896 897.778 180.504 898.81 179.4C899.842 178.32 901.138 177.768 902.722 177.768C903.634 177.768 904.522 177.96 905.386 178.368ZM905.386 179.952C904.666 179.4 903.754 179.112 902.65 179.112C900.298 179.112 898.81 180.936 898.81 183.576C898.81 186.144 900.25 187.944 902.458 187.944C903.538 187.944 904.522 187.536 905.386 186.72V180.168V179.952ZM911.162 181.848C911.162 183.48 912.266 184.656 913.994 184.656C914.834 184.656 915.482 184.392 915.986 183.84C916.49 183.312 916.73 182.616 916.73 181.776C916.73 180.936 916.49 180.24 916.01 179.712C915.506 179.184 914.81 178.92 913.922 178.92C912.218 178.92 911.162 180.12 911.162 181.848ZM912.458 189.312C911.138 189.672 910.226 190.536 910.226 191.472C910.226 192.792 911.69 193.728 913.97 193.728C916.274 193.728 918.098 192.624 918.098 191.136C918.098 189.888 917.042 189.384 914.762 189.384C913.85 189.384 913.082 189.36 912.458 189.312ZM911.162 189.024C910.178 188.664 909.674 188.088 909.674 187.272C909.674 186.36 910.418 185.568 911.474 185.184C910.298 184.464 909.698 183.336 909.698 181.824C909.698 179.448 911.45 177.696 914.018 177.696C914.978 177.696 915.842 177.912 916.61 178.344L919.658 178.104L919.73 179.592L917.306 179.352C917.81 179.856 918.194 180.912 918.194 181.824C918.194 184.176 916.394 185.856 913.922 185.856C913.418 185.856 912.89 185.76 912.29 185.544C911.474 185.88 911.066 186.312 911.066 186.864C911.066 187.608 911.69 187.992 913.562 187.992H914.978C918.026 187.992 919.538 188.952 919.538 190.872C919.538 192.048 918.962 193.032 917.834 193.8C916.706 194.568 915.338 194.952 913.754 194.952C910.802 194.952 908.786 193.656 908.786 191.736C908.786 190.488 909.746 189.384 911.162 189.024ZM922.34 183.552V183.672C922.412 186.192 923.9 187.92 926.18 187.92C927.38 187.92 928.436 187.608 929.372 187.008L929.66 188.376C928.652 189 927.476 189.312 926.132 189.312C922.988 189.312 920.828 186.984 920.828 183.6C920.828 181.872 921.332 180.456 922.316 179.352C923.3 178.248 924.524 177.696 926.012 177.696C928.46 177.696 930.02 179.28 930.02 181.752C930.02 182.4 929.948 182.976 929.78 183.504L922.34 183.552ZM922.436 182.376L928.532 182.352C928.556 182.28 928.556 182.112 928.556 181.872C928.556 180.144 927.62 179.04 925.916 179.04C924.02 179.04 922.7 180.456 922.436 182.376ZM836.464 217.576V214.36C832.768 214.768 831.352 215.584 831.352 217.096C831.352 218.248 832.288 219.016 833.608 219.016C834.664 219.016 835.624 218.536 836.464 217.576ZM836.56 218.68H836.488C835.6 219.76 834.544 220.312 833.272 220.312C831.256 220.312 829.792 219.04 829.792 217.264C829.792 214.912 832.024 213.616 836.464 213.352V212.704C836.464 210.952 835.6 210.088 833.872 210.088C832.72 210.088 831.28 210.664 830.272 211.408L829.936 210.016C830.992 209.272 832.624 208.696 834.016 208.696C836.656 208.696 837.976 210.016 837.952 212.632V217.912C837.952 218.776 838.144 219.04 839.056 219.016L838.96 220.24C837.544 220.336 836.728 219.808 836.56 218.68ZM850.875 214.36C850.875 216.088 850.371 217.504 849.363 218.632C848.331 219.76 847.035 220.312 845.451 220.312C844.515 220.312 843.627 220.12 842.763 219.712L841.275 220.36V203.824L842.763 203.512V210.16C843.747 209.224 844.851 208.768 846.075 208.768C848.979 208.768 850.875 211.048 850.875 214.36ZM849.339 214.432C849.339 211.888 847.947 210.136 845.787 210.136C844.659 210.136 843.651 210.544 842.763 211.36V218.104C843.507 218.68 844.419 218.968 845.523 218.968C847.875 218.968 849.339 217.144 849.339 214.432ZM863.517 214.48C863.517 216.208 863.013 217.6 861.981 218.68C860.949 219.76 859.677 220.312 858.117 220.312C856.557 220.312 855.285 219.784 854.301 218.728C853.317 217.672 852.813 216.28 852.813 214.528C852.813 212.8 853.341 211.384 854.373 210.304C855.405 209.224 856.677 208.696 858.237 208.696C859.797 208.696 861.069 209.224 862.053 210.28C863.037 211.336 863.517 212.728 863.517 214.48ZM862.053 214.528C862.053 211.816 860.517 210.04 858.165 210.04C855.861 210.04 854.301 211.84 854.301 214.48C854.301 217.192 855.837 218.968 858.189 218.968C860.493 218.968 862.053 217.168 862.053 214.528ZM866.187 209.008H867.675V216.112C867.675 217.96 868.467 218.896 870.051 218.896C871.299 218.896 872.427 218.368 873.435 217.336V209.008H874.923V220L873.435 220.312V218.536C872.283 219.712 871.011 220.312 869.643 220.312C867.483 220.312 866.187 218.92 866.187 216.544V209.008ZM883.848 219.784C883.032 220.168 882.216 220.36 881.4 220.36C879.36 220.36 878.376 219.208 878.448 216.904L878.616 210.4L876.936 210.304L877.008 209.368L878.664 208.984L878.736 206.488H880.152L880.08 209.056H883.752L883.68 210.376H880.032L879.864 216.952C879.816 218.32 880.344 219.016 881.472 219.016C882.072 219.016 882.768 218.848 883.584 218.488L883.848 219.784ZM893.512 205.384C893.512 205.696 893.416 205.936 893.248 206.152C893.08 206.368 892.816 206.488 892.504 206.488C892.192 206.488 891.928 206.368 891.76 206.152C891.592 205.936 891.496 205.696 891.496 205.384C891.496 205.096 891.592 204.856 891.76 204.64C891.928 204.424 892.192 204.328 892.504 204.328C892.816 204.328 893.08 204.424 893.248 204.64C893.416 204.856 893.512 205.096 893.512 205.384ZM893.248 220H891.76V209.008L893.248 208.696V220ZM902.223 219.784C901.407 220.168 900.591 220.36 899.775 220.36C897.735 220.36 896.751 219.208 896.823 216.904L896.991 210.4L895.311 210.304L895.383 209.368L897.039 208.984L897.111 206.488H898.527L898.455 209.056H902.127L902.055 210.376H898.407L898.239 216.952C898.191 218.32 898.719 219.016 899.847 219.016C900.447 219.016 901.143 218.848 901.959 218.488L902.223 219.784Z" fill="#111115"/>
<path d="M1084.48 158V143H1082.97V158H1084.48ZM1108.87 158H1107.38V150.92C1107.38 149.048 1106.61 148.112 1105.05 148.112C1103.99 148.112 1102.96 148.592 1101.95 149.528C1101.98 149.72 1102 150.056 1102 150.512V158H1100.51V150.92C1100.51 149.048 1099.75 148.112 1098.19 148.112C1097.11 148.112 1096.1 148.544 1095.14 149.384V158H1093.65V147.008L1095.14 146.696V148.208C1096.24 147.2 1097.39 146.696 1098.62 146.696C1100.08 146.696 1101.07 147.296 1101.59 148.52C1102.82 147.296 1104.11 146.696 1105.48 146.696C1107.59 146.696 1108.87 148.064 1108.87 150.488V158ZM1118 155.576V152.36C1114.3 152.768 1112.88 153.584 1112.88 155.096C1112.88 156.248 1113.82 157.016 1115.14 157.016C1116.2 157.016 1117.16 156.536 1118 155.576ZM1118.09 156.68H1118.02C1117.13 157.76 1116.08 158.312 1114.8 158.312C1112.79 158.312 1111.32 157.04 1111.32 155.264C1111.32 152.912 1113.56 151.616 1118 151.352V150.704C1118 148.952 1117.13 148.088 1115.4 148.088C1114.25 148.088 1112.81 148.664 1111.8 149.408L1111.47 148.016C1112.52 147.272 1114.16 146.696 1115.55 146.696C1118.19 146.696 1119.51 148.016 1119.48 150.632V155.912C1119.48 156.776 1119.68 157.04 1120.59 157.016L1120.49 158.24C1119.08 158.336 1118.26 157.808 1118.09 156.68ZM1131.16 147.008L1126.89 157.88L1126 160.256C1125.04 162.872 1124.03 163.712 1122.45 163.712C1121.8 163.712 1121.1 163.544 1120.31 163.208L1120.77 161.84C1121.37 162.152 1121.92 162.32 1122.45 162.32C1123.36 162.32 1123.96 161.768 1124.7 159.776L1125.45 157.832L1121.15 147.008H1122.76L1126.21 156.08L1129.6 147.008H1131.16ZM1147.17 158H1145.69V150.896C1145.69 149.048 1144.89 148.112 1143.33 148.112C1142.11 148.112 1140.96 148.64 1139.93 149.672V158H1138.44V141.824L1139.93 141.512V148.448C1141.1 147.272 1142.37 146.696 1143.74 146.696C1145.9 146.696 1147.17 148.04 1147.17 150.464V158ZM1156.29 155.576V152.36C1152.6 152.768 1151.18 153.584 1151.18 155.096C1151.18 156.248 1152.12 157.016 1153.44 157.016C1154.49 157.016 1155.45 156.536 1156.29 155.576ZM1156.39 156.68H1156.32C1155.43 157.76 1154.37 158.312 1153.1 158.312C1151.08 158.312 1149.62 157.04 1149.62 155.264C1149.62 152.912 1151.85 151.616 1156.29 151.352V150.704C1156.29 148.952 1155.43 148.088 1153.7 148.088C1152.55 148.088 1151.11 148.664 1150.1 149.408L1149.76 148.016C1150.82 147.272 1152.45 146.696 1153.84 146.696C1156.48 146.696 1157.8 148.016 1157.78 150.632V155.912C1157.78 156.776 1157.97 157.04 1158.88 157.016L1158.79 158.24C1157.37 158.336 1156.56 157.808 1156.39 156.68ZM1169.46 147.008H1167.9L1164.54 156.08L1161.06 147.008H1159.45L1163.79 158.024H1165.14L1169.46 147.008ZM1171.95 152.552V152.672C1172.02 155.192 1173.51 156.92 1175.79 156.92C1176.99 156.92 1178.05 156.608 1178.98 156.008L1179.27 157.376C1178.26 158 1177.09 158.312 1175.74 158.312C1172.6 158.312 1170.44 155.984 1170.44 152.6C1170.44 150.872 1170.94 149.456 1171.93 148.352C1172.91 147.248 1174.13 146.696 1175.62 146.696C1178.07 146.696 1179.63 148.28 1179.63 150.752C1179.63 151.4 1179.56 151.976 1179.39 152.504L1171.95 152.552ZM1172.05 151.376L1178.14 151.352C1178.17 151.28 1178.17 151.112 1178.17 150.872C1178.17 149.144 1177.23 148.04 1175.53 148.04C1173.63 148.04 1172.31 149.456 1172.05 151.376ZM1091.46 189H1089.98V181.896C1089.98 180.048 1089.18 179.112 1087.62 179.112C1086.4 179.112 1085.25 179.64 1084.22 180.672V189H1082.73V172.824L1084.22 172.512V179.448C1085.39 178.272 1086.66 177.696 1088.03 177.696C1090.19 177.696 1091.46 179.04 1091.46 181.464V189ZM1095.64 183.552V183.672C1095.71 186.192 1097.2 187.92 1099.48 187.92C1100.68 187.92 1101.73 187.608 1102.67 187.008L1102.96 188.376C1101.95 189 1100.77 189.312 1099.43 189.312C1096.29 189.312 1094.13 186.984 1094.13 183.6C1094.13 181.872 1094.63 180.456 1095.61 179.352C1096.6 178.248 1097.82 177.696 1099.31 177.696C1101.76 177.696 1103.32 179.28 1103.32 181.752C1103.32 182.4 1103.25 182.976 1103.08 183.504L1095.64 183.552ZM1095.73 182.376L1101.83 182.352C1101.85 182.28 1101.85 182.112 1101.85 181.872C1101.85 180.144 1100.92 179.04 1099.21 179.04C1097.32 179.04 1096 180.456 1095.73 182.376ZM1111.85 186.576V183.36C1108.16 183.768 1106.74 184.584 1106.74 186.096C1106.74 187.248 1107.68 188.016 1109 188.016C1110.05 188.016 1111.01 187.536 1111.85 186.576ZM1111.95 187.68H1111.88C1110.99 188.76 1109.93 189.312 1108.66 189.312C1106.65 189.312 1105.18 188.04 1105.18 186.264C1105.18 183.912 1107.41 182.616 1111.85 182.352V181.704C1111.85 179.952 1110.99 179.088 1109.26 179.088C1108.11 179.088 1106.67 179.664 1105.66 180.408L1105.33 179.016C1106.38 178.272 1108.01 177.696 1109.41 177.696C1112.05 177.696 1113.37 179.016 1113.34 181.632V186.912C1113.34 187.776 1113.53 188.04 1114.45 188.016L1114.35 189.24C1112.93 189.336 1112.12 188.808 1111.95 187.68ZM1118.15 181.944V189H1116.67V178.008L1118.15 177.696V180.048C1118.95 178.488 1120.03 177.696 1121.39 177.696C1122.09 177.696 1122.71 177.864 1123.31 178.2L1122.93 179.592C1122.4 179.28 1121.85 179.112 1121.25 179.112C1120.03 179.112 1118.99 180.048 1118.15 181.944ZM1132.38 178.368V172.824L1133.87 172.512V189H1132.38V187.968C1131.42 188.856 1130.36 189.312 1129.19 189.312C1126.23 189.312 1124.27 186.984 1124.27 183.6C1124.27 181.896 1124.77 180.504 1125.8 179.4C1126.83 178.32 1128.13 177.768 1129.71 177.768C1130.63 177.768 1131.51 177.96 1132.38 178.368ZM1132.38 179.952C1131.66 179.4 1130.75 179.112 1129.64 179.112C1127.29 179.112 1125.8 180.936 1125.8 183.576C1125.8 186.144 1127.24 187.944 1129.45 187.944C1130.53 187.944 1131.51 187.536 1132.38 186.72V180.168V179.952ZM1152.76 183.48C1152.76 185.208 1152.25 186.6 1151.22 187.68C1150.19 188.76 1148.92 189.312 1147.36 189.312C1145.8 189.312 1144.53 188.784 1143.54 187.728C1142.56 186.672 1142.05 185.28 1142.05 183.528C1142.05 181.8 1142.58 180.384 1143.61 179.304C1144.65 178.224 1145.92 177.696 1147.48 177.696C1149.04 177.696 1150.31 178.224 1151.29 179.28C1152.28 180.336 1152.76 181.728 1152.76 183.48ZM1151.29 183.528C1151.29 180.816 1149.76 179.04 1147.41 179.04C1145.1 179.04 1143.54 180.84 1143.54 183.48C1143.54 186.192 1145.08 187.968 1147.43 187.968C1149.73 187.968 1151.29 186.168 1151.29 183.528ZM1161.16 172.776L1161.09 173.112C1161.02 173.352 1160.97 173.568 1160.9 173.784L1160.8 174.12C1160.16 173.808 1159.6 173.664 1159.12 173.664C1157.9 173.664 1157.3 174.528 1157.3 176.232V178.056H1160.76L1160.68 179.376H1157.3V189H1155.84V179.424L1154.06 179.304L1154.16 178.368L1155.81 177.984L1155.84 176.256C1155.88 173.616 1156.99 172.296 1159.15 172.296C1159.82 172.296 1160.49 172.464 1161.16 172.776ZM1169.91 174.384C1169.91 174.696 1169.81 174.936 1169.65 175.152C1169.48 175.368 1169.21 175.488 1168.9 175.488C1168.59 175.488 1168.33 175.368 1168.16 175.152C1167.99 174.936 1167.89 174.696 1167.89 174.384C1167.89 174.096 1167.99 173.856 1168.16 173.64C1168.33 173.424 1168.59 173.328 1168.9 173.328C1169.21 173.328 1169.48 173.424 1169.65 173.64C1169.81 173.856 1169.91 174.096 1169.91 174.384ZM1169.65 189H1168.16V178.008L1169.65 177.696V189ZM1178.62 188.784C1177.81 189.168 1176.99 189.36 1176.17 189.36C1174.13 189.36 1173.15 188.208 1173.22 185.904L1173.39 179.4L1171.71 179.304L1171.78 178.368L1173.44 177.984L1173.51 175.488H1174.93L1174.85 178.056H1178.53L1178.45 179.376H1174.81L1174.64 185.952C1174.59 187.32 1175.12 188.016 1176.25 188.016C1176.85 188.016 1177.54 187.848 1178.36 187.488L1178.62 188.784Z" fill="#111115"/>
<path d="M21.0322 179.12C21.0322 176.936 21.7522 174.968 23.1682 173.216C24.5842 171.488 26.6002 170.312 29.2642 169.688L29.8642 171.56C26.1442 172.496 23.9122 174.368 23.1682 177.176L23.2162 177.2C24.2962 176.216 25.5682 175.712 27.0322 175.712C29.5042 175.712 31.4242 177.608 31.4242 180.368C31.4242 183.272 29.4082 185.36 26.3122 185.36C24.6562 185.36 23.3842 184.76 22.4482 183.56C21.5122 182.384 21.0322 180.896 21.0322 179.12ZM23.1202 179.744C23.1202 181.856 24.4162 183.536 26.4082 183.536C28.2322 183.536 29.4322 182.288 29.4322 180.464C29.4322 178.664 28.2322 177.464 26.5042 177.464C25.2082 177.464 23.9842 178.064 23.2402 178.736C23.1682 179.024 23.1202 179.36 23.1202 179.744ZM43.7272 179.552C43.7272 181.736 43.0312 183.704 41.6152 185.432C40.1992 187.184 38.1592 188.36 35.4952 188.984L34.8952 187.112C38.6152 186.176 40.8472 184.304 41.5912 181.496L41.5432 181.472C40.4632 182.456 39.1912 182.96 37.7272 182.96C35.2552 182.96 33.3352 181.064 33.3352 178.304C33.3352 175.4 35.3512 173.312 38.4472 173.312C40.1032 173.312 41.3992 173.912 42.3352 175.088C43.2712 176.288 43.7272 177.776 43.7272 179.552ZM41.6392 178.928C41.6392 176.816 40.3432 175.136 38.3512 175.136C36.5272 175.136 35.3272 176.384 35.3272 178.208C35.3272 180.008 36.5272 181.208 38.2552 181.208C39.5512 181.208 40.7752 180.608 41.5192 179.936C41.5912 179.648 41.6392 179.312 41.6392 178.928ZM47.321 182.288C47.753 182.288 48.113 182.432 48.401 182.72C48.689 183.032 48.833 183.392 48.833 183.8C48.833 184.208 48.689 184.568 48.401 184.88C48.113 185.192 47.753 185.36 47.321 185.36C46.865 185.36 46.505 185.192 46.217 184.88C45.905 184.568 45.761 184.208 45.761 183.8C45.761 183.392 45.905 183.032 46.217 182.72C46.505 182.432 46.865 182.288 47.321 182.288ZM60.0345 185H51.0105V183.296C51.3465 183.032 51.8025 182.696 52.4025 182.264C53.0025 181.856 53.4585 181.52 53.7705 181.28C54.0825 181.04 54.4665 180.752 54.9225 180.392C55.3785 180.032 55.7145 179.744 55.9785 179.504C56.2185 179.264 56.4585 179 56.7225 178.688C56.9865 178.4 57.1545 178.112 57.2745 177.848C57.3705 177.584 57.4185 177.32 57.4185 177.056C57.4185 175.928 56.5545 175.16 55.1385 175.16C54.1065 175.16 52.9545 175.616 51.7305 176.528L51.0345 174.848C52.3305 173.816 53.7705 173.312 55.3545 173.312C57.8265 173.312 59.5065 174.704 59.5065 176.816C59.5065 177.08 59.4825 177.32 59.4345 177.56C59.3625 177.824 59.3145 178.04 59.2425 178.256C59.1705 178.472 59.0745 178.688 58.9065 178.904C58.7385 179.144 58.5945 179.336 58.4745 179.504C58.3545 179.672 58.1865 179.864 57.9225 180.104C57.6585 180.368 57.4425 180.56 57.2985 180.68C57.1545 180.8 56.9145 180.992 56.5785 181.256C56.2185 181.52 55.9785 181.712 55.8105 181.832C55.6425 181.952 55.3305 182.168 54.9225 182.48C54.4905 182.792 54.1785 183.008 54.0105 183.128H60.0345V185ZM69.1792 173.432C69.1792 175.64 67.6192 177.392 65.1952 177.392C62.8192 177.392 61.2112 175.64 61.2112 173.432C61.2112 172.304 61.5712 171.368 62.3152 170.576C63.0352 169.808 63.9952 169.424 65.1952 169.424C66.3952 169.424 67.3552 169.808 68.0992 170.576C68.8192 171.344 69.1792 172.304 69.1792 173.432ZM76.4992 169.664L64.5472 185.36H63.0352L74.9872 169.664H76.4992ZM78.2992 181.592C78.2992 182.72 77.9392 183.656 77.2192 184.424C76.4752 185.216 75.5152 185.6 74.3152 185.6C73.1152 185.6 72.1552 185.216 71.4352 184.448C70.6912 183.68 70.3312 182.72 70.3312 181.592C70.3312 179.384 71.9152 177.632 74.3152 177.632C76.6912 177.632 78.2992 179.384 78.2992 181.592ZM67.8832 173.432C67.8832 172.64 67.6432 171.992 67.1632 171.464C66.6592 170.936 66.0112 170.672 65.1952 170.672C64.3792 170.672 63.7312 170.936 63.2512 171.464C62.7472 171.992 62.5072 172.64 62.5072 173.432C62.5072 174.176 62.7472 174.824 63.2512 175.352C63.7312 175.88 64.3792 176.144 65.1952 176.144C66.0112 176.144 66.6592 175.88 67.1632 175.352C67.6432 174.824 67.8832 174.176 67.8832 173.432ZM77.0032 181.592C77.0032 180.848 76.7632 180.2 76.2832 179.672C75.7792 179.144 75.1312 178.88 74.3152 178.88C73.4992 178.88 72.8512 179.144 72.3712 179.672C71.8672 180.2 71.6272 180.848 71.6272 181.592C71.6272 182.384 71.8672 183.032 72.3712 183.56C72.8512 184.088 73.4992 184.352 74.3152 184.352C75.1312 184.352 75.7792 184.088 76.2832 183.56C76.7632 183.032 77.0032 182.384 77.0032 181.592Z" fill="#111115"/>
<path d="M1178.5 114H7.5C3.35786 114 0 117.358 0 121.5C0 125.642 3.35786 129 7.5 129H1178.5C1182.64 129 1186 125.642 1186 121.5C1186 117.358 1182.64 114 1178.5 114Z" fill="#EC8539" fill-opacity="0.2"/>
<path d="M809.752 114H7.5C3.35786 114 0 117.358 0 121.5C0 125.642 3.35786 129 7.5 129H809.752C813.894 129 817.252 125.642 817.252 121.5C817.252 117.358 813.894 114 809.752 114Z" fill="#EC8539"/>
<path d="M1073.23 114H814.5C810.358 114 807 117.358 807 121.5C807 125.642 810.358 129 814.5 129H1073.23C1077.38 129 1080.73 125.642 1080.73 121.5C1080.73 117.358 1077.38 114 1073.23 114Z" fill="#EC8539" fill-opacity="0.5"/>
</svg>
