<svg width="395" height="303" viewBox="0 0 395 303" fill="none" xmlns="http://www.w3.org/2000/svg">
<path d="M309.199 240.847H310.467L310.076 228.662H308.418L304.36 239.424L300.244 228.662H298.566L298.156 240.847H299.385L299.6 230.183L303.638 240.769H305.004L309.003 230.202L309.199 240.847ZM317.797 238.878V236.265C314.793 236.597 313.642 237.26 313.642 238.488C313.642 239.424 314.403 240.048 315.476 240.048C316.334 240.048 317.114 239.658 317.797 238.878ZM317.875 239.775H317.817C317.095 240.652 316.237 241.1 315.203 241.1C313.564 241.1 312.374 240.067 312.374 238.624C312.374 236.714 314.188 235.661 317.797 235.446V234.92C317.797 233.497 317.095 232.795 315.69 232.795C314.754 232.795 313.583 233.263 312.764 233.867L312.491 232.737C313.349 232.132 314.676 231.664 315.807 231.664C317.953 231.664 319.026 232.737 319.007 234.862V239.151C319.007 239.853 319.163 240.067 319.904 240.048L319.826 241.042C318.675 241.12 318.012 240.691 317.875 239.775ZM322.918 240.847V227.453L321.708 227.707V240.847H322.918ZM326.372 236.421V236.519C326.43 238.566 327.64 239.97 329.493 239.97C330.469 239.97 331.327 239.716 332.088 239.229L332.322 240.34C331.503 240.847 330.547 241.1 329.454 241.1C326.898 241.1 325.143 239.209 325.143 236.46C325.143 235.057 325.552 233.906 326.352 233.009C327.152 232.113 328.147 231.664 329.357 231.664C331.346 231.664 332.615 232.951 332.615 234.959C332.615 235.485 332.556 235.953 332.419 236.382L326.372 236.421ZM326.45 235.466L331.405 235.446C331.425 235.388 331.424 235.252 331.424 235.057C331.424 233.653 330.664 232.756 329.278 232.756C327.737 232.756 326.664 233.906 326.45 235.466Z" fill="#111115"/>
<path d="M56.2095 45.8879H57.4581V40.5655H62.3745V39.4152H57.4581V34.8726H63.389V33.7029H56.2095V45.8879ZM65.8422 41.4623V41.5598C65.9008 43.6068 67.1103 45.0106 68.9637 45.0106C69.9392 45.0106 70.7976 44.7571 71.5585 44.2697L71.7926 45.381C70.9732 45.8879 70.0172 46.1413 68.9247 46.1413C66.369 46.1413 64.6132 44.2502 64.6132 41.5013C64.6132 40.0976 65.0229 38.9473 65.8227 38.0505C66.6226 37.1537 67.6176 36.7053 68.8272 36.7053C70.8171 36.7053 72.0852 37.992 72.0852 40.0001C72.0852 40.5265 72.0267 40.9944 71.8901 41.4233L65.8422 41.4623ZM65.9203 40.507L70.8756 40.4875C70.8951 40.429 70.8951 40.2925 70.8951 40.0976C70.8951 38.6939 70.1343 37.797 68.7491 37.797C67.2079 37.797 66.1349 38.9473 65.9203 40.507ZM86.7313 45.8879H85.5217V40.1366C85.5217 38.6159 84.8974 37.8555 83.6293 37.8555C82.7709 37.8555 81.932 38.2455 81.1126 39.0058C81.1321 39.1618 81.1516 39.4347 81.1516 39.8051V45.8879H79.9421V40.1366C79.9421 38.6159 79.3178 37.8555 78.0497 37.8555C77.1718 37.8555 76.3524 38.2065 75.572 38.8888V45.8879H74.3624V36.9587L75.572 36.7053V37.9335C76.4694 37.1147 77.4059 36.7053 78.4008 36.7053C79.5909 36.7053 80.3908 37.1927 80.82 38.187C81.815 37.1927 82.8685 36.7053 83.9805 36.7053C85.6973 36.7053 86.7313 37.8165 86.7313 39.7856V45.8879ZM94.1524 43.9188V41.3063C91.148 41.6378 89.997 42.3006 89.997 43.5289C89.997 44.4647 90.7578 45.0885 91.8308 45.0885C92.6893 45.0885 93.4696 44.6986 94.1524 43.9188ZM94.2305 44.8156H94.172C93.4501 45.6929 92.5917 46.1413 91.5577 46.1413C89.9189 46.1413 88.7289 45.108 88.7289 43.6653C88.7289 41.7547 90.5432 40.7019 94.1524 40.4875V39.9611C94.1524 38.5379 93.4501 37.836 92.0454 37.836C91.109 37.836 89.9384 38.3039 89.1191 38.9083L88.8459 37.7776C89.7043 37.1732 91.031 36.7053 92.1625 36.7053C94.3085 36.7053 95.3815 37.7776 95.362 39.9026V44.1917C95.362 44.8936 95.5181 45.108 96.2594 45.0885L96.1814 46.0828C95.0304 46.1608 94.367 45.7319 94.2305 44.8156ZM99.2727 45.8879V32.4941L98.0632 32.7476V45.8879H99.2727ZM102.727 41.4623V41.5598C102.785 43.6068 103.995 45.0106 105.848 45.0106C106.824 45.0106 107.682 44.7571 108.443 44.2697L108.677 45.381C107.858 45.8879 106.902 46.1413 105.809 46.1413C103.254 46.1413 101.498 44.2502 101.498 41.5013C101.498 40.0976 101.908 38.9473 102.707 38.0505C103.507 37.1537 104.502 36.7053 105.712 36.7053C107.702 36.7053 108.97 37.992 108.97 40.0001C108.97 40.5265 108.911 40.9944 108.775 41.4233L102.727 41.4623ZM102.805 40.507L107.76 40.4875C107.78 40.429 107.78 40.2925 107.78 40.0976C107.78 38.6939 107.019 37.797 105.634 37.797C104.093 37.797 103.02 38.9473 102.805 40.507Z" fill="#111115"/>
<path d="M297.92 261.749C297.92 259.975 298.505 258.377 299.656 256.953C300.807 255.55 302.446 254.594 304.611 254.087L305.099 255.608C302.075 256.369 300.261 257.889 299.656 260.17L299.695 260.19C300.573 259.39 301.607 258.981 302.797 258.981C304.807 258.981 306.367 260.521 306.367 262.763C306.367 265.122 304.729 266.818 302.212 266.818C300.866 266.818 299.832 266.331 299.071 265.356C298.31 264.401 297.92 263.192 297.92 261.749ZM299.617 262.256C299.617 263.972 300.671 265.337 302.29 265.337C303.773 265.337 304.748 264.323 304.748 262.841C304.748 261.379 303.773 260.404 302.368 260.404C301.314 260.404 300.319 260.892 299.715 261.437C299.656 261.671 299.617 261.944 299.617 262.256ZM310.281 266.526H311.862V257.012L307.96 258.299L308.018 259.761L310.281 259.039V266.526ZM315.632 264.323C315.983 264.323 316.276 264.44 316.51 264.674C316.744 264.927 316.861 265.22 316.861 265.551C316.861 265.883 316.744 266.175 316.51 266.428C316.276 266.682 315.983 266.818 315.632 266.818C315.261 266.818 314.968 266.682 314.734 266.428C314.481 266.175 314.364 265.883 314.364 265.551C314.364 265.22 314.481 264.927 314.734 264.674C314.968 264.44 315.261 264.323 315.632 264.323ZM320.001 262.334C320.645 262.276 321.113 262.237 321.386 262.237C323.942 262.237 325.581 263.699 325.581 265.98C325.581 267.208 325.171 268.222 324.352 269.002C323.513 269.782 322.498 270.172 321.289 270.172C319.982 270.172 318.85 269.899 317.894 269.333L318.187 267.754C319.26 268.359 320.313 268.651 321.308 268.651C322.849 268.651 323.942 267.618 323.942 266.058C323.942 264.693 322.888 263.621 321.191 263.621C320.333 263.621 319.533 263.738 318.791 263.952L318.362 263.563L319.162 257.304H325.249L325.308 258.884H320.469L320.001 262.334ZM332.657 257.129C332.657 258.923 331.389 260.346 329.418 260.346C327.487 260.346 326.18 258.923 326.18 257.129C326.18 256.213 326.472 255.452 327.077 254.809C327.662 254.185 328.443 253.873 329.418 253.873C330.394 253.873 331.174 254.185 331.779 254.809C332.364 255.433 332.657 256.213 332.657 257.129ZM338.607 254.068L328.892 266.818H327.662L337.378 254.068H338.607ZM340.07 263.758C340.07 264.674 339.778 265.434 339.192 266.058C338.588 266.701 337.807 267.013 336.832 267.013C335.856 267.013 335.076 266.701 334.491 266.078C333.886 265.454 333.593 264.674 333.593 263.758C333.593 261.964 334.881 260.541 336.832 260.541C338.763 260.541 340.07 261.964 340.07 263.758ZM331.603 257.129C331.603 256.486 331.408 255.959 331.018 255.53C330.608 255.101 330.082 254.887 329.418 254.887C328.755 254.887 328.228 255.101 327.838 255.53C327.428 255.959 327.233 256.486 327.233 257.129C327.233 257.733 327.428 258.26 327.838 258.689C328.228 259.117 328.755 259.332 329.418 259.332C330.082 259.332 330.608 259.117 331.018 258.689C331.408 258.26 331.603 257.733 331.603 257.129ZM339.017 263.758C339.017 263.153 338.822 262.627 338.432 262.198C338.022 261.769 337.495 261.554 336.832 261.554C336.168 261.554 335.642 261.769 335.252 262.198C334.842 262.627 334.647 263.153 334.647 263.758C334.647 264.401 334.842 264.927 335.252 265.356C335.642 265.785 336.168 266 336.832 266C337.495 266 338.022 265.785 338.432 265.356C338.822 264.927 339.017 264.401 339.017 263.758Z" fill="#111115"/>
<path d="M59.9163 67.7565C61.7697 68.049 62.7842 69.3552 62.7842 70.8369C62.7842 72.0262 62.355 72.9815 61.5161 73.6638C60.6577 74.3657 59.5847 74.7166 58.2971 74.7166C56.9119 74.7166 55.7999 74.4632 55 73.9758L55.2926 72.4746C56.0535 73.001 57.068 73.2544 58.3166 73.2544C60.0139 73.2544 61.1064 72.4356 61.1064 70.9539C61.1064 69.6477 60.0724 68.9653 58.4531 68.9068C57.9654 68.8873 57.3606 68.9458 56.6583 69.0628V67.6786C59.292 67.0742 60.5992 66.1384 60.5992 64.8906C60.5992 63.7209 59.7993 63.0775 58.3946 63.0775C57.5362 63.0775 56.5998 63.4479 55.5853 64.2083L55.0195 62.8436C56.0925 62.0052 57.2826 61.5763 58.5702 61.5763C60.9308 61.5763 62.355 62.8241 62.355 64.6567C62.355 66.0409 61.3015 67.2107 59.9163 67.7565ZM68.7447 64.4812C69.8372 64.0328 70.3835 63.292 70.3835 62.2782C70.3835 61.0304 69.447 60.2311 68.1594 60.2311C66.6962 60.2311 65.8378 61.0109 65.8378 62.0832C65.8378 62.3172 65.8963 62.5316 66.0134 62.7461C66.1304 62.9605 66.267 63.1165 66.4036 63.253C66.5401 63.3894 66.7743 63.5454 67.1059 63.7209C67.4181 63.8963 67.6717 64.0133 67.8473 64.0913C68.0228 64.1888 68.335 64.3058 68.7447 64.4812ZM67.5741 65.573C66.3646 65.9629 65.6427 66.8012 65.6427 67.893C65.6427 69.1213 66.6962 69.9401 68.1789 69.9401C69.7202 69.9401 70.559 69.2772 70.559 68.1075C70.559 67.893 70.52 67.6981 70.4615 67.5226C70.403 67.3471 70.2859 67.1717 70.1103 66.9962C69.9348 66.8207 69.7787 66.6843 69.6616 66.5868C69.5446 66.4893 69.33 66.3723 68.9983 66.2164C68.6667 66.0604 68.452 65.9629 68.3545 65.9044C68.2374 65.8459 67.9838 65.7485 67.5741 65.573ZM69.9543 65.0271C71.4565 65.7875 72.1978 66.7428 72.1978 67.9125C72.1978 69.8621 70.6956 71.3633 68.1009 71.3633C65.4671 71.3633 64.0234 69.9791 64.0234 68.0685C64.0234 66.6063 65.194 65.3585 66.3646 65.0466C64.9989 64.3447 64.2185 63.5649 64.2185 62.2587C64.2185 60.2116 65.7598 58.8079 68.2374 58.8079C70.6956 58.8079 72.0027 60.2506 72.0027 62.1027C72.0027 63.4674 71.0468 64.5787 69.9543 65.0271ZM75.1428 68.8678C75.494 68.8678 75.7866 68.9848 76.0207 69.2187C76.2549 69.4722 76.3719 69.7646 76.3719 70.0961C76.3719 70.4275 76.2549 70.7199 76.0207 70.9734C75.7866 71.2268 75.494 71.3633 75.1428 71.3633C74.7722 71.3633 74.4795 71.2268 74.2454 70.9734C73.9918 70.7199 73.8747 70.4275 73.8747 70.0961C73.8747 69.7646 73.9918 69.4722 74.2454 69.2187C74.4795 68.9848 74.7722 68.8678 75.1428 68.8678ZM79.5122 66.8792C80.156 66.8207 80.6242 66.7817 80.8973 66.7817C83.453 66.7817 85.0918 68.2439 85.0918 70.525C85.0918 71.7532 84.6821 72.767 83.8627 73.5468C83.0238 74.3267 82.0094 74.7166 80.7998 74.7166C79.4927 74.7166 78.3611 74.4437 77.4052 73.8783L77.6978 72.2991C78.7708 72.9035 79.8243 73.1959 80.8193 73.1959C82.3605 73.1959 83.453 72.1626 83.453 70.603C83.453 69.2382 82.3995 68.166 80.7022 68.166C79.8438 68.166 79.0439 68.2829 78.3026 68.4974L77.8734 68.1075L78.6733 61.8493H84.7602L84.8187 63.4284H79.9804L79.5122 66.8792ZM92.168 61.6738C92.168 63.4674 90.8999 64.8906 88.9294 64.8906C86.998 64.8906 85.6909 63.4674 85.6909 61.6738C85.6909 60.7575 85.9836 59.9971 86.5883 59.3538C87.1736 58.7299 87.954 58.418 88.9294 58.418C89.9049 58.418 90.6853 58.7299 91.2901 59.3538C91.8753 59.9776 92.168 60.7575 92.168 61.6738ZM98.1183 58.6129L88.4027 71.3633H87.1736L96.8892 58.6129H98.1183ZM99.5815 68.3024C99.5815 69.2187 99.2889 69.9791 98.7036 70.603C98.0988 71.2463 97.3184 71.5583 96.343 71.5583C95.3675 71.5583 94.5871 71.2463 94.0019 70.6225C93.3971 69.9986 93.1044 69.2187 93.1044 68.3024C93.1044 66.5088 94.392 65.0856 96.343 65.0856C98.2744 65.0856 99.5815 66.5088 99.5815 68.3024ZM91.1145 61.6738C91.1145 61.0304 90.9194 60.504 90.5292 60.0751C90.1195 59.6462 89.5928 59.4318 88.9294 59.4318C88.2661 59.4318 87.7394 59.6462 87.3492 60.0751C86.9395 60.504 86.7444 61.0304 86.7444 61.6738C86.7444 62.2782 86.9395 62.8046 87.3492 63.2335C87.7394 63.6624 88.2661 63.8768 88.9294 63.8768C89.5928 63.8768 90.1195 63.6624 90.5292 63.2335C90.9194 62.8046 91.1145 62.2782 91.1145 61.6738ZM98.528 68.3024C98.528 67.6981 98.3329 67.1717 97.9427 66.7428C97.533 66.3138 97.0063 66.0994 96.343 66.0994C95.6796 66.0994 95.1529 66.3138 94.7627 66.7428C94.353 67.1717 94.1579 67.6981 94.1579 68.3024C94.1579 68.9458 94.353 69.4722 94.7627 69.9011C95.1529 70.33 95.6796 70.5445 96.343 70.5445C97.0063 70.5445 97.533 70.33 97.9427 69.9011C98.3329 69.4722 98.528 68.9458 98.528 68.3024Z" fill="#111115"/>
<path d="M193.171 41.0703C209.957 41.0703 226.491 45.1405 241.357 52.9315C256.223 60.7226 268.975 72.0018 278.519 85.8012C288.063 99.6007 294.113 115.508 296.152 132.159C298.19 148.809 296.155 165.705 290.222 181.397C284.288 197.088 274.634 211.107 262.086 222.25C249.538 233.392 234.472 241.326 218.181 245.369C201.89 249.414 184.861 249.447 168.555 245.467C152.247 241.487 137.151 233.613 124.56 222.519L193.171 144.749V41.0703Z" fill="#EC8539"/>
<path d="M193.153 41.0391C172.079 41.0391 151.503 47.4531 134.166 59.4275C116.828 71.4019 103.552 88.3687 96.102 108.07C88.6524 127.771 87.3836 149.273 92.4643 169.712C97.5449 190.152 108.734 208.561 124.543 222.488L193.153 144.718V41.0391Z" fill="#EC8539" fill-opacity="0.2"/>
</svg>
