<svg width="1186" height="303" viewBox="0 0 1186 303" fill="none" xmlns="http://www.w3.org/2000/svg">
<path d="M32.2881 143H30.5841L26.3361 150.464L22.0161 143H20.2881L25.5201 151.976V158H27.0561V151.976L32.2881 143ZM33.5357 152.552V152.672C33.6077 155.192 35.0957 156.92 37.3757 156.92C38.5757 156.92 39.6317 156.608 40.5677 156.008L40.8557 157.376C39.8477 158 38.6717 158.312 37.3277 158.312C34.1837 158.312 32.0237 155.984 32.0237 152.6C32.0237 150.872 32.5277 149.456 33.5117 148.352C34.4957 147.248 35.7197 146.696 37.2077 146.696C39.6557 146.696 41.2157 148.28 41.2157 150.752C41.2157 151.4 41.1437 151.976 40.9757 152.504L33.5357 152.552ZM33.6317 151.376L39.7277 151.352C39.7517 151.28 39.7517 151.112 39.7517 150.872C39.7517 149.144 38.8157 148.04 37.1117 148.04C35.2157 148.04 33.8957 149.456 33.6317 151.376ZM50.6172 155C50.6172 156.992 48.9372 158.312 46.6812 158.312C45.3132 158.312 44.1132 157.976 43.0812 157.328L43.4892 155.96C44.4972 156.632 45.5772 156.968 46.7292 156.968C48.1212 156.968 49.2012 156.272 49.2012 155.12C49.2012 154.856 49.1532 154.64 49.0332 154.424C48.9132 154.208 48.7692 154.04 48.6492 153.92C48.5292 153.8 48.2892 153.68 47.9772 153.536C47.6652 153.392 47.4252 153.296 47.2812 153.248C47.1372 153.2 46.8492 153.104 46.4412 152.984C44.5212 152.408 43.2492 151.592 43.2492 149.864C43.2492 147.896 44.8092 146.696 46.9692 146.696C48.1452 146.696 49.2492 146.96 50.3052 147.512L49.8732 148.856C48.8892 148.304 47.8812 148.04 46.8732 148.04C45.5292 148.04 44.6652 148.664 44.6652 149.72C44.6652 149.96 44.7132 150.176 44.8332 150.368C44.9532 150.584 45.0732 150.728 45.1932 150.848C45.3132 150.968 45.5292 151.112 45.8412 151.232C46.1292 151.352 46.3692 151.448 46.5372 151.52C46.7052 151.592 46.9932 151.664 47.3772 151.784C49.3692 152.36 50.6172 153.176 50.6172 155Z" fill="#111115"/>
<path d="M658.168 155.864L649.648 143H647.92V158H649.408V145.16L658 158.144H659.656V143H658.168V155.864ZM673.321 152.48C673.321 154.208 672.817 155.6 671.785 156.68C670.753 157.76 669.481 158.312 667.921 158.312C666.361 158.312 665.089 157.784 664.105 156.728C663.121 155.672 662.617 154.28 662.617 152.528C662.617 150.8 663.145 149.384 664.177 148.304C665.209 147.224 666.481 146.696 668.041 146.696C669.601 146.696 670.873 147.224 671.857 148.28C672.841 149.336 673.321 150.728 673.321 152.48ZM671.857 152.528C671.857 149.816 670.321 148.04 667.969 148.04C665.665 148.04 664.105 149.84 664.105 152.48C664.105 155.192 665.641 156.968 667.993 156.968C670.297 156.968 671.857 155.168 671.857 152.528Z" fill="#111115"/>
<path d="M23.0236 178.84C23.8156 178.768 24.3916 178.72 24.7276 178.72C27.8716 178.72 29.8876 180.52 29.8876 183.328C29.8876 184.84 29.3836 186.088 28.3756 187.048C27.3436 188.008 26.0956 188.488 24.6076 188.488C22.9996 188.488 21.6076 188.152 20.4316 187.456L20.7916 185.512C22.1116 186.256 23.4076 186.616 24.6316 186.616C26.5276 186.616 27.8716 185.344 27.8716 183.424C27.8716 181.744 26.5756 180.424 24.4876 180.424C23.4316 180.424 22.4476 180.568 21.5356 180.832L21.0076 180.352L21.9916 172.648H29.4796L29.5516 174.592H23.5996L23.0236 178.84ZM36.7687 179.92C39.0487 180.28 40.2967 181.888 40.2967 183.712C40.2967 185.176 39.7687 186.352 38.7367 187.192C37.6807 188.056 36.3607 188.488 34.7767 188.488C33.0727 188.488 31.7047 188.176 30.7207 187.576L31.0807 185.728C32.0167 186.376 33.2647 186.688 34.8007 186.688C36.8887 186.688 38.2327 185.68 38.2327 183.856C38.2327 182.248 36.9607 181.408 34.9687 181.336C34.3687 181.312 33.6247 181.384 32.7607 181.528V179.824C36.0007 179.08 37.6087 177.928 37.6087 176.392C37.6087 174.952 36.6247 174.16 34.8967 174.16C33.8407 174.16 32.6887 174.616 31.4407 175.552L30.7447 173.872C32.0647 172.84 33.5287 172.312 35.1127 172.312C38.0167 172.312 39.7687 173.848 39.7687 176.104C39.7687 177.808 38.4727 179.248 36.7687 179.92ZM44.0626 181.288C44.4946 181.288 44.8546 181.432 45.1426 181.72C45.4306 182.032 45.5746 182.392 45.5746 182.8C45.5746 183.208 45.4306 183.568 45.1426 183.88C44.8546 184.192 44.4946 184.36 44.0626 184.36C43.6066 184.36 43.2466 184.192 42.9586 183.88C42.6466 183.568 42.5026 183.208 42.5026 182.8C42.5026 182.392 42.6466 182.032 42.9586 181.72C43.2466 181.432 43.6066 181.288 44.0626 181.288ZM53.3949 175.888C54.7389 175.336 55.4109 174.424 55.4109 173.176C55.4109 171.64 54.2589 170.656 52.6749 170.656C50.8749 170.656 49.8189 171.616 49.8189 172.936C49.8189 173.224 49.8909 173.488 50.0349 173.752C50.1789 174.016 50.3469 174.208 50.5149 174.376C50.6829 174.544 50.9709 174.736 51.3789 174.952C51.7629 175.168 52.0749 175.312 52.2909 175.408C52.5069 175.528 52.8909 175.672 53.3949 175.888ZM51.9549 177.232C50.4669 177.712 49.5789 178.744 49.5789 180.088C49.5789 181.6 50.8749 182.608 52.6988 182.608C54.5949 182.608 55.6269 181.792 55.6269 180.352C55.6269 180.088 55.5789 179.848 55.5069 179.632C55.4349 179.416 55.2909 179.2 55.0749 178.984C54.8589 178.768 54.6669 178.6 54.5229 178.48C54.3789 178.36 54.1149 178.216 53.7069 178.024C53.2989 177.832 53.0349 177.712 52.9149 177.64C52.7709 177.568 52.4589 177.448 51.9549 177.232ZM54.8829 176.56C56.7309 177.496 57.6429 178.672 57.6429 180.112C57.6429 182.512 55.7949 184.36 52.6029 184.36C49.3629 184.36 47.5869 182.656 47.5869 180.304C47.5869 178.504 49.0269 176.968 50.4669 176.584C48.7869 175.72 47.8269 174.76 47.8269 173.152C47.8269 170.632 49.7229 168.904 52.7709 168.904C55.7949 168.904 57.4029 170.68 57.4029 172.96C57.4029 174.64 56.2269 176.008 54.8829 176.56ZM66.9989 172.432C66.9989 174.64 65.4389 176.392 63.0149 176.392C60.6389 176.392 59.0309 174.64 59.0309 172.432C59.0309 171.304 59.3909 170.368 60.1349 169.576C60.8549 168.808 61.8149 168.424 63.0149 168.424C64.2149 168.424 65.1749 168.808 65.9189 169.576C66.6389 170.344 66.9989 171.304 66.9989 172.432ZM74.3189 168.664L62.3669 184.36H60.8549L72.8069 168.664H74.3189ZM76.1189 180.592C76.1189 181.72 75.7589 182.656 75.0389 183.424C74.2949 184.216 73.3349 184.6 72.1349 184.6C70.9349 184.6 69.9749 184.216 69.2549 183.448C68.5109 182.68 68.1509 181.72 68.1509 180.592C68.1509 178.384 69.7349 176.632 72.1349 176.632C74.5109 176.632 76.1189 178.384 76.1189 180.592ZM65.7029 172.432C65.7029 171.64 65.4629 170.992 64.9829 170.464C64.4789 169.936 63.8309 169.672 63.0149 169.672C62.1989 169.672 61.5509 169.936 61.0709 170.464C60.5669 170.992 60.3269 171.64 60.3269 172.432C60.3269 173.176 60.5669 173.824 61.0709 174.352C61.5509 174.88 62.1989 175.144 63.0149 175.144C63.8309 175.144 64.4789 174.88 64.9829 174.352C65.4629 173.824 65.7029 173.176 65.7029 172.432ZM74.8229 180.592C74.8229 179.848 74.5829 179.2 74.1029 178.672C73.5989 178.144 72.9509 177.88 72.1349 177.88C71.3189 177.88 70.6709 178.144 70.1909 178.672C69.6869 179.2 69.4469 179.848 69.4469 180.592C69.4469 181.384 69.6869 182.032 70.1909 182.56C70.6709 183.088 71.3189 183.352 72.1349 183.352C72.9509 183.352 73.5989 183.088 74.1029 182.56C74.5829 182.032 74.8229 181.384 74.8229 180.592Z" fill="#111115"/>
<path d="M658.288 183.76L658.216 181.888H655.936V172.288H654.184L646.432 182.608L646.624 183.76H654.016V188.416H655.936V183.76H658.288ZM654.016 181.888H649.192L654.016 175.36V181.888ZM659.595 178.12C659.595 175.936 660.315 173.968 661.73 172.216C663.147 170.488 665.163 169.312 667.827 168.688L668.427 170.56C664.707 171.496 662.475 173.368 661.73 176.176L661.779 176.2C662.859 175.216 664.131 174.712 665.595 174.712C668.067 174.712 669.987 176.608 669.987 179.368C669.987 182.272 667.971 184.36 664.875 184.36C663.219 184.36 661.947 183.76 661.011 182.56C660.075 181.384 659.595 179.896 659.595 178.12ZM661.683 178.744C661.683 180.856 662.979 182.536 664.971 182.536C666.795 182.536 667.995 181.288 667.995 179.464C667.995 177.664 666.795 176.464 665.067 176.464C663.771 176.464 662.547 177.064 661.803 177.736C661.73 178.024 661.683 178.36 661.683 178.744ZM673.391 181.288C673.823 181.288 674.183 181.432 674.471 181.72C674.759 182.032 674.903 182.392 674.903 182.8C674.903 183.208 674.759 183.568 674.471 183.88C674.183 184.192 673.823 184.36 673.391 184.36C672.935 184.36 672.575 184.192 672.287 183.88C671.975 183.568 671.831 183.208 671.831 182.8C671.831 182.392 671.975 182.032 672.287 181.72C672.575 181.432 672.935 181.288 673.391 181.288ZM686.105 184H677.081V182.296C677.417 182.032 677.873 181.696 678.473 181.264C679.073 180.856 679.529 180.52 679.841 180.28C680.153 180.04 680.537 179.752 680.993 179.392C681.449 179.032 681.785 178.744 682.049 178.504C682.289 178.264 682.529 178 682.793 177.688C683.057 177.4 683.225 177.112 683.345 176.848C683.441 176.584 683.489 176.32 683.489 176.056C683.489 174.928 682.625 174.16 681.209 174.16C680.177 174.16 679.025 174.616 677.801 175.528L677.105 173.848C678.401 172.816 679.841 172.312 681.425 172.312C683.897 172.312 685.577 173.704 685.577 175.816C685.577 176.08 685.553 176.32 685.505 176.56C685.433 176.824 685.385 177.04 685.313 177.256C685.241 177.472 685.145 177.688 684.977 177.904C684.809 178.144 684.665 178.336 684.545 178.504C684.425 178.672 684.257 178.864 683.993 179.104C683.729 179.368 683.513 179.56 683.369 179.68C683.225 179.8 682.985 179.992 682.649 180.256C682.289 180.52 682.049 180.712 681.881 180.832C681.713 180.952 681.401 181.168 680.993 181.48C680.561 181.792 680.249 182.008 680.081 182.128H686.105V184ZM695.249 172.432C695.249 174.64 693.689 176.392 691.265 176.392C688.889 176.392 687.281 174.64 687.281 172.432C687.281 171.304 687.641 170.368 688.385 169.576C689.105 168.808 690.065 168.424 691.265 168.424C692.465 168.424 693.425 168.808 694.169 169.576C694.889 170.344 695.249 171.304 695.249 172.432ZM702.569 168.664L690.617 184.36H689.105L701.057 168.664H702.569ZM704.369 180.592C704.369 181.72 704.009 182.656 703.289 183.424C702.545 184.216 701.585 184.6 700.385 184.6C699.185 184.6 698.225 184.216 697.505 183.448C696.761 182.68 696.401 181.72 696.401 180.592C696.401 178.384 697.985 176.632 700.385 176.632C702.761 176.632 704.369 178.384 704.369 180.592ZM693.953 172.432C693.953 171.64 693.713 170.992 693.233 170.464C692.729 169.936 692.081 169.672 691.265 169.672C690.449 169.672 689.801 169.936 689.321 170.464C688.817 170.992 688.577 171.64 688.577 172.432C688.577 173.176 688.817 173.824 689.321 174.352C689.801 174.88 690.449 175.144 691.265 175.144C692.081 175.144 692.729 174.88 693.233 174.352C693.713 173.824 693.953 173.176 693.953 172.432ZM703.073 180.592C703.073 179.848 702.833 179.2 702.353 178.672C701.849 178.144 701.201 177.88 700.385 177.88C699.569 177.88 698.921 178.144 698.441 178.672C697.937 179.2 697.697 179.848 697.697 180.592C697.697 181.384 697.937 182.032 698.441 182.56C698.921 183.088 699.569 183.352 700.385 183.352C701.201 183.352 701.849 183.088 702.353 182.56C702.833 182.032 703.073 181.384 703.073 180.592Z" fill="#111115"/>
<path d="M1178.5 114H7.5C3.35786 114 0 117.358 0 121.5C0 125.642 3.35786 129 7.5 129H1178.5C1182.64 129 1186 125.642 1186 121.5C1186 117.358 1182.64 114 1178.5 114Z" fill="#EC8539" fill-opacity="0.2"/>
<path d="M630.568 114H7.5C3.35786 114 0 117.358 0 121.5C0 125.642 3.35786 129 7.5 129H630.568C634.71 129 638.068 125.642 638.068 121.5C638.068 117.358 634.71 114 630.568 114Z" fill="#EC8539"/>
</svg>
