<svg width="336" height="287" viewBox="0 0 336 287" fill="none" xmlns="http://www.w3.org/2000/svg">
<path d="M13.68 9.816L12.768 12.36C11.544 11.568 10.248 11.16 8.832 11.16C5.88 11.16 3.96 13.2 3.96 16.44C3.96 19.776 5.856 21.84 8.88 21.84C10.32 21.84 11.688 21.384 12.984 20.496L13.536 23.184C12.216 23.976 10.632 24.36 8.76 24.36C6.432 24.36 4.56 23.664 3.144 22.272C1.728 20.88 1.008 18.96 1.008 16.536C1.008 14.16 1.728 12.24 3.168 10.8C4.584 9.36 6.48 8.64 8.832 8.64C10.656 8.64 12.264 9.024 13.68 9.816ZM26.4186 18.456C26.4186 20.232 25.8666 21.648 24.7866 22.728C23.7066 23.808 22.3386 24.36 20.6826 24.36C19.0266 24.36 17.6826 23.832 16.6506 22.776C15.6186 21.72 15.0906 20.28 15.0906 18.48C15.0906 16.68 15.6426 15.24 16.7226 14.16C17.8026 13.08 19.1706 12.552 20.8266 12.552C24.1386 12.552 26.4186 14.832 26.4186 18.456ZM20.7786 22.056C21.6666 22.056 22.3626 21.72 22.8666 21.072C23.3706 20.424 23.6106 19.56 23.6106 18.48C23.6106 17.4 23.3466 16.512 22.8426 15.84C22.3386 15.168 21.6186 14.832 20.7306 14.832C18.9066 14.832 17.8746 16.272 17.8746 18.456C17.8746 20.616 18.9546 22.056 20.7786 22.056ZM45.5213 24H42.6893V17.28C42.6893 15.696 42.0893 15.072 40.8653 15.072C40.0733 15.072 39.3053 15.408 38.5613 16.056V24H35.7293V17.28C35.7293 15.672 35.1533 15.072 33.9293 15.072C33.0413 15.072 32.2733 15.384 31.6253 15.984V24H28.7933V12.984L31.6253 12.6V14.16C32.6813 13.104 33.8573 12.576 35.1533 12.576C36.6173 12.576 37.6253 13.2 38.1773 14.472C39.3533 13.2 40.6493 12.576 42.1133 12.576C44.2253 12.576 45.5213 13.992 45.5213 16.416V24ZM51.2893 13.992C52.2733 13.056 53.3053 12.576 54.3853 12.576C57.3133 12.576 59.2333 14.928 59.2333 18.36C59.2333 20.112 58.7053 21.528 57.6253 22.656C56.5453 23.784 55.2253 24.336 53.6413 24.336C52.7533 24.336 51.9613 24.24 51.2893 24.024V29.28H48.4573V12.984L51.2893 12.6V13.992ZM51.2893 15.864V21.456C51.8413 21.864 52.5373 22.08 53.3773 22.08C55.2493 22.08 56.3533 20.592 56.3533 18.48C56.3533 16.296 55.2973 14.952 53.5693 14.952C52.7293 14.952 51.9853 15.264 51.2893 15.864ZM61.5098 12.936H64.3418V19.68C64.3418 21.264 64.9658 21.84 66.2138 21.84C67.1497 21.84 67.9658 21.528 68.6378 20.88V12.936H71.4698V23.928L68.6378 24.312V22.68C67.6058 23.808 66.3818 24.36 64.9898 24.36C62.8058 24.36 61.5098 22.92 61.5098 20.544V12.936ZM80.9764 23.928C80.1364 24.216 79.2724 24.36 78.4084 24.36C75.8644 24.36 74.6404 23.232 74.7364 20.616L74.9044 15.408L73.1764 15.216L73.2484 13.416L74.9764 12.864L75.0244 10.416H77.7604L77.7124 13.008H80.8324L80.7604 15.336H77.5444L77.4004 20.448C77.3764 21.456 77.8804 21.96 78.8644 21.96C79.3444 21.96 79.9204 21.84 80.5924 21.624L80.9764 23.928ZM85.1168 19.008V19.08C85.2368 20.904 86.4608 22.104 88.4288 22.104C89.6528 22.104 90.8048 21.768 91.8848 21.096L92.2448 23.448C91.1168 24.048 89.7968 24.36 88.2368 24.36C84.6608 24.36 82.3328 22.104 82.3328 18.576C82.3328 16.776 82.8608 15.336 83.9408 14.232C85.0208 13.128 86.3888 12.576 88.0448 12.576C90.9488 12.576 92.6048 14.304 92.6048 17.064C92.6048 17.76 92.5328 18.384 92.3648 18.912L85.1168 19.008ZM85.1888 17.352L89.9408 17.328V17.136C89.9408 15.528 89.2448 14.712 87.8288 14.712C86.3408 14.712 85.3568 15.864 85.1888 17.352ZM97.7893 17.16V24H94.9573V13.008L97.7893 12.6V14.4C98.5093 13.176 99.4693 12.576 100.669 12.576C101.413 12.576 102.085 12.744 102.637 13.08L102.013 15.624C101.485 15.336 100.957 15.192 100.429 15.192C99.3973 15.192 98.5093 15.84 97.7893 17.16ZM119.705 24V21.432H112.937V9H110.009V24H119.705ZM125.125 9.216C125.125 10.272 124.501 10.92 123.373 10.92C122.269 10.92 121.645 10.272 121.645 9.216C121.645 8.184 122.269 7.512 123.373 7.512C124.501 7.512 125.125 8.184 125.125 9.216ZM124.789 24H121.957V13.008L124.789 12.6V24ZM134.297 23.928C133.457 24.216 132.593 24.36 131.729 24.36C129.185 24.36 127.961 23.232 128.057 20.616L128.225 15.408L126.497 15.216L126.569 13.416L128.297 12.864L128.345 10.416H131.081L131.033 13.008H134.153L134.081 15.336H130.865L130.721 20.448C130.697 21.456 131.201 21.96 132.185 21.96C132.665 21.96 133.241 21.84 133.913 21.624L134.297 23.928ZM138.437 19.008V19.08C138.557 20.904 139.781 22.104 141.749 22.104C142.973 22.104 144.125 21.768 145.205 21.096L145.565 23.448C144.437 24.048 143.117 24.36 141.557 24.36C137.981 24.36 135.653 22.104 135.653 18.576C135.653 16.776 136.181 15.336 137.261 14.232C138.341 13.128 139.709 12.576 141.365 12.576C144.269 12.576 145.925 14.304 145.925 17.064C145.925 17.76 145.853 18.384 145.685 18.912L138.437 19.008ZM138.509 17.352L143.261 17.328V17.136C143.261 15.528 142.565 14.712 141.149 14.712C139.661 14.712 138.677 15.864 138.509 17.352ZM151.11 17.16V24H148.278V13.008L151.11 12.6V14.4C151.83 13.176 152.79 12.576 153.99 12.576C154.734 12.576 155.406 12.744 155.958 13.08L155.334 15.624C154.806 15.336 154.278 15.192 153.75 15.192C152.718 15.192 151.83 15.84 151.11 17.16ZM163.416 22.728H163.32C162.432 23.808 161.376 24.36 160.2 24.36C158.208 24.36 156.768 23.016 156.768 21.24C156.768 18.768 158.952 17.448 163.32 17.304V17.04C163.32 15.528 162.696 14.928 161.112 14.928C160.032 14.928 158.808 15.312 157.44 16.104L156.864 13.872C158.256 13.008 159.792 12.576 161.496 12.576C164.88 12.576 166.224 14.016 166.152 17.136V21.096C166.152 21.936 166.272 22.032 167.136 22.104L166.92 24.24C165.024 24.456 163.872 23.952 163.416 22.728ZM163.32 21.336V18.792C160.56 19.152 159.552 19.656 159.552 20.856C159.552 21.72 160.2 22.296 161.208 22.296C162.024 22.296 162.72 21.984 163.32 21.336ZM177.995 23.448C176.987 24.048 175.715 24.36 174.155 24.36C170.555 24.36 168.419 22.176 168.419 18.504C168.419 14.904 170.747 12.576 174.251 12.576C175.739 12.576 177.011 12.888 178.067 13.512L177.467 15.792C176.531 15.192 175.523 14.904 174.467 14.904C172.451 14.904 171.323 16.248 171.323 18.432C171.323 20.688 172.571 22.008 174.467 22.008C175.619 22.008 176.651 21.72 177.539 21.144L177.995 23.448ZM190.252 12.936L186.028 23.784L185.38 25.512C184.276 28.464 183.1 29.448 180.988 29.448C180.052 29.448 179.116 29.232 178.18 28.8L179.02 26.472C179.764 26.832 180.34 27 180.772 27C181.612 27 182.044 26.616 182.62 25.128L183.1 23.856L178.78 12.936H181.828L184.588 20.856L187.228 12.936H190.252Z" fill="#FBFBFB"/>
<rect y="63" width="336" height="11" rx="5.5" fill="#EC8539" fill-opacity="0.2"/>
<rect y="63" width="209" height="11" rx="5.5" fill="#EC8539"/>
<path d="M12.768 118.016C12.768 121.448 10.44 123.296 6.36 123.32L4.656 123.344V128H1.728V113H6.576C10.632 113 12.768 114.968 12.768 118.016ZM9.84 118.112C9.84 116.336 8.688 115.448 6.384 115.448H4.608V120.92L6.48 120.872C8.712 120.824 9.84 119.912 9.84 118.112ZM25.1378 128H22.3058V121.256C22.3058 119.672 21.7058 119.072 20.4578 119.072C19.4978 119.072 18.6578 119.408 17.9378 120.104V128H15.1058V111.968L17.9378 111.584V118.328C19.0178 117.152 20.2658 116.576 21.6818 116.576C23.8418 116.576 25.1378 118.016 25.1378 120.392V128ZM38.0021 116.936L33.7781 127.784L33.1301 129.512C32.0261 132.464 30.8501 133.448 28.7381 133.448C27.8021 133.448 26.8661 133.232 25.9301 132.8L26.7701 130.472C27.5141 130.832 28.0901 131 28.5221 131C29.3621 131 29.7941 130.616 30.3701 129.128L30.8501 127.856L26.5301 116.936H29.5781L32.3381 124.856L34.9781 116.936H38.0021ZM47.4973 124.784C47.4973 126.896 45.6973 128.384 42.8893 128.384C41.2333 128.384 39.8173 128.048 38.5933 127.352L39.2173 125.144C40.4413 125.84 41.6893 126.176 42.9613 126.176C44.0893 126.176 44.7853 125.72 44.7853 124.952C44.7853 124.136 44.0653 123.824 42.5533 123.464C40.1773 122.912 38.8093 122 38.8093 120.032C38.8093 117.944 40.5613 116.576 43.2253 116.576C44.7613 116.576 46.1053 116.864 47.2573 117.464L46.6333 119.672C45.4573 119.072 44.2813 118.76 43.1533 118.76C42.0493 118.76 41.4973 119.12 41.4973 119.864C41.4973 120.632 42.1933 120.92 43.7293 121.304C46.1533 121.88 47.4973 122.792 47.4973 124.784ZM52.9613 113.216C52.9613 114.272 52.3373 114.92 51.2093 114.92C50.1053 114.92 49.4813 114.272 49.4813 113.216C49.4813 112.184 50.1053 111.512 51.2093 111.512C52.3373 111.512 52.9613 112.184 52.9613 113.216ZM52.6253 128H49.7933V117.008L52.6253 116.6V128ZM64.5806 127.448C63.5726 128.048 62.3006 128.36 60.7406 128.36C57.1406 128.36 55.0046 126.176 55.0046 122.504C55.0046 118.904 57.3326 116.576 60.8366 116.576C62.3246 116.576 63.5966 116.888 64.6526 117.512L64.0526 119.792C63.1166 119.192 62.1086 118.904 61.0526 118.904C59.0366 118.904 57.9086 120.248 57.9086 122.432C57.9086 124.688 59.1566 126.008 61.0526 126.008C62.2046 126.008 63.2366 125.72 64.1246 125.144L64.5806 127.448ZM72.8301 126.728H72.7341C71.8461 127.808 70.7901 128.36 69.6141 128.36C67.6221 128.36 66.1821 127.016 66.1821 125.24C66.1821 122.768 68.3661 121.448 72.7341 121.304V121.04C72.7341 119.528 72.1101 118.928 70.5261 118.928C69.4461 118.928 68.2221 119.312 66.8541 120.104L66.2781 117.872C67.6701 117.008 69.2061 116.576 70.9101 116.576C74.2941 116.576 75.6381 118.016 75.5661 121.136V125.096C75.5661 125.936 75.6861 126.032 76.5501 126.104L76.3341 128.24C74.4381 128.456 73.2861 127.952 72.8301 126.728ZM72.7341 125.336V122.792C69.9741 123.152 68.9661 123.656 68.9661 124.856C68.9661 125.72 69.6141 126.296 70.6221 126.296C71.4381 126.296 72.1341 125.984 72.7341 125.336ZM81.3128 128V111.584L78.4808 111.968V128H81.3128ZM97.4091 113H93.8571L88.3851 128H91.3371L92.5611 124.448H98.6091L99.8571 128H102.809L97.4091 113ZM97.8651 122.024H93.3291L95.6091 115.52L97.8651 122.024ZM113.354 127.448C112.346 128.048 111.074 128.36 109.514 128.36C105.914 128.36 103.778 126.176 103.778 122.504C103.778 118.904 106.106 116.576 109.61 116.576C111.098 116.576 112.37 116.888 113.426 117.512L112.826 119.792C111.89 119.192 110.882 118.904 109.826 118.904C107.81 118.904 106.682 120.248 106.682 122.432C106.682 124.688 107.93 126.008 109.826 126.008C110.978 126.008 112.01 125.72 112.898 125.144L113.354 127.448ZM122.18 127.928C121.34 128.216 120.476 128.36 119.612 128.36C117.068 128.36 115.844 127.232 115.94 124.616L116.108 119.408L114.38 119.216L114.452 117.416L116.18 116.864L116.228 114.416H118.964L118.916 117.008H122.036L121.964 119.336H118.748L118.604 124.448C118.58 125.456 119.084 125.96 120.068 125.96C120.548 125.96 121.124 125.84 121.796 125.624L122.18 127.928ZM127.469 113.216C127.469 114.272 126.845 114.92 125.717 114.92C124.613 114.92 123.989 114.272 123.989 113.216C123.989 112.184 124.613 111.512 125.717 111.512C126.845 111.512 127.469 112.184 127.469 113.216ZM127.133 128H124.301V117.008L127.133 116.6V128ZM140.144 116.936H137.096L134.432 125.024L131.648 116.936H128.624L132.848 128.024H135.872L140.144 116.936ZM144.789 113.216C144.789 114.272 144.165 114.92 143.037 114.92C141.933 114.92 141.309 114.272 141.309 113.216C141.309 112.184 141.933 111.512 143.037 111.512C144.165 111.512 144.789 112.184 144.789 113.216ZM144.453 128H141.621V117.008L144.453 116.6V128ZM153.961 127.928C153.121 128.216 152.257 128.36 151.393 128.36C148.849 128.36 147.625 127.232 147.721 124.616L147.889 119.408L146.161 119.216L146.233 117.416L147.961 116.864L148.009 114.416H150.745L150.697 117.008H153.817L153.745 119.336H150.529L150.385 124.448C150.361 125.456 150.865 125.96 151.849 125.96C152.329 125.96 152.905 125.84 153.577 125.624L153.961 127.928ZM165.994 116.936L161.77 127.784L161.122 129.512C160.018 132.464 158.842 133.448 156.73 133.448C155.794 133.448 154.858 133.232 153.922 132.8L154.762 130.472C155.506 130.832 156.082 131 156.514 131C157.354 131 157.786 130.616 158.362 129.128L158.842 127.856L154.522 116.936H157.57L160.33 124.856L162.97 116.936H165.994Z" fill="#FBFBFB"/>
<rect y="166" width="336" height="12" rx="6" fill="#EC8539" fill-opacity="0.2"/>
<rect y="166" width="100.261" height="12" rx="6" fill="#EC8539"/>
<path d="M12.504 230.804L16.944 232.868L15.744 235.316L9.192 231.836C9.096 231.836 8.808 231.86 8.712 231.86C6.432 231.86 4.584 231.164 3.168 229.748C1.728 228.356 1.008 226.46 1.008 224.036C1.008 221.732 1.752 219.836 3.216 218.348C4.68 216.884 6.504 216.14 8.736 216.14C10.992 216.14 12.84 216.836 14.28 218.228C15.696 219.62 16.416 221.516 16.416 223.94C16.416 226.988 14.952 229.508 12.504 230.804ZM13.488 224.036C13.488 220.724 11.592 218.588 8.664 218.588C5.808 218.588 3.96 220.724 3.96 223.94C3.96 227.252 5.832 229.46 8.76 229.46C11.616 229.46 13.488 227.324 13.488 224.036ZM18.8301 220.436H21.6621V227.18C21.6621 228.764 22.2861 229.34 23.5341 229.34C24.4701 229.34 25.2861 229.028 25.9581 228.38V220.436H28.7901V231.428L25.9581 231.812V230.18C24.9261 231.308 23.7021 231.86 22.3101 231.86C20.1261 231.86 18.8301 230.42 18.8301 228.044V220.436ZM37.7207 230.228H37.6247C36.7367 231.308 35.6807 231.86 34.5047 231.86C32.5127 231.86 31.0727 230.516 31.0727 228.74C31.0727 226.268 33.2567 224.948 37.6247 224.804V224.54C37.6247 223.028 37.0007 222.428 35.4167 222.428C34.3367 222.428 33.1127 222.812 31.7447 223.604L31.1687 221.372C32.5607 220.508 34.0967 220.076 35.8007 220.076C39.1847 220.076 40.5287 221.516 40.4567 224.636V228.596C40.4567 229.436 40.5767 229.532 41.4407 229.604L41.2247 231.74C39.3287 231.956 38.1767 231.452 37.7207 230.228ZM37.6247 228.836V226.292C34.8647 226.652 33.8567 227.156 33.8567 228.356C33.8567 229.22 34.5047 229.796 35.5127 229.796C36.3287 229.796 37.0247 229.484 37.6247 228.836ZM46.2034 231.5V215.084L43.3714 215.468V231.5H46.2034ZM52.3988 216.716C52.3988 217.772 51.7748 218.42 50.6468 218.42C49.5428 218.42 48.9188 217.772 48.9188 216.716C48.9188 215.684 49.5428 215.012 50.6468 215.012C51.7748 215.012 52.3988 215.684 52.3988 216.716ZM52.0628 231.5H49.2308V220.508L52.0628 220.1V231.5ZM61.5701 231.428C60.7301 231.716 59.8661 231.86 59.0021 231.86C56.4581 231.86 55.2341 230.732 55.3301 228.116L55.4981 222.908L53.7701 222.716L53.8421 220.916L55.5701 220.364L55.6181 217.916H58.3541L58.3061 220.508H61.4261L61.3541 222.836H58.1381L57.9941 227.948C57.9701 228.956 58.4741 229.46 59.4581 229.46C59.9381 229.46 60.5141 229.34 61.1861 229.124L61.5701 231.428ZM73.6037 220.436L69.3797 231.284L68.7317 233.012C67.6277 235.964 66.4517 236.948 64.3397 236.948C63.4037 236.948 62.4677 236.732 61.5317 236.3L62.3717 233.972C63.1157 234.332 63.6917 234.5 64.1237 234.5C64.9637 234.5 65.3957 234.116 65.9717 232.628L66.4517 231.356L62.1317 220.436H65.1797L67.9397 228.356L70.5797 220.436H73.6037ZM91.1998 225.956C91.1998 227.732 90.6478 229.148 89.5678 230.228C88.4878 231.308 87.1198 231.86 85.4638 231.86C83.8078 231.86 82.4638 231.332 81.4318 230.276C80.3998 229.22 79.8718 227.78 79.8718 225.98C79.8718 224.18 80.4238 222.74 81.5038 221.66C82.5838 220.58 83.9518 220.052 85.6078 220.052C88.9198 220.052 91.1998 222.332 91.1998 225.956ZM85.5598 229.556C86.4478 229.556 87.1438 229.22 87.6478 228.572C88.1518 227.924 88.3918 227.06 88.3918 225.98C88.3918 224.9 88.1278 224.012 87.6238 223.34C87.1198 222.668 86.3998 222.332 85.5118 222.332C83.6878 222.332 82.6558 223.772 82.6558 225.956C82.6558 228.116 83.7358 229.556 85.5598 229.556ZM100.703 215.348L100.655 215.612C100.607 215.78 100.559 215.972 100.511 216.212C100.439 216.452 100.391 216.692 100.319 216.932C100.247 217.172 100.199 217.364 100.175 217.532L100.103 217.772C99.4305 217.46 98.8305 217.316 98.3025 217.316C97.2705 217.316 96.8385 217.892 96.8385 219.284V220.508H100.127L100.055 222.836H96.9105V231.5H94.0785V222.86L92.1585 222.716L92.2545 220.916L94.0545 220.388L94.0785 219.212C94.1505 216.26 95.4705 214.796 98.0865 214.796C98.9745 214.796 99.8625 214.988 100.703 215.348ZM120.438 231.5V216.5H117.534V222.668H110.406V216.5H107.478V231.5H110.406V225.212H117.534V231.5H120.438ZM125.828 226.508V226.58C125.948 228.404 127.172 229.604 129.14 229.604C130.364 229.604 131.516 229.268 132.596 228.596L132.956 230.948C131.828 231.548 130.508 231.86 128.948 231.86C125.372 231.86 123.044 229.604 123.044 226.076C123.044 224.276 123.572 222.836 124.652 221.732C125.732 220.628 127.1 220.076 128.756 220.076C131.66 220.076 133.316 221.804 133.316 224.564C133.316 225.26 133.244 225.884 133.076 226.412L125.828 226.508ZM125.9 224.852L130.652 224.828V224.636C130.652 223.028 129.956 222.212 128.54 222.212C127.052 222.212 126.068 223.364 125.9 224.852ZM141.572 230.228H141.476C140.588 231.308 139.532 231.86 138.356 231.86C136.364 231.86 134.924 230.516 134.924 228.74C134.924 226.268 137.108 224.948 141.476 224.804V224.54C141.476 223.028 140.852 222.428 139.268 222.428C138.188 222.428 136.964 222.812 135.596 223.604L135.02 221.372C136.412 220.508 137.948 220.076 139.652 220.076C143.036 220.076 144.38 221.516 144.308 224.636V228.596C144.308 229.436 144.428 229.532 145.292 229.604L145.076 231.74C143.18 231.956 142.028 231.452 141.572 230.228ZM141.476 228.836V226.292C138.716 226.652 137.708 227.156 137.708 228.356C137.708 229.22 138.356 229.796 139.364 229.796C140.18 229.796 140.876 229.484 141.476 228.836ZM150.055 231.5V215.084L147.223 215.468V231.5H150.055ZM159.562 231.428C158.722 231.716 157.858 231.86 156.994 231.86C154.45 231.86 153.226 230.732 153.322 228.116L153.49 222.908L151.762 222.716L151.834 220.916L153.562 220.364L153.61 217.916H156.346L156.298 220.508H159.418L159.346 222.836H156.13L155.986 227.948C155.962 228.956 156.466 229.46 157.45 229.46C157.93 229.46 158.506 229.34 159.178 229.124L159.562 231.428ZM171.716 231.5H168.884V224.756C168.884 223.172 168.284 222.572 167.036 222.572C166.076 222.572 165.236 222.908 164.516 223.604V231.5H161.684V215.468L164.516 215.084V221.828C165.596 220.652 166.844 220.076 168.26 220.076C170.42 220.076 171.716 221.516 171.716 223.892V231.5Z" fill="#FBFBFB"/>
<rect y="271" width="336" height="12" rx="6" fill="#EC8539" fill-opacity="0.2"/>
<rect y="271" width="273.437" height="12" rx="6" fill="#EC8539"/>
<circle cx="209" cy="68.5" r="10" fill="#FBFBFB"/>
<circle cx="97.7617" cy="172" r="10" fill="#FBFBFB"/>
<circle cx="271.697" cy="277" r="10" fill="#FBFBFB"/>
</svg>
