<svg fill="none" height="100" viewBox="0 0 100 100" width="100" xmlns="http://www.w3.org/2000/svg"><path d="m49.5.00000006c4.0669-.00034087 7.9798 1.57105994 10.9363 4.39197994 2.9566 2.82092 4.7327 6.67752 4.9642 10.77912l.0245.9157.0049 39.3606.392.3416c4.5663 4.1125 7.4406 9.8047 8.0556 15.9531l.0931 1.2474.0294 1.2572c.0007 4.0777-.996 8.0924-2.9015 11.6872-1.9056 3.5948-4.6609 6.6582-8.021 8.918s-7.2209 3.6459-11.2392 4.0351-8.0695-.2306-11.7934-1.8043c-3.724-1.5737-7.0053-4.0525-9.5523-7.216s-4.2808-6.9138-5.0471-10.9173c-.7663-4.0036-.5415-8.1364.6546-12.031 1.196-3.8946 3.3261-7.4304 6.2009-10.2929l.882-.8415.3871-.3366.0049-39.3606c-.0008-3.9534 1.4395-7.76862 4.0461-10.71755 2.6065-2.94893 6.1968-4.825045 10.0855-5.2702544l.8918-.0742461zm0 7.42466994c-2.1528.00018-4.2268.81835-5.81 2.29199-1.5831 1.47364-2.5597 3.49494-2.7356 5.66234l-.0294.7078v43.0334l-1.5141 1.1137c-2.8928 2.1256-5.0552 5.1117-6.1846 8.5404s-1.1691 7.1283-.1137 10.5809 3.1531 6.4855 5.9996 8.674c2.8464 2.1885 6.2991 3.4232 9.8746 3.5311 3.5756.108 7.0951-.9162 10.0658-2.9291 2.9708-2.0129 5.244-4.9138 6.5017-8.2966 1.2576-3.3828 1.4366-7.0782.512-10.5689-.9247-3.4907-2.9067-6.6019-5.6687-8.8982l-.8085-.6287-1.5043-1.1137-.0098-43.0383c0-2.2973-.9034-4.5006-2.5116-6.12505-1.6081-1.62446-3.7892-2.53708-6.0634-2.53708zm0 22.27403c.9747 0 1.9094.3911 2.5986 1.0873s1.0764 1.6404 1.0764 2.625v29.0305c2.7933.887 5.1799 2.7549 6.7277 5.2657 1.5478 2.5107 2.1545 5.4983 1.7104 8.4219-.4442 2.9235-1.9099 5.5898-4.1319 7.5161-2.2219 1.9263-5.0532 2.9854-7.9812 2.9854s-5.7593-1.0591-7.9812-2.9854c-2.222-1.9263-3.6877-4.5926-4.1319-7.5161-.4441-2.9236.1626-5.9112 1.7104-8.4219 1.5478-2.5108 3.9344-4.3787 6.7277-5.2657v-29.0305c0-.9846.3872-1.9288 1.0764-2.625s1.6239-1.0873 2.5986-1.0873z" fill="#ec8539"/></svg>