<svg fill="none" height="100" viewBox="0 0 100 100" width="100" xmlns="http://www.w3.org/2000/svg"><path d="m69.9474 47.619c6.9096 0 13.5361 2.7594 18.422 7.6711 4.8858 4.9116 7.6306 11.5733 7.6306 18.5194 0 6.9462-2.7448 13.6078-7.6306 18.5195-4.8859 4.9117-11.5124 7.671-18.422 7.671s-13.5362-2.7593-18.422-7.671-7.6307-11.5733-7.6307-18.5195c0-6.9461 2.7449-13.6078 7.6307-18.5194 4.8858-4.9117 11.5124-7.6711 18.422-7.6711zm-17.7632-47.619c2.8267 0 5.5375 1.12882 7.5363 3.13814 1.9987 2.00932 3.1216 4.73454 3.1216 7.57616v32.9714c-2.4689.5859-4.8557 1.4785-7.1053 2.6572v-35.6286c0-.94722-.3743-1.85562-1.0405-2.5254-.6662-.66977-1.5699-1.04604-2.5121-1.04604h-35.5263c-.9422 0-1.8458.37627-2.5121 1.04604-.6662.66978-1.0405 1.57818-1.0405 2.5254v73.8095c0 1.9714 1.5915 3.5714 3.5526 3.5714l25.9721.0048c1.3595 2.6238 3.0837 5.0286 5.1016 7.1429l-31.0737-.0048c-2.8267 0-5.5375-1.1288-7.53627-3.1381-1.99875-2.0094-3.12163-4.7346-3.12163-7.5762v-73.8095c0-2.84162 1.12288-5.56684 3.12163-7.57616 1.99877-2.00932 4.70957-3.13814 7.53627-3.13814zm-23.6889 73.8286 10.6626-.0238c0 2.4619.2842 4.8571.8242 7.1428l-11.4774.0238c-.9422.0013-1.8463-.3738-2.5134-1.0426-.6672-.6689-1.0427-1.5768-1.0439-2.524-.0013-.9472.3718-1.8562 1.0372-2.5268.6653-.6707 1.5684-1.0482 2.5107-1.0494zm36.7152-16.6857c-.6281 0-1.2305.2508-1.6747.6973s-.6937 1.0521-.6937 1.6836v19.0476c0 .6315.2495 1.2371.6937 1.6836s1.0466.6974 1.6747.6974h14.22c.6282 0 1.2306-.2509 1.6748-.6974.4441-.4465.6937-1.0521.6937-1.6836 0-.6314-.2496-1.237-.6937-1.6836-.4442-.4465-1.0466-.6973-1.6748-.6973h-11.8516v-16.6667c0-.6315-.2495-1.2371-.6936-1.6836-.4442-.4465-1.0466-.6973-1.6748-.6973z" fill="#ec8539"/></svg>