<svg fill="none" height="100" viewBox="0 0 100 100" width="100" xmlns="http://www.w3.org/2000/svg"><g fill="#ec8539"><path d="m53.1552 6.26756c-1.05-.07783-2.1024-.11681-3.1552-.11687v-6.15069c1.2041.00058941 2.4077.0457251 3.6085.135315zm12.2775 2.76781c-1.9638-.76082-3.9808-1.3755-6.0346-1.83906l1.3417-6.00308c2.3465.52896 4.6562 1.23014 6.8985 2.10354zm8.3934 4.36703c-.876-.5865-1.7731-1.1405-2.6896-1.6607l3.0204-5.35113c2.0947 1.19161 4.0994 2.53607 5.9979 4.02253l-3.7678 4.8529c-.8306-.6505-1.6848-1.2701-2.5609-1.8575zm11.236 11.0097c-1.2118-1.7285-2.549-3.3649-4.0006-4.896l4.4356-4.2439c1.6542 1.7529 3.1858 3.6289 4.5765 5.5971zm4.5582 8.3157c-.4022-.9751-.8395-1.9353-1.3111-2.8785l5.471-2.7678c1.0819 2.1594 2.0034 4.3962 2.7569 6.692l-5.8202 1.9251c-.3292-1.0034-.695-1.9943-1.0966-2.9708zm3.247 15.4198c-.0495-2.1137-.2543-4.2209-.6126-6.3044l6.0346-1.0457c.4105 2.3742.6494 4.7853.7107 7.1963l-6.1265.1538zm-.8025 9.4598c.2021-1.0456.3676-2.0851.4962-3.1369l6.0837.7566c-.2943 2.3997-.7653 4.7742-1.4091 7.104l-5.906-1.6422c.2818-1.0149.5269-2.0421.7352-3.0815zm-5.8325 14.6325c1.1273-1.7837 2.1198-3.6535 2.9775-5.5849l5.5997 2.4911c-.9803 2.2142-2.1137 4.3424-3.4003 6.3844zm-5.906 7.4116c.7475-.7504 1.4643-1.5254 2.1443-2.325l4.6439 4.0164c-.7864.9154-1.6059 1.8017-2.4567 2.6571z"/><path d="m50.2135 6.18673c-7.0786.00051-14.0478 1.75732-20.2903 5.11477-6.2426 3.3575-11.5658 8.2121-15.4982 14.1337s-6.3526 12.7275-7.04623 19.8149c-.69364 7.0874.36069 14.2375 3.06963 20.817 2.7089 6.5796 6.9888 12.3854 12.4606 16.9034s11.9666 7.6086 18.9091 8.9981 14.1185 1.035 20.8923-1.032c6.7739-2.0671 12.9365-5.783 17.9421-10.8185l4.3475 4.374c-5.7205 5.7585-12.7644 10.0085-20.5076 12.3735-7.7433 2.3649-15.9468 2.7718-23.8837 1.1846s-15.3622-5.1195-21.6179-10.2839-11.14874-11.8015-14.24553-19.3232c-3.09678-7.5217-4.301718-15.6958-3.50804-23.798.79367-8.1022 3.56145-15.8824 8.0581-22.6512 4.49667-6.7688 10.58337-12.31717 17.72077-16.15361s15.1052-5.84244751 23.1974-5.84028826z"/><path d="m47.1182 18c.827 0 1.6202.3287 2.2049.9138.5848.585.9134 1.3786.9134 2.206v32.5083l20.256 11.5807c.6972.4208 1.2022 1.0978 1.4071 1.8862s.0935 1.6257-.3105 2.333c-.4039.7073-1.0684 1.2285-1.8513 1.4521-.783.2237-1.6223.132-2.3386-.2553l-21.8276-12.4792c-.4773-.2728-.874-.6669-1.15-1.1424-.276-.4756-.4214-1.0157-.4216-1.5656v-34.3178c0-.8274.3285-1.621.9133-2.206.5848-.5851 1.3779-.9138 2.2049-.9138z"/></g></svg>