<svg fill="none" height="100" viewBox="0 0 101 100" width="101" xmlns="http://www.w3.org/2000/svg"><path d="m95.95 44.8716h-19.897c-.3519-.0485-.7086-.0485-1.0605 0h-.8585c-.2639.1529-.517.3241-.7575.5126-.2812.1884-.551.3938-.808.615-.1686.2096-.3206.4324-.4545.6663-.2314.3229-.4342.6659-.606 1.0251l-8.08 22.6029-21.0585-57.9168c-.3538-.9894-.9993-1.8443-1.8486-2.44846-.8493-.60415-1.8613-.92824-2.8984-.92824s-2.0491.32409-2.8984.92824c-.8493.60416-1.4948 1.45906-1.8486 2.44846l-11.6655 32.4949h-16.16c-1.33934 0-2.62383.54-3.57089 1.5012-.947058.9612-1.47911 2.2649-1.47911 3.6242s.532052 2.663 1.47911 3.6242c.94706.9612 2.23155 1.5012 3.57089 1.5012h21.715c.287-.1403.558-.3122.808-.5126.2812-.1884.551-.3938.808-.615l.4545-.6663c.2407-.3166.4441-.6606.606-1.0251l8.181-23.2179 21.008 58.5318c.3529.9905.9979 1.8467 1.8473 2.452s1.8619.9302 2.8997.9307c1.0378-.0005 2.0504-.3254 2.8997-.9307.8494-.6053 1.4944-1.4615 1.8473-2.452l11.615-32.4949h16.2105c1.3393 0 2.6238-.54 3.5709-1.5012s1.4791-2.2649 1.4791-3.6242-.532-2.663-1.4791-3.6242-2.2316-1.5012-3.5709-1.5012z" fill="#ec8539"/></svg>