<svg fill="none" height="100" viewBox="0 0 100 100" width="100" xmlns="http://www.w3.org/2000/svg"><path d="m99 49.5c0-27.3364-21.9399-49.5-48.9979-49.5-27.0581 0-49.0021 22.1636-49.0021 49.5s21.9399 49.5 49.0021 49.5c8.2995 0 16.1128-2.0955 22.9659-5.775 2.555 1.4603 5.5139 2.3018 8.6746 2.3018 9.5853 0 17.3574-7.6932 17.3574-17.1807 0-3.9022-1.3146-7.4992-3.5316-10.3826 2.2747-5.7049 3.5316-11.9377 3.5316-18.4635zm-88.1963.0206c0-22.473 17.5923-40.68897 39.2931-40.68897 21.7009 0 39.2932 18.21597 39.2932 40.68897 0 4.4138-.6841 8.6584-1.941 12.6349-1.8643-.6554-3.8263-.9888-5.8023-.9859-9.5853 0-17.3574 7.6931-17.3574 17.1806 0 2.97.7624 5.7627 2.1017 8.2006-5.0911 2.4162-10.6557 3.6674-16.29 3.663-21.705-.0042-39.2973-18.2243-39.2973-40.6932zm70.843 40.689c-6.2391.0866-11.7034-5.2264-11.6169-11.5005 0-6.3525 5.2006-11.5005 11.6169-11.5005 6.2103-.1031 11.7159 5.2388 11.617 11.5005 0 6.3525-5.2048 11.5005-11.617 11.5005z" fill="#ec8539"/></svg>