<svg fill="none" height="123" viewBox="0 0 427 123" width="427" xmlns="http://www.w3.org/2000/svg"><path d="m134.675 108.145h-1.95l-.705 2.94h2.01v.81h-2.205l-.75 3.105h-.87l.765-3.105h-2.835l-.75 3.105h-.87l.78-3.105h-1.695v-.81h1.875l.72-2.94h-1.965v-.765h2.16l.72-3.03h.87l-.75 3.03h2.835l.735-3.03h.87l-.75 3.03h1.755zm-3.51 2.94.72-2.94h-2.85l-.705 2.94zm12.594 2.985v.93h-7.155v-10.65h7.02v.93h-5.985v3.84h5.22v.885h-5.22v4.065zm2.044.93v-10.65h3.6c.85 0 1.595.14 2.235.42s1.17.66 1.59 1.14c.43.48.75 1.045.96 1.695.21.64.315 1.325.315 2.055 0 .81-.12 1.545-.36 2.205-.24.65-.58 1.21-1.02 1.68-.44.46-.975.82-1.605 1.08-.63.25-1.335.375-2.115.375zm7.65-5.34c0-.64-.09-1.225-.27-1.755-.18-.54-.445-1.005-.795-1.395-.34-.39-.76-.69-1.26-.9-.5-.22-1.075-.33-1.725-.33h-2.565v8.79h2.565c.66 0 1.24-.11 1.74-.33.51-.23.935-.54 1.275-.93.34-.4.595-.865.765-1.395.18-.54.27-1.125.27-1.755zm2.532 5.34c0-.37.03-.73.09-1.08.07-.36.195-.705.375-1.035.19-.33.445-.645.765-.945.33-.31.75-.6 1.26-.87.27-.14.56-.28.87-.42.32-.15.615-.315.885-.495s.49-.38.66-.6c.18-.22.27-.48.27-.78 0-.19-.045-.38-.135-.57-.08-.19-.205-.36-.375-.51-.16-.15-.365-.27-.615-.36-.24-.09-.52-.135-.84-.135-.33 0-.63.05-.9.15-.26.09-.49.2-.69.33s-.37.27-.51.42c-.13.14-.23.255-.3.345l-.675-.735c.06-.06.175-.17.345-.33s.39-.32.66-.48c.28-.16.605-.3.975-.42.38-.13.805-.195 1.275-.195.45 0 .85.065 1.2.195.36.12.665.29.915.51s.44.475.57.765c.13.28.195.58.195.9 0 .42-.1.785-.3 1.095-.19.3-.425.56-.705.78s-.57.4-.87.54c-.29.14-.53.255-.72.345-.45.2-.825.395-1.125.585s-.545.385-.735.585-.335.42-.435.66c-.09.24-.155.515-.195.825h5.25v.93zm12.558 1.905v-2.67h-5.01v-.9l5.325-6.9h.705v6.87h1.32v.93h-1.32v2.67zm-3.93-3.6h4.02v-5.265zm7.5 1.695c0-.37.03-.73.09-1.08.07-.36.195-.705.375-1.035.19-.33.445-.645.765-.945.33-.31.75-.6 1.26-.87.27-.14.56-.28.87-.42.32-.15.615-.315.885-.495s.49-.38.66-.6c.18-.22.27-.48.27-.78 0-.19-.045-.38-.135-.57-.08-.19-.205-.36-.375-.51-.16-.15-.365-.27-.615-.36-.24-.09-.52-.135-.84-.135-.33 0-.63.05-.9.15-.26.09-.49.2-.69.33s-.37.27-.51.42c-.13.14-.23.255-.3.345l-.675-.735c.06-.06.175-.17.345-.33s.39-.32.66-.48c.28-.16.605-.3.975-.42.38-.13.805-.195 1.275-.195.45 0 .85.065 1.2.195.36.12.665.29.915.51s.44.475.57.765c.13.28.195.58.195.9 0 .42-.1.785-.3 1.095-.19.3-.425.56-.705.78s-.57.4-.87.54c-.29.14-.53.255-.72.345-.45.2-.825.395-1.125.585s-.545.385-.735.585-.335.42-.435.66c-.09.24-.155.515-.195.825h5.25v.93zm12.558 1.905v-2.67h-5.01v-.9l5.325-6.9h.705v6.87h1.32v.93h-1.32v2.67zm-3.93-3.6h4.02v-5.265z" fill="#fff"/><rect fill="#ed2424" height="88" rx="15" width="88" x="113"/><path d="m22.675 108.145h-1.95l-.705 2.94h2.01v.81h-2.205l-.75 3.105h-.87l.765-3.105h-2.835l-.75 3.105h-.87l.78-3.105h-1.695v-.81h1.875l.72-2.94h-1.965v-.765h2.16l.72-3.03h.87l-.75 3.03h2.835l.735-3.03h.87l-.75 3.03h1.755zm-3.51 2.94.72-2.94h-2.85l-.705 2.94zm13.4339 1.17c0 .4-.08.77-.24 1.11-.16.33-.375.62-.645.87-.27.24-.585.43-.945.57-.36.13-.745.195-1.155.195h-5.01v-10.65h5.115c.37 0 .705.08 1.005.24s.555.37.765.63c.21.25.37.54.48.87.12.32.18.645.18.975 0 .54-.135 1.035-.405 1.485-.27.44-.645.77-1.125.99.61.18 1.09.515 1.44 1.005.36.49.54 1.06.54 1.71zm-1.05-.18c0-.26-.045-.51-.135-.75-.09-.25-.22-.465-.39-.645-.16-.19-.355-.34-.585-.45-.22-.12-.46-.18-.72-.18h-4.08v4.035h3.975c.27 0 .525-.055.765-.165s.445-.255.615-.435c.17-.19.305-.405.405-.645.1-.25.15-.505.15-.765zm-5.91-6.81v3.93h3.66c.26 0 .5-.055.72-.165.23-.11.425-.255.585-.435.17-.18.3-.385.39-.615.09-.24.135-.49.135-.75 0-.27-.045-.525-.135-.765-.08-.24-.2-.445-.36-.615-.15-.18-.335-.32-.555-.42-.21-.11-.44-.165-.69-.165zm8.2045 4.83c0-.51.095-.985.285-1.425.2-.45.465-.84.795-1.17.34-.33.74-.59 1.2-.78s.955-.285 1.485-.285c.56 0 1.075.105 1.545.315.47.2.87.49 1.2.87.34.38.605.85.795 1.41.19.55.285 1.17.285 1.86 0 1.08-.095 2.025-.285 2.835-.19.8-.46 1.465-.81 1.995-.34.54-.75.94-1.23 1.2s-1.015.39-1.605.39c-.7 0-1.33-.175-1.89-.525s-.985-.835-1.275-1.455l.66-.6c.2.51.53.915.99 1.215.46.31.97.465 1.53.465.44 0 .84-.105 1.2-.315s.665-.515.915-.915c.26-.39.46-.87.6-1.44.15-.58.225-1.24.225-1.98-.22.59-.6 1.06-1.14 1.41-.53.35-1.135.525-1.815.525-.51 0-.99-.09-1.44-.27-.44-.19-.825-.445-1.155-.765-.33-.33-.59-.715-.78-1.155s-.285-.91-.285-1.41zm3.75-2.76c-.38 0-.74.075-1.08.225-.33.14-.625.335-.885.585-.25.25-.45.545-.6.885-.14.33-.21.685-.21 1.065s.075.74.225 1.08c.15.33.35.62.6.87s.54.45.87.6c.34.14.7.21 1.08.21s.74-.07 1.08-.21c.34-.15.635-.35.885-.6.26-.25.46-.54.6-.87.15-.34.225-.7.225-1.08 0-.37-.075-.72-.225-1.05-.15-.34-.355-.635-.615-.885-.25-.26-.545-.46-.885-.6-.33-.15-.685-.225-1.065-.225zm5.863 7.665v-10.65h3.6c.85 0 1.595.14 2.235.42s1.17.66 1.59 1.14c.43.48.75 1.045.96 1.695.21.64.315 1.325.315 2.055 0 .81-.12 1.545-.36 2.205-.24.65-.58 1.21-1.02 1.68-.44.46-.975.82-1.605 1.08-.63.25-1.335.375-2.115.375zm7.65-5.34c0-.64-.09-1.225-.27-1.755-.18-.54-.445-1.005-.795-1.395-.34-.39-.76-.69-1.26-.9-.5-.22-1.075-.33-1.725-.33h-2.565v8.79h2.565c.66 0 1.24-.11 1.74-.33.51-.23.935-.54 1.275-.93.34-.4.595-.865.765-1.395.18-.54.27-1.125.27-1.755zm10.1516.945c0 .66-.095 1.27-.285 1.83-.19.55-.455 1.03-.795 1.44-.33.4-.725.715-1.185.945-.46.22-.96.33-1.5.33s-1.04-.11-1.5-.33c-.46-.23-.86-.545-1.2-.945-.33-.41-.59-.89-.78-1.44-.19-.56-.285-1.17-.285-1.83s.095-1.265.285-1.815c.19-.56.45-1.04.78-1.44.34-.41.74-.73 1.2-.96s.96-.345 1.5-.345 1.04.115 1.5.345.855.55 1.185.96c.34.4.605.88.795 1.44.19.55.285 1.155.285 1.815zm-1.035 0c0-.54-.07-1.03-.21-1.47-.13-.44-.315-.815-.555-1.125-.24-.32-.53-.565-.87-.735-.33-.18-.695-.27-1.095-.27-.41 0-.785.09-1.125.27-.33.17-.615.415-.855.735-.24.31-.43.685-.57 1.125-.13.44-.195.93-.195 1.47s.065 1.03.195 1.47c.14.44.33.82.57 1.14.24.31.525.55.855.72.34.17.715.255 1.125.255.4 0 .765-.085 1.095-.255.34-.17.63-.41.87-.72.24-.32.425-.7.555-1.14.14-.44.21-.93.21-1.47zm6.0786-.285c.49 0 .945.085 1.365.255.42.16.785.39 1.095.69.32.3.57.66.75 1.08.18.41.27.865.27 1.365 0 .53-.1 1.01-.3 1.44-.19.44-.455.81-.795 1.11-.33.31-.72.55-1.17.72s-.93.255-1.44.255c-.38 0-.745-.05-1.095-.15-.34-.09-.655-.225-.945-.405s-.555-.395-.795-.645c-.23-.25-.42-.53-.57-.84l.675-.51c.28.49.66.885 1.14 1.185.49.3 1.025.45 1.605.45.37 0 .715-.065 1.035-.195.32-.12.6-.295.84-.525s.425-.505.555-.825c.14-.32.21-.67.21-1.05 0-.37-.065-.705-.195-1.005-.13-.31-.31-.575-.54-.795s-.5-.39-.81-.51c-.3-.12-.63-.18-.99-.18-.48 0-.93.105-1.35.315-.41.2-.745.495-1.005.885h-.945c.01-.06.035-.195.075-.405s.09-.46.15-.75.125-.61.195-.96c.07-.36.14-.72.21-1.08.17-.84.355-1.775.555-2.805h5.145v.945h-4.38l-.735 3.825c.26-.28.575-.495.945-.645.38-.16.795-.24 1.245-.24zm9.2217 1.14c.66.11 1.185.41 1.575.9.4.49.6 1.095.6 1.815 0 .45-.085.86-.255 1.23-.16.38-.395.7-.705.96-.3.27-.665.475-1.095.615-.42.15-.89.225-1.41.225-.76 0-1.425-.155-1.995-.465-.57-.3-1-.72-1.29-1.26l.705-.645c.21.44.53.79.96 1.05s.97.39 1.62.39c.75 0 1.34-.185 1.77-.555.43-.36.645-.88.645-1.56 0-.69-.225-1.235-.675-1.635s-1.1-.6-1.95-.6h-.375v-.87h.405c.77 0 1.36-.18 1.77-.54s.615-.825.615-1.395c0-.3-.055-.56-.165-.78-.11-.23-.265-.42-.465-.57-.19-.16-.42-.28-.69-.36-.26-.08-.545-.12-.855-.12-.57 0-1.075.13-1.515.39-.43.25-.755.6-.975 1.05l-.66-.63c.12-.26.29-.495.51-.705.22-.22.47-.405.75-.555s.59-.265.93-.345c.34-.09.69-.135 1.05-.135.46 0 .88.065 1.26.195.39.13.725.315 1.005.555.28.23.495.51.645.84.16.33.24.695.24 1.095 0 .3-.045.59-.135.87-.09.27-.22.515-.39.735-.17.21-.38.39-.63.54-.24.14-.515.23-.825.27z" fill="#fff"/><rect fill="#b9d053" height="88" rx="15" width="88"/><path d="m362.675 108.145h-1.95l-.705 2.94h2.01v.81h-2.205l-.75 3.105h-.87l.765-3.105h-2.835l-.75 3.105h-.87l.78-3.105h-1.695v-.81h1.875l.72-2.94h-1.965v-.765h2.16l.72-3.03h.87l-.75 3.03h2.835l.735-3.03h.87l-.75 3.03h1.755zm-3.51 2.94.72-2.94h-2.85l-.705 2.94zm4.854 3.915c0-.37.03-.73.09-1.08.07-.36.195-.705.375-1.035.19-.33.445-.645.765-.945.33-.31.75-.6 1.26-.87.27-.14.56-.28.87-.42.32-.15.615-.315.885-.495s.49-.38.66-.6c.18-.22.27-.48.27-.78 0-.19-.045-.38-.135-.57-.08-.19-.205-.36-.375-.51-.16-.15-.365-.27-.615-.36-.24-.09-.52-.135-.84-.135-.33 0-.63.05-.9.15-.26.09-.49.2-.69.33s-.37.27-.51.42c-.13.14-.23.255-.3.345l-.675-.735c.06-.06.175-.17.345-.33s.39-.32.66-.48c.28-.16.605-.3.975-.42.38-.13.805-.195 1.275-.195.45 0 .85.065 1.2.195.36.12.665.29.915.51s.44.475.57.765c.13.28.195.58.195.9 0 .42-.1.785-.3 1.095-.19.3-.425.56-.705.78s-.57.4-.87.54c-.29.14-.53.255-.72.345-.45.2-.825.395-1.125.585s-.545.385-.735.585-.335.42-.435.66c-.09.24-.155.515-.195.825h5.25v.93zm12.558 1.905v-2.67h-5.01v-.9l5.325-6.9h.705v6.87h1.32v.93h-1.32v2.67zm-3.93-3.6h4.02v-5.265zm7.5 1.695c0-.37.03-.73.09-1.08.07-.36.195-.705.375-1.035.19-.33.445-.645.765-.945.33-.31.75-.6 1.26-.87.27-.14.56-.28.87-.42.32-.15.615-.315.885-.495s.49-.38.66-.6c.18-.22.27-.48.27-.78 0-.19-.045-.38-.135-.57-.08-.19-.205-.36-.375-.51-.16-.15-.365-.27-.615-.36-.24-.09-.52-.135-.84-.135-.33 0-.63.05-.9.15-.26.09-.49.2-.69.33s-.37.27-.51.42c-.13.14-.23.255-.3.345l-.675-.735c.06-.06.175-.17.345-.33s.39-.32.66-.48c.28-.16.605-.3.975-.42.38-.13.805-.195 1.275-.195.45 0 .85.065 1.2.195.36.12.665.29.915.51s.44.475.57.765c.13.28.195.58.195.9 0 .42-.1.785-.3 1.095-.19.3-.425.56-.705.78s-.57.4-.87.54c-.29.14-.53.255-.72.345-.45.2-.825.395-1.125.585s-.545.385-.735.585-.335.42-.435.66c-.09.24-.155.515-.195.825h5.25v.93zm12.558 1.905v-2.67h-5.01v-.9l5.325-6.9h.705v6.87h1.32v.93h-1.32v2.67zm-3.93-3.6h4.02v-5.265zm7.5 1.695c0-.37.03-.73.09-1.08.07-.36.195-.705.375-1.035.19-.33.445-.645.765-.945.33-.31.75-.6 1.26-.87.27-.14.56-.28.87-.42.32-.15.615-.315.885-.495s.49-.38.66-.6c.18-.22.27-.48.27-.78 0-.19-.045-.38-.135-.57-.08-.19-.205-.36-.375-.51-.16-.15-.365-.27-.615-.36-.24-.09-.52-.135-.84-.135-.33 0-.63.05-.9.15-.26.09-.49.2-.69.33s-.37.27-.51.42c-.13.14-.23.255-.3.345l-.675-.735c.06-.06.175-.17.345-.33s.39-.32.66-.48c.28-.16.605-.3.975-.42.38-.13.805-.195 1.275-.195.45 0 .85.065 1.2.195.36.12.665.29.915.51s.44.475.57.765c.13.28.195.58.195.9 0 .42-.1.785-.3 1.095-.19.3-.425.56-.705.78s-.57.4-.87.54c-.29.14-.53.255-.72.345-.45.2-.825.395-1.125.585s-.545.385-.735.585-.335.42-.435.66c-.09.24-.155.515-.195.825h5.25v.93zm12.558 1.905v-2.67h-5.01v-.9l5.325-6.9h.705v6.87h1.32v.93h-1.32v2.67zm-3.93-3.6h4.02v-5.265z" fill="#fff"/><rect fill="#242424" height="86" rx="14" stroke="#fff" stroke-width="2" width="86" x="340" y="1"/><path d="m249.675 108.145h-1.95l-.705 2.94h2.01v.81h-2.205l-.75 3.105h-.87l.765-3.105h-2.835l-.75 3.105h-.87l.78-3.105h-1.695v-.81h1.875l.72-2.94h-1.965v-.765h2.16l.72-3.03h.87l-.75 3.03h2.835l.735-3.03h.87l-.75 3.03h1.755zm-3.51 2.94.72-2.94h-2.85l-.705 2.94zm5.439 3.915v-10.65h6.975v.93h-5.94v3.915h5.025v.87h-5.025v4.935zm7.823 0c0-.37.03-.73.09-1.08.07-.36.195-.705.375-1.035.19-.33.445-.645.765-.945.33-.31.75-.6 1.26-.87.27-.14.56-.28.87-.42.32-.15.615-.315.885-.495s.49-.38.66-.6c.18-.22.27-.48.27-.78 0-.19-.045-.38-.135-.57-.08-.19-.205-.36-.375-.51-.16-.15-.365-.27-.615-.36-.24-.09-.52-.135-.84-.135-.33 0-.63.05-.9.15-.26.09-.49.2-.69.33s-.37.27-.51.42c-.13.14-.23.255-.3.345l-.675-.735c.06-.06.175-.17.345-.33s.39-.32.66-.48c.28-.16.605-.3.975-.42.38-.13.805-.195 1.275-.195.45 0 .85.065 1.2.195.36.12.665.29.915.51s.44.475.57.765c.13.28.195.58.195.9 0 .42-.1.785-.3 1.095-.19.3-.425.56-.705.78s-.57.4-.87.54c-.29.14-.53.255-.72.345-.45.2-.825.395-1.125.585s-.545.385-.735.585-.335.42-.435.66c-.09.24-.155.515-.195.825h5.25v.93zm8.583 0v-10.65h6.975v.93h-5.94v3.915h5.025v.87h-5.025v4.935zm7.823 0c0-.37.03-.73.09-1.08.07-.36.195-.705.375-1.035.19-.33.445-.645.765-.945.33-.31.75-.6 1.26-.87.27-.14.56-.28.87-.42.32-.15.615-.315.885-.495s.49-.38.66-.6c.18-.22.27-.48.27-.78 0-.19-.045-.38-.135-.57-.08-.19-.205-.36-.375-.51-.16-.15-.365-.27-.615-.36-.24-.09-.52-.135-.84-.135-.33 0-.63.05-.9.15-.26.09-.49.2-.69.33s-.37.27-.51.42c-.13.14-.23.255-.3.345l-.675-.735c.06-.06.175-.17.345-.33s.39-.32.66-.48c.28-.16.605-.3.975-.42.38-.13.805-.195 1.275-.195.45 0 .85.065 1.2.195.36.12.665.29.915.51s.44.475.57.765c.13.28.195.58.195.9 0 .42-.1.785-.3 1.095-.19.3-.425.56-.705.78s-.57.4-.87.54c-.29.14-.53.255-.72.345-.45.2-.825.395-1.125.585s-.545.385-.735.585-.335.42-.435.66c-.09.24-.155.515-.195.825h5.25v.93zm8.583 0v-10.65h6.975v.93h-5.94v3.915h5.025v.87h-5.025v4.935zm7.824 0c0-.37.03-.73.09-1.08.07-.36.195-.705.375-1.035.19-.33.445-.645.765-.945.33-.31.75-.6 1.26-.87.27-.14.56-.28.87-.42.32-.15.615-.315.885-.495s.49-.38.66-.6c.18-.22.27-.48.27-.78 0-.19-.045-.38-.135-.57-.08-.19-.205-.36-.375-.51-.16-.15-.365-.27-.615-.36-.24-.09-.52-.135-.84-.135-.33 0-.63.05-.9.15-.26.09-.49.2-.69.33s-.37.27-.51.42c-.13.14-.23.255-.3.345l-.675-.735c.06-.06.175-.17.345-.33s.39-.32.66-.48c.28-.16.605-.3.975-.42.38-.13.805-.195 1.275-.195.45 0 .85.065 1.2.195.36.12.665.29.915.51s.44.475.57.765c.13.28.195.58.195.9 0 .42-.1.785-.3 1.095-.19.3-.425.56-.705.78s-.57.4-.87.54c-.29.14-.53.255-.72.345-.45.2-.825.395-1.125.585s-.545.385-.735.585-.335.42-.435.66c-.09.24-.155.515-.195.825h5.25v.93z" fill="#fff"/><rect fill="#f2f2f2" height="88" rx="15" width="88" x="226"/></svg>