<svg width="427" height="123" viewBox="0 0 427 123" fill="none" xmlns="http://www.w3.org/2000/svg">
<path d="M134.675 108.145H132.725L132.02 111.085H134.03V111.895H131.825L131.075 115H130.205L130.97 111.895H128.135L127.385 115H126.515L127.295 111.895H125.6V111.085H127.475L128.195 108.145H126.23V107.38H128.39L129.11 104.35H129.98L129.23 107.38H132.065L132.8 104.35H133.67L132.92 107.38H134.675V108.145ZM131.165 111.085L131.885 108.145H129.035L128.33 111.085H131.165ZM143.759 114.07V115H136.604V104.35H143.624V105.28H137.639V109.12H142.859V110.005H137.639V114.07H143.759ZM145.803 115V104.35H149.403C150.253 104.35 150.998 104.49 151.638 104.77C152.278 105.05 152.808 105.43 153.228 105.91C153.658 106.39 153.978 106.955 154.188 107.605C154.398 108.245 154.503 108.93 154.503 109.66C154.503 110.47 154.383 111.205 154.143 111.865C153.903 112.515 153.563 113.075 153.123 113.545C152.683 114.005 152.148 114.365 151.518 114.625C150.888 114.875 150.183 115 149.403 115H145.803ZM153.453 109.66C153.453 109.02 153.363 108.435 153.183 107.905C153.003 107.365 152.738 106.9 152.388 106.51C152.048 106.12 151.628 105.82 151.128 105.61C150.628 105.39 150.053 105.28 149.403 105.28H146.838V114.07H149.403C150.063 114.07 150.643 113.96 151.143 113.74C151.653 113.51 152.078 113.2 152.418 112.81C152.758 112.41 153.013 111.945 153.183 111.415C153.363 110.875 153.453 110.29 153.453 109.66ZM155.985 115C155.985 114.63 156.015 114.27 156.075 113.92C156.145 113.56 156.27 113.215 156.45 112.885C156.64 112.555 156.895 112.24 157.215 111.94C157.545 111.63 157.965 111.34 158.475 111.07C158.745 110.93 159.035 110.79 159.345 110.65C159.665 110.5 159.96 110.335 160.23 110.155C160.5 109.975 160.72 109.775 160.89 109.555C161.07 109.335 161.16 109.075 161.16 108.775C161.16 108.585 161.115 108.395 161.025 108.205C160.945 108.015 160.82 107.845 160.65 107.695C160.49 107.545 160.285 107.425 160.035 107.335C159.795 107.245 159.515 107.2 159.195 107.2C158.865 107.2 158.565 107.25 158.295 107.35C158.035 107.44 157.805 107.55 157.605 107.68C157.405 107.81 157.235 107.95 157.095 108.1C156.965 108.24 156.865 108.355 156.795 108.445L156.12 107.71C156.18 107.65 156.295 107.54 156.465 107.38C156.635 107.22 156.855 107.06 157.125 106.9C157.405 106.74 157.73 106.6 158.1 106.48C158.48 106.35 158.905 106.285 159.375 106.285C159.825 106.285 160.225 106.35 160.575 106.48C160.935 106.6 161.24 106.77 161.49 106.99C161.74 107.21 161.93 107.465 162.06 107.755C162.19 108.035 162.255 108.335 162.255 108.655C162.255 109.075 162.155 109.44 161.955 109.75C161.765 110.05 161.53 110.31 161.25 110.53C160.97 110.75 160.68 110.93 160.38 111.07C160.09 111.21 159.85 111.325 159.66 111.415C159.21 111.615 158.835 111.81 158.535 112C158.235 112.19 157.99 112.385 157.8 112.585C157.61 112.785 157.465 113.005 157.365 113.245C157.275 113.485 157.21 113.76 157.17 114.07H162.42V115H155.985ZM168.543 116.905V114.235H163.533V113.335L168.858 106.435H169.563V113.305H170.883V114.235H169.563V116.905H168.543ZM164.613 113.305H168.633V108.04L164.613 113.305ZM172.113 115C172.113 114.63 172.143 114.27 172.203 113.92C172.273 113.56 172.398 113.215 172.578 112.885C172.768 112.555 173.023 112.24 173.343 111.94C173.673 111.63 174.093 111.34 174.603 111.07C174.873 110.93 175.163 110.79 175.473 110.65C175.793 110.5 176.088 110.335 176.358 110.155C176.628 109.975 176.848 109.775 177.018 109.555C177.198 109.335 177.288 109.075 177.288 108.775C177.288 108.585 177.243 108.395 177.153 108.205C177.073 108.015 176.948 107.845 176.778 107.695C176.618 107.545 176.413 107.425 176.163 107.335C175.923 107.245 175.643 107.2 175.323 107.2C174.993 107.2 174.693 107.25 174.423 107.35C174.163 107.44 173.933 107.55 173.733 107.68C173.533 107.81 173.363 107.95 173.223 108.1C173.093 108.24 172.993 108.355 172.923 108.445L172.248 107.71C172.308 107.65 172.423 107.54 172.593 107.38C172.763 107.22 172.983 107.06 173.253 106.9C173.533 106.74 173.858 106.6 174.228 106.48C174.608 106.35 175.033 106.285 175.503 106.285C175.953 106.285 176.353 106.35 176.703 106.48C177.063 106.6 177.368 106.77 177.618 106.99C177.868 107.21 178.058 107.465 178.188 107.755C178.318 108.035 178.383 108.335 178.383 108.655C178.383 109.075 178.283 109.44 178.083 109.75C177.893 110.05 177.658 110.31 177.378 110.53C177.098 110.75 176.808 110.93 176.508 111.07C176.218 111.21 175.978 111.325 175.788 111.415C175.338 111.615 174.963 111.81 174.663 112C174.363 112.19 174.118 112.385 173.928 112.585C173.738 112.785 173.593 113.005 173.493 113.245C173.403 113.485 173.338 113.76 173.298 114.07H178.548V115H172.113ZM184.671 116.905V114.235H179.661V113.335L184.986 106.435H185.691V113.305H187.011V114.235H185.691V116.905H184.671ZM180.741 113.305H184.761V108.04L180.741 113.305Z" fill="white"/>
<rect x="113" width="88" height="88" rx="15" fill="#ED2424"/>
<path d="M22.675 108.145H20.725L20.02 111.085H22.03V111.895H19.825L19.075 115H18.205L18.97 111.895H16.135L15.385 115H14.515L15.295 111.895H13.6V111.085H15.475L16.195 108.145H14.23V107.38H16.39L17.11 104.35H17.98L17.23 107.38H20.065L20.8 104.35H21.67L20.92 107.38H22.675V108.145ZM19.165 111.085L19.885 108.145H17.035L16.33 111.085H19.165ZM32.5989 112.255C32.5989 112.655 32.5189 113.025 32.3589 113.365C32.1989 113.695 31.9839 113.985 31.7139 114.235C31.4439 114.475 31.1289 114.665 30.7689 114.805C30.4089 114.935 30.0239 115 29.6139 115H24.6039V104.35H29.7189C30.0889 104.35 30.4239 104.43 30.7239 104.59C31.0239 104.75 31.2789 104.96 31.4889 105.22C31.6989 105.47 31.8589 105.76 31.9689 106.09C32.0889 106.41 32.1489 106.735 32.1489 107.065C32.1489 107.605 32.0139 108.1 31.7439 108.55C31.4739 108.99 31.0989 109.32 30.6189 109.54C31.2289 109.72 31.7089 110.055 32.0589 110.545C32.4189 111.035 32.5989 111.605 32.5989 112.255ZM31.5489 112.075C31.5489 111.815 31.5039 111.565 31.4139 111.325C31.3239 111.075 31.1939 110.86 31.0239 110.68C30.8639 110.49 30.6689 110.34 30.4389 110.23C30.2189 110.11 29.9789 110.05 29.7189 110.05H25.6389V114.085H29.6139C29.8839 114.085 30.1389 114.03 30.3789 113.92C30.6189 113.81 30.8239 113.665 30.9939 113.485C31.1639 113.295 31.2989 113.08 31.3989 112.84C31.4989 112.59 31.5489 112.335 31.5489 112.075ZM25.6389 105.265V109.195H29.2989C29.5589 109.195 29.7989 109.14 30.0189 109.03C30.2489 108.92 30.4439 108.775 30.6039 108.595C30.7739 108.415 30.9039 108.21 30.9939 107.98C31.0839 107.74 31.1289 107.49 31.1289 107.23C31.1289 106.96 31.0839 106.705 30.9939 106.465C30.9139 106.225 30.7939 106.02 30.6339 105.85C30.4839 105.67 30.2989 105.53 30.0789 105.43C29.8689 105.32 29.6389 105.265 29.3889 105.265H25.6389ZM33.8434 110.095C33.8434 109.585 33.9384 109.11 34.1284 108.67C34.3284 108.22 34.5934 107.83 34.9234 107.5C35.2634 107.17 35.6634 106.91 36.1234 106.72C36.5834 106.53 37.0784 106.435 37.6084 106.435C38.1684 106.435 38.6834 106.54 39.1534 106.75C39.6234 106.95 40.0234 107.24 40.3534 107.62C40.6934 108 40.9584 108.47 41.1484 109.03C41.3384 109.58 41.4334 110.2 41.4334 110.89C41.4334 111.97 41.3384 112.915 41.1484 113.725C40.9584 114.525 40.6884 115.19 40.3384 115.72C39.9984 116.26 39.5884 116.66 39.1084 116.92C38.6284 117.18 38.0934 117.31 37.5034 117.31C36.8034 117.31 36.1734 117.135 35.6134 116.785C35.0534 116.435 34.6284 115.95 34.3384 115.33L34.9984 114.73C35.1984 115.24 35.5284 115.645 35.9884 115.945C36.4484 116.255 36.9584 116.41 37.5184 116.41C37.9584 116.41 38.3584 116.305 38.7184 116.095C39.0784 115.885 39.3834 115.58 39.6334 115.18C39.8934 114.79 40.0934 114.31 40.2334 113.74C40.3834 113.16 40.4584 112.5 40.4584 111.76C40.2384 112.35 39.8584 112.82 39.3184 113.17C38.7884 113.52 38.1834 113.695 37.5034 113.695C36.9934 113.695 36.5134 113.605 36.0634 113.425C35.6234 113.235 35.2384 112.98 34.9084 112.66C34.5784 112.33 34.3184 111.945 34.1284 111.505C33.9384 111.065 33.8434 110.595 33.8434 110.095ZM37.5934 107.335C37.2134 107.335 36.8534 107.41 36.5134 107.56C36.1834 107.7 35.8884 107.895 35.6284 108.145C35.3784 108.395 35.1784 108.69 35.0284 109.03C34.8884 109.36 34.8184 109.715 34.8184 110.095C34.8184 110.475 34.8934 110.835 35.0434 111.175C35.1934 111.505 35.3934 111.795 35.6434 112.045C35.8934 112.295 36.1834 112.495 36.5134 112.645C36.8534 112.785 37.2134 112.855 37.5934 112.855C37.9734 112.855 38.3334 112.785 38.6734 112.645C39.0134 112.495 39.3084 112.295 39.5584 112.045C39.8184 111.795 40.0184 111.505 40.1584 111.175C40.3084 110.835 40.3834 110.475 40.3834 110.095C40.3834 109.725 40.3084 109.375 40.1584 109.045C40.0084 108.705 39.8034 108.41 39.5434 108.16C39.2934 107.9 38.9984 107.7 38.6584 107.56C38.3284 107.41 37.9734 107.335 37.5934 107.335ZM43.4564 115V104.35H47.0564C47.9064 104.35 48.6514 104.49 49.2914 104.77C49.9314 105.05 50.4614 105.43 50.8814 105.91C51.3114 106.39 51.6314 106.955 51.8414 107.605C52.0514 108.245 52.1564 108.93 52.1564 109.66C52.1564 110.47 52.0364 111.205 51.7964 111.865C51.5564 112.515 51.2164 113.075 50.7764 113.545C50.3364 114.005 49.8014 114.365 49.1714 114.625C48.5414 114.875 47.8364 115 47.0564 115H43.4564ZM51.1064 109.66C51.1064 109.02 51.0164 108.435 50.8364 107.905C50.6564 107.365 50.3914 106.9 50.0414 106.51C49.7014 106.12 49.2814 105.82 48.7814 105.61C48.2814 105.39 47.7064 105.28 47.0564 105.28H44.4914V114.07H47.0564C47.7164 114.07 48.2964 113.96 48.7964 113.74C49.3064 113.51 49.7314 113.2 50.0714 112.81C50.4114 112.41 50.6664 111.945 50.8364 111.415C51.0164 110.875 51.1064 110.29 51.1064 109.66ZM61.258 110.605C61.258 111.265 61.163 111.875 60.973 112.435C60.783 112.985 60.518 113.465 60.178 113.875C59.848 114.275 59.453 114.59 58.993 114.82C58.533 115.04 58.033 115.15 57.493 115.15C56.953 115.15 56.453 115.04 55.993 114.82C55.533 114.59 55.133 114.275 54.793 113.875C54.463 113.465 54.203 112.985 54.013 112.435C53.823 111.875 53.728 111.265 53.728 110.605C53.728 109.945 53.823 109.34 54.013 108.79C54.203 108.23 54.463 107.75 54.793 107.35C55.133 106.94 55.533 106.62 55.993 106.39C56.453 106.16 56.953 106.045 57.493 106.045C58.033 106.045 58.533 106.16 58.993 106.39C59.453 106.62 59.848 106.94 60.178 107.35C60.518 107.75 60.783 108.23 60.973 108.79C61.163 109.34 61.258 109.945 61.258 110.605ZM60.223 110.605C60.223 110.065 60.153 109.575 60.013 109.135C59.883 108.695 59.698 108.32 59.458 108.01C59.218 107.69 58.928 107.445 58.588 107.275C58.258 107.095 57.893 107.005 57.493 107.005C57.083 107.005 56.708 107.095 56.368 107.275C56.038 107.445 55.753 107.69 55.513 108.01C55.273 108.32 55.083 108.695 54.943 109.135C54.813 109.575 54.748 110.065 54.748 110.605C54.748 111.145 54.813 111.635 54.943 112.075C55.083 112.515 55.273 112.895 55.513 113.215C55.753 113.525 56.038 113.765 56.368 113.935C56.708 114.105 57.083 114.19 57.493 114.19C57.893 114.19 58.258 114.105 58.588 113.935C58.928 113.765 59.218 113.525 59.458 113.215C59.698 112.895 59.883 112.515 60.013 112.075C60.153 111.635 60.223 111.145 60.223 110.605ZM66.3016 110.32C66.7916 110.32 67.2466 110.405 67.6666 110.575C68.0866 110.735 68.4516 110.965 68.7616 111.265C69.0816 111.565 69.3316 111.925 69.5116 112.345C69.6916 112.755 69.7816 113.21 69.7816 113.71C69.7816 114.24 69.6816 114.72 69.4816 115.15C69.2916 115.59 69.0266 115.96 68.6866 116.26C68.3566 116.57 67.9666 116.81 67.5166 116.98C67.0666 117.15 66.5866 117.235 66.0766 117.235C65.6966 117.235 65.3316 117.185 64.9816 117.085C64.6416 116.995 64.3266 116.86 64.0366 116.68C63.7466 116.5 63.4816 116.285 63.2416 116.035C63.0116 115.785 62.8216 115.505 62.6716 115.195L63.3466 114.685C63.6266 115.175 64.0066 115.57 64.4866 115.87C64.9766 116.17 65.5116 116.32 66.0916 116.32C66.4616 116.32 66.8066 116.255 67.1266 116.125C67.4466 116.005 67.7266 115.83 67.9666 115.6C68.2066 115.37 68.3916 115.095 68.5216 114.775C68.6616 114.455 68.7316 114.105 68.7316 113.725C68.7316 113.355 68.6666 113.02 68.5366 112.72C68.4066 112.41 68.2266 112.145 67.9966 111.925C67.7666 111.705 67.4966 111.535 67.1866 111.415C66.8866 111.295 66.5566 111.235 66.1966 111.235C65.7166 111.235 65.2666 111.34 64.8466 111.55C64.4366 111.75 64.1016 112.045 63.8416 112.435H62.8966C62.9066 112.375 62.9316 112.24 62.9716 112.03C63.0116 111.82 63.0616 111.57 63.1216 111.28C63.1816 110.99 63.2466 110.67 63.3166 110.32C63.3866 109.96 63.4566 109.6 63.5266 109.24C63.6966 108.4 63.8816 107.465 64.0816 106.435H69.2266V107.38H64.8466L64.1116 111.205C64.3716 110.925 64.6866 110.71 65.0566 110.56C65.4366 110.4 65.8516 110.32 66.3016 110.32ZM75.5233 111.46C76.1833 111.57 76.7083 111.87 77.0983 112.36C77.4983 112.85 77.6983 113.455 77.6983 114.175C77.6983 114.625 77.6133 115.035 77.4433 115.405C77.2833 115.785 77.0483 116.105 76.7383 116.365C76.4383 116.635 76.0733 116.84 75.6433 116.98C75.2233 117.13 74.7533 117.205 74.2333 117.205C73.4733 117.205 72.8083 117.05 72.2383 116.74C71.6683 116.44 71.2383 116.02 70.9483 115.48L71.6533 114.835C71.8633 115.275 72.1833 115.625 72.6133 115.885C73.0433 116.145 73.5833 116.275 74.2333 116.275C74.9833 116.275 75.5733 116.09 76.0033 115.72C76.4333 115.36 76.6483 114.84 76.6483 114.16C76.6483 113.47 76.4233 112.925 75.9733 112.525C75.5233 112.125 74.8733 111.925 74.0233 111.925H73.6483V111.055H74.0533C74.8233 111.055 75.4133 110.875 75.8233 110.515C76.2333 110.155 76.4383 109.69 76.4383 109.12C76.4383 108.82 76.3833 108.56 76.2733 108.34C76.1633 108.11 76.0083 107.92 75.8083 107.77C75.6183 107.61 75.3883 107.49 75.1183 107.41C74.8583 107.33 74.5733 107.29 74.2633 107.29C73.6933 107.29 73.1883 107.42 72.7483 107.68C72.3183 107.93 71.9933 108.28 71.7733 108.73L71.1133 108.1C71.2333 107.84 71.4033 107.605 71.6233 107.395C71.8433 107.175 72.0933 106.99 72.3733 106.84C72.6533 106.69 72.9633 106.575 73.3033 106.495C73.6433 106.405 73.9933 106.36 74.3533 106.36C74.8133 106.36 75.2333 106.425 75.6133 106.555C76.0033 106.685 76.3383 106.87 76.6183 107.11C76.8983 107.34 77.1133 107.62 77.2633 107.95C77.4233 108.28 77.5033 108.645 77.5033 109.045C77.5033 109.345 77.4583 109.635 77.3683 109.915C77.2783 110.185 77.1483 110.43 76.9783 110.65C76.8083 110.86 76.5983 111.04 76.3483 111.19C76.1083 111.33 75.8333 111.42 75.5233 111.46Z" fill="white"/>
<rect width="88" height="88" rx="15" fill="#B9D053"/>
<path d="M362.675 108.145H360.725L360.02 111.085H362.03V111.895H359.825L359.075 115H358.205L358.97 111.895H356.135L355.385 115H354.515L355.295 111.895H353.6V111.085H355.475L356.195 108.145H354.23V107.38H356.39L357.11 104.35H357.98L357.23 107.38H360.065L360.8 104.35H361.67L360.92 107.38H362.675V108.145ZM359.165 111.085L359.885 108.145H357.035L356.33 111.085H359.165ZM364.019 115C364.019 114.63 364.049 114.27 364.109 113.92C364.179 113.56 364.304 113.215 364.484 112.885C364.674 112.555 364.929 112.24 365.249 111.94C365.579 111.63 365.999 111.34 366.509 111.07C366.779 110.93 367.069 110.79 367.379 110.65C367.699 110.5 367.994 110.335 368.264 110.155C368.534 109.975 368.754 109.775 368.924 109.555C369.104 109.335 369.194 109.075 369.194 108.775C369.194 108.585 369.149 108.395 369.059 108.205C368.979 108.015 368.854 107.845 368.684 107.695C368.524 107.545 368.319 107.425 368.069 107.335C367.829 107.245 367.549 107.2 367.229 107.2C366.899 107.2 366.599 107.25 366.329 107.35C366.069 107.44 365.839 107.55 365.639 107.68C365.439 107.81 365.269 107.95 365.129 108.1C364.999 108.24 364.899 108.355 364.829 108.445L364.154 107.71C364.214 107.65 364.329 107.54 364.499 107.38C364.669 107.22 364.889 107.06 365.159 106.9C365.439 106.74 365.764 106.6 366.134 106.48C366.514 106.35 366.939 106.285 367.409 106.285C367.859 106.285 368.259 106.35 368.609 106.48C368.969 106.6 369.274 106.77 369.524 106.99C369.774 107.21 369.964 107.465 370.094 107.755C370.224 108.035 370.289 108.335 370.289 108.655C370.289 109.075 370.189 109.44 369.989 109.75C369.799 110.05 369.564 110.31 369.284 110.53C369.004 110.75 368.714 110.93 368.414 111.07C368.124 111.21 367.884 111.325 367.694 111.415C367.244 111.615 366.869 111.81 366.569 112C366.269 112.19 366.024 112.385 365.834 112.585C365.644 112.785 365.499 113.005 365.399 113.245C365.309 113.485 365.244 113.76 365.204 114.07H370.454V115H364.019ZM376.577 116.905V114.235H371.567V113.335L376.892 106.435H377.597V113.305H378.917V114.235H377.597V116.905H376.577ZM372.647 113.305H376.667V108.04L372.647 113.305ZM380.147 115C380.147 114.63 380.177 114.27 380.237 113.92C380.307 113.56 380.432 113.215 380.612 112.885C380.802 112.555 381.057 112.24 381.377 111.94C381.707 111.63 382.127 111.34 382.637 111.07C382.907 110.93 383.197 110.79 383.507 110.65C383.827 110.5 384.122 110.335 384.392 110.155C384.662 109.975 384.882 109.775 385.052 109.555C385.232 109.335 385.322 109.075 385.322 108.775C385.322 108.585 385.277 108.395 385.187 108.205C385.107 108.015 384.982 107.845 384.812 107.695C384.652 107.545 384.447 107.425 384.197 107.335C383.957 107.245 383.677 107.2 383.357 107.2C383.027 107.2 382.727 107.25 382.457 107.35C382.197 107.44 381.967 107.55 381.767 107.68C381.567 107.81 381.397 107.95 381.257 108.1C381.127 108.24 381.027 108.355 380.957 108.445L380.282 107.71C380.342 107.65 380.457 107.54 380.627 107.38C380.797 107.22 381.017 107.06 381.287 106.9C381.567 106.74 381.892 106.6 382.262 106.48C382.642 106.35 383.067 106.285 383.537 106.285C383.987 106.285 384.387 106.35 384.737 106.48C385.097 106.6 385.402 106.77 385.652 106.99C385.902 107.21 386.092 107.465 386.222 107.755C386.352 108.035 386.417 108.335 386.417 108.655C386.417 109.075 386.317 109.44 386.117 109.75C385.927 110.05 385.692 110.31 385.412 110.53C385.132 110.75 384.842 110.93 384.542 111.07C384.252 111.21 384.012 111.325 383.822 111.415C383.372 111.615 382.997 111.81 382.697 112C382.397 112.19 382.152 112.385 381.962 112.585C381.772 112.785 381.627 113.005 381.527 113.245C381.437 113.485 381.372 113.76 381.332 114.07H386.582V115H380.147ZM392.705 116.905V114.235H387.695V113.335L393.02 106.435H393.725V113.305H395.045V114.235H393.725V116.905H392.705ZM388.775 113.305H392.795V108.04L388.775 113.305ZM396.275 115C396.275 114.63 396.305 114.27 396.365 113.92C396.435 113.56 396.56 113.215 396.74 112.885C396.93 112.555 397.185 112.24 397.505 111.94C397.835 111.63 398.255 111.34 398.765 111.07C399.035 110.93 399.325 110.79 399.635 110.65C399.955 110.5 400.25 110.335 400.52 110.155C400.79 109.975 401.01 109.775 401.18 109.555C401.36 109.335 401.45 109.075 401.45 108.775C401.45 108.585 401.405 108.395 401.315 108.205C401.235 108.015 401.11 107.845 400.94 107.695C400.78 107.545 400.575 107.425 400.325 107.335C400.085 107.245 399.805 107.2 399.485 107.2C399.155 107.2 398.855 107.25 398.585 107.35C398.325 107.44 398.095 107.55 397.895 107.68C397.695 107.81 397.525 107.95 397.385 108.1C397.255 108.24 397.155 108.355 397.085 108.445L396.41 107.71C396.47 107.65 396.585 107.54 396.755 107.38C396.925 107.22 397.145 107.06 397.415 106.9C397.695 106.74 398.02 106.6 398.39 106.48C398.77 106.35 399.195 106.285 399.665 106.285C400.115 106.285 400.515 106.35 400.865 106.48C401.225 106.6 401.53 106.77 401.78 106.99C402.03 107.21 402.22 107.465 402.35 107.755C402.48 108.035 402.545 108.335 402.545 108.655C402.545 109.075 402.445 109.44 402.245 109.75C402.055 110.05 401.82 110.31 401.54 110.53C401.26 110.75 400.97 110.93 400.67 111.07C400.38 111.21 400.14 111.325 399.95 111.415C399.5 111.615 399.125 111.81 398.825 112C398.525 112.19 398.28 112.385 398.09 112.585C397.9 112.785 397.755 113.005 397.655 113.245C397.565 113.485 397.5 113.76 397.46 114.07H402.71V115H396.275ZM408.833 116.905V114.235H403.823V113.335L409.148 106.435H409.853V113.305H411.173V114.235H409.853V116.905H408.833ZM404.903 113.305H408.923V108.04L404.903 113.305Z" fill="white"/>
<rect x="340" y="1" width="86" height="86" rx="14" fill="#242424" stroke="white" stroke-width="2"/>
<path d="M249.675 108.145H247.725L247.02 111.085H249.03V111.895H246.825L246.075 115H245.205L245.97 111.895H243.135L242.385 115H241.515L242.295 111.895H240.6V111.085H242.475L243.195 108.145H241.23V107.38H243.39L244.11 104.35H244.98L244.23 107.38H247.065L247.8 104.35H248.67L247.92 107.38H249.675V108.145ZM246.165 111.085L246.885 108.145H244.035L243.33 111.085H246.165ZM251.604 115V104.35H258.579V105.28H252.639V109.195H257.664V110.065H252.639V115H251.604ZM259.427 115C259.427 114.63 259.457 114.27 259.517 113.92C259.587 113.56 259.712 113.215 259.892 112.885C260.082 112.555 260.337 112.24 260.657 111.94C260.987 111.63 261.407 111.34 261.917 111.07C262.187 110.93 262.477 110.79 262.787 110.65C263.107 110.5 263.402 110.335 263.672 110.155C263.942 109.975 264.162 109.775 264.332 109.555C264.512 109.335 264.602 109.075 264.602 108.775C264.602 108.585 264.557 108.395 264.467 108.205C264.387 108.015 264.262 107.845 264.092 107.695C263.932 107.545 263.727 107.425 263.477 107.335C263.237 107.245 262.957 107.2 262.637 107.2C262.307 107.2 262.007 107.25 261.737 107.35C261.477 107.44 261.247 107.55 261.047 107.68C260.847 107.81 260.677 107.95 260.537 108.1C260.407 108.24 260.307 108.355 260.237 108.445L259.562 107.71C259.622 107.65 259.737 107.54 259.907 107.38C260.077 107.22 260.297 107.06 260.567 106.9C260.847 106.74 261.172 106.6 261.542 106.48C261.922 106.35 262.347 106.285 262.817 106.285C263.267 106.285 263.667 106.35 264.017 106.48C264.377 106.6 264.682 106.77 264.932 106.99C265.182 107.21 265.372 107.465 265.502 107.755C265.632 108.035 265.697 108.335 265.697 108.655C265.697 109.075 265.597 109.44 265.397 109.75C265.207 110.05 264.972 110.31 264.692 110.53C264.412 110.75 264.122 110.93 263.822 111.07C263.532 111.21 263.292 111.325 263.102 111.415C262.652 111.615 262.277 111.81 261.977 112C261.677 112.19 261.432 112.385 261.242 112.585C261.052 112.785 260.907 113.005 260.807 113.245C260.717 113.485 260.652 113.76 260.612 114.07H265.862V115H259.427ZM268.01 115V104.35H274.985V105.28H269.045V109.195H274.07V110.065H269.045V115H268.01ZM275.833 115C275.833 114.63 275.863 114.27 275.923 113.92C275.993 113.56 276.118 113.215 276.298 112.885C276.488 112.555 276.743 112.24 277.063 111.94C277.393 111.63 277.813 111.34 278.323 111.07C278.593 110.93 278.883 110.79 279.193 110.65C279.513 110.5 279.808 110.335 280.078 110.155C280.348 109.975 280.568 109.775 280.738 109.555C280.918 109.335 281.008 109.075 281.008 108.775C281.008 108.585 280.963 108.395 280.873 108.205C280.793 108.015 280.668 107.845 280.498 107.695C280.338 107.545 280.133 107.425 279.883 107.335C279.643 107.245 279.363 107.2 279.043 107.2C278.713 107.2 278.413 107.25 278.143 107.35C277.883 107.44 277.653 107.55 277.453 107.68C277.253 107.81 277.083 107.95 276.943 108.1C276.813 108.24 276.713 108.355 276.643 108.445L275.968 107.71C276.028 107.65 276.143 107.54 276.313 107.38C276.483 107.22 276.703 107.06 276.973 106.9C277.253 106.74 277.578 106.6 277.948 106.48C278.328 106.35 278.753 106.285 279.223 106.285C279.673 106.285 280.073 106.35 280.423 106.48C280.783 106.6 281.088 106.77 281.338 106.99C281.588 107.21 281.778 107.465 281.908 107.755C282.038 108.035 282.103 108.335 282.103 108.655C282.103 109.075 282.003 109.44 281.803 109.75C281.613 110.05 281.378 110.31 281.098 110.53C280.818 110.75 280.528 110.93 280.228 111.07C279.938 111.21 279.698 111.325 279.508 111.415C279.058 111.615 278.683 111.81 278.383 112C278.083 112.19 277.838 112.385 277.648 112.585C277.458 112.785 277.313 113.005 277.213 113.245C277.123 113.485 277.058 113.76 277.018 114.07H282.268V115H275.833ZM284.416 115V104.35H291.391V105.28H285.451V109.195H290.476V110.065H285.451V115H284.416ZM292.24 115C292.24 114.63 292.27 114.27 292.33 113.92C292.4 113.56 292.525 113.215 292.705 112.885C292.895 112.555 293.15 112.24 293.47 111.94C293.8 111.63 294.22 111.34 294.73 111.07C295 110.93 295.29 110.79 295.6 110.65C295.92 110.5 296.215 110.335 296.485 110.155C296.755 109.975 296.975 109.775 297.145 109.555C297.325 109.335 297.415 109.075 297.415 108.775C297.415 108.585 297.37 108.395 297.28 108.205C297.2 108.015 297.075 107.845 296.905 107.695C296.745 107.545 296.54 107.425 296.29 107.335C296.05 107.245 295.77 107.2 295.45 107.2C295.12 107.2 294.82 107.25 294.55 107.35C294.29 107.44 294.06 107.55 293.86 107.68C293.66 107.81 293.49 107.95 293.35 108.1C293.22 108.24 293.12 108.355 293.05 108.445L292.375 107.71C292.435 107.65 292.55 107.54 292.72 107.38C292.89 107.22 293.11 107.06 293.38 106.9C293.66 106.74 293.985 106.6 294.355 106.48C294.735 106.35 295.16 106.285 295.63 106.285C296.08 106.285 296.48 106.35 296.83 106.48C297.19 106.6 297.495 106.77 297.745 106.99C297.995 107.21 298.185 107.465 298.315 107.755C298.445 108.035 298.51 108.335 298.51 108.655C298.51 109.075 298.41 109.44 298.21 109.75C298.02 110.05 297.785 110.31 297.505 110.53C297.225 110.75 296.935 110.93 296.635 111.07C296.345 111.21 296.105 111.325 295.915 111.415C295.465 111.615 295.09 111.81 294.79 112C294.49 112.19 294.245 112.385 294.055 112.585C293.865 112.785 293.72 113.005 293.62 113.245C293.53 113.485 293.465 113.76 293.425 114.07H298.675V115H292.24Z" fill="white"/>
<rect x="226" width="88" height="88" rx="15" fill="#F2F2F2"/>
</svg>
