<svg width="750" height="166" viewBox="0 0 750 166" fill="none" xmlns="http://www.w3.org/2000/svg">
<path d="M17.91 18.72C17.91 19.94 17.63 21.06 17.07 22.08C16.51 23.08 15.65 23.89 14.49 24.51C13.33 25.13 11.89 25.44 10.17 25.44H6.99V33H1.86V11.94H10.17C11.85 11.94 13.27 12.23 14.43 12.81C15.59 13.39 16.46 14.19 17.04 15.21C17.62 16.23 17.91 17.4 17.91 18.72ZM9.78 21.36C10.76 21.36 11.49 21.13 11.97 20.67C12.45 20.21 12.69 19.56 12.69 18.72C12.69 17.88 12.45 17.23 11.97 16.77C11.49 16.31 10.76 16.08 9.78 16.08H6.99V21.36H9.78ZM28.8007 33.24C27.1607 33.24 25.6807 32.89 24.3607 32.19C23.0607 31.49 22.0307 30.49 21.2707 29.19C20.5307 27.89 20.1607 26.37 20.1607 24.63C20.1607 22.91 20.5407 21.4 21.3007 20.1C22.0607 18.78 23.1007 17.77 24.4207 17.07C25.7407 16.37 27.2207 16.02 28.8607 16.02C30.5007 16.02 31.9807 16.37 33.3007 17.07C34.6207 17.77 35.6607 18.78 36.4207 20.1C37.1807 21.4 37.5607 22.91 37.5607 24.63C37.5607 26.35 37.1707 27.87 36.3907 29.19C35.6307 30.49 34.5807 31.49 33.2407 32.19C31.9207 32.89 30.4407 33.24 28.8007 33.24ZM28.8007 28.8C29.7807 28.8 30.6107 28.44 31.2907 27.72C31.9907 27 32.3407 25.97 32.3407 24.63C32.3407 23.29 32.0007 22.26 31.3207 21.54C30.6607 20.82 29.8407 20.46 28.8607 20.46C27.8607 20.46 27.0307 20.82 26.3707 21.54C25.7107 22.24 25.3807 23.27 25.3807 24.63C25.3807 25.97 25.7007 27 26.3407 27.72C27.0007 28.44 27.8207 28.8 28.8007 28.8ZM46.0123 18.63C46.5123 17.85 47.2023 17.22 48.0823 16.74C48.9623 16.26 49.9923 16.02 51.1723 16.02C52.5523 16.02 53.8023 16.37 54.9223 17.07C56.0423 17.77 56.9223 18.77 57.5623 20.07C58.2223 21.37 58.5523 22.88 58.5523 24.6C58.5523 26.32 58.2223 27.84 57.5623 29.16C56.9223 30.46 56.0423 31.47 54.9223 32.19C53.8023 32.89 52.5523 33.24 51.1723 33.24C50.0123 33.24 48.9823 33 48.0823 32.52C47.2023 32.04 46.5123 31.42 46.0123 30.66V40.98H40.8823V16.26H46.0123V18.63ZM53.3323 24.6C53.3323 23.32 52.9723 22.32 52.2523 21.6C51.5523 20.86 50.6823 20.49 49.6423 20.49C48.6223 20.49 47.7523 20.86 47.0323 21.6C46.3323 22.34 45.9823 23.35 45.9823 24.63C45.9823 25.91 46.3323 26.92 47.0323 27.66C47.7523 28.4 48.6223 28.77 49.6423 28.77C50.6623 28.77 51.5323 28.4 52.2523 27.66C52.9723 26.9 53.3323 25.88 53.3323 24.6ZM66.9736 18.63C67.4736 17.85 68.1636 17.22 69.0436 16.74C69.9236 16.26 70.9536 16.02 72.1336 16.02C73.5136 16.02 74.7636 16.37 75.8836 17.07C77.0036 17.77 77.8836 18.77 78.5236 20.07C79.1836 21.37 79.5136 22.88 79.5136 24.6C79.5136 26.32 79.1836 27.84 78.5236 29.16C77.8836 30.46 77.0036 31.47 75.8836 32.19C74.7636 32.89 73.5136 33.24 72.1336 33.24C70.9736 33.24 69.9436 33 69.0436 32.52C68.1636 32.04 67.4736 31.42 66.9736 30.66V40.98H61.8436V16.26H66.9736V18.63ZM74.2936 24.6C74.2936 23.32 73.9336 22.32 73.2136 21.6C72.5136 20.86 71.6436 20.49 70.6036 20.49C69.5836 20.49 68.7136 20.86 67.9936 21.6C67.2936 22.34 66.9436 23.35 66.9436 24.63C66.9436 25.91 67.2936 26.92 67.9936 27.66C68.7136 28.4 69.5836 28.77 70.6036 28.77C71.6236 28.77 72.4936 28.4 73.2136 27.66C73.9336 26.9 74.2936 25.88 74.2936 24.6ZM85.3849 14.52C84.4849 14.52 83.7449 14.26 83.1649 13.74C82.6049 13.2 82.3249 12.54 82.3249 11.76C82.3249 10.96 82.6049 10.3 83.1649 9.78C83.7449 9.24 84.4849 8.97 85.3849 8.97C86.2649 8.97 86.9849 9.24 87.5449 9.78C88.1249 10.3 88.4149 10.96 88.4149 11.76C88.4149 12.54 88.1249 13.2 87.5449 13.74C86.9849 14.26 86.2649 14.52 85.3849 14.52ZM87.9349 16.26V33H82.8049V16.26H87.9349ZM102.453 16.08C104.413 16.08 105.973 16.72 107.133 18C108.313 19.26 108.903 21 108.903 23.22V33H103.803V23.91C103.803 22.79 103.513 21.92 102.933 21.3C102.353 20.68 101.573 20.37 100.593 20.37C99.6126 20.37 98.8326 20.68 98.2526 21.3C97.6726 21.92 97.3826 22.79 97.3826 23.91V33H92.2526V16.26H97.3826V18.48C97.9026 17.74 98.6026 17.16 99.4826 16.74C100.363 16.3 101.353 16.08 102.453 16.08ZM119.877 33.24C118.417 33.24 117.117 32.99 115.977 32.49C114.837 31.99 113.937 31.31 113.277 30.45C112.617 29.57 112.247 28.59 112.167 27.51H117.237C117.297 28.09 117.567 28.56 118.047 28.92C118.527 29.28 119.117 29.46 119.817 29.46C120.457 29.46 120.947 29.34 121.287 29.1C121.647 28.84 121.827 28.51 121.827 28.11C121.827 27.63 121.577 27.28 121.077 27.06C120.577 26.82 119.767 26.56 118.647 26.28C117.447 26 116.447 25.71 115.647 25.41C114.847 25.09 114.157 24.6 113.577 23.94C112.997 23.26 112.707 22.35 112.707 21.21C112.707 20.25 112.967 19.38 113.487 18.6C114.027 17.8 114.807 17.17 115.827 16.71C116.867 16.25 118.097 16.02 119.517 16.02C121.617 16.02 123.267 16.54 124.467 17.58C125.687 18.62 126.387 20 126.567 21.72H121.827C121.747 21.14 121.487 20.68 121.047 20.34C120.627 20 120.067 19.83 119.367 19.83C118.767 19.83 118.307 19.95 117.987 20.19C117.667 20.41 117.507 20.72 117.507 21.12C117.507 21.6 117.757 21.96 118.257 22.2C118.777 22.44 119.577 22.68 120.657 22.92C121.897 23.24 122.907 23.56 123.687 23.88C124.467 24.18 125.147 24.68 125.727 25.38C126.327 26.06 126.637 26.98 126.657 28.14C126.657 29.12 126.377 30 125.817 30.78C125.277 31.54 124.487 32.14 123.447 32.58C122.427 33.02 121.237 33.24 119.877 33.24Z" fill="white"/>
<path d="M406.533 21.2627C406.533 24.6904 405.664 27.3857 403.926 29.3486C402.197 31.3115 399.79 32.293 396.704 32.293C393.55 32.293 391.113 31.3311 389.395 29.4072C387.686 27.4736 386.831 24.749 386.831 21.2334C386.831 17.7471 387.69 15.0469 389.409 13.1328C391.128 11.209 393.569 10.2471 396.733 10.2471C399.81 10.2471 402.212 11.2236 403.94 13.1768C405.669 15.1299 406.533 17.8252 406.533 21.2627ZM389.468 21.2627C389.468 24.1631 390.083 26.3652 391.313 27.8691C392.554 29.3633 394.351 30.1104 396.704 30.1104C399.077 30.1104 400.869 29.3633 402.08 27.8691C403.291 26.375 403.896 24.1729 403.896 21.2627C403.896 18.3818 403.291 16.1992 402.08 14.7148C400.879 13.2207 399.097 12.4736 396.733 12.4736C394.36 12.4736 392.554 13.2256 391.313 14.7295C390.083 16.2236 389.468 18.4014 389.468 21.2627ZM418.428 32.293C417.383 32.293 416.426 32.1025 415.557 31.7217C414.697 31.3311 413.975 30.7354 413.389 29.9346H413.213C413.33 30.8721 413.389 31.7607 413.389 32.6006V39.207H410.957V15.9453H412.935L413.271 18.1426H413.389C414.014 17.2637 414.741 16.6289 415.571 16.2383C416.401 15.8477 417.354 15.6523 418.428 15.6523C420.557 15.6523 422.197 16.3799 423.35 17.835C424.512 19.29 425.093 21.3311 425.093 23.958C425.093 26.5947 424.502 28.6455 423.32 30.1104C422.148 31.5654 420.518 32.293 418.428 32.293ZM418.076 17.7178C416.436 17.7178 415.249 18.1719 414.517 19.0801C413.784 19.9883 413.408 21.4336 413.389 23.416V23.958C413.389 26.2139 413.765 27.8301 414.517 28.8066C415.269 29.7734 416.475 30.2568 418.135 30.2568C419.521 30.2568 420.605 29.6953 421.387 28.5723C422.178 27.4492 422.573 25.9014 422.573 23.9287C422.573 21.9268 422.178 20.3936 421.387 19.3291C420.605 18.2549 419.502 17.7178 418.076 17.7178ZM436.138 32.293C433.765 32.293 431.89 31.5703 430.513 30.125C429.146 28.6797 428.462 26.6729 428.462 24.1045C428.462 21.5166 429.097 19.4609 430.366 17.9375C431.646 16.4141 433.359 15.6523 435.508 15.6523C437.52 15.6523 439.111 16.3164 440.283 17.6445C441.455 18.9629 442.041 20.7061 442.041 22.874V24.4121H430.981C431.03 26.2969 431.504 27.7275 432.402 28.7041C433.311 29.6807 434.585 30.1689 436.226 30.1689C437.954 30.1689 439.663 29.8076 441.353 29.085V31.2529C440.493 31.624 439.678 31.8877 438.906 32.0439C438.145 32.21 437.222 32.293 436.138 32.293ZM435.479 17.6885C434.189 17.6885 433.159 18.1084 432.388 18.9482C431.626 19.7881 431.177 20.9502 431.04 22.4346H439.434C439.434 20.9014 439.092 19.7295 438.408 18.9189C437.725 18.0986 436.748 17.6885 435.479 17.6885ZM457.188 32V21.6143C457.188 20.3057 456.89 19.3291 456.294 18.6846C455.698 18.04 454.766 17.7178 453.496 17.7178C451.816 17.7178 450.586 18.1719 449.805 19.0801C449.023 19.9883 448.633 21.4873 448.633 23.5771V32H446.201V15.9453H448.179L448.574 18.1426H448.691C449.189 17.3516 449.888 16.7412 450.786 16.3115C451.685 15.8721 452.686 15.6523 453.789 15.6523C455.723 15.6523 457.178 16.1211 458.154 17.0586C459.131 17.9863 459.619 19.4756 459.619 21.5264V32H457.188ZM484.873 26.3018C484.873 28.1865 484.189 29.6562 482.822 30.7109C481.455 31.7656 479.6 32.293 477.256 32.293C474.717 32.293 472.764 31.9658 471.396 31.3115V28.9092C472.275 29.2803 473.232 29.5732 474.268 29.7881C475.303 30.0029 476.328 30.1104 477.344 30.1104C479.004 30.1104 480.254 29.7979 481.094 29.1729C481.934 28.5381 482.354 27.6592 482.354 26.5361C482.354 25.7939 482.202 25.1885 481.899 24.7197C481.606 24.2412 481.108 23.8018 480.405 23.4014C479.712 23.001 478.652 22.5469 477.227 22.0391C475.234 21.3262 473.809 20.4814 472.949 19.5049C472.1 18.5283 471.675 17.2539 471.675 15.6816C471.675 14.0312 472.295 12.7178 473.535 11.7412C474.775 10.7646 476.416 10.2764 478.457 10.2764C480.586 10.2764 482.544 10.667 484.331 11.4482L483.555 13.6162C481.787 12.874 480.068 12.5029 478.398 12.5029C477.08 12.5029 476.05 12.7861 475.308 13.3525C474.565 13.9189 474.194 14.7051 474.194 15.7109C474.194 16.4531 474.331 17.0635 474.604 17.542C474.878 18.0107 475.337 18.4453 475.981 18.8457C476.636 19.2363 477.632 19.6709 478.97 20.1494C481.216 20.9502 482.759 21.8096 483.599 22.7275C484.448 23.6455 484.873 24.8369 484.873 26.3018ZM498.76 32L498.276 29.7148H498.159C497.358 30.7207 496.558 31.4043 495.757 31.7656C494.966 32.1172 493.975 32.293 492.783 32.293C491.191 32.293 489.941 31.8828 489.033 31.0625C488.135 30.2422 487.686 29.0752 487.686 27.5615C487.686 24.3193 490.278 22.6201 495.464 22.4639L498.188 22.376V21.3799C498.188 20.1201 497.915 19.1924 497.368 18.5967C496.831 17.9912 495.967 17.6885 494.775 17.6885C493.438 17.6885 491.924 18.0986 490.234 18.9189L489.487 17.0586C490.278 16.6289 491.143 16.292 492.08 16.0479C493.027 15.8037 493.975 15.6816 494.922 15.6816C496.836 15.6816 498.252 16.1064 499.17 16.9561C500.098 17.8057 500.562 19.168 500.562 21.043V32H498.76ZM493.267 30.2861C494.78 30.2861 495.967 29.8711 496.826 29.041C497.695 28.2109 498.13 27.0488 498.13 25.5547V24.1045L495.698 24.207C493.765 24.2754 492.368 24.5781 491.509 25.1152C490.659 25.6426 490.234 26.4678 490.234 27.5908C490.234 28.4697 490.498 29.1387 491.025 29.5977C491.562 30.0566 492.31 30.2861 493.267 30.2861ZM516.572 32V21.6143C516.572 20.3057 516.274 19.3291 515.679 18.6846C515.083 18.04 514.15 17.7178 512.881 17.7178C511.201 17.7178 509.971 18.1719 509.189 19.0801C508.408 19.9883 508.018 21.4873 508.018 23.5771V32H505.586V15.9453H507.563L507.959 18.1426H508.076C508.574 17.3516 509.272 16.7412 510.171 16.3115C511.069 15.8721 512.07 15.6523 513.174 15.6523C515.107 15.6523 516.562 16.1211 517.539 17.0586C518.516 17.9863 519.004 19.4756 519.004 21.5264V32H516.572ZM534.37 27.6201C534.37 29.1143 533.813 30.2666 532.7 31.0771C531.587 31.8877 530.024 32.293 528.013 32.293C525.884 32.293 524.224 31.9561 523.032 31.2822V29.0264C523.804 29.417 524.629 29.7246 525.508 29.9492C526.396 30.1738 527.251 30.2861 528.071 30.2861C529.341 30.2861 530.317 30.0859 531.001 29.6855C531.685 29.2754 532.026 28.6553 532.026 27.8252C532.026 27.2002 531.753 26.668 531.206 26.2285C530.669 25.7793 529.614 25.252 528.042 24.6465C526.548 24.0898 525.483 23.6064 524.849 23.1963C524.224 22.7764 523.755 22.3027 523.442 21.7754C523.14 21.248 522.988 20.6182 522.988 19.8857C522.988 18.5771 523.521 17.5469 524.585 16.7949C525.649 16.0332 527.109 15.6523 528.965 15.6523C530.693 15.6523 532.383 16.0039 534.033 16.707L533.169 18.6846C531.558 18.0205 530.098 17.6885 528.789 17.6885C527.637 17.6885 526.768 17.8691 526.182 18.2305C525.596 18.5918 525.303 19.0898 525.303 19.7246C525.303 20.1543 525.41 20.5205 525.625 20.8232C525.85 21.126 526.206 21.4141 526.694 21.6875C527.183 21.9609 528.12 22.3564 529.507 22.874C531.411 23.5674 532.695 24.2656 533.359 24.9688C534.033 25.6719 534.37 26.5557 534.37 27.6201Z" fill="white"/>
<path d="M20.1 68.94V90H14.97V81.33H6.99V90H1.86V68.94H6.99V77.19H14.97V68.94H20.1ZM40.1834 81.36C40.1834 81.84 40.1534 82.34 40.0934 82.86H28.4834C28.5634 83.9 28.8934 84.7 29.4734 85.26C30.0734 85.8 30.8034 86.07 31.6634 86.07C32.9434 86.07 33.8334 85.53 34.3334 84.45H39.7934C39.5134 85.55 39.0034 86.54 38.2634 87.42C37.5434 88.3 36.6334 88.99 35.5334 89.49C34.4334 89.99 33.2034 90.24 31.8434 90.24C30.2034 90.24 28.7434 89.89 27.4634 89.19C26.1834 88.49 25.1834 87.49 24.4634 86.19C23.7434 84.89 23.3834 83.37 23.3834 81.63C23.3834 79.89 23.7334 78.37 24.4334 77.07C25.1534 75.77 26.1534 74.77 27.4334 74.07C28.7134 73.37 30.1834 73.02 31.8434 73.02C33.4634 73.02 34.9034 73.36 36.1634 74.04C37.4234 74.72 38.4034 75.69 39.1034 76.95C39.8234 78.21 40.1834 79.68 40.1834 81.36ZM34.9334 80.01C34.9334 79.13 34.6334 78.43 34.0334 77.91C33.4334 77.39 32.6834 77.13 31.7834 77.13C30.9234 77.13 30.1934 77.38 29.5934 77.88C29.0134 78.38 28.6534 79.09 28.5134 80.01H34.9334ZM42.4697 81.6C42.4697 79.88 42.7897 78.37 43.4297 77.07C44.0897 75.77 44.9797 74.77 46.0997 74.07C47.2197 73.37 48.4697 73.02 49.8497 73.02C51.0297 73.02 52.0597 73.26 52.9397 73.74C53.8397 74.22 54.5297 74.85 55.0097 75.63V73.26H60.1397V90H55.0097V87.63C54.5097 88.41 53.8097 89.04 52.9097 89.52C52.0297 90 50.9997 90.24 49.8197 90.24C48.4597 90.24 47.2197 89.89 46.0997 89.19C44.9797 88.47 44.0897 87.46 43.4297 86.16C42.7897 84.84 42.4697 83.32 42.4697 81.6ZM55.0097 81.63C55.0097 80.35 54.6497 79.34 53.9297 78.6C53.2297 77.86 52.3697 77.49 51.3497 77.49C50.3297 77.49 49.4597 77.86 48.7397 78.6C48.0397 79.32 47.6897 80.32 47.6897 81.6C47.6897 82.88 48.0397 83.9 48.7397 84.66C49.4597 85.4 50.3297 85.77 51.3497 85.77C52.3697 85.77 53.2297 85.4 53.9297 84.66C54.6497 83.92 55.0097 82.91 55.0097 81.63ZM63.431 81.6C63.431 79.88 63.751 78.37 64.391 77.07C65.051 75.77 65.941 74.77 67.061 74.07C68.181 73.37 69.431 73.02 70.811 73.02C71.911 73.02 72.911 73.25 73.811 73.71C74.731 74.17 75.451 74.79 75.971 75.57V67.8H81.101V90H75.971V87.6C75.491 88.4 74.801 89.04 73.901 89.52C73.021 90 71.991 90.24 70.811 90.24C69.431 90.24 68.181 89.89 67.061 89.19C65.941 88.47 65.051 87.46 64.391 86.16C63.751 84.84 63.431 83.32 63.431 81.6ZM75.971 81.63C75.971 80.35 75.611 79.34 74.891 78.6C74.191 77.86 73.331 77.49 72.311 77.49C71.291 77.49 70.421 77.86 69.701 78.6C69.001 79.32 68.651 80.32 68.651 81.6C68.651 82.88 69.001 83.9 69.701 84.66C70.421 85.4 71.291 85.77 72.311 85.77C73.331 85.77 74.191 85.4 74.891 84.66C75.611 83.92 75.971 82.91 75.971 81.63ZM87.9923 71.52C87.0923 71.52 86.3523 71.26 85.7723 70.74C85.2123 70.2 84.9323 69.54 84.9323 68.76C84.9323 67.96 85.2123 67.3 85.7723 66.78C86.3523 66.24 87.0923 65.97 87.9923 65.97C88.8723 65.97 89.5923 66.24 90.1523 66.78C90.7323 67.3 91.0223 67.96 91.0223 68.76C91.0223 69.54 90.7323 70.2 90.1523 70.74C89.5923 71.26 88.8723 71.52 87.9923 71.52ZM90.5423 73.26V90H85.4123V73.26H90.5423ZM105.06 73.08C107.02 73.08 108.58 73.72 109.74 75C110.92 76.26 111.51 78 111.51 80.22V90H106.41V80.91C106.41 79.79 106.12 78.92 105.54 78.3C104.96 77.68 104.18 77.37 103.2 77.37C102.22 77.37 101.44 77.68 100.86 78.3C100.28 78.92 99.99 79.79 99.99 80.91V90H94.86V73.26H99.99V75.48C100.51 74.74 101.21 74.16 102.09 73.74C102.97 73.3 103.96 73.08 105.06 73.08ZM122.035 73.02C123.215 73.02 124.245 73.26 125.125 73.74C126.025 74.22 126.715 74.85 127.195 75.63V73.26H132.325V89.97C132.325 91.51 132.015 92.9 131.395 94.14C130.795 95.4 129.865 96.4 128.605 97.14C127.365 97.88 125.815 98.25 123.955 98.25C121.475 98.25 119.465 97.66 117.925 96.48C116.385 95.32 115.505 93.74 115.285 91.74H120.355C120.515 92.38 120.895 92.88 121.495 93.24C122.095 93.62 122.835 93.81 123.715 93.81C124.775 93.81 125.615 93.5 126.235 92.88C126.875 92.28 127.195 91.31 127.195 89.97V87.6C126.695 88.38 126.005 89.02 125.125 89.52C124.245 90 123.215 90.24 122.035 90.24C120.655 90.24 119.405 89.89 118.285 89.19C117.165 88.47 116.275 87.46 115.615 86.16C114.975 84.84 114.655 83.32 114.655 81.6C114.655 79.88 114.975 78.37 115.615 77.07C116.275 75.77 117.165 74.77 118.285 74.07C119.405 73.37 120.655 73.02 122.035 73.02ZM127.195 81.63C127.195 80.35 126.835 79.34 126.115 78.6C125.415 77.86 124.555 77.49 123.535 77.49C122.515 77.49 121.645 77.86 120.925 78.6C120.225 79.32 119.875 80.32 119.875 81.6C119.875 82.88 120.225 83.9 120.925 84.66C121.645 85.4 122.515 85.77 123.535 85.77C124.555 85.77 125.415 85.4 126.115 84.66C126.835 83.92 127.195 82.91 127.195 81.63ZM156.494 77.34V81.6H143.294V77.34H156.494ZM168.223 74.28C168.303 72.14 169.003 70.49 170.323 69.33C171.643 68.17 173.433 67.59 175.693 67.59C177.193 67.59 178.473 67.85 179.533 68.37C180.613 68.89 181.423 69.6 181.963 70.5C182.523 71.4 182.803 72.41 182.803 73.53C182.803 74.85 182.473 75.93 181.813 76.77C181.153 77.59 180.383 78.15 179.503 78.45V78.57C180.643 78.95 181.543 79.58 182.203 80.46C182.863 81.34 183.193 82.47 183.193 83.85C183.193 85.09 182.903 86.19 182.323 87.15C181.763 88.09 180.933 88.83 179.833 89.37C178.753 89.91 177.463 90.18 175.963 90.18C173.563 90.18 171.643 89.59 170.203 88.41C168.783 87.23 168.033 85.45 167.953 83.07H172.933C172.953 83.95 173.203 84.65 173.683 85.17C174.163 85.67 174.863 85.92 175.783 85.92C176.563 85.92 177.163 85.7 177.583 85.26C178.023 84.8 178.243 84.2 178.243 83.46C178.243 82.5 177.933 81.81 177.313 81.39C176.713 80.95 175.743 80.73 174.403 80.73H173.443V76.56H174.403C175.423 76.56 176.243 76.39 176.863 76.05C177.503 75.69 177.823 75.06 177.823 74.16C177.823 73.44 177.623 72.88 177.223 72.48C176.823 72.08 176.273 71.88 175.573 71.88C174.813 71.88 174.243 72.11 173.863 72.57C173.503 73.03 173.293 73.6 173.233 74.28H168.223ZM186.807 78.75C186.807 75.31 187.467 72.6 188.787 70.62C190.127 68.64 192.277 67.65 195.237 67.65C198.197 67.65 200.337 68.64 201.657 70.62C202.997 72.6 203.667 75.31 203.667 78.75C203.667 82.23 202.997 84.96 201.657 86.94C200.337 88.92 198.197 89.91 195.237 89.91C192.277 89.91 190.127 88.92 188.787 86.94C187.467 84.96 186.807 82.23 186.807 78.75ZM198.627 78.75C198.627 76.73 198.407 75.18 197.967 74.1C197.527 73 196.617 72.45 195.237 72.45C193.857 72.45 192.947 73 192.507 74.1C192.067 75.18 191.847 76.73 191.847 78.75C191.847 80.11 191.927 81.24 192.087 82.14C192.247 83.02 192.567 83.74 193.047 84.3C193.547 84.84 194.277 85.11 195.237 85.11C196.197 85.11 196.917 84.84 197.397 84.3C197.897 83.74 198.227 83.02 198.387 82.14C198.547 81.24 198.627 80.11 198.627 78.75ZM219.575 75.63C220.075 74.85 220.765 74.22 221.645 73.74C222.525 73.26 223.555 73.02 224.735 73.02C226.115 73.02 227.365 73.37 228.485 74.07C229.605 74.77 230.485 75.77 231.125 77.07C231.785 78.37 232.115 79.88 232.115 81.6C232.115 83.32 231.785 84.84 231.125 86.16C230.485 87.46 229.605 88.47 228.485 89.19C227.365 89.89 226.115 90.24 224.735 90.24C223.575 90.24 222.545 90 221.645 89.52C220.765 89.04 220.075 88.42 219.575 87.66V97.98H214.445V73.26H219.575V75.63ZM226.895 81.6C226.895 80.32 226.535 79.32 225.815 78.6C225.115 77.86 224.245 77.49 223.205 77.49C222.185 77.49 221.315 77.86 220.595 78.6C219.895 79.34 219.545 80.35 219.545 81.63C219.545 82.91 219.895 83.92 220.595 84.66C221.315 85.4 222.185 85.77 223.205 85.77C224.225 85.77 225.095 85.4 225.815 84.66C226.535 83.9 226.895 82.88 226.895 81.6ZM245.306 90L242.096 85.35L239.396 90H233.846L239.366 81.45L233.696 73.26H239.456L242.666 77.88L245.366 73.26H250.916L245.306 81.69L251.066 90H245.306ZM9.12 140.21C7.72 140.21 6.46 139.97 5.34 139.49C4.22 138.99 3.34 138.29 2.7 137.39C2.06 136.49 1.74 135.44 1.74 134.24H5.4C5.48 135.14 5.83 135.88 6.45 136.46C7.09 137.04 7.98 137.33 9.12 137.33C10.3 137.33 11.22 137.05 11.88 136.49C12.54 135.91 12.87 135.17 12.87 134.27C12.87 133.57 12.66 133 12.24 132.56C11.84 132.12 11.33 131.78 10.71 131.54C10.11 131.3 9.27 131.04 8.19 130.76C6.83 130.4 5.72 130.04 4.86 129.68C4.02 129.3 3.3 128.72 2.7 127.94C2.1 127.16 1.8 126.12 1.8 124.82C1.8 123.62 2.1 122.57 2.7 121.67C3.3 120.77 4.14 120.08 5.22 119.6C6.3 119.12 7.55 118.88 8.97 118.88C10.99 118.88 12.64 119.39 13.92 120.41C15.22 121.41 15.94 122.79 16.08 124.55H12.3C12.24 123.79 11.88 123.14 11.22 122.6C10.56 122.06 9.69 121.79 8.61 121.79C7.63 121.79 6.83 122.04 6.21 122.54C5.59 123.04 5.28 123.76 5.28 124.7C5.28 125.34 5.47 125.87 5.85 126.29C6.25 126.69 6.75 127.01 7.35 127.25C7.95 127.49 8.77 127.75 9.81 128.03C11.19 128.41 12.31 128.79 13.17 129.17C14.05 129.55 14.79 130.14 15.39 130.94C16.01 131.72 16.32 132.77 16.32 134.09C16.32 135.15 16.03 136.15 15.45 137.09C14.89 138.03 14.06 138.79 12.96 139.37C11.88 139.93 10.6 140.21 9.12 140.21ZM35.9255 123.47V140H32.5055V138.05C31.9655 138.73 31.2555 139.27 30.3755 139.67C29.5155 140.05 28.5955 140.24 27.6155 140.24C26.3155 140.24 25.1455 139.97 24.1055 139.43C23.0855 138.89 22.2755 138.09 21.6755 137.03C21.0955 135.97 20.8055 134.69 20.8055 133.19V123.47H24.1955V132.68C24.1955 134.16 24.5655 135.3 25.3055 136.1C26.0455 136.88 27.0555 137.27 28.3355 137.27C29.6155 137.27 30.6255 136.88 31.3655 136.1C32.1255 135.3 32.5055 134.16 32.5055 132.68V123.47H35.9255ZM44.4579 125.93C45.0379 125.13 45.8279 124.48 46.8279 123.98C47.8479 123.46 48.9779 123.2 50.2179 123.2C51.6779 123.2 52.9979 123.55 54.1779 124.25C55.3579 124.95 56.2879 125.95 56.9679 127.25C57.6479 128.53 57.9879 130 57.9879 131.66C57.9879 133.32 57.6479 134.81 56.9679 136.13C56.2879 137.43 55.3479 138.45 54.1479 139.19C52.9679 139.91 51.6579 140.27 50.2179 140.27C48.9379 140.27 47.7979 140.02 46.7979 139.52C45.8179 139.02 45.0379 138.38 44.4579 137.6V140H41.0379V117.8H44.4579V125.93ZM54.5079 131.66C54.5079 130.52 54.2679 129.54 53.7879 128.72C53.3279 127.88 52.7079 127.25 51.9279 126.83C51.1679 126.39 50.3479 126.17 49.4679 126.17C48.6079 126.17 47.7879 126.39 47.0079 126.83C46.2479 127.27 45.6279 127.91 45.1479 128.75C44.6879 129.59 44.4579 130.58 44.4579 131.72C44.4579 132.86 44.6879 133.86 45.1479 134.72C45.6279 135.56 46.2479 136.2 47.0079 136.64C47.7879 137.08 48.6079 137.3 49.4679 137.3C50.3479 137.3 51.1679 137.08 51.9279 136.64C52.7079 136.18 53.3279 135.52 53.7879 134.66C54.2679 133.8 54.5079 132.8 54.5079 131.66ZM87.0129 119.15V140H83.5929V130.88H73.7829V140H70.3629V119.15H73.7829V128.09H83.5929V119.15H87.0129ZM107.265 131.33C107.265 131.95 107.225 132.51 107.145 133.01H94.5152C94.6152 134.33 95.1052 135.39 95.9852 136.19C96.8652 136.99 97.9452 137.39 99.2252 137.39C101.065 137.39 102.365 136.62 103.125 135.08H106.815C106.315 136.6 105.405 137.85 104.085 138.83C102.785 139.79 101.165 140.27 99.2252 140.27C97.6452 140.27 96.2252 139.92 94.9652 139.22C93.7252 138.5 92.7452 137.5 92.0252 136.22C91.3252 134.92 90.9752 133.42 90.9752 131.72C90.9752 130.02 91.3152 128.53 91.9952 127.25C92.6952 125.95 93.6652 124.95 94.9052 124.25C96.1652 123.55 97.6052 123.2 99.2252 123.2C100.785 123.2 102.175 123.54 103.395 124.22C104.615 124.9 105.565 125.86 106.245 127.1C106.925 128.32 107.265 129.73 107.265 131.33ZM103.695 130.25C103.675 128.99 103.225 127.98 102.345 127.22C101.465 126.46 100.375 126.08 99.0752 126.08C97.8952 126.08 96.8852 126.46 96.0452 127.22C95.2052 127.96 94.7052 128.97 94.5452 130.25H103.695ZM110.091 131.66C110.091 130 110.431 128.53 111.111 127.25C111.811 125.97 112.751 124.98 113.931 124.28C115.131 123.56 116.451 123.2 117.891 123.2C119.191 123.2 120.321 123.46 121.281 123.98C122.261 124.48 123.041 125.11 123.621 125.87V123.47H127.071V140H123.621V137.54C123.041 138.32 122.251 138.97 121.251 139.49C120.251 140.01 119.111 140.27 117.831 140.27C116.411 140.27 115.111 139.91 113.931 139.19C112.751 138.45 111.811 137.43 111.111 136.13C110.431 134.81 110.091 133.32 110.091 131.66ZM123.621 131.72C123.621 130.58 123.381 129.59 122.901 128.75C122.441 127.91 121.831 127.27 121.071 126.83C120.311 126.39 119.491 126.17 118.611 126.17C117.731 126.17 116.911 126.39 116.151 126.83C115.391 127.25 114.771 127.88 114.291 128.72C113.831 129.54 113.601 130.52 113.601 131.66C113.601 132.8 113.831 133.8 114.291 134.66C114.771 135.52 115.391 136.18 116.151 136.64C116.931 137.08 117.751 137.3 118.611 137.3C119.491 137.3 120.311 137.08 121.071 136.64C121.831 136.2 122.441 135.56 122.901 134.72C123.381 133.86 123.621 132.86 123.621 131.72ZM131.023 131.66C131.023 130 131.363 128.53 132.043 127.25C132.743 125.97 133.683 124.98 134.863 124.28C136.063 123.56 137.393 123.2 138.853 123.2C139.933 123.2 140.993 123.44 142.033 123.92C143.093 124.38 143.933 125 144.553 125.78V117.8H148.003V140H144.553V137.51C143.993 138.31 143.213 138.97 142.213 139.49C141.233 140.01 140.103 140.27 138.823 140.27C137.383 140.27 136.063 139.91 134.863 139.19C133.683 138.45 132.743 137.43 132.043 136.13C131.363 134.81 131.023 133.32 131.023 131.66ZM144.553 131.72C144.553 130.58 144.313 129.59 143.833 128.75C143.373 127.91 142.763 127.27 142.003 126.83C141.243 126.39 140.423 126.17 139.543 126.17C138.663 126.17 137.843 126.39 137.083 126.83C136.323 127.25 135.703 127.88 135.223 128.72C134.763 129.54 134.533 130.52 134.533 131.66C134.533 132.8 134.763 133.8 135.223 134.66C135.703 135.52 136.323 136.18 137.083 136.64C137.863 137.08 138.683 137.3 139.543 137.3C140.423 137.3 141.243 137.08 142.003 136.64C142.763 136.2 143.373 135.56 143.833 134.72C144.313 133.86 144.553 132.86 144.553 131.72ZM154.835 121.28C154.215 121.28 153.695 121.07 153.275 120.65C152.855 120.23 152.645 119.71 152.645 119.09C152.645 118.47 152.855 117.95 153.275 117.53C153.695 117.11 154.215 116.9 154.835 116.9C155.435 116.9 155.945 117.11 156.365 117.53C156.785 117.95 156.995 118.47 156.995 119.09C156.995 119.71 156.785 120.23 156.365 120.65C155.945 121.07 155.435 121.28 154.835 121.28ZM156.515 123.47V140H153.095V123.47H156.515ZM169.945 123.2C171.245 123.2 172.405 123.47 173.425 124.01C174.465 124.55 175.275 125.35 175.855 126.41C176.435 127.47 176.725 128.75 176.725 130.25V140H173.335V130.76C173.335 129.28 172.965 128.15 172.225 127.37C171.485 126.57 170.475 126.17 169.195 126.17C167.915 126.17 166.895 126.57 166.135 127.37C165.395 128.15 165.025 129.28 165.025 130.76V140H161.605V123.47H165.025V125.36C165.585 124.68 166.295 124.15 167.155 123.77C168.035 123.39 168.965 123.2 169.945 123.2ZM188.348 123.2C189.628 123.2 190.758 123.46 191.738 123.98C192.738 124.48 193.518 125.11 194.078 125.87V123.47H197.528V140.27C197.528 141.79 197.208 143.14 196.568 144.32C195.928 145.52 194.998 146.46 193.778 147.14C192.578 147.82 191.138 148.16 189.458 148.16C187.218 148.16 185.358 147.63 183.878 146.57C182.398 145.53 181.558 144.11 181.358 142.31H184.748C185.008 143.17 185.558 143.86 186.398 144.38C187.258 144.92 188.278 145.19 189.458 145.19C190.838 145.19 191.948 144.77 192.788 143.93C193.648 143.09 194.078 141.87 194.078 140.27V137.51C193.498 138.29 192.708 138.95 191.708 139.49C190.728 140.01 189.608 140.27 188.348 140.27C186.908 140.27 185.588 139.91 184.388 139.19C183.208 138.45 182.268 137.43 181.568 136.13C180.888 134.81 180.548 133.32 180.548 131.66C180.548 130 180.888 128.53 181.568 127.25C182.268 125.97 183.208 124.98 184.388 124.28C185.588 123.56 186.908 123.2 188.348 123.2ZM194.078 131.72C194.078 130.58 193.838 129.59 193.358 128.75C192.898 127.91 192.288 127.27 191.528 126.83C190.768 126.39 189.948 126.17 189.068 126.17C188.188 126.17 187.368 126.39 186.608 126.83C185.848 127.25 185.228 127.88 184.748 128.72C184.288 129.54 184.058 130.52 184.058 131.66C184.058 132.8 184.288 133.8 184.748 134.66C185.228 135.52 185.848 136.18 186.608 136.64C187.388 137.08 188.208 137.3 189.068 137.3C189.948 137.3 190.768 137.08 191.528 136.64C192.288 136.2 192.898 135.56 193.358 134.72C193.838 133.86 194.078 132.86 194.078 131.72ZM223.702 127.7V130.58H211.372V127.7H223.702ZM237.044 123.53C237.164 121.67 237.874 120.22 239.174 119.18C240.494 118.14 242.174 117.62 244.214 117.62C245.614 117.62 246.824 117.87 247.844 118.37C248.864 118.87 249.634 119.55 250.154 120.41C250.674 121.27 250.934 122.24 250.934 123.32C250.934 124.56 250.604 125.62 249.944 126.5C249.284 127.38 248.494 127.97 247.574 128.27V128.39C248.754 128.75 249.674 129.41 250.334 130.37C250.994 131.31 251.324 132.52 251.324 134C251.324 135.18 251.054 136.23 250.514 137.15C249.974 138.07 249.174 138.8 248.114 139.34C247.054 139.86 245.784 140.12 244.304 140.12C242.144 140.12 240.364 139.57 238.964 138.47C237.584 137.35 236.844 135.75 236.744 133.67H240.044C240.124 134.73 240.534 135.6 241.274 136.28C242.014 136.94 243.014 137.27 244.274 137.27C245.494 137.27 246.434 136.94 247.094 136.28C247.754 135.6 248.084 134.73 248.084 133.67C248.084 132.27 247.634 131.28 246.734 130.7C245.854 130.1 244.494 129.8 242.654 129.8H241.874V126.98H242.684C244.304 126.96 245.534 126.69 246.374 126.17C247.234 125.65 247.664 124.83 247.664 123.71C247.664 122.75 247.354 121.99 246.734 121.43C246.114 120.85 245.234 120.56 244.094 120.56C242.974 120.56 242.104 120.85 241.484 121.43C240.864 121.99 240.494 122.69 240.374 123.53H237.044ZM255.517 128.78C255.517 125.32 256.097 122.62 257.257 120.68C258.437 118.72 260.457 117.74 263.317 117.74C266.177 117.74 268.187 118.72 269.347 120.68C270.527 122.62 271.117 125.32 271.117 128.78C271.117 132.28 270.527 135.02 269.347 137C268.187 138.96 266.177 139.94 263.317 139.94C260.457 139.94 258.437 138.96 257.257 137C256.097 135.02 255.517 132.28 255.517 128.78ZM267.757 128.78C267.757 127.16 267.647 125.79 267.427 124.67C267.227 123.55 266.807 122.64 266.167 121.94C265.527 121.22 264.577 120.86 263.317 120.86C262.057 120.86 261.107 121.22 260.467 121.94C259.827 122.64 259.397 123.55 259.177 124.67C258.977 125.79 258.877 127.16 258.877 128.78C258.877 130.46 258.977 131.87 259.177 133.01C259.377 134.15 259.797 135.07 260.437 135.77C261.097 136.47 262.057 136.82 263.317 136.82C264.577 136.82 265.527 136.47 266.167 135.77C266.827 135.07 267.257 134.15 267.457 133.01C267.657 131.87 267.757 130.46 267.757 128.78ZM279.206 125.9C279.786 125.14 280.576 124.5 281.576 123.98C282.576 123.46 283.706 123.2 284.966 123.2C286.406 123.2 287.716 123.56 288.896 124.28C290.096 124.98 291.036 125.97 291.716 127.25C292.396 128.53 292.736 130 292.736 131.66C292.736 133.32 292.396 134.81 291.716 136.13C291.036 137.43 290.096 138.45 288.896 139.19C287.716 139.91 286.406 140.27 284.966 140.27C283.706 140.27 282.586 140.02 281.606 139.52C280.626 139 279.826 138.36 279.206 137.6V147.86H275.786V123.47H279.206V125.9ZM289.256 131.66C289.256 130.52 289.016 129.54 288.536 128.72C288.076 127.88 287.456 127.25 286.676 126.83C285.916 126.39 285.096 126.17 284.216 126.17C283.356 126.17 282.536 126.39 281.756 126.83C280.996 127.27 280.376 127.91 279.896 128.75C279.436 129.59 279.206 130.58 279.206 131.72C279.206 132.86 279.436 133.86 279.896 134.72C280.376 135.56 280.996 136.2 281.756 136.64C282.536 137.08 283.356 137.3 284.216 137.3C285.096 137.3 285.916 137.08 286.676 136.64C287.456 136.18 288.076 135.52 288.536 134.66C289.016 133.8 289.256 132.8 289.256 131.66ZM303.798 131.63L309.138 140H305.268L301.698 134.39L298.338 140H294.768L300.108 131.87L294.768 123.47H298.638L302.208 129.08L305.568 123.47H309.138L303.798 131.63Z" fill="white"/>
<path d="M393.076 66.002C391.507 66.002 390.267 66.526 389.355 67.5742C388.451 68.6159 387.998 70.0449 387.998 71.8613C387.998 73.7298 388.434 75.1751 389.307 76.1973C390.186 77.2129 391.436 77.7207 393.057 77.7207C394.053 77.7207 395.189 77.5417 396.465 77.1836V78.6387C395.475 79.0098 394.255 79.1953 392.803 79.1953C390.7 79.1953 389.076 78.5573 387.93 77.2812C386.79 76.0052 386.221 74.1921 386.221 71.8418C386.221 70.3704 386.494 69.0814 387.041 67.9746C387.594 66.8678 388.389 66.015 389.424 65.416C390.465 64.8171 391.689 64.5176 393.096 64.5176C394.593 64.5176 395.902 64.791 397.021 65.3379L396.318 66.7637C395.238 66.2559 394.157 66.002 393.076 66.002ZM408.555 79L406.777 74.459H401.055L399.297 79H397.617L403.262 64.6641H404.658L410.273 79H408.555ZM406.26 72.9648L404.6 68.541C404.385 67.9811 404.163 67.2943 403.936 66.4805C403.792 67.1055 403.587 67.7923 403.32 68.541L401.641 72.9648H406.26ZM421.289 68.8828C421.289 70.3281 420.794 71.4414 419.805 72.2227C418.822 72.9974 417.412 73.3848 415.576 73.3848H413.896V79H412.236V64.7227H415.938C419.505 64.7227 421.289 66.1094 421.289 68.8828ZM413.896 71.959H415.391C416.862 71.959 417.926 71.7214 418.584 71.2461C419.242 70.7708 419.57 70.0091 419.57 68.9609C419.57 68.0169 419.261 67.3138 418.643 66.8516C418.024 66.3893 417.061 66.1582 415.752 66.1582H413.896V71.959ZM428.682 79H427.021V66.1973H422.5V64.7227H433.203V66.1973H428.682V79ZM435.361 79V64.7227H437.021V79H435.361ZM453.34 71.8418C453.34 74.127 452.76 75.9238 451.602 77.2324C450.449 78.541 448.844 79.1953 446.787 79.1953C444.684 79.1953 443.06 78.554 441.914 77.2715C440.775 75.9824 440.205 74.166 440.205 71.8223C440.205 69.498 440.778 67.6979 441.924 66.4219C443.07 65.1393 444.697 64.498 446.807 64.498C448.857 64.498 450.459 65.1491 451.611 66.4512C452.764 67.7533 453.34 69.5501 453.34 71.8418ZM441.963 71.8418C441.963 73.7754 442.373 75.2435 443.193 76.2461C444.02 77.2422 445.218 77.7402 446.787 77.7402C448.369 77.7402 449.564 77.2422 450.371 76.2461C451.178 75.25 451.582 73.7819 451.582 71.8418C451.582 69.9212 451.178 68.4661 450.371 67.4766C449.57 66.4805 448.382 65.9824 446.807 65.9824C445.225 65.9824 444.02 66.4837 443.193 67.4863C442.373 68.4824 441.963 69.9342 441.963 71.8418ZM467.686 79H465.791L457.988 67.0176H457.91C458.014 68.4238 458.066 69.7129 458.066 70.8848V79H456.533V64.7227H458.408L466.191 76.6562H466.27C466.257 76.4805 466.227 75.9173 466.182 74.9668C466.136 74.0098 466.12 73.3262 466.133 72.916V64.7227H467.686V79ZM475.664 74.3809V72.8965H480.459V74.3809H475.664ZM496.846 79H487.461V77.6035L491.221 73.8242C492.367 72.6654 493.122 71.8385 493.486 71.3438C493.851 70.849 494.124 70.3672 494.307 69.8984C494.489 69.4297 494.58 68.9251 494.58 68.3848C494.58 67.623 494.349 67.0208 493.887 66.5781C493.424 66.1289 492.783 65.9043 491.963 65.9043C491.37 65.9043 490.807 66.002 490.273 66.1973C489.746 66.3926 489.157 66.7474 488.506 67.2617L487.646 66.1582C488.962 65.0645 490.394 64.5176 491.943 64.5176C493.285 64.5176 494.336 64.8626 495.098 65.5527C495.859 66.2363 496.24 67.1576 496.24 68.3164C496.24 69.2214 495.986 70.1165 495.479 71.002C494.971 71.8874 494.02 73.0072 492.627 74.3613L489.502 77.418V77.4961H496.846V79ZM508.369 71.8418C508.369 74.3092 507.979 76.1517 507.197 77.3691C506.423 78.5866 505.234 79.1953 503.633 79.1953C502.096 79.1953 500.928 78.5736 500.127 77.3301C499.326 76.0801 498.926 74.2507 498.926 71.8418C498.926 69.3548 499.313 67.5091 500.088 66.3047C500.863 65.1003 502.044 64.498 503.633 64.498C505.182 64.498 506.357 65.1263 507.158 66.3828C507.965 67.6393 508.369 69.459 508.369 71.8418ZM500.566 71.8418C500.566 73.9186 500.811 75.4323 501.299 76.3828C501.787 77.3268 502.565 77.7988 503.633 77.7988C504.714 77.7988 505.495 77.3203 505.977 76.3633C506.465 75.3997 506.709 73.8926 506.709 71.8418C506.709 69.791 506.465 68.2904 505.977 67.3398C505.495 66.3828 504.714 65.9043 503.633 65.9043C502.565 65.9043 501.787 66.3763 501.299 67.3203C500.811 68.2578 500.566 69.765 500.566 71.8418ZM516.074 79.1953C515.378 79.1953 514.74 79.0684 514.16 78.8145C513.587 78.554 513.105 78.1569 512.715 77.623H512.598C512.676 78.248 512.715 78.8405 512.715 79.4004V83.8047H511.094V68.2969H512.412L512.637 69.7617H512.715C513.132 69.1758 513.617 68.7526 514.17 68.4922C514.723 68.2318 515.358 68.1016 516.074 68.1016C517.493 68.1016 518.587 68.5866 519.355 69.5566C520.13 70.5267 520.518 71.8874 520.518 73.6387C520.518 75.3965 520.124 76.7637 519.336 77.7402C518.555 78.7103 517.467 79.1953 516.074 79.1953ZM515.84 69.4785C514.746 69.4785 513.955 69.7812 513.467 70.3867C512.979 70.9922 512.728 71.9557 512.715 73.2773V73.6387C512.715 75.1426 512.965 76.2201 513.467 76.8711C513.968 77.5156 514.772 77.8379 515.879 77.8379C516.803 77.8379 517.526 77.4635 518.047 76.7148C518.574 75.9661 518.838 74.9342 518.838 73.6191C518.838 72.2845 518.574 71.2624 518.047 70.5527C517.526 69.8366 516.79 69.4785 515.84 69.4785ZM525.938 73.5215L522.217 68.2969H524.062L526.885 72.3984L529.697 68.2969H531.523L527.803 73.5215L531.719 79H529.883L526.885 74.6641L523.857 79H522.021L525.938 73.5215ZM398.359 104.725C398.359 107.081 397.718 108.885 396.436 110.135C395.16 111.378 393.32 112 390.918 112H386.963V97.7227H391.338C393.558 97.7227 395.283 98.3379 396.514 99.5684C397.744 100.799 398.359 102.518 398.359 104.725ZM396.602 104.783C396.602 102.921 396.133 101.518 395.195 100.574C394.264 99.6302 392.878 99.1582 391.035 99.1582H388.623V110.564H390.645C392.624 110.564 394.111 110.079 395.107 109.109C396.104 108.133 396.602 106.691 396.602 104.783ZM405.83 112.195C404.248 112.195 402.998 111.714 402.08 110.75C401.169 109.786 400.713 108.449 400.713 106.736C400.713 105.011 401.136 103.641 401.982 102.625C402.835 101.609 403.978 101.102 405.41 101.102C406.751 101.102 407.812 101.544 408.594 102.43C409.375 103.309 409.766 104.471 409.766 105.916V106.941H402.393C402.425 108.198 402.741 109.152 403.34 109.803C403.945 110.454 404.795 110.779 405.889 110.779C407.041 110.779 408.18 110.538 409.307 110.057V111.502C408.734 111.749 408.19 111.925 407.676 112.029C407.168 112.14 406.553 112.195 405.83 112.195ZM405.391 102.459C404.531 102.459 403.844 102.739 403.33 103.299C402.822 103.859 402.523 104.633 402.432 105.623H408.027C408.027 104.601 407.799 103.82 407.344 103.279C406.888 102.732 406.237 102.459 405.391 102.459ZM419.443 109.08C419.443 110.076 419.072 110.844 418.33 111.385C417.588 111.925 416.546 112.195 415.205 112.195C413.786 112.195 412.679 111.971 411.885 111.521V110.018C412.399 110.278 412.949 110.483 413.535 110.633C414.128 110.783 414.697 110.857 415.244 110.857C416.09 110.857 416.742 110.724 417.197 110.457C417.653 110.184 417.881 109.77 417.881 109.217C417.881 108.8 417.699 108.445 417.334 108.152C416.976 107.853 416.273 107.501 415.225 107.098C414.229 106.727 413.519 106.404 413.096 106.131C412.679 105.851 412.367 105.535 412.158 105.184C411.956 104.832 411.855 104.412 411.855 103.924C411.855 103.051 412.21 102.365 412.92 101.863C413.63 101.355 414.603 101.102 415.84 101.102C416.992 101.102 418.118 101.336 419.219 101.805L418.643 103.123C417.568 102.68 416.595 102.459 415.723 102.459C414.954 102.459 414.375 102.579 413.984 102.82C413.594 103.061 413.398 103.393 413.398 103.816C413.398 104.103 413.47 104.347 413.613 104.549C413.763 104.751 414.001 104.943 414.326 105.125C414.652 105.307 415.277 105.571 416.201 105.916C417.471 106.378 418.327 106.844 418.77 107.312C419.219 107.781 419.443 108.37 419.443 109.08ZM426.367 112.195C424.818 112.195 423.617 111.72 422.764 110.77C421.917 109.812 421.494 108.462 421.494 106.717C421.494 104.926 421.924 103.543 422.783 102.566C423.649 101.59 424.88 101.102 426.475 101.102C426.989 101.102 427.503 101.157 428.018 101.268C428.532 101.378 428.936 101.508 429.229 101.658L428.73 103.035C428.372 102.892 427.982 102.775 427.559 102.684C427.135 102.586 426.761 102.537 426.436 102.537C424.261 102.537 423.174 103.924 423.174 106.697C423.174 108.012 423.438 109.021 423.965 109.725C424.499 110.428 425.286 110.779 426.328 110.779C427.22 110.779 428.135 110.587 429.072 110.203V111.639C428.356 112.01 427.454 112.195 426.367 112.195ZM436.504 101.102C436.979 101.102 437.406 101.141 437.783 101.219L437.559 102.723C437.116 102.625 436.725 102.576 436.387 102.576C435.521 102.576 434.779 102.928 434.16 103.631C433.548 104.334 433.242 105.21 433.242 106.258V112H431.621V101.297H432.959L433.145 103.279H433.223C433.62 102.583 434.098 102.046 434.658 101.668C435.218 101.29 435.833 101.102 436.504 101.102ZM441.406 112H439.785V101.297H441.406V112ZM439.648 98.3965C439.648 98.0254 439.74 97.7552 439.922 97.5859C440.104 97.4102 440.332 97.3223 440.605 97.3223C440.866 97.3223 441.09 97.4102 441.279 97.5859C441.468 97.7617 441.562 98.0319 441.562 98.3965C441.562 98.7611 441.468 99.0345 441.279 99.2168C441.09 99.3926 440.866 99.4805 440.605 99.4805C440.332 99.4805 440.104 99.3926 439.922 99.2168C439.74 99.0345 439.648 98.7611 439.648 98.3965ZM449.824 112.195C449.128 112.195 448.49 112.068 447.91 111.814C447.337 111.554 446.855 111.157 446.465 110.623H446.348C446.426 111.248 446.465 111.84 446.465 112.4V116.805H444.844V101.297H446.162L446.387 102.762H446.465C446.882 102.176 447.367 101.753 447.92 101.492C448.473 101.232 449.108 101.102 449.824 101.102C451.243 101.102 452.337 101.587 453.105 102.557C453.88 103.527 454.268 104.887 454.268 106.639C454.268 108.396 453.874 109.764 453.086 110.74C452.305 111.71 451.217 112.195 449.824 112.195ZM449.59 102.479C448.496 102.479 447.705 102.781 447.217 103.387C446.729 103.992 446.478 104.956 446.465 106.277V106.639C446.465 108.143 446.715 109.22 447.217 109.871C447.718 110.516 448.522 110.838 449.629 110.838C450.553 110.838 451.276 110.464 451.797 109.715C452.324 108.966 452.588 107.934 452.588 106.619C452.588 105.285 452.324 104.262 451.797 103.553C451.276 102.837 450.54 102.479 449.59 102.479ZM460.566 110.857C460.853 110.857 461.13 110.838 461.396 110.799C461.663 110.753 461.875 110.708 462.031 110.662V111.902C461.855 111.987 461.595 112.055 461.25 112.107C460.911 112.166 460.605 112.195 460.332 112.195C458.262 112.195 457.227 111.105 457.227 108.924V102.557H455.693V101.775L457.227 101.102L457.91 98.8164H458.848V101.297H461.953V102.557H458.848V108.855C458.848 109.5 459.001 109.995 459.307 110.34C459.613 110.685 460.033 110.857 460.566 110.857ZM465.801 112H464.18V101.297H465.801V112ZM464.043 98.3965C464.043 98.0254 464.134 97.7552 464.316 97.5859C464.499 97.4102 464.727 97.3223 465 97.3223C465.26 97.3223 465.485 97.4102 465.674 97.5859C465.863 97.7617 465.957 98.0319 465.957 98.3965C465.957 98.7611 465.863 99.0345 465.674 99.2168C465.485 99.3926 465.26 99.4805 465 99.4805C464.727 99.4805 464.499 99.3926 464.316 99.2168C464.134 99.0345 464.043 98.7611 464.043 98.3965ZM478.477 106.639C478.477 108.383 478.037 109.747 477.158 110.73C476.279 111.707 475.065 112.195 473.516 112.195C472.559 112.195 471.709 111.971 470.967 111.521C470.225 111.072 469.652 110.428 469.248 109.588C468.844 108.748 468.643 107.765 468.643 106.639C468.643 104.894 469.079 103.536 469.951 102.566C470.824 101.59 472.035 101.102 473.584 101.102C475.081 101.102 476.27 101.6 477.148 102.596C478.034 103.592 478.477 104.939 478.477 106.639ZM470.322 106.639C470.322 108.006 470.596 109.048 471.143 109.764C471.689 110.48 472.493 110.838 473.555 110.838C474.616 110.838 475.42 110.483 475.967 109.773C476.52 109.057 476.797 108.012 476.797 106.639C476.797 105.278 476.52 104.246 475.967 103.543C475.42 102.833 474.609 102.479 473.535 102.479C472.474 102.479 471.673 102.827 471.133 103.523C470.592 104.22 470.322 105.258 470.322 106.639ZM488.652 112V105.076C488.652 104.204 488.454 103.553 488.057 103.123C487.66 102.693 487.038 102.479 486.191 102.479C485.072 102.479 484.251 102.781 483.73 103.387C483.21 103.992 482.949 104.992 482.949 106.385V112H481.328V101.297H482.646L482.91 102.762H482.988C483.32 102.234 483.786 101.827 484.385 101.541C484.984 101.248 485.651 101.102 486.387 101.102C487.676 101.102 488.646 101.414 489.297 102.039C489.948 102.658 490.273 103.65 490.273 105.018V112H488.652ZM497.91 107.381V105.896H502.705V107.381H497.91ZM519.092 112H509.707V110.604L513.467 106.824C514.613 105.665 515.368 104.839 515.732 104.344C516.097 103.849 516.37 103.367 516.553 102.898C516.735 102.43 516.826 101.925 516.826 101.385C516.826 100.623 516.595 100.021 516.133 99.5781C515.671 99.1289 515.029 98.9043 514.209 98.9043C513.617 98.9043 513.053 99.002 512.52 99.1973C511.992 99.3926 511.403 99.7474 510.752 100.262L509.893 99.1582C511.208 98.0645 512.64 97.5176 514.189 97.5176C515.531 97.5176 516.582 97.8626 517.344 98.5527C518.105 99.2363 518.486 100.158 518.486 101.316C518.486 102.221 518.232 103.117 517.725 104.002C517.217 104.887 516.266 106.007 514.873 107.361L511.748 110.418V110.496H519.092V112ZM530.615 104.842C530.615 107.309 530.225 109.152 529.443 110.369C528.669 111.587 527.48 112.195 525.879 112.195C524.342 112.195 523.174 111.574 522.373 110.33C521.572 109.08 521.172 107.251 521.172 104.842C521.172 102.355 521.559 100.509 522.334 99.3047C523.109 98.1003 524.29 97.498 525.879 97.498C527.428 97.498 528.604 98.1263 529.404 99.3828C530.212 100.639 530.615 102.459 530.615 104.842ZM522.812 104.842C522.812 106.919 523.057 108.432 523.545 109.383C524.033 110.327 524.811 110.799 525.879 110.799C526.96 110.799 527.741 110.32 528.223 109.363C528.711 108.4 528.955 106.893 528.955 104.842C528.955 102.791 528.711 101.29 528.223 100.34C527.741 99.3828 526.96 98.9043 525.879 98.9043C524.811 98.9043 524.033 99.3763 523.545 100.32C523.057 101.258 522.812 102.765 522.812 104.842ZM543.516 112.195C542.819 112.195 542.181 112.068 541.602 111.814C541.029 111.554 540.547 111.157 540.156 110.623H540.039C540.117 111.248 540.156 111.84 540.156 112.4V116.805H538.535V101.297H539.854L540.078 102.762H540.156C540.573 102.176 541.058 101.753 541.611 101.492C542.165 101.232 542.799 101.102 543.516 101.102C544.935 101.102 546.029 101.587 546.797 102.557C547.572 103.527 547.959 104.887 547.959 106.639C547.959 108.396 547.565 109.764 546.777 110.74C545.996 111.71 544.909 112.195 543.516 112.195ZM543.281 102.479C542.188 102.479 541.396 102.781 540.908 103.387C540.42 103.992 540.169 104.956 540.156 106.277V106.639C540.156 108.143 540.407 109.22 540.908 109.871C541.41 110.516 542.214 110.838 543.32 110.838C544.245 110.838 544.967 110.464 545.488 109.715C546.016 108.966 546.279 107.934 546.279 106.619C546.279 105.285 546.016 104.262 545.488 103.553C544.967 102.837 544.232 102.479 543.281 102.479ZM553.379 106.521L549.658 101.297H551.504L554.326 105.398L557.139 101.297H558.965L555.244 106.521L559.16 112H557.324L554.326 107.664L551.299 112H549.463L553.379 106.521ZM391.816 135.256C392.221 135.32 392.589 135.485 392.92 135.752C393.261 136.019 393.528 136.349 393.72 136.744C393.923 137.139 394.024 137.56 394.024 138.008C394.024 138.573 393.88 139.085 393.592 139.544C393.304 139.992 392.883 140.349 392.328 140.616C391.784 140.872 391.139 141 390.392 141H386.232V129.848H390.232C390.989 129.848 391.635 129.976 392.168 130.232C392.701 130.477 393.101 130.813 393.368 131.24C393.635 131.667 393.768 132.147 393.768 132.68C393.768 133.341 393.587 133.891 393.224 134.328C392.872 134.755 392.403 135.064 391.816 135.256ZM387.688 134.664H390.136C390.819 134.664 391.347 134.504 391.72 134.184C392.093 133.864 392.28 133.421 392.28 132.856C392.28 132.291 392.093 131.848 391.72 131.528C391.347 131.208 390.808 131.048 390.104 131.048H387.688V134.664ZM390.264 139.8C390.989 139.8 391.555 139.629 391.96 139.288C392.365 138.947 392.568 138.472 392.568 137.864C392.568 137.245 392.355 136.76 391.928 136.408C391.501 136.045 390.931 135.864 390.216 135.864H387.688V139.8H390.264ZM403.821 132.232V141H402.365V139.704C402.087 140.152 401.698 140.504 401.197 140.76C400.706 141.005 400.162 141.128 399.565 141.128C398.882 141.128 398.269 140.989 397.725 140.712C397.181 140.424 396.749 139.997 396.429 139.432C396.119 138.867 395.965 138.179 395.965 137.368V132.232H397.405V137.176C397.405 138.04 397.623 138.707 398.061 139.176C398.498 139.635 399.095 139.864 399.853 139.864C400.631 139.864 401.245 139.624 401.693 139.144C402.141 138.664 402.365 137.965 402.365 137.048V132.232H403.821ZM408.055 133.432V138.6C408.055 139.027 408.146 139.331 408.327 139.512C408.508 139.683 408.823 139.768 409.271 139.768H410.343V141H409.031C408.22 141 407.612 140.813 407.207 140.44C406.802 140.067 406.599 139.453 406.599 138.6V133.432H405.463V132.232H406.599V130.024H408.055V132.232H410.343V133.432H408.055ZM413.883 133.432V138.6C413.883 139.027 413.974 139.331 414.155 139.512C414.336 139.683 414.651 139.768 415.099 139.768H416.171V141H414.859C414.048 141 413.44 140.813 413.035 140.44C412.63 140.067 412.427 139.453 412.427 138.6V133.432H411.291V132.232H412.427V130.024H413.883V132.232H416.171V133.432H413.883ZM421.759 141.144C420.938 141.144 420.191 140.957 419.519 140.584C418.858 140.211 418.335 139.683 417.951 139C417.578 138.307 417.391 137.507 417.391 136.6C417.391 135.704 417.583 134.915 417.967 134.232C418.362 133.539 418.895 133.011 419.567 132.648C420.239 132.275 420.991 132.088 421.823 132.088C422.655 132.088 423.407 132.275 424.079 132.648C424.751 133.011 425.279 133.533 425.663 134.216C426.058 134.899 426.255 135.693 426.255 136.6C426.255 137.507 426.052 138.307 425.647 139C425.252 139.683 424.714 140.211 424.031 140.584C423.348 140.957 422.591 141.144 421.759 141.144ZM421.759 139.864C422.282 139.864 422.772 139.741 423.231 139.496C423.69 139.251 424.058 138.883 424.335 138.392C424.623 137.901 424.767 137.304 424.767 136.6C424.767 135.896 424.628 135.299 424.351 134.808C424.074 134.317 423.711 133.955 423.263 133.72C422.815 133.475 422.33 133.352 421.807 133.352C421.274 133.352 420.783 133.475 420.335 133.72C419.898 133.955 419.546 134.317 419.279 134.808C419.012 135.299 418.879 135.896 418.879 136.6C418.879 137.315 419.007 137.917 419.263 138.408C419.53 138.899 419.882 139.267 420.319 139.512C420.756 139.747 421.236 139.864 421.759 139.864ZM432.442 132.072C433.508 132.072 434.372 132.397 435.034 133.048C435.695 133.688 436.026 134.616 436.026 135.832V141H434.586V136.04C434.586 135.165 434.367 134.499 433.93 134.04C433.492 133.571 432.895 133.336 432.138 133.336C431.37 133.336 430.756 133.576 430.298 134.056C429.85 134.536 429.626 135.235 429.626 136.152V141H428.17V132.232H429.626V133.48C429.914 133.032 430.303 132.685 430.794 132.44C431.295 132.195 431.844 132.072 432.442 132.072ZM448.75 134.52V135.752H442.366V134.52H448.75ZM455.124 130.76V129.432H458.132V141H456.66V130.76H455.124ZM467.081 132.184C466.846 131 466.115 130.408 464.889 130.408C463.939 130.408 463.23 130.776 462.761 131.512C462.291 132.237 462.062 133.437 462.073 135.112C462.318 134.557 462.723 134.125 463.289 133.816C463.865 133.496 464.505 133.336 465.209 133.336C466.307 133.336 467.182 133.677 467.833 134.36C468.494 135.043 468.825 135.987 468.825 137.192C468.825 137.917 468.681 138.568 468.393 139.144C468.115 139.72 467.689 140.179 467.113 140.52C466.547 140.861 465.859 141.032 465.049 141.032C463.95 141.032 463.091 140.787 462.473 140.296C461.854 139.805 461.422 139.128 461.177 138.264C460.931 137.4 460.809 136.333 460.809 135.064C460.809 131.149 462.174 129.192 464.905 129.192C465.95 129.192 466.771 129.475 467.369 130.04C467.966 130.605 468.318 131.32 468.425 132.184H467.081ZM464.905 134.568C464.446 134.568 464.014 134.664 463.609 134.856C463.203 135.037 462.873 135.32 462.617 135.704C462.371 136.077 462.249 136.536 462.249 137.08C462.249 137.891 462.483 138.552 462.953 139.064C463.422 139.565 464.094 139.816 464.969 139.816C465.715 139.816 466.307 139.587 466.745 139.128C467.193 138.659 467.417 138.029 467.417 137.24C467.417 136.408 467.203 135.757 466.777 135.288C466.35 134.808 465.726 134.568 464.905 134.568ZM476.751 133.848C477.039 133.347 477.465 132.931 478.031 132.6C478.607 132.259 479.273 132.088 480.031 132.088C480.809 132.088 481.513 132.275 482.142 132.648C482.782 133.021 483.284 133.549 483.647 134.232C484.009 134.904 484.191 135.688 484.191 136.584C484.191 137.469 484.009 138.259 483.647 138.952C483.284 139.645 482.782 140.184 482.142 140.568C481.513 140.952 480.809 141.144 480.031 141.144C479.284 141.144 478.623 140.979 478.047 140.648C477.481 140.307 477.049 139.885 476.751 139.384V145.16H475.295V132.232H476.751V133.848ZM482.703 136.584C482.703 135.923 482.569 135.347 482.303 134.856C482.036 134.365 481.673 133.992 481.215 133.736C480.767 133.48 480.271 133.352 479.727 133.352C479.193 133.352 478.697 133.485 478.239 133.752C477.791 134.008 477.428 134.387 477.151 134.888C476.884 135.379 476.751 135.949 476.751 136.6C476.751 137.261 476.884 137.843 477.151 138.344C477.428 138.835 477.791 139.213 478.239 139.48C478.697 139.736 479.193 139.864 479.727 139.864C480.271 139.864 480.767 139.736 481.215 139.48C481.673 139.213 482.036 138.835 482.303 138.344C482.569 137.843 482.703 137.256 482.703 136.584ZM490.683 141L488.603 137.736L486.603 141H485.083L487.915 136.648L485.083 132.232H486.731L488.811 135.48L490.795 132.232H492.315L489.499 136.568L492.331 141H490.683ZM387.174 163H386.178V154.434H390.953V155.318H387.174V158.453H390.725V159.338H387.174V163ZM397.773 159.783C397.773 160.83 397.51 161.648 396.982 162.238C396.455 162.824 395.727 163.117 394.797 163.117C394.223 163.117 393.713 162.982 393.268 162.713C392.822 162.443 392.479 162.057 392.236 161.553C391.994 161.049 391.873 160.459 391.873 159.783C391.873 158.736 392.135 157.922 392.658 157.34C393.182 156.754 393.908 156.461 394.838 156.461C395.736 156.461 396.449 156.76 396.977 157.357C397.508 157.955 397.773 158.764 397.773 159.783ZM392.881 159.783C392.881 160.604 393.045 161.229 393.373 161.658C393.701 162.088 394.184 162.303 394.82 162.303C395.457 162.303 395.939 162.09 396.268 161.664C396.6 161.234 396.766 160.607 396.766 159.783C396.766 158.967 396.6 158.348 396.268 157.926C395.939 157.5 395.453 157.287 394.809 157.287C394.172 157.287 393.691 157.496 393.367 157.914C393.043 158.332 392.881 158.955 392.881 159.783ZM405.027 159.783C405.027 160.83 404.764 161.648 404.236 162.238C403.709 162.824 402.98 163.117 402.051 163.117C401.477 163.117 400.967 162.982 400.521 162.713C400.076 162.443 399.732 162.057 399.49 161.553C399.248 161.049 399.127 160.459 399.127 159.783C399.127 158.736 399.389 157.922 399.912 157.34C400.436 156.754 401.162 156.461 402.092 156.461C402.99 156.461 403.703 156.76 404.23 157.357C404.762 157.955 405.027 158.764 405.027 159.783ZM400.135 159.783C400.135 160.604 400.299 161.229 400.627 161.658C400.955 162.088 401.438 162.303 402.074 162.303C402.711 162.303 403.193 162.09 403.521 161.664C403.854 161.234 404.02 160.607 404.02 159.783C404.02 158.967 403.854 158.348 403.521 157.926C403.193 157.5 402.707 157.287 402.062 157.287C401.426 157.287 400.945 157.496 400.621 157.914C400.297 158.332 400.135 158.955 400.135 159.783ZM408.812 162.314C408.984 162.314 409.15 162.303 409.311 162.279C409.471 162.252 409.598 162.225 409.691 162.197V162.941C409.586 162.992 409.43 163.033 409.223 163.064C409.02 163.1 408.836 163.117 408.672 163.117C407.43 163.117 406.809 162.463 406.809 161.154V157.334H405.889V156.865L406.809 156.461L407.219 155.09H407.781V156.578H409.645V157.334H407.781V161.113C407.781 161.5 407.873 161.797 408.057 162.004C408.24 162.211 408.492 162.314 408.812 162.314ZM413.693 163.117C412.744 163.117 411.994 162.828 411.443 162.25C410.896 161.672 410.623 160.869 410.623 159.842C410.623 158.807 410.877 157.984 411.385 157.375C411.896 156.766 412.582 156.461 413.441 156.461C414.246 156.461 414.883 156.727 415.352 157.258C415.82 157.785 416.055 158.482 416.055 159.35V159.965H411.631C411.65 160.719 411.84 161.291 412.199 161.682C412.562 162.072 413.072 162.268 413.729 162.268C414.42 162.268 415.104 162.123 415.779 161.834V162.701C415.436 162.85 415.109 162.955 414.801 163.018C414.496 163.084 414.127 163.117 413.693 163.117ZM413.43 157.275C412.914 157.275 412.502 157.443 412.193 157.779C411.889 158.115 411.709 158.58 411.654 159.174H415.012C415.012 158.561 414.875 158.092 414.602 157.768C414.328 157.439 413.938 157.275 413.43 157.275ZM420.648 156.461C420.934 156.461 421.189 156.484 421.416 156.531L421.281 157.434C421.016 157.375 420.781 157.346 420.578 157.346C420.059 157.346 419.613 157.557 419.242 157.979C418.875 158.4 418.691 158.926 418.691 159.555V163H417.719V156.578H418.521L418.633 157.768H418.68C418.918 157.35 419.205 157.027 419.541 156.801C419.877 156.574 420.246 156.461 420.648 156.461ZM425.195 160.229V159.338H428.072V160.229H425.195ZM435.877 163H434.928V156.895C434.928 156.387 434.943 155.906 434.975 155.453C434.893 155.535 434.801 155.621 434.699 155.711C434.598 155.801 434.133 156.182 433.305 156.854L432.789 156.186L435.057 154.434H435.877V163ZM444.771 163H439.141V162.162L441.396 159.895C442.084 159.199 442.537 158.703 442.756 158.406C442.975 158.109 443.139 157.82 443.248 157.539C443.357 157.258 443.412 156.955 443.412 156.631C443.412 156.174 443.273 155.812 442.996 155.547C442.719 155.277 442.334 155.143 441.842 155.143C441.486 155.143 441.148 155.201 440.828 155.318C440.512 155.436 440.158 155.648 439.768 155.957L439.252 155.295C440.041 154.639 440.9 154.311 441.83 154.311C442.635 154.311 443.266 154.518 443.723 154.932C444.18 155.342 444.408 155.895 444.408 156.59C444.408 157.133 444.256 157.67 443.951 158.201C443.646 158.732 443.076 159.404 442.24 160.217L440.365 162.051V162.098H444.771V163ZM452.559 163.117C452.141 163.117 451.758 163.041 451.41 162.889C451.066 162.732 450.777 162.494 450.543 162.174H450.473C450.52 162.549 450.543 162.904 450.543 163.24V165.883H449.57V156.578H450.361L450.496 157.457H450.543C450.793 157.105 451.084 156.852 451.416 156.695C451.748 156.539 452.129 156.461 452.559 156.461C453.41 156.461 454.066 156.752 454.527 157.334C454.992 157.916 455.225 158.732 455.225 159.783C455.225 160.838 454.988 161.658 454.516 162.244C454.047 162.826 453.395 163.117 452.559 163.117ZM452.418 157.287C451.762 157.287 451.287 157.469 450.994 157.832C450.701 158.195 450.551 158.773 450.543 159.566V159.783C450.543 160.686 450.693 161.332 450.994 161.723C451.295 162.109 451.777 162.303 452.441 162.303C452.996 162.303 453.43 162.078 453.742 161.629C454.059 161.18 454.217 160.561 454.217 159.771C454.217 158.971 454.059 158.357 453.742 157.932C453.43 157.502 452.988 157.287 452.418 157.287ZM458.477 159.713L456.244 156.578H457.352L459.045 159.039L460.732 156.578H461.828L459.596 159.713L461.945 163H460.844L459.045 160.398L457.229 163H456.127L458.477 159.713Z" fill="white"/>
</svg>
