<svg fill="none" height="166" viewBox="0 0 750 166" width="750" xmlns="http://www.w3.org/2000/svg"><g fill="#fff"><path d="m17.91 18.72c0 1.22-.28 2.34-.84 3.36-.56 1-1.42 1.81-2.58 2.43s-2.6.93-4.32.93h-3.18v7.56h-5.13v-21.06h8.31c1.68 0 3.1.29 4.26.87s2.03 1.38 2.61 2.4.87 2.19.87 3.51zm-8.13 2.64c.98 0 1.71-.23 2.19-.69s.72-1.11.72-1.95-.24-1.49-.72-1.95-1.21-.69-2.19-.69h-2.79v5.28zm19.0207 11.88c-1.64 0-3.12-.35-4.44-1.05-1.3-.7-2.33-1.7-3.09-3-.74-1.3-1.11-2.82-1.11-4.56 0-1.72.38-3.23 1.14-4.53.76-1.32 1.8-2.33 3.12-3.03s2.8-1.05 4.44-1.05 3.12.35 4.44 1.05 2.36 1.71 3.12 3.03c.76 1.3 1.14 2.81 1.14 4.53s-.39 3.24-1.17 4.56c-.76 1.3-1.81 2.3-3.15 3-1.32.7-2.8 1.05-4.44 1.05zm0-4.44c.98 0 1.81-.36 2.49-1.08.7-.72 1.05-1.75 1.05-3.09s-.34-2.37-1.02-3.09c-.66-.72-1.48-1.08-2.46-1.08-1 0-1.83.36-2.49 1.08-.66.7-.99 1.73-.99 3.09 0 1.34.32 2.37.96 3.09.66.72 1.48 1.08 2.46 1.08zm17.2116-10.17c.5-.78 1.19-1.41 2.07-1.89s1.91-.72 3.09-.72c1.38 0 2.63.35 3.75 1.05s2 1.7 2.64 3c.66 1.3.99 2.81.99 4.53s-.33 3.24-.99 4.56c-.64 1.3-1.52 2.31-2.64 3.03-1.12.7-2.37 1.05-3.75 1.05-1.16 0-2.19-.24-3.09-.72-.88-.48-1.57-1.1-2.07-1.86v10.32h-5.13v-24.72h5.13zm7.32 5.97c0-1.28-.36-2.28-1.08-3-.7-.74-1.57-1.11-2.61-1.11-1.02 0-1.89.37-2.61 1.11-.7.74-1.05 1.75-1.05 3.03s.35 2.29 1.05 3.03c.72.74 1.59 1.11 2.61 1.11s1.89-.37 2.61-1.11c.72-.76 1.08-1.78 1.08-3.06zm13.6413-5.97c.5-.78 1.19-1.41 2.07-1.89s1.91-.72 3.09-.72c1.38 0 2.63.35 3.75 1.05s2 1.7 2.64 3c.66 1.3.99 2.81.99 4.53s-.33 3.24-.99 4.56c-.64 1.3-1.52 2.31-2.64 3.03-1.12.7-2.37 1.05-3.75 1.05-1.16 0-2.19-.24-3.09-.72-.88-.48-1.57-1.1-2.07-1.86v10.32h-5.13v-24.72h5.13zm7.32 5.97c0-1.28-.36-2.28-1.08-3-.7-.74-1.57-1.11-2.61-1.11-1.02 0-1.89.37-2.61 1.11-.7.74-1.05 1.75-1.05 3.03s.35 2.29 1.05 3.03c.72.74 1.59 1.11 2.61 1.11s1.89-.37 2.61-1.11c.72-.76 1.08-1.78 1.08-3.06zm11.0913-10.08c-.9 0-1.64-.26-2.22-.78-.56-.54-.84-1.2-.84-1.98 0-.8.28-1.46.84-1.98.58-.54 1.32-.81 2.22-.81.88 0 1.6.27 2.16.81.58.52.87 1.18.87 1.98 0 .78-.29 1.44-.87 1.98-.56.52-1.28.78-2.16.78zm2.55 1.74v16.74h-5.13v-16.74zm14.5181-.18c1.96 0 3.52.64 4.68 1.92 1.18 1.26 1.77 3 1.77 5.22v9.78h-5.1v-9.09c0-1.12-.29-1.99-.87-2.61s-1.36-.93-2.34-.93c-.9804 0-1.7604.31-2.3404.93s-.87 1.49-.87 2.61v9.09h-5.13v-16.74h5.13v2.22c.52-.74 1.22-1.32 2.1-1.74.8804-.44 1.8704-.66 2.9704-.66zm17.424 17.16c-1.46 0-2.76-.25-3.9-.75s-2.04-1.18-2.7-2.04c-.66-.88-1.03-1.86-1.11-2.94h5.07c.06.58.33 1.05.81 1.41s1.07.54 1.77.54c.64 0 1.13-.12 1.47-.36.36-.26.54-.59.54-.99 0-.48-.25-.83-.75-1.05-.5-.24-1.31-.5-2.43-.78-1.2-.28-2.2-.57-3-.87-.8-.32-1.49-.81-2.07-1.47-.58-.68-.87-1.59-.87-2.73 0-.96.26-1.83.78-2.61.54-.8 1.32-1.43 2.34-1.89 1.04-.46 2.27-.69 3.69-.69 2.1 0 3.75.52 4.95 1.56 1.22 1.04 1.92 2.42 2.1 4.14h-4.74c-.08-.58-.34-1.04-.78-1.38-.42-.34-.98-.51-1.68-.51-.6 0-1.06.12-1.38.36-.32.22-.48.53-.48.93 0 .48.25.84.75 1.08.52.24 1.32.48 2.4.72 1.24.32 2.25.64 3.03.96.78.3 1.46.8 2.04 1.5.6.68.91 1.6.93 2.76 0 .98-.28 1.86-.84 2.64-.54.76-1.33 1.36-2.37 1.8-1.02.44-2.21.66-3.57.66z"/><path d="m406.533 21.2627c0 3.4277-.869 6.123-2.607 8.0859-1.729 1.9629-4.136 2.9444-7.222 2.9444-3.154 0-5.591-.9619-7.309-2.8858-1.709-1.9336-2.564-4.6582-2.564-8.1738 0-3.4863.859-6.1865 2.578-8.1006 1.719-1.9238 4.16-2.8857 7.324-2.8857 3.077 0 5.479.9765 7.207 2.9297 1.729 1.9531 2.593 4.6484 2.593 8.0859zm-17.065 0c0 2.9004.615 5.1025 1.845 6.6064 1.241 1.4942 3.038 2.2413 5.391 2.2413 2.373 0 4.165-.7471 5.376-2.2413 1.211-1.4941 1.816-3.6962 1.816-6.6064 0-2.8809-.605-5.0635-1.816-6.5479-1.201-1.4941-2.983-2.2412-5.347-2.2412-2.373 0-4.179.752-5.42 2.2559-1.23 1.4941-1.845 3.6719-1.845 6.5332zm28.96 11.0303c-1.045 0-2.002-.1905-2.871-.5713-.86-.3906-1.582-.9863-2.168-1.7871h-.176c.117.9375.176 1.8261.176 2.666v6.6064h-2.432v-23.2617h1.978l.336 2.1973h.118c.625-.8789 1.352-1.5137 2.182-1.9043s1.783-.586 2.857-.586c2.129 0 3.769.7276 4.922 2.1827 1.162 1.455 1.743 3.4961 1.743 6.123 0 2.6367-.591 4.6875-1.773 6.1524-1.172 1.455-2.802 2.1826-4.892 2.1826zm-.352-14.5752c-1.64 0-2.827.4541-3.559 1.3623-.733.9082-1.109 2.3535-1.128 4.3359v.542c0 2.2559.376 3.8721 1.128 4.8486.752.9668 1.958 1.4502 3.618 1.4502 1.386 0 2.47-.5615 3.252-1.6845.791-1.1231 1.186-2.6709 1.186-4.6436 0-2.0019-.395-3.5351-1.186-4.5996-.782-1.0742-1.885-1.6113-3.311-1.6113zm18.062 14.5752c-2.373 0-4.248-.7227-5.625-2.168-1.367-1.4453-2.051-3.4521-2.051-6.0205 0-2.5879.635-4.6436 1.904-6.167 1.28-1.5234 2.993-2.2852 5.142-2.2852 2.012 0 3.603.6641 4.775 1.9922 1.172 1.3184 1.758 3.0616 1.758 5.2295v1.5381h-11.06c.049 1.8848.523 3.3154 1.421 4.292.909.9766 2.183 1.4648 3.824 1.4648 1.728 0 3.437-.3613 5.127-1.0839v2.1679c-.86.3711-1.675.6348-2.447.791-.761.1661-1.684.2491-2.768.2491zm-.659-14.6045c-1.29 0-2.32.4199-3.091 1.2597-.762.8399-1.211 2.002-1.348 3.4864h8.394c0-1.5332-.342-2.7051-1.026-3.5157-.683-.8203-1.66-1.2304-2.929-1.2304zm21.709 14.3115v-10.3857c0-1.3086-.298-2.2852-.894-2.9297-.596-.6446-1.528-.9668-2.798-.9668-1.68 0-2.91.4541-3.691 1.3623-.782.9082-1.172 2.4072-1.172 4.497v8.4229h-2.432v-16.0547h1.978l.395 2.1973h.117c.498-.791 1.197-1.4014 2.095-1.8311.899-.4394 1.9-.6592 3.003-.6592 1.934 0 3.389.4688 4.365 1.4063.977.9277 1.465 2.417 1.465 4.4678v10.4736zm27.685-5.6982c0 1.8847-.684 3.3544-2.051 4.4091s-3.222 1.5821-5.566 1.5821c-2.539 0-4.492-.3272-5.86-.9815v-2.4023c.879.3711 1.836.664 2.872.8789 1.035.2148 2.06.3223 3.076.3223 1.66 0 2.91-.3125 3.75-.9375.84-.6348 1.26-1.5137 1.26-2.6368 0-.7422-.152-1.3476-.455-1.8164-.293-.4785-.791-.9179-1.494-1.3183-.693-.4004-1.753-.8545-3.178-1.3623-1.993-.7129-3.418-1.5577-4.278-2.5342-.849-.9766-1.274-2.251-1.274-3.8233 0-1.6504.62-2.9638 1.86-3.9404s2.881-1.4648 4.922-1.4648c2.129 0 4.087.3906 5.874 1.1718l-.776 2.168c-1.768-.7422-3.487-1.1133-5.157-1.1133-1.318 0-2.348.2832-3.09.8496-.743.5664-1.114 1.3526-1.114 2.3584 0 .7422.137 1.3526.41 1.8311.274.4687.733.9033 1.377 1.3037.655.3906 1.651.8252 2.989 1.3037 2.246.8008 3.789 1.6602 4.629 2.5781.849.918 1.274 2.1094 1.274 3.5743zm13.887 5.6982-.484-2.2852h-.117c-.801 1.0059-1.601 1.6895-2.402 2.0508-.791.3516-1.782.5274-2.974.5274-1.592 0-2.842-.4102-3.75-1.2305-.898-.8203-1.347-1.9873-1.347-3.501 0-3.2422 2.592-4.9414 7.778-5.0976l2.724-.0879v-.9961c0-1.2598-.273-2.1875-.82-2.7832-.537-.6055-1.401-.9082-2.593-.9082-1.337 0-2.851.4101-4.541 1.2304l-.747-1.8603c.791-.4297 1.656-.7666 2.593-1.0107.947-.2442 1.895-.3663 2.842-.3663 1.914 0 3.33.4248 4.248 1.2745.928.8496 1.392 2.2119 1.392 4.0869v10.957zm-5.493-1.7139c1.513 0 2.7-.415 3.559-1.2451.869-.8301 1.304-1.9922 1.304-3.4863v-1.4502l-2.432.1025c-1.933.0684-3.33.3711-4.189.9082-.85.5274-1.275 1.3526-1.275 2.4756 0 .8789.264 1.5479.791 2.0069.537.4589 1.285.6884 2.242.6884zm23.305 1.7139v-10.3857c0-1.3086-.298-2.2852-.893-2.9297-.596-.6446-1.529-.9668-2.798-.9668-1.68 0-2.91.4541-3.692 1.3623-.781.9082-1.171 2.4072-1.171 4.497v8.4229h-2.432v-16.0547h1.977l.396 2.1973h.117c.498-.791 1.196-1.4014 2.095-1.8311.898-.4394 1.899-.6592 3.003-.6592 1.933 0 3.388.4688 4.365 1.4063.977.9277 1.465 2.417 1.465 4.4678v10.4736zm17.798-4.3799c0 1.4942-.557 2.6465-1.67 3.457-1.113.8106-2.676 1.2159-4.687 1.2159-2.129 0-3.789-.3369-4.981-1.0108v-2.2558c.772.3906 1.597.6982 2.476.9228.888.2246 1.743.3369 2.563.3369 1.27 0 2.246-.2002 2.93-.6006.684-.4101 1.025-1.0302 1.025-1.8603 0-.625-.273-1.1572-.82-1.5967-.537-.4492-1.592-.9765-3.164-1.582-1.494-.5567-2.559-1.0401-3.193-1.4502-.625-.4199-1.094-.8936-1.407-1.4209-.302-.5274-.454-1.1572-.454-1.8897 0-1.3086.533-2.3388 1.597-3.0908 1.064-.7617 2.524-1.1426 4.38-1.1426 1.728 0 3.418.3516 5.068 1.0547l-.864 1.9776c-1.611-.6641-3.071-.9961-4.38-.9961-1.152 0-2.021.1806-2.607.542-.586.3613-.879.8593-.879 1.4941 0 .4297.107.7959.322 1.0986.225.3028.581.5909 1.069.8643.489.2734 1.426.6689 2.813 1.1865 1.904.6934 3.188 1.3916 3.852 2.0948.674.7031 1.011 1.5869 1.011 2.6513z"/><path d="m20.1 68.94v21.06h-5.13v-8.67h-7.98v8.67h-5.13v-21.06h5.13v8.25h7.98v-8.25zm20.0834 12.42c0 .48-.03.98-.09 1.5h-11.61c.08 1.04.41 1.84.99 2.4.6.54 1.33.81 2.19.81 1.28 0 2.17-.54 2.67-1.62h5.46c-.28 1.1-.79 2.09-1.53 2.97-.72.88-1.63 1.57-2.73 2.07s-2.33.75-3.69.75c-1.64 0-3.1-.35-4.38-1.05s-2.28-1.7-3-3-1.08-2.82-1.08-4.56.35-3.26 1.05-4.56c.72-1.3 1.72-2.3 3-3s2.75-1.05 4.41-1.05c1.62 0 3.06.34 4.32 1.02s2.24 1.65 2.94 2.91c.72 1.26 1.08 2.73 1.08 4.41zm-5.25-1.35c0-.88-.3-1.58-.9-2.1s-1.35-.78-2.25-.78c-.86 0-1.59.25-2.19.75-.58.5-.94 1.21-1.08 2.13zm7.5363 1.59c0-1.72.32-3.23.96-4.53.66-1.3 1.55-2.3 2.67-3s2.37-1.05 3.75-1.05c1.18 0 2.21.24 3.09.72.9.48 1.59 1.11 2.07 1.89v-2.37h5.13v16.74h-5.13v-2.37c-.5.78-1.2 1.41-2.1 1.89-.88.48-1.91.72-3.09.72-1.36 0-2.6-.35-3.72-1.05-1.12-.72-2.01-1.73-2.67-3.03-.64-1.32-.96-2.84-.96-4.56zm12.54.03c0-1.28-.36-2.29-1.08-3.03-.7-.74-1.56-1.11-2.58-1.11s-1.89.37-2.61 1.11c-.7.72-1.05 1.72-1.05 3s.35 2.3 1.05 3.06c.72.74 1.59 1.11 2.61 1.11s1.88-.37 2.58-1.11c.72-.74 1.08-1.75 1.08-3.03zm8.4213-.03c0-1.72.32-3.23.96-4.53.66-1.3 1.55-2.3 2.67-3s2.37-1.05 3.75-1.05c1.1 0 2.1.23 3 .69.92.46 1.64 1.08 2.16 1.86v-7.77h5.13v22.2h-5.13v-2.4c-.48.8-1.17 1.44-2.07 1.92-.88.48-1.91.72-3.09.72-1.38 0-2.63-.35-3.75-1.05-1.12-.72-2.01-1.73-2.67-3.03-.64-1.32-.96-2.84-.96-4.56zm12.54.03c0-1.28-.36-2.29-1.08-3.03-.7-.74-1.56-1.11-2.58-1.11s-1.89.37-2.61 1.11c-.7.72-1.05 1.72-1.05 3s.35 2.3 1.05 3.06c.72.74 1.59 1.11 2.61 1.11s1.88-.37 2.58-1.11c.72-.74 1.08-1.75 1.08-3.03zm12.0213-10.11c-.9 0-1.64-.26-2.22-.78-.56-.54-.84-1.2-.84-1.98 0-.8.28-1.46.84-1.98.58-.54 1.32-.81 2.22-.81.88 0 1.6.27 2.16.81.58.52.87 1.18.87 1.98 0 .78-.29 1.44-.87 1.98-.56.52-1.28.78-2.16.78zm2.55 1.74v16.74h-5.13v-16.74zm14.5177-.18c1.96 0 3.52.64 4.68 1.92 1.18 1.26 1.77 3 1.77 5.22v9.78h-5.1v-9.09c0-1.12-.29-1.99-.87-2.61s-1.36-.93-2.34-.93-1.76.31-2.34.93-.87 1.49-.87 2.61v9.09h-5.13v-16.74h5.13v2.22c.52-.74 1.22-1.32 2.1-1.74.88-.44 1.87-.66 2.97-.66zm16.975-.06c1.18 0 2.21.24 3.09.72.9.48 1.59 1.11 2.07 1.89v-2.37h5.13v16.71c0 1.54-.31 2.93-.93 4.17-.6 1.26-1.53 2.26-2.79 3-1.24.74-2.79 1.11-4.65 1.11-2.48 0-4.49-.59-6.03-1.77-1.54-1.16-2.42-2.74-2.64-4.74h5.07c.16.64.54 1.14 1.14 1.5.6.38 1.34.57 2.22.57 1.06 0 1.9-.31 2.52-.93.64-.6.96-1.57.96-2.91v-2.37c-.5.78-1.19 1.42-2.07 1.92-.88.48-1.91.72-3.09.72-1.38 0-2.63-.35-3.75-1.05-1.12-.72-2.01-1.73-2.67-3.03-.64-1.32-.96-2.84-.96-4.56s.32-3.23.96-4.53c.66-1.3 1.55-2.3 2.67-3s2.37-1.05 3.75-1.05zm5.16 8.61c0-1.28-.36-2.29-1.08-3.03-.7-.74-1.56-1.11-2.58-1.11s-1.89.37-2.61 1.11c-.7.72-1.05 1.72-1.05 3s.35 2.3 1.05 3.06c.72.74 1.59 1.11 2.61 1.11s1.88-.37 2.58-1.11c.72-.74 1.08-1.75 1.08-3.03zm29.299-4.29v4.26h-13.2v-4.26zm11.729-3.06c.08-2.14.78-3.79 2.1-4.95s3.11-1.74 5.37-1.74c1.5 0 2.78.26 3.84.78 1.08.52 1.89 1.23 2.43 2.13.56.9.84 1.91.84 3.03 0 1.32-.33 2.4-.99 3.24-.66.82-1.43 1.38-2.31 1.68v.12c1.14.38 2.04 1.01 2.7 1.89s.99 2.01.99 3.39c0 1.24-.29 2.34-.87 3.3-.56.94-1.39 1.68-2.49 2.22-1.08.54-2.37.81-3.87.81-2.4 0-4.32-.59-5.76-1.77-1.42-1.18-2.17-2.96-2.25-5.34h4.98c.02.88.27 1.58.75 2.1.48.5 1.18.75 2.1.75.78 0 1.38-.22 1.8-.66.44-.46.66-1.06.66-1.8 0-.96-.31-1.65-.93-2.07-.6-.44-1.57-.66-2.91-.66h-.96v-4.17h.96c1.02 0 1.84-.17 2.46-.51.64-.36.96-.99.96-1.89 0-.72-.2-1.28-.6-1.68s-.95-.6-1.65-.6c-.76 0-1.33.23-1.71.69-.36.46-.57 1.03-.63 1.71zm18.584 4.47c0-3.44.66-6.15 1.98-8.13 1.34-1.98 3.49-2.97 6.45-2.97s5.1.99 6.42 2.97c1.34 1.98 2.01 4.69 2.01 8.13 0 3.48-.67 6.21-2.01 8.19-1.32 1.98-3.46 2.97-6.42 2.97s-5.11-.99-6.45-2.97c-1.32-1.98-1.98-4.71-1.98-8.19zm11.82 0c0-2.02-.22-3.57-.66-4.65-.44-1.1-1.35-1.65-2.73-1.65s-2.29.55-2.73 1.65c-.44 1.08-.66 2.63-.66 4.65 0 1.36.08 2.49.24 3.39.16.88.48 1.6.96 2.16.5.54 1.23.81 2.19.81s1.68-.27 2.16-.81c.5-.56.83-1.28.99-2.16.16-.9.24-2.03.24-3.39zm20.948-3.12c.5-.78 1.19-1.41 2.07-1.89s1.91-.72 3.09-.72c1.38 0 2.63.35 3.75 1.05s2 1.7 2.64 3c.66 1.3.99 2.81.99 4.53s-.33 3.24-.99 4.56c-.64 1.3-1.52 2.31-2.64 3.03-1.12.7-2.37 1.05-3.75 1.05-1.16 0-2.19-.24-3.09-.72-.88-.48-1.57-1.1-2.07-1.86v10.32h-5.13v-24.72h5.13zm7.32 5.97c0-1.28-.36-2.28-1.08-3-.7-.74-1.57-1.11-2.61-1.11-1.02 0-1.89.37-2.61 1.11-.7.74-1.05 1.75-1.05 3.03s.35 2.29 1.05 3.03c.72.74 1.59 1.11 2.61 1.11s1.89-.37 2.61-1.11c.72-.76 1.08-1.78 1.08-3.06zm18.411 8.4-3.21-4.65-2.7 4.65h-5.55l5.52-8.55-5.67-8.19h5.76l3.21 4.62 2.7-4.62h5.55l-5.61 8.43 5.76 8.31zm-236.186 50.21c-1.4 0-2.66-.24-3.78-.72-1.12-.5-2-1.2-2.64-2.1s-.96-1.95-.96-3.15h3.66c.08.9.43 1.64 1.05 2.22.64.58 1.53.87 2.67.87 1.18 0 2.1-.28 2.76-.84.66-.58.99-1.32.99-2.22 0-.7-.21-1.27-.63-1.71-.4-.44-.91-.78-1.53-1.02-.6-.24-1.44-.5-2.52-.78-1.36-.36-2.47-.72-3.33-1.08-.84-.38-1.56-.96-2.16-1.74s-.9-1.82-.9-3.12c0-1.2.3-2.25.9-3.15s1.44-1.59 2.52-2.07 2.33-.72 3.75-.72c2.02 0 3.67.51 4.95 1.53 1.3 1 2.02 2.38 2.16 4.14h-3.78c-.06-.76-.42-1.41-1.08-1.95s-1.53-.81-2.61-.81c-.98 0-1.78.25-2.4.75s-.93 1.22-.93 2.16c0 .64.19 1.17.57 1.59.4.4.9.72 1.5.96s1.42.5 2.46.78c1.38.38 2.5.76 3.36 1.14.88.38 1.62.97 2.22 1.77.62.78.93 1.83.93 3.15 0 1.06-.29 2.06-.87 3-.56.94-1.39 1.7-2.49 2.28-1.08.56-2.36.84-3.84.84zm26.8055-16.74v16.53h-3.42v-1.95c-.54.68-1.25 1.22-2.13 1.62-.86.38-1.78.57-2.76.57-1.3 0-2.47-.27-3.51-.81-1.02-.54-1.83-1.34-2.43-2.4-.58-1.06-.87-2.34-.87-3.84v-9.72h3.39v9.21c0 1.48.37 2.62 1.11 3.42.74.78 1.75 1.17 3.03 1.17s2.29-.39 3.03-1.17c.76-.8 1.14-1.94 1.14-3.42v-9.21zm8.5324 2.46c.58-.8 1.37-1.45 2.37-1.95 1.02-.52 2.15-.78 3.39-.78 1.46 0 2.78.35 3.96 1.05s2.11 1.7 2.79 3c.68 1.28 1.02 2.75 1.02 4.41s-.34 3.15-1.02 4.47c-.68 1.3-1.62 2.32-2.82 3.06-1.18.72-2.49 1.08-3.93 1.08-1.28 0-2.42-.25-3.42-.75-.98-.5-1.76-1.14-2.34-1.92v2.4h-3.42v-22.2h3.42zm10.05 5.73c0-1.14-.24-2.12-.72-2.94-.46-.84-1.08-1.47-1.86-1.89-.76-.44-1.58-.66-2.46-.66-.86 0-1.68.22-2.46.66-.76.44-1.38 1.08-1.86 1.92-.46.84-.69 1.83-.69 2.97s.23 2.14.69 3c.48.84 1.1 1.48 1.86 1.92.78.44 1.6.66 2.46.66.88 0 1.7-.22 2.46-.66.78-.46 1.4-1.12 1.86-1.98.48-.86.72-1.86.72-3zm32.505-12.51v20.85h-3.42v-9.12h-9.81v9.12h-3.42v-20.85h3.42v8.94h9.81v-8.94zm20.2521 12.18c0 .62-.04 1.18-.12 1.68h-12.6298c.1 1.32.59 2.38 1.47 3.18s1.96 1.2 3.24 1.2c1.8398 0 3.1398-.77 3.8998-2.31h3.69c-.5 1.52-1.41 2.77-2.73 3.75-1.3.96-2.92 1.44-4.8598 1.44-1.58 0-3-.35-4.26-1.05-1.24-.72-2.22-1.72-2.94-3-.7-1.3-1.05-2.8-1.05-4.5s.34-3.19 1.02-4.47c.7-1.3 1.67-2.3 2.91-3 1.26-.7 2.7-1.05 4.32-1.05 1.5598 0 2.9498.34 4.1698 1.02s2.17 1.64 2.85 2.88c.68 1.22 1.02 2.63 1.02 4.23zm-3.57-1.08c-.02-1.26-.47-2.27-1.35-3.03s-1.97-1.14-3.2698-1.14c-1.18 0-2.19.38-3.03 1.14-.84.74-1.34 1.75-1.5 3.03zm6.396 1.41c0-1.66.34-3.13 1.02-4.41.7-1.28 1.64-2.27 2.82-2.97 1.2-.72 2.52-1.08 3.96-1.08 1.3 0 2.43.26 3.39.78.98.5 1.76 1.13 2.34 1.89v-2.4h3.45v16.53h-3.45v-2.46c-.58.78-1.37 1.43-2.37 1.95s-2.14.78-3.42.78c-1.42 0-2.72-.36-3.9-1.08-1.18-.74-2.12-1.76-2.82-3.06-.68-1.32-1.02-2.81-1.02-4.47zm13.53.06c0-1.14-.24-2.13-.72-2.97-.46-.84-1.07-1.48-1.83-1.92s-1.58-.66-2.46-.66-1.7.22-2.46.66c-.76.42-1.38 1.05-1.86 1.89-.46.82-.69 1.8-.69 2.94s.23 2.14.69 3c.48.86 1.1 1.52 1.86 1.98.78.44 1.6.66 2.46.66.88 0 1.7-.22 2.46-.66s1.37-1.08 1.83-1.92c.48-.86.72-1.86.72-3zm7.402-.06c0-1.66.34-3.13 1.02-4.41.7-1.28 1.64-2.27 2.82-2.97 1.2-.72 2.53-1.08 3.99-1.08 1.08 0 2.14.24 3.18.72 1.06.46 1.9 1.08 2.52 1.86v-7.98h3.45v22.2h-3.45v-2.49c-.56.8-1.34 1.46-2.34 1.98-.98.52-2.11.78-3.39.78-1.44 0-2.76-.36-3.96-1.08-1.18-.74-2.12-1.76-2.82-3.06-.68-1.32-1.02-2.81-1.02-4.47zm13.53.06c0-1.14-.24-2.13-.72-2.97-.46-.84-1.07-1.48-1.83-1.92s-1.58-.66-2.46-.66-1.7.22-2.46.66c-.76.42-1.38 1.05-1.86 1.89-.46.82-.69 1.8-.69 2.94s.23 2.14.69 3c.48.86 1.1 1.52 1.86 1.98.78.44 1.6.66 2.46.66.88 0 1.7-.22 2.46-.66s1.37-1.08 1.83-1.92c.48-.86.72-1.86.72-3zm10.282-10.44c-.62 0-1.14-.21-1.56-.63s-.63-.94-.63-1.56.21-1.14.63-1.56.94-.63 1.56-.63c.6 0 1.11.21 1.53.63s.63.94.63 1.56-.21 1.14-.63 1.56-.93.63-1.53.63zm1.68 2.19v16.53h-3.42v-16.53zm13.43-.27c1.3 0 2.46.27 3.48.81 1.04.54 1.85 1.34 2.43 2.4s.87 2.34.87 3.84v9.75h-3.39v-9.24c0-1.48-.37-2.61-1.11-3.39-.74-.8-1.75-1.2-3.03-1.2s-2.3.4-3.06 1.2c-.74.78-1.11 1.91-1.11 3.39v9.24h-3.42v-16.53h3.42v1.89c.56-.68 1.27-1.21 2.13-1.59.88-.38 1.81-.57 2.79-.57zm18.403 0c1.28 0 2.41.26 3.39.78 1 .5 1.78 1.13 2.34 1.89v-2.4h3.45v16.8c0 1.52-.32 2.87-.96 4.05-.64 1.2-1.57 2.14-2.79 2.82-1.2.68-2.64 1.02-4.32 1.02-2.24 0-4.1-.53-5.58-1.59-1.48-1.04-2.32-2.46-2.52-4.26h3.39c.26.86.81 1.55 1.65 2.07.86.54 1.88.81 3.06.81 1.38 0 2.49-.42 3.33-1.26.86-.84 1.29-2.06 1.29-3.66v-2.76c-.58.78-1.37 1.44-2.37 1.98-.98.52-2.1.78-3.36.78-1.44 0-2.76-.36-3.96-1.08-1.18-.74-2.12-1.76-2.82-3.06-.68-1.32-1.02-2.81-1.02-4.47s.34-3.13 1.02-4.41c.7-1.28 1.64-2.27 2.82-2.97 1.2-.72 2.52-1.08 3.96-1.08zm5.73 8.52c0-1.14-.24-2.13-.72-2.97-.46-.84-1.07-1.48-1.83-1.92s-1.58-.66-2.46-.66-1.7.22-2.46.66c-.76.42-1.38 1.05-1.86 1.89-.46.82-.69 1.8-.69 2.94s.23 2.14.69 3c.48.86 1.1 1.52 1.86 1.98.78.44 1.6.66 2.46.66.88 0 1.7-.22 2.46-.66s1.37-1.08 1.83-1.92c.48-.86.72-1.86.72-3zm29.624-4.02v2.88h-12.33v-2.88zm13.342-4.17c.12-1.86.83-3.31 2.13-4.35 1.32-1.04 3-1.56 5.04-1.56 1.4 0 2.61.25 3.63.75s1.79 1.18 2.31 2.04.78 1.83.78 2.91c0 1.24-.33 2.3-.99 3.18s-1.45 1.47-2.37 1.77v.12c1.18.36 2.1 1.02 2.76 1.98.66.94.99 2.15.99 3.63 0 1.18-.27 2.23-.81 3.15s-1.34 1.65-2.4 2.19c-1.06.52-2.33.78-3.81.78-2.16 0-3.94-.55-5.34-1.65-1.38-1.12-2.12-2.72-2.22-4.8h3.3c.08 1.06.49 1.93 1.23 2.61.74.66 1.74.99 3 .99 1.22 0 2.16-.33 2.82-.99.66-.68.99-1.55.99-2.61 0-1.4-.45-2.39-1.35-2.97-.88-.6-2.24-.9-4.08-.9h-.78v-2.82h.81c1.62-.02 2.85-.29 3.69-.81.86-.52 1.29-1.34 1.29-2.46 0-.96-.31-1.72-.93-2.28-.62-.58-1.5-.87-2.64-.87-1.12 0-1.99.29-2.61.87-.62.56-.99 1.26-1.11 2.1zm18.473 5.25c0-3.46.58-6.16 1.74-8.1 1.18-1.96 3.2-2.94 6.06-2.94s4.87.98 6.03 2.94c1.18 1.94 1.77 4.64 1.77 8.1 0 3.5-.59 6.24-1.77 8.22-1.16 1.96-3.17 2.94-6.03 2.94s-4.88-.98-6.06-2.94c-1.16-1.98-1.74-4.72-1.74-8.22zm12.24 0c0-1.62-.11-2.99-.33-4.11-.2-1.12-.62-2.03-1.26-2.73-.64-.72-1.59-1.08-2.85-1.08s-2.21.36-2.85 1.08c-.64.7-1.07 1.61-1.29 2.73-.2 1.12-.3 2.49-.3 4.11 0 1.68.1 3.09.3 4.23s.62 2.06 1.26 2.76c.66.7 1.62 1.05 2.88 1.05s2.21-.35 2.85-1.05c.66-.7 1.09-1.62 1.29-2.76s.3-2.55.3-4.23zm11.449-2.88c.58-.76 1.37-1.4 2.37-1.92s2.13-.78 3.39-.78c1.44 0 2.75.36 3.93 1.08 1.2.7 2.14 1.69 2.82 2.97s1.02 2.75 1.02 4.41-.34 3.15-1.02 4.47c-.68 1.3-1.62 2.32-2.82 3.06-1.18.72-2.49 1.08-3.93 1.08-1.26 0-2.38-.25-3.36-.75-.98-.52-1.78-1.16-2.4-1.92v10.26h-3.42v-24.39h3.42zm10.05 5.76c0-1.14-.24-2.12-.72-2.94-.46-.84-1.08-1.47-1.86-1.89-.76-.44-1.58-.66-2.46-.66-.86 0-1.68.22-2.46.66-.76.44-1.38 1.08-1.86 1.92-.46.84-.69 1.83-.69 2.97s.23 2.14.69 3c.48.84 1.1 1.48 1.86 1.92.78.44 1.6.66 2.46.66.88 0 1.7-.22 2.46-.66.78-.46 1.4-1.12 1.86-1.98.48-.86.72-1.86.72-3zm14.542-.03 5.34 8.37h-3.87l-3.57-5.61-3.36 5.61h-3.57l5.34-8.13-5.34-8.4h3.87l3.57 5.61 3.36-5.61h3.57z"/><path d="m393.076 66.002c-1.569 0-2.809.524-3.721 1.5722-.904 1.0417-1.357 2.4707-1.357 4.2871 0 1.8685.436 3.3138 1.309 4.336.879 1.0156 2.129 1.5234 3.75 1.5234.996 0 2.132-.179 3.408-.5371v1.4551c-.99.3711-2.21.5566-3.662.5566-2.103 0-3.727-.638-4.873-1.9141-1.14-1.276-1.709-3.0891-1.709-5.4394 0-1.4714.273-2.7604.82-3.8672.553-1.1068 1.348-1.9596 2.383-2.5586 1.041-.5989 2.265-.8984 3.672-.8984 1.497 0 2.806.2734 3.925.8203l-.703 1.4258c-1.08-.5078-2.161-.7617-3.242-.7617zm15.479 12.998-1.778-4.541h-5.722l-1.758 4.541h-1.68l5.645-14.3359h1.396l5.615 14.3359zm-2.295-6.0352-1.66-4.4238c-.215-.5599-.437-1.2467-.664-2.0605-.144.625-.349 1.3118-.616 2.0605l-1.679 4.4238zm15.029-4.082c0 1.4453-.495 2.5586-1.484 3.3399-.983.7747-2.393 1.1621-4.229 1.1621h-1.68v5.6152h-1.66v-14.2773h3.702c3.567 0 5.351 1.3867 5.351 4.1601zm-7.393 3.0762h1.495c1.471 0 2.535-.2376 3.193-.7129s.986-1.237.986-2.2852c0-.944-.309-1.6471-.927-2.1093-.619-.4623-1.582-.6934-2.891-.6934h-1.856zm14.786 7.041h-1.661v-12.8027h-4.521v-1.4746h10.703v1.4746h-4.521zm6.679 0v-14.2773h1.66v14.2773zm17.979-7.1582c0 2.2852-.58 4.082-1.738 5.3906-1.153 1.3086-2.758 1.9629-4.815 1.9629-2.103 0-3.727-.6413-4.873-1.9238-1.139-1.2891-1.709-3.1055-1.709-5.4492 0-2.3243.573-4.1244 1.719-5.4004 1.146-1.2826 2.773-1.9239 4.883-1.9239 2.05 0 3.652.6511 4.804 1.9532 1.153 1.3021 1.729 3.0989 1.729 5.3906zm-11.377 0c0 1.9336.41 3.4017 1.23 4.4043.827.9961 2.025 1.4941 3.594 1.4941 1.582 0 2.777-.498 3.584-1.4941s1.211-2.4642 1.211-4.4043c0-1.9206-.404-3.3757-1.211-4.3652-.801-.9961-1.989-1.4942-3.564-1.4942-1.582 0-2.787.5013-3.614 1.5039-.82.9961-1.23 2.4479-1.23 4.3555zm25.723 7.1582h-1.895l-7.803-11.9824h-.078c.104 1.4062.156 2.6953.156 3.8672v8.1152h-1.533v-14.2773h1.875l7.783 11.9335h.079c-.013-.1757-.043-.7389-.088-1.6894-.046-.957-.062-1.6406-.049-2.0508v-8.1933h1.553zm7.978-4.6191v-1.4844h4.795v1.4844zm21.182 4.6191h-9.385v-1.3965l3.76-3.7793c1.146-1.1588 1.901-1.9857 2.265-2.4804.365-.4948.638-.9766.821-1.4454.182-.4687.273-.9733.273-1.5136 0-.7618-.231-1.364-.693-1.8067-.463-.4492-1.104-.6738-1.924-.6738-.593 0-1.156.0977-1.69.293-.527.1953-1.116.5501-1.767 1.0644l-.86-1.1035c1.316-1.0937 2.748-1.6406 4.297-1.6406 1.342 0 2.393.345 3.155 1.0351.761.6836 1.142 1.6049 1.142 2.7637 0 .905-.254 1.8001-.761 2.6856-.508.8854-1.459 2.0052-2.852 3.3593l-3.125 3.0567v.0781h7.344zm11.523-7.1582c0 2.4674-.39 4.3099-1.172 5.5273-.774 1.2175-1.963 1.8262-3.564 1.8262-1.537 0-2.705-.6217-3.506-1.8652-.801-1.25-1.201-3.0794-1.201-5.4883 0-2.487.387-4.3327 1.162-5.5371s1.956-1.8067 3.545-1.8067c1.549 0 2.724.6283 3.525 1.8848.807 1.2565 1.211 3.0762 1.211 5.459zm-7.803 0c0 2.0768.245 3.5905.733 4.541.488.944 1.266 1.416 2.334 1.416 1.081 0 1.862-.4785 2.344-1.4355.488-.9636.732-2.4707.732-4.5215s-.244-3.5514-.732-4.502c-.482-.957-1.263-1.4355-2.344-1.4355-1.068 0-1.846.472-2.334 1.416-.488.9375-.733 2.4447-.733 4.5215zm15.508 7.3535c-.696 0-1.334-.1269-1.914-.3808-.573-.2605-1.055-.6576-1.445-1.1915h-.117c.078.625.117 1.2175.117 1.7774v4.4043h-1.621v-15.5078h1.318l.225 1.4648h.078c.417-.5859.902-1.0091 1.455-1.2695s1.188-.3906 1.904-.3906c1.419 0 2.513.485 3.281 1.455.775.9701 1.163 2.3308 1.163 4.0821 0 1.7578-.394 3.125-1.182 4.1015-.781.9701-1.869 1.4551-3.262 1.4551zm-.234-9.7168c-1.094 0-1.885.3027-2.373.9082s-.739 1.569-.752 2.8906v.3614c0 1.5039.25 2.5814.752 3.2324.501.6445 1.305.9668 2.412.9668.924 0 1.647-.3744 2.168-1.1231.527-.7487.791-1.7806.791-3.0957 0-1.3346-.264-2.3567-.791-3.0664-.521-.7161-1.257-1.0742-2.207-1.0742zm10.098 4.043-3.721-5.2246h1.845l2.823 4.1015 2.812-4.1015h1.826l-3.72 5.2246 3.916 5.4785h-1.836l-2.998-4.3359-3.028 4.3359h-1.836zm-127.579 31.2035c0 2.356-.641 4.16-1.923 5.41-1.276 1.243-3.116 1.865-5.518 1.865h-3.955v-14.2773h4.375c2.22 0 3.945.6152 5.176 1.8457 1.23 1.2306 1.845 2.9496 1.845 5.1566zm-1.757.058c0-1.862-.469-3.265-1.407-4.209-.931-.9438-2.317-1.4158-4.16-1.4158h-2.412v11.4058h2.022c1.979 0 3.466-.485 4.462-1.455.997-.976 1.495-2.418 1.495-4.326zm9.228 7.412c-1.582 0-2.832-.481-3.75-1.445-.911-.964-1.367-2.301-1.367-4.014 0-1.725.423-3.095 1.269-4.111.853-1.016 1.996-1.523 3.428-1.523 1.341 0 2.402.442 3.184 1.328.781.879 1.172 2.041 1.172 3.486v1.025h-7.373c.032 1.257.348 2.211.947 2.862.605.651 1.455.976 2.549.976 1.152 0 2.291-.241 3.418-.722v1.445c-.573.247-1.117.423-1.631.527-.508.111-1.123.166-1.846.166zm-.439-9.736c-.86 0-1.547.28-2.061.84-.508.56-.807 1.334-.898 2.324h5.595c0-1.022-.228-1.803-.683-2.344-.456-.547-1.107-.82-1.953-.82zm14.052 6.621c0 .996-.371 1.764-1.113 2.305-.742.54-1.784.81-3.125.81-1.419 0-2.526-.224-3.32-.674v-1.503c.514.26 1.064.465 1.65.615.593.15 1.162.224 1.709.224.846 0 1.498-.133 1.953-.4.456-.273.684-.687.684-1.24 0-.417-.182-.772-.547-1.065-.358-.299-1.061-.651-2.109-1.054-.996-.371-1.706-.694-2.129-.967-.417-.28-.729-.596-.938-.947-.202-.352-.303-.772-.303-1.26 0-.873.355-1.559 1.065-2.061.71-.508 1.683-.761 2.92-.761 1.152 0 2.278.234 3.379.703l-.576 1.318c-1.075-.443-2.048-.664-2.92-.664-.769 0-1.348.12-1.739.361-.39.241-.586.573-.586.996 0 .287.072.531.215.733.15.202.388.394.713.576.326.182.951.446 1.875.791 1.27.462 2.126.928 2.569 1.396.449.469.673 1.058.673 1.768zm6.924 3.115c-1.549 0-2.75-.475-3.603-1.425-.847-.958-1.27-2.308-1.27-4.053 0-1.791.43-3.174 1.289-4.151.866-.976 2.097-1.464 3.692-1.464.514 0 1.028.055 1.543.166.514.11.918.24 1.211.39l-.499 1.377c-.358-.143-.748-.26-1.171-.351-.424-.098-.798-.147-1.123-.147-2.175 0-3.262 1.387-3.262 4.16 0 1.315.264 2.324.791 3.028.534.703 1.321 1.054 2.363 1.054.892 0 1.807-.192 2.744-.576v1.436c-.716.371-1.618.556-2.705.556zm10.137-11.093c.475 0 .902.039 1.279.117l-.224 1.504c-.443-.098-.834-.147-1.172-.147-.866 0-1.608.352-2.227 1.055-.612.703-.918 1.579-.918 2.627v5.742h-1.621v-10.703h1.338l.186 1.982h.078c.397-.696.875-1.233 1.435-1.611s1.175-.566 1.846-.566zm4.902 10.898h-1.621v-10.703h1.621zm-1.758-13.6035c0-.3711.092-.6413.274-.8106.182-.1757.41-.2636.683-.2636.261 0 .485.0879.674.2636.189.1758.283.446.283.8106s-.094.638-.283.8203c-.189.1758-.413.2637-.674.2637-.273 0-.501-.0879-.683-.2637-.182-.1823-.274-.4557-.274-.8203zm10.176 13.7985c-.696 0-1.334-.127-1.914-.381-.573-.26-1.055-.657-1.445-1.191h-.117c.078.625.117 1.217.117 1.777v4.405h-1.621v-15.508h1.318l.225 1.465h.078c.417-.586.902-1.009 1.455-1.27.553-.26 1.188-.39 1.904-.39 1.419 0 2.513.485 3.281 1.455.775.97 1.163 2.33 1.163 4.082 0 1.757-.394 3.125-1.182 4.101-.781.97-1.869 1.455-3.262 1.455zm-.234-9.716c-1.094 0-1.885.302-2.373.908-.488.605-.739 1.569-.752 2.89v.362c0 1.504.25 2.581.752 3.232.501.645 1.305.967 2.412.967.924 0 1.647-.374 2.168-1.123.527-.749.791-1.781.791-3.096 0-1.334-.264-2.357-.791-3.066-.521-.716-1.257-1.074-2.207-1.074zm10.976 8.378c.287 0 .564-.019.83-.058.267-.046.479-.091.635-.137v1.24c-.176.085-.436.153-.781.205-.339.059-.645.088-.918.088-2.07 0-3.105-1.09-3.105-3.271v-6.367h-1.534v-.782l1.534-.673.683-2.2856h.938v2.4806h3.105v1.26h-3.105v6.298c0 .645.153 1.14.459 1.485s.726.517 1.259.517zm5.235 1.143h-1.621v-10.703h1.621zm-1.758-13.6035c0-.3711.091-.6413.273-.8106.183-.1757.411-.2636.684-.2636.26 0 .485.0879.674.2636.189.1758.283.446.283.8106s-.094.638-.283.8203c-.189.1758-.414.2637-.674.2637-.273 0-.501-.0879-.684-.2637-.182-.1823-.273-.4557-.273-.8203zm14.434 8.2425c0 1.744-.44 3.108-1.319 4.091-.879.977-2.093 1.465-3.642 1.465-.957 0-1.807-.224-2.549-.674-.742-.449-1.315-1.093-1.719-1.933s-.605-1.823-.605-2.949c0-1.745.436-3.103 1.308-4.073.873-.976 2.084-1.464 3.633-1.464 1.497 0 2.686.498 3.564 1.494.886.996 1.329 2.343 1.329 4.043zm-8.155 0c0 1.367.274 2.409.821 3.125.546.716 1.35 1.074 2.412 1.074 1.061 0 1.865-.355 2.412-1.065.553-.716.83-1.761.83-3.134 0-1.361-.277-2.393-.83-3.096-.547-.71-1.358-1.064-2.432-1.064-1.061 0-1.862.348-2.402 1.044-.541.697-.811 1.735-.811 3.116zm18.33 5.361v-6.924c0-.872-.198-1.523-.595-1.953s-1.019-.644-1.866-.644c-1.119 0-1.94.302-2.461.908-.52.605-.781 1.605-.781 2.998v5.615h-1.621v-10.703h1.318l.264 1.465h.078c.332-.528.798-.935 1.397-1.221.599-.293 1.266-.439 2.002-.439 1.289 0 2.259.312 2.91.937.651.619.976 1.611.976 2.979v6.982zm9.258-4.619v-1.485h4.795v1.485zm21.182 4.619h-9.385v-1.396l3.76-3.78c1.146-1.159 1.901-1.985 2.265-2.48.365-.495.638-.977.821-1.446.182-.468.273-.973.273-1.513 0-.762-.231-1.364-.693-1.8069-.462-.4492-1.104-.6738-1.924-.6738-.592 0-1.156.0977-1.689.293-.528.1953-1.117.5501-1.768 1.0647l-.859-1.1038c1.315-1.0937 2.747-1.6406 4.296-1.6406 1.342 0 2.393.345 3.155 1.0351.761.6836 1.142 1.6053 1.142 2.7633 0 .905-.254 1.801-.761 2.686-.508.885-1.459 2.005-2.852 3.359l-3.125 3.057v.078h7.344zm11.523-7.158c0 2.467-.39 4.31-1.172 5.527-.774 1.218-1.963 1.826-3.564 1.826-1.537 0-2.705-.621-3.506-1.865-.801-1.25-1.201-3.079-1.201-5.488 0-2.487.387-4.333 1.162-5.5373.775-1.2044 1.956-1.8067 3.545-1.8067 1.549 0 2.725.6283 3.525 1.8848.808 1.2562 1.211 3.0762 1.211 5.4592zm-7.803 0c0 2.077.245 3.59.733 4.541.488.944 1.266 1.416 2.334 1.416 1.081 0 1.862-.479 2.344-1.436.488-.963.732-2.47.732-4.521s-.244-3.552-.732-4.502c-.482-.9572-1.263-1.4357-2.344-1.4357-1.068 0-1.846.472-2.334 1.4157-.488.938-.733 2.445-.733 4.522zm20.704 7.353c-.697 0-1.335-.127-1.914-.381-.573-.26-1.055-.657-1.446-1.191h-.117c.078.625.117 1.217.117 1.777v4.405h-1.621v-15.508h1.319l.224 1.465h.078c.417-.586.902-1.009 1.455-1.27.554-.26 1.188-.39 1.905-.39 1.419 0 2.513.485 3.281 1.455.775.97 1.162 2.33 1.162 4.082 0 1.757-.394 3.125-1.182 4.101-.781.97-1.868 1.455-3.261 1.455zm-.235-9.716c-1.093 0-1.885.302-2.373.908-.488.605-.739 1.569-.752 2.89v.362c0 1.504.251 2.581.752 3.232.502.645 1.306.967 2.412.967.925 0 1.647-.374 2.168-1.123.528-.749.791-1.781.791-3.096 0-1.334-.263-2.357-.791-3.066-.521-.716-1.256-1.074-2.207-1.074zm10.098 4.042-3.721-5.224h1.846l2.822 4.101 2.813-4.101h1.826l-3.721 5.224 3.916 5.479h-1.836l-2.998-4.336-3.027 4.336h-1.836zm-161.563 28.735c.405.064.773.229 1.104.496.341.267.608.597.8.992.203.395.304.816.304 1.264 0 .565-.144 1.077-.432 1.536-.288.448-.709.805-1.264 1.072-.544.256-1.189.384-1.936.384h-4.16v-11.152h4c.757 0 1.403.128 1.936.384.533.245.933.581 1.2 1.008s.4.907.4 1.44c0 .661-.181 1.211-.544 1.648-.352.427-.821.736-1.408.928zm-4.128-.592h2.448c.683 0 1.211-.16 1.584-.48s.56-.763.56-1.328-.187-1.008-.56-1.328-.912-.48-1.616-.48h-2.416zm2.576 5.136c.725 0 1.291-.171 1.696-.512s.608-.816.608-1.424c0-.619-.213-1.104-.64-1.456-.427-.363-.997-.544-1.712-.544h-2.528v3.936zm13.557-7.568v8.768h-1.456v-1.296c-.278.448-.667.8-1.168 1.056-.491.245-1.035.368-1.632.368-.683 0-1.296-.139-1.84-.416-.544-.288-.976-.715-1.296-1.28-.31-.565-.464-1.253-.464-2.064v-5.136h1.44v4.944c0 .864.218 1.531.656 2 .437.459 1.034.688 1.792.688.778 0 1.392-.24 1.84-.72s.672-1.179.672-2.096v-4.816zm4.234 1.2v5.168c0 .427.091.731.272.912.181.171.496.256.944.256h1.072v1.232h-1.312c-.811 0-1.419-.187-1.824-.56s-.608-.987-.608-1.84v-5.168h-1.136v-1.2h1.136v-2.208h1.456v2.208h2.288v1.2zm5.828 0v5.168c0 .427.091.731.272.912.181.171.496.256.944.256h1.072v1.232h-1.312c-.811 0-1.419-.187-1.824-.56s-.608-.987-.608-1.84v-5.168h-1.136v-1.2h1.136v-2.208h1.456v2.208h2.288v1.2zm7.876 7.712c-.821 0-1.568-.187-2.24-.56-.661-.373-1.184-.901-1.568-1.584-.373-.693-.56-1.493-.56-2.4 0-.896.192-1.685.576-2.368.395-.693.928-1.221 1.6-1.584.672-.373 1.424-.56 2.256-.56s1.584.187 2.256.56c.672.363 1.2.885 1.584 1.568.395.683.592 1.477.592 2.384s-.203 1.707-.608 2.4c-.395.683-.933 1.211-1.616 1.584s-1.44.56-2.272.56zm0-1.28c.523 0 1.013-.123 1.472-.368s.827-.613 1.104-1.104c.288-.491.432-1.088.432-1.792s-.139-1.301-.416-1.792-.64-.853-1.088-1.088c-.448-.245-.933-.368-1.456-.368-.533 0-1.024.123-1.472.368-.437.235-.789.597-1.056 1.088s-.4 1.088-.4 1.792c0 .715.128 1.317.384 1.808.267.491.619.859 1.056 1.104.437.235.917.352 1.44.352zm10.683-7.792c1.066 0 1.93.325 2.592.976.661.64.992 1.568.992 2.784v5.168h-1.44v-4.96c0-.875-.219-1.541-.656-2-.438-.469-1.035-.704-1.792-.704-.768 0-1.382.24-1.84.72-.448.48-.672 1.179-.672 2.096v4.848h-1.456v-8.768h1.456v1.248c.288-.448.677-.795 1.168-1.04.501-.245 1.05-.368 1.648-.368zm16.308 2.448v1.232h-6.384v-1.232zm6.374-3.76v-1.328h3.008v11.568h-1.472v-10.24zm11.957 1.424c-.235-1.184-.966-1.776-2.192-1.776-.95 0-1.659.368-2.128 1.104-.47.725-.699 1.925-.688 3.6.245-.555.65-.987 1.216-1.296.576-.32 1.216-.48 1.92-.48 1.098 0 1.973.341 2.624 1.024.661.683.992 1.627.992 2.832 0 .725-.144 1.376-.432 1.952-.278.576-.704 1.035-1.28 1.376-.566.341-1.254.512-2.064.512-1.099 0-1.958-.245-2.576-.736-.619-.491-1.051-1.168-1.296-2.032-.246-.864-.368-1.931-.368-3.2 0-3.915 1.365-5.872 4.096-5.872 1.045 0 1.866.283 2.464.848.597.565.949 1.28 1.056 2.144zm-2.176 2.384c-.459 0-.891.096-1.296.288-.406.181-.736.464-.992.848-.246.373-.368.832-.368 1.376 0 .811.234 1.472.704 1.984.469.501 1.141.752 2.016.752.746 0 1.338-.229 1.776-.688.448-.469.672-1.099.672-1.888 0-.832-.214-1.483-.64-1.952-.427-.48-1.051-.72-1.872-.72zm11.846-.72c.288-.501.714-.917 1.28-1.248.576-.341 1.242-.512 2-.512.778 0 1.482.187 2.111.56.64.373 1.142.901 1.505 1.584.362.672.544 1.456.544 2.352 0 .885-.182 1.675-.544 2.368-.363.693-.865 1.232-1.505 1.616-.629.384-1.333.576-2.111.576-.747 0-1.408-.165-1.984-.496-.566-.341-.998-.763-1.296-1.264v5.776h-1.456v-12.928h1.456zm5.952 2.736c0-.661-.134-1.237-.4-1.728-.267-.491-.63-.864-1.088-1.12-.448-.256-.944-.384-1.488-.384-.534 0-1.03.133-1.488.4-.448.256-.811.635-1.088 1.136-.267.491-.4 1.061-.4 1.712 0 .661.133 1.243.4 1.744.277.491.64.869 1.088 1.136.458.256.954.384 1.488.384.544 0 1.04-.128 1.488-.384.458-.267.821-.645 1.088-1.136.266-.501.4-1.088.4-1.76zm7.98 4.416-2.08-3.264-2 3.264h-1.52l2.832-4.352-2.832-4.416h1.648l2.08 3.248 1.984-3.248h1.52l-2.816 4.336 2.832 4.432zm-103.509 22h-.996v-8.566h4.775v.884h-3.779v3.135h3.551v.885h-3.551zm10.599-3.217c0 1.047-.263 1.865-.791 2.455-.527.586-1.255.879-2.185.879-.574 0-1.084-.135-1.529-.404-.446-.27-.789-.656-1.032-1.16-.242-.504-.363-1.094-.363-1.77 0-1.047.262-1.861.785-2.443.524-.586 1.25-.879 2.18-.879.898 0 1.611.299 2.139.896.531.598.796 1.407.796 2.426zm-4.892 0c0 .821.164 1.446.492 1.875.328.43.811.645 1.447.645.637 0 1.119-.213 1.448-.639.332-.43.498-1.057.498-1.881 0-.816-.166-1.435-.498-1.857-.329-.426-.815-.639-1.459-.639-.637 0-1.118.209-1.442.627s-.486 1.041-.486 1.869zm12.146 0c0 1.047-.263 1.865-.791 2.455-.527.586-1.256.879-2.185.879-.574 0-1.084-.135-1.53-.404-.445-.27-.789-.656-1.031-1.16s-.363-1.094-.363-1.77c0-1.047.262-1.861.785-2.443.524-.586 1.25-.879 2.18-.879.898 0 1.611.299 2.138.896.532.598.797 1.407.797 2.426zm-4.892 0c0 .821.164 1.446.492 1.875.328.43.811.645 1.447.645.637 0 1.119-.213 1.447-.639.333-.43.499-1.057.499-1.881 0-.816-.166-1.435-.499-1.857-.328-.426-.814-.639-1.459-.639-.636 0-1.117.209-1.441.627s-.486 1.041-.486 1.869zm8.677 2.531c.172 0 .338-.011.499-.035.16-.027.287-.054.38-.082v.744c-.105.051-.261.092-.468.123-.203.036-.387.053-.551.053-1.242 0-1.863-.654-1.863-1.963v-3.82h-.92v-.469l.92-.404.41-1.371h.562v1.488h1.864v.756h-1.864v3.779c0 .387.092.684.276.891.183.207.435.31.755.31zm4.881.803c-.949 0-1.699-.289-2.25-.867-.547-.578-.82-1.381-.82-2.408 0-1.035.254-1.858.762-2.467.511-.609 1.197-.914 2.056-.914.805 0 1.442.266 1.911.797.468.527.703 1.224.703 2.092v.615h-4.424c.019.754.209 1.326.568 1.717.363.39.873.586 1.53.586.691 0 1.375-.145 2.05-.434v.867c-.343.149-.67.254-.978.317-.305.066-.674.099-1.108.099zm-.263-5.842c-.516 0-.928.168-1.237.504-.304.336-.484.801-.539 1.395h3.358c0-.613-.137-1.082-.41-1.406-.274-.329-.664-.493-1.172-.493zm7.218-.814c.286 0 .541.023.768.07l-.135.903c-.265-.059-.5-.088-.703-.088-.519 0-.965.211-1.336.633-.367.421-.551.947-.551 1.576v3.445h-.972v-6.422h.802l.112 1.19h.047c.238-.418.525-.741.861-.967.336-.227.705-.34 1.107-.34zm4.547 3.768v-.891h2.877v.891zm10.682 2.771h-.949v-6.105c0-.508.015-.989.047-1.442-.082.082-.174.168-.276.258-.101.09-.566.471-1.394 1.143l-.516-.668 2.268-1.752h.82zm8.894 0h-5.63v-.838l2.255-2.267c.688-.696 1.141-1.192 1.36-1.489s.383-.586.492-.867.164-.584.164-.908c0-.457-.139-.819-.416-1.084-.277-.27-.662-.404-1.154-.404-.356 0-.694.058-1.014.175-.316.118-.67.33-1.06.639l-.516-.662c.789-.656 1.648-.984 2.578-.984.805 0 1.436.207 1.893.621.457.41.685.963.685 1.658 0 .543-.152 1.08-.457 1.611s-.875 1.203-1.711 2.016l-1.875 1.834v.047h4.406zm7.788.117c-.418 0-.801-.076-1.149-.228-.344-.157-.633-.395-.867-.715h-.07c.047.375.07.73.07 1.066v2.643h-.973v-9.305h.791l.135.879h.047c.25-.352.541-.605.873-.762.332-.156.713-.234 1.143-.234.851 0 1.507.291 1.968.873.465.582.698 1.398.698 2.449 0 1.055-.237 1.875-.709 2.461-.469.582-1.121.873-1.957.873zm-.141-5.83c-.656 0-1.131.182-1.424.545s-.443.941-.451 1.734v.217c0 .903.15 1.549.451 1.94.301.386.783.58 1.447.58.555 0 .989-.225 1.301-.674.317-.449.475-1.068.475-1.858 0-.8-.158-1.414-.475-1.839-.312-.43-.754-.645-1.324-.645zm6.059 2.426-2.233-3.135h1.108l1.693 2.461 1.687-2.461h1.096l-2.232 3.135 2.349 3.287h-1.101l-1.799-2.602-1.816 2.602h-1.102z"/></g></svg>