<svg fill="none" height="575" viewBox="0 0 1417 575" width="1417" xmlns="http://www.w3.org/2000/svg"><path d="m662.757 28 3.388-17.5h-1.792l-1.512 7.896h-10.108l1.512-7.896h-1.792l-3.388 17.5h1.792l1.54-7.98h10.136l-1.568 7.98zm17.287-7.252c0 2.044-.672 3.836-1.988 5.32-1.344 1.512-3.052 2.268-5.124 2.268-3.332 0-5.572-2.464-5.572-5.88 0-2.044.672-3.836 2.016-5.348 1.316-1.512 3.024-2.268 5.068-2.268 3.332 0 5.6 2.492 5.6 5.908zm-1.764.112c0-2.66-1.484-4.508-4.004-4.508-1.54 0-2.8.616-3.752 1.848s-1.428 2.632-1.428 4.172c0 2.632 1.512 4.424 4.032 4.424 1.54 0 2.772-.616 3.724-1.82s1.428-2.576 1.428-4.116zm21.371 7.14h-1.736l1.512-7.784c.14-.7.224-1.232.224-1.54 0-1.428-.868-2.24-2.436-2.24-1.204 0-2.464.56-3.724 1.708 0 .112-.056.336-.056.42 0 .224-.056.588-.14 1.092l-1.652 8.344h-1.736l1.54-7.784c.14-.616.196-1.12.196-1.54 0-1.428-.868-2.24-2.436-2.24-1.176 0-2.38.532-3.612 1.596l-1.96 9.968h-1.736l2.492-12.824 1.82-.364-.336 1.708c1.316-1.148 2.632-1.708 3.948-1.708 1.68 0 2.968.812 3.444 2.212 1.54-1.484 3.08-2.212 4.564-2.212 2.184 0 3.612 1.372 3.612 3.444 0 .476-.056 1.036-.196 1.68zm6.115-6.384c0 .14-.028.504-.028.616 0 2.856 1.652 4.508 4.228 4.508 1.008 0 2.044-.252 3.08-.728l.252 1.568c-.98.532-2.156.784-3.472.784-3.444 0-5.88-2.352-5.88-5.992 0-1.988.616-3.752 1.876-5.292 1.26-1.512 2.856-2.268 4.788-2.268 2.66 0 4.452 1.68 4.452 4.116 0 .924-.196 1.792-.56 2.632zm.252-1.344 7.084-.028c.14-.42.196-.812.196-1.176 0-1.652-1.12-2.688-2.912-2.688-2.1 0-3.78 1.596-4.368 3.892zm14.694-4.004c1.26-.924 2.464-1.372 3.612-1.372 2.884 0 5.012 2.352 5.012 5.572 0 2.212-.672 4.06-2.044 5.6s-3.08 2.296-5.096 2.296c-1.288 0-2.492-.42-3.64-1.26l-1.4 7.42h-1.736l3.752-19.348 1.82-.364zm-.308 1.568-1.484 7.56c.924.98 2.072 1.456 3.444 1.456 1.484 0 2.716-.616 3.696-1.848s1.484-2.66 1.484-4.284c0-2.576-1.54-4.312-3.64-4.312-1.204 0-2.38.476-3.5 1.428zm18.077 7.448.728-3.668c-4.424.056-6.636 1.036-6.636 2.94 0 1.316.924 2.268 2.436 2.268 1.26 0 2.408-.504 3.472-1.54zm.952-4.9.14-.616c.42-2.128-.644-3.36-2.968-3.36-1.204 0-2.492.392-3.864 1.148l-.224-1.568c1.372-.756 2.8-1.148 4.312-1.148 3.332 0 5.124 1.736 4.424 5.152l-1.092 5.32c-.224 1.12-.056 1.568 1.036 1.54l-.308 1.428c-1.54.084-2.352-.504-2.436-1.792h-.028c-1.148 1.232-2.464 1.848-3.948 1.848-2.128 0-3.724-1.708-3.724-3.584 0-2.884 2.716-4.48 8.68-4.368zm6.479 2.912c-1.036-.812-1.568-1.96-1.568-3.388 0-1.4.532-2.604 1.568-3.584s2.24-1.484 3.668-1.512c1.12 0 2.072.28 2.884.812l4.004-.336.084 1.764-2.94-.168c.448.672.672 1.428.672 2.296 0 1.428-.504 2.632-1.512 3.612-1.036.98-2.268 1.484-3.752 1.484-.812 0-1.568-.168-2.268-.476-.7.308-1.232.84-1.232 1.4 0 .896.812 1.344 3.052 1.792l.756.14c2.884.588 4.34 1.792 4.34 3.584 0 2.408-2.436 4.256-6.496 4.256-3.668 0-5.992-1.568-5.992-3.78 0-1.652 1.288-3.052 3.612-3.696-.7-.448-1.064-1.036-1.064-1.736 0-1.064.896-2.016 2.184-2.464zm3.22-.392c1.988 0 3.5-1.54 3.5-3.612 0-1.848-1.176-3.08-3.192-3.08-1.848 0-3.416 1.596-3.416 3.612 0 1.848 1.148 3.08 3.108 3.08zm-3.192 5.124c-1.904.42-3.024 1.484-3.024 2.884 0 1.624 1.876 2.604 4.452 2.604 2.772 0 4.592-1.064 4.592-2.604 0-1.092-1.148-1.848-3.472-2.296-.812-.14-1.652-.336-2.548-.588zm12.873-6.412c0 .14-.028.504-.028.616 0 2.856 1.652 4.508 4.228 4.508 1.008 0 2.044-.252 3.08-.728l.252 1.568c-.98.532-2.156.784-3.472.784-3.444 0-5.88-2.352-5.88-5.992 0-1.988.616-3.752 1.876-5.292 1.26-1.512 2.856-2.268 4.788-2.268 2.66 0 4.452 1.68 4.452 4.116 0 .924-.196 1.792-.56 2.632zm.252-1.344 7.084-.028c.14-.42.196-.812.196-1.176 0-1.652-1.12-2.688-2.912-2.688-2.1 0-3.78 1.596-4.368 3.892z" fill="#fbfbfb"/><rect fill="#b9d053" height="52" rx="10" width="180" x="43" y="227"/><path d="m120.813 260v-11.25h-2.862v4.374h-4.518v-4.374h-2.862v11.25h2.862v-4.464h4.518v4.464zm6.268-8.64c1.296 0 2.358.396 3.186 1.188s1.242 1.872 1.242 3.24-.432 2.448-1.296 3.258-1.944 1.224-3.24 1.224-2.358-.396-3.186-1.188c-.846-.774-1.26-1.854-1.26-3.24s.432-2.466 1.296-3.276 1.944-1.206 3.258-1.206zm1.674 4.446c0-.72-.144-1.296-.45-1.71s-.738-.63-1.296-.63-.972.216-1.278.63-.45.99-.45 1.728c0 .72.144 1.278.45 1.692s.738.63 1.296.63.99-.216 1.296-.63c.288-.414.432-.972.432-1.71zm17.579 4.194h-2.772v-4.932c0-.9-.378-1.35-1.134-1.35-.486 0-.936.18-1.35.54v5.742h-2.772v-4.932c0-.9-.378-1.35-1.152-1.35-.504 0-.954.162-1.35.504v5.778h-2.772v-8.226l2.772-.342v1.17c.81-.828 1.692-1.242 2.664-1.242 1.062 0 1.98.522 2.358 1.494.846-.99 1.818-1.494 2.898-1.494 1.638 0 2.61 1.08 2.61 2.898zm4.206-3.564v.036c.09 1.134.864 1.764 2.214 1.764.882 0 1.8-.27 2.736-.81l.27 2.142c-.882.45-1.98.684-3.258.684-2.898 0-4.68-1.602-4.68-4.374 0-2.718 1.836-4.518 4.536-4.518 2.34 0 3.672 1.368 3.672 3.51 0 .594-.054 1.08-.18 1.476zm.018-1.386 2.898-.018v-.162c0-1.062-.432-1.602-1.278-1.602-.918 0-1.53.774-1.62 1.782z" fill="#1c1c1c"/><rect fill="#ccc" height="52" rx="10" width="180" x="945" y="347"/><path d="m1024.26 380h2.72l-.38-11.25h-3.99l-2.34 8.442-2.34-8.442h-4.05l-.4 11.25h2.66l.08-8.658 2.46 8.478h3.06l2.47-8.496zm6.89-3.564v.036c.09 1.134.86 1.764 2.21 1.764.88 0 1.8-.27 2.74-.81l.27 2.142c-.88.45-1.98.684-3.26.684-2.9 0-4.68-1.602-4.68-4.374 0-2.718 1.84-4.518 4.54-4.518 2.34 0 3.67 1.368 3.67 3.51 0 .594-.06 1.08-.18 1.476zm.02-1.386 2.89-.018v-.162c0-1.062-.43-1.602-1.27-1.602-.92 0-1.53.774-1.62 1.782zm15.27 4.95h-2.77v-4.95c0-.972-.4-1.332-1.19-1.332-.54 0-1.04.216-1.51.63v5.652h-2.77v-8.226l2.77-.342v1.368c.84-.954 1.78-1.44 2.81-1.44 1.65 0 2.66 1.062 2.66 2.88zm1.88-8.37h2.77v4.95c0 .9.38 1.35 1.15 1.35.53 0 1.01-.18 1.43-.558v-5.742h2.77v8.244l-2.77.342v-1.242c-.8.864-1.7 1.296-2.72 1.296-1.64 0-2.63-1.098-2.63-2.88z" fill="#000"/><rect height="50" rx="9" stroke="#b9d053" stroke-width="2" width="178" x="44" y="154"/><path d="m81.058 174.75h-1.17l-3.636 10.062-3.654-10.062h-1.17l4.122 11.25h1.35zm2.8024.288c0 .234-.072.414-.198.576s-.324.252-.558.252-.432-.09-.558-.252-.198-.342-.198-.576c0-.216.072-.396.198-.558s.324-.234.558-.234.432.072.558.234.198.342.198.558zm-.198 10.962h-1.116v-8.244l1.116-.234zm7.5777-2.25c0 1.494-1.26 2.484-2.952 2.484-1.026 0-1.926-.252-2.7-.738l.306-1.026c.756.504 1.566.756 2.43.756 1.044 0 1.854-.522 1.854-1.386 0-.198-.036-.36-.126-.522s-.198-.288-.288-.378-.27-.18-.504-.288-.414-.18-.522-.216-.324-.108-.63-.198c-1.44-.432-2.394-1.044-2.394-2.34 0-1.476 1.17-2.376 2.79-2.376.882 0 1.71.198 2.502.612l-.324 1.008c-.738-.414-1.494-.612-2.25-.612-1.008 0-1.656.468-1.656 1.26 0 .18.036.342.126.486.09.162.18.27.27.36s.252.198.486.288c.216.09.396.162.522.216s.342.108.63.198c1.494.432 2.43 1.044 2.43 2.412zm3.343-8.712c0 .234-.072.414-.198.576s-.324.252-.558.252-.432-.09-.558-.252-.198-.342-.198-.576c0-.216.072-.396.198-.558s.324-.234.558-.234.432.072.558.234.198.342.198.558zm-.198 10.962h-1.116v-8.244l1.116-.234zm6.7319-.162c-.612.288-1.2242.432-1.8362.432-1.53 0-2.268-.864-2.214-2.592l.126-4.878-1.26-.072.054-.702 1.242-.288.054-1.872h1.062l-.054 1.926h2.7542l-.054.99h-2.7362l-.126 4.932c-.036 1.026.36 1.548 1.206 1.548.45 0 .9722-.126 1.5842-.396zm6.77-2.088c0 1.494-1.26 2.484-2.952 2.484-1.026 0-1.926-.252-2.7-.738l.306-1.026c.756.504 1.566.756 2.43.756 1.044 0 1.854-.522 1.854-1.386 0-.198-.036-.36-.126-.522s-.198-.288-.288-.378-.27-.18-.504-.288-.414-.18-.522-.216-.324-.108-.63-.198c-1.44-.432-2.394-1.044-2.394-2.34 0-1.476 1.17-2.376 2.79-2.376.882 0 1.71.198 2.502.612l-.324 1.008c-.738-.414-1.494-.612-2.25-.612-1.008 0-1.656.468-1.656 1.26 0 .18.036.342.126.486.09.162.18.27.27.36s.252.198.486.288c.216.09.396.162.522.216s.342.108.63.198c1.494.432 2.43 1.044 2.43 2.412zm10.21 2.088c-.612.288-1.224.432-1.836.432-1.53 0-2.268-.864-2.214-2.592l.126-4.878-1.26-.072.054-.702 1.242-.288.054-1.872h1.062l-.054 1.926h2.754l-.054.99h-2.736l-.126 4.932c-.036 1.026.36 1.548 1.206 1.548.45 0 .972-.126 1.584-.396zm8.372.162h-1.116v-5.328c0-1.386-.594-2.088-1.764-2.088-.918 0-1.782.396-2.556 1.17v6.246h-1.116v-12.132l1.116-.234v5.202c.882-.882 1.836-1.314 2.862-1.314 1.62 0 2.574 1.008 2.574 2.826zm3.13-4.086v.09c.054 1.89 1.17 3.186 2.88 3.186.9 0 1.692-.234 2.394-.684l.216 1.026c-.756.468-1.638.702-2.646.702-2.358 0-3.978-1.746-3.978-4.284 0-1.296.378-2.358 1.116-3.186s1.656-1.242 2.772-1.242c1.836 0 3.006 1.188 3.006 3.042 0 .486-.054.918-.18 1.314zm.072-.882 4.572-.018c.018-.054.018-.18.018-.36 0-1.296-.702-2.124-1.98-2.124-1.422 0-2.412 1.062-2.61 2.502zm14.351 5.004 2.25-6.66 2.25 6.66h.99l2.448-8.28h-1.224l-1.71 6.606-2.25-6.588h-1.008l-2.142 6.552-1.908-6.57h-1.188l2.52 8.28zm9.958-4.122v.09c.054 1.89 1.17 3.186 2.88 3.186.9 0 1.692-.234 2.394-.684l.216 1.026c-.756.468-1.638.702-2.646.702-2.358 0-3.978-1.746-3.978-4.284 0-1.296.378-2.358 1.116-3.186s1.656-1.242 2.772-1.242c1.836 0 3.006 1.188 3.006 3.042 0 .486-.054.918-.18 1.314zm.072-.882 4.572-.018c.018-.054.018-.18.018-.36 0-1.296-.702-2.124-1.98-2.124-1.422 0-2.412 1.062-2.61 2.502zm14.989.738c0 1.296-.378 2.358-1.134 3.204-.774.846-1.746 1.26-2.934 1.26-.702 0-1.368-.144-2.016-.45l-1.116.486v-12.402l1.116-.234v4.986c.738-.702 1.566-1.044 2.484-1.044 2.178 0 3.6 1.71 3.6 4.194zm-1.152.054c0-1.908-1.044-3.222-2.664-3.222-.846 0-1.602.306-2.268.918v5.058c.558.432 1.242.648 2.07.648 1.764 0 2.862-1.368 2.862-3.402zm8.095 1.926c0 1.494-1.26 2.484-2.952 2.484-1.026 0-1.926-.252-2.7-.738l.306-1.026c.756.504 1.566.756 2.43.756 1.044 0 1.854-.522 1.854-1.386 0-.198-.036-.36-.126-.522s-.198-.288-.288-.378-.27-.18-.504-.288-.414-.18-.522-.216-.324-.108-.63-.198c-1.44-.432-2.394-1.044-2.394-2.34 0-1.476 1.17-2.376 2.79-2.376.882 0 1.71.198 2.502.612l-.324 1.008c-.738-.414-1.494-.612-2.25-.612-1.008 0-1.656.468-1.656 1.26 0 .18.036.342.126.486.09.162.18.27.27.36s.252.198.486.288c.216.09.396.162.522.216s.342.108.63.198c1.494.432 2.43 1.044 2.43 2.412zm3.343-8.712c0 .234-.072.414-.198.576s-.324.252-.558.252-.432-.09-.558-.252-.198-.342-.198-.576c0-.216.072-.396.198-.558s.324-.234.558-.234.432.072.558.234.198.342.198.558zm-.198 10.962h-1.116v-8.244l1.116-.234zm6.732-.162c-.612.288-1.224.432-1.836.432-1.53 0-2.268-.864-2.214-2.592l.126-4.878-1.26-.072.054-.702 1.242-.288.054-1.872h1.062l-.054 1.926h2.754l-.054.99h-2.736l-.126 4.932c-.036 1.026.36 1.548 1.206 1.548.45 0 .972-.126 1.584-.396zm2.326-3.924v.09c.054 1.89 1.17 3.186 2.88 3.186.9 0 1.692-.234 2.394-.684l.216 1.026c-.756.468-1.638.702-2.646.702-2.358 0-3.978-1.746-3.978-4.284 0-1.296.378-2.358 1.116-3.186s1.656-1.242 2.772-1.242c1.836 0 3.006 1.188 3.006 3.042 0 .486-.054.918-.18 1.314zm.072-.882 4.572-.018c.018-.054.018-.18.018-.36 0-1.296-.702-2.124-1.98-2.124-1.422 0-2.412 1.062-2.61 2.502z" fill="#fbfbfb"/><rect height="50" rx="9" stroke="#b9d053" stroke-width="2" width="178" x="44" y="85"/><path d="m77.697 117v-1.08h-5.562v-10.17h-1.152v11.25zm2.1559-4.086v.09c.054 1.89 1.17 3.186 2.88 3.186.9 0 1.692-.234 2.394-.684l.216 1.026c-.756.468-1.638.702-2.646.702-2.358 0-3.978-1.746-3.978-4.284 0-1.296.378-2.358 1.116-3.186s1.656-1.242 2.772-1.242c1.836 0 3.006 1.188 3.006 3.042 0 .486-.054.918-.18 1.314zm.072-.882 4.572-.018c.018-.054.018-.18.018-.36 0-1.296-.702-2.124-1.98-2.124-1.422 0-2.412 1.062-2.61 2.502zm12.0911 3.15v-2.412c-2.772.306-3.834.918-3.834 2.052 0 .864.702 1.44 1.692 1.44.792 0 1.512-.36 2.142-1.08zm.072.828h-.054c-.666.81-1.458 1.224-2.412 1.224-1.512 0-2.61-.954-2.61-2.286 0-1.764 1.674-2.736 5.004-2.934v-.486c0-1.314-.648-1.962-1.944-1.962-.864 0-1.944.432-2.7.99l-.252-1.044c.792-.558 2.016-.99 3.06-.99 1.98 0 2.97.99 2.952 2.952v3.96c0 .648.144.846.828.828l-.072.918c-1.062.072-1.674-.324-1.8-1.17zm4.6521-4.302v5.292h-1.116v-8.244l1.116-.234v1.764c.594-1.17 1.404-1.764 2.43-1.764.522 0 .9899.126 1.4399.378l-.288 1.044c-.3959-.234-.8099-.36-1.2599-.36-.918 0-1.692.702-2.322 2.124zm11.8519 5.292h-1.116v-5.328c0-1.44-.558-2.088-1.818-2.088-.882 0-1.728.396-2.502 1.17v6.246h-1.116v-8.244l1.116-.234v1.35c.9-.9 1.836-1.35 2.808-1.35 1.656 0 2.628 1.008 2.628 2.826zm7.486-2.25c0 1.494-1.26 2.484-2.952 2.484-1.026 0-1.926-.252-2.7-.738l.306-1.026c.756.504 1.566.756 2.43.756 1.044 0 1.854-.522 1.854-1.386 0-.198-.036-.36-.126-.522s-.198-.288-.288-.378-.27-.18-.504-.288-.414-.18-.522-.216-.324-.108-.63-.198c-1.44-.432-2.394-1.044-2.394-2.34 0-1.476 1.17-2.376 2.79-2.376.882 0 1.71.198 2.502.612l-.324 1.008c-.738-.414-1.494-.612-2.25-.612-1.008 0-1.656.468-1.656 1.26 0 .18.036.342.126.486.09.162.18.27.27.36s.252.198.486.288c.216.09.396.162.522.216s.342.108.63.198c1.494.432 2.43 1.044 2.43 2.412zm10.409.432v-2.412c-2.772.306-3.834.918-3.834 2.052 0 .864.702 1.44 1.692 1.44.792 0 1.512-.36 2.142-1.08zm.072.828h-.054c-.666.81-1.458 1.224-2.412 1.224-1.512 0-2.61-.954-2.61-2.286 0-1.764 1.674-2.736 5.004-2.934v-.486c0-1.314-.648-1.962-1.944-1.962-.864 0-1.944.432-2.7.99l-.252-1.044c.792-.558 2.016-.99 3.06-.99 1.98 0 2.97.99 2.952 2.952v3.96c0 .648.144.846.828.828l-.072.918c-1.062.072-1.674-.324-1.8-1.17zm10.736-3.24c0 1.296-.378 2.358-1.134 3.204-.774.846-1.746 1.26-2.934 1.26-.702 0-1.368-.144-2.016-.45l-1.116.486v-12.402l1.116-.234v4.986c.738-.702 1.566-1.044 2.484-1.044 2.178 0 3.6 1.71 3.6 4.194zm-1.152.054c0-1.908-1.044-3.222-2.664-3.222-.846 0-1.602.306-2.268.918v5.058c.558.432 1.242.648 2.07.648 1.764 0 2.862-1.368 2.862-3.402zm10.633.036c0 1.296-.378 2.34-1.152 3.15s-1.728 1.224-2.898 1.224-2.124-.396-2.862-1.188-1.116-1.836-1.116-3.15c0-1.296.396-2.358 1.17-3.168s1.728-1.206 2.898-1.206 2.124.396 2.862 1.188 1.098 1.836 1.098 3.15zm-1.098.036c0-2.034-1.152-3.366-2.916-3.366-1.728 0-2.898 1.35-2.898 3.33 0 2.034 1.152 3.366 2.916 3.366 1.728 0 2.898-1.35 2.898-3.33zm3.101-4.14h1.116v5.328c0 1.386.594 2.088 1.782 2.088.936 0 1.782-.396 2.538-1.17v-6.246h1.116v8.244l-1.116.234v-1.332c-.864.882-1.818 1.332-2.844 1.332-1.62 0-2.592-1.044-2.592-2.826zm13.246 8.082c-.612.288-1.224.432-1.836.432-1.53 0-2.268-.864-2.214-2.592l.126-4.878-1.26-.072.054-.702 1.242-.288.054-1.872h1.062l-.054 1.926h2.754l-.054.99h-2.736l-.126 4.932c-.036 1.026.36 1.548 1.206 1.548.45 0 .972-.126 1.584-.396zm7.212-4.338v4.5h-1.152v-11.25h3.024c2.718 0 4.086 1.206 4.086 3.24 0 1.62-1.044 2.682-2.61 3.168l3.114 4.842h-1.332l-2.88-4.644zm0-1.026 2.016-.072c1.584-.054 2.79-.936 2.79-2.358 0-1.476-1.08-2.25-3.06-2.25h-1.746zm15.543 1.386c0 1.296-.378 2.34-1.152 3.15s-1.728 1.224-2.898 1.224-2.124-.396-2.862-1.188-1.116-1.836-1.116-3.15c0-1.296.396-2.358 1.17-3.168s1.728-1.206 2.898-1.206 2.124.396 2.862 1.188 1.098 1.836 1.098 3.15zm-1.098.036c0-2.034-1.152-3.366-2.916-3.366-1.728 0-2.898 1.35-2.898 3.33 0 2.034 1.152 3.366 2.916 3.366 1.728 0 2.898-1.35 2.898-3.33zm7.403-8.064-.054.252c-.054.18-.09.342-.144.504l-.072.252c-.486-.234-.9-.342-1.26-.342-.918 0-1.368.648-1.368 1.926v1.368h2.592l-.054.99h-2.538v7.218h-1.098v-7.182l-1.332-.09.072-.702 1.242-.288.018-1.296c.036-1.98.864-2.97 2.484-2.97.504 0 1.008.126 1.512.36zm5.537 0-.054.252c-.054.18-.09.342-.144.504l-.072.252c-.486-.234-.9-.342-1.26-.342-.918 0-1.368.648-1.368 1.926v1.368h2.592l-.054.99h-2.538v7.218h-1.098v-7.182l-1.332-.09.072-.702 1.242-.288.018-1.296c.036-1.98.864-2.97 2.484-2.97.504 0 1.008.126 1.512.36z" fill="#fbfbfb"/><rect height="50" rx="9" stroke="#b9d053" stroke-width="2" width="178" x="653" y="470"/><path d="m708.047 497.5v4.5h-1.152v-11.25h3.024c2.718 0 4.086 1.206 4.086 3.24 0 1.62-1.044 2.682-2.61 3.168l3.114 4.842h-1.332l-2.88-4.644zm0-1.026 2.016-.072c1.584-.054 2.79-.936 2.79-2.358 0-1.476-1.08-2.25-3.06-2.25h-1.746zm8.65 1.44v.09c.054 1.89 1.17 3.186 2.88 3.186.9 0 1.692-.234 2.394-.684l.216 1.026c-.756.468-1.638.702-2.646.702-2.358 0-3.978-1.746-3.978-4.284 0-1.296.378-2.358 1.116-3.186s1.656-1.242 2.772-1.242c1.836 0 3.006 1.188 3.006 3.042 0 .486-.054.918-.18 1.314zm.072-.882 4.572-.018c.018-.054.018-.18.018-.36 0-1.296-.702-2.124-1.98-2.124-1.422 0-2.412 1.062-2.61 2.502zm12.739 2.718c0 1.494-1.26 2.484-2.952 2.484-1.026 0-1.926-.252-2.7-.738l.306-1.026c.756.504 1.566.756 2.43.756 1.044 0 1.854-.522 1.854-1.386 0-.198-.036-.36-.126-.522s-.198-.288-.288-.378-.27-.18-.504-.288-.414-.18-.522-.216-.324-.108-.63-.198c-1.44-.432-2.394-1.044-2.394-2.34 0-1.476 1.17-2.376 2.79-2.376.882 0 1.71.198 2.502.612l-.324 1.008c-.738-.414-1.494-.612-2.25-.612-1.008 0-1.656.468-1.656 1.26 0 .18.036.342.126.486.09.162.18.27.27.36s.252.198.486.288c.216.09.396.162.522.216s.342.108.63.198c1.494.432 2.43 1.044 2.43 2.412zm9.499-1.89c0 1.296-.378 2.34-1.152 3.15s-1.728 1.224-2.898 1.224-2.124-.396-2.862-1.188-1.116-1.836-1.116-3.15c0-1.296.396-2.358 1.17-3.168s1.728-1.206 2.898-1.206 2.124.396 2.862 1.188 1.098 1.836 1.098 3.15zm-1.098.036c0-2.034-1.152-3.366-2.916-3.366-1.728 0-2.898 1.35-2.898 3.33 0 2.034 1.152 3.366 2.916 3.366 1.728 0 2.898-1.35 2.898-3.33zm3.1-4.14h1.116v5.328c0 1.386.594 2.088 1.782 2.088.936 0 1.782-.396 2.538-1.17v-6.246h1.116v8.244l-1.116.234v-1.332c-.864.882-1.818 1.332-2.844 1.332-1.62 0-2.592-1.044-2.592-2.826zm10.258 2.952v5.292h-1.116v-8.244l1.116-.234v1.764c.594-1.17 1.404-1.764 2.43-1.764.522 0 .99.126 1.44.378l-.288 1.044c-.396-.234-.81-.36-1.26-.36-.918 0-1.692.702-2.322 2.124zm11.173 4.824c-.756.468-1.602.702-2.556.702-2.466 0-4.032-1.728-4.032-4.338 0-1.278.378-2.34 1.152-3.15.756-.81 1.728-1.224 2.898-1.224.99 0 1.836.234 2.574.702l-.288 1.008c-.666-.45-1.44-.666-2.286-.666-1.782 0-2.898 1.314-2.898 3.294 0 2.034 1.152 3.33 2.916 3.33.828 0 1.584-.234 2.286-.684zm2.579-3.618v.09c.054 1.89 1.17 3.186 2.88 3.186.9 0 1.692-.234 2.394-.684l.216 1.026c-.756.468-1.638.702-2.646.702-2.358 0-3.978-1.746-3.978-4.284 0-1.296.378-2.358 1.116-3.186s1.656-1.242 2.772-1.242c1.836 0 3.006 1.188 3.006 3.042 0 .486-.054.918-.18 1.314zm.072-.882 4.572-.018c.018-.054.018-.18.018-.36 0-1.296-.702-2.124-1.98-2.124-1.422 0-2.412 1.062-2.61 2.502zm12.739 2.718c0 1.494-1.26 2.484-2.952 2.484-1.026 0-1.926-.252-2.7-.738l.306-1.026c.756.504 1.566.756 2.43.756 1.044 0 1.854-.522 1.854-1.386 0-.198-.036-.36-.126-.522s-.198-.288-.288-.378-.27-.18-.504-.288-.414-.18-.522-.216-.324-.108-.63-.198c-1.44-.432-2.394-1.044-2.394-2.34 0-1.476 1.17-2.376 2.79-2.376.882 0 1.71.198 2.502.612l-.324 1.008c-.738-.414-1.494-.612-2.25-.612-1.008 0-1.656.468-1.656 1.26 0 .18.036.342.126.486.09.162.18.27.27.36s.252.198.486.288c.216.09.396.162.522.216s.342.108.63.198c1.494.432 2.43 1.044 2.43 2.412z" fill="#fbfbfb"/><rect height="50" rx="9" stroke="#b9d053" stroke-width="2" width="178" x="18" y="470"/><path d="m65.6084 502v-11.25h-1.152v5.076h-6.588v-5.076h-1.152v11.25h1.152v-5.13h6.588v5.13zm10.2293-4.14c0 1.296-.378 2.34-1.152 3.15s-1.728 1.224-2.898 1.224-2.124-.396-2.862-1.188-1.116-1.836-1.116-3.15c0-1.296.396-2.358 1.17-3.168s1.728-1.206 2.898-1.206 2.124.396 2.862 1.188 1.098 1.836 1.098 3.15zm-1.098.036c0-2.034-1.152-3.366-2.916-3.366-1.728 0-2.898 1.35-2.898 3.33 0 2.034 1.152 3.366 2.916 3.366 1.728 0 2.898-1.35 2.898-3.33zm14.5845 4.104h-1.116v-5.31c0-1.404-.576-2.106-1.746-2.106-.792 0-1.566.36-2.322 1.062.018.144.036.396.036.738v5.616h-1.116v-5.31c0-1.404-.576-2.106-1.746-2.106-.81 0-1.566.324-2.286.954v6.462h-1.116v-8.244l1.116-.234v1.134c.828-.756 1.692-1.134 2.61-1.134 1.098 0 1.836.45 2.232 1.368.918-.918 1.89-1.368 2.916-1.368 1.584 0 2.538 1.026 2.538 2.844zm3.139-4.086v.09c.054 1.89 1.17 3.186 2.88 3.186.9 0 1.692-.234 2.394-.684l.216 1.026c-.756.468-1.638.702-2.646.702-2.358 0-3.978-1.746-3.978-4.284 0-1.296.378-2.358 1.116-3.186s1.656-1.242 2.772-1.242c1.836 0 3.006 1.188 3.006 3.042 0 .486-.054.918-.18 1.314zm.072-.882 4.572-.018c.018-.054.018-.18.018-.36 0-1.296-.702-2.124-1.98-2.124-1.422 0-2.412 1.062-2.61 2.502zm16.9788-6.516c1.584 0 2.898.54 3.96 1.62 1.044 1.08 1.566 2.484 1.566 4.194s-.522 3.132-1.566 4.23c-1.044 1.116-2.376 1.674-3.978 1.674-1.584 0-2.898-.54-3.942-1.638-1.062-1.08-1.584-2.484-1.584-4.194s.522-3.132 1.566-4.23 2.376-1.656 3.978-1.656zm4.356 5.886c0-1.44-.414-2.61-1.224-3.51-.828-.9-1.89-1.35-3.168-1.35s-2.304.45-3.114 1.332-1.224 2.034-1.224 3.456c0 1.44.414 2.61 1.242 3.51.828.918 1.89 1.368 3.168 1.368 1.26 0 2.304-.45 3.114-1.35.81-.882 1.206-2.034 1.206-3.456zm5.778 5.634 2.25-6.66 2.25 6.66h.99l2.448-8.28h-1.224l-1.71 6.606-2.25-6.588h-1.008l-2.142 6.552-1.908-6.57h-1.188l2.52 8.28zm16.004-.036h-1.116v-5.328c0-1.44-.558-2.088-1.818-2.088-.882 0-1.728.396-2.502 1.17v6.246h-1.116v-8.244l1.116-.234v1.35c.9-.9 1.836-1.35 2.808-1.35 1.656 0 2.628 1.008 2.628 2.826zm3.13-4.086v.09c.054 1.89 1.17 3.186 2.88 3.186.9 0 1.692-.234 2.394-.684l.216 1.026c-.756.468-1.638.702-2.646.702-2.358 0-3.978-1.746-3.978-4.284 0-1.296.378-2.358 1.116-3.186s1.656-1.242 2.772-1.242c1.836 0 3.006 1.188 3.006 3.042 0 .486-.054.918-.18 1.314zm.072-.882 4.572-.018c.018-.054.018-.18.018-.36 0-1.296-.702-2.124-1.98-2.124-1.422 0-2.412 1.062-2.61 2.502zm8.905-.324v5.292h-1.116v-8.244l1.116-.234v1.764c.594-1.17 1.404-1.764 2.43-1.764.522 0 .99.126 1.44.378l-.288 1.044c-.396-.234-.81-.36-1.26-.36-.918 0-1.692.702-2.322 2.124zm10.25 3.042c0 1.494-1.26 2.484-2.952 2.484-1.026 0-1.926-.252-2.7-.738l.306-1.026c.756.504 1.566.756 2.43.756 1.044 0 1.854-.522 1.854-1.386 0-.198-.036-.36-.126-.522s-.198-.288-.288-.378-.27-.18-.504-.288-.414-.18-.522-.216-.324-.108-.63-.198c-1.44-.432-2.394-1.044-2.394-2.34 0-1.476 1.17-2.376 2.79-2.376.882 0 1.71.198 2.502.612l-.324 1.008c-.738-.414-1.494-.612-2.25-.612-1.008 0-1.656.468-1.656 1.26 0 .18.036.342.126.486.09.162.18.27.27.36s.252.198.486.288c.216.09.396.162.522.216s.342.108.63.198c1.494.432 2.43 1.044 2.43 2.412z" fill="#fbfbfb"/><rect height="50" rx="9" stroke="#b9d053" stroke-width="2" width="178" x="848" y="470"/><path d="m903.88 490.75h-1.35l-4.266 11.25h1.17l1.188-3.222h5.094l1.188 3.222h1.17zm1.44 6.984h-4.302l2.16-5.85zm11.524.036c0 1.296-.378 2.358-1.134 3.204-.774.846-1.746 1.26-2.934 1.26-.702 0-1.368-.144-2.016-.45l-1.116.486v-12.402l1.116-.234v4.986c.738-.702 1.566-1.044 2.484-1.044 2.178 0 3.6 1.71 3.6 4.194zm-1.152.054c0-1.908-1.044-3.222-2.664-3.222-.846 0-1.602.306-2.268.918v5.058c.558.432 1.242.648 2.07.648 1.764 0 2.862-1.368 2.862-3.402zm10.633.036c0 1.296-.378 2.34-1.152 3.15s-1.728 1.224-2.898 1.224-2.124-.396-2.862-1.188-1.116-1.836-1.116-3.15c0-1.296.396-2.358 1.17-3.168s1.728-1.206 2.898-1.206 2.124.396 2.862 1.188 1.098 1.836 1.098 3.15zm-1.098.036c0-2.034-1.152-3.366-2.916-3.366-1.728 0-2.898 1.35-2.898 3.33 0 2.034 1.152 3.366 2.916 3.366 1.728 0 2.898-1.35 2.898-3.33zm3.101-4.14h1.116v5.328c0 1.386.594 2.088 1.782 2.088.936 0 1.782-.396 2.538-1.17v-6.246h1.116v8.244l-1.116.234v-1.332c-.864.882-1.818 1.332-2.844 1.332-1.62 0-2.592-1.044-2.592-2.826zm13.246 8.082c-.612.288-1.224.432-1.836.432-1.53 0-2.268-.864-2.214-2.592l.126-4.878-1.26-.072.054-.702 1.242-.288.054-1.872h1.062l-.054 1.926h2.754l-.054.99h-2.736l-.126 4.932c-.036 1.026.36 1.548 1.206 1.548.45 0 .972-.126 1.584-.396zm7.211-4.338v4.5h-1.152v-11.25h3.024c2.718 0 4.086 1.206 4.086 3.24 0 1.62-1.044 2.682-2.61 3.168l3.114 4.842h-1.332l-2.88-4.644zm0-1.026 2.016-.072c1.584-.054 2.79-.936 2.79-2.358 0-1.476-1.08-2.25-3.06-2.25h-1.746zm15.544 1.386c0 1.296-.378 2.34-1.152 3.15s-1.728 1.224-2.898 1.224-2.124-.396-2.862-1.188-1.116-1.836-1.116-3.15c0-1.296.396-2.358 1.17-3.168s1.728-1.206 2.898-1.206 2.124.396 2.862 1.188 1.098 1.836 1.098 3.15zm-1.098.036c0-2.034-1.152-3.366-2.916-3.366-1.728 0-2.898 1.35-2.898 3.33 0 2.034 1.152 3.366 2.916 3.366 1.728 0 2.898-1.35 2.898-3.33zm7.402-8.064-.054.252c-.054.18-.09.342-.144.504l-.072.252c-.486-.234-.9-.342-1.26-.342-.918 0-1.368.648-1.368 1.926v1.368h2.592l-.054.99h-2.538v7.218h-1.098v-7.182l-1.332-.09.072-.702 1.242-.288.018-1.296c.036-1.98.864-2.97 2.484-2.97.504 0 1.008.126 1.512.36zm5.538 0-.054.252c-.054.18-.09.342-.144.504l-.072.252c-.486-.234-.9-.342-1.26-.342-.918 0-1.368.648-1.368 1.926v1.368h2.592l-.054.99h-2.538v7.218h-1.098v-7.182l-1.332-.09.072-.702 1.242-.288.018-1.296c.036-1.98.864-2.97 2.484-2.97.504 0 1.008.126 1.512.36z" fill="#fbfbfb"/><rect height="50" rx="9" stroke="#b9d053" stroke-width="2" width="178" x="213" y="470"/><path d="m263.68 494.26c0 2.43-1.674 3.708-4.536 3.762l-1.53.018v3.96h-1.152v-11.25h2.826c2.898 0 4.392 1.368 4.392 3.51zm-1.188.054c0-1.62-1.134-2.502-3.24-2.502h-1.638v5.166l1.602-.036c2.178-.036 3.276-.918 3.276-2.628zm4.276 2.394v5.292h-1.116v-8.244l1.116-.234v1.764c.594-1.17 1.404-1.764 2.43-1.764.522 0 .99.126 1.44.378l-.288 1.044c-.396-.234-.81-.36-1.26-.36-.918 0-1.692.702-2.322 2.124zm12.613 1.152c0 1.296-.378 2.34-1.152 3.15s-1.728 1.224-2.898 1.224-2.124-.396-2.862-1.188-1.116-1.836-1.116-3.15c0-1.296.396-2.358 1.17-3.168s1.728-1.206 2.898-1.206 2.124.396 2.862 1.188 1.098 1.836 1.098 3.15zm-1.098.036c0-2.034-1.152-3.366-2.916-3.366-1.728 0-2.898 1.35-2.898 3.33 0 2.034 1.152 3.366 2.916 3.366 1.728 0 2.898-1.35 2.898-3.33zm7.402-8.064-.054.252c-.054.18-.09.342-.144.504l-.072.252c-.486-.234-.9-.342-1.26-.342-.918 0-1.368.648-1.368 1.926v1.368h2.592l-.054.99h-2.538v7.218h-1.098v-7.182l-1.332-.09.072-.702 1.242-.288.018-1.296c.036-1.98.864-2.97 2.484-2.97.504 0 1.008.126 1.512.36zm1.726 8.082v.09c.054 1.89 1.17 3.186 2.88 3.186.9 0 1.692-.234 2.394-.684l.216 1.026c-.756.468-1.638.702-2.646.702-2.358 0-3.978-1.746-3.978-4.284 0-1.296.378-2.358 1.116-3.186s1.656-1.242 2.772-1.242c1.836 0 3.006 1.188 3.006 3.042 0 .486-.054.918-.18 1.314zm.072-.882 4.572-.018c.018-.054.018-.18.018-.36 0-1.296-.702-2.124-1.98-2.124-1.422 0-2.412 1.062-2.61 2.502zm12.739 2.718c0 1.494-1.26 2.484-2.952 2.484-1.026 0-1.926-.252-2.7-.738l.306-1.026c.756.504 1.566.756 2.43.756 1.044 0 1.854-.522 1.854-1.386 0-.198-.036-.36-.126-.522s-.198-.288-.288-.378-.27-.18-.504-.288-.414-.18-.522-.216-.324-.108-.63-.198c-1.44-.432-2.394-1.044-2.394-2.34 0-1.476 1.17-2.376 2.79-2.376.882 0 1.71.198 2.502.612l-.324 1.008c-.738-.414-1.494-.612-2.25-.612-1.008 0-1.656.468-1.656 1.26 0 .18.036.342.126.486.09.162.18.27.27.36s.252.198.486.288c.216.09.396.162.522.216s.342.108.63.198c1.494.432 2.43 1.044 2.43 2.412zm7.048 0c0 1.494-1.26 2.484-2.952 2.484-1.026 0-1.926-.252-2.7-.738l.306-1.026c.756.504 1.566.756 2.43.756 1.044 0 1.854-.522 1.854-1.386 0-.198-.036-.36-.126-.522s-.198-.288-.288-.378-.27-.18-.504-.288-.414-.18-.522-.216-.324-.108-.63-.198c-1.44-.432-2.394-1.044-2.394-2.34 0-1.476 1.17-2.376 2.79-2.376.882 0 1.71.198 2.502.612l-.324 1.008c-.738-.414-1.494-.612-2.25-.612-1.008 0-1.656.468-1.656 1.26 0 .18.036.342.126.486.09.162.18.27.27.36s.252.198.486.288c.216.09.396.162.522.216s.342.108.63.198c1.494.432 2.43 1.044 2.43 2.412zm3.343-8.712c0 .234-.072.414-.198.576s-.324.252-.558.252-.432-.09-.558-.252-.198-.342-.198-.576c0-.216.072-.396.198-.558s.324-.234.558-.234.432.072.558.234.198.342.198.558zm-.198 10.962h-1.116v-8.244l1.116-.234zm10.116-4.14c0 1.296-.378 2.34-1.152 3.15s-1.728 1.224-2.898 1.224-2.124-.396-2.862-1.188-1.116-1.836-1.116-3.15c0-1.296.396-2.358 1.17-3.168s1.728-1.206 2.898-1.206 2.124.396 2.862 1.188 1.098 1.836 1.098 3.15zm-1.098.036c0-2.034-1.152-3.366-2.916-3.366-1.728 0-2.898 1.35-2.898 3.33 0 2.034 1.152 3.366 2.916 3.366 1.728 0 2.898-1.35 2.898-3.33zm9.725 4.104h-1.116v-5.328c0-1.44-.558-2.088-1.818-2.088-.882 0-1.728.396-2.502 1.17v6.246h-1.116v-8.244l1.116-.234v1.35c.9-.9 1.836-1.35 2.808-1.35 1.656 0 2.628 1.008 2.628 2.826zm6.837-1.818v-2.412c-2.772.306-3.834.918-3.834 2.052 0 .864.702 1.44 1.692 1.44.792 0 1.512-.36 2.142-1.08zm.072.828h-.054c-.666.81-1.458 1.224-2.412 1.224-1.512 0-2.61-.954-2.61-2.286 0-1.764 1.674-2.736 5.004-2.934v-.486c0-1.314-.648-1.962-1.944-1.962-.864 0-1.944.432-2.7.99l-.252-1.044c.792-.558 2.016-.99 3.06-.99 1.98 0 2.97.99 2.952 2.952v3.96c0 .648.144.846.828.828l-.072.918c-1.062.072-1.674-.324-1.8-1.17zm4.653.99v-12.366l-1.116.234v12.132zm7.543-2.25c0 1.494-1.26 2.484-2.952 2.484-1.026 0-1.926-.252-2.7-.738l.306-1.026c.756.504 1.566.756 2.43.756 1.044 0 1.854-.522 1.854-1.386 0-.198-.036-.36-.126-.522s-.198-.288-.288-.378-.27-.18-.504-.288-.414-.18-.522-.216-.324-.108-.63-.198c-1.44-.432-2.394-1.044-2.394-2.34 0-1.476 1.17-2.376 2.79-2.376.882 0 1.71.198 2.502.612l-.324 1.008c-.738-.414-1.494-.612-2.25-.612-1.008 0-1.656.468-1.656 1.26 0 .18.036.342.126.486.09.162.18.27.27.36s.252.198.486.288c.216.09.396.162.522.216s.342.108.63.198c1.494.432 2.43 1.044 2.43 2.412z" fill="#fbfbfb"/><rect height="50" rx="9" stroke="#b9d053" stroke-width="2" width="178" x="1043" y="470"/><path d="m1077.09 485.5v4.5h-1.16v-11.25h3.03c2.72 0 4.08 1.206 4.08 3.24 0 1.62-1.04 2.682-2.61 3.168l3.12 4.842h-1.33l-2.88-4.644zm0-1.026 2.01-.072c1.59-.054 2.79-.936 2.79-2.358 0-1.476-1.08-2.25-3.06-2.25h-1.74zm15.54 1.386c0 1.296-.38 2.34-1.15 3.15-.78.81-1.73 1.224-2.9 1.224s-2.13-.396-2.86-1.188c-.74-.792-1.12-1.836-1.12-3.15 0-1.296.4-2.358 1.17-3.168s1.73-1.206 2.9-1.206 2.12.396 2.86 1.188 1.1 1.836 1.1 3.15zm-1.1.036c0-2.034-1.15-3.366-2.92-3.366-1.72 0-2.89 1.35-2.89 3.33 0 2.034 1.15 3.366 2.91 3.366 1.73 0 2.9-1.35 2.9-3.33zm7.4-8.064-.05.252c-.05.18-.09.342-.14.504l-.08.252c-.48-.234-.9-.342-1.26-.342-.91 0-1.36.648-1.36 1.926v1.368h2.59l-.06.99h-2.53v7.218h-1.1v-7.182l-1.33-.09.07-.702 1.24-.288.02-1.296c.03-1.98.86-2.97 2.48-2.97.51 0 1.01.126 1.51.36zm5.54 0-.05.252c-.06.18-.09.342-.15.504l-.07.252c-.49-.234-.9-.342-1.26-.342-.92 0-1.37.648-1.37 1.926v1.368h2.59l-.05.99h-2.54v7.218h-1.1v-7.182l-1.33-.09.07-.702 1.25-.288.01-1.296c.04-1.98.87-2.97 2.49-2.97.5 0 1.01.126 1.51.36zm13.69 1.602-.36 1.026c-.94-.594-1.98-.9-3.13-.9-2.54 0-4.25 1.782-4.25 4.806 0 2.97 1.67 4.824 4.28 4.824 1.21 0 2.25-.342 3.15-1.008l.22 1.134c-.94.612-2.07.918-3.39.918-1.63 0-2.95-.522-3.94-1.584s-1.49-2.466-1.49-4.248.5-3.204 1.53-4.284c1.01-1.062 2.3-1.602 3.9-1.602 1.32 0 2.47.306 3.48.918zm8.64 10.566h-1.12v-5.328c0-1.386-.59-2.088-1.76-2.088-.92 0-1.79.396-2.56 1.17v6.246h-1.12v-12.132l1.12-.234v5.202c.88-.882 1.84-1.314 2.86-1.314 1.62 0 2.58 1.008 2.58 2.826zm6.83-1.818v-2.412c-2.77.306-3.83.918-3.83 2.052 0 .864.7 1.44 1.69 1.44.79 0 1.51-.36 2.14-1.08zm.08.828h-.06c-.66.81-1.46 1.224-2.41 1.224-1.51 0-2.61-.954-2.61-2.286 0-1.764 1.67-2.736 5-2.934v-.486c0-1.314-.64-1.962-1.94-1.962-.86 0-1.94.432-2.7.99l-.25-1.044c.79-.558 2.01-.99 3.06-.99 1.98 0 2.97.99 2.95 2.952v3.96c0 .648.14.846.83.828l-.07.918c-1.07.072-1.68-.324-1.8-1.17zm14.94.99h-1.11v-5.31c0-1.404-.58-2.106-1.75-2.106-.79 0-1.56.36-2.32 1.062.02.144.04.396.04.738v5.616h-1.12v-5.31c0-1.404-.58-2.106-1.75-2.106-.81 0-1.56.324-2.28.954v6.462h-1.12v-8.244l1.12-.234v1.134c.83-.756 1.69-1.134 2.61-1.134 1.1 0 1.83.45 2.23 1.368.92-.918 1.89-1.368 2.92-1.368 1.58 0 2.53 1.026 2.53 2.844zm3.67-7.416c.72-.666 1.51-1.008 2.39-1.008 2.21 0 3.69 1.728 3.69 4.266 0 1.278-.38 2.34-1.13 3.15-.78.828-1.75 1.242-2.94 1.242-.74 0-1.4-.144-2.01-.432v4.392h-1.12v-12.474l1.12-.234zm0 .936v5.058c.55.432 1.24.648 2.07.648 1.72 0 2.86-1.386 2.86-3.366 0-1.926-1.06-3.258-2.72-3.258-.81 0-1.55.306-2.21.918zm16.54 4.662v-2.412c-2.77.306-3.83.918-3.83 2.052 0 .864.7 1.44 1.69 1.44.79 0 1.51-.36 2.14-1.08zm.07.828h-.05c-.67.81-1.46 1.224-2.41 1.224-1.52 0-2.61-.954-2.61-2.286 0-1.764 1.67-2.736 5-2.934v-.486c0-1.314-.65-1.962-1.94-1.962-.87 0-1.95.432-2.7.99l-.26-1.044c.8-.558 2.02-.99 3.06-.99 1.98 0 2.97.99 2.96 2.952v3.96c0 .648.14.846.82.828l-.07.918c-1.06.072-1.67-.324-1.8-1.17zm10.09.99h-1.12v-5.328c0-1.44-.55-2.088-1.81-2.088-.89 0-1.73.396-2.51 1.17v6.246h-1.11v-8.244l1.11-.234v1.35c.9-.9 1.84-1.35 2.81-1.35 1.66 0 2.63 1.008 2.63 2.826zm8.08-7.974v-4.158l1.12-.234v12.366h-1.12v-.774c-.72.666-1.51 1.008-2.39 1.008-2.22 0-3.69-1.746-3.69-4.284 0-1.278.37-2.322 1.15-3.15.77-.81 1.74-1.224 2.93-1.224.69 0 1.35.144 2 .45zm0 1.188c-.54-.414-1.22-.63-2.05-.63-1.77 0-2.88 1.368-2.88 3.348 0 1.926 1.08 3.276 2.73 3.276.81 0 1.55-.306 2.2-.918v-4.914zm-86.54 29.786h1.17l-.36-11.25h-1.53l-3.75 9.936-3.8-9.936h-1.54l-.38 11.25h1.13l.2-9.846 3.73 9.774h1.26l3.69-9.756zm7.93-1.818v-2.412c-2.77.306-3.84.918-3.84 2.052 0 .864.71 1.44 1.7 1.44.79 0 1.51-.36 2.14-1.08zm.07.828h-.05c-.67.81-1.46 1.224-2.42 1.224-1.51 0-2.61-.954-2.61-2.286 0-1.764 1.68-2.736 5.01-2.934v-.486c0-1.314-.65-1.962-1.95-1.962-.86 0-1.94.432-2.7.99l-.25-1.044c.79-.558 2.02-.99 3.06-.99 1.98 0 2.97.99 2.95 2.952v3.96c0 .648.15.846.83.828l-.07.918c-1.06.072-1.67-.324-1.8-1.17zm8.49-1.26c0 1.494-1.26 2.484-2.96 2.484-1.02 0-1.92-.252-2.7-.738l.31-1.026c.76.504 1.57.756 2.43.756 1.04 0 1.85-.522 1.85-1.386 0-.198-.03-.36-.12-.522s-.2-.288-.29-.378-.27-.18-.5-.288c-.24-.108-.42-.18-.53-.216-.1-.036-.32-.108-.63-.198-1.44-.432-2.39-1.044-2.39-2.34 0-1.476 1.17-2.376 2.79-2.376.88 0 1.71.198 2.5.612l-.32 1.008c-.74-.414-1.5-.612-2.25-.612-1.01 0-1.66.468-1.66 1.26 0 .18.04.342.13.486.09.162.18.27.27.36s.25.198.48.288c.22.09.4.162.53.216.12.054.34.108.63.198 1.49.432 2.43 1.044 2.43 2.412zm6.11 2.088c-.61.288-1.22.432-1.83.432-1.53 0-2.27-.864-2.22-2.592l.13-4.878-1.26-.072.05-.702 1.24-.288.06-1.872h1.06l-.05 1.926h2.75l-.05.99h-2.74l-.13 4.932c-.03 1.026.36 1.548 1.21 1.548.45 0 .97-.126 1.58-.396zm2.33-3.924v.09c.05 1.89 1.17 3.186 2.88 3.186.9 0 1.69-.234 2.39-.684l.22 1.026c-.76.468-1.64.702-2.65.702-2.36 0-3.98-1.746-3.98-4.284 0-1.296.38-2.358 1.12-3.186s1.66-1.242 2.77-1.242c1.84 0 3.01 1.188 3.01 3.042 0 .486-.06.918-.18 1.314zm.07-.882 4.57-.018c.02-.054.02-.18.02-.36 0-1.296-.7-2.124-1.98-2.124-1.42 0-2.41 1.062-2.61 2.502zm8.9-.324v5.292h-1.11v-8.244l1.11-.234v1.764c.6-1.17 1.41-1.764 2.43-1.764.53 0 .99.126 1.44.378l-.28 1.044c-.4-.234-.81-.36-1.26-.36-.92 0-1.7.702-2.33 2.124zm17.59-4.878v-1.08h-9.07v1.08h3.96v10.17h1.15v-10.17zm3.04-.792c0 .234-.07.414-.2.576s-.32.252-.56.252c-.23 0-.43-.09-.56-.252-.12-.162-.19-.342-.19-.576 0-.216.07-.396.19-.558.13-.162.33-.234.56-.234.24 0 .43.072.56.234s.2.342.2.558zm-.2 10.962h-1.12v-8.244l1.12-.234zm3.74 0v-12.366l-1.11.234v12.132zm3.19-4.086v.09c.06 1.89 1.17 3.186 2.88 3.186.9 0 1.69-.234 2.4-.684l.21 1.026c-.75.468-1.64.702-2.64.702-2.36 0-3.98-1.746-3.98-4.284 0-1.296.38-2.358 1.11-3.186.74-.828 1.66-1.242 2.78-1.242 1.83 0 3 1.188 3 3.042 0 .486-.05.918-.18 1.314zm.07-.882 4.58-.018c.01-.054.01-.18.01-.36 0-1.296-.7-2.124-1.98-2.124-1.42 0-2.41 1.062-2.61 2.502zm8.91-.324v5.292h-1.12v-8.244l1.12-.234v1.764c.59-1.17 1.4-1.764 2.43-1.764.52 0 .99.126 1.44.378l-.29 1.044c-.4-.234-.81-.36-1.26-.36-.92 0-1.69.702-2.32 2.124z" fill="#fbfbfb"/><rect fill="#60681f" height="52" rx="10" width="180" x="407" y="469"/><path d="m476.983 501.208c1.566 0 2.664-.918 2.664-2.124 0-1.224-.864-1.782-2.844-2.358-.468-.144-.864-.288-1.188-.432-.342-.126-.684-.324-1.026-.558s-.612-.54-.792-.9-.27-.774-.27-1.26c0-1.782 1.494-3.06 3.6-3.06 1.242 0 2.376.324 3.384.972l-.414 1.008c-.918-.63-1.89-.936-2.952-.936-1.62 0-2.502.81-2.502 1.926 0 1.152.846 1.62 2.844 2.25.468.144.864.288 1.206.432.342.162.684.36 1.026.594.342.252.594.558.774.936.162.378.252.81.252 1.296 0 1.89-1.548 3.24-3.798 3.24-1.314 0-2.52-.342-3.618-1.044l.414-1.026c1.026.702 2.106 1.044 3.24 1.044zm6.412-3.294v.09c.054 1.89 1.17 3.186 2.88 3.186.9 0 1.692-.234 2.394-.684l.216 1.026c-.756.468-1.638.702-2.646.702-2.358 0-3.978-1.746-3.978-4.284 0-1.296.378-2.358 1.116-3.186s1.656-1.242 2.772-1.242c1.836 0 3.006 1.188 3.006 3.042 0 .486-.054.918-.18 1.314zm.072-.882 4.572-.018c.018-.054.018-.18.018-.36 0-1.296-.702-2.124-1.98-2.124-1.422 0-2.412 1.062-2.61 2.502zm12.091 3.15v-2.412c-2.772.306-3.834.918-3.834 2.052 0 .864.702 1.44 1.692 1.44.792 0 1.512-.36 2.142-1.08zm.072.828h-.054c-.666.81-1.458 1.224-2.412 1.224-1.512 0-2.61-.954-2.61-2.286 0-1.764 1.674-2.736 5.004-2.934v-.486c0-1.314-.648-1.962-1.944-1.962-.864 0-1.944.432-2.7.99l-.252-1.044c.792-.558 2.016-.99 3.06-.99 1.98 0 2.97.99 2.952 2.952v3.96c0 .648.144.846.828.828l-.072.918c-1.062.072-1.674-.324-1.8-1.17zm4.652-4.302v5.292h-1.116v-8.244l1.116-.234v1.764c.594-1.17 1.404-1.764 2.43-1.764.522 0 .99.126 1.44.378l-.288 1.044c-.396-.234-.81-.36-1.26-.36-.918 0-1.692.702-2.322 2.124zm11.172 4.824c-.756.468-1.602.702-2.556.702-2.466 0-4.032-1.728-4.032-4.338 0-1.278.378-2.34 1.152-3.15.756-.81 1.728-1.224 2.898-1.224.99 0 1.836.234 2.574.702l-.288 1.008c-.666-.45-1.44-.666-2.286-.666-1.782 0-2.898 1.314-2.898 3.294 0 2.034 1.152 3.33 2.916 3.33.828 0 1.584-.234 2.286-.684zm8.625.468h-1.116v-5.328c0-1.386-.594-2.088-1.764-2.088-.918 0-1.782.396-2.556 1.17v6.246h-1.116v-12.132l1.116-.234v5.202c.882-.882 1.836-1.314 2.862-1.314 1.62 0 2.574 1.008 2.574 2.826z" fill="#fbfbfb"/><rect height="50" rx="9" stroke="#b9d053" stroke-width="2" width="178" x="1238" y="470"/><path d="m1297.28 491.434-.36 1.026c-.94-.594-1.98-.9-3.14-.9-2.53 0-4.24 1.782-4.24 4.806 0 2.97 1.67 4.824 4.28 4.824 1.21 0 2.25-.342 3.15-1.008l.22 1.134c-.94.612-2.07.918-3.39.918-1.64 0-2.95-.522-3.94-1.584s-1.49-2.466-1.49-4.248.5-3.204 1.53-4.284c1-1.062 2.3-1.602 3.9-1.602 1.32 0 2.47.306 3.48.918zm9.31 6.426c0 1.296-.38 2.34-1.16 3.15-.77.81-1.72 1.224-2.89 1.224s-2.13-.396-2.87-1.188c-.73-.792-1.11-1.836-1.11-3.15 0-1.296.39-2.358 1.17-3.168.77-.81 1.73-1.206 2.9-1.206s2.12.396 2.86 1.188 1.1 1.836 1.1 3.15zm-1.1.036c0-2.034-1.15-3.366-2.92-3.366-1.73 0-2.9 1.35-2.9 3.33 0 2.034 1.16 3.366 2.92 3.366 1.73 0 2.9-1.35 2.9-3.33zm9.72 4.104h-1.11v-5.328c0-1.44-.56-2.088-1.82-2.088-.88 0-1.73.396-2.5 1.17v6.246h-1.12v-8.244l1.12-.234v1.35c.9-.9 1.83-1.35 2.81-1.35 1.65 0 2.62 1.008 2.62 2.826zm6.64-.162c-.61.288-1.22.432-1.83.432-1.53 0-2.27-.864-2.22-2.592l.13-4.878-1.26-.072.05-.702 1.25-.288.05-1.872h1.06l-.05 1.926h2.75l-.05.99h-2.74l-.12 4.932c-.04 1.026.36 1.548 1.2 1.548.45 0 .97-.126 1.59-.396zm6.12-1.656v-2.412c-2.77.306-3.83.918-3.83 2.052 0 .864.7 1.44 1.69 1.44.79 0 1.51-.36 2.14-1.08zm.08.828h-.06c-.66.81-1.46 1.224-2.41 1.224-1.51 0-2.61-.954-2.61-2.286 0-1.764 1.67-2.736 5-2.934v-.486c0-1.314-.64-1.962-1.94-1.962-.86 0-1.94.432-2.7.99l-.25-1.044c.79-.558 2.01-.99 3.06-.99 1.98 0 2.97.99 2.95 2.952v3.96c0 .648.14.846.83.828l-.07.918c-1.07.072-1.68-.324-1.8-1.17zm9.58.522c-.75.468-1.6.702-2.55.702-2.47 0-4.04-1.728-4.04-4.338 0-1.278.38-2.34 1.16-3.15.75-.81 1.72-1.224 2.89-1.224.99 0 1.84.234 2.58.702l-.29 1.008c-.67-.45-1.44-.666-2.29-.666-1.78 0-2.89 1.314-2.89 3.294 0 2.034 1.15 3.33 2.91 3.33.83 0 1.59-.234 2.29-.684zm6.18.306c-.61.288-1.23.432-1.84.432-1.53 0-2.27-.864-2.21-2.592l.12-4.878-1.26-.072.06-.702 1.24-.288.05-1.872h1.07l-.06 1.926h2.76l-.06.99h-2.73l-.13 4.932c-.04 1.026.36 1.548 1.21 1.548.45 0 .97-.126 1.58-.396zm14.41-4.14c0 2.844-1.49 4.536-4.27 4.536-2.68 0-4.21-1.656-4.21-4.356v-7.128h1.12v6.984c0 2.196 1.08 3.438 3.15 3.438 2 0 3.08-1.188 3.08-3.456v-6.966h1.13zm7.55 2.052c0 1.494-1.26 2.484-2.96 2.484-1.02 0-1.92-.252-2.7-.738l.31-1.026c.76.504 1.57.756 2.43.756 1.04 0 1.85-.522 1.85-1.386 0-.198-.03-.36-.12-.522s-.2-.288-.29-.378-.27-.18-.5-.288c-.24-.108-.42-.18-.53-.216-.1-.036-.32-.108-.63-.198-1.44-.432-2.39-1.044-2.39-2.34 0-1.476 1.17-2.376 2.79-2.376.88 0 1.71.198 2.5.612l-.32 1.008c-.74-.414-1.5-.612-2.25-.612-1.01 0-1.66.468-1.66 1.26 0 .18.04.342.13.486.09.162.18.27.27.36s.25.198.48.288c.22.09.4.162.53.216.12.054.34.108.63.198 1.49.432 2.43 1.044 2.43 2.412z" fill="#fbfbfb"/><path d="m257.12 110h.896v-3.822h3.528v-.826h-3.528v-3.262h4.256v-.84h-5.152zm7.455-4.116v4.116h-.868v-6.412l.868-.182v1.372c.462-.91 1.092-1.372 1.89-1.372.406 0 .77.098 1.12.294l-.224.812c-.308-.182-.63-.28-.98-.28-.714 0-1.316.546-1.806 1.652zm9.81.896c0 1.008-.294 1.82-.896 2.45s-1.344.952-2.254.952-1.652-.308-2.226-.924-.868-1.428-.868-2.45c0-1.008.308-1.834.91-2.464s1.344-.938 2.254-.938 1.652.308 2.226.924.854 1.428.854 2.45zm-.854.028c0-1.582-.896-2.618-2.268-2.618-1.344 0-2.254 1.05-2.254 2.59 0 1.582.896 2.618 2.268 2.618 1.344 0 2.254-1.05 2.254-2.59zm11.343 3.192h-.868v-4.13c0-1.092-.448-1.638-1.358-1.638-.616 0-1.218.28-1.806.826.014.112.028.308.028.574v4.368h-.868v-4.13c0-1.092-.448-1.638-1.358-1.638-.63 0-1.218.252-1.778.742v5.026h-.868v-6.412l.868-.182v.882c.644-.588 1.316-.882 2.03-.882.854 0 1.428.35 1.736 1.064.714-.714 1.47-1.064 2.268-1.064 1.232 0 1.974.798 1.974 2.212zm8.455-9.464-.042.196c-.042.14-.07.266-.112.392l-.056.196c-.378-.182-.7-.266-.98-.266-.714 0-1.064.504-1.064 1.498v1.064h2.016l-.042.77h-1.974v5.614h-.854v-5.586l-1.036-.07.056-.546.966-.224.014-1.008c.028-1.54.672-2.31 1.932-2.31.392 0 .784.098 1.176.28zm1.748 5.348v4.116h-.868v-6.412l.868-.182v1.372c.462-.91 1.092-1.372 1.89-1.372.406 0 .77.098 1.12.294l-.224.812c-.308-.182-.63-.28-.98-.28-.714 0-1.316.546-1.806 1.652zm5.158-4.41c0 .182-.056.322-.154.448s-.252.196-.434.196-.336-.07-.434-.196-.154-.266-.154-.448c0-.168.056-.308.154-.434s.252-.182.434-.182.336.056.434.182.154.266.154.434zm-.154 8.526h-.868v-6.412l.868-.182zm2.506-3.178v.07c.042 1.47.91 2.478 2.24 2.478.7 0 1.316-.182 1.862-.532l.168.798c-.588.364-1.274.546-2.058.546-1.834 0-3.094-1.358-3.094-3.332 0-1.008.294-1.834.868-2.478s1.288-.966 2.156-.966c1.428 0 2.338.924 2.338 2.366 0 .378-.042.714-.14 1.022zm.056-.686 3.556-.014c.014-.042.014-.14.014-.28 0-1.008-.546-1.652-1.54-1.652-1.106 0-1.876.826-2.03 1.946zm11.154 3.864h-.868v-4.144c0-1.12-.434-1.624-1.414-1.624-.686 0-1.344.308-1.946.91v4.858h-.868v-6.412l.868-.182v1.05c.7-.7 1.428-1.05 2.184-1.05 1.288 0 2.044.784 2.044 2.198zm6.285-6.202v-3.234l.868-.182v9.618h-.868v-.602c-.56.518-1.176.784-1.862.784-1.722 0-2.87-1.358-2.87-3.332 0-.994.294-1.806.896-2.45.602-.63 1.358-.952 2.282-.952.532 0 1.05.112 1.554.35zm0 .924c-.42-.322-.952-.49-1.596-.49-1.372 0-2.24 1.064-2.24 2.604 0 1.498.84 2.548 2.128 2.548.63 0 1.204-.238 1.708-.714v-3.822zm6.729 3.528c0 1.162-.98 1.932-2.296 1.932-.798 0-1.498-.196-2.1-.574l.238-.798c.588.392 1.218.588 1.89.588.812 0 1.442-.406 1.442-1.078 0-.154-.028-.28-.098-.406s-.154-.224-.224-.294-.21-.14-.392-.224-.322-.14-.406-.168-.252-.084-.49-.154c-1.12-.336-1.862-.812-1.862-1.82 0-1.148.91-1.848 2.17-1.848.686 0 1.33.154 1.946.476l-.252.784c-.574-.322-1.162-.476-1.75-.476-.784 0-1.288.364-1.288.98 0 .14.028.266.098.378.07.126.14.21.21.28s.196.154.378.224c.168.07.308.126.406.168s.266.084.49.154c1.162.336 1.89.812 1.89 1.876zm4.135-8.078h-.7l-3.402 12.614h.686zm6.562 6.608c0 1.008-.294 1.82-.896 2.45s-1.344.952-2.254.952-1.652-.308-2.226-.924-.868-1.428-.868-2.45c0-1.008.308-1.834.91-2.464s1.344-.938 2.254-.938 1.652.308 2.226.924.854 1.428.854 2.45zm-.854.028c0-1.582-.896-2.618-2.268-2.618-1.344 0-2.254 1.05-2.254 2.59 0 1.582.896 2.618 2.268 2.618 1.344 0 2.254-1.05 2.254-2.59zm7.563 3.192h-.868v-4.144c0-1.12-.434-1.624-1.414-1.624-.686 0-1.344.308-1.946.91v4.858h-.868v-6.412l.868-.182v1.05c.7-.7 1.428-1.05 2.184-1.05 1.288 0 2.044.784 2.044 2.198zm2.841 0v-9.618l-.868.182v9.436zm3.052-8.526c0 .182-.056.322-.154.448s-.252.196-.434.196-.336-.07-.434-.196-.154-.266-.154-.448c0-.168.056-.308.154-.434s.252-.182.434-.182.336.056.434.182.154.266.154.434zm-.154 8.526h-.868v-6.412l.868-.182zm7.14 0h-.868v-4.144c0-1.12-.434-1.624-1.414-1.624-.686 0-1.344.308-1.946.91v4.858h-.868v-6.412l.868-.182v1.05c.7-.7 1.428-1.05 2.184-1.05 1.288 0 2.044.784 2.044 2.198zm2.435-3.178v.07c.042 1.47.91 2.478 2.24 2.478.7 0 1.316-.182 1.862-.532l.168.798c-.588.364-1.274.546-2.058.546-1.834 0-3.094-1.358-3.094-3.332 0-1.008.294-1.834.868-2.478s1.288-.966 2.156-.966c1.428 0 2.338.924 2.338 2.366 0 .378-.042.714-.14 1.022zm.056-.686 3.556-.014c.014-.042.014-.14.014-.28 0-1.008-.546-1.652-1.54-1.652-1.106 0-1.876.826-2.03 1.946zm13.947 3.5c-.588.364-1.246.546-1.988.546-1.918 0-3.136-1.344-3.136-3.374 0-.994.294-1.82.896-2.45.588-.63 1.344-.952 2.254-.952.77 0 1.428.182 2.002.546l-.224.784c-.518-.35-1.12-.518-1.778-.518-1.386 0-2.254 1.022-2.254 2.562 0 1.582.896 2.59 2.268 2.59.644 0 1.232-.182 1.778-.532zm4.959-1.05v-1.876c-2.156.238-2.982.714-2.982 1.596 0 .672.546 1.12 1.316 1.12.616 0 1.176-.28 1.666-.84zm.056.644h-.042c-.518.63-1.134.952-1.876.952-1.176 0-2.03-.742-2.03-1.778 0-1.372 1.302-2.128 3.892-2.282v-.378c0-1.022-.504-1.526-1.512-1.526-.672 0-1.512.336-2.1.77l-.196-.812c.616-.434 1.568-.77 2.38-.77 1.54 0 2.31.77 2.296 2.296v3.08c0 .504.112.658.644.644l-.056.714c-.826.056-1.302-.252-1.4-.91zm11.626.77h-.868v-4.13c0-1.092-.448-1.638-1.358-1.638-.616 0-1.218.28-1.806.826.014.112.028.308.028.574v4.368h-.868v-4.13c0-1.092-.448-1.638-1.358-1.638-.63 0-1.218.252-1.778.742v5.026h-.868v-6.412l.868-.182v.882c.644-.588 1.316-.882 2.03-.882.854 0 1.428.35 1.736 1.064.714-.714 1.47-1.064 2.268-1.064 1.232 0 1.974.798 1.974 2.212zm2.847-5.768c.56-.518 1.176-.784 1.862-.784 1.722 0 2.87 1.344 2.87 3.318 0 .994-.294 1.82-.882 2.45-.602.644-1.358.966-2.282.966-.574 0-1.092-.112-1.568-.336v3.416h-.868v-9.702l.868-.182zm0 .728v3.934c.434.336.966.504 1.61.504 1.344 0 2.226-1.078 2.226-2.618 0-1.498-.826-2.534-2.114-2.534-.63 0-1.204.238-1.722.714zm9.684 3.626v-1.876c-2.156.238-2.982.714-2.982 1.596 0 .672.546 1.12 1.316 1.12.616 0 1.176-.28 1.666-.84zm.056.644h-.042c-.518.63-1.134.952-1.876.952-1.176 0-2.03-.742-2.03-1.778 0-1.372 1.302-2.128 3.892-2.282v-.378c0-1.022-.504-1.526-1.512-1.526-.672 0-1.512.336-2.1.77l-.196-.812c.616-.434 1.568-.77 2.38-.77 1.54 0 2.31.77 2.296 2.296v3.08c0 .504.112.658.644.644l-.056.714c-.826.056-1.302-.252-1.4-.91zm3.786-7.756c0 .182-.056.322-.154.448s-.252.196-.434.196-.336-.07-.434-.196-.154-.266-.154-.448c0-.168.056-.308.154-.434s.252-.182.434-.182.336.056.434.182.154.266.154.434zm-.154 8.526h-.868v-6.412l.868-.182zm2.534-4.172c0 .952.644 1.638 1.652 1.638.49 0 .868-.154 1.162-.476.294-.308.434-.714.434-1.204s-.14-.896-.42-1.204c-.294-.308-.7-.462-1.218-.462-.994 0-1.61.7-1.61 1.708zm.756 4.354c-.77.21-1.302.714-1.302 1.26 0 .77.854 1.316 2.184 1.316 1.344 0 2.408-.644 2.408-1.512 0-.728-.616-1.022-1.946-1.022-.532 0-.98-.014-1.344-.042zm-.756-.168c-.574-.21-.868-.546-.868-1.022 0-.532.434-.994 1.05-1.218-.686-.42-1.036-1.078-1.036-1.96 0-1.386 1.022-2.408 2.52-2.408.56 0 1.064.126 1.512.378l1.778-.14.042.868-1.414-.14c.294.294.518.91.518 1.442 0 1.372-1.05 2.352-2.492 2.352-.294 0-.602-.056-.952-.182-.476.196-.714.448-.714.77 0 .434.364.658 1.456.658h.826c1.778 0 2.66.56 2.66 1.68 0 .686-.336 1.26-.994 1.708s-1.456.672-2.38.672c-1.722 0-2.898-.756-2.898-1.876 0-.728.56-1.372 1.386-1.582zm11.155-.014h-.868v-4.144c0-1.12-.434-1.624-1.414-1.624-.686 0-1.344.308-1.946.91v4.858h-.868v-6.412l.868-.182v1.05c.7-.7 1.428-1.05 2.184-1.05 1.288 0 2.044.784 2.044 2.198zm5.822-1.75c0 1.162-.98 1.932-2.296 1.932-.798 0-1.498-.196-2.1-.574l.238-.798c.588.392 1.218.588 1.89.588.812 0 1.442-.406 1.442-1.078 0-.154-.028-.28-.098-.406s-.154-.224-.224-.294-.21-.14-.392-.224-.322-.14-.406-.168-.252-.084-.49-.154c-1.12-.336-1.862-.812-1.862-1.82 0-1.148.91-1.848 2.17-1.848.686 0 1.33.154 1.946.476l-.252.784c-.574-.322-1.162-.476-1.75-.476-.784 0-1.288.364-1.288.98 0 .14.028.266.098.378.07.126.14.21.21.28s.196.154.378.224c.168.07.308.126.406.168s.266.084.49.154c1.162.336 1.89.812 1.89 1.876zm4.135-8.078h-.7l-3.402 12.614h.686zm-169.182 26.078c0 1.162-.98 1.932-2.296 1.932-.798 0-1.498-.196-2.1-.574l.238-.798c.588.392 1.218.588 1.89.588.812 0 1.442-.406 1.442-1.078 0-.154-.028-.28-.098-.406s-.154-.224-.224-.294-.21-.14-.392-.224-.322-.14-.406-.168-.252-.084-.49-.154c-1.12-.336-1.862-.812-1.862-1.82 0-1.148.91-1.848 2.17-1.848.686 0 1.33.154 1.946.476l-.252.784c-.574-.322-1.162-.476-1.75-.476-.784 0-1.288.364-1.288.98 0 .14.028.266.098.378.07.126.14.21.21.28s.196.154.378.224c.168.07.308.126.406.168s.266.084.49.154c1.162.336 1.89.812 1.89 1.876zm7.388-1.47c0 1.008-.294 1.82-.896 2.45s-1.344.952-2.254.952-1.652-.308-2.226-.924-.868-1.428-.868-2.45c0-1.008.308-1.834.91-2.464s1.344-.938 2.254-.938 1.652.308 2.226.924.854 1.428.854 2.45zm-.854.028c0-1.582-.896-2.618-2.268-2.618-1.344 0-2.254 1.05-2.254 2.59 0 1.582.896 2.618 2.268 2.618 1.344 0 2.254-1.05 2.254-2.59zm7.172 2.828c-.588.364-1.246.546-1.988.546-1.918 0-3.136-1.344-3.136-3.374 0-.994.294-1.82.896-2.45.588-.63 1.344-.952 2.254-.952.77 0 1.428.182 2.002.546l-.224.784c-.518-.35-1.12-.518-1.778-.518-1.386 0-2.254 1.022-2.254 2.562 0 1.582.896 2.59 2.268 2.59.644 0 1.232-.182 1.778-.532zm2.648-8.162c0 .182-.056.322-.154.448s-.252.196-.434.196-.336-.07-.434-.196-.154-.266-.154-.448c0-.168.056-.308.154-.434s.252-.182.434-.182.336.056.434.182.154.266.154.434zm-.154 8.526h-.868v-6.412l.868-.182zm5.39-1.414v-1.876c-2.156.238-2.982.714-2.982 1.596 0 .672.546 1.12 1.316 1.12.616 0 1.176-.28 1.666-.84zm.056.644h-.042c-.518.63-1.134.952-1.876.952-1.176 0-2.03-.742-2.03-1.778 0-1.372 1.302-2.128 3.892-2.282v-.378c0-1.022-.504-1.526-1.512-1.526-.672 0-1.512.336-2.1.77l-.196-.812c.616-.434 1.568-.77 2.38-.77 1.54 0 2.31.77 2.296 2.296v3.08c0 .504.112.658.644.644l-.056.714c-.826.056-1.302-.252-1.4-.91zm3.618.77v-9.618l-.868.182v9.436zm14.078 0h-.868v-4.13c0-1.092-.448-1.638-1.358-1.638-.616 0-1.218.28-1.806.826.014.112.028.308.028.574v4.368h-.868v-4.13c0-1.092-.448-1.638-1.358-1.638-.63 0-1.218.252-1.778.742v5.026h-.868v-6.412l.868-.182v.882c.644-.588 1.316-.882 2.03-.882.854 0 1.428.35 1.736 1.064.714-.714 1.47-1.064 2.268-1.064 1.232 0 1.974.798 1.974 2.212zm2.442-3.178v.07c.042 1.47.91 2.478 2.24 2.478.7 0 1.316-.182 1.862-.532l.168.798c-.588.364-1.274.546-2.058.546-1.834 0-3.094-1.358-3.094-3.332 0-1.008.294-1.834.868-2.478s1.288-.966 2.156-.966c1.428 0 2.338.924 2.338 2.366 0 .378-.042.714-.14 1.022zm.056-.686 3.556-.014c.014-.042.014-.14.014-.28 0-1.008-.546-1.652-1.54-1.652-1.106 0-1.876.826-2.03 1.946zm10.37-2.338v-3.234l.868-.182v9.618h-.868v-.602c-.56.518-1.176.784-1.862.784-1.722 0-2.87-1.358-2.87-3.332 0-.994.294-1.806.896-2.45.602-.63 1.358-.952 2.282-.952.532 0 1.05.112 1.554.35zm0 .924c-.42-.322-.952-.49-1.596-.49-1.372 0-2.24 1.064-2.24 2.604 0 1.498.84 2.548 2.128 2.548.63 0 1.204-.238 1.708-.714v-3.822zm3.915-3.248c0 .182-.056.322-.154.448s-.252.196-.434.196-.336-.07-.434-.196-.154-.266-.154-.448c0-.168.056-.308.154-.434s.252-.182.434-.182.336.056.434.182.154.266.154.434zm-.154 8.526h-.868v-6.412l.868-.182zm5.39-1.414v-1.876c-2.156.238-2.982.714-2.982 1.596 0 .672.546 1.12 1.316 1.12.616 0 1.176-.28 1.666-.84zm.056.644h-.042c-.518.63-1.134.952-1.876.952-1.176 0-2.03-.742-2.03-1.778 0-1.372 1.302-2.128 3.892-2.282v-.378c0-1.022-.504-1.526-1.512-1.526-.672 0-1.512.336-2.1.77l-.196-.812c.616-.434 1.568-.77 2.38-.77 1.54 0 2.31.77 2.296 2.296v3.08c0 .504.112.658.644.644l-.056.714c-.826.056-1.302-.252-1.4-.91zm5.253-9.058h-.7l-3.402 12.614h.686zm2.724 9.856 1.75-5.18 1.75 5.18h.77l1.904-6.44h-.952l-1.33 5.138-1.75-5.124h-.784l-1.666 5.096-1.484-5.11h-.924l1.96 6.44zm13.107-3.248c0 1.008-.294 1.82-.896 2.45s-1.344.952-2.254.952-1.652-.308-2.226-.924-.868-1.428-.868-2.45c0-1.008.308-1.834.91-2.464s1.344-.938 2.254-.938 1.652.308 2.226.924.854 1.428.854 2.45zm-.854.028c0-1.582-.896-2.618-2.268-2.618-1.344 0-2.254 1.05-2.254 2.59 0 1.582.896 2.618 2.268 2.618 1.344 0 2.254-1.05 2.254-2.59zm3.336-.924v4.116h-.868v-6.412l.868-.182v1.372c.462-.91 1.092-1.372 1.89-1.372.406 0 .77.098 1.12.294l-.224.812c-.308-.182-.63-.28-.98-.28-.714 0-1.316.546-1.806 1.652zm8.297-2.086v-3.234l.868-.182v9.618h-.868v-.602c-.56.518-1.176.784-1.862.784-1.722 0-2.87-1.358-2.87-3.332 0-.994.294-1.806.896-2.45.602-.63 1.358-.952 2.282-.952.532 0 1.05.112 1.554.35zm0 .924c-.42-.322-.952-.49-1.596-.49-1.372 0-2.24 1.064-2.24 2.604 0 1.498.84 2.548 2.128 2.548.63 0 1.204-.238 1.708-.714v-3.822zm11.889 2.058c0 1.008-.294 1.82-.896 2.45s-1.344.952-2.254.952-1.652-.308-2.226-.924-.868-1.428-.868-2.45c0-1.008.308-1.834.91-2.464s1.344-.938 2.254-.938 1.652.308 2.226.924.854 1.428.854 2.45zm-.854.028c0-1.582-.896-2.618-2.268-2.618-1.344 0-2.254 1.05-2.254 2.59 0 1.582.896 2.618 2.268 2.618 1.344 0 2.254-1.05 2.254-2.59zm5.758-6.272-.042.196c-.042.14-.07.266-.112.392l-.056.196c-.378-.182-.7-.266-.98-.266-.714 0-1.064.504-1.064 1.498v1.064h2.016l-.042.77h-1.974v5.614h-.854v-5.586l-1.036-.07.056-.546.966-.224.014-1.008c.028-1.54.672-2.31 1.932-2.31.392 0 .784.098 1.176.28zm12.941 9.464h-.868v-4.13c0-1.092-.448-1.638-1.358-1.638-.616 0-1.218.28-1.806.826.014.112.028.308.028.574v4.368h-.868v-4.13c0-1.092-.448-1.638-1.358-1.638-.63 0-1.218.252-1.778.742v5.026h-.868v-6.412l.868-.182v.882c.644-.588 1.316-.882 2.03-.882.854 0 1.428.35 1.736 1.064.714-.714 1.47-1.064 2.268-1.064 1.232 0 1.974.798 1.974 2.212zm7.804-3.22c0 1.008-.294 1.82-.896 2.45s-1.344.952-2.254.952-1.652-.308-2.226-.924-.868-1.428-.868-2.45c0-1.008.308-1.834.91-2.464s1.344-.938 2.254-.938 1.652.308 2.226.924.854 1.428.854 2.45zm-.854.028c0-1.582-.896-2.618-2.268-2.618-1.344 0-2.254 1.05-2.254 2.59 0 1.582.896 2.618 2.268 2.618 1.344 0 2.254-1.05 2.254-2.59zm2.411-3.22h.868v4.144c0 1.078.462 1.624 1.386 1.624.728 0 1.386-.308 1.974-.91v-4.858h.868v6.412l-.868.182v-1.036c-.672.686-1.414 1.036-2.212 1.036-1.26 0-2.016-.812-2.016-2.198zm10.303 6.286c-.476.224-.952.336-1.428.336-1.19 0-1.764-.672-1.722-2.016l.098-3.794-.98-.056.042-.546.966-.224.042-1.456h.826l-.042 1.498h2.142l-.042.77h-2.128l-.098 3.836c-.028.798.28 1.204.938 1.204.35 0 .756-.098 1.232-.308zm6.511.126h-.868v-4.144c0-1.078-.462-1.624-1.372-1.624-.714 0-1.386.308-1.988.91v4.858h-.868v-9.436l.868-.182v4.046c.686-.686 1.428-1.022 2.226-1.022 1.26 0 2.002.784 2.002 2.198z" fill="#b9d053"/><path d="m262.286 241.3 2.352 7.7h.868l2.45-8.75h-.896l-1.96 7.476-2.268-7.476h-1.064l-2.226 7.476-2.044-7.476h-.924l2.492 8.75h.854zm12.341 7.7h-.868v-4.144c0-1.078-.462-1.624-1.372-1.624-.714 0-1.386.308-1.988.91v4.858h-.868v-9.436l.868-.182v4.046c.686-.686 1.428-1.022 2.226-1.022 1.26 0 2.002.784 2.002 2.198zm6.845-6.412-2.492 6.342-.518 1.386c-.56 1.526-1.148 2.016-2.072 2.016-.378 0-.784-.098-1.246-.294l.266-.798c.35.182.672.28.98.28.532 0 .882-.322 1.316-1.484l.434-1.134-2.506-6.314h.938l2.016 5.292 1.974-5.292zm5.255 2.912v3.5h-.896v-8.75h2.352c2.114 0 3.178.938 3.178 2.52 0 1.26-.812 2.086-2.03 2.464l2.422 3.766h-1.036l-2.24-3.612zm0-.798 1.568-.056c1.232-.042 2.17-.728 2.17-1.834 0-1.148-.84-1.75-2.38-1.75h-1.358zm12.089 1.078c0 1.008-.294 1.82-.896 2.45s-1.344.952-2.254.952-1.652-.308-2.226-.924-.868-1.428-.868-2.45c0-1.008.308-1.834.91-2.464s1.344-.938 2.254-.938 1.652.308 2.226.924.854 1.428.854 2.45zm-.854.028c0-1.582-.896-2.618-2.268-2.618-1.344 0-2.254 1.05-2.254 2.59 0 1.582.896 2.618 2.268 2.618 1.344 0 2.254-1.05 2.254-2.59zm5.758-6.272-.042.196c-.042.14-.07.266-.112.392l-.056.196c-.378-.182-.7-.266-.98-.266-.714 0-1.064.504-1.064 1.498v1.064h2.016l-.042.77h-1.974v5.614h-.854v-5.586l-1.036-.07.056-.546.966-.224.014-1.008c.028-1.54.672-2.31 1.932-2.31.392 0 .784.098 1.176.28zm4.307 0-.042.196c-.042.14-.07.266-.112.392l-.056.196c-.378-.182-.7-.266-.98-.266-.714 0-1.064.504-1.064 1.498v1.064h2.016l-.042.77h-1.974v5.614h-.854v-5.586l-1.036-.07.056-.546.966-.224.014-1.008c.028-1.54.672-2.31 1.932-2.31.392 0 .784.098 1.176.28zm-.171 8.82c.042-.378.322-.686.756-.686.532 0 .994.462.994 1.106 0 .854-.574 1.652-1.736 2.422l-.378-.378c.826-.588 1.232-1.148 1.232-1.666 0-.35-.224-.56-.868-.798zm12.657-7.266v-.84h-7.056v.84h3.08v7.91h.896v-7.91zm2.363-.616c0 .182-.056.322-.154.448s-.252.196-.434.196-.336-.07-.434-.196-.154-.266-.154-.448c0-.168.056-.308.154-.434s.252-.182.434-.182.336.056.434.182.154.266.154.434zm-.154 8.526h-.868v-6.412l.868-.182zm2.912 0v-9.618l-.868.182v9.436zm2.479-3.178v.07c.042 1.47.91 2.478 2.24 2.478.7 0 1.316-.182 1.862-.532l.168.798c-.588.364-1.274.546-2.058.546-1.834 0-3.094-1.358-3.094-3.332 0-1.008.294-1.834.868-2.478s1.288-.966 2.156-.966c1.428 0 2.338.924 2.338 2.366 0 .378-.042.714-.14 1.022zm.056-.686 3.556-.014c.014-.042.014-.14.014-.28 0-1.008-.546-1.652-1.54-1.652-1.106 0-1.876.826-2.03 1.946zm16.103 3.178c-.854.574-1.848.868-2.982.868-1.274 0-2.296-.406-3.066-1.232s-1.162-1.918-1.162-3.304.392-2.492 1.19-3.332c.784-.826 1.792-1.246 3.038-1.246 1.05 0 1.974.238 2.772.728l-.294.812c-.756-.49-1.582-.728-2.492-.728-1.974 0-3.304 1.386-3.304 3.738 0 2.31 1.302 3.752 3.332 3.752.756 0 1.456-.182 2.1-.532v-2.38h-2.534v-.812h3.402zm2.758-3.43v4.116h-.868v-6.412l.868-.182v1.372c.462-.91 1.092-1.372 1.89-1.372.406 0 .77.098 1.12.294l-.224.812c-.308-.182-.63-.28-.98-.28-.714 0-1.316.546-1.806 1.652zm9.81.896c0 1.008-.294 1.82-.896 2.45s-1.344.952-2.254.952-1.652-.308-2.226-.924-.868-1.428-.868-2.45c0-1.008.308-1.834.91-2.464s1.344-.938 2.254-.938 1.652.308 2.226.924.854 1.428.854 2.45zm-.854.028c0-1.582-.896-2.618-2.268-2.618-1.344 0-2.254 1.05-2.254 2.59 0 1.582.896 2.618 2.268 2.618 1.344 0 2.254-1.05 2.254-2.59zm2.411-3.22h.868v4.144c0 1.078.462 1.624 1.386 1.624.728 0 1.386-.308 1.974-.91v-4.858h.868v6.412l-.868.182v-1.036c-.672.686-1.414 1.036-2.212 1.036-1.26 0-2.016-.812-2.016-2.198zm10.303 6.286c-.476.224-.952.336-1.428.336-1.19 0-1.764-.672-1.722-2.016l.098-3.794-.98-.056.042-.546.966-.224.042-1.456h.826l-.042 1.498h2.142l-.042.77h-2.128l-.098 3.836c-.028.798.28 1.204.938 1.204.35 0 .756-.098 1.232-.308zm12.427.126h.91l-.28-8.75h-1.19l-2.912 7.728-2.954-7.728h-1.204l-.294 8.75h.882l.154-7.658 2.898 7.602h.98l2.87-7.588zm6.17-1.414v-1.876c-2.156.238-2.982.714-2.982 1.596 0 .672.546 1.12 1.316 1.12.616 0 1.176-.28 1.666-.84zm.056.644h-.042c-.518.63-1.134.952-1.876.952-1.176 0-2.03-.742-2.03-1.778 0-1.372 1.302-2.128 3.892-2.282v-.378c0-1.022-.504-1.526-1.512-1.526-.672 0-1.512.336-2.1.77l-.196-.812c.616-.434 1.568-.77 2.38-.77 1.54 0 2.31.77 2.296 2.296v3.08c0 .504.112.658.644.644l-.056.714c-.826.056-1.302-.252-1.4-.91zm5.943.644c-.476.224-.952.336-1.428.336-1.19 0-1.764-.672-1.722-2.016l.098-3.794-.98-.056.042-.546.966-.224.042-1.456h.826l-.042 1.498h2.142l-.042.77h-2.128l-.098 3.836c-.028.798.28 1.204.938 1.204.35 0 .756-.098 1.232-.308zm6.051-.238c-.588.364-1.246.546-1.988.546-1.918 0-3.136-1.344-3.136-3.374 0-.994.294-1.82.896-2.45.588-.63 1.344-.952 2.254-.952.77 0 1.428.182 2.002.546l-.224.784c-.518-.35-1.12-.518-1.778-.518-1.386 0-2.254 1.022-2.254 2.562 0 1.582.896 2.59 2.268 2.59.644 0 1.232-.182 1.778-.532zm6.708.364h-.868v-4.144c0-1.078-.462-1.624-1.372-1.624-.714 0-1.386.308-1.988.91v4.858h-.868v-9.436l.868-.182v4.046c.686-.686 1.428-1.022 2.226-1.022 1.26 0 2.002.784 2.002 2.198zm2.435-3.178v.07c.042 1.47.91 2.478 2.24 2.478.7 0 1.316-.182 1.862-.532l.168.798c-.588.364-1.274.546-2.058.546-1.834 0-3.094-1.358-3.094-3.332 0-1.008.294-1.834.868-2.478s1.288-.966 2.156-.966c1.428 0 2.338.924 2.338 2.366 0 .378-.042.714-.14 1.022zm.056-.686 3.556-.014c.014-.042.014-.14.014-.28 0-1.008-.546-1.652-1.54-1.652-1.106 0-1.876.826-2.03 1.946zm6.926-.252v4.116h-.868v-6.412l.868-.182v1.372c.462-.91 1.092-1.372 1.89-1.372.406 0 .77.098 1.12.294l-.224.812c-.308-.182-.63-.28-.98-.28-.714 0-1.316.546-1.806 1.652zm2.798 3.472c.042-.378.322-.686.756-.686.532 0 .994.462.994 1.106 0 .854-.574 1.652-1.736 2.422l-.378-.378c.826-.588 1.232-1.148 1.232-1.666 0-.35-.224-.56-.868-.798zm-154.892 10.734v-.84h-7.056v.84h3.08v7.91h.896v-7.91zm.869 3.794v4.116h-.868v-6.412l.868-.182v1.372c.462-.91 1.092-1.372 1.89-1.372.406 0 .77.098 1.12.294l-.224.812c-.308-.182-.63-.28-.98-.28-.714 0-1.316.546-1.806 1.652zm4.448.938v.07c.042 1.47.91 2.478 2.24 2.478.7 0 1.316-.182 1.862-.532l.168.798c-.588.364-1.274.546-2.058.546-1.834 0-3.094-1.358-3.094-3.332 0-1.008.294-1.834.868-2.478s1.288-.966 2.156-.966c1.428 0 2.338.924 2.338 2.366 0 .378-.042.714-.14 1.022zm.056-.686 3.556-.014c.014-.042.014-.14.014-.28 0-1.008-.546-1.652-1.54-1.652-1.106 0-1.876.826-2.03 1.946zm11.154 3.864h-.868v-4.144c0-1.12-.434-1.624-1.414-1.624-.686 0-1.344.308-1.946.91v4.858h-.868v-6.412l.868-.182v1.05c.7-.7 1.428-1.05 2.184-1.05 1.288 0 2.044.784 2.044 2.198zm6.284-6.202v-3.234l.868-.182v9.618h-.868v-.602c-.56.518-1.176.784-1.862.784-1.722 0-2.87-1.358-2.87-3.332 0-.994.294-1.806.896-2.45.602-.63 1.358-.952 2.282-.952.532 0 1.05.112 1.554.35zm0 .924c-.42-.322-.952-.49-1.596-.49-1.372 0-2.24 1.064-2.24 2.604 0 1.498.84 2.548 2.128 2.548.63 0 1.204-.238 1.708-.714v-3.822zm6.73 3.528c0 1.162-.98 1.932-2.296 1.932-.798 0-1.498-.196-2.1-.574l.238-.798c.588.392 1.218.588 1.89.588.812 0 1.442-.406 1.442-1.078 0-.154-.028-.28-.098-.406s-.154-.224-.224-.294-.21-.14-.392-.224-.322-.14-.406-.168-.252-.084-.49-.154c-1.12-.336-1.862-.812-1.862-1.82 0-1.148.91-1.848 2.17-1.848.686 0 1.33.154 1.946.476l-.252.784c-.574-.322-1.162-.476-1.75-.476-.784 0-1.288.364-1.288.98 0 .14.028.266.098.378.07.126.14.21.21.28s.196.154.378.224c.168.07.308.126.406.168s.266.084.49.154c1.162.336 1.89.812 1.89 1.876zm1.074 1.106c.042-.378.322-.686.756-.686.532 0 .994.462.994 1.106 0 .854-.574 1.652-1.736 2.422l-.378-.378c.826-.588 1.232-1.148 1.232-1.666 0-.35-.224-.56-.868-.798zm10.43-3.836c1.274.238 1.96.994 1.96 2.044 0 1.498-1.008 2.436-3.15 2.436h-2.842v-8.75h2.73c2.03 0 2.982.868 2.982 2.282 0 .924-.574 1.708-1.68 1.988zm.784-1.918c0-.98-.7-1.54-2.044-1.54h-1.876v3.15h1.736c1.344 0 2.184-.574 2.184-1.61zm.28 3.962c0-1.022-.798-1.54-2.408-1.54h-1.792v3.164h2.016c1.456 0 2.184-.546 2.184-1.624zm3.358 2.436v-9.618l-.868.182v9.436zm7.841-3.22c0 1.008-.294 1.82-.896 2.45s-1.344.952-2.254.952-1.652-.308-2.226-.924-.868-1.428-.868-2.45c0-1.008.308-1.834.91-2.464s1.344-.938 2.254-.938 1.652.308 2.226.924.854 1.428.854 2.45zm-.854.028c0-1.582-.896-2.618-2.268-2.618-1.344 0-2.254 1.05-2.254 2.59 0 1.582.896 2.618 2.268 2.618 1.344 0 2.254-1.05 2.254-2.59zm2.957-.98c0 .952.644 1.638 1.652 1.638.49 0 .868-.154 1.162-.476.294-.308.434-.714.434-1.204s-.14-.896-.42-1.204c-.294-.308-.7-.462-1.218-.462-.994 0-1.61.7-1.61 1.708zm.756 4.354c-.77.21-1.302.714-1.302 1.26 0 .77.854 1.316 2.184 1.316 1.344 0 2.408-.644 2.408-1.512 0-.728-.616-1.022-1.946-1.022-.532 0-.98-.014-1.344-.042zm-.756-.168c-.574-.21-.868-.546-.868-1.022 0-.532.434-.994 1.05-1.218-.686-.42-1.036-1.078-1.036-1.96 0-1.386 1.022-2.408 2.52-2.408.56 0 1.064.126 1.512.378l1.778-.14.042.868-1.414-.14c.294.294.518.91.518 1.442 0 1.372-1.05 2.352-2.492 2.352-.294 0-.602-.056-.952-.182-.476.196-.714.448-.714.77 0 .434.364.658 1.456.658h.826c1.778 0 2.66.56 2.66 1.68 0 .686-.336 1.26-.994 1.708s-1.456.672-2.38.672c-1.722 0-2.898-.756-2.898-1.876 0-.728.56-1.372 1.386-1.582zm5.295-.658c.042-.378.322-.686.756-.686.532 0 .994.462.994 1.106 0 .854-.574 1.652-1.736 2.422l-.378-.378c.826-.588 1.232-1.148 1.232-1.666 0-.35-.224-.56-.868-.798zm12.657-7.266v-.84h-7.056v.84h3.08v7.91h.896v-7.91zm.463 4.732v.07c.042 1.47.91 2.478 2.24 2.478.7 0 1.316-.182 1.862-.532l.168.798c-.588.364-1.274.546-2.058.546-1.834 0-3.094-1.358-3.094-3.332 0-1.008.294-1.834.868-2.478s1.288-.966 2.156-.966c1.428 0 2.338.924 2.338 2.366 0 .378-.042.714-.14 1.022zm.056-.686 3.556-.014c.014-.042.014-.14.014-.28 0-1.008-.546-1.652-1.54-1.652-1.106 0-1.876.826-2.03 1.946zm9.909 2.114c0 1.162-.98 1.932-2.296 1.932-.798 0-1.498-.196-2.1-.574l.238-.798c.588.392 1.218.588 1.89.588.812 0 1.442-.406 1.442-1.078 0-.154-.028-.28-.098-.406s-.154-.224-.224-.294-.21-.14-.392-.224-.322-.14-.406-.168-.252-.084-.49-.154c-1.12-.336-1.862-.812-1.862-1.82 0-1.148.91-1.848 2.17-1.848.686 0 1.33.154 1.946.476l-.252.784c-.574-.322-1.162-.476-1.75-.476-.784 0-1.288.364-1.288.98 0 .14.028.266.098.378.07.126.14.21.21.28s.196.154.378.224c.168.07.308.126.406.168s.266.084.49.154c1.162.336 1.89.812 1.89 1.876zm4.756 1.624c-.476.224-.952.336-1.428.336-1.19 0-1.764-.672-1.722-2.016l.098-3.794-.98-.056.042-.546.966-.224.042-1.456h.826l-.042 1.498h2.142l-.042.77h-2.128l-.098 3.836c-.028.798.28 1.204.938 1.204.35 0 .756-.098 1.232-.308zm2.451-8.4c0 .182-.056.322-.154.448s-.252.196-.434.196-.336-.07-.434-.196-.154-.266-.154-.448c0-.168.056-.308.154-.434s.252-.182.434-.182.336.056.434.182.154.266.154.434zm-.154 8.526h-.868v-6.412l.868-.182zm10.92 0h-.868v-4.13c0-1.092-.448-1.638-1.358-1.638-.616 0-1.218.28-1.806.826.014.112.028.308.028.574v4.368h-.868v-4.13c0-1.092-.448-1.638-1.358-1.638-.63 0-1.218.252-1.778.742v5.026h-.868v-6.412l.868-.182v.882c.644-.588 1.316-.882 2.03-.882.854 0 1.428.35 1.736 1.064.714-.714 1.47-1.064 2.268-1.064 1.232 0 1.974.798 1.974 2.212zm7.803-3.22c0 1.008-.294 1.82-.896 2.45s-1.344.952-2.254.952-1.652-.308-2.226-.924-.868-1.428-.868-2.45c0-1.008.308-1.834.91-2.464s1.344-.938 2.254-.938 1.652.308 2.226.924.854 1.428.854 2.45zm-.854.028c0-1.582-.896-2.618-2.268-2.618-1.344 0-2.254 1.05-2.254 2.59 0 1.582.896 2.618 2.268 2.618 1.344 0 2.254-1.05 2.254-2.59zm7.564 3.192h-.868v-4.144c0-1.12-.434-1.624-1.414-1.624-.686 0-1.344.308-1.946.91v4.858h-.868v-6.412l.868-.182v1.05c.7-.7 1.428-1.05 2.184-1.05 1.288 0 2.044.784 2.044 2.198zm3.008-8.526c0 .182-.056.322-.154.448s-.252.196-.434.196-.336-.07-.434-.196-.154-.266-.154-.448c0-.168.056-.308.154-.434s.252-.182.434-.182.336.056.434.182.154.266.154.434zm-.154 8.526h-.868v-6.412l.868-.182zm5.39-1.414v-1.876c-2.156.238-2.982.714-2.982 1.596 0 .672.546 1.12 1.316 1.12.616 0 1.176-.28 1.666-.84zm.056.644h-.042c-.518.63-1.134.952-1.876.952-1.176 0-2.03-.742-2.03-1.778 0-1.372 1.302-2.128 3.892-2.282v-.378c0-1.022-.504-1.526-1.512-1.526-.672 0-1.512.336-2.1.77l-.196-.812c.616-.434 1.568-.77 2.38-.77 1.54 0 2.31.77 2.296 2.296v3.08c0 .504.112.658.644.644l-.056.714c-.826.056-1.302-.252-1.4-.91zm3.618.77v-9.618l-.868.182v9.436zm5.867-1.75c0 1.162-.98 1.932-2.296 1.932-.798 0-1.498-.196-2.1-.574l.238-.798c.588.392 1.218.588 1.89.588.812 0 1.442-.406 1.442-1.078 0-.154-.028-.28-.098-.406s-.154-.224-.224-.294-.21-.14-.392-.224-.322-.14-.406-.168-.252-.084-.49-.154c-1.12-.336-1.862-.812-1.862-1.82 0-1.148.91-1.848 2.17-1.848.686 0 1.33.154 1.946.476l-.252.784c-.574-.322-1.162-.476-1.75-.476-.784 0-1.288.364-1.288.98 0 .14.028.266.098.378.07.126.14.21.21.28s.196.154.378.224c.168.07.308.126.406.168s.266.084.49.154c1.162.336 1.89.812 1.89 1.876z" fill="#b9d053"/><path d="m19.016 545.5v3.5h-.896v-8.75h2.352c2.114 0 3.178.938 3.178 2.52 0 1.26-.812 2.086-2.03 2.464l2.422 3.766h-1.036l-2.24-3.612zm0-.798 1.568-.056c1.232-.042 2.17-.728 2.17-1.834 0-1.148-.84-1.75-2.38-1.75h-1.358zm6.7274 1.12v.07c.042 1.47.91 2.478 2.24 2.478.7 0 1.316-.182 1.862-.532l.168.798c-.588.364-1.274.546-2.058.546-1.834 0-3.094-1.358-3.094-3.332 0-1.008.294-1.834.868-2.478s1.288-.966 2.156-.966c1.428 0 2.338.924 2.338 2.366 0 .378-.042.714-.14 1.022zm.056-.686 3.556-.014c.014-.042.014-.14.014-.28 0-1.008-.546-1.652-1.54-1.652-1.106 0-1.876.826-2.03 1.946zm10.7622 3.5c-.588.364-1.246.546-1.988.546-1.918 0-3.136-1.344-3.136-3.374 0-.994.294-1.82.896-2.45.588-.63 1.344-.952 2.254-.952.77 0 1.428.182 2.002.546l-.224.784c-.518-.35-1.12-.518-1.778-.518-1.386 0-2.254 1.022-2.254 2.562 0 1.582.896 2.59 2.268 2.59.644 0 1.232-.182 1.778-.532zm7.3681-2.856c0 1.008-.294 1.82-.896 2.45s-1.344.952-2.254.952-1.652-.308-2.226-.924-.868-1.428-.868-2.45c0-1.008.308-1.834.91-2.464s1.344-.938 2.254-.938 1.652.308 2.226.924.854 1.428.854 2.45zm-.854.028c0-1.582-.896-2.618-2.268-2.618-1.344 0-2.254 1.05-2.254 2.59 0 1.582.896 2.618 2.268 2.618 1.344 0 2.254-1.05 2.254-2.59zm11.3435 3.192h-.868v-4.13c0-1.092-.448-1.638-1.358-1.638-.616 0-1.218.28-1.806.826.014.112.028.308.028.574v4.368h-.868v-4.13c0-1.092-.448-1.638-1.358-1.638-.63 0-1.218.252-1.778.742v5.026h-.868v-6.412l.868-.182v.882c.644-.588 1.316-.882 2.03-.882.854 0 1.428.35 1.736 1.064.714-.714 1.47-1.064 2.268-1.064 1.232 0 1.974.798 1.974 2.212zm10.8554 0h-.868v-4.13c0-1.092-.448-1.638-1.358-1.638-.616 0-1.218.28-1.806.826.014.112.028.308.028.574v4.368h-.868v-4.13c0-1.092-.448-1.638-1.358-1.638-.63 0-1.218.252-1.778.742v5.026h-.868v-6.412l.868-.182v.882c.644-.588 1.316-.882 2.03-.882.854 0 1.428.35 1.736 1.064.714-.714 1.47-1.064 2.268-1.064 1.232 0 1.974.798 1.974 2.212zm2.4415-3.178v.07c.042 1.47.91 2.478 2.24 2.478.7 0 1.316-.182 1.862-.532l.168.798c-.588.364-1.274.546-2.058.546-1.834 0-3.094-1.358-3.094-3.332 0-1.008.294-1.834.868-2.478s1.288-.966 2.156-.966c1.428 0 2.338.924 2.338 2.366 0 .378-.042.714-.14 1.022zm.056-.686 3.556-.014c.014-.042.014-.14.014-.28 0-1.008-.546-1.652-1.54-1.652-1.106 0-1.876.826-2.03 1.946zm11.1542 3.864h-.868v-4.144c0-1.12-.434-1.624-1.414-1.624-.686 0-1.344.308-1.946.91v4.858h-.868v-6.412l.868-.182v1.05c.7-.7 1.428-1.05 2.184-1.05 1.288 0 2.044.784 2.044 2.198zm6.2843-6.202v-3.234l.868-.182v9.618h-.868v-.602c-.56.518-1.176.784-1.862.784-1.722 0-2.87-1.358-2.87-3.332 0-.994.294-1.806.896-2.45.602-.63 1.358-.952 2.282-.952.532 0 1.05.112 1.554.35zm0 .924c-.42-.322-.952-.49-1.596-.49-1.372 0-2.24 1.064-2.24 2.604 0 1.498.84 2.548 2.128 2.548.63 0 1.204-.238 1.708-.714v-3.822zm3.3414 2.1v.07c.042 1.47.91 2.478 2.24 2.478.7 0 1.316-.182 1.862-.532l.168.798c-.588.364-1.274.546-2.058.546-1.834 0-3.094-1.358-3.094-3.332 0-1.008.294-1.834.868-2.478s1.288-.966 2.156-.966c1.428 0 2.338.924 2.338 2.366 0 .378-.042.714-.14 1.022zm.056-.686 3.556-.014c.014-.042.014-.14.014-.28 0-1.008-.546-1.652-1.54-1.652-1.106 0-1.876.826-2.03 1.946zm10.3702-2.338v-3.234l.868-.182v9.618h-.868v-.602c-.56.518-1.176.784-1.862.784-1.722 0-2.87-1.358-2.87-3.332 0-.994.294-1.806.896-2.45.602-.63 1.358-.952 2.282-.952.532 0 1.05.112 1.554.35zm0 .924c-.42-.322-.952-.49-1.596-.49-1.372 0-2.24 1.064-2.24 2.604 0 1.498.84 2.548 2.128 2.548.63 0 1.204-.238 1.708-.714v-3.822zm11.1608 5.278h-.868v-4.144c0-1.12-.434-1.624-1.414-1.624-.686 0-1.344.308-1.946.91v4.858h-.868v-6.412l.868-.182v1.05c.7-.7 1.428-1.05 2.184-1.05 1.288 0 2.044.784 2.044 2.198zm5.319-1.414v-1.876c-2.156.238-2.982.714-2.982 1.596 0 .672.546 1.12 1.316 1.12.616 0 1.176-.28 1.666-.84zm.056.644h-.042c-.518.63-1.134.952-1.876.952-1.176 0-2.03-.742-2.03-1.778 0-1.372 1.302-2.128 3.892-2.282v-.378c0-1.022-.504-1.526-1.512-1.526-.672 0-1.512.336-2.1.77l-.196-.812c.616-.434 1.568-.77 2.38-.77 1.54 0 2.31.77 2.296 2.296v3.08c0 .504.112.658.644.644l-.056.714c-.826.056-1.302-.252-1.4-.91zm7.622-5.642h-.91l-1.96 5.292-2.03-5.292h-.938l2.534 6.426h.784zm2.097-2.114c0 .182-.056.322-.154.448s-.252.196-.434.196-.336-.07-.434-.196-.154-.266-.154-.448c0-.168.056-.308.154-.434s.252-.182.434-.182.336.056.434.182.154.266.154.434zm-.154 8.526h-.868v-6.412l.868-.182zm2.534-4.172c0 .952.644 1.638 1.652 1.638.49 0 .868-.154 1.162-.476.294-.308.434-.714.434-1.204s-.14-.896-.42-1.204c-.294-.308-.7-.462-1.218-.462-.994 0-1.61.7-1.61 1.708zm.756 4.354c-.77.21-1.302.714-1.302 1.26 0 .77.854 1.316 2.184 1.316 1.344 0 2.408-.644 2.408-1.512 0-.728-.616-1.022-1.946-1.022-.532 0-.98-.014-1.344-.042zm-.756-.168c-.574-.21-.868-.546-.868-1.022 0-.532.434-.994 1.05-1.218-.686-.42-1.036-1.078-1.036-1.96 0-1.386 1.022-2.408 2.52-2.408.56 0 1.064.126 1.512.378l1.778-.14.042.868-1.414-.14c.294.294.518.91.518 1.442 0 1.372-1.05 2.352-2.492 2.352-.294 0-.602-.056-.952-.182-.476.196-.714.448-.714.77 0 .434.364.658 1.456.658h.826c1.778 0 2.66.56 2.66 1.68 0 .686-.336 1.26-.994 1.708s-1.456.672-2.38.672c-1.722 0-2.898-.756-2.898-1.876 0-.728.56-1.372 1.386-1.582zm9.405-1.428v-1.876c-2.156.238-2.982.714-2.982 1.596 0 .672.546 1.12 1.316 1.12.616 0 1.176-.28 1.666-.84zm.056.644h-.042c-.518.63-1.134.952-1.876.952-1.176 0-2.03-.742-2.03-1.778 0-1.372 1.302-2.128 3.892-2.282v-.378c0-1.022-.504-1.526-1.512-1.526-.672 0-1.512.336-2.1.77l-.196-.812c.616-.434 1.568-.77 2.38-.77 1.54 0 2.31.77 2.296 2.296v3.08c0 .504.112.658.644.644l-.056.714c-.826.056-1.302-.252-1.4-.91zm5.942.644c-.476.224-.952.336-1.428.336-1.19 0-1.764-.672-1.722-2.016l.098-3.794-.98-.056.042-.546.966-.224.042-1.456h.826l-.042 1.498h2.142l-.042.77h-2.128l-.098 3.836c-.028.798.28 1.204.938 1.204.35 0 .756-.098 1.232-.308zm2.452-8.4c0 .182-.056.322-.154.448s-.252.196-.434.196-.336-.07-.434-.196-.154-.266-.154-.448c0-.168.056-.308.154-.434s.252-.182.434-.182.336.056.434.182.154.266.154.434zm-.154 8.526h-.868v-6.412l.868-.182zm7.868-3.22c0 1.008-.294 1.82-.896 2.45s-1.344.952-2.254.952-1.652-.308-2.226-.924-.868-1.428-.868-2.45c0-1.008.308-1.834.91-2.464s1.344-.938 2.254-.938 1.652.308 2.226.924.854 1.428.854 2.45zm-.854.028c0-1.582-.896-2.618-2.268-2.618-1.344 0-2.254 1.05-2.254 2.59 0 1.582.896 2.618 2.268 2.618 1.344 0 2.254-1.05 2.254-2.59zm7.563 3.192h-.868v-4.144c0-1.12-.434-1.624-1.414-1.624-.686 0-1.344.308-1.946.91v4.858h-.868v-6.412l.868-.182v1.05c.7-.7 1.428-1.05 2.184-1.05 1.288 0 2.044.784 2.044 2.198zm6.026 0v-9.618l-.868.182v9.436zm3.053-8.526c0 .182-.056.322-.154.448s-.252.196-.434.196-.336-.07-.434-.196-.154-.266-.154-.448c0-.168.056-.308.154-.434s.252-.182.434-.182.336.056.434.182.154.266.154.434zm-.154 8.526h-.868v-6.412l.868-.182zm7.14 0h-.868v-4.144c0-1.12-.434-1.624-1.414-1.624-.686 0-1.344.308-1.946.91v4.858h-.868v-6.412l.868-.182v1.05c.7-.7 1.428-1.05 2.184-1.05 1.288 0 2.044.784 2.044 2.198zm2.868-3.192 2.884 3.192h1.106l-3.094-3.36 3.08-3.052h-1.092l-2.884 2.954h-.028v-6.16l-.868.182v9.436h.868v-3.192zm9.024 1.442c0 1.162-.98 1.932-2.296 1.932-.798 0-1.498-.196-2.1-.574l.238-.798c.588.392 1.218.588 1.89.588.812 0 1.442-.406 1.442-1.078 0-.154-.028-.28-.098-.406s-.154-.224-.224-.294-.21-.14-.392-.224-.322-.14-.406-.168-.252-.084-.49-.154c-1.12-.336-1.862-.812-1.862-1.82 0-1.148.91-1.848 2.17-1.848.686 0 1.33.154 1.946.476l-.252.784c-.574-.322-1.162-.476-1.75-.476-.784 0-1.288.364-1.288.98 0 .14.028.266.098.378.07.126.14.21.21.28s.196.154.378.224c.168.07.308.126.406.168s.266.084.49.154c1.162.336 1.89.812 1.89 1.876z" fill="#b9d053"/><g stroke="#b9d053" stroke-dasharray="5 5"><path d="m.5 427.5h602v142h-602z" stroke-linecap="round" stroke-linejoin="round"/><path d="m136.5 279v97"/><path d="m107 375.5h838"/><path d="m742 420.5h585"/><path d="m496.5 459v-83"/><path d="m1131.96 459v-38"/><path d="m1326.96 459v-38"/><path d="m936.957 459v-38"/><path d="m1034.5 421v-22"/><path d="m741.957 459v-38"/><path d="m301.957 459v-83"/><path d="m106.957 459v-83"/></g><circle cx="496.543" cy="458" fill="#b9d053" r="5"/><circle cx="1132" cy="458" fill="#b9d053" r="5"/><circle cx="1327" cy="458" fill="#b9d053" r="5"/><circle cx="937" cy="458" fill="#b9d053" r="5"/><circle cx="742" cy="458" fill="#b9d053" r="5"/><circle cx="302" cy="458" fill="#b9d053" r="5"/><circle cx="107" cy="458" fill="#b9d053" r="5"/><rect fill="#b9d053" height="35" rx="10" width="76" x="1091" y="82"/><rect fill="#60681f" height="35" rx="10" width="76" x="1091" y="217"/><rect fill="#ccc" height="35" rx="10" width="76" x="1091" y="127"/><rect height="33" rx="9" stroke="#b9d053" stroke-width="2" width="74" x="1092" y="173"/><path d="m1189.61 105v-11.25h-1.13v11.25zm9.33 0h-1.11v-5.328c0-1.44-.56-2.088-1.82-2.088-.88 0-1.73.396-2.5 1.17v6.246h-1.12v-8.244l1.12-.234v1.35c.9-.9 1.83-1.35 2.81-1.35 1.65 0 2.62 1.008 2.62 2.826zm8.08-7.974v-4.158l1.12-.234v12.366h-1.12v-.774c-.72.666-1.51 1.008-2.39 1.008-2.21 0-3.69-1.746-3.69-4.284 0-1.278.38-2.322 1.15-3.15.78-.81 1.75-1.224 2.94-1.224.68 0 1.35.144 1.99.45zm0 1.188c-.54-.414-1.22-.63-2.05-.63-1.76 0-2.88 1.368-2.88 3.348 0 1.926 1.08 3.276 2.74 3.276.81 0 1.55-.306 2.19-.918v-4.914zm5.04-4.176c0 .234-.07.414-.2.576s-.32.252-.56.252c-.23 0-.43-.09-.56-.252-.12-.162-.19-.342-.19-.576 0-.216.07-.396.19-.558.13-.162.33-.234.56-.234.24 0 .43.072.56.234s.2.342.2.558zm-.2 10.962h-1.12v-8.244l1.12-.234zm8.68-.468c-.76.468-1.61.702-2.56.702-2.47 0-4.03-1.728-4.03-4.338 0-1.278.38-2.34 1.15-3.15.76-.81 1.73-1.224 2.9-1.224.99 0 1.83.234 2.57.702l-.29 1.008c-.66-.45-1.44-.666-2.28-.666-1.78 0-2.9 1.314-2.9 3.294 0 2.034 1.15 3.33 2.92 3.33.82 0 1.58-.234 2.28-.684zm6.37-1.35v-2.412c-2.77.306-3.83.918-3.83 2.052 0 .864.7 1.44 1.69 1.44.79 0 1.51-.36 2.14-1.08zm.07.828h-.05c-.67.81-1.46 1.224-2.41 1.224-1.52 0-2.61-.954-2.61-2.286 0-1.764 1.67-2.736 5-2.934v-.486c0-1.314-.65-1.962-1.94-1.962-.87 0-1.95.432-2.7.99l-.26-1.044c.8-.558 2.02-.99 3.06-.99 1.98 0 2.97.99 2.96 2.952v3.96c0 .648.14.846.82.828l-.07.918c-1.06.072-1.67-.324-1.8-1.17zm7.64.828c-.61.288-1.22.432-1.83.432-1.53 0-2.27-.864-2.22-2.592l.13-4.878-1.26-.072.05-.702 1.24-.288.06-1.872h1.06l-.05 1.926h2.75l-.05.99h-2.74l-.13 4.932c-.03 1.026.36 1.548 1.21 1.548.45 0 .97-.126 1.58-.396zm2.33-3.924v.09c.05 1.89 1.17 3.186 2.88 3.186.9 0 1.69-.234 2.39-.684l.22 1.026c-.76.468-1.64.702-2.65.702-2.36 0-3.98-1.746-3.98-4.284 0-1.296.38-2.358 1.12-3.186s1.66-1.242 2.77-1.242c1.84 0 3.01 1.188 3.01 3.042 0 .486-.06.918-.18 1.314zm.07-.882 4.57-.018c.02-.054.02-.18.02-.36 0-1.296-.7-2.124-1.98-2.124-1.42 0-2.41 1.062-2.61 2.502zm12.74 2.718c0 1.494-1.26 2.484-2.95 2.484-1.03 0-1.93-.252-2.7-.738l.3-1.026c.76.504 1.57.756 2.43.756 1.05 0 1.86-.522 1.86-1.386 0-.198-.04-.36-.13-.522s-.2-.288-.29-.378-.27-.18-.5-.288-.41-.18-.52-.216-.33-.108-.63-.198c-1.44-.432-2.4-1.044-2.4-2.34 0-1.476 1.17-2.376 2.79-2.376.89 0 1.71.198 2.51.612l-.33 1.008c-.74-.414-1.49-.612-2.25-.612-1.01 0-1.65.468-1.65 1.26 0 .18.03.342.12.486.09.162.18.27.27.36s.25.198.49.288c.21.09.39.162.52.216s.34.108.63.198c1.49.432 2.43 1.044 2.43 2.412zm12.66 2.25h-1.12v-5.328c0-1.386-.59-2.088-1.76-2.088-.92 0-1.78.396-2.56 1.17v6.246h-1.11v-12.132l1.11-.234v5.202c.88-.882 1.84-1.314 2.86-1.314 1.62 0 2.58 1.008 2.58 2.826zm10.02-4.14c0 1.296-.38 2.34-1.15 3.15s-1.73 1.224-2.9 1.224-2.12-.396-2.86-1.188-1.12-1.836-1.12-3.15c0-1.296.4-2.358 1.17-3.168.78-.81 1.73-1.206 2.9-1.206s2.13.396 2.86 1.188c.74.792 1.1 1.836 1.1 3.15zm-1.1.036c0-2.034-1.15-3.366-2.91-3.366-1.73 0-2.9 1.35-2.9 3.33 0 2.034 1.15 3.366 2.92 3.366 1.72 0 2.89-1.35 2.89-3.33zm14.59 4.104h-1.12v-5.31c0-1.404-.57-2.106-1.74-2.106-.8 0-1.57.36-2.33 1.062.02.144.04.396.04.738v5.616h-1.12v-5.31c0-1.404-.57-2.106-1.74-2.106-.81 0-1.57.324-2.29.954v6.462h-1.11v-8.244l1.11-.234v1.134c.83-.756 1.69-1.134 2.61-1.134 1.1 0 1.84.45 2.23 1.368.92-.918 1.89-1.368 2.92-1.368 1.58 0 2.54 1.026 2.54 2.844zm3.14-4.086v.09c.05 1.89 1.17 3.186 2.88 3.186.9 0 1.69-.234 2.39-.684l.22 1.026c-.76.468-1.64.702-2.65.702-2.36 0-3.98-1.746-3.98-4.284 0-1.296.38-2.358 1.12-3.186s1.66-1.242 2.77-1.242c1.84 0 3.01 1.188 3.01 3.042 0 .486-.06.918-.18 1.314zm.07-.882 4.57-.018c.02-.054.02-.18.02-.36 0-1.296-.7-2.124-1.98-2.124-1.42 0-2.41 1.062-2.61 2.502zm8.9-2.448c.72-.666 1.52-1.008 2.4-1.008 2.21 0 3.69 1.728 3.69 4.266 0 1.278-.38 2.34-1.14 3.15-.77.828-1.74 1.242-2.93 1.242-.74 0-1.4-.144-2.02-.432v4.392h-1.11v-12.474l1.11-.234zm0 .936v5.058c.56.432 1.25.648 2.07.648 1.73 0 2.87-1.386 2.87-3.366 0-1.926-1.07-3.258-2.72-3.258-.81 0-1.55.306-2.22.918zm12.45 4.662v-2.412c-2.77.306-3.83.918-3.83 2.052 0 .864.7 1.44 1.69 1.44.79 0 1.51-.36 2.14-1.08zm.08.828h-.06c-.66.81-1.46 1.224-2.41 1.224-1.51 0-2.61-.954-2.61-2.286 0-1.764 1.67-2.736 5-2.934v-.486c0-1.314-.64-1.962-1.94-1.962-.86 0-1.94.432-2.7.99l-.25-1.044c.79-.558 2.01-.99 3.06-.99 1.98 0 2.97.99 2.95 2.952v3.96c0 .648.14.846.83.828l-.07.918c-1.07.072-1.68-.324-1.8-1.17zm4.16-4.374c0 1.224.83 2.106 2.13 2.106.63 0 1.11-.198 1.49-.612.38-.396.56-.918.56-1.548s-.18-1.152-.54-1.548c-.38-.396-.9-.594-1.57-.594-1.28 0-2.07.9-2.07 2.196zm.97 5.598c-.99.27-1.67.918-1.67 1.62 0 .99 1.1 1.692 2.81 1.692 1.73 0 3.09-.828 3.09-1.944 0-.936-.79-1.314-2.5-1.314-.68 0-1.26-.018-1.73-.054zm-.97-.216c-.74-.27-1.11-.702-1.11-1.314 0-.684.55-1.278 1.35-1.566-.89-.54-1.34-1.386-1.34-2.52 0-1.782 1.32-3.096 3.24-3.096.72 0 1.37.162 1.95.486l2.28-.18.06 1.116-1.82-.18c.38.378.67 1.17.67 1.854 0 1.764-1.35 3.024-3.21 3.024-.38 0-.77-.072-1.22-.234-.61.252-.92.576-.92.99 0 .558.47.846 1.87.846h1.06c2.29 0 3.42.72 3.42 2.16 0 .882-.43 1.62-1.27 2.196-.85.576-1.88.864-3.06.864-2.22 0-3.73-.972-3.73-2.412 0-.936.72-1.764 1.78-2.034zm8.39-4.104v.09c.05 1.89 1.17 3.186 2.88 3.186.9 0 1.69-.234 2.39-.684l.22 1.026c-.76.468-1.64.702-2.65.702-2.36 0-3.98-1.746-3.98-4.284 0-1.296.38-2.358 1.12-3.186s1.65-1.242 2.77-1.242c1.84 0 3.01 1.188 3.01 3.042 0 .486-.06.918-.18 1.314zm.07-.882 4.57-.018c.02-.054.02-.18.02-.36 0-1.296-.7-2.124-1.98-2.124-1.42 0-2.41 1.062-2.61 2.502z" fill="#fbfbfb"/><path d="m1189.61 196v-11.25h-1.13v11.25zm9.33 0h-1.11v-5.328c0-1.44-.56-2.088-1.82-2.088-.88 0-1.73.396-2.5 1.17v6.246h-1.12v-8.244l1.12-.234v1.35c.9-.9 1.83-1.35 2.81-1.35 1.65 0 2.62 1.008 2.62 2.826zm8.08-7.974v-4.158l1.12-.234v12.366h-1.12v-.774c-.72.666-1.51 1.008-2.39 1.008-2.21 0-3.69-1.746-3.69-4.284 0-1.278.38-2.322 1.15-3.15.78-.81 1.75-1.224 2.94-1.224.68 0 1.35.144 1.99.45zm0 1.188c-.54-.414-1.22-.63-2.05-.63-1.76 0-2.88 1.368-2.88 3.348 0 1.926 1.08 3.276 2.74 3.276.81 0 1.55-.306 2.19-.918v-4.914zm5.04-4.176c0 .234-.07.414-.2.576s-.32.252-.56.252c-.23 0-.43-.09-.56-.252-.12-.162-.19-.342-.19-.576 0-.216.07-.396.19-.558.13-.162.33-.234.56-.234.24 0 .43.072.56.234s.2.342.2.558zm-.2 10.962h-1.12v-8.244l1.12-.234zm8.68-.468c-.76.468-1.61.702-2.56.702-2.47 0-4.03-1.728-4.03-4.338 0-1.278.38-2.34 1.15-3.15.76-.81 1.73-1.224 2.9-1.224.99 0 1.83.234 2.57.702l-.29 1.008c-.66-.45-1.44-.666-2.28-.666-1.78 0-2.9 1.314-2.9 3.294 0 2.034 1.15 3.33 2.92 3.33.82 0 1.58-.234 2.28-.684zm6.37-1.35v-2.412c-2.77.306-3.83.918-3.83 2.052 0 .864.7 1.44 1.69 1.44.79 0 1.51-.36 2.14-1.08zm.07.828h-.05c-.67.81-1.46 1.224-2.41 1.224-1.52 0-2.61-.954-2.61-2.286 0-1.764 1.67-2.736 5-2.934v-.486c0-1.314-.65-1.962-1.94-1.962-.87 0-1.95.432-2.7.99l-.26-1.044c.8-.558 2.02-.99 3.06-.99 1.98 0 2.97.99 2.96 2.952v3.96c0 .648.14.846.82.828l-.07.918c-1.06.072-1.67-.324-1.8-1.17zm7.64.828c-.61.288-1.22.432-1.83.432-1.53 0-2.27-.864-2.22-2.592l.13-4.878-1.26-.072.05-.702 1.24-.288.06-1.872h1.06l-.05 1.926h2.75l-.05.99h-2.74l-.13 4.932c-.03 1.026.36 1.548 1.21 1.548.45 0 .97-.126 1.58-.396zm2.33-3.924v.09c.05 1.89 1.17 3.186 2.88 3.186.9 0 1.69-.234 2.39-.684l.22 1.026c-.76.468-1.64.702-2.65.702-2.36 0-3.98-1.746-3.98-4.284 0-1.296.38-2.358 1.12-3.186s1.66-1.242 2.77-1.242c1.84 0 3.01 1.188 3.01 3.042 0 .486-.06.918-.18 1.314zm.07-.882 4.57-.018c.02-.054.02-.18.02-.36 0-1.296-.7-2.124-1.98-2.124-1.42 0-2.41 1.062-2.61 2.502zm12.74 2.718c0 1.494-1.26 2.484-2.95 2.484-1.03 0-1.93-.252-2.7-.738l.3-1.026c.76.504 1.57.756 2.43.756 1.05 0 1.86-.522 1.86-1.386 0-.198-.04-.36-.13-.522s-.2-.288-.29-.378-.27-.18-.5-.288-.41-.18-.52-.216-.33-.108-.63-.198c-1.44-.432-2.4-1.044-2.4-2.34 0-1.476 1.17-2.376 2.79-2.376.89 0 1.71.198 2.51.612l-.33 1.008c-.74-.414-1.49-.612-2.25-.612-1.01 0-1.65.468-1.65 1.26 0 .18.03.342.12.486.09.162.18.27.27.36s.25.198.49.288c.21.09.39.162.52.216s.34.108.63.198c1.49.432 2.43 1.044 2.43 2.412zm11.06 0c0 1.494-1.26 2.484-2.96 2.484-1.02 0-1.92-.252-2.7-.738l.31-1.026c.76.504 1.57.756 2.43.756 1.04 0 1.85-.522 1.85-1.386 0-.198-.03-.36-.12-.522s-.2-.288-.29-.378-.27-.18-.5-.288c-.24-.108-.42-.18-.53-.216-.1-.036-.32-.108-.63-.198-1.44-.432-2.39-1.044-2.39-2.34 0-1.476 1.17-2.376 2.79-2.376.88 0 1.71.198 2.5.612l-.32 1.008c-.74-.414-1.5-.612-2.25-.612-1.01 0-1.66.468-1.66 1.26 0 .18.04.342.13.486.09.162.18.27.27.36s.25.198.48.288c.22.09.4.162.53.216.12.054.34.108.63.198 1.49.432 2.43 1.044 2.43 2.412zm2.6-1.836v.09c.06 1.89 1.17 3.186 2.88 3.186.9 0 1.69-.234 2.4-.684l.21 1.026c-.75.468-1.64.702-2.64.702-2.36 0-3.98-1.746-3.98-4.284 0-1.296.38-2.358 1.11-3.186.74-.828 1.66-1.242 2.78-1.242 1.83 0 3 1.188 3 3.042 0 .486-.05.918-.18 1.314zm.07-.882 4.58-.018c.01-.054.01-.18.01-.36 0-1.296-.7-2.124-1.98-2.124-1.42 0-2.41 1.062-2.61 2.502zm13.84 4.5c-.76.468-1.6.702-2.56.702-2.46 0-4.03-1.728-4.03-4.338 0-1.278.38-2.34 1.15-3.15.76-.81 1.73-1.224 2.9-1.224.99 0 1.84.234 2.58.702l-.29 1.008c-.67-.45-1.44-.666-2.29-.666-1.78 0-2.9 1.314-2.9 3.294 0 2.034 1.16 3.33 2.92 3.33.83 0 1.58-.234 2.29-.684zm9.47-3.672c0 1.296-.37 2.34-1.15 3.15-.77.81-1.73 1.224-2.9 1.224s-2.12-.396-2.86-1.188-1.11-1.836-1.11-3.15c0-1.296.39-2.358 1.17-3.168.77-.81 1.72-1.206 2.89-1.206s2.13.396 2.87 1.188c.73.792 1.09 1.836 1.09 3.15zm-1.09.036c0-2.034-1.16-3.366-2.92-3.366-1.73 0-2.9 1.35-2.9 3.33 0 2.034 1.15 3.366 2.92 3.366 1.73 0 2.9-1.35 2.9-3.33zm9.72 4.104h-1.12v-5.328c0-1.44-.55-2.088-1.81-2.088-.89 0-1.73.396-2.51 1.17v6.246h-1.11v-8.244l1.11-.234v1.35c.9-.9 1.84-1.35 2.81-1.35 1.66 0 2.63 1.008 2.63 2.826zm8.08-7.974v-4.158l1.12-.234v12.366h-1.12v-.774c-.72.666-1.51 1.008-2.39 1.008-2.22 0-3.69-1.746-3.69-4.284 0-1.278.37-2.322 1.15-3.15.77-.81 1.74-1.224 2.93-1.224.69 0 1.35.144 2 .45zm0 1.188c-.54-.414-1.22-.63-2.05-.63-1.77 0-2.88 1.368-2.88 3.348 0 1.926 1.08 3.276 2.73 3.276.81 0 1.55-.306 2.2-.918v-4.914zm8 4.968v-2.412c-2.77.306-3.83.918-3.83 2.052 0 .864.7 1.44 1.69 1.44.79 0 1.51-.36 2.14-1.08zm.08.828h-.06c-.66.81-1.46 1.224-2.41 1.224-1.51 0-2.61-.954-2.61-2.286 0-1.764 1.67-2.736 5-2.934v-.486c0-1.314-.64-1.962-1.94-1.962-.86 0-1.94.432-2.7.99l-.25-1.044c.79-.558 2.01-.99 3.06-.99 1.98 0 2.97.99 2.95 2.952v3.96c0 .648.14.846.83.828l-.07.918c-1.07.072-1.68-.324-1.8-1.17zm4.65-4.302v5.292h-1.12v-8.244l1.12-.234v1.764c.59-1.17 1.4-1.764 2.43-1.764.52 0 .99.126 1.44.378l-.29 1.044c-.4-.234-.81-.36-1.26-.36-.92 0-1.69.702-2.32 2.124zm11.83-2.952-3.21 8.154-.66 1.782c-.72 1.962-1.48 2.592-2.67 2.592-.48 0-1.01-.126-1.6-.378l.34-1.026c.45.234.87.36 1.26.36.69 0 1.14-.414 1.69-1.908l.56-1.458-3.22-8.118h1.21l2.59 6.804 2.54-6.804zm12.01 8.244h-1.12v-5.328c0-1.44-.56-2.088-1.82-2.088-.88 0-1.72.396-2.5 1.17v6.246h-1.11v-8.244l1.11-.234v1.35c.9-.9 1.84-1.35 2.81-1.35 1.66 0 2.63 1.008 2.63 2.826zm6.84-1.818v-2.412c-2.78.306-3.84.918-3.84 2.052 0 .864.7 1.44 1.69 1.44.8 0 1.52-.36 2.15-1.08zm.07.828h-.06c-.66.81-1.45 1.224-2.41 1.224-1.51 0-2.61-.954-2.61-2.286 0-1.764 1.68-2.736 5.01-2.934v-.486c0-1.314-.65-1.962-1.95-1.962-.86 0-1.94.432-2.7.99l-.25-1.044c.79-.558 2.02-.99 3.06-.99 1.98 0 2.97.99 2.95 2.952v3.96c0 .648.15.846.83.828l-.07.918c-1.06.072-1.68-.324-1.8-1.17zm9.8-7.254h-1.17l-2.52 6.804-2.61-6.804h-1.21l3.26 8.262h1.01zm2.7-2.718c0 .234-.08.414-.2.576-.13.162-.33.252-.56.252s-.43-.09-.56-.252c-.12-.162-.2-.342-.2-.576 0-.216.08-.396.2-.558.13-.162.33-.234.56-.234s.43.072.56.234c.12.162.2.342.2.558zm-.2 10.962h-1.12v-8.244l1.12-.234zm3.26-5.364c0 1.224.82 2.106 2.12 2.106.63 0 1.12-.198 1.49-.612.38-.396.56-.918.56-1.548s-.18-1.152-.54-1.548c-.38-.396-.9-.594-1.56-.594-1.28 0-2.07.9-2.07 2.196zm.97 5.598c-.99.27-1.68.918-1.68 1.62 0 .99 1.1 1.692 2.81 1.692 1.73 0 3.1-.828 3.1-1.944 0-.936-.79-1.314-2.5-1.314-.69 0-1.26-.018-1.73-.054zm-.97-.216c-.74-.27-1.12-.702-1.12-1.314 0-.684.56-1.278 1.35-1.566-.88-.54-1.33-1.386-1.33-2.52 0-1.782 1.31-3.096 3.24-3.096.72 0 1.37.162 1.94.486l2.29-.18.05 1.116-1.82-.18c.38.378.67 1.17.67 1.854 0 1.764-1.35 3.024-3.2 3.024-.38 0-.78-.072-1.23-.234-.61.252-.92.576-.92.99 0 .558.47.846 1.88.846h1.06c2.28 0 3.42.72 3.42 2.16 0 .882-.43 1.62-1.28 2.196s-1.87.864-3.06.864c-2.21 0-3.73-.972-3.73-2.412 0-.936.72-1.764 1.79-2.034zm12.09-1.836v-2.412c-2.77.306-3.84.918-3.84 2.052 0 .864.71 1.44 1.7 1.44.79 0 1.51-.36 2.14-1.08zm.07.828h-.05c-.67.81-1.46 1.224-2.42 1.224-1.51 0-2.61-.954-2.61-2.286 0-1.764 1.68-2.736 5.01-2.934v-.486c0-1.314-.65-1.962-1.95-1.962-.86 0-1.94.432-2.7.99l-.25-1.044c.79-.558 2.02-.99 3.06-.99 1.98 0 2.97.99 2.95 2.952v3.96c0 .648.15.846.83.828l-.07.918c-1.06.072-1.67-.324-1.8-1.17zm7.64.828c-.61.288-1.22.432-1.84.432-1.53 0-2.26-.864-2.21-2.592l.13-4.878-1.26-.072.05-.702 1.24-.288.06-1.872h1.06l-.06 1.926h2.76l-.06.99h-2.73l-.13 4.932c-.03 1.026.36 1.548 1.21 1.548.45 0 .97-.126 1.58-.396zm3.15-10.8c0 .234-.07.414-.2.576-.12.162-.32.252-.55.252-.24 0-.44-.09-.56-.252-.13-.162-.2-.342-.2-.576 0-.216.07-.396.2-.558.12-.162.32-.234.56-.234.23 0 .43.072.55.234.13.162.2.342.2.558zm-.2 10.962h-1.11v-8.244l1.11-.234zm10.12-4.14c0 1.296-.38 2.34-1.15 3.15-.78.81-1.73 1.224-2.9 1.224s-2.13-.396-2.86-1.188c-.74-.792-1.12-1.836-1.12-3.15 0-1.296.4-2.358 1.17-3.168s1.73-1.206 2.9-1.206 2.12.396 2.86 1.188 1.1 1.836 1.1 3.15zm-1.1.036c0-2.034-1.15-3.366-2.92-3.366-1.72 0-2.89 1.35-2.89 3.33 0 2.034 1.15 3.366 2.91 3.366 1.73 0 2.9-1.35 2.9-3.33zm9.73 4.104h-1.12v-5.328c0-1.44-.56-2.088-1.82-2.088-.88 0-1.73.396-2.5 1.17v6.246h-1.12v-8.244l1.12-.234v1.35c.9-.9 1.84-1.35 2.81-1.35 1.65 0 2.63 1.008 2.63 2.826z" fill="#fbfbfb"/><path d="m1189.61 150v-11.25h-1.13v11.25zm9.33 0h-1.11v-5.328c0-1.44-.56-2.088-1.82-2.088-.88 0-1.73.396-2.5 1.17v6.246h-1.12v-8.244l1.12-.234v1.35c.9-.9 1.83-1.35 2.81-1.35 1.65 0 2.62 1.008 2.62 2.826zm8.08-7.974v-4.158l1.12-.234v12.366h-1.12v-.774c-.72.666-1.51 1.008-2.39 1.008-2.21 0-3.69-1.746-3.69-4.284 0-1.278.38-2.322 1.15-3.15.78-.81 1.75-1.224 2.94-1.224.68 0 1.35.144 1.99.45zm0 1.188c-.54-.414-1.22-.63-2.05-.63-1.76 0-2.88 1.368-2.88 3.348 0 1.926 1.08 3.276 2.74 3.276.81 0 1.55-.306 2.19-.918v-4.914zm5.04-4.176c0 .234-.07.414-.2.576s-.32.252-.56.252c-.23 0-.43-.09-.56-.252-.12-.162-.19-.342-.19-.576 0-.216.07-.396.19-.558.13-.162.33-.234.56-.234.24 0 .43.072.56.234s.2.342.2.558zm-.2 10.962h-1.12v-8.244l1.12-.234zm8.68-.468c-.76.468-1.61.702-2.56.702-2.47 0-4.03-1.728-4.03-4.338 0-1.278.38-2.34 1.15-3.15.76-.81 1.73-1.224 2.9-1.224.99 0 1.83.234 2.57.702l-.29 1.008c-.66-.45-1.44-.666-2.28-.666-1.78 0-2.9 1.314-2.9 3.294 0 2.034 1.15 3.33 2.92 3.33.82 0 1.58-.234 2.28-.684zm6.37-1.35v-2.412c-2.77.306-3.83.918-3.83 2.052 0 .864.7 1.44 1.69 1.44.79 0 1.51-.36 2.14-1.08zm.07.828h-.05c-.67.81-1.46 1.224-2.41 1.224-1.52 0-2.61-.954-2.61-2.286 0-1.764 1.67-2.736 5-2.934v-.486c0-1.314-.65-1.962-1.94-1.962-.87 0-1.95.432-2.7.99l-.26-1.044c.8-.558 2.02-.99 3.06-.99 1.98 0 2.97.99 2.96 2.952v3.96c0 .648.14.846.82.828l-.07.918c-1.06.072-1.67-.324-1.8-1.17zm7.64.828c-.61.288-1.22.432-1.83.432-1.53 0-2.27-.864-2.22-2.592l.13-4.878-1.26-.072.05-.702 1.24-.288.06-1.872h1.06l-.05 1.926h2.75l-.05.99h-2.74l-.13 4.932c-.03 1.026.36 1.548 1.21 1.548.45 0 .97-.126 1.58-.396zm2.33-3.924v.09c.05 1.89 1.17 3.186 2.88 3.186.9 0 1.69-.234 2.39-.684l.22 1.026c-.76.468-1.64.702-2.65.702-2.36 0-3.98-1.746-3.98-4.284 0-1.296.38-2.358 1.12-3.186s1.66-1.242 2.77-1.242c1.84 0 3.01 1.188 3.01 3.042 0 .486-.06.918-.18 1.314zm.07-.882 4.57-.018c.02-.054.02-.18.02-.36 0-1.296-.7-2.124-1.98-2.124-1.42 0-2.41 1.062-2.61 2.502zm12.74 2.718c0 1.494-1.26 2.484-2.95 2.484-1.03 0-1.93-.252-2.7-.738l.3-1.026c.76.504 1.57.756 2.43.756 1.05 0 1.86-.522 1.86-1.386 0-.198-.04-.36-.13-.522s-.2-.288-.29-.378-.27-.18-.5-.288-.41-.18-.52-.216-.33-.108-.63-.198c-1.44-.432-2.4-1.044-2.4-2.34 0-1.476 1.17-2.376 2.79-2.376.89 0 1.71.198 2.51.612l-.33 1.008c-.74-.414-1.49-.612-2.25-.612-1.01 0-1.65.468-1.65 1.26 0 .18.03.342.12.486.09.162.18.27.27.36s.25.198.49.288c.21.09.39.162.52.216s.34.108.63.198c1.49.432 2.43 1.044 2.43 2.412zm7.22-5.166c.72-.666 1.51-1.008 2.4-1.008 2.21 0 3.69 1.728 3.69 4.266 0 1.278-.38 2.34-1.14 3.15-.77.828-1.74 1.242-2.93 1.242-.74 0-1.41-.144-2.02-.432v4.392h-1.11v-12.474l1.11-.234zm0 .936v5.058c.56.432 1.24.648 2.07.648 1.73 0 2.86-1.386 2.86-3.366 0-1.926-1.06-3.258-2.71-3.258-.81 0-1.55.306-2.22.918zm9.27 1.188v5.292h-1.12v-8.244l1.12-.234v1.764c.59-1.17 1.4-1.764 2.43-1.764.52 0 .99.126 1.44.378l-.29 1.044c-.4-.234-.81-.36-1.26-.36-.92 0-1.69.702-2.32 2.124zm6.63-5.67c0 .234-.07.414-.2.576s-.32.252-.56.252c-.23 0-.43-.09-.56-.252-.12-.162-.19-.342-.19-.576 0-.216.07-.396.19-.558.13-.162.33-.234.56-.234.24 0 .43.072.56.234s.2.342.2.558zm-.2 10.962h-1.12v-8.244l1.12-.234zm14.04 0h-1.12v-5.31c0-1.404-.57-2.106-1.74-2.106-.79 0-1.57.36-2.32 1.062.01.144.03.396.03.738v5.616h-1.11v-5.31c0-1.404-.58-2.106-1.75-2.106-.81 0-1.57.324-2.29.954v6.462h-1.11v-8.244l1.11-.234v1.134c.83-.756 1.7-1.134 2.61-1.134 1.1 0 1.84.45 2.24 1.368.91-.918 1.89-1.368 2.91-1.368 1.59 0 2.54 1.026 2.54 2.844zm6.85-1.818v-2.412c-2.78.306-3.84.918-3.84 2.052 0 .864.7 1.44 1.69 1.44.8 0 1.52-.36 2.15-1.08zm.07.828h-.06c-.66.81-1.45 1.224-2.41 1.224-1.51 0-2.61-.954-2.61-2.286 0-1.764 1.68-2.736 5.01-2.934v-.486c0-1.314-.65-1.962-1.95-1.962-.86 0-1.94.432-2.7.99l-.25-1.044c.79-.558 2.02-.99 3.06-.99 1.98 0 2.97.99 2.95 2.952v3.96c0 .648.15.846.83.828l-.07.918c-1.06.072-1.68-.324-1.8-1.17zm4.65-4.302v5.292h-1.12v-8.244l1.12-.234v1.764c.59-1.17 1.4-1.764 2.43-1.764.52 0 .99.126 1.44.378l-.29 1.044c-.39-.234-.81-.36-1.26-.36-.92 0-1.69.702-2.32 2.124zm11.83-2.952-3.21 8.154-.66 1.782c-.72 1.962-1.48 2.592-2.67 2.592-.48 0-1-.126-1.6-.378l.34-1.026c.45.234.87.36 1.26.36.69 0 1.14-.414 1.7-1.908l.55-1.458-3.22-8.118h1.21l2.59 6.804 2.54-6.804zm12.01 8.244h-1.11v-5.328c0-1.44-.56-2.088-1.82-2.088-.88 0-1.73.396-2.5 1.17v6.246h-1.12v-8.244l1.12-.234v1.35c.9-.9 1.83-1.35 2.8-1.35 1.66 0 2.63 1.008 2.63 2.826zm6.84-1.818v-2.412c-2.77.306-3.83.918-3.83 2.052 0 .864.7 1.44 1.69 1.44.79 0 1.51-.36 2.14-1.08zm.07.828h-.05c-.67.81-1.46 1.224-2.41 1.224-1.52 0-2.61-.954-2.61-2.286 0-1.764 1.67-2.736 5-2.934v-.486c0-1.314-.65-1.962-1.94-1.962-.87 0-1.95.432-2.7.99l-.26-1.044c.8-.558 2.02-.99 3.06-.99 1.98 0 2.97.99 2.96 2.952v3.96c0 .648.14.846.82.828l-.07.918c-1.06.072-1.67-.324-1.8-1.17zm9.8-7.254h-1.17l-2.52 6.804-2.61-6.804h-1.2l3.25 8.262h1.01zm2.7-2.718c0 .234-.07.414-.2.576s-.32.252-.56.252c-.23 0-.43-.09-.56-.252-.12-.162-.19-.342-.19-.576 0-.216.07-.396.19-.558.13-.162.33-.234.56-.234.24 0 .43.072.56.234s.2.342.2.558zm-.2 10.962h-1.12v-8.244l1.12-.234zm3.26-5.364c0 1.224.83 2.106 2.12 2.106.63 0 1.12-.198 1.5-.612.37-.396.55-.918.55-1.548s-.18-1.152-.54-1.548c-.37-.396-.9-.594-1.56-.594-1.28 0-2.07.9-2.07 2.196zm.97 5.598c-.99.27-1.67.918-1.67 1.62 0 .99 1.09 1.692 2.8 1.692 1.73 0 3.1-.828 3.1-1.944 0-.936-.79-1.314-2.5-1.314-.69 0-1.26-.018-1.73-.054zm-.97-.216c-.74-.27-1.12-.702-1.12-1.314 0-.684.56-1.278 1.35-1.566-.88-.54-1.33-1.386-1.33-2.52 0-1.782 1.31-3.096 3.24-3.096.72 0 1.37.162 1.94.486l2.29-.18.05 1.116-1.81-.18c.37.378.66 1.17.66 1.854 0 1.764-1.35 3.024-3.2 3.024-.38 0-.78-.072-1.23-.234-.61.252-.91.576-.91.99 0 .558.46.846 1.87.846h1.06c2.29 0 3.42.72 3.42 2.16 0 .882-.43 1.62-1.28 2.196-.84.576-1.87.864-3.06.864-2.21 0-3.72-.972-3.72-2.412 0-.936.72-1.764 1.78-2.034zm12.09-1.836v-2.412c-2.77.306-3.83.918-3.83 2.052 0 .864.7 1.44 1.69 1.44.79 0 1.51-.36 2.14-1.08zm.07.828h-.05c-.67.81-1.46 1.224-2.41 1.224-1.52 0-2.61-.954-2.61-2.286 0-1.764 1.67-2.736 5-2.934v-.486c0-1.314-.65-1.962-1.94-1.962-.87 0-1.95.432-2.7.99l-.26-1.044c.8-.558 2.02-.99 3.06-.99 1.98 0 2.97.99 2.96 2.952v3.96c0 .648.14.846.82.828l-.07.918c-1.06.072-1.67-.324-1.8-1.17zm7.64.828c-.61.288-1.22.432-1.83.432-1.53 0-2.27-.864-2.22-2.592l.13-4.878-1.26-.072.05-.702 1.24-.288.06-1.872h1.06l-.05 1.926h2.75l-.05.99h-2.74l-.13 4.932c-.03 1.026.36 1.548 1.21 1.548.45 0 .97-.126 1.58-.396zm3.15-10.8c0 .234-.07.414-.19.576-.13.162-.33.252-.56.252-.24 0-.43-.09-.56-.252s-.2-.342-.2-.576c0-.216.07-.396.2-.558s.32-.234.56-.234c.23 0 .43.072.56.234.12.162.19.342.19.558zm-.19 10.962h-1.12v-8.244l1.12-.234zm10.11-4.14c0 1.296-.38 2.34-1.15 3.15s-1.73 1.224-2.9 1.224-2.12-.396-2.86-1.188-1.12-1.836-1.12-3.15c0-1.296.4-2.358 1.17-3.168.78-.81 1.73-1.206 2.9-1.206s2.13.396 2.86 1.188c.74.792 1.1 1.836 1.1 3.15zm-1.1.036c0-2.034-1.15-3.366-2.91-3.366-1.73 0-2.9 1.35-2.9 3.33 0 2.034 1.15 3.366 2.92 3.366 1.72 0 2.89-1.35 2.89-3.33zm9.73 4.104h-1.12v-5.328c0-1.44-.56-2.088-1.82-2.088-.88 0-1.72.396-2.5 1.17v6.246h-1.11v-8.244l1.11-.234v1.35c.9-.9 1.84-1.35 2.81-1.35 1.66 0 2.63 1.008 2.63 2.826z" fill="#fbfbfb"/><path d="m1189.61 241v-11.25h-1.13v11.25zm9.33 0h-1.11v-5.328c0-1.44-.56-2.088-1.82-2.088-.88 0-1.73.396-2.5 1.17v6.246h-1.12v-8.244l1.12-.234v1.35c.9-.9 1.83-1.35 2.81-1.35 1.65 0 2.62 1.008 2.62 2.826zm8.08-7.974v-4.158l1.12-.234v12.366h-1.12v-.774c-.72.666-1.51 1.008-2.39 1.008-2.21 0-3.69-1.746-3.69-4.284 0-1.278.38-2.322 1.15-3.15.78-.81 1.75-1.224 2.94-1.224.68 0 1.35.144 1.99.45zm0 1.188c-.54-.414-1.22-.63-2.05-.63-1.76 0-2.88 1.368-2.88 3.348 0 1.926 1.08 3.276 2.74 3.276.81 0 1.55-.306 2.19-.918v-4.914zm5.04-4.176c0 .234-.07.414-.2.576s-.32.252-.56.252c-.23 0-.43-.09-.56-.252-.12-.162-.19-.342-.19-.576 0-.216.07-.396.19-.558.13-.162.33-.234.56-.234.24 0 .43.072.56.234s.2.342.2.558zm-.2 10.962h-1.12v-8.244l1.12-.234zm8.68-.468c-.76.468-1.61.702-2.56.702-2.47 0-4.03-1.728-4.03-4.338 0-1.278.38-2.34 1.15-3.15.76-.81 1.73-1.224 2.9-1.224.99 0 1.83.234 2.57.702l-.29 1.008c-.66-.45-1.44-.666-2.28-.666-1.78 0-2.9 1.314-2.9 3.294 0 2.034 1.15 3.33 2.92 3.33.82 0 1.58-.234 2.28-.684zm6.37-1.35v-2.412c-2.77.306-3.83.918-3.83 2.052 0 .864.7 1.44 1.69 1.44.79 0 1.51-.36 2.14-1.08zm.07.828h-.05c-.67.81-1.46 1.224-2.41 1.224-1.52 0-2.61-.954-2.61-2.286 0-1.764 1.67-2.736 5-2.934v-.486c0-1.314-.65-1.962-1.94-1.962-.87 0-1.95.432-2.7.99l-.26-1.044c.8-.558 2.02-.99 3.06-.99 1.98 0 2.97.99 2.96 2.952v3.96c0 .648.14.846.82.828l-.07.918c-1.06.072-1.67-.324-1.8-1.17zm7.64.828c-.61.288-1.22.432-1.83.432-1.53 0-2.27-.864-2.22-2.592l.13-4.878-1.26-.072.05-.702 1.24-.288.06-1.872h1.06l-.05 1.926h2.75l-.05.99h-2.74l-.13 4.932c-.03 1.026.36 1.548 1.21 1.548.45 0 .97-.126 1.58-.396zm2.33-3.924v.09c.05 1.89 1.17 3.186 2.88 3.186.9 0 1.69-.234 2.39-.684l.22 1.026c-.76.468-1.64.702-2.65.702-2.36 0-3.98-1.746-3.98-4.284 0-1.296.38-2.358 1.12-3.186s1.66-1.242 2.77-1.242c1.84 0 3.01 1.188 3.01 3.042 0 .486-.06.918-.18 1.314zm.07-.882 4.57-.018c.02-.054.02-.18.02-.36 0-1.296-.7-2.124-1.98-2.124-1.42 0-2.41 1.062-2.61 2.502zm12.74 2.718c0 1.494-1.26 2.484-2.95 2.484-1.03 0-1.93-.252-2.7-.738l.3-1.026c.76.504 1.57.756 2.43.756 1.05 0 1.86-.522 1.86-1.386 0-.198-.04-.36-.13-.522s-.2-.288-.29-.378-.27-.18-.5-.288-.41-.18-.52-.216-.33-.108-.63-.198c-1.44-.432-2.4-1.044-2.4-2.34 0-1.476 1.17-2.376 2.79-2.376.89 0 1.71.198 2.51.612l-.33 1.008c-.74-.414-1.49-.612-2.25-.612-1.01 0-1.65.468-1.65 1.26 0 .18.03.342.12.486.09.162.18.27.27.36s.25.198.49.288c.21.09.39.162.52.216s.34.108.63.198c1.49.432 2.43 1.044 2.43 2.412zm14.57-8.316-.36 1.026c-.94-.594-1.98-.9-3.14-.9-2.53 0-4.24 1.782-4.24 4.806 0 2.97 1.67 4.824 4.28 4.824 1.21 0 2.25-.342 3.15-1.008l.22 1.134c-.94.612-2.07.918-3.39.918-1.64 0-2.95-.522-3.94-1.584s-1.49-2.466-1.49-4.248.5-3.204 1.53-4.284c1-1.062 2.3-1.602 3.9-1.602 1.32 0 2.47.306 3.48.918zm6.39 8.748v-2.412c-2.78.306-3.84.918-3.84 2.052 0 .864.7 1.44 1.69 1.44.8 0 1.52-.36 2.15-1.08zm.07.828h-.06c-.66.81-1.45 1.224-2.41 1.224-1.51 0-2.61-.954-2.61-2.286 0-1.764 1.68-2.736 5.01-2.934v-.486c0-1.314-.65-1.962-1.95-1.962-.86 0-1.94.432-2.7.99l-.25-1.044c.79-.558 2.02-.99 3.06-.99 1.98 0 2.97.99 2.95 2.952v3.96c0 .648.15.846.83.828l-.07.918c-1.06.072-1.68-.324-1.8-1.17zm4.65.99v-12.366l-1.12.234v12.132zm3.71 0v-12.366l-1.12.234v12.132zm5.98-3.852v-1.044h-4.07v1.044zm5.97 3.69c-.61.288-1.22.432-1.83.432-1.53 0-2.27-.864-2.22-2.592l.13-4.878-1.26-.072.05-.702 1.24-.288.06-1.872h1.06l-.05 1.926h2.75l-.05.99h-2.74l-.13 4.932c-.03 1.026.36 1.548 1.21 1.548.45 0 .97-.126 1.58-.396zm9.22-3.978c0 1.296-.38 2.34-1.15 3.15s-1.73 1.224-2.9 1.224-2.12-.396-2.86-1.188-1.12-1.836-1.12-3.15c0-1.296.4-2.358 1.17-3.168.78-.81 1.73-1.206 2.9-1.206s2.13.396 2.86 1.188c.74.792 1.1 1.836 1.1 3.15zm-1.1.036c0-2.034-1.15-3.366-2.91-3.366-1.73 0-2.9 1.35-2.9 3.33 0 2.034 1.15 3.366 2.92 3.366 1.72 0 2.89-1.35 2.89-3.33zm6.56.252v-1.044h-4.07v1.044zm6.37-7.398h-1.35l-4.26 11.25h1.17l1.19-3.222h5.09l1.19 3.222h1.17zm1.44 6.984h-4.3l2.16-5.85zm10.38 3.798c-.76.468-1.61.702-2.56.702-2.47 0-4.03-1.728-4.03-4.338 0-1.278.38-2.34 1.15-3.15.76-.81 1.73-1.224 2.9-1.224.99 0 1.83.234 2.57.702l-.29 1.008c-.66-.45-1.44-.666-2.28-.666-1.78 0-2.9 1.314-2.9 3.294 0 2.034 1.15 3.33 2.92 3.33.82 0 1.58-.234 2.28-.684zm6.17.306c-.61.288-1.22.432-1.83.432-1.53 0-2.27-.864-2.22-2.592l.13-4.878-1.26-.072.05-.702 1.24-.288.06-1.872h1.06l-.05 1.926h2.75l-.05.99h-2.74l-.13 4.932c-.03 1.026.36 1.548 1.21 1.548.45 0 .97-.126 1.58-.396zm3.15-10.8c0 .234-.07.414-.19.576-.13.162-.33.252-.56.252-.24 0-.43-.09-.56-.252s-.2-.342-.2-.576c0-.216.07-.396.2-.558s.32-.234.56-.234c.23 0 .43.072.56.234.12.162.19.342.19.558zm-.19 10.962h-1.12v-8.244l1.12-.234zm10.11-4.14c0 1.296-.38 2.34-1.15 3.15s-1.73 1.224-2.9 1.224-2.12-.396-2.86-1.188-1.12-1.836-1.12-3.15c0-1.296.4-2.358 1.17-3.168.78-.81 1.73-1.206 2.9-1.206s2.13.396 2.86 1.188c.74.792 1.1 1.836 1.1 3.15zm-1.1.036c0-2.034-1.15-3.366-2.91-3.366-1.73 0-2.9 1.35-2.9 3.33 0 2.034 1.15 3.366 2.92 3.366 1.72 0 2.89-1.35 2.89-3.33zm9.73 4.104h-1.12v-5.328c0-1.44-.56-2.088-1.82-2.088-.88 0-1.72.396-2.5 1.17v6.246h-1.11v-8.244l1.11-.234v1.35c.9-.9 1.84-1.35 2.81-1.35 1.66 0 2.63 1.008 2.63 2.826z" fill="#fbfbfb"/></svg>