<svg fill="none" height="805" viewBox="0 0 1374 805" width="1374" xmlns="http://www.w3.org/2000/svg"><path d="m565.699 28h1.82l2.856-17.5h-2.548l-8.848 15.428-2.884-15.428h-2.408l-4.06 17.5h1.876l3.388-15.176 2.744 15.064h2.016l8.68-15.148zm7.694-6.384c0 .14-.028.504-.028.616 0 2.856 1.652 4.508 4.228 4.508 1.008 0 2.044-.252 3.08-.728l.252 1.568c-.98.532-2.156.784-3.472.784-3.444 0-5.88-2.352-5.88-5.992 0-1.988.616-3.752 1.876-5.292 1.26-1.512 2.856-2.268 4.788-2.268 2.66 0 4.452 1.68 4.452 4.116 0 .924-.196 1.792-.56 2.632zm.252-1.344 7.084-.028c.14-.42.196-.812.196-1.176 0-1.652-1.12-2.688-2.912-2.688-2.1 0-3.78 1.596-4.368 3.892zm20.854 7.728h-1.736l1.512-7.784c.14-.7.224-1.232.224-1.54 0-1.428-.896-2.24-2.52-2.24-1.26 0-2.604.616-4.032 1.876l-1.904 9.688h-1.736l2.492-12.824 1.82-.364-.364 1.932c1.512-1.288 2.968-1.932 4.368-1.932 2.212 0 3.668 1.372 3.668 3.444 0 .42-.084.98-.224 1.736zm6.325-12.824h1.736l-1.512 7.784c-.14.7-.224 1.232-.224 1.54 0 1.428.896 2.24 2.52 2.24 1.288 0 2.632-.616 4.032-1.848l1.904-9.716h1.736l-2.492 12.824-1.82.364.364-1.932c-1.512 1.288-2.968 1.932-4.368 1.932-2.212 0-3.668-1.372-3.668-3.444 0-.42.084-.98.224-1.736zm25.464 10.108.728-3.668c-4.424.056-6.636 1.036-6.636 2.94 0 1.316.924 2.268 2.436 2.268 1.26 0 2.408-.504 3.472-1.54zm.952-4.9.14-.616c.42-2.128-.644-3.36-2.968-3.36-1.204 0-2.492.392-3.864 1.148l-.224-1.568c1.372-.756 2.8-1.148 4.312-1.148 3.332 0 5.124 1.736 4.424 5.152l-1.092 5.32c-.224 1.12-.056 1.568 1.036 1.54l-.308 1.428c-1.54.084-2.352-.504-2.436-1.792h-.028c-1.148 1.232-2.464 1.848-3.948 1.848-2.128 0-3.724-1.708-3.724-3.584 0-2.884 2.716-4.48 8.68-4.368zm14.291 7.616h-1.736l1.512-7.784c.14-.7.224-1.232.224-1.54 0-1.428-.896-2.24-2.52-2.24-1.26 0-2.604.616-4.032 1.876l-1.904 9.688h-1.736l2.492-12.824 1.82-.364-.364 1.932c1.512-1.288 2.968-1.932 4.368-1.932 2.212 0 3.668 1.372 3.668 3.444 0 .42-.084.98-.224 1.736zm14.948-11.872 1.344-7 1.792-.364-3.724 19.236h-1.736l.196-1.036c-1.204.924-2.408 1.4-3.612 1.4-2.884 0-5.012-2.324-5.012-5.6 0-2.212.7-4.06 2.072-5.6 1.372-1.512 3.052-2.268 5.068-2.268 1.316 0 2.52.42 3.612 1.232zm-.336 1.736c-.812-.868-2.156-1.484-3.444-1.484-1.484 0-2.716.616-3.696 1.848s-1.484 2.66-1.484 4.284c0 2.576 1.54 4.34 3.64 4.34 1.176 0 2.352-.476 3.5-1.428zm23.133 2.884c0 2.044-.672 3.836-1.988 5.32-1.344 1.512-3.052 2.268-5.124 2.268-3.332 0-5.572-2.464-5.572-5.88 0-2.044.672-3.836 2.016-5.348 1.316-1.512 3.024-2.268 5.068-2.268 3.332 0 5.6 2.492 5.6 5.908zm-1.764.112c0-2.66-1.484-4.508-4.004-4.508-1.54 0-2.8.616-3.752 1.848s-1.428 2.632-1.428 4.172c0 2.632 1.512 4.424 4.032 4.424 1.54 0 2.772-.616 3.724-1.82s1.428-2.576 1.428-4.116zm9.976 5.544.28 1.512c-.812.336-1.68.504-2.66.504-1.988 0-3.332-.98-3.332-2.828 0-.364.084-.924.252-1.68l1.568-7.084-1.876-.14.084-1.092 2.156-.448.672-2.912h1.652l-.672 2.996h4.228l-.084 1.568h-4.508l-1.596 7.252c-.14.672-.224 1.092-.224 1.288 0 1.036.616 1.54 1.876 1.54.616 0 1.344-.168 2.184-.476zm13.187 1.596h-1.736l1.54-7.924c.112-.532.168-.952.168-1.316 0-1.54-.924-2.352-2.576-2.352-1.204 0-2.52.56-3.92 1.708l-1.932 9.884h-1.736l3.668-18.872 1.82-.364-1.54 7.98c1.484-1.26 2.94-1.904 4.368-1.904 2.24 0 3.668 1.372 3.668 3.5 0 .392-.056.868-.168 1.428zm6.101-6.384c0 .14-.028.504-.028.616 0 2.856 1.652 4.508 4.228 4.508 1.008 0 2.044-.252 3.08-.728l.252 1.568c-.98.532-2.156.784-3.472.784-3.444 0-5.88-2.352-5.88-5.992 0-1.988.616-3.752 1.876-5.292 1.26-1.512 2.856-2.268 4.788-2.268 2.66 0 4.452 1.68 4.452 4.116 0 .924-.196 1.792-.56 2.632zm.252-1.344 7.084-.028c.14-.42.196-.812.196-1.176 0-1.652-1.12-2.688-2.912-2.688-2.1 0-3.78 1.596-4.368 3.892zm14.05-.756-1.652 8.484h-1.736l2.492-12.824 1.82-.364-.476 2.436c.952-1.512 2.324-2.436 3.724-2.436.896 0 1.68.196 2.352.616l-.476 1.68c-.728-.42-1.484-.644-2.24-.644-1.428 0-2.716 1.008-3.808 3.052zm14.7 8.484 3.752-19.236-1.82.364-3.668 18.872zm9.521-17.052c0 .392-.112.728-.336.98-.252.28-.56.42-.952.42s-.7-.14-.924-.42c-.224-.252-.336-.588-.336-.98 0-.364.112-.7.336-.952s.532-.392.924-.392.7.14.952.392c.224.252.336.588.336.952zm-3.724 17.052h-1.736l2.464-12.684 1.792-.364zm14.28 0h-1.736l1.512-7.784c.14-.7.224-1.232.224-1.54 0-1.428-.896-2.24-2.52-2.24-1.26 0-2.604.616-4.032 1.876l-1.904 9.688h-1.736l2.492-12.824 1.82-.364-.364 1.932c1.512-1.288 2.968-1.932 4.368-1.932 2.212 0 3.668 1.372 3.668 3.444 0 .42-.084.98-.224 1.736zm7.025-6.636 4.704 6.636h2.128l-4.984-6.832 7.28-5.992h-2.436l-6.608 5.628h-.056l2.38-12.04-1.82.364-3.668 18.872h1.736l1.288-6.636zm17.432 3.024c0 2.324-2.016 3.976-4.704 3.976-1.652 0-3.164-.476-4.564-1.4l.588-1.596c1.428.98 2.8 1.456 4.116 1.456 1.624 0 2.884-.84 2.884-2.24 0-.504-.196-.924-.616-1.26s-1.148-.756-2.184-1.232-1.82-.98-2.324-1.484c-.504-.476-.756-1.176-.756-2.044 0-2.24 1.96-3.752 4.368-3.752 1.484 0 2.968.42 4.396 1.288l-.56 1.596c-1.428-.896-2.744-1.344-3.948-1.344-1.512 0-2.576.784-2.576 1.988 0 1.092.616 1.484 2.744 2.492 2.128.98 3.136 1.82 3.136 3.556z" fill="#fbfbfb"/><rect fill="#b9d053" height="52" rx="10" width="180" y="227"/><path d="m77.8134 260v-11.25h-2.862v4.374h-4.518v-4.374h-2.862v11.25h2.862v-4.464h4.518v4.464zm6.2679-8.64c1.296 0 2.358.396 3.186 1.188s1.242 1.872 1.242 3.24-.432 2.448-1.296 3.258-1.944 1.224-3.24 1.224-2.358-.396-3.186-1.188c-.846-.774-1.26-1.854-1.26-3.24s.432-2.466 1.296-3.276 1.944-1.206 3.258-1.206zm1.674 4.446c0-.72-.144-1.296-.45-1.71s-.738-.63-1.296-.63-.972.216-1.278.63-.45.99-.45 1.728c0 .72.144 1.278.45 1.692s.738.63 1.296.63.99-.216 1.296-.63c.288-.414.432-.972.432-1.71zm17.5787 4.194h-2.772v-4.932c0-.9-.378-1.35-1.134-1.35-.486 0-.936.18-1.35.54v5.742h-2.772v-4.932c0-.9-.378-1.35-1.152-1.35-.504 0-.954.162-1.35.504v5.778h-2.772v-8.226l2.772-.342v1.17c.81-.828 1.692-1.242 2.664-1.242 1.062 0 1.98.522 2.358 1.494.846-.99 1.818-1.494 2.898-1.494 1.638 0 2.61 1.08 2.61 2.898zm4.206-3.564v.036c.09 1.134.864 1.764 2.214 1.764.882 0 1.8-.27 2.736-.81l.27 2.142c-.882.45-1.98.684-3.258.684-2.898 0-4.68-1.602-4.68-4.374 0-2.718 1.836-4.518 4.536-4.518 2.34 0 3.672 1.368 3.672 3.51 0 .594-.054 1.08-.18 1.476zm.018-1.386 2.898-.018v-.162c0-1.062-.432-1.602-1.278-1.602-.918 0-1.53.774-1.62 1.782z" fill="#1c1c1c"/><rect fill="#ccc" height="52" rx="10" width="180" x="790" y="347"/><path d="m869.261 380h2.718l-.378-11.25h-3.996l-2.34 8.442-2.34-8.442h-4.05l-.396 11.25h2.664l.072-8.658 2.466 8.478h3.06l2.466-8.496zm6.887-3.564v.036c.09 1.134.864 1.764 2.214 1.764.882 0 1.8-.27 2.736-.81l.27 2.142c-.882.45-1.98.684-3.258.684-2.898 0-4.68-1.602-4.68-4.374 0-2.718 1.836-4.518 4.536-4.518 2.34 0 3.672 1.368 3.672 3.51 0 .594-.054 1.08-.18 1.476zm.018-1.386 2.898-.018v-.162c0-1.062-.432-1.602-1.278-1.602-.918 0-1.53.774-1.62 1.782zm15.274 4.95h-2.772v-4.95c0-.972-.396-1.332-1.188-1.332-.54 0-1.044.216-1.512.63v5.652h-2.772v-8.226l2.772-.342v1.368c.846-.954 1.782-1.44 2.808-1.44 1.656 0 2.664 1.062 2.664 2.88zm1.88-8.37h2.772v4.95c0 .9.378 1.35 1.152 1.35.522 0 1.008-.18 1.422-.558v-5.742h2.772v8.244l-2.772.342v-1.242c-.792.864-1.692 1.296-2.718 1.296-1.638 0-2.628-1.098-2.628-2.88z" fill="#000"/><rect height="50" rx="9" stroke="#b9d053" stroke-width="2" width="178" x="1" y="154"/><path d="m38.058 174.75h-1.17l-3.636 10.062-3.654-10.062h-1.17l4.122 11.25h1.35zm2.8024.288c0 .234-.072.414-.198.576s-.324.252-.558.252-.432-.09-.558-.252-.198-.342-.198-.576c0-.216.072-.396.198-.558s.324-.234.558-.234.432.072.558.234.198.342.198.558zm-.198 10.962h-1.116v-8.244l1.116-.234zm7.5777-2.25c0 1.494-1.26 2.484-2.952 2.484-1.026 0-1.926-.252-2.7-.738l.306-1.026c.756.504 1.566.756 2.43.756 1.044 0 1.854-.522 1.854-1.386 0-.198-.036-.36-.126-.522s-.198-.288-.288-.378-.27-.18-.504-.288-.414-.18-.522-.216-.324-.108-.63-.198c-1.44-.432-2.394-1.044-2.394-2.34 0-1.476 1.17-2.376 2.79-2.376.882 0 1.71.198 2.502.612l-.324 1.008c-.738-.414-1.494-.612-2.25-.612-1.008 0-1.656.468-1.656 1.26 0 .18.036.342.126.486.09.162.18.27.27.36s.252.198.486.288c.216.09.396.162.522.216s.342.108.63.198c1.494.432 2.43 1.044 2.43 2.412zm3.343-8.712c0 .234-.072.414-.198.576s-.324.252-.558.252-.432-.09-.558-.252-.198-.342-.198-.576c0-.216.072-.396.198-.558s.324-.234.558-.234.432.072.558.234.198.342.198.558zm-.198 10.962h-1.116v-8.244l1.116-.234zm6.7317-.162c-.612.288-1.224.432-1.836.432-1.53 0-2.268-.864-2.214-2.592l.126-4.878-1.26-.072.054-.702 1.242-.288.054-1.872h1.062l-.054 1.926h2.754l-.054.99h-2.736l-.126 4.932c-.036 1.026.36 1.548 1.206 1.548.45 0 .972-.126 1.584-.396zm6.7698-2.088c0 1.494-1.26 2.484-2.952 2.484-1.026 0-1.926-.252-2.7-.738l.306-1.026c.756.504 1.566.756 2.43.756 1.044 0 1.854-.522 1.854-1.386 0-.198-.036-.36-.126-.522s-.198-.288-.288-.378-.27-.18-.504-.288-.414-.18-.522-.216-.324-.108-.63-.198c-1.44-.432-2.394-1.044-2.394-2.34 0-1.476 1.17-2.376 2.79-2.376.882 0 1.71.198 2.502.612l-.324 1.008c-.738-.414-1.494-.612-2.25-.612-1.008 0-1.656.468-1.656 1.26 0 .18.036.342.126.486.09.162.18.27.27.36s.252.198.486.288c.216.09.396.162.522.216s.342.108.63.198c1.494.432 2.43 1.044 2.43 2.412zm10.2107 2.088c-.612.288-1.224.432-1.836.432-1.53 0-2.268-.864-2.214-2.592l.126-4.878-1.26-.072.054-.702 1.242-.288.054-1.872h1.062l-.054 1.926h2.754l-.054.99h-2.736l-.126 4.932c-.036 1.026.36 1.548 1.206 1.548.45 0 .972-.126 1.584-.396zm8.3718.162h-1.116v-5.328c0-1.386-.594-2.088-1.764-2.088-.918 0-1.782.396-2.556 1.17v6.246h-1.116v-12.132l1.116-.234v5.202c.882-.882 1.836-1.314 2.862-1.314 1.62 0 2.574 1.008 2.574 2.826zm3.1299-4.086v.09c.054 1.89 1.17 3.186 2.88 3.186.9 0 1.692-.234 2.394-.684l.216 1.026c-.756.468-1.638.702-2.646.702-2.358 0-3.978-1.746-3.978-4.284 0-1.296.378-2.358 1.116-3.186s1.656-1.242 2.772-1.242c1.836 0 3.006 1.188 3.006 3.042 0 .486-.054.918-.18 1.314zm.072-.882 4.572-.018c.018-.054.018-.18.018-.36 0-1.296-.702-2.124-1.98-2.124-1.422 0-2.412 1.062-2.61 2.502zm14.351 5.004 2.25-6.66 2.25 6.66h.99l2.448-8.28h-1.224l-1.71 6.606-2.25-6.588h-1.008l-2.142 6.552-1.9082-6.57h-1.188l2.5202 8.28zm9.958-4.122v.09c.054 1.89 1.17 3.186 2.88 3.186.9 0 1.692-.234 2.394-.684l.216 1.026c-.756.468-1.638.702-2.646.702-2.358 0-3.978-1.746-3.978-4.284 0-1.296.378-2.358 1.116-3.186s1.656-1.242 2.772-1.242c1.836 0 3.006 1.188 3.006 3.042 0 .486-.054.918-.18 1.314zm.072-.882 4.572-.018c.018-.054.018-.18.018-.36 0-1.296-.702-2.124-1.98-2.124-1.422 0-2.412 1.062-2.61 2.502zm14.989.738c0 1.296-.378 2.358-1.134 3.204-.774.846-1.746 1.26-2.934 1.26-.702 0-1.368-.144-2.016-.45l-1.116.486v-12.402l1.116-.234v4.986c.738-.702 1.566-1.044 2.484-1.044 2.178 0 3.6 1.71 3.6 4.194zm-1.152.054c0-1.908-1.044-3.222-2.664-3.222-.846 0-1.602.306-2.268.918v5.058c.558.432 1.242.648 2.07.648 1.764 0 2.862-1.368 2.862-3.402zm8.095 1.926c0 1.494-1.26 2.484-2.952 2.484-1.026 0-1.926-.252-2.7-.738l.306-1.026c.756.504 1.566.756 2.43.756 1.044 0 1.854-.522 1.854-1.386 0-.198-.036-.36-.126-.522s-.198-.288-.288-.378-.27-.18-.504-.288-.414-.18-.522-.216-.324-.108-.63-.198c-1.44-.432-2.394-1.044-2.394-2.34 0-1.476 1.17-2.376 2.79-2.376.882 0 1.71.198 2.502.612l-.324 1.008c-.738-.414-1.494-.612-2.25-.612-1.008 0-1.656.468-1.656 1.26 0 .18.036.342.126.486.09.162.18.27.27.36s.252.198.486.288c.216.09.396.162.522.216s.342.108.63.198c1.494.432 2.43 1.044 2.43 2.412zm3.343-8.712c0 .234-.072.414-.198.576s-.324.252-.558.252-.432-.09-.558-.252-.198-.342-.198-.576c0-.216.072-.396.198-.558s.324-.234.558-.234.432.072.558.234.198.342.198.558zm-.198 10.962h-1.116v-8.244l1.116-.234zm6.732-.162c-.612.288-1.224.432-1.836.432-1.53 0-2.268-.864-2.214-2.592l.126-4.878-1.26-.072.054-.702 1.242-.288.054-1.872h1.062l-.054 1.926h2.754l-.054.99h-2.736l-.126 4.932c-.036 1.026.36 1.548 1.206 1.548.45 0 .972-.126 1.584-.396zm2.326-3.924v.09c.054 1.89 1.17 3.186 2.88 3.186.9 0 1.692-.234 2.394-.684l.216 1.026c-.756.468-1.638.702-2.646.702-2.358 0-3.978-1.746-3.978-4.284 0-1.296.378-2.358 1.116-3.186s1.656-1.242 2.772-1.242c1.836 0 3.006 1.188 3.006 3.042 0 .486-.054.918-.18 1.314zm.072-.882 4.572-.018c.018-.054.018-.18.018-.36 0-1.296-.702-2.124-1.98-2.124-1.422 0-2.412 1.062-2.61 2.502z" fill="#fbfbfb"/><rect height="50" rx="9" stroke="#b9d053" stroke-width="2" width="178" x="498" y="538"/><path d="m577.83 564.24c1.638.306 2.52 1.278 2.52 2.628 0 1.926-1.296 3.132-4.05 3.132h-3.654v-11.25h3.51c2.61 0 3.834 1.116 3.834 2.934 0 1.188-.738 2.196-2.16 2.556zm1.008-2.466c0-1.26-.9-1.98-2.628-1.98h-2.412v4.05h2.232c1.728 0 2.808-.738 2.808-2.07zm.36 5.094c0-1.314-1.026-1.98-3.096-1.98h-2.304v4.068h2.592c1.872 0 2.808-.702 2.808-2.088zm4.317 3.132v-12.366l-1.116.234v12.132zm10.081-4.14c0 1.296-.378 2.34-1.152 3.15s-1.728 1.224-2.898 1.224-2.124-.396-2.862-1.188-1.116-1.836-1.116-3.15c0-1.296.396-2.358 1.17-3.168s1.728-1.206 2.898-1.206 2.124.396 2.862 1.188 1.098 1.836 1.098 3.15zm-1.098.036c0-2.034-1.152-3.366-2.916-3.366-1.728 0-2.898 1.35-2.898 3.33 0 2.034 1.152 3.366 2.916 3.366 1.728 0 2.898-1.35 2.898-3.33zm3.802-1.26c0 1.224.828 2.106 2.124 2.106.63 0 1.116-.198 1.494-.612.378-.396.558-.918.558-1.548s-.18-1.152-.54-1.548c-.378-.396-.9-.594-1.566-.594-1.278 0-2.07.9-2.07 2.196zm.972 5.598c-.99.27-1.674.918-1.674 1.62 0 .99 1.098 1.692 2.808 1.692 1.728 0 3.096-.828 3.096-1.944 0-.936-.792-1.314-2.502-1.314-.684 0-1.26-.018-1.728-.054zm-.972-.216c-.738-.27-1.116-.702-1.116-1.314 0-.684.558-1.278 1.35-1.566-.882-.54-1.332-1.386-1.332-2.52 0-1.782 1.314-3.096 3.24-3.096.72 0 1.368.162 1.944.486l2.286-.18.054 1.116-1.818-.18c.378.378.666 1.17.666 1.854 0 1.764-1.35 3.024-3.204 3.024-.378 0-.774-.072-1.224-.234-.612.252-.918.576-.918.99 0 .558.468.846 1.872.846h1.062c2.286 0 3.42.72 3.42 2.16 0 .882-.432 1.62-1.278 2.196s-1.872.864-3.06.864c-2.214 0-3.726-.972-3.726-2.412 0-.936.72-1.764 1.782-2.034z" fill="#fbfbfb"/><rect height="50" rx="9" stroke="#b9d053" stroke-width="2" width="178" x="498" y="610"/><path d="m535.613 642h1.17l-.36-11.25h-1.53l-3.744 9.936-3.798-9.936h-1.548l-.378 11.25h1.134l.198-9.846 3.726 9.774h1.26l3.69-9.756zm7.933-1.818v-2.412c-2.772.306-3.834.918-3.834 2.052 0 .864.702 1.44 1.692 1.44.792 0 1.512-.36 2.142-1.08zm.072.828h-.054c-.666.81-1.458 1.224-2.412 1.224-1.512 0-2.61-.954-2.61-2.286 0-1.764 1.674-2.736 5.004-2.934v-.486c0-1.314-.648-1.962-1.944-1.962-.864 0-1.944.432-2.7.99l-.252-1.044c.792-.558 2.016-.99 3.06-.99 1.98 0 2.97.99 2.952 2.952v3.96c0 .648.144.846.828.828l-.072.918c-1.062.072-1.674-.324-1.8-1.17zm4.652-4.302v5.292h-1.116v-8.244l1.116-.234v1.764c.594-1.17 1.404-1.764 2.43-1.764.522 0 .99.126 1.44.378l-.288 1.044c-.396-.234-.81-.36-1.26-.36-.918 0-1.692.702-2.322 2.124zm11.785 9.486h-1.116v-4.968c-.72.666-1.512 1.008-2.394 1.008-2.214 0-3.69-1.746-3.69-4.284 0-1.278.378-2.322 1.152-3.15.774-.81 1.746-1.224 2.934-1.224.774 0 1.512.162 2.178.468l.936-.522zm-1.116-10.98c-.558-.432-1.242-.648-2.052-.648-1.764 0-2.88 1.386-2.88 3.366 0 1.962 1.08 3.294 2.736 3.294.81 0 1.53-.306 2.196-.936v-4.914zm3.63-1.458h1.116v5.328c0 1.386.594 2.088 1.782 2.088.936 0 1.782-.396 2.538-1.17v-6.246h1.116v8.244l-1.116.234v-1.332c-.864.882-1.818 1.332-2.844 1.332-1.62 0-2.592-1.044-2.592-2.826zm9.736 4.158v.09c.054 1.89 1.17 3.186 2.88 3.186.9 0 1.692-.234 2.394-.684l.216 1.026c-.756.468-1.638.702-2.646.702-2.358 0-3.978-1.746-3.978-4.284 0-1.296.378-2.358 1.116-3.186s1.656-1.242 2.772-1.242c1.836 0 3.006 1.188 3.006 3.042 0 .486-.054.918-.18 1.314zm.072-.882 4.572-.018c.018-.054.018-.18.018-.36 0-1.296-.702-2.124-1.98-2.124-1.422 0-2.412 1.062-2.61 2.502zm8.383.882v.09c.054 1.89 1.17 3.186 2.88 3.186.9 0 1.692-.234 2.394-.684l.216 1.026c-.756.468-1.638.702-2.646.702-2.358 0-3.978-1.746-3.978-4.284 0-1.296.378-2.358 1.116-3.186s1.656-1.242 2.772-1.242c1.836 0 3.006 1.188 3.006 3.042 0 .486-.054.918-.18 1.314zm.072-.882 4.572-.018c.018-.054.018-.18.018-.36 0-1.296-.702-2.124-1.98-2.124-1.422 0-2.412 1.062-2.61 2.502zm19.247-2.772c0 2.43-1.674 3.708-4.536 3.762l-1.53.018v3.96h-1.152v-11.25h2.826c2.898 0 4.392 1.368 4.392 3.51zm-1.188.054c0-1.62-1.134-2.502-3.24-2.502h-1.638v5.166l1.602-.036c2.178-.036 3.276-.918 3.276-2.628zm4.276 2.394v5.292h-1.116v-8.244l1.116-.234v1.764c.594-1.17 1.404-1.764 2.43-1.764.522 0 .99.126 1.44.378l-.288 1.044c-.396-.234-.81-.36-1.26-.36-.918 0-1.692.702-2.322 2.124zm12.612 1.152c0 1.296-.378 2.34-1.152 3.15s-1.728 1.224-2.898 1.224-2.124-.396-2.862-1.188-1.116-1.836-1.116-3.15c0-1.296.396-2.358 1.17-3.168s1.728-1.206 2.898-1.206 2.124.396 2.862 1.188 1.098 1.836 1.098 3.15zm-1.098.036c0-2.034-1.152-3.366-2.916-3.366-1.728 0-2.898 1.35-2.898 3.33 0 2.034 1.152 3.366 2.916 3.366 1.728 0 2.898-1.35 2.898-3.33zm4.505-6.858c0 .234-.072.414-.198.576s-.324.252-.558.252-.432-.09-.558-.252-.198-.342-.198-.576c0-.216.072-.396.198-.558s.324-.234.558-.234.432.072.558.234.198.342.198.558zm-2.142 15.462-.756-.792c1.206-.63 1.584-1.368 1.584-3.132v-8.82l1.116-.234v9.054c0 2.124-.522 3.15-1.944 3.924zm5.13-8.586v.09c.054 1.89 1.17 3.186 2.88 3.186.9 0 1.692-.234 2.394-.684l.216 1.026c-.756.468-1.638.702-2.646.702-2.358 0-3.978-1.746-3.978-4.284 0-1.296.378-2.358 1.116-3.186s1.656-1.242 2.772-1.242c1.836 0 3.006 1.188 3.006 3.042 0 .486-.054.918-.18 1.314zm.072-.882 4.572-.018c.018-.054.018-.18.018-.36 0-1.296-.702-2.124-1.98-2.124-1.422 0-2.412 1.062-2.61 2.502zm13.837 4.5c-.756.468-1.602.702-2.556.702-2.466 0-4.032-1.728-4.032-4.338 0-1.278.378-2.34 1.152-3.15.756-.81 1.728-1.224 2.898-1.224.99 0 1.836.234 2.574.702l-.288 1.008c-.666-.45-1.44-.666-2.286-.666-1.782 0-2.898 1.314-2.898 3.294 0 2.034 1.152 3.33 2.916 3.33.828 0 1.584-.234 2.286-.684zm6.177.306c-.612.288-1.224.432-1.836.432-1.53 0-2.268-.864-2.214-2.592l.126-4.878-1.26-.072.054-.702 1.242-.288.054-1.872h1.062l-.054 1.926h2.754l-.054.99h-2.736l-.126 4.932c-.036 1.026.36 1.548 1.206 1.548.45 0 .972-.126 1.584-.396zm6.77-2.088c0 1.494-1.26 2.484-2.952 2.484-1.026 0-1.926-.252-2.7-.738l.306-1.026c.756.504 1.566.756 2.43.756 1.044 0 1.854-.522 1.854-1.386 0-.198-.036-.36-.126-.522s-.198-.288-.288-.378-.27-.18-.504-.288-.414-.18-.522-.216-.324-.108-.63-.198c-1.44-.432-2.394-1.044-2.394-2.34 0-1.476 1.17-2.376 2.79-2.376.882 0 1.71.198 2.502.612l-.324 1.008c-.738-.414-1.494-.612-2.25-.612-1.008 0-1.656.468-1.656 1.26 0 .18.036.342.126.486.09.162.18.27.27.36s.252.198.486.288c.216.09.396.162.522.216s.342.108.63.198c1.494.432 2.43 1.044 2.43 2.412z" fill="#fbfbfb"/><rect height="50" rx="9" stroke="#b9d053" stroke-width="2" width="178" x="693" y="610"/><path d="m736.423 638.544c0 2.322-1.098 3.69-3.384 3.69-.918 0-1.764-.234-2.502-.702l.198-1.116c.828.522 1.602.774 2.322.774 1.494 0 2.232-.9 2.232-2.682v-7.758h1.134zm10.099-.684c0 1.296-.378 2.34-1.152 3.15s-1.728 1.224-2.898 1.224-2.124-.396-2.862-1.188-1.116-1.836-1.116-3.15c0-1.296.396-2.358 1.17-3.168s1.728-1.206 2.898-1.206 2.124.396 2.862 1.188 1.098 1.836 1.098 3.15zm-1.098.036c0-2.034-1.152-3.366-2.916-3.366-1.728 0-2.898 1.35-2.898 3.33 0 2.034 1.152 3.366 2.916 3.366 1.728 0 2.898-1.35 2.898-3.33zm4.505-6.858c0 .234-.072.414-.198.576s-.324.252-.558.252-.432-.09-.558-.252-.198-.342-.198-.576c0-.216.072-.396.198-.558s.324-.234.558-.234.432.072.558.234.198.342.198.558zm-.198 10.962h-1.116v-8.244l1.116-.234zm9.18 0h-1.116v-5.328c0-1.44-.558-2.088-1.818-2.088-.882 0-1.728.396-2.502 1.17v6.246h-1.116v-8.244l1.116-.234v1.35c.9-.9 1.836-1.35 2.808-1.35 1.656 0 2.628 1.008 2.628 2.826zm6.639-.162c-.612.288-1.224.432-1.836.432-1.53 0-2.268-.864-2.214-2.592l.126-4.878-1.26-.072.054-.702 1.242-.288.054-1.872h1.062l-.054 1.926h2.754l-.054.99h-2.736l-.126 4.932c-.036 1.026.36 1.548 1.206 1.548.45 0 .972-.126 1.584-.396zm14.43-11.088h-1.17l-3.636 10.062-3.654-10.062h-1.17l4.122 11.25h1.35zm1.431 7.164v.09c.054 1.89 1.17 3.186 2.88 3.186.9 0 1.692-.234 2.394-.684l.216 1.026c-.756.468-1.638.702-2.646.702-2.358 0-3.978-1.746-3.978-4.284 0-1.296.378-2.358 1.116-3.186s1.656-1.242 2.772-1.242c1.836 0 3.006 1.188 3.006 3.042 0 .486-.054.918-.18 1.314zm.072-.882 4.572-.018c.018-.054.018-.18.018-.36 0-1.296-.702-2.124-1.98-2.124-1.422 0-2.412 1.062-2.61 2.502zm14.342 4.968h-1.116v-5.328c0-1.44-.558-2.088-1.818-2.088-.882 0-1.728.396-2.502 1.17v6.246h-1.116v-8.244l1.116-.234v1.35c.9-.9 1.836-1.35 2.808-1.35 1.656 0 2.628 1.008 2.628 2.826zm6.639-.162c-.612.288-1.224.432-1.836.432-1.53 0-2.268-.864-2.214-2.592l.126-4.878-1.26-.072.054-.702 1.242-.288.054-1.872h1.062l-.054 1.926h2.754l-.054.99h-2.736l-.126 4.932c-.036 1.026.36 1.548 1.206 1.548.45 0 .972-.126 1.584-.396zm1.748-8.082h1.116v5.328c0 1.386.594 2.088 1.782 2.088.936 0 1.782-.396 2.538-1.17v-6.246h1.116v8.244l-1.116.234v-1.332c-.864.882-1.818 1.332-2.844 1.332-1.62 0-2.592-1.044-2.592-2.826zm10.259 2.952v5.292h-1.116v-8.244l1.116-.234v1.764c.594-1.17 1.404-1.764 2.43-1.764.522 0 .99.126 1.44.378l-.288 1.044c-.396-.234-.81-.36-1.26-.36-.918 0-1.692.702-2.322 2.124zm5.718 1.206v.09c.054 1.89 1.17 3.186 2.88 3.186.9 0 1.692-.234 2.394-.684l.216 1.026c-.756.468-1.638.702-2.646.702-2.358 0-3.978-1.746-3.978-4.284 0-1.296.378-2.358 1.116-3.186s1.656-1.242 2.772-1.242c1.836 0 3.006 1.188 3.006 3.042 0 .486-.054.918-.18 1.314zm.072-.882 4.572-.018c.018-.054.018-.18.018-.36 0-1.296-.702-2.124-1.98-2.124-1.422 0-2.412 1.062-2.61 2.502zm12.739 2.718c0 1.494-1.26 2.484-2.952 2.484-1.026 0-1.926-.252-2.7-.738l.306-1.026c.756.504 1.566.756 2.43.756 1.044 0 1.854-.522 1.854-1.386 0-.198-.036-.36-.126-.522s-.198-.288-.288-.378-.27-.18-.504-.288-.414-.18-.522-.216-.324-.108-.63-.198c-1.44-.432-2.394-1.044-2.394-2.34 0-1.476 1.17-2.376 2.79-2.376.882 0 1.71.198 2.502.612l-.324 1.008c-.738-.414-1.494-.612-2.25-.612-1.008 0-1.656.468-1.656 1.26 0 .18.036.342.126.486.09.162.18.27.27.36s.252.198.486.288c.216.09.396.162.522.216s.342.108.63.198c1.494.432 2.43 1.044 2.43 2.412z" fill="#fbfbfb"/><rect height="50" rx="9" stroke="#b9d053" stroke-width="2" width="178" x="693" y="754"/><path d="m747.365 775.83v-1.08h-9.072v1.08h3.96v10.17h1.152v-10.17zm.595 6.084v.09c.054 1.89 1.17 3.186 2.88 3.186.9 0 1.692-.234 2.394-.684l.216 1.026c-.756.468-1.638.702-2.646.702-2.358 0-3.978-1.746-3.978-4.284 0-1.296.378-2.358 1.116-3.186s1.656-1.242 2.772-1.242c1.836 0 3.006 1.188 3.006 3.042 0 .486-.054.918-.18 1.314zm.072-.882 4.572-.018c.018-.054.018-.18.018-.36 0-1.296-.702-2.124-1.98-2.124-1.422 0-2.412 1.062-2.61 2.502zm12.739 2.718c0 1.494-1.26 2.484-2.952 2.484-1.026 0-1.926-.252-2.7-.738l.306-1.026c.756.504 1.566.756 2.43.756 1.044 0 1.854-.522 1.854-1.386 0-.198-.036-.36-.126-.522s-.198-.288-.288-.378-.27-.18-.504-.288-.414-.18-.522-.216-.324-.108-.63-.198c-1.44-.432-2.394-1.044-2.394-2.34 0-1.476 1.17-2.376 2.79-2.376.882 0 1.71.198 2.502.612l-.324 1.008c-.738-.414-1.494-.612-2.25-.612-1.008 0-1.656.468-1.656 1.26 0 .18.036.342.126.486.09.162.18.27.27.36s.252.198.486.288c.216.09.396.162.522.216s.342.108.63.198c1.494.432 2.43 1.044 2.43 2.412zm6.115 2.088c-.612.288-1.224.432-1.836.432-1.53 0-2.268-.864-2.214-2.592l.126-4.878-1.26-.072.054-.702 1.242-.288.054-1.872h1.062l-.054 1.926h2.754l-.054.99h-2.736l-.126 4.932c-.036 1.026.36 1.548 1.206 1.548.45 0 .972-.126 1.584-.396zm3.152-10.8c0 .234-.072.414-.198.576s-.324.252-.558.252-.432-.09-.558-.252-.198-.342-.198-.576c0-.216.072-.396.198-.558s.324-.234.558-.234.432.072.558.234.198.342.198.558zm-.198 10.962h-1.116v-8.244l1.116-.234zm14.04 0h-1.116v-5.31c0-1.404-.576-2.106-1.746-2.106-.792 0-1.566.36-2.322 1.062.018.144.036.396.036.738v5.616h-1.116v-5.31c0-1.404-.576-2.106-1.746-2.106-.81 0-1.566.324-2.286.954v6.462h-1.116v-8.244l1.116-.234v1.134c.828-.756 1.692-1.134 2.61-1.134 1.098 0 1.836.45 2.232 1.368.918-.918 1.89-1.368 2.916-1.368 1.584 0 2.538 1.026 2.538 2.844zm10.033-4.14c0 1.296-.378 2.34-1.152 3.15s-1.728 1.224-2.898 1.224-2.124-.396-2.862-1.188-1.116-1.836-1.116-3.15c0-1.296.396-2.358 1.17-3.168s1.728-1.206 2.898-1.206 2.124.396 2.862 1.188 1.098 1.836 1.098 3.15zm-1.098.036c0-2.034-1.152-3.366-2.916-3.366-1.728 0-2.898 1.35-2.898 3.33 0 2.034 1.152 3.366 2.916 3.366 1.728 0 2.898-1.35 2.898-3.33zm9.724 4.104h-1.116v-5.328c0-1.44-.558-2.088-1.818-2.088-.882 0-1.728.396-2.502 1.17v6.246h-1.116v-8.244l1.116-.234v1.35c.9-.9 1.836-1.35 2.808-1.35 1.656 0 2.628 1.008 2.628 2.826zm3.868-10.962c0 .234-.072.414-.198.576s-.324.252-.558.252-.432-.09-.558-.252-.198-.342-.198-.576c0-.216.072-.396.198-.558s.324-.234.558-.234.432.072.558.234.198.342.198.558zm-.198 10.962h-1.116v-8.244l1.116-.234zm6.93-1.818v-2.412c-2.772.306-3.834.918-3.834 2.052 0 .864.702 1.44 1.692 1.44.792 0 1.512-.36 2.142-1.08zm.072.828h-.054c-.666.81-1.458 1.224-2.412 1.224-1.512 0-2.61-.954-2.61-2.286 0-1.764 1.674-2.736 5.004-2.934v-.486c0-1.314-.648-1.962-1.944-1.962-.864 0-1.944.432-2.7.99l-.252-1.044c.792-.558 2.016-.99 3.06-.99 1.98 0 2.97.99 2.952 2.952v3.96c0 .648.144.846.828.828l-.072.918c-1.062.072-1.674-.324-1.8-1.17zm4.652.99v-12.366l-1.116.234v12.132zm7.543-2.25c0 1.494-1.26 2.484-2.952 2.484-1.026 0-1.926-.252-2.7-.738l.306-1.026c.756.504 1.566.756 2.43.756 1.044 0 1.854-.522 1.854-1.386 0-.198-.036-.36-.126-.522s-.198-.288-.288-.378-.27-.18-.504-.288-.414-.18-.522-.216-.324-.108-.63-.198c-1.44-.432-2.394-1.044-2.394-2.34 0-1.476 1.17-2.376 2.79-2.376.882 0 1.71.198 2.502.612l-.324 1.008c-.738-.414-1.494-.612-2.25-.612-1.008 0-1.656.468-1.656 1.26 0 .18.036.342.126.486.09.162.18.27.27.36s.252.198.486.288c.216.09.396.162.522.216s.342.108.63.198c1.494.432 2.43 1.044 2.43 2.412z" fill="#fbfbfb"/><rect height="50" rx="9" stroke="#b9d053" stroke-width="2" width="178" x="693" y="538"/><path d="m760.944 559.83v-1.08h-9.072v1.08h3.96v10.17h1.152v-10.17zm3.038-.792c0 .234-.072.414-.198.576s-.324.252-.558.252-.432-.09-.558-.252-.198-.342-.198-.576c0-.216.072-.396.198-.558s.324-.234.558-.234.432.072.558.234.198.342.198.558zm-.198 10.962h-1.116v-8.244l1.116-.234zm14.04 0h-1.116v-5.31c0-1.404-.576-2.106-1.746-2.106-.792 0-1.566.36-2.322 1.062.018.144.036.396.036.738v5.616h-1.116v-5.31c0-1.404-.576-2.106-1.746-2.106-.81 0-1.566.324-2.286.954v6.462h-1.116v-8.244l1.116-.234v1.134c.828-.756 1.692-1.134 2.61-1.134 1.098 0 1.836.45 2.232 1.368.918-.918 1.89-1.368 2.916-1.368 1.584 0 2.538 1.026 2.538 2.844zm3.139-4.086v.09c.054 1.89 1.17 3.186 2.88 3.186.9 0 1.692-.234 2.394-.684l.216 1.026c-.756.468-1.638.702-2.646.702-2.358 0-3.978-1.746-3.978-4.284 0-1.296.378-2.358 1.116-3.186s1.656-1.242 2.772-1.242c1.836 0 3.006 1.188 3.006 3.042 0 .486-.054.918-.18 1.314zm.072-.882 4.572-.018c.018-.054.018-.18.018-.36 0-1.296-.702-2.124-1.98-2.124-1.422 0-2.412 1.062-2.61 2.502zm8.905 4.968v-12.366l-1.116.234v12.132zm3.925-10.962c0 .234-.072.414-.198.576s-.324.252-.558.252-.432-.09-.558-.252-.198-.342-.198-.576c0-.216.072-.396.198-.558s.324-.234.558-.234.432.072.558.234.198.342.198.558zm-.198 10.962h-1.116v-8.244l1.116-.234zm9.18 0h-1.116v-5.328c0-1.44-.558-2.088-1.818-2.088-.882 0-1.728.396-2.502 1.17v6.246h-1.116v-8.244l1.116-.234v1.35c.9-.9 1.836-1.35 2.808-1.35 1.656 0 2.628 1.008 2.628 2.826zm3.13-4.086v.09c.054 1.89 1.17 3.186 2.88 3.186.9 0 1.692-.234 2.394-.684l.216 1.026c-.756.468-1.638.702-2.646.702-2.358 0-3.978-1.746-3.978-4.284 0-1.296.378-2.358 1.116-3.186s1.656-1.242 2.772-1.242c1.836 0 3.006 1.188 3.006 3.042 0 .486-.054.918-.18 1.314zm.072-.882 4.572-.018c.018-.054.018-.18.018-.36 0-1.296-.702-2.124-1.98-2.124-1.422 0-2.412 1.062-2.61 2.502z" fill="#fbfbfb"/><rect height="50" rx="9" stroke="#b9d053" stroke-width="2" width="178" x="693" y="682"/><path d="m739.557 709.5v4.5h-1.152v-11.25h3.024c2.718 0 4.086 1.206 4.086 3.24 0 1.62-1.044 2.682-2.61 3.168l3.114 4.842h-1.332l-2.88-4.644zm0-1.026 2.016-.072c1.584-.054 2.79-.936 2.79-2.358 0-1.476-1.08-2.25-3.06-2.25h-1.746zm15.543 1.386c0 1.296-.378 2.34-1.152 3.15s-1.728 1.224-2.898 1.224-2.124-.396-2.862-1.188-1.116-1.836-1.116-3.15c0-1.296.396-2.358 1.17-3.168s1.728-1.206 2.898-1.206 2.124.396 2.862 1.188 1.098 1.836 1.098 3.15zm-1.098.036c0-2.034-1.152-3.366-2.916-3.366-1.728 0-2.898 1.35-2.898 3.33 0 2.034 1.152 3.366 2.916 3.366 1.728 0 2.898-1.35 2.898-3.33zm7.403-8.064-.054.252c-.054.18-.09.342-.144.504l-.072.252c-.486-.234-.9-.342-1.26-.342-.918 0-1.368.648-1.368 1.926v1.368h2.592l-.054.99h-2.538v7.218h-1.098v-7.182l-1.332-.09.072-.702 1.242-.288.018-1.296c.036-1.98.864-2.97 2.484-2.97.504 0 1.008.126 1.512.36zm5.537 0-.054.252c-.054.18-.09.342-.144.504l-.072.252c-.486-.234-.9-.342-1.26-.342-.918 0-1.368.648-1.368 1.926v1.368h2.592l-.054.99h-2.538v7.218h-1.098v-7.182l-1.332-.09.072-.702 1.242-.288.018-1.296c.036-1.98.864-2.97 2.484-2.97.504 0 1.008.126 1.512.36zm6.559 1.206c0 .234-.072.414-.198.576s-.324.252-.558.252-.432-.09-.558-.252-.198-.342-.198-.576c0-.216.072-.396.198-.558s.324-.234.558-.234.432.072.558.234.198.342.198.558zm-.198 10.962h-1.116v-8.244l1.116-.234zm9.18 0h-1.116v-5.328c0-1.44-.558-2.088-1.818-2.088-.882 0-1.728.396-2.502 1.17v6.246h-1.116v-8.244l1.116-.234v1.35c.9-.9 1.836-1.35 2.808-1.35 1.656 0 2.628 1.008 2.628 2.826zm14.461-1.602-6.39-9.648h-1.296v11.25h1.116v-9.63l6.444 9.738h1.242v-11.358h-1.116zm4.471-2.484v.09c.054 1.89 1.17 3.186 2.88 3.186.9 0 1.692-.234 2.394-.684l.216 1.026c-.756.468-1.638.702-2.646.702-2.358 0-3.978-1.746-3.978-4.284 0-1.296.378-2.358 1.116-3.186s1.656-1.242 2.772-1.242c1.836 0 3.006 1.188 3.006 3.042 0 .486-.054.918-.18 1.314zm.072-.882 4.572-.018c.018-.054.018-.18.018-.36 0-1.296-.702-2.124-1.98-2.124-1.422 0-2.412 1.062-2.61 2.502zm10.431 5.004 2.25-6.66 2.25 6.66h.99l2.448-8.28h-1.224l-1.71 6.606-2.25-6.588h-1.008l-2.142 6.552-1.908-6.57h-1.188l2.52 8.28zm14.402-2.286c0 1.494-1.26 2.484-2.952 2.484-1.026 0-1.926-.252-2.7-.738l.306-1.026c.756.504 1.566.756 2.43.756 1.044 0 1.854-.522 1.854-1.386 0-.198-.036-.36-.126-.522s-.198-.288-.288-.378-.27-.18-.504-.288-.414-.18-.522-.216-.324-.108-.63-.198c-1.44-.432-2.394-1.044-2.394-2.34 0-1.476 1.17-2.376 2.79-2.376.882 0 1.71.198 2.502.612l-.324 1.008c-.738-.414-1.494-.612-2.25-.612-1.008 0-1.656.468-1.656 1.26 0 .18.036.342.126.486.09.162.18.27.27.36s.252.198.486.288c.216.09.396.162.522.216s.342.108.63.198c1.494.432 2.43 1.044 2.43 2.412z" fill="#fbfbfb"/><rect height="50" rx="9" stroke="#b9d053" stroke-width="2" width="178" x="1" y="85"/><path d="m34.697 117v-1.08h-5.562v-10.17h-1.152v11.25zm2.1559-4.086v.09c.054 1.89 1.17 3.186 2.88 3.186.9 0 1.692-.234 2.394-.684l.216 1.026c-.756.468-1.638.702-2.646.702-2.358 0-3.978-1.746-3.978-4.284 0-1.296.378-2.358 1.116-3.186s1.656-1.242 2.772-1.242c1.836 0 3.006 1.188 3.006 3.042 0 .486-.054.918-.18 1.314zm.072-.882 4.572-.018c.018-.054.018-.18.018-.36 0-1.296-.702-2.124-1.98-2.124-1.422 0-2.412 1.062-2.61 2.502zm12.0911 3.15v-2.412c-2.772.306-3.834.918-3.834 2.052 0 .864.702 1.44 1.692 1.44.792 0 1.512-.36 2.142-1.08zm.072.828h-.054c-.666.81-1.458 1.224-2.412 1.224-1.512 0-2.61-.954-2.61-2.286 0-1.764 1.674-2.736 5.004-2.934v-.486c0-1.314-.648-1.962-1.944-1.962-.864 0-1.944.432-2.7.99l-.252-1.044c.792-.558 2.016-.99 3.06-.99 1.98 0 2.97.99 2.952 2.952v3.96c0 .648.144.846.828.828l-.072.918c-1.062.072-1.674-.324-1.8-1.17zm4.6521-4.302v5.292h-1.116v-8.244l1.116-.234v1.764c.594-1.17 1.404-1.764 2.43-1.764.522 0 .99.126 1.44.378l-.288 1.044c-.396-.234-.81-.36-1.26-.36-.918 0-1.692.702-2.322 2.124zm11.852 5.292h-1.116v-5.328c0-1.44-.558-2.088-1.818-2.088-.882 0-1.728.396-2.502 1.17v6.246h-1.116v-8.244l1.116-.234v1.35c.9-.9 1.836-1.35 2.808-1.35 1.656 0 2.628 1.008 2.628 2.826zm7.4859-2.25c0 1.494-1.26 2.484-2.952 2.484-1.026 0-1.926-.252-2.7-.738l.306-1.026c.756.504 1.566.756 2.43.756 1.044 0 1.854-.522 1.854-1.386 0-.198-.036-.36-.126-.522s-.198-.288-.288-.378-.27-.18-.504-.288-.414-.18-.522-.216-.324-.108-.63-.198c-1.44-.432-2.394-1.044-2.394-2.34 0-1.476 1.17-2.376 2.79-2.376.882 0 1.71.198 2.502.612l-.324 1.008c-.738-.414-1.494-.612-2.25-.612-1.008 0-1.656.468-1.656 1.26 0 .18.036.342.126.486.09.162.18.27.27.36s.252.198.486.288c.216.09.396.162.522.216s.342.108.63.198c1.494.432 2.43 1.044 2.43 2.412zm10.4087.432v-2.412c-2.772.306-3.834.918-3.834 2.052 0 .864.702 1.44 1.692 1.44.792 0 1.512-.36 2.142-1.08zm.072.828h-.054c-.666.81-1.458 1.224-2.412 1.224-1.512 0-2.61-.954-2.61-2.286 0-1.764 1.674-2.736 5.004-2.934v-.486c0-1.314-.648-1.962-1.944-1.962-.864 0-1.944.432-2.7.99l-.252-1.044c.792-.558 2.016-.99 3.06-.99 1.98 0 2.97.99 2.952 2.952v3.96c0 .648.144.846.828.828l-.072.918c-1.062.072-1.674-.324-1.8-1.17zm10.7361-3.24c0 1.296-.378 2.358-1.134 3.204-.774.846-1.746 1.26-2.934 1.26-.702 0-1.368-.144-2.016-.45l-1.116.486v-12.402l1.116-.234v4.986c.738-.702 1.566-1.044 2.484-1.044 2.178 0 3.6 1.71 3.6 4.194zm-1.152.054c0-1.908-1.044-3.222-2.664-3.222-.846 0-1.602.306-2.268.918v5.058c.558.432 1.242.648 2.07.648 1.764 0 2.862-1.368 2.862-3.402zm10.6332.036c0 1.296-.378 2.34-1.152 3.15s-1.728 1.224-2.8978 1.224c-1.17 0-2.124-.396-2.862-1.188s-1.116-1.836-1.116-3.15c0-1.296.396-2.358 1.17-3.168s1.728-1.206 2.898-1.206c1.1698 0 2.1238.396 2.8618 1.188s1.098 1.836 1.098 3.15zm-1.098.036c0-2.034-1.152-3.366-2.9158-3.366-1.728 0-2.898 1.35-2.898 3.33 0 2.034 1.152 3.366 2.916 3.366 1.7278 0 2.8978-1.35 2.8978-3.33zm3.101-4.14h1.116v5.328c0 1.386.594 2.088 1.782 2.088.936 0 1.782-.396 2.538-1.17v-6.246h1.116v8.244l-1.116.234v-1.332c-.864.882-1.818 1.332-2.844 1.332-1.62 0-2.592-1.044-2.592-2.826zm13.246 8.082c-.612.288-1.224.432-1.836.432-1.53 0-2.268-.864-2.214-2.592l.126-4.878-1.26-.072.054-.702 1.242-.288.054-1.872h1.062l-.054 1.926h2.754l-.054.99h-2.736l-.126 4.932c-.036 1.026.36 1.548 1.206 1.548.45 0 .972-.126 1.584-.396zm7.212-4.338v4.5h-1.152v-11.25h3.024c2.718 0 4.086 1.206 4.086 3.24 0 1.62-1.044 2.682-2.61 3.168l3.114 4.842h-1.332l-2.88-4.644zm0-1.026 2.016-.072c1.584-.054 2.79-.936 2.79-2.358 0-1.476-1.08-2.25-3.06-2.25h-1.746zm15.543 1.386c0 1.296-.378 2.34-1.152 3.15s-1.728 1.224-2.898 1.224-2.124-.396-2.862-1.188-1.116-1.836-1.116-3.15c0-1.296.396-2.358 1.17-3.168s1.728-1.206 2.898-1.206 2.124.396 2.862 1.188 1.098 1.836 1.098 3.15zm-1.098.036c0-2.034-1.152-3.366-2.916-3.366-1.728 0-2.898 1.35-2.898 3.33 0 2.034 1.152 3.366 2.916 3.366 1.728 0 2.898-1.35 2.898-3.33zm7.403-8.064-.054.252c-.054.18-.09.342-.144.504l-.072.252c-.486-.234-.9-.342-1.26-.342-.918 0-1.368.648-1.368 1.926v1.368h2.592l-.054.99h-2.538v7.218h-1.098v-7.182l-1.332-.09.072-.702 1.242-.288.018-1.296c.036-1.98.864-2.97 2.484-2.97.504 0 1.008.126 1.512.36zm5.537 0-.054.252c-.054.18-.09.342-.144.504l-.072.252c-.486-.234-.9-.342-1.26-.342-.918 0-1.368.648-1.368 1.926v1.368h2.592l-.054.99h-2.538v7.218h-1.098v-7.182l-1.332-.09.072-.702 1.242-.288.018-1.296c.036-1.98.864-2.97 2.484-2.97.504 0 1.008.126 1.512.36z" fill="#fbfbfb"/><rect fill="#ccc" height="52" rx="10" width="180" x="497" y="469"/><path d="m550.136 498.328v3.672h-2.862v-11.25h4.518c2.934 0 4.554 1.35 4.554 3.564 0 1.566-.774 2.646-2.304 3.24l2.88 4.446h-3.222l-2.25-3.78zm-.054-2.124 1.44-.036c1.26-.09 1.89-.648 1.89-1.674 0-.99-.702-1.476-2.124-1.476h-1.206zm10.109 2.232v.036c.09 1.134.864 1.764 2.214 1.764.882 0 1.8-.27 2.736-.81l.27 2.142c-.882.45-1.98.684-3.258.684-2.898 0-4.68-1.602-4.68-4.374 0-2.718 1.836-4.518 4.536-4.518 2.34 0 3.672 1.368 3.672 3.51 0 .594-.054 1.08-.18 1.476zm.018-1.386 2.898-.018v-.162c0-1.062-.432-1.602-1.278-1.602-.918 0-1.53.774-1.62 1.782zm10.666-.288c1.062.234 1.854.54 2.376.954s.774 1.008.774 1.8-.342 1.44-1.008 1.962-1.602.792-2.79.792c-1.206 0-2.7-.288-3.546-.738l.54-1.998c1.026.522 2.034.792 3.06.792.756 0 1.134-.234 1.134-.684 0-.432-.378-.63-1.422-.864-2.106-.414-3.186-1.17-3.186-2.736 0-1.584 1.404-2.682 3.69-2.682 1.116 0 2.556.306 3.402.72l-.558 1.98c-1.026-.504-1.998-.756-2.88-.756-.684 0-1.026.216-1.026.63 0 .432.432.612 1.44.828zm8.747-3.402c1.296 0 2.358.396 3.186 1.188s1.242 1.872 1.242 3.24-.432 2.448-1.296 3.258-1.944 1.224-3.24 1.224-2.358-.396-3.186-1.188c-.846-.774-1.26-1.854-1.26-3.24s.432-2.466 1.296-3.276 1.944-1.206 3.258-1.206zm1.674 4.446c0-.72-.144-1.296-.45-1.71s-.738-.63-1.296-.63-.972.216-1.278.63-.45.99-.45 1.728c0 .72.144 1.278.45 1.692s.738.63 1.296.63.99-.216 1.296-.63c.288-.414.432-.972.432-1.71zm4.223-4.176h2.772v4.95c0 .9.378 1.35 1.152 1.35.522 0 1.008-.18 1.422-.558v-5.742h2.772v8.244l-2.772.342v-1.242c-.792.864-1.692 1.296-2.718 1.296-1.638 0-2.628-1.098-2.628-2.88zm12.863 3.492v4.878h-2.772v-8.226l2.772-.342v1.224c.486-.864 1.17-1.296 2.016-1.296.486 0 .936.108 1.386.342l-.558 2.448c-.342-.162-.684-.252-1.044-.252-.738 0-1.332.414-1.8 1.224zm11.441 4.464c-.738.45-1.764.684-3.06.684-2.826 0-4.536-1.566-4.536-4.392 0-2.772 1.782-4.518 4.608-4.518 1.206 0 2.232.234 3.042.702l-.54 2.088c-.756-.432-1.494-.648-2.214-.648-1.296 0-2.07.918-2.07 2.286 0 1.476.81 2.322 2.142 2.322.792 0 1.53-.216 2.214-.63zm3.735-3.15v.036c.09 1.134.864 1.764 2.214 1.764.882 0 1.8-.27 2.736-.81l.27 2.142c-.882.45-1.98.684-3.258.684-2.898 0-4.68-1.602-4.68-4.374 0-2.718 1.836-4.518 4.536-4.518 2.34 0 3.672 1.368 3.672 3.51 0 .594-.054 1.08-.18 1.476zm.018-1.386 2.898-.018v-.162c0-1.062-.432-1.602-1.278-1.602-.918 0-1.53.774-1.62 1.782zm10.666-.288c1.062.234 1.854.54 2.376.954s.774 1.008.774 1.8-.342 1.44-1.008 1.962-1.602.792-2.79.792c-1.206 0-2.7-.288-3.546-.738l.54-1.998c1.026.522 2.034.792 3.06.792.756 0 1.134-.234 1.134-.684 0-.432-.378-.63-1.422-.864-2.106-.414-3.186-1.17-3.186-2.736 0-1.584 1.404-2.682 3.69-2.682 1.116 0 2.556.306 3.402.72l-.558 1.98c-1.026-.504-1.998-.756-2.88-.756-.684 0-1.026.216-1.026.63 0 .432.432.612 1.44.828z" fill="#000"/><rect fill="#ccc" height="52" rx="10" width="180" x="692" y="469"/><path d="m746.117 490.75h-3.582l-3.996 11.25h2.844l.81-2.394h4.176l.828 2.394h2.844zm-.378 6.624h-2.934l1.494-4.41zm14.014.342c0 1.35-.414 2.43-1.224 3.276s-1.8 1.26-2.97 1.26c-.63 0-1.26-.108-1.89-.342l-2.61.36v-12.168l2.772-.342v4.734c.738-.756 1.512-1.134 2.358-1.134 2.106 0 3.564 1.71 3.564 4.356zm-2.772.144c0-1.44-.612-2.286-1.746-2.286-.522 0-.99.198-1.404.576v3.69c.342.234.756.342 1.278.342 1.188 0 1.872-.9 1.872-2.322zm8.395-4.5c1.296 0 2.358.396 3.186 1.188s1.242 1.872 1.242 3.24-.432 2.448-1.296 3.258-1.944 1.224-3.24 1.224-2.358-.396-3.186-1.188c-.846-.774-1.26-1.854-1.26-3.24s.432-2.466 1.296-3.276 1.944-1.206 3.258-1.206zm1.674 4.446c0-.72-.144-1.296-.45-1.71s-.738-.63-1.296-.63-.972.216-1.278.63-.45.99-.45 1.728c0 .72.144 1.278.45 1.692s.738.63 1.296.63.99-.216 1.296-.63c.288-.414.432-.972.432-1.71zm4.223-4.176h2.772v4.95c0 .9.378 1.35 1.152 1.35.522 0 1.008-.18 1.422-.558v-5.742h2.772v8.244l-2.772.342v-1.242c-.792.864-1.692 1.296-2.718 1.296-1.638 0-2.628-1.098-2.628-2.88zm15.491 8.334c-.666.198-1.35.306-2.034.306-2.142 0-3.168-.9-3.078-3.042l.126-3.186-1.26-.216.054-1.764 1.26-.414.036-1.908h2.682l-.018 1.998h2.088l-.054 2.178h-2.232l-.09 3.006c-.036.738.324 1.098 1.098 1.098.306 0 .666-.072 1.098-.216zm8.523-3.636v3.672h-2.862v-11.25h4.518c2.934 0 4.554 1.35 4.554 3.564 0 1.566-.774 2.646-2.304 3.24l2.88 4.446h-3.222l-2.25-3.78zm-.054-2.124 1.44-.036c1.26-.09 1.89-.648 1.89-1.674 0-.99-.702-1.476-2.124-1.476h-1.206zm11.944-2.844c1.296 0 2.358.396 3.186 1.188s1.242 1.872 1.242 3.24-.432 2.448-1.296 3.258-1.944 1.224-3.24 1.224-2.358-.396-3.186-1.188c-.846-.774-1.26-1.854-1.26-3.24s.432-2.466 1.296-3.276 1.944-1.206 3.258-1.206zm1.674 4.446c0-.72-.144-1.296-.45-1.71s-.738-.63-1.296-.63-.972.216-1.278.63-.45.99-.45 1.728c0 .72.144 1.278.45 1.692s.738.63 1.296.63.99-.216 1.296-.63c.288-.414.432-.972.432-1.71zm10.289-7.92-.054.234c-.036.162-.072.36-.126.576-.054.234-.108.45-.162.684s-.09.414-.126.576l-.054.216c-.576-.216-1.044-.324-1.404-.324-.702 0-.972.378-.972 1.224v.666h2.34l-.054 2.178h-2.16v6.084h-2.772v-6.066l-1.44-.108.072-1.764 1.35-.396.018-.72c.072-2.412 1.134-3.474 3.276-3.474.828 0 1.584.144 2.268.414zm6.679 0-.054.234c-.036.162-.072.36-.126.576-.054.234-.108.45-.162.684s-.09.414-.126.576l-.054.216c-.576-.216-1.044-.324-1.404-.324-.702 0-.972.378-.972 1.224v.666h2.34l-.054 2.178h-2.16v6.084h-2.772v-6.066l-1.44-.108.072-1.764 1.35-.396.018-.72c.072-2.412 1.134-3.474 3.276-3.474.828 0 1.584.144 2.268.414z" fill="#000"/><rect fill="#ccc" height="52" rx="10" width="180" x="887" y="469"/><path d="m917.039 486.328v3.672h-2.862v-11.25h4.518c2.934 0 4.554 1.35 4.554 3.564 0 1.566-.774 2.646-2.304 3.24l2.88 4.446h-3.222l-2.25-3.78zm-.054-2.124 1.44-.036c1.26-.09 1.89-.648 1.89-1.674 0-.99-.702-1.476-2.124-1.476h-1.206zm11.944-2.844c1.296 0 2.358.396 3.186 1.188s1.242 1.872 1.242 3.24-.432 2.448-1.296 3.258-1.944 1.224-3.24 1.224-2.358-.396-3.186-1.188c-.846-.774-1.26-1.854-1.26-3.24s.432-2.466 1.296-3.276 1.944-1.206 3.258-1.206zm1.674 4.446c0-.72-.144-1.296-.45-1.71s-.738-.63-1.296-.63-.972.216-1.278.63-.45.99-.45 1.728c0 .72.144 1.278.45 1.692s.738.63 1.296.63.99-.216 1.296-.63c.288-.414.432-.972.432-1.71zm10.289-7.92-.054.234c-.036.162-.072.36-.126.576-.054.234-.108.45-.162.684s-.09.414-.126.576l-.054.216c-.576-.216-1.044-.324-1.404-.324-.702 0-.972.378-.972 1.224v.666h2.34l-.054 2.178h-2.16v6.084h-2.772v-6.066l-1.44-.108.072-1.764 1.35-.396.018-.72c.072-2.412 1.134-3.474 3.276-3.474.828 0 1.584.144 2.268.414zm6.679 0-.054.234c-.036.162-.072.36-.126.576-.054.234-.108.45-.162.684s-.09.414-.126.576l-.054.216c-.576-.216-1.044-.324-1.404-.324-.702 0-.972.378-.972 1.224v.666h2.34l-.054 2.178h-2.16v6.084h-2.772v-6.066l-1.44-.108.072-1.764 1.35-.396.018-.72c.072-2.412 1.134-3.474 3.276-3.474.828 0 1.584.144 2.268.414zm14.268 1.44-.864 2.394c-.918-.54-1.854-.81-2.844-.81-1.962 0-3.204 1.314-3.204 3.438 0 2.178 1.188 3.492 3.222 3.492 1.062 0 2.052-.306 2.97-.918l.594 2.538c-.99.54-2.214.81-3.69.81-3.69 0-5.976-2.106-5.976-5.85 0-1.818.54-3.258 1.638-4.338 1.098-1.062 2.574-1.602 4.428-1.602 1.332 0 2.574.288 3.726.846zm9.779 10.674h-2.772v-4.95c0-.882-.378-1.332-1.152-1.332-.558 0-1.08.216-1.548.63v5.652h-2.772v-11.898l2.772-.342v5.022c.828-.954 1.764-1.422 2.826-1.422 1.656 0 2.646 1.098 2.646 2.88zm6.434-2.124v-1.602c-1.728.198-2.34.504-2.34 1.26 0 .522.414.9 1.044.9.522 0 .954-.18 1.296-.558zm.072 1.116h-.054c-.72.846-1.53 1.278-2.412 1.278-1.44 0-2.556-1.026-2.556-2.322 0-1.89 1.656-2.88 4.95-2.97v-.162c0-.9-.432-1.278-1.476-1.278-.774 0-1.71.288-2.844.846l-.576-2.034c1.242-.666 2.538-.99 3.852-.99 2.79 0 3.87 1.188 3.816 3.654l-.018 2.484c0 .558.09.63.684.684l-.27 1.98c-1.656.216-2.682-.18-3.096-1.17zm17.923 1.008h-2.772v-4.932c0-.9-.378-1.35-1.134-1.35-.486 0-.936.18-1.35.54v5.742h-2.772v-4.932c0-.9-.378-1.35-1.152-1.35-.504 0-.954.162-1.35.504v5.778h-2.772v-8.226l2.772-.342v1.17c.81-.828 1.692-1.242 2.664-1.242 1.062 0 1.98.522 2.358 1.494.846-.99 1.818-1.494 2.898-1.494 1.638 0 2.61 1.08 2.61 2.898zm4.713-7.506c.74-.756 1.51-1.134 2.34-1.134 2.1 0 3.58 1.71 3.58 4.356 0 1.35-.41 2.43-1.22 3.276s-1.8 1.26-2.97 1.26c-.58 0-1.16-.09-1.73-.27v3.744h-2.775v-11.952l2.775-.342zm0 1.656v3.69c.34.234.75.342 1.28.342 1.18 0 1.87-.9 1.87-2.322 0-1.44-.61-2.286-1.75-2.286-.52 0-.99.198-1.4.576zm16.09 3.726v-1.602c-1.73.198-2.34.504-2.34 1.26 0 .522.41.9 1.04.9.52 0 .95-.18 1.3-.558zm.07 1.116h-.06c-.72.846-1.53 1.278-2.41 1.278-1.44 0-2.55-1.026-2.55-2.322 0-1.89 1.65-2.88 4.95-2.97v-.162c0-.9-.44-1.278-1.48-1.278-.77 0-1.71.288-2.84.846l-.58-2.034c1.24-.666 2.54-.99 3.85-.99 2.79 0 3.87 1.188 3.82 3.654l-.02 2.484c0 .558.09.63.68.684l-.27 1.98c-1.65.216-2.68-.18-3.09-1.17zm12.86 1.008h-2.77v-4.95c0-.972-.39-1.332-1.19-1.332-.54 0-1.04.216-1.51.63v5.652h-2.77v-8.226l2.77-.342v1.368c.85-.954 1.78-1.44 2.81-1.44 1.66 0 2.66 1.062 2.66 2.88zm7.43-8.334v-3.564l2.77-.342v12.24h-2.77v-.864c-.72.738-1.5 1.116-2.34 1.116-2.11 0-3.58-1.71-3.58-4.338 0-1.35.41-2.43 1.22-3.276s1.8-1.26 2.97-1.26c.59 0 1.17.09 1.73.288zm0 2.124c-.34-.234-.76-.36-1.28-.36-1.15 0-1.87.918-1.87 2.34 0 1.404.7 2.268 1.74 2.268.56 0 1.03-.198 1.41-.576v-3.51zm-96.903 30.21h2.718l-.378-11.25h-3.996l-2.34 8.442-2.34-8.442h-4.05l-.396 11.25h2.664l.072-8.658 2.466 8.478h3.06l2.466-8.496zm9.119-2.124v-1.602c-1.728.198-2.34.504-2.34 1.26 0 .522.414.9 1.044.9.522 0 .954-.18 1.296-.558zm.072 1.116h-.054c-.72.846-1.53 1.278-2.412 1.278-1.44 0-2.556-1.026-2.556-2.322 0-1.89 1.656-2.88 4.95-2.97v-.162c0-.9-.432-1.278-1.476-1.278-.774 0-1.71.288-2.844.846l-.576-2.034c1.242-.666 2.538-.99 3.852-.99 2.79 0 3.87 1.188 3.816 3.654l-.018 2.484c0 .558.09.63.684.684l-.27 1.98c-1.656.216-2.682-.18-3.096-1.17zm8.257-4.23c1.062.234 1.854.54 2.376.954s.774 1.008.774 1.8-.342 1.44-1.008 1.962-1.602.792-2.79.792c-1.206 0-2.7-.288-3.546-.738l.54-1.998c1.026.522 2.034.792 3.06.792.756 0 1.134-.234 1.134-.684 0-.432-.378-.63-1.422-.864-2.106-.414-3.186-1.17-3.186-2.736 0-1.584 1.404-2.682 3.69-2.682 1.116 0 2.556.306 3.402.72l-.558 1.98c-1.026-.504-1.998-.756-2.88-.756-.684 0-1.026.216-1.026.63 0 .432.432.612 1.44.828zm10.043 5.202c-.666.198-1.35.306-2.034.306-2.142 0-3.168-.9-3.078-3.042l.126-3.186-1.26-.216.054-1.764 1.26-.414.036-1.908h2.682l-.018 1.998h2.088l-.054 2.178h-2.232l-.09 3.006c-.036.738.324 1.098 1.098 1.098.306 0 .666-.072 1.098-.216zm3.565-3.528v.036c.09 1.134.864 1.764 2.214 1.764.882 0 1.8-.27 2.736-.81l.27 2.142c-.882.45-1.98.684-3.258.684-2.898 0-4.68-1.602-4.68-4.374 0-2.718 1.836-4.518 4.536-4.518 2.34 0 3.672 1.368 3.672 3.51 0 .594-.054 1.08-.18 1.476zm.018-1.386 2.898-.018v-.162c0-1.062-.432-1.602-1.278-1.602-.918 0-1.53.774-1.62 1.782zm9.803.072v4.878h-2.772v-8.226l2.772-.342v1.224c.486-.864 1.17-1.296 2.016-1.296.486 0 .936.108 1.386.342l-.558 2.448c-.342-.162-.684-.252-1.044-.252-.738 0-1.332.414-1.8 1.224zm17.98-3.978v-2.394h-10.026v2.394h3.582v8.856h2.862v-8.856zm4.196-2.178c0 .468-.15.828-.44 1.08-.28.27-.68.396-1.2.396s-.92-.126-1.21-.396c-.29-.252-.43-.612-.43-1.08 0-.486.14-.846.43-1.116.29-.252.69-.378 1.21-.378s.92.126 1.2.378c.29.27.44.63.44 1.116zm-.26 11.034h-2.77v-8.226l2.77-.342zm4.75 0v-12.24l-2.77.342v11.898zm4.24-3.564v.036c.09 1.134.87 1.764 2.22 1.764.88 0 1.8-.27 2.73-.81l.27 2.142c-.88.45-1.98.684-3.26.684-2.89 0-4.68-1.602-4.68-4.374 0-2.718 1.84-4.518 4.54-4.518 2.34 0 3.67 1.368 3.67 3.51 0 .594-.05 1.08-.18 1.476zm.02-1.386 2.9-.018v-.162c0-1.062-.43-1.602-1.28-1.602-.92 0-1.53.774-1.62 1.782zm9.8.072v4.878h-2.77v-8.226l2.77-.342v1.224c.49-.864 1.17-1.296 2.02-1.296.48 0 .93.108 1.38.342l-.55 2.448c-.35-.162-.69-.252-1.05-.252-.74 0-1.33.414-1.8 1.224z" fill="#000"/><rect fill="#ccc" height="52" rx="10" width="180" x="4" y="469"/><path d="m71.6064 499.912c1.044 0 1.71-.378 1.71-1.062 0-.702-.576-.936-2.304-1.422-.486-.126-.918-.27-1.278-.432-.36-.144-.738-.342-1.116-.612-.396-.252-.702-.594-.9-1.008-.216-.414-.324-.882-.324-1.404 0-2.142 1.566-3.474 4.32-3.474 1.602 0 3.006.324 4.212.99l-.558 2.358c-1.242-.666-2.448-.99-3.636-.99-.99 0-1.476.324-1.476.954 0 .18.054.342.162.468.09.126.27.252.54.378s.504.216.72.27c.198.072.522.162.954.288.486.126.918.27 1.296.432s.738.378 1.098.63c.36.27.648.594.846.972.198.396.288.846.288 1.368 0 2.196-1.692 3.654-4.608 3.654-1.692 0-3.132-.342-4.338-1.026l.54-2.376c1.314.702 2.592 1.044 3.852 1.044zm8.5041-1.476v.036c.09 1.134.864 1.764 2.214 1.764.882 0 1.8-.27 2.736-.81l.27 2.142c-.882.45-1.98.684-3.258.684-2.898 0-4.68-1.602-4.68-4.374 0-2.718 1.836-4.518 4.536-4.518 2.34 0 3.672 1.368 3.672 3.51 0 .594-.054 1.08-.18 1.476zm.018-1.386 2.898-.018v-.162c0-1.062-.432-1.602-1.278-1.602-.918 0-1.53.774-1.62 1.782zm11.5304 2.826v-1.602c-1.728.198-2.34.504-2.34 1.26 0 .522.414.9 1.044.9.522 0 .954-.18 1.296-.558zm.072 1.116h-.054c-.72.846-1.53 1.278-2.412 1.278-1.44 0-2.556-1.026-2.556-2.322 0-1.89 1.656-2.88 4.95-2.97v-.162c0-.9-.432-1.278-1.476-1.278-.774 0-1.71.288-2.844.846l-.576-2.034c1.242-.666 2.538-.99 3.852-.99 2.79 0 3.87 1.188 3.816 3.654l-.018 2.484c0 .558.09.63.684.684l-.27 1.98c-1.656.216-2.682-.18-3.096-1.17zm7.3934-3.87v4.878h-2.772v-8.226l2.772-.342v1.224c.486-.864 1.1697-1.296 2.0157-1.296.486 0 .936.108 1.386.342l-.558 2.448c-.342-.162-.684-.252-1.044-.252-.738 0-1.3317.414-1.7997 1.224zm11.4407 4.464c-.738.45-1.764.684-3.06.684-2.826 0-4.536-1.566-4.536-4.392 0-2.772 1.782-4.518 4.608-4.518 1.206 0 2.232.234 3.042.702l-.54 2.088c-.756-.432-1.494-.648-2.214-.648-1.296 0-2.07.918-2.07 2.286 0 1.476.81 2.322 2.142 2.322.792 0 1.53-.216 2.214-.63zm9.799.414h-2.772v-4.95c0-.882-.378-1.332-1.152-1.332-.558 0-1.08.216-1.548.63v5.652h-2.772v-11.898l2.772-.342v5.022c.828-.954 1.764-1.422 2.826-1.422 1.656 0 2.646 1.098 2.646 2.88z" fill="#000"/><rect fill="#ccc" height="52" rx="10" width="180" x="1082" y="469"/><path d="m1139.01 491.326-.86 2.394c-.92-.54-1.85-.81-2.84-.81-1.97 0-3.21 1.314-3.21 3.438 0 2.178 1.19 3.492 3.22 3.492 1.07 0 2.06-.306 2.97-.918l.6 2.538c-.99.54-2.22.81-3.69.81-3.69 0-5.98-2.106-5.98-5.85 0-1.818.54-3.258 1.64-4.338 1.1-1.062 2.57-1.602 4.43-1.602 1.33 0 2.57.288 3.72.846zm5.38 2.034c1.3 0 2.36.396 3.19 1.188.82.792 1.24 1.872 1.24 3.24s-.43 2.448-1.3 3.258c-.86.81-1.94 1.224-3.24 1.224-1.29 0-2.36-.396-3.18-1.188-.85-.774-1.26-1.854-1.26-3.24s.43-2.466 1.29-3.276c.87-.81 1.95-1.206 3.26-1.206zm1.67 4.446c0-.72-.14-1.296-.45-1.71-.3-.414-.73-.63-1.29-.63s-.97.216-1.28.63-.45.99-.45 1.728c0 .72.14 1.278.45 1.692s.74.63 1.3.63c.55 0 .99-.216 1.29-.63.29-.414.43-.972.43-1.71zm12.52 4.194h-2.77v-4.95c0-.972-.39-1.332-1.19-1.332-.54 0-1.04.216-1.51.63v5.652h-2.77v-8.226l2.77-.342v1.368c.85-.954 1.78-1.44 2.81-1.44 1.66 0 2.66 1.062 2.66 2.88zm7.34-.036c-.67.198-1.35.306-2.04.306-2.14 0-3.16-.9-3.07-3.042l.12-3.186-1.26-.216.06-1.764 1.26-.414.03-1.908h2.68l-.01 1.998h2.08l-.05 2.178h-2.23l-.09 3.006c-.04.738.32 1.098 1.1 1.098.3 0 .66-.072 1.09-.216zm5.88-2.088v-1.602c-1.72.198-2.34.504-2.34 1.26 0 .522.42.9 1.05.9.52 0 .95-.18 1.29-.558zm.08 1.116h-.06c-.72.846-1.53 1.278-2.41 1.278-1.44 0-2.56-1.026-2.56-2.322 0-1.89 1.66-2.88 4.95-2.97v-.162c0-.9-.43-1.278-1.47-1.278-.78 0-1.71.288-2.85.846l-.57-2.034c1.24-.666 2.54-.99 3.85-.99 2.79 0 3.87 1.188 3.82 3.654l-.02 2.484c0 .558.09.63.68.684l-.27 1.98c-1.65.216-2.68-.18-3.09-1.17zm11.78.594c-.74.45-1.76.684-3.06.684-2.83 0-4.54-1.566-4.54-4.392 0-2.772 1.79-4.518 4.61-4.518 1.21 0 2.23.234 3.04.702l-.54 2.088c-.75-.432-1.49-.648-2.21-.648-1.3 0-2.07.918-2.07 2.286 0 1.476.81 2.322 2.14 2.322.79 0 1.53-.216 2.22-.63zm6.96.378c-.67.198-1.35.306-2.04.306-2.14 0-3.17-.9-3.08-3.042l.13-3.186-1.26-.216.05-1.764 1.26-.414.04-1.908h2.68l-.02 1.998h2.09l-.05 2.178h-2.23l-.09 3.006c-.04.738.32 1.098 1.09 1.098.31 0 .67-.072 1.1-.216zm15.5-4.554c0 3.204-1.85 4.86-4.97 4.86-3.06 0-4.95-1.512-4.95-4.608v-6.912h2.85v6.534c0 1.71.72 2.574 2.18 2.574 1.36 0 2.05-.756 2.05-2.466v-6.642h2.84zm5.71-.648c1.06.234 1.85.54 2.37.954s.78 1.008.78 1.8-.35 1.44-1.01 1.962c-.67.522-1.6.792-2.79.792-1.21 0-2.7-.288-3.55-.738l.54-1.998c1.03.522 2.04.792 3.06.792.76 0 1.14-.234 1.14-.684 0-.432-.38-.63-1.43-.864-2.1-.414-3.18-1.17-3.18-2.736 0-1.584 1.4-2.682 3.69-2.682 1.11 0 2.55.306 3.4.72l-.56 1.98c-1.02-.504-2-.756-2.88-.756-.68 0-1.02.216-1.02.63 0 .432.43.612 1.44.828z" fill="#000"/><path d="m214.12 110h.896v-3.822h3.528v-.826h-3.528v-3.262h4.256v-.84h-5.152zm7.455-4.116v4.116h-.868v-6.412l.868-.182v1.372c.462-.91 1.092-1.372 1.89-1.372.406 0 .77.098 1.12.294l-.224.812c-.308-.182-.63-.28-.98-.28-.714 0-1.316.546-1.806 1.652zm9.81.896c0 1.008-.294 1.82-.896 2.45s-1.344.952-2.254.952-1.652-.308-2.226-.924-.868-1.428-.868-2.45c0-1.008.308-1.834.91-2.464s1.344-.938 2.254-.938 1.652.308 2.226.924.854 1.428.854 2.45zm-.854.028c0-1.582-.896-2.618-2.268-2.618-1.344 0-2.254 1.05-2.254 2.59 0 1.582.896 2.618 2.268 2.618 1.344 0 2.254-1.05 2.254-2.59zm11.343 3.192h-.868v-4.13c0-1.092-.448-1.638-1.358-1.638-.616 0-1.218.28-1.806.826.014.112.028.308.028.574v4.368h-.868v-4.13c0-1.092-.448-1.638-1.358-1.638-.63 0-1.218.252-1.778.742v5.026h-.868v-6.412l.868-.182v.882c.644-.588 1.316-.882 2.03-.882.854 0 1.428.35 1.736 1.064.714-.714 1.47-1.064 2.268-1.064 1.232 0 1.974.798 1.974 2.212zm8.455-9.464-.042.196c-.042.14-.07.266-.112.392l-.056.196c-.378-.182-.7-.266-.98-.266-.714 0-1.064.504-1.064 1.498v1.064h2.016l-.042.77h-1.974v5.614h-.854v-5.586l-1.036-.07.056-.546.966-.224.014-1.008c.028-1.54.672-2.31 1.932-2.31.392 0 .784.098 1.176.28zm1.748 5.348v4.116h-.868v-6.412l.868-.182v1.372c.462-.91 1.092-1.372 1.89-1.372.406 0 .77.098 1.12.294l-.224.812c-.308-.182-.63-.28-.98-.28-.714 0-1.316.546-1.806 1.652zm5.158-4.41c0 .182-.056.322-.154.448s-.252.196-.434.196-.336-.07-.434-.196-.154-.266-.154-.448c0-.168.056-.308.154-.434s.252-.182.434-.182.336.056.434.182.154.266.154.434zm-.154 8.526h-.868v-6.412l.868-.182zm2.506-3.178v.07c.042 1.47.91 2.478 2.24 2.478.7 0 1.316-.182 1.862-.532l.168.798c-.588.364-1.274.546-2.058.546-1.834 0-3.094-1.358-3.094-3.332 0-1.008.294-1.834.868-2.478s1.288-.966 2.156-.966c1.428 0 2.338.924 2.338 2.366 0 .378-.042.714-.14 1.022zm.056-.686 3.556-.014c.014-.042.014-.14.014-.28 0-1.008-.546-1.652-1.54-1.652-1.106 0-1.876.826-2.03 1.946zm11.154 3.864h-.868v-4.144c0-1.12-.434-1.624-1.414-1.624-.686 0-1.344.308-1.946.91v4.858h-.868v-6.412l.868-.182v1.05c.7-.7 1.428-1.05 2.184-1.05 1.288 0 2.044.784 2.044 2.198zm6.285-6.202v-3.234l.868-.182v9.618h-.868v-.602c-.56.518-1.176.784-1.862.784-1.722 0-2.87-1.358-2.87-3.332 0-.994.294-1.806.896-2.45.602-.63 1.358-.952 2.282-.952.532 0 1.05.112 1.554.35zm0 .924c-.42-.322-.952-.49-1.596-.49-1.372 0-2.24 1.064-2.24 2.604 0 1.498.84 2.548 2.128 2.548.63 0 1.204-.238 1.708-.714v-3.822zm6.729 3.528c0 1.162-.98 1.932-2.296 1.932-.798 0-1.498-.196-2.1-.574l.238-.798c.588.392 1.218.588 1.89.588.812 0 1.442-.406 1.442-1.078 0-.154-.028-.28-.098-.406s-.154-.224-.224-.294-.21-.14-.392-.224-.322-.14-.406-.168-.252-.084-.49-.154c-1.12-.336-1.862-.812-1.862-1.82 0-1.148.91-1.848 2.17-1.848.686 0 1.33.154 1.946.476l-.252.784c-.574-.322-1.162-.476-1.75-.476-.784 0-1.288.364-1.288.98 0 .14.028.266.098.378.07.126.14.21.21.28s.196.154.378.224c.168.07.308.126.406.168s.266.084.49.154c1.162.336 1.89.812 1.89 1.876zm4.135-8.078h-.7l-3.402 12.614h.686zm6.562 6.608c0 1.008-.294 1.82-.896 2.45s-1.344.952-2.254.952-1.652-.308-2.226-.924-.868-1.428-.868-2.45c0-1.008.308-1.834.91-2.464s1.344-.938 2.254-.938 1.652.308 2.226.924.854 1.428.854 2.45zm-.854.028c0-1.582-.896-2.618-2.268-2.618-1.344 0-2.254 1.05-2.254 2.59 0 1.582.896 2.618 2.268 2.618 1.344 0 2.254-1.05 2.254-2.59zm7.563 3.192h-.868v-4.144c0-1.12-.434-1.624-1.414-1.624-.686 0-1.344.308-1.946.91v4.858h-.868v-6.412l.868-.182v1.05c.7-.7 1.428-1.05 2.184-1.05 1.288 0 2.044.784 2.044 2.198zm2.841 0v-9.618l-.868.182v9.436zm3.052-8.526c0 .182-.056.322-.154.448s-.252.196-.434.196-.336-.07-.434-.196-.154-.266-.154-.448c0-.168.056-.308.154-.434s.252-.182.434-.182.336.056.434.182.154.266.154.434zm-.154 8.526h-.868v-6.412l.868-.182zm7.14 0h-.868v-4.144c0-1.12-.434-1.624-1.414-1.624-.686 0-1.344.308-1.946.91v4.858h-.868v-6.412l.868-.182v1.05c.7-.7 1.428-1.05 2.184-1.05 1.288 0 2.044.784 2.044 2.198zm2.435-3.178v.07c.042 1.47.91 2.478 2.24 2.478.7 0 1.316-.182 1.862-.532l.168.798c-.588.364-1.274.546-2.058.546-1.834 0-3.094-1.358-3.094-3.332 0-1.008.294-1.834.868-2.478s1.288-.966 2.156-.966c1.428 0 2.338.924 2.338 2.366 0 .378-.042.714-.14 1.022zm.056-.686 3.556-.014c.014-.042.014-.14.014-.28 0-1.008-.546-1.652-1.54-1.652-1.106 0-1.876.826-2.03 1.946zm13.947 3.5c-.588.364-1.246.546-1.988.546-1.918 0-3.136-1.344-3.136-3.374 0-.994.294-1.82.896-2.45.588-.63 1.344-.952 2.254-.952.77 0 1.428.182 2.002.546l-.224.784c-.518-.35-1.12-.518-1.778-.518-1.386 0-2.254 1.022-2.254 2.562 0 1.582.896 2.59 2.268 2.59.644 0 1.232-.182 1.778-.532zm4.959-1.05v-1.876c-2.156.238-2.982.714-2.982 1.596 0 .672.546 1.12 1.316 1.12.616 0 1.176-.28 1.666-.84zm.056.644h-.042c-.518.63-1.134.952-1.876.952-1.176 0-2.03-.742-2.03-1.778 0-1.372 1.302-2.128 3.892-2.282v-.378c0-1.022-.504-1.526-1.512-1.526-.672 0-1.512.336-2.1.77l-.196-.812c.616-.434 1.568-.77 2.38-.77 1.54 0 2.31.77 2.296 2.296v3.08c0 .504.112.658.644.644l-.056.714c-.826.056-1.302-.252-1.4-.91zm11.626.77h-.868v-4.13c0-1.092-.448-1.638-1.358-1.638-.616 0-1.218.28-1.806.826.014.112.028.308.028.574v4.368h-.868v-4.13c0-1.092-.448-1.638-1.358-1.638-.63 0-1.218.252-1.778.742v5.026h-.868v-6.412l.868-.182v.882c.644-.588 1.316-.882 2.03-.882.854 0 1.428.35 1.736 1.064.714-.714 1.47-1.064 2.268-1.064 1.232 0 1.974.798 1.974 2.212zm2.847-5.768c.56-.518 1.176-.784 1.862-.784 1.722 0 2.87 1.344 2.87 3.318 0 .994-.294 1.82-.882 2.45-.602.644-1.358.966-2.282.966-.574 0-1.092-.112-1.568-.336v3.416h-.868v-9.702l.868-.182zm0 .728v3.934c.434.336.966.504 1.61.504 1.344 0 2.226-1.078 2.226-2.618 0-1.498-.826-2.534-2.114-2.534-.63 0-1.204.238-1.722.714zm9.684 3.626v-1.876c-2.156.238-2.982.714-2.982 1.596 0 .672.546 1.12 1.316 1.12.616 0 1.176-.28 1.666-.84zm.056.644h-.042c-.518.63-1.134.952-1.876.952-1.176 0-2.03-.742-2.03-1.778 0-1.372 1.302-2.128 3.892-2.282v-.378c0-1.022-.504-1.526-1.512-1.526-.672 0-1.512.336-2.1.77l-.196-.812c.616-.434 1.568-.77 2.38-.77 1.54 0 2.31.77 2.296 2.296v3.08c0 .504.112.658.644.644l-.056.714c-.826.056-1.302-.252-1.4-.91zm3.786-7.756c0 .182-.056.322-.154.448s-.252.196-.434.196-.336-.07-.434-.196-.154-.266-.154-.448c0-.168.056-.308.154-.434s.252-.182.434-.182.336.056.434.182.154.266.154.434zm-.154 8.526h-.868v-6.412l.868-.182zm2.534-4.172c0 .952.644 1.638 1.652 1.638.49 0 .868-.154 1.162-.476.294-.308.434-.714.434-1.204s-.14-.896-.42-1.204c-.294-.308-.7-.462-1.218-.462-.994 0-1.61.7-1.61 1.708zm.756 4.354c-.77.21-1.302.714-1.302 1.26 0 .77.854 1.316 2.184 1.316 1.344 0 2.408-.644 2.408-1.512 0-.728-.616-1.022-1.946-1.022-.532 0-.98-.014-1.344-.042zm-.756-.168c-.574-.21-.868-.546-.868-1.022 0-.532.434-.994 1.05-1.218-.686-.42-1.036-1.078-1.036-1.96 0-1.386 1.022-2.408 2.52-2.408.56 0 1.064.126 1.512.378l1.778-.14.042.868-1.414-.14c.294.294.518.91.518 1.442 0 1.372-1.05 2.352-2.492 2.352-.294 0-.602-.056-.952-.182-.476.196-.714.448-.714.77 0 .434.364.658 1.456.658h.826c1.778 0 2.66.56 2.66 1.68 0 .686-.336 1.26-.994 1.708s-1.456.672-2.38.672c-1.722 0-2.898-.756-2.898-1.876 0-.728.56-1.372 1.386-1.582zm11.155-.014h-.868v-4.144c0-1.12-.434-1.624-1.414-1.624-.686 0-1.344.308-1.946.91v4.858h-.868v-6.412l.868-.182v1.05c.7-.7 1.428-1.05 2.184-1.05 1.288 0 2.044.784 2.044 2.198zm5.822-1.75c0 1.162-.98 1.932-2.296 1.932-.798 0-1.498-.196-2.1-.574l.238-.798c.588.392 1.218.588 1.89.588.812 0 1.442-.406 1.442-1.078 0-.154-.028-.28-.098-.406s-.154-.224-.224-.294-.21-.14-.392-.224-.322-.14-.406-.168-.252-.084-.49-.154c-1.12-.336-1.862-.812-1.862-1.82 0-1.148.91-1.848 2.17-1.848.686 0 1.33.154 1.946.476l-.252.784c-.574-.322-1.162-.476-1.75-.476-.784 0-1.288.364-1.288.98 0 .14.028.266.098.378.07.126.14.21.21.28s.196.154.378.224c.168.07.308.126.406.168s.266.084.49.154c1.162.336 1.89.812 1.89 1.876zm4.135-8.078h-.7l-3.402 12.614h.686zm-169.182 26.078c0 1.162-.98 1.932-2.296 1.932-.798 0-1.498-.196-2.1-.574l.238-.798c.588.392 1.218.588 1.89.588.812 0 1.442-.406 1.442-1.078 0-.154-.028-.28-.098-.406s-.154-.224-.224-.294-.21-.14-.392-.224-.322-.14-.406-.168-.252-.084-.49-.154c-1.12-.336-1.862-.812-1.862-1.82 0-1.148.91-1.848 2.17-1.848.686 0 1.33.154 1.946.476l-.252.784c-.574-.322-1.162-.476-1.75-.476-.784 0-1.288.364-1.288.98 0 .14.028.266.098.378.07.126.14.21.21.28s.196.154.378.224c.168.07.308.126.406.168s.266.084.49.154c1.162.336 1.89.812 1.89 1.876zm7.388-1.47c0 1.008-.294 1.82-.896 2.45s-1.344.952-2.254.952-1.652-.308-2.226-.924-.868-1.428-.868-2.45c0-1.008.308-1.834.91-2.464s1.344-.938 2.254-.938 1.652.308 2.226.924.854 1.428.854 2.45zm-.854.028c0-1.582-.896-2.618-2.268-2.618-1.344 0-2.254 1.05-2.254 2.59 0 1.582.896 2.618 2.268 2.618 1.344 0 2.254-1.05 2.254-2.59zm7.172 2.828c-.588.364-1.246.546-1.988.546-1.918 0-3.136-1.344-3.136-3.374 0-.994.294-1.82.896-2.45.588-.63 1.344-.952 2.254-.952.77 0 1.428.182 2.002.546l-.224.784c-.518-.35-1.12-.518-1.778-.518-1.386 0-2.254 1.022-2.254 2.562 0 1.582.896 2.59 2.268 2.59.644 0 1.232-.182 1.778-.532zm2.648-8.162c0 .182-.056.322-.154.448s-.252.196-.434.196-.336-.07-.434-.196-.154-.266-.154-.448c0-.168.056-.308.154-.434s.252-.182.434-.182.336.056.434.182.154.266.154.434zm-.154 8.526h-.868v-6.412l.868-.182zm5.39-1.414v-1.876c-2.156.238-2.982.714-2.982 1.596 0 .672.546 1.12 1.316 1.12.616 0 1.176-.28 1.666-.84zm.056.644h-.042c-.518.63-1.134.952-1.876.952-1.176 0-2.03-.742-2.03-1.778 0-1.372 1.302-2.128 3.892-2.282v-.378c0-1.022-.504-1.526-1.512-1.526-.672 0-1.512.336-2.1.77l-.196-.812c.616-.434 1.568-.77 2.38-.77 1.54 0 2.31.77 2.296 2.296v3.08c0 .504.112.658.644.644l-.056.714c-.826.056-1.302-.252-1.4-.91zm3.618.77v-9.618l-.868.182v9.436zm14.078 0h-.868v-4.13c0-1.092-.448-1.638-1.358-1.638-.616 0-1.218.28-1.806.826.014.112.028.308.028.574v4.368h-.868v-4.13c0-1.092-.448-1.638-1.358-1.638-.63 0-1.218.252-1.778.742v5.026h-.868v-6.412l.868-.182v.882c.644-.588 1.316-.882 2.03-.882.854 0 1.428.35 1.736 1.064.714-.714 1.47-1.064 2.268-1.064 1.232 0 1.974.798 1.974 2.212zm2.442-3.178v.07c.042 1.47.91 2.478 2.24 2.478.7 0 1.316-.182 1.862-.532l.168.798c-.588.364-1.274.546-2.058.546-1.834 0-3.094-1.358-3.094-3.332 0-1.008.294-1.834.868-2.478s1.288-.966 2.156-.966c1.428 0 2.338.924 2.338 2.366 0 .378-.042.714-.14 1.022zm.056-.686 3.556-.014c.014-.042.014-.14.014-.28 0-1.008-.546-1.652-1.54-1.652-1.106 0-1.876.826-2.03 1.946zm10.37-2.338v-3.234l.868-.182v9.618h-.868v-.602c-.56.518-1.176.784-1.862.784-1.722 0-2.87-1.358-2.87-3.332 0-.994.294-1.806.896-2.45.602-.63 1.358-.952 2.282-.952.532 0 1.05.112 1.554.35zm0 .924c-.42-.322-.952-.49-1.596-.49-1.372 0-2.24 1.064-2.24 2.604 0 1.498.84 2.548 2.128 2.548.63 0 1.204-.238 1.708-.714v-3.822zm3.915-3.248c0 .182-.056.322-.154.448s-.252.196-.434.196-.336-.07-.434-.196-.154-.266-.154-.448c0-.168.056-.308.154-.434s.252-.182.434-.182.336.056.434.182.154.266.154.434zm-.154 8.526h-.868v-6.412l.868-.182zm5.39-1.414v-1.876c-2.156.238-2.982.714-2.982 1.596 0 .672.546 1.12 1.316 1.12.616 0 1.176-.28 1.666-.84zm.056.644h-.042c-.518.63-1.134.952-1.876.952-1.176 0-2.03-.742-2.03-1.778 0-1.372 1.302-2.128 3.892-2.282v-.378c0-1.022-.504-1.526-1.512-1.526-.672 0-1.512.336-2.1.77l-.196-.812c.616-.434 1.568-.77 2.38-.77 1.54 0 2.31.77 2.296 2.296v3.08c0 .504.112.658.644.644l-.056.714c-.826.056-1.302-.252-1.4-.91zm5.253-9.058h-.7l-3.402 12.614h.686zm2.724 9.856 1.75-5.18 1.75 5.18h.77l1.904-6.44h-.952l-1.33 5.138-1.75-5.124h-.784l-1.666 5.096-1.484-5.11h-.924l1.96 6.44zm13.107-3.248c0 1.008-.294 1.82-.896 2.45s-1.344.952-2.254.952-1.652-.308-2.226-.924-.868-1.428-.868-2.45c0-1.008.308-1.834.91-2.464s1.344-.938 2.254-.938 1.652.308 2.226.924.854 1.428.854 2.45zm-.854.028c0-1.582-.896-2.618-2.268-2.618-1.344 0-2.254 1.05-2.254 2.59 0 1.582.896 2.618 2.268 2.618 1.344 0 2.254-1.05 2.254-2.59zm3.336-.924v4.116h-.868v-6.412l.868-.182v1.372c.462-.91 1.092-1.372 1.89-1.372.406 0 .77.098 1.12.294l-.224.812c-.308-.182-.63-.28-.98-.28-.714 0-1.316.546-1.806 1.652zm8.297-2.086v-3.234l.868-.182v9.618h-.868v-.602c-.56.518-1.176.784-1.862.784-1.722 0-2.87-1.358-2.87-3.332 0-.994.294-1.806.896-2.45.602-.63 1.358-.952 2.282-.952.532 0 1.05.112 1.554.35zm0 .924c-.42-.322-.952-.49-1.596-.49-1.372 0-2.24 1.064-2.24 2.604 0 1.498.84 2.548 2.128 2.548.63 0 1.204-.238 1.708-.714v-3.822zm11.889 2.058c0 1.008-.294 1.82-.896 2.45s-1.344.952-2.254.952-1.652-.308-2.226-.924-.868-1.428-.868-2.45c0-1.008.308-1.834.91-2.464s1.344-.938 2.254-.938 1.652.308 2.226.924.854 1.428.854 2.45zm-.854.028c0-1.582-.896-2.618-2.268-2.618-1.344 0-2.254 1.05-2.254 2.59 0 1.582.896 2.618 2.268 2.618 1.344 0 2.254-1.05 2.254-2.59zm5.758-6.272-.042.196c-.042.14-.07.266-.112.392l-.056.196c-.378-.182-.7-.266-.98-.266-.714 0-1.064.504-1.064 1.498v1.064h2.016l-.042.77h-1.974v5.614h-.854v-5.586l-1.036-.07.056-.546.966-.224.014-1.008c.028-1.54.672-2.31 1.932-2.31.392 0 .784.098 1.176.28zm12.941 9.464h-.868v-4.13c0-1.092-.448-1.638-1.358-1.638-.616 0-1.218.28-1.806.826.014.112.028.308.028.574v4.368h-.868v-4.13c0-1.092-.448-1.638-1.358-1.638-.63 0-1.218.252-1.778.742v5.026h-.868v-6.412l.868-.182v.882c.644-.588 1.316-.882 2.03-.882.854 0 1.428.35 1.736 1.064.714-.714 1.47-1.064 2.268-1.064 1.232 0 1.974.798 1.974 2.212zm7.804-3.22c0 1.008-.294 1.82-.896 2.45s-1.344.952-2.254.952-1.652-.308-2.226-.924-.868-1.428-.868-2.45c0-1.008.308-1.834.91-2.464s1.344-.938 2.254-.938 1.652.308 2.226.924.854 1.428.854 2.45zm-.854.028c0-1.582-.896-2.618-2.268-2.618-1.344 0-2.254 1.05-2.254 2.59 0 1.582.896 2.618 2.268 2.618 1.344 0 2.254-1.05 2.254-2.59zm2.411-3.22h.868v4.144c0 1.078.462 1.624 1.386 1.624.728 0 1.386-.308 1.974-.91v-4.858h.868v6.412l-.868.182v-1.036c-.672.686-1.414 1.036-2.212 1.036-1.26 0-2.016-.812-2.016-2.198zm10.303 6.286c-.476.224-.952.336-1.428.336-1.19 0-1.764-.672-1.722-2.016l.098-3.794-.98-.056.042-.546.966-.224.042-1.456h.826l-.042 1.498h2.142l-.042.77h-2.128l-.098 3.836c-.028.798.28 1.204.938 1.204.35 0 .756-.098 1.232-.308zm6.511.126h-.868v-4.144c0-1.078-.462-1.624-1.372-1.624-.714 0-1.386.308-1.988.91v4.858h-.868v-9.436l.868-.182v4.046c.686-.686 1.428-1.022 2.226-1.022 1.26 0 2.002.784 2.002 2.198z" fill="#b9d053"/><path d="m1103.59 549.782-.28.798c-.73-.462-1.54-.7-2.44-.7-1.97 0-3.3 1.386-3.3 3.738 0 2.31 1.3 3.752 3.33 3.752.94 0 1.75-.266 2.45-.784l.17.882c-.73.476-1.61.714-2.63.714-1.28 0-2.3-.406-3.07-1.232s-1.16-1.918-1.16-3.304.39-2.492 1.19-3.332c.78-.826 1.79-1.246 3.04-1.246 1.02 0 1.91.238 2.7.714zm7.24 4.998c0 1.008-.29 1.82-.9 2.45-.6.63-1.34.952-2.25.952s-1.65-.308-2.23-.924c-.57-.616-.86-1.428-.86-2.45 0-1.008.3-1.834.91-2.464.6-.63 1.34-.938 2.25-.938s1.65.308 2.23.924c.57.616.85 1.428.85 2.45zm-.85.028c0-1.582-.9-2.618-2.27-2.618-1.35 0-2.26 1.05-2.26 2.59 0 1.582.9 2.618 2.27 2.618 1.35 0 2.26-1.05 2.26-2.59zm7.56 3.192h-.87v-4.144c0-1.12-.43-1.624-1.41-1.624-.69 0-1.35.308-1.95.91v4.858h-.87v-6.412l.87-.182v1.05c.7-.7 1.43-1.05 2.19-1.05 1.28 0 2.04.784 2.04 2.198zm5.16-.126c-.47.224-.95.336-1.42.336-1.19 0-1.77-.672-1.73-2.016l.1-3.794-.98-.056.04-.546.97-.224.04-1.456h.83l-.04 1.498h2.14l-.04.77h-2.13l-.1 3.836c-.03.798.28 1.204.94 1.204.35 0 .75-.098 1.23-.308zm4.77-1.288v-1.876c-2.16.238-2.99.714-2.99 1.596 0 .672.55 1.12 1.32 1.12.62 0 1.18-.28 1.67-.84zm.05.644h-.04c-.52.63-1.13.952-1.88.952-1.17 0-2.03-.742-2.03-1.778 0-1.372 1.31-2.128 3.9-2.282v-.378c0-1.022-.51-1.526-1.52-1.526-.67 0-1.51.336-2.1.77l-.19-.812c.61-.434 1.57-.77 2.38-.77 1.54 0 2.31.77 2.29 2.296v3.08c0 .504.12.658.65.644l-.06.714c-.82.056-1.3-.252-1.4-.91zm7.46.406c-.59.364-1.25.546-1.99.546-1.92 0-3.14-1.344-3.14-3.374 0-.994.3-1.82.9-2.45.59-.63 1.34-.952 2.25-.952.77 0 1.43.182 2 .546l-.22.784c-.52-.35-1.12-.518-1.78-.518-1.38 0-2.25 1.022-2.25 2.562 0 1.582.89 2.59 2.27 2.59.64 0 1.23-.182 1.77-.532zm4.8.238c-.48.224-.95.336-1.43.336-1.19 0-1.76-.672-1.72-2.016l.1-3.794-.98-.056.04-.546.97-.224.04-1.456h.82l-.04 1.498h2.14l-.04.77h-2.13l-.09 3.836c-.03.798.28 1.204.93 1.204.35 0 .76-.098 1.24-.308zm7.89-9.338-.04.196c-.04.14-.07.266-.11.392l-.06.196c-.38-.182-.7-.266-.98-.266-.71 0-1.06.504-1.06 1.498v1.064h2.01l-.04.77h-1.97v5.614h-.86v-5.586l-1.03-.07.05-.546.97-.224.01-1.008c.03-1.54.68-2.31 1.94-2.31.39 0 .78.098 1.17.28zm6.7 6.244c0 1.008-.29 1.82-.89 2.45s-1.35.952-2.26.952-1.65-.308-2.22-.924c-.58-.616-.87-1.428-.87-2.45 0-1.008.31-1.834.91-2.464s1.34-.938 2.25-.938 1.66.308 2.23.924.85 1.428.85 2.45zm-.85.028c0-1.582-.9-2.618-2.27-2.618-1.34 0-2.25 1.05-2.25 2.59 0 1.582.89 2.618 2.27 2.618 1.34 0 2.25-1.05 2.25-2.59zm3.34-.924v4.116h-.87v-6.412l.87-.182v1.372c.46-.91 1.09-1.372 1.89-1.372.4 0 .77.098 1.12.294l-.23.812c-.31-.182-.63-.28-.98-.28-.71 0-1.31.546-1.8 1.652zm12.99 4.116h-.86v-4.13c0-1.092-.45-1.638-1.36-1.638-.62 0-1.22.28-1.81.826.02.112.03.308.03.574v4.368h-.87v-4.13c0-1.092-.45-1.638-1.36-1.638-.63 0-1.21.252-1.77.742v5.026h-.87v-6.412l.87-.182v.882c.64-.588 1.31-.882 2.03-.882.85 0 1.42.35 1.73 1.064.72-.714 1.47-1.064 2.27-1.064 1.23 0 1.97.798 1.97 2.212zm8.36-.126c-.47.224-.95.336-1.43.336-1.19 0-1.76-.672-1.72-2.016l.1-3.794-.98-.056.04-.546.97-.224.04-1.456h.83l-.05 1.498h2.15l-.05.77h-2.12l-.1 3.836c-.03.798.28 1.204.94 1.204.35 0 .75-.098 1.23-.308zm7.17-3.094c0 1.008-.29 1.82-.89 2.45-.61.63-1.35.952-2.26.952s-1.65-.308-2.22-.924c-.58-.616-.87-1.428-.87-2.45 0-1.008.31-1.834.91-2.464s1.34-.938 2.25-.938 1.65.308 2.23.924c.57.616.85 1.428.85 2.45zm-.85.028c0-1.582-.9-2.618-2.27-2.618-1.34 0-2.25 1.05-2.25 2.59 0 1.582.89 2.618 2.26 2.618 1.35 0 2.26-1.05 2.26-2.59zm6.14-.98c0 .952.65 1.638 1.65 1.638.49 0 .87-.154 1.17-.476.29-.308.43-.714.43-1.204s-.14-.896-.42-1.204c-.29-.308-.7-.462-1.22-.462-.99 0-1.61.7-1.61 1.708zm.76 4.354c-.77.21-1.3.714-1.3 1.26 0 .77.85 1.316 2.18 1.316 1.34 0 2.41-.644 2.41-1.512 0-.728-.62-1.022-1.95-1.022-.53 0-.98-.014-1.34-.042zm-.76-.168c-.57-.21-.87-.546-.87-1.022 0-.532.44-.994 1.05-1.218-.68-.42-1.03-1.078-1.03-1.96 0-1.386 1.02-2.408 2.52-2.408.56 0 1.06.126 1.51.378l1.78-.14.04.868-1.41-.14c.29.294.51.91.51 1.442 0 1.372-1.05 2.352-2.49 2.352-.29 0-.6-.056-.95-.182-.48.196-.71.448-.71.77 0 .434.36.658 1.45.658h.83c1.78 0 2.66.56 2.66 1.68 0 .686-.34 1.26-1 1.708-.65.448-1.45.672-2.38.672-1.72 0-2.89-.756-2.89-1.876 0-.728.56-1.372 1.38-1.582zm6.52-3.192v.07c.04 1.47.91 2.478 2.24 2.478.7 0 1.32-.182 1.86-.532l.17.798c-.59.364-1.27.546-2.06.546-1.83 0-3.09-1.358-3.09-3.332 0-1.008.29-1.834.87-2.478.57-.644 1.29-.966 2.15-.966 1.43 0 2.34.924 2.34 2.366 0 .378-.04.714-.14 1.022zm.06-.686 3.55-.014c.02-.042.02-.14.02-.28 0-1.008-.55-1.652-1.54-1.652-1.11 0-1.88.826-2.03 1.946zm9.25 3.738c-.48.224-.95.336-1.43.336-1.19 0-1.76-.672-1.72-2.016l.1-3.794-.98-.056.04-.546.96-.224.05-1.456h.82l-.04 1.498h2.14l-.04.77h-2.13l-.1 3.836c-.02.798.28 1.204.94 1.204.35 0 .76-.098 1.23-.308zm5.06-3.052v.07c.04 1.47.91 2.478 2.24 2.478.7 0 1.32-.182 1.86-.532l.17.798c-.59.364-1.27.546-2.06.546-1.83 0-3.09-1.358-3.09-3.332 0-1.008.29-1.834.87-2.478.57-.644 1.29-.966 2.15-.966 1.43 0 2.34.924 2.34 2.366 0 .378-.04.714-.14 1.022zm.06-.686 3.55-.014c.02-.042.02-.14.02-.28 0-1.008-.55-1.652-1.54-1.652-1.11 0-1.88.826-2.03 1.946zm14.93 3.864h-.87v-4.13c0-1.092-.44-1.638-1.35-1.638-.62 0-1.22.28-1.81.826.01.112.03.308.03.574v4.368h-.87v-4.13c0-1.092-.45-1.638-1.36-1.638-.63 0-1.22.252-1.78.742v5.026h-.86v-6.412l.86-.182v.882c.65-.588 1.32-.882 2.03-.882.86 0 1.43.35 1.74 1.064.71-.714 1.47-1.064 2.27-1.064 1.23 0 1.97.798 1.97 2.212zm5.33-1.414v-1.876c-2.16.238-2.98.714-2.98 1.596 0 .672.54 1.12 1.31 1.12.62 0 1.18-.28 1.67-.84zm.05.644h-.04c-.52.63-1.13.952-1.87.952-1.18 0-2.03-.742-2.03-1.778 0-1.372 1.3-2.128 3.89-2.282v-.378c0-1.022-.51-1.526-1.51-1.526-.68 0-1.52.336-2.1.77l-.2-.812c.62-.434 1.57-.77 2.38-.77 1.54 0 2.31.77 2.3 2.296v3.08c0 .504.11.658.64.644l-.06.714c-.82.056-1.3-.252-1.4-.91zm3.79-7.756c0 .182-.06.322-.15.448-.1.126-.26.196-.44.196s-.33-.07-.43-.196-.16-.266-.16-.448c0-.168.06-.308.16-.434s.25-.182.43-.182.34.056.44.182c.09.126.15.266.15.434zm-.15 8.526h-.87v-6.412l.87-.182zm2.91 0v-9.618l-.87.182v9.436zm-138.97 13.016c1-.434 1.5-1.022 1.5-1.792 0-.784-.63-1.386-1.5-1.386-.92 0-1.51.616-1.51 1.386s.51 1.358 1.51 1.792zm2.17 2.618c-.85-1.022-1.7-1.694-2.54-2.002-1.22.546-1.84 1.246-1.84 2.114 0 .924.7 1.666 1.81 1.666.89 0 1.75-.588 2.57-1.778zm.4.476c-.9 1.386-1.92 2.072-3.08 2.072-1.59 0-2.58-1.064-2.58-2.394 0-1.162.88-2.044 2.17-2.45-.99-.518-1.48-1.204-1.48-2.058 0-.574.23-1.092.7-1.54.46-.434 1.05-.658 1.77-.658 1.38 0 2.29.924 2.29 2.072 0 .938-.68 1.694-1.77 2.128.69.35 1.37.924 2.06 1.736l1.48-2.352h1.04l-2.1 2.828 1.99 2.45-.86.252zm15.73 1.89h-.87v-4.13c0-1.092-.45-1.638-1.36-1.638-.62 0-1.22.28-1.81.826.02.112.03.308.03.574v4.368h-.87v-4.13c0-1.092-.44-1.638-1.35-1.638-.63 0-1.22.252-1.78.742v5.026h-.87v-6.412l.87-.182v.882c.64-.588 1.31-.882 2.03-.882.85 0 1.43.35 1.73 1.064.72-.714 1.47-1.064 2.27-1.064 1.23 0 1.98.798 1.98 2.212zm7.8-3.22c0 1.008-.29 1.82-.9 2.45-.6.63-1.34.952-2.25.952s-1.65-.308-2.23-.924c-.57-.616-.86-1.428-.86-2.45 0-1.008.3-1.834.91-2.464.6-.63 1.34-.938 2.25-.938s1.65.308 2.23.924c.57.616.85 1.428.85 2.45zm-.85.028c0-1.582-.9-2.618-2.27-2.618-1.35 0-2.26 1.05-2.26 2.59 0 1.582.9 2.618 2.27 2.618 1.35 0 2.26-1.05 2.26-2.59zm8.06-.098c0 1.008-.29 1.834-.88 2.492-.6.658-1.36.98-2.28.98-.55 0-1.07-.112-1.57-.35l-.87.378v-9.646l.87-.182v3.878c.57-.546 1.22-.812 1.93-.812 1.7 0 2.8 1.33 2.8 3.262zm-.89.042c0-1.484-.82-2.506-2.08-2.506-.65 0-1.24.238-1.76.714v3.934c.43.336.97.504 1.61.504 1.37 0 2.23-1.064 2.23-2.646zm3.48-5.278c0 .182-.06.322-.15.448-.1.126-.26.196-.44.196s-.33-.07-.43-.196-.16-.266-.16-.448c0-.168.06-.308.16-.434s.25-.182.43-.182.34.056.44.182c.09.126.15.266.15.434zm-.15 8.526h-.87v-6.412l.87-.182zm2.91 0v-9.618l-.87.182v9.436zm2.48-3.178v.07c.04 1.47.91 2.478 2.24 2.478.7 0 1.31-.182 1.86-.532l.17.798c-.59.364-1.28.546-2.06.546-1.84 0-3.1-1.358-3.1-3.332 0-1.008.3-1.834.87-2.478.58-.644 1.29-.966 2.16-.966 1.43 0 2.34.924 2.34 2.366 0 .378-.05.714-.14 1.022zm.05-.686 3.56-.014c.01-.042.01-.14.01-.28 0-1.008-.54-1.652-1.54-1.652-1.1 0-1.87.826-2.03 1.946zm14.34 3.864h-.87v-4.144c0-1.12-.43-1.624-1.41-1.624-.69 0-1.34.308-1.95.91v4.858h-.86v-6.412l.86-.182v1.05c.7-.7 1.43-1.05 2.19-1.05 1.29 0 2.04.784 2.04 2.198zm1.92-6.412h.87v4.144c0 1.078.46 1.624 1.38 1.624.73 0 1.39-.308 1.98-.91v-4.858h.86v6.412l-.86.182v-1.036c-.68.686-1.42 1.036-2.22 1.036-1.26 0-2.01-.812-2.01-2.198zm15.98 6.412h-.86v-4.13c0-1.092-.45-1.638-1.36-1.638-.62 0-1.22.28-1.81.826.02.112.03.308.03.574v4.368h-.87v-4.13c0-1.092-.45-1.638-1.36-1.638-.63 0-1.21.252-1.77.742v5.026h-.87v-6.412l.87-.182v.882c.64-.588 1.31-.882 2.03-.882.85 0 1.42.35 1.73 1.064.72-.714 1.47-1.064 2.27-1.064 1.23 0 1.97.798 1.97 2.212zm7.58-3.29c0 1.008-.29 1.834-.88 2.492-.6.658-1.36.98-2.28.98-.55 0-1.06-.112-1.57-.35l-.87.378v-9.646l.87-.182v3.878c.58-.546 1.22-.812 1.93-.812 1.7 0 2.8 1.33 2.8 3.262zm-.89.042c0-1.484-.81-2.506-2.07-2.506-.66 0-1.25.238-1.77.714v3.934c.44.336.97.504 1.61.504 1.37 0 2.23-1.064 2.23-2.646zm2.91.07v.07c.04 1.47.91 2.478 2.24 2.478.7 0 1.31-.182 1.86-.532l.17.798c-.59.364-1.28.546-2.06.546-1.84 0-3.1-1.358-3.1-3.332 0-1.008.3-1.834.87-2.478.58-.644 1.29-.966 2.16-.966 1.43 0 2.34.924 2.34 2.366 0 .378-.05.714-.14 1.022zm.05-.686 3.56-.014c.01-.042.01-.14.01-.28 0-1.008-.54-1.652-1.54-1.652-1.1 0-1.87.826-2.03 1.946zm6.93-.252v4.116h-.87v-6.412l.87-.182v1.372c.46-.91 1.09-1.372 1.89-1.372.4 0 .77.098 1.12.294l-.23.812c-.3-.182-.63-.28-.98-.28-.71 0-1.31.546-1.8 1.652z" fill="#b9d053"/><g stroke="#b9d053" stroke-dasharray="5 5"><path d="m93.5 279v177"/><path d="m93 375.5h697"/><path d="m587 420.5h585"/><path d="m976.957 459v-38"/><path d="m1171.96 459v-38"/><path d="m781.957 459v-38"/><path d="m879.5 421v-22"/><path d="m586.957 459v-38"/></g><circle cx="94" cy="458" fill="#b9d053" r="5"/><circle cx="977" cy="458" fill="#b9d053" r="5"/><circle cx="1172" cy="458" fill="#b9d053" r="5"/><circle cx="782" cy="458" fill="#b9d053" r="5"/><circle cx="587" cy="458" fill="#b9d053" r="5"/><rect fill="#b9d053" height="35" rx="10" width="76" x="1048" y="82"/><rect fill="#60681f" height="35" rx="10" width="76" x="1048" y="217"/><rect fill="#ccc" height="35" rx="10" width="76" x="1048" y="127"/><rect height="33" rx="9" stroke="#b9d053" stroke-width="2" width="74" x="1049" y="173"/><path d="m1146.61 105v-11.25h-1.13v11.25zm9.33 0h-1.11v-5.328c0-1.44-.56-2.088-1.82-2.088-.88 0-1.73.396-2.5 1.17v6.246h-1.12v-8.244l1.12-.234v1.35c.9-.9 1.83-1.35 2.81-1.35 1.65 0 2.62 1.008 2.62 2.826zm8.08-7.974v-4.158l1.12-.234v12.366h-1.12v-.774c-.72.666-1.51 1.008-2.39 1.008-2.21 0-3.69-1.746-3.69-4.284 0-1.278.38-2.322 1.15-3.15.78-.81 1.75-1.224 2.94-1.224.68 0 1.35.144 1.99.45zm0 1.188c-.54-.414-1.22-.63-2.05-.63-1.76 0-2.88 1.368-2.88 3.348 0 1.926 1.08 3.276 2.74 3.276.81 0 1.55-.306 2.19-.918v-4.914zm5.04-4.176c0 .234-.07.414-.2.576s-.32.252-.56.252c-.23 0-.43-.09-.56-.252-.12-.162-.19-.342-.19-.576 0-.216.07-.396.19-.558.13-.162.33-.234.56-.234.24 0 .43.072.56.234s.2.342.2.558zm-.2 10.962h-1.12v-8.244l1.12-.234zm8.68-.468c-.76.468-1.61.702-2.56.702-2.47 0-4.03-1.728-4.03-4.338 0-1.278.38-2.34 1.15-3.15.76-.81 1.73-1.224 2.9-1.224.99 0 1.83.234 2.57.702l-.29 1.008c-.66-.45-1.44-.666-2.28-.666-1.78 0-2.9 1.314-2.9 3.294 0 2.034 1.15 3.33 2.92 3.33.82 0 1.58-.234 2.28-.684zm6.37-1.35v-2.412c-2.77.306-3.83.918-3.83 2.052 0 .864.7 1.44 1.69 1.44.79 0 1.51-.36 2.14-1.08zm.07.828h-.05c-.67.81-1.46 1.224-2.41 1.224-1.52 0-2.61-.954-2.61-2.286 0-1.764 1.67-2.736 5-2.934v-.486c0-1.314-.65-1.962-1.94-1.962-.87 0-1.95.432-2.7.99l-.26-1.044c.8-.558 2.02-.99 3.06-.99 1.98 0 2.97.99 2.96 2.952v3.96c0 .648.14.846.82.828l-.07.918c-1.06.072-1.67-.324-1.8-1.17zm7.64.828c-.61.288-1.22.432-1.83.432-1.53 0-2.27-.864-2.22-2.592l.13-4.878-1.26-.072.05-.702 1.24-.288.06-1.872h1.06l-.05 1.926h2.75l-.05.99h-2.74l-.13 4.932c-.03 1.026.36 1.548 1.21 1.548.45 0 .97-.126 1.58-.396zm2.33-3.924v.09c.05 1.89 1.17 3.186 2.88 3.186.9 0 1.69-.234 2.39-.684l.22 1.026c-.76.468-1.64.702-2.65.702-2.36 0-3.98-1.746-3.98-4.284 0-1.296.38-2.358 1.12-3.186s1.66-1.242 2.77-1.242c1.84 0 3.01 1.188 3.01 3.042 0 .486-.06.918-.18 1.314zm.07-.882 4.57-.018c.02-.054.02-.18.02-.36 0-1.296-.7-2.124-1.98-2.124-1.42 0-2.41 1.062-2.61 2.502zm12.74 2.718c0 1.494-1.26 2.484-2.95 2.484-1.03 0-1.93-.252-2.7-.738l.3-1.026c.76.504 1.57.756 2.43.756 1.05 0 1.86-.522 1.86-1.386 0-.198-.04-.36-.13-.522s-.2-.288-.29-.378-.27-.18-.5-.288-.41-.18-.52-.216-.33-.108-.63-.198c-1.44-.432-2.4-1.044-2.4-2.34 0-1.476 1.17-2.376 2.79-2.376.89 0 1.71.198 2.51.612l-.33 1.008c-.74-.414-1.49-.612-2.25-.612-1.01 0-1.65.468-1.65 1.26 0 .18.03.342.12.486.09.162.18.27.27.36s.25.198.49.288c.21.09.39.162.52.216s.34.108.63.198c1.49.432 2.43 1.044 2.43 2.412zm12.66 2.25h-1.12v-5.328c0-1.386-.59-2.088-1.76-2.088-.92 0-1.78.396-2.56 1.17v6.246h-1.11v-12.132l1.11-.234v5.202c.88-.882 1.84-1.314 2.86-1.314 1.62 0 2.58 1.008 2.58 2.826zm10.02-4.14c0 1.296-.38 2.34-1.15 3.15s-1.73 1.224-2.9 1.224-2.12-.396-2.86-1.188-1.12-1.836-1.12-3.15c0-1.296.4-2.358 1.17-3.168.78-.81 1.73-1.206 2.9-1.206s2.13.396 2.86 1.188c.74.792 1.1 1.836 1.1 3.15zm-1.1.036c0-2.034-1.15-3.366-2.91-3.366-1.73 0-2.9 1.35-2.9 3.33 0 2.034 1.15 3.366 2.92 3.366 1.72 0 2.89-1.35 2.89-3.33zm14.59 4.104h-1.12v-5.31c0-1.404-.57-2.106-1.74-2.106-.8 0-1.57.36-2.33 1.062.02.144.04.396.04.738v5.616h-1.12v-5.31c0-1.404-.57-2.106-1.74-2.106-.81 0-1.57.324-2.29.954v6.462h-1.11v-8.244l1.11-.234v1.134c.83-.756 1.69-1.134 2.61-1.134 1.1 0 1.84.45 2.23 1.368.92-.918 1.89-1.368 2.92-1.368 1.58 0 2.54 1.026 2.54 2.844zm3.14-4.086v.09c.05 1.89 1.17 3.186 2.88 3.186.9 0 1.69-.234 2.39-.684l.22 1.026c-.76.468-1.64.702-2.65.702-2.36 0-3.98-1.746-3.98-4.284 0-1.296.38-2.358 1.12-3.186s1.66-1.242 2.77-1.242c1.84 0 3.01 1.188 3.01 3.042 0 .486-.06.918-.18 1.314zm.07-.882 4.57-.018c.02-.054.02-.18.02-.36 0-1.296-.7-2.124-1.98-2.124-1.42 0-2.41 1.062-2.61 2.502zm8.9-2.448c.72-.666 1.52-1.008 2.4-1.008 2.21 0 3.69 1.728 3.69 4.266 0 1.278-.38 2.34-1.14 3.15-.77.828-1.74 1.242-2.93 1.242-.74 0-1.4-.144-2.02-.432v4.392h-1.11v-12.474l1.11-.234zm0 .936v5.058c.56.432 1.25.648 2.07.648 1.73 0 2.87-1.386 2.87-3.366 0-1.926-1.07-3.258-2.72-3.258-.81 0-1.55.306-2.22.918zm12.45 4.662v-2.412c-2.77.306-3.83.918-3.83 2.052 0 .864.7 1.44 1.69 1.44.79 0 1.51-.36 2.14-1.08zm.08.828h-.06c-.66.81-1.46 1.224-2.41 1.224-1.51 0-2.61-.954-2.61-2.286 0-1.764 1.67-2.736 5-2.934v-.486c0-1.314-.64-1.962-1.94-1.962-.86 0-1.94.432-2.7.99l-.25-1.044c.79-.558 2.01-.99 3.06-.99 1.98 0 2.97.99 2.95 2.952v3.96c0 .648.14.846.83.828l-.07.918c-1.07.072-1.68-.324-1.8-1.17zm4.16-4.374c0 1.224.83 2.106 2.13 2.106.63 0 1.11-.198 1.49-.612.38-.396.56-.918.56-1.548s-.18-1.152-.54-1.548c-.38-.396-.9-.594-1.57-.594-1.28 0-2.07.9-2.07 2.196zm.97 5.598c-.99.27-1.67.918-1.67 1.62 0 .99 1.1 1.692 2.81 1.692 1.73 0 3.09-.828 3.09-1.944 0-.936-.79-1.314-2.5-1.314-.68 0-1.26-.018-1.73-.054zm-.97-.216c-.74-.27-1.11-.702-1.11-1.314 0-.684.55-1.278 1.35-1.566-.89-.54-1.34-1.386-1.34-2.52 0-1.782 1.32-3.096 3.24-3.096.72 0 1.37.162 1.95.486l2.28-.18.06 1.116-1.82-.18c.38.378.67 1.17.67 1.854 0 1.764-1.35 3.024-3.21 3.024-.38 0-.77-.072-1.22-.234-.61.252-.92.576-.92.99 0 .558.47.846 1.87.846h1.06c2.29 0 3.42.72 3.42 2.16 0 .882-.43 1.62-1.27 2.196-.85.576-1.88.864-3.06.864-2.22 0-3.73-.972-3.73-2.412 0-.936.72-1.764 1.78-2.034zm8.39-4.104v.09c.05 1.89 1.17 3.186 2.88 3.186.9 0 1.69-.234 2.39-.684l.22 1.026c-.76.468-1.64.702-2.65.702-2.36 0-3.98-1.746-3.98-4.284 0-1.296.38-2.358 1.12-3.186s1.65-1.242 2.77-1.242c1.84 0 3.01 1.188 3.01 3.042 0 .486-.06.918-.18 1.314zm.07-.882 4.57-.018c.02-.054.02-.18.02-.36 0-1.296-.7-2.124-1.98-2.124-1.42 0-2.41 1.062-2.61 2.502z" fill="#fbfbfb"/><path d="m1146.61 196v-11.25h-1.13v11.25zm9.33 0h-1.11v-5.328c0-1.44-.56-2.088-1.82-2.088-.88 0-1.73.396-2.5 1.17v6.246h-1.12v-8.244l1.12-.234v1.35c.9-.9 1.83-1.35 2.81-1.35 1.65 0 2.62 1.008 2.62 2.826zm8.08-7.974v-4.158l1.12-.234v12.366h-1.12v-.774c-.72.666-1.51 1.008-2.39 1.008-2.21 0-3.69-1.746-3.69-4.284 0-1.278.38-2.322 1.15-3.15.78-.81 1.75-1.224 2.94-1.224.68 0 1.35.144 1.99.45zm0 1.188c-.54-.414-1.22-.63-2.05-.63-1.76 0-2.88 1.368-2.88 3.348 0 1.926 1.08 3.276 2.74 3.276.81 0 1.55-.306 2.19-.918v-4.914zm5.04-4.176c0 .234-.07.414-.2.576s-.32.252-.56.252c-.23 0-.43-.09-.56-.252-.12-.162-.19-.342-.19-.576 0-.216.07-.396.19-.558.13-.162.33-.234.56-.234.24 0 .43.072.56.234s.2.342.2.558zm-.2 10.962h-1.12v-8.244l1.12-.234zm8.68-.468c-.76.468-1.61.702-2.56.702-2.47 0-4.03-1.728-4.03-4.338 0-1.278.38-2.34 1.15-3.15.76-.81 1.73-1.224 2.9-1.224.99 0 1.83.234 2.57.702l-.29 1.008c-.66-.45-1.44-.666-2.28-.666-1.78 0-2.9 1.314-2.9 3.294 0 2.034 1.15 3.33 2.92 3.33.82 0 1.58-.234 2.28-.684zm6.37-1.35v-2.412c-2.77.306-3.83.918-3.83 2.052 0 .864.7 1.44 1.69 1.44.79 0 1.51-.36 2.14-1.08zm.07.828h-.05c-.67.81-1.46 1.224-2.41 1.224-1.52 0-2.61-.954-2.61-2.286 0-1.764 1.67-2.736 5-2.934v-.486c0-1.314-.65-1.962-1.94-1.962-.87 0-1.95.432-2.7.99l-.26-1.044c.8-.558 2.02-.99 3.06-.99 1.98 0 2.97.99 2.96 2.952v3.96c0 .648.14.846.82.828l-.07.918c-1.06.072-1.67-.324-1.8-1.17zm7.64.828c-.61.288-1.22.432-1.83.432-1.53 0-2.27-.864-2.22-2.592l.13-4.878-1.26-.072.05-.702 1.24-.288.06-1.872h1.06l-.05 1.926h2.75l-.05.99h-2.74l-.13 4.932c-.03 1.026.36 1.548 1.21 1.548.45 0 .97-.126 1.58-.396zm2.33-3.924v.09c.05 1.89 1.17 3.186 2.88 3.186.9 0 1.69-.234 2.39-.684l.22 1.026c-.76.468-1.64.702-2.65.702-2.36 0-3.98-1.746-3.98-4.284 0-1.296.38-2.358 1.12-3.186s1.66-1.242 2.77-1.242c1.84 0 3.01 1.188 3.01 3.042 0 .486-.06.918-.18 1.314zm.07-.882 4.57-.018c.02-.054.02-.18.02-.36 0-1.296-.7-2.124-1.98-2.124-1.42 0-2.41 1.062-2.61 2.502zm12.74 2.718c0 1.494-1.26 2.484-2.95 2.484-1.03 0-1.93-.252-2.7-.738l.3-1.026c.76.504 1.57.756 2.43.756 1.05 0 1.86-.522 1.86-1.386 0-.198-.04-.36-.13-.522s-.2-.288-.29-.378-.27-.18-.5-.288-.41-.18-.52-.216-.33-.108-.63-.198c-1.44-.432-2.4-1.044-2.4-2.34 0-1.476 1.17-2.376 2.79-2.376.89 0 1.71.198 2.51.612l-.33 1.008c-.74-.414-1.49-.612-2.25-.612-1.01 0-1.65.468-1.65 1.26 0 .18.03.342.12.486.09.162.18.27.27.36s.25.198.49.288c.21.09.39.162.52.216s.34.108.63.198c1.49.432 2.43 1.044 2.43 2.412zm11.06 0c0 1.494-1.26 2.484-2.96 2.484-1.02 0-1.92-.252-2.7-.738l.31-1.026c.76.504 1.57.756 2.43.756 1.04 0 1.85-.522 1.85-1.386 0-.198-.03-.36-.12-.522s-.2-.288-.29-.378-.27-.18-.5-.288c-.24-.108-.42-.18-.53-.216-.1-.036-.32-.108-.63-.198-1.44-.432-2.39-1.044-2.39-2.34 0-1.476 1.17-2.376 2.79-2.376.88 0 1.71.198 2.5.612l-.32 1.008c-.74-.414-1.5-.612-2.25-.612-1.01 0-1.66.468-1.66 1.26 0 .18.04.342.13.486.09.162.18.27.27.36s.25.198.48.288c.22.09.4.162.53.216.12.054.34.108.63.198 1.49.432 2.43 1.044 2.43 2.412zm2.6-1.836v.09c.06 1.89 1.17 3.186 2.88 3.186.9 0 1.69-.234 2.4-.684l.21 1.026c-.75.468-1.64.702-2.64.702-2.36 0-3.98-1.746-3.98-4.284 0-1.296.38-2.358 1.11-3.186.74-.828 1.66-1.242 2.78-1.242 1.83 0 3 1.188 3 3.042 0 .486-.05.918-.18 1.314zm.07-.882 4.58-.018c.01-.054.01-.18.01-.36 0-1.296-.7-2.124-1.98-2.124-1.42 0-2.41 1.062-2.61 2.502zm13.84 4.5c-.76.468-1.6.702-2.56.702-2.46 0-4.03-1.728-4.03-4.338 0-1.278.38-2.34 1.15-3.15.76-.81 1.73-1.224 2.9-1.224.99 0 1.84.234 2.58.702l-.29 1.008c-.67-.45-1.44-.666-2.29-.666-1.78 0-2.9 1.314-2.9 3.294 0 2.034 1.16 3.33 2.92 3.33.83 0 1.58-.234 2.29-.684zm9.47-3.672c0 1.296-.37 2.34-1.15 3.15-.77.81-1.73 1.224-2.9 1.224s-2.12-.396-2.86-1.188-1.11-1.836-1.11-3.15c0-1.296.39-2.358 1.17-3.168.77-.81 1.72-1.206 2.89-1.206s2.13.396 2.87 1.188c.73.792 1.09 1.836 1.09 3.15zm-1.09.036c0-2.034-1.16-3.366-2.92-3.366-1.73 0-2.9 1.35-2.9 3.33 0 2.034 1.15 3.366 2.92 3.366 1.73 0 2.9-1.35 2.9-3.33zm9.72 4.104h-1.12v-5.328c0-1.44-.55-2.088-1.81-2.088-.89 0-1.73.396-2.51 1.17v6.246h-1.11v-8.244l1.11-.234v1.35c.9-.9 1.84-1.35 2.81-1.35 1.66 0 2.63 1.008 2.63 2.826zm8.08-7.974v-4.158l1.12-.234v12.366h-1.12v-.774c-.72.666-1.51 1.008-2.39 1.008-2.22 0-3.69-1.746-3.69-4.284 0-1.278.37-2.322 1.15-3.15.77-.81 1.74-1.224 2.93-1.224.69 0 1.35.144 2 .45zm0 1.188c-.54-.414-1.22-.63-2.05-.63-1.77 0-2.88 1.368-2.88 3.348 0 1.926 1.08 3.276 2.73 3.276.81 0 1.55-.306 2.2-.918v-4.914zm8 4.968v-2.412c-2.77.306-3.83.918-3.83 2.052 0 .864.7 1.44 1.69 1.44.79 0 1.51-.36 2.14-1.08zm.08.828h-.06c-.66.81-1.46 1.224-2.41 1.224-1.51 0-2.61-.954-2.61-2.286 0-1.764 1.67-2.736 5-2.934v-.486c0-1.314-.64-1.962-1.94-1.962-.86 0-1.94.432-2.7.99l-.25-1.044c.79-.558 2.01-.99 3.06-.99 1.98 0 2.97.99 2.95 2.952v3.96c0 .648.14.846.83.828l-.07.918c-1.07.072-1.68-.324-1.8-1.17zm4.65-4.302v5.292h-1.12v-8.244l1.12-.234v1.764c.59-1.17 1.4-1.764 2.43-1.764.52 0 .99.126 1.44.378l-.29 1.044c-.4-.234-.81-.36-1.26-.36-.92 0-1.69.702-2.32 2.124zm11.83-2.952-3.21 8.154-.66 1.782c-.72 1.962-1.48 2.592-2.67 2.592-.48 0-1.01-.126-1.6-.378l.34-1.026c.45.234.87.36 1.26.36.69 0 1.14-.414 1.69-1.908l.56-1.458-3.22-8.118h1.21l2.59 6.804 2.54-6.804zm12.01 8.244h-1.12v-5.328c0-1.44-.56-2.088-1.82-2.088-.88 0-1.72.396-2.5 1.17v6.246h-1.11v-8.244l1.11-.234v1.35c.9-.9 1.84-1.35 2.81-1.35 1.66 0 2.63 1.008 2.63 2.826zm6.84-1.818v-2.412c-2.78.306-3.84.918-3.84 2.052 0 .864.7 1.44 1.69 1.44.8 0 1.52-.36 2.15-1.08zm.07.828h-.06c-.66.81-1.45 1.224-2.41 1.224-1.51 0-2.61-.954-2.61-2.286 0-1.764 1.68-2.736 5.01-2.934v-.486c0-1.314-.65-1.962-1.95-1.962-.86 0-1.94.432-2.7.99l-.25-1.044c.79-.558 2.02-.99 3.06-.99 1.98 0 2.97.99 2.95 2.952v3.96c0 .648.15.846.83.828l-.07.918c-1.06.072-1.68-.324-1.8-1.17zm9.8-7.254h-1.17l-2.52 6.804-2.61-6.804h-1.21l3.26 8.262h1.01zm2.7-2.718c0 .234-.08.414-.2.576-.13.162-.33.252-.56.252s-.43-.09-.56-.252c-.12-.162-.2-.342-.2-.576 0-.216.08-.396.2-.558.13-.162.33-.234.56-.234s.43.072.56.234c.12.162.2.342.2.558zm-.2 10.962h-1.12v-8.244l1.12-.234zm3.26-5.364c0 1.224.82 2.106 2.12 2.106.63 0 1.12-.198 1.49-.612.38-.396.56-.918.56-1.548s-.18-1.152-.54-1.548c-.38-.396-.9-.594-1.56-.594-1.28 0-2.07.9-2.07 2.196zm.97 5.598c-.99.27-1.68.918-1.68 1.62 0 .99 1.1 1.692 2.81 1.692 1.73 0 3.1-.828 3.1-1.944 0-.936-.79-1.314-2.5-1.314-.69 0-1.26-.018-1.73-.054zm-.97-.216c-.74-.27-1.12-.702-1.12-1.314 0-.684.56-1.278 1.35-1.566-.88-.54-1.33-1.386-1.33-2.52 0-1.782 1.31-3.096 3.24-3.096.72 0 1.37.162 1.94.486l2.29-.18.05 1.116-1.82-.18c.38.378.67 1.17.67 1.854 0 1.764-1.35 3.024-3.2 3.024-.38 0-.78-.072-1.23-.234-.61.252-.92.576-.92.99 0 .558.47.846 1.88.846h1.06c2.28 0 3.42.72 3.42 2.16 0 .882-.43 1.62-1.28 2.196s-1.87.864-3.06.864c-2.21 0-3.73-.972-3.73-2.412 0-.936.72-1.764 1.79-2.034zm12.09-1.836v-2.412c-2.77.306-3.84.918-3.84 2.052 0 .864.71 1.44 1.7 1.44.79 0 1.51-.36 2.14-1.08zm.07.828h-.05c-.67.81-1.46 1.224-2.42 1.224-1.51 0-2.61-.954-2.61-2.286 0-1.764 1.68-2.736 5.01-2.934v-.486c0-1.314-.65-1.962-1.95-1.962-.86 0-1.94.432-2.7.99l-.25-1.044c.79-.558 2.02-.99 3.06-.99 1.98 0 2.97.99 2.95 2.952v3.96c0 .648.15.846.83.828l-.07.918c-1.06.072-1.67-.324-1.8-1.17zm7.64.828c-.61.288-1.22.432-1.84.432-1.53 0-2.26-.864-2.21-2.592l.13-4.878-1.26-.072.05-.702 1.24-.288.06-1.872h1.06l-.06 1.926h2.76l-.06.99h-2.73l-.13 4.932c-.03 1.026.36 1.548 1.21 1.548.45 0 .97-.126 1.58-.396zm3.15-10.8c0 .234-.07.414-.2.576-.12.162-.32.252-.55.252-.24 0-.44-.09-.56-.252-.13-.162-.2-.342-.2-.576 0-.216.07-.396.2-.558.12-.162.32-.234.56-.234.23 0 .43.072.55.234.13.162.2.342.2.558zm-.2 10.962h-1.11v-8.244l1.11-.234zm10.12-4.14c0 1.296-.38 2.34-1.15 3.15-.78.81-1.73 1.224-2.9 1.224s-2.13-.396-2.86-1.188c-.74-.792-1.12-1.836-1.12-3.15 0-1.296.4-2.358 1.17-3.168s1.73-1.206 2.9-1.206 2.12.396 2.86 1.188 1.1 1.836 1.1 3.15zm-1.1.036c0-2.034-1.15-3.366-2.92-3.366-1.72 0-2.89 1.35-2.89 3.33 0 2.034 1.15 3.366 2.91 3.366 1.73 0 2.9-1.35 2.9-3.33zm9.73 4.104h-1.12v-5.328c0-1.44-.56-2.088-1.82-2.088-.88 0-1.73.396-2.5 1.17v6.246h-1.12v-8.244l1.12-.234v1.35c.9-.9 1.84-1.35 2.81-1.35 1.65 0 2.63 1.008 2.63 2.826z" fill="#fbfbfb"/><path d="m1146.61 150v-11.25h-1.13v11.25zm9.33 0h-1.11v-5.328c0-1.44-.56-2.088-1.82-2.088-.88 0-1.73.396-2.5 1.17v6.246h-1.12v-8.244l1.12-.234v1.35c.9-.9 1.83-1.35 2.81-1.35 1.65 0 2.62 1.008 2.62 2.826zm8.08-7.974v-4.158l1.12-.234v12.366h-1.12v-.774c-.72.666-1.51 1.008-2.39 1.008-2.21 0-3.69-1.746-3.69-4.284 0-1.278.38-2.322 1.15-3.15.78-.81 1.75-1.224 2.94-1.224.68 0 1.35.144 1.99.45zm0 1.188c-.54-.414-1.22-.63-2.05-.63-1.76 0-2.88 1.368-2.88 3.348 0 1.926 1.08 3.276 2.74 3.276.81 0 1.55-.306 2.19-.918v-4.914zm5.04-4.176c0 .234-.07.414-.2.576s-.32.252-.56.252c-.23 0-.43-.09-.56-.252-.12-.162-.19-.342-.19-.576 0-.216.07-.396.19-.558.13-.162.33-.234.56-.234.24 0 .43.072.56.234s.2.342.2.558zm-.2 10.962h-1.12v-8.244l1.12-.234zm8.68-.468c-.76.468-1.61.702-2.56.702-2.47 0-4.03-1.728-4.03-4.338 0-1.278.38-2.34 1.15-3.15.76-.81 1.73-1.224 2.9-1.224.99 0 1.83.234 2.57.702l-.29 1.008c-.66-.45-1.44-.666-2.28-.666-1.78 0-2.9 1.314-2.9 3.294 0 2.034 1.15 3.33 2.92 3.33.82 0 1.58-.234 2.28-.684zm6.37-1.35v-2.412c-2.77.306-3.83.918-3.83 2.052 0 .864.7 1.44 1.69 1.44.79 0 1.51-.36 2.14-1.08zm.07.828h-.05c-.67.81-1.46 1.224-2.41 1.224-1.52 0-2.61-.954-2.61-2.286 0-1.764 1.67-2.736 5-2.934v-.486c0-1.314-.65-1.962-1.94-1.962-.87 0-1.95.432-2.7.99l-.26-1.044c.8-.558 2.02-.99 3.06-.99 1.98 0 2.97.99 2.96 2.952v3.96c0 .648.14.846.82.828l-.07.918c-1.06.072-1.67-.324-1.8-1.17zm7.64.828c-.61.288-1.22.432-1.83.432-1.53 0-2.27-.864-2.22-2.592l.13-4.878-1.26-.072.05-.702 1.24-.288.06-1.872h1.06l-.05 1.926h2.75l-.05.99h-2.74l-.13 4.932c-.03 1.026.36 1.548 1.21 1.548.45 0 .97-.126 1.58-.396zm2.33-3.924v.09c.05 1.89 1.17 3.186 2.88 3.186.9 0 1.69-.234 2.39-.684l.22 1.026c-.76.468-1.64.702-2.65.702-2.36 0-3.98-1.746-3.98-4.284 0-1.296.38-2.358 1.12-3.186s1.66-1.242 2.77-1.242c1.84 0 3.01 1.188 3.01 3.042 0 .486-.06.918-.18 1.314zm.07-.882 4.57-.018c.02-.054.02-.18.02-.36 0-1.296-.7-2.124-1.98-2.124-1.42 0-2.41 1.062-2.61 2.502zm12.74 2.718c0 1.494-1.26 2.484-2.95 2.484-1.03 0-1.93-.252-2.7-.738l.3-1.026c.76.504 1.57.756 2.43.756 1.05 0 1.86-.522 1.86-1.386 0-.198-.04-.36-.13-.522s-.2-.288-.29-.378-.27-.18-.5-.288-.41-.18-.52-.216-.33-.108-.63-.198c-1.44-.432-2.4-1.044-2.4-2.34 0-1.476 1.17-2.376 2.79-2.376.89 0 1.71.198 2.51.612l-.33 1.008c-.74-.414-1.49-.612-2.25-.612-1.01 0-1.65.468-1.65 1.26 0 .18.03.342.12.486.09.162.18.27.27.36s.25.198.49.288c.21.09.39.162.52.216s.34.108.63.198c1.49.432 2.43 1.044 2.43 2.412zm7.22-5.166c.72-.666 1.51-1.008 2.4-1.008 2.21 0 3.69 1.728 3.69 4.266 0 1.278-.38 2.34-1.14 3.15-.77.828-1.74 1.242-2.93 1.242-.74 0-1.41-.144-2.02-.432v4.392h-1.11v-12.474l1.11-.234zm0 .936v5.058c.56.432 1.24.648 2.07.648 1.73 0 2.86-1.386 2.86-3.366 0-1.926-1.06-3.258-2.71-3.258-.81 0-1.55.306-2.22.918zm9.27 1.188v5.292h-1.12v-8.244l1.12-.234v1.764c.59-1.17 1.4-1.764 2.43-1.764.52 0 .99.126 1.44.378l-.29 1.044c-.4-.234-.81-.36-1.26-.36-.92 0-1.69.702-2.32 2.124zm6.63-5.67c0 .234-.07.414-.2.576s-.32.252-.56.252c-.23 0-.43-.09-.56-.252-.12-.162-.19-.342-.19-.576 0-.216.07-.396.19-.558.13-.162.33-.234.56-.234.24 0 .43.072.56.234s.2.342.2.558zm-.2 10.962h-1.12v-8.244l1.12-.234zm14.04 0h-1.12v-5.31c0-1.404-.57-2.106-1.74-2.106-.79 0-1.57.36-2.32 1.062.01.144.03.396.03.738v5.616h-1.11v-5.31c0-1.404-.58-2.106-1.75-2.106-.81 0-1.57.324-2.29.954v6.462h-1.11v-8.244l1.11-.234v1.134c.83-.756 1.7-1.134 2.61-1.134 1.1 0 1.84.45 2.24 1.368.91-.918 1.89-1.368 2.91-1.368 1.59 0 2.54 1.026 2.54 2.844zm6.85-1.818v-2.412c-2.78.306-3.84.918-3.84 2.052 0 .864.7 1.44 1.69 1.44.8 0 1.52-.36 2.15-1.08zm.07.828h-.06c-.66.81-1.45 1.224-2.41 1.224-1.51 0-2.61-.954-2.61-2.286 0-1.764 1.68-2.736 5.01-2.934v-.486c0-1.314-.65-1.962-1.95-1.962-.86 0-1.94.432-2.7.99l-.25-1.044c.79-.558 2.02-.99 3.06-.99 1.98 0 2.97.99 2.95 2.952v3.96c0 .648.15.846.83.828l-.07.918c-1.06.072-1.68-.324-1.8-1.17zm4.65-4.302v5.292h-1.12v-8.244l1.12-.234v1.764c.59-1.17 1.4-1.764 2.43-1.764.52 0 .99.126 1.44.378l-.29 1.044c-.39-.234-.81-.36-1.26-.36-.92 0-1.69.702-2.32 2.124zm11.83-2.952-3.21 8.154-.66 1.782c-.72 1.962-1.48 2.592-2.67 2.592-.48 0-1-.126-1.6-.378l.34-1.026c.45.234.87.36 1.26.36.69 0 1.14-.414 1.7-1.908l.55-1.458-3.22-8.118h1.21l2.59 6.804 2.54-6.804zm12.01 8.244h-1.11v-5.328c0-1.44-.56-2.088-1.82-2.088-.88 0-1.73.396-2.5 1.17v6.246h-1.12v-8.244l1.12-.234v1.35c.9-.9 1.83-1.35 2.8-1.35 1.66 0 2.63 1.008 2.63 2.826zm6.84-1.818v-2.412c-2.77.306-3.83.918-3.83 2.052 0 .864.7 1.44 1.69 1.44.79 0 1.51-.36 2.14-1.08zm.07.828h-.05c-.67.81-1.46 1.224-2.41 1.224-1.52 0-2.61-.954-2.61-2.286 0-1.764 1.67-2.736 5-2.934v-.486c0-1.314-.65-1.962-1.94-1.962-.87 0-1.95.432-2.7.99l-.26-1.044c.8-.558 2.02-.99 3.06-.99 1.98 0 2.97.99 2.96 2.952v3.96c0 .648.14.846.82.828l-.07.918c-1.06.072-1.67-.324-1.8-1.17zm9.8-7.254h-1.17l-2.52 6.804-2.61-6.804h-1.2l3.25 8.262h1.01zm2.7-2.718c0 .234-.07.414-.2.576s-.32.252-.56.252c-.23 0-.43-.09-.56-.252-.12-.162-.19-.342-.19-.576 0-.216.07-.396.19-.558.13-.162.33-.234.56-.234.24 0 .43.072.56.234s.2.342.2.558zm-.2 10.962h-1.12v-8.244l1.12-.234zm3.26-5.364c0 1.224.83 2.106 2.12 2.106.63 0 1.12-.198 1.5-.612.37-.396.55-.918.55-1.548s-.18-1.152-.54-1.548c-.37-.396-.9-.594-1.56-.594-1.28 0-2.07.9-2.07 2.196zm.97 5.598c-.99.27-1.67.918-1.67 1.62 0 .99 1.09 1.692 2.8 1.692 1.73 0 3.1-.828 3.1-1.944 0-.936-.79-1.314-2.5-1.314-.69 0-1.26-.018-1.73-.054zm-.97-.216c-.74-.27-1.12-.702-1.12-1.314 0-.684.56-1.278 1.35-1.566-.88-.54-1.33-1.386-1.33-2.52 0-1.782 1.31-3.096 3.24-3.096.72 0 1.37.162 1.94.486l2.29-.18.05 1.116-1.81-.18c.37.378.66 1.17.66 1.854 0 1.764-1.35 3.024-3.2 3.024-.38 0-.78-.072-1.23-.234-.61.252-.91.576-.91.99 0 .558.46.846 1.87.846h1.06c2.29 0 3.42.72 3.42 2.16 0 .882-.43 1.62-1.28 2.196-.84.576-1.87.864-3.06.864-2.21 0-3.72-.972-3.72-2.412 0-.936.72-1.764 1.78-2.034zm12.09-1.836v-2.412c-2.77.306-3.83.918-3.83 2.052 0 .864.7 1.44 1.69 1.44.79 0 1.51-.36 2.14-1.08zm.07.828h-.05c-.67.81-1.46 1.224-2.41 1.224-1.52 0-2.61-.954-2.61-2.286 0-1.764 1.67-2.736 5-2.934v-.486c0-1.314-.65-1.962-1.94-1.962-.87 0-1.95.432-2.7.99l-.26-1.044c.8-.558 2.02-.99 3.06-.99 1.98 0 2.97.99 2.96 2.952v3.96c0 .648.14.846.82.828l-.07.918c-1.06.072-1.67-.324-1.8-1.17zm7.64.828c-.61.288-1.22.432-1.83.432-1.53 0-2.27-.864-2.22-2.592l.13-4.878-1.26-.072.05-.702 1.24-.288.06-1.872h1.06l-.05 1.926h2.75l-.05.99h-2.74l-.13 4.932c-.03 1.026.36 1.548 1.21 1.548.45 0 .97-.126 1.58-.396zm3.15-10.8c0 .234-.07.414-.19.576-.13.162-.33.252-.56.252-.24 0-.43-.09-.56-.252s-.2-.342-.2-.576c0-.216.07-.396.2-.558s.32-.234.56-.234c.23 0 .43.072.56.234.12.162.19.342.19.558zm-.19 10.962h-1.12v-8.244l1.12-.234zm10.11-4.14c0 1.296-.38 2.34-1.15 3.15s-1.73 1.224-2.9 1.224-2.12-.396-2.86-1.188-1.12-1.836-1.12-3.15c0-1.296.4-2.358 1.17-3.168.78-.81 1.73-1.206 2.9-1.206s2.13.396 2.86 1.188c.74.792 1.1 1.836 1.1 3.15zm-1.1.036c0-2.034-1.15-3.366-2.91-3.366-1.73 0-2.9 1.35-2.9 3.33 0 2.034 1.15 3.366 2.92 3.366 1.72 0 2.89-1.35 2.89-3.33zm9.73 4.104h-1.12v-5.328c0-1.44-.56-2.088-1.82-2.088-.88 0-1.72.396-2.5 1.17v6.246h-1.11v-8.244l1.11-.234v1.35c.9-.9 1.84-1.35 2.81-1.35 1.66 0 2.63 1.008 2.63 2.826z" fill="#fbfbfb"/><path d="m1146.61 241v-11.25h-1.13v11.25zm9.33 0h-1.11v-5.328c0-1.44-.56-2.088-1.82-2.088-.88 0-1.73.396-2.5 1.17v6.246h-1.12v-8.244l1.12-.234v1.35c.9-.9 1.83-1.35 2.81-1.35 1.65 0 2.62 1.008 2.62 2.826zm8.08-7.974v-4.158l1.12-.234v12.366h-1.12v-.774c-.72.666-1.51 1.008-2.39 1.008-2.21 0-3.69-1.746-3.69-4.284 0-1.278.38-2.322 1.15-3.15.78-.81 1.75-1.224 2.94-1.224.68 0 1.35.144 1.99.45zm0 1.188c-.54-.414-1.22-.63-2.05-.63-1.76 0-2.88 1.368-2.88 3.348 0 1.926 1.08 3.276 2.74 3.276.81 0 1.55-.306 2.19-.918v-4.914zm5.04-4.176c0 .234-.07.414-.2.576s-.32.252-.56.252c-.23 0-.43-.09-.56-.252-.12-.162-.19-.342-.19-.576 0-.216.07-.396.19-.558.13-.162.33-.234.56-.234.24 0 .43.072.56.234s.2.342.2.558zm-.2 10.962h-1.12v-8.244l1.12-.234zm8.68-.468c-.76.468-1.61.702-2.56.702-2.47 0-4.03-1.728-4.03-4.338 0-1.278.38-2.34 1.15-3.15.76-.81 1.73-1.224 2.9-1.224.99 0 1.83.234 2.57.702l-.29 1.008c-.66-.45-1.44-.666-2.28-.666-1.78 0-2.9 1.314-2.9 3.294 0 2.034 1.15 3.33 2.92 3.33.82 0 1.58-.234 2.28-.684zm6.37-1.35v-2.412c-2.77.306-3.83.918-3.83 2.052 0 .864.7 1.44 1.69 1.44.79 0 1.51-.36 2.14-1.08zm.07.828h-.05c-.67.81-1.46 1.224-2.41 1.224-1.52 0-2.61-.954-2.61-2.286 0-1.764 1.67-2.736 5-2.934v-.486c0-1.314-.65-1.962-1.94-1.962-.87 0-1.95.432-2.7.99l-.26-1.044c.8-.558 2.02-.99 3.06-.99 1.98 0 2.97.99 2.96 2.952v3.96c0 .648.14.846.82.828l-.07.918c-1.06.072-1.67-.324-1.8-1.17zm7.64.828c-.61.288-1.22.432-1.83.432-1.53 0-2.27-.864-2.22-2.592l.13-4.878-1.26-.072.05-.702 1.24-.288.06-1.872h1.06l-.05 1.926h2.75l-.05.99h-2.74l-.13 4.932c-.03 1.026.36 1.548 1.21 1.548.45 0 .97-.126 1.58-.396zm2.33-3.924v.09c.05 1.89 1.17 3.186 2.88 3.186.9 0 1.69-.234 2.39-.684l.22 1.026c-.76.468-1.64.702-2.65.702-2.36 0-3.98-1.746-3.98-4.284 0-1.296.38-2.358 1.12-3.186s1.66-1.242 2.77-1.242c1.84 0 3.01 1.188 3.01 3.042 0 .486-.06.918-.18 1.314zm.07-.882 4.57-.018c.02-.054.02-.18.02-.36 0-1.296-.7-2.124-1.98-2.124-1.42 0-2.41 1.062-2.61 2.502zm12.74 2.718c0 1.494-1.26 2.484-2.95 2.484-1.03 0-1.93-.252-2.7-.738l.3-1.026c.76.504 1.57.756 2.43.756 1.05 0 1.86-.522 1.86-1.386 0-.198-.04-.36-.13-.522s-.2-.288-.29-.378-.27-.18-.5-.288-.41-.18-.52-.216-.33-.108-.63-.198c-1.44-.432-2.4-1.044-2.4-2.34 0-1.476 1.17-2.376 2.79-2.376.89 0 1.71.198 2.51.612l-.33 1.008c-.74-.414-1.49-.612-2.25-.612-1.01 0-1.65.468-1.65 1.26 0 .18.03.342.12.486.09.162.18.27.27.36s.25.198.49.288c.21.09.39.162.52.216s.34.108.63.198c1.49.432 2.43 1.044 2.43 2.412zm14.57-8.316-.36 1.026c-.94-.594-1.98-.9-3.14-.9-2.53 0-4.24 1.782-4.24 4.806 0 2.97 1.67 4.824 4.28 4.824 1.21 0 2.25-.342 3.15-1.008l.22 1.134c-.94.612-2.07.918-3.39.918-1.64 0-2.95-.522-3.94-1.584s-1.49-2.466-1.49-4.248.5-3.204 1.53-4.284c1-1.062 2.3-1.602 3.9-1.602 1.32 0 2.47.306 3.48.918zm6.39 8.748v-2.412c-2.78.306-3.84.918-3.84 2.052 0 .864.7 1.44 1.69 1.44.8 0 1.52-.36 2.15-1.08zm.07.828h-.06c-.66.81-1.45 1.224-2.41 1.224-1.51 0-2.61-.954-2.61-2.286 0-1.764 1.68-2.736 5.01-2.934v-.486c0-1.314-.65-1.962-1.95-1.962-.86 0-1.94.432-2.7.99l-.25-1.044c.79-.558 2.02-.99 3.06-.99 1.98 0 2.97.99 2.95 2.952v3.96c0 .648.15.846.83.828l-.07.918c-1.06.072-1.68-.324-1.8-1.17zm4.65.99v-12.366l-1.12.234v12.132zm3.71 0v-12.366l-1.12.234v12.132zm5.98-3.852v-1.044h-4.07v1.044zm5.97 3.69c-.61.288-1.22.432-1.83.432-1.53 0-2.27-.864-2.22-2.592l.13-4.878-1.26-.072.05-.702 1.24-.288.06-1.872h1.06l-.05 1.926h2.75l-.05.99h-2.74l-.13 4.932c-.03 1.026.36 1.548 1.21 1.548.45 0 .97-.126 1.58-.396zm9.22-3.978c0 1.296-.38 2.34-1.15 3.15s-1.73 1.224-2.9 1.224-2.12-.396-2.86-1.188-1.12-1.836-1.12-3.15c0-1.296.4-2.358 1.17-3.168.78-.81 1.73-1.206 2.9-1.206s2.13.396 2.86 1.188c.74.792 1.1 1.836 1.1 3.15zm-1.1.036c0-2.034-1.15-3.366-2.91-3.366-1.73 0-2.9 1.35-2.9 3.33 0 2.034 1.15 3.366 2.92 3.366 1.72 0 2.89-1.35 2.89-3.33zm6.56.252v-1.044h-4.07v1.044zm6.37-7.398h-1.35l-4.26 11.25h1.17l1.19-3.222h5.09l1.19 3.222h1.17zm1.44 6.984h-4.3l2.16-5.85zm10.38 3.798c-.76.468-1.61.702-2.56.702-2.47 0-4.03-1.728-4.03-4.338 0-1.278.38-2.34 1.15-3.15.76-.81 1.73-1.224 2.9-1.224.99 0 1.83.234 2.57.702l-.29 1.008c-.66-.45-1.44-.666-2.28-.666-1.78 0-2.9 1.314-2.9 3.294 0 2.034 1.15 3.33 2.92 3.33.82 0 1.58-.234 2.28-.684zm6.17.306c-.61.288-1.22.432-1.83.432-1.53 0-2.27-.864-2.22-2.592l.13-4.878-1.26-.072.05-.702 1.24-.288.06-1.872h1.06l-.05 1.926h2.75l-.05.99h-2.74l-.13 4.932c-.03 1.026.36 1.548 1.21 1.548.45 0 .97-.126 1.58-.396zm3.15-10.8c0 .234-.07.414-.19.576-.13.162-.33.252-.56.252-.24 0-.43-.09-.56-.252s-.2-.342-.2-.576c0-.216.07-.396.2-.558s.32-.234.56-.234c.23 0 .43.072.56.234.12.162.19.342.19.558zm-.19 10.962h-1.12v-8.244l1.12-.234zm10.11-4.14c0 1.296-.38 2.34-1.15 3.15s-1.73 1.224-2.9 1.224-2.12-.396-2.86-1.188-1.12-1.836-1.12-3.15c0-1.296.4-2.358 1.17-3.168.78-.81 1.73-1.206 2.9-1.206s2.13.396 2.86 1.188c.74.792 1.1 1.836 1.1 3.15zm-1.1.036c0-2.034-1.15-3.366-2.91-3.366-1.73 0-2.9 1.35-2.9 3.33 0 2.034 1.15 3.366 2.92 3.366 1.72 0 2.89-1.35 2.89-3.33zm9.73 4.104h-1.12v-5.328c0-1.44-.56-2.088-1.82-2.088-.88 0-1.72.396-2.5 1.17v6.246h-1.11v-8.244l1.11-.234v1.35c.9-.9 1.84-1.35 2.81-1.35 1.66 0 2.63 1.008 2.63 2.826z" fill="#fbfbfb"/></svg>