<svg fill="none" height="200" viewBox="0 0 200 200" width="200" xmlns="http://www.w3.org/2000/svg"><rect fill="#b9d053" height="200" rx="20" width="200"/><path d="m82.7016 152.844c0 3.258 2.6658 5.924 5.9241 5.924h23.6963c3.259 0 5.925-2.666 5.925-5.924v-5.925h-35.5454zm17.7724-112.5596c-22.8672 0-41.4691 18.6019-41.4691 41.4692 0 14.0995 7.0497 26.4814 17.7725 34.0044v13.389c0 3.258 2.6659 5.924 5.9242 5.924h35.5454c3.258 0 5.924-2.666 5.924-5.924v-13.389c10.723-7.523 17.772-19.9049 17.772-34.0044 0-22.8673-18.602-41.4692-41.469-41.4692zm16.884 65.7586-5.036 3.554v13.626h-23.6963v-13.626l-5.0355-3.554c-3.9248-2.721-7.1331-6.3513-9.351-10.5808s-3.3796-8.9328-3.386-13.7086c0-16.3507 13.2702-29.6208 29.6208-29.6208 16.351 0 29.621 13.2701 29.621 29.6208 0 9.6564-4.739 18.7204-12.737 24.2894z" fill="#fbfbfb"/></svg>