<?xml version="1.0" encoding="utf-8"?>
<!-- Generator: Adobe Illustrator 25.4.1, SVG Export Plug-In . SVG Version: 6.00 Build 0)  -->
<svg version="1.1" id="Layer_1" xmlns="http://www.w3.org/2000/svg" xmlns:xlink="http://www.w3.org/1999/xlink" x="0px" y="0px"
	 viewBox="0 0 215 215" style="enable-background:new 0 0 215 215;" xml:space="preserve">
<style type="text/css">
	.st0{fill:#799400;}
	.st1{fill:none;stroke:#EFEFEF;stroke-width:12;stroke-linecap:round;stroke-linejoin:round;}
</style>
<path class="st0" d="M20,0h175c11,0,20,9,20,20v175c0,11-9,20-20,20H20c-11,0-20-9-20-20V20C0,9,9,0,20,0z"/>
<path class="st1" d="M47.5,41.5h24c3.3,0,6,2.7,6,6v120c0,3.3-2.7,6-6,6h-24c-3.3,0-6-2.7-6-6v-120C41.5,44.2,44.2,41.5,47.5,41.5z"
	/>
<line class="st1" x1="41.5" y1="71.5" x2="77.5" y2="71.5"/>
<path class="st1" d="M83.5,41.5h24c3.3,0,6,2.7,6,6v120c0,3.3-2.7,6-6,6h-24c-3.3,0-6-2.7-6-6v-120C77.5,44.2,80.2,41.5,83.5,41.5z"
	/>
<line class="st1" x1="77.5" y1="143.5" x2="113.5" y2="143.5"/>
<path class="st1" d="M119.3,45.8l23.2-6.2c3.2-0.9,6.5,1,7.3,4.2l31.1,115.9c0.9,3.2-1,6.5-4.2,7.3l-23.2,6.2
	c-3.2,0.9-6.5-1-7.3-4.2L115.1,53.1C114.2,49.9,116.1,46.7,119.3,45.8z"/>
<line class="st1" x1="139.9" y1="145.9" x2="174.7" y2="136.6"/>
<line class="st1" x1="121.3" y1="76.3" x2="156.1" y2="67"/>
</svg>
