<svg fill="none" height="200" viewBox="0 0 200 200" width="200" xmlns="http://www.w3.org/2000/svg"><rect fill="#b9d053" height="200" rx="20" width="200"/><g fill="#fbfbfb"><path d="m46.9336 88.2077h64.8584v11.7923h-64.8584zm0-11.7924h64.8584v-11.7925h-64.8584zm0 47.1697h41.2736v-11.792h-41.2736zm88.5024-18.455 4.186-4.186c.546-.547 1.194-.9807 1.907-1.2766s1.478-.4482 2.25-.4482 1.537.1523 2.25.4482c.714.2959 1.361.7296 1.907 1.2766l4.186 4.186c2.3 2.299 2.3 6.014 0 8.314l-4.186 4.186zm-4.186 4.186-31.2504 31.25v12.5h12.5004l31.25-31.25z"/><rect height="12.2642" rx="3" width="69.8113" x="44.3394" y="64.1511"/><rect height="12.2642" rx="3" width="69.8113" x="44.3394" y="87.7358"/><rect height="12.2642" rx="3" width="46.2264" x="44.3394" y="111.321"/></g></svg>