<svg fill="none" height="200" viewBox="0 0 200 200" width="200" xmlns="http://www.w3.org/2000/svg"><rect fill="#b9d053" height="200" rx="20" width="200"/><path d="m133.954 66.0456c-5.038-5.0826-11.152-8.9687-17.892-11.3715s-13.934-3.2608-21.0507-2.5108c-22.0553 2.2236-40.2044 20.1323-42.6683 42.1875-3.3053 29.1462 19.2308 53.7262 47.6563 53.7262 9.0747 0 17.9637-2.575 25.6337-7.426s13.806-11.779 17.696-19.978c1.923-4.026-.962-8.654-5.409-8.654-2.224 0-4.327 1.202-5.289 3.185-3.489 7.506-9.456 13.582-16.899 17.205-7.443 3.622-15.9058 4.571-23.9659 2.687-13.3414-2.945-24.0986-13.822-26.9231-27.163-1.1873-5.275-1.1736-10.7496.0402-16.0185 1.2138-5.2688 3.5966-10.1974 6.9721-14.4211 3.3756-4.2237 7.6574-7.6346 12.529-9.9802 4.8715-2.3456 10.2081-3.5661 15.615-3.571 9.9757 0 18.8697 4.1466 25.3607 10.6971l-9.075 9.0745c-3.786 3.7861-1.142 10.2765 4.207 10.2765h21.575c3.305 0 6.009-2.7044 6.009-6.0096v-21.5746c0-5.3485-6.49-8.0529-10.276-4.2668z" fill="#fbfbfb"/></svg>