<svg fill="none" height="113" viewBox="0 0 743 113" width="743" xmlns="http://www.w3.org/2000/svg"><circle cx="548" cy="40" r="38.5" stroke="#fff" stroke-opacity=".8" stroke-width="3"/><path d="m539.351 25.2376 25.052 14.4639-25.052 14.4639z" stroke="#fff" stroke-opacity=".8" stroke-width="3"/><path d="m432 14h-152c-14.359 0-26 11.6406-26 26s11.641 26 26 26h152c14.359 0 26-11.6406 26-26s-11.641-26-26-26z" stroke="#fff" stroke-miterlimit="10"/><path d="m311.624 44.864h4v1.136h-5.456v-11.28h1.456zm6.938-8.96v3.856h4.288v1.12h-4.288v3.936h4.768v1.184h-6.224v-11.28h6.224v1.184zm13.245 7.488h-4.96l-.944 2.608h-1.568l4.176-11.072h1.648l4.16 11.072h-1.568zm-.416-1.136-2.064-5.696-2.064 5.696zm10.386 3.744-2.944-4.608h-1.584v4.608h-1.456v-11.28h3.712c1.28 0 2.24.3093 2.88.928.64.608.96 1.4187.96 2.432 0 .9173-.256 1.6587-.768 2.224-.512.5547-1.253.9013-2.224 1.04l3.072 4.656zm-4.528-5.664h2.128c1.653 0 2.48-.7253 2.48-2.176s-.827-2.176-2.48-2.176h-2.128zm16.64 5.664h-1.456l-5.856-8.912v8.912h-1.456v-11.28h1.456l5.856 8.928v-8.928h1.456zm17.591-11.088v11.088h-1.456v-8.848l-3.536 8.848h-1.296l-3.552-8.816v8.816h-1.456v-11.088h1.744l3.936 9.312 3.872-9.312zm7.497-.336c1.045 0 1.984.2453 2.816.736.842.4907 1.504 1.1787 1.984 2.064.48.8747.72 1.8667.72 2.976s-.24 2.1067-.72 2.992c-.48.8747-1.142 1.5573-1.984 2.048-.832.4907-1.771.736-2.816.736-1.046 0-1.995-.2453-2.848-.736-.843-.4907-1.504-1.1733-1.984-2.048-.48-.8853-.72-1.8827-.72-2.992s.24-2.1013.72-2.976c.48-.8853 1.141-1.5733 1.984-2.064.853-.4907 1.802-.736 2.848-.736zm0 1.36c-.779 0-1.478.1813-2.096.544-.608.352-1.088.864-1.44 1.536-.342.6613-.512 1.44-.512 2.336 0 .8853.17 1.664.512 2.336.352.672.832 1.1893 1.44 1.552.618.352 1.317.528 2.096.528.768 0 1.456-.1813 2.064-.544.618-.3627 1.098-.8747 1.44-1.536.352-.672.528-1.4507.528-2.336 0-.896-.176-1.6747-.528-2.336-.342-.672-.822-1.184-1.44-1.536-.608-.3627-1.296-.544-2.064-.544zm13.472 10.064-2.944-4.608h-1.584v4.608h-1.456v-11.28h3.712c1.28 0 2.24.3093 2.88.928.64.608.96 1.4187.96 2.432 0 .9173-.256 1.6587-.768 2.224-.512.5547-1.253.9013-2.224 1.04l3.072 4.656zm-4.528-5.664h2.128c1.653 0 2.48-.7253 2.48-2.176s-.827-2.176-2.48-2.176h-2.128zm9.328-4.432v3.856h4.288v1.12h-4.288v3.936h4.768v1.184h-6.224v-11.28h6.224v1.184z" fill="#fff"/><path d="m178 14h-152c-14.3594 0-26 11.6406-26 26s11.6406 26 26 26h152c14.359 0 26-11.6406 26-26s-11.641-26-26-26z" fill="#b9d053"/><path d="m41.1931 34.72 3.44 9.664 3.488-9.664h1.584l-4.144 11.28h-1.84l-4.128-11.28zm11.4387 0v11.28h-1.456v-11.28zm3.7969 1.184v3.856h4.288v1.12h-4.288v3.936h4.768v1.184h-6.224v-11.28h6.224v1.184zm20.5097-1.184-2.864 11.28h-1.776l-2.608-9.216-2.608 9.216h-1.776l-2.88-11.28h1.616l2.16 9.584 2.672-9.584h1.616l2.672 9.552 2.176-9.552zm12.7953 8.352c0 .5333-.128 1.0293-.384 1.488s-.6453.832-1.168 1.12-1.168.432-1.936.432c-.7467 0-1.4133-.1333-2-.4-.576-.2773-1.04-.6507-1.392-1.12-.3413-.48-.5387-1.024-.592-1.632h1.552c.032.32.1387.6347.32.944.192.2987.4587.5493.8.752.352.192.7733.288 1.264.288.64 0 1.1307-.1707 1.472-.512s.512-.7787.512-1.312c0-.4587-.1227-.832-.368-1.12-.2347-.288-.528-.512-.88-.672-.352-.1707-.832-.352-1.44-.544-.7147-.2347-1.2907-.4533-1.728-.656-.4267-.2133-.7947-.528-1.104-.944-.2987-.416-.448-.9653-.448-1.648 0-.5867.1387-1.104.416-1.552.288-.448.6933-.7947 1.216-1.04.5333-.2453 1.1573-.368 1.872-.368 1.1093 0 1.9893.272 2.64.816.6507.5333 1.0293 1.216 1.136 2.048h-1.568c-.0853-.448-.3147-.8427-.688-1.184s-.88-.512-1.52-.512c-.5867 0-1.056.1547-1.408.464-.352.2987-.528.7253-.528 1.28 0 .4373.112.7947.336 1.072.2347.2667.5227.48.864.64.3413.1493.8107.32 1.408.512.7253.2347 1.3067.4587 1.744.672.448.2133.8267.5387 1.136.976.3093.4267.464.9973.464 1.712zm7.1257-8.496c1.0454 0 1.984.2453 2.816.736.8426.4907 1.5036 1.1787 1.9836 2.064.48.8747.72 1.8667.72 2.976s-.24 2.1067-.72 2.992c-.48.8747-1.141 1.5573-1.9836 2.048-.832.4907-1.7706.736-2.816.736-1.0453 0-1.9946-.2453-2.848-.736-.8426-.4907-1.504-1.1733-1.984-2.048-.48-.8853-.72-1.8827-.72-2.992s.24-2.1013.72-2.976c.48-.8853 1.1414-1.5733 1.984-2.064.8534-.4907 1.8027-.736 2.848-.736zm0 1.36c-.7786 0-1.4773.1813-2.096.544-.608.352-1.088.864-1.44 1.536-.3413.6613-.512 1.44-.512 2.336 0 .8853.1707 1.664.512 2.336.352.672.832 1.1893 1.44 1.552.6187.352 1.3174.528 2.096.528.768 0 1.456-.1813 2.064-.544.6187-.3627 1.0986-.8747 1.4396-1.536.352-.672.528-1.4507.528-2.336 0-.896-.176-1.6747-.528-2.336-.341-.672-.8209-1.184-1.4396-1.536-.608-.3627-1.296-.544-2.064-.544zm8.9446 8.928h4v1.136h-5.456v-11.28h1.456zm6.857-10.144v6.768c0 1.1093.246 1.9307.736 2.464.491.5227 1.168.784 2.032.784.854 0 1.52-.2667 2-.8s.72-1.3493.72-2.448v-6.768h1.456v6.768c0 1.536-.384 2.6933-1.152 3.472-.757.768-1.776 1.152-3.056 1.152-1.269 0-2.288-.384-3.056-1.152-.757-.7787-1.136-1.936-1.136-3.472v-6.768zm16.114 0v1.184h-3.184v10.096h-1.456v-10.096h-3.184v-1.184zm2.904 0v11.28h-1.456v-11.28zm7.509-.144c1.045 0 1.984.2453 2.816.736.842.4907 1.504 1.1787 1.984 2.064.48.8747.72 1.8667.72 2.976s-.24 2.1067-.72 2.992c-.48.8747-1.142 1.5573-1.984 2.048-.832.4907-1.771.736-2.816.736-1.046 0-1.995-.2453-2.848-.736-.843-.4907-1.504-1.1733-1.984-2.048-.48-.8853-.72-1.8827-.72-2.992s.24-2.1013.72-2.976c.48-.8853 1.141-1.5733 1.984-2.064.853-.4907 1.802-.736 2.848-.736zm0 1.36c-.779 0-1.478.1813-2.096.544-.608.352-1.088.864-1.44 1.536-.342.6613-.512 1.44-.512 2.336 0 .8853.17 1.664.512 2.336.352.672.832 1.1893 1.44 1.552.618.352 1.317.528 2.096.528.768 0 1.456-.1813 2.064-.544.618-.3627 1.098-.8747 1.44-1.536.352-.672.528-1.4507.528-2.336 0-.896-.176-1.6747-.528-2.336-.342-.672-.822-1.184-1.44-1.536-.608-.3627-1.296-.544-2.064-.544zm16.256 10.064h-1.456l-5.856-8.912v8.912h-1.456v-11.28h1.456l5.856 8.928v-8.928h1.456zm9.477-2.928c0 .5333-.128 1.0293-.384 1.488s-.645.832-1.168 1.12c-.522.288-1.168.432-1.936.432-.746 0-1.413-.1333-2-.4-.576-.2773-1.04-.6507-1.392-1.12-.341-.48-.538-1.024-.592-1.632h1.552c.032.32.139.6347.32.944.192.2987.459.5493.8.752.352.192.774.288 1.264.288.64 0 1.131-.1707 1.472-.512.342-.3413.512-.7787.512-1.312 0-.4587-.122-.832-.368-1.12-.234-.288-.528-.512-.88-.672-.352-.1707-.832-.352-1.44-.544-.714-.2347-1.29-.4533-1.728-.656-.426-.2133-.794-.528-1.104-.944-.298-.416-.448-.9653-.448-1.648 0-.5867.139-1.104.416-1.552.288-.448.694-.7947 1.216-1.04.534-.2453 1.158-.368 1.872-.368 1.11 0 1.99.272 2.64.816.651.5333 1.03 1.216 1.136 2.048h-1.568c-.085-.448-.314-.8427-.688-1.184-.373-.3413-.88-.512-1.52-.512-.586 0-1.056.1547-1.408.464-.352.2987-.528.7253-.528 1.28 0 .4373.112.7947.336 1.072.235.2667.523.48.864.64.342.1493.811.32 1.408.512.726.2347 1.307.4587 1.744.672.448.2133.827.5387 1.136.976.31.4267.464.9973.464 1.712z" fill="#000"/><g fill="#fff"><path d="m660.396 18c-4.429-.0002-8.759 1.3131-12.442 3.7738-3.683 2.4606-6.554 5.9582-8.249 10.0503s-2.139 8.5951-1.275 12.9393c.864 4.3443 2.997 8.3348 6.129 11.4669s7.122 5.2651 11.467 6.1293c4.344.8642 8.847.4208 12.939-1.2742s7.59-4.5654 10.051-8.2483 3.774-8.0127 3.774-12.4421c-.007-5.9373-2.368-11.6296-6.566-15.828-4.199-4.1984-9.891-6.5601-15.828-6.567zm0 42.923c-4.06.0002-8.03-1.2037-11.406-3.4593-3.376-2.2557-6.007-5.4619-7.561-9.2131-1.554-3.7513-1.961-7.879-1.169-11.8614.793-3.9823 2.748-7.6403 5.619-10.5114s6.529-4.8263 10.511-5.6184c3.983-.7921 8.11-.3854 11.862 1.1685 3.751 1.5539 6.957 4.1853 9.213 7.5614 2.255 3.3762 3.459 7.3454 3.459 11.4057-.006 5.4424-2.171 10.6601-6.02 14.5085-3.848 3.8483-9.066 6.0131-14.508 6.0195z" fill-opacity=".7"/><path d="m672.526 39.4621h-22.009l6.805-6.805c.167-.1765.259-.4113.256-.6544-.003-.2432-.101-.4755-.273-.6474-.172-.172-.404-.27-.648-.2732-.243-.0032-.478.0886-.654.256l-8.4 8.4c-.175.1749-.273.4122-.273.6595s.098.4845.273.6595l8.4 8.4c.175.175.412.2734.66.2735.247.0001.484-.0981.659-.273.176-.1749.274-.4122.274-.6597 0-.2474-.098-.4848-.273-.6598l-6.805-6.805h22.008c.247 0 .485-.0983.66-.2733s.273-.4123.273-.6597c0-.2475-.098-.4848-.273-.6598-.175-.1749-.413-.2732-.66-.2732z" fill-opacity=".7"/><path d="m720.396 18c4.429 0 8.759 1.3134 12.442 3.7742s6.553 5.9585 8.248 10.0506c1.695 4.0922 2.139 8.595 1.275 12.9392-.864 4.3443-2.997 8.3347-6.129 11.4667s-7.123 5.2649-11.467 6.129-8.847.4206-12.939-1.2744-7.59-4.5655-10.051-8.2483-3.774-8.0127-3.774-12.442c.007-5.9375 2.368-11.6299 6.567-15.8283 4.198-4.1985 9.89-6.5601 15.828-6.5667zm0 42.923c4.06 0 8.029-1.204 11.405-3.4598s6.008-5.4621 7.561-9.2133c1.554-3.7513 1.961-7.879 1.168-11.8613-.792-3.9822-2.747-7.6402-5.618-10.5111-2.871-2.871-6.529-4.8262-10.512-5.6182-3.982-.792-8.11-.3853-11.861 1.1687-3.751 1.5539-6.957 4.1853-9.213 7.5614-2.255 3.3761-3.459 7.3453-3.459 11.4056.006 5.4426 2.171 10.6604 6.02 14.5088 3.848 3.8484 9.066 6.0131 14.509 6.0192z"/><path d="m708.265 39.4621h22.008l-6.805-6.805c-.167-.1765-.259-.4113-.256-.6544.003-.2432.101-.4755.273-.6474.172-.172.404-.27.648-.2732.243-.0032.478.0886.654.256l8.4 8.4c.175.1749.273.4122.273.6595s-.098.4845-.273.6595l-8.4 8.4c-.087.0867-.189.1554-.303.2024-.113.0469-.234.0711-.357.0711-.122.0001-.244-.024-.357-.0709-.113-.0468-.216-.1155-.303-.2021-.086-.0866-.155-.1895-.202-.3026-.047-.1132-.071-.2345-.071-.3571 0-.1225.024-.2438.071-.357.047-.1133.115-.2161.202-.3028l6.805-6.805h-22.007c-.247 0-.485-.0983-.66-.2733s-.273-.4123-.273-.6597c0-.2475.098-.4848.273-.6598.175-.1749.413-.2732.66-.2732z"/><path d="m52.35 105v-10.65h4.41c.46 0 .88.1 1.26.3.39.19.725.445 1.005.765.28.31.495.665.645 1.065.16.4.24.805.24 1.215 0 .44-.075.865-.225 1.275-.14.4-.345.755-.615 1.065s-.595.56-.975.75c-.37.19-.785.285-1.245.285h-3.465v3.93zm1.035-4.86h3.405c.31 0 .59-.065.84-.195.26-.14.48-.32.66-.54.18-.23.32-.49.42-.78.1-.3.15-.61.15-.93 0-.33-.06-.64-.18-.93-.11-.3-.265-.56-.465-.78-.19-.22-.42-.39-.69-.51-.26-.13-.535-.195-.825-.195h-3.315zm11.9264-2.055c-.69.02-1.29.21-1.8.57s-.87.855-1.08 1.485v4.86h-1.02v-7.815h.96v1.875c.27-.55.625-1.005 1.065-1.365.44-.37.915-.555 1.425-.555h.255c.08 0 .145.005.195.015zm1.3588 6.915v-7.815h1.02v7.815zm0-9.45v-1.5h1.02v1.5zm14.833 9.45h-1.02v-4.365c0-.91-.145-1.58-.435-2.01-.28-.43-.71-.645-1.29-.645-.3 0-.585.055-.855.165-.26.11-.505.265-.735.465-.22.2-.415.44-.585.72-.17.27-.3.57-.39.9v4.77h-1.02v-4.365c0-.93-.14-1.605-.42-2.025s-.71-.63-1.29-.63c-.59 0-1.115.205-1.575.615s-.79.95-.99 1.62v4.785h-1.02v-7.815h.93v1.77c.32-.6.74-1.065 1.26-1.395.52-.34 1.095-.51 1.725-.51.66 0 1.19.185 1.59.555s.64.855.72 1.455c.73-1.34 1.74-2.01 3.03-2.01.43 0 .795.08 1.095.24.31.16.555.39.735.69.19.29.325.645.405 1.065.09.41.135.87.135 1.38zm4.1852.15c-.4 0-.765-.06-1.095-.18-.33-.13-.615-.305-.855-.525-.23-.22-.41-.475-.54-.765s-.195-.595-.195-.915c0-.36.08-.685.24-.975.16-.3.385-.555.675-.765s.635-.37 1.035-.48c.41-.12.86-.18 1.35-.18.39 0 .79.035 1.2.105s.775.17 1.095.3v-.705c0-.69-.2-1.235-.6-1.635-.39-.41-.92-.615-1.59-.615-.42 0-.84.08-1.26.24-.41.16-.83.39-1.26.69l-.36-.675c.51-.34 1.005-.595 1.485-.765s.98-.255 1.5-.255c.95 0 1.705.275 2.265.825s.84 1.31.84 2.28v3.525c0 .28.12.42.36.42v.9c-.08.01-.155.015-.225.015-.07.01-.13.015-.18.015-.2 0-.385-.06-.555-.18-.16-.12-.25-.3-.27-.54l-.03-.615c-.34.46-.79.82-1.35 1.08-.55.25-1.11.375-1.68.375zm.255-.78c.45 0 .895-.095 1.335-.285.45-.2.805-.47 1.065-.81.07-.09.13-.185.18-.285.05-.11.075-.21.075-.3v-1.275c-.34-.13-.695-.23-1.065-.3s-.73-.105-1.08-.105c-.73 0-1.325.15-1.785.45-.45.29-.675.695-.675 1.215 0 .21.04.415.12.615s.2.38.36.54c.17.16.375.29.615.39s.525.15.855.15zm9.7928-6.285c-.69.02-1.29.21-1.8.57s-.87.855-1.08 1.485v4.86h-1.02v-7.815h.96v1.875c.27-.55.625-1.005 1.065-1.365.44-.37.915-.555 1.425-.555h.255c.08 0 .145.005.195.015zm1.8088 9.33c.05.01.1.015.15.015.05.01.1.015.15.015.1 0 .205-.01.315-.03.12-.02.205-.04.255-.06s.1-.065.15-.135c.06-.06.13-.175.21-.345.09-.16.2-.39.33-.69.13-.29.295-.685.495-1.185l-3.405-7.815h1.065l2.895 6.87 2.67-6.87h.975l-4.065 10.08c-.15.37-.355.645-.615.825-.25.18-.605.27-1.065.27-.19 0-.36-.015-.51-.045zm19.358-5.16c0 .4-.08.77-.24 1.11-.16.33-.375.62-.645.87-.27.24-.585.43-.945.57-.36.13-.745.195-1.155.195h-5.01v-10.65h5.115c.37 0 .705.08 1.005.24s.555.37.765.63c.21.25.37.54.48.87.12.32.18.645.18.975 0 .54-.135 1.035-.405 1.485-.27.44-.645.77-1.125.99.61.18 1.09.515 1.44 1.005.36.49.54 1.06.54 1.71zm-1.05-.18c0-.26-.045-.51-.135-.75-.09-.25-.22-.465-.39-.645-.16-.19-.355-.34-.585-.45-.22-.12-.46-.18-.72-.18h-4.08v4.035h3.975c.27 0 .525-.055.765-.165s.445-.255.615-.435c.17-.19.305-.405.405-.645.1-.25.15-.505.15-.765zm-5.91-6.81v3.93h3.66c.26 0 .5-.055.72-.165.23-.11.425-.255.585-.435.17-.18.3-.385.39-.615.09-.24.135-.49.135-.75 0-.27-.045-.525-.135-.765-.08-.24-.2-.445-.36-.615-.15-.18-.335-.32-.555-.42-.21-.11-.44-.165-.69-.165zm11.13 9.885c-.82 0-1.44-.28-1.86-.84-.42-.57-.63-1.415-.63-2.535v-4.59h1.02v4.41c0 1.77.605 2.655 1.814 2.655.301 0 .596-.05.886-.15s.555-.245.795-.435c.25-.19.47-.415.66-.675.2-.26.36-.555.48-.885v-4.92h1.02v6.495c0 .28.125.42.375.42v.9c-.2.03-.34.045-.42.045-.23 0-.43-.07-.6-.21-.16-.14-.24-.315-.24-.525v-1.08c-.35.61-.815 1.085-1.395 1.425-.58.33-1.215.495-1.905.495zm10.256-.525c-.06.03-.15.07-.27.12-.11.05-.24.1-.39.15s-.32.095-.51.135-.39.06-.6.06c-.22 0-.43-.03-.63-.09s-.375-.15-.525-.27c-.15-.13-.27-.29-.36-.48s-.135-.41-.135-.66v-5.595h-1.08v-.81h1.08v-2.64h1.02v2.64h1.8v.81h-1.8v5.31c.02.29.12.505.3.645.18.13.395.195.645.195.29 0 .545-.045.765-.135.22-.1.36-.17.42-.21zm4.966 0c-.06.03-.15.07-.27.12-.11.05-.24.1-.39.15s-.32.095-.51.135-.39.06-.6.06c-.22 0-.43-.03-.63-.09s-.375-.15-.525-.27c-.15-.13-.27-.29-.36-.48s-.135-.41-.135-.66v-5.595h-1.08v-.81h1.08v-2.64h1.02v2.64h1.8v.81h-1.8v5.31c.02.29.12.505.3.645.18.13.395.195.645.195.29 0 .545-.045.765-.135.22-.1.36-.17.42-.21zm4.414.525c-.57 0-1.095-.105-1.575-.315-.47-.22-.88-.515-1.23-.885-.34-.37-.605-.8-.795-1.29s-.285-1.005-.285-1.545c0-.55.095-1.07.285-1.56.2-.49.47-.92.81-1.29.35-.37.76-.665 1.23-.885.48-.22 1-.33 1.56-.33s1.075.11 1.545.33c.48.22.89.515 1.23.885.35.37.62.8.81 1.29.2.49.3 1.01.3 1.56 0 .54-.1 1.055-.3 1.545-.19.49-.46.92-.81 1.29-.34.37-.75.665-1.23.885-.47.21-.985.315-1.545.315zm-2.835-4.02c0 .44.07.85.21 1.23.15.37.35.7.6.99.26.28.56.5.9.66.35.16.72.24 1.11.24s.755-.08 1.095-.24c.35-.17.655-.395.915-.675.26-.29.465-.625.615-1.005s.225-.79.225-1.23c0-.43-.075-.835-.225-1.215-.15-.39-.355-.725-.615-1.005-.26-.29-.56-.515-.9-.675-.34-.17-.705-.255-1.095-.255s-.76.085-1.11.255c-.34.16-.64.385-.9.675-.25.29-.45.63-.6 1.02-.15.38-.225.79-.225 1.23zm14.951 3.87h-1.02v-4.365c0-.93-.135-1.605-.405-2.025s-.69-.63-1.26-.63c-.3 0-.6.055-.9.165s-.58.265-.84.465-.49.44-.69.72c-.19.27-.335.565-.435.885v4.785h-1.02v-7.815h.93v1.77c.16-.28.355-.535.585-.765.24-.24.505-.445.795-.615s.595-.3.915-.39c.33-.09.67-.135 1.02-.135.44 0 .805.08 1.095.24.3.16.54.385.72.675s.31.645.39 1.065.12.885.12 1.395z"/><path d="m300.605 96.345c-.3-.34-.705-.615-1.215-.825-.5-.21-1.065-.315-1.695-.315-.95 0-1.64.18-2.07.54-.43.35-.645.83-.645 1.44 0 .32.055.585.165.795.12.2.3.375.54.525.25.15.56.28.93.39.38.11.825.22 1.335.33.57.12 1.08.255 1.53.405.45.14.835.325 1.155.555.32.22.565.495.735.825.17.32.255.72.255 1.2 0 .49-.095.915-.285 1.275s-.455.66-.795.9-.745.42-1.215.54c-.47.11-.98.165-1.53.165-1.67 0-3.095-.515-4.275-1.545l.51-.855c.39.41.915.76 1.575 1.05.66.28 1.395.42 2.205.42.85 0 1.515-.15 1.995-.45.48-.31.72-.775.72-1.395 0-.33-.07-.605-.21-.825-.13-.23-.33-.425-.6-.585-.27-.17-.61-.315-1.02-.435-.4-.12-.865-.24-1.395-.36-.56-.13-1.05-.265-1.47-.405s-.775-.315-1.065-.525c-.28-.21-.495-.46-.645-.75-.14-.3-.21-.665-.21-1.095 0-.49.09-.925.27-1.305.19-.39.45-.71.78-.96.34-.26.74-.455 1.2-.585.47-.14.985-.21 1.545-.21.7 0 1.325.11 1.875.33.56.21 1.065.51 1.515.9zm6.095 8.805c-.57 0-1.095-.105-1.575-.315-.48-.22-.895-.515-1.245-.885-.35-.38-.625-.815-.825-1.305-.19-.49-.285-1.015-.285-1.575 0-.55.095-1.065.285-1.545.2-.49.475-.915.825-1.275.35-.37.76-.66 1.23-.87.48-.22 1.005-.33 1.575-.33s1.09.11 1.56.33c.48.21.89.5 1.23.87s.605.795.795 1.275.285.99.285 1.53c0 .08-.005.16-.015.24 0 .08-.005.135-.015.165h-6.675c.03.42.125.81.285 1.17.17.35.38.655.63.915.26.26.555.465.885.615.34.14.7.21 1.08.21.26 0 .515-.035.765-.105s.48-.165.69-.285.395-.265.555-.435c.17-.18.3-.375.39-.585l.885.24c-.12.29-.29.555-.51.795-.22.23-.475.435-.765.615-.29.17-.61.3-.96.39-.35.1-.71.15-1.08.15zm2.88-4.47c-.03-.42-.13-.8-.3-1.14-.16-.35-.37-.65-.63-.9-.25-.25-.545-.445-.885-.585s-.7-.21-1.08-.21-.74.07-1.08.21-.64.335-.9.585c-.25.25-.455.55-.615.9-.15.35-.24.73-.27 1.14zm1.993.39c0-.55.095-1.07.285-1.56s.455-.915.795-1.275c.35-.37.765-.66 1.245-.87s1.01-.315 1.59-.315c.74 0 1.385.17 1.935.51.55.33.965.78 1.245 1.35l-.99.315c-.22-.4-.525-.71-.915-.93-.39-.23-.825-.345-1.305-.345-.4 0-.775.08-1.125.24-.34.16-.64.38-.9.66-.25.27-.45.595-.6.975-.14.38-.21.795-.21 1.245 0 .44.075.855.225 1.245s.355.73.615 1.02c.26.28.56.505.9.675.35.16.72.24 1.11.24.25 0 .495-.035.735-.105.25-.07.48-.165.69-.285.21-.13.39-.275.54-.435s.255-.33.315-.51l.99.3c-.11.28-.27.54-.48.78-.21.23-.46.435-.75.615-.28.17-.595.3-.945.39-.34.1-.695.15-1.065.15-.57 0-1.095-.105-1.575-.315-.48-.22-.895-.515-1.245-.885-.35-.38-.625-.815-.825-1.305-.19-.49-.285-1.015-.285-1.575zm12.044 4.08c-.57 0-1.095-.105-1.575-.315-.47-.22-.88-.515-1.23-.885-.34-.37-.605-.8-.795-1.29s-.285-1.005-.285-1.545c0-.55.095-1.07.285-1.56.2-.49.47-.92.81-1.29.35-.37.76-.665 1.23-.885.48-.22 1-.33 1.56-.33s1.075.11 1.545.33c.48.22.89.515 1.23.885.35.37.62.8.81 1.29.2.49.3 1.01.3 1.56 0 .54-.1 1.055-.3 1.545-.19.49-.46.92-.81 1.29-.34.37-.75.665-1.23.885-.47.21-.985.315-1.545.315zm-2.835-4.02c0 .44.07.85.21 1.23.15.37.35.7.6.99.26.28.56.5.9.66.35.16.72.24 1.11.24s.755-.08 1.095-.24c.35-.17.655-.395.915-.675.26-.29.465-.625.615-1.005s.225-.79.225-1.23c0-.43-.075-.835-.225-1.215-.15-.39-.355-.725-.615-1.005-.26-.29-.56-.515-.9-.675-.34-.17-.705-.255-1.095-.255s-.76.085-1.11.255c-.34.16-.64.385-.9.675-.25.29-.45.63-.6 1.02-.15.38-.225.79-.225 1.23zm14.951 3.87h-1.02v-4.365c0-.93-.135-1.605-.405-2.025s-.69-.63-1.26-.63c-.3 0-.6.055-.9.165s-.58.265-.84.465-.49.44-.69.72c-.19.27-.335.565-.435.885v4.785h-1.02v-7.815h.93v1.77c.16-.28.355-.535.585-.765.24-.24.505-.445.795-.615s.595-.3.915-.39c.33-.09.67-.135 1.02-.135.44 0 .805.08 1.095.24.3.16.54.385.72.675s.31.645.39 1.065.12.885.12 1.395zm5.357.15c-.54 0-1.04-.11-1.5-.33-.46-.23-.86-.53-1.2-.9-.33-.37-.59-.795-.78-1.275-.18-.49-.27-1-.27-1.53 0-.55.09-1.07.27-1.56.18-.5.425-.935.735-1.305.32-.37.695-.66 1.125-.87.44-.22.92-.33 1.44-.33.66 0 1.245.175 1.755.525.51.34.915.755 1.215 1.245v-4.77h1.02v9.63c0 .28.12.42.36.42v.9c-.17.03-.305.045-.405.045-.25 0-.455-.07-.615-.21-.16-.15-.24-.325-.24-.525v-.825c-.32.51-.745.915-1.275 1.215-.52.3-1.065.45-1.635.45zm.21-.9c.26 0 .53-.05.81-.15.29-.1.555-.235.795-.405.25-.18.465-.385.645-.615.18-.24.29-.495.33-.765v-2.415c-.1-.27-.25-.52-.45-.75-.19-.24-.41-.45-.66-.63-.24-.18-.5-.32-.78-.42-.27-.1-.54-.15-.81-.15-.42 0-.805.09-1.155.27-.34.18-.63.42-.87.72-.24.29-.43.625-.57 1.005-.13.38-.195.77-.195 1.17 0 .42.075.82.225 1.2s.355.715.615 1.005c.26.28.565.505.915.675.36.17.745.255 1.155.255zm7.966.9c-.4 0-.765-.06-1.095-.18-.33-.13-.615-.305-.855-.525-.23-.22-.41-.475-.54-.765s-.195-.595-.195-.915c0-.36.08-.685.24-.975.16-.3.385-.555.675-.765s.635-.37 1.035-.48c.41-.12.86-.18 1.35-.18.39 0 .79.035 1.2.105s.775.17 1.095.3v-.705c0-.69-.2-1.235-.6-1.635-.39-.41-.92-.615-1.59-.615-.42 0-.84.08-1.26.24-.41.16-.83.39-1.26.69l-.36-.675c.51-.34 1.005-.595 1.485-.765s.98-.255 1.5-.255c.95 0 1.705.275 2.265.825s.84 1.31.84 2.28v3.525c0 .28.12.42.36.42v.9c-.08.01-.155.015-.225.015-.07.01-.13.015-.18.015-.2 0-.385-.06-.555-.18-.16-.12-.25-.3-.27-.54l-.03-.615c-.34.46-.79.82-1.35 1.08-.55.25-1.11.375-1.68.375zm.255-.78c.45 0 .895-.095 1.335-.285.45-.2.805-.47 1.065-.81.07-.09.13-.185.18-.285.05-.11.075-.21.075-.3v-1.275c-.34-.13-.695-.23-1.065-.3s-.73-.105-1.08-.105c-.73 0-1.325.15-1.785.45-.45.29-.675.695-.675 1.215 0 .21.04.415.12.615s.2.38.36.54c.17.16.375.29.615.39s.525.15.855.15zm9.792-6.285c-.69.02-1.29.21-1.8.57s-.87.855-1.08 1.485v4.86h-1.02v-7.815h.96v1.875c.27-.55.625-1.005 1.065-1.365.44-.37.915-.555 1.425-.555h.255c.08 0 .145.005.195.015zm1.809 9.33c.05.01.1.015.15.015.05.01.1.015.15.015.1 0 .205-.01.315-.03.12-.02.205-.04.255-.06s.1-.065.15-.135c.06-.06.13-.175.21-.345.09-.16.2-.39.33-.69.13-.29.295-.685.495-1.185l-3.405-7.815h1.065l2.895 6.87 2.67-6.87h.975l-4.065 10.08c-.15.37-.355.645-.615.825-.25.18-.605.27-1.065.27-.19 0-.36-.015-.51-.045zm19.358-5.16c0 .4-.08.77-.24 1.11-.16.33-.375.62-.645.87-.27.24-.585.43-.945.57-.36.13-.745.195-1.155.195h-5.01v-10.65h5.115c.37 0 .705.08 1.005.24s.555.37.765.63c.21.25.37.54.48.87.12.32.18.645.18.975 0 .54-.135 1.035-.405 1.485-.27.44-.645.77-1.125.99.61.18 1.09.515 1.44 1.005.36.49.54 1.06.54 1.71zm-1.05-.18c0-.26-.045-.51-.135-.75-.09-.25-.22-.465-.39-.645-.16-.19-.355-.34-.585-.45-.22-.12-.46-.18-.72-.18h-4.08v4.035h3.975c.27 0 .525-.055.765-.165s.445-.255.615-.435c.17-.19.305-.405.405-.645.1-.25.15-.505.15-.765zm-5.91-6.81v3.93h3.66c.26 0 .5-.055.72-.165.23-.11.425-.255.585-.435.17-.18.3-.385.39-.615.09-.24.135-.49.135-.75 0-.27-.045-.525-.135-.765-.08-.24-.2-.445-.36-.615-.15-.18-.335-.32-.555-.42-.21-.11-.44-.165-.69-.165zm11.13 9.885c-.82 0-1.44-.28-1.86-.84-.42-.57-.63-1.415-.63-2.535v-4.59h1.02v4.41c0 1.77.605 2.655 1.815 2.655.3 0 .595-.05.885-.15s.555-.245.795-.435c.25-.19.47-.415.66-.675.2-.26.36-.555.48-.885v-4.92h1.02v6.495c0 .28.125.42.375.42v.9c-.2.03-.34.045-.42.045-.23 0-.43-.07-.6-.21-.16-.14-.24-.315-.24-.525v-1.08c-.35.61-.815 1.085-1.395 1.425-.58.33-1.215.495-1.905.495zm10.256-.525c-.06.03-.15.07-.27.12-.11.05-.24.1-.39.15s-.32.095-.51.135-.39.06-.6.06c-.22 0-.43-.03-.63-.09s-.375-.15-.525-.27c-.15-.13-.27-.29-.36-.48s-.135-.41-.135-.66v-5.595h-1.08v-.81h1.08v-2.64h1.02v2.64h1.8v.81h-1.8v5.31c.02.29.12.505.3.645.18.13.395.195.645.195.29 0 .545-.045.765-.135.22-.1.36-.17.42-.21zm4.966 0c-.06.03-.15.07-.27.12-.11.05-.24.1-.39.15s-.32.095-.51.135-.39.06-.6.06c-.22 0-.43-.03-.63-.09s-.375-.15-.525-.27c-.15-.13-.27-.29-.36-.48s-.135-.41-.135-.66v-5.595h-1.08v-.81h1.08v-2.64h1.02v2.64h1.8v.81h-1.8v5.31c.02.29.12.505.3.645.18.13.395.195.645.195.29 0 .545-.045.765-.135.22-.1.36-.17.42-.21zm4.414.525c-.57 0-1.095-.105-1.575-.315-.47-.22-.88-.515-1.23-.885-.34-.37-.605-.8-.795-1.29s-.285-1.005-.285-1.545c0-.55.095-1.07.285-1.56.2-.49.47-.92.81-1.29.35-.37.76-.665 1.23-.885.48-.22 1-.33 1.56-.33s1.075.11 1.545.33c.48.22.89.515 1.23.885.35.37.62.8.81 1.29.2.49.3 1.01.3 1.56 0 .54-.1 1.055-.3 1.545-.19.49-.46.92-.81 1.29-.34.37-.75.665-1.23.885-.47.21-.985.315-1.545.315zm-2.835-4.02c0 .44.07.85.21 1.23.15.37.35.7.6.99.26.28.56.5.9.66.35.16.72.24 1.11.24s.755-.08 1.095-.24c.35-.17.655-.395.915-.675.26-.29.465-.625.615-1.005s.225-.79.225-1.23c0-.43-.075-.835-.225-1.215-.15-.39-.355-.725-.615-1.005-.26-.29-.56-.515-.9-.675-.34-.17-.705-.255-1.095-.255s-.76.085-1.11.255c-.34.16-.64.385-.9.675-.25.29-.45.63-.6 1.02-.15.38-.225.79-.225 1.23zm14.951 3.87h-1.02v-4.365c0-.93-.135-1.605-.405-2.025s-.69-.63-1.26-.63c-.3 0-.6.055-.9.165s-.58.265-.84.465-.49.44-.69.72c-.19.27-.335.565-.435.885v4.785h-1.02v-7.815h.93v1.77c.16-.28.355-.535.585-.765.24-.24.505-.445.795-.615s.595-.3.915-.39c.33-.09.67-.135 1.02-.135.44 0 .805.08 1.095.24.3.16.54.385.72.675s.31.645.39 1.065.12.885.12 1.395z"/><path d="m540.35 105v-10.65h4.41c.46 0 .88.1 1.26.3.39.19.725.445 1.005.765.28.31.495.665.645 1.065.16.4.24.805.24 1.215 0 .44-.075.865-.225 1.275-.14.4-.345.755-.615 1.065s-.595.56-.975.75c-.37.19-.785.285-1.245.285h-3.465v3.93zm1.035-4.86h3.405c.31 0 .59-.065.84-.195.26-.14.48-.32.66-.54.18-.23.32-.49.42-.78.1-.3.15-.61.15-.93 0-.33-.06-.64-.18-.93-.11-.3-.265-.56-.465-.78-.19-.22-.42-.39-.69-.51-.26-.13-.535-.195-.825-.195h-3.315zm8.071-6.09h1.02v9.18c0 .29.08.52.24.69.16.16.385.24.675.24.11 0 .24-.015.39-.045s.29-.07.42-.12l.18.825c-.19.08-.425.145-.705.195-.27.05-.505.075-.705.075-.47 0-.84-.13-1.11-.39-.27-.27-.405-.645-.405-1.125zm5.98 11.1c-.4 0-.765-.06-1.095-.18-.33-.13-.615-.305-.855-.525-.23-.22-.41-.475-.54-.765s-.195-.595-.195-.915c0-.36.08-.685.24-.975.16-.3.385-.555.675-.765s.635-.37 1.035-.48c.41-.12.86-.18 1.35-.18.39 0 .79.035 1.2.105s.775.17 1.095.3v-.705c0-.69-.2-1.235-.6-1.635-.39-.41-.92-.615-1.59-.615-.42 0-.84.08-1.26.24-.41.16-.83.39-1.26.69l-.36-.675c.51-.34 1.005-.595 1.485-.765s.98-.255 1.5-.255c.95 0 1.705.275 2.265.825s.84 1.31.84 2.28v3.525c0 .28.12.42.36.42v.9c-.08.01-.155.015-.225.015-.07.01-.13.015-.18.015-.2 0-.385-.06-.555-.18-.16-.12-.25-.3-.27-.54l-.03-.615c-.34.46-.79.82-1.35 1.08-.55.25-1.11.375-1.68.375zm.255-.78c.45 0 .895-.095 1.335-.285.45-.2.805-.47 1.065-.81.07-.09.13-.185.18-.285.05-.11.075-.21.075-.3v-1.275c-.34-.13-.695-.23-1.065-.3s-.73-.105-1.08-.105c-.73 0-1.325.15-1.785.45-.45.29-.675.695-.675 1.215 0 .21.04.415.12.615s.2.38.36.54c.17.16.375.29.615.39s.525.15.855.15zm6.094 3.045c.05.01.1.015.15.015.05.01.1.015.15.015.1 0 .205-.01.315-.03.12-.02.205-.04.255-.06s.1-.065.15-.135c.06-.06.13-.175.21-.345.09-.16.2-.39.33-.69.13-.29.295-.685.495-1.185l-3.405-7.815h1.065l2.895 6.87 2.67-6.87h.975l-4.065 10.08c-.15.37-.355.645-.615.825-.25.18-.605.27-1.065.27-.19 0-.36-.015-.51-.045z"/><path d="m661.955 96.3v8.7h-1.035v-10.65h.81l7.05 8.865v-8.85h1.035v10.635h-.9zm12.381 8.85c-.4 0-.765-.06-1.095-.18-.33-.13-.615-.305-.855-.525-.23-.22-.41-.475-.54-.765s-.195-.595-.195-.915c0-.36.08-.685.24-.975.16-.3.385-.555.675-.765s.635-.37 1.035-.48c.41-.12.86-.18 1.35-.18.39 0 .79.035 1.2.105s.775.17 1.095.3v-.705c0-.69-.2-1.235-.6-1.635-.39-.41-.92-.615-1.59-.615-.42 0-.84.08-1.26.24-.41.16-.83.39-1.26.69l-.36-.675c.51-.34 1.005-.595 1.485-.765s.98-.255 1.5-.255c.95 0 1.705.275 2.265.825s.84 1.31.84 2.28v3.525c0 .28.12.42.36.42v.9c-.08.01-.155.015-.225.015-.07.01-.13.015-.18.015-.2 0-.385-.06-.555-.18-.16-.12-.25-.3-.27-.54l-.03-.615c-.34.46-.79.82-1.35 1.08-.55.25-1.11.375-1.68.375zm.255-.78c.45 0 .895-.095 1.335-.285.45-.2.805-.47 1.065-.81.07-.09.13-.185.18-.285.05-.11.075-.21.075-.3v-1.275c-.34-.13-.695-.23-1.065-.3s-.73-.105-1.08-.105c-.73 0-1.325.15-1.785.45-.45.29-.675.695-.675 1.215 0 .21.04.415.12.615s.2.38.36.54c.17.16.375.29.615.39s.525.15.855.15zm7.969.63-3.18-7.815h1.065l2.685 6.87 2.7-6.87h.99l-3.18 7.815zm5.615 0v-7.815h1.02v7.815zm0-9.45v-1.5h1.02v1.5zm6.373 9.555c-.54 0-1.035-.11-1.485-.33-.44-.23-.825-.53-1.155-.9-.32-.37-.57-.795-.75-1.275s-.27-.975-.27-1.485c0-.54.085-1.055.255-1.545.18-.5.43-.935.75-1.305s.7-.665 1.14-.885c.45-.22.945-.33 1.485-.33.67 0 1.25.17 1.74.51.49.33.91.75 1.26 1.26v-1.635h.915v7.845c0 .54-.105 1.015-.315 1.425-.2.42-.475.77-.825 1.05-.34.28-.745.49-1.215.63s-.965.21-1.485.21c-.89 0-1.61-.16-2.16-.48s-.995-.75-1.335-1.29l.63-.495c.31.5.72.865 1.23 1.095.51.24 1.055.36 1.635.36.38 0 .74-.055 1.08-.165.35-.1.65-.255.9-.465.26-.2.465-.46.615-.78.15-.31.225-.675.225-1.095v-1.545c-.31.5-.725.895-1.245 1.185-.51.29-1.05.435-1.62.435zm.285-.855c.3 0 .595-.055.885-.165s.55-.255.78-.435c.24-.19.44-.4.6-.63s.265-.465.315-.705v-2.415c-.11-.28-.265-.54-.465-.78-.19-.24-.405-.445-.645-.615s-.5-.305-.78-.405c-.27-.1-.545-.15-.825-.15-.44 0-.83.095-1.17.285-.34.18-.63.42-.87.72s-.425.64-.555 1.02c-.12.38-.18.765-.18 1.155 0 .42.075.82.225 1.2s.355.715.615 1.005c.26.28.565.505.915.675.36.16.745.24 1.155.24zm7.863.9c-.4 0-.765-.06-1.095-.18-.33-.13-.615-.305-.855-.525-.23-.22-.41-.475-.54-.765s-.195-.595-.195-.915c0-.36.08-.685.24-.975.16-.3.385-.555.675-.765s.635-.37 1.035-.48c.41-.12.86-.18 1.35-.18.39 0 .79.035 1.2.105s.775.17 1.095.3v-.705c0-.69-.2-1.235-.6-1.635-.39-.41-.92-.615-1.59-.615-.42 0-.84.08-1.26.24-.41.16-.83.39-1.26.69l-.36-.675c.51-.34 1.005-.595 1.485-.765s.98-.255 1.5-.255c.95 0 1.705.275 2.265.825s.84 1.31.84 2.28v3.525c0 .28.12.42.36.42v.9c-.08.01-.155.015-.225.015-.07.01-.13.015-.18.015-.2 0-.385-.06-.555-.18-.16-.12-.25-.3-.27-.54l-.03-.615c-.34.46-.79.82-1.35 1.08-.55.25-1.11.375-1.68.375zm.255-.78c.45 0 .895-.095 1.335-.285.45-.2.805-.47 1.065-.81.07-.09.13-.185.18-.285.05-.11.075-.21.075-.3v-1.275c-.34-.13-.695-.23-1.065-.3s-.73-.105-1.08-.105c-.73 0-1.325.15-1.785.45-.45.29-.675.695-.675 1.215 0 .21.04.415.12.615s.2.38.36.54c.17.16.375.29.615.39s.525.15.855.15zm9.57.255c-.06.03-.15.07-.27.12-.11.05-.24.1-.39.15s-.32.095-.51.135-.39.06-.6.06c-.22 0-.43-.03-.63-.09s-.375-.15-.525-.27c-.15-.13-.27-.29-.36-.48s-.135-.41-.135-.66v-5.595h-1.08v-.81h1.08v-2.64h1.02v2.64h1.8v.81h-1.8v5.31c.02.29.12.505.3.645.18.13.395.195.645.195.29 0 .545-.045.765-.135.22-.1.36-.17.42-.21zm4.62.525c-.57 0-1.095-.105-1.575-.315-.48-.22-.895-.515-1.245-.885-.35-.38-.625-.815-.825-1.305-.19-.49-.285-1.015-.285-1.575 0-.55.095-1.065.285-1.545.2-.49.475-.915.825-1.275.35-.37.76-.66 1.23-.87.48-.22 1.005-.33 1.575-.33s1.09.11 1.56.33c.48.21.89.5 1.23.87s.605.795.795 1.275.285.99.285 1.53c0 .08-.005.16-.015.24 0 .08-.005.135-.015.165h-6.675c.03.42.125.81.285 1.17.17.35.38.655.63.915.26.26.555.465.885.615.34.14.7.21 1.08.21.26 0 .515-.035.765-.105s.48-.165.69-.285.395-.265.555-.435c.17-.18.3-.375.39-.585l.885.24c-.12.29-.29.555-.51.795-.22.23-.475.435-.765.615-.29.17-.61.3-.96.39-.35.1-.71.15-1.08.15zm2.88-4.47c-.03-.42-.13-.8-.3-1.14-.16-.35-.37-.65-.63-.9-.25-.25-.545-.445-.885-.585s-.7-.21-1.08-.21-.74.07-1.08.21-.64.335-.9.585c-.25.25-.455.55-.615.9-.15.35-.24.73-.27 1.14z"/></g></svg>