<svg width="743" height="113" viewBox="0 0 743 113" fill="none" xmlns="http://www.w3.org/2000/svg">
<circle cx="548" cy="40" r="38.5" stroke="white" stroke-opacity="0.8" stroke-width="3"/>
<path d="M539.351 25.2376L564.403 39.7015L539.351 54.1654L539.351 25.2376Z" stroke="white" stroke-opacity="0.8" stroke-width="3"/>
<path d="M432 14H280C265.641 14 254 25.6406 254 40C254 54.3594 265.641 66 280 66H432C446.359 66 458 54.3594 458 40C458 25.6406 446.359 14 432 14Z" stroke="white" stroke-miterlimit="10"/>
<path d="M311.624 44.864H315.624V46H310.168V34.72H311.624V44.864ZM318.562 35.904V39.76H322.85V40.88H318.562V44.816H323.33V46H317.106V34.72H323.33V35.904H318.562ZM331.807 43.392H326.847L325.903 46H324.335L328.511 34.928H330.159L334.319 46H332.751L331.807 43.392ZM331.391 42.256L329.327 36.56L327.263 42.256H331.391ZM341.777 46L338.833 41.392H337.249V46H335.793V34.72H339.505C340.785 34.72 341.745 35.0293 342.385 35.648C343.025 36.256 343.345 37.0667 343.345 38.08C343.345 38.9973 343.089 39.7387 342.577 40.304C342.065 40.8587 341.324 41.2053 340.353 41.344L343.425 46H341.777ZM337.249 40.336H339.377C341.03 40.336 341.857 39.6107 341.857 38.16C341.857 36.7093 341.03 35.984 339.377 35.984H337.249V40.336ZM353.889 46H352.433L346.577 37.088V46H345.121V34.72H346.577L352.433 43.648V34.72H353.889V46ZM371.48 34.912V46H370.024V37.152L366.488 46H365.192L361.64 37.184V46H360.184V34.912H361.928L365.864 44.224L369.736 34.912H371.48ZM378.977 34.576C380.022 34.576 380.961 34.8213 381.793 35.312C382.635 35.8027 383.297 36.4907 383.777 37.376C384.257 38.2507 384.497 39.2427 384.497 40.352C384.497 41.4613 384.257 42.4587 383.777 43.344C383.297 44.2187 382.635 44.9013 381.793 45.392C380.961 45.8827 380.022 46.128 378.977 46.128C377.931 46.128 376.982 45.8827 376.129 45.392C375.286 44.9013 374.625 44.2187 374.145 43.344C373.665 42.4587 373.425 41.4613 373.425 40.352C373.425 39.2427 373.665 38.2507 374.145 37.376C374.625 36.4907 375.286 35.8027 376.129 35.312C376.982 34.8213 377.931 34.576 378.977 34.576ZM378.977 35.936C378.198 35.936 377.499 36.1173 376.881 36.48C376.273 36.832 375.793 37.344 375.441 38.016C375.099 38.6773 374.929 39.456 374.929 40.352C374.929 41.2373 375.099 42.016 375.441 42.688C375.793 43.36 376.273 43.8773 376.881 44.24C377.499 44.592 378.198 44.768 378.977 44.768C379.745 44.768 380.433 44.5867 381.041 44.224C381.659 43.8613 382.139 43.3493 382.481 42.688C382.833 42.016 383.009 41.2373 383.009 40.352C383.009 39.456 382.833 38.6773 382.481 38.016C382.139 37.344 381.659 36.832 381.041 36.48C380.433 36.1173 379.745 35.936 378.977 35.936ZM392.449 46L389.505 41.392H387.921V46H386.465V34.72H390.177C391.457 34.72 392.417 35.0293 393.057 35.648C393.697 36.256 394.017 37.0667 394.017 38.08C394.017 38.9973 393.761 39.7387 393.249 40.304C392.737 40.8587 391.996 41.2053 391.025 41.344L394.097 46H392.449ZM387.921 40.336H390.049C391.702 40.336 392.529 39.6107 392.529 38.16C392.529 36.7093 391.702 35.984 390.049 35.984H387.921V40.336ZM397.249 35.904V39.76H401.537V40.88H397.249V44.816H402.017V46H395.793V34.72H402.017V35.904H397.249Z" fill="white"/>
<path d="M178 14H26C11.6406 14 0 25.6406 0 40C0 54.3594 11.6406 66 26 66H178C192.359 66 204 54.3594 204 40C204 25.6406 192.359 14 178 14Z" fill="#B9D053"/>
<path d="M41.1931 34.72L44.6331 44.384L48.1211 34.72H49.7051L45.5611 46H43.7211L39.5931 34.72H41.1931ZM52.6318 34.72V46H51.1758V34.72H52.6318ZM56.4287 35.904V39.76H60.7167V40.88H56.4287V44.816H61.1967V46H54.9727V34.72H61.1967V35.904H56.4287ZM76.9384 34.72L74.0744 46H72.2984L69.6904 36.784L67.0824 46H65.3064L62.4264 34.72H64.0424L66.2024 44.304L68.8744 34.72H70.4904L73.1624 44.272L75.3384 34.72H76.9384ZM89.7337 43.072C89.7337 43.6053 89.6057 44.1013 89.3497 44.56C89.0937 45.0187 88.7044 45.392 88.1817 45.68C87.659 45.968 87.0137 46.112 86.2457 46.112C85.499 46.112 84.8324 45.9787 84.2457 45.712C83.6697 45.4347 83.2057 45.0613 82.8537 44.592C82.5124 44.112 82.315 43.568 82.2617 42.96H83.8137C83.8457 43.28 83.9524 43.5947 84.1337 43.904C84.3257 44.2027 84.5924 44.4533 84.9337 44.656C85.2857 44.848 85.707 44.944 86.1977 44.944C86.8377 44.944 87.3284 44.7733 87.6697 44.432C88.011 44.0907 88.1817 43.6533 88.1817 43.12C88.1817 42.6613 88.059 42.288 87.8137 42C87.579 41.712 87.2857 41.488 86.9337 41.328C86.5817 41.1573 86.1017 40.976 85.4937 40.784C84.779 40.5493 84.203 40.3307 83.7657 40.128C83.339 39.9147 82.971 39.6 82.6617 39.184C82.363 38.768 82.2137 38.2187 82.2137 37.536C82.2137 36.9493 82.3524 36.432 82.6297 35.984C82.9177 35.536 83.323 35.1893 83.8457 34.944C84.379 34.6987 85.003 34.576 85.7177 34.576C86.827 34.576 87.707 34.848 88.3577 35.392C89.0084 35.9253 89.387 36.608 89.4937 37.44H87.9257C87.8404 36.992 87.611 36.5973 87.2377 36.256C86.8644 35.9147 86.3577 35.744 85.7177 35.744C85.131 35.744 84.6617 35.8987 84.3097 36.208C83.9577 36.5067 83.7817 36.9333 83.7817 37.488C83.7817 37.9253 83.8937 38.2827 84.1177 38.56C84.3524 38.8267 84.6404 39.04 84.9817 39.2C85.323 39.3493 85.7924 39.52 86.3897 39.712C87.115 39.9467 87.6964 40.1707 88.1337 40.384C88.5817 40.5973 88.9604 40.9227 89.2697 41.36C89.579 41.7867 89.7337 42.3573 89.7337 43.072ZM96.8594 34.576C97.9048 34.576 98.8434 34.8213 99.6754 35.312C100.518 35.8027 101.179 36.4907 101.659 37.376C102.139 38.2507 102.379 39.2427 102.379 40.352C102.379 41.4613 102.139 42.4587 101.659 43.344C101.179 44.2187 100.518 44.9013 99.6754 45.392C98.8434 45.8827 97.9048 46.128 96.8594 46.128C95.8141 46.128 94.8648 45.8827 94.0114 45.392C93.1688 44.9013 92.5074 44.2187 92.0274 43.344C91.5474 42.4587 91.3074 41.4613 91.3074 40.352C91.3074 39.2427 91.5474 38.2507 92.0274 37.376C92.5074 36.4907 93.1688 35.8027 94.0114 35.312C94.8648 34.8213 95.8141 34.576 96.8594 34.576ZM96.8594 35.936C96.0808 35.936 95.3821 36.1173 94.7634 36.48C94.1554 36.832 93.6754 37.344 93.3234 38.016C92.9821 38.6773 92.8114 39.456 92.8114 40.352C92.8114 41.2373 92.9821 42.016 93.3234 42.688C93.6754 43.36 94.1554 43.8773 94.7634 44.24C95.3821 44.592 96.0808 44.768 96.8594 44.768C97.6274 44.768 98.3154 44.5867 98.9234 44.224C99.5421 43.8613 100.022 43.3493 100.363 42.688C100.715 42.016 100.891 41.2373 100.891 40.352C100.891 39.456 100.715 38.6773 100.363 38.016C100.022 37.344 99.5421 36.832 98.9234 36.48C98.3154 36.1173 97.6274 35.936 96.8594 35.936ZM105.804 44.864H109.804V46H104.348V34.72H105.804V44.864ZM112.661 34.72V41.488C112.661 42.5973 112.907 43.4187 113.397 43.952C113.888 44.4747 114.565 44.736 115.429 44.736C116.283 44.736 116.949 44.4693 117.429 43.936C117.909 43.4027 118.149 42.5867 118.149 41.488V34.72H119.605V41.488C119.605 43.024 119.221 44.1813 118.453 44.96C117.696 45.728 116.677 46.112 115.397 46.112C114.128 46.112 113.109 45.728 112.341 44.96C111.584 44.1813 111.205 43.024 111.205 41.488V34.72H112.661ZM128.775 34.72V35.904H125.591V46H124.135V35.904H120.951V34.72H128.775ZM131.679 34.72V46H130.223V34.72H131.679ZM139.188 34.576C140.233 34.576 141.172 34.8213 142.004 35.312C142.846 35.8027 143.508 36.4907 143.988 37.376C144.468 38.2507 144.708 39.2427 144.708 40.352C144.708 41.4613 144.468 42.4587 143.988 43.344C143.508 44.2187 142.846 44.9013 142.004 45.392C141.172 45.8827 140.233 46.128 139.188 46.128C138.142 46.128 137.193 45.8827 136.34 45.392C135.497 44.9013 134.836 44.2187 134.356 43.344C133.876 42.4587 133.636 41.4613 133.636 40.352C133.636 39.2427 133.876 38.2507 134.356 37.376C134.836 36.4907 135.497 35.8027 136.34 35.312C137.193 34.8213 138.142 34.576 139.188 34.576ZM139.188 35.936C138.409 35.936 137.71 36.1173 137.092 36.48C136.484 36.832 136.004 37.344 135.652 38.016C135.31 38.6773 135.14 39.456 135.14 40.352C135.14 41.2373 135.31 42.016 135.652 42.688C136.004 43.36 136.484 43.8773 137.092 44.24C137.71 44.592 138.409 44.768 139.188 44.768C139.956 44.768 140.644 44.5867 141.252 44.224C141.87 43.8613 142.35 43.3493 142.692 42.688C143.044 42.016 143.22 41.2373 143.22 40.352C143.22 39.456 143.044 38.6773 142.692 38.016C142.35 37.344 141.87 36.832 141.252 36.48C140.644 36.1173 139.956 35.936 139.188 35.936ZM155.444 46H153.988L148.132 37.088V46H146.676V34.72H148.132L153.988 43.648V34.72H155.444V46ZM164.921 43.072C164.921 43.6053 164.793 44.1013 164.537 44.56C164.281 45.0187 163.892 45.392 163.369 45.68C162.847 45.968 162.201 46.112 161.433 46.112C160.687 46.112 160.02 45.9787 159.433 45.712C158.857 45.4347 158.393 45.0613 158.041 44.592C157.7 44.112 157.503 43.568 157.449 42.96H159.001C159.033 43.28 159.14 43.5947 159.321 43.904C159.513 44.2027 159.78 44.4533 160.121 44.656C160.473 44.848 160.895 44.944 161.385 44.944C162.025 44.944 162.516 44.7733 162.857 44.432C163.199 44.0907 163.369 43.6533 163.369 43.12C163.369 42.6613 163.247 42.288 163.001 42C162.767 41.712 162.473 41.488 162.121 41.328C161.769 41.1573 161.289 40.976 160.681 40.784C159.967 40.5493 159.391 40.3307 158.953 40.128C158.527 39.9147 158.159 39.6 157.849 39.184C157.551 38.768 157.401 38.2187 157.401 37.536C157.401 36.9493 157.54 36.432 157.817 35.984C158.105 35.536 158.511 35.1893 159.033 34.944C159.567 34.6987 160.191 34.576 160.905 34.576C162.015 34.576 162.895 34.848 163.545 35.392C164.196 35.9253 164.575 36.608 164.681 37.44H163.113C163.028 36.992 162.799 36.5973 162.425 36.256C162.052 35.9147 161.545 35.744 160.905 35.744C160.319 35.744 159.849 35.8987 159.497 36.208C159.145 36.5067 158.969 36.9333 158.969 37.488C158.969 37.9253 159.081 38.2827 159.305 38.56C159.54 38.8267 159.828 39.04 160.169 39.2C160.511 39.3493 160.98 39.52 161.577 39.712C162.303 39.9467 162.884 40.1707 163.321 40.384C163.769 40.5973 164.148 40.9227 164.457 41.36C164.767 41.7867 164.921 42.3573 164.921 43.072Z" fill="black"/>
<path d="M660.396 18C655.967 17.9998 651.637 19.3131 647.954 21.7738C644.271 24.2344 641.4 27.732 639.705 31.8241C638.01 35.9162 637.566 40.4192 638.43 44.7634C639.294 49.1077 641.427 53.0982 644.559 56.2303C647.691 59.3624 651.681 61.4954 656.026 62.3596C660.37 63.2238 664.873 62.7804 668.965 61.0854C673.057 59.3904 676.555 56.52 679.016 52.8371C681.477 49.1542 682.79 44.8244 682.79 40.395C682.783 34.4577 680.422 28.7654 676.224 24.567C672.025 20.3686 666.333 18.0069 660.396 18V18ZM660.396 60.923C656.336 60.9232 652.366 59.7193 648.99 57.4637C645.614 55.208 642.983 52.0018 641.429 48.2506C639.875 44.4993 639.468 40.3716 640.26 36.3892C641.053 32.4069 643.008 28.7489 645.879 25.8778C648.75 23.0067 652.408 21.0515 656.39 20.2594C660.373 19.4673 664.5 19.874 668.252 21.4279C672.003 22.9818 675.209 25.6132 677.465 28.9893C679.72 32.3655 680.924 36.3347 680.924 40.395C680.918 45.8374 678.753 51.0551 674.904 54.9035C671.056 58.7518 665.838 60.9166 660.396 60.923Z" fill="white" fill-opacity="0.7"/>
<path d="M672.526 39.4621H650.517L657.322 32.6571C657.489 32.4806 657.581 32.2458 657.578 32.0027C657.575 31.7595 657.477 31.5272 657.305 31.3553C657.133 31.1833 656.901 31.0853 656.657 31.0821C656.414 31.0789 656.179 31.1707 656.003 31.3381L647.603 39.7381C647.428 39.913 647.33 40.1503 647.33 40.3976C647.33 40.6449 647.428 40.8821 647.603 41.0571L656.003 49.4571C656.178 49.6321 656.415 49.7305 656.663 49.7306C656.91 49.7307 657.147 49.6325 657.322 49.4576C657.498 49.2827 657.596 49.0454 657.596 48.7979C657.596 48.5505 657.498 48.3131 657.323 48.1381L650.518 41.3331H672.526C672.773 41.3331 673.011 41.2348 673.186 41.0598C673.361 40.8848 673.459 40.6475 673.459 40.4001C673.459 40.1526 673.361 39.9153 673.186 39.7403C673.011 39.5654 672.773 39.4671 672.526 39.4671V39.4621Z" fill="white" fill-opacity="0.7"/>
<path d="M720.396 18C724.825 18 729.155 19.3134 732.838 21.7742C736.521 24.235 739.391 27.7327 741.086 31.8248C742.781 35.917 743.225 40.4198 742.361 44.764C741.497 49.1083 739.364 53.0987 736.232 56.2307C733.1 59.3627 729.109 61.4956 724.765 62.3597C720.421 63.2238 715.918 62.7803 711.826 61.0853C707.734 59.3903 704.236 56.5198 701.775 52.837C699.314 49.1542 698.001 44.8243 698.001 40.395C698.008 34.4575 700.369 28.7651 704.568 24.5667C708.766 20.3682 714.458 18.0066 720.396 18V18ZM720.396 60.923C724.456 60.923 728.425 59.719 731.801 57.4632C735.177 55.2074 737.809 52.0011 739.362 48.2499C740.916 44.4986 741.323 40.3709 740.53 36.3886C739.738 32.4064 737.783 28.7484 734.912 25.8775C732.041 23.0065 728.383 21.0513 724.4 20.2593C720.418 19.4673 716.29 19.874 712.539 21.428C708.788 22.9819 705.582 25.6133 703.326 28.9894C701.071 32.3655 699.867 36.3347 699.867 40.395C699.873 45.8376 702.038 51.0554 705.887 54.9038C709.735 58.7522 714.953 60.9169 720.396 60.923V60.923Z" fill="white"/>
<path d="M708.265 39.4621H730.273L723.468 32.6571C723.301 32.4806 723.209 32.2458 723.212 32.0027C723.215 31.7595 723.313 31.5272 723.485 31.3553C723.657 31.1833 723.889 31.0853 724.133 31.0821C724.376 31.0789 724.611 31.1707 724.787 31.3381L733.187 39.7381C733.362 39.913 733.46 40.1503 733.46 40.3976C733.46 40.6449 733.362 40.8821 733.187 41.0571L724.787 49.4571C724.7 49.5438 724.598 49.6125 724.484 49.6595C724.371 49.7064 724.25 49.7306 724.127 49.7306C724.005 49.7307 723.883 49.7066 723.77 49.6597C723.657 49.6129 723.554 49.5442 723.467 49.4576C723.381 49.371 723.312 49.2681 723.265 49.155C723.218 49.0418 723.194 48.9205 723.194 48.7979C723.194 48.6754 723.218 48.5541 723.265 48.4409C723.312 48.3276 723.38 48.2248 723.467 48.1381L730.272 41.3331H708.265C708.018 41.3331 707.78 41.2348 707.605 41.0598C707.43 40.8848 707.332 40.6475 707.332 40.4001C707.332 40.1526 707.43 39.9153 707.605 39.7403C707.78 39.5654 708.018 39.4671 708.265 39.4671V39.4621Z" fill="white"/>
<path d="M52.35 105V94.35H56.76C57.22 94.35 57.64 94.45 58.02 94.65C58.41 94.84 58.745 95.095 59.025 95.415C59.305 95.725 59.52 96.08 59.67 96.48C59.83 96.88 59.91 97.285 59.91 97.695C59.91 98.135 59.835 98.56 59.685 98.97C59.545 99.37 59.34 99.725 59.07 100.035C58.8 100.345 58.475 100.595 58.095 100.785C57.725 100.975 57.31 101.07 56.85 101.07H53.385V105H52.35ZM53.385 100.14H56.79C57.1 100.14 57.38 100.075 57.63 99.945C57.89 99.805 58.11 99.625 58.29 99.405C58.47 99.175 58.61 98.915 58.71 98.625C58.81 98.325 58.86 98.015 58.86 97.695C58.86 97.365 58.8 97.055 58.68 96.765C58.57 96.465 58.415 96.205 58.215 95.985C58.025 95.765 57.795 95.595 57.525 95.475C57.265 95.345 56.99 95.28 56.7 95.28H53.385V100.14ZM65.3114 98.085C64.6214 98.105 64.0214 98.295 63.5114 98.655C63.0014 99.015 62.6414 99.51 62.4314 100.14V105H61.4114V97.185H62.3714V99.06C62.6414 98.51 62.9964 98.055 63.4364 97.695C63.8764 97.325 64.3514 97.14 64.8614 97.14C64.9514 97.14 65.0364 97.14 65.1164 97.14C65.1964 97.14 65.2614 97.145 65.3114 97.155V98.085ZM66.6702 105V97.185H67.6902V105H66.6702ZM66.6702 95.55V94.05H67.6902V95.55H66.6702ZM81.5032 105H80.4832V100.635C80.4832 99.725 80.3382 99.055 80.0482 98.625C79.7682 98.195 79.3382 97.98 78.7582 97.98C78.4582 97.98 78.1732 98.035 77.9032 98.145C77.6432 98.255 77.3982 98.41 77.1682 98.61C76.9482 98.81 76.7532 99.05 76.5832 99.33C76.4132 99.6 76.2832 99.9 76.1932 100.23V105H75.1732V100.635C75.1732 99.705 75.0332 99.03 74.7532 98.61C74.4732 98.19 74.0432 97.98 73.4632 97.98C72.8732 97.98 72.3482 98.185 71.8882 98.595C71.4282 99.005 71.0982 99.545 70.8982 100.215V105H69.8782V97.185H70.8082V98.955C71.1282 98.355 71.5482 97.89 72.0682 97.56C72.5882 97.22 73.1632 97.05 73.7932 97.05C74.4532 97.05 74.9832 97.235 75.3832 97.605C75.7832 97.975 76.0232 98.46 76.1032 99.06C76.8332 97.72 77.8432 97.05 79.1332 97.05C79.5632 97.05 79.9282 97.13 80.2282 97.29C80.5382 97.45 80.7832 97.68 80.9632 97.98C81.1532 98.27 81.2882 98.625 81.3682 99.045C81.4582 99.455 81.5032 99.915 81.5032 100.425V105ZM85.6884 105.15C85.2884 105.15 84.9234 105.09 84.5934 104.97C84.2634 104.84 83.9784 104.665 83.7384 104.445C83.5084 104.225 83.3284 103.97 83.1984 103.68C83.0684 103.39 83.0034 103.085 83.0034 102.765C83.0034 102.405 83.0834 102.08 83.2434 101.79C83.4034 101.49 83.6284 101.235 83.9184 101.025C84.2084 100.815 84.5534 100.655 84.9534 100.545C85.3634 100.425 85.8134 100.365 86.3034 100.365C86.6934 100.365 87.0934 100.4 87.5034 100.47C87.9134 100.54 88.2784 100.64 88.5984 100.77V100.065C88.5984 99.375 88.3984 98.83 87.9984 98.43C87.6084 98.02 87.0784 97.815 86.4084 97.815C85.9884 97.815 85.5684 97.895 85.1484 98.055C84.7384 98.215 84.3184 98.445 83.8884 98.745L83.5284 98.07C84.0384 97.73 84.5334 97.475 85.0134 97.305C85.4934 97.135 85.9934 97.05 86.5134 97.05C87.4634 97.05 88.2184 97.325 88.7784 97.875C89.3384 98.425 89.6184 99.185 89.6184 100.155V103.68C89.6184 103.96 89.7384 104.1 89.9784 104.1V105C89.8984 105.01 89.8234 105.015 89.7534 105.015C89.6834 105.025 89.6234 105.03 89.5734 105.03C89.3734 105.03 89.1884 104.97 89.0184 104.85C88.8584 104.73 88.7684 104.55 88.7484 104.31L88.7184 103.695C88.3784 104.155 87.9284 104.515 87.3684 104.775C86.8184 105.025 86.2584 105.15 85.6884 105.15ZM85.9434 104.37C86.3934 104.37 86.8384 104.275 87.2784 104.085C87.7284 103.885 88.0834 103.615 88.3434 103.275C88.4134 103.185 88.4734 103.09 88.5234 102.99C88.5734 102.88 88.5984 102.78 88.5984 102.69V101.415C88.2584 101.285 87.9034 101.185 87.5334 101.115C87.1634 101.045 86.8034 101.01 86.4534 101.01C85.7234 101.01 85.1284 101.16 84.6684 101.46C84.2184 101.75 83.9934 102.155 83.9934 102.675C83.9934 102.885 84.0334 103.09 84.1134 103.29C84.1934 103.49 84.3134 103.67 84.4734 103.83C84.6434 103.99 84.8484 104.12 85.0884 104.22C85.3284 104.32 85.6134 104.37 85.9434 104.37ZM95.7362 98.085C95.0462 98.105 94.4462 98.295 93.9362 98.655C93.4262 99.015 93.0662 99.51 92.8562 100.14V105H91.8362V97.185H92.7962V99.06C93.0662 98.51 93.4212 98.055 93.8612 97.695C94.3012 97.325 94.7762 97.14 95.2862 97.14C95.3762 97.14 95.4612 97.14 95.5412 97.14C95.6212 97.14 95.6862 97.145 95.7362 97.155V98.085ZM97.545 107.415C97.595 107.425 97.645 107.43 97.695 107.43C97.745 107.44 97.795 107.445 97.845 107.445C97.945 107.445 98.05 107.435 98.16 107.415C98.28 107.395 98.365 107.375 98.415 107.355C98.465 107.335 98.515 107.29 98.565 107.22C98.625 107.16 98.695 107.045 98.775 106.875C98.865 106.715 98.975 106.485 99.105 106.185C99.235 105.895 99.4 105.5 99.6 105L96.195 97.185H97.26L100.155 104.055L102.825 97.185H103.8L99.735 107.265C99.585 107.635 99.38 107.91 99.12 108.09C98.87 108.27 98.515 108.36 98.055 108.36C97.865 108.36 97.695 108.345 97.545 108.315V107.415ZM116.903 102.255C116.903 102.655 116.823 103.025 116.663 103.365C116.503 103.695 116.288 103.985 116.018 104.235C115.748 104.475 115.433 104.665 115.073 104.805C114.713 104.935 114.328 105 113.918 105H108.908V94.35H114.023C114.393 94.35 114.728 94.43 115.028 94.59C115.328 94.75 115.583 94.96 115.793 95.22C116.003 95.47 116.163 95.76 116.273 96.09C116.393 96.41 116.453 96.735 116.453 97.065C116.453 97.605 116.318 98.1 116.048 98.55C115.778 98.99 115.403 99.32 114.923 99.54C115.533 99.72 116.013 100.055 116.363 100.545C116.723 101.035 116.903 101.605 116.903 102.255ZM115.853 102.075C115.853 101.815 115.808 101.565 115.718 101.325C115.628 101.075 115.498 100.86 115.328 100.68C115.168 100.49 114.973 100.34 114.743 100.23C114.523 100.11 114.283 100.05 114.023 100.05H109.943V104.085H113.918C114.188 104.085 114.443 104.03 114.683 103.92C114.923 103.81 115.128 103.665 115.298 103.485C115.468 103.295 115.603 103.08 115.703 102.84C115.803 102.59 115.853 102.335 115.853 102.075ZM109.943 95.265V99.195H113.603C113.863 99.195 114.103 99.14 114.323 99.03C114.553 98.92 114.748 98.775 114.908 98.595C115.078 98.415 115.208 98.21 115.298 97.98C115.388 97.74 115.433 97.49 115.433 97.23C115.433 96.96 115.388 96.705 115.298 96.465C115.218 96.225 115.098 96.02 114.938 95.85C114.788 95.67 114.603 95.53 114.383 95.43C114.173 95.32 113.943 95.265 113.693 95.265H109.943ZM121.073 105.15C120.253 105.15 119.633 104.87 119.213 104.31C118.793 103.74 118.583 102.895 118.583 101.775V97.185H119.603V101.595C119.603 103.365 120.208 104.25 121.417 104.25C121.718 104.25 122.013 104.2 122.303 104.1C122.593 104 122.858 103.855 123.098 103.665C123.348 103.475 123.568 103.25 123.758 102.99C123.958 102.73 124.118 102.435 124.238 102.105V97.185H125.258V103.68C125.258 103.96 125.383 104.1 125.633 104.1V105C125.433 105.03 125.293 105.045 125.213 105.045C124.983 105.045 124.783 104.975 124.613 104.835C124.453 104.695 124.373 104.52 124.373 104.31V103.23C124.023 103.84 123.558 104.315 122.978 104.655C122.398 104.985 121.763 105.15 121.073 105.15ZM131.329 104.625C131.269 104.655 131.179 104.695 131.059 104.745C130.949 104.795 130.819 104.845 130.669 104.895C130.519 104.945 130.349 104.99 130.159 105.03C129.969 105.07 129.769 105.09 129.559 105.09C129.339 105.09 129.129 105.06 128.929 105C128.729 104.94 128.554 104.85 128.404 104.73C128.254 104.6 128.134 104.44 128.044 104.25C127.954 104.06 127.909 103.84 127.909 103.59V97.995H126.829V97.185H127.909V94.545H128.929V97.185H130.729V97.995H128.929V103.305C128.949 103.595 129.049 103.81 129.229 103.95C129.409 104.08 129.624 104.145 129.874 104.145C130.164 104.145 130.419 104.1 130.639 104.01C130.859 103.91 130.999 103.84 131.059 103.8L131.329 104.625ZM136.295 104.625C136.235 104.655 136.145 104.695 136.025 104.745C135.915 104.795 135.785 104.845 135.635 104.895C135.485 104.945 135.315 104.99 135.125 105.03C134.935 105.07 134.735 105.09 134.525 105.09C134.305 105.09 134.095 105.06 133.895 105C133.695 104.94 133.52 104.85 133.37 104.73C133.22 104.6 133.1 104.44 133.01 104.25C132.92 104.06 132.875 103.84 132.875 103.59V97.995H131.795V97.185H132.875V94.545H133.895V97.185H135.695V97.995H133.895V103.305C133.915 103.595 134.015 103.81 134.195 103.95C134.375 104.08 134.59 104.145 134.84 104.145C135.13 104.145 135.385 104.1 135.605 104.01C135.825 103.91 135.965 103.84 136.025 103.8L136.295 104.625ZM140.709 105.15C140.139 105.15 139.614 105.045 139.134 104.835C138.664 104.615 138.254 104.32 137.904 103.95C137.564 103.58 137.299 103.15 137.109 102.66C136.919 102.17 136.824 101.655 136.824 101.115C136.824 100.565 136.919 100.045 137.109 99.555C137.309 99.065 137.579 98.635 137.919 98.265C138.269 97.895 138.679 97.6 139.149 97.38C139.629 97.16 140.149 97.05 140.709 97.05C141.269 97.05 141.784 97.16 142.254 97.38C142.734 97.6 143.144 97.895 143.484 98.265C143.834 98.635 144.104 99.065 144.294 99.555C144.494 100.045 144.594 100.565 144.594 101.115C144.594 101.655 144.494 102.17 144.294 102.66C144.104 103.15 143.834 103.58 143.484 103.95C143.144 104.32 142.734 104.615 142.254 104.835C141.784 105.045 141.269 105.15 140.709 105.15ZM137.874 101.13C137.874 101.57 137.944 101.98 138.084 102.36C138.234 102.73 138.434 103.06 138.684 103.35C138.944 103.63 139.244 103.85 139.584 104.01C139.934 104.17 140.304 104.25 140.694 104.25C141.084 104.25 141.449 104.17 141.789 104.01C142.139 103.84 142.444 103.615 142.704 103.335C142.964 103.045 143.169 102.71 143.319 102.33C143.469 101.95 143.544 101.54 143.544 101.1C143.544 100.67 143.469 100.265 143.319 99.885C143.169 99.495 142.964 99.16 142.704 98.88C142.444 98.59 142.144 98.365 141.804 98.205C141.464 98.035 141.099 97.95 140.709 97.95C140.319 97.95 139.949 98.035 139.599 98.205C139.259 98.365 138.959 98.59 138.699 98.88C138.449 99.17 138.249 99.51 138.099 99.9C137.949 100.28 137.874 100.69 137.874 101.13ZM152.825 105H151.805V100.635C151.805 99.705 151.67 99.03 151.4 98.61C151.13 98.19 150.71 97.98 150.14 97.98C149.84 97.98 149.54 98.035 149.24 98.145C148.94 98.255 148.66 98.41 148.4 98.61C148.14 98.81 147.91 99.05 147.71 99.33C147.52 99.6 147.375 99.895 147.275 100.215V105H146.255V97.185H147.185V98.955C147.345 98.675 147.54 98.42 147.77 98.19C148.01 97.95 148.275 97.745 148.565 97.575C148.855 97.405 149.16 97.275 149.48 97.185C149.81 97.095 150.15 97.05 150.5 97.05C150.94 97.05 151.305 97.13 151.595 97.29C151.895 97.45 152.135 97.675 152.315 97.965C152.495 98.255 152.625 98.61 152.705 99.03C152.785 99.45 152.825 99.915 152.825 100.425V105Z" fill="white"/>
<path d="M300.605 96.345C300.305 96.005 299.9 95.73 299.39 95.52C298.89 95.31 298.325 95.205 297.695 95.205C296.745 95.205 296.055 95.385 295.625 95.745C295.195 96.095 294.98 96.575 294.98 97.185C294.98 97.505 295.035 97.77 295.145 97.98C295.265 98.18 295.445 98.355 295.685 98.505C295.935 98.655 296.245 98.785 296.615 98.895C296.995 99.005 297.44 99.115 297.95 99.225C298.52 99.345 299.03 99.48 299.48 99.63C299.93 99.77 300.315 99.955 300.635 100.185C300.955 100.405 301.2 100.68 301.37 101.01C301.54 101.33 301.625 101.73 301.625 102.21C301.625 102.7 301.53 103.125 301.34 103.485C301.15 103.845 300.885 104.145 300.545 104.385C300.205 104.625 299.8 104.805 299.33 104.925C298.86 105.035 298.35 105.09 297.8 105.09C296.13 105.09 294.705 104.575 293.525 103.545L294.035 102.69C294.425 103.1 294.95 103.45 295.61 103.74C296.27 104.02 297.005 104.16 297.815 104.16C298.665 104.16 299.33 104.01 299.81 103.71C300.29 103.4 300.53 102.935 300.53 102.315C300.53 101.985 300.46 101.71 300.32 101.49C300.19 101.26 299.99 101.065 299.72 100.905C299.45 100.735 299.11 100.59 298.7 100.47C298.3 100.35 297.835 100.23 297.305 100.11C296.745 99.98 296.255 99.845 295.835 99.705C295.415 99.565 295.06 99.39 294.77 99.18C294.49 98.97 294.275 98.72 294.125 98.43C293.985 98.13 293.915 97.765 293.915 97.335C293.915 96.845 294.005 96.41 294.185 96.03C294.375 95.64 294.635 95.32 294.965 95.07C295.305 94.81 295.705 94.615 296.165 94.485C296.635 94.345 297.15 94.275 297.71 94.275C298.41 94.275 299.035 94.385 299.585 94.605C300.145 94.815 300.65 95.115 301.1 95.505L300.605 96.345ZM306.7 105.15C306.13 105.15 305.605 105.045 305.125 104.835C304.645 104.615 304.23 104.32 303.88 103.95C303.53 103.57 303.255 103.135 303.055 102.645C302.865 102.155 302.77 101.63 302.77 101.07C302.77 100.52 302.865 100.005 303.055 99.525C303.255 99.035 303.53 98.61 303.88 98.25C304.23 97.88 304.64 97.59 305.11 97.38C305.59 97.16 306.115 97.05 306.685 97.05C307.255 97.05 307.775 97.16 308.245 97.38C308.725 97.59 309.135 97.88 309.475 98.25C309.815 98.62 310.08 99.045 310.27 99.525C310.46 100.005 310.555 100.515 310.555 101.055C310.555 101.135 310.55 101.215 310.54 101.295C310.54 101.375 310.535 101.43 310.525 101.46H303.85C303.88 101.88 303.975 102.27 304.135 102.63C304.305 102.98 304.515 103.285 304.765 103.545C305.025 103.805 305.32 104.01 305.65 104.16C305.99 104.3 306.35 104.37 306.73 104.37C306.99 104.37 307.245 104.335 307.495 104.265C307.745 104.195 307.975 104.1 308.185 103.98C308.395 103.86 308.58 103.715 308.74 103.545C308.91 103.365 309.04 103.17 309.13 102.96L310.015 103.2C309.895 103.49 309.725 103.755 309.505 103.995C309.285 104.225 309.03 104.43 308.74 104.61C308.45 104.78 308.13 104.91 307.78 105C307.43 105.1 307.07 105.15 306.7 105.15ZM309.58 100.68C309.55 100.26 309.45 99.88 309.28 99.54C309.12 99.19 308.91 98.89 308.65 98.64C308.4 98.39 308.105 98.195 307.765 98.055C307.425 97.915 307.065 97.845 306.685 97.845C306.305 97.845 305.945 97.915 305.605 98.055C305.265 98.195 304.965 98.39 304.705 98.64C304.455 98.89 304.25 99.19 304.09 99.54C303.94 99.89 303.85 100.27 303.82 100.68H309.58ZM311.573 101.07C311.573 100.52 311.668 100 311.858 99.51C312.048 99.02 312.313 98.595 312.653 98.235C313.003 97.865 313.418 97.575 313.898 97.365C314.378 97.155 314.908 97.05 315.488 97.05C316.228 97.05 316.873 97.22 317.423 97.56C317.973 97.89 318.388 98.34 318.668 98.91L317.678 99.225C317.458 98.825 317.153 98.515 316.763 98.295C316.373 98.065 315.938 97.95 315.458 97.95C315.058 97.95 314.683 98.03 314.333 98.19C313.993 98.35 313.693 98.57 313.433 98.85C313.183 99.12 312.983 99.445 312.833 99.825C312.693 100.205 312.623 100.62 312.623 101.07C312.623 101.51 312.698 101.925 312.848 102.315C312.998 102.705 313.203 103.045 313.463 103.335C313.723 103.615 314.023 103.84 314.363 104.01C314.713 104.17 315.083 104.25 315.473 104.25C315.723 104.25 315.968 104.215 316.208 104.145C316.458 104.075 316.688 103.98 316.898 103.86C317.108 103.73 317.288 103.585 317.438 103.425C317.588 103.265 317.693 103.095 317.753 102.915L318.743 103.215C318.633 103.495 318.473 103.755 318.263 103.995C318.053 104.225 317.803 104.43 317.513 104.61C317.233 104.78 316.918 104.91 316.568 105C316.228 105.1 315.873 105.15 315.503 105.15C314.933 105.15 314.408 105.045 313.928 104.835C313.448 104.615 313.033 104.32 312.683 103.95C312.333 103.57 312.058 103.135 311.858 102.645C311.668 102.155 311.573 101.63 311.573 101.07ZM323.617 105.15C323.047 105.15 322.522 105.045 322.042 104.835C321.572 104.615 321.162 104.32 320.812 103.95C320.472 103.58 320.207 103.15 320.017 102.66C319.827 102.17 319.732 101.655 319.732 101.115C319.732 100.565 319.827 100.045 320.017 99.555C320.217 99.065 320.487 98.635 320.827 98.265C321.177 97.895 321.587 97.6 322.057 97.38C322.537 97.16 323.057 97.05 323.617 97.05C324.177 97.05 324.692 97.16 325.162 97.38C325.642 97.6 326.052 97.895 326.392 98.265C326.742 98.635 327.012 99.065 327.202 99.555C327.402 100.045 327.502 100.565 327.502 101.115C327.502 101.655 327.402 102.17 327.202 102.66C327.012 103.15 326.742 103.58 326.392 103.95C326.052 104.32 325.642 104.615 325.162 104.835C324.692 105.045 324.177 105.15 323.617 105.15ZM320.782 101.13C320.782 101.57 320.852 101.98 320.992 102.36C321.142 102.73 321.342 103.06 321.592 103.35C321.852 103.63 322.152 103.85 322.492 104.01C322.842 104.17 323.212 104.25 323.602 104.25C323.992 104.25 324.357 104.17 324.697 104.01C325.047 103.84 325.352 103.615 325.612 103.335C325.872 103.045 326.077 102.71 326.227 102.33C326.377 101.95 326.452 101.54 326.452 101.1C326.452 100.67 326.377 100.265 326.227 99.885C326.077 99.495 325.872 99.16 325.612 98.88C325.352 98.59 325.052 98.365 324.712 98.205C324.372 98.035 324.007 97.95 323.617 97.95C323.227 97.95 322.857 98.035 322.507 98.205C322.167 98.365 321.867 98.59 321.607 98.88C321.357 99.17 321.157 99.51 321.007 99.9C320.857 100.28 320.782 100.69 320.782 101.13ZM335.733 105H334.713V100.635C334.713 99.705 334.578 99.03 334.308 98.61C334.038 98.19 333.618 97.98 333.048 97.98C332.748 97.98 332.448 98.035 332.148 98.145C331.848 98.255 331.568 98.41 331.308 98.61C331.048 98.81 330.818 99.05 330.618 99.33C330.428 99.6 330.283 99.895 330.183 100.215V105H329.163V97.185H330.093V98.955C330.253 98.675 330.448 98.42 330.678 98.19C330.918 97.95 331.183 97.745 331.473 97.575C331.763 97.405 332.068 97.275 332.388 97.185C332.718 97.095 333.058 97.05 333.408 97.05C333.848 97.05 334.213 97.13 334.503 97.29C334.803 97.45 335.043 97.675 335.223 97.965C335.403 98.255 335.533 98.61 335.613 99.03C335.693 99.45 335.733 99.915 335.733 100.425V105ZM341.09 105.15C340.55 105.15 340.05 105.04 339.59 104.82C339.13 104.59 338.73 104.29 338.39 103.92C338.06 103.55 337.8 103.125 337.61 102.645C337.43 102.155 337.34 101.645 337.34 101.115C337.34 100.565 337.43 100.045 337.61 99.555C337.79 99.055 338.035 98.62 338.345 98.25C338.665 97.88 339.04 97.59 339.47 97.38C339.91 97.16 340.39 97.05 340.91 97.05C341.57 97.05 342.155 97.225 342.665 97.575C343.175 97.915 343.58 98.33 343.88 98.82V94.05H344.9V103.68C344.9 103.96 345.02 104.1 345.26 104.1V105C345.09 105.03 344.955 105.045 344.855 105.045C344.605 105.045 344.4 104.975 344.24 104.835C344.08 104.685 344 104.51 344 104.31V103.485C343.68 103.995 343.255 104.4 342.725 104.7C342.205 105 341.66 105.15 341.09 105.15ZM341.3 104.25C341.56 104.25 341.83 104.2 342.11 104.1C342.4 104 342.665 103.865 342.905 103.695C343.155 103.515 343.37 103.31 343.55 103.08C343.73 102.84 343.84 102.585 343.88 102.315V99.9C343.78 99.63 343.63 99.38 343.43 99.15C343.24 98.91 343.02 98.7 342.77 98.52C342.53 98.34 342.27 98.2 341.99 98.1C341.72 98 341.45 97.95 341.18 97.95C340.76 97.95 340.375 98.04 340.025 98.22C339.685 98.4 339.395 98.64 339.155 98.94C338.915 99.23 338.725 99.565 338.585 99.945C338.455 100.325 338.39 100.715 338.39 101.115C338.39 101.535 338.465 101.935 338.615 102.315C338.765 102.695 338.97 103.03 339.23 103.32C339.49 103.6 339.795 103.825 340.145 103.995C340.505 104.165 340.89 104.25 341.3 104.25ZM349.266 105.15C348.866 105.15 348.501 105.09 348.171 104.97C347.841 104.84 347.556 104.665 347.316 104.445C347.086 104.225 346.906 103.97 346.776 103.68C346.646 103.39 346.581 103.085 346.581 102.765C346.581 102.405 346.661 102.08 346.821 101.79C346.981 101.49 347.206 101.235 347.496 101.025C347.786 100.815 348.131 100.655 348.531 100.545C348.941 100.425 349.391 100.365 349.881 100.365C350.271 100.365 350.671 100.4 351.081 100.47C351.491 100.54 351.856 100.64 352.176 100.77V100.065C352.176 99.375 351.976 98.83 351.576 98.43C351.186 98.02 350.656 97.815 349.986 97.815C349.566 97.815 349.146 97.895 348.726 98.055C348.316 98.215 347.896 98.445 347.466 98.745L347.106 98.07C347.616 97.73 348.111 97.475 348.591 97.305C349.071 97.135 349.571 97.05 350.091 97.05C351.041 97.05 351.796 97.325 352.356 97.875C352.916 98.425 353.196 99.185 353.196 100.155V103.68C353.196 103.96 353.316 104.1 353.556 104.1V105C353.476 105.01 353.401 105.015 353.331 105.015C353.261 105.025 353.201 105.03 353.151 105.03C352.951 105.03 352.766 104.97 352.596 104.85C352.436 104.73 352.346 104.55 352.326 104.31L352.296 103.695C351.956 104.155 351.506 104.515 350.946 104.775C350.396 105.025 349.836 105.15 349.266 105.15ZM349.521 104.37C349.971 104.37 350.416 104.275 350.856 104.085C351.306 103.885 351.661 103.615 351.921 103.275C351.991 103.185 352.051 103.09 352.101 102.99C352.151 102.88 352.176 102.78 352.176 102.69V101.415C351.836 101.285 351.481 101.185 351.111 101.115C350.741 101.045 350.381 101.01 350.031 101.01C349.301 101.01 348.706 101.16 348.246 101.46C347.796 101.75 347.571 102.155 347.571 102.675C347.571 102.885 347.611 103.09 347.691 103.29C347.771 103.49 347.891 103.67 348.051 103.83C348.221 103.99 348.426 104.12 348.666 104.22C348.906 104.32 349.191 104.37 349.521 104.37ZM359.313 98.085C358.623 98.105 358.023 98.295 357.513 98.655C357.003 99.015 356.643 99.51 356.433 100.14V105H355.413V97.185H356.373V99.06C356.643 98.51 356.998 98.055 357.438 97.695C357.878 97.325 358.353 97.14 358.863 97.14C358.953 97.14 359.038 97.14 359.118 97.14C359.198 97.14 359.263 97.145 359.313 97.155V98.085ZM361.122 107.415C361.172 107.425 361.222 107.43 361.272 107.43C361.322 107.44 361.372 107.445 361.422 107.445C361.522 107.445 361.627 107.435 361.737 107.415C361.857 107.395 361.942 107.375 361.992 107.355C362.042 107.335 362.092 107.29 362.142 107.22C362.202 107.16 362.272 107.045 362.352 106.875C362.442 106.715 362.552 106.485 362.682 106.185C362.812 105.895 362.977 105.5 363.177 105L359.772 97.185H360.837L363.732 104.055L366.402 97.185H367.377L363.312 107.265C363.162 107.635 362.957 107.91 362.697 108.09C362.447 108.27 362.092 108.36 361.632 108.36C361.442 108.36 361.272 108.345 361.122 108.315V107.415ZM380.48 102.255C380.48 102.655 380.4 103.025 380.24 103.365C380.08 103.695 379.865 103.985 379.595 104.235C379.325 104.475 379.01 104.665 378.65 104.805C378.29 104.935 377.905 105 377.495 105H372.485V94.35H377.6C377.97 94.35 378.305 94.43 378.605 94.59C378.905 94.75 379.16 94.96 379.37 95.22C379.58 95.47 379.74 95.76 379.85 96.09C379.97 96.41 380.03 96.735 380.03 97.065C380.03 97.605 379.895 98.1 379.625 98.55C379.355 98.99 378.98 99.32 378.5 99.54C379.11 99.72 379.59 100.055 379.94 100.545C380.3 101.035 380.48 101.605 380.48 102.255ZM379.43 102.075C379.43 101.815 379.385 101.565 379.295 101.325C379.205 101.075 379.075 100.86 378.905 100.68C378.745 100.49 378.55 100.34 378.32 100.23C378.1 100.11 377.86 100.05 377.6 100.05H373.52V104.085H377.495C377.765 104.085 378.02 104.03 378.26 103.92C378.5 103.81 378.705 103.665 378.875 103.485C379.045 103.295 379.18 103.08 379.28 102.84C379.38 102.59 379.43 102.335 379.43 102.075ZM373.52 95.265V99.195H377.18C377.44 99.195 377.68 99.14 377.9 99.03C378.13 98.92 378.325 98.775 378.485 98.595C378.655 98.415 378.785 98.21 378.875 97.98C378.965 97.74 379.01 97.49 379.01 97.23C379.01 96.96 378.965 96.705 378.875 96.465C378.795 96.225 378.675 96.02 378.515 95.85C378.365 95.67 378.18 95.53 377.96 95.43C377.75 95.32 377.52 95.265 377.27 95.265H373.52ZM384.65 105.15C383.83 105.15 383.21 104.87 382.79 104.31C382.37 103.74 382.16 102.895 382.16 101.775V97.185H383.18V101.595C383.18 103.365 383.785 104.25 384.995 104.25C385.295 104.25 385.59 104.2 385.88 104.1C386.17 104 386.435 103.855 386.675 103.665C386.925 103.475 387.145 103.25 387.335 102.99C387.535 102.73 387.695 102.435 387.815 102.105V97.185H388.835V103.68C388.835 103.96 388.96 104.1 389.21 104.1V105C389.01 105.03 388.87 105.045 388.79 105.045C388.56 105.045 388.36 104.975 388.19 104.835C388.03 104.695 387.95 104.52 387.95 104.31V103.23C387.6 103.84 387.135 104.315 386.555 104.655C385.975 104.985 385.34 105.15 384.65 105.15ZM394.906 104.625C394.846 104.655 394.756 104.695 394.636 104.745C394.526 104.795 394.396 104.845 394.246 104.895C394.096 104.945 393.926 104.99 393.736 105.03C393.546 105.07 393.346 105.09 393.136 105.09C392.916 105.09 392.706 105.06 392.506 105C392.306 104.94 392.131 104.85 391.981 104.73C391.831 104.6 391.711 104.44 391.621 104.25C391.531 104.06 391.486 103.84 391.486 103.59V97.995H390.406V97.185H391.486V94.545H392.506V97.185H394.306V97.995H392.506V103.305C392.526 103.595 392.626 103.81 392.806 103.95C392.986 104.08 393.201 104.145 393.451 104.145C393.741 104.145 393.996 104.1 394.216 104.01C394.436 103.91 394.576 103.84 394.636 103.8L394.906 104.625ZM399.872 104.625C399.812 104.655 399.722 104.695 399.602 104.745C399.492 104.795 399.362 104.845 399.212 104.895C399.062 104.945 398.892 104.99 398.702 105.03C398.512 105.07 398.312 105.09 398.102 105.09C397.882 105.09 397.672 105.06 397.472 105C397.272 104.94 397.097 104.85 396.947 104.73C396.797 104.6 396.677 104.44 396.587 104.25C396.497 104.06 396.452 103.84 396.452 103.59V97.995H395.372V97.185H396.452V94.545H397.472V97.185H399.272V97.995H397.472V103.305C397.492 103.595 397.592 103.81 397.772 103.95C397.952 104.08 398.167 104.145 398.417 104.145C398.707 104.145 398.962 104.1 399.182 104.01C399.402 103.91 399.542 103.84 399.602 103.8L399.872 104.625ZM404.286 105.15C403.716 105.15 403.191 105.045 402.711 104.835C402.241 104.615 401.831 104.32 401.481 103.95C401.141 103.58 400.876 103.15 400.686 102.66C400.496 102.17 400.401 101.655 400.401 101.115C400.401 100.565 400.496 100.045 400.686 99.555C400.886 99.065 401.156 98.635 401.496 98.265C401.846 97.895 402.256 97.6 402.726 97.38C403.206 97.16 403.726 97.05 404.286 97.05C404.846 97.05 405.361 97.16 405.831 97.38C406.311 97.6 406.721 97.895 407.061 98.265C407.411 98.635 407.681 99.065 407.871 99.555C408.071 100.045 408.171 100.565 408.171 101.115C408.171 101.655 408.071 102.17 407.871 102.66C407.681 103.15 407.411 103.58 407.061 103.95C406.721 104.32 406.311 104.615 405.831 104.835C405.361 105.045 404.846 105.15 404.286 105.15ZM401.451 101.13C401.451 101.57 401.521 101.98 401.661 102.36C401.811 102.73 402.011 103.06 402.261 103.35C402.521 103.63 402.821 103.85 403.161 104.01C403.511 104.17 403.881 104.25 404.271 104.25C404.661 104.25 405.026 104.17 405.366 104.01C405.716 103.84 406.021 103.615 406.281 103.335C406.541 103.045 406.746 102.71 406.896 102.33C407.046 101.95 407.121 101.54 407.121 101.1C407.121 100.67 407.046 100.265 406.896 99.885C406.746 99.495 406.541 99.16 406.281 98.88C406.021 98.59 405.721 98.365 405.381 98.205C405.041 98.035 404.676 97.95 404.286 97.95C403.896 97.95 403.526 98.035 403.176 98.205C402.836 98.365 402.536 98.59 402.276 98.88C402.026 99.17 401.826 99.51 401.676 99.9C401.526 100.28 401.451 100.69 401.451 101.13ZM416.402 105H415.382V100.635C415.382 99.705 415.247 99.03 414.977 98.61C414.707 98.19 414.287 97.98 413.717 97.98C413.417 97.98 413.117 98.035 412.817 98.145C412.517 98.255 412.237 98.41 411.977 98.61C411.717 98.81 411.487 99.05 411.287 99.33C411.097 99.6 410.952 99.895 410.852 100.215V105H409.832V97.185H410.762V98.955C410.922 98.675 411.117 98.42 411.347 98.19C411.587 97.95 411.852 97.745 412.142 97.575C412.432 97.405 412.737 97.275 413.057 97.185C413.387 97.095 413.727 97.05 414.077 97.05C414.517 97.05 414.882 97.13 415.172 97.29C415.472 97.45 415.712 97.675 415.892 97.965C416.072 98.255 416.202 98.61 416.282 99.03C416.362 99.45 416.402 99.915 416.402 100.425V105Z" fill="white"/>
<path d="M540.35 105V94.35H544.76C545.22 94.35 545.64 94.45 546.02 94.65C546.41 94.84 546.745 95.095 547.025 95.415C547.305 95.725 547.52 96.08 547.67 96.48C547.83 96.88 547.91 97.285 547.91 97.695C547.91 98.135 547.835 98.56 547.685 98.97C547.545 99.37 547.34 99.725 547.07 100.035C546.8 100.345 546.475 100.595 546.095 100.785C545.725 100.975 545.31 101.07 544.85 101.07H541.385V105H540.35ZM541.385 100.14H544.79C545.1 100.14 545.38 100.075 545.63 99.945C545.89 99.805 546.11 99.625 546.29 99.405C546.47 99.175 546.61 98.915 546.71 98.625C546.81 98.325 546.86 98.015 546.86 97.695C546.86 97.365 546.8 97.055 546.68 96.765C546.57 96.465 546.415 96.205 546.215 95.985C546.025 95.765 545.795 95.595 545.525 95.475C545.265 95.345 544.99 95.28 544.7 95.28H541.385V100.14ZM549.456 94.05H550.476V103.23C550.476 103.52 550.556 103.75 550.716 103.92C550.876 104.08 551.101 104.16 551.391 104.16C551.501 104.16 551.631 104.145 551.781 104.115C551.931 104.085 552.071 104.045 552.201 103.995L552.381 104.82C552.191 104.9 551.956 104.965 551.676 105.015C551.406 105.065 551.171 105.09 550.971 105.09C550.501 105.09 550.131 104.96 549.861 104.7C549.591 104.43 549.456 104.055 549.456 103.575V94.05ZM555.436 105.15C555.036 105.15 554.671 105.09 554.341 104.97C554.011 104.84 553.726 104.665 553.486 104.445C553.256 104.225 553.076 103.97 552.946 103.68C552.816 103.39 552.751 103.085 552.751 102.765C552.751 102.405 552.831 102.08 552.991 101.79C553.151 101.49 553.376 101.235 553.666 101.025C553.956 100.815 554.301 100.655 554.701 100.545C555.111 100.425 555.561 100.365 556.051 100.365C556.441 100.365 556.841 100.4 557.251 100.47C557.661 100.54 558.026 100.64 558.346 100.77V100.065C558.346 99.375 558.146 98.83 557.746 98.43C557.356 98.02 556.826 97.815 556.156 97.815C555.736 97.815 555.316 97.895 554.896 98.055C554.486 98.215 554.066 98.445 553.636 98.745L553.276 98.07C553.786 97.73 554.281 97.475 554.761 97.305C555.241 97.135 555.741 97.05 556.261 97.05C557.211 97.05 557.966 97.325 558.526 97.875C559.086 98.425 559.366 99.185 559.366 100.155V103.68C559.366 103.96 559.486 104.1 559.726 104.1V105C559.646 105.01 559.571 105.015 559.501 105.015C559.431 105.025 559.371 105.03 559.321 105.03C559.121 105.03 558.936 104.97 558.766 104.85C558.606 104.73 558.516 104.55 558.496 104.31L558.466 103.695C558.126 104.155 557.676 104.515 557.116 104.775C556.566 105.025 556.006 105.15 555.436 105.15ZM555.691 104.37C556.141 104.37 556.586 104.275 557.026 104.085C557.476 103.885 557.831 103.615 558.091 103.275C558.161 103.185 558.221 103.09 558.271 102.99C558.321 102.88 558.346 102.78 558.346 102.69V101.415C558.006 101.285 557.651 101.185 557.281 101.115C556.911 101.045 556.551 101.01 556.201 101.01C555.471 101.01 554.876 101.16 554.416 101.46C553.966 101.75 553.741 102.155 553.741 102.675C553.741 102.885 553.781 103.09 553.861 103.29C553.941 103.49 554.061 103.67 554.221 103.83C554.391 103.99 554.596 104.12 554.836 104.22C555.076 104.32 555.361 104.37 555.691 104.37ZM561.785 107.415C561.835 107.425 561.885 107.43 561.935 107.43C561.985 107.44 562.035 107.445 562.085 107.445C562.185 107.445 562.29 107.435 562.4 107.415C562.52 107.395 562.605 107.375 562.655 107.355C562.705 107.335 562.755 107.29 562.805 107.22C562.865 107.16 562.935 107.045 563.015 106.875C563.105 106.715 563.215 106.485 563.345 106.185C563.475 105.895 563.64 105.5 563.84 105L560.435 97.185H561.5L564.395 104.055L567.065 97.185H568.04L563.975 107.265C563.825 107.635 563.62 107.91 563.36 108.09C563.11 108.27 562.755 108.36 562.295 108.36C562.105 108.36 561.935 108.345 561.785 108.315V107.415Z" fill="white"/>
<path d="M661.955 96.3V105H660.92V94.35H661.73L668.78 103.215V94.365H669.815V105H668.915L661.955 96.3ZM674.336 105.15C673.936 105.15 673.571 105.09 673.241 104.97C672.911 104.84 672.626 104.665 672.386 104.445C672.156 104.225 671.976 103.97 671.846 103.68C671.716 103.39 671.651 103.085 671.651 102.765C671.651 102.405 671.731 102.08 671.891 101.79C672.051 101.49 672.276 101.235 672.566 101.025C672.856 100.815 673.201 100.655 673.601 100.545C674.011 100.425 674.461 100.365 674.951 100.365C675.341 100.365 675.741 100.4 676.151 100.47C676.561 100.54 676.926 100.64 677.246 100.77V100.065C677.246 99.375 677.046 98.83 676.646 98.43C676.256 98.02 675.726 97.815 675.056 97.815C674.636 97.815 674.216 97.895 673.796 98.055C673.386 98.215 672.966 98.445 672.536 98.745L672.176 98.07C672.686 97.73 673.181 97.475 673.661 97.305C674.141 97.135 674.641 97.05 675.161 97.05C676.111 97.05 676.866 97.325 677.426 97.875C677.986 98.425 678.266 99.185 678.266 100.155V103.68C678.266 103.96 678.386 104.1 678.626 104.1V105C678.546 105.01 678.471 105.015 678.401 105.015C678.331 105.025 678.271 105.03 678.221 105.03C678.021 105.03 677.836 104.97 677.666 104.85C677.506 104.73 677.416 104.55 677.396 104.31L677.366 103.695C677.026 104.155 676.576 104.515 676.016 104.775C675.466 105.025 674.906 105.15 674.336 105.15ZM674.591 104.37C675.041 104.37 675.486 104.275 675.926 104.085C676.376 103.885 676.731 103.615 676.991 103.275C677.061 103.185 677.121 103.09 677.171 102.99C677.221 102.88 677.246 102.78 677.246 102.69V101.415C676.906 101.285 676.551 101.185 676.181 101.115C675.811 101.045 675.451 101.01 675.101 101.01C674.371 101.01 673.776 101.16 673.316 101.46C672.866 101.75 672.641 102.155 672.641 102.675C672.641 102.885 672.681 103.09 672.761 103.29C672.841 103.49 672.961 103.67 673.121 103.83C673.291 103.99 673.496 104.12 673.736 104.22C673.976 104.32 674.261 104.37 674.591 104.37ZM682.56 105L679.38 97.185H680.445L683.13 104.055L685.83 97.185H686.82L683.64 105H682.56ZM688.175 105V97.185H689.195V105H688.175ZM688.175 95.55V94.05H689.195V95.55H688.175ZM694.548 105.105C694.008 105.105 693.513 104.995 693.063 104.775C692.623 104.545 692.238 104.245 691.908 103.875C691.588 103.505 691.338 103.08 691.158 102.6C690.978 102.12 690.888 101.625 690.888 101.115C690.888 100.575 690.973 100.06 691.143 99.57C691.323 99.07 691.573 98.635 691.893 98.265C692.213 97.895 692.593 97.6 693.033 97.38C693.483 97.16 693.978 97.05 694.518 97.05C695.188 97.05 695.768 97.22 696.258 97.56C696.748 97.89 697.168 98.31 697.518 98.82V97.185H698.433V105.03C698.433 105.57 698.328 106.045 698.118 106.455C697.918 106.875 697.643 107.225 697.293 107.505C696.953 107.785 696.548 107.995 696.078 108.135C695.608 108.275 695.113 108.345 694.593 108.345C693.703 108.345 692.983 108.185 692.433 107.865C691.883 107.545 691.438 107.115 691.098 106.575L691.728 106.08C692.038 106.58 692.448 106.945 692.958 107.175C693.468 107.415 694.013 107.535 694.593 107.535C694.973 107.535 695.333 107.48 695.673 107.37C696.023 107.27 696.323 107.115 696.573 106.905C696.833 106.705 697.038 106.445 697.188 106.125C697.338 105.815 697.413 105.45 697.413 105.03V103.485C697.103 103.985 696.688 104.38 696.168 104.67C695.658 104.96 695.118 105.105 694.548 105.105ZM694.833 104.25C695.133 104.25 695.428 104.195 695.718 104.085C696.008 103.975 696.268 103.83 696.498 103.65C696.738 103.46 696.938 103.25 697.098 103.02C697.258 102.79 697.363 102.555 697.413 102.315V99.9C697.303 99.62 697.148 99.36 696.948 99.12C696.758 98.88 696.543 98.675 696.303 98.505C696.063 98.335 695.803 98.2 695.523 98.1C695.253 98 694.978 97.95 694.698 97.95C694.258 97.95 693.868 98.045 693.528 98.235C693.188 98.415 692.898 98.655 692.658 98.955C692.418 99.255 692.233 99.595 692.103 99.975C691.983 100.355 691.923 100.74 691.923 101.13C691.923 101.55 691.998 101.95 692.148 102.33C692.298 102.71 692.503 103.045 692.763 103.335C693.023 103.615 693.328 103.84 693.678 104.01C694.038 104.17 694.423 104.25 694.833 104.25ZM702.696 105.15C702.296 105.15 701.931 105.09 701.601 104.97C701.271 104.84 700.986 104.665 700.746 104.445C700.516 104.225 700.336 103.97 700.206 103.68C700.076 103.39 700.011 103.085 700.011 102.765C700.011 102.405 700.091 102.08 700.251 101.79C700.411 101.49 700.636 101.235 700.926 101.025C701.216 100.815 701.561 100.655 701.961 100.545C702.371 100.425 702.821 100.365 703.311 100.365C703.701 100.365 704.101 100.4 704.511 100.47C704.921 100.54 705.286 100.64 705.606 100.77V100.065C705.606 99.375 705.406 98.83 705.006 98.43C704.616 98.02 704.086 97.815 703.416 97.815C702.996 97.815 702.576 97.895 702.156 98.055C701.746 98.215 701.326 98.445 700.896 98.745L700.536 98.07C701.046 97.73 701.541 97.475 702.021 97.305C702.501 97.135 703.001 97.05 703.521 97.05C704.471 97.05 705.226 97.325 705.786 97.875C706.346 98.425 706.626 99.185 706.626 100.155V103.68C706.626 103.96 706.746 104.1 706.986 104.1V105C706.906 105.01 706.831 105.015 706.761 105.015C706.691 105.025 706.631 105.03 706.581 105.03C706.381 105.03 706.196 104.97 706.026 104.85C705.866 104.73 705.776 104.55 705.756 104.31L705.726 103.695C705.386 104.155 704.936 104.515 704.376 104.775C703.826 105.025 703.266 105.15 702.696 105.15ZM702.951 104.37C703.401 104.37 703.846 104.275 704.286 104.085C704.736 103.885 705.091 103.615 705.351 103.275C705.421 103.185 705.481 103.09 705.531 102.99C705.581 102.88 705.606 102.78 705.606 102.69V101.415C705.266 101.285 704.911 101.185 704.541 101.115C704.171 101.045 703.811 101.01 703.461 101.01C702.731 101.01 702.136 101.16 701.676 101.46C701.226 101.75 701.001 102.155 701.001 102.675C701.001 102.885 701.041 103.09 701.121 103.29C701.201 103.49 701.321 103.67 701.481 103.83C701.651 103.99 701.856 104.12 702.096 104.22C702.336 104.32 702.621 104.37 702.951 104.37ZM712.521 104.625C712.461 104.655 712.371 104.695 712.251 104.745C712.141 104.795 712.011 104.845 711.861 104.895C711.711 104.945 711.541 104.99 711.351 105.03C711.161 105.07 710.961 105.09 710.751 105.09C710.531 105.09 710.321 105.06 710.121 105C709.921 104.94 709.746 104.85 709.596 104.73C709.446 104.6 709.326 104.44 709.236 104.25C709.146 104.06 709.101 103.84 709.101 103.59V97.995H708.021V97.185H709.101V94.545H710.121V97.185H711.921V97.995H710.121V103.305C710.141 103.595 710.241 103.81 710.421 103.95C710.601 104.08 710.816 104.145 711.066 104.145C711.356 104.145 711.611 104.1 711.831 104.01C712.051 103.91 712.191 103.84 712.251 103.8L712.521 104.625ZM717.141 105.15C716.571 105.15 716.046 105.045 715.566 104.835C715.086 104.615 714.671 104.32 714.321 103.95C713.971 103.57 713.696 103.135 713.496 102.645C713.306 102.155 713.211 101.63 713.211 101.07C713.211 100.52 713.306 100.005 713.496 99.525C713.696 99.035 713.971 98.61 714.321 98.25C714.671 97.88 715.081 97.59 715.551 97.38C716.031 97.16 716.556 97.05 717.126 97.05C717.696 97.05 718.216 97.16 718.686 97.38C719.166 97.59 719.576 97.88 719.916 98.25C720.256 98.62 720.521 99.045 720.711 99.525C720.901 100.005 720.996 100.515 720.996 101.055C720.996 101.135 720.991 101.215 720.981 101.295C720.981 101.375 720.976 101.43 720.966 101.46H714.291C714.321 101.88 714.416 102.27 714.576 102.63C714.746 102.98 714.956 103.285 715.206 103.545C715.466 103.805 715.761 104.01 716.091 104.16C716.431 104.3 716.791 104.37 717.171 104.37C717.431 104.37 717.686 104.335 717.936 104.265C718.186 104.195 718.416 104.1 718.626 103.98C718.836 103.86 719.021 103.715 719.181 103.545C719.351 103.365 719.481 103.17 719.571 102.96L720.456 103.2C720.336 103.49 720.166 103.755 719.946 103.995C719.726 104.225 719.471 104.43 719.181 104.61C718.891 104.78 718.571 104.91 718.221 105C717.871 105.1 717.511 105.15 717.141 105.15ZM720.021 100.68C719.991 100.26 719.891 99.88 719.721 99.54C719.561 99.19 719.351 98.89 719.091 98.64C718.841 98.39 718.546 98.195 718.206 98.055C717.866 97.915 717.506 97.845 717.126 97.845C716.746 97.845 716.386 97.915 716.046 98.055C715.706 98.195 715.406 98.39 715.146 98.64C714.896 98.89 714.691 99.19 714.531 99.54C714.381 99.89 714.291 100.27 714.261 100.68H720.021Z" fill="white"/>
</svg>
