<svg width="261" height="50" viewBox="0 0 261 50" fill="none" xmlns="http://www.w3.org/2000/svg">
<circle cx="26.0417" cy="13.5417" r="13.5417" fill="url(#paint0_linear_15608_6767)"/>
<path d="M18.0693 33.1097C16.1662 35.1689 13.4424 36.4583 10.4174 36.4583C7.73615 36.4583 5.29149 35.4453 3.44531 33.7811L17.8596 47.168C19.7243 48.9242 22.237 50 25.0006 50C27.7508 50 30.252 48.9343 32.1138 47.1932L32.1204 47.1995L46.7539 33.6056L46.7501 33.6018C48.7522 31.7035 50.0008 29.0184 50.0008 26.0417C50.0008 20.2887 45.3371 15.625 39.5841 15.625C36.6196 15.625 33.9443 16.8634 32.0473 18.8511L18.0731 33.1135L18.0693 33.1097Z" fill="url(#paint1_linear_15608_6767)"/>
<path d="M11.2873 36.4225C13.9619 36.2011 16.3498 34.9693 18.0684 33.1097L18.0722 33.1135L24.1139 26.9472C18.314 26.1206 13.6984 21.619 12.7005 15.8761C11.9655 15.7117 11.2012 15.625 10.4167 15.625C4.6637 15.625 0 20.2887 0 26.0417C0 31.4281 4.08831 35.8596 9.33115 36.4025C9.51296 36.4213 9.69616 36.4354 9.88063 36.4448C10.0582 36.4538 10.2369 36.4583 10.4167 36.4583C10.7099 36.4583 11.0002 36.4462 11.2873 36.4225Z" fill="url(#paint2_linear_15608_6767)"/>
<path d="M81.0908 33H79.0166V24.8438C79.0166 24.1758 79.0576 23.3584 79.1396 22.3916H79.1045C78.9756 22.9424 78.8613 23.3379 78.7617 23.5781L75 33H73.5586L69.7881 23.6484C69.6826 23.373 69.5713 22.9541 69.4541 22.3916H69.4189C69.4658 22.8955 69.4893 23.7188 69.4893 24.8613V33H67.5557V20.3965H70.5L73.8135 28.79C74.0654 29.4346 74.2295 29.915 74.3057 30.2314H74.3496C74.5664 29.5693 74.7422 29.0771 74.877 28.7549L78.252 20.3965H81.0908V33ZM85.002 22.1104C84.668 22.1104 84.3809 22.002 84.1406 21.7852C83.9062 21.5684 83.7891 21.293 83.7891 20.959C83.7891 20.625 83.9062 20.3467 84.1406 20.124C84.3809 19.9014 84.668 19.79 85.002 19.79C85.3477 19.79 85.6406 19.9014 85.8809 20.124C86.1211 20.3467 86.2412 20.625 86.2412 20.959C86.2412 21.2754 86.1211 21.5479 85.8809 21.7764C85.6406 21.999 85.3477 22.1104 85.002 22.1104ZM86.0127 33H83.9736V24H86.0127V33ZM95.127 32.5869C94.4062 33.0029 93.5537 33.2109 92.5693 33.2109C91.2334 33.2109 90.1553 32.7949 89.335 31.9629C88.5146 31.125 88.1045 30.041 88.1045 28.7109C88.1045 27.2285 88.5439 26.0391 89.4229 25.1426C90.3076 24.2402 91.4883 23.7891 92.9648 23.7891C93.7852 23.7891 94.5088 23.9326 95.1357 24.2197V26.1182C94.5088 25.6494 93.8408 25.415 93.1318 25.415C92.2705 25.415 91.5645 25.708 91.0137 26.2939C90.4629 26.874 90.1875 27.6357 90.1875 28.5791C90.1875 29.5107 90.4453 30.2461 90.9609 30.7852C91.4824 31.3242 92.1797 31.5938 93.0527 31.5938C93.7852 31.5938 94.4766 31.333 95.127 30.8115V32.5869ZM102.378 25.9424C102.132 25.749 101.777 25.6523 101.314 25.6523C100.711 25.6523 100.207 25.9248 99.8027 26.4697C99.3984 27.0146 99.1963 27.7559 99.1963 28.6934V33H97.1572V24H99.1963V25.8545H99.2314C99.4307 25.2217 99.7354 24.7295 100.146 24.3779C100.562 24.0205 101.024 23.8418 101.534 23.8418C101.903 23.8418 102.185 23.8975 102.378 24.0088V25.9424ZM107.651 33.2109C106.263 33.2109 105.152 32.792 104.32 31.9541C103.494 31.1104 103.081 29.9941 103.081 28.6055C103.081 27.0938 103.512 25.9131 104.373 25.0635C105.24 24.2139 106.406 23.7891 107.871 23.7891C109.277 23.7891 110.373 24.2021 111.158 25.0283C111.943 25.8545 112.336 27 112.336 28.4648C112.336 29.9004 111.911 31.0518 111.062 31.9189C110.218 32.7803 109.081 33.2109 107.651 33.2109ZM107.748 25.415C106.951 25.415 106.321 25.6934 105.858 26.25C105.396 26.8066 105.164 27.5742 105.164 28.5527C105.164 29.4961 105.398 30.2402 105.867 30.7852C106.336 31.3242 106.963 31.5938 107.748 31.5938C108.551 31.5938 109.166 31.3271 109.594 30.7939C110.027 30.2607 110.244 29.502 110.244 28.5176C110.244 27.5273 110.027 26.7627 109.594 26.2236C109.166 25.6846 108.551 25.415 107.748 25.415ZM113.856 32.7188V30.8291C114.618 31.4092 115.459 31.6992 116.379 31.6992C117.609 31.6992 118.225 31.3359 118.225 30.6094C118.225 30.4043 118.172 30.2314 118.066 30.0908C117.961 29.9443 117.817 29.8154 117.636 29.7041C117.46 29.5928 117.249 29.4932 117.003 29.4053C116.763 29.3174 116.493 29.2178 116.194 29.1064C115.825 28.96 115.491 28.8047 115.192 28.6406C114.899 28.4766 114.653 28.292 114.454 28.0869C114.261 27.876 114.114 27.6387 114.015 27.375C113.915 27.1113 113.865 26.8037 113.865 26.4521C113.865 26.0186 113.968 25.6377 114.173 25.3096C114.378 24.9756 114.653 24.6973 114.999 24.4746C115.345 24.2461 115.737 24.0762 116.177 23.9648C116.616 23.8477 117.07 23.7891 117.539 23.7891C118.371 23.7891 119.115 23.915 119.771 24.167V25.9512C119.139 25.5176 118.412 25.3008 117.592 25.3008C117.334 25.3008 117.1 25.3271 116.889 25.3799C116.684 25.4326 116.508 25.5059 116.361 25.5996C116.215 25.6934 116.101 25.8076 116.019 25.9424C115.937 26.0713 115.896 26.2148 115.896 26.373C115.896 26.5664 115.937 26.7305 116.019 26.8652C116.101 27 116.221 27.1201 116.379 27.2256C116.543 27.3252 116.736 27.4189 116.959 27.5068C117.188 27.5889 117.448 27.6797 117.741 27.7793C118.128 27.9375 118.474 28.0986 118.778 28.2627C119.089 28.4268 119.353 28.6143 119.569 28.8252C119.786 29.0303 119.953 29.2705 120.07 29.5459C120.188 29.8154 120.246 30.1377 120.246 30.5127C120.246 30.9697 120.141 31.3682 119.93 31.708C119.719 32.0479 119.438 32.3291 119.086 32.5518C118.734 32.7744 118.327 32.9385 117.864 33.0439C117.407 33.1553 116.924 33.2109 116.414 33.2109C115.43 33.2109 114.577 33.0469 113.856 32.7188ZM126.179 33.2109C124.79 33.2109 123.68 32.792 122.848 31.9541C122.021 31.1104 121.608 29.9941 121.608 28.6055C121.608 27.0938 122.039 25.9131 122.9 25.0635C123.768 24.2139 124.934 23.7891 126.398 23.7891C127.805 23.7891 128.9 24.2021 129.686 25.0283C130.471 25.8545 130.863 27 130.863 28.4648C130.863 29.9004 130.438 31.0518 129.589 31.9189C128.745 32.7803 127.608 33.2109 126.179 33.2109ZM126.275 25.415C125.479 25.415 124.849 25.6934 124.386 26.25C123.923 26.8066 123.691 27.5742 123.691 28.5527C123.691 29.4961 123.926 30.2402 124.395 30.7852C124.863 31.3242 125.49 31.5938 126.275 31.5938C127.078 31.5938 127.693 31.3271 128.121 30.7939C128.555 30.2607 128.771 29.502 128.771 28.5176C128.771 27.5273 128.555 26.7627 128.121 26.2236C127.693 25.6846 127.078 25.415 126.275 25.415ZM137.736 21.3369C137.461 21.1787 137.147 21.0996 136.796 21.0996C135.806 21.0996 135.311 21.6592 135.311 22.7783V24H137.402V25.5996H135.319V33H133.28V25.5996H131.742V24H133.28V22.541C133.28 21.5918 133.591 20.8447 134.212 20.2998C134.833 19.749 135.609 19.4736 136.541 19.4736C137.045 19.4736 137.443 19.5293 137.736 19.6406V21.3369ZM143.933 32.9033C143.534 33.1025 143.01 33.2021 142.359 33.2021C140.613 33.2021 139.74 32.3643 139.74 30.6885V25.5996H138.237V24H139.74V21.917L141.779 21.3369V24H143.933V25.5996H141.779V30.0996C141.779 30.6328 141.876 31.0137 142.069 31.2422C142.263 31.4707 142.585 31.585 143.036 31.585C143.382 31.585 143.681 31.4854 143.933 31.2861V32.9033ZM160.755 20.3965L156.229 33H153.891L149.443 20.3965H151.729L154.84 29.959C154.939 30.2637 155.016 30.6182 155.068 31.0225H155.104C155.145 30.6885 155.229 30.3281 155.358 29.9414L158.54 20.3965H160.755ZM163.225 22.1104C162.891 22.1104 162.604 22.002 162.363 21.7852C162.129 21.5684 162.012 21.293 162.012 20.959C162.012 20.625 162.129 20.3467 162.363 20.124C162.604 19.9014 162.891 19.79 163.225 19.79C163.57 19.79 163.863 19.9014 164.104 20.124C164.344 20.3467 164.464 20.625 164.464 20.959C164.464 21.2754 164.344 21.5479 164.104 21.7764C163.863 21.999 163.57 22.1104 163.225 22.1104ZM164.235 33H162.196V24H164.235V33ZM174.659 24L171.179 33H168.973L165.659 24H167.874L169.869 30.293C170.021 30.7559 170.115 31.1602 170.15 31.5059H170.177C170.229 31.0723 170.312 30.6797 170.423 30.3281L172.515 24H174.659ZM182.657 33H180.68V31.5938H180.645C180.023 32.6719 179.112 33.2109 177.911 33.2109C177.026 33.2109 176.332 32.9707 175.828 32.4902C175.33 32.0098 175.081 31.374 175.081 30.583C175.081 28.8838 176.06 27.8936 178.017 27.6123L180.688 27.2344C180.688 25.9512 180.079 25.3096 178.86 25.3096C177.788 25.3096 176.821 25.6787 175.96 26.417V24.6328C176.909 24.0703 178.005 23.7891 179.247 23.7891C181.521 23.7891 182.657 24.9082 182.657 27.1465V33ZM180.688 28.5791L178.799 28.8428C178.213 28.9189 177.771 29.0625 177.472 29.2734C177.179 29.4785 177.032 29.8418 177.032 30.3633C177.032 30.7441 177.167 31.0576 177.437 31.3037C177.712 31.5439 178.078 31.6641 178.535 31.6641C179.156 31.6641 179.669 31.4473 180.073 31.0137C180.483 30.5742 180.688 30.0234 180.688 29.3613V28.5791ZM192.483 33H190.33V20.3965H192.483V33ZM203.382 33H201.343V27.9287C201.343 26.2471 200.748 25.4062 199.559 25.4062C198.938 25.4062 198.425 25.6406 198.021 26.1094C197.616 26.5723 197.414 27.1582 197.414 27.8672V33H195.366V24H197.414V25.4941H197.449C198.123 24.3574 199.096 23.7891 200.367 23.7891C201.346 23.7891 202.093 24.1084 202.608 24.7471C203.124 25.3799 203.382 26.2969 203.382 27.498V33ZM205.315 32.7188V30.8291C206.077 31.4092 206.918 31.6992 207.838 31.6992C209.068 31.6992 209.684 31.3359 209.684 30.6094C209.684 30.4043 209.631 30.2314 209.525 30.0908C209.42 29.9443 209.276 29.8154 209.095 29.7041C208.919 29.5928 208.708 29.4932 208.462 29.4053C208.222 29.3174 207.952 29.2178 207.653 29.1064C207.284 28.96 206.95 28.8047 206.651 28.6406C206.358 28.4766 206.112 28.292 205.913 28.0869C205.72 27.876 205.573 27.6387 205.474 27.375C205.374 27.1113 205.324 26.8037 205.324 26.4521C205.324 26.0186 205.427 25.6377 205.632 25.3096C205.837 24.9756 206.112 24.6973 206.458 24.4746C206.804 24.2461 207.196 24.0762 207.636 23.9648C208.075 23.8477 208.529 23.7891 208.998 23.7891C209.83 23.7891 210.574 23.915 211.23 24.167V25.9512C210.598 25.5176 209.871 25.3008 209.051 25.3008C208.793 25.3008 208.559 25.3271 208.348 25.3799C208.143 25.4326 207.967 25.5059 207.82 25.5996C207.674 25.6934 207.56 25.8076 207.478 25.9424C207.396 26.0713 207.354 26.2148 207.354 26.373C207.354 26.5664 207.396 26.7305 207.478 26.8652C207.56 27 207.68 27.1201 207.838 27.2256C208.002 27.3252 208.195 27.4189 208.418 27.5068C208.646 27.5889 208.907 27.6797 209.2 27.7793C209.587 27.9375 209.933 28.0986 210.237 28.2627C210.548 28.4268 210.812 28.6143 211.028 28.8252C211.245 29.0303 211.412 29.2705 211.529 29.5459C211.646 29.8154 211.705 30.1377 211.705 30.5127C211.705 30.9697 211.6 31.3682 211.389 31.708C211.178 32.0479 210.896 32.3291 210.545 32.5518C210.193 32.7744 209.786 32.9385 209.323 33.0439C208.866 33.1553 208.383 33.2109 207.873 33.2109C206.889 33.2109 206.036 33.0469 205.315 32.7188ZM214.676 22.1104C214.342 22.1104 214.055 22.002 213.814 21.7852C213.58 21.5684 213.463 21.293 213.463 20.959C213.463 20.625 213.58 20.3467 213.814 20.124C214.055 19.9014 214.342 19.79 214.676 19.79C215.021 19.79 215.314 19.9014 215.555 20.124C215.795 20.3467 215.915 20.625 215.915 20.959C215.915 21.2754 215.795 21.5479 215.555 21.7764C215.314 21.999 215.021 22.1104 214.676 22.1104ZM215.687 33H213.647V24H215.687V33ZM226.55 32.2793C226.55 35.584 224.889 37.2363 221.566 37.2363C220.395 37.2363 219.372 37.04 218.499 36.6475V34.7842C219.483 35.3467 220.418 35.6279 221.303 35.6279C223.441 35.6279 224.511 34.5762 224.511 32.4727V31.4883H224.476C223.802 32.6367 222.788 33.2109 221.435 33.2109C220.339 33.2109 219.454 32.8125 218.78 32.0156C218.112 31.2129 217.778 30.1377 217.778 28.79C217.778 27.2607 218.139 26.0449 218.859 25.1426C219.58 24.2402 220.57 23.7891 221.83 23.7891C223.02 23.7891 223.901 24.2754 224.476 25.248H224.511V24H226.55V32.2793ZM224.528 28.8779V27.709C224.528 27.0762 224.317 26.5371 223.896 26.0918C223.479 25.6406 222.958 25.415 222.331 25.415C221.558 25.415 220.951 25.7021 220.512 26.2764C220.078 26.8447 219.861 27.6416 219.861 28.667C219.861 29.5518 220.069 30.2607 220.485 30.7939C220.907 31.3213 221.464 31.585 222.155 31.585C222.858 31.585 223.43 31.333 223.869 30.8291C224.309 30.3193 224.528 29.6689 224.528 28.8779ZM237.202 33H235.163V28.0781C235.163 26.2969 234.568 25.4062 233.379 25.4062C232.781 25.4062 232.277 25.6641 231.867 26.1797C231.457 26.6953 231.252 27.3545 231.252 28.1572V33H229.204V19.6758H231.252V25.4941H231.287C231.967 24.3574 232.939 23.7891 234.205 23.7891C236.203 23.7891 237.202 25.0107 237.202 27.4541V33ZM244.427 32.9033C244.028 33.1025 243.504 33.2021 242.854 33.2021C241.107 33.2021 240.234 32.3643 240.234 30.6885V25.5996H238.731V24H240.234V21.917L242.273 21.3369V24H244.427V25.5996H242.273V30.0996C242.273 30.6328 242.37 31.0137 242.563 31.2422C242.757 31.4707 243.079 31.585 243.53 31.585C243.876 31.585 244.175 31.4854 244.427 31.2861V32.9033ZM245.622 32.7188V30.8291C246.384 31.4092 247.225 31.6992 248.145 31.6992C249.375 31.6992 249.99 31.3359 249.99 30.6094C249.99 30.4043 249.938 30.2314 249.832 30.0908C249.727 29.9443 249.583 29.8154 249.401 29.7041C249.226 29.5928 249.015 29.4932 248.769 29.4053C248.528 29.3174 248.259 29.2178 247.96 29.1064C247.591 28.96 247.257 28.8047 246.958 28.6406C246.665 28.4766 246.419 28.292 246.22 28.0869C246.026 27.876 245.88 27.6387 245.78 27.375C245.681 27.1113 245.631 26.8037 245.631 26.4521C245.631 26.0186 245.733 25.6377 245.938 25.3096C246.144 24.9756 246.419 24.6973 246.765 24.4746C247.11 24.2461 247.503 24.0762 247.942 23.9648C248.382 23.8477 248.836 23.7891 249.305 23.7891C250.137 23.7891 250.881 23.915 251.537 24.167V25.9512C250.904 25.5176 250.178 25.3008 249.357 25.3008C249.1 25.3008 248.865 25.3271 248.654 25.3799C248.449 25.4326 248.273 25.5059 248.127 25.5996C247.98 25.6934 247.866 25.8076 247.784 25.9424C247.702 26.0713 247.661 26.2148 247.661 26.373C247.661 26.5664 247.702 26.7305 247.784 26.8652C247.866 27 247.986 27.1201 248.145 27.2256C248.309 27.3252 248.502 27.4189 248.725 27.5068C248.953 27.5889 249.214 27.6797 249.507 27.7793C249.894 27.9375 250.239 28.0986 250.544 28.2627C250.854 28.4268 251.118 28.6143 251.335 28.8252C251.552 29.0303 251.719 29.2705 251.836 29.5459C251.953 29.8154 252.012 30.1377 252.012 30.5127C252.012 30.9697 251.906 31.3682 251.695 31.708C251.484 32.0479 251.203 32.3291 250.852 32.5518C250.5 32.7744 250.093 32.9385 249.63 33.0439C249.173 33.1553 248.689 33.2109 248.18 33.2109C247.195 33.2109 246.343 33.0469 245.622 32.7188Z" fill="#323130"/>
<defs>
<linearGradient id="paint0_linear_15608_6767" x1="13.0629" y1="-1.41119" x2="31.9639" y2="27.9775" gradientUnits="userSpaceOnUse">
<stop offset="0.176282" stop-color="#98BEF5"/>
<stop offset="0.94425" stop-color="#3F6FD1"/>
</linearGradient>
<linearGradient id="paint1_linear_15608_6767" x1="41.6385" y1="45.3603" x2="29.5374" y2="15.1557" gradientUnits="userSpaceOnUse">
<stop stop-color="#283B73"/>
<stop offset="1" stop-color="#436DCD"/>
</linearGradient>
<linearGradient id="paint2_linear_15608_6767" x1="0.682835" y1="13.5796" x2="15.6325" y2="36.9324" gradientUnits="userSpaceOnUse">
<stop offset="0.1947" stop-color="#4A6DC4"/>
<stop offset="0.9988" stop-color="#16296F"/>
</linearGradient>
</defs>
</svg>
