<svg width="254" height="50" viewBox="0 0 254 50" fill="none" xmlns="http://www.w3.org/2000/svg">
<path d="M80.5811 34.2227H79.1558L76.0078 23.3228C75.9326 23.063 75.8711 22.8135 75.8232 22.5742C75.7822 22.335 75.7583 22.1025 75.7515 21.877H75.7104C75.6831 22.2734 75.584 22.7485 75.4131 23.3022L72.1523 34.2227H70.7271L66.3896 19.5186H67.9072L71.1475 31.0542C71.2227 31.3071 71.2808 31.5498 71.3218 31.7822C71.3696 32.0078 71.4072 32.2266 71.4346 32.4385H71.4756C71.5166 32.1309 71.6294 31.6694 71.814 31.0542L75.2593 19.5186H76.3359L79.5659 31.0952C79.6274 31.3276 79.6821 31.5566 79.73 31.7822C79.7778 32.001 79.8154 32.2163 79.8428 32.4282H79.8838C79.8975 32.2915 79.9248 32.1377 79.9658 31.9668C80.0068 31.7959 80.0547 31.6045 80.1094 31.3926L83.3291 19.5186H84.8159L80.5811 34.2227ZM90.6914 34.4688C89.9121 34.4688 89.2114 34.3389 88.5894 34.0791C87.9741 33.8193 87.4478 33.4536 87.0103 32.9819C86.5728 32.5034 86.2378 31.9326 86.0054 31.2695C85.7729 30.6064 85.6567 29.8716 85.6567 29.0649C85.6567 28.1899 85.7798 27.4072 86.0259 26.7168C86.272 26.0264 86.6206 25.4419 87.0718 24.9634C87.5298 24.478 88.0801 24.1089 88.7227 23.856C89.3652 23.603 90.083 23.4766 90.876 23.4766C91.6348 23.4766 92.3184 23.603 92.9268 23.856C93.5352 24.1021 94.0513 24.4609 94.4751 24.9326C94.8989 25.4043 95.2236 25.9785 95.4492 26.6553C95.6748 27.332 95.7876 28.1011 95.7876 28.9624C95.7876 29.7827 95.668 30.5312 95.4287 31.208C95.1963 31.8779 94.8613 32.4556 94.4238 32.9409C93.9863 33.4263 93.4531 33.8022 92.8242 34.0688C92.1953 34.3354 91.4844 34.4688 90.6914 34.4688ZM90.7939 24.6147C90.2197 24.6147 89.7002 24.7139 89.2354 24.9121C88.7705 25.1104 88.3706 25.4009 88.0356 25.7837C87.7075 26.1597 87.4546 26.6245 87.2769 27.1782C87.0991 27.7251 87.0103 28.3472 87.0103 29.0444C87.0103 29.7007 87.0991 30.292 87.2769 30.8184C87.4546 31.3447 87.7041 31.7959 88.0254 32.1719C88.3535 32.5479 88.75 32.8384 89.2148 33.0435C89.6797 33.2417 90.1992 33.3408 90.7734 33.3408C91.3613 33.3408 91.8809 33.2451 92.332 33.0537C92.7832 32.8555 93.166 32.5718 93.4805 32.2026C93.7949 31.8267 94.0308 31.3687 94.188 30.8286C94.3521 30.2886 94.4341 29.6733 94.4341 28.9829C94.4341 27.5679 94.1196 26.4878 93.4907 25.7427C92.8618 24.9907 91.9629 24.6147 90.7939 24.6147ZM103.642 25.0659C103.334 24.8403 102.938 24.7275 102.453 24.7275C102.104 24.7275 101.796 24.7959 101.53 24.9326C101.263 25.0625 101.027 25.2402 100.822 25.4658C100.624 25.6914 100.453 25.9546 100.31 26.2554C100.173 26.5493 100.06 26.8569 99.9712 27.1782C99.8892 27.4995 99.8276 27.8242 99.7866 28.1523C99.7524 28.4805 99.7354 28.7915 99.7354 29.0854V34.2227H98.4331V23.7227H99.7354V25.9683H99.7764C99.8994 25.5854 100.053 25.2437 100.238 24.9429C100.429 24.6353 100.648 24.3789 100.894 24.1738C101.14 23.9619 101.407 23.8013 101.694 23.6919C101.988 23.5825 102.295 23.5278 102.617 23.5278C102.829 23.5278 103.017 23.5415 103.181 23.5688C103.352 23.5962 103.505 23.6372 103.642 23.6919V25.0659ZM111.732 34.2227L106.903 29.106H106.862V34.2227H105.549V18.6777H106.862V28.6138H106.903L111.486 23.7227H113.199L108.277 28.7983L113.588 34.2227H111.732ZM116.747 32.5308V39.0522H115.434V23.7227H116.747V25.7324H116.788C117.177 25.001 117.697 24.4438 118.346 24.061C119.002 23.6714 119.741 23.4766 120.561 23.4766C121.231 23.4766 121.829 23.5996 122.355 23.8457C122.889 24.085 123.336 24.4268 123.699 24.8711C124.068 25.3154 124.348 25.8555 124.54 26.4912C124.738 27.127 124.837 27.8413 124.837 28.6343C124.837 29.5024 124.728 30.2954 124.509 31.0132C124.29 31.7241 123.976 32.3359 123.565 32.8486C123.155 33.3613 122.656 33.7612 122.068 34.0483C121.487 34.3286 120.831 34.4688 120.1 34.4688C118.623 34.4688 117.519 33.8228 116.788 32.5308H116.747ZM116.747 29.8545C116.747 30.333 116.825 30.7842 116.982 31.208C117.146 31.625 117.372 31.9941 117.659 32.3154C117.946 32.6299 118.292 32.8794 118.695 33.064C119.105 33.2485 119.556 33.3408 120.048 33.3408C120.575 33.3408 121.05 33.2314 121.474 33.0127C121.897 32.7871 122.256 32.4692 122.55 32.0591C122.851 31.6489 123.08 31.1533 123.237 30.5723C123.401 29.9912 123.483 29.3418 123.483 28.624C123.483 28.0088 123.408 27.4551 123.258 26.9629C123.107 26.4639 122.892 26.04 122.612 25.6914C122.338 25.3428 122.003 25.0762 121.607 24.8916C121.217 24.707 120.78 24.6147 120.294 24.6147C119.748 24.6147 119.255 24.7173 118.818 24.9224C118.38 25.1206 118.008 25.394 117.7 25.7427C117.393 26.0913 117.157 26.5015 116.993 26.9731C116.829 27.438 116.747 27.9336 116.747 28.46V29.8545ZM127.493 34.2227V18.6777H128.805V34.2227H127.493ZM138.239 34.2227V32.3564H138.198C137.856 33.0264 137.388 33.5459 136.793 33.915C136.205 34.2842 135.539 34.4688 134.793 34.4688C134.288 34.4688 133.83 34.397 133.419 34.2534C133.016 34.1099 132.671 33.9082 132.384 33.6484C132.104 33.3818 131.885 33.064 131.728 32.6948C131.577 32.3257 131.502 31.9189 131.502 31.4746C131.502 30.5244 131.796 29.769 132.384 29.2085C132.972 28.6411 133.86 28.272 135.05 28.1011L138.239 27.6396C138.239 25.623 137.456 24.6147 135.891 24.6147C134.667 24.6147 133.532 25.0625 132.486 25.958V24.5225C132.705 24.3652 132.951 24.2251 133.225 24.1021C133.505 23.9722 133.799 23.8628 134.106 23.7739C134.414 23.6782 134.729 23.6064 135.05 23.5586C135.378 23.5039 135.696 23.4766 136.003 23.4766C137.172 23.4766 138.054 23.8047 138.649 24.4609C139.25 25.1172 139.551 26.0947 139.551 27.3936V34.2227H138.239ZM135.532 29.1265C135.06 29.1948 134.657 29.2803 134.322 29.3828C133.987 29.4854 133.71 29.6255 133.491 29.8032C133.272 29.9741 133.112 30.1895 133.009 30.4492C132.907 30.7021 132.855 31.0166 132.855 31.3926C132.855 31.6729 132.903 31.9326 132.999 32.1719C133.102 32.4111 133.245 32.6196 133.43 32.7974C133.621 32.9683 133.85 33.1016 134.117 33.1973C134.39 33.293 134.698 33.3408 135.04 33.3408C135.504 33.3408 135.932 33.252 136.321 33.0742C136.711 32.8965 137.046 32.6504 137.326 32.3359C137.613 32.0215 137.835 31.6455 137.993 31.208C138.157 30.7705 138.239 30.2954 138.239 29.7827V28.7471L135.532 29.1265ZM149.692 33.751C148.913 34.2227 147.97 34.4653 146.862 34.479C146.11 34.4858 145.434 34.356 144.832 34.0894C144.23 33.8228 143.718 33.4536 143.294 32.9819C142.87 32.5034 142.545 31.9429 142.32 31.3003C142.094 30.6509 141.981 29.9468 141.981 29.188C141.981 28.4019 142.101 27.6636 142.34 26.9731C142.58 26.2759 142.928 25.6709 143.386 25.1582C143.844 24.6387 144.405 24.2285 145.068 23.9277C145.731 23.627 146.49 23.4766 147.344 23.4766C148.212 23.4766 149.005 23.644 149.723 23.979V25.3735C148.958 24.8677 148.13 24.6147 147.242 24.6147C146.62 24.6147 146.066 24.7344 145.581 24.9736C145.095 25.2061 144.685 25.5273 144.35 25.9375C144.022 26.3408 143.769 26.8159 143.591 27.3628C143.42 27.9028 143.335 28.4771 143.335 29.0854C143.335 29.646 143.407 30.1826 143.55 30.6953C143.701 31.208 143.926 31.6626 144.227 32.0591C144.535 32.4487 144.921 32.7598 145.386 32.9922C145.851 33.2246 146.397 33.3408 147.026 33.3408C148.011 33.3408 148.899 33.0469 149.692 32.459V33.751ZM152.851 29.2085C152.857 29.8511 152.943 30.4287 153.107 30.9414C153.271 31.4541 153.507 31.8882 153.814 32.2437C154.122 32.5991 154.495 32.8726 154.932 33.064C155.376 33.2485 155.875 33.3408 156.429 33.3408C157.612 33.3408 158.729 32.9272 159.782 32.1001V33.3921C158.777 34.1099 157.561 34.4688 156.132 34.4688C155.428 34.4688 154.789 34.3457 154.214 34.0996C153.64 33.8535 153.151 33.498 152.748 33.0332C152.345 32.5615 152.034 31.9839 151.815 31.3003C151.596 30.6167 151.487 29.8374 151.487 28.9624C151.487 28.1763 151.606 27.4482 151.846 26.7783C152.085 26.1084 152.417 25.5308 152.84 25.0454C153.264 24.5532 153.767 24.1704 154.348 23.897C154.929 23.6167 155.564 23.4766 156.255 23.4766C156.932 23.4766 157.53 23.5962 158.049 23.8354C158.569 24.0679 159.003 24.4028 159.352 24.8403C159.707 25.2778 159.977 25.811 160.162 26.4399C160.346 27.0688 160.438 27.7729 160.438 28.5522V29.2085H152.851ZM159.085 28.0601C159.064 26.9663 158.805 26.1187 158.306 25.5171C157.807 24.9155 157.113 24.6147 156.224 24.6147C155.78 24.6147 155.366 24.6934 154.983 24.8506C154.607 25.0078 154.276 25.2368 153.989 25.5376C153.702 25.8315 153.462 26.1938 153.271 26.6245C153.086 27.0483 152.957 27.5269 152.881 28.0601H159.085ZM178.516 34.2227L176.896 29.875H170.59L169.011 34.2227H167.493L173.092 19.5186H174.466L180.034 34.2227H178.516ZM174.035 22.0923C173.987 21.9624 173.936 21.812 173.881 21.6411C173.833 21.4702 173.792 21.2754 173.758 21.0566H173.717C173.676 21.2754 173.628 21.4702 173.574 21.6411C173.526 21.812 173.478 21.9624 173.43 22.0923L171.051 28.6343H176.435L174.035 22.0923ZM189.231 34.2227V28.1729C189.231 25.8008 188.37 24.6147 186.647 24.6147C186.189 24.6147 185.766 24.707 185.376 24.8916C184.986 25.0693 184.648 25.3188 184.361 25.6401C184.081 25.9614 183.858 26.3442 183.694 26.7886C183.537 27.2261 183.458 27.7012 183.458 28.2139V34.2227H182.146V23.7227H183.458V25.5479H183.5C184.279 24.167 185.451 23.4766 187.017 23.4766C188.165 23.4766 189.04 23.8491 189.642 24.5942C190.243 25.3394 190.544 26.416 190.544 27.8242V34.2227H189.231ZM199.762 34.2227V32.3564H199.721C199.379 33.0264 198.911 33.5459 198.316 33.915C197.729 34.2842 197.062 34.4688 196.317 34.4688C195.811 34.4688 195.353 34.397 194.943 34.2534C194.54 34.1099 194.194 33.9082 193.907 33.6484C193.627 33.3818 193.408 33.064 193.251 32.6948C193.101 32.3257 193.025 31.9189 193.025 31.4746C193.025 30.5244 193.319 29.769 193.907 29.2085C194.495 28.6411 195.384 28.272 196.573 28.1011L199.762 27.6396C199.762 25.623 198.979 24.6147 197.414 24.6147C196.19 24.6147 195.056 25.0625 194.01 25.958V24.5225C194.229 24.3652 194.475 24.2251 194.748 24.1021C195.028 23.9722 195.322 23.8628 195.63 23.7739C195.938 23.6782 196.252 23.6064 196.573 23.5586C196.901 23.5039 197.219 23.4766 197.527 23.4766C198.696 23.4766 199.578 23.8047 200.172 24.4609C200.774 25.1172 201.075 26.0947 201.075 27.3936V34.2227H199.762ZM197.055 29.1265C196.583 29.1948 196.18 29.2803 195.845 29.3828C195.51 29.4854 195.233 29.6255 195.015 29.8032C194.796 29.9741 194.635 30.1895 194.533 30.4492C194.43 30.7021 194.379 31.0166 194.379 31.3926C194.379 31.6729 194.427 31.9326 194.522 32.1719C194.625 32.4111 194.769 32.6196 194.953 32.7974C195.145 32.9683 195.374 33.1016 195.64 33.1973C195.914 33.293 196.221 33.3408 196.563 33.3408C197.028 33.3408 197.455 33.252 197.845 33.0742C198.234 32.8965 198.569 32.6504 198.85 32.3359C199.137 32.0215 199.359 31.6455 199.516 31.208C199.68 30.7705 199.762 30.2954 199.762 29.7827V28.7471L197.055 29.1265ZM204.233 34.2227V18.6777H205.545V34.2227H204.233ZM211.975 36.1299C211.564 37.1553 211.093 37.9141 210.56 38.4062C210.026 38.9053 209.38 39.1548 208.622 39.1548C208.246 39.1548 207.928 39.1104 207.668 39.0215V37.791C207.818 37.8457 207.969 37.8867 208.119 37.9141C208.276 37.9414 208.434 37.9551 208.591 37.9551C209.021 37.9551 209.394 37.8184 209.708 37.5449C210.03 37.2783 210.307 36.8716 210.539 36.3247L211.452 34.1714L207.412 23.7227H208.868L211.872 32.0386C211.913 32.1479 211.951 32.2744 211.985 32.418C212.026 32.5547 212.063 32.6914 212.098 32.8281H212.149C212.183 32.7119 212.214 32.5957 212.241 32.4795C212.275 32.3564 212.32 32.2231 212.375 32.0796L215.563 23.7227H216.948L211.975 36.1299ZM223.346 34.0996C222.895 34.3252 222.403 34.438 221.87 34.438C220.174 34.438 219.327 33.4604 219.327 31.5054V24.8711H217.481V23.7227H219.327V21.0771L220.639 20.6465V23.7227H223.346V24.8711H220.639V31.3003C220.639 32.0112 220.755 32.5239 220.988 32.8384C221.22 33.1528 221.613 33.3101 222.167 33.3101C222.577 33.3101 222.97 33.187 223.346 32.9409V34.0996ZM226.166 21.0669C225.913 21.0669 225.694 20.978 225.51 20.8003C225.325 20.6226 225.233 20.397 225.233 20.1235C225.233 19.8569 225.325 19.6382 225.51 19.4673C225.694 19.2896 225.913 19.2007 226.166 19.2007C226.296 19.2007 226.419 19.2246 226.535 19.2725C226.651 19.3135 226.75 19.375 226.833 19.457C226.921 19.5391 226.99 19.6382 227.038 19.7544C227.092 19.8638 227.12 19.9868 227.12 20.1235C227.12 20.2534 227.096 20.3765 227.048 20.4927C227 20.6089 226.932 20.7114 226.843 20.8003C226.754 20.8823 226.651 20.9473 226.535 20.9951C226.426 21.043 226.303 21.0669 226.166 21.0669ZM225.52 34.2227V23.7227H226.833V34.2227H225.52ZM237.199 33.751C236.42 34.2227 235.477 34.4653 234.369 34.479C233.617 34.4858 232.94 34.356 232.339 34.0894C231.737 33.8228 231.225 33.4536 230.801 32.9819C230.377 32.5034 230.052 31.9429 229.827 31.3003C229.601 30.6509 229.488 29.9468 229.488 29.188C229.488 28.4019 229.608 27.6636 229.847 26.9731C230.086 26.2759 230.435 25.6709 230.893 25.1582C231.351 24.6387 231.912 24.2285 232.575 23.9277C233.238 23.627 233.997 23.4766 234.851 23.4766C235.719 23.4766 236.512 23.644 237.23 23.979V25.3735C236.464 24.8677 235.637 24.6147 234.749 24.6147C234.126 24.6147 233.573 24.7344 233.087 24.9736C232.602 25.2061 232.192 25.5273 231.857 25.9375C231.529 26.3408 231.276 26.8159 231.098 27.3628C230.927 27.9028 230.842 28.4771 230.842 29.0854C230.842 29.646 230.914 30.1826 231.057 30.6953C231.208 31.208 231.433 31.6626 231.734 32.0591C232.042 32.4487 232.428 32.7598 232.893 32.9922C233.357 33.2246 233.904 33.3408 234.533 33.3408C235.518 33.3408 236.406 33.0469 237.199 32.459V33.751ZM239.137 32.3359C239.335 32.4932 239.551 32.6333 239.783 32.7563C240.016 32.8794 240.255 32.9854 240.501 33.0742C240.747 33.1631 240.993 33.2314 241.239 33.2793C241.492 33.3203 241.731 33.3408 241.957 33.3408C243.516 33.3408 244.295 32.7563 244.295 31.5874C244.295 31.3208 244.24 31.0918 244.131 30.9004C244.021 30.7021 243.864 30.5244 243.659 30.3672C243.454 30.2031 243.208 30.0527 242.921 29.916C242.634 29.7793 242.309 29.6357 241.947 29.4854C241.461 29.2871 241.044 29.0854 240.696 28.8804C240.347 28.6753 240.06 28.4531 239.834 28.2139C239.609 27.9678 239.441 27.7012 239.332 27.4141C239.223 27.1201 239.168 26.7886 239.168 26.4194C239.168 25.9546 239.267 25.541 239.465 25.1787C239.67 24.8164 239.944 24.5088 240.286 24.2559C240.627 24.0029 241.021 23.8115 241.465 23.6816C241.916 23.5449 242.388 23.4766 242.88 23.4766C243.789 23.4766 244.582 23.6475 245.259 23.9893V25.3735C244.473 24.8677 243.625 24.6147 242.716 24.6147C242.388 24.6147 242.087 24.6558 241.813 24.7378C241.547 24.8198 241.318 24.936 241.126 25.0864C240.935 25.2368 240.785 25.418 240.675 25.6299C240.573 25.835 240.521 26.064 240.521 26.3169C240.521 26.5767 240.562 26.8057 240.645 27.0039C240.727 27.1953 240.853 27.3696 241.024 27.5269C241.202 27.6841 241.427 27.8345 241.701 27.978C241.981 28.1216 242.319 28.2754 242.716 28.4395C243.222 28.6445 243.659 28.8496 244.028 29.0547C244.397 29.2529 244.702 29.4717 244.941 29.7109C245.18 29.9434 245.358 30.2065 245.474 30.5005C245.59 30.7876 245.648 31.1226 245.648 31.5054C245.648 31.9771 245.549 32.3975 245.351 32.7666C245.16 33.1357 244.89 33.4468 244.541 33.6997C244.199 33.9526 243.796 34.144 243.331 34.2739C242.866 34.4038 242.36 34.4688 241.813 34.4688C240.754 34.4688 239.862 34.2466 239.137 33.8022V32.3359Z" fill="#344B59"/>
<rect width="50" height="50" fill="#5B95A5"/>
<path d="M13 25.7351C13 32.6448 18.2302 38.2476 25.5125 38.2476C32.423 38.2476 38.0249 32.6456 38.0249 25.7351C38.0249 18.8246 32.423 13.2227 25.5125 13.2227" stroke="white" stroke-width="2" stroke-linecap="round"/>
<path d="M25.5117 33.2426C29.6581 33.2426 33.0192 29.8815 33.0192 25.7351C33.0192 21.5888 29.6581 18.2276 25.5117 18.2276" stroke="white" stroke-width="2" stroke-linecap="round"/>
<path d="M28.0142 25.7351C28.0142 24.3529 26.8939 23.2326 25.5117 23.2326" stroke="white" stroke-width="2" stroke-linecap="round"/>
</svg>
