<svg xmlns="http://www.w3.org/2000/svg" width="154.1" height="96.13" viewBox="0 0 154.1 96.13"><defs><style>.cls-1{fill:#191919;stroke:#fff;stroke-miterlimit:1.18;stroke-width:0.51px;fill-rule:evenodd;}</style></defs><g id="Layer_2" data-name="Layer 2"><g id="Layer_1-2" data-name="Layer 1"><path id="Biswanath" class="cls-1" d="M130.06,50.15c2.34-1.76,4.49-3.39,7.29-4.22s3.56-1.45,5.79.92c1.15,1.23,3.47.57,4.52-1a12.49,12.49,0,0,1,2.05-2.06l3.56-4.7h0c-.52-1.16.35-6.54.51-8.15.3-3.17-.3-5.12-3.68-6C146,24,146,20.41,146,16.87c0-6.43.06-4.24-2.81-9.87l-7-6.82h0l-7.93,8.13c-3.68,3.77-9.26,4.26-14.54,4.89L93,15.64c-1,1.39-3.61,3-5.07,4-9.7.65-6,.66-13.23-5.54-3.22-2.77-6.3-5.55-10.7-5.55-12.41,0-26.18,5.46-38.2,8.46C15.72,19.58,7.51,19.35.58,17.8h0L2.11,28.73C2.65,32,1.75,31.2,1,33.86c-.89,3.31-.88,1.86-.62,5.4A55,55,0,0,0,.81,45c.68,3.11,0,9.06.76,12.58.43,2.06.35,5.41.94,7.71s1,3,1.58,5C5.4,74.35,6,76.44,8.24,80.2c1,1.73,1.94,3.27,3.15,4.92.94,1.27,3,8.25,3.12,10h0c5,1.11,7.22.89,12.07-.28,2-.48,6.28-3.25,7.85-4.62,1.16-1,3.65-2.61,4.56-3.94a33.72,33.72,0,0,1,5.61-4.82c3.76-2.38,4.07-5,9.37-6.84a5.64,5.64,0,0,1,1.76-.52h0c2.41-2,5.25-4.13,6.89-6.8.77-1.26,3.66-4.17,5.27-3.37,3,1.47,5.85.61,8.57-.89.86-.47,3.65-1.34,5.21-2.12C86,58.8,89,59.09,93.5,60.21c4,1,8.19,5.54,12.25,7.46,4.35,2.06,5.24,3.61,10.64,2.66s13,5.25,12.32-3.65c-.34-4.62-.32-4.12-1.76-8.27-.56-1.6-.54-.52-.54-2.67,0-2.45,1.43-3.91,3.22-5.43a.76.76,0,0,1,.43-.16Z"/></g></g></svg>