<svg xmlns="http://www.w3.org/2000/svg" width="170.21" height="123.93" viewBox="0 0 170.21 123.93"><defs><style>.cls-1{fill:#191919;stroke:#fff;stroke-miterlimit:1.18;stroke-width:0.51px;fill-rule:evenodd;}</style></defs><g id="Layer_2" data-name="Layer 2"><g id="Layer_1-2" data-name="Layer 1"><path id="Dhubri" class="cls-1" d="M27.25,123.69l10.61-4.24A36.69,36.69,0,0,0,46.42,113c1.59-1.64,3.49-3,4.79-4.94a38.9,38.9,0,0,1,4.08-4c.6-.35,5.9-5.24,6.56-5.89,4.09-4,4.53-7.44,9.8-11.23C74,85.22,73,85,76.49,83.34c3.27-1.53,8.76-7.33,12.67-9.79,1.81-1.15,6.42-2.52,9-3.91a22.65,22.65,0,0,1,2.62-1.3h0c7-6.38,4.6-9.13,6.3-11.06s5.14-1.2,6.78-2.42c2.77-2,2.62-5,6.36-7.87,2.79-2.12,3.65-2.82,7.1-3,4.08-.17,5.8-2,9.34-2.14,4.68-.17,6.91-5.13,15.15-3.54a6.54,6.54,0,0,0,3.92-.19h0l2.57-2.91c.83-1,3.28-3,2.87-3.92-1.25-2.89,1.36-2.41,3.36-3.11,3.42-1.21.66-8.37,3.57-8.2,3.61.22,1.14-6.11-.87-7.29s-2.81-4.36-2.72-6.4c.11-2.46-4.2-4.46-5.94-5.3h0c-1.49.28-2.09,1.82-2.53,3-1,2.86.46,4.88.21,5.75-1.57,5.41-4.36,6.15-8.44,8.93-2.09,1.41-3.8,2.36-6.08,4-.94.43-1.67.51-2.3,1.44-1.67,2.49-6.2,5.24-8.3,2.24-1.62-2.31-5.1,3.17-7.4,2.95-2.83-.27-2.21-4.22-1.7-6.06,1.35-4.94-.58-2.84-1-4.16-.65-2.26,3.77-3.14,1.44-7.35-.39-.71-4.66-3.36-5.53-3.55-3.74-.83-7.12.16-10.76-1.41-2.45-1.07-6.52,1-8.19,2.8-3.69,4.09.11,8.54-2.54,12.18-4.3,5.92-3.13,3.34-2,9.13.55,2.77,1.07,4.31-.83,6.66a27.32,27.32,0,0,1-6.37,4.78C83.93,43.36,76,49.81,74,52c-1.74,1.94-2.36,3.47-4.51,5.16-2.81,2.21-3.56,1.7-6.57,2.6-1.62.48-3.68.19-5.29.1a4,4,0,0,0-.42-.4,38.76,38.76,0,0,1-3.63-3.18c-.56-.5-1.9-2-2-2.12-1.2-1-2-5.85-1.66-7.27a55.68,55.68,0,0,0,.41-8.08c0-1.84-3.31-8.37-4.36-10.08-1.33-2.16,1-6.07,2.32-7.82,1.8-2.43.38-6.62-1.85-7.55a64.72,64.72,0,0,1-7.68-3.84L26.2.27h0c-1,.16-2.14.08-3.24.21-4.37.51-1.2,2.58-1.87,4.88-1,3.41-8.56,1.45-7.37,6.49s-3.79,6-6,9.54c-4.12,2.06-.46,3.19-.09,6.86S3.89,36.15,1,38c-.87,1.59-1.41,2.71.94,2.12,1.59-.41,2.87-1.22,4.36-.14a3.32,3.32,0,0,1,.1,1.41C5.77,43.75,4,47.42,3.05,49.94h0a26.87,26.87,0,0,0,5.75-1c4.89-1.5,4.48,7,3.94,9.4s3.6,5.19,4.78,7.52c2.17,4.29,3.2,5.23.19,9.59-.8,1.16,3.87,13.3,6.1,4.32,1.3.26,7.13,17.19,7.13,19.93s4.58,1.54,6.2,2.35c0,4.37-3.65,6.94-6.29,10.06-3.35,4-3.39,7.54-3.6,11.59Z"/></g></g></svg>