<svg xmlns="http://www.w3.org/2000/svg" width="83.63" height="102.56" viewBox="0 0 83.63 102.56"><defs><style>.cls-1{fill:#191919;stroke:#fff;stroke-miterlimit:1.18;stroke-width:0.51px;fill-rule:evenodd;}</style></defs><g id="Layer_2" data-name="Layer 2"><g id="Layer_1-2" data-name="Layer 1"><path id="Nalbari" class="cls-1" d="M13.09,11.26,17.25,9c2,1.41,2.27,1.84,2.79,4.16.47,2.09-.12,4.34,2.54,5.63,2.24,1.08,4.05-.4,6-1.66,1.33-.88,2.89-2.61,4.28-3.55,3.07-2.07,3.36-2,7-2.39,1.55-.17,2.7.35,4.64-.18A9.84,9.84,0,0,0,49.2,8.46c.51-.48.86-1,1.27-1.48,2.39-2.42,2.2-3.18,6-2.37,2.74.59,3.75,3.18,6.5,2.33a42.83,42.83,0,0,0,5.18-2.76c1.36-.85,3.23-1.44,4.56-2.37.65-.45,3.06-1.67,3.81-1.54a16.69,16.69,0,0,0,3.05,1.28c2.79.56,4.19,1.12,3.75,4.2,0,.23-1.49,4.73-1.5,4.75h0c-1.32.17-4.9.74-5.1.78-3.38.63-4.18,3.78-2.44,6.18C76.8,21,70.76,22,71.61,25c1.06,3.81.64,1.64-.42,5.24-.4,1.34,2,5.39-.65,8.91-1.52,2-2,2.12-3.4,4.59s-.36,2.41-2.39,5.39l-.08.18c-1.06,2.52-.81,3.63-1.53,5.61-1.67,4.55-3,6.29-8.23,6.29-4.34,0-5.89,3.11-5.53,7.08.54,6-5.12,1-5.79,5.91-.53,3.88,2.68,3.76.06,10.2-1.08,2.66-.67,5.28-1.5,7.68-1.26,3.64,1,10.1-4,10.2-1.31,0-4-2.12-4.87-3C30,96,27.12,97.88,24.43,96.09c-2.94-2-11.75,2.73-14.82,1.71s-3.93-2-5.41-4.94h0l1.62-2.55a11.82,11.82,0,0,0,1.33-2.8c.87-2.36-3.66-3.22-4.57-3.85C1.1,82.62-.18,82.34.4,80.42c1.14-3.72,6.31-5.66,3.31-7-2.25-1-1.19-3.17.4-4.25,2.83-1.92,3,.49,4.51-4.11.37-1.6,1.5-4.11,1.37-5.81A7,7,0,0,1,10.61,55c1.31-3.08,3.67-3.78,3.26-6.42S7.08,42.1,6.38,35.83c-.49-4.35,0-8.55,3.16-11.75,4.3-4.29,3.84-6.93,3.55-12.82Z"/></g></g></svg>