<svg width="1186" height="303" viewBox="0 0 1186 303" fill="none" xmlns="http://www.w3.org/2000/svg">
<path d="M41.0439 248.68C41.0439 251.92 38.8119 253.624 34.9959 253.696L32.9559 253.72V259H31.4199V244H35.1879C39.0519 244 41.0439 245.824 41.0439 248.68ZM39.4599 248.752C39.4599 246.592 37.9479 245.416 35.1399 245.416H32.9559V252.304L35.0919 252.256C37.9959 252.208 39.4599 251.032 39.4599 248.752ZM45.1612 251.944V259H43.6732V248.008L45.1612 247.696V250.048C45.9532 248.488 47.0332 247.696 48.4012 247.696C49.0972 247.696 49.7212 247.864 50.3212 248.2L49.9372 249.592C49.4092 249.28 48.8572 249.112 48.2572 249.112C47.0332 249.112 46.0012 250.048 45.1612 251.944ZM54.0039 244.384C54.0039 244.696 53.9079 244.936 53.7399 245.152C53.5719 245.368 53.3079 245.488 52.9959 245.488C52.6839 245.488 52.4199 245.368 52.2519 245.152C52.0839 244.936 51.9879 244.696 51.9879 244.384C51.9879 244.096 52.0839 243.856 52.2519 243.64C52.4199 243.424 52.6839 243.328 52.9959 243.328C53.3079 243.328 53.5719 243.424 53.7399 243.64C53.9079 243.856 54.0039 244.096 54.0039 244.384ZM53.7399 259H52.2519V248.008L53.7399 247.696V259ZM65.3075 258.376C64.2995 259 63.1715 259.312 61.8995 259.312C58.6115 259.312 56.5235 257.008 56.5235 253.528C56.5235 251.824 57.0275 250.408 58.0595 249.328C59.0675 248.248 60.3635 247.696 61.9235 247.696C63.2435 247.696 64.3715 248.008 65.3555 248.632L64.9715 249.976C64.0835 249.376 63.0515 249.088 61.9235 249.088C59.5475 249.088 58.0595 250.84 58.0595 253.48C58.0595 256.192 59.5955 257.92 61.9475 257.92C63.0515 257.92 64.0595 257.608 64.9955 257.008L65.3075 258.376ZM68.7465 253.552V253.672C68.8185 256.192 70.3065 257.92 72.5865 257.92C73.7865 257.92 74.8425 257.608 75.7785 257.008L76.0665 258.376C75.0585 259 73.8825 259.312 72.5385 259.312C69.3945 259.312 67.2345 256.984 67.2345 253.6C67.2345 251.872 67.7385 250.456 68.7225 249.352C69.7065 248.248 70.9305 247.696 72.4185 247.696C74.8665 247.696 76.4265 249.28 76.4265 251.752C76.4265 252.4 76.3545 252.976 76.1865 253.504L68.7465 253.552ZM68.8425 252.376L74.9385 252.352C74.9625 252.28 74.9625 252.112 74.9625 251.872C74.9625 250.144 74.0265 249.04 72.3225 249.04C70.4265 249.04 69.1065 250.456 68.8425 252.376Z" fill="#111115"/>
<path d="M265.488 251.32C267.672 251.728 268.848 253.024 268.848 254.824C268.848 257.392 267.12 259 263.448 259H258.576V244H263.256C266.736 244 268.368 245.488 268.368 247.912C268.368 249.496 267.384 250.84 265.488 251.32ZM266.832 248.032C266.832 246.352 265.632 245.392 263.328 245.392H260.112V250.792H263.088C265.392 250.792 266.832 249.808 266.832 248.032ZM267.312 254.824C267.312 253.072 265.944 252.184 263.184 252.184H260.112V257.608H263.568C266.064 257.608 267.312 256.672 267.312 254.824ZM271.484 248.008H272.972V255.112C272.972 256.96 273.764 257.896 275.348 257.896C276.596 257.896 277.724 257.368 278.732 256.336V248.008H280.22V259L278.732 259.312V257.536C277.58 258.712 276.308 259.312 274.94 259.312C272.78 259.312 271.484 257.92 271.484 255.544V248.008ZM285.161 251.944V259H283.673V248.008L285.161 247.696V250.048C285.953 248.488 287.033 247.696 288.401 247.696C289.097 247.696 289.721 247.864 290.321 248.2L289.937 249.592C289.409 249.28 288.857 249.112 288.257 249.112C287.033 249.112 286.001 250.048 285.161 251.944ZM299.386 248.368V242.824L300.874 242.512V259H299.386V257.968C298.426 258.856 297.37 259.312 296.194 259.312C293.242 259.312 291.274 256.984 291.274 253.6C291.274 251.896 291.778 250.504 292.81 249.4C293.842 248.32 295.138 247.768 296.722 247.768C297.634 247.768 298.522 247.96 299.386 248.368ZM299.386 249.952C298.666 249.4 297.754 249.112 296.65 249.112C294.298 249.112 292.81 250.936 292.81 253.576C292.81 256.144 294.25 257.944 296.458 257.944C297.538 257.944 298.522 257.536 299.386 256.72V250.168V249.952ZM305.114 253.552V253.672C305.186 256.192 306.674 257.92 308.954 257.92C310.154 257.92 311.21 257.608 312.146 257.008L312.434 258.376C311.426 259 310.25 259.312 308.906 259.312C305.762 259.312 303.602 256.984 303.602 253.6C303.602 251.872 304.106 250.456 305.09 249.352C306.074 248.248 307.298 247.696 308.786 247.696C311.234 247.696 312.794 249.28 312.794 251.752C312.794 252.4 312.722 252.976 312.554 253.504L305.114 253.552ZM305.21 252.376L311.306 252.352C311.33 252.28 311.33 252.112 311.33 251.872C311.33 250.144 310.394 249.04 308.69 249.04C306.794 249.04 305.474 250.456 305.21 252.376ZM324.331 259H322.843V251.896C322.843 249.976 322.099 249.112 320.419 249.112C319.243 249.112 318.115 249.64 317.083 250.672V259H315.595V248.008L317.083 247.696V249.496C318.283 248.296 319.531 247.696 320.827 247.696C323.035 247.696 324.331 249.04 324.331 251.464V259ZM343.157 253.48C343.157 255.208 342.653 256.6 341.621 257.68C340.589 258.76 339.317 259.312 337.757 259.312C336.197 259.312 334.925 258.784 333.941 257.728C332.957 256.672 332.453 255.28 332.453 253.528C332.453 251.8 332.981 250.384 334.013 249.304C335.045 248.224 336.317 247.696 337.877 247.696C339.437 247.696 340.709 248.224 341.693 249.28C342.677 250.336 343.157 251.728 343.157 253.48ZM341.693 253.528C341.693 250.816 340.157 249.04 337.805 249.04C335.501 249.04 333.941 250.84 333.941 253.48C333.941 256.192 335.477 257.968 337.829 257.968C340.133 257.968 341.693 256.168 341.693 253.528ZM351.563 242.776L351.491 243.112C351.419 243.352 351.371 243.568 351.299 243.784L351.203 244.12C350.555 243.808 350.003 243.664 349.523 243.664C348.299 243.664 347.699 244.528 347.699 246.232V248.056H351.155L351.083 249.376H347.699V259H346.235V249.424L344.459 249.304L344.555 248.368L346.211 247.984L346.235 246.256C346.283 243.616 347.387 242.296 349.547 242.296C350.219 242.296 350.891 242.464 351.563 242.776ZM238.855 287.576V284.36C235.159 284.768 233.743 285.584 233.743 287.096C233.743 288.248 234.679 289.016 235.999 289.016C237.055 289.016 238.015 288.536 238.855 287.576ZM238.951 288.68H238.879C237.991 289.76 236.935 290.312 235.663 290.312C233.647 290.312 232.183 289.04 232.183 287.264C232.183 284.912 234.415 283.616 238.855 283.352V282.704C238.855 280.952 237.991 280.088 236.263 280.088C235.111 280.088 233.671 280.664 232.663 281.408L232.327 280.016C233.383 279.272 235.015 278.696 236.407 278.696C239.047 278.696 240.367 280.016 240.343 282.632V287.912C240.343 288.776 240.535 289.04 241.447 289.016L241.351 290.24C239.935 290.336 239.119 289.808 238.951 288.68ZM252.401 290H250.913V282.896C250.913 280.976 250.169 280.112 248.489 280.112C247.313 280.112 246.185 280.64 245.153 281.672V290H243.665V279.008L245.153 278.696V280.496C246.353 279.296 247.601 278.696 248.897 278.696C251.105 278.696 252.401 280.04 252.401 282.464V290ZM265.767 284.48C265.767 286.208 265.263 287.6 264.231 288.68C263.199 289.76 261.927 290.312 260.367 290.312C258.807 290.312 257.535 289.784 256.551 288.728C255.567 287.672 255.063 286.28 255.063 284.528C255.063 282.8 255.591 281.384 256.623 280.304C257.655 279.224 258.927 278.696 260.487 278.696C262.047 278.696 263.319 279.224 264.303 280.28C265.287 281.336 265.767 282.728 265.767 284.48ZM264.303 284.528C264.303 281.816 262.767 280.04 260.415 280.04C258.111 280.04 256.551 281.84 256.551 284.48C256.551 287.192 258.087 288.968 260.439 288.968C262.743 288.968 264.303 287.168 264.303 284.528ZM274.005 289.784C273.189 290.168 272.373 290.36 271.557 290.36C269.517 290.36 268.533 289.208 268.605 286.904L268.773 280.4L267.093 280.304L267.165 279.368L268.821 278.984L268.893 276.488H270.309L270.237 279.056H273.909L273.837 280.376H270.189L270.021 286.952C269.973 288.32 270.501 289.016 271.629 289.016C272.229 289.016 272.925 288.848 273.741 288.488L274.005 289.784ZM285.167 290H283.679V282.896C283.679 281.048 282.887 280.112 281.327 280.112C280.103 280.112 278.951 280.64 277.919 281.672V290H276.431V273.824L277.919 273.512V280.448C279.095 279.272 280.367 278.696 281.735 278.696C283.895 278.696 285.167 280.04 285.167 282.464V290ZM289.34 284.552V284.672C289.412 287.192 290.9 288.92 293.18 288.92C294.38 288.92 295.436 288.608 296.372 288.008L296.66 289.376C295.652 290 294.476 290.312 293.132 290.312C289.988 290.312 287.828 287.984 287.828 284.6C287.828 282.872 288.332 281.456 289.316 280.352C290.3 279.248 291.524 278.696 293.012 278.696C295.46 278.696 297.02 280.28 297.02 282.752C297.02 283.4 296.948 283.976 296.78 284.504L289.34 284.552ZM289.436 283.376L295.532 283.352C295.556 283.28 295.556 283.112 295.556 282.872C295.556 281.144 294.62 280.04 292.916 280.04C291.02 280.04 289.7 281.456 289.436 283.376ZM301.31 282.944V290H299.822V279.008L301.31 278.696V281.048C302.102 279.488 303.182 278.696 304.55 278.696C305.246 278.696 305.87 278.864 306.47 279.2L306.086 280.592C305.558 280.28 305.006 280.112 304.406 280.112C303.182 280.112 302.15 281.048 301.31 282.944ZM314.677 282.848C314.677 284.48 315.781 285.656 317.509 285.656C318.349 285.656 318.997 285.392 319.501 284.84C320.005 284.312 320.245 283.616 320.245 282.776C320.245 281.936 320.005 281.24 319.525 280.712C319.021 280.184 318.325 279.92 317.437 279.92C315.733 279.92 314.677 281.12 314.677 282.848ZM315.973 290.312C314.653 290.672 313.741 291.536 313.741 292.472C313.741 293.792 315.205 294.728 317.485 294.728C319.789 294.728 321.613 293.624 321.613 292.136C321.613 290.888 320.557 290.384 318.277 290.384C317.365 290.384 316.597 290.36 315.973 290.312ZM314.677 290.024C313.693 289.664 313.189 289.088 313.189 288.272C313.189 287.36 313.933 286.568 314.989 286.184C313.813 285.464 313.213 284.336 313.213 282.824C313.213 280.448 314.965 278.696 317.533 278.696C318.493 278.696 319.357 278.912 320.125 279.344L323.173 279.104L323.245 280.592L320.821 280.352C321.325 280.856 321.709 281.912 321.709 282.824C321.709 285.176 319.909 286.856 317.437 286.856C316.933 286.856 316.405 286.76 315.805 286.544C314.989 286.88 314.581 287.312 314.581 287.864C314.581 288.608 315.205 288.992 317.077 288.992H318.493C321.541 288.992 323.053 289.952 323.053 291.872C323.053 293.048 322.477 294.032 321.349 294.8C320.221 295.568 318.853 295.952 317.269 295.952C314.317 295.952 312.301 294.656 312.301 292.736C312.301 291.488 313.261 290.384 314.677 290.024ZM330.8 287.576V284.36C327.104 284.768 325.688 285.584 325.688 287.096C325.688 288.248 326.624 289.016 327.944 289.016C329 289.016 329.96 288.536 330.8 287.576ZM330.896 288.68H330.824C329.936 289.76 328.88 290.312 327.608 290.312C325.592 290.312 324.128 289.04 324.128 287.264C324.128 284.912 326.36 283.616 330.8 283.352V282.704C330.8 280.952 329.936 280.088 328.208 280.088C327.056 280.088 325.616 280.664 324.608 281.408L324.272 280.016C325.328 279.272 326.96 278.696 328.352 278.696C330.992 278.696 332.312 280.016 332.288 282.632V287.912C332.288 288.776 332.48 289.04 333.392 289.016L333.296 290.24C331.88 290.336 331.064 289.808 330.896 288.68ZM343.003 279.368V273.824L344.491 273.512V290H343.003V288.968C342.043 289.856 340.987 290.312 339.811 290.312C336.859 290.312 334.891 287.984 334.891 284.6C334.891 282.896 335.395 281.504 336.427 280.4C337.459 279.32 338.755 278.768 340.339 278.768C341.251 278.768 342.139 278.96 343.003 279.368ZM343.003 280.952C342.283 280.4 341.371 280.112 340.267 280.112C337.915 280.112 336.427 281.936 336.427 284.576C336.427 287.144 337.867 288.944 340.075 288.944C341.155 288.944 342.139 288.536 343.003 287.72V281.168V280.952ZM348.779 282.848C348.779 284.48 349.883 285.656 351.611 285.656C352.451 285.656 353.099 285.392 353.603 284.84C354.107 284.312 354.347 283.616 354.347 282.776C354.347 281.936 354.107 281.24 353.627 280.712C353.123 280.184 352.427 279.92 351.539 279.92C349.835 279.92 348.779 281.12 348.779 282.848ZM350.075 290.312C348.755 290.672 347.843 291.536 347.843 292.472C347.843 293.792 349.307 294.728 351.587 294.728C353.891 294.728 355.715 293.624 355.715 292.136C355.715 290.888 354.659 290.384 352.379 290.384C351.467 290.384 350.699 290.36 350.075 290.312ZM348.779 290.024C347.795 289.664 347.291 289.088 347.291 288.272C347.291 287.36 348.035 286.568 349.091 286.184C347.915 285.464 347.315 284.336 347.315 282.824C347.315 280.448 349.067 278.696 351.635 278.696C352.595 278.696 353.459 278.912 354.227 279.344L357.275 279.104L357.347 280.592L354.923 280.352C355.427 280.856 355.811 281.912 355.811 282.824C355.811 285.176 354.011 286.856 351.539 286.856C351.035 286.856 350.507 286.76 349.907 286.544C349.091 286.88 348.683 287.312 348.683 287.864C348.683 288.608 349.307 288.992 351.179 288.992H352.595C355.643 288.992 357.155 289.952 357.155 291.872C357.155 293.048 356.579 294.032 355.451 294.8C354.323 295.568 352.955 295.952 351.371 295.952C348.419 295.952 346.403 294.656 346.403 292.736C346.403 291.488 347.363 290.384 348.779 290.024ZM359.957 284.552V284.672C360.029 287.192 361.517 288.92 363.797 288.92C364.997 288.92 366.053 288.608 366.989 288.008L367.277 289.376C366.269 290 365.093 290.312 363.749 290.312C360.605 290.312 358.445 287.984 358.445 284.6C358.445 282.872 358.949 281.456 359.933 280.352C360.917 279.248 362.141 278.696 363.629 278.696C366.077 278.696 367.637 280.28 367.637 282.752C367.637 283.4 367.565 283.976 367.397 284.504L359.957 284.552ZM360.053 283.376L366.149 283.352C366.173 283.28 366.173 283.112 366.173 282.872C366.173 281.144 365.237 280.04 363.533 280.04C361.637 280.04 360.317 281.456 360.053 283.376ZM375.911 289.784C375.095 290.168 374.279 290.36 373.463 290.36C371.423 290.36 370.439 289.208 370.511 286.904L370.679 280.4L368.999 280.304L369.071 279.368L370.727 278.984L370.799 276.488H372.215L372.143 279.056H375.815L375.743 280.376H372.095L371.927 286.952C371.879 288.32 372.407 289.016 373.535 289.016C374.135 289.016 374.831 288.848 375.647 288.488L375.911 289.784Z" fill="#111115"/>
<path d="M503.321 258V256.56H495.905V243H494.369V258H503.321ZM511.374 255.576V252.36C507.678 252.768 506.262 253.584 506.262 255.096C506.262 256.248 507.198 257.016 508.518 257.016C509.574 257.016 510.534 256.536 511.374 255.576ZM511.47 256.68H511.398C510.51 257.76 509.454 258.312 508.182 258.312C506.166 258.312 504.702 257.04 504.702 255.264C504.702 252.912 506.934 251.616 511.374 251.352V250.704C511.374 248.952 510.51 248.088 508.782 248.088C507.63 248.088 506.19 248.664 505.182 249.408L504.846 248.016C505.902 247.272 507.534 246.696 508.926 246.696C511.566 246.696 512.886 248.016 512.862 250.632V255.912C512.862 256.776 513.054 257.04 513.966 257.016L513.87 258.24C512.454 258.336 511.638 257.808 511.47 256.68ZM524.249 257.376C523.241 258 522.113 258.312 520.841 258.312C517.553 258.312 515.465 256.008 515.465 252.528C515.465 250.824 515.969 249.408 517.001 248.328C518.009 247.248 519.305 246.696 520.865 246.696C522.185 246.696 523.313 247.008 524.297 247.632L523.913 248.976C523.025 248.376 521.993 248.088 520.865 248.088C518.489 248.088 517.001 249.84 517.001 252.48C517.001 255.192 518.537 256.92 520.889 256.92C521.993 256.92 523.001 256.608 523.937 256.008L524.249 257.376ZM528.549 252.528L533.493 258H535.389L530.085 252.24L535.365 247.008H533.493L528.549 252.072H528.501V241.512L527.013 241.824V258H528.501V252.528H528.549ZM552.864 252.48C552.864 254.208 552.36 255.6 551.328 256.68C550.296 257.76 549.024 258.312 547.464 258.312C545.904 258.312 544.632 257.784 543.648 256.728C542.664 255.672 542.16 254.28 542.16 252.528C542.16 250.8 542.688 249.384 543.72 248.304C544.752 247.224 546.024 246.696 547.584 246.696C549.144 246.696 550.416 247.224 551.4 248.28C552.384 249.336 552.864 250.728 552.864 252.48ZM551.4 252.528C551.4 249.816 549.864 248.04 547.512 248.04C545.208 248.04 543.648 249.84 543.648 252.48C543.648 255.192 545.184 256.968 547.536 256.968C549.84 256.968 551.4 255.168 551.4 252.528ZM561.27 241.776L561.198 242.112C561.126 242.352 561.078 242.568 561.006 242.784L560.91 243.12C560.262 242.808 559.71 242.664 559.23 242.664C558.006 242.664 557.406 243.528 557.406 245.232V247.056H560.862L560.79 248.376H557.406V258H555.942V248.424L554.166 248.304L554.262 247.368L555.918 246.984L555.942 245.256C555.99 242.616 557.094 241.296 559.254 241.296C559.926 241.296 560.598 241.464 561.27 241.776ZM568.144 247.008H569.632V254.112C569.632 255.96 570.424 256.896 572.008 256.896C573.256 256.896 574.384 256.368 575.392 255.336V247.008H576.88V258L575.392 258.312V256.536C574.24 257.712 572.968 258.312 571.6 258.312C569.44 258.312 568.144 256.92 568.144 254.544V247.008ZM585.805 257.784C584.989 258.168 584.173 258.36 583.357 258.36C581.317 258.36 580.333 257.208 580.405 254.904L580.573 248.4L578.893 248.304L578.965 247.368L580.621 246.984L580.693 244.488H582.109L582.037 247.056H585.709L585.637 248.376H581.989L581.821 254.952C581.773 256.32 582.301 257.016 583.429 257.016C584.029 257.016 584.725 256.848 585.541 256.488L585.805 257.784ZM590.008 243.384C590.008 243.696 589.912 243.936 589.744 244.152C589.576 244.368 589.312 244.488 589 244.488C588.688 244.488 588.424 244.368 588.256 244.152C588.088 243.936 587.992 243.696 587.992 243.384C587.992 243.096 588.088 242.856 588.256 242.64C588.424 242.424 588.688 242.328 589 242.328C589.312 242.328 589.576 242.424 589.744 242.64C589.912 242.856 590.008 243.096 590.008 243.384ZM589.744 258H588.256V247.008L589.744 246.696V258ZM594.736 258V241.512L593.248 241.824V258H594.736ZM599.969 243.384C599.969 243.696 599.873 243.936 599.705 244.152C599.537 244.368 599.273 244.488 598.961 244.488C598.649 244.488 598.385 244.368 598.217 244.152C598.049 243.936 597.953 243.696 597.953 243.384C597.953 243.096 598.049 242.856 598.217 242.64C598.385 242.424 598.649 242.328 598.961 242.328C599.273 242.328 599.537 242.424 599.705 242.64C599.873 242.856 599.969 243.096 599.969 243.384ZM599.705 258H598.217V247.008L599.705 246.696V258ZM608.68 257.784C607.864 258.168 607.048 258.36 606.232 258.36C604.192 258.36 603.208 257.208 603.28 254.904L603.448 248.4L601.768 248.304L601.84 247.368L603.496 246.984L603.568 244.488H604.984L604.912 247.056H608.584L608.512 248.376H604.864L604.696 254.952C604.648 256.32 605.176 257.016 606.304 257.016C606.904 257.016 607.6 256.848 608.416 256.488L608.68 257.784ZM619.459 247.008L615.187 257.88L614.299 260.256C613.339 262.872 612.331 263.712 610.747 263.712C610.099 263.712 609.403 263.544 608.611 263.208L609.067 261.84C609.667 262.152 610.219 262.32 610.747 262.32C611.659 262.32 612.259 261.768 613.003 259.776L613.747 257.832L609.451 247.008H611.059L614.515 256.08L617.899 247.008H619.459Z" fill="#111115"/>
<path d="M784.677 248.68C784.677 251.92 782.445 253.624 778.629 253.696L776.589 253.72V259H775.053V244H778.821C782.685 244 784.677 245.824 784.677 248.68ZM783.093 248.752C783.093 246.592 781.581 245.416 778.773 245.416H776.589V252.304L778.725 252.256C781.629 252.208 783.093 251.032 783.093 248.752ZM788.794 251.944V259H787.306V248.008L788.794 247.696V250.048C789.586 248.488 790.666 247.696 792.034 247.696C792.73 247.696 793.354 247.864 793.954 248.2L793.57 249.592C793.042 249.28 792.49 249.112 791.89 249.112C790.666 249.112 789.634 250.048 788.794 251.944ZM797.637 244.384C797.637 244.696 797.541 244.936 797.373 245.152C797.205 245.368 796.941 245.488 796.629 245.488C796.317 245.488 796.053 245.368 795.885 245.152C795.717 244.936 795.621 244.696 795.621 244.384C795.621 244.096 795.717 243.856 795.885 243.64C796.053 243.424 796.317 243.328 796.629 243.328C796.941 243.328 797.205 243.424 797.373 243.64C797.541 243.856 797.637 244.096 797.637 244.384ZM797.373 259H795.885V248.008L797.373 247.696V259ZM809.228 248.008H807.668L804.308 257.08L800.828 248.008H799.22L803.564 259.024H804.908L809.228 248.008ZM816.784 256.576V253.36C813.088 253.768 811.672 254.584 811.672 256.096C811.672 257.248 812.608 258.016 813.928 258.016C814.984 258.016 815.944 257.536 816.784 256.576ZM816.88 257.68H816.808C815.92 258.76 814.864 259.312 813.592 259.312C811.576 259.312 810.112 258.04 810.112 256.264C810.112 253.912 812.344 252.616 816.784 252.352V251.704C816.784 249.952 815.92 249.088 814.192 249.088C813.04 249.088 811.6 249.664 810.592 250.408L810.256 249.016C811.312 248.272 812.944 247.696 814.336 247.696C816.976 247.696 818.296 249.016 818.272 251.632V256.912C818.272 257.776 818.464 258.04 819.376 258.016L819.28 259.24C817.864 259.336 817.048 258.808 816.88 257.68ZM829.659 258.376C828.651 259 827.523 259.312 826.251 259.312C822.963 259.312 820.875 257.008 820.875 253.528C820.875 251.824 821.379 250.408 822.411 249.328C823.419 248.248 824.715 247.696 826.275 247.696C827.595 247.696 828.723 248.008 829.707 248.632L829.323 249.976C828.435 249.376 827.403 249.088 826.275 249.088C823.899 249.088 822.411 250.84 822.411 253.48C822.411 256.192 823.947 257.92 826.299 257.92C827.403 257.92 828.411 257.608 829.347 257.008L829.659 258.376ZM840.775 248.008L836.503 258.88L835.615 261.256C834.655 263.872 833.647 264.712 832.063 264.712C831.415 264.712 830.719 264.544 829.927 264.208L830.383 262.84C830.983 263.152 831.535 263.32 832.063 263.32C832.975 263.32 833.575 262.768 834.319 260.776L835.063 258.832L830.767 248.008H832.375L835.831 257.08L839.215 248.008H840.775Z" fill="#111115"/>
<path d="M967.763 258V256.56H960.347V243H958.811V258H967.763ZM975.816 255.576V252.36C972.12 252.768 970.704 253.584 970.704 255.096C970.704 256.248 971.64 257.016 972.96 257.016C974.016 257.016 974.976 256.536 975.816 255.576ZM975.912 256.68H975.84C974.952 257.76 973.896 258.312 972.624 258.312C970.608 258.312 969.144 257.04 969.144 255.264C969.144 252.912 971.376 251.616 975.816 251.352V250.704C975.816 248.952 974.952 248.088 973.224 248.088C972.072 248.088 970.632 248.664 969.624 249.408L969.288 248.016C970.344 247.272 971.976 246.696 973.368 246.696C976.008 246.696 977.328 248.016 977.304 250.632V255.912C977.304 256.776 977.496 257.04 978.408 257.016L978.312 258.24C976.896 258.336 976.08 257.808 975.912 256.68ZM988.69 257.376C987.682 258 986.554 258.312 985.282 258.312C981.994 258.312 979.906 256.008 979.906 252.528C979.906 250.824 980.41 249.408 981.442 248.328C982.45 247.248 983.746 246.696 985.306 246.696C986.626 246.696 987.754 247.008 988.738 247.632L988.354 248.976C987.466 248.376 986.434 248.088 985.306 248.088C982.93 248.088 981.442 249.84 981.442 252.48C981.442 255.192 982.978 256.92 985.33 256.92C986.434 256.92 987.442 256.608 988.378 256.008L988.69 257.376ZM992.991 252.528L997.93 258H999.83L994.527 252.24L999.81 247.008H997.93L992.991 252.072H992.943V241.512L991.455 241.824V258H992.943V252.528H992.991ZM1017.31 252.48C1017.31 254.208 1016.8 255.6 1015.77 256.68C1014.74 257.76 1013.47 258.312 1011.91 258.312C1010.35 258.312 1009.07 257.784 1008.09 256.728C1007.11 255.672 1006.6 254.28 1006.6 252.528C1006.6 250.8 1007.13 249.384 1008.16 248.304C1009.19 247.224 1010.47 246.696 1012.03 246.696C1013.59 246.696 1014.86 247.224 1015.84 248.28C1016.83 249.336 1017.31 250.728 1017.31 252.48ZM1015.84 252.528C1015.84 249.816 1014.31 248.04 1011.95 248.04C1009.65 248.04 1008.09 249.84 1008.09 252.48C1008.09 255.192 1009.63 256.968 1011.98 256.968C1014.28 256.968 1015.84 255.168 1015.84 252.528ZM1025.71 241.776L1025.64 242.112C1025.57 242.352 1025.52 242.568 1025.45 242.784L1025.35 243.12C1024.7 242.808 1024.15 242.664 1023.67 242.664C1022.45 242.664 1021.85 243.528 1021.85 245.232V247.056H1025.3L1025.23 248.376H1021.85V258H1020.38V248.424L1018.61 248.304L1018.7 247.368L1020.36 246.984L1020.38 245.256C1020.43 242.616 1021.54 241.296 1023.7 241.296C1024.37 241.296 1025.04 241.464 1025.71 241.776ZM1034.46 243.384C1034.46 243.696 1034.36 243.936 1034.19 244.152C1034.03 244.368 1033.76 244.488 1033.45 244.488C1033.14 244.488 1032.87 244.368 1032.71 244.152C1032.54 243.936 1032.44 243.696 1032.44 243.384C1032.44 243.096 1032.54 242.856 1032.71 242.64C1032.87 242.424 1033.14 242.328 1033.45 242.328C1033.76 242.328 1034.03 242.424 1034.19 242.64C1034.36 242.856 1034.46 243.096 1034.46 243.384ZM1034.19 258H1032.71V247.008L1034.19 246.696V258ZM1052.91 258H1051.42V250.92C1051.42 249.048 1050.66 248.112 1049.1 248.112C1048.04 248.112 1047.01 248.592 1046 249.528C1046.02 249.72 1046.05 250.056 1046.05 250.512V258H1044.56V250.92C1044.56 249.048 1043.79 248.112 1042.23 248.112C1041.15 248.112 1040.14 248.544 1039.18 249.384V258H1037.7V247.008L1039.18 246.696V248.208C1040.29 247.2 1041.44 246.696 1042.66 246.696C1044.13 246.696 1045.11 247.296 1045.64 248.52C1046.86 247.296 1048.16 246.696 1049.53 246.696C1051.64 246.696 1052.91 248.064 1052.91 250.488V258ZM1057.79 248.112C1058.75 247.224 1059.81 246.768 1060.99 246.768C1063.94 246.768 1065.91 249.072 1065.91 252.456C1065.91 254.16 1065.4 255.576 1064.39 256.656C1063.36 257.76 1062.07 258.312 1060.48 258.312C1059.5 258.312 1058.61 258.12 1057.79 257.736V263.592H1056.31V246.96L1057.79 246.648V248.112ZM1057.79 249.36V256.104C1058.54 256.68 1059.45 256.968 1060.55 256.968C1062.86 256.968 1064.37 255.12 1064.37 252.48C1064.37 249.912 1062.95 248.136 1060.75 248.136C1059.67 248.136 1058.68 248.544 1057.79 249.36ZM1070.15 250.944V258H1068.66V247.008L1070.15 246.696V249.048C1070.94 247.488 1072.02 246.696 1073.39 246.696C1074.08 246.696 1074.71 246.864 1075.31 247.2L1074.92 248.592C1074.39 248.28 1073.84 248.112 1073.24 248.112C1072.02 248.112 1070.99 249.048 1070.15 250.944ZM1086.96 252.48C1086.96 254.208 1086.46 255.6 1085.43 256.68C1084.39 257.76 1083.12 258.312 1081.56 258.312C1080 258.312 1078.73 257.784 1077.75 256.728C1076.76 255.672 1076.26 254.28 1076.26 252.528C1076.26 250.8 1076.79 249.384 1077.82 248.304C1078.85 247.224 1080.12 246.696 1081.68 246.696C1083.24 246.696 1084.51 247.224 1085.5 248.28C1086.48 249.336 1086.96 250.728 1086.96 252.48ZM1085.5 252.528C1085.5 249.816 1083.96 248.04 1081.61 248.04C1079.31 248.04 1077.75 249.84 1077.75 252.48C1077.75 255.192 1079.28 256.968 1081.63 256.968C1083.94 256.968 1085.5 255.168 1085.5 252.528ZM1097.96 247.008H1096.4L1093.04 256.08L1089.56 247.008H1087.95L1092.3 258.024H1093.64L1097.96 247.008ZM1100.46 252.552V252.672C1100.53 255.192 1102.02 256.92 1104.3 256.92C1105.5 256.92 1106.55 256.608 1107.49 256.008L1107.78 257.376C1106.77 258 1105.59 258.312 1104.25 258.312C1101.11 258.312 1098.95 255.984 1098.95 252.6C1098.95 250.872 1099.45 249.456 1100.43 248.352C1101.42 247.248 1102.64 246.696 1104.13 246.696C1106.58 246.696 1108.14 248.28 1108.14 250.752C1108.14 251.4 1108.07 251.976 1107.9 252.504L1100.46 252.552ZM1100.55 251.376L1106.65 251.352C1106.67 251.28 1106.67 251.112 1106.67 250.872C1106.67 249.144 1105.74 248.04 1104.03 248.04C1102.14 248.04 1100.82 249.456 1100.55 251.376ZM1126.15 258H1124.67V250.92C1124.67 249.048 1123.9 248.112 1122.34 248.112C1121.28 248.112 1120.25 248.592 1119.24 249.528C1119.27 249.72 1119.29 250.056 1119.29 250.512V258H1117.8V250.92C1117.8 249.048 1117.03 248.112 1115.47 248.112C1114.39 248.112 1113.39 248.544 1112.43 249.384V258H1110.94V247.008L1112.43 246.696V248.208C1113.53 247.2 1114.68 246.696 1115.91 246.696C1117.37 246.696 1118.35 247.296 1118.88 248.52C1120.11 247.296 1121.4 246.696 1122.77 246.696C1124.88 246.696 1126.15 248.064 1126.15 250.488V258ZM1130.34 252.552V252.672C1130.41 255.192 1131.9 256.92 1134.18 256.92C1135.38 256.92 1136.44 256.608 1137.37 256.008L1137.66 257.376C1136.65 258 1135.48 258.312 1134.13 258.312C1130.99 258.312 1128.83 255.984 1128.83 252.6C1128.83 250.872 1129.33 249.456 1130.32 248.352C1131.3 247.248 1132.52 246.696 1134.01 246.696C1136.46 246.696 1138.02 248.28 1138.02 250.752C1138.02 251.4 1137.95 251.976 1137.78 252.504L1130.34 252.552ZM1130.44 251.376L1136.53 251.352C1136.56 251.28 1136.56 251.112 1136.56 250.872C1136.56 249.144 1135.62 248.04 1133.92 248.04C1132.02 248.04 1130.7 249.456 1130.44 251.376ZM1149.56 258H1148.07V250.896C1148.07 248.976 1147.33 248.112 1145.65 248.112C1144.47 248.112 1143.34 248.64 1142.31 249.672V258H1140.82V247.008L1142.31 246.696V248.496C1143.51 247.296 1144.76 246.696 1146.05 246.696C1148.26 246.696 1149.56 248.04 1149.56 250.464V258ZM1158.41 257.784C1157.59 258.168 1156.78 258.36 1155.96 258.36C1153.92 258.36 1152.94 257.208 1153.01 254.904L1153.18 248.4L1151.5 248.304L1151.57 247.368L1153.23 246.984L1153.3 244.488H1154.71L1154.64 247.056H1158.31L1158.24 248.376H1154.59L1154.43 254.952C1154.38 256.32 1154.91 257.016 1156.03 257.016C1156.63 257.016 1157.33 256.848 1158.15 256.488L1158.41 257.784ZM997.23 274.384C997.23 274.696 997.13 274.936 996.963 275.152C996.795 275.368 996.531 275.488 996.219 275.488C995.907 275.488 995.643 275.368 995.475 275.152C995.307 274.936 995.211 274.696 995.211 274.384C995.211 274.096 995.307 273.856 995.475 273.64C995.643 273.424 995.907 273.328 996.219 273.328C996.531 273.328 996.795 273.424 996.963 273.64C997.13 273.856 997.23 274.096 997.23 274.384ZM996.963 289H995.475V278.008L996.963 277.696V289ZM1009.2 289H1007.71V281.896C1007.71 279.976 1006.97 279.112 1005.29 279.112C1004.11 279.112 1002.99 279.64 1001.95 280.672V289H1000.47V278.008L1001.95 277.696V279.496C1003.15 278.296 1004.4 277.696 1005.7 277.696C1007.91 277.696 1009.2 279.04 1009.2 281.464V289ZM1023.52 288.784C1022.7 289.168 1021.88 289.36 1021.07 289.36C1019.03 289.36 1018.04 288.208 1018.12 285.904L1018.28 279.4L1016.6 279.304L1016.68 278.368L1018.33 277.984L1018.4 275.488H1019.82L1019.75 278.056H1023.42L1023.35 279.376H1019.7L1019.53 285.952C1019.48 287.32 1020.01 288.016 1021.14 288.016C1021.74 288.016 1022.44 287.848 1023.25 287.488L1023.52 288.784ZM1026.62 283.552V283.672C1026.69 286.192 1028.18 287.92 1030.46 287.92C1031.66 287.92 1032.71 287.608 1033.65 287.008L1033.94 288.376C1032.93 289 1031.75 289.312 1030.41 289.312C1027.27 289.312 1025.11 286.984 1025.11 283.6C1025.11 281.872 1025.61 280.456 1026.59 279.352C1027.58 278.248 1028.8 277.696 1030.29 277.696C1032.74 277.696 1034.3 279.28 1034.3 281.752C1034.3 282.4 1034.23 282.976 1034.06 283.504L1026.62 283.552ZM1026.71 282.376L1032.81 282.352C1032.83 282.28 1032.83 282.112 1032.83 281.872C1032.83 280.144 1031.9 279.04 1030.19 279.04C1028.3 279.04 1026.98 280.456 1026.71 282.376ZM1045.16 288.376C1044.16 289 1043.03 289.312 1041.76 289.312C1038.47 289.312 1036.38 287.008 1036.38 283.528C1036.38 281.824 1036.88 280.408 1037.92 279.328C1038.92 278.248 1040.22 277.696 1041.78 277.696C1043.1 277.696 1044.23 278.008 1045.21 278.632L1044.83 279.976C1043.94 279.376 1042.91 279.088 1041.78 279.088C1039.4 279.088 1037.92 280.84 1037.92 283.48C1037.92 286.192 1039.45 287.92 1041.8 287.92C1042.91 287.92 1043.92 287.608 1044.85 287.008L1045.16 288.376ZM1056.66 289H1055.18V281.896C1055.18 280.048 1054.38 279.112 1052.82 279.112C1051.6 279.112 1050.45 279.64 1049.42 280.672V289H1047.93V272.824L1049.42 272.512V279.448C1050.59 278.272 1051.86 277.696 1053.23 277.696C1055.39 277.696 1056.66 279.04 1056.66 281.464V289ZM1068.78 289H1067.29V281.896C1067.29 279.976 1066.55 279.112 1064.87 279.112C1063.69 279.112 1062.56 279.64 1061.53 280.672V289H1060.04V278.008L1061.53 277.696V279.496C1062.73 278.296 1063.98 277.696 1065.28 277.696C1067.48 277.696 1068.78 279.04 1068.78 281.464V289ZM1082.15 283.48C1082.15 285.208 1081.64 286.6 1080.61 287.68C1079.58 288.76 1078.31 289.312 1076.75 289.312C1075.19 289.312 1073.91 288.784 1072.93 287.728C1071.95 286.672 1071.44 285.28 1071.44 283.528C1071.44 281.8 1071.97 280.384 1073 279.304C1074.03 278.224 1075.31 277.696 1076.87 277.696C1078.43 277.696 1079.7 278.224 1080.68 279.28C1081.67 280.336 1082.15 281.728 1082.15 283.48ZM1080.68 283.528C1080.68 280.816 1079.15 279.04 1076.79 279.04C1074.49 279.04 1072.93 280.84 1072.93 283.48C1072.93 286.192 1074.47 287.968 1076.82 287.968C1079.12 287.968 1080.68 286.168 1080.68 283.528ZM1086.4 289V272.512L1084.91 272.824V289H1086.4ZM1099.84 283.48C1099.84 285.208 1099.34 286.6 1098.3 287.68C1097.27 288.76 1096 289.312 1094.44 289.312C1092.88 289.312 1091.61 288.784 1090.62 287.728C1089.64 286.672 1089.14 285.28 1089.14 283.528C1089.14 281.8 1089.66 280.384 1090.7 279.304C1091.73 278.224 1093 277.696 1094.56 277.696C1096.12 277.696 1097.39 278.224 1098.38 279.28C1099.36 280.336 1099.84 281.728 1099.84 283.48ZM1098.38 283.528C1098.38 280.816 1096.84 279.04 1094.49 279.04C1092.18 279.04 1090.62 280.84 1090.62 283.48C1090.62 286.192 1092.16 287.968 1094.51 287.968C1096.82 287.968 1098.38 286.168 1098.38 283.528ZM1103.45 281.848C1103.45 283.48 1104.55 284.656 1106.28 284.656C1107.12 284.656 1107.77 284.392 1108.27 283.84C1108.77 283.312 1109.01 282.616 1109.01 281.776C1109.01 280.936 1108.77 280.24 1108.29 279.712C1107.79 279.184 1107.09 278.92 1106.21 278.92C1104.5 278.92 1103.45 280.12 1103.45 281.848ZM1104.74 289.312C1103.42 289.672 1102.51 290.536 1102.51 291.472C1102.51 292.792 1103.97 293.728 1106.25 293.728C1108.56 293.728 1110.38 292.624 1110.38 291.136C1110.38 289.888 1109.33 289.384 1107.05 289.384C1106.13 289.384 1105.37 289.36 1104.74 289.312ZM1103.45 289.024C1102.46 288.664 1101.96 288.088 1101.96 287.272C1101.96 286.36 1102.7 285.568 1103.76 285.184C1102.58 284.464 1101.98 283.336 1101.98 281.824C1101.98 279.448 1103.73 277.696 1106.3 277.696C1107.26 277.696 1108.13 277.912 1108.89 278.344L1111.94 278.104L1112.01 279.592L1109.59 279.352C1110.09 279.856 1110.48 280.912 1110.48 281.824C1110.48 284.176 1108.68 285.856 1106.21 285.856C1105.7 285.856 1105.17 285.76 1104.57 285.544C1103.76 285.88 1103.35 286.312 1103.35 286.864C1103.35 287.608 1103.97 287.992 1105.85 287.992H1107.26C1110.31 287.992 1111.82 288.952 1111.82 290.872C1111.82 292.048 1111.25 293.032 1110.12 293.8C1108.99 294.568 1107.62 294.952 1106.04 294.952C1103.09 294.952 1101.07 293.656 1101.07 291.736C1101.07 290.488 1102.03 289.384 1103.45 289.024ZM1122.19 278.008L1117.91 288.88L1117.03 291.256C1116.07 293.872 1115.06 294.712 1113.47 294.712C1112.83 294.712 1112.13 294.544 1111.34 294.208L1111.79 292.84C1112.39 293.152 1112.95 293.32 1113.47 293.32C1114.39 293.32 1114.99 292.768 1115.73 290.776L1116.47 288.832L1112.18 278.008H1113.79L1117.24 287.08L1120.63 278.008H1122.19Z" fill="#111115"/>
<path d="M103.304 185.592L96.6559 199.416H98.6719L105.44 185.352V183.648H95.4799L95.4079 185.592H103.304ZM106.977 189.12C106.977 186.936 107.697 184.968 109.113 183.216C110.529 181.488 112.545 180.312 115.209 179.688L115.809 181.56C112.089 182.496 109.857 184.368 109.113 187.176L109.161 187.2C110.241 186.216 111.513 185.712 112.977 185.712C115.449 185.712 117.369 187.608 117.369 190.368C117.369 193.272 115.353 195.36 112.257 195.36C110.601 195.36 109.329 194.76 108.393 193.56C107.457 192.384 106.977 190.896 106.977 189.12ZM109.065 189.744C109.065 191.856 110.361 193.536 112.353 193.536C114.177 193.536 115.377 192.288 115.377 190.464C115.377 188.664 114.177 187.464 112.449 187.464C111.153 187.464 109.929 188.064 109.185 188.736C109.113 189.024 109.065 189.36 109.065 189.744ZM120.774 192.288C121.206 192.288 121.566 192.432 121.854 192.72C122.142 193.032 122.286 193.392 122.286 193.8C122.286 194.208 122.142 194.568 121.854 194.88C121.566 195.192 121.206 195.36 120.774 195.36C120.318 195.36 119.958 195.192 119.67 194.88C119.358 194.568 119.214 194.208 119.214 193.8C119.214 193.392 119.358 193.032 119.67 192.72C119.958 192.432 120.318 192.288 120.774 192.288ZM134.477 189.552C134.477 191.736 133.781 193.704 132.365 195.432C130.949 197.184 128.909 198.36 126.245 198.984L125.645 197.112C129.365 196.176 131.597 194.304 132.341 191.496L132.293 191.472C131.213 192.456 129.941 192.96 128.477 192.96C126.005 192.96 124.085 191.064 124.085 188.304C124.085 185.4 126.101 183.312 129.197 183.312C130.853 183.312 132.149 183.912 133.085 185.088C134.021 186.288 134.477 187.776 134.477 189.552ZM132.389 188.928C132.389 186.816 131.093 185.136 129.101 185.136C127.277 185.136 126.077 186.384 126.077 188.208C126.077 190.008 127.277 191.208 129.005 191.208C130.301 191.208 131.525 190.608 132.269 189.936C132.341 189.648 132.389 189.312 132.389 188.928ZM143.804 183.432C143.804 185.64 142.244 187.392 139.82 187.392C137.444 187.392 135.836 185.64 135.836 183.432C135.836 182.304 136.196 181.368 136.94 180.576C137.66 179.808 138.62 179.424 139.82 179.424C141.02 179.424 141.98 179.808 142.724 180.576C143.444 181.344 143.804 182.304 143.804 183.432ZM151.124 179.664L139.172 195.36H137.66L149.612 179.664H151.124ZM152.924 191.592C152.924 192.72 152.564 193.656 151.844 194.424C151.1 195.216 150.14 195.6 148.94 195.6C147.74 195.6 146.78 195.216 146.06 194.448C145.316 193.68 144.956 192.72 144.956 191.592C144.956 189.384 146.54 187.632 148.94 187.632C151.316 187.632 152.924 189.384 152.924 191.592ZM142.508 183.432C142.508 182.64 142.268 181.992 141.788 181.464C141.284 180.936 140.636 180.672 139.82 180.672C139.004 180.672 138.356 180.936 137.876 181.464C137.372 181.992 137.132 182.64 137.132 183.432C137.132 184.176 137.372 184.824 137.876 185.352C138.356 185.88 139.004 186.144 139.82 186.144C140.636 186.144 141.284 185.88 141.788 185.352C142.268 184.824 142.508 184.176 142.508 183.432ZM151.628 191.592C151.628 190.848 151.388 190.2 150.908 189.672C150.404 189.144 149.756 188.88 148.94 188.88C148.124 188.88 147.476 189.144 146.996 189.672C146.492 190.2 146.252 190.848 146.252 191.592C146.252 192.384 146.492 193.032 146.996 193.56C147.476 194.088 148.124 194.352 148.94 194.352C149.756 194.352 150.404 194.088 150.908 193.56C151.388 193.032 151.628 192.384 151.628 191.592Z" fill="#111115"/>
<path d="M352.48 190.92C354.76 191.28 356.008 192.888 356.008 194.712C356.008 196.176 355.48 197.352 354.448 198.192C353.392 199.056 352.072 199.488 350.488 199.488C348.784 199.488 347.416 199.176 346.432 198.576L346.792 196.728C347.728 197.376 348.976 197.688 350.512 197.688C352.6 197.688 353.944 196.68 353.944 194.856C353.944 193.248 352.672 192.408 350.68 192.336C350.08 192.312 349.336 192.384 348.472 192.528V190.824C351.712 190.08 353.32 188.928 353.32 187.392C353.32 185.952 352.336 185.16 350.608 185.16C349.552 185.16 348.4 185.616 347.152 186.552L346.456 184.872C347.776 183.84 349.24 183.312 350.824 183.312C353.728 183.312 355.48 184.848 355.48 187.104C355.48 188.808 354.184 190.248 352.48 190.92ZM367.589 184.992C368.669 186.12 369.197 187.56 369.197 189.336C369.197 191.112 368.669 192.552 367.589 193.68C366.509 194.808 365.093 195.36 363.389 195.36C361.685 195.36 360.293 194.808 359.213 193.68C358.133 192.576 357.605 191.136 357.605 189.336C357.605 187.536 358.133 186.096 359.213 184.968C360.293 183.864 361.685 183.312 363.389 183.312C365.093 183.312 366.509 183.864 367.589 184.992ZM366.173 192.312C366.869 191.52 367.229 190.536 367.229 189.336C367.229 188.136 366.869 187.152 366.173 186.36C365.453 185.568 364.517 185.184 363.389 185.184C362.261 185.184 361.325 185.568 360.629 186.336C359.933 187.128 359.573 188.112 359.573 189.336C359.573 190.56 359.933 191.544 360.629 192.312C361.325 193.104 362.261 193.488 363.389 193.488C364.517 193.488 365.453 193.104 366.173 192.312ZM372.407 192.288C372.839 192.288 373.199 192.432 373.487 192.72C373.775 193.032 373.919 193.392 373.919 193.8C373.919 194.208 373.775 194.568 373.487 194.88C373.199 195.192 372.839 195.36 372.407 195.36C371.951 195.36 371.591 195.192 371.303 194.88C370.991 194.568 370.847 194.208 370.847 193.8C370.847 193.392 370.991 193.032 371.303 192.72C371.591 192.432 371.951 192.288 372.407 192.288ZM381.739 186.888C383.083 186.336 383.755 185.424 383.755 184.176C383.755 182.64 382.603 181.656 381.019 181.656C379.219 181.656 378.163 182.616 378.163 183.936C378.163 184.224 378.235 184.488 378.379 184.752C378.523 185.016 378.691 185.208 378.859 185.376C379.027 185.544 379.315 185.736 379.723 185.952C380.107 186.168 380.419 186.312 380.635 186.408C380.851 186.528 381.235 186.672 381.739 186.888ZM380.299 188.232C378.811 188.712 377.923 189.744 377.923 191.088C377.923 192.6 379.219 193.608 381.043 193.608C382.939 193.608 383.971 192.792 383.971 191.352C383.971 191.088 383.923 190.848 383.851 190.632C383.779 190.416 383.635 190.2 383.419 189.984C383.203 189.768 383.011 189.6 382.867 189.48C382.723 189.36 382.459 189.216 382.051 189.024C381.643 188.832 381.379 188.712 381.259 188.64C381.115 188.568 380.803 188.448 380.299 188.232ZM383.227 187.56C385.075 188.496 385.987 189.672 385.987 191.112C385.987 193.512 384.139 195.36 380.947 195.36C377.707 195.36 375.931 193.656 375.931 191.304C375.931 189.504 377.371 187.968 378.811 187.584C377.131 186.72 376.171 185.76 376.171 184.152C376.171 181.632 378.067 179.904 381.115 179.904C384.139 179.904 385.747 181.68 385.747 183.96C385.747 185.64 384.571 187.008 383.227 187.56ZM395.343 183.432C395.343 185.64 393.783 187.392 391.359 187.392C388.983 187.392 387.375 185.64 387.375 183.432C387.375 182.304 387.735 181.368 388.479 180.576C389.199 179.808 390.159 179.424 391.359 179.424C392.559 179.424 393.519 179.808 394.263 180.576C394.983 181.344 395.343 182.304 395.343 183.432ZM402.663 179.664L390.711 195.36H389.199L401.151 179.664H402.663ZM404.463 191.592C404.463 192.72 404.103 193.656 403.383 194.424C402.639 195.216 401.679 195.6 400.479 195.6C399.279 195.6 398.319 195.216 397.599 194.448C396.855 193.68 396.495 192.72 396.495 191.592C396.495 189.384 398.079 187.632 400.479 187.632C402.855 187.632 404.463 189.384 404.463 191.592ZM394.047 183.432C394.047 182.64 393.807 181.992 393.327 181.464C392.823 180.936 392.175 180.672 391.359 180.672C390.543 180.672 389.895 180.936 389.415 181.464C388.911 181.992 388.671 182.64 388.671 183.432C388.671 184.176 388.911 184.824 389.415 185.352C389.895 185.88 390.543 186.144 391.359 186.144C392.175 186.144 392.823 185.88 393.327 185.352C393.807 184.824 394.047 184.176 394.047 183.432ZM403.167 191.592C403.167 190.848 402.927 190.2 402.447 189.672C401.943 189.144 401.295 188.88 400.479 188.88C399.663 188.88 399.015 189.144 398.535 189.672C398.031 190.2 397.791 190.848 397.791 191.592C397.791 192.384 398.031 193.032 398.535 193.56C399.015 194.088 399.663 194.352 400.479 194.352C401.295 194.352 401.943 194.088 402.447 193.56C402.927 193.032 403.167 192.384 403.167 191.592Z" fill="#111115"/>
<path d="M608.128 195H599.104V193.296C599.44 193.032 599.896 192.696 600.496 192.264C601.096 191.856 601.552 191.52 601.864 191.28C602.176 191.04 602.56 190.752 603.016 190.392C603.472 190.032 603.808 189.744 604.072 189.504C604.312 189.264 604.552 189 604.816 188.688C605.08 188.4 605.248 188.112 605.368 187.848C605.464 187.584 605.512 187.32 605.512 187.056C605.512 185.928 604.648 185.16 603.232 185.16C602.2 185.16 601.048 185.616 599.824 186.528L599.128 184.848C600.424 183.816 601.864 183.312 603.448 183.312C605.92 183.312 607.6 184.704 607.6 186.816C607.6 187.08 607.576 187.32 607.528 187.56C607.456 187.824 607.408 188.04 607.336 188.256C607.264 188.472 607.168 188.688 607 188.904C606.832 189.144 606.688 189.336 606.568 189.504C606.448 189.672 606.28 189.864 606.016 190.104C605.752 190.368 605.536 190.56 605.392 190.68C605.248 190.8 605.008 190.992 604.672 191.256C604.312 191.52 604.072 191.712 603.904 191.832C603.736 191.952 603.424 192.168 603.016 192.48C602.584 192.792 602.272 193.008 602.104 193.128H608.128V195ZM615.449 190.92C617.729 191.28 618.977 192.888 618.977 194.712C618.977 196.176 618.449 197.352 617.417 198.192C616.361 199.056 615.041 199.488 613.457 199.488C611.753 199.488 610.385 199.176 609.401 198.576L609.761 196.728C610.697 197.376 611.945 197.688 613.481 197.688C615.569 197.688 616.913 196.68 616.913 194.856C616.913 193.248 615.641 192.408 613.649 192.336C613.049 192.312 612.305 192.384 611.441 192.528V190.824C614.681 190.08 616.289 188.928 616.289 187.392C616.289 185.952 615.305 185.16 613.577 185.16C612.521 185.16 611.369 185.616 610.121 186.552L609.425 184.872C610.745 183.84 612.209 183.312 613.793 183.312C616.697 183.312 618.449 184.848 618.449 187.104C618.449 188.808 617.153 190.248 615.449 190.92ZM622.743 192.288C623.175 192.288 623.535 192.432 623.823 192.72C624.111 193.032 624.255 193.392 624.255 193.8C624.255 194.208 624.111 194.568 623.823 194.88C623.535 195.192 623.175 195.36 622.743 195.36C622.287 195.36 621.927 195.192 621.639 194.88C621.327 194.568 621.183 194.208 621.183 193.8C621.183 193.392 621.327 193.032 621.639 192.72C621.927 192.432 622.287 192.288 622.743 192.288ZM628.348 195H630.292V183.288L625.492 184.872L625.564 186.672L628.348 185.784V195ZM641.015 183.432C641.015 185.64 639.455 187.392 637.031 187.392C634.655 187.392 633.047 185.64 633.047 183.432C633.047 182.304 633.407 181.368 634.151 180.576C634.871 179.808 635.831 179.424 637.031 179.424C638.231 179.424 639.191 179.808 639.935 180.576C640.655 181.344 641.015 182.304 641.015 183.432ZM648.335 179.664L636.383 195.36H634.871L646.823 179.664H648.335ZM650.135 191.592C650.135 192.72 649.775 193.656 649.055 194.424C648.311 195.216 647.351 195.6 646.151 195.6C644.951 195.6 643.991 195.216 643.271 194.448C642.527 193.68 642.167 192.72 642.167 191.592C642.167 189.384 643.751 187.632 646.151 187.632C648.527 187.632 650.135 189.384 650.135 191.592ZM639.719 183.432C639.719 182.64 639.479 181.992 638.999 181.464C638.495 180.936 637.847 180.672 637.031 180.672C636.215 180.672 635.567 180.936 635.087 181.464C634.583 181.992 634.343 182.64 634.343 183.432C634.343 184.176 634.583 184.824 635.087 185.352C635.567 185.88 636.215 186.144 637.031 186.144C637.847 186.144 638.495 185.88 638.999 185.352C639.479 184.824 639.719 184.176 639.719 183.432ZM648.839 191.592C648.839 190.848 648.599 190.2 648.119 189.672C647.615 189.144 646.967 188.88 646.151 188.88C645.335 188.88 644.687 189.144 644.207 189.672C643.703 190.2 643.463 190.848 643.463 191.592C643.463 192.384 643.703 193.032 644.207 193.56C644.687 194.088 645.335 194.352 646.151 194.352C646.967 194.352 647.615 194.088 648.119 193.56C648.599 193.032 648.839 192.384 648.839 191.592Z" fill="#111115"/>
<path d="M852.864 195H854.808V183.288L850.008 184.872L850.08 186.672L852.864 185.784V195ZM860.251 189.84C861.043 189.768 861.619 189.72 861.955 189.72C865.099 189.72 867.115 191.52 867.115 194.328C867.115 195.84 866.611 197.088 865.603 198.048C864.571 199.008 863.323 199.488 861.835 199.488C860.227 199.488 858.835 199.152 857.659 198.456L858.019 196.512C859.339 197.256 860.635 197.616 861.859 197.616C863.755 197.616 865.099 196.344 865.099 194.424C865.099 192.744 863.803 191.424 861.715 191.424C860.659 191.424 859.675 191.568 858.763 191.832L858.235 191.352L859.219 183.648H866.707L866.779 185.592H860.827L860.251 189.84ZM870.438 192.288C870.87 192.288 871.23 192.432 871.518 192.72C871.806 193.032 871.95 193.392 871.95 193.8C871.95 194.208 871.806 194.568 871.518 194.88C871.23 195.192 870.87 195.36 870.438 195.36C869.982 195.36 869.622 195.192 869.334 194.88C869.022 194.568 868.878 194.208 868.878 193.8C868.878 193.392 869.022 193.032 869.334 192.72C869.622 192.432 869.982 192.288 870.438 192.288ZM885.546 194.76L885.474 192.888H883.194V183.288H881.442L873.69 193.608L873.882 194.76H881.274V199.416H883.194V194.76H885.546ZM881.274 192.888H876.45L881.274 186.36V192.888ZM894.124 183.432C894.124 185.64 892.564 187.392 890.14 187.392C887.764 187.392 886.156 185.64 886.156 183.432C886.156 182.304 886.516 181.368 887.26 180.576C887.98 179.808 888.94 179.424 890.14 179.424C891.34 179.424 892.3 179.808 893.044 180.576C893.764 181.344 894.124 182.304 894.124 183.432ZM901.444 179.664L889.492 195.36H887.98L899.932 179.664H901.444ZM903.244 191.592C903.244 192.72 902.884 193.656 902.164 194.424C901.42 195.216 900.46 195.6 899.26 195.6C898.06 195.6 897.1 195.216 896.38 194.448C895.636 193.68 895.276 192.72 895.276 191.592C895.276 189.384 896.86 187.632 899.26 187.632C901.636 187.632 903.244 189.384 903.244 191.592ZM892.828 183.432C892.828 182.64 892.588 181.992 892.108 181.464C891.604 180.936 890.956 180.672 890.14 180.672C889.324 180.672 888.676 180.936 888.196 181.464C887.692 181.992 887.452 182.64 887.452 183.432C887.452 184.176 887.692 184.824 888.196 185.352C888.676 185.88 889.324 186.144 890.14 186.144C890.956 186.144 891.604 185.88 892.108 185.352C892.588 184.824 892.828 184.176 892.828 183.432ZM901.948 191.592C901.948 190.848 901.708 190.2 901.228 189.672C900.724 189.144 900.076 188.88 899.26 188.88C898.444 188.88 897.796 189.144 897.316 189.672C896.812 190.2 896.572 190.848 896.572 191.592C896.572 192.384 896.812 193.032 897.316 193.56C897.796 194.088 898.444 194.352 899.26 194.352C900.076 194.352 900.724 194.088 901.228 193.56C901.708 193.032 901.948 192.384 901.948 191.592Z" fill="#111115"/>
<path d="M1103.86 195H1105.81V183.288L1101.01 184.872L1101.08 186.672L1103.86 185.784V195ZM1111.25 189.84C1112.04 189.768 1112.62 189.72 1112.95 189.72C1116.1 189.72 1118.11 191.52 1118.11 194.328C1118.11 195.84 1117.61 197.088 1116.6 198.048C1115.57 199.008 1114.32 199.488 1112.83 199.488C1111.23 199.488 1109.83 199.152 1108.66 198.456L1109.02 196.512C1110.34 197.256 1111.63 197.616 1112.86 197.616C1114.75 197.616 1116.1 196.344 1116.1 194.424C1116.1 192.744 1114.8 191.424 1112.71 191.424C1111.66 191.424 1110.67 191.568 1109.76 191.832L1109.23 191.352L1110.22 183.648H1117.71L1117.78 185.592H1111.83L1111.25 189.84ZM1121.44 192.288C1121.87 192.288 1122.23 192.432 1122.52 192.72C1122.81 193.032 1122.95 193.392 1122.95 193.8C1122.95 194.208 1122.81 194.568 1122.52 194.88C1122.23 195.192 1121.87 195.36 1121.44 195.36C1120.98 195.36 1120.62 195.192 1120.33 194.88C1120.02 194.568 1119.88 194.208 1119.88 193.8C1119.88 193.392 1120.02 193.032 1120.33 192.72C1120.62 192.432 1120.98 192.288 1121.44 192.288ZM1136.55 194.76L1136.47 192.888H1134.19V183.288H1132.44L1124.69 193.608L1124.88 194.76H1132.27V199.416H1134.19V194.76H1136.55ZM1132.27 192.888H1127.45L1132.27 186.36V192.888ZM1145.12 183.432C1145.12 185.64 1143.56 187.392 1141.14 187.392C1138.76 187.392 1137.16 185.64 1137.16 183.432C1137.16 182.304 1137.52 181.368 1138.26 180.576C1138.98 179.808 1139.94 179.424 1141.14 179.424C1142.34 179.424 1143.3 179.808 1144.04 180.576C1144.76 181.344 1145.12 182.304 1145.12 183.432ZM1152.44 179.664L1140.49 195.36H1138.98L1150.93 179.664H1152.44ZM1154.24 191.592C1154.24 192.72 1153.88 193.656 1153.16 194.424C1152.42 195.216 1151.46 195.6 1150.26 195.6C1149.06 195.6 1148.1 195.216 1147.38 194.448C1146.64 193.68 1146.28 192.72 1146.28 191.592C1146.28 189.384 1147.86 187.632 1150.26 187.632C1152.64 187.632 1154.24 189.384 1154.24 191.592ZM1143.83 183.432C1143.83 182.64 1143.59 181.992 1143.11 181.464C1142.6 180.936 1141.96 180.672 1141.14 180.672C1140.32 180.672 1139.68 180.936 1139.2 181.464C1138.69 181.992 1138.45 182.64 1138.45 183.432C1138.45 184.176 1138.69 184.824 1139.2 185.352C1139.68 185.88 1140.32 186.144 1141.14 186.144C1141.96 186.144 1142.6 185.88 1143.11 185.352C1143.59 184.824 1143.83 184.176 1143.83 183.432ZM1152.95 191.592C1152.95 190.848 1152.71 190.2 1152.23 189.672C1151.72 189.144 1151.08 188.88 1150.26 188.88C1149.44 188.88 1148.8 189.144 1148.32 189.672C1147.81 190.2 1147.57 190.848 1147.57 191.592C1147.57 192.384 1147.81 193.032 1148.32 193.56C1148.8 194.088 1149.44 194.352 1150.26 194.352C1151.08 194.352 1151.72 194.088 1152.23 193.56C1152.71 193.032 1152.95 192.384 1152.95 191.592Z" fill="#111115"/>
<path d="M28 16V186C28 191.523 32.4772 196 38 196H68.0001C73.523 196 78.0001 191.523 78.0001 186V16C78.0001 10.4772 73.523 6 68.0001 6H38C32.4772 6 28 10.4772 28 16Z" fill="#EC8539" fill-opacity="0.2"/>
<path d="M279 16V185C279 190.523 283.477 195 289 195H318C323.523 195 328 190.523 328 185V16C328 10.4772 323.523 6 318 6H289C283.477 6 279 10.4772 279 16Z" fill="#EC8539" fill-opacity="0.2"/>
<path d="M531 16V185C531 190.523 535.477 195 541 195H570C575.523 195 580 190.523 580 185V16C580 10.4772 575.523 6 570 6H541C535.477 6 531 10.4772 531 16Z" fill="#EC8539" fill-opacity="0.2"/>
<path d="M782 16V185C782 190.523 786.477 195 792 195H821C826.523 195 831 190.523 831 185V16C831 10.4772 826.523 6 821 6H792C786.477 6 782 10.4772 782 16Z" fill="#EC8539" fill-opacity="0.2"/>
<path d="M1033 16V185C1033 190.523 1037.48 195 1043 195H1072C1077.52 195 1082 190.523 1082 185V16C1082 10.4772 1077.52 6 1072 6H1043C1037.48 6 1033 10.4772 1033 16Z" fill="#EC8539" fill-opacity="0.2"/>
<path d="M28 59.89V186C28 191.523 32.4772 196 38 196H68.0001C73.523 196 78.0001 191.523 78.0001 186V59.89C78.0001 54.3672 73.523 49.89 68.0001 49.89H38C32.4772 49.89 28 54.3672 28 59.89Z" fill="#EC8539"/>
<path d="M531 161.341V185C531 190.523 535.477 195 541 195H570C575.523 195 580 190.523 580 185V161.341C580 155.818 575.523 151.341 570 151.341H541C535.477 151.341 531 155.818 531 161.341Z" fill="#EC8539"/>
<path d="M782 175.894V185C782 190.523 786.477 195 792 195H821C826.523 195 831 190.523 831 185V175.894C831 170.371 826.523 165.894 821 165.894H792C786.477 165.894 782 170.371 782 175.894Z" fill="#EC8539"/>
<path d="M1033 175.894V185C1033 190.523 1037.48 195 1043 195H1072C1077.52 195 1082 190.523 1082 185V175.894C1082 170.371 1077.52 165.894 1072 165.894H1043C1037.48 165.894 1033 170.371 1033 175.894Z" fill="#EC8539"/>
<path d="M279 146.788V185C279 190.523 283.477 195 289 195H318C323.523 195 328 190.523 328 185V146.788C328 141.265 323.523 136.788 318 136.788H289C283.477 136.788 279 141.265 279 146.788Z" fill="#EC8539"/>
</svg>
