<svg xmlns="http://www.w3.org/2000/svg" viewBox="0 0 431 129.49">
  <defs>
    <style>
      .cls-1 {
        fill: #231f1f;
        stroke: #fff;
        stroke-miterlimit: 10;
        stroke-width: 2px;
      }

      .cls-2 {
        fill: #fff;
      }

      .cls-3 {
        fill: #3d82ff;
      }

      .cls-4 {
        fill: #ffc907;
      }
    </style>
  </defs>
  <g id="Layer_2" data-name="Layer 2">
    <g id="Layer_1-2" data-name="Layer 1">
      <rect class="cls-1" x="1" y="1" width="100" height="100" rx="12"/>
      <rect class="cls-2" x="331" y="1" width="100" height="100" rx="12"/>
      <g>
        <path class="cls-2" d="M26.88,122.12l-.41,3.36h2.27v.88H26.35l-.37,3h-.86l.37-3H22.21l-.39,3H21l.37-3H19.06v-.88h2.38l.42-3.36H19.57v-.88H22l.37-3h.88l-.39,3h3.3l.37-3h.86l-.37,3h2.26v.88Zm-.86,0H22.74l-.43,3.36H25.6Z"/>
        <path class="cls-2" d="M38.21,128.37v1H30.35v-.82L35,124a5.89,5.89,0,0,0,1.19-1.49,2.83,2.83,0,0,0,.31-1.27,1.86,1.86,0,0,0-.68-1.55,3,3,0,0,0-1.94-.55,3.83,3.83,0,0,0-3.06,1.25L30,119.7a4.26,4.26,0,0,1,1.67-1.18A6,6,0,0,1,34,118.1a4.2,4.2,0,0,1,2.72.81,2.72,2.72,0,0,1,1,2.22,3.74,3.74,0,0,1-.39,1.66,6.91,6.91,0,0,1-1.45,1.84l-3.81,3.74Z"/>
        <path class="cls-2" d="M46.14,124a2.93,2.93,0,0,1,.92,2.23,3.18,3.18,0,0,1-.47,1.71,3.24,3.24,0,0,1-1.37,1.17,5.16,5.16,0,0,1-2.23.43,6.68,6.68,0,0,1-2.29-.39,4.77,4.77,0,0,1-1.74-1l.56-.92a4,4,0,0,0,1.49.94,5.44,5.44,0,0,0,2,.36,3.33,3.33,0,0,0,2.13-.6,2,2,0,0,0,.75-1.66,2,2,0,0,0-.75-1.63,3.67,3.67,0,0,0-2.27-.59h-.8v-.85l3.1-3.89H39.42v-1h7.2V119l-3.16,4A4.15,4.15,0,0,1,46.14,124Z"/>
        <path class="cls-2" d="M51.78,118.2v11.2H50.63V119.22H48v-1Z"/>
        <path class="cls-2" d="M56.62,119.22v4.4h5.8v1h-5.8v4.75H55.44V118.2h7.68v1Z"/>
        <path class="cls-2" d="M67.92,118.2v11.2H66.77V119.22H64.13v-1Z"/>
        <path class="cls-2" d="M72.77,119.22v4.4h5.79v1H72.77v4.75H71.58V118.2h7.68v1Z"/>
      </g>
      <rect class="cls-3" x="111" y="1" width="100" height="100" rx="12"/>
      <g>
        <path class="cls-2" d="M132.82,122.12l-.41,3.36h2.27v.88H132.3l-.37,3h-.87l.37-3h-3.28l-.38,3h-.87l.37-3H125v-.88h2.38l.42-3.36h-2.29v-.88h2.4l.37-3h.88l-.38,3h3.29l.37-3h.86l-.36,3h2.25v.88Zm-.86,0h-3.28l-.43,3.36h3.29Z"/>
        <path class="cls-2" d="M143,124a2.89,2.89,0,0,1,.92,2.23,3.17,3.17,0,0,1-.46,1.71,3.21,3.21,0,0,1-1.38,1.17,5.14,5.14,0,0,1-2.22.43,6.73,6.73,0,0,1-2.3-.39,4.64,4.64,0,0,1-1.73-1l.56-.92a4.05,4.05,0,0,0,1.48.94,5.45,5.45,0,0,0,2,.36,3.33,3.33,0,0,0,2.13-.6,2,2,0,0,0,.75-1.66,2,2,0,0,0-.75-1.63,3.68,3.68,0,0,0-2.28-.59h-.8v-.85l3.11-3.89h-5.73v-1h7.2V119l-3.17,4A4.11,4.11,0,0,1,143,124Z"/>
        <path class="cls-2" d="M146.52,118.2h4.56a6.76,6.76,0,0,1,3.14.71,5.3,5.3,0,0,1,2.11,2,6,6,0,0,1,0,5.81,5.26,5.26,0,0,1-2.11,2,6.76,6.76,0,0,1-3.14.71h-4.56Zm4.5,10.17a5.38,5.38,0,0,0,2.57-.58,4.22,4.22,0,0,0,1.71-1.61,4.95,4.95,0,0,0,0-4.76,4.16,4.16,0,0,0-1.71-1.61,5.39,5.39,0,0,0-2.57-.59H147.7v9.15Z"/>
        <path class="cls-2" d="M166.78,124.58a2.62,2.62,0,0,1,.57,1.7,2.75,2.75,0,0,1-.53,1.7,3.25,3.25,0,0,1-1.51,1.12,6.21,6.21,0,0,1-2.31.39,5.17,5.17,0,0,1-3.17-.86,2.77,2.77,0,0,1-1.15-2.35,2.68,2.68,0,0,1,.55-1.71,3.35,3.35,0,0,1,1.61-1,2.83,2.83,0,0,1-1.31-1,2.51,2.51,0,0,1-.45-1.5,2.6,2.6,0,0,1,1.06-2.16,4.69,4.69,0,0,1,2.86-.8,5.47,5.47,0,0,1,2.07.36,3.22,3.22,0,0,1,1.39,1,2.59,2.59,0,0,1,.49,1.57,2.45,2.45,0,0,1-.46,1.5,2.94,2.94,0,0,1-1.33,1A3.32,3.32,0,0,1,166.78,124.58Zm-1.45,3.33a2,2,0,0,0,0-3.29A4,4,0,0,0,163,124a3.91,3.91,0,0,0-2.31.6,1.91,1.91,0,0,0-.84,1.64,1.94,1.94,0,0,0,.83,1.66,4.77,4.77,0,0,0,4.65,0ZM161,122.57a3.37,3.37,0,0,0,2,.54,3.43,3.43,0,0,0,2-.54,1.71,1.71,0,0,0,.74-1.46,1.74,1.74,0,0,0-.76-1.49,3.4,3.4,0,0,0-2-.54,3.36,3.36,0,0,0-2,.54,1.83,1.83,0,0,0,0,2.95Z"/>
        <path class="cls-2" d="M176.6,128.37v1h-7.86v-.82L173.4,124a5.89,5.89,0,0,0,1.19-1.49,2.83,2.83,0,0,0,.31-1.27,1.86,1.86,0,0,0-.68-1.55,3,3,0,0,0-1.94-.55,3.83,3.83,0,0,0-3.06,1.25l-.81-.71a4.33,4.33,0,0,1,1.67-1.18,6,6,0,0,1,2.3-.42,4.19,4.19,0,0,1,2.71.81,2.72,2.72,0,0,1,1,2.22,3.74,3.74,0,0,1-.39,1.66,6.91,6.91,0,0,1-1.45,1.84l-3.81,3.74Z"/>
        <path class="cls-2" d="M180.22,119.22v4.4H186v1h-5.79v4.75H179V118.2h7.68v1Z"/>
        <path class="cls-2" d="M190.34,119.22v4.4h5.8v1h-5.8v4.75h-1.18V118.2h7.68v1Z"/>
      </g>
      <rect class="cls-4" x="221" y="1" width="100" height="100" rx="12"/>
      <g>
        <path class="cls-2" d="M243.18,122.12l-.42,3.36H245v.88h-2.38l-.37,3h-.86l.36-3H238.5l-.38,3h-.86l.36-3h-2.27v-.88h2.39l.41-3.36h-2.29v-.88h2.4l.37-3h.88l-.38,3h3.29l.37-3h.87l-.37,3h2.25v.88Zm-.87,0H239l-.43,3.36h3.3Z"/>
        <path class="cls-2" d="M249,119.22v4.4h5.79v1H249v4.75h-1.18V118.2h7.68v1Z"/>
        <path class="cls-2" d="M259.16,119.22v4.4H265v1h-5.79v4.75H258V118.2h7.68v1Z"/>
        <path class="cls-2" d="M269.82,128.76a5.33,5.33,0,0,1-2.09-2,6,6,0,0,1,0-5.84,5.35,5.35,0,0,1,2.1-2,6.5,6.5,0,0,1,5.31-.32,4.81,4.81,0,0,1,1.8,1.21l-.76.76a4.42,4.42,0,0,0-3.31-1.33,4.8,4.8,0,0,0-2.41.61,4.4,4.4,0,0,0-1.71,1.66,4.91,4.91,0,0,0,0,4.74,4.4,4.4,0,0,0,1.71,1.66,4.8,4.8,0,0,0,2.41.61,4.4,4.4,0,0,0,3.31-1.34l.76.75a4.83,4.83,0,0,1-1.8,1.22,6.26,6.26,0,0,1-2.32.42A6.11,6.11,0,0,1,269.82,128.76Z"/>
        <path class="cls-2" d="M285.21,119.57a6.39,6.39,0,0,1,1.18,4.13,7.05,7.05,0,0,1-.64,3.17,4.44,4.44,0,0,1-1.79,2,5.31,5.31,0,0,1-2.69.66,5.07,5.07,0,0,1-2.65-.6l.46-.93a3.93,3.93,0,0,0,2.18.53,3.71,3.71,0,0,0,2.91-1.18,5,5,0,0,0,1.05-3.42c0-.27,0-.58,0-.91a3,3,0,0,1-1.33,1.42,4.35,4.35,0,0,1-2.1.5,4.55,4.55,0,0,1-2-.41,3.18,3.18,0,0,1-1.33-1.18,3.24,3.24,0,0,1-.48-1.77,3.34,3.34,0,0,1,.49-1.81,3.27,3.27,0,0,1,1.37-1.2,4.31,4.31,0,0,1,2-.43A4.13,4.13,0,0,1,285.21,119.57Zm-1.79,4a2.59,2.59,0,0,0,1-.88,2.21,2.21,0,0,0,.37-1.25,2.15,2.15,0,0,0-.35-1.18,2.45,2.45,0,0,0-1-.89,3.6,3.6,0,0,0-1.6-.33,2.92,2.92,0,0,0-2,.66,2.26,2.26,0,0,0-.76,1.77,2.23,2.23,0,0,0,.76,1.76,3,3,0,0,0,2.06.66A3.37,3.37,0,0,0,283.42,123.61Z"/>
        <path class="cls-2" d="M290.21,128.81a4.52,4.52,0,0,1-1.59-2,8.48,8.48,0,0,1,0-6.06,4.52,4.52,0,0,1,1.59-2,4.21,4.21,0,0,1,4.62,0,4.52,4.52,0,0,1,1.59,2,8.2,8.2,0,0,1,0,6.06,4.52,4.52,0,0,1-1.59,2,4.26,4.26,0,0,1-4.62,0Zm4-.92a3.5,3.5,0,0,0,1.16-1.58,7.71,7.71,0,0,0,0-5,3.53,3.53,0,0,0-1.16-1.59,3,3,0,0,0-3.44,0,3.53,3.53,0,0,0-1.16,1.59,7.71,7.71,0,0,0,0,5,3.5,3.5,0,0,0,1.16,1.58,3,3,0,0,0,3.44,0Z"/>
        <path class="cls-2" d="M306.42,118.2V119l-4.68,10.39h-1.25l4.61-10.18h-5.76v2.1H298.2V118.2Z"/>
      </g>
      <g>
        <path class="cls-2" d="M353.34,122.12l-.42,3.36h2.27v.88h-2.38l-.37,3h-.86l.36-3h-3.28l-.38,3h-.86l.36-3h-2.27v-.88h2.39l.41-3.36H346v-.88h2.4l.37-3h.88l-.38,3h3.29l.37-3h.87l-.37,3h2.25v.88Zm-.87,0h-3.28l-.43,3.36h3.3Z"/>
        <path class="cls-2" d="M359.19,119.22v4.4H365v1h-5.79v4.75H358V118.2h7.68v1Z"/>
        <path class="cls-2" d="M369.32,119.22v4.4h5.79v1h-5.79v4.75h-1.18V118.2h7.68v1Z"/>
        <path class="cls-2" d="M379.45,119.22v4.4h5.79v1h-5.79v4.75h-1.19V118.2h7.68v1Z"/>
        <path class="cls-2" d="M389.58,119.22v4.4h5.79v1h-5.79v4.75h-1.19V118.2h7.68v1Z"/>
        <path class="cls-2" d="M399.7,119.22v4.4h5.8v1h-5.8v4.75h-1.18V118.2h7.68v1Z"/>
        <path class="cls-2" d="M409.83,119.22v4.4h5.79v1h-5.79v4.75h-1.18V118.2h7.68v1Z"/>
      </g>
    </g>
  </g>
</svg>
