<?xml version="1.0" encoding="utf-8"?>
<!-- Generator: Adobe Illustrator 24.2.0, SVG Export Plug-In . SVG Version: 6.00 Build 0)  -->
<svg version="1.1" id="Layer_1" xmlns="http://www.w3.org/2000/svg" xmlns:xlink="http://www.w3.org/1999/xlink" x="0px" y="0px"
	 viewBox="0 0 100 100" style="enable-background:new 0 0 100 100;" xml:space="preserve">
<style type="text/css">
	.st0{fill:none;}
	.st1{fill:#4C81F6;}
</style>
<g>
	<path class="st0" d="M55.8,44.7c1-1.8,2.4-3.4,4-4.7c-3.4-4.1-7.3-7.1-11.8-9c-0.7-0.3-1.4-0.6-2.2-0.8c-3.8,4.4-5.7,10.4-5.7,17.8
		c0,10.8,4.1,17.5,9.1,21.7c0.8-2.4,1.4-5.4,2-8.9C52.1,55.7,53.1,49.8,55.8,44.7z"/>
	<path class="st1" d="M9.9,64.6c0.8,0.4,1.8,0.1,2.2-0.7l2.7-5.2C14.2,63.8,14.1,72,18.2,77c2.3,2.9,5.7,4.4,10,4.4c0,0,0.1,0,0.1,0
		c6.4-0.1,9.9-2.7,12.1-6.5c8.5,5.2,18,5.4,18.1,5.4c0,0,0,0,0,0c0.9,0,1.6-0.7,1.6-1.6c0-0.9-0.7-1.6-1.6-1.6
		c-0.6,0-9.2-0.2-16.9-5c1.2-3.1,1.8-6.7,2.4-10.3c0.9-5.2,1.8-10.6,4.3-15.2c0.8-1.4,1.8-2.6,3.1-3.6c1.7,2.4,3.2,5.1,4.6,8.2
		l-4.3-4.1c-0.6-0.6-1.7-0.6-2.3,0.1c-0.6,0.6-0.6,1.7,0.1,2.3L60,59.1c0.3,0.3,0.7,0.4,1.1,0.4c0.2,0,0.5-0.1,0.7-0.2
		c0.6-0.3,1-0.9,0.9-1.6L61.5,44c-0.1-0.9-0.9-1.5-1.7-1.5c-0.9,0.1-1.5,0.8-1.5,1.7l0.4,4.8c-1.3-2.8-2.8-5.4-4.5-7.8
		c7.5-3.9,19.1-4.2,26.1-3.9l-5.2,1.3c-0.9,0.2-1.4,1.1-1.2,1.9c0.2,0.7,0.8,1.2,1.6,1.2c0.1,0,0.3,0,0.4,0l13.8-3.5
		c0.6-0.2,1.1-0.7,1.2-1.4c0.1-0.7-0.3-1.3-0.8-1.6l-12.3-6.5c-0.8-0.4-1.8-0.1-2.2,0.7c-0.4,0.8-0.1,1.8,0.7,2.2l4.6,2.4
		c-7.5-0.3-20.2-0.1-28.6,4.5c-3.8-4.6-8.2-8.1-13.3-10.2c-0.3-0.1-0.6-0.2-0.9-0.3c8.3-6.9,20.2-6.3,20.3-6.3
		c0.9,0.1,1.6-0.6,1.7-1.5c0-0.9-0.6-1.6-1.5-1.7c-0.6,0-14.3-0.7-23.7,8.1c-0.1,0.1-0.2,0.2-0.3,0.3c-11.9-3.1-22.4,1.4-22.9,1.6
		C11,29,10.6,29.9,11,30.7c0.4,0.8,1.3,1.2,2.1,0.8c0.1,0,8.9-3.9,19.1-1.8c-3.7,4.9-5.5,11.1-5.5,18.7c0,12.5,5,20,11.1,24.7
		c-1.8,3.3-4.5,5.1-9.5,5.1c-3.4,0-5.9-1-7.6-3.2c-3-3.8-3.2-10.1-2.8-14.7l1.2,4.7c0.2,0.7,0.8,1.2,1.6,1.2c0.1,0,0.3,0,0.4,0
		c0.9-0.2,1.4-1.1,1.2-1.9l-3.5-13.8c-0.2-0.6-0.7-1.1-1.4-1.2c-0.7-0.1-1.3,0.3-1.6,0.8L9.3,62.4C8.8,63.2,9.1,64.2,9.9,64.6z
		 M29.9,48.4c0-7.4,1.9-13.4,5.7-17.8c0.7,0.2,1.4,0.5,2.2,0.8c4.5,1.9,8.4,4.9,11.8,9c-1.7,1.3-3,2.8-4,4.7
		c-2.7,5-3.7,10.9-4.6,16.1c-0.6,3.5-1.2,6.4-2,8.9C34,65.9,29.9,59.2,29.9,48.4z"/>
</g>
</svg>
