<?xml version="1.0" encoding="utf-8"?>
<!-- Generator: Adobe Illustrator 24.2.0, SVG Export Plug-In . SVG Version: 6.00 Build 0)  -->
<svg version="1.1" id="Layer_1" xmlns="http://www.w3.org/2000/svg" xmlns:xlink="http://www.w3.org/1999/xlink" x="0px" y="0px"
	 viewBox="0 0 40 40" style="enable-background:new 0 0 40 40;" xml:space="preserve">
<style type="text/css">
	.st0{display:none;}
	.st1{display:inline;}
	.st2{opacity:0.25;enable-background:new    ;}
	.st3{fill:#4C81F6;}
	.st4{fill:none;stroke:#000000;stroke-width:0.7;stroke-miterlimit:10;}
	.st5{display:inline;fill:none;stroke:#000000;stroke-width:0.7;stroke-miterlimit:10;}
	.st6{fill:none;}
</style>
<g class="st0">
	<g class="st1">
		<path d="M36,6.2V4.6c0-1-0.8-1.8-1.8-1.8h-23H5.8C4.8,2.8,4,3.6,4,4.6v1.6C4,6.2,36,6.2,36,6.2z"/>
		<path class="st2" d="M13.2,2.8h-2H5.8C4.8,2.8,4,3.6,4,4.6v1.6h7.2L13.2,2.8z"/>
		<g>
			<g>
				<rect x="4.5" y="6.7" width="31" height="22"/>
				<path d="M35,7.2v21H5v-21L35,7.2 M36,6.2H4v23h32V6.2L36,6.2z"/>
			</g>
			<path d="M34.5,7.7v20h-29v-20L34.5,7.7 M34.7,7.4H5.2v20.5h29.5V7.4L34.7,7.4z"/>
		</g>
		<circle cx="6.5" cy="4.5" r="0.5"/>
		<circle cx="8.1" cy="4.5" r="0.5"/>
		<circle cx="9.6" cy="4.5" r="0.5"/>
		<path d="M30.8,5.4H14.7c-0.5,0-0.9-0.4-0.9-0.9l0,0c0-0.5,0.4-0.9,0.9-0.9h16.1c0.5,0,0.9,0.4,0.9,0.9l0,0
			C31.7,5,31.3,5.4,30.8,5.4z"/>
		<g>
			<path d="M15.3,4.1l0.1,0.5c0,0.1,0.1,0.2,0.1,0.3h0c0-0.1,0.1-0.2,0.1-0.3l0.2-0.5h0.1L16,4.6c0,0.1,0.1,0.2,0.1,0.3h0
				c0-0.1,0-0.2,0.1-0.3l0.1-0.5h0.2L16.2,5H16l-0.1-0.4c0-0.1-0.1-0.2-0.1-0.3h0c0,0.1-0.1,0.2-0.1,0.3L15.5,5h-0.2l-0.3-0.9
				C15.1,4.1,15.3,4.1,15.3,4.1z"/>
			<path d="M16.7,4.1l0.1,0.5c0,0.1,0.1,0.2,0.1,0.3h0c0-0.1,0.1-0.2,0.1-0.3l0.2-0.5h0.1l0.1,0.5c0,0.1,0.1,0.2,0.1,0.3h0
				c0-0.1,0-0.2,0.1-0.3l0.1-0.5h0.2L17.6,5h-0.2l-0.1-0.4c0-0.1-0.1-0.2-0.1-0.3h0c0,0.1-0.1,0.2-0.1,0.3L17,5h-0.2l-0.3-0.9
				C16.5,4.1,16.7,4.1,16.7,4.1z"/>
			<path d="M18.2,4.1l0.1,0.5c0,0.1,0.1,0.2,0.1,0.3h0c0-0.1,0.1-0.2,0.1-0.3l0.2-0.5h0.1l0.1,0.5c0,0.1,0.1,0.2,0.1,0.3h0
				c0-0.1,0-0.2,0.1-0.3l0.1-0.5h0.2L19,5h-0.2l-0.1-0.4c0-0.1-0.1-0.2-0.1-0.3h0c0,0.1-0.1,0.2-0.1,0.3L18.4,5h-0.2L18,4.1
				L18.2,4.1L18.2,4.1z"/>
			<path d="M19.4,4.9c0-0.1,0-0.1,0.1-0.1s0.1,0.1,0.1,0.1c0,0.1,0,0.1-0.1,0.1C19.4,5,19.4,5,19.4,4.9z"/>
		</g>
		<g>
			<g>
				<rect x="32.8" y="4.4" width="1.4" height="0.2"/>
			</g>
			<g>
				<polygon points="33.7,5.3 33.5,5.1 34.1,4.5 33.5,4 33.7,3.8 34.4,4.5 				"/>
			</g>
		</g>
		<polygon points="30.9,4.2 30.4,4.8 29.9,4.2 		"/>
	</g>
</g>
<g class="st0">
	<path class="st1" d="M14.6,11.1h10.8c0.7,0,1.2,0.6,1.2,1.2v7.4c0,0.7-0.6,1.2-1.2,1.2h-0.7l0,3.3L21.2,21h-6.6
		c-0.7,0-1.2-0.6-1.2-1.2v-7.4C13.3,11.6,13.9,11.1,14.6,11.1z"/>
	<polygon class="st1" points="19.5,18.1 17.7,16.3 18.4,15.6 19.4,16.7 22.4,13.4 23.1,14.1 	"/>
</g>
<g class="st0">
	<g class="st1">
		<g>
			<g>
				<g>
					<g>
						<path d="M20,11.4c3.5,0,6.3,2.8,6.3,6.3s-2.8,6.3-6.3,6.3s-6.3-2.8-6.3-6.3S16.5,11.4,20,11.4 M20,11c-3.7,0-6.7,3-6.7,6.7
							s3,6.7,6.7,6.7s6.7-3,6.7-6.7S23.7,11,20,11L20,11z"/>
					</g>
				</g>
			</g>
			<g>
				<g>
					<g>
						<polygon points="22.4,17.5 22.1,17.2 23.5,16.2 22.1,15.1 22.4,14.8 24.2,16.2 						"/>
					</g>
				</g>
				<g>
					<g>
						<rect x="19.1" y="15.9" width="4.8" height="0.4"/>
					</g>
				</g>
				<g>
					<g>
						<polygon points="17.6,20.5 15.8,19.2 17.6,17.8 17.9,18.1 16.5,19.2 17.9,20.2 						"/>
					</g>
				</g>
				<g>
					<g>
						<rect x="16.1" y="18.9" width="4.8" height="0.4"/>
					</g>
				</g>
			</g>
		</g>
	</g>
</g>
<g class="st0">
	<g class="st1">
		<rect x="19.8" y="14.3" width="0.4" height="3.3"/>
		<polygon points="14.8,21 14.3,21 14.3,17.4 25.7,17.4 25.7,20.9 25.2,20.9 25.2,17.9 14.8,17.9 		"/>
		<path d="M17.2,10.5v3.9h5.7v-3.9C22.8,10.5,17.2,10.5,17.2,10.5z M20.1,13.4v0.3h-0.2v-0.3c-0.2,0-0.4-0.1-0.5-0.1l0.1-0.2
			c0.1,0.1,0.3,0.1,0.5,0.1c0.2,0,0.4-0.1,0.4-0.3c0-0.2-0.1-0.3-0.4-0.4c-0.3-0.1-0.5-0.3-0.5-0.6c0-0.3,0.2-0.5,0.5-0.5v-0.3h0.2
			v0.3c0.2,0,0.3,0.1,0.4,0.1l-0.1,0.2c-0.1,0-0.2-0.1-0.4-0.1c-0.2,0-0.3,0.1-0.3,0.3c0,0.2,0.1,0.2,0.4,0.4
			c0.3,0.1,0.5,0.3,0.5,0.6C20.6,13.1,20.4,13.4,20.1,13.4z"/>
		<path d="M22.6,20.9v3.9h5.7v-3.9H22.6z M25.5,23.8v0.3h-0.2v-0.3c-0.2,0-0.4-0.1-0.5-0.1l0.1-0.2c0.1,0.1,0.3,0.1,0.5,0.1
			c0.2,0,0.4-0.1,0.4-0.3c0-0.2-0.1-0.3-0.4-0.4c-0.3-0.1-0.5-0.3-0.5-0.6c0-0.3,0.2-0.5,0.5-0.5v-0.3h0.2v0.3
			c0.2,0,0.3,0.1,0.4,0.1l-0.1,0.2c-0.1,0-0.2-0.1-0.4-0.1c-0.2,0-0.3,0.1-0.3,0.3c0,0.2,0.1,0.2,0.4,0.4c0.3,0.1,0.5,0.3,0.5,0.6
			C26,23.5,25.9,23.8,25.5,23.8z"/>
		<path d="M11.7,20.9v3.9h5.7v-3.9H11.7z M14.6,23.8v0.3h-0.2v-0.3c-0.2,0-0.4-0.1-0.5-0.1l0.1-0.2c0.1,0.1,0.3,0.1,0.5,0.1
			c0.2,0,0.4-0.1,0.4-0.3c0-0.2-0.1-0.3-0.4-0.4c-0.3-0.1-0.5-0.3-0.5-0.6c0-0.3,0.2-0.5,0.5-0.5v-0.3h0.2v0.3
			c0.2,0,0.3,0.1,0.4,0.1L15,22.1c-0.1,0-0.2-0.1-0.4-0.1c-0.2,0-0.3,0.1-0.3,0.3c0,0.2,0.1,0.2,0.4,0.4c0.3,0.1,0.5,0.3,0.5,0.6
			C15.2,23.5,15,23.8,14.6,23.8z"/>
	</g>
</g>
<g class="st0">
	<g class="st1">
		<path d="M11,15.3l5.9-3.1v0.9l-5,2.5v0l5,2.5v0.9L11,16C11,16,11,15.3,11,15.3z"/>
		<path d="M17.8,19.6l3.6-9.3h0.9l-3.6,9.3H17.8z"/>
		<path d="M29,16l-5.9,3v-0.9l5-2.5v0l-5-2.5v-0.9l5.9,3V16z"/>
	</g>
	<g class="st1">
		<g>
			<rect x="9" y="24.4" width="22" height="0.7"/>
		</g>
		<rect x="25.3" y="22" width="5.7" height="1.2"/>
		<rect x="16.9" y="22" width="5.7" height="1.2"/>
		<rect x="9" y="22" width="5.7" height="1.2"/>
	</g>
</g>
<g class="st0">
	<g class="st1">
		<path d="M7,12.6l8.6-4.4v1.3L8.3,13v0l7.3,3.6V18L7,13.6C7,13.6,7,12.6,7,12.6z"/>
		<path d="M16.8,18.7L22,5.3h1.3L18,18.7H16.8z"/>
		<path d="M33,13.6L24.4,18v-1.3l7.3-3.6v0l-7.3-3.6V8.1l8.6,4.4V13.6z"/>
		<rect x="4" y="25.7" width="32" height="1"/>
		<rect x="27.8" y="22.2" width="8.2" height="1.7"/>
		<rect x="15.4" y="22.2" width="8.2" height="1.7"/>
		<rect x="4" y="22.2" width="8.2" height="1.7"/>
	</g>
</g>
<g class="st0">
	<rect x="-173" y="-95" class="st1" width="453.5" height="224.5"/>
</g>
<path class="st3" d="M7,16.6l8.6-4.4v1.3L8.3,17v0l7.3,3.6V22L7,17.6C7,17.6,7,16.6,7,16.6z"/>
<path class="st3" d="M16.8,22.7L22,9.3h1.3L18,22.7H16.8z"/>
<path class="st3" d="M33,17.6L24.4,22v-1.3l7.3-3.6v0l-7.3-3.6v-1.3l8.6,4.4V17.6z"/>
<rect x="4" y="29.7" class="st3" width="32" height="1"/>
<rect x="27.8" y="26.2" class="st3" width="8.2" height="1.7"/>
<rect x="15.4" y="26.2" class="st3" width="8.2" height="1.7"/>
<rect x="4" y="26.2" class="st3" width="8.2" height="1.7"/>
<g class="st0">
	<g class="st1">
		<circle cx="6.5" cy="4.8" r="0.5"/>
		<circle cx="8.1" cy="4.8" r="0.5"/>
		<circle cx="9.6" cy="4.8" r="0.5"/>
		<polygon points="33.1,4.3 33.5,4.7 32.4,4.7 32.4,5 33.5,5 33.1,5.4 33.2,5.6 34,4.9 33.2,4.1 		"/>
		<path d="M33.9,2.6H6.1C4.9,2.6,4,3.6,4,4.8v1.6v0.1v22.9h32V6.4V6.4V4.8C36,3.6,35.1,2.6,33.9,2.6z M35.3,28.7H4.7V7.1h30.6
			C35.3,7.1,35.3,28.7,35.3,28.7z M4.7,6.4V4.8c0-0.8,0.6-1.4,1.4-1.4h27.8c0.8,0,1.4,0.6,1.4,1.4v1.6H4.7z"/>
		<path d="M30.3,3.9H14.2c-0.5,0-0.9,0.4-0.9,0.9s0.4,0.9,0.9,0.9h16.1c0.5,0,0.9-0.4,0.9-0.9C31.2,4.3,30.8,3.9,30.3,3.9z
			 M15.7,5.4h-0.2l-0.1-0.4c0-0.1-0.1-0.2-0.1-0.3h0c0,0.1-0.1,0.2-0.1,0.3l-0.1,0.4H15l-0.3-0.9h0.2L15,4.9C15,5,15,5.1,15,5.2h0
			c0-0.1,0.1-0.2,0.1-0.3l0.2-0.5h0.1l0.1,0.5c0,0.1,0.1,0.2,0.1,0.3h0c0-0.1,0-0.2,0.1-0.3l0.1-0.5H16L15.7,5.4z M17.2,5.4H17
			l-0.1-0.4c0-0.1-0.1-0.2-0.1-0.3h0c0,0.1-0.1,0.2-0.1,0.3l-0.1,0.4h-0.2l-0.3-0.9h0.2l0.1,0.5c0,0.1,0.1,0.2,0.1,0.3h0
			c0-0.1,0.1-0.2,0.1-0.3l0.2-0.5h0.1L17,4.9c0,0.1,0.1,0.2,0.1,0.3h0c0-0.1,0-0.2,0.1-0.3l0.1-0.5h0.2L17.2,5.4z M18.6,5.4h-0.2
			l-0.1-0.4c0-0.1-0.1-0.2-0.1-0.3h0c0,0.1-0.1,0.2-0.1,0.3L18,5.4h-0.2l-0.3-0.9h0.2l0.1,0.5c0,0.1,0.1,0.2,0.1,0.3h0
			C17.9,5.1,18,5,18,4.9l0.2-0.5h0.1l0.1,0.5c0,0.1,0.1,0.2,0.1,0.3h0c0-0.1,0-0.2,0.1-0.3l0.1-0.5h0.2L18.6,5.4z M19.1,5.4
			C19,5.4,19,5.3,19,5.3c0-0.1,0-0.1,0.1-0.1s0.1,0.1,0.1,0.1C19.2,5.3,19.1,5.4,19.1,5.4z M30,5.2l-0.5-0.6h1L30,5.2z"/>
	</g>
</g>
<g class="st0">
	<g class="st1">
		<path d="M11,15.3l5.9-3.1v0.9l-5,2.5v0l5,2.5v0.9L11,16C11,16,11,15.3,11,15.3z"/>
		<path d="M17.8,19.6l3.6-9.3h0.9l-3.6,9.3H17.8z"/>
		<path d="M29,16l-5.9,3v-0.9l5-2.5v0l-5-2.5v-0.9l5.9,3V16z"/>
	</g>
	<g class="st1">
		<g>
			<rect x="9" y="24.4" width="22" height="0.7"/>
		</g>
		<rect x="25.3" y="22" width="5.7" height="1.2"/>
		<rect x="16.9" y="22" width="5.7" height="1.2"/>
		<rect x="9" y="22" width="5.7" height="1.2"/>
	</g>
</g>
<g class="st0">
	<g class="st1">
		<path class="st4" d="M20,11c-3.7,0-6.7,3-6.7,6.7s3,6.7,6.7,6.7s6.7-3,6.7-6.7S23.7,11,20,11L20,11z"/>
		<g>
			<g>
				<polyline class="st4" points="17.8,17.9 16.2,19.2 17.8,20.4 				"/>
				<line class="st4" x1="20.8" y1="19.2" x2="16.3" y2="19.2"/>
			</g>
			<g>
				<polyline class="st4" points="22.2,17.4 23.8,16.2 22.2,14.9 				"/>
				<line class="st4" x1="19.2" y1="16.2" x2="23.7" y2="16.2"/>
			</g>
		</g>
	</g>
</g>
<g class="st0">
	<path class="st1" d="M17.2,10.5v3.9h5.7v-3.9C22.8,10.5,17.2,10.5,17.2,10.5z M20.1,13.4v0.3h-0.2v-0.3c-0.2,0-0.4-0.1-0.5-0.1
		l0.1-0.2c0.1,0.1,0.3,0.1,0.5,0.1c0.2,0,0.4-0.1,0.4-0.3c0-0.2-0.1-0.3-0.4-0.4c-0.3-0.1-0.5-0.3-0.5-0.6c0-0.3,0.2-0.5,0.5-0.5
		v-0.3h0.2v0.3c0.2,0,0.3,0.1,0.4,0.1l-0.1,0.2c-0.1,0-0.2-0.1-0.4-0.1c-0.2,0-0.3,0.1-0.3,0.3c0,0.2,0.1,0.2,0.4,0.4
		c0.3,0.1,0.5,0.3,0.5,0.6C20.6,13.1,20.4,13.4,20.1,13.4z"/>
	<path class="st1" d="M22.6,20.9v3.9h5.7v-3.9H22.6z M25.5,23.8v0.3h-0.2v-0.3c-0.2,0-0.4-0.1-0.5-0.1l0.1-0.2
		c0.1,0.1,0.3,0.1,0.5,0.1c0.2,0,0.4-0.1,0.4-0.3c0-0.2-0.1-0.3-0.4-0.4c-0.3-0.1-0.5-0.3-0.5-0.6c0-0.3,0.2-0.5,0.5-0.5v-0.3h0.2
		v0.3c0.2,0,0.3,0.1,0.4,0.1l-0.1,0.2c-0.1,0-0.2-0.1-0.4-0.1c-0.2,0-0.3,0.1-0.3,0.3c0,0.2,0.1,0.2,0.4,0.4
		c0.3,0.1,0.5,0.3,0.5,0.6C26,23.5,25.9,23.8,25.5,23.8z"/>
	<path class="st1" d="M11.7,20.9v3.9h5.7v-3.9H11.7z M14.6,23.8v0.3h-0.2v-0.3c-0.2,0-0.4-0.1-0.5-0.1l0.1-0.2
		c0.1,0.1,0.3,0.1,0.5,0.1c0.2,0,0.4-0.1,0.4-0.3c0-0.2-0.1-0.3-0.4-0.4c-0.3-0.1-0.5-0.3-0.5-0.6c0-0.3,0.2-0.5,0.5-0.5v-0.3h0.2
		v0.3c0.2,0,0.3,0.1,0.4,0.1L15,22.1c-0.1,0-0.2-0.1-0.4-0.1c-0.2,0-0.3,0.1-0.3,0.3c0,0.2,0.1,0.2,0.4,0.4c0.3,0.1,0.5,0.3,0.5,0.6
		C15.2,23.5,15,23.8,14.6,23.8z"/>
	<polyline class="st5" points="14.6,20.9 14.6,17.7 25.4,17.7 25.4,21 	"/>
	<line class="st5" x1="20" y1="14.1" x2="20" y2="17.6"/>
</g>
<g class="st0">
	<g class="st1">
		<path d="M35.3,4.8c0-0.8-0.6-1.4-1.4-1.4H6.1C5.3,3.3,4.7,4,4.7,4.8v1.6h30.6V4.8z"/>
		<rect x="4.7" y="7.1" width="30.6" height="21.6"/>
		<g>
			<circle cx="6.5" cy="4.8" r="0.5"/>
		</g>
		<g>
			<circle cx="8.1" cy="4.8" r="0.5"/>
		</g>
		<g>
			<circle cx="9.6" cy="4.8" r="0.5"/>
		</g>
		<g>
			<path d="M30.3,5.7H14.2c-0.5,0-0.9-0.4-0.9-0.9l0,0c0-0.5,0.4-0.9,0.9-0.9h16.1c0.5,0,0.9,0.4,0.9,0.9l0,0
				C31.2,5.3,30.8,5.7,30.3,5.7z"/>
		</g>
		<g>
			<g>
				<path d="M14.9,4.4L15,4.9C15,5,15,5.1,15,5.2h0c0-0.1,0.1-0.2,0.1-0.3l0.2-0.5h0.1l0.1,0.5c0,0.1,0.1,0.2,0.1,0.3h0
					c0-0.1,0-0.2,0.1-0.3l0.1-0.5H16l-0.3,0.9h-0.2l-0.1-0.4c0-0.1-0.1-0.2-0.1-0.3h0c0,0.1-0.1,0.2-0.1,0.3l-0.1,0.4H15l-0.3-0.9
					L14.9,4.4L14.9,4.4z"/>
			</g>
			<g>
				<path d="M16.3,4.4l0.1,0.5c0,0.1,0.1,0.2,0.1,0.3h0c0-0.1,0.1-0.2,0.1-0.3l0.2-0.5h0.1L17,4.9c0,0.1,0.1,0.2,0.1,0.3h0
					c0-0.1,0-0.2,0.1-0.3l0.1-0.5h0.2l-0.3,0.9H17l-0.1-0.4c0-0.1-0.1-0.2-0.1-0.3h0c0,0.1-0.1,0.2-0.1,0.3l-0.1,0.4h-0.2l-0.3-0.9
					H16.3z"/>
			</g>
			<g>
				<path d="M17.7,4.4l0.1,0.5c0,0.1,0.1,0.2,0.1,0.3h0C17.9,5.1,18,5,18,4.9l0.2-0.5h0.1l0.1,0.5c0,0.1,0.1,0.2,0.1,0.3h0
					c0-0.1,0-0.2,0.1-0.3l0.1-0.5h0.2l-0.3,0.9h-0.2l-0.1-0.4c0-0.1-0.1-0.2-0.1-0.3h0c0,0.1-0.1,0.2-0.1,0.3L18,5.4h-0.2l-0.3-0.9
					H17.7z"/>
			</g>
			<g>
				<path d="M19,5.3c0-0.1,0-0.1,0.1-0.1s0.1,0.1,0.1,0.1c0,0.1,0,0.1-0.1,0.1C19,5.4,19,5.3,19,5.3z"/>
			</g>
		</g>
		<polygon points="33.2,4.1 33.1,4.3 33.5,4.7 32.4,4.7 32.4,5 33.5,5 33.1,5.4 33.2,5.6 34,4.9 		"/>
		<g>
			<polygon points="30.4,4.6 30,5.2 29.5,4.6 			"/>
		</g>
		<rect x="4.7" y="7.1" class="st6" width="30.6" height="21.6"/>
		<path d="M36,4.8c0-1.2-0.9-2.1-2.1-2.1H6.1C4.9,2.6,4,3.6,4,4.8v24.6h32V4.8z M35.3,28.7H4.7V7.1h30.6
			C35.3,7.1,35.3,28.7,35.3,28.7z M4.7,4.8c0-0.8,0.6-1.4,1.4-1.4h27.8c0.8,0,1.4,0.6,1.4,1.4v1.6H4.7V4.8z"/>
	</g>
</g>
<g class="st0">
	<g class="st1">
		<path d="M11,15.3l5.9-3.1v0.9l-5,2.5v0l5,2.5v0.9L11,16C11,16,11,15.3,11,15.3z"/>
		<path d="M17.8,19.6l3.6-9.3h0.9l-3.6,9.3H17.8z"/>
		<path d="M29,16l-5.9,3v-0.9l5-2.5v0l-5-2.5v-0.9l5.9,3V16z"/>
	</g>
	<g class="st1">
		<g>
			<rect x="9" y="24.4" width="22" height="0.7"/>
		</g>
		<rect x="25.3" y="22" width="5.7" height="1.2"/>
		<rect x="16.9" y="22" width="5.7" height="1.2"/>
		<rect x="9" y="22" width="5.7" height="1.2"/>
	</g>
</g>
<g class="st0">
	<g class="st1">
		<path d="M14.9,4.3L15,4.7C15,4.8,15,4.9,15,5h0c0-0.1,0.1-0.2,0.1-0.3l0.2-0.5h0.1l0.1,0.5c0,0.1,0.1,0.2,0.1,0.3h0
			c0-0.1,0-0.2,0.1-0.3l0.1-0.5H16l-0.3,0.9h-0.2l-0.1-0.4c0-0.1-0.1-0.2-0.1-0.3h0c0,0.1-0.1,0.2-0.1,0.3l-0.1,0.4H15l-0.3-0.9
			L14.9,4.3L14.9,4.3z"/>
		<path d="M16.3,4.3l0.1,0.5c0,0.1,0.1,0.2,0.1,0.3h0c0-0.1,0.1-0.2,0.1-0.3l0.2-0.5h0.1L17,4.7c0,0.1,0.1,0.2,0.1,0.3h0
			c0-0.1,0-0.2,0.1-0.3l0.1-0.5h0.2l-0.3,0.9H17l-0.1-0.4c0-0.1-0.1-0.2-0.1-0.3h0c0,0.1-0.1,0.2-0.1,0.3l-0.1,0.4h-0.2l-0.3-0.9
			H16.3z"/>
		<path d="M17.7,4.3l0.1,0.5c0,0.1,0.1,0.2,0.1,0.3h0c0-0.1,0.1-0.2,0.1-0.3l0.2-0.5h0.1l0.1,0.5c0,0.1,0.1,0.2,0.1,0.3h0
			c0-0.1,0-0.2,0.1-0.3l0.1-0.5h0.2l-0.3,0.9h-0.2l-0.1-0.4c0-0.1-0.1-0.2-0.1-0.3h0c0,0.1-0.1,0.2-0.1,0.3L18,5.2h-0.2l-0.3-0.9
			H17.7z"/>
		<path d="M19,5.1C19,5,19,5,19.1,5s0.1,0.1,0.1,0.1c0,0.1,0,0.1-0.1,0.1C19,5.2,19,5.2,19,5.1z"/>
		<polygon points="30.4,4.4 30,5 29.5,4.4 		"/>
		<path d="M34.2,2.8H11H5.8C4.8,2.8,4,3.6,4,4.6v24.6h32V4.6C36,3.6,35.2,2.8,34.2,2.8z M11,14.9l5.9-3.1v0.9l-5,2.5v0l5,2.5v0.9
			L11,15.6C11,15.6,11,14.9,11,14.9z M22.5,21.5v1.2h-5.7v-1.2H22.5z M17.8,19.1l3.6-9.3h0.9l-3.6,9.3H17.8z M9.6,4.2
			c0.3,0,0.5,0.2,0.5,0.5S9.9,5.2,9.6,5.2S9.1,4.9,9.1,4.7C9.1,4.4,9.3,4.2,9.6,4.2z M9,21.5h5.7v1.2H9V21.5z M6.5,5.2
			C6.2,5.2,6,4.9,6,4.7s0.2-0.5,0.5-0.5S7,4.4,7,4.7S6.8,5.2,6.5,5.2z M8.1,5.2c-0.3,0-0.5-0.2-0.5-0.5s0.2-0.5,0.5-0.5
			c0.3,0,0.5,0.2,0.5,0.5C8.6,4.9,8.3,5.2,8.1,5.2z M31,24.6H9v-0.7h22V24.6z M23,12.7v-0.9l5.9,3v0.7l-5.9,3v-0.9l5-2.5v0L23,12.7z
			 M31,22.7h-5.7v-1.2H31V22.7z M30.3,5.6H14.2c-0.5,0-0.9-0.4-0.9-0.9s0.4-0.9,0.9-0.9h16.1c0.5,0,0.9,0.4,0.9,0.9
			C31.2,5.2,30.8,5.6,30.3,5.6z M33.2,5.4l-0.2-0.2l0.4-0.4h-1.1V4.6h1.1l-0.4-0.4l0.2-0.2L34,4.7L33.2,5.4z"/>
	</g>
</g>
<g class="st0">
	<path class="st1" d="M14.9,4.3L15,4.7C15,4.8,15,4.9,15,5h0c0-0.1,0.1-0.2,0.1-0.3l0.2-0.5h0.1l0.1,0.5c0,0.1,0.1,0.2,0.1,0.3h0
		c0-0.1,0-0.2,0.1-0.3l0.1-0.5H16l-0.3,0.9h-0.2l-0.1-0.4c0-0.1-0.1-0.2-0.1-0.3h0c0,0.1-0.1,0.2-0.1,0.3l-0.1,0.4H15l-0.3-0.9
		L14.9,4.3L14.9,4.3z"/>
	<path class="st1" d="M16.3,4.3l0.1,0.5c0,0.1,0.1,0.2,0.1,0.3h0c0-0.1,0.1-0.2,0.1-0.3l0.2-0.5h0.1L17,4.7c0,0.1,0.1,0.2,0.1,0.3h0
		c0-0.1,0-0.2,0.1-0.3l0.1-0.5h0.2l-0.3,0.9H17l-0.1-0.4c0-0.1-0.1-0.2-0.1-0.3h0c0,0.1-0.1,0.2-0.1,0.3l-0.1,0.4h-0.2l-0.3-0.9
		H16.3z"/>
	<path class="st1" d="M17.7,4.3l0.1,0.5c0,0.1,0.1,0.2,0.1,0.3h0c0-0.1,0.1-0.2,0.1-0.3l0.2-0.5h0.1l0.1,0.5c0,0.1,0.1,0.2,0.1,0.3
		h0c0-0.1,0-0.2,0.1-0.3l0.1-0.5h0.2l-0.3,0.9h-0.2l-0.1-0.4c0-0.1-0.1-0.2-0.1-0.3h0c0,0.1-0.1,0.2-0.1,0.3L18,5.2h-0.2l-0.3-0.9
		H17.7z"/>
	<path class="st1" d="M19,5.1C19,5,19,5,19.1,5s0.1,0.1,0.1,0.1c0,0.1,0,0.1-0.1,0.1C19,5.2,19,5.2,19,5.1z"/>
	<polygon class="st1" points="30.4,4.4 30,5 29.5,4.4 	"/>
	<path class="st1" d="M20,11c-3.5,0-6.3,2.8-6.3,6.3s2.8,6.3,6.3,6.3s6.3-2.8,6.3-6.3S23.5,11,20,11z M20.8,19.2h-3.6l0.8,0.6
		l-0.4,0.6l-2-1.5l2-1.5l0.4,0.6l-0.8,0.6h3.6V19.2z M22.4,17.4L22,16.8l0.8-0.6h-3.6v-0.7h3.6L22,14.9l0.4-0.6l2,1.5L22.4,17.4z"/>
	<path class="st1" d="M34.2,2.8H11H5.8C4.8,2.8,4,3.6,4,4.6v24.6h32V4.6C36,3.6,35.2,2.8,34.2,2.8z M6.5,5.2C6.2,5.2,6,4.9,6,4.7
		s0.2-0.5,0.5-0.5S7,4.4,7,4.7S6.8,5.2,6.5,5.2z M8.1,5.2c-0.3,0-0.5-0.2-0.5-0.5s0.2-0.5,0.5-0.5c0.3,0,0.5,0.2,0.5,0.5
		C8.6,4.9,8.3,5.2,8.1,5.2z M9.6,5.2c-0.3,0-0.5-0.2-0.5-0.5s0.2-0.5,0.5-0.5s0.5,0.2,0.5,0.5S9.9,5.2,9.6,5.2z M20,24.4
		c-3.9,0-7-3.2-7-7c0-3.9,3.2-7,7-7c3.9,0,7,3.2,7,7C27,21.3,23.9,24.4,20,24.4z M30.3,5.6H14.2c-0.5,0-0.9-0.4-0.9-0.9
		s0.4-0.9,0.9-0.9h16.1c0.5,0,0.9,0.4,0.9,0.9C31.2,5.2,30.8,5.6,30.3,5.6z M33.2,5.4l-0.2-0.2l0.4-0.4h-1.1V4.6h1.1l-0.4-0.4
		l0.2-0.2L34,4.7L33.2,5.4z"/>
</g>
</svg>
