<svg xmlns="http://www.w3.org/2000/svg" viewBox="0 0 300.98 320.98">
  <defs>
    <style>
      .cls-1 {
        fill: #fff;
      }
    </style>
  </defs>
  <g id="Layer_2" data-name="Layer 2">
    <g id="Layer_1-2" data-name="Layer 1">
      <g>
        <path class="cls-1" d="M23.52,25.5l0-18L14.7,22.71H14L5.16,7.59V25.5H3.66V4.5H5l9.39,16.23L23.73,4.5H25l0,21Z" transform="translate(-0.82 -3.24)"/>
        <path class="cls-1" d="M34,24.6a7.28,7.28,0,0,1-2.8-2.84,8.19,8.19,0,0,1-1-4.09,8.19,8.19,0,0,1,1-4.09A7.35,7.35,0,0,1,34,10.74a8.37,8.37,0,0,1,8,0,7.37,7.37,0,0,1,2.81,2.84,8.19,8.19,0,0,1,1,4.09,8.19,8.19,0,0,1-1,4.09A7.31,7.31,0,0,1,42,24.6a8.37,8.37,0,0,1-8,0Zm7.23-1.17a6,6,0,0,0,2.25-2.34,7,7,0,0,0,.83-3.42,7,7,0,0,0-.83-3.42,6,6,0,0,0-2.25-2.34,6.61,6.61,0,0,0-6.45,0,6,6,0,0,0-2.25,2.34,7,7,0,0,0-.82,3.42,7,7,0,0,0,.82,3.42,6,6,0,0,0,2.25,2.34,6.61,6.61,0,0,0,6.45,0Z" transform="translate(-0.82 -3.24)"/>
        <path class="cls-1" d="M62.76,11.43a6.66,6.66,0,0,1,1.71,4.92V25.5H63v-9a5.56,5.56,0,0,0-1.34-4,4.94,4.94,0,0,0-3.73-1.38,5.76,5.76,0,0,0-4.35,1.65A6.13,6.13,0,0,0,52,17.16V25.5h-1.5V9.84H51.9v3.39a6,6,0,0,1,2.41-2.58,7.46,7.46,0,0,1,3.8-.93A6.28,6.28,0,0,1,62.76,11.43Z" transform="translate(-0.82 -3.24)"/>
        <path class="cls-1" d="M78.42,24.51a3.66,3.66,0,0,1-1.43.82,5.58,5.58,0,0,1-1.78.29,4.23,4.23,0,0,1-3.15-1.12A4.28,4.28,0,0,1,71,21.36V11.13H68.07V9.84H71V6.42h1.5V9.84h5v1.29h-5V21.21a3.34,3.34,0,0,0,.73,2.33,2.83,2.83,0,0,0,2.18.79,3.48,3.48,0,0,0,2.43-.87Z" transform="translate(-0.82 -3.24)"/>
        <path class="cls-1" d="M83,25.05a7.45,7.45,0,0,1-2.67-1.44l.69-1.2a7.91,7.91,0,0,0,2.47,1.35,9.38,9.38,0,0,0,3.17.54,6.19,6.19,0,0,0,3.49-.78,2.49,2.49,0,0,0,1.13-2.16,2,2,0,0,0-.62-1.56A3.77,3.77,0,0,0,89.1,19q-.9-.27-2.49-.57a20.79,20.79,0,0,1-3-.72,4.7,4.7,0,0,1-2-1.26,3.38,3.38,0,0,1-.81-2.4,3.77,3.77,0,0,1,1.54-3.08,7,7,0,0,1,4.4-1.21,10.76,10.76,0,0,1,3,.42,7.43,7.43,0,0,1,2.4,1.11l-.69,1.2a7.17,7.17,0,0,0-2.19-1A8.93,8.93,0,0,0,86.76,11a5.58,5.58,0,0,0-3.3.81A2.52,2.52,0,0,0,82.35,14,2.15,2.15,0,0,0,83,15.62a4.21,4.21,0,0,0,1.54.87c.61.19,1.47.39,2.57.61a22,22,0,0,1,3,.7A4.62,4.62,0,0,1,92,19a3.26,3.26,0,0,1,.78,2.31,3.66,3.66,0,0,1-1.62,3.12,7.69,7.69,0,0,1-4.56,1.17A11.31,11.31,0,0,1,83,25.05Z" transform="translate(-0.82 -3.24)"/>
        <path class="cls-1" d="M110.16,18H96.69a6.59,6.59,0,0,0,.93,3.26,5.93,5.93,0,0,0,2.35,2.2,7.51,7.51,0,0,0,6.18.22,5.53,5.53,0,0,0,2.18-1.63l.87,1A6.7,6.7,0,0,1,106.63,25a8.92,8.92,0,0,1-7.51-.36,7.41,7.41,0,0,1-2.87-2.82,8.09,8.09,0,0,1-1-4.11,8.49,8.49,0,0,1,1-4.09,7.22,7.22,0,0,1,2.69-2.84,7.77,7.77,0,0,1,7.66,0,7.22,7.22,0,0,1,2.67,2.81,8.43,8.43,0,0,1,1,4.08ZM99.75,11.78a5.66,5.66,0,0,0-2.12,2.06,6.8,6.8,0,0,0-.91,3h12a6.28,6.28,0,0,0-.9-3,5.83,5.83,0,0,0-5.1-2.82A6,6,0,0,0,99.75,11.78Z" transform="translate(-0.82 -3.24)"/>
        <path class="cls-1" d="M118.53,10.63a7.22,7.22,0,0,1,3.72-.91v1.47l-.36,0a5.24,5.24,0,0,0-4.08,1.63,6.59,6.59,0,0,0-1.47,4.55V25.5h-1.5V9.84h1.44v3.42A5.48,5.48,0,0,1,118.53,10.63Z" transform="translate(-0.82 -3.24)"/>
        <path class="cls-1" d="M130.08,10.63a7.22,7.22,0,0,1,3.72-.91v1.47l-.36,0a5.24,5.24,0,0,0-4.08,1.63,6.59,6.59,0,0,0-1.47,4.55V25.5h-1.5V9.84h1.44v3.42A5.48,5.48,0,0,1,130.08,10.63Z" transform="translate(-0.82 -3.24)"/>
        <path class="cls-1" d="M147.69,11.21a5.74,5.74,0,0,1,1.56,4.36V25.5h-1.44V22.71a5.28,5.28,0,0,1-2.19,2.15,7.26,7.26,0,0,1-3.45.76A6.37,6.37,0,0,1,138,24.39a4,4,0,0,1-1.51-3.24A4,4,0,0,1,137.92,18a6.66,6.66,0,0,1,4.46-1.22h5.37V15.51a4.41,4.41,0,0,0-1.19-3.33A4.8,4.8,0,0,0,143.1,11a8.38,8.38,0,0,0-3,.54A7.46,7.46,0,0,0,137.7,13L137,11.94a8.51,8.51,0,0,1,2.82-1.64,10.5,10.5,0,0,1,3.45-.58A6.19,6.19,0,0,1,147.69,11.21Zm-2,12.28a5.48,5.48,0,0,0,2.06-2.61V17.94h-5.34a5.33,5.33,0,0,0-3.35.84,2.81,2.81,0,0,0-1,2.31,2.87,2.87,0,0,0,1.14,2.41,5.13,5.13,0,0,0,3.21.89A5.87,5.87,0,0,0,145.69,23.49Z" transform="translate(-0.82 -3.24)"/>
        <path class="cls-1" d="M163.2,24.51a3.66,3.66,0,0,1-1.43.82,5.58,5.58,0,0,1-1.78.29,4.23,4.23,0,0,1-3.15-1.12,4.28,4.28,0,0,1-1.11-3.14V11.13h-2.88V9.84h2.88V6.42h1.5V9.84h5v1.29h-5V21.21a3.34,3.34,0,0,0,.73,2.33,2.83,2.83,0,0,0,2.18.79,3.48,3.48,0,0,0,2.43-.87Z" transform="translate(-0.82 -3.24)"/>
        <path class="cls-1" d="M175.56,4.5h1.53V24.12h12.09V25.5H175.56Z" transform="translate(-0.82 -3.24)"/>
        <path class="cls-1" d="M192.51,5.68a1.11,1.11,0,0,1-.36-.85,1.24,1.24,0,0,1,2.1-.88,1.11,1.11,0,0,1,.36.85,1.24,1.24,0,0,1-2.1.88Zm.12,4.16h1.5V25.5h-1.5Z" transform="translate(-0.82 -3.24)"/>
        <path class="cls-1" d="M214.56,9.84v14q0,3.9-1.89,5.76T207,31.44a12.46,12.46,0,0,1-4.08-.66A7.94,7.94,0,0,1,199.8,29l.81-1.14a8.26,8.26,0,0,0,2.82,1.68,10.19,10.19,0,0,0,3.51.6,6.38,6.38,0,0,0,4.62-1.48,6.25,6.25,0,0,0,1.5-4.61V21.36A6.65,6.65,0,0,1,210.39,24a7.91,7.91,0,0,1-3.84.93,8.17,8.17,0,0,1-4-1,7.18,7.18,0,0,1-2.8-2.72,7.63,7.63,0,0,1-1-3.93,7.63,7.63,0,0,1,1-3.93,7.06,7.06,0,0,1,2.8-2.7,8.28,8.28,0,0,1,4-1,7.94,7.94,0,0,1,3.9,1,6.55,6.55,0,0,1,2.67,2.7V9.84Zm-4.59,13a5.82,5.82,0,0,0,2.29-2.22,6.4,6.4,0,0,0,.83-3.26,6.3,6.3,0,0,0-.83-3.24,5.77,5.77,0,0,0-2.29-2.2,7.19,7.19,0,0,0-6.59,0,5.81,5.81,0,0,0-2.28,2.2,6.29,6.29,0,0,0-.82,3.24,6.39,6.39,0,0,0,.82,3.26,5.86,5.86,0,0,0,2.28,2.22,7.27,7.27,0,0,0,6.59,0Z" transform="translate(-0.82 -3.24)"/>
        <path class="cls-1" d="M233.22,11.43a6.66,6.66,0,0,1,1.71,4.92V25.5h-1.5v-9a5.56,5.56,0,0,0-1.34-4,4.94,4.94,0,0,0-3.73-1.38A5.76,5.76,0,0,0,224,12.72a6.13,6.13,0,0,0-1.59,4.44V25.5h-1.5V3.24h1.5v9.87a5.74,5.74,0,0,1,2.4-2.5,7.59,7.59,0,0,1,3.75-.89A6.28,6.28,0,0,1,233.22,11.43Z" transform="translate(-0.82 -3.24)"/>
        <path class="cls-1" d="M248.88,24.51a3.66,3.66,0,0,1-1.43.82,5.58,5.58,0,0,1-1.78.29,4.23,4.23,0,0,1-3.15-1.12,4.28,4.28,0,0,1-1.11-3.14V11.13h-2.88V9.84h2.88V6.42h1.5V9.84h5v1.29h-5V21.21a3.34,3.34,0,0,0,.73,2.33,2.83,2.83,0,0,0,2.18.79,3.48,3.48,0,0,0,2.43-.87Z" transform="translate(-0.82 -3.24)"/>
        <path class="cls-1" d="M25.23,41.5v21H23.1V45.7L14.85,59.83h-1l-8.25-14V62.5H3.42v-21H5.25l9.12,15.57,9-15.57Z" transform="translate(-0.82 -3.24)"/>
        <path class="cls-1" d="M34,61.62a7.63,7.63,0,0,1-2.88-2.87,8.69,8.69,0,0,1,0-8.28A7.44,7.44,0,0,1,34,47.62a8.79,8.79,0,0,1,8.22,0A7.32,7.32,0,0,1,45,50.47a8.76,8.76,0,0,1,0,8.28,7.51,7.51,0,0,1-2.86,2.87,8.72,8.72,0,0,1-8.22,0ZM41.08,60a5.36,5.36,0,0,0,2.09-2.18,7.24,7.24,0,0,0,0-6.42,5.42,5.42,0,0,0-2.09-2.18,6.36,6.36,0,0,0-6,0A5.51,5.51,0,0,0,33,51.4a7.16,7.16,0,0,0,0,6.42A5.45,5.45,0,0,0,35.05,60a6.36,6.36,0,0,0,6,0Z" transform="translate(-0.82 -3.24)"/>
        <path class="cls-1" d="M63.19,48.33a6.73,6.73,0,0,1,1.76,5V62.5H62.82V53.56a5.23,5.23,0,0,0-1.23-3.75,4.62,4.62,0,0,0-3.51-1.29A5.41,5.41,0,0,0,54,50a5.69,5.69,0,0,0-1.48,4.18V62.5H50.43V46.72h2v2.91a5.92,5.92,0,0,1,2.41-2.24,7.88,7.88,0,0,1,3.59-.79A6.4,6.4,0,0,1,63.19,48.33Z" transform="translate(-0.82 -3.24)"/>
        <path class="cls-1" d="M79.05,61.54a4.21,4.21,0,0,1-1.49.83,6.26,6.26,0,0,1-1.84.28,4.18,4.18,0,0,1-4.62-4.59V48.52H68.28v-1.8H71.1V43.27h2.13v3.45H78v1.8h-4.8v9.42a3,3,0,0,0,.7,2.14,2.65,2.65,0,0,0,2,.74,3.89,3.89,0,0,0,1.27-.21A3.19,3.19,0,0,0,78.3,60Z" transform="translate(-0.82 -3.24)"/>
        <path class="cls-1" d="M83.47,62.09a7.71,7.71,0,0,1-2.74-1.39l1-1.68a8.08,8.08,0,0,0,2.49,1.27,9.9,9.9,0,0,0,3.12.5,5.94,5.94,0,0,0,3.19-.67,2.16,2.16,0,0,0,1-1.91A1.72,1.72,0,0,0,91,56.84a3.93,3.93,0,0,0-1.44-.75,23.26,23.26,0,0,0-2.31-.49,26.62,26.62,0,0,1-3.09-.73,4.57,4.57,0,0,1-2-1.28,3.54,3.54,0,0,1-.82-2.49A3.9,3.9,0,0,1,83,47.86a7.41,7.41,0,0,1,4.59-1.26,12.36,12.36,0,0,1,3.06.4,8.68,8.68,0,0,1,2.52,1.07l-.93,1.71a8,8,0,0,0-4.65-1.35,5.41,5.41,0,0,0-3.08.72,2.2,2.2,0,0,0-1,1.89A1.86,1.86,0,0,0,84,52.48a3.63,3.63,0,0,0,1.46.8,23.7,23.7,0,0,0,2.4.52,27.61,27.61,0,0,1,3,.72,4.45,4.45,0,0,1,1.95,1.23,3.38,3.38,0,0,1,.81,2.4,3.81,3.81,0,0,1-1.73,3.28,8.11,8.11,0,0,1-4.78,1.22A12.15,12.15,0,0,1,83.47,62.09Z" transform="translate(-0.82 -3.24)"/>
        <path class="cls-1" d="M111.33,55.27H98.13a5.65,5.65,0,0,0,1.89,4,6.32,6.32,0,0,0,4.32,1.51,7,7,0,0,0,2.7-.52,5.91,5.91,0,0,0,2.13-1.55l1.2,1.38A6.77,6.77,0,0,1,107.74,62a9.47,9.47,0,0,1-7.77-.37,7.53,7.53,0,0,1-2.92-2.87,8.17,8.17,0,0,1-1-4.14,8.45,8.45,0,0,1,1-4.14,7.28,7.28,0,0,1,2.76-2.85,7.72,7.72,0,0,1,3.95-1,7.63,7.63,0,0,1,3.93,1,7.24,7.24,0,0,1,2.73,2.84,8.52,8.52,0,0,1,1,4.15ZM99.88,49.88a5.74,5.74,0,0,0-1.75,3.8h11.19a5.75,5.75,0,0,0-1.76-3.8,5.81,5.81,0,0,0-7.68,0Z" transform="translate(-0.82 -3.24)"/>
        <path class="cls-1" d="M120,47.41a7.62,7.62,0,0,1,3.68-.81v2.07l-.51,0a5,5,0,0,0-3.9,1.53,6.1,6.1,0,0,0-1.41,4.29v8h-2.13V46.72h2v3.09A5.15,5.15,0,0,1,120,47.41Z" transform="translate(-0.82 -3.24)"/>
        <path class="cls-1" d="M131.77,47.41a7.62,7.62,0,0,1,3.68-.81v2.07l-.51,0a5,5,0,0,0-3.9,1.53,6.1,6.1,0,0,0-1.41,4.29v8H127.5V46.72h2v3.09A5.15,5.15,0,0,1,131.77,47.41Z" transform="translate(-0.82 -3.24)"/>
        <path class="cls-1" d="M149.52,48.14a6,6,0,0,1,1.65,4.58V62.5h-2V60A4.9,4.9,0,0,1,147,62a7.38,7.38,0,0,1-3.31.69,6.49,6.49,0,0,1-4.2-1.26,4.34,4.34,0,0,1-.11-6.57A7.14,7.14,0,0,1,144,53.59h5v-1a4,4,0,0,0-1.14-3.1,4.71,4.71,0,0,0-3.33-1.07,8.23,8.23,0,0,0-2.88.5,7.25,7.25,0,0,0-2.37,1.36l-1-1.59a8.5,8.5,0,0,1,2.88-1.57,11.21,11.21,0,0,1,3.54-.56A6.72,6.72,0,0,1,149.52,48.14Zm-2.4,12A4.91,4.91,0,0,0,149,57.76V55.18h-4.95Q140,55.18,140,58a2.56,2.56,0,0,0,1.05,2.17A4.71,4.71,0,0,0,144,61,5.53,5.53,0,0,0,147.12,60.14Z" transform="translate(-0.82 -3.24)"/>
        <path class="cls-1" d="M165.27,61.54a4.21,4.21,0,0,1-1.49.83,6.26,6.26,0,0,1-1.84.28,4.18,4.18,0,0,1-4.62-4.59V48.52H154.5v-1.8h2.82V43.27h2.13v3.45h4.8v1.8h-4.8v9.42a3,3,0,0,0,.7,2.14,2.65,2.65,0,0,0,2,.74,3.89,3.89,0,0,0,1.27-.21,3.19,3.19,0,0,0,1.07-.6Z" transform="translate(-0.82 -3.24)"/>
        <path class="cls-1" d="M191.79,62.5,187,55.75a15.21,15.21,0,0,1-1.68.09h-5.64V62.5h-2.22v-21h7.86a9.49,9.49,0,0,1,6.3,1.92,6.53,6.53,0,0,1,2.28,5.28,6.52,6.52,0,0,1-4.8,6.6l5.13,7.2ZM190,52.57a4.77,4.77,0,0,0,1.65-3.87A4.78,4.78,0,0,0,190,44.79a7.31,7.31,0,0,0-4.77-1.37h-5.58V54h5.58A7.25,7.25,0,0,0,190,52.57Z" transform="translate(-0.82 -3.24)"/>
        <path class="cls-1" d="M212.43,55.27h-13.2a5.65,5.65,0,0,0,1.89,4,6.32,6.32,0,0,0,4.32,1.51,7,7,0,0,0,2.7-.52,5.91,5.91,0,0,0,2.13-1.55l1.2,1.38A6.77,6.77,0,0,1,208.84,62a9.47,9.47,0,0,1-7.77-.37,7.53,7.53,0,0,1-2.92-2.87,8.17,8.17,0,0,1-1.05-4.14,8.45,8.45,0,0,1,1-4.14,7.28,7.28,0,0,1,2.76-2.85,7.72,7.72,0,0,1,3.95-1,7.63,7.63,0,0,1,3.93,1,7.24,7.24,0,0,1,2.73,2.84,8.52,8.52,0,0,1,1,4.15ZM201,49.88a5.74,5.74,0,0,0-1.75,3.8h11.19a5.75,5.75,0,0,0-1.76-3.8,5.81,5.81,0,0,0-7.68,0Z" transform="translate(-0.82 -3.24)"/>
        <path class="cls-1" d="M231.42,46.72V60.58q0,4-2,6t-5.92,1.93a13.56,13.56,0,0,1-4.16-.64A8.67,8.67,0,0,1,216.18,66l1.08-1.62A8.08,8.08,0,0,0,220,66a10.39,10.39,0,0,0,3.44.57,6,6,0,0,0,4.41-1.4,5.86,5.86,0,0,0,1.41-4.33v-2a6.43,6.43,0,0,1-2.6,2.28,8,8,0,0,1-3.55.78,8.3,8.3,0,0,1-4-1,7.11,7.11,0,0,1-2.85-2.72,7.69,7.69,0,0,1-1-4,7.59,7.59,0,0,1,1-4,7.16,7.16,0,0,1,2.84-2.7,8.47,8.47,0,0,1,4-1,8,8,0,0,1,3.63.81,6.54,6.54,0,0,1,2.61,2.34v-3Zm-5,12.56a5.31,5.31,0,0,0,2.14-2.06,5.88,5.88,0,0,0,.77-3,5.78,5.78,0,0,0-.77-3,5.36,5.36,0,0,0-2.13-2,6.43,6.43,0,0,0-3.1-.74,6.51,6.51,0,0,0-3.08.72,5.23,5.23,0,0,0-2.13,2,6.3,6.3,0,0,0,0,6,5.35,5.35,0,0,0,2.13,2.06,6.4,6.4,0,0,0,3.08.73A6.47,6.47,0,0,0,226.44,59.28Z" transform="translate(-0.82 -3.24)"/>
        <path class="cls-1" d="M251.61,46.72V62.5h-2V59.62a5.85,5.85,0,0,1-2.31,2.24,7.06,7.06,0,0,1-3.36.79,6.11,6.11,0,0,1-6.66-6.78V46.72h2.13v8.94a5.28,5.28,0,0,0,1.23,3.78,4.62,4.62,0,0,0,3.51,1.29A5.13,5.13,0,0,0,248,59.21,5.84,5.84,0,0,0,249.48,55V46.72Z" transform="translate(-0.82 -3.24)"/>
        <path class="cls-1" d="M257.58,40.24h2.13V62.5h-2.13Z" transform="translate(-0.82 -3.24)"/>
        <path class="cls-1" d="M275.91,48.14a6,6,0,0,1,1.65,4.58V62.5h-2V60A4.9,4.9,0,0,1,273.4,62a7.38,7.38,0,0,1-3.31.69,6.49,6.49,0,0,1-4.2-1.26,4.34,4.34,0,0,1-.11-6.57,7.14,7.14,0,0,1,4.64-1.23h5v-1a4,4,0,0,0-1.14-3.1A4.71,4.71,0,0,0,271,48.46a8.23,8.23,0,0,0-2.88.5,7.25,7.25,0,0,0-2.37,1.36l-1-1.59a8.5,8.5,0,0,1,2.88-1.57,11.21,11.21,0,0,1,3.54-.56A6.72,6.72,0,0,1,275.91,48.14Zm-2.4,12a4.91,4.91,0,0,0,1.92-2.38V55.18h-4.95q-4.05,0-4.05,2.82a2.56,2.56,0,0,0,1.05,2.17,4.71,4.71,0,0,0,2.94.8A5.53,5.53,0,0,0,273.51,60.14Z" transform="translate(-0.82 -3.24)"/>
        <path class="cls-1" d="M287.62,47.41a7.62,7.62,0,0,1,3.68-.81v2.07l-.51,0a5,5,0,0,0-3.9,1.53,6.1,6.1,0,0,0-1.41,4.29v8h-2.13V46.72h2v3.09A5.15,5.15,0,0,1,287.62,47.41Z" transform="translate(-0.82 -3.24)"/>
        <path class="cls-1" d="M22.62,99.5l0-15.3L15,97H13.62L6,84.29V99.5H3.15v-21H5.61l8.76,14.76L23,78.5h2.46l0,21Z" transform="translate(-0.82 -3.24)"/>
        <path class="cls-1" d="M33.93,98.63a7.68,7.68,0,0,1-3-2.89,8.26,8.26,0,0,1-1.06-4.19A8.17,8.17,0,0,1,31,87.37a7.39,7.39,0,0,1,3-2.88,8.62,8.62,0,0,1,4.26-1,8.51,8.51,0,0,1,4.24,1,7.4,7.4,0,0,1,2.94,2.88,8.18,8.18,0,0,1,1.07,4.18,8.27,8.27,0,0,1-1.07,4.19,7.7,7.7,0,0,1-2.94,2.89,8.52,8.52,0,0,1-4.24,1.05A8.62,8.62,0,0,1,33.93,98.63Zm7-2.17a5,5,0,0,0,1.91-2,6,6,0,0,0,.69-2.92,6.1,6.1,0,0,0-.69-2.93,4.94,4.94,0,0,0-1.91-2,5.81,5.81,0,0,0-5.49,0,5,5,0,0,0-1.92,2,6,6,0,0,0-.7,2.93,5.92,5.92,0,0,0,.7,2.92,5,5,0,0,0,1.92,2,5.73,5.73,0,0,0,5.49,0Z" transform="translate(-0.82 -3.24)"/>
        <path class="cls-1" d="M63.73,85.21a6.89,6.89,0,0,1,1.79,5.14V99.5H62.64V90.68a4.88,4.88,0,0,0-1.11-3.48A4.17,4.17,0,0,0,58.35,86a5,5,0,0,0-3.69,1.36,5.36,5.36,0,0,0-1.35,3.92V99.5H50.43V83.6h2.76V86a5.58,5.58,0,0,1,2.35-1.89,8.25,8.25,0,0,1,3.38-.66A6.56,6.56,0,0,1,63.73,85.21Z" transform="translate(-0.82 -3.24)"/>
        <path class="cls-1" d="M79.8,98.57a4.14,4.14,0,0,1-1.56.82,6.52,6.52,0,0,1-1.92.29,5.1,5.1,0,0,1-3.72-1.29,4.93,4.93,0,0,1-1.32-3.69V86h-2.7V83.6h2.7V80.12h2.88V83.6h4.56V86H74.16v8.61a2.79,2.79,0,0,0,.64,2,2.41,2.41,0,0,0,1.85.69,3.47,3.47,0,0,0,2.25-.75Z" transform="translate(-0.82 -3.24)"/>
        <path class="cls-1" d="M84.09,99.16a8.23,8.23,0,0,1-2.82-1.34l1.2-2.28A8.61,8.61,0,0,0,85,96.74a10.49,10.49,0,0,0,3,.45q3.78,0,3.78-2.16a1.4,1.4,0,0,0-.51-1.14A3.25,3.25,0,0,0,90,93.28c-.51-.13-1.23-.28-2.17-.44a21.4,21.4,0,0,1-3.14-.69,4.82,4.82,0,0,1-2.08-1.32,3.67,3.67,0,0,1-.87-2.61,4.09,4.09,0,0,1,1.8-3.47,8.06,8.06,0,0,1,4.83-1.3,13.31,13.31,0,0,1,3.18.39,8.55,8.55,0,0,1,2.61,1L93,87.17a8.27,8.27,0,0,0-4.59-1.26,5.31,5.31,0,0,0-2.79.6,1.81,1.81,0,0,0-1,1.59,1.52,1.52,0,0,0,.54,1.23A3.39,3.39,0,0,0,86.5,90c.53.14,1.28.3,2.24.48a24.26,24.26,0,0,1,3.1.7,4.76,4.76,0,0,1,2,1.28A3.55,3.55,0,0,1,94.71,95a4,4,0,0,1-1.85,3.44,8.77,8.77,0,0,1-5,1.27A13.69,13.69,0,0,1,84.09,99.16Z" transform="translate(-0.82 -3.24)"/>
        <path class="cls-1" d="M112.62,92.51H99.72a5,5,0,0,0,1.84,3.37,6,6,0,0,0,3.92,1.28,5.9,5.9,0,0,0,4.59-1.92l1.59,1.86A7,7,0,0,1,109,99a10.09,10.09,0,0,1-8-.38,7.32,7.32,0,0,1-3-2.89,8.3,8.3,0,0,1-1.06-4.2,8.43,8.43,0,0,1,1-4.17,7.34,7.34,0,0,1,2.85-2.89,8,8,0,0,1,4.1-1,7.84,7.84,0,0,1,4.06,1,7.19,7.19,0,0,1,2.79,2.89,8.82,8.82,0,0,1,1,4.26A8.25,8.25,0,0,1,112.62,92.51Zm-11.27-5.37a5.07,5.07,0,0,0-1.63,3.3h10.2a5.08,5.08,0,0,0-1.64-3.28,4.89,4.89,0,0,0-3.46-1.28A5,5,0,0,0,101.35,87.14Z" transform="translate(-0.82 -3.24)"/>
        <path class="cls-1" d="M121.65,84.17a8.06,8.06,0,0,1,3.57-.72v2.79a5.62,5.62,0,0,0-.66,0,4.82,4.82,0,0,0-3.68,1.4,5.51,5.51,0,0,0-1.33,4V99.5h-2.88V83.6h2.76v2.67A4.91,4.91,0,0,1,121.65,84.17Z" transform="translate(-0.82 -3.24)"/>
        <path class="cls-1" d="M133.74,84.17a8.06,8.06,0,0,1,3.57-.72v2.79a5.62,5.62,0,0,0-.66,0,4.82,4.82,0,0,0-3.68,1.4,5.51,5.51,0,0,0-1.33,4V99.5h-2.88V83.6h2.76v2.67A4.91,4.91,0,0,1,133.74,84.17Z" transform="translate(-0.82 -3.24)"/>
        <path class="cls-1" d="M151.66,85.07a6.26,6.26,0,0,1,1.76,4.83v9.6h-2.73V97.4a4.49,4.49,0,0,1-2.06,1.69,7.65,7.65,0,0,1-3.16.59,6.64,6.64,0,0,1-4.28-1.29,4.13,4.13,0,0,1-1.6-3.39,4.2,4.2,0,0,1,1.53-3.38A7.6,7.6,0,0,1,146,90.35h4.56v-.57a3.67,3.67,0,0,0-1.08-2.85,4.56,4.56,0,0,0-3.18-1,8.17,8.17,0,0,0-2.76.47,6.92,6.92,0,0,0-2.28,1.24L140,85.49A8.9,8.9,0,0,1,143,84a12.3,12.3,0,0,1,3.63-.52A7.18,7.18,0,0,1,151.66,85.07ZM148.8,96.72a4.15,4.15,0,0,0,1.74-2.08V92.42H146.1q-3.66,0-3.66,2.46a2.23,2.23,0,0,0,.93,1.89,4.25,4.25,0,0,0,2.58.69A5.35,5.35,0,0,0,148.8,96.72Z" transform="translate(-0.82 -3.24)"/>
        <path class="cls-1" d="M167.7,98.57a4.14,4.14,0,0,1-1.56.82,6.52,6.52,0,0,1-1.92.29,5.1,5.1,0,0,1-3.72-1.29,4.93,4.93,0,0,1-1.32-3.69V86h-2.7V83.6h2.7V80.12h2.88V83.6h4.56V86h-4.56v8.61a2.79,2.79,0,0,0,.64,2,2.41,2.41,0,0,0,1.85.69,3.47,3.47,0,0,0,2.25-.75Z" transform="translate(-0.82 -3.24)"/>
        <path class="cls-1" d="M199.14,99.5l0-15.3L191.52,97h-1.38l-7.59-12.66V99.5h-2.88v-21h2.46l8.76,14.76,8.64-14.76H202l0,21Z" transform="translate(-0.82 -3.24)"/>
        <path class="cls-1" d="M222.21,92.51h-12.9a5,5,0,0,0,1.84,3.37,6,6,0,0,0,3.92,1.28,5.9,5.9,0,0,0,4.59-1.92l1.59,1.86A7,7,0,0,1,218.56,99a10.09,10.09,0,0,1-8.05-.38,7.32,7.32,0,0,1-3-2.89,8.3,8.3,0,0,1-1.06-4.2,8.43,8.43,0,0,1,1-4.17,7.34,7.34,0,0,1,2.85-2.89,8,8,0,0,1,4.1-1,7.84,7.84,0,0,1,4.06,1,7.19,7.19,0,0,1,2.79,2.89,8.82,8.82,0,0,1,1,4.26A8.25,8.25,0,0,1,222.21,92.51Zm-11.27-5.37a5.07,5.07,0,0,0-1.63,3.3h10.2a5.08,5.08,0,0,0-1.64-3.28,4.89,4.89,0,0,0-3.46-1.28A5,5,0,0,0,210.94,87.14Z" transform="translate(-0.82 -3.24)"/>
        <path class="cls-1" d="M241.26,77.24V99.5H238.5V97a6.24,6.24,0,0,1-2.43,2,7.53,7.53,0,0,1-3.24.69,8.36,8.36,0,0,1-4.14-1,7.27,7.27,0,0,1-2.87-2.87,9.22,9.22,0,0,1,0-8.47,7.35,7.35,0,0,1,2.87-2.85,8.36,8.36,0,0,1,4.14-1,7.78,7.78,0,0,1,3.15.64,6.22,6.22,0,0,1,2.4,1.91V77.24ZM235.8,96.46a4.91,4.91,0,0,0,1.92-2,6,6,0,0,0,.69-2.92,6.1,6.1,0,0,0-.69-2.93,4.9,4.9,0,0,0-1.92-2,5.79,5.79,0,0,0-5.48,0,5,5,0,0,0-1.92,2,6,6,0,0,0-.7,2.93,5.92,5.92,0,0,0,.7,2.92,5,5,0,0,0,1.92,2,5.71,5.71,0,0,0,5.48,0Z" transform="translate(-0.82 -3.24)"/>
        <path class="cls-1" d="M246.76,80a1.77,1.77,0,0,1-.55-1.32,1.83,1.83,0,0,1,.55-1.34,1.94,1.94,0,0,1,1.4-.55,1.9,1.9,0,0,1,1.39.53,1.72,1.72,0,0,1,.56,1.3,1.9,1.9,0,0,1-2,1.92A1.93,1.93,0,0,1,246.76,80Zm0,3.6h2.88V99.5h-2.88Z" transform="translate(-0.82 -3.24)"/>
        <path class="cls-1" d="M269.91,83.6V99.5h-2.73V97.1a5.79,5.79,0,0,1-2.3,1.9,7.78,7.78,0,0,1-8.11-1.08,6.83,6.83,0,0,1-1.83-5.17V83.6h2.88v8.82a5,5,0,0,0,1.11,3.5,4.14,4.14,0,0,0,3.18,1.18,4.75,4.75,0,0,0,3.6-1.38,5.42,5.42,0,0,0,1.32-3.9V83.6Z" transform="translate(-0.82 -3.24)"/>
        <path class="cls-1" d="M300,85.19a7,7,0,0,1,1.76,5.16V99.5h-2.88V90.68a5,5,0,0,0-1.07-3.48,3.9,3.9,0,0,0-3-1.17,4.59,4.59,0,0,0-3.48,1.36A5.51,5.51,0,0,0,290,91.31V99.5h-2.88V90.68a5,5,0,0,0-1.07-3.48,3.9,3.9,0,0,0-3-1.17,4.59,4.59,0,0,0-3.48,1.36,5.51,5.51,0,0,0-1.29,3.92V99.5H275.4V83.6h2.76V86a5.67,5.67,0,0,1,2.28-1.88,7.79,7.79,0,0,1,3.21-.64,7,7,0,0,1,3.3.75,5.21,5.21,0,0,1,2.22,2.19,6.08,6.08,0,0,1,2.5-2.16,8.19,8.19,0,0,1,3.62-.78A6.44,6.44,0,0,1,300,85.19Z" transform="translate(-0.82 -3.24)"/>
        <path class="cls-1" d="M21.6,136.5l0-12.6-6.18,10.38H13.2L7.05,124.17V136.5H2.49v-21h4l7.86,13.05,7.74-13.05h4l.06,21Z" transform="translate(-0.82 -3.24)"/>
        <path class="cls-1" d="M33.91,135.67a7.89,7.89,0,0,1-3.16-2.95,8.64,8.64,0,0,1,0-8.58,8,8,0,0,1,3.16-3,9.82,9.82,0,0,1,4.58-1.06,9.71,9.71,0,0,1,4.56,1.06,8,8,0,0,1,3.15,3,8.64,8.64,0,0,1,0,8.58,7.93,7.93,0,0,1-3.15,2.95,9.59,9.59,0,0,1-4.56,1.07A9.7,9.7,0,0,1,33.91,135.67Zm7.53-4a4.5,4.5,0,0,0,1.16-3.25,4.56,4.56,0,0,0-1.16-3.26A3.92,3.92,0,0,0,38.49,124a4,4,0,0,0-3,1.21,4.52,4.52,0,0,0-1.17,3.26,4.47,4.47,0,0,0,1.17,3.25,3.91,3.91,0,0,0,3,1.22A3.86,3.86,0,0,0,41.44,131.68Z" transform="translate(-0.82 -3.24)"/>
        <path class="cls-1" d="M65.11,121.92A7.14,7.14,0,0,1,67,127.26v9.24H62.28V128a4.19,4.19,0,0,0-.84-2.86,3.08,3.08,0,0,0-2.43-1,3.76,3.76,0,0,0-2.82,1.09,4.56,4.56,0,0,0-1,3.26v8H50.46V120.36h4.47v1.89a6.22,6.22,0,0,1,2.31-1.58,8,8,0,0,1,3-.55A6.63,6.63,0,0,1,65.11,121.92Z" transform="translate(-0.82 -3.24)"/>
        <path class="cls-1" d="M81.6,135.72a4.84,4.84,0,0,1-1.7.77,9,9,0,0,1-2.11.25,6.3,6.3,0,0,1-4.46-1.47A5.62,5.62,0,0,1,71.76,131v-6.63H69.27v-3.6h2.49v-3.93h4.68v3.93h4v3.6h-4v6.57a2.19,2.19,0,0,0,.52,1.57,2,2,0,0,0,1.49.56,3,3,0,0,0,1.89-.6Z" transform="translate(-0.82 -3.24)"/>
        <path class="cls-1" d="M85.74,136.25A10.26,10.26,0,0,1,82.68,135l1.56-3.36a9.5,9.5,0,0,0,2.61,1.12,11,11,0,0,0,3,.44q3,0,3-1.47a1,1,0,0,0-.81-1,12,12,0,0,0-2.49-.51,24,24,0,0,1-3.27-.69A5.09,5.09,0,0,1,84,128.16a3.92,3.92,0,0,1-.94-2.82,4.45,4.45,0,0,1,.88-2.72,5.69,5.69,0,0,1,2.58-1.84,11,11,0,0,1,4-.66,15.68,15.68,0,0,1,3.4.38,9.56,9.56,0,0,1,2.81,1l-1.56,3.33a9.31,9.31,0,0,0-4.65-1.2,4.73,4.73,0,0,0-2.25.42,1.23,1.23,0,0,0-.75,1.08,1.07,1.07,0,0,0,.81,1,14.34,14.34,0,0,0,2.58.57,27.49,27.49,0,0,1,3.24.71,4.86,4.86,0,0,1,2.19,1.36,3.87,3.87,0,0,1,.93,2.76,4.26,4.26,0,0,1-.9,2.67,5.68,5.68,0,0,1-2.63,1.81,11.66,11.66,0,0,1-4.09.65A15.67,15.67,0,0,1,85.74,136.25Z" transform="translate(-0.82 -3.24)"/>
        <path class="cls-1" d="M115.89,129.75H103.68a3.8,3.8,0,0,0,1.56,2.37,5.17,5.17,0,0,0,3.06.87,6.17,6.17,0,0,0,2.23-.37,5.45,5.45,0,0,0,1.82-1.19l2.49,2.7q-2.28,2.61-6.66,2.61a10.54,10.54,0,0,1-4.83-1.07,7.8,7.8,0,0,1-3.24-2.95A8.14,8.14,0,0,1,99,128.43a8.23,8.23,0,0,1,1.12-4.27,7.91,7.91,0,0,1,3.09-3,9.2,9.2,0,0,1,4.4-1.06,9,9,0,0,1,4.29,1,7.38,7.38,0,0,1,3,2.93,8.68,8.68,0,0,1,1.1,4.42Q116,128.58,115.89,129.75Zm-11-5.19a3.83,3.83,0,0,0-1.32,2.46h7.95a3.86,3.86,0,0,0-1.32-2.44,3.9,3.9,0,0,0-2.64-.92A4,4,0,0,0,104.94,124.56Z" transform="translate(-0.82 -3.24)"/>
        <path class="cls-1" d="M125.83,120.72a8.43,8.43,0,0,1,3.29-.6v4.32q-.78-.06-1.05-.06a4.29,4.29,0,0,0-3.15,1.12,4.56,4.56,0,0,0-1.14,3.38v7.62H119.1V120.36h4.47v2.13A5.19,5.19,0,0,1,125.83,120.72Z" transform="translate(-0.82 -3.24)"/>
        <path class="cls-1" d="M138.64,120.72a8.43,8.43,0,0,1,3.29-.6v4.32q-.78-.06-1.05-.06a4.29,4.29,0,0,0-3.15,1.12,4.56,4.56,0,0,0-1.14,3.38v7.62h-4.68V120.36h4.47v2.13A5.19,5.19,0,0,1,138.64,120.72Z" transform="translate(-0.82 -3.24)"/>
        <path class="cls-1" d="M156.9,121.91a6.81,6.81,0,0,1,2,5.38v9.21h-4.38v-2q-1.32,2.25-4.92,2.25a7.66,7.66,0,0,1-3.23-.63,4.79,4.79,0,0,1-2.08-1.74,4.53,4.53,0,0,1-.72-2.52,4.2,4.2,0,0,1,1.69-3.54,8.65,8.65,0,0,1,5.24-1.29h3.72a3,3,0,0,0-.93-2.35,4.1,4.1,0,0,0-2.79-.83,7.9,7.9,0,0,0-2.54.41,6.47,6.47,0,0,0-2.11,1.09l-1.68-3.27a10.11,10.11,0,0,1,3.16-1.44,14.21,14.21,0,0,1,3.8-.51A8.35,8.35,0,0,1,156.9,121.91Zm-4,11.13a3,3,0,0,0,1.32-1.64v-1.65H151q-2.88,0-2.88,1.89a1.7,1.7,0,0,0,.7,1.43,3.19,3.19,0,0,0,1.94.52A4.07,4.07,0,0,0,152.91,133Z" transform="translate(-0.82 -3.24)"/>
        <path class="cls-1" d="M173.55,135.72a4.84,4.84,0,0,1-1.7.77,9,9,0,0,1-2.11.25,6.3,6.3,0,0,1-4.46-1.47,5.62,5.62,0,0,1-1.57-4.32v-6.63h-2.49v-3.6h2.49v-3.93h4.68v3.93h4v3.6h-4v6.57a2.19,2.19,0,0,0,.52,1.57,2,2,0,0,0,1.49.56,3,3,0,0,0,1.89-.6Z" transform="translate(-0.82 -3.24)"/>
        <path class="cls-1" d="M203.25,127.49a5.24,5.24,0,0,1,1,3.28,4.84,4.84,0,0,1-2.15,4.24,11,11,0,0,1-6.25,1.49H185v-21h10.26a10,10,0,0,1,5.89,1.47,4.66,4.66,0,0,1,2.06,4,5.07,5.07,0,0,1-2.79,4.62A5.55,5.55,0,0,1,203.25,127.49Zm-13.41-8.33v5h4.83a4.88,4.88,0,0,0,2.73-.63,2.1,2.1,0,0,0,.93-1.86,2.06,2.06,0,0,0-.93-1.84,5,5,0,0,0-2.73-.62Zm8.56,13.05a2.16,2.16,0,0,0,1-2q0-2.61-3.87-2.61h-5.67v5.19h5.67A5.37,5.37,0,0,0,198.4,132.21Z" transform="translate(-0.82 -3.24)"/>
        <path class="cls-1" d="M210.73,135.67a7.89,7.89,0,0,1-3.16-2.95,8.64,8.64,0,0,1,0-8.58,8,8,0,0,1,3.16-3,9.82,9.82,0,0,1,4.58-1.06,9.71,9.71,0,0,1,4.56,1.06,8,8,0,0,1,3.15,3,8.64,8.64,0,0,1,0,8.58,7.93,7.93,0,0,1-3.15,2.95,9.59,9.59,0,0,1-4.56,1.07A9.7,9.7,0,0,1,210.73,135.67Zm7.53-4a4.5,4.5,0,0,0,1.16-3.25,4.56,4.56,0,0,0-1.16-3.26,3.92,3.92,0,0,0-2.95-1.21,4,4,0,0,0-3,1.21,4.52,4.52,0,0,0-1.17,3.26,4.47,4.47,0,0,0,1.17,3.25,3.91,3.91,0,0,0,3,1.22A3.86,3.86,0,0,0,218.26,131.68Z" transform="translate(-0.82 -3.24)"/>
        <path class="cls-1" d="M227.28,114.24H232V136.5h-4.68Z" transform="translate(-0.82 -3.24)"/>
        <path class="cls-1" d="M252.75,114.24V136.5h-4.47v-1.86a6.17,6.17,0,0,1-5,2.1,8.4,8.4,0,0,1-4.13-1,7.29,7.29,0,0,1-2.89-2.91,9.66,9.66,0,0,1,0-8.76,7.29,7.29,0,0,1,2.89-2.91,8.4,8.4,0,0,1,4.13-1,6.14,6.14,0,0,1,4.83,1.95v-7.83ZM247,131.68a4.47,4.47,0,0,0,1.17-3.25,4.52,4.52,0,0,0-1.17-3.26,4.21,4.21,0,0,0-5.91,0,4.52,4.52,0,0,0-1.17,3.26,4.47,4.47,0,0,0,1.17,3.25,4.19,4.19,0,0,0,5.91,0Z" transform="translate(-0.82 -3.24)"/>
        <path class="cls-1" d="M17.4,193.7v16.8H13.51v-6.89H5.88v6.89H2V193.7H5.88v6.62h7.63V193.7Z" transform="translate(-0.82 -3.24)"/>
        <path class="cls-1" d="M33.7,205.1H23.93a3,3,0,0,0,1.25,1.9,4.13,4.13,0,0,0,2.44.69,4.94,4.94,0,0,0,1.79-.3,4.14,4.14,0,0,0,1.45-.95l2,2.16a6.69,6.69,0,0,1-5.33,2.09,8.42,8.42,0,0,1-3.87-.85,6.31,6.31,0,0,1-2.59-2.36,6.53,6.53,0,0,1-.91-3.44,6.62,6.62,0,0,1,.9-3.42,6.33,6.33,0,0,1,2.47-2.37,7.69,7.69,0,0,1,7,0,6,6,0,0,1,2.41,2.34,6.94,6.94,0,0,1,.88,3.54S33.74,204.48,33.7,205.1ZM24.94,201a3,3,0,0,0-1.06,2h6.36a3.1,3.1,0,0,0-1.06-2,3.13,3.13,0,0,0-2.11-.73A3.19,3.19,0,0,0,24.94,201Z" transform="translate(-0.82 -3.24)"/>
        <path class="cls-1" d="M45.72,198.82a5.49,5.49,0,0,1,1.61,4.31v7.37H43.82v-1.61q-1.05,1.8-3.93,1.8a6.22,6.22,0,0,1-2.58-.5,3.86,3.86,0,0,1-1.67-1.39,3.7,3.7,0,0,1-.58-2A3.38,3.38,0,0,1,36.42,204a6.89,6.89,0,0,1,4.19-1h3a2.38,2.38,0,0,0-.74-1.89,3.28,3.28,0,0,0-2.23-.66,6.39,6.39,0,0,0-2,.33,5.19,5.19,0,0,0-1.69.87L35.54,199a8.26,8.26,0,0,1,2.54-1.16,11.35,11.35,0,0,1,3-.4A6.73,6.73,0,0,1,45.72,198.82Zm-3.19,8.91a2.42,2.42,0,0,0,1-1.31V205.1H41c-1.54,0-2.31.5-2.31,1.51a1.34,1.34,0,0,0,.57,1.14,2.51,2.51,0,0,0,1.54.42A3.35,3.35,0,0,0,42.53,207.73Z" transform="translate(-0.82 -3.24)"/>
        <path class="cls-1" d="M64,192.69V210.5H60.43V209a4.94,4.94,0,0,1-4,1.68,6.72,6.72,0,0,1-3.3-.81,5.91,5.91,0,0,1-2.32-2.33,7.73,7.73,0,0,1,0-7,5.91,5.91,0,0,1,2.32-2.33,6.72,6.72,0,0,1,3.3-.81A4.89,4.89,0,0,1,60.26,199v-6.27Zm-4.61,14a4.08,4.08,0,0,0,0-5.21,3.12,3.12,0,0,0-2.35-1,3.17,3.17,0,0,0-2.38,1,4.11,4.11,0,0,0,0,5.21,3.17,3.17,0,0,0,2.38,1A3.12,3.12,0,0,0,59.4,206.65Z" transform="translate(-0.82 -3.24)"/>
        <path class="cls-1" d="M67.66,195.19a2,2,0,0,1,0-3,2.37,2.37,0,0,1,1.68-.6,2.44,2.44,0,0,1,1.68.58,1.83,1.83,0,0,1,.64,1.44,2.05,2.05,0,0,1-.64,1.55,2.41,2.41,0,0,1-1.68.61A2.37,2.37,0,0,1,67.66,195.19Zm-.2,2.4h3.75V210.5H67.46Z" transform="translate(-0.82 -3.24)"/>
        <path class="cls-1" d="M86.41,198.84a5.68,5.68,0,0,1,1.48,4.27v7.39H84.14v-6.82a3.37,3.37,0,0,0-.67-2.29,2.47,2.47,0,0,0-1.94-.75,3,3,0,0,0-2.26.87,3.64,3.64,0,0,0-.84,2.61v6.38H74.69V197.59h3.57v1.51a5.15,5.15,0,0,1,1.85-1.26,6.37,6.37,0,0,1,2.43-.44A5.31,5.31,0,0,1,86.41,198.84Z" transform="translate(-0.82 -3.24)"/>
        <path class="cls-1" d="M104.73,197.59v10.75q0,3.56-1.84,5.28a7.67,7.67,0,0,1-5.4,1.73,13.31,13.31,0,0,1-3.56-.46,7.65,7.65,0,0,1-2.78-1.32l1.49-2.69A6,6,0,0,0,94.7,212a8.06,8.06,0,0,0,2.5.4,4,4,0,0,0,2.87-.88,3.51,3.51,0,0,0,.92-2.65v-.55a5.26,5.26,0,0,1-4.08,1.61,6.84,6.84,0,0,1-3.25-.78,5.9,5.9,0,0,1-2.34-2.2,6.56,6.56,0,0,1,0-6.53,5.88,5.88,0,0,1,2.34-2.19,6.84,6.84,0,0,1,3.25-.78,5.12,5.12,0,0,1,4.27,1.84v-1.65Zm-4.64,8.34a3.25,3.25,0,0,0,0-4.59,3.86,3.86,0,0,0-4.88,0,3.22,3.22,0,0,0,0,4.59,3.86,3.86,0,0,0,4.88,0Z" transform="translate(-0.82 -3.24)"/>
        <path class="cls-1" d="M114.53,202.24h6.79v3h-6.79Z" transform="translate(-0.82 -3.24)"/>
        <path class="cls-1" d="M142.82,207.33v3.17H130.13V208l6.48-6.12a7.17,7.17,0,0,0,1.39-1.69,3.08,3.08,0,0,0,.36-1.41,1.84,1.84,0,0,0-.69-1.54,3.16,3.16,0,0,0-2-.54,4.57,4.57,0,0,0-2,.42,3.83,3.83,0,0,0-1.49,1.26l-2.83-1.83a6.64,6.64,0,0,1,2.71-2.29,9.07,9.07,0,0,1,4-.83,8.31,8.31,0,0,1,3.28.61,5.12,5.12,0,0,1,2.18,1.73,4.49,4.49,0,0,1,.78,2.63,5.79,5.79,0,0,1-.58,2.57,9.63,9.63,0,0,1-2.23,2.73l-3.86,3.65Z" transform="translate(-0.82 -3.24)"/>
        <path class="cls-1" d="M159.57,207h-2.73v3.53h-3.79V207H144v-2.61l7.92-10.66H156l-7.35,10.1h4.52v-3.14h3.67v3.14h2.73Z" transform="translate(-0.82 -3.24)"/>
        <path class="cls-1" d="M179.22,198.22a6,6,0,0,1,2.31,2.33,7.69,7.69,0,0,1,0,7,5.92,5.92,0,0,1-2.31,2.32,6.53,6.53,0,0,1-3.28.83,5,5,0,0,1-3.89-1.56v6h-3.74V197.59h3.58v1.49a5,5,0,0,1,4.05-1.68A6.63,6.63,0,0,1,179.22,198.22Zm-1.56,8.43a4.15,4.15,0,0,0,0-5.21,3.37,3.37,0,0,0-4.73,0,4.15,4.15,0,0,0,0,5.21,3.37,3.37,0,0,0,4.73,0Z" transform="translate(-0.82 -3.24)"/>
        <path class="cls-1" d="M192.67,210.5l-2.83-4-2.93,4h-4.08l5-6.5-4.8-6.41h4.2l2.73,3.77,2.81-3.77h4l-4.8,6.31,5,6.6Z" transform="translate(-0.82 -3.24)"/>
        <path class="cls-1" d="M3.13,247.17A6.31,6.31,0,0,1,.82,245.9l.74-1.56a6.13,6.13,0,0,0,2.05,1.17,7.52,7.52,0,0,0,2.57.45,4.65,4.65,0,0,0,2.6-.59,1.83,1.83,0,0,0,.86-1.57,1.56,1.56,0,0,0-.47-1.17A3.12,3.12,0,0,0,8,241.94q-.69-.24-1.95-.54a20.44,20.44,0,0,1-2.55-.76,4.13,4.13,0,0,1-1.66-1.17,3.14,3.14,0,0,1-.69-2.13,3.62,3.62,0,0,1,.59-2,4,4,0,0,1,1.79-1.44,7.25,7.25,0,0,1,3-.54,9.56,9.56,0,0,1,2.44.32,6.39,6.39,0,0,1,2.06.92l-.66,1.6a7.24,7.24,0,0,0-1.88-.85,7.16,7.16,0,0,0-2-.29,4.36,4.36,0,0,0-2.55.62,1.89,1.89,0,0,0-.85,1.6,1.53,1.53,0,0,0,.48,1.17,3.41,3.41,0,0,0,1.19.7,18.59,18.59,0,0,0,1.93.53,19.71,19.71,0,0,1,2.54.76,4.24,4.24,0,0,1,1.65,1.16,3.06,3.06,0,0,1,.69,2.1,3.59,3.59,0,0,1-.6,2,4,4,0,0,1-1.82,1.44,7.56,7.56,0,0,1-3,.53A9.5,9.5,0,0,1,3.13,247.17Z" transform="translate(-0.82 -3.24)"/>
        <path class="cls-1" d="M24.12,236.9v10.6H22.3v-1.6a3.88,3.88,0,0,1-1.53,1.27,4.75,4.75,0,0,1-2.07.45,4.63,4.63,0,0,1-3.34-1.17A4.58,4.58,0,0,1,14.14,243v-6.1h1.92v5.88a3.31,3.31,0,0,0,.74,2.33,2.75,2.75,0,0,0,2.12.79,3.19,3.19,0,0,0,2.4-.92,3.59,3.59,0,0,0,.88-2.6V236.9Z" transform="translate(-0.82 -3.24)"/>
        <path class="cls-1" d="M36.16,237.48a4.91,4.91,0,0,1,1.91,1.9,5.61,5.61,0,0,1,.69,2.82,5.68,5.68,0,0,1-.69,2.83,4.87,4.87,0,0,1-1.91,1.91,5.59,5.59,0,0,1-2.76.68,5,5,0,0,1-2.16-.46,4.21,4.21,0,0,1-1.62-1.34v1.68H27.78V232.66H29.7v5.84a4.13,4.13,0,0,1,1.6-1.27,5,5,0,0,1,2.1-.43A5.59,5.59,0,0,1,36.16,237.48Zm-1.09,8a3.32,3.32,0,0,0,1.28-1.32,4.28,4.28,0,0,0,0-3.9,3.29,3.29,0,0,0-1.28-1.31,3.85,3.85,0,0,0-3.65,0,3.23,3.23,0,0,0-1.28,1.31,4.36,4.36,0,0,0,0,3.9,3.26,3.26,0,0,0,1.28,1.32,3.78,3.78,0,0,0,3.65,0Z" transform="translate(-0.82 -3.24)"/>
        <path class="cls-1" d="M59.12,233.5v14h-2v-6.24h-8v6.24h-2v-14h2v6h8v-6Z" transform="translate(-0.82 -3.24)"/>
        <path class="cls-1" d="M72.58,242.84H64a3.34,3.34,0,0,0,1.23,2.25,4,4,0,0,0,2.61.85,3.93,3.93,0,0,0,3.06-1.28l1.06,1.24a4.63,4.63,0,0,1-1.79,1.28,6.75,6.75,0,0,1-5.37-.25,4.86,4.86,0,0,1-2-1.93,5.91,5.91,0,0,1,0-5.58,4.9,4.9,0,0,1,1.9-1.93,5.43,5.43,0,0,1,2.73-.69,5.3,5.3,0,0,1,2.71.69A4.87,4.87,0,0,1,72,239.42a5.84,5.84,0,0,1,.67,2.84A4.68,4.68,0,0,1,72.58,242.84Zm-7.51-3.58a3.39,3.39,0,0,0-1.09,2.2h6.8a3.44,3.44,0,0,0-1.09-2.19,3.28,3.28,0,0,0-2.31-.85A3.32,3.32,0,0,0,65.07,239.26Z" transform="translate(-0.82 -3.24)"/>
        <path class="cls-1" d="M82.21,237.88a4.17,4.17,0,0,1,1.17,3.22v6.4H81.56v-1.4a3.07,3.07,0,0,1-1.37,1.13,5.23,5.23,0,0,1-2.11.39,4.42,4.42,0,0,1-2.85-.86,3,3,0,0,1,0-4.51,5,5,0,0,1,3.24-.85h3V241a2.44,2.44,0,0,0-.72-1.9,3,3,0,0,0-2.12-.66,5.51,5.51,0,0,0-1.84.31,4.7,4.7,0,0,0-1.52.83l-.8-1.44a5.78,5.78,0,0,1,2-1,8.33,8.33,0,0,1,2.42-.35A4.79,4.79,0,0,1,82.21,237.88Zm-1.91,7.77a2.84,2.84,0,0,0,1.16-1.39v-1.48h-3c-1.63,0-2.44.55-2.44,1.64a1.5,1.5,0,0,0,.62,1.26,2.81,2.81,0,0,0,1.72.46A3.54,3.54,0,0,0,80.3,245.65Z" transform="translate(-0.82 -3.24)"/>
        <path class="cls-1" d="M97,232.66V247.5H95.16v-1.68a4.21,4.21,0,0,1-1.62,1.34,5,5,0,0,1-2.16.46,5.59,5.59,0,0,1-2.76-.68A4.87,4.87,0,0,1,86.71,245,5.68,5.68,0,0,1,86,242.2a5.61,5.61,0,0,1,.69-2.82,4.91,4.91,0,0,1,1.91-1.9,5.59,5.59,0,0,1,2.76-.68,5,5,0,0,1,2.1.43,4.13,4.13,0,0,1,1.6,1.27v-5.84Zm-3.64,12.81a3.26,3.26,0,0,0,1.28-1.32,4.36,4.36,0,0,0,0-3.9,3.23,3.23,0,0,0-1.28-1.31,3.85,3.85,0,0,0-3.65,0,3.29,3.29,0,0,0-1.28,1.31,4.28,4.28,0,0,0,0,3.9,3.32,3.32,0,0,0,1.28,1.32,3.78,3.78,0,0,0,3.65,0Z" transform="translate(-0.82 -3.24)"/>
        <path class="cls-1" d="M100.67,234.5a1.16,1.16,0,0,1-.37-.88,1.2,1.2,0,0,1,.37-.89,1.26,1.26,0,0,1,.93-.37,1.33,1.33,0,0,1,.93.35,1.16,1.16,0,0,1,.37.87,1.26,1.26,0,0,1-1.3,1.28A1.29,1.29,0,0,1,100.67,234.5Zm0,2.4h1.92v10.6h-1.92Z" transform="translate(-0.82 -3.24)"/>
        <path class="cls-1" d="M115.09,238a4.61,4.61,0,0,1,1.19,3.43v6.1h-1.92v-5.88a3.26,3.26,0,0,0-.74-2.32,2.79,2.79,0,0,0-2.12-.78,3.29,3.29,0,0,0-2.46.91,3.57,3.57,0,0,0-.9,2.61v5.46h-1.92V236.9h1.84v1.6a3.64,3.64,0,0,1,1.57-1.26,5.54,5.54,0,0,1,2.25-.44A4.38,4.38,0,0,1,115.09,238Z" transform="translate(-0.82 -3.24)"/>
        <path class="cls-1" d="M130,236.9v9.16a5.49,5.49,0,0,1-1.38,4.11,5.7,5.7,0,0,1-4.12,1.33,9.94,9.94,0,0,1-2.86-.41,5.55,5.55,0,0,1-2.2-1.17l.92-1.48a5.36,5.36,0,0,0,1.83,1,6.89,6.89,0,0,0,2.25.37,3.75,3.75,0,0,0,2.75-.88,3.64,3.64,0,0,0,.89-2.68v-.84a4.16,4.16,0,0,1-1.67,1.23,5.64,5.64,0,0,1-2.15.41,5.84,5.84,0,0,1-2.75-.65,4.77,4.77,0,0,1-1.93-1.82,5.44,5.44,0,0,1,0-5.34,4.75,4.75,0,0,1,1.93-1.81,5.84,5.84,0,0,1,2.75-.64,5.69,5.69,0,0,1,2.23.44,4.12,4.12,0,0,1,1.69,1.3V236.9Zm-3.65,8a3.21,3.21,0,0,0,1.3-1.23,3.47,3.47,0,0,0,.47-1.79,3.23,3.23,0,0,0-1-2.49,4.12,4.12,0,0,0-5.26,0,3.23,3.23,0,0,0-1,2.49,3.47,3.47,0,0,0,.47,1.79,3.21,3.21,0,0,0,1.3,1.23,4.24,4.24,0,0,0,3.76,0Z" transform="translate(-0.82 -3.24)"/>
        <path class="cls-1" d="M138.4,241.18h5.38v1.66H138.4Z" transform="translate(-0.82 -3.24)"/>
        <path class="cls-1" d="M161.1,245.76v1.74H151v-1.36l5.7-5.5a6.88,6.88,0,0,0,1.4-1.73,3.32,3.32,0,0,0,.36-1.47,2.08,2.08,0,0,0-.77-1.71,3.48,3.48,0,0,0-2.21-.61,4.39,4.39,0,0,0-3.58,1.52l-1.36-1.18a5.33,5.33,0,0,1,2.15-1.56,7.6,7.6,0,0,1,3-.56,5.41,5.41,0,0,1,3.5,1,3.49,3.49,0,0,1,1.3,2.85,4.84,4.84,0,0,1-.48,2.12,8.44,8.44,0,0,1-1.82,2.28l-4.28,4.12Z" transform="translate(-0.82 -3.24)"/>
        <path class="cls-1" d="M165.45,246.81a5.7,5.7,0,0,1-2-2.47,10.33,10.33,0,0,1,0-7.68,5.7,5.7,0,0,1,2-2.47,5.51,5.51,0,0,1,5.88,0,5.77,5.77,0,0,1,2,2.47,10.33,10.33,0,0,1,0,7.68,5.77,5.77,0,0,1-2,2.47,5.51,5.51,0,0,1-5.88,0Zm5.64-2.31a8.43,8.43,0,0,0,0-8,3.33,3.33,0,0,0-5.4,0,8.43,8.43,0,0,0,0,8,3.33,3.33,0,0,0,5.4,0Z" transform="translate(-0.82 -3.24)"/>
        <path class="cls-1" d="M190.64,237.48a4.91,4.91,0,0,1,1.91,1.9,5.61,5.61,0,0,1,.69,2.82,5.68,5.68,0,0,1-.69,2.83,4.87,4.87,0,0,1-1.91,1.91,5.64,5.64,0,0,1-2.76.68,5,5,0,0,1-2.09-.44,4.26,4.26,0,0,1-1.61-1.28v5.48h-1.92V236.9h1.84v1.68a4,4,0,0,1,1.62-1.33,5.09,5.09,0,0,1,2.16-.45A5.64,5.64,0,0,1,190.64,237.48Zm-1.09,8a3.39,3.39,0,0,0,1.28-1.32,4.28,4.28,0,0,0,0-3.9,3.36,3.36,0,0,0-1.28-1.31,3.61,3.61,0,0,0-1.83-.46,3.56,3.56,0,0,0-1.81.47,3.36,3.36,0,0,0-1.28,1.31,3.85,3.85,0,0,0-.47,1.94,4,4,0,0,0,.46,2,3.19,3.19,0,0,0,1.28,1.32,3.78,3.78,0,0,0,3.65,0Z" transform="translate(-0.82 -3.24)"/>
        <path class="cls-1" d="M202.3,247.5l-3.06-4.06-3.1,4.06H194l4.18-5.42-4-5.18h2.14l2.92,3.82,2.9-3.82h2.1l-4,5.18,4.22,5.42Z" transform="translate(-0.82 -3.24)"/>
        <path class="cls-1" d="M10.58,279.68a2.73,2.73,0,0,1,.6,1.83,2.55,2.55,0,0,1-1.06,2.21A5.29,5.29,0,0,1,7,284.5H1.82V273.3H6.66a4.88,4.88,0,0,1,2.9.75,2.47,2.47,0,0,1,1,2.13,2.72,2.72,0,0,1-.45,1.58,2.77,2.77,0,0,1-1.26,1A2.93,2.93,0,0,1,10.58,279.68ZM3,274.28v4.06H6.58a3.57,3.57,0,0,0,2.09-.52,1.91,1.91,0,0,0,0-3,3.57,3.57,0,0,0-2.09-.52ZM9.23,283a1.79,1.79,0,0,0,.77-1.6c0-1.4-1-2.09-3-2.09H3v4.2H7A4.12,4.12,0,0,0,9.23,283Z" transform="translate(-0.82 -3.24)"/>
        <path class="cls-1" d="M14.9,284a4,4,0,0,1-1.54-1.53,4.64,4.64,0,0,1,0-4.42,4,4,0,0,1,1.54-1.52,4.71,4.71,0,0,1,4.38,0,4,4,0,0,1,1.53,1.52,4.72,4.72,0,0,1,0,4.42A4,4,0,0,1,19.28,284a4.64,4.64,0,0,1-4.38,0Zm3.8-.87A2.83,2.83,0,0,0,19.81,282a3.86,3.86,0,0,0,0-3.42,2.89,2.89,0,0,0-1.11-1.16,3.37,3.37,0,0,0-3.22,0,2.91,2.91,0,0,0-1.12,1.16,3.77,3.77,0,0,0,0,3.42,2.85,2.85,0,0,0,1.12,1.16,3.37,3.37,0,0,0,3.22,0Z" transform="translate(-0.82 -3.24)"/>
        <path class="cls-1" d="M31.36,272.63V284.5H30.27v-1.66a3.48,3.48,0,0,1-1.35,1.29,4,4,0,0,1-1.9.45,4.28,4.28,0,0,1-2.14-.54,3.91,3.91,0,0,1-1.5-1.52,4.78,4.78,0,0,1,0-4.45,3.76,3.76,0,0,1,1.5-1.51A4.28,4.28,0,0,1,27,276a4,4,0,0,1,1.85.42,3.57,3.57,0,0,1,1.35,1.24v-5.05Zm-2.65,10.53A2.79,2.79,0,0,0,29.83,282a3.77,3.77,0,0,0,0-3.42,2.85,2.85,0,0,0-1.12-1.16,3.14,3.14,0,0,0-1.59-.41,3.21,3.21,0,0,0-1.61.41,2.91,2.91,0,0,0-1.12,1.16,3.77,3.77,0,0,0,0,3.42,2.85,2.85,0,0,0,1.12,1.16,3.11,3.11,0,0,0,1.61.41A3,3,0,0,0,28.71,283.16Z" transform="translate(-0.82 -3.24)"/>
        <path class="cls-1" d="M41.6,276.08l-4.21,9.43a4,4,0,0,1-1.18,1.68,2.66,2.66,0,0,1-1.62.49,3.23,3.23,0,0,1-1.13-.19,2.55,2.55,0,0,1-.92-.57l.53-.85a2.13,2.13,0,0,0,1.54.64,1.56,1.56,0,0,0,1-.32,3,3,0,0,0,.76-1.09l.37-.82L33,276.08h1.18l3.17,7.16,3.17-7.16Z" transform="translate(-0.82 -3.24)"/>
        <path class="cls-1" d="M49.5,283.86a5.35,5.35,0,0,1-2.1-2,6,6,0,0,1,0-5.84,5.42,5.42,0,0,1,2.1-2,6.5,6.5,0,0,1,5.31-.32,4.72,4.72,0,0,1,1.8,1.22l-.76.75a4.42,4.42,0,0,0-3.31-1.33,4.8,4.8,0,0,0-2.41.61,4.4,4.4,0,0,0-1.71,1.66,4.91,4.91,0,0,0,0,4.74,4.4,4.4,0,0,0,1.71,1.66,4.8,4.8,0,0,0,2.41.61,4.4,4.4,0,0,0,3.31-1.34l.76.75a4.83,4.83,0,0,1-1.8,1.22,6,6,0,0,1-2.31.43A6.12,6.12,0,0,1,49.5,283.86Z" transform="translate(-0.82 -3.24)"/>
        <path class="cls-1" d="M59.78,284a4,4,0,0,1-1.54-1.53,4.64,4.64,0,0,1,0-4.42,4,4,0,0,1,1.54-1.52,4.71,4.71,0,0,1,4.38,0,4,4,0,0,1,1.53,1.52,4.72,4.72,0,0,1,0,4.42A4,4,0,0,1,64.16,284a4.64,4.64,0,0,1-4.38,0Zm3.8-.87A2.83,2.83,0,0,0,64.69,282a3.86,3.86,0,0,0,0-3.42,2.89,2.89,0,0,0-1.11-1.16A3.24,3.24,0,0,0,62,277a3.19,3.19,0,0,0-1.61.41,2.85,2.85,0,0,0-1.12,1.16,3.77,3.77,0,0,0,0,3.42,2.79,2.79,0,0,0,1.12,1.16,3.09,3.09,0,0,0,1.61.41A3.14,3.14,0,0,0,63.58,283.16Z" transform="translate(-0.82 -3.24)"/>
        <path class="cls-1" d="M75.37,276.94a3.61,3.61,0,0,1,.93,2.68v4.88H75.17v-4.77a2.79,2.79,0,0,0-.66-2,2.46,2.46,0,0,0-1.87-.69,2.85,2.85,0,0,0-2.15.81,3,3,0,0,0-.8,2.23v4.42H68.56v-8.42h1.09v1.56a3.22,3.22,0,0,1,1.28-1.2,4.18,4.18,0,0,1,1.92-.42A3.47,3.47,0,0,1,75.37,276.94Z" transform="translate(-0.82 -3.24)"/>
        <path class="cls-1" d="M83.82,284a2.08,2.08,0,0,1-.79.44,3.19,3.19,0,0,1-1,.15,2.23,2.23,0,0,1-2.47-2.45V277h-1.5v-1h1.5v-1.84h1.14v1.84h2.56v1H80.72v5a1.58,1.58,0,0,0,.37,1.14,1.46,1.46,0,0,0,1.08.39,1.9,1.9,0,0,0,.68-.11,1.59,1.59,0,0,0,.57-.32Z" transform="translate(-0.82 -3.24)"/>
        <path class="cls-1" d="M92.91,280.64h-7a3,3,0,0,0,1,2.12,3.33,3.33,0,0,0,2.3.81,3.52,3.52,0,0,0,1.44-.28,3.08,3.08,0,0,0,1.14-.82l.64.73a3.63,3.63,0,0,1-1.4,1,4.84,4.84,0,0,1-1.85.35,4.69,4.69,0,0,1-2.3-.55,4.09,4.09,0,0,1-1.56-1.53,4.4,4.4,0,0,1-.56-2.21,4.49,4.49,0,0,1,.54-2.21,4,4,0,0,1,1.47-1.52,4.17,4.17,0,0,1,2.11-.54,4.07,4.07,0,0,1,2.09.54,3.88,3.88,0,0,1,1.46,1.52,4.54,4.54,0,0,1,.53,2.21Zm-6.1-2.87a3.08,3.08,0,0,0-.94,2h6a3.08,3.08,0,0,0-.94-2,3.1,3.1,0,0,0-4.09,0Z" transform="translate(-0.82 -3.24)"/>
        <path class="cls-1" d="M102.06,276.94a3.61,3.61,0,0,1,.93,2.68v4.88h-1.14v-4.77a2.79,2.79,0,0,0-.65-2,2.46,2.46,0,0,0-1.87-.69,2.85,2.85,0,0,0-2.15.81,3,3,0,0,0-.8,2.23v4.42H95.25v-8.42h1.08v1.56a3.18,3.18,0,0,1,1.29-1.2,4.18,4.18,0,0,1,1.92-.42A3.47,3.47,0,0,1,102.06,276.94Z" transform="translate(-0.82 -3.24)"/>
        <path class="cls-1" d="M110.51,284a2.16,2.16,0,0,1-.79.44,3.24,3.24,0,0,1-1,.15,2.47,2.47,0,0,1-1.83-.64,2.44,2.44,0,0,1-.64-1.81V277h-1.5v-1h1.5v-1.84h1.14v1.84H110v1h-2.56v5a1.58,1.58,0,0,0,.37,1.14,1.43,1.43,0,0,0,1.08.39,1.94,1.94,0,0,0,.68-.11,1.59,1.59,0,0,0,.57-.32Z" transform="translate(-0.82 -3.24)"/>
        <path class="cls-1" d="M116.14,279.67h4.19v1h-4.19Z" transform="translate(-0.82 -3.24)"/>
        <path class="cls-1" d="M125,273.3v11.2h-1.15V274.32h-2.64v-1Z" transform="translate(-0.82 -3.24)"/>
        <path class="cls-1" d="M134.23,278.21a3.14,3.14,0,0,1,1.82,3,3.29,3.29,0,0,1-.5,1.8,3.22,3.22,0,0,1-1.37,1.21,4.31,4.31,0,0,1-2,.43,4.13,4.13,0,0,1-3.41-1.47,6.45,6.45,0,0,1-1.18-4.13,7.05,7.05,0,0,1,.64-3.17,4.44,4.44,0,0,1,1.79-2,5.34,5.34,0,0,1,2.69-.67,5.11,5.11,0,0,1,2.66.61l-.47.93a3.91,3.91,0,0,0-2.17-.53,3.72,3.72,0,0,0-2.92,1.18,5,5,0,0,0-1,3.41,7.81,7.81,0,0,0,0,.92,3,3,0,0,1,1.32-1.42,4.24,4.24,0,0,1,2.1-.5A4.38,4.38,0,0,1,134.23,278.21Zm-.08,4.75a2.24,2.24,0,0,0,.76-1.77,2.2,2.2,0,0,0-.76-1.76,3,3,0,0,0-2.06-.66,3.37,3.37,0,0,0-1.49.32,2.66,2.66,0,0,0-1,.88,2.29,2.29,0,0,0-.37,1.25,2.15,2.15,0,0,0,.35,1.18,2.43,2.43,0,0,0,1,.88,3.49,3.49,0,0,0,1.6.34A2.91,2.91,0,0,0,134.15,283Z" transform="translate(-0.82 -3.24)"/>
        <path class="cls-1" d="M148.8,276.56a3.76,3.76,0,0,1,1.5,1.51,4.4,4.4,0,0,1,.55,2.22,4.45,4.45,0,0,1-.55,2.24,3.8,3.8,0,0,1-1.49,1.51,4.33,4.33,0,0,1-2.16.54,4,4,0,0,1-1.84-.42,3.67,3.67,0,0,1-1.36-1.24v4.68h-1.13V276.08h1.09v1.67a3.46,3.46,0,0,1,1.35-1.28,3.94,3.94,0,0,1,1.89-.45A4.32,4.32,0,0,1,148.8,276.56Zm-.63,6.6A2.81,2.81,0,0,0,149.3,282a3.54,3.54,0,0,0,.41-1.71,3.48,3.48,0,0,0-.41-1.7,2.93,2.93,0,0,0-1.13-1.16,3.26,3.26,0,0,0-3.2,0,2.91,2.91,0,0,0-1.12,1.16,3.37,3.37,0,0,0-.41,1.7,3.43,3.43,0,0,0,.41,1.71,2.79,2.79,0,0,0,1.12,1.16,3.33,3.33,0,0,0,3.2,0Z" transform="translate(-0.82 -3.24)"/>
        <path class="cls-1" d="M158.22,284.5,155.55,281l-2.69,3.52h-1.28l3.33-4.32-3.17-4.1H153l2.53,3.3,2.53-3.3h1.25l-3.17,4.1,3.36,4.32Z" transform="translate(-0.82 -3.24)"/>
        <path class="cls-1" d="M9.26,317.28a2.39,2.39,0,0,1,.53,1.6,2.24,2.24,0,0,1-.94,1.94,4.64,4.64,0,0,1-2.75.68H1.6v-9.8H5.82a4.27,4.27,0,0,1,2.55.66,2.17,2.17,0,0,1,.9,1.86,2.28,2.28,0,0,1-1.5,2.23A2.58,2.58,0,0,1,9.26,317.28Zm-6.63-4.73v3.56H5.75a3.19,3.19,0,0,0,1.84-.45,1.53,1.53,0,0,0,.64-1.33A1.5,1.5,0,0,0,7.59,313a3.18,3.18,0,0,0-1.84-.46Zm5.45,7.65a1.56,1.56,0,0,0,.67-1.4c0-1.22-.89-1.84-2.66-1.84H2.63v3.69H6.09A3.6,3.6,0,0,0,8.08,320.2Z" transform="translate(-0.82 -3.24)"/>
        <path class="cls-1" d="M13.13,320.49a4.36,4.36,0,0,1-1.06-3.18V311.7h1v5.57a3.68,3.68,0,0,0,.77,2.55,2.89,2.89,0,0,0,2.23.84,2.88,2.88,0,0,0,2.24-.84,3.68,3.68,0,0,0,.77-2.55V311.7h1v5.61a4.36,4.36,0,0,1-1.06,3.18,3.91,3.91,0,0,1-3,1.09A4,4,0,0,1,13.13,320.49Z" transform="translate(-0.82 -3.24)"/>
        <path class="cls-1" d="M25,312.6H21.5v-.9h7.93v.9H26v8.9H25Z" transform="translate(-0.82 -3.24)"/>
        <path class="cls-1" d="M33.12,312.6H29.68v-.9H37.6v.9H34.16v8.9h-1Z" transform="translate(-0.82 -3.24)"/>
        <path class="cls-1" d="M40.76,320.93a4.8,4.8,0,0,1-1.85-1.78,5.26,5.26,0,0,1,0-5.1,4.8,4.8,0,0,1,1.85-1.78,5.68,5.68,0,0,1,5.26,0A4.8,4.8,0,0,1,47.87,314a5.23,5.23,0,0,1,0,5.12A4.8,4.8,0,0,1,46,320.94a5.68,5.68,0,0,1-5.26,0Zm4.74-.8A3.79,3.79,0,0,0,47,318.68a4.35,4.35,0,0,0,0-4.16,3.86,3.86,0,0,0-1.47-1.45,4.45,4.45,0,0,0-4.21,0,3.82,3.82,0,0,0-1.48,1.45,4.28,4.28,0,0,0,0,4.16,3.75,3.75,0,0,0,1.48,1.45,4.45,4.45,0,0,0,4.21,0Z" transform="translate(-0.82 -3.24)"/>
        <path class="cls-1" d="M59.05,311.7v9.8H58.2l-6.3-7.95v7.95h-1v-9.8h.86L58,319.65V311.7Z" transform="translate(-0.82 -3.24)"/>
        <path class="cls-1" d="M65.15,317.27h3.67v.87H65.15Z" transform="translate(-0.82 -3.24)"/>
        <path class="cls-1" d="M76.77,311.7v9.8h-1v-8.9H73.46v-.9Z" transform="translate(-0.82 -3.24)"/>
        <path class="cls-1" d="M87.44,318.92h-2v2.58h-1v-2.58H78.94v-.72l5.2-6.5h1.12l-5,6.33H84.5v-2.27h1V318h2Z" transform="translate(-0.82 -3.24)"/>
        <path class="cls-1" d="M98.36,314.55a3.35,3.35,0,0,1,1.32,1.32,4.3,4.3,0,0,1,0,3.91,3.39,3.39,0,0,1-1.31,1.32,3.8,3.8,0,0,1-1.88.47,3.45,3.45,0,0,1-1.62-.37,3,3,0,0,1-1.18-1.09v4.11h-1V314.14h1v1.45a3.12,3.12,0,0,1,1.19-1.12,3.48,3.48,0,0,1,1.66-.39A3.79,3.79,0,0,1,98.36,314.55Zm-.54,5.78a2.57,2.57,0,0,0,1-1,3.08,3.08,0,0,0,.36-1.5,3,3,0,0,0-.36-1.49,2.54,2.54,0,0,0-1-1,2.78,2.78,0,0,0-1.4-.36,2.74,2.74,0,0,0-1.41.36,2.54,2.54,0,0,0-1,1,3,3,0,0,0-.36,1.49,3.08,3.08,0,0,0,.36,1.5,2.57,2.57,0,0,0,1,1,2.74,2.74,0,0,0,1.41.36A2.78,2.78,0,0,0,97.82,320.33Z" transform="translate(-0.82 -3.24)"/>
        <path class="cls-1" d="M106.61,321.5l-2.34-3.08-2.35,3.08H100.8l2.91-3.78-2.77-3.58h1.12l2.21,2.88,2.21-2.88h1.09l-2.77,3.58,2.94,3.78Z" transform="translate(-0.82 -3.24)"/>
      </g>
    </g>
  </g>
</svg>
