<svg xmlns="http://www.w3.org/2000/svg" xmlns:xlink="http://www.w3.org/1999/xlink" viewBox="0 0 541.02 62.49">
  <defs>
    <style>
      .cls-1, .cls-2 {
        fill: #fff;
      }

      .cls-2 {
        fill-rule: evenodd;
      }

      .cls-3 {
        fill: #4caf50;
      }

      .cls-4 {
        mask: url(#mask);
      }

      .cls-5 {
        fill: #f4b400;
      }

      .cls-6 {
        mask: url(#mask-2);
      }

      .cls-7 {
        fill: #db4437;
      }

      .cls-8 {
        fill: #ffc907;
      }

      .cls-9 {
        fill: #444;
      }
    </style>
    <mask id="mask" x="312.73" y="13.54" width="16" height="12.3" maskUnits="userSpaceOnUse">
      <g id="mask0">
        <path class="cls-1" d="M317.81,23.25,314,19.42l-1.29,1.3,5.08,5.12,10.92-11-1.29-1.3Z"/>
      </g>
    </mask>
    <mask id="mask-2" x="235.66" y="12.28" width="14" height="14" maskUnits="userSpaceOnUse">
      <g id="mask0-2" data-name="mask0">
        <path class="cls-2" d="M249.66,13.68l-1.4-1.4-5.6,5.6-5.6-5.6-1.4,1.4,5.6,5.6-5.6,5.6,1.4,1.4,5.6-5.6,5.6,5.6,1.4-1.4-5.6-5.6Z"/>
      </g>
    </mask>
  </defs>
  <g id="Layer_2" data-name="Layer 2">
    <g id="Layer_1-2" data-name="Layer 1">
      <g>
        <g>
          <path class="cls-1" d="M298.72,51.73a3.2,3.2,0,0,1,.87,2.44v5.22h-1.08V58.07a2.69,2.69,0,0,1-1.13,1,4.05,4.05,0,0,1-1.77.37,3.46,3.46,0,0,1-2.24-.68,2.32,2.32,0,0,1-.06-3.5,3.81,3.81,0,0,1,2.48-.66h2.67v-.51a2.14,2.14,0,0,0-.61-1.65,2.5,2.5,0,0,0-1.78-.57,4.64,4.64,0,0,0-1.53.26,3.9,3.9,0,0,0-1.26.73l-.52-.85a4.66,4.66,0,0,1,1.54-.84,6.23,6.23,0,0,1,1.89-.29A3.57,3.57,0,0,1,298.72,51.73Zm-1.29,6.4a2.61,2.61,0,0,0,1-1.27V55.48h-2.64c-1.44,0-2.16.5-2.16,1.51a1.39,1.39,0,0,0,.56,1.16,2.55,2.55,0,0,0,1.57.42A3,3,0,0,0,297.43,58.13Z"/>
          <path class="cls-1" d="M304,58.92a3.84,3.84,0,0,1-1.54-1.53,4.64,4.64,0,0,1,0-4.42A3.88,3.88,0,0,1,304,51.45a4.57,4.57,0,0,1,2.23-.54,4.37,4.37,0,0,1,1.95.42,3.23,3.23,0,0,1,1.35,1.24l-.85.58a2.65,2.65,0,0,0-1.06-.94,3.08,3.08,0,0,0-1.39-.31,3.22,3.22,0,0,0-1.64.41,2.87,2.87,0,0,0-1.13,1.16,3.79,3.79,0,0,0,0,3.43,2.91,2.91,0,0,0,1.13,1.15,3.33,3.33,0,0,0,1.64.41,3.08,3.08,0,0,0,1.39-.31,2.6,2.6,0,0,0,1.06-.92l.85.57A3.19,3.19,0,0,1,308.14,59a4.39,4.39,0,0,1-1.94.43A4.58,4.58,0,0,1,304,58.92Z"/>
          <path class="cls-1" d="M312.83,58.92a3.91,3.91,0,0,1-1.54-1.53,4.64,4.64,0,0,1,0-4.42,4,4,0,0,1,1.54-1.52,4.61,4.61,0,0,1,2.24-.54,4.35,4.35,0,0,1,1.94.42,3.23,3.23,0,0,1,1.35,1.24l-.85.58a2.56,2.56,0,0,0-1.05-.94,3.11,3.11,0,0,0-1.39-.31,3.2,3.2,0,0,0-1.64.41,2.83,2.83,0,0,0-1.14,1.16,3.79,3.79,0,0,0,0,3.43,2.87,2.87,0,0,0,1.14,1.15,3.3,3.3,0,0,0,1.64.41,3.11,3.11,0,0,0,1.39-.31,2.52,2.52,0,0,0,1.05-.92l.85.57A3.14,3.14,0,0,1,317,59a4.34,4.34,0,0,1-1.93.43A4.62,4.62,0,0,1,312.83,58.92Z"/>
          <path class="cls-1" d="M327.77,55.53h-7a3,3,0,0,0,1,2.12,3.33,3.33,0,0,0,2.3.81,3.7,3.7,0,0,0,1.44-.28,3.11,3.11,0,0,0,1.14-.83l.64.74a3.51,3.51,0,0,1-1.4,1,4.95,4.95,0,0,1-4.14-.2,4,4,0,0,1-1.57-1.52,4.4,4.4,0,0,1-.56-2.21,4.49,4.49,0,0,1,.54-2.21,3.91,3.91,0,0,1,1.47-1.52,4.17,4.17,0,0,1,2.11-.54,4.07,4.07,0,0,1,2.09.54A3.86,3.86,0,0,1,327.26,53a4.61,4.61,0,0,1,.53,2.22Zm-6.1-2.87a3.07,3.07,0,0,0-.94,2h6a3.07,3.07,0,0,0-.94-2,3.07,3.07,0,0,0-4.09,0Z"/>
          <path class="cls-1" d="M336.59,51.44a3.82,3.82,0,0,1,1.5,1.51,4.9,4.9,0,0,1,0,4.47,3.82,3.82,0,0,1-1.5,1.51,4.26,4.26,0,0,1-2.15.54,4,4,0,0,1-1.85-.43,3.48,3.48,0,0,1-1.35-1.24v4.69h-1.13V51h1.08v1.66a3.63,3.63,0,0,1,1.36-1.28,4.05,4.05,0,0,1,1.89-.44A4.42,4.42,0,0,1,336.59,51.44ZM336,58.05a2.87,2.87,0,0,0,1.13-1.16,3.77,3.77,0,0,0,0-3.42A3,3,0,0,0,336,52.31a3.2,3.2,0,0,0-1.6-.41,3.24,3.24,0,0,0-1.61.41,3.12,3.12,0,0,0-1.12,1.16,3.86,3.86,0,0,0,0,3.42,3,3,0,0,0,1.12,1.16,3.24,3.24,0,0,0,1.61.41A3.2,3.2,0,0,0,336,58.05Z"/>
          <path class="cls-1" d="M345.39,58.87a2.07,2.07,0,0,1-.8.44,2.92,2.92,0,0,1-1,.16,2.47,2.47,0,0,1-1.82-.64,2.44,2.44,0,0,1-.64-1.81V51.93h-1.51V51h1.51V49.13h1.13V51h2.56v1h-2.56v5a1.59,1.59,0,0,0,.38,1.15,1.43,1.43,0,0,0,1.08.39,2.25,2.25,0,0,0,.68-.11,1.76,1.76,0,0,0,.57-.32Z"/>
        </g>
        <g>
          <g id="mask0-3" data-name="mask0">
            <path class="cls-1" d="M317.81,23.25,314,19.42l-1.29,1.3,5.08,5.12,10.92-11-1.29-1.3Z"/>
          </g>
          <circle class="cls-3" cx="320.31" cy="19.43" r="19"/>
          <path class="cls-1" d="M317.81,23.25,314,19.42l-1.29,1.3,5.08,5.12,10.92-11-1.29-1.3Z"/>
        </g>
      </g>
      <g>
        <g>
          <path class="cls-1" d="M224.63,58.92a3.93,3.93,0,0,1-1.55-1.53,4.64,4.64,0,0,1,0-4.42,4,4,0,0,1,1.55-1.52,4.54,4.54,0,0,1,2.23-.54,4.35,4.35,0,0,1,1.94.42,3.32,3.32,0,0,1,1.36,1.24l-.85.58a2.65,2.65,0,0,0-1.06-.94,3.11,3.11,0,0,0-1.39-.31,3.2,3.2,0,0,0-1.64.41,2.89,2.89,0,0,0-1.14,1.16,3.88,3.88,0,0,0,0,3.43,2.93,2.93,0,0,0,1.14,1.15,3.3,3.3,0,0,0,1.64.41,3.11,3.11,0,0,0,1.39-.31,2.6,2.6,0,0,0,1.06-.92l.85.57A3.25,3.25,0,0,1,228.8,59a4.42,4.42,0,0,1-1.94.43A4.55,4.55,0,0,1,224.63,58.92Z"/>
          <path class="cls-1" d="M232.25,47.51h1.14V59.39h-1.14Z"/>
          <path class="cls-1" d="M237.8,58.91a3.92,3.92,0,0,1-1.53-1.52,4.64,4.64,0,0,1,0-4.42,3.92,3.92,0,0,1,1.53-1.52,4.73,4.73,0,0,1,4.39,0A3.92,3.92,0,0,1,243.72,53a4.72,4.72,0,0,1,0,4.42,3.92,3.92,0,0,1-1.53,1.52,4.58,4.58,0,0,1-4.39,0Zm3.8-.86a2.85,2.85,0,0,0,1.12-1.16,3.94,3.94,0,0,0,0-3.42,2.85,2.85,0,0,0-1.12-1.16,3.35,3.35,0,0,0-3.21,0,2.85,2.85,0,0,0-1.12,1.16,3.77,3.77,0,0,0,0,3.42,2.85,2.85,0,0,0,1.12,1.16,3.35,3.35,0,0,0,3.21,0Z"/>
          <path class="cls-1" d="M246.88,59.17a4.23,4.23,0,0,1-1.46-.74l.51-.9a4.37,4.37,0,0,0,1.33.68,5.15,5.15,0,0,0,1.66.26,3.2,3.2,0,0,0,1.71-.36,1.13,1.13,0,0,0,.55-1,.93.93,0,0,0-.3-.73,2,2,0,0,0-.77-.4,10.17,10.17,0,0,0-1.23-.26,12.53,12.53,0,0,1-1.65-.4,2.43,2.43,0,0,1-1.07-.68,1.9,1.9,0,0,1-.44-1.32,2.1,2.1,0,0,1,.88-1.73,4,4,0,0,1,2.45-.67,6.51,6.51,0,0,1,1.63.21,4.72,4.72,0,0,1,1.35.57l-.5.91a4.24,4.24,0,0,0-2.48-.72,2.86,2.86,0,0,0-1.64.39,1.16,1.16,0,0,0-.55,1,1,1,0,0,0,.31.77,2,2,0,0,0,.78.43c.31.09.73.18,1.28.28a12.55,12.55,0,0,1,1.61.38,2.38,2.38,0,0,1,1,.66,1.79,1.79,0,0,1,.44,1.28,2,2,0,0,1-.92,1.75,4.43,4.43,0,0,1-2.56.65A6.42,6.42,0,0,1,246.88,59.17Z"/>
          <path class="cls-1" d="M261.74,55.53h-7a3,3,0,0,0,1,2.12,3.33,3.33,0,0,0,2.3.81,3.77,3.77,0,0,0,1.44-.28,3.11,3.11,0,0,0,1.14-.83l.64.74a3.58,3.58,0,0,1-1.4,1,5,5,0,0,1-4.15-.2,4,4,0,0,1-1.56-1.52,4.4,4.4,0,0,1-.56-2.21A4.49,4.49,0,0,1,254.1,53a3.91,3.91,0,0,1,1.47-1.52,4.17,4.17,0,0,1,2.11-.54,4.09,4.09,0,0,1,2.09.54A3.86,3.86,0,0,1,261.23,53a4.61,4.61,0,0,1,.53,2.22Zm-6.1-2.87a3,3,0,0,0-.94,2h6a3.07,3.07,0,0,0-.94-2,2.86,2.86,0,0,0-2.05-.78A2.82,2.82,0,0,0,255.64,52.66Z"/>
        </g>
        <g>
          <g id="mask0-4" data-name="mask0">
            <path class="cls-2" d="M249.66,13.68l-1.4-1.4-5.6,5.6-5.6-5.6-1.4,1.4,5.6,5.6-5.6,5.6,1.4,1.4,5.6-5.6,5.6,5.6,1.4-1.4-5.6-5.6Z"/>
          </g>
          <circle class="cls-5" cx="242.66" cy="19.43" r="19"/>
          <path class="cls-2" d="M249.66,13.68l-1.4-1.4-5.6,5.6-5.6-5.6-1.4,1.4,5.6,5.6-5.6,5.6,1.4,1.4,5.6-5.6,5.6,5.6,1.4-1.4-5.6-5.6Z"/>
        </g>
      </g>
      <g>
        <g>
          <path class="cls-1" d="M482.11,48.12V60H481V58.33a3.48,3.48,0,0,1-1.35,1.29,4,4,0,0,1-1.9.45,4.28,4.28,0,0,1-2.14-.54A4,4,0,0,1,474.12,58a4.85,4.85,0,0,1,0-4.45,3.85,3.85,0,0,1,1.51-1.51,4.28,4.28,0,0,1,2.14-.54,3.91,3.91,0,0,1,1.85.43A3.46,3.46,0,0,1,481,53.17V48.12Zm-2.65,10.53a2.85,2.85,0,0,0,1.12-1.16,3.77,3.77,0,0,0,0-3.42,2.91,2.91,0,0,0-1.12-1.16,3.33,3.33,0,0,0-3.2,0,2.91,2.91,0,0,0-1.12,1.16,3.77,3.77,0,0,0,0,3.42,2.85,2.85,0,0,0,1.12,1.16,3.33,3.33,0,0,0,3.2,0Z"/>
          <path class="cls-1" d="M492.6,56.13h-7a3,3,0,0,0,1,2.12,3.36,3.36,0,0,0,2.31.81,3.59,3.59,0,0,0,1.44-.28,3.13,3.13,0,0,0,1.13-.82l.64.73a3.63,3.63,0,0,1-1.4,1,4.8,4.8,0,0,1-1.85.35,4.62,4.62,0,0,1-2.29-.55A4,4,0,0,1,485,58a4.3,4.3,0,0,1-.56-2.21,4.63,4.63,0,0,1,.53-2.21,3.84,3.84,0,0,1,1.48-1.51,4.28,4.28,0,0,1,4.2,0,3.83,3.83,0,0,1,1.45,1.51,4.54,4.54,0,0,1,.53,2.21Zm-6.1-2.87a3.08,3.08,0,0,0-.94,2h6a3.07,3.07,0,0,0-.93-2,2.92,2.92,0,0,0-2.06-.77A2.89,2.89,0,0,0,486.5,53.26Z"/>
          <path class="cls-1" d="M494.94,48.12h1.14V60h-1.14Z"/>
          <path class="cls-1" d="M506.57,56.13h-7a3,3,0,0,0,1,2.12,3.35,3.35,0,0,0,2.3.81,3.52,3.52,0,0,0,1.44-.28,3.08,3.08,0,0,0,1.14-.82l.64.73a3.63,3.63,0,0,1-1.4,1,4.84,4.84,0,0,1-1.85.35,4.62,4.62,0,0,1-2.29-.55A4,4,0,0,1,499,58a4.3,4.3,0,0,1-.56-2.21,4.51,4.51,0,0,1,.53-2.21,3.88,3.88,0,0,1,1.47-1.51,4.08,4.08,0,0,1,2.11-.55,4,4,0,0,1,2.09.55,3.79,3.79,0,0,1,1.46,1.51,4.54,4.54,0,0,1,.53,2.21Zm-6.1-2.87a3.08,3.08,0,0,0-.94,2h6a3.08,3.08,0,0,0-.94-2,3.1,3.1,0,0,0-4.09,0Z"/>
          <path class="cls-1" d="M513.34,59.48a2.16,2.16,0,0,1-.79.44,3.3,3.3,0,0,1-1,.15,2.23,2.23,0,0,1-2.46-2.45V52.53h-1.5v-1h1.5V49.73h1.14v1.84h2.56v1h-2.56v5a1.58,1.58,0,0,0,.37,1.14,1.43,1.43,0,0,0,1.08.39,1.94,1.94,0,0,0,.68-.11,1.59,1.59,0,0,0,.57-.32Z"/>
          <path class="cls-1" d="M522.43,56.13h-7a3,3,0,0,0,1,2.12,3.31,3.31,0,0,0,2.3.81,3.59,3.59,0,0,0,1.44-.28,3.08,3.08,0,0,0,1.14-.82l.64.73a3.7,3.7,0,0,1-1.4,1,4.84,4.84,0,0,1-1.85.35,4.66,4.66,0,0,1-2.3-.55A4,4,0,0,1,514.81,58a4.4,4.4,0,0,1-.56-2.21,4.52,4.52,0,0,1,.54-2.21,3.81,3.81,0,0,1,1.47-1.51,4.28,4.28,0,0,1,4.2,0,3.86,3.86,0,0,1,1.46,1.51,4.54,4.54,0,0,1,.52,2.21Zm-6.11-2.87a3,3,0,0,0-.93,2h6a3.08,3.08,0,0,0-.94-2,2.92,2.92,0,0,0-2.06-.77A2.89,2.89,0,0,0,516.32,53.26Z"/>
        </g>
        <g>
          <g>
            <circle class="cls-7" cx="474.01" cy="19.78" r="19"/>
            <path class="cls-1" d="M464.41,18.18h19.2v3.2h-19.2Z"/>
          </g>
          <g>
            <circle class="cls-7" cx="522.02" cy="20.18" r="19"/>
            <path class="cls-2" d="M525.52,12.18H529v2H515v-2h3.5l1-1h5Zm-7.5,17a2,2,0,0,1-2-2v-12h12v12a2,2,0,0,1-2,2Z"/>
          </g>
        </g>
      </g>
      <g>
        <g>
          <path class="cls-1" d="M388,52.18a3.18,3.18,0,0,1,.88,2.44v5.22h-1.09V58.53a2.5,2.5,0,0,1-1.13,1,3.84,3.84,0,0,1-1.76.37,3.44,3.44,0,0,1-2.24-.67,2.31,2.31,0,0,1-.06-3.51,3.84,3.84,0,0,1,2.47-.65h2.67v-.51a2.18,2.18,0,0,0-.6-1.66,2.52,2.52,0,0,0-1.78-.57,4.46,4.46,0,0,0-1.54.27,3.71,3.71,0,0,0-1.26.72L382,52.5a4.28,4.28,0,0,1,1.53-.84,5.94,5.94,0,0,1,1.89-.3A3.61,3.61,0,0,1,388,52.18Zm-1.28,6.4a2.55,2.55,0,0,0,1-1.27V55.94h-2.64q-2.16,0-2.16,1.5a1.38,1.38,0,0,0,.56,1.16,2.59,2.59,0,0,0,1.57.42A3,3,0,0,0,386.7,58.58Z"/>
          <path class="cls-1" d="M399.66,48V59.84h-1.09V58.18a3.48,3.48,0,0,1-1.35,1.29,4,4,0,0,1-1.9.45,4.28,4.28,0,0,1-2.14-.54,3.91,3.91,0,0,1-1.5-1.52,4.78,4.78,0,0,1,0-4.45,3.76,3.76,0,0,1,1.5-1.51,4.28,4.28,0,0,1,2.14-.54,4,4,0,0,1,1.85.42A3.57,3.57,0,0,1,398.52,53V48ZM397,58.5a2.79,2.79,0,0,0,1.12-1.16,3.77,3.77,0,0,0,0-3.42A2.85,2.85,0,0,0,397,52.76a3.14,3.14,0,0,0-1.59-.41,3.21,3.21,0,0,0-1.61.41,2.91,2.91,0,0,0-1.12,1.16,3.77,3.77,0,0,0,0,3.42,2.85,2.85,0,0,0,1.12,1.16,3.11,3.11,0,0,0,1.61.41A3,3,0,0,0,397,58.5Z"/>
          <path class="cls-1" d="M410.51,48V59.84h-1.09V58.18a3.48,3.48,0,0,1-1.35,1.29,4,4,0,0,1-1.9.45,4.28,4.28,0,0,1-2.14-.54,4,4,0,0,1-1.51-1.52,4.85,4.85,0,0,1,0-4.45A3.85,3.85,0,0,1,404,51.9a4.28,4.28,0,0,1,2.14-.54,4,4,0,0,1,1.85.42A3.57,3.57,0,0,1,409.37,53V48ZM407.86,58.5A2.85,2.85,0,0,0,409,57.34a3.77,3.77,0,0,0,0-3.42,2.91,2.91,0,0,0-1.12-1.16,3.33,3.33,0,0,0-3.2,0,2.91,2.91,0,0,0-1.12,1.16,3.77,3.77,0,0,0,0,3.42,2.85,2.85,0,0,0,1.12,1.16,3.33,3.33,0,0,0,3.2,0Z"/>
        </g>
        <g>
          <circle class="cls-3" cx="396.51" cy="18.93" r="18.5"/>
          <path class="cls-2" d="M395.51,11.93v6h-6v2h6v6h2v-6h6v-2h-6v-6Z"/>
        </g>
      </g>
      <g>
        <g>
          <path class="cls-1" d="M71.49,51.9A3.76,3.76,0,0,1,73,53.41a4.85,4.85,0,0,1,0,4.45,3.91,3.91,0,0,1-1.5,1.52,4.32,4.32,0,0,1-2.15.54,3.94,3.94,0,0,1-1.89-.45,3.58,3.58,0,0,1-1.36-1.29v1.66H65V48h1.13V53a3.57,3.57,0,0,1,1.35-1.24,4,4,0,0,1,1.85-.42A4.32,4.32,0,0,1,71.49,51.9Zm-.63,6.6A2.81,2.81,0,0,0,72,57.34a3.77,3.77,0,0,0,0-3.42,2.87,2.87,0,0,0-1.13-1.16,3.35,3.35,0,0,0-3.21,0,3,3,0,0,0-1.12,1.16,3.86,3.86,0,0,0,0,3.42,2.91,2.91,0,0,0,1.12,1.16,3.35,3.35,0,0,0,3.21,0Z"/>
          <path class="cls-1" d="M83.44,51.42v8.42H82.35V58.3a3.15,3.15,0,0,1-1.23,1.2,3.75,3.75,0,0,1-1.79.42,3.27,3.27,0,0,1-3.56-3.62V51.42h1.14v4.77a2.81,2.81,0,0,0,.66,2,2.45,2.45,0,0,0,1.87.69,2.74,2.74,0,0,0,2.09-.81,3.11,3.11,0,0,0,.77-2.25V51.42Z"/>
          <path class="cls-1" d="M91.05,59.33a2.08,2.08,0,0,1-.79.44,3.19,3.19,0,0,1-1,.15,2.23,2.23,0,0,1-2.47-2.45V52.38h-1.5v-1h1.5V49.58H88v1.84h2.56v1H88v5a1.54,1.54,0,0,0,.38,1.14,1.43,1.43,0,0,0,1.08.39,2,2,0,0,0,.68-.11,1.64,1.64,0,0,0,.56-.32Z"/>
          <path class="cls-1" d="M97.33,59.33a2.21,2.21,0,0,1-.8.44,3.19,3.19,0,0,1-1,.15,2.23,2.23,0,0,1-2.46-2.45V52.38H91.58v-1h1.51V49.58h1.13v1.84h2.56v1H94.22v5a1.58,1.58,0,0,0,.38,1.14,1.43,1.43,0,0,0,1.08.39,2,2,0,0,0,.68-.11,1.59,1.59,0,0,0,.57-.32Z"/>
          <path class="cls-1" d="M100.33,59.37a4,4,0,0,1-1.53-1.53,4.64,4.64,0,0,1,0-4.42,4,4,0,0,1,1.53-1.52,4.73,4.73,0,0,1,4.39,0,4,4,0,0,1,1.53,1.52,4.72,4.72,0,0,1,0,4.42,4,4,0,0,1-1.53,1.53,4.66,4.66,0,0,1-4.39,0Zm3.8-.87a2.79,2.79,0,0,0,1.12-1.16,3.86,3.86,0,0,0,0-3.42,2.85,2.85,0,0,0-1.12-1.16,3.35,3.35,0,0,0-3.21,0,2.85,2.85,0,0,0-1.12,1.16,3.77,3.77,0,0,0,0,3.42,2.79,2.79,0,0,0,1.12,1.16,3.35,3.35,0,0,0,3.21,0Z"/>
          <path class="cls-1" d="M115.93,52.28a3.61,3.61,0,0,1,.93,2.68v4.88h-1.13V55.07a2.79,2.79,0,0,0-.66-2,2.46,2.46,0,0,0-1.87-.69,2.85,2.85,0,0,0-2.15.81,3.06,3.06,0,0,0-.8,2.23v4.42h-1.13V51.42h1.09V53a3.09,3.09,0,0,1,1.28-1.2,4.18,4.18,0,0,1,1.92-.42A3.47,3.47,0,0,1,115.93,52.28Z"/>
        </g>
        <g>
          <path class="cls-8" d="M2.22,0H179.57c1.23,0,2.22,1.79,2.22,4V37c0,2.21-1,4-2.22,4H2.22C1,41,0,39.21,0,37V4C0,1.79,1,0,2.22,0Z"/>
          <path class="cls-9" d="M30.73,25.61a7,7,0,0,1-2.14-.33,4.62,4.62,0,0,1-1.61-.9l.52-1.09a4.42,4.42,0,0,0,1.42.82,5.34,5.34,0,0,0,1.81.31,3.3,3.3,0,0,0,1.82-.4,1.29,1.29,0,0,0,.6-1.11,1,1,0,0,0-.33-.81,2,2,0,0,0-.82-.49c-.31-.11-.77-.24-1.35-.38a14.68,14.68,0,0,1-1.8-.53,3.21,3.21,0,0,1-1.16-.81,2.25,2.25,0,0,1-.47-1.5,2.58,2.58,0,0,1,.4-1.42,2.86,2.86,0,0,1,1.26-1A5,5,0,0,1,31,15.59a6.58,6.58,0,0,1,1.71.22,4.54,4.54,0,0,1,1.44.65l-.46,1.12A4.6,4.6,0,0,0,32.34,17,4.75,4.75,0,0,0,31,16.78a3,3,0,0,0-1.79.43,1.31,1.31,0,0,0-.59,1.12,1.12,1.12,0,0,0,.33.83,2.61,2.61,0,0,0,.83.49c.34.11.79.23,1.36.36a15.52,15.52,0,0,1,1.78.53,2.9,2.9,0,0,1,1.14.82,2.09,2.09,0,0,1,.49,1.47,2.53,2.53,0,0,1-.42,1.41,2.85,2.85,0,0,1-1.27,1A5.42,5.42,0,0,1,30.73,25.61ZM45,24.28V25.5H37.92V15.7h6.92v1.22H39.32v3h4.91v1.19H39.32v3.16Zm10.73,0V25.5H48.65V15.7h6.91v1.22H50.05v3H55v1.19H50.05v3.16Zm10.67-7.36H63.07V15.7h8.11v1.22H67.82V25.5H66.43Zm7.62-1.22h1.4v9.8h-1.4Zm14.77,9.8V18.36l-3.54,5.95h-.65L81.08,18.4v7.1H79.74V15.7h1.15L85,22.59l4-6.89h1.14l0,9.8Zm12.75-1.22V25.5H94.46V15.7h6.91v1.22H95.86v3h4.91v1.19H95.86v3.16Zm5.56-7.36h-3.36V15.7h8.11v1.22h-3.36V25.5h-1.39Zm13.38,6.13H115.3l-1.08,2.45h-1.44l4.44-9.8h1.38l4.45,9.8h-1.47ZM120,21.93l-2.12-4.8-2.11,4.8Zm12.44-1.51a2.47,2.47,0,0,1,1.34.87,2.41,2.41,0,0,1,.49,1.56,2.25,2.25,0,0,1-1,2,4.75,4.75,0,0,1-2.79.69h-4.67V15.7h4.39a4.27,4.27,0,0,1,2.59.67,2.17,2.17,0,0,1,.93,1.86,2.39,2.39,0,0,1-.37,1.33A2.26,2.26,0,0,1,132.46,20.42Zm-5.19-3.59V20h2.87a2.94,2.94,0,0,0,1.65-.39,1.35,1.35,0,0,0,.59-1.18,1.31,1.31,0,0,0-.59-1.16,2.85,2.85,0,0,0-1.65-.41Zm3.22,7.54a3.23,3.23,0,0,0,1.79-.4,1.36,1.36,0,0,0,.6-1.23c0-1.09-.8-1.64-2.39-1.64h-3.22v3.27Zm7.32-8.67h1.4v8.58h5.31V25.5h-6.71Zm16.78,8.58V25.5h-7.12V15.7h6.92v1.22h-5.52v3h4.92v1.19h-4.92v3.16Z"/>
        </g>
      </g>
    </g>
  </g>
</svg>
