<svg xmlns="http://www.w3.org/2000/svg" viewBox="0 0 265.7 265.7">
  <defs>
    <style>
      .cls-1 {
        fill: #1c1c1c;
      }

      .cls-2 {
        isolation: isolate;
      }

      .cls-3 {
        fill: #03cea9;
      }

      .cls-4 {
        fill: #fff;
      }
    </style>
  </defs>
  <g id="Layer_2" data-name="Layer 2">
    <g id="Layer_1-2" data-name="Layer 1">
      <path class="cls-1" d="M209.1,0H56.6A56.68,56.68,0,0,0,0,56.6V209.1a56.61,56.61,0,0,0,56.6,56.6H209.1a56.61,56.61,0,0,0,56.6-56.6V56.6A56.68,56.68,0,0,0,209.1,0Z"/>
      <g id="Layer_2-2" data-name="Layer 2">
        <g id="Layer_1-2-2" data-name="Layer 1-2">
          <g class="cls-2">
            <path class="cls-3" d="M29.93,174.73V97.78H40.81c1.89,0,3.22.35,4,1a6,6,0,0,1,1.5,3.6l1.13,9.3a36.42,36.42,0,0,1,9.67-11.25,20.35,20.35,0,0,1,12.45-4.12A16.09,16.09,0,0,1,79,99l-2.4,13.88a2.91,2.91,0,0,1-1,1.91,3.37,3.37,0,0,1-2,.56,12.47,12.47,0,0,1-3.07-.52,20.65,20.65,0,0,0-5.18-.53,15.68,15.68,0,0,0-9.9,3.19,24.52,24.52,0,0,0-7,9.34v47.92Z"/>
          </g>
          <g class="cls-2">
            <path class="cls-3" d="M86.18,174.73V97.78H97.06c1.89,0,3.22.35,4,1a6,6,0,0,1,1.5,3.6l1.13,9.3a36.42,36.42,0,0,1,9.67-11.25,20.35,20.35,0,0,1,12.45-4.12A16.09,16.09,0,0,1,135.23,99l-2.4,13.88a2.91,2.91,0,0,1-1,1.91,3.37,3.37,0,0,1-2,.56,12.47,12.47,0,0,1-3.07-.52,20.65,20.65,0,0,0-5.18-.53,15.68,15.68,0,0,0-9.9,3.19,24.52,24.52,0,0,0-7,9.34v47.92Z"/>
          </g>
          <g class="cls-2">
            <path class="cls-4" d="M192,114.06a9,9,0,0,1-1.62,1.64,3.66,3.66,0,0,1-2.29.61,5,5,0,0,1-2.77-.87c-.9-.57-2-1.22-3.23-2a24.61,24.61,0,0,0-4.46-1.95,20.62,20.62,0,0,0-6.41-.86,19.63,19.63,0,0,0-8.55,1.76,16.23,16.23,0,0,0-6.11,5.07,22.73,22.73,0,0,0-3.64,8,43,43,0,0,0-1.2,10.62A41.82,41.82,0,0,0,153,147.06a23.54,23.54,0,0,0,3.79,8.06,16.4,16.4,0,0,0,6,4.95,18.25,18.25,0,0,0,7.95,1.69,19.78,19.78,0,0,0,7.16-1.09,23.32,23.32,0,0,0,4.62-2.4c1.24-.88,2.33-1.68,3.26-2.4a4.88,4.88,0,0,1,3.11-1.09,3.77,3.77,0,0,1,3.38,1.73l5.32,6.75a33.62,33.62,0,0,1-6.68,6,35.22,35.22,0,0,1-7.46,3.9,38.22,38.22,0,0,1-8,2.07,58.38,58.38,0,0,1-8.18.6,34.07,34.07,0,0,1-13.43-2.67,31.2,31.2,0,0,1-11-7.76,37.38,37.38,0,0,1-7.43-12.49,48.34,48.34,0,0,1-2.73-16.83,49.15,49.15,0,0,1,2.43-15.72,35.65,35.65,0,0,1,7.16-12.52,32.82,32.82,0,0,1,11.71-8.29,40.22,40.22,0,0,1,16-3,38.23,38.23,0,0,1,15.12,2.78,37,37,0,0,1,11.66,8Z"/>
            <path class="cls-4" d="M205.05,164.53a11.42,11.42,0,0,1,.87-4.42,10.43,10.43,0,0,1,2.4-3.6,11.54,11.54,0,0,1,3.63-2.4,11.31,11.31,0,0,1,4.5-.91,11.55,11.55,0,0,1,8,3.31,11.35,11.35,0,0,1,2.4,3.6,11.4,11.4,0,0,1,0,8.88,11.44,11.44,0,0,1-2.4,3.57,10.93,10.93,0,0,1-3.6,2.36,11.65,11.65,0,0,1-4.43.86,11.82,11.82,0,0,1-4.5-.86,11.28,11.28,0,0,1-3.63-2.36,10.5,10.5,0,0,1-2.4-3.57A11.33,11.33,0,0,1,205.05,164.53Z"/>
          </g>
        </g>
      </g>
    </g>
  </g>
</svg>
